  0
SECTION
  2
HEADER
  9
$ACADVER
  1
AC1006
  9
$AXISMODE
 70
     0
  9
$AXISUNIT
 10
0.125
 20
0.125
  9
$CECOLOR
 62
0
  9
$CELTYPE
  6
CONTINUOUS
  9
$CLAYER
  8
B1822G_1_2
  9
$EXTMIN
 10
0
 20
0
  9
$EXTMAX
 10
122.3889
 20
61.1806
  9
$LIMMIN
 10
0
 20
0
  9
$LIMMAX
 10
122.3889
 20
61.1806
  9
$GRIDMODE
 70
     0
  9
$GRIDUNIT
 10
0.125
 20
0.125
  9
$MIRRTEXT
 70
     1
  9
$SNAPMODE
 70
     1
  9
$SNAPUNIT
 10
0.125
 20
0
  9
$SNAPSTYLE
 70
     0
  9
$SPLINESEGS
 70
     8
  9
$SPLINETYPE
 70
     6
  0
ENDSEC
  0
SECTION
  2
TABLES
  0
TABLE
  2
LTYPE
 70
     1
  0
LTYPE
  2
CONTINUOUS
 70
    64
  3
Descriptive Text
 72
    65
 73
     0
 40
0
  0
ENDTAB
  0
TABLE
  2
LAYER
 70
     1
  0
LAYER
  2
B1822G_1_2
 70
     0
 62
     7
  6
CONTINUOUS
  0
ENDTAB
  0
TABLE
  2
STYLE
 70
     1
  0
STYLE
  2
STANDARD
 70
    64
 40
0.0
 41
1.0
 50
0.0
 71
     0
 42
0.2
  3
txt
  4

  0
STYLE
  2
ARIAL
 70
    64
 40
0.0
 41
1.0
 50
0.0
 71
     0
 42
0.2
  3
arial
  4

  0
ENDTAB
  0
TABLE
  2
VIEW
 70
     0
  0
ENDTAB
  0
TABLE
  2
USC
 70
     0
  0
ENDTAB
  0
TABLE
  2
DWGMGR
 70
     0
  0
ENDTAB
  0
ENDSEC
  0
SECTION
  2
BLOCKS
  0
BLOCK
  8
B1822G_1_2
  2
Group1
 70
     0
 10
0
 20
0
 30
0
  0
POLYLINE
  8
B1822G_1_2
  6
CONTINUOUS
 62
     7
 66
     1
 40
0.0139
 41
0.0139
  0
VERTEX
  8
B1822G_1_2
 10
0.5531
 20
0.7852
 30
0
 70
     0
  0
VERTEX
  8
B1822G_1_2
 10
0.5531
 20
0.5509
 30
0
 70
     0
  0
SEQEND
  0
POLYLINE
  8
B1822G_1_2
  6
CONTINUOUS
 62
     7
 66
     1
 40
0.0139
 41
0.0139
  0
VERTEX
  8
B1822G_1_2
 10
0.7406
 20
0.7852
 30
0
 70
     0
  0
VERTEX
  8
B1822G_1_2
 10
0.7406
 20
0.5509
 30
0
 70
     0
  0
SEQEND
  0
POLYLINE
  8
B1822G_1_2
  6
CONTINUOUS
 62
     7
 66
     1
 40
0.0139
 41
0.0139
  0
VERTEX
  8
B1822G_1_2
 10
0.5531
 20
0.5509
 30
0
 70
     0
  0
VERTEX
  8
B1822G_1_2
 10
0.7406
 20
0.5509
 30
0
 70
     0
  0
SEQEND
  0
POLYLINE
  8
B1822G_1_2
  6
CONTINUOUS
 62
     7
 66
     1
 40
0.0139
 41
0.0139
  0
VERTEX
  8
B1822G_1_2
 10
0.975
 20
0.3633
 30
0
 70
     0
  0
VERTEX
  8
B1822G_1_2
 10
0.7407
 20
0.3633
 30
0
 70
     0
  0
SEQEND
  0
POLYLINE
  8
B1822G_1_2
  6
CONTINUOUS
 62
     7
 66
     1
 40
0.0139
 41
0.0139
  0
VERTEX
  8
B1822G_1_2
 10
8.8812
 20
0.3633
 30
0
 70
     0
  0
VERTEX
  8
B1822G_1_2
 10
9.1155
 20
0.3633
 30
0
 70
     0
  0
SEQEND
  0
POLYLINE
  8
B1822G_1_2
  6
CONTINUOUS
 62
     7
 66
     1
 40
0.0139
 41
0.0139
  0
VERTEX
  8
B1822G_1_2
 10
0.7407
 20
0.3633
 30
0
 70
     0
  0
VERTEX
  8
B1822G_1_2
 10
0.7407
 20
0.5508
 30
0
 70
     0
  0
SEQEND
  0
POLYLINE
  8
B1822G_1_2
  6
CONTINUOUS
 62
     7
 66
     1
 40
0.0139
 41
0.0139
  0
VERTEX
  8
B1822G_1_2
 10
0.975
 20
0.5508
 30
0
 70
     0
  0
VERTEX
  8
B1822G_1_2
 10
0.7407
 20
0.5508
 30
0
 70
     0
  0
SEQEND
  0
POLYLINE
  8
B1822G_1_2
  6
CONTINUOUS
 62
     7
 66
     1
 40
0.0139
 41
0.0139
  0
VERTEX
  8
B1822G_1_2
 10
9.1155
 20
0.3633
 30
0
 70
     0
  0
VERTEX
  8
B1822G_1_2
 10
9.1155
 20
0.5508
 30
0
 70
     0
  0
SEQEND
  0
POLYLINE
  8
B1822G_1_2
  6
CONTINUOUS
 62
     7
 66
     1
 40
0.0139
 41
0.0139
  0
VERTEX
  8
B1822G_1_2
 10
8.8812
 20
0.5508
 30
0
 70
     0
  0
VERTEX
  8
B1822G_1_2
 10
9.1155
 20
0.5508
 30
0
 70
     0
  0
SEQEND
  0
POLYLINE
  8
B1822G_1_2
  6
CONTINUOUS
 62
     7
 66
     1
 40
0.0139
 41
0.0139
  0
VERTEX
  8
B1822G_1_2
 10
9.3031
 20
0.7852
 30
0
 70
     0
  0
VERTEX
  8
B1822G_1_2
 10
9.3031
 20
0.5509
 30
0
 70
     0
  0
SEQEND
  0
POLYLINE
  8
B1822G_1_2
  6
CONTINUOUS
 62
     7
 66
     1
 40
0.0139
 41
0.0139
  0
VERTEX
  8
B1822G_1_2
 10
9.1156
 20
0.7852
 30
0
 70
     0
  0
VERTEX
  8
B1822G_1_2
 10
9.1156
 20
0.5509
 30
0
 70
     0
  0
SEQEND
  0
POLYLINE
  8
B1822G_1_2
  6
CONTINUOUS
 62
     7
 66
     1
 40
0.0139
 41
0.0139
  0
VERTEX
  8
B1822G_1_2
 10
9.3031
 20
0.5509
 30
0
 70
     0
  0
VERTEX
  8
B1822G_1_2
 10
9.1156
 20
0.5509
 30
0
 70
     0
  0
SEQEND
  0
POLYLINE
  8
B1822G_1_2
  6
CONTINUOUS
 62
     7
 66
     1
 40
0.0139
 41
0.0139
  0
VERTEX
  8
B1822G_1_2
 10
8.8812
 20
0.3633
 30
0
 70
     0
  0
VERTEX
  8
B1822G_1_2
 10
8.8812
 20
0.7852
 30
0
 70
     0
  0
SEQEND
  0
POLYLINE
  8
B1822G_1_2
  6
CONTINUOUS
 62
     7
 66
     1
 40
0.0139
 41
0.0139
  0
VERTEX
  8
B1822G_1_2
 10
0.975
 20
0.7852
 30
0
 70
     0
  0
VERTEX
  8
B1822G_1_2
 10
0.975
 20
0.3633
 30
0
 70
     0
  0
SEQEND
  0
POLYLINE
  8
B1822G_1_2
  6
CONTINUOUS
 62
     7
 66
     1
 40
0.0139
 41
0.0139
  0
VERTEX
  8
B1822G_1_2
 10
8.8812
 20
0.3633
 30
0
 70
     0
  0
VERTEX
  8
B1822G_1_2
 10
0.975
 20
0.3633
 30
0
 70
     0
  0
SEQEND
  0
POLYLINE
  8
B1822G_1_2
  6
CONTINUOUS
 62
     7
 66
     1
 40
0.0139
 41
0.0139
  0
VERTEX
  8
B1822G_1_2
 10
9.3031
 20
0.7852
 30
0
 70
     0
  0
VERTEX
  8
B1822G_1_2
 10
8.8812
 20
0.7852
 30
0
 70
     0
  0
SEQEND
  0
POLYLINE
  8
B1822G_1_2
  6
CONTINUOUS
 62
     7
 66
     1
 40
0.0139
 41
0.0139
  0
VERTEX
  8
B1822G_1_2
 10
0.5531
 20
0.7852
 30
0
 70
     0
  0
VERTEX
  8
B1822G_1_2
 10
0.975
 20
0.7852
 30
0
 70
     0
  0
SEQEND
  0
POLYLINE
  8
B1822G_1_2
  6
CONTINUOUS
 62
     7
 66
     1
 40
0.0139
 41
0.0139
  0
VERTEX
  8
B1822G_1_2
 10
0.975
 20
15.8501
 30
0
 70
     0
  0
VERTEX
  8
B1822G_1_2
 10
0.5531
 20
15.8501
 30
0
 70
     0
  0
SEQEND
  0
POLYLINE
  8
B1822G_1_2
  6
CONTINUOUS
 62
     7
 66
     1
 40
0.0139
 41
0.0139
  0
VERTEX
  8
B1822G_1_2
 10
0.5531
 20
56.9883
 30
0
 70
     0
  0
VERTEX
  8
B1822G_1_2
 10
0.975
 20
56.9883
 30
0
 70
     0
  0
SEQEND
  0
POLYLINE
  8
B1822G_1_2
  6
CONTINUOUS
 62
     7
 66
     1
 40
0.0139
 41
0.0139
  0
VERTEX
  8
B1822G_1_2
 10
0.5531
 20
15.8501
 30
0
 70
     0
  0
VERTEX
  8
B1822G_1_2
 10
0.5531
 20
56.9883
 30
0
 70
     0
  0
SEQEND
  0
POLYLINE
  8
B1822G_1_2
  6
CONTINUOUS
 62
     7
 66
     1
 40
0.0139
 41
0.0139
  0
VERTEX
  8
B1822G_1_2
 10
0.975
 20
15.8501
 30
0
 70
     0
  0
VERTEX
  8
B1822G_1_2
 10
1.1625
 20
15.8501
 30
0
 70
     0
  0
SEQEND
  0
POLYLINE
  8
B1822G_1_2
  6
CONTINUOUS
 62
     7
 66
     1
 40
0.0139
 41
0.0139
  0
VERTEX
  8
B1822G_1_2
 10
1.1625
 20
15.8501
 30
0
 70
     0
  0
VERTEX
  8
B1822G_1_2
 10
1.1625
 20
15.6626
 30
0
 70
     0
  0
SEQEND
  0
POLYLINE
  8
B1822G_1_2
  6
CONTINUOUS
 62
     7
 66
     1
 40
0.0139
 41
0.0139
  0
VERTEX
  8
B1822G_1_2
 10
1.1625
 20
15.6626
 30
0
 70
     0
  0
VERTEX
  8
B1822G_1_2
 10
0.7406
 20
15.6626
 30
0
 70
     0
  0
SEQEND
  0
POLYLINE
  8
B1822G_1_2
  6
CONTINUOUS
 62
     7
 66
     1
 40
0.0139
 41
0.0139
  0
VERTEX
  8
B1822G_1_2
 10
0.975
 20
56.9883
 30
0
 70
     0
  0
VERTEX
  8
B1822G_1_2
 10
1.1625
 20
56.9883
 30
0
 70
     0
  0
SEQEND
  0
POLYLINE
  8
B1822G_1_2
  6
CONTINUOUS
 62
     7
 66
     1
 40
0.0139
 41
0.0139
  0
VERTEX
  8
B1822G_1_2
 10
1.1625
 20
57.1758
 30
0
 70
     0
  0
VERTEX
  8
B1822G_1_2
 10
0.7406
 20
57.1758
 30
0
 70
     0
  0
SEQEND
  0
POLYLINE
  8
B1822G_1_2
  6
CONTINUOUS
 62
     7
 66
     1
 40
0.0139
 41
0.0139
  0
VERTEX
  8
B1822G_1_2
 10
1.1625
 20
56.9883
 30
0
 70
     0
  0
VERTEX
  8
B1822G_1_2
 10
1.1625
 20
57.1758
 30
0
 70
     0
  0
SEQEND
  0
POLYLINE
  8
B1822G_1_2
  6
CONTINUOUS
 62
     7
 66
     1
 40
0.0139
 41
0.0139
  0
VERTEX
  8
B1822G_1_2
 10
8.8812
 20
56.9883
 30
0
 70
     0
  0
VERTEX
  8
B1822G_1_2
 10
9.3031
 20
56.9883
 30
0
 70
     0
  0
SEQEND
  0
POLYLINE
  8
B1822G_1_2
  6
CONTINUOUS
 62
     7
 66
     1
 40
0.0139
 41
0.0139
  0
VERTEX
  8
B1822G_1_2
 10
9.3031
 20
15.8501
 30
0
 70
     0
  0
VERTEX
  8
B1822G_1_2
 10
8.8812
 20
15.8501
 30
0
 70
     0
  0
SEQEND
  0
POLYLINE
  8
B1822G_1_2
  6
CONTINUOUS
 62
     7
 66
     1
 40
0.0139
 41
0.0139
  0
VERTEX
  8
B1822G_1_2
 10
9.3031
 20
56.9883
 30
0
 70
     0
  0
VERTEX
  8
B1822G_1_2
 10
9.3031
 20
15.8501
 30
0
 70
     0
  0
SEQEND
  0
POLYLINE
  8
B1822G_1_2
  6
CONTINUOUS
 62
     7
 66
     1
 40
0.0139
 41
0.0139
  0
VERTEX
  8
B1822G_1_2
 10
8.8812
 20
56.9883
 30
0
 70
     0
  0
VERTEX
  8
B1822G_1_2
 10
8.6937
 20
56.9883
 30
0
 70
     0
  0
SEQEND
  0
POLYLINE
  8
B1822G_1_2
  6
CONTINUOUS
 62
     7
 66
     1
 40
0.0139
 41
0.0139
  0
VERTEX
  8
B1822G_1_2
 10
8.6937
 20
56.9883
 30
0
 70
     0
  0
VERTEX
  8
B1822G_1_2
 10
8.6937
 20
57.1758
 30
0
 70
     0
  0
SEQEND
  0
POLYLINE
  8
B1822G_1_2
  6
CONTINUOUS
 62
     7
 66
     1
 40
0.0139
 41
0.0139
  0
VERTEX
  8
B1822G_1_2
 10
8.6937
 20
57.1758
 30
0
 70
     0
  0
VERTEX
  8
B1822G_1_2
 10
9.1156
 20
57.1758
 30
0
 70
     0
  0
SEQEND
  0
POLYLINE
  8
B1822G_1_2
  6
CONTINUOUS
 62
     7
 66
     1
 40
0.0139
 41
0.0139
  0
VERTEX
  8
B1822G_1_2
 10
8.6937
 20
15.6626
 30
0
 70
     0
  0
VERTEX
  8
B1822G_1_2
 10
9.1156
 20
15.6626
 30
0
 70
     0
  0
SEQEND
  0
POLYLINE
  8
B1822G_1_2
  6
CONTINUOUS
 62
     7
 66
     1
 40
0.0139
 41
0.0139
  0
VERTEX
  8
B1822G_1_2
 10
8.6937
 20
15.8501
 30
0
 70
     0
  0
VERTEX
  8
B1822G_1_2
 10
8.6937
 20
15.6626
 30
0
 70
     0
  0
SEQEND
  0
POLYLINE
  8
B1822G_1_2
  6
CONTINUOUS
 62
     7
 66
     1
 40
0.0139
 41
0.0139
  0
VERTEX
  8
B1822G_1_2
 10
8.8812
 20
15.8501
 30
0
 70
     0
  0
VERTEX
  8
B1822G_1_2
 10
8.6937
 20
15.8501
 30
0
 70
     0
  0
SEQEND
  0
POLYLINE
  8
B1822G_1_2
  6
CONTINUOUS
 62
     7
 66
     1
 40
0.0139
 41
0.0139
  0
VERTEX
  8
B1822G_1_2
 10
0.5531
 20
11.6626
 30
0
 70
     0
  0
VERTEX
  8
B1822G_1_2
 10
0.975
 20
11.6626
 30
0
 70
     0
  0
SEQEND
  0
POLYLINE
  8
B1822G_1_2
  6
CONTINUOUS
 62
     7
 66
     1
 40
0.0139
 41
0.0139
  0
VERTEX
  8
B1822G_1_2
 10
0.5531
 20
0.7852
 30
0
 70
     0
  0
VERTEX
  8
B1822G_1_2
 10
0.5531
 20
11.6624
 30
0
 70
     0
  0
SEQEND
  0
POLYLINE
  8
B1822G_1_2
  6
CONTINUOUS
 62
     7
 66
     1
 40
0.0139
 41
0.0139
  0
VERTEX
  8
B1822G_1_2
 10
1.1625
 20
11.6626
 30
0
 70
     0
  0
VERTEX
  8
B1822G_1_2
 10
1.1625
 20
11.8501
 30
0
 70
     0
  0
SEQEND
  0
POLYLINE
  8
B1822G_1_2
  6
CONTINUOUS
 62
     7
 66
     1
 40
0.0139
 41
0.0139
  0
VERTEX
  8
B1822G_1_2
 10
0.975
 20
11.6626
 30
0
 70
     0
  0
VERTEX
  8
B1822G_1_2
 10
1.1625
 20
11.6626
 30
0
 70
     0
  0
SEQEND
  0
POLYLINE
  8
B1822G_1_2
  6
CONTINUOUS
 62
     7
 66
     1
 40
0.0139
 41
0.0139
  0
VERTEX
  8
B1822G_1_2
 10
1.1625
 20
11.8501
 30
0
 70
     0
  0
VERTEX
  8
B1822G_1_2
 10
0.7406
 20
11.8501
 30
0
 70
     0
  0
SEQEND
  0
POLYLINE
  8
B1822G_1_2
  6
CONTINUOUS
 62
     7
 66
     1
 40
0.0139
 41
0.0139
  0
VERTEX
  8
B1822G_1_2
 10
9.3031
 20
11.6624
 30
0
 70
     0
  0
VERTEX
  8
B1822G_1_2
 10
9.3031
 20
0.7852
 30
0
 70
     0
  0
SEQEND
  0
POLYLINE
  8
B1822G_1_2
  6
CONTINUOUS
 62
     7
 66
     1
 40
0.0139
 41
0.0139
  0
VERTEX
  8
B1822G_1_2
 10
8.8812
 20
11.6626
 30
0
 70
     0
  0
VERTEX
  8
B1822G_1_2
 10
9.3031
 20
11.6626
 30
0
 70
     0
  0
SEQEND
  0
POLYLINE
  8
B1822G_1_2
  6
CONTINUOUS
 62
     7
 66
     1
 40
0.0139
 41
0.0139
  0
VERTEX
  8
B1822G_1_2
 10
8.8812
 20
11.6626
 30
0
 70
     0
  0
VERTEX
  8
B1822G_1_2
 10
8.6937
 20
11.6626
 30
0
 70
     0
  0
SEQEND
  0
POLYLINE
  8
B1822G_1_2
  6
CONTINUOUS
 62
     7
 66
     1
 40
0.0139
 41
0.0139
  0
VERTEX
  8
B1822G_1_2
 10
8.6937
 20
11.6626
 30
0
 70
     0
  0
VERTEX
  8
B1822G_1_2
 10
8.6937
 20
11.8501
 30
0
 70
     0
  0
SEQEND
  0
POLYLINE
  8
B1822G_1_2
  6
CONTINUOUS
 62
     7
 66
     1
 40
0.0139
 41
0.0139
  0
VERTEX
  8
B1822G_1_2
 10
8.6937
 20
11.8501
 30
0
 70
     0
  0
VERTEX
  8
B1822G_1_2
 10
9.1156
 20
11.8501
 30
0
 70
     0
  0
SEQEND
  0
POLYLINE
  8
B1822G_1_2
  6
CONTINUOUS
 62
     7
 66
     1
 40
0.0139
 41
0.0139
  0
VERTEX
  8
B1822G_1_2
 10
1.2406
 20
60.9883
 30
0
 70
     0
  0
VERTEX
  8
B1822G_1_2
 10
8.6156
 20
60.9883
 30
0
 70
     0
  0
SEQEND
  0
POLYLINE
  8
B1822G_1_2
  6
CONTINUOUS
 62
     7
 66
     1
 40
0.0139
 41
0.0139
  0
VERTEX
  8
B1822G_1_2
 10
0.7406
 20
57.1758
 30
0
 70
     0
  0
VERTEX
  8
B1822G_1_2
 10
0.7406
 20
60.4883
 30
0
 70
     0
  0
SEQEND
  0
POLYLINE
  8
B1822G_1_2
  6
CONTINUOUS
 62
     7
 66
     1
 40
0.0139
 41
0.0139
  0
VERTEX
  8
B1822G_1_2
 10
0.7406
 20
11.8501
 30
0
 70
     0
  0
VERTEX
  8
B1822G_1_2
 10
0.7406
 20
15.6626
 30
0
 70
     0
  0
SEQEND
  0
POLYLINE
  8
B1822G_1_2
  6
CONTINUOUS
 62
     7
 66
     1
 40
0.0139
 41
0.0139
  0
VERTEX
  8
B1822G_1_2
 10
9.1156
 20
15.6626
 30
0
 70
     0
  0
VERTEX
  8
B1822G_1_2
 10
9.1156
 20
11.8501
 30
0
 70
     0
  0
SEQEND
  0
POLYLINE
  8
B1822G_1_2
  6
CONTINUOUS
 62
     7
 66
     1
 40
0.0139
 41
0.0139
  0
VERTEX
  8
B1822G_1_2
 10
9.1156
 20
60.4883
 30
0
 70
     0
  0
VERTEX
  8
B1822G_1_2
 10
9.1156
 20
57.1758
 30
0
 70
     0
  0
SEQEND
  0
POLYLINE
  8
B1822G_1_2
  6
CONTINUOUS
 62
     7
 66
     1
 40
0.0139
 41
0.0139
  0
VERTEX
  8
B1822G_1_2
 10
0.6241
 20
1.9117
 30
0
 70
     0
  0
VERTEX
  8
B1822G_1_2
 10
0.6614
 20
1.9561
 30
0
 70
     0
  0
VERTEX
  8
B1822G_1_2
 10
0.6881
 20
2.0057
 30
0
 70
     0
  0
VERTEX
  8
B1822G_1_2
 10
0.7041
 20
2.0586
 30
0
 70
     0
  0
VERTEX
  8
B1822G_1_2
 10
0.7094
 20
2.1133
 30
0
 70
     0
  0
VERTEX
  8
B1822G_1_2
 10
0.7041
 20
2.1679
 30
0
 70
     0
  0
VERTEX
  8
B1822G_1_2
 10
0.6882
 20
2.2209
 30
0
 70
     0
  0
VERTEX
  8
B1822G_1_2
 10
0.6615
 20
2.2704
 30
0
 70
     0
  0
VERTEX
  8
B1822G_1_2
 10
0.6243
 20
2.3149
 30
0
 70
     0
  0
SEQEND
  0
POLYLINE
  8
B1822G_1_2
  6
CONTINUOUS
 62
     7
 66
     1
 40
0.0139
 41
0.0139
  0
VERTEX
  8
B1822G_1_2
 10
0.6242
 20
2.315
 30
0
 70
     0
  0
VERTEX
  8
B1822G_1_2
 10
0.6242
 20
1.9117
 30
0
 70
     0
  0
SEQEND
  0
POLYLINE
  8
B1822G_1_2
  6
CONTINUOUS
 62
     7
 66
     1
 40
0.0139
 41
0.0139
  0
VERTEX
  8
B1822G_1_2
 10
9.232
 20
1.9117
 30
0
 70
     0
  0
VERTEX
  8
B1822G_1_2
 10
9.232
 20
2.315
 30
0
 70
     0
  0
SEQEND
  0
POLYLINE
  8
B1822G_1_2
  6
CONTINUOUS
 62
     7
 66
     1
 40
0.0139
 41
0.0139
  0
VERTEX
  8
B1822G_1_2
 10
9.232
 20
2.315
 30
0
 70
     0
  0
VERTEX
  8
B1822G_1_2
 10
9.1947
 20
2.2705
 30
0
 70
     0
  0
VERTEX
  8
B1822G_1_2
 10
9.1681
 20
2.2209
 30
0
 70
     0
  0
VERTEX
  8
B1822G_1_2
 10
9.1521
 20
2.168
 30
0
 70
     0
  0
VERTEX
  8
B1822G_1_2
 10
9.1468
 20
2.1134
 30
0
 70
     0
  0
VERTEX
  8
B1822G_1_2
 10
9.1521
 20
2.0588
 30
0
 70
     0
  0
VERTEX
  8
B1822G_1_2
 10
9.1681
 20
2.0058
 30
0
 70
     0
  0
VERTEX
  8
B1822G_1_2
 10
9.1947
 20
1.9563
 30
0
 70
     0
  0
VERTEX
  8
B1822G_1_2
 10
9.232
 20
1.9118
 30
0
 70
     0
  0
SEQEND
  0
POLYLINE
  8
B1822G_1_2
  6
CONTINUOUS
 62
     7
 66
     1
 40
0.0139
 41
0.0139
  0
VERTEX
  8
B1822G_1_2
 10
1.2406
 20
60.9883
 30
0
 70
     0
  0
VERTEX
  8
B1822G_1_2
 10
1.1895
 20
60.9858
 30
0
 70
     0
  0
VERTEX
  8
B1822G_1_2
 10
1.1398
 20
60.9782
 30
0
 70
     0
  0
VERTEX
  8
B1822G_1_2
 10
1.0919
 20
60.9659
 30
0
 70
     0
  0
VERTEX
  8
B1822G_1_2
 10
1.046
 20
60.9491
 30
0
 70
     0
  0
VERTEX
  8
B1822G_1_2
 10
0.961
 20
60.903
 30
0
 70
     0
  0
VERTEX
  8
B1822G_1_2
 10
0.887
 20
60.842
 30
0
 70
     0
  0
VERTEX
  8
B1822G_1_2
 10
0.8259
 20
60.768
 30
0
 70
     0
  0
VERTEX
  8
B1822G_1_2
 10
0.7798
 20
60.683
 30
0
 70
     0
  0
VERTEX
  8
B1822G_1_2
 10
0.763
 20
60.637
 30
0
 70
     0
  0
VERTEX
  8
B1822G_1_2
 10
0.7507
 20
60.5891
 30
0
 70
     0
  0
VERTEX
  8
B1822G_1_2
 10
0.7432
 20
60.5395
 30
0
 70
     0
  0
VERTEX
  8
B1822G_1_2
 10
0.7406
 20
60.4883
 30
0
 70
     0
  0
SEQEND
  0
POLYLINE
  8
B1822G_1_2
  6
CONTINUOUS
 62
     7
 66
     1
 40
0.0139
 41
0.0139
  0
VERTEX
  8
B1822G_1_2
 10
9.1156
 20
60.4883
 30
0
 70
     0
  0
VERTEX
  8
B1822G_1_2
 10
9.1131
 20
60.5395
 30
0
 70
     0
  0
VERTEX
  8
B1822G_1_2
 10
9.1055
 20
60.5891
 30
0
 70
     0
  0
VERTEX
  8
B1822G_1_2
 10
9.0932
 20
60.637
 30
0
 70
     0
  0
VERTEX
  8
B1822G_1_2
 10
9.0764
 20
60.683
 30
0
 70
     0
  0
VERTEX
  8
B1822G_1_2
 10
9.0303
 20
60.768
 30
0
 70
     0
  0
VERTEX
  8
B1822G_1_2
 10
8.9693
 20
60.842
 30
0
 70
     0
  0
VERTEX
  8
B1822G_1_2
 10
8.8952
 20
60.903
 30
0
 70
     0
  0
VERTEX
  8
B1822G_1_2
 10
8.8103
 20
60.9491
 30
0
 70
     0
  0
VERTEX
  8
B1822G_1_2
 10
8.7643
 20
60.9659
 30
0
 70
     0
  0
VERTEX
  8
B1822G_1_2
 10
8.7164
 20
60.9782
 30
0
 70
     0
  0
VERTEX
  8
B1822G_1_2
 10
8.6667
 20
60.9858
 30
0
 70
     0
  0
VERTEX
  8
B1822G_1_2
 10
8.6156
 20
60.9883
 30
0
 70
     0
  0
SEQEND
  0
ENDBLK
  8
B1822G_1_2
  0
BLOCK
  8
B1822G_1_2
  2
Group2
 70
     0
 10
0
 20
0
 30
0
  0
POLYLINE
  8
B1822G_1_2
  6
CONTINUOUS
 62
     7
 66
     1
 40
0.0139
 41
0.0139
  0
VERTEX
  8
B1822G_1_2
 10
9.0781
 20
11.7824
 30
0
 70
     0
  0
VERTEX
  8
B1822G_1_2
 10
9.0781
 20
11.8501
 30
0
 70
     0
  0
SEQEND
  0
POLYLINE
  8
B1822G_1_2
  6
CONTINUOUS
 62
     7
 66
     1
 40
0.0139
 41
0.0139
  0
VERTEX
  8
B1822G_1_2
 10
9.0781
 20
15.6626
 30
0
 70
     0
  0
VERTEX
  8
B1822G_1_2
 10
9.0781
 20
15.8501
 30
0
 70
     0
  0
SEQEND
  0
POLYLINE
  8
B1822G_1_2
  6
CONTINUOUS
 62
     7
 66
     1
 40
0.0139
 41
0.0139
  0
VERTEX
  8
B1822G_1_2
 10
9.0781
 20
56.9883
 30
0
 70
     0
  0
VERTEX
  8
B1822G_1_2
 10
9.0781
 20
57.1758
 30
0
 70
     0
  0
SEQEND
  0
ENDBLK
  8
B1822G_1_2
  0
BLOCK
  8
B1822G_1_2
  2
Group3
 70
     0
 10
0
 20
0
 30
0
  0
POLYLINE
  8
B1822G_1_2
  6
CONTINUOUS
 62
     7
 66
     1
 40
0.0139
 41
0.0139
  0
VERTEX
  8
B1822G_1_2
 10
0.7781
 20
11.7824
 30
0
 70
     0
  0
VERTEX
  8
B1822G_1_2
 10
0.7781
 20
11.8501
 30
0
 70
     0
  0
SEQEND
  0
POLYLINE
  8
B1822G_1_2
  6
CONTINUOUS
 62
     7
 66
     1
 40
0.0139
 41
0.0139
  0
VERTEX
  8
B1822G_1_2
 10
0.7781
 20
15.6626
 30
0
 70
     0
  0
VERTEX
  8
B1822G_1_2
 10
0.7781
 20
15.8501
 30
0
 70
     0
  0
SEQEND
  0
POLYLINE
  8
B1822G_1_2
  6
CONTINUOUS
 62
     7
 66
     1
 40
0.0139
 41
0.0139
  0
VERTEX
  8
B1822G_1_2
 10
0.7781
 20
56.9883
 30
0
 70
     0
  0
VERTEX
  8
B1822G_1_2
 10
0.7781
 20
57.1758
 30
0
 70
     0
  0
SEQEND
  0
ENDBLK
  8
B1822G_1_2
  0
BLOCK
  8
B1822G_1_2
  2
Group4
 70
     0
 10
0
 20
0
 30
0
  0
POLYLINE
  8
B1822G_1_2
  6
CONTINUOUS
 62
     7
 66
     1
 40
0.0139
 41
0.0139
  0
VERTEX
  8
B1822G_1_2
 10
0.4906
 20
59.5398
 30
0
 70
     0
  0
VERTEX
  8
B1822G_1_2
 10
0.4912
 20
59.542
 30
0
 70
     0
  0
VERTEX
  8
B1822G_1_2
 10
0.493
 20
59.5441
 30
0
 70
     0
  0
VERTEX
  8
B1822G_1_2
 10
0.496
 20
59.5463
 30
0
 70
     0
  0
VERTEX
  8
B1822G_1_2
 10
0.5001
 20
59.5484
 30
0
 70
     0
  0
VERTEX
  8
B1822G_1_2
 10
0.5054
 20
59.5504
 30
0
 70
     0
  0
VERTEX
  8
B1822G_1_2
 10
0.5116
 20
59.5522
 30
0
 70
     0
  0
VERTEX
  8
B1822G_1_2
 10
0.519
 20
59.554
 30
0
 70
     0
  0
VERTEX
  8
B1822G_1_2
 10
0.5272
 20
59.5556
 30
0
 70
     0
  0
VERTEX
  8
B1822G_1_2
 10
0.5362
 20
59.5571
 30
0
 70
     0
  0
VERTEX
  8
B1822G_1_2
 10
0.5461
 20
59.5584
 30
0
 70
     0
  0
VERTEX
  8
B1822G_1_2
 10
0.5566
 20
59.5596
 30
0
 70
     0
  0
VERTEX
  8
B1822G_1_2
 10
0.5677
 20
59.5605
 30
0
 70
     0
  0
VERTEX
  8
B1822G_1_2
 10
0.5792
 20
59.5612
 30
0
 70
     0
  0
VERTEX
  8
B1822G_1_2
 10
0.5911
 20
59.5618
 30
0
 70
     0
  0
VERTEX
  8
B1822G_1_2
 10
0.6033
 20
59.5621
 30
0
 70
     0
  0
VERTEX
  8
B1822G_1_2
 10
0.6156
 20
59.5622
 30
0
 70
     0
  0
SEQEND
  0
POLYLINE
  8
B1822G_1_2
  6
CONTINUOUS
 62
     7
 66
     1
 40
0.0139
 41
0.0139
  0
VERTEX
  8
B1822G_1_2
 10
9.2406
 20
59.5622
 30
0
 70
     0
  0
VERTEX
  8
B1822G_1_2
 10
9.2529
 20
59.5621
 30
0
 70
     0
  0
VERTEX
  8
B1822G_1_2
 10
9.265
 20
59.5618
 30
0
 70
     0
  0
VERTEX
  8
B1822G_1_2
 10
9.2769
 20
59.5613
 30
0
 70
     0
  0
VERTEX
  8
B1822G_1_2
 10
9.2885
 20
59.5605
 30
0
 70
     0
  0
VERTEX
  8
B1822G_1_2
 10
9.2995
 20
59.5596
 30
0
 70
     0
  0
VERTEX
  8
B1822G_1_2
 10
9.31
 20
59.5584
 30
0
 70
     0
  0
VERTEX
  8
B1822G_1_2
 10
9.3199
 20
59.5571
 30
0
 70
     0
  0
VERTEX
  8
B1822G_1_2
 10
9.329
 20
59.5557
 30
0
 70
     0
  0
VERTEX
  8
B1822G_1_2
 10
9.3372
 20
59.554
 30
0
 70
     0
  0
VERTEX
  8
B1822G_1_2
 10
9.3445
 20
59.5523
 30
0
 70
     0
  0
VERTEX
  8
B1822G_1_2
 10
9.3508
 20
59.5504
 30
0
 70
     0
  0
VERTEX
  8
B1822G_1_2
 10
9.3561
 20
59.5484
 30
0
 70
     0
  0
VERTEX
  8
B1822G_1_2
 10
9.3602
 20
59.5463
 30
0
 70
     0
  0
VERTEX
  8
B1822G_1_2
 10
9.3632
 20
59.5442
 30
0
 70
     0
  0
VERTEX
  8
B1822G_1_2
 10
9.365
 20
59.542
 30
0
 70
     0
  0
VERTEX
  8
B1822G_1_2
 10
9.3656
 20
59.5398
 30
0
 70
     0
  0
SEQEND
  0
POLYLINE
  8
B1822G_1_2
  6
CONTINUOUS
 62
     7
 66
     1
 40
0.0139
 41
0.0139
  0
VERTEX
  8
B1822G_1_2
 10
0.6156
 20
59.4442
 30
0
 70
     0
  0
VERTEX
  8
B1822G_1_2
 10
0.6033
 20
59.444
 30
0
 70
     0
  0
VERTEX
  8
B1822G_1_2
 10
0.5913
 20
59.4437
 30
0
 70
     0
  0
VERTEX
  8
B1822G_1_2
 10
0.5794
 20
59.4432
 30
0
 70
     0
  0
VERTEX
  8
B1822G_1_2
 10
0.5678
 20
59.4424
 30
0
 70
     0
  0
VERTEX
  8
B1822G_1_2
 10
0.5567
 20
59.4415
 30
0
 70
     0
  0
VERTEX
  8
B1822G_1_2
 10
0.5463
 20
59.4404
 30
0
 70
     0
  0
VERTEX
  8
B1822G_1_2
 10
0.5364
 20
59.4391
 30
0
 70
     0
  0
VERTEX
  8
B1822G_1_2
 10
0.5273
 20
59.4376
 30
0
 70
     0
  0
VERTEX
  8
B1822G_1_2
 10
0.5191
 20
59.436
 30
0
 70
     0
  0
VERTEX
  8
B1822G_1_2
 10
0.5118
 20
59.4342
 30
0
 70
     0
  0
VERTEX
  8
B1822G_1_2
 10
0.5054
 20
59.4323
 30
0
 70
     0
  0
VERTEX
  8
B1822G_1_2
 10
0.5002
 20
59.4303
 30
0
 70
     0
  0
VERTEX
  8
B1822G_1_2
 10
0.496
 20
59.4283
 30
0
 70
     0
  0
VERTEX
  8
B1822G_1_2
 10
0.493
 20
59.4261
 30
0
 70
     0
  0
VERTEX
  8
B1822G_1_2
 10
0.4912
 20
59.4239
 30
0
 70
     0
  0
VERTEX
  8
B1822G_1_2
 10
0.4906
 20
59.4217
 30
0
 70
     0
  0
SEQEND
  0
POLYLINE
  8
B1822G_1_2
  6
CONTINUOUS
 62
     7
 66
     1
 40
0.0139
 41
0.0139
  0
VERTEX
  8
B1822G_1_2
 10
9.3656
 20
59.4217
 30
0
 70
     0
  0
VERTEX
  8
B1822G_1_2
 10
9.365
 20
59.4239
 30
0
 70
     0
  0
VERTEX
  8
B1822G_1_2
 10
9.3632
 20
59.4261
 30
0
 70
     0
  0
VERTEX
  8
B1822G_1_2
 10
9.3602
 20
59.4282
 30
0
 70
     0
  0
VERTEX
  8
B1822G_1_2
 10
9.3561
 20
59.4303
 30
0
 70
     0
  0
VERTEX
  8
B1822G_1_2
 10
9.3509
 20
59.4323
 30
0
 70
     0
  0
VERTEX
  8
B1822G_1_2
 10
9.3446
 20
59.4342
 30
0
 70
     0
  0
VERTEX
  8
B1822G_1_2
 10
9.3373
 20
59.436
 30
0
 70
     0
  0
VERTEX
  8
B1822G_1_2
 10
9.329
 20
59.4376
 30
0
 70
     0
  0
VERTEX
  8
B1822G_1_2
 10
9.32
 20
59.4391
 30
0
 70
     0
  0
VERTEX
  8
B1822G_1_2
 10
9.3102
 20
59.4404
 30
0
 70
     0
  0
VERTEX
  8
B1822G_1_2
 10
9.2996
 20
59.4415
 30
0
 70
     0
  0
VERTEX
  8
B1822G_1_2
 10
9.2886
 20
59.4424
 30
0
 70
     0
  0
VERTEX
  8
B1822G_1_2
 10
9.277
 20
59.4432
 30
0
 70
     0
  0
VERTEX
  8
B1822G_1_2
 10
9.2651
 20
59.4437
 30
0
 70
     0
  0
VERTEX
  8
B1822G_1_2
 10
9.2529
 20
59.444
 30
0
 70
     0
  0
VERTEX
  8
B1822G_1_2
 10
9.2406
 20
59.4442
 30
0
 70
     0
  0
SEQEND
  0
POLYLINE
  8
B1822G_1_2
  6
CONTINUOUS
 62
     7
 66
     1
 40
0.0139
 41
0.0139
  0
VERTEX
  8
B1822G_1_2
 10
9.3656
 20
11.7824
 30
0
 70
     0
  0
VERTEX
  8
B1822G_1_2
 10
9.3656
 20
11.6624
 30
0
 70
     0
  0
SEQEND
  0
POLYLINE
  8
B1822G_1_2
  6
CONTINUOUS
 62
     7
 66
     1
 40
0.0139
 41
0.0139
  0
VERTEX
  8
B1822G_1_2
 10
0.6156
 20
59.5622
 30
0
 70
     0
  0
VERTEX
  8
B1822G_1_2
 10
0.7406
 20
59.5622
 30
0
 70
     0
  0
SEQEND
  0
POLYLINE
  8
B1822G_1_2
  6
CONTINUOUS
 62
     7
 66
     1
 40
0.0139
 41
0.0139
  0
VERTEX
  8
B1822G_1_2
 10
9.1156
 20
59.5622
 30
0
 70
     0
  0
VERTEX
  8
B1822G_1_2
 10
9.2406
 20
59.5622
 30
0
 70
     0
  0
SEQEND
  0
POLYLINE
  8
B1822G_1_2
  6
CONTINUOUS
 62
     7
 66
     1
 40
0.0139
 41
0.0139
  0
VERTEX
  8
B1822G_1_2
 10
0.4906
 20
59.4217
 30
0
 70
     0
  0
VERTEX
  8
B1822G_1_2
 10
0.4906
 20
59.5398
 30
0
 70
     0
  0
SEQEND
  0
POLYLINE
  8
B1822G_1_2
  6
CONTINUOUS
 62
     7
 66
     1
 40
0.0139
 41
0.0139
  0
VERTEX
  8
B1822G_1_2
 10
0.4906
 20
53.7556
 30
0
 70
     0
  0
VERTEX
  8
B1822G_1_2
 10
0.4906
 20
34.3489
 30
0
 70
     0
  0
SEQEND
  0
POLYLINE
  8
B1822G_1_2
  6
CONTINUOUS
 62
     7
 66
     1
 40
0.0139
 41
0.0139
  0
VERTEX
  8
B1822G_1_2
 10
0.4906
 20
34.3489
 30
0
 70
     0
  0
VERTEX
  8
B1822G_1_2
 10
0.4906
 20
12.0216
 30
0
 70
     0
  0
SEQEND
  0
POLYLINE
  8
B1822G_1_2
  6
CONTINUOUS
 62
     7
 66
     1
 40
0.0139
 41
0.0139
  0
VERTEX
  8
B1822G_1_2
 10
0.4906
 20
59.4217
 30
0
 70
     0
  0
VERTEX
  8
B1822G_1_2
 10
0.4906
 20
53.7556
 30
0
 70
     0
  0
SEQEND
  0
POLYLINE
  8
B1822G_1_2
  6
CONTINUOUS
 62
     7
 66
     1
 40
0.0139
 41
0.0139
  0
VERTEX
  8
B1822G_1_2
 10
9.3656
 20
59.4217
 30
0
 70
     0
  0
VERTEX
  8
B1822G_1_2
 10
9.3656
 20
58.4024
 30
0
 70
     0
  0
SEQEND
  0
POLYLINE
  8
B1822G_1_2
  6
CONTINUOUS
 62
     7
 66
     1
 40
0.0139
 41
0.0139
  0
VERTEX
  8
B1822G_1_2
 10
0.6156
 20
11.7824
 30
0
 70
     0
  0
VERTEX
  8
B1822G_1_2
 10
1.1625
 20
11.7824
 30
0
 70
     0
  0
SEQEND
  0
POLYLINE
  8
B1822G_1_2
  6
CONTINUOUS
 62
     7
 66
     1
 40
0.0139
 41
0.0139
  0
VERTEX
  8
B1822G_1_2
 10
8.6937
 20
11.7824
 30
0
 70
     0
  0
VERTEX
  8
B1822G_1_2
 10
9.2406
 20
11.7824
 30
0
 70
     0
  0
SEQEND
  0
POLYLINE
  8
B1822G_1_2
  6
CONTINUOUS
 62
     7
 66
     1
 40
0.0139
 41
0.0139
  0
VERTEX
  8
B1822G_1_2
 10
9.3656
 20
32.4077
 30
0
 70
     0
  0
VERTEX
  8
B1822G_1_2
 10
9.3656
 20
12.9074
 30
0
 70
     0
  0
SEQEND
  0
POLYLINE
  8
B1822G_1_2
  6
CONTINUOUS
 62
     7
 66
     1
 40
0.0139
 41
0.0139
  0
VERTEX
  8
B1822G_1_2
 10
9.3656
 20
12.1574
 30
0
 70
     0
  0
VERTEX
  8
B1822G_1_2
 10
9.3656
 20
12.0216
 30
0
 70
     0
  0
SEQEND
  0
POLYLINE
  8
B1822G_1_2
  6
CONTINUOUS
 62
     7
 66
     1
 40
0.0139
 41
0.0139
  0
VERTEX
  8
B1822G_1_2
 10
0.4906
 20
12.0216
 30
0
 70
     0
  0
VERTEX
  8
B1822G_1_2
 10
0.4906
 20
11.8355
 30
0
 70
     0
  0
SEQEND
  0
POLYLINE
  8
B1822G_1_2
  6
CONTINUOUS
 62
     7
 66
     1
 40
0.0139
 41
0.0139
  0
VERTEX
  8
B1822G_1_2
 10
0.4906
 20
11.8355
 30
0
 70
     0
  0
VERTEX
  8
B1822G_1_2
 10
0.4906
 20
11.7824
 30
0
 70
     0
  0
SEQEND
  0
POLYLINE
  8
B1822G_1_2
  6
CONTINUOUS
 62
     7
 66
     1
 40
0.0139
 41
0.0139
  0
VERTEX
  8
B1822G_1_2
 10
0.6156
 20
59.4442
 30
0
 70
     0
  0
VERTEX
  8
B1822G_1_2
 10
0.7406
 20
59.4442
 30
0
 70
     0
  0
SEQEND
  0
POLYLINE
  8
B1822G_1_2
  6
CONTINUOUS
 62
     7
 66
     1
 40
0.0139
 41
0.0139
  0
VERTEX
  8
B1822G_1_2
 10
9.1156
 20
59.4442
 30
0
 70
     0
  0
VERTEX
  8
B1822G_1_2
 10
9.2406
 20
59.4442
 30
0
 70
     0
  0
SEQEND
  0
POLYLINE
  8
B1822G_1_2
  6
CONTINUOUS
 62
     7
 66
     1
 40
0.0139
 41
0.0139
  0
VERTEX
  8
B1822G_1_2
 10
9.3656
 20
12.0216
 30
0
 70
     0
  0
VERTEX
  8
B1822G_1_2
 10
9.3656
 20
11.8355
 30
0
 70
     0
  0
SEQEND
  0
POLYLINE
  8
B1822G_1_2
  6
CONTINUOUS
 62
     7
 66
     1
 40
0.0139
 41
0.0139
  0
VERTEX
  8
B1822G_1_2
 10
9.3656
 20
11.8355
 30
0
 70
     0
  0
VERTEX
  8
B1822G_1_2
 10
9.3656
 20
11.7824
 30
0
 70
     0
  0
SEQEND
  0
POLYLINE
  8
B1822G_1_2
  6
CONTINUOUS
 62
     7
 66
     1
 40
0.0139
 41
0.0139
  0
VERTEX
  8
B1822G_1_2
 10
0.4906
 20
11.6624
 30
0
 70
     0
  0
VERTEX
  8
B1822G_1_2
 10
0.4906
 20
11.7824
 30
0
 70
     0
  0
SEQEND
  0
POLYLINE
  8
B1822G_1_2
  6
CONTINUOUS
 62
     7
 66
     1
 40
0.0139
 41
0.0139
  0
VERTEX
  8
B1822G_1_2
 10
0.6156
 20
11.6624
 30
0
 70
     0
  0
VERTEX
  8
B1822G_1_2
 10
9.2406
 20
11.6624
 30
0
 70
     0
  0
SEQEND
  0
POLYLINE
  8
B1822G_1_2
  6
CONTINUOUS
 62
     7
 66
     1
 40
0.0139
 41
0.0139
  0
VERTEX
  8
B1822G_1_2
 10
0.6156
 20
11.6624
 30
0
 70
     0
  0
VERTEX
  8
B1822G_1_2
 10
0.4906
 20
11.6624
 30
0
 70
     0
  0
SEQEND
  0
POLYLINE
  8
B1822G_1_2
  6
CONTINUOUS
 62
     7
 66
     1
 40
0.0139
 41
0.0139
  0
VERTEX
  8
B1822G_1_2
 10
0.4906
 20
11.7824
 30
0
 70
     0
  0
VERTEX
  8
B1822G_1_2
 10
0.6156
 20
11.7824
 30
0
 70
     0
  0
SEQEND
  0
POLYLINE
  8
B1822G_1_2
  6
CONTINUOUS
 62
     7
 66
     1
 40
0.0139
 41
0.0139
  0
VERTEX
  8
B1822G_1_2
 10
9.3656
 20
11.6624
 30
0
 70
     0
  0
VERTEX
  8
B1822G_1_2
 10
9.2406
 20
11.6624
 30
0
 70
     0
  0
SEQEND
  0
POLYLINE
  8
B1822G_1_2
  6
CONTINUOUS
 62
     7
 66
     1
 40
0.0139
 41
0.0139
  0
VERTEX
  8
B1822G_1_2
 10
9.2406
 20
11.7824
 30
0
 70
     0
  0
VERTEX
  8
B1822G_1_2
 10
9.3656
 20
11.7824
 30
0
 70
     0
  0
SEQEND
  0
POLYLINE
  8
B1822G_1_2
  6
CONTINUOUS
 62
     7
 66
     1
 40
0.0139
 41
0.0139
  0
VERTEX
  8
B1822G_1_2
 10
9.3656
 20
59.5398
 30
0
 70
     0
  0
VERTEX
  8
B1822G_1_2
 10
9.3656
 20
59.4217
 30
0
 70
     0
  0
SEQEND
  0
ENDBLK
  8
B1822G_1_2
  0
BLOCK
  8
B1822G_1_2
  2
Group5
 70
     0
 10
0
 20
0
 30
0
  0
POLYLINE
  8
B1822G_1_2
  6
CONTINUOUS
 62
     7
 66
     1
 40
0.0139
 41
0.0139
  0
VERTEX
  8
B1822G_1_2
 10
9.1751
 20
60.3494
 30
0
 70
     0
  0
VERTEX
  8
B1822G_1_2
 10
9.1751
 20
60.4744
 30
0
 70
     0
  0
SEQEND
  0
POLYLINE
  8
B1822G_1_2
  6
CONTINUOUS
 62
     7
 66
     1
 40
0.0139
 41
0.0139
  0
VERTEX
  8
B1822G_1_2
 10
9.1508
 20
60.4744
 30
0
 70
     0
  0
VERTEX
  8
B1822G_1_2
 10
9.1751
 20
60.4744
 30
0
 70
     0
  0
SEQEND
  0
POLYLINE
  8
B1822G_1_2
  6
CONTINUOUS
 62
     7
 66
     1
 40
0.0139
 41
0.0139
  0
VERTEX
  8
B1822G_1_2
 10
9.1156
 20
60.4744
 30
0
 70
     0
  0
VERTEX
  8
B1822G_1_2
 10
9.1508
 20
60.4744
 30
0
 70
     0
  0
SEQEND
  0
POLYLINE
  8
B1822G_1_2
  6
CONTINUOUS
 62
     7
 66
     1
 40
0.0139
 41
0.0139
  0
VERTEX
  8
B1822G_1_2
 10
9.1508
 20
60.3494
 30
0
 70
     0
  0
VERTEX
  8
B1822G_1_2
 10
9.1751
 20
60.3494
 30
0
 70
     0
  0
SEQEND
  0
POLYLINE
  8
B1822G_1_2
  6
CONTINUOUS
 62
     7
 66
     1
 40
0.0139
 41
0.0139
  0
VERTEX
  8
B1822G_1_2
 10
9.1156
 20
60.3494
 30
0
 70
     0
  0
VERTEX
  8
B1822G_1_2
 10
9.1508
 20
60.3494
 30
0
 70
     0
  0
SEQEND
  0
ENDBLK
  8
B1822G_1_2
  0
BLOCK
  8
B1822G_1_2
  2
Group6
 70
     0
 10
0
 20
0
 30
0
  0
POLYLINE
  8
B1822G_1_2
  6
CONTINUOUS
 62
     7
 66
     1
 40
0.0139
 41
0.0139
  0
VERTEX
  8
B1822G_1_2
 10
7.3361
 20
62.0914
 30
0
 70
     0
  0
VERTEX
  8
B1822G_1_2
 10
7.36
 20
62.0624
 30
0
 70
     0
  0
SEQEND
  0
POLYLINE
  8
B1822G_1_2
  6
CONTINUOUS
 62
     7
 66
     1
 40
0.0139
 41
0.0139
  0
VERTEX
  8
B1822G_1_2
 10
7.5716
 20
62.0914
 30
0
 70
     0
  0
VERTEX
  8
B1822G_1_2
 10
7.5864
 20
62.0769
 30
0
 70
     0
  0
VERTEX
  8
B1822G_1_2
 10
7.6011
 20
62.0624
 30
0
 70
     0
  0
SEQEND
  0
POLYLINE
  8
B1822G_1_2
  6
CONTINUOUS
 62
     7
 66
     1
 40
0.0139
 41
0.0139
  0
VERTEX
  8
B1822G_1_2
 10
7.5716
 20
62.0914
 30
0
 70
     0
  0
VERTEX
  8
B1822G_1_2
 10
7.5801
 20
62.0974
 30
0
 70
     0
  0
SEQEND
  0
POLYLINE
  8
B1822G_1_2
  6
CONTINUOUS
 62
     7
 66
     1
 40
0.0139
 41
0.0139
  0
VERTEX
  8
B1822G_1_2
 10
6.419
 20
62.0914
 30
0
 70
     0
  0
VERTEX
  8
B1822G_1_2
 10
6.4099
 20
62.0624
 30
0
 70
     0
  0
SEQEND
  0
POLYLINE
  8
B1822G_1_2
  6
CONTINUOUS
 62
     7
 66
     1
 40
0.0139
 41
0.0139
  0
VERTEX
  8
B1822G_1_2
 10
6.8958
 20
62.0914
 30
0
 70
     0
  0
VERTEX
  8
B1822G_1_2
 10
6.905
 20
62.0624
 30
0
 70
     0
  0
SEQEND
  0
POLYLINE
  8
B1822G_1_2
  6
CONTINUOUS
 62
     7
 66
     1
 40
0.0139
 41
0.0139
  0
VERTEX
  8
B1822G_1_2
 10
7.1903
 20
62.0624
 30
0
 70
     0
  0
VERTEX
  8
B1822G_1_2
 10
7.1812
 20
62.0914
 30
0
 70
     0
  0
SEQEND
  0
POLYLINE
  8
B1822G_1_2
  6
CONTINUOUS
 62
     7
 66
     1
 40
0.0139
 41
0.0139
  0
VERTEX
  8
B1822G_1_2
 10
7.5125
 20
62.0914
 30
0
 70
     0
  0
VERTEX
  8
B1822G_1_2
 10
7.4243
 20
62.0975
 30
0
 70
     0
  0
VERTEX
  8
B1822G_1_2
 10
7.3361
 20
62.0914
 30
0
 70
     0
  0
SEQEND
  0
POLYLINE
  8
B1822G_1_2
  6
CONTINUOUS
 62
     7
 66
     1
 40
0.0139
 41
0.0139
  0
VERTEX
  8
B1822G_1_2
 10
7.5363
 20
62.0624
 30
0
 70
     0
  0
VERTEX
  8
B1822G_1_2
 10
7.5125
 20
62.0914
 30
0
 70
     0
  0
SEQEND
  0
POLYLINE
  8
B1822G_1_2
  6
CONTINUOUS
 62
     7
 66
     1
 40
0.0139
 41
0.0139
  0
VERTEX
  8
B1822G_1_2
 10
6.264
 20
62.0914
 30
0
 70
     0
  0
VERTEX
  8
B1822G_1_2
 10
6.1759
 20
62.0975
 30
0
 70
     0
  0
VERTEX
  8
B1822G_1_2
 10
6.0877
 20
62.0914
 30
0
 70
     0
  0
SEQEND
  0
POLYLINE
  8
B1822G_1_2
  6
CONTINUOUS
 62
     7
 66
     1
 40
0.0139
 41
0.0139
  0
VERTEX
  8
B1822G_1_2
 10
6.2402
 20
62.0624
 30
0
 70
     0
  0
VERTEX
  8
B1822G_1_2
 10
6.264
 20
62.0914
 30
0
 70
     0
  0
SEQEND
  0
POLYLINE
  8
B1822G_1_2
  6
CONTINUOUS
 62
     7
 66
     1
 40
0.0139
 41
0.0139
  0
VERTEX
  8
B1822G_1_2
 10
6.7043
 20
62.0914
 30
0
 70
     0
  0
VERTEX
  8
B1822G_1_2
 10
6.5616
 20
62.0975
 30
0
 70
     0
  0
VERTEX
  8
B1822G_1_2
 10
6.419
 20
62.0914
 30
0
 70
     0
  0
SEQEND
  0
POLYLINE
  8
B1822G_1_2
  6
CONTINUOUS
 62
     7
 66
     1
 40
0.0139
 41
0.0139
  0
VERTEX
  8
B1822G_1_2
 10
6.6952
 20
62.0624
 30
0
 70
     0
  0
VERTEX
  8
B1822G_1_2
 10
6.7043
 20
62.0914
 30
0
 70
     0
  0
SEQEND
  0
POLYLINE
  8
B1822G_1_2
  6
CONTINUOUS
 62
     7
 66
     1
 40
0.0139
 41
0.0139
  0
VERTEX
  8
B1822G_1_2
 10
7.1812
 20
62.0914
 30
0
 70
     0
  0
VERTEX
  8
B1822G_1_2
 10
7.0385
 20
62.0975
 30
0
 70
     0
  0
VERTEX
  8
B1822G_1_2
 10
6.8958
 20
62.0914
 30
0
 70
     0
  0
SEQEND
  0
POLYLINE
  8
B1822G_1_2
  6
CONTINUOUS
 62
     7
 66
     1
 40
0.0139
 41
0.0139
  0
VERTEX
  8
B1822G_1_2
 10
6.0285
 20
62.0914
 30
0
 70
     0
  0
VERTEX
  8
B1822G_1_2
 10
6.02
 20
62.0974
 30
0
 70
     0
  0
SEQEND
  0
POLYLINE
  8
B1822G_1_2
  6
CONTINUOUS
 62
     7
 66
     1
 40
0.0139
 41
0.0139
  0
VERTEX
  8
B1822G_1_2
 10
5.999
 20
62.0624
 30
0
 70
     0
  0
VERTEX
  8
B1822G_1_2
 10
6.0137
 20
62.0769
 30
0
 70
     0
  0
VERTEX
  8
B1822G_1_2
 10
6.0285
 20
62.0914
 30
0
 70
     0
  0
SEQEND
  0
POLYLINE
  8
B1822G_1_2
  6
CONTINUOUS
 62
     7
 66
     1
 40
0.0139
 41
0.0139
  0
VERTEX
  8
B1822G_1_2
 10
6.0877
 20
62.0914
 30
0
 70
     0
  0
VERTEX
  8
B1822G_1_2
 10
6.0638
 20
62.0624
 30
0
 70
     0
  0
SEQEND
  0
POLYLINE
  8
B1822G_1_2
  6
CONTINUOUS
 62
     7
 66
     1
 40
0.0139
 41
0.0139
  0
VERTEX
  8
B1822G_1_2
 10
6.0638
 20
62.0624
 30
0
 70
     0
  0
VERTEX
  8
B1822G_1_2
 10
5.999
 20
62.0624
 30
0
 70
     0
  0
SEQEND
  0
POLYLINE
  8
B1822G_1_2
  6
CONTINUOUS
 62
     7
 66
     1
 40
0.0139
 41
0.0139
  0
VERTEX
  8
B1822G_1_2
 10
6.4099
 20
62.0624
 30
0
 70
     0
  0
VERTEX
  8
B1822G_1_2
 10
6.2402
 20
62.0624
 30
0
 70
     0
  0
SEQEND
  0
POLYLINE
  8
B1822G_1_2
  6
CONTINUOUS
 62
     7
 66
     1
 40
0.0139
 41
0.0139
  0
VERTEX
  8
B1822G_1_2
 10
6.905
 20
62.0624
 30
0
 70
     0
  0
VERTEX
  8
B1822G_1_2
 10
6.6952
 20
62.0624
 30
0
 70
     0
  0
SEQEND
  0
POLYLINE
  8
B1822G_1_2
  6
CONTINUOUS
 62
     7
 66
     1
 40
0.0139
 41
0.0139
  0
VERTEX
  8
B1822G_1_2
 10
6.0638
 20
61.3874
 30
0
 70
     0
  0
VERTEX
  8
B1822G_1_2
 10
5.999
 20
61.3874
 30
0
 70
     0
  0
SEQEND
  0
POLYLINE
  8
B1822G_1_2
  6
CONTINUOUS
 62
     7
 66
     1
 40
0.0139
 41
0.0139
  0
VERTEX
  8
B1822G_1_2
 10
6.4099
 20
61.3874
 30
0
 70
     0
  0
VERTEX
  8
B1822G_1_2
 10
6.2402
 20
61.3874
 30
0
 70
     0
  0
SEQEND
  0
POLYLINE
  8
B1822G_1_2
  6
CONTINUOUS
 62
     7
 66
     1
 40
0.0139
 41
0.0139
  0
VERTEX
  8
B1822G_1_2
 10
6.905
 20
61.3874
 30
0
 70
     0
  0
VERTEX
  8
B1822G_1_2
 10
6.6952
 20
61.3874
 30
0
 70
     0
  0
SEQEND
  0
POLYLINE
  8
B1822G_1_2
  6
CONTINUOUS
 62
     7
 66
     1
 40
0.0139
 41
0.0139
  0
VERTEX
  8
B1822G_1_2
 10
6.0851
 20
62.1624
 30
0
 70
     0
  0
VERTEX
  8
B1822G_1_2
 10
6.0201
 20
62.0974
 30
0
 70
     0
  0
SEQEND
  0
POLYLINE
  8
B1822G_1_2
  6
CONTINUOUS
 62
     7
 66
     1
 40
0.0139
 41
0.0139
  0
VERTEX
  8
B1822G_1_2
 10
7.1301
 20
60.9883
 30
0
 70
     0
  0
VERTEX
  8
B1822G_1_2
 10
7.1301
 20
61.0324
 30
0
 70
     0
  0
SEQEND
  0
POLYLINE
  8
B1822G_1_2
  6
CONTINUOUS
 62
     7
 66
     1
 40
0.0139
 41
0.0139
  0
VERTEX
  8
B1822G_1_2
 10
6.2076
 20
61.3874
 30
0
 70
     0
  0
VERTEX
  8
B1822G_1_2
 10
6.2076
 20
61.3074
 30
0
 70
     0
  0
SEQEND
  0
POLYLINE
  8
B1822G_1_2
  6
CONTINUOUS
 62
     7
 66
     1
 40
0.0139
 41
0.0139
  0
VERTEX
  8
B1822G_1_2
 10
7.5801
 20
62.0974
 30
0
 70
     0
  0
VERTEX
  8
B1822G_1_2
 10
7.5151
 20
62.1624
 30
0
 70
     0
  0
SEQEND
  0
POLYLINE
  8
B1822G_1_2
  6
CONTINUOUS
 62
     7
 66
     1
 40
0.0139
 41
0.0139
  0
VERTEX
  8
B1822G_1_2
 10
7.5801
 20
62.0831
 30
0
 70
     0
  0
VERTEX
  8
B1822G_1_2
 10
7.5801
 20
62.0974
 30
0
 70
     0
  0
SEQEND
  0
POLYLINE
  8
B1822G_1_2
  6
CONTINUOUS
 62
     7
 66
     1
 40
0.0139
 41
0.0139
  0
VERTEX
  8
B1822G_1_2
 10
6.4701
 20
61.0324
 30
0
 70
     0
  0
VERTEX
  8
B1822G_1_2
 10
6.4701
 20
60.9883
 30
0
 70
     0
  0
SEQEND
  0
POLYLINE
  8
B1822G_1_2
  6
CONTINUOUS
 62
     7
 66
     1
 40
0.0139
 41
0.0139
  0
VERTEX
  8
B1822G_1_2
 10
6.0201
 20
62.0974
 30
0
 70
     0
  0
VERTEX
  8
B1822G_1_2
 10
6.0201
 20
62.0831
 30
0
 70
     0
  0
SEQEND
  0
POLYLINE
  8
B1822G_1_2
  6
CONTINUOUS
 62
     7
 66
     1
 40
0.0139
 41
0.0139
  0
VERTEX
  8
B1822G_1_2
 10
5.999
 20
61.3874
 30
0
 70
     0
  0
VERTEX
  8
B1822G_1_2
 10
5.999
 20
62.0624
 30
0
 70
     0
  0
SEQEND
  0
POLYLINE
  8
B1822G_1_2
  6
CONTINUOUS
 62
     7
 66
     1
 40
0.0139
 41
0.0139
  0
VERTEX
  8
B1822G_1_2
 10
6.0638
 20
61.3874
 30
0
 70
     0
  0
VERTEX
  8
B1822G_1_2
 10
6.0877
 20
61.3874
 30
0
 70
     0
  0
SEQEND
  0
POLYLINE
  8
B1822G_1_2
  6
CONTINUOUS
 62
     7
 66
     1
 40
0.0139
 41
0.0139
  0
VERTEX
  8
B1822G_1_2
 10
6.0638
 20
62.0624
 30
0
 70
     0
  0
VERTEX
  8
B1822G_1_2
 10
6.0638
 20
61.3874
 30
0
 70
     0
  0
SEQEND
  0
POLYLINE
  8
B1822G_1_2
  6
CONTINUOUS
 62
     7
 66
     1
 40
0.0139
 41
0.0139
  0
VERTEX
  8
B1822G_1_2
 10
6.0877
 20
61.3874
 30
0
 70
     0
  0
VERTEX
  8
B1822G_1_2
 10
6.2402
 20
61.3874
 30
0
 70
     0
  0
SEQEND
  0
POLYLINE
  8
B1822G_1_2
  6
CONTINUOUS
 62
     7
 66
     1
 40
0.0139
 41
0.0139
  0
VERTEX
  8
B1822G_1_2
 10
6.0877
 20
61.3874
 30
0
 70
     0
  0
VERTEX
  8
B1822G_1_2
 10
6.0877
 20
62.0914
 30
0
 70
     0
  0
SEQEND
  0
POLYLINE
  8
B1822G_1_2
  6
CONTINUOUS
 62
     7
 66
     1
 40
0.0139
 41
0.0139
  0
VERTEX
  8
B1822G_1_2
 10
6.2402
 20
61.3874
 30
0
 70
     0
  0
VERTEX
  8
B1822G_1_2
 10
6.2402
 20
62.0624
 30
0
 70
     0
  0
SEQEND
  0
POLYLINE
  8
B1822G_1_2
  6
CONTINUOUS
 62
     7
 66
     1
 40
0.0139
 41
0.0139
  0
VERTEX
  8
B1822G_1_2
 10
6.4099
 20
61.3874
 30
0
 70
     0
  0
VERTEX
  8
B1822G_1_2
 10
6.419
 20
61.3874
 30
0
 70
     0
  0
SEQEND
  0
POLYLINE
  8
B1822G_1_2
  6
CONTINUOUS
 62
     7
 66
     1
 40
0.0139
 41
0.0139
  0
VERTEX
  8
B1822G_1_2
 10
6.4099
 20
62.0624
 30
0
 70
     0
  0
VERTEX
  8
B1822G_1_2
 10
6.4099
 20
61.3874
 30
0
 70
     0
  0
SEQEND
  0
POLYLINE
  8
B1822G_1_2
  6
CONTINUOUS
 62
     7
 66
     1
 40
0.0139
 41
0.0139
  0
VERTEX
  8
B1822G_1_2
 10
6.419
 20
61.3874
 30
0
 70
     0
  0
VERTEX
  8
B1822G_1_2
 10
6.6952
 20
61.3874
 30
0
 70
     0
  0
SEQEND
  0
POLYLINE
  8
B1822G_1_2
  6
CONTINUOUS
 62
     7
 66
     1
 40
0.0139
 41
0.0139
  0
VERTEX
  8
B1822G_1_2
 10
6.419
 20
61.3874
 30
0
 70
     0
  0
VERTEX
  8
B1822G_1_2
 10
6.419
 20
62.0914
 30
0
 70
     0
  0
SEQEND
  0
POLYLINE
  8
B1822G_1_2
  6
CONTINUOUS
 62
     7
 66
     1
 40
0.0139
 41
0.0139
  0
VERTEX
  8
B1822G_1_2
 10
6.6952
 20
61.3874
 30
0
 70
     0
  0
VERTEX
  8
B1822G_1_2
 10
6.6952
 20
62.0624
 30
0
 70
     0
  0
SEQEND
  0
POLYLINE
  8
B1822G_1_2
  6
CONTINUOUS
 62
     7
 66
     1
 40
0.0139
 41
0.0139
  0
VERTEX
  8
B1822G_1_2
 10
7.1903
 20
61.3874
 30
0
 70
     0
  0
VERTEX
  8
B1822G_1_2
 10
7.1903
 20
62.0624
 30
0
 70
     0
  0
SEQEND
  0
POLYLINE
  8
B1822G_1_2
  6
CONTINUOUS
 62
     7
 66
     1
 40
0.0139
 41
0.0139
  0
VERTEX
  8
B1822G_1_2
 10
6.905
 20
61.3874
 30
0
 70
     0
  0
VERTEX
  8
B1822G_1_2
 10
7.1812
 20
61.3874
 30
0
 70
     0
  0
SEQEND
  0
POLYLINE
  8
B1822G_1_2
  6
CONTINUOUS
 62
     7
 66
     1
 40
0.0139
 41
0.0139
  0
VERTEX
  8
B1822G_1_2
 10
7.1812
 20
61.3874
 30
0
 70
     0
  0
VERTEX
  8
B1822G_1_2
 10
7.1812
 20
62.0914
 30
0
 70
     0
  0
SEQEND
  0
POLYLINE
  8
B1822G_1_2
  6
CONTINUOUS
 62
     7
 66
     1
 40
0.0139
 41
0.0139
  0
VERTEX
  8
B1822G_1_2
 10
6.905
 20
62.0624
 30
0
 70
     0
  0
VERTEX
  8
B1822G_1_2
 10
6.905
 20
61.3874
 30
0
 70
     0
  0
SEQEND
  0
POLYLINE
  8
B1822G_1_2
  6
CONTINUOUS
 62
     7
 66
     1
 40
0.0139
 41
0.0139
  0
VERTEX
  8
B1822G_1_2
 10
7.5363
 20
61.3874
 30
0
 70
     0
  0
VERTEX
  8
B1822G_1_2
 10
7.5363
 20
62.0624
 30
0
 70
     0
  0
SEQEND
  0
POLYLINE
  8
B1822G_1_2
  6
CONTINUOUS
 62
     7
 66
     1
 40
0.0139
 41
0.0139
  0
VERTEX
  8
B1822G_1_2
 10
7.36
 20
61.3874
 30
0
 70
     0
  0
VERTEX
  8
B1822G_1_2
 10
7.5125
 20
61.3874
 30
0
 70
     0
  0
SEQEND
  0
POLYLINE
  8
B1822G_1_2
  6
CONTINUOUS
 62
     7
 66
     1
 40
0.0139
 41
0.0139
  0
VERTEX
  8
B1822G_1_2
 10
7.5125
 20
61.3874
 30
0
 70
     0
  0
VERTEX
  8
B1822G_1_2
 10
7.5125
 20
62.0914
 30
0
 70
     0
  0
SEQEND
  0
POLYLINE
  8
B1822G_1_2
  6
CONTINUOUS
 62
     7
 66
     1
 40
0.0139
 41
0.0139
  0
VERTEX
  8
B1822G_1_2
 10
7.1812
 20
61.3874
 30
0
 70
     0
  0
VERTEX
  8
B1822G_1_2
 10
7.1903
 20
61.3874
 30
0
 70
     0
  0
SEQEND
  0
POLYLINE
  8
B1822G_1_2
  6
CONTINUOUS
 62
     7
 66
     1
 40
0.0139
 41
0.0139
  0
VERTEX
  8
B1822G_1_2
 10
7.36
 20
62.0624
 30
0
 70
     0
  0
VERTEX
  8
B1822G_1_2
 10
7.36
 20
61.3874
 30
0
 70
     0
  0
SEQEND
  0
POLYLINE
  8
B1822G_1_2
  6
CONTINUOUS
 62
     7
 66
     1
 40
0.0139
 41
0.0139
  0
VERTEX
  8
B1822G_1_2
 10
7.5125
 20
61.3874
 30
0
 70
     0
  0
VERTEX
  8
B1822G_1_2
 10
7.5363
 20
61.3874
 30
0
 70
     0
  0
SEQEND
  0
POLYLINE
  8
B1822G_1_2
  6
CONTINUOUS
 62
     7
 66
     1
 40
0.0139
 41
0.0139
  0
VERTEX
  8
B1822G_1_2
 10
7.6011
 20
62.0624
 30
0
 70
     0
  0
VERTEX
  8
B1822G_1_2
 10
7.6011
 20
61.3874
 30
0
 70
     0
  0
SEQEND
  0
POLYLINE
  8
B1822G_1_2
  6
CONTINUOUS
 62
     7
 66
     1
 40
0.0139
 41
0.0139
  0
VERTEX
  8
B1822G_1_2
 10
7.6011
 20
61.3874
 30
0
 70
     0
  0
VERTEX
  8
B1822G_1_2
 10
7.5363
 20
61.3874
 30
0
 70
     0
  0
SEQEND
  0
POLYLINE
  8
B1822G_1_2
  6
CONTINUOUS
 62
     7
 66
     1
 40
0.0139
 41
0.0139
  0
VERTEX
  8
B1822G_1_2
 10
7.3926
 20
61.3074
 30
0
 70
     0
  0
VERTEX
  8
B1822G_1_2
 10
6.2076
 20
61.3074
 30
0
 70
     0
  0
SEQEND
  0
POLYLINE
  8
B1822G_1_2
  6
CONTINUOUS
 62
     7
 66
     1
 40
0.0139
 41
0.0139
  0
VERTEX
  8
B1822G_1_2
 10
7.3926
 20
61.3074
 30
0
 70
     0
  0
VERTEX
  8
B1822G_1_2
 10
7.3926
 20
61.3874
 30
0
 70
     0
  0
SEQEND
  0
POLYLINE
  8
B1822G_1_2
  6
CONTINUOUS
 62
     7
 66
     1
 40
0.0139
 41
0.0139
  0
VERTEX
  8
B1822G_1_2
 10
7.36
 20
61.3874
 30
0
 70
     0
  0
VERTEX
  8
B1822G_1_2
 10
7.1903
 20
61.3874
 30
0
 70
     0
  0
SEQEND
  0
POLYLINE
  8
B1822G_1_2
  6
CONTINUOUS
 62
     7
 66
     1
 40
0.0139
 41
0.0139
  0
VERTEX
  8
B1822G_1_2
 10
6.4326
 20
61.0324
 30
0
 70
     0
  0
VERTEX
  8
B1822G_1_2
 10
6.8001
 20
61.0324
 30
0
 70
     0
  0
SEQEND
  0
POLYLINE
  8
B1822G_1_2
  6
CONTINUOUS
 62
     7
 66
     1
 40
0.0139
 41
0.0139
  0
VERTEX
  8
B1822G_1_2
 10
6.8001
 20
61.0324
 30
0
 70
     0
  0
VERTEX
  8
B1822G_1_2
 10
7.1676
 20
61.0324
 30
0
 70
     0
  0
SEQEND
  0
POLYLINE
  8
B1822G_1_2
  6
CONTINUOUS
 62
     7
 66
     1
 40
0.0139
 41
0.0139
  0
VERTEX
  8
B1822G_1_2
 10
7.1676
 20
61.3074
 30
0
 70
     0
  0
VERTEX
  8
B1822G_1_2
 10
7.1676
 20
61.0324
 30
0
 70
     0
  0
SEQEND
  0
POLYLINE
  8
B1822G_1_2
  6
CONTINUOUS
 62
     7
 66
     1
 40
0.0139
 41
0.0139
  0
VERTEX
  8
B1822G_1_2
 10
6.4326
 20
61.3074
 30
0
 70
     0
  0
VERTEX
  8
B1822G_1_2
 10
6.4326
 20
61.0324
 30
0
 70
     0
  0
SEQEND
  0
POLYLINE
  8
B1822G_1_2
  6
CONTINUOUS
 62
     7
 66
     1
 40
0.0139
 41
0.0139
  0
VERTEX
  8
B1822G_1_2
 10
6.8001
 20
61.3074
 30
0
 70
     0
  0
VERTEX
  8
B1822G_1_2
 10
6.8001
 20
61.0324
 30
0
 70
     0
  0
SEQEND
  0
POLYLINE
  8
B1822G_1_2
  6
CONTINUOUS
 62
     7
 66
     1
 40
0.0139
 41
0.0139
  0
VERTEX
  8
B1822G_1_2
 10
7.36
 20
62.0624
 30
0
 70
     0
  0
VERTEX
  8
B1822G_1_2
 10
7.1903
 20
62.0624
 30
0
 70
     0
  0
SEQEND
  0
POLYLINE
  8
B1822G_1_2
  6
CONTINUOUS
 62
     7
 66
     1
 40
0.0139
 41
0.0139
  0
VERTEX
  8
B1822G_1_2
 10
7.6011
 20
62.0624
 30
0
 70
     0
  0
VERTEX
  8
B1822G_1_2
 10
7.5363
 20
62.0624
 30
0
 70
     0
  0
SEQEND
  0
POLYLINE
  8
B1822G_1_2
  6
CONTINUOUS
 62
     7
 66
     1
 40
0.0139
 41
0.0139
  0
VERTEX
  8
B1822G_1_2
 10
6.0851
 20
62.1624
 30
0
 70
     0
  0
VERTEX
  8
B1822G_1_2
 10
7.5151
 20
62.1624
 30
0
 70
     0
  0
SEQEND
  0
POLYLINE
  8
B1822G_1_2
  6
CONTINUOUS
 62
     7
 66
     1
 40
0.0139
 41
0.0139
  0
VERTEX
  8
B1822G_1_2
 10
3.1781
 20
60.3633
 30
0
 70
     0
  0
VERTEX
  8
B1822G_1_2
 10
3.1832
 20
60.4135
 30
0
 70
     0
  0
VERTEX
  8
B1822G_1_2
 10
3.1979
 20
60.4603
 30
0
 70
     0
  0
VERTEX
  8
B1822G_1_2
 10
3.2211
 20
60.5027
 30
0
 70
     0
  0
VERTEX
  8
B1822G_1_2
 10
3.2517
 20
60.5398
 30
0
 70
     0
  0
VERTEX
  8
B1822G_1_2
 10
3.2887
 20
60.5704
 30
0
 70
     0
  0
VERTEX
  8
B1822G_1_2
 10
3.3312
 20
60.5936
 30
0
 70
     0
  0
VERTEX
  8
B1822G_1_2
 10
3.378
 20
60.6082
 30
0
 70
     0
  0
VERTEX
  8
B1822G_1_2
 10
3.4281
 20
60.6133
 30
0
 70
     0
  0
VERTEX
  8
B1822G_1_2
 10
3.4281
 20
60.6133
 30
0
 70
     0
  0
VERTEX
  8
B1822G_1_2
 10
3.4782
 20
60.6082
 30
0
 70
     0
  0
VERTEX
  8
B1822G_1_2
 10
3.525
 20
60.5936
 30
0
 70
     0
  0
VERTEX
  8
B1822G_1_2
 10
3.5675
 20
60.5704
 30
0
 70
     0
  0
VERTEX
  8
B1822G_1_2
 10
3.6045
 20
60.5398
 30
0
 70
     0
  0
VERTEX
  8
B1822G_1_2
 10
3.6352
 20
60.5027
 30
0
 70
     0
  0
VERTEX
  8
B1822G_1_2
 10
3.6583
 20
60.4603
 30
0
 70
     0
  0
VERTEX
  8
B1822G_1_2
 10
3.673
 20
60.4135
 30
0
 70
     0
  0
VERTEX
  8
B1822G_1_2
 10
3.6781
 20
60.3633
 30
0
 70
     0
  0
VERTEX
  8
B1822G_1_2
 10
3.6781
 20
60.3633
 30
0
 70
     0
  0
VERTEX
  8
B1822G_1_2
 10
3.673
 20
60.3132
 30
0
 70
     0
  0
VERTEX
  8
B1822G_1_2
 10
3.6583
 20
60.2664
 30
0
 70
     0
  0
VERTEX
  8
B1822G_1_2
 10
3.6352
 20
60.224
 30
0
 70
     0
  0
VERTEX
  8
B1822G_1_2
 10
3.6045
 20
60.1869
 30
0
 70
     0
  0
VERTEX
  8
B1822G_1_2
 10
3.5675
 20
60.1563
 30
0
 70
     0
  0
VERTEX
  8
B1822G_1_2
 10
3.525
 20
60.1331
 30
0
 70
     0
  0
VERTEX
  8
B1822G_1_2
 10
3.4782
 20
60.1185
 30
0
 70
     0
  0
VERTEX
  8
B1822G_1_2
 10
3.4281
 20
60.1133
 30
0
 70
     0
  0
VERTEX
  8
B1822G_1_2
 10
3.4281
 20
60.1133
 30
0
 70
     0
  0
VERTEX
  8
B1822G_1_2
 10
3.378
 20
60.1185
 30
0
 70
     0
  0
VERTEX
  8
B1822G_1_2
 10
3.3312
 20
60.1331
 30
0
 70
     0
  0
VERTEX
  8
B1822G_1_2
 10
3.2887
 20
60.1563
 30
0
 70
     0
  0
VERTEX
  8
B1822G_1_2
 10
3.2517
 20
60.1869
 30
0
 70
     0
  0
VERTEX
  8
B1822G_1_2
 10
3.2211
 20
60.224
 30
0
 70
     0
  0
VERTEX
  8
B1822G_1_2
 10
3.1979
 20
60.2664
 30
0
 70
     0
  0
VERTEX
  8
B1822G_1_2
 10
3.1832
 20
60.3132
 30
0
 70
     0
  0
VERTEX
  8
B1822G_1_2
 10
3.1781
 20
60.3633
 30
0
 70
     0
  0
SEQEND
  0
POLYLINE
  8
B1822G_1_2
  6
CONTINUOUS
 62
     7
 66
     1
 40
0.0139
 41
0.0139
  0
VERTEX
  8
B1822G_1_2
 10
3.2253
 20
60.3633
 30
0
 70
     0
  0
VERTEX
  8
B1822G_1_2
 10
3.2295
 20
60.404
 30
0
 70
     0
  0
VERTEX
  8
B1822G_1_2
 10
3.2414
 20
60.442
 30
0
 70
     0
  0
VERTEX
  8
B1822G_1_2
 10
3.2602
 20
60.4764
 30
0
 70
     0
  0
VERTEX
  8
B1822G_1_2
 10
3.285
 20
60.5065
 30
0
 70
     0
  0
VERTEX
  8
B1822G_1_2
 10
3.3151
 20
60.5313
 30
0
 70
     0
  0
VERTEX
  8
B1822G_1_2
 10
3.3495
 20
60.5501
 30
0
 70
     0
  0
VERTEX
  8
B1822G_1_2
 10
3.3875
 20
60.562
 30
0
 70
     0
  0
VERTEX
  8
B1822G_1_2
 10
3.4281
 20
60.5661
 30
0
 70
     0
  0
VERTEX
  8
B1822G_1_2
 10
3.4281
 20
60.5661
 30
0
 70
     0
  0
VERTEX
  8
B1822G_1_2
 10
3.4688
 20
60.562
 30
0
 70
     0
  0
VERTEX
  8
B1822G_1_2
 10
3.5067
 20
60.5501
 30
0
 70
     0
  0
VERTEX
  8
B1822G_1_2
 10
3.5412
 20
60.5313
 30
0
 70
     0
  0
VERTEX
  8
B1822G_1_2
 10
3.5712
 20
60.5065
 30
0
 70
     0
  0
VERTEX
  8
B1822G_1_2
 10
3.5961
 20
60.4764
 30
0
 70
     0
  0
VERTEX
  8
B1822G_1_2
 10
3.6149
 20
60.442
 30
0
 70
     0
  0
VERTEX
  8
B1822G_1_2
 10
3.6268
 20
60.404
 30
0
 70
     0
  0
VERTEX
  8
B1822G_1_2
 10
3.6309
 20
60.3633
 30
0
 70
     0
  0
VERTEX
  8
B1822G_1_2
 10
3.6309
 20
60.3633
 30
0
 70
     0
  0
VERTEX
  8
B1822G_1_2
 10
3.6268
 20
60.3227
 30
0
 70
     0
  0
VERTEX
  8
B1822G_1_2
 10
3.6149
 20
60.2847
 30
0
 70
     0
  0
VERTEX
  8
B1822G_1_2
 10
3.5961
 20
60.2503
 30
0
 70
     0
  0
VERTEX
  8
B1822G_1_2
 10
3.5712
 20
60.2202
 30
0
 70
     0
  0
VERTEX
  8
B1822G_1_2
 10
3.5412
 20
60.1954
 30
0
 70
     0
  0
VERTEX
  8
B1822G_1_2
 10
3.5067
 20
60.1766
 30
0
 70
     0
  0
VERTEX
  8
B1822G_1_2
 10
3.4688
 20
60.1647
 30
0
 70
     0
  0
VERTEX
  8
B1822G_1_2
 10
3.4281
 20
60.1605
 30
0
 70
     0
  0
VERTEX
  8
B1822G_1_2
 10
3.4281
 20
60.1605
 30
0
 70
     0
  0
VERTEX
  8
B1822G_1_2
 10
3.3875
 20
60.1647
 30
0
 70
     0
  0
VERTEX
  8
B1822G_1_2
 10
3.3495
 20
60.1766
 30
0
 70
     0
  0
VERTEX
  8
B1822G_1_2
 10
3.3151
 20
60.1954
 30
0
 70
     0
  0
VERTEX
  8
B1822G_1_2
 10
3.285
 20
60.2202
 30
0
 70
     0
  0
VERTEX
  8
B1822G_1_2
 10
3.2602
 20
60.2503
 30
0
 70
     0
  0
VERTEX
  8
B1822G_1_2
 10
3.2414
 20
60.2847
 30
0
 70
     0
  0
VERTEX
  8
B1822G_1_2
 10
3.2295
 20
60.3227
 30
0
 70
     0
  0
VERTEX
  8
B1822G_1_2
 10
3.2253
 20
60.3633
 30
0
 70
     0
  0
SEQEND
  0
POLYLINE
  8
B1822G_1_2
  6
CONTINUOUS
 62
     7
 66
     1
 40
0.0139
 41
0.0139
  0
VERTEX
  8
B1822G_1_2
 10
3.2263
 20
60.3633
 30
0
 70
     0
  0
VERTEX
  8
B1822G_1_2
 10
3.2305
 20
60.4038
 30
0
 70
     0
  0
VERTEX
  8
B1822G_1_2
 10
3.2423
 20
60.4416
 30
0
 70
     0
  0
VERTEX
  8
B1822G_1_2
 10
3.261
 20
60.4758
 30
0
 70
     0
  0
VERTEX
  8
B1822G_1_2
 10
3.2857
 20
60.5058
 30
0
 70
     0
  0
VERTEX
  8
B1822G_1_2
 10
3.3156
 20
60.5305
 30
0
 70
     0
  0
VERTEX
  8
B1822G_1_2
 10
3.3499
 20
60.5492
 30
0
 70
     0
  0
VERTEX
  8
B1822G_1_2
 10
3.3877
 20
60.561
 30
0
 70
     0
  0
VERTEX
  8
B1822G_1_2
 10
3.4281
 20
60.5651
 30
0
 70
     0
  0
VERTEX
  8
B1822G_1_2
 10
3.4281
 20
60.5651
 30
0
 70
     0
  0
VERTEX
  8
B1822G_1_2
 10
3.4686
 20
60.561
 30
0
 70
     0
  0
VERTEX
  8
B1822G_1_2
 10
3.5064
 20
60.5492
 30
0
 70
     0
  0
VERTEX
  8
B1822G_1_2
 10
3.5406
 20
60.5305
 30
0
 70
     0
  0
VERTEX
  8
B1822G_1_2
 10
3.5705
 20
60.5058
 30
0
 70
     0
  0
VERTEX
  8
B1822G_1_2
 10
3.5953
 20
60.4758
 30
0
 70
     0
  0
VERTEX
  8
B1822G_1_2
 10
3.614
 20
60.4416
 30
0
 70
     0
  0
VERTEX
  8
B1822G_1_2
 10
3.6258
 20
60.4038
 30
0
 70
     0
  0
VERTEX
  8
B1822G_1_2
 10
3.6299
 20
60.3633
 30
0
 70
     0
  0
VERTEX
  8
B1822G_1_2
 10
3.6299
 20
60.3633
 30
0
 70
     0
  0
VERTEX
  8
B1822G_1_2
 10
3.6258
 20
60.3229
 30
0
 70
     0
  0
VERTEX
  8
B1822G_1_2
 10
3.614
 20
60.2851
 30
0
 70
     0
  0
VERTEX
  8
B1822G_1_2
 10
3.5953
 20
60.2508
 30
0
 70
     0
  0
VERTEX
  8
B1822G_1_2
 10
3.5705
 20
60.2209
 30
0
 70
     0
  0
VERTEX
  8
B1822G_1_2
 10
3.5406
 20
60.1962
 30
0
 70
     0
  0
VERTEX
  8
B1822G_1_2
 10
3.5064
 20
60.1775
 30
0
 70
     0
  0
VERTEX
  8
B1822G_1_2
 10
3.4686
 20
60.1657
 30
0
 70
     0
  0
VERTEX
  8
B1822G_1_2
 10
3.4281
 20
60.1615
 30
0
 70
     0
  0
VERTEX
  8
B1822G_1_2
 10
3.4281
 20
60.1615
 30
0
 70
     0
  0
VERTEX
  8
B1822G_1_2
 10
3.3877
 20
60.1657
 30
0
 70
     0
  0
VERTEX
  8
B1822G_1_2
 10
3.3499
 20
60.1775
 30
0
 70
     0
  0
VERTEX
  8
B1822G_1_2
 10
3.3156
 20
60.1962
 30
0
 70
     0
  0
VERTEX
  8
B1822G_1_2
 10
3.2857
 20
60.2209
 30
0
 70
     0
  0
VERTEX
  8
B1822G_1_2
 10
3.261
 20
60.2508
 30
0
 70
     0
  0
VERTEX
  8
B1822G_1_2
 10
3.2423
 20
60.2851
 30
0
 70
     0
  0
VERTEX
  8
B1822G_1_2
 10
3.2305
 20
60.3229
 30
0
 70
     0
  0
VERTEX
  8
B1822G_1_2
 10
3.2263
 20
60.3633
 30
0
 70
     0
  0
SEQEND
  0
POLYLINE
  8
B1822G_1_2
  6
CONTINUOUS
 62
     7
 66
     1
 40
0.0139
 41
0.0139
  0
VERTEX
  8
B1822G_1_2
 10
6.1781
 20
60.3633
 30
0
 70
     0
  0
VERTEX
  8
B1822G_1_2
 10
6.1832
 20
60.4135
 30
0
 70
     0
  0
VERTEX
  8
B1822G_1_2
 10
6.1979
 20
60.4603
 30
0
 70
     0
  0
VERTEX
  8
B1822G_1_2
 10
6.2211
 20
60.5027
 30
0
 70
     0
  0
VERTEX
  8
B1822G_1_2
 10
6.2517
 20
60.5398
 30
0
 70
     0
  0
VERTEX
  8
B1822G_1_2
 10
6.2887
 20
60.5704
 30
0
 70
     0
  0
VERTEX
  8
B1822G_1_2
 10
6.3312
 20
60.5936
 30
0
 70
     0
  0
VERTEX
  8
B1822G_1_2
 10
6.378
 20
60.6082
 30
0
 70
     0
  0
VERTEX
  8
B1822G_1_2
 10
6.4281
 20
60.6133
 30
0
 70
     0
  0
VERTEX
  8
B1822G_1_2
 10
6.4281
 20
60.6133
 30
0
 70
     0
  0
VERTEX
  8
B1822G_1_2
 10
6.4782
 20
60.6082
 30
0
 70
     0
  0
VERTEX
  8
B1822G_1_2
 10
6.525
 20
60.5936
 30
0
 70
     0
  0
VERTEX
  8
B1822G_1_2
 10
6.5675
 20
60.5704
 30
0
 70
     0
  0
VERTEX
  8
B1822G_1_2
 10
6.6045
 20
60.5398
 30
0
 70
     0
  0
VERTEX
  8
B1822G_1_2
 10
6.6352
 20
60.5027
 30
0
 70
     0
  0
VERTEX
  8
B1822G_1_2
 10
6.6583
 20
60.4603
 30
0
 70
     0
  0
VERTEX
  8
B1822G_1_2
 10
6.673
 20
60.4135
 30
0
 70
     0
  0
VERTEX
  8
B1822G_1_2
 10
6.6781
 20
60.3633
 30
0
 70
     0
  0
VERTEX
  8
B1822G_1_2
 10
6.6781
 20
60.3633
 30
0
 70
     0
  0
VERTEX
  8
B1822G_1_2
 10
6.673
 20
60.3132
 30
0
 70
     0
  0
VERTEX
  8
B1822G_1_2
 10
6.6583
 20
60.2664
 30
0
 70
     0
  0
VERTEX
  8
B1822G_1_2
 10
6.6352
 20
60.224
 30
0
 70
     0
  0
VERTEX
  8
B1822G_1_2
 10
6.6045
 20
60.1869
 30
0
 70
     0
  0
VERTEX
  8
B1822G_1_2
 10
6.5675
 20
60.1563
 30
0
 70
     0
  0
VERTEX
  8
B1822G_1_2
 10
6.525
 20
60.1331
 30
0
 70
     0
  0
VERTEX
  8
B1822G_1_2
 10
6.4782
 20
60.1185
 30
0
 70
     0
  0
VERTEX
  8
B1822G_1_2
 10
6.4281
 20
60.1133
 30
0
 70
     0
  0
VERTEX
  8
B1822G_1_2
 10
6.4281
 20
60.1133
 30
0
 70
     0
  0
VERTEX
  8
B1822G_1_2
 10
6.378
 20
60.1185
 30
0
 70
     0
  0
VERTEX
  8
B1822G_1_2
 10
6.3312
 20
60.1331
 30
0
 70
     0
  0
VERTEX
  8
B1822G_1_2
 10
6.2887
 20
60.1563
 30
0
 70
     0
  0
VERTEX
  8
B1822G_1_2
 10
6.2517
 20
60.1869
 30
0
 70
     0
  0
VERTEX
  8
B1822G_1_2
 10
6.2211
 20
60.224
 30
0
 70
     0
  0
VERTEX
  8
B1822G_1_2
 10
6.1979
 20
60.2664
 30
0
 70
     0
  0
VERTEX
  8
B1822G_1_2
 10
6.1832
 20
60.3132
 30
0
 70
     0
  0
VERTEX
  8
B1822G_1_2
 10
6.1781
 20
60.3633
 30
0
 70
     0
  0
SEQEND
  0
POLYLINE
  8
B1822G_1_2
  6
CONTINUOUS
 62
     7
 66
     1
 40
0.0139
 41
0.0139
  0
VERTEX
  8
B1822G_1_2
 10
6.2253
 20
60.3633
 30
0
 70
     0
  0
VERTEX
  8
B1822G_1_2
 10
6.2295
 20
60.404
 30
0
 70
     0
  0
VERTEX
  8
B1822G_1_2
 10
6.2414
 20
60.442
 30
0
 70
     0
  0
VERTEX
  8
B1822G_1_2
 10
6.2602
 20
60.4764
 30
0
 70
     0
  0
VERTEX
  8
B1822G_1_2
 10
6.285
 20
60.5065
 30
0
 70
     0
  0
VERTEX
  8
B1822G_1_2
 10
6.3151
 20
60.5313
 30
0
 70
     0
  0
VERTEX
  8
B1822G_1_2
 10
6.3495
 20
60.5501
 30
0
 70
     0
  0
VERTEX
  8
B1822G_1_2
 10
6.3875
 20
60.562
 30
0
 70
     0
  0
VERTEX
  8
B1822G_1_2
 10
6.4281
 20
60.5661
 30
0
 70
     0
  0
VERTEX
  8
B1822G_1_2
 10
6.4281
 20
60.5661
 30
0
 70
     0
  0
VERTEX
  8
B1822G_1_2
 10
6.4688
 20
60.562
 30
0
 70
     0
  0
VERTEX
  8
B1822G_1_2
 10
6.5067
 20
60.5501
 30
0
 70
     0
  0
VERTEX
  8
B1822G_1_2
 10
6.5412
 20
60.5313
 30
0
 70
     0
  0
VERTEX
  8
B1822G_1_2
 10
6.5712
 20
60.5065
 30
0
 70
     0
  0
VERTEX
  8
B1822G_1_2
 10
6.5961
 20
60.4764
 30
0
 70
     0
  0
VERTEX
  8
B1822G_1_2
 10
6.6149
 20
60.442
 30
0
 70
     0
  0
VERTEX
  8
B1822G_1_2
 10
6.6268
 20
60.404
 30
0
 70
     0
  0
VERTEX
  8
B1822G_1_2
 10
6.6309
 20
60.3633
 30
0
 70
     0
  0
VERTEX
  8
B1822G_1_2
 10
6.6309
 20
60.3633
 30
0
 70
     0
  0
VERTEX
  8
B1822G_1_2
 10
6.6268
 20
60.3227
 30
0
 70
     0
  0
VERTEX
  8
B1822G_1_2
 10
6.6149
 20
60.2847
 30
0
 70
     0
  0
VERTEX
  8
B1822G_1_2
 10
6.5961
 20
60.2503
 30
0
 70
     0
  0
VERTEX
  8
B1822G_1_2
 10
6.5712
 20
60.2202
 30
0
 70
     0
  0
VERTEX
  8
B1822G_1_2
 10
6.5412
 20
60.1954
 30
0
 70
     0
  0
VERTEX
  8
B1822G_1_2
 10
6.5067
 20
60.1766
 30
0
 70
     0
  0
VERTEX
  8
B1822G_1_2
 10
6.4688
 20
60.1647
 30
0
 70
     0
  0
VERTEX
  8
B1822G_1_2
 10
6.4281
 20
60.1605
 30
0
 70
     0
  0
VERTEX
  8
B1822G_1_2
 10
6.4281
 20
60.1605
 30
0
 70
     0
  0
VERTEX
  8
B1822G_1_2
 10
6.3875
 20
60.1647
 30
0
 70
     0
  0
VERTEX
  8
B1822G_1_2
 10
6.3495
 20
60.1766
 30
0
 70
     0
  0
VERTEX
  8
B1822G_1_2
 10
6.3151
 20
60.1954
 30
0
 70
     0
  0
VERTEX
  8
B1822G_1_2
 10
6.285
 20
60.2202
 30
0
 70
     0
  0
VERTEX
  8
B1822G_1_2
 10
6.2602
 20
60.2503
 30
0
 70
     0
  0
VERTEX
  8
B1822G_1_2
 10
6.2414
 20
60.2847
 30
0
 70
     0
  0
VERTEX
  8
B1822G_1_2
 10
6.2295
 20
60.3227
 30
0
 70
     0
  0
VERTEX
  8
B1822G_1_2
 10
6.2253
 20
60.3633
 30
0
 70
     0
  0
SEQEND
  0
POLYLINE
  8
B1822G_1_2
  6
CONTINUOUS
 62
     7
 66
     1
 40
0.0139
 41
0.0139
  0
VERTEX
  8
B1822G_1_2
 10
6.2263
 20
60.3633
 30
0
 70
     0
  0
VERTEX
  8
B1822G_1_2
 10
6.2305
 20
60.4038
 30
0
 70
     0
  0
VERTEX
  8
B1822G_1_2
 10
6.2423
 20
60.4416
 30
0
 70
     0
  0
VERTEX
  8
B1822G_1_2
 10
6.261
 20
60.4758
 30
0
 70
     0
  0
VERTEX
  8
B1822G_1_2
 10
6.2857
 20
60.5058
 30
0
 70
     0
  0
VERTEX
  8
B1822G_1_2
 10
6.3156
 20
60.5305
 30
0
 70
     0
  0
VERTEX
  8
B1822G_1_2
 10
6.3499
 20
60.5492
 30
0
 70
     0
  0
VERTEX
  8
B1822G_1_2
 10
6.3877
 20
60.561
 30
0
 70
     0
  0
VERTEX
  8
B1822G_1_2
 10
6.4281
 20
60.5651
 30
0
 70
     0
  0
VERTEX
  8
B1822G_1_2
 10
6.4281
 20
60.5651
 30
0
 70
     0
  0
VERTEX
  8
B1822G_1_2
 10
6.4686
 20
60.561
 30
0
 70
     0
  0
VERTEX
  8
B1822G_1_2
 10
6.5064
 20
60.5492
 30
0
 70
     0
  0
VERTEX
  8
B1822G_1_2
 10
6.5406
 20
60.5305
 30
0
 70
     0
  0
VERTEX
  8
B1822G_1_2
 10
6.5705
 20
60.5058
 30
0
 70
     0
  0
VERTEX
  8
B1822G_1_2
 10
6.5953
 20
60.4758
 30
0
 70
     0
  0
VERTEX
  8
B1822G_1_2
 10
6.614
 20
60.4416
 30
0
 70
     0
  0
VERTEX
  8
B1822G_1_2
 10
6.6258
 20
60.4038
 30
0
 70
     0
  0
VERTEX
  8
B1822G_1_2
 10
6.6299
 20
60.3633
 30
0
 70
     0
  0
VERTEX
  8
B1822G_1_2
 10
6.6299
 20
60.3633
 30
0
 70
     0
  0
VERTEX
  8
B1822G_1_2
 10
6.6258
 20
60.3229
 30
0
 70
     0
  0
VERTEX
  8
B1822G_1_2
 10
6.614
 20
60.2851
 30
0
 70
     0
  0
VERTEX
  8
B1822G_1_2
 10
6.5953
 20
60.2508
 30
0
 70
     0
  0
VERTEX
  8
B1822G_1_2
 10
6.5705
 20
60.2209
 30
0
 70
     0
  0
VERTEX
  8
B1822G_1_2
 10
6.5406
 20
60.1962
 30
0
 70
     0
  0
VERTEX
  8
B1822G_1_2
 10
6.5064
 20
60.1775
 30
0
 70
     0
  0
VERTEX
  8
B1822G_1_2
 10
6.4686
 20
60.1657
 30
0
 70
     0
  0
VERTEX
  8
B1822G_1_2
 10
6.4281
 20
60.1615
 30
0
 70
     0
  0
VERTEX
  8
B1822G_1_2
 10
6.4281
 20
60.1615
 30
0
 70
     0
  0
VERTEX
  8
B1822G_1_2
 10
6.3877
 20
60.1657
 30
0
 70
     0
  0
VERTEX
  8
B1822G_1_2
 10
6.3499
 20
60.1775
 30
0
 70
     0
  0
VERTEX
  8
B1822G_1_2
 10
6.3156
 20
60.1962
 30
0
 70
     0
  0
VERTEX
  8
B1822G_1_2
 10
6.2857
 20
60.2209
 30
0
 70
     0
  0
VERTEX
  8
B1822G_1_2
 10
6.261
 20
60.2508
 30
0
 70
     0
  0
VERTEX
  8
B1822G_1_2
 10
6.2423
 20
60.2851
 30
0
 70
     0
  0
VERTEX
  8
B1822G_1_2
 10
6.2305
 20
60.3229
 30
0
 70
     0
  0
VERTEX
  8
B1822G_1_2
 10
6.2263
 20
60.3633
 30
0
 70
     0
  0
SEQEND
  0
POLYLINE
  8
B1822G_1_2
  6
CONTINUOUS
 62
     7
 66
     1
 40
0.0139
 41
0.0139
  0
VERTEX
  8
B1822G_1_2
 10
6.1781
 20
2.1133
 30
0
 70
     0
  0
VERTEX
  8
B1822G_1_2
 10
6.1832
 20
2.1635
 30
0
 70
     0
  0
VERTEX
  8
B1822G_1_2
 10
6.1979
 20
2.2103
 30
0
 70
     0
  0
VERTEX
  8
B1822G_1_2
 10
6.2211
 20
2.2527
 30
0
 70
     0
  0
VERTEX
  8
B1822G_1_2
 10
6.2517
 20
2.2898
 30
0
 70
     0
  0
VERTEX
  8
B1822G_1_2
 10
6.2887
 20
2.3204
 30
0
 70
     0
  0
VERTEX
  8
B1822G_1_2
 10
6.3312
 20
2.3436
 30
0
 70
     0
  0
VERTEX
  8
B1822G_1_2
 10
6.378
 20
2.3582
 30
0
 70
     0
  0
VERTEX
  8
B1822G_1_2
 10
6.4281
 20
2.3633
 30
0
 70
     0
  0
VERTEX
  8
B1822G_1_2
 10
6.4281
 20
2.3633
 30
0
 70
     0
  0
VERTEX
  8
B1822G_1_2
 10
6.4782
 20
2.3582
 30
0
 70
     0
  0
VERTEX
  8
B1822G_1_2
 10
6.525
 20
2.3436
 30
0
 70
     0
  0
VERTEX
  8
B1822G_1_2
 10
6.5675
 20
2.3204
 30
0
 70
     0
  0
VERTEX
  8
B1822G_1_2
 10
6.6045
 20
2.2898
 30
0
 70
     0
  0
VERTEX
  8
B1822G_1_2
 10
6.6352
 20
2.2527
 30
0
 70
     0
  0
VERTEX
  8
B1822G_1_2
 10
6.6583
 20
2.2103
 30
0
 70
     0
  0
VERTEX
  8
B1822G_1_2
 10
6.673
 20
2.1635
 30
0
 70
     0
  0
VERTEX
  8
B1822G_1_2
 10
6.6781
 20
2.1133
 30
0
 70
     0
  0
VERTEX
  8
B1822G_1_2
 10
6.6781
 20
2.1133
 30
0
 70
     0
  0
VERTEX
  8
B1822G_1_2
 10
6.673
 20
2.0632
 30
0
 70
     0
  0
VERTEX
  8
B1822G_1_2
 10
6.6583
 20
2.0164
 30
0
 70
     0
  0
VERTEX
  8
B1822G_1_2
 10
6.6352
 20
1.974
 30
0
 70
     0
  0
VERTEX
  8
B1822G_1_2
 10
6.6045
 20
1.9369
 30
0
 70
     0
  0
VERTEX
  8
B1822G_1_2
 10
6.5675
 20
1.9063
 30
0
 70
     0
  0
VERTEX
  8
B1822G_1_2
 10
6.525
 20
1.8831
 30
0
 70
     0
  0
VERTEX
  8
B1822G_1_2
 10
6.4782
 20
1.8685
 30
0
 70
     0
  0
VERTEX
  8
B1822G_1_2
 10
6.4281
 20
1.8633
 30
0
 70
     0
  0
VERTEX
  8
B1822G_1_2
 10
6.4281
 20
1.8633
 30
0
 70
     0
  0
VERTEX
  8
B1822G_1_2
 10
6.378
 20
1.8685
 30
0
 70
     0
  0
VERTEX
  8
B1822G_1_2
 10
6.3312
 20
1.8831
 30
0
 70
     0
  0
VERTEX
  8
B1822G_1_2
 10
6.2887
 20
1.9063
 30
0
 70
     0
  0
VERTEX
  8
B1822G_1_2
 10
6.2517
 20
1.9369
 30
0
 70
     0
  0
VERTEX
  8
B1822G_1_2
 10
6.2211
 20
1.974
 30
0
 70
     0
  0
VERTEX
  8
B1822G_1_2
 10
6.1979
 20
2.0164
 30
0
 70
     0
  0
VERTEX
  8
B1822G_1_2
 10
6.1832
 20
2.0632
 30
0
 70
     0
  0
VERTEX
  8
B1822G_1_2
 10
6.1781
 20
2.1133
 30
0
 70
     0
  0
SEQEND
  0
POLYLINE
  8
B1822G_1_2
  6
CONTINUOUS
 62
     7
 66
     1
 40
0.0139
 41
0.0139
  0
VERTEX
  8
B1822G_1_2
 10
6.2253
 20
2.1133
 30
0
 70
     0
  0
VERTEX
  8
B1822G_1_2
 10
6.2295
 20
2.154
 30
0
 70
     0
  0
VERTEX
  8
B1822G_1_2
 10
6.2414
 20
2.192
 30
0
 70
     0
  0
VERTEX
  8
B1822G_1_2
 10
6.2602
 20
2.2264
 30
0
 70
     0
  0
VERTEX
  8
B1822G_1_2
 10
6.285
 20
2.2565
 30
0
 70
     0
  0
VERTEX
  8
B1822G_1_2
 10
6.3151
 20
2.2813
 30
0
 70
     0
  0
VERTEX
  8
B1822G_1_2
 10
6.3495
 20
2.3001
 30
0
 70
     0
  0
VERTEX
  8
B1822G_1_2
 10
6.3875
 20
2.312
 30
0
 70
     0
  0
VERTEX
  8
B1822G_1_2
 10
6.4281
 20
2.3161
 30
0
 70
     0
  0
VERTEX
  8
B1822G_1_2
 10
6.4281
 20
2.3161
 30
0
 70
     0
  0
VERTEX
  8
B1822G_1_2
 10
6.4688
 20
2.312
 30
0
 70
     0
  0
VERTEX
  8
B1822G_1_2
 10
6.5067
 20
2.3001
 30
0
 70
     0
  0
VERTEX
  8
B1822G_1_2
 10
6.5412
 20
2.2813
 30
0
 70
     0
  0
VERTEX
  8
B1822G_1_2
 10
6.5712
 20
2.2565
 30
0
 70
     0
  0
VERTEX
  8
B1822G_1_2
 10
6.5961
 20
2.2264
 30
0
 70
     0
  0
VERTEX
  8
B1822G_1_2
 10
6.6149
 20
2.192
 30
0
 70
     0
  0
VERTEX
  8
B1822G_1_2
 10
6.6268
 20
2.154
 30
0
 70
     0
  0
VERTEX
  8
B1822G_1_2
 10
6.6309
 20
2.1133
 30
0
 70
     0
  0
VERTEX
  8
B1822G_1_2
 10
6.6309
 20
2.1133
 30
0
 70
     0
  0
VERTEX
  8
B1822G_1_2
 10
6.6268
 20
2.0727
 30
0
 70
     0
  0
VERTEX
  8
B1822G_1_2
 10
6.6149
 20
2.0347
 30
0
 70
     0
  0
VERTEX
  8
B1822G_1_2
 10
6.5961
 20
2.0003
 30
0
 70
     0
  0
VERTEX
  8
B1822G_1_2
 10
6.5712
 20
1.9702
 30
0
 70
     0
  0
VERTEX
  8
B1822G_1_2
 10
6.5412
 20
1.9454
 30
0
 70
     0
  0
VERTEX
  8
B1822G_1_2
 10
6.5067
 20
1.9266
 30
0
 70
     0
  0
VERTEX
  8
B1822G_1_2
 10
6.4688
 20
1.9147
 30
0
 70
     0
  0
VERTEX
  8
B1822G_1_2
 10
6.4281
 20
1.9105
 30
0
 70
     0
  0
VERTEX
  8
B1822G_1_2
 10
6.4281
 20
1.9105
 30
0
 70
     0
  0
VERTEX
  8
B1822G_1_2
 10
6.3875
 20
1.9147
 30
0
 70
     0
  0
VERTEX
  8
B1822G_1_2
 10
6.3495
 20
1.9266
 30
0
 70
     0
  0
VERTEX
  8
B1822G_1_2
 10
6.3151
 20
1.9454
 30
0
 70
     0
  0
VERTEX
  8
B1822G_1_2
 10
6.285
 20
1.9702
 30
0
 70
     0
  0
VERTEX
  8
B1822G_1_2
 10
6.2602
 20
2.0003
 30
0
 70
     0
  0
VERTEX
  8
B1822G_1_2
 10
6.2414
 20
2.0347
 30
0
 70
     0
  0
VERTEX
  8
B1822G_1_2
 10
6.2295
 20
2.0727
 30
0
 70
     0
  0
VERTEX
  8
B1822G_1_2
 10
6.2253
 20
2.1133
 30
0
 70
     0
  0
SEQEND
  0
POLYLINE
  8
B1822G_1_2
  6
CONTINUOUS
 62
     7
 66
     1
 40
0.0139
 41
0.0139
  0
VERTEX
  8
B1822G_1_2
 10
6.2263
 20
2.1133
 30
0
 70
     0
  0
VERTEX
  8
B1822G_1_2
 10
6.2305
 20
2.1538
 30
0
 70
     0
  0
VERTEX
  8
B1822G_1_2
 10
6.2423
 20
2.1916
 30
0
 70
     0
  0
VERTEX
  8
B1822G_1_2
 10
6.261
 20
2.2258
 30
0
 70
     0
  0
VERTEX
  8
B1822G_1_2
 10
6.2857
 20
2.2558
 30
0
 70
     0
  0
VERTEX
  8
B1822G_1_2
 10
6.3156
 20
2.2805
 30
0
 70
     0
  0
VERTEX
  8
B1822G_1_2
 10
6.3499
 20
2.2992
 30
0
 70
     0
  0
VERTEX
  8
B1822G_1_2
 10
6.3877
 20
2.311
 30
0
 70
     0
  0
VERTEX
  8
B1822G_1_2
 10
6.4281
 20
2.3151
 30
0
 70
     0
  0
VERTEX
  8
B1822G_1_2
 10
6.4281
 20
2.3151
 30
0
 70
     0
  0
VERTEX
  8
B1822G_1_2
 10
6.4686
 20
2.311
 30
0
 70
     0
  0
VERTEX
  8
B1822G_1_2
 10
6.5064
 20
2.2992
 30
0
 70
     0
  0
VERTEX
  8
B1822G_1_2
 10
6.5406
 20
2.2805
 30
0
 70
     0
  0
VERTEX
  8
B1822G_1_2
 10
6.5705
 20
2.2558
 30
0
 70
     0
  0
VERTEX
  8
B1822G_1_2
 10
6.5953
 20
2.2258
 30
0
 70
     0
  0
VERTEX
  8
B1822G_1_2
 10
6.614
 20
2.1916
 30
0
 70
     0
  0
VERTEX
  8
B1822G_1_2
 10
6.6258
 20
2.1538
 30
0
 70
     0
  0
VERTEX
  8
B1822G_1_2
 10
6.6299
 20
2.1133
 30
0
 70
     0
  0
VERTEX
  8
B1822G_1_2
 10
6.6299
 20
2.1133
 30
0
 70
     0
  0
VERTEX
  8
B1822G_1_2
 10
6.6258
 20
2.0729
 30
0
 70
     0
  0
VERTEX
  8
B1822G_1_2
 10
6.614
 20
2.0351
 30
0
 70
     0
  0
VERTEX
  8
B1822G_1_2
 10
6.5953
 20
2.0008
 30
0
 70
     0
  0
VERTEX
  8
B1822G_1_2
 10
6.5705
 20
1.9709
 30
0
 70
     0
  0
VERTEX
  8
B1822G_1_2
 10
6.5406
 20
1.9462
 30
0
 70
     0
  0
VERTEX
  8
B1822G_1_2
 10
6.5064
 20
1.9275
 30
0
 70
     0
  0
VERTEX
  8
B1822G_1_2
 10
6.4686
 20
1.9157
 30
0
 70
     0
  0
VERTEX
  8
B1822G_1_2
 10
6.4281
 20
1.9115
 30
0
 70
     0
  0
VERTEX
  8
B1822G_1_2
 10
6.4281
 20
1.9115
 30
0
 70
     0
  0
VERTEX
  8
B1822G_1_2
 10
6.3877
 20
1.9157
 30
0
 70
     0
  0
VERTEX
  8
B1822G_1_2
 10
6.3499
 20
1.9275
 30
0
 70
     0
  0
VERTEX
  8
B1822G_1_2
 10
6.3156
 20
1.9462
 30
0
 70
     0
  0
VERTEX
  8
B1822G_1_2
 10
6.2857
 20
1.9709
 30
0
 70
     0
  0
VERTEX
  8
B1822G_1_2
 10
6.261
 20
2.0008
 30
0
 70
     0
  0
VERTEX
  8
B1822G_1_2
 10
6.2423
 20
2.0351
 30
0
 70
     0
  0
VERTEX
  8
B1822G_1_2
 10
6.2305
 20
2.0729
 30
0
 70
     0
  0
VERTEX
  8
B1822G_1_2
 10
6.2263
 20
2.1133
 30
0
 70
     0
  0
SEQEND
  0
POLYLINE
  8
B1822G_1_2
  6
CONTINUOUS
 62
     7
 66
     1
 40
0.0139
 41
0.0139
  0
VERTEX
  8
B1822G_1_2
 10
3.1781
 20
2.1133
 30
0
 70
     0
  0
VERTEX
  8
B1822G_1_2
 10
3.1832
 20
2.1635
 30
0
 70
     0
  0
VERTEX
  8
B1822G_1_2
 10
3.1979
 20
2.2103
 30
0
 70
     0
  0
VERTEX
  8
B1822G_1_2
 10
3.2211
 20
2.2527
 30
0
 70
     0
  0
VERTEX
  8
B1822G_1_2
 10
3.2517
 20
2.2898
 30
0
 70
     0
  0
VERTEX
  8
B1822G_1_2
 10
3.2887
 20
2.3204
 30
0
 70
     0
  0
VERTEX
  8
B1822G_1_2
 10
3.3312
 20
2.3436
 30
0
 70
     0
  0
VERTEX
  8
B1822G_1_2
 10
3.378
 20
2.3582
 30
0
 70
     0
  0
VERTEX
  8
B1822G_1_2
 10
3.4281
 20
2.3633
 30
0
 70
     0
  0
VERTEX
  8
B1822G_1_2
 10
3.4281
 20
2.3633
 30
0
 70
     0
  0
VERTEX
  8
B1822G_1_2
 10
3.4782
 20
2.3582
 30
0
 70
     0
  0
VERTEX
  8
B1822G_1_2
 10
3.525
 20
2.3436
 30
0
 70
     0
  0
VERTEX
  8
B1822G_1_2
 10
3.5675
 20
2.3204
 30
0
 70
     0
  0
VERTEX
  8
B1822G_1_2
 10
3.6045
 20
2.2898
 30
0
 70
     0
  0
VERTEX
  8
B1822G_1_2
 10
3.6352
 20
2.2527
 30
0
 70
     0
  0
VERTEX
  8
B1822G_1_2
 10
3.6583
 20
2.2103
 30
0
 70
     0
  0
VERTEX
  8
B1822G_1_2
 10
3.673
 20
2.1635
 30
0
 70
     0
  0
VERTEX
  8
B1822G_1_2
 10
3.6781
 20
2.1133
 30
0
 70
     0
  0
VERTEX
  8
B1822G_1_2
 10
3.6781
 20
2.1133
 30
0
 70
     0
  0
VERTEX
  8
B1822G_1_2
 10
3.673
 20
2.0632
 30
0
 70
     0
  0
VERTEX
  8
B1822G_1_2
 10
3.6583
 20
2.0164
 30
0
 70
     0
  0
VERTEX
  8
B1822G_1_2
 10
3.6352
 20
1.974
 30
0
 70
     0
  0
VERTEX
  8
B1822G_1_2
 10
3.6045
 20
1.9369
 30
0
 70
     0
  0
VERTEX
  8
B1822G_1_2
 10
3.5675
 20
1.9063
 30
0
 70
     0
  0
VERTEX
  8
B1822G_1_2
 10
3.525
 20
1.8831
 30
0
 70
     0
  0
VERTEX
  8
B1822G_1_2
 10
3.4782
 20
1.8685
 30
0
 70
     0
  0
VERTEX
  8
B1822G_1_2
 10
3.4281
 20
1.8633
 30
0
 70
     0
  0
VERTEX
  8
B1822G_1_2
 10
3.4281
 20
1.8633
 30
0
 70
     0
  0
VERTEX
  8
B1822G_1_2
 10
3.378
 20
1.8685
 30
0
 70
     0
  0
VERTEX
  8
B1822G_1_2
 10
3.3312
 20
1.8831
 30
0
 70
     0
  0
VERTEX
  8
B1822G_1_2
 10
3.2887
 20
1.9063
 30
0
 70
     0
  0
VERTEX
  8
B1822G_1_2
 10
3.2517
 20
1.9369
 30
0
 70
     0
  0
VERTEX
  8
B1822G_1_2
 10
3.2211
 20
1.974
 30
0
 70
     0
  0
VERTEX
  8
B1822G_1_2
 10
3.1979
 20
2.0164
 30
0
 70
     0
  0
VERTEX
  8
B1822G_1_2
 10
3.1832
 20
2.0632
 30
0
 70
     0
  0
VERTEX
  8
B1822G_1_2
 10
3.1781
 20
2.1133
 30
0
 70
     0
  0
SEQEND
  0
POLYLINE
  8
B1822G_1_2
  6
CONTINUOUS
 62
     7
 66
     1
 40
0.0139
 41
0.0139
  0
VERTEX
  8
B1822G_1_2
 10
3.2253
 20
2.1133
 30
0
 70
     0
  0
VERTEX
  8
B1822G_1_2
 10
3.2295
 20
2.154
 30
0
 70
     0
  0
VERTEX
  8
B1822G_1_2
 10
3.2414
 20
2.192
 30
0
 70
     0
  0
VERTEX
  8
B1822G_1_2
 10
3.2602
 20
2.2264
 30
0
 70
     0
  0
VERTEX
  8
B1822G_1_2
 10
3.285
 20
2.2565
 30
0
 70
     0
  0
VERTEX
  8
B1822G_1_2
 10
3.3151
 20
2.2813
 30
0
 70
     0
  0
VERTEX
  8
B1822G_1_2
 10
3.3495
 20
2.3001
 30
0
 70
     0
  0
VERTEX
  8
B1822G_1_2
 10
3.3875
 20
2.312
 30
0
 70
     0
  0
VERTEX
  8
B1822G_1_2
 10
3.4281
 20
2.3161
 30
0
 70
     0
  0
VERTEX
  8
B1822G_1_2
 10
3.4281
 20
2.3161
 30
0
 70
     0
  0
VERTEX
  8
B1822G_1_2
 10
3.4688
 20
2.312
 30
0
 70
     0
  0
VERTEX
  8
B1822G_1_2
 10
3.5067
 20
2.3001
 30
0
 70
     0
  0
VERTEX
  8
B1822G_1_2
 10
3.5412
 20
2.2813
 30
0
 70
     0
  0
VERTEX
  8
B1822G_1_2
 10
3.5712
 20
2.2565
 30
0
 70
     0
  0
VERTEX
  8
B1822G_1_2
 10
3.5961
 20
2.2264
 30
0
 70
     0
  0
VERTEX
  8
B1822G_1_2
 10
3.6149
 20
2.192
 30
0
 70
     0
  0
VERTEX
  8
B1822G_1_2
 10
3.6268
 20
2.154
 30
0
 70
     0
  0
VERTEX
  8
B1822G_1_2
 10
3.6309
 20
2.1133
 30
0
 70
     0
  0
VERTEX
  8
B1822G_1_2
 10
3.6309
 20
2.1133
 30
0
 70
     0
  0
VERTEX
  8
B1822G_1_2
 10
3.6268
 20
2.0727
 30
0
 70
     0
  0
VERTEX
  8
B1822G_1_2
 10
3.6149
 20
2.0347
 30
0
 70
     0
  0
VERTEX
  8
B1822G_1_2
 10
3.5961
 20
2.0003
 30
0
 70
     0
  0
VERTEX
  8
B1822G_1_2
 10
3.5712
 20
1.9702
 30
0
 70
     0
  0
VERTEX
  8
B1822G_1_2
 10
3.5412
 20
1.9454
 30
0
 70
     0
  0
VERTEX
  8
B1822G_1_2
 10
3.5067
 20
1.9266
 30
0
 70
     0
  0
VERTEX
  8
B1822G_1_2
 10
3.4688
 20
1.9147
 30
0
 70
     0
  0
VERTEX
  8
B1822G_1_2
 10
3.4281
 20
1.9105
 30
0
 70
     0
  0
VERTEX
  8
B1822G_1_2
 10
3.4281
 20
1.9105
 30
0
 70
     0
  0
VERTEX
  8
B1822G_1_2
 10
3.3875
 20
1.9147
 30
0
 70
     0
  0
VERTEX
  8
B1822G_1_2
 10
3.3495
 20
1.9266
 30
0
 70
     0
  0
VERTEX
  8
B1822G_1_2
 10
3.3151
 20
1.9454
 30
0
 70
     0
  0
VERTEX
  8
B1822G_1_2
 10
3.285
 20
1.9702
 30
0
 70
     0
  0
VERTEX
  8
B1822G_1_2
 10
3.2602
 20
2.0003
 30
0
 70
     0
  0
VERTEX
  8
B1822G_1_2
 10
3.2414
 20
2.0347
 30
0
 70
     0
  0
VERTEX
  8
B1822G_1_2
 10
3.2295
 20
2.0727
 30
0
 70
     0
  0
VERTEX
  8
B1822G_1_2
 10
3.2253
 20
2.1133
 30
0
 70
     0
  0
SEQEND
  0
POLYLINE
  8
B1822G_1_2
  6
CONTINUOUS
 62
     7
 66
     1
 40
0.0139
 41
0.0139
  0
VERTEX
  8
B1822G_1_2
 10
3.2263
 20
2.1133
 30
0
 70
     0
  0
VERTEX
  8
B1822G_1_2
 10
3.2305
 20
2.1538
 30
0
 70
     0
  0
VERTEX
  8
B1822G_1_2
 10
3.2423
 20
2.1916
 30
0
 70
     0
  0
VERTEX
  8
B1822G_1_2
 10
3.261
 20
2.2258
 30
0
 70
     0
  0
VERTEX
  8
B1822G_1_2
 10
3.2857
 20
2.2558
 30
0
 70
     0
  0
VERTEX
  8
B1822G_1_2
 10
3.3156
 20
2.2805
 30
0
 70
     0
  0
VERTEX
  8
B1822G_1_2
 10
3.3499
 20
2.2992
 30
0
 70
     0
  0
VERTEX
  8
B1822G_1_2
 10
3.3877
 20
2.311
 30
0
 70
     0
  0
VERTEX
  8
B1822G_1_2
 10
3.4281
 20
2.3151
 30
0
 70
     0
  0
VERTEX
  8
B1822G_1_2
 10
3.4281
 20
2.3151
 30
0
 70
     0
  0
VERTEX
  8
B1822G_1_2
 10
3.4686
 20
2.311
 30
0
 70
     0
  0
VERTEX
  8
B1822G_1_2
 10
3.5064
 20
2.2992
 30
0
 70
     0
  0
VERTEX
  8
B1822G_1_2
 10
3.5406
 20
2.2805
 30
0
 70
     0
  0
VERTEX
  8
B1822G_1_2
 10
3.5705
 20
2.2558
 30
0
 70
     0
  0
VERTEX
  8
B1822G_1_2
 10
3.5953
 20
2.2258
 30
0
 70
     0
  0
VERTEX
  8
B1822G_1_2
 10
3.614
 20
2.1916
 30
0
 70
     0
  0
VERTEX
  8
B1822G_1_2
 10
3.6258
 20
2.1538
 30
0
 70
     0
  0
VERTEX
  8
B1822G_1_2
 10
3.6299
 20
2.1133
 30
0
 70
     0
  0
VERTEX
  8
B1822G_1_2
 10
3.6299
 20
2.1133
 30
0
 70
     0
  0
VERTEX
  8
B1822G_1_2
 10
3.6258
 20
2.0729
 30
0
 70
     0
  0
VERTEX
  8
B1822G_1_2
 10
3.614
 20
2.0351
 30
0
 70
     0
  0
VERTEX
  8
B1822G_1_2
 10
3.5953
 20
2.0008
 30
0
 70
     0
  0
VERTEX
  8
B1822G_1_2
 10
3.5705
 20
1.9709
 30
0
 70
     0
  0
VERTEX
  8
B1822G_1_2
 10
3.5406
 20
1.9462
 30
0
 70
     0
  0
VERTEX
  8
B1822G_1_2
 10
3.5064
 20
1.9275
 30
0
 70
     0
  0
VERTEX
  8
B1822G_1_2
 10
3.4686
 20
1.9157
 30
0
 70
     0
  0
VERTEX
  8
B1822G_1_2
 10
3.4281
 20
1.9115
 30
0
 70
     0
  0
VERTEX
  8
B1822G_1_2
 10
3.4281
 20
1.9115
 30
0
 70
     0
  0
VERTEX
  8
B1822G_1_2
 10
3.3877
 20
1.9157
 30
0
 70
     0
  0
VERTEX
  8
B1822G_1_2
 10
3.3499
 20
1.9275
 30
0
 70
     0
  0
VERTEX
  8
B1822G_1_2
 10
3.3156
 20
1.9462
 30
0
 70
     0
  0
VERTEX
  8
B1822G_1_2
 10
3.2857
 20
1.9709
 30
0
 70
     0
  0
VERTEX
  8
B1822G_1_2
 10
3.261
 20
2.0008
 30
0
 70
     0
  0
VERTEX
  8
B1822G_1_2
 10
3.2423
 20
2.0351
 30
0
 70
     0
  0
VERTEX
  8
B1822G_1_2
 10
3.2305
 20
2.0729
 30
0
 70
     0
  0
VERTEX
  8
B1822G_1_2
 10
3.2263
 20
2.1133
 30
0
 70
     0
  0
SEQEND
  0
ENDBLK
  8
B1822G_1_2
  0
BLOCK
  8
B1822G_1_2
  2
Group7
 70
     0
 10
0
 20
0
 30
0
  0
POLYLINE
  8
B1822G_1_2
  6
CONTINUOUS
 62
     7
 66
     1
 40
0.0139
 41
0.0139
  0
VERTEX
  8
B1822G_1_2
 10
9.3031
 20
9.6984
 30
0
 70
     0
  0
VERTEX
  8
B1822G_1_2
 10
11.5843
 20
9.6984
 30
0
 70
     0
  0
SEQEND
  0
POLYLINE
  8
B1822G_1_2
  6
CONTINUOUS
 62
     7
 66
     1
 40
0.0139
 41
0.0139
  0
VERTEX
  8
B1822G_1_2
 10
12.0193
 20
9.2632
 30
0
 70
     0
  0
VERTEX
  8
B1822G_1_2
 10
12.0106
 20
9.3509
 30
0
 70
     0
  0
VERTEX
  8
B1822G_1_2
 10
11.9853
 20
9.4326
 30
0
 70
     0
  0
VERTEX
  8
B1822G_1_2
 10
11.9452
 20
9.5066
 30
0
 70
     0
  0
VERTEX
  8
B1822G_1_2
 10
11.8921
 20
9.571
 30
0
 70
     0
  0
VERTEX
  8
B1822G_1_2
 10
11.8277
 20
9.6241
 30
0
 70
     0
  0
VERTEX
  8
B1822G_1_2
 10
11.7538
 20
9.6643
 30
0
 70
     0
  0
VERTEX
  8
B1822G_1_2
 10
11.6721
 20
9.6896
 30
0
 70
     0
  0
VERTEX
  8
B1822G_1_2
 10
11.5844
 20
9.6984
 30
0
 70
     0
  0
SEQEND
  0
POLYLINE
  8
B1822G_1_2
  6
CONTINUOUS
 62
     7
 66
     1
 40
0.0139
 41
0.0139
  0
VERTEX
  8
B1822G_1_2
 10
12.0193
 20
9.2634
 30
0
 70
     0
  0
VERTEX
  8
B1822G_1_2
 10
12.0193
 20
9.2134
 30
0
 70
     0
  0
SEQEND
  0
POLYLINE
  8
B1822G_1_2
  6
CONTINUOUS
 62
     7
 66
     1
 40
0.0139
 41
0.0139
  0
VERTEX
  8
B1822G_1_2
 10
11.5843
 20
8.7784
 30
0
 70
     0
  0
VERTEX
  8
B1822G_1_2
 10
9.3031
 20
8.7784
 30
0
 70
     0
  0
SEQEND
  0
POLYLINE
  8
B1822G_1_2
  6
CONTINUOUS
 62
     7
 66
     1
 40
0.0139
 41
0.0139
  0
VERTEX
  8
B1822G_1_2
 10
11.5842
 20
8.7784
 30
0
 70
     0
  0
VERTEX
  8
B1822G_1_2
 10
11.6718
 20
8.7871
 30
0
 70
     0
  0
VERTEX
  8
B1822G_1_2
 10
11.7535
 20
8.8124
 30
0
 70
     0
  0
VERTEX
  8
B1822G_1_2
 10
11.8275
 20
8.8525
 30
0
 70
     0
  0
VERTEX
  8
B1822G_1_2
 10
11.8919
 20
8.9056
 30
0
 70
     0
  0
VERTEX
  8
B1822G_1_2
 10
11.945
 20
8.97
 30
0
 70
     0
  0
VERTEX
  8
B1822G_1_2
 10
11.9852
 20
9.0439
 30
0
 70
     0
  0
VERTEX
  8
B1822G_1_2
 10
12.0105
 20
9.1256
 30
0
 70
     0
  0
VERTEX
  8
B1822G_1_2
 10
12.0193
 20
9.2132
 30
0
 70
     0
  0
SEQEND
  0
ENDBLK
  8
B1822G_1_2
  0
BLOCK
  8
B1822G_1_2
  2
Group8
 70
     0
 10
0
 20
0
 30
0
  0
POLYLINE
  8
B1822G_1_2
  6
CONTINUOUS
 62
     7
 66
     1
 40
0.0139
 41
0.0139
  0
VERTEX
  8
B1822G_1_2
 10
3.6563
 20
61.9343
 30
0
 70
     0
  0
VERTEX
  8
B1822G_1_2
 10
3.4373
 20
61.9343
 30
0
 70
     0
  0
SEQEND
  0
POLYLINE
  8
B1822G_1_2
  6
CONTINUOUS
 62
     7
 66
     1
 40
0.0139
 41
0.0139
  0
VERTEX
  8
B1822G_1_2
 10
3.2603
 20
61.2628
 30
0
 70
     0
  0
VERTEX
  8
B1822G_1_2
 10
3.1904
 20
61.258
 30
0
 70
     0
  0
VERTEX
  8
B1822G_1_2
 10
3.1229
 20
61.2437
 30
0
 70
     0
  0
VERTEX
  8
B1822G_1_2
 10
3.0586
 20
61.2205
 30
0
 70
     0
  0
VERTEX
  8
B1822G_1_2
 10
2.9983
 20
61.1888
 30
0
 70
     0
  0
VERTEX
  8
B1822G_1_2
 10
2.9428
 20
61.1492
 30
0
 70
     0
  0
VERTEX
  8
B1822G_1_2
 10
2.8931
 20
61.1023
 30
0
 70
     0
  0
VERTEX
  8
B1822G_1_2
 10
2.8498
 20
61.0485
 30
0
 70
     0
  0
VERTEX
  8
B1822G_1_2
 10
2.814
 20
60.9883
 30
0
 70
     0
  0
SEQEND
  0
POLYLINE
  8
B1822G_1_2
  6
CONTINUOUS
 62
     7
 66
     1
 40
0.0139
 41
0.0139
  0
VERTEX
  8
B1822G_1_2
 10
3.2603
 20
61.8508
 30
0
 70
     0
  0
VERTEX
  8
B1822G_1_2
 10
3.1648
 20
61.8467
 30
0
 70
     0
  0
VERTEX
  8
B1822G_1_2
 10
3.0713
 20
61.8345
 30
0
 70
     0
  0
VERTEX
  8
B1822G_1_2
 10
2.9803
 20
61.8145
 30
0
 70
     0
  0
VERTEX
  8
B1822G_1_2
 10
2.8921
 20
61.787
 30
0
 70
     0
  0
VERTEX
  8
B1822G_1_2
 10
2.807
 20
61.7523
 30
0
 70
     0
  0
VERTEX
  8
B1822G_1_2
 10
2.7256
 20
61.7107
 30
0
 70
     0
  0
VERTEX
  8
B1822G_1_2
 10
2.6482
 20
61.6626
 30
0
 70
     0
  0
VERTEX
  8
B1822G_1_2
 10
2.5752
 20
61.6083
 30
0
 70
     0
  0
VERTEX
  8
B1822G_1_2
 10
2.5069
 20
61.5481
 30
0
 70
     0
  0
VERTEX
  8
B1822G_1_2
 10
2.4438
 20
61.4824
 30
0
 70
     0
  0
VERTEX
  8
B1822G_1_2
 10
2.3863
 20
61.4113
 30
0
 70
     0
  0
VERTEX
  8
B1822G_1_2
 10
2.3347
 20
61.3353
 30
0
 70
     0
  0
VERTEX
  8
B1822G_1_2
 10
2.2895
 20
61.2547
 30
0
 70
     0
  0
VERTEX
  8
B1822G_1_2
 10
2.251
 20
61.1698
 30
0
 70
     0
  0
VERTEX
  8
B1822G_1_2
 10
2.2197
 20
61.0809
 30
0
 70
     0
  0
VERTEX
  8
B1822G_1_2
 10
2.1959
 20
60.9883
 30
0
 70
     0
  0
SEQEND
  0
POLYLINE
  8
B1822G_1_2
  6
CONTINUOUS
 62
     7
 66
     1
 40
0.0139
 41
0.0139
  0
VERTEX
  8
B1822G_1_2
 10
3.2603
 20
62.0534
 30
0
 70
     0
  0
VERTEX
  8
B1822G_1_2
 10
3.4373
 20
62.0534
 30
0
 70
     0
  0
SEQEND
  0
POLYLINE
  8
B1822G_1_2
  6
CONTINUOUS
 62
     7
 66
     1
 40
0.0139
 41
0.0139
  0
VERTEX
  8
B1822G_1_2
 10
3.2603
 20
61.8051
 30
0
 70
     0
  0
VERTEX
  8
B1822G_1_2
 10
3.4373
 20
61.8051
 30
0
 70
     0
  0
SEQEND
  0
POLYLINE
  8
B1822G_1_2
  6
CONTINUOUS
 62
     7
 66
     1
 40
0.0139
 41
0.0139
  0
VERTEX
  8
B1822G_1_2
 10
3.4373
 20
61.1793
 30
0
 70
     0
  0
VERTEX
  8
B1822G_1_2
 10
3.6563
 20
61.1793
 30
0
 70
     0
  0
SEQEND
  0
POLYLINE
  8
B1822G_1_2
  6
CONTINUOUS
 62
     7
 66
     1
 40
0.0139
 41
0.0139
  0
VERTEX
  8
B1822G_1_2
 10
3.4373
 20
61.8051
 30
0
 70
     0
  0
VERTEX
  8
B1822G_1_2
 10
3.4373
 20
61.3086
 30
0
 70
     0
  0
SEQEND
  0
POLYLINE
  8
B1822G_1_2
  6
CONTINUOUS
 62
     7
 66
     1
 40
0.0139
 41
0.0139
  0
VERTEX
  8
B1822G_1_2
 10
3.2603
 20
61.3086
 30
0
 70
     0
  0
VERTEX
  8
B1822G_1_2
 10
3.4373
 20
61.3086
 30
0
 70
     0
  0
SEQEND
  0
POLYLINE
  8
B1822G_1_2
  6
CONTINUOUS
 62
     7
 66
     1
 40
0.0139
 41
0.0139
  0
VERTEX
  8
B1822G_1_2
 10
3.2603
 20
62.0534
 30
0
 70
     0
  0
VERTEX
  8
B1822G_1_2
 10
3.2603
 20
61.8051
 30
0
 70
     0
  0
SEQEND
  0
POLYLINE
  8
B1822G_1_2
  6
CONTINUOUS
 62
     7
 66
     1
 40
0.0139
 41
0.0139
  0
VERTEX
  8
B1822G_1_2
 10
3.4373
 20
62.0534
 30
0
 70
     0
  0
VERTEX
  8
B1822G_1_2
 10
3.4373
 20
61.8051
 30
0
 70
     0
  0
SEQEND
  0
POLYLINE
  8
B1822G_1_2
  6
CONTINUOUS
 62
     7
 66
     1
 40
0.0139
 41
0.0139
  0
VERTEX
  8
B1822G_1_2
 10
3.4373
 20
61.3086
 30
0
 70
     0
  0
VERTEX
  8
B1822G_1_2
 10
3.4373
 20
61.0603
 30
0
 70
     0
  0
SEQEND
  0
POLYLINE
  8
B1822G_1_2
  6
CONTINUOUS
 62
     7
 66
     1
 40
0.0139
 41
0.0139
  0
VERTEX
  8
B1822G_1_2
 10
3.2603
 20
61.8051
 30
0
 70
     0
  0
VERTEX
  8
B1822G_1_2
 10
3.2603
 20
61.3086
 30
0
 70
     0
  0
SEQEND
  0
POLYLINE
  8
B1822G_1_2
  6
CONTINUOUS
 62
     7
 66
     1
 40
0.0139
 41
0.0139
  0
VERTEX
  8
B1822G_1_2
 10
3.2603
 20
61.3086
 30
0
 70
     0
  0
VERTEX
  8
B1822G_1_2
 10
3.2603
 20
61.0603
 30
0
 70
     0
  0
SEQEND
  0
POLYLINE
  8
B1822G_1_2
  6
CONTINUOUS
 62
     7
 66
     1
 40
0.0139
 41
0.0139
  0
VERTEX
  8
B1822G_1_2
 10
3.2603
 20
61.0603
 30
0
 70
     0
  0
VERTEX
  8
B1822G_1_2
 10
3.4373
 20
61.0603
 30
0
 70
     0
  0
SEQEND
  0
ENDBLK
  8
B1822G_1_2
  0
BLOCK
  8
B1822G_1_2
  2
Group9
 70
     0
 10
0
 20
0
 30
0
  0
POLYLINE
  8
B1822G_1_2
  6
CONTINUOUS
 62
     7
 66
     1
 40
0.0139
 41
0.0139
  0
VERTEX
  8
B1822G_1_2
 10
3.6563
 20
61.1168
 30
0
 70
     0
  0
VERTEX
  8
B1822G_1_2
 10
3.6563
 20
61.9968
 30
0
 70
     0
  0
SEQEND
  0
POLYLINE
  8
B1822G_1_2
  6
CONTINUOUS
 62
     7
 66
     1
 40
0.0139
 41
0.0139
  0
VERTEX
  8
B1822G_1_2
 10
4.3463
 20
61.8768
 30
0
 70
     0
  0
VERTEX
  8
B1822G_1_2
 10
4.2263
 20
61.9968
 30
0
 70
     0
  0
SEQEND
  0
POLYLINE
  8
B1822G_1_2
  6
CONTINUOUS
 62
     7
 66
     1
 40
0.0139
 41
0.0139
  0
VERTEX
  8
B1822G_1_2
 10
4.2263
 20
61.1168
 30
0
 70
     0
  0
VERTEX
  8
B1822G_1_2
 10
4.3463
 20
61.2368
 30
0
 70
     0
  0
SEQEND
  0
POLYLINE
  8
B1822G_1_2
  6
CONTINUOUS
 62
     7
 66
     1
 40
0.0139
 41
0.0139
  0
VERTEX
  8
B1822G_1_2
 10
4.3463
 20
61.8768
 30
0
 70
     0
  0
VERTEX
  8
B1822G_1_2
 10
4.3463
 20
61.2368
 30
0
 70
     0
  0
SEQEND
  0
POLYLINE
  8
B1822G_1_2
  6
CONTINUOUS
 62
     7
 66
     1
 40
0.0139
 41
0.0139
  0
VERTEX
  8
B1822G_1_2
 10
4.2263
 20
61.1168
 30
0
 70
     0
  0
VERTEX
  8
B1822G_1_2
 10
4.2263
 20
61.9968
 30
0
 70
     0
  0
SEQEND
  0
POLYLINE
  8
B1822G_1_2
  6
CONTINUOUS
 62
     7
 66
     1
 40
0.0139
 41
0.0139
  0
VERTEX
  8
B1822G_1_2
 10
4.2263
 20
61.9968
 30
0
 70
     0
  0
VERTEX
  8
B1822G_1_2
 10
3.6563
 20
61.9968
 30
0
 70
     0
  0
SEQEND
  0
POLYLINE
  8
B1822G_1_2
  6
CONTINUOUS
 62
     7
 66
     1
 40
0.0139
 41
0.0139
  0
VERTEX
  8
B1822G_1_2
 10
3.6563
 20
61.1168
 30
0
 70
     0
  0
VERTEX
  8
B1822G_1_2
 10
4.2263
 20
61.1168
 30
0
 70
     0
  0
SEQEND
  0
ENDBLK
  8
B1822G_1_2
  0
BLOCK
  8
B1822G_1_2
  2
Group10
 70
     0
 10
0
 20
0
 30
0
  0
POLYLINE
  8
B1822G_1_2
  6
CONTINUOUS
 62
     7
 66
     1
 40
0.0139
 41
0.0139
  0
VERTEX
  8
B1822G_1_2
 10
10.1781
 20
12.1724
 30
0
 70
     0
  0
VERTEX
  8
B1822G_1_2
 10
10.2781
 20
12.1724
 30
0
 70
     0
  0
SEQEND
  0
POLYLINE
  8
B1822G_1_2
  6
CONTINUOUS
 62
     7
 66
     1
 40
0.0139
 41
0.0139
  0
VERTEX
  8
B1822G_1_2
 10
10.2781
 20
12.9074
 30
0
 70
     0
  0
VERTEX
  8
B1822G_1_2
 10
10.2781
 20
12.5324
 30
0
 70
     0
  0
SEQEND
  0
POLYLINE
  8
B1822G_1_2
  6
CONTINUOUS
 62
     7
 66
     1
 40
0.0139
 41
0.0139
  0
VERTEX
  8
B1822G_1_2
 10
10.2781
 20
12.5324
 30
0
 70
     0
  0
VERTEX
  8
B1822G_1_2
 10
10.2781
 20
12.1574
 30
0
 70
     0
  0
SEQEND
  0
POLYLINE
  8
B1822G_1_2
  6
CONTINUOUS
 62
     7
 66
     1
 40
0.0139
 41
0.0139
  0
VERTEX
  8
B1822G_1_2
 10
10.6281
 20
12.2199
 30
0
 70
     0
  0
VERTEX
  8
B1822G_1_2
 10
10.6281
 20
12.8449
 30
0
 70
     0
  0
SEQEND
  0
POLYLINE
  8
B1822G_1_2
  6
CONTINUOUS
 62
     7
 66
     1
 40
0.0139
 41
0.0139
  0
VERTEX
  8
B1822G_1_2
 10
10.4781
 20
12.9074
 30
0
 70
     0
  0
VERTEX
  8
B1822G_1_2
 10
10.4781
 20
12.5324
 30
0
 70
     0
  0
SEQEND
  0
POLYLINE
  8
B1822G_1_2
  6
CONTINUOUS
 62
     7
 66
     1
 40
0.0139
 41
0.0139
  0
VERTEX
  8
B1822G_1_2
 10
10.4781
 20
12.9074
 30
0
 70
     0
  0
VERTEX
  8
B1822G_1_2
 10
10.2781
 20
12.9074
 30
0
 70
     0
  0
SEQEND
  0
POLYLINE
  8
B1822G_1_2
  6
CONTINUOUS
 62
     7
 66
     1
 40
0.0139
 41
0.0139
  0
VERTEX
  8
B1822G_1_2
 10
10.4781
 20
12.5324
 30
0
 70
     0
  0
VERTEX
  8
B1822G_1_2
 10
10.2781
 20
12.5324
 30
0
 70
     0
  0
SEQEND
  0
POLYLINE
  8
B1822G_1_2
  6
CONTINUOUS
 62
     7
 66
     1
 40
0.0139
 41
0.0139
  0
VERTEX
  8
B1822G_1_2
 10
10.4781
 20
12.5324
 30
0
 70
     0
  0
VERTEX
  8
B1822G_1_2
 10
10.4781
 20
12.1574
 30
0
 70
     0
  0
SEQEND
  0
POLYLINE
  8
B1822G_1_2
  6
CONTINUOUS
 62
     7
 66
     1
 40
0.0139
 41
0.0139
  0
VERTEX
  8
B1822G_1_2
 10
10.4781
 20
12.1574
 30
0
 70
     0
  0
VERTEX
  8
B1822G_1_2
 10
10.2781
 20
12.1574
 30
0
 70
     0
  0
SEQEND
  0
POLYLINE
  8
B1822G_1_2
  6
CONTINUOUS
 62
     7
 66
     1
 40
0.0139
 41
0.0139
  0
VERTEX
  8
B1822G_1_2
 10
9.4381
 20
12.6415
 30
0
 70
     0
  0
VERTEX
  8
B1822G_1_2
 10
9.4381
 20
12.9024
 30
0
 70
     0
  0
SEQEND
  0
POLYLINE
  8
B1822G_1_2
  6
CONTINUOUS
 62
     7
 66
     1
 40
0.0139
 41
0.0139
  0
VERTEX
  8
B1822G_1_2
 10
9.4381
 20
12.1624
 30
0
 70
     0
  0
VERTEX
  8
B1822G_1_2
 10
9.4381
 20
12.4233
 30
0
 70
     0
  0
SEQEND
  0
POLYLINE
  8
B1822G_1_2
  6
CONTINUOUS
 62
     7
 66
     1
 40
0.0139
 41
0.0139
  0
VERTEX
  8
B1822G_1_2
 10
10.4781
 20
12.2199
 30
0
 70
     0
  0
VERTEX
  8
B1822G_1_2
 10
10.6281
 20
12.2199
 30
0
 70
     0
  0
SEQEND
  0
POLYLINE
  8
B1822G_1_2
  6
CONTINUOUS
 62
     7
 66
     1
 40
0.0139
 41
0.0139
  0
VERTEX
  8
B1822G_1_2
 10
10.1781
 20
12.1624
 30
0
 70
     0
  0
VERTEX
  8
B1822G_1_2
 10
10.1781
 20
12.9024
 30
0
 70
     0
  0
SEQEND
  0
POLYLINE
  8
B1822G_1_2
  6
CONTINUOUS
 62
     7
 66
     1
 40
0.0139
 41
0.0139
  0
VERTEX
  8
B1822G_1_2
 10
10.1781
 20
12.1624
 30
0
 70
     0
  0
VERTEX
  8
B1822G_1_2
 10
9.4381
 20
12.1624
 30
0
 70
     0
  0
SEQEND
  0
POLYLINE
  8
B1822G_1_2
  6
CONTINUOUS
 62
     7
 66
     1
 40
0.0139
 41
0.0139
  0
VERTEX
  8
B1822G_1_2
 10
10.1781
 20
12.9024
 30
0
 70
     0
  0
VERTEX
  8
B1822G_1_2
 10
9.4381
 20
12.9024
 30
0
 70
     0
  0
SEQEND
  0
POLYLINE
  8
B1822G_1_2
  6
CONTINUOUS
 62
     7
 66
     1
 40
0.0139
 41
0.0139
  0
VERTEX
  8
B1822G_1_2
 10
10.6281
 20
12.3974
 30
0
 70
     0
  0
VERTEX
  8
B1822G_1_2
 10
11.1281
 20
12.3974
 30
0
 70
     0
  0
SEQEND
  0
POLYLINE
  8
B1822G_1_2
  6
CONTINUOUS
 62
     7
 66
     1
 40
0.0139
 41
0.0139
  0
VERTEX
  8
B1822G_1_2
 10
9.4381
 20
12.1624
 30
0
 70
     0
  0
VERTEX
  8
B1822G_1_2
 10
9.4381
 20
12.1574
 30
0
 70
     0
  0
SEQEND
  0
POLYLINE
  8
B1822G_1_2
  6
CONTINUOUS
 62
     7
 66
     1
 40
0.0139
 41
0.0139
  0
VERTEX
  8
B1822G_1_2
 10
9.4381
 20
12.5324
 30
0
 70
     0
  0
VERTEX
  8
B1822G_1_2
 10
9.4381
 20
12.4233
 30
0
 70
     0
  0
SEQEND
  0
POLYLINE
  8
B1822G_1_2
  6
CONTINUOUS
 62
     7
 66
     1
 40
0.0139
 41
0.0139
  0
VERTEX
  8
B1822G_1_2
 10
9.4381
 20
12.5324
 30
0
 70
     0
  0
VERTEX
  8
B1822G_1_2
 10
9.1156
 20
12.5324
 30
0
 70
     0
  0
SEQEND
  0
POLYLINE
  8
B1822G_1_2
  6
CONTINUOUS
 62
     7
 66
     1
 40
0.0139
 41
0.0139
  0
VERTEX
  8
B1822G_1_2
 10
9.4381
 20
12.9074
 30
0
 70
     0
  0
VERTEX
  8
B1822G_1_2
 10
9.4381
 20
12.9024
 30
0
 70
     0
  0
SEQEND
  0
POLYLINE
  8
B1822G_1_2
  6
CONTINUOUS
 62
     7
 66
     1
 40
0.0139
 41
0.0139
  0
VERTEX
  8
B1822G_1_2
 10
9.4381
 20
12.9074
 30
0
 70
     0
  0
VERTEX
  8
B1822G_1_2
 10
9.1156
 20
12.9074
 30
0
 70
     0
  0
SEQEND
  0
POLYLINE
  8
B1822G_1_2
  6
CONTINUOUS
 62
     7
 66
     1
 40
0.0139
 41
0.0139
  0
VERTEX
  8
B1822G_1_2
 10
9.4381
 20
12.1574
 30
0
 70
     0
  0
VERTEX
  8
B1822G_1_2
 10
9.1156
 20
12.1574
 30
0
 70
     0
  0
SEQEND
  0
POLYLINE
  8
B1822G_1_2
  6
CONTINUOUS
 62
     7
 66
     1
 40
0.0139
 41
0.0139
  0
VERTEX
  8
B1822G_1_2
 10
11.1281
 20
12.3974
 30
0
 70
     0
  0
VERTEX
  8
B1822G_1_2
 10
11.1281
 20
12.6674
 30
0
 70
     0
  0
SEQEND
  0
POLYLINE
  8
B1822G_1_2
  6
CONTINUOUS
 62
     7
 66
     1
 40
0.0139
 41
0.0139
  0
VERTEX
  8
B1822G_1_2
 10
10.2781
 20
12.8924
 30
0
 70
     0
  0
VERTEX
  8
B1822G_1_2
 10
10.1781
 20
12.8924
 30
0
 70
     0
  0
SEQEND
  0
POLYLINE
  8
B1822G_1_2
  6
CONTINUOUS
 62
     7
 66
     1
 40
0.0139
 41
0.0139
  0
VERTEX
  8
B1822G_1_2
 10
10.6281
 20
12.8449
 30
0
 70
     0
  0
VERTEX
  8
B1822G_1_2
 10
10.4781
 20
12.8449
 30
0
 70
     0
  0
SEQEND
  0
POLYLINE
  8
B1822G_1_2
  6
CONTINUOUS
 62
     7
 66
     1
 40
0.0139
 41
0.0139
  0
VERTEX
  8
B1822G_1_2
 10
11.1281
 20
12.6674
 30
0
 70
     0
  0
VERTEX
  8
B1822G_1_2
 10
10.6281
 20
12.6674
 30
0
 70
     0
  0
SEQEND
  0
POLYLINE
  8
B1822G_1_2
  6
CONTINUOUS
 62
     7
 66
     1
 40
0.0139
 41
0.0139
  0
VERTEX
  8
B1822G_1_2
 10
9.4381
 20
12.6415
 30
0
 70
     0
  0
VERTEX
  8
B1822G_1_2
 10
9.4381
 20
12.5324
 30
0
 70
     0
  0
SEQEND
  0
ENDBLK
  8
B1822G_1_2
  0
BLOCK
  8
B1822G_1_2
  2
Group11
 70
     0
 10
0
 20
0
 30
0
  0
POLYLINE
  8
B1822G_1_2
  6
CONTINUOUS
 62
     7
 66
     1
 40
0.0139
 41
0.0139
  0
VERTEX
  8
B1822G_1_2
 10
9.8181
 20
57.6724
 30
0
 70
     0
  0
VERTEX
  8
B1822G_1_2
 10
9.9181
 20
57.6724
 30
0
 70
     0
  0
SEQEND
  0
POLYLINE
  8
B1822G_1_2
  6
CONTINUOUS
 62
     7
 66
     1
 40
0.0139
 41
0.0139
  0
VERTEX
  8
B1822G_1_2
 10
9.8181
 20
57.6624
 30
0
 70
     0
  0
VERTEX
  8
B1822G_1_2
 10
9.1156
 20
57.6624
 30
0
 70
     0
  0
SEQEND
  0
POLYLINE
  8
B1822G_1_2
  6
CONTINUOUS
 62
     7
 66
     1
 40
0.0139
 41
0.0139
  0
VERTEX
  8
B1822G_1_2
 10
9.9181
 20
58.4654
 30
0
 70
     0
  0
VERTEX
  8
B1822G_1_2
 10
9.9181
 20
58.2489
 30
0
 70
     0
  0
SEQEND
  0
POLYLINE
  8
B1822G_1_2
  6
CONTINUOUS
 62
     7
 66
     1
 40
0.0139
 41
0.0139
  0
VERTEX
  8
B1822G_1_2
 10
10.1181
 20
58.4654
 30
0
 70
     0
  0
VERTEX
  8
B1822G_1_2
 10
9.9181
 20
58.4654
 30
0
 70
     0
  0
SEQEND
  0
POLYLINE
  8
B1822G_1_2
  6
CONTINUOUS
 62
     7
 66
     1
 40
0.0139
 41
0.0139
  0
VERTEX
  8
B1822G_1_2
 10
10.1181
 20
58.2489
 30
0
 70
     0
  0
VERTEX
  8
B1822G_1_2
 10
10.1181
 20
57.8159
 30
0
 70
     0
  0
SEQEND
  0
POLYLINE
  8
B1822G_1_2
  6
CONTINUOUS
 62
     7
 66
     1
 40
0.0139
 41
0.0139
  0
VERTEX
  8
B1822G_1_2
 10
10.1181
 20
57.8159
 30
0
 70
     0
  0
VERTEX
  8
B1822G_1_2
 10
10.1181
 20
57.5994
 30
0
 70
     0
  0
SEQEND
  0
POLYLINE
  8
B1822G_1_2
  6
CONTINUOUS
 62
     7
 66
     1
 40
0.0139
 41
0.0139
  0
VERTEX
  8
B1822G_1_2
 10
10.1181
 20
58.4654
 30
0
 70
     0
  0
VERTEX
  8
B1822G_1_2
 10
10.1181
 20
58.2489
 30
0
 70
     0
  0
SEQEND
  0
POLYLINE
  8
B1822G_1_2
  6
CONTINUOUS
 62
     7
 66
     1
 40
0.0139
 41
0.0139
  0
VERTEX
  8
B1822G_1_2
 10
10.1181
 20
57.5994
 30
0
 70
     0
  0
VERTEX
  8
B1822G_1_2
 10
9.9181
 20
57.5994
 30
0
 70
     0
  0
SEQEND
  0
POLYLINE
  8
B1822G_1_2
  6
CONTINUOUS
 62
     7
 66
     1
 40
0.0139
 41
0.0139
  0
VERTEX
  8
B1822G_1_2
 10
10.1181
 20
57.8159
 30
0
 70
     0
  0
VERTEX
  8
B1822G_1_2
 10
9.9181
 20
57.8159
 30
0
 70
     0
  0
SEQEND
  0
POLYLINE
  8
B1822G_1_2
  6
CONTINUOUS
 62
     7
 66
     1
 40
0.0139
 41
0.0139
  0
VERTEX
  8
B1822G_1_2
 10
10.1181
 20
58.2489
 30
0
 70
     0
  0
VERTEX
  8
B1822G_1_2
 10
9.9181
 20
58.2489
 30
0
 70
     0
  0
SEQEND
  0
POLYLINE
  8
B1822G_1_2
  6
CONTINUOUS
 62
     7
 66
     1
 40
0.0139
 41
0.0139
  0
VERTEX
  8
B1822G_1_2
 10
9.8181
 20
57.6624
 30
0
 70
     0
  0
VERTEX
  8
B1822G_1_2
 10
9.8181
 20
58.4024
 30
0
 70
     0
  0
SEQEND
  0
POLYLINE
  8
B1822G_1_2
  6
CONTINUOUS
 62
     7
 66
     1
 40
0.0139
 41
0.0139
  0
VERTEX
  8
B1822G_1_2
 10
9.8181
 20
58.4024
 30
0
 70
     0
  0
VERTEX
  8
B1822G_1_2
 10
9.1156
 20
58.4024
 30
0
 70
     0
  0
SEQEND
  0
POLYLINE
  8
B1822G_1_2
  6
CONTINUOUS
 62
     7
 66
     1
 40
0.0139
 41
0.0139
  0
VERTEX
  8
B1822G_1_2
 10
9.9181
 20
58.2489
 30
0
 70
     0
  0
VERTEX
  8
B1822G_1_2
 10
9.9181
 20
57.8159
 30
0
 70
     0
  0
SEQEND
  0
POLYLINE
  8
B1822G_1_2
  6
CONTINUOUS
 62
     7
 66
     1
 40
0.0139
 41
0.0139
  0
VERTEX
  8
B1822G_1_2
 10
9.9181
 20
57.8159
 30
0
 70
     0
  0
VERTEX
  8
B1822G_1_2
 10
9.9181
 20
57.5994
 30
0
 70
     0
  0
SEQEND
  0
POLYLINE
  8
B1822G_1_2
  6
CONTINUOUS
 62
     7
 66
     1
 40
0.0139
 41
0.0139
  0
VERTEX
  8
B1822G_1_2
 10
9.9181
 20
58.3924
 30
0
 70
     0
  0
VERTEX
  8
B1822G_1_2
 10
9.8181
 20
58.3924
 30
0
 70
     0
  0
SEQEND
  0
ENDBLK
  8
B1822G_1_2
  0
BLOCK
  8
B1822G_1_2
  2
Group12
 70
     0
 10
0
 20
0
 30
0
  0
POLYLINE
  8
B1822G_1_2
  6
CONTINUOUS
 62
     7
 66
     1
 40
0.0139
 41
0.0139
  0
VERTEX
  8
B1822G_1_2
 10
10.1581
 20
13.2024
 30
0
 70
     0
  0
VERTEX
  8
B1822G_1_2
 10
10.0803
 20
13.2024
 30
0
 70
     0
  0
SEQEND
  0
POLYLINE
  8
B1822G_1_2
  6
CONTINUOUS
 62
     7
 66
     1
 40
0.0139
 41
0.0139
  0
VERTEX
  8
B1822G_1_2
 10
9.5359
 20
13.2024
 30
0
 70
     0
  0
VERTEX
  8
B1822G_1_2
 10
9.4581
 20
13.2024
 30
0
 70
     0
  0
SEQEND
  0
POLYLINE
  8
B1822G_1_2
  6
CONTINUOUS
 62
     7
 66
     1
 40
0.0139
 41
0.0139
  0
VERTEX
  8
B1822G_1_2
 10
9.4581
 20
13.2024
 30
0
 70
     0
  0
VERTEX
  8
B1822G_1_2
 10
9.4581
 20
12.9024
 30
0
 70
     0
  0
SEQEND
  0
POLYLINE
  8
B1822G_1_2
  6
CONTINUOUS
 62
     7
 66
     1
 40
0.0139
 41
0.0139
  0
VERTEX
  8
B1822G_1_2
 10
10.0803
 20
13.2024
 30
0
 70
     0
  0
VERTEX
  8
B1822G_1_2
 10
9.5359
 20
13.2024
 30
0
 70
     0
  0
SEQEND
  0
POLYLINE
  8
B1822G_1_2
  6
CONTINUOUS
 62
     7
 66
     1
 40
0.0139
 41
0.0139
  0
VERTEX
  8
B1822G_1_2
 10
10.1581
 20
13.2024
 30
0
 70
     0
  0
VERTEX
  8
B1822G_1_2
 10
10.1581
 20
12.9024
 30
0
 70
     0
  0
SEQEND
  0
POLYLINE
  8
B1822G_1_2
  6
CONTINUOUS
 62
     7
 66
     1
 40
0.0139
 41
0.0139
  0
VERTEX
  8
B1822G_1_2
 10
10.0803
 20
13.2024
 30
0
 70
     0
  0
VERTEX
  8
B1822G_1_2
 10
10.0803
 20
12.9024
 30
0
 70
     0
  0
SEQEND
  0
POLYLINE
  8
B1822G_1_2
  6
CONTINUOUS
 62
     7
 66
     1
 40
0.0139
 41
0.0139
  0
VERTEX
  8
B1822G_1_2
 10
9.5359
 20
13.2024
 30
0
 70
     0
  0
VERTEX
  8
B1822G_1_2
 10
9.5359
 20
12.9024
 30
0
 70
     0
  0
SEQEND
  0
POLYLINE
  8
B1822G_1_2
  6
CONTINUOUS
 62
     7
 66
     1
 40
0.0139
 41
0.0139
  0
VERTEX
  8
B1822G_1_2
 10
9.7981
 20
57.3624
 30
0
 70
     0
  0
VERTEX
  8
B1822G_1_2
 10
9.7203
 20
57.3624
 30
0
 70
     0
  0
SEQEND
  0
POLYLINE
  8
B1822G_1_2
  6
CONTINUOUS
 62
     7
 66
     1
 40
0.0139
 41
0.0139
  0
VERTEX
  8
B1822G_1_2
 10
9.1759
 20
57.3624
 30
0
 70
     0
  0
VERTEX
  8
B1822G_1_2
 10
9.1156
 20
57.3624
 30
0
 70
     0
  0
SEQEND
  0
POLYLINE
  8
B1822G_1_2
  6
CONTINUOUS
 62
     7
 66
     1
 40
0.0139
 41
0.0139
  0
VERTEX
  8
B1822G_1_2
 10
9.7203
 20
57.3624
 30
0
 70
     0
  0
VERTEX
  8
B1822G_1_2
 10
9.1759
 20
57.3624
 30
0
 70
     0
  0
SEQEND
  0
POLYLINE
  8
B1822G_1_2
  6
CONTINUOUS
 62
     7
 66
     1
 40
0.0139
 41
0.0139
  0
VERTEX
  8
B1822G_1_2
 10
9.7981
 20
57.6624
 30
0
 70
     0
  0
VERTEX
  8
B1822G_1_2
 10
9.7981
 20
57.3624
 30
0
 70
     0
  0
SEQEND
  0
POLYLINE
  8
B1822G_1_2
  6
CONTINUOUS
 62
     7
 66
     1
 40
0.0139
 41
0.0139
  0
VERTEX
  8
B1822G_1_2
 10
9.7203
 20
57.6624
 30
0
 70
     0
  0
VERTEX
  8
B1822G_1_2
 10
9.7203
 20
57.3624
 30
0
 70
     0
  0
SEQEND
  0
POLYLINE
  8
B1822G_1_2
  6
CONTINUOUS
 62
     7
 66
     1
 40
0.0139
 41
0.0139
  0
VERTEX
  8
B1822G_1_2
 10
9.1759
 20
57.6624
 30
0
 70
     0
  0
VERTEX
  8
B1822G_1_2
 10
9.1759
 20
57.3624
 30
0
 70
     0
  0
SEQEND
  0
ENDBLK
  8
B1822G_1_2
  0
BLOCK
  8
B1822G_1_2
  2
Group13
 70
     0
 10
0
 20
0
 30
0
  0
POLYLINE
  8
B1822G_1_2
  6
CONTINUOUS
 62
     7
 66
     1
 40
0.0139
 41
0.0139
  0
VERTEX
  8
B1822G_1_2
 10
5.8971
 20
60.3633
 30
0
 70
     0
  0
VERTEX
  8
B1822G_1_2
 10
5.8999
 20
60.4173
 30
0
 70
     0
  0
VERTEX
  8
B1822G_1_2
 10
5.908
 20
60.4698
 30
0
 70
     0
  0
VERTEX
  8
B1822G_1_2
 10
5.9212
 20
60.5205
 30
0
 70
     0
  0
VERTEX
  8
B1822G_1_2
 10
5.9391
 20
60.5692
 30
0
 70
     0
  0
VERTEX
  8
B1822G_1_2
 10
5.9883
 20
60.6594
 30
0
 70
     0
  0
VERTEX
  8
B1822G_1_2
 10
6.0534
 20
60.7381
 30
0
 70
     0
  0
VERTEX
  8
B1822G_1_2
 10
6.1321
 20
60.8031
 30
0
 70
     0
  0
VERTEX
  8
B1822G_1_2
 10
6.2223
 20
60.8523
 30
0
 70
     0
  0
VERTEX
  8
B1822G_1_2
 10
6.2709
 20
60.8703
 30
0
 70
     0
  0
VERTEX
  8
B1822G_1_2
 10
6.3217
 20
60.8835
 30
0
 70
     0
  0
VERTEX
  8
B1822G_1_2
 10
6.3742
 20
60.8916
 30
0
 70
     0
  0
VERTEX
  8
B1822G_1_2
 10
6.4281
 20
60.8943
 30
0
 70
     0
  0
VERTEX
  8
B1822G_1_2
 10
6.4281
 20
60.8943
 30
0
 70
     0
  0
VERTEX
  8
B1822G_1_2
 10
6.4821
 20
60.8916
 30
0
 70
     0
  0
VERTEX
  8
B1822G_1_2
 10
6.5346
 20
60.8835
 30
0
 70
     0
  0
VERTEX
  8
B1822G_1_2
 10
6.5853
 20
60.8703
 30
0
 70
     0
  0
VERTEX
  8
B1822G_1_2
 10
6.634
 20
60.8523
 30
0
 70
     0
  0
VERTEX
  8
B1822G_1_2
 10
6.7241
 20
60.8031
 30
0
 70
     0
  0
VERTEX
  8
B1822G_1_2
 10
6.8029
 20
60.7381
 30
0
 70
     0
  0
VERTEX
  8
B1822G_1_2
 10
6.8679
 20
60.6594
 30
0
 70
     0
  0
VERTEX
  8
B1822G_1_2
 10
6.9171
 20
60.5692
 30
0
 70
     0
  0
VERTEX
  8
B1822G_1_2
 10
6.9351
 20
60.5205
 30
0
 70
     0
  0
VERTEX
  8
B1822G_1_2
 10
6.9483
 20
60.4698
 30
0
 70
     0
  0
VERTEX
  8
B1822G_1_2
 10
6.9564
 20
60.4173
 30
0
 70
     0
  0
VERTEX
  8
B1822G_1_2
 10
6.9591
 20
60.3633
 30
0
 70
     0
  0
VERTEX
  8
B1822G_1_2
 10
6.9591
 20
60.3633
 30
0
 70
     0
  0
VERTEX
  8
B1822G_1_2
 10
6.9564
 20
60.3094
 30
0
 70
     0
  0
VERTEX
  8
B1822G_1_2
 10
6.9483
 20
60.2569
 30
0
 70
     0
  0
VERTEX
  8
B1822G_1_2
 10
6.9351
 20
60.2062
 30
0
 70
     0
  0
VERTEX
  8
B1822G_1_2
 10
6.9171
 20
60.1575
 30
0
 70
     0
  0
VERTEX
  8
B1822G_1_2
 10
6.8679
 20
60.0673
 30
0
 70
     0
  0
VERTEX
  8
B1822G_1_2
 10
6.8029
 20
59.9886
 30
0
 70
     0
  0
VERTEX
  8
B1822G_1_2
 10
6.7241
 20
59.9235
 30
0
 70
     0
  0
VERTEX
  8
B1822G_1_2
 10
6.634
 20
59.8743
 30
0
 70
     0
  0
VERTEX
  8
B1822G_1_2
 10
6.5853
 20
59.8564
 30
0
 70
     0
  0
VERTEX
  8
B1822G_1_2
 10
6.5346
 20
59.8432
 30
0
 70
     0
  0
VERTEX
  8
B1822G_1_2
 10
6.4821
 20
59.8351
 30
0
 70
     0
  0
VERTEX
  8
B1822G_1_2
 10
6.4281
 20
59.8323
 30
0
 70
     0
  0
VERTEX
  8
B1822G_1_2
 10
6.4281
 20
59.8323
 30
0
 70
     0
  0
VERTEX
  8
B1822G_1_2
 10
6.3742
 20
59.8351
 30
0
 70
     0
  0
VERTEX
  8
B1822G_1_2
 10
6.3217
 20
59.8432
 30
0
 70
     0
  0
VERTEX
  8
B1822G_1_2
 10
6.2709
 20
59.8564
 30
0
 70
     0
  0
VERTEX
  8
B1822G_1_2
 10
6.2223
 20
59.8743
 30
0
 70
     0
  0
VERTEX
  8
B1822G_1_2
 10
6.1321
 20
59.9235
 30
0
 70
     0
  0
VERTEX
  8
B1822G_1_2
 10
6.0534
 20
59.9886
 30
0
 70
     0
  0
VERTEX
  8
B1822G_1_2
 10
5.9883
 20
60.0673
 30
0
 70
     0
  0
VERTEX
  8
B1822G_1_2
 10
5.9391
 20
60.1575
 30
0
 70
     0
  0
VERTEX
  8
B1822G_1_2
 10
5.9212
 20
60.2062
 30
0
 70
     0
  0
VERTEX
  8
B1822G_1_2
 10
5.908
 20
60.2569
 30
0
 70
     0
  0
VERTEX
  8
B1822G_1_2
 10
5.8999
 20
60.3094
 30
0
 70
     0
  0
VERTEX
  8
B1822G_1_2
 10
5.8971
 20
60.3633
 30
0
 70
     0
  0
SEQEND
  0
POLYLINE
  8
B1822G_1_2
  6
CONTINUOUS
 62
     7
 66
     1
 40
0.0139
 41
0.0139
  0
VERTEX
  8
B1822G_1_2
 10
2.8971
 20
60.3633
 30
0
 70
     0
  0
VERTEX
  8
B1822G_1_2
 10
2.8999
 20
60.4173
 30
0
 70
     0
  0
VERTEX
  8
B1822G_1_2
 10
2.908
 20
60.4698
 30
0
 70
     0
  0
VERTEX
  8
B1822G_1_2
 10
2.9212
 20
60.5205
 30
0
 70
     0
  0
VERTEX
  8
B1822G_1_2
 10
2.9391
 20
60.5692
 30
0
 70
     0
  0
VERTEX
  8
B1822G_1_2
 10
2.9883
 20
60.6594
 30
0
 70
     0
  0
VERTEX
  8
B1822G_1_2
 10
3.0534
 20
60.7381
 30
0
 70
     0
  0
VERTEX
  8
B1822G_1_2
 10
3.1321
 20
60.8031
 30
0
 70
     0
  0
VERTEX
  8
B1822G_1_2
 10
3.2223
 20
60.8523
 30
0
 70
     0
  0
VERTEX
  8
B1822G_1_2
 10
3.2709
 20
60.8703
 30
0
 70
     0
  0
VERTEX
  8
B1822G_1_2
 10
3.3217
 20
60.8835
 30
0
 70
     0
  0
VERTEX
  8
B1822G_1_2
 10
3.3742
 20
60.8916
 30
0
 70
     0
  0
VERTEX
  8
B1822G_1_2
 10
3.4281
 20
60.8943
 30
0
 70
     0
  0
VERTEX
  8
B1822G_1_2
 10
3.4281
 20
60.8943
 30
0
 70
     0
  0
VERTEX
  8
B1822G_1_2
 10
3.4821
 20
60.8916
 30
0
 70
     0
  0
VERTEX
  8
B1822G_1_2
 10
3.5346
 20
60.8835
 30
0
 70
     0
  0
VERTEX
  8
B1822G_1_2
 10
3.5853
 20
60.8703
 30
0
 70
     0
  0
VERTEX
  8
B1822G_1_2
 10
3.634
 20
60.8523
 30
0
 70
     0
  0
VERTEX
  8
B1822G_1_2
 10
3.7241
 20
60.8031
 30
0
 70
     0
  0
VERTEX
  8
B1822G_1_2
 10
3.8029
 20
60.7381
 30
0
 70
     0
  0
VERTEX
  8
B1822G_1_2
 10
3.8679
 20
60.6594
 30
0
 70
     0
  0
VERTEX
  8
B1822G_1_2
 10
3.9171
 20
60.5692
 30
0
 70
     0
  0
VERTEX
  8
B1822G_1_2
 10
3.9351
 20
60.5205
 30
0
 70
     0
  0
VERTEX
  8
B1822G_1_2
 10
3.9483
 20
60.4698
 30
0
 70
     0
  0
VERTEX
  8
B1822G_1_2
 10
3.9564
 20
60.4173
 30
0
 70
     0
  0
VERTEX
  8
B1822G_1_2
 10
3.9591
 20
60.3633
 30
0
 70
     0
  0
VERTEX
  8
B1822G_1_2
 10
3.9591
 20
60.3633
 30
0
 70
     0
  0
VERTEX
  8
B1822G_1_2
 10
3.9564
 20
60.3094
 30
0
 70
     0
  0
VERTEX
  8
B1822G_1_2
 10
3.9483
 20
60.2569
 30
0
 70
     0
  0
VERTEX
  8
B1822G_1_2
 10
3.9351
 20
60.2062
 30
0
 70
     0
  0
VERTEX
  8
B1822G_1_2
 10
3.9171
 20
60.1575
 30
0
 70
     0
  0
VERTEX
  8
B1822G_1_2
 10
3.8679
 20
60.0673
 30
0
 70
     0
  0
VERTEX
  8
B1822G_1_2
 10
3.8029
 20
59.9886
 30
0
 70
     0
  0
VERTEX
  8
B1822G_1_2
 10
3.7241
 20
59.9235
 30
0
 70
     0
  0
VERTEX
  8
B1822G_1_2
 10
3.634
 20
59.8743
 30
0
 70
     0
  0
VERTEX
  8
B1822G_1_2
 10
3.5853
 20
59.8564
 30
0
 70
     0
  0
VERTEX
  8
B1822G_1_2
 10
3.5346
 20
59.8432
 30
0
 70
     0
  0
VERTEX
  8
B1822G_1_2
 10
3.4821
 20
59.8351
 30
0
 70
     0
  0
VERTEX
  8
B1822G_1_2
 10
3.4281
 20
59.8323
 30
0
 70
     0
  0
VERTEX
  8
B1822G_1_2
 10
3.4281
 20
59.8323
 30
0
 70
     0
  0
VERTEX
  8
B1822G_1_2
 10
3.3742
 20
59.8351
 30
0
 70
     0
  0
VERTEX
  8
B1822G_1_2
 10
3.3217
 20
59.8432
 30
0
 70
     0
  0
VERTEX
  8
B1822G_1_2
 10
3.2709
 20
59.8564
 30
0
 70
     0
  0
VERTEX
  8
B1822G_1_2
 10
3.2223
 20
59.8743
 30
0
 70
     0
  0
VERTEX
  8
B1822G_1_2
 10
3.1321
 20
59.9235
 30
0
 70
     0
  0
VERTEX
  8
B1822G_1_2
 10
3.0534
 20
59.9886
 30
0
 70
     0
  0
VERTEX
  8
B1822G_1_2
 10
2.9883
 20
60.0673
 30
0
 70
     0
  0
VERTEX
  8
B1822G_1_2
 10
2.9391
 20
60.1575
 30
0
 70
     0
  0
VERTEX
  8
B1822G_1_2
 10
2.9212
 20
60.2062
 30
0
 70
     0
  0
VERTEX
  8
B1822G_1_2
 10
2.908
 20
60.2569
 30
0
 70
     0
  0
VERTEX
  8
B1822G_1_2
 10
2.8999
 20
60.3094
 30
0
 70
     0
  0
VERTEX
  8
B1822G_1_2
 10
2.8971
 20
60.3633
 30
0
 70
     0
  0
SEQEND
  0
POLYLINE
  8
B1822G_1_2
  6
CONTINUOUS
 62
     7
 66
     1
 40
0.0139
 41
0.0139
  0
VERTEX
  8
B1822G_1_2
 10
2.8971
 20
2.1133
 30
0
 70
     0
  0
VERTEX
  8
B1822G_1_2
 10
2.8999
 20
2.1673
 30
0
 70
     0
  0
VERTEX
  8
B1822G_1_2
 10
2.908
 20
2.2198
 30
0
 70
     0
  0
VERTEX
  8
B1822G_1_2
 10
2.9212
 20
2.2705
 30
0
 70
     0
  0
VERTEX
  8
B1822G_1_2
 10
2.9391
 20
2.3192
 30
0
 70
     0
  0
VERTEX
  8
B1822G_1_2
 10
2.9883
 20
2.4094
 30
0
 70
     0
  0
VERTEX
  8
B1822G_1_2
 10
3.0534
 20
2.4881
 30
0
 70
     0
  0
VERTEX
  8
B1822G_1_2
 10
3.1321
 20
2.5531
 30
0
 70
     0
  0
VERTEX
  8
B1822G_1_2
 10
3.2223
 20
2.6023
 30
0
 70
     0
  0
VERTEX
  8
B1822G_1_2
 10
3.2709
 20
2.6203
 30
0
 70
     0
  0
VERTEX
  8
B1822G_1_2
 10
3.3217
 20
2.6335
 30
0
 70
     0
  0
VERTEX
  8
B1822G_1_2
 10
3.3742
 20
2.6416
 30
0
 70
     0
  0
VERTEX
  8
B1822G_1_2
 10
3.4281
 20
2.6443
 30
0
 70
     0
  0
VERTEX
  8
B1822G_1_2
 10
3.4281
 20
2.6443
 30
0
 70
     0
  0
VERTEX
  8
B1822G_1_2
 10
3.4821
 20
2.6416
 30
0
 70
     0
  0
VERTEX
  8
B1822G_1_2
 10
3.5346
 20
2.6335
 30
0
 70
     0
  0
VERTEX
  8
B1822G_1_2
 10
3.5853
 20
2.6203
 30
0
 70
     0
  0
VERTEX
  8
B1822G_1_2
 10
3.634
 20
2.6023
 30
0
 70
     0
  0
VERTEX
  8
B1822G_1_2
 10
3.7241
 20
2.5531
 30
0
 70
     0
  0
VERTEX
  8
B1822G_1_2
 10
3.8029
 20
2.4881
 30
0
 70
     0
  0
VERTEX
  8
B1822G_1_2
 10
3.8679
 20
2.4094
 30
0
 70
     0
  0
VERTEX
  8
B1822G_1_2
 10
3.9171
 20
2.3192
 30
0
 70
     0
  0
VERTEX
  8
B1822G_1_2
 10
3.9351
 20
2.2705
 30
0
 70
     0
  0
VERTEX
  8
B1822G_1_2
 10
3.9483
 20
2.2198
 30
0
 70
     0
  0
VERTEX
  8
B1822G_1_2
 10
3.9564
 20
2.1673
 30
0
 70
     0
  0
VERTEX
  8
B1822G_1_2
 10
3.9591
 20
2.1133
 30
0
 70
     0
  0
VERTEX
  8
B1822G_1_2
 10
3.9591
 20
2.1133
 30
0
 70
     0
  0
VERTEX
  8
B1822G_1_2
 10
3.9564
 20
2.0594
 30
0
 70
     0
  0
VERTEX
  8
B1822G_1_2
 10
3.9483
 20
2.0069
 30
0
 70
     0
  0
VERTEX
  8
B1822G_1_2
 10
3.9351
 20
1.9562
 30
0
 70
     0
  0
VERTEX
  8
B1822G_1_2
 10
3.9171
 20
1.9075
 30
0
 70
     0
  0
VERTEX
  8
B1822G_1_2
 10
3.8679
 20
1.8173
 30
0
 70
     0
  0
VERTEX
  8
B1822G_1_2
 10
3.8029
 20
1.7386
 30
0
 70
     0
  0
VERTEX
  8
B1822G_1_2
 10
3.7241
 20
1.6735
 30
0
 70
     0
  0
VERTEX
  8
B1822G_1_2
 10
3.634
 20
1.6243
 30
0
 70
     0
  0
VERTEX
  8
B1822G_1_2
 10
3.5853
 20
1.6064
 30
0
 70
     0
  0
VERTEX
  8
B1822G_1_2
 10
3.5346
 20
1.5932
 30
0
 70
     0
  0
VERTEX
  8
B1822G_1_2
 10
3.4821
 20
1.5851
 30
0
 70
     0
  0
VERTEX
  8
B1822G_1_2
 10
3.4281
 20
1.5823
 30
0
 70
     0
  0
VERTEX
  8
B1822G_1_2
 10
3.4281
 20
1.5823
 30
0
 70
     0
  0
VERTEX
  8
B1822G_1_2
 10
3.3742
 20
1.5851
 30
0
 70
     0
  0
VERTEX
  8
B1822G_1_2
 10
3.3217
 20
1.5932
 30
0
 70
     0
  0
VERTEX
  8
B1822G_1_2
 10
3.2709
 20
1.6064
 30
0
 70
     0
  0
VERTEX
  8
B1822G_1_2
 10
3.2223
 20
1.6243
 30
0
 70
     0
  0
VERTEX
  8
B1822G_1_2
 10
3.1321
 20
1.6735
 30
0
 70
     0
  0
VERTEX
  8
B1822G_1_2
 10
3.0534
 20
1.7386
 30
0
 70
     0
  0
VERTEX
  8
B1822G_1_2
 10
2.9883
 20
1.8173
 30
0
 70
     0
  0
VERTEX
  8
B1822G_1_2
 10
2.9391
 20
1.9075
 30
0
 70
     0
  0
VERTEX
  8
B1822G_1_2
 10
2.9212
 20
1.9562
 30
0
 70
     0
  0
VERTEX
  8
B1822G_1_2
 10
2.908
 20
2.0069
 30
0
 70
     0
  0
VERTEX
  8
B1822G_1_2
 10
2.8999
 20
2.0594
 30
0
 70
     0
  0
VERTEX
  8
B1822G_1_2
 10
2.8971
 20
2.1133
 30
0
 70
     0
  0
SEQEND
  0
POLYLINE
  8
B1822G_1_2
  6
CONTINUOUS
 62
     7
 66
     1
 40
0.0139
 41
0.0139
  0
VERTEX
  8
B1822G_1_2
 10
5.8971
 20
2.1133
 30
0
 70
     0
  0
VERTEX
  8
B1822G_1_2
 10
5.8999
 20
2.1673
 30
0
 70
     0
  0
VERTEX
  8
B1822G_1_2
 10
5.908
 20
2.2198
 30
0
 70
     0
  0
VERTEX
  8
B1822G_1_2
 10
5.9212
 20
2.2705
 30
0
 70
     0
  0
VERTEX
  8
B1822G_1_2
 10
5.9391
 20
2.3192
 30
0
 70
     0
  0
VERTEX
  8
B1822G_1_2
 10
5.9883
 20
2.4094
 30
0
 70
     0
  0
VERTEX
  8
B1822G_1_2
 10
6.0534
 20
2.4881
 30
0
 70
     0
  0
VERTEX
  8
B1822G_1_2
 10
6.1321
 20
2.5531
 30
0
 70
     0
  0
VERTEX
  8
B1822G_1_2
 10
6.2223
 20
2.6023
 30
0
 70
     0
  0
VERTEX
  8
B1822G_1_2
 10
6.2709
 20
2.6203
 30
0
 70
     0
  0
VERTEX
  8
B1822G_1_2
 10
6.3217
 20
2.6335
 30
0
 70
     0
  0
VERTEX
  8
B1822G_1_2
 10
6.3742
 20
2.6416
 30
0
 70
     0
  0
VERTEX
  8
B1822G_1_2
 10
6.4281
 20
2.6443
 30
0
 70
     0
  0
VERTEX
  8
B1822G_1_2
 10
6.4281
 20
2.6443
 30
0
 70
     0
  0
VERTEX
  8
B1822G_1_2
 10
6.4821
 20
2.6416
 30
0
 70
     0
  0
VERTEX
  8
B1822G_1_2
 10
6.5346
 20
2.6335
 30
0
 70
     0
  0
VERTEX
  8
B1822G_1_2
 10
6.5853
 20
2.6203
 30
0
 70
     0
  0
VERTEX
  8
B1822G_1_2
 10
6.634
 20
2.6023
 30
0
 70
     0
  0
VERTEX
  8
B1822G_1_2
 10
6.7241
 20
2.5531
 30
0
 70
     0
  0
VERTEX
  8
B1822G_1_2
 10
6.8029
 20
2.4881
 30
0
 70
     0
  0
VERTEX
  8
B1822G_1_2
 10
6.8679
 20
2.4094
 30
0
 70
     0
  0
VERTEX
  8
B1822G_1_2
 10
6.9171
 20
2.3192
 30
0
 70
     0
  0
VERTEX
  8
B1822G_1_2
 10
6.9351
 20
2.2705
 30
0
 70
     0
  0
VERTEX
  8
B1822G_1_2
 10
6.9483
 20
2.2198
 30
0
 70
     0
  0
VERTEX
  8
B1822G_1_2
 10
6.9564
 20
2.1673
 30
0
 70
     0
  0
VERTEX
  8
B1822G_1_2
 10
6.9591
 20
2.1133
 30
0
 70
     0
  0
VERTEX
  8
B1822G_1_2
 10
6.9591
 20
2.1133
 30
0
 70
     0
  0
VERTEX
  8
B1822G_1_2
 10
6.9564
 20
2.0594
 30
0
 70
     0
  0
VERTEX
  8
B1822G_1_2
 10
6.9483
 20
2.0069
 30
0
 70
     0
  0
VERTEX
  8
B1822G_1_2
 10
6.9351
 20
1.9562
 30
0
 70
     0
  0
VERTEX
  8
B1822G_1_2
 10
6.9171
 20
1.9075
 30
0
 70
     0
  0
VERTEX
  8
B1822G_1_2
 10
6.8679
 20
1.8173
 30
0
 70
     0
  0
VERTEX
  8
B1822G_1_2
 10
6.8029
 20
1.7386
 30
0
 70
     0
  0
VERTEX
  8
B1822G_1_2
 10
6.7241
 20
1.6735
 30
0
 70
     0
  0
VERTEX
  8
B1822G_1_2
 10
6.634
 20
1.6243
 30
0
 70
     0
  0
VERTEX
  8
B1822G_1_2
 10
6.5853
 20
1.6064
 30
0
 70
     0
  0
VERTEX
  8
B1822G_1_2
 10
6.5346
 20
1.5932
 30
0
 70
     0
  0
VERTEX
  8
B1822G_1_2
 10
6.4821
 20
1.5851
 30
0
 70
     0
  0
VERTEX
  8
B1822G_1_2
 10
6.4281
 20
1.5823
 30
0
 70
     0
  0
VERTEX
  8
B1822G_1_2
 10
6.4281
 20
1.5823
 30
0
 70
     0
  0
VERTEX
  8
B1822G_1_2
 10
6.3742
 20
1.5851
 30
0
 70
     0
  0
VERTEX
  8
B1822G_1_2
 10
6.3217
 20
1.5932
 30
0
 70
     0
  0
VERTEX
  8
B1822G_1_2
 10
6.2709
 20
1.6064
 30
0
 70
     0
  0
VERTEX
  8
B1822G_1_2
 10
6.2223
 20
1.6243
 30
0
 70
     0
  0
VERTEX
  8
B1822G_1_2
 10
6.1321
 20
1.6735
 30
0
 70
     0
  0
VERTEX
  8
B1822G_1_2
 10
6.0534
 20
1.7386
 30
0
 70
     0
  0
VERTEX
  8
B1822G_1_2
 10
5.9883
 20
1.8173
 30
0
 70
     0
  0
VERTEX
  8
B1822G_1_2
 10
5.9391
 20
1.9075
 30
0
 70
     0
  0
VERTEX
  8
B1822G_1_2
 10
5.9212
 20
1.9562
 30
0
 70
     0
  0
VERTEX
  8
B1822G_1_2
 10
5.908
 20
2.0069
 30
0
 70
     0
  0
VERTEX
  8
B1822G_1_2
 10
5.8999
 20
2.0594
 30
0
 70
     0
  0
VERTEX
  8
B1822G_1_2
 10
5.8971
 20
2.1133
 30
0
 70
     0
  0
SEQEND
  0
ENDBLK
  8
B1822G_1_2
  0
BLOCK
  8
B1822G_1_2
  2
Group14
 70
     0
 10
0
 20
0
 30
0
  0
POLYLINE
  8
B1822G_1_2
  6
CONTINUOUS
 62
     7
 66
     1
 40
0.0139
 41
0.0139
  0
VERTEX
  8
B1822G_1_2
 10
3.4283
 20
1.7383
 30
0
 70
     0
  0
VERTEX
  8
B1822G_1_2
 10
3.478
 20
1.7416
 30
0
 70
     0
  0
VERTEX
  8
B1822G_1_2
 10
3.5262
 20
1.7512
 30
0
 70
     0
  0
VERTEX
  8
B1822G_1_2
 10
3.5723
 20
1.767
 30
0
 70
     0
  0
VERTEX
  8
B1822G_1_2
 10
3.6158
 20
1.7885
 30
0
 70
     0
  0
VERTEX
  8
B1822G_1_2
 10
3.6562
 20
1.8154
 30
0
 70
     0
  0
VERTEX
  8
B1822G_1_2
 10
3.693
 20
1.8475
 30
0
 70
     0
  0
VERTEX
  8
B1822G_1_2
 10
3.7254
 20
1.8843
 30
0
 70
     0
  0
VERTEX
  8
B1822G_1_2
 10
3.7531
 20
1.9257
 30
0
 70
     0
  0
SEQEND
  0
POLYLINE
  8
B1822G_1_2
  6
CONTINUOUS
 62
     7
 66
     1
 40
0.0139
 41
0.0139
  0
VERTEX
  8
B1822G_1_2
 10
3.7531
 20
1.9257
 30
0
 70
     0
  0
VERTEX
  8
B1822G_1_2
 10
3.7751
 20
1.9704
 30
0
 70
     0
  0
VERTEX
  8
B1822G_1_2
 10
3.7909
 20
2.0169
 30
0
 70
     0
  0
VERTEX
  8
B1822G_1_2
 10
3.8003
 20
2.0648
 30
0
 70
     0
  0
VERTEX
  8
B1822G_1_2
 10
3.8035
 20
2.1132
 30
0
 70
     0
  0
VERTEX
  8
B1822G_1_2
 10
3.8004
 20
2.1617
 30
0
 70
     0
  0
VERTEX
  8
B1822G_1_2
 10
3.7909
 20
2.2095
 30
0
 70
     0
  0
VERTEX
  8
B1822G_1_2
 10
3.7752
 20
2.2561
 30
0
 70
     0
  0
VERTEX
  8
B1822G_1_2
 10
3.7532
 20
2.3008
 30
0
 70
     0
  0
SEQEND
  0
POLYLINE
  8
B1822G_1_2
  6
CONTINUOUS
 62
     7
 66
     1
 40
0.0139
 41
0.0139
  0
VERTEX
  8
B1822G_1_2
 10
3.1036
 20
1.926
 30
0
 70
     0
  0
VERTEX
  8
B1822G_1_2
 10
3.1312
 20
1.8846
 30
0
 70
     0
  0
VERTEX
  8
B1822G_1_2
 10
3.1637
 20
1.8477
 30
0
 70
     0
  0
VERTEX
  8
B1822G_1_2
 10
3.2004
 20
1.8156
 30
0
 70
     0
  0
VERTEX
  8
B1822G_1_2
 10
3.2408
 20
1.7886
 30
0
 70
     0
  0
VERTEX
  8
B1822G_1_2
 10
3.2843
 20
1.7671
 30
0
 70
     0
  0
VERTEX
  8
B1822G_1_2
 10
3.3304
 20
1.7513
 30
0
 70
     0
  0
VERTEX
  8
B1822G_1_2
 10
3.3786
 20
1.7416
 30
0
 70
     0
  0
VERTEX
  8
B1822G_1_2
 10
3.4283
 20
1.7383
 30
0
 70
     0
  0
SEQEND
  0
POLYLINE
  8
B1822G_1_2
  6
CONTINUOUS
 62
     7
 66
     1
 40
0.0139
 41
0.0139
  0
VERTEX
  8
B1822G_1_2
 10
3.7532
 20
2.3008
 30
0
 70
     0
  0
VERTEX
  8
B1822G_1_2
 10
3.6449
 20
2.4883
 30
0
 70
     0
  0
SEQEND
  0
POLYLINE
  8
B1822G_1_2
  6
CONTINUOUS
 62
     7
 66
     1
 40
0.0139
 41
0.0139
  0
VERTEX
  8
B1822G_1_2
 10
3.6449
 20
2.4883
 30
0
 70
     0
  0
VERTEX
  8
B1822G_1_2
 10
3.4284
 20
2.4883
 30
0
 70
     0
  0
SEQEND
  0
POLYLINE
  8
B1822G_1_2
  6
CONTINUOUS
 62
     7
 66
     1
 40
0.0139
 41
0.0139
  0
VERTEX
  8
B1822G_1_2
 10
3.7532
 20
1.9258
 30
0
 70
     0
  0
VERTEX
  8
B1822G_1_2
 10
3.8614
 20
2.1133
 30
0
 70
     0
  0
SEQEND
  0
POLYLINE
  8
B1822G_1_2
  6
CONTINUOUS
 62
     7
 66
     1
 40
0.0139
 41
0.0139
  0
VERTEX
  8
B1822G_1_2
 10
3.8614
 20
2.1133
 30
0
 70
     0
  0
VERTEX
  8
B1822G_1_2
 10
3.7532
 20
2.3008
 30
0
 70
     0
  0
SEQEND
  0
POLYLINE
  8
B1822G_1_2
  6
CONTINUOUS
 62
     7
 66
     1
 40
0.0139
 41
0.0139
  0
VERTEX
  8
B1822G_1_2
 10
3.6449
 20
1.7383
 30
0
 70
     0
  0
VERTEX
  8
B1822G_1_2
 10
3.7532
 20
1.9258
 30
0
 70
     0
  0
SEQEND
  0
POLYLINE
  8
B1822G_1_2
  6
CONTINUOUS
 62
     7
 66
     1
 40
0.0139
 41
0.0139
  0
VERTEX
  8
B1822G_1_2
 10
3.7532
 20
2.3008
 30
0
 70
     0
  0
VERTEX
  8
B1822G_1_2
 10
3.7255
 20
2.3422
 30
0
 70
     0
  0
VERTEX
  8
B1822G_1_2
 10
3.6931
 20
2.3791
 30
0
 70
     0
  0
VERTEX
  8
B1822G_1_2
 10
3.6564
 20
2.4112
 30
0
 70
     0
  0
VERTEX
  8
B1822G_1_2
 10
3.616
 20
2.4382
 30
0
 70
     0
  0
VERTEX
  8
B1822G_1_2
 10
3.5724
 20
2.4597
 30
0
 70
     0
  0
VERTEX
  8
B1822G_1_2
 10
3.5263
 20
2.4754
 30
0
 70
     0
  0
VERTEX
  8
B1822G_1_2
 10
3.4781
 20
2.4851
 30
0
 70
     0
  0
VERTEX
  8
B1822G_1_2
 10
3.4284
 20
2.4883
 30
0
 70
     0
  0
SEQEND
  0
POLYLINE
  8
B1822G_1_2
  6
CONTINUOUS
 62
     7
 66
     1
 40
0.0139
 41
0.0139
  0
VERTEX
  8
B1822G_1_2
 10
3.1037
 20
1.9258
 30
0
 70
     0
  0
VERTEX
  8
B1822G_1_2
 10
3.2119
 20
1.7383
 30
0
 70
     0
  0
SEQEND
  0
POLYLINE
  8
B1822G_1_2
  6
CONTINUOUS
 62
     7
 66
     1
 40
0.0139
 41
0.0139
  0
VERTEX
  8
B1822G_1_2
 10
3.1037
 20
2.3008
 30
0
 70
     0
  0
VERTEX
  8
B1822G_1_2
 10
2.9954
 20
2.1133
 30
0
 70
     0
  0
SEQEND
  0
POLYLINE
  8
B1822G_1_2
  6
CONTINUOUS
 62
     7
 66
     1
 40
0.0139
 41
0.0139
  0
VERTEX
  8
B1822G_1_2
 10
2.9954
 20
2.1133
 30
0
 70
     0
  0
VERTEX
  8
B1822G_1_2
 10
3.1037
 20
1.9258
 30
0
 70
     0
  0
SEQEND
  0
POLYLINE
  8
B1822G_1_2
  6
CONTINUOUS
 62
     7
 66
     1
 40
0.0139
 41
0.0139
  0
VERTEX
  8
B1822G_1_2
 10
3.4284
 20
2.4883
 30
0
 70
     0
  0
VERTEX
  8
B1822G_1_2
 10
3.2119
 20
2.4883
 30
0
 70
     0
  0
SEQEND
  0
POLYLINE
  8
B1822G_1_2
  6
CONTINUOUS
 62
     7
 66
     1
 40
0.0139
 41
0.0139
  0
VERTEX
  8
B1822G_1_2
 10
3.2119
 20
2.4883
 30
0
 70
     0
  0
VERTEX
  8
B1822G_1_2
 10
3.1037
 20
2.3008
 30
0
 70
     0
  0
SEQEND
  0
POLYLINE
  8
B1822G_1_2
  6
CONTINUOUS
 62
     7
 66
     1
 40
0.0139
 41
0.0139
  0
VERTEX
  8
B1822G_1_2
 10
3.2119
 20
1.7383
 30
0
 70
     0
  0
VERTEX
  8
B1822G_1_2
 10
3.4284
 20
1.7383
 30
0
 70
     0
  0
SEQEND
  0
POLYLINE
  8
B1822G_1_2
  6
CONTINUOUS
 62
     7
 66
     1
 40
0.0139
 41
0.0139
  0
VERTEX
  8
B1822G_1_2
 10
3.4284
 20
1.7383
 30
0
 70
     0
  0
VERTEX
  8
B1822G_1_2
 10
3.6449
 20
1.7383
 30
0
 70
     0
  0
SEQEND
  0
POLYLINE
  8
B1822G_1_2
  6
CONTINUOUS
 62
     7
 66
     1
 40
0.0139
 41
0.0139
  0
VERTEX
  8
B1822G_1_2
 10
3.1037
 20
2.3008
 30
0
 70
     0
  0
VERTEX
  8
B1822G_1_2
 10
3.0817
 20
2.2562
 30
0
 70
     0
  0
VERTEX
  8
B1822G_1_2
 10
3.0659
 20
2.2097
 30
0
 70
     0
  0
VERTEX
  8
B1822G_1_2
 10
3.0565
 20
2.1619
 30
0
 70
     0
  0
VERTEX
  8
B1822G_1_2
 10
3.0534
 20
2.1134
 30
0
 70
     0
  0
VERTEX
  8
B1822G_1_2
 10
3.0565
 20
2.065
 30
0
 70
     0
  0
VERTEX
  8
B1822G_1_2
 10
3.0659
 20
2.0172
 30
0
 70
     0
  0
VERTEX
  8
B1822G_1_2
 10
3.0816
 20
1.9706
 30
0
 70
     0
  0
VERTEX
  8
B1822G_1_2
 10
3.1036
 20
1.926
 30
0
 70
     0
  0
SEQEND
  0
POLYLINE
  8
B1822G_1_2
  6
CONTINUOUS
 62
     7
 66
     1
 40
0.0139
 41
0.0139
  0
VERTEX
  8
B1822G_1_2
 10
3.4284
 20
2.4883
 30
0
 70
     0
  0
VERTEX
  8
B1822G_1_2
 10
3.3788
 20
2.4851
 30
0
 70
     0
  0
VERTEX
  8
B1822G_1_2
 10
3.3306
 20
2.4754
 30
0
 70
     0
  0
VERTEX
  8
B1822G_1_2
 10
3.2844
 20
2.4597
 30
0
 70
     0
  0
VERTEX
  8
B1822G_1_2
 10
3.2409
 20
2.4382
 30
0
 70
     0
  0
VERTEX
  8
B1822G_1_2
 10
3.2005
 20
2.4112
 30
0
 70
     0
  0
VERTEX
  8
B1822G_1_2
 10
3.1638
 20
2.3791
 30
0
 70
     0
  0
VERTEX
  8
B1822G_1_2
 10
3.1313
 20
2.3422
 30
0
 70
     0
  0
VERTEX
  8
B1822G_1_2
 10
3.1037
 20
2.3008
 30
0
 70
     0
  0
SEQEND
  0
POLYLINE
  8
B1822G_1_2
  6
CONTINUOUS
 62
     7
 66
     1
 40
0.0139
 41
0.0139
  0
VERTEX
  8
B1822G_1_2
 10
6.4283
 20
1.7383
 30
0
 70
     0
  0
VERTEX
  8
B1822G_1_2
 10
6.478
 20
1.7416
 30
0
 70
     0
  0
VERTEX
  8
B1822G_1_2
 10
6.5262
 20
1.7512
 30
0
 70
     0
  0
VERTEX
  8
B1822G_1_2
 10
6.5723
 20
1.767
 30
0
 70
     0
  0
VERTEX
  8
B1822G_1_2
 10
6.6158
 20
1.7885
 30
0
 70
     0
  0
VERTEX
  8
B1822G_1_2
 10
6.6562
 20
1.8154
 30
0
 70
     0
  0
VERTEX
  8
B1822G_1_2
 10
6.693
 20
1.8475
 30
0
 70
     0
  0
VERTEX
  8
B1822G_1_2
 10
6.7254
 20
1.8843
 30
0
 70
     0
  0
VERTEX
  8
B1822G_1_2
 10
6.7531
 20
1.9257
 30
0
 70
     0
  0
SEQEND
  0
POLYLINE
  8
B1822G_1_2
  6
CONTINUOUS
 62
     7
 66
     1
 40
0.0139
 41
0.0139
  0
VERTEX
  8
B1822G_1_2
 10
6.7531
 20
1.9257
 30
0
 70
     0
  0
VERTEX
  8
B1822G_1_2
 10
6.7751
 20
1.9704
 30
0
 70
     0
  0
VERTEX
  8
B1822G_1_2
 10
6.7909
 20
2.0169
 30
0
 70
     0
  0
VERTEX
  8
B1822G_1_2
 10
6.8003
 20
2.0648
 30
0
 70
     0
  0
VERTEX
  8
B1822G_1_2
 10
6.8035
 20
2.1132
 30
0
 70
     0
  0
VERTEX
  8
B1822G_1_2
 10
6.8004
 20
2.1617
 30
0
 70
     0
  0
VERTEX
  8
B1822G_1_2
 10
6.7909
 20
2.2095
 30
0
 70
     0
  0
VERTEX
  8
B1822G_1_2
 10
6.7752
 20
2.2561
 30
0
 70
     0
  0
VERTEX
  8
B1822G_1_2
 10
6.7532
 20
2.3008
 30
0
 70
     0
  0
SEQEND
  0
POLYLINE
  8
B1822G_1_2
  6
CONTINUOUS
 62
     7
 66
     1
 40
0.0139
 41
0.0139
  0
VERTEX
  8
B1822G_1_2
 10
6.1036
 20
1.926
 30
0
 70
     0
  0
VERTEX
  8
B1822G_1_2
 10
6.1312
 20
1.8846
 30
0
 70
     0
  0
VERTEX
  8
B1822G_1_2
 10
6.1637
 20
1.8477
 30
0
 70
     0
  0
VERTEX
  8
B1822G_1_2
 10
6.2004
 20
1.8156
 30
0
 70
     0
  0
VERTEX
  8
B1822G_1_2
 10
6.2408
 20
1.7886
 30
0
 70
     0
  0
VERTEX
  8
B1822G_1_2
 10
6.2843
 20
1.7671
 30
0
 70
     0
  0
VERTEX
  8
B1822G_1_2
 10
6.3304
 20
1.7513
 30
0
 70
     0
  0
VERTEX
  8
B1822G_1_2
 10
6.3786
 20
1.7416
 30
0
 70
     0
  0
VERTEX
  8
B1822G_1_2
 10
6.4283
 20
1.7383
 30
0
 70
     0
  0
SEQEND
  0
POLYLINE
  8
B1822G_1_2
  6
CONTINUOUS
 62
     7
 66
     1
 40
0.0139
 41
0.0139
  0
VERTEX
  8
B1822G_1_2
 10
6.7532
 20
2.3008
 30
0
 70
     0
  0
VERTEX
  8
B1822G_1_2
 10
6.6449
 20
2.4883
 30
0
 70
     0
  0
SEQEND
  0
POLYLINE
  8
B1822G_1_2
  6
CONTINUOUS
 62
     7
 66
     1
 40
0.0139
 41
0.0139
  0
VERTEX
  8
B1822G_1_2
 10
6.6449
 20
2.4883
 30
0
 70
     0
  0
VERTEX
  8
B1822G_1_2
 10
6.4284
 20
2.4883
 30
0
 70
     0
  0
SEQEND
  0
POLYLINE
  8
B1822G_1_2
  6
CONTINUOUS
 62
     7
 66
     1
 40
0.0139
 41
0.0139
  0
VERTEX
  8
B1822G_1_2
 10
6.7532
 20
1.9258
 30
0
 70
     0
  0
VERTEX
  8
B1822G_1_2
 10
6.8614
 20
2.1133
 30
0
 70
     0
  0
SEQEND
  0
POLYLINE
  8
B1822G_1_2
  6
CONTINUOUS
 62
     7
 66
     1
 40
0.0139
 41
0.0139
  0
VERTEX
  8
B1822G_1_2
 10
6.8614
 20
2.1133
 30
0
 70
     0
  0
VERTEX
  8
B1822G_1_2
 10
6.7532
 20
2.3008
 30
0
 70
     0
  0
SEQEND
  0
POLYLINE
  8
B1822G_1_2
  6
CONTINUOUS
 62
     7
 66
     1
 40
0.0139
 41
0.0139
  0
VERTEX
  8
B1822G_1_2
 10
6.6449
 20
1.7383
 30
0
 70
     0
  0
VERTEX
  8
B1822G_1_2
 10
6.7532
 20
1.9258
 30
0
 70
     0
  0
SEQEND
  0
POLYLINE
  8
B1822G_1_2
  6
CONTINUOUS
 62
     7
 66
     1
 40
0.0139
 41
0.0139
  0
VERTEX
  8
B1822G_1_2
 10
6.7532
 20
2.3008
 30
0
 70
     0
  0
VERTEX
  8
B1822G_1_2
 10
6.7255
 20
2.3422
 30
0
 70
     0
  0
VERTEX
  8
B1822G_1_2
 10
6.6931
 20
2.3791
 30
0
 70
     0
  0
VERTEX
  8
B1822G_1_2
 10
6.6564
 20
2.4112
 30
0
 70
     0
  0
VERTEX
  8
B1822G_1_2
 10
6.616
 20
2.4382
 30
0
 70
     0
  0
VERTEX
  8
B1822G_1_2
 10
6.5724
 20
2.4597
 30
0
 70
     0
  0
VERTEX
  8
B1822G_1_2
 10
6.5263
 20
2.4754
 30
0
 70
     0
  0
VERTEX
  8
B1822G_1_2
 10
6.4781
 20
2.4851
 30
0
 70
     0
  0
VERTEX
  8
B1822G_1_2
 10
6.4284
 20
2.4883
 30
0
 70
     0
  0
SEQEND
  0
POLYLINE
  8
B1822G_1_2
  6
CONTINUOUS
 62
     7
 66
     1
 40
0.0139
 41
0.0139
  0
VERTEX
  8
B1822G_1_2
 10
6.1037
 20
1.9258
 30
0
 70
     0
  0
VERTEX
  8
B1822G_1_2
 10
6.2119
 20
1.7383
 30
0
 70
     0
  0
SEQEND
  0
POLYLINE
  8
B1822G_1_2
  6
CONTINUOUS
 62
     7
 66
     1
 40
0.0139
 41
0.0139
  0
VERTEX
  8
B1822G_1_2
 10
6.4284
 20
1.7383
 30
0
 70
     0
  0
VERTEX
  8
B1822G_1_2
 10
6.6449
 20
1.7383
 30
0
 70
     0
  0
SEQEND
  0
POLYLINE
  8
B1822G_1_2
  6
CONTINUOUS
 62
     7
 66
     1
 40
0.0139
 41
0.0139
  0
VERTEX
  8
B1822G_1_2
 10
6.1037
 20
2.3008
 30
0
 70
     0
  0
VERTEX
  8
B1822G_1_2
 10
5.9954
 20
2.1133
 30
0
 70
     0
  0
SEQEND
  0
POLYLINE
  8
B1822G_1_2
  6
CONTINUOUS
 62
     7
 66
     1
 40
0.0139
 41
0.0139
  0
VERTEX
  8
B1822G_1_2
 10
5.9954
 20
2.1133
 30
0
 70
     0
  0
VERTEX
  8
B1822G_1_2
 10
6.1037
 20
1.9258
 30
0
 70
     0
  0
SEQEND
  0
POLYLINE
  8
B1822G_1_2
  6
CONTINUOUS
 62
     7
 66
     1
 40
0.0139
 41
0.0139
  0
VERTEX
  8
B1822G_1_2
 10
6.2119
 20
1.7383
 30
0
 70
     0
  0
VERTEX
  8
B1822G_1_2
 10
6.4284
 20
1.7383
 30
0
 70
     0
  0
SEQEND
  0
POLYLINE
  8
B1822G_1_2
  6
CONTINUOUS
 62
     7
 66
     1
 40
0.0139
 41
0.0139
  0
VERTEX
  8
B1822G_1_2
 10
6.4284
 20
2.4883
 30
0
 70
     0
  0
VERTEX
  8
B1822G_1_2
 10
6.2119
 20
2.4883
 30
0
 70
     0
  0
SEQEND
  0
POLYLINE
  8
B1822G_1_2
  6
CONTINUOUS
 62
     7
 66
     1
 40
0.0139
 41
0.0139
  0
VERTEX
  8
B1822G_1_2
 10
6.2119
 20
2.4883
 30
0
 70
     0
  0
VERTEX
  8
B1822G_1_2
 10
6.1037
 20
2.3008
 30
0
 70
     0
  0
SEQEND
  0
POLYLINE
  8
B1822G_1_2
  6
CONTINUOUS
 62
     7
 66
     1
 40
0.0139
 41
0.0139
  0
VERTEX
  8
B1822G_1_2
 10
6.1037
 20
2.3008
 30
0
 70
     0
  0
VERTEX
  8
B1822G_1_2
 10
6.0817
 20
2.2562
 30
0
 70
     0
  0
VERTEX
  8
B1822G_1_2
 10
6.0659
 20
2.2097
 30
0
 70
     0
  0
VERTEX
  8
B1822G_1_2
 10
6.0565
 20
2.1619
 30
0
 70
     0
  0
VERTEX
  8
B1822G_1_2
 10
6.0534
 20
2.1134
 30
0
 70
     0
  0
VERTEX
  8
B1822G_1_2
 10
6.0565
 20
2.065
 30
0
 70
     0
  0
VERTEX
  8
B1822G_1_2
 10
6.0659
 20
2.0172
 30
0
 70
     0
  0
VERTEX
  8
B1822G_1_2
 10
6.0816
 20
1.9706
 30
0
 70
     0
  0
VERTEX
  8
B1822G_1_2
 10
6.1036
 20
1.926
 30
0
 70
     0
  0
SEQEND
  0
POLYLINE
  8
B1822G_1_2
  6
CONTINUOUS
 62
     7
 66
     1
 40
0.0139
 41
0.0139
  0
VERTEX
  8
B1822G_1_2
 10
6.4284
 20
2.4883
 30
0
 70
     0
  0
VERTEX
  8
B1822G_1_2
 10
6.3788
 20
2.4851
 30
0
 70
     0
  0
VERTEX
  8
B1822G_1_2
 10
6.3306
 20
2.4754
 30
0
 70
     0
  0
VERTEX
  8
B1822G_1_2
 10
6.2844
 20
2.4597
 30
0
 70
     0
  0
VERTEX
  8
B1822G_1_2
 10
6.2409
 20
2.4382
 30
0
 70
     0
  0
VERTEX
  8
B1822G_1_2
 10
6.2005
 20
2.4112
 30
0
 70
     0
  0
VERTEX
  8
B1822G_1_2
 10
6.1638
 20
2.3791
 30
0
 70
     0
  0
VERTEX
  8
B1822G_1_2
 10
6.1313
 20
2.3422
 30
0
 70
     0
  0
VERTEX
  8
B1822G_1_2
 10
6.1037
 20
2.3008
 30
0
 70
     0
  0
SEQEND
  0
POLYLINE
  8
B1822G_1_2
  6
CONTINUOUS
 62
     7
 66
     1
 40
0.0139
 41
0.0139
  0
VERTEX
  8
B1822G_1_2
 10
3.4283
 20
59.9883
 30
0
 70
     0
  0
VERTEX
  8
B1822G_1_2
 10
3.478
 20
59.9916
 30
0
 70
     0
  0
VERTEX
  8
B1822G_1_2
 10
3.5262
 20
60.0012
 30
0
 70
     0
  0
VERTEX
  8
B1822G_1_2
 10
3.5723
 20
60.017
 30
0
 70
     0
  0
VERTEX
  8
B1822G_1_2
 10
3.6158
 20
60.0385
 30
0
 70
     0
  0
VERTEX
  8
B1822G_1_2
 10
3.6562
 20
60.0654
 30
0
 70
     0
  0
VERTEX
  8
B1822G_1_2
 10
3.693
 20
60.0975
 30
0
 70
     0
  0
VERTEX
  8
B1822G_1_2
 10
3.7254
 20
60.1343
 30
0
 70
     0
  0
VERTEX
  8
B1822G_1_2
 10
3.7531
 20
60.1757
 30
0
 70
     0
  0
SEQEND
  0
POLYLINE
  8
B1822G_1_2
  6
CONTINUOUS
 62
     7
 66
     1
 40
0.0139
 41
0.0139
  0
VERTEX
  8
B1822G_1_2
 10
3.7531
 20
60.1757
 30
0
 70
     0
  0
VERTEX
  8
B1822G_1_2
 10
3.7751
 20
60.2204
 30
0
 70
     0
  0
VERTEX
  8
B1822G_1_2
 10
3.7909
 20
60.2669
 30
0
 70
     0
  0
VERTEX
  8
B1822G_1_2
 10
3.8003
 20
60.3148
 30
0
 70
     0
  0
VERTEX
  8
B1822G_1_2
 10
3.8035
 20
60.3632
 30
0
 70
     0
  0
VERTEX
  8
B1822G_1_2
 10
3.8004
 20
60.4117
 30
0
 70
     0
  0
VERTEX
  8
B1822G_1_2
 10
3.7909
 20
60.4595
 30
0
 70
     0
  0
VERTEX
  8
B1822G_1_2
 10
3.7752
 20
60.5061
 30
0
 70
     0
  0
VERTEX
  8
B1822G_1_2
 10
3.7532
 20
60.5508
 30
0
 70
     0
  0
SEQEND
  0
POLYLINE
  8
B1822G_1_2
  6
CONTINUOUS
 62
     7
 66
     1
 40
0.0139
 41
0.0139
  0
VERTEX
  8
B1822G_1_2
 10
3.1036
 20
60.176
 30
0
 70
     0
  0
VERTEX
  8
B1822G_1_2
 10
3.1312
 20
60.1346
 30
0
 70
     0
  0
VERTEX
  8
B1822G_1_2
 10
3.1637
 20
60.0977
 30
0
 70
     0
  0
VERTEX
  8
B1822G_1_2
 10
3.2004
 20
60.0656
 30
0
 70
     0
  0
VERTEX
  8
B1822G_1_2
 10
3.2408
 20
60.0386
 30
0
 70
     0
  0
VERTEX
  8
B1822G_1_2
 10
3.2843
 20
60.0171
 30
0
 70
     0
  0
VERTEX
  8
B1822G_1_2
 10
3.3304
 20
60.0013
 30
0
 70
     0
  0
VERTEX
  8
B1822G_1_2
 10
3.3786
 20
59.9916
 30
0
 70
     0
  0
VERTEX
  8
B1822G_1_2
 10
3.4283
 20
59.9883
 30
0
 70
     0
  0
SEQEND
  0
POLYLINE
  8
B1822G_1_2
  6
CONTINUOUS
 62
     7
 66
     1
 40
0.0139
 41
0.0139
  0
VERTEX
  8
B1822G_1_2
 10
3.7532
 20
60.5508
 30
0
 70
     0
  0
VERTEX
  8
B1822G_1_2
 10
3.6449
 20
60.7383
 30
0
 70
     0
  0
SEQEND
  0
POLYLINE
  8
B1822G_1_2
  6
CONTINUOUS
 62
     7
 66
     1
 40
0.0139
 41
0.0139
  0
VERTEX
  8
B1822G_1_2
 10
3.6449
 20
60.7383
 30
0
 70
     0
  0
VERTEX
  8
B1822G_1_2
 10
3.4284
 20
60.7383
 30
0
 70
     0
  0
SEQEND
  0
POLYLINE
  8
B1822G_1_2
  6
CONTINUOUS
 62
     7
 66
     1
 40
0.0139
 41
0.0139
  0
VERTEX
  8
B1822G_1_2
 10
3.7532
 20
60.1758
 30
0
 70
     0
  0
VERTEX
  8
B1822G_1_2
 10
3.8614
 20
60.3633
 30
0
 70
     0
  0
SEQEND
  0
POLYLINE
  8
B1822G_1_2
  6
CONTINUOUS
 62
     7
 66
     1
 40
0.0139
 41
0.0139
  0
VERTEX
  8
B1822G_1_2
 10
3.8614
 20
60.3633
 30
0
 70
     0
  0
VERTEX
  8
B1822G_1_2
 10
3.7532
 20
60.5508
 30
0
 70
     0
  0
SEQEND
  0
POLYLINE
  8
B1822G_1_2
  6
CONTINUOUS
 62
     7
 66
     1
 40
0.0139
 41
0.0139
  0
VERTEX
  8
B1822G_1_2
 10
3.6449
 20
59.9883
 30
0
 70
     0
  0
VERTEX
  8
B1822G_1_2
 10
3.7532
 20
60.1758
 30
0
 70
     0
  0
SEQEND
  0
POLYLINE
  8
B1822G_1_2
  6
CONTINUOUS
 62
     7
 66
     1
 40
0.0139
 41
0.0139
  0
VERTEX
  8
B1822G_1_2
 10
3.7532
 20
60.5508
 30
0
 70
     0
  0
VERTEX
  8
B1822G_1_2
 10
3.7255
 20
60.5922
 30
0
 70
     0
  0
VERTEX
  8
B1822G_1_2
 10
3.6931
 20
60.6291
 30
0
 70
     0
  0
VERTEX
  8
B1822G_1_2
 10
3.6564
 20
60.6612
 30
0
 70
     0
  0
VERTEX
  8
B1822G_1_2
 10
3.616
 20
60.6882
 30
0
 70
     0
  0
VERTEX
  8
B1822G_1_2
 10
3.5724
 20
60.7097
 30
0
 70
     0
  0
VERTEX
  8
B1822G_1_2
 10
3.5263
 20
60.7254
 30
0
 70
     0
  0
VERTEX
  8
B1822G_1_2
 10
3.4781
 20
60.7351
 30
0
 70
     0
  0
VERTEX
  8
B1822G_1_2
 10
3.4284
 20
60.7383
 30
0
 70
     0
  0
SEQEND
  0
POLYLINE
  8
B1822G_1_2
  6
CONTINUOUS
 62
     7
 66
     1
 40
0.0139
 41
0.0139
  0
VERTEX
  8
B1822G_1_2
 10
3.1037
 20
60.1758
 30
0
 70
     0
  0
VERTEX
  8
B1822G_1_2
 10
3.2119
 20
59.9883
 30
0
 70
     0
  0
SEQEND
  0
POLYLINE
  8
B1822G_1_2
  6
CONTINUOUS
 62
     7
 66
     1
 40
0.0139
 41
0.0139
  0
VERTEX
  8
B1822G_1_2
 10
3.1037
 20
60.5508
 30
0
 70
     0
  0
VERTEX
  8
B1822G_1_2
 10
2.9954
 20
60.3633
 30
0
 70
     0
  0
SEQEND
  0
POLYLINE
  8
B1822G_1_2
  6
CONTINUOUS
 62
     7
 66
     1
 40
0.0139
 41
0.0139
  0
VERTEX
  8
B1822G_1_2
 10
2.9954
 20
60.3633
 30
0
 70
     0
  0
VERTEX
  8
B1822G_1_2
 10
3.1037
 20
60.1758
 30
0
 70
     0
  0
SEQEND
  0
POLYLINE
  8
B1822G_1_2
  6
CONTINUOUS
 62
     7
 66
     1
 40
0.0139
 41
0.0139
  0
VERTEX
  8
B1822G_1_2
 10
3.2119
 20
59.9883
 30
0
 70
     0
  0
VERTEX
  8
B1822G_1_2
 10
3.4284
 20
59.9883
 30
0
 70
     0
  0
SEQEND
  0
POLYLINE
  8
B1822G_1_2
  6
CONTINUOUS
 62
     7
 66
     1
 40
0.0139
 41
0.0139
  0
VERTEX
  8
B1822G_1_2
 10
3.4284
 20
59.9883
 30
0
 70
     0
  0
VERTEX
  8
B1822G_1_2
 10
3.6449
 20
59.9883
 30
0
 70
     0
  0
SEQEND
  0
POLYLINE
  8
B1822G_1_2
  6
CONTINUOUS
 62
     7
 66
     1
 40
0.0139
 41
0.0139
  0
VERTEX
  8
B1822G_1_2
 10
3.4284
 20
60.7383
 30
0
 70
     0
  0
VERTEX
  8
B1822G_1_2
 10
3.2119
 20
60.7383
 30
0
 70
     0
  0
SEQEND
  0
POLYLINE
  8
B1822G_1_2
  6
CONTINUOUS
 62
     7
 66
     1
 40
0.0139
 41
0.0139
  0
VERTEX
  8
B1822G_1_2
 10
3.2119
 20
60.7383
 30
0
 70
     0
  0
VERTEX
  8
B1822G_1_2
 10
3.1037
 20
60.5508
 30
0
 70
     0
  0
SEQEND
  0
POLYLINE
  8
B1822G_1_2
  6
CONTINUOUS
 62
     7
 66
     1
 40
0.0139
 41
0.0139
  0
VERTEX
  8
B1822G_1_2
 10
3.1037
 20
60.5508
 30
0
 70
     0
  0
VERTEX
  8
B1822G_1_2
 10
3.0817
 20
60.5062
 30
0
 70
     0
  0
VERTEX
  8
B1822G_1_2
 10
3.0659
 20
60.4597
 30
0
 70
     0
  0
VERTEX
  8
B1822G_1_2
 10
3.0565
 20
60.4119
 30
0
 70
     0
  0
VERTEX
  8
B1822G_1_2
 10
3.0534
 20
60.3634
 30
0
 70
     0
  0
VERTEX
  8
B1822G_1_2
 10
3.0565
 20
60.315
 30
0
 70
     0
  0
VERTEX
  8
B1822G_1_2
 10
3.0659
 20
60.2672
 30
0
 70
     0
  0
VERTEX
  8
B1822G_1_2
 10
3.0816
 20
60.2206
 30
0
 70
     0
  0
VERTEX
  8
B1822G_1_2
 10
3.1036
 20
60.176
 30
0
 70
     0
  0
SEQEND
  0
POLYLINE
  8
B1822G_1_2
  6
CONTINUOUS
 62
     7
 66
     1
 40
0.0139
 41
0.0139
  0
VERTEX
  8
B1822G_1_2
 10
3.4284
 20
60.7383
 30
0
 70
     0
  0
VERTEX
  8
B1822G_1_2
 10
3.3788
 20
60.7351
 30
0
 70
     0
  0
VERTEX
  8
B1822G_1_2
 10
3.3306
 20
60.7254
 30
0
 70
     0
  0
VERTEX
  8
B1822G_1_2
 10
3.2844
 20
60.7097
 30
0
 70
     0
  0
VERTEX
  8
B1822G_1_2
 10
3.2409
 20
60.6882
 30
0
 70
     0
  0
VERTEX
  8
B1822G_1_2
 10
3.2005
 20
60.6612
 30
0
 70
     0
  0
VERTEX
  8
B1822G_1_2
 10
3.1638
 20
60.6291
 30
0
 70
     0
  0
VERTEX
  8
B1822G_1_2
 10
3.1313
 20
60.5922
 30
0
 70
     0
  0
VERTEX
  8
B1822G_1_2
 10
3.1037
 20
60.5508
 30
0
 70
     0
  0
SEQEND
  0
POLYLINE
  8
B1822G_1_2
  6
CONTINUOUS
 62
     7
 66
     1
 40
0.0139
 41
0.0139
  0
VERTEX
  8
B1822G_1_2
 10
6.4283
 20
59.9883
 30
0
 70
     0
  0
VERTEX
  8
B1822G_1_2
 10
6.478
 20
59.9916
 30
0
 70
     0
  0
VERTEX
  8
B1822G_1_2
 10
6.5262
 20
60.0012
 30
0
 70
     0
  0
VERTEX
  8
B1822G_1_2
 10
6.5723
 20
60.017
 30
0
 70
     0
  0
VERTEX
  8
B1822G_1_2
 10
6.6158
 20
60.0385
 30
0
 70
     0
  0
VERTEX
  8
B1822G_1_2
 10
6.6562
 20
60.0654
 30
0
 70
     0
  0
VERTEX
  8
B1822G_1_2
 10
6.693
 20
60.0975
 30
0
 70
     0
  0
VERTEX
  8
B1822G_1_2
 10
6.7254
 20
60.1343
 30
0
 70
     0
  0
VERTEX
  8
B1822G_1_2
 10
6.7531
 20
60.1757
 30
0
 70
     0
  0
SEQEND
  0
POLYLINE
  8
B1822G_1_2
  6
CONTINUOUS
 62
     7
 66
     1
 40
0.0139
 41
0.0139
  0
VERTEX
  8
B1822G_1_2
 10
6.7531
 20
60.1757
 30
0
 70
     0
  0
VERTEX
  8
B1822G_1_2
 10
6.7751
 20
60.2204
 30
0
 70
     0
  0
VERTEX
  8
B1822G_1_2
 10
6.7909
 20
60.2669
 30
0
 70
     0
  0
VERTEX
  8
B1822G_1_2
 10
6.8003
 20
60.3148
 30
0
 70
     0
  0
VERTEX
  8
B1822G_1_2
 10
6.8035
 20
60.3632
 30
0
 70
     0
  0
VERTEX
  8
B1822G_1_2
 10
6.8004
 20
60.4117
 30
0
 70
     0
  0
VERTEX
  8
B1822G_1_2
 10
6.7909
 20
60.4595
 30
0
 70
     0
  0
VERTEX
  8
B1822G_1_2
 10
6.7752
 20
60.5061
 30
0
 70
     0
  0
VERTEX
  8
B1822G_1_2
 10
6.7532
 20
60.5508
 30
0
 70
     0
  0
SEQEND
  0
POLYLINE
  8
B1822G_1_2
  6
CONTINUOUS
 62
     7
 66
     1
 40
0.0139
 41
0.0139
  0
VERTEX
  8
B1822G_1_2
 10
6.1036
 20
60.176
 30
0
 70
     0
  0
VERTEX
  8
B1822G_1_2
 10
6.1312
 20
60.1346
 30
0
 70
     0
  0
VERTEX
  8
B1822G_1_2
 10
6.1637
 20
60.0977
 30
0
 70
     0
  0
VERTEX
  8
B1822G_1_2
 10
6.2004
 20
60.0656
 30
0
 70
     0
  0
VERTEX
  8
B1822G_1_2
 10
6.2408
 20
60.0386
 30
0
 70
     0
  0
VERTEX
  8
B1822G_1_2
 10
6.2843
 20
60.0171
 30
0
 70
     0
  0
VERTEX
  8
B1822G_1_2
 10
6.3304
 20
60.0013
 30
0
 70
     0
  0
VERTEX
  8
B1822G_1_2
 10
6.3786
 20
59.9916
 30
0
 70
     0
  0
VERTEX
  8
B1822G_1_2
 10
6.4283
 20
59.9883
 30
0
 70
     0
  0
SEQEND
  0
POLYLINE
  8
B1822G_1_2
  6
CONTINUOUS
 62
     7
 66
     1
 40
0.0139
 41
0.0139
  0
VERTEX
  8
B1822G_1_2
 10
6.7532
 20
60.1758
 30
0
 70
     0
  0
VERTEX
  8
B1822G_1_2
 10
6.8614
 20
60.3633
 30
0
 70
     0
  0
SEQEND
  0
POLYLINE
  8
B1822G_1_2
  6
CONTINUOUS
 62
     7
 66
     1
 40
0.0139
 41
0.0139
  0
VERTEX
  8
B1822G_1_2
 10
6.8614
 20
60.3633
 30
0
 70
     0
  0
VERTEX
  8
B1822G_1_2
 10
6.7532
 20
60.5508
 30
0
 70
     0
  0
SEQEND
  0
POLYLINE
  8
B1822G_1_2
  6
CONTINUOUS
 62
     7
 66
     1
 40
0.0139
 41
0.0139
  0
VERTEX
  8
B1822G_1_2
 10
6.6449
 20
59.9883
 30
0
 70
     0
  0
VERTEX
  8
B1822G_1_2
 10
6.7532
 20
60.1758
 30
0
 70
     0
  0
SEQEND
  0
POLYLINE
  8
B1822G_1_2
  6
CONTINUOUS
 62
     7
 66
     1
 40
0.0139
 41
0.0139
  0
VERTEX
  8
B1822G_1_2
 10
6.7532
 20
60.5508
 30
0
 70
     0
  0
VERTEX
  8
B1822G_1_2
 10
6.6449
 20
60.7383
 30
0
 70
     0
  0
SEQEND
  0
POLYLINE
  8
B1822G_1_2
  6
CONTINUOUS
 62
     7
 66
     1
 40
0.0139
 41
0.0139
  0
VERTEX
  8
B1822G_1_2
 10
6.6449
 20
60.7383
 30
0
 70
     0
  0
VERTEX
  8
B1822G_1_2
 10
6.4284
 20
60.7383
 30
0
 70
     0
  0
SEQEND
  0
POLYLINE
  8
B1822G_1_2
  6
CONTINUOUS
 62
     7
 66
     1
 40
0.0139
 41
0.0139
  0
VERTEX
  8
B1822G_1_2
 10
6.7532
 20
60.5508
 30
0
 70
     0
  0
VERTEX
  8
B1822G_1_2
 10
6.7255
 20
60.5922
 30
0
 70
     0
  0
VERTEX
  8
B1822G_1_2
 10
6.6931
 20
60.6291
 30
0
 70
     0
  0
VERTEX
  8
B1822G_1_2
 10
6.6564
 20
60.6612
 30
0
 70
     0
  0
VERTEX
  8
B1822G_1_2
 10
6.616
 20
60.6882
 30
0
 70
     0
  0
VERTEX
  8
B1822G_1_2
 10
6.5724
 20
60.7097
 30
0
 70
     0
  0
VERTEX
  8
B1822G_1_2
 10
6.5263
 20
60.7254
 30
0
 70
     0
  0
VERTEX
  8
B1822G_1_2
 10
6.4781
 20
60.7351
 30
0
 70
     0
  0
VERTEX
  8
B1822G_1_2
 10
6.4284
 20
60.7383
 30
0
 70
     0
  0
SEQEND
  0
POLYLINE
  8
B1822G_1_2
  6
CONTINUOUS
 62
     7
 66
     1
 40
0.0139
 41
0.0139
  0
VERTEX
  8
B1822G_1_2
 10
6.1037
 20
60.1758
 30
0
 70
     0
  0
VERTEX
  8
B1822G_1_2
 10
6.2119
 20
59.9883
 30
0
 70
     0
  0
SEQEND
  0
POLYLINE
  8
B1822G_1_2
  6
CONTINUOUS
 62
     7
 66
     1
 40
0.0139
 41
0.0139
  0
VERTEX
  8
B1822G_1_2
 10
6.4284
 20
59.9883
 30
0
 70
     0
  0
VERTEX
  8
B1822G_1_2
 10
6.6449
 20
59.9883
 30
0
 70
     0
  0
SEQEND
  0
POLYLINE
  8
B1822G_1_2
  6
CONTINUOUS
 62
     7
 66
     1
 40
0.0139
 41
0.0139
  0
VERTEX
  8
B1822G_1_2
 10
6.2119
 20
59.9883
 30
0
 70
     0
  0
VERTEX
  8
B1822G_1_2
 10
6.4284
 20
59.9883
 30
0
 70
     0
  0
SEQEND
  0
POLYLINE
  8
B1822G_1_2
  6
CONTINUOUS
 62
     7
 66
     1
 40
0.0139
 41
0.0139
  0
VERTEX
  8
B1822G_1_2
 10
6.1037
 20
60.5508
 30
0
 70
     0
  0
VERTEX
  8
B1822G_1_2
 10
5.9954
 20
60.3633
 30
0
 70
     0
  0
SEQEND
  0
POLYLINE
  8
B1822G_1_2
  6
CONTINUOUS
 62
     7
 66
     1
 40
0.0139
 41
0.0139
  0
VERTEX
  8
B1822G_1_2
 10
5.9954
 20
60.3633
 30
0
 70
     0
  0
VERTEX
  8
B1822G_1_2
 10
6.1037
 20
60.1758
 30
0
 70
     0
  0
SEQEND
  0
POLYLINE
  8
B1822G_1_2
  6
CONTINUOUS
 62
     7
 66
     1
 40
0.0139
 41
0.0139
  0
VERTEX
  8
B1822G_1_2
 10
6.4284
 20
60.7383
 30
0
 70
     0
  0
VERTEX
  8
B1822G_1_2
 10
6.2119
 20
60.7383
 30
0
 70
     0
  0
SEQEND
  0
POLYLINE
  8
B1822G_1_2
  6
CONTINUOUS
 62
     7
 66
     1
 40
0.0139
 41
0.0139
  0
VERTEX
  8
B1822G_1_2
 10
6.2119
 20
60.7383
 30
0
 70
     0
  0
VERTEX
  8
B1822G_1_2
 10
6.1037
 20
60.5508
 30
0
 70
     0
  0
SEQEND
  0
POLYLINE
  8
B1822G_1_2
  6
CONTINUOUS
 62
     7
 66
     1
 40
0.0139
 41
0.0139
  0
VERTEX
  8
B1822G_1_2
 10
6.1037
 20
60.5508
 30
0
 70
     0
  0
VERTEX
  8
B1822G_1_2
 10
6.0817
 20
60.5062
 30
0
 70
     0
  0
VERTEX
  8
B1822G_1_2
 10
6.0659
 20
60.4597
 30
0
 70
     0
  0
VERTEX
  8
B1822G_1_2
 10
6.0565
 20
60.4119
 30
0
 70
     0
  0
VERTEX
  8
B1822G_1_2
 10
6.0534
 20
60.3634
 30
0
 70
     0
  0
VERTEX
  8
B1822G_1_2
 10
6.0565
 20
60.315
 30
0
 70
     0
  0
VERTEX
  8
B1822G_1_2
 10
6.0659
 20
60.2672
 30
0
 70
     0
  0
VERTEX
  8
B1822G_1_2
 10
6.0816
 20
60.2206
 30
0
 70
     0
  0
VERTEX
  8
B1822G_1_2
 10
6.1036
 20
60.176
 30
0
 70
     0
  0
SEQEND
  0
POLYLINE
  8
B1822G_1_2
  6
CONTINUOUS
 62
     7
 66
     1
 40
0.0139
 41
0.0139
  0
VERTEX
  8
B1822G_1_2
 10
6.4284
 20
60.7383
 30
0
 70
     0
  0
VERTEX
  8
B1822G_1_2
 10
6.3788
 20
60.7351
 30
0
 70
     0
  0
VERTEX
  8
B1822G_1_2
 10
6.3306
 20
60.7254
 30
0
 70
     0
  0
VERTEX
  8
B1822G_1_2
 10
6.2844
 20
60.7097
 30
0
 70
     0
  0
VERTEX
  8
B1822G_1_2
 10
6.2409
 20
60.6882
 30
0
 70
     0
  0
VERTEX
  8
B1822G_1_2
 10
6.2005
 20
60.6612
 30
0
 70
     0
  0
VERTEX
  8
B1822G_1_2
 10
6.1638
 20
60.6291
 30
0
 70
     0
  0
VERTEX
  8
B1822G_1_2
 10
6.1313
 20
60.5922
 30
0
 70
     0
  0
VERTEX
  8
B1822G_1_2
 10
6.1037
 20
60.5508
 30
0
 70
     0
  0
SEQEND
  0
ENDBLK
  8
B1822G_1_2
  0
BLOCK
  8
B1822G_1_2
  2
Group15
 70
     0
 10
0
 20
0
 30
0
  0
INSERT
  8
B1822G_1_2
  2
Group1
 10
0
 20
0
 30
0
  0
INSERT
  8
B1822G_1_2
  2
Group2
 10
0
 20
0
 30
0
  0
INSERT
  8
B1822G_1_2
  2
Group3
 10
0
 20
0
 30
0
  0
INSERT
  8
B1822G_1_2
  2
Group4
 10
0
 20
0
 30
0
  0
INSERT
  8
B1822G_1_2
  2
Group5
 10
0
 20
0
 30
0
  0
INSERT
  8
B1822G_1_2
  2
Group6
 10
0
 20
0
 30
0
  0
INSERT
  8
B1822G_1_2
  2
Group7
 10
0
 20
0
 30
0
  0
INSERT
  8
B1822G_1_2
  2
Group8
 10
0
 20
0
 30
0
  0
INSERT
  8
B1822G_1_2
  2
Group9
 10
0
 20
0
 30
0
  0
INSERT
  8
B1822G_1_2
  2
Group10
 10
0
 20
0
 30
0
  0
INSERT
  8
B1822G_1_2
  2
Group11
 10
0
 20
0
 30
0
  0
INSERT
  8
B1822G_1_2
  2
Group12
 10
0
 20
0
 30
0
  0
POLYLINE
  8
B1822G_1_2
  6
CONTINUOUS
 62
     7
 66
     1
 40
0.0139
 41
0.0139
  0
VERTEX
  8
B1822G_1_2
 10
9.5581
 20
18.8971
 30
0
 70
     0
  0
VERTEX
  8
B1822G_1_2
 10
9.5581
 20
13.2024
 30
0
 70
     0
  0
SEQEND
  0
POLYLINE
  8
B1822G_1_2
  6
CONTINUOUS
 62
     7
 66
     1
 40
0.0139
 41
0.0139
  0
VERTEX
  8
B1822G_1_2
 10
10.0581
 20
13.2024
 30
0
 70
     0
  0
VERTEX
  8
B1822G_1_2
 10
10.0581
 20
18.8971
 30
0
 70
     0
  0
SEQEND
  0
POLYLINE
  8
B1822G_1_2
  6
CONTINUOUS
 62
     7
 66
     1
 40
0.0139
 41
0.0139
  0
VERTEX
  8
B1822G_1_2
 10
9.1981
 20
57.3624
 30
0
 70
     0
  0
VERTEX
  8
B1822G_1_2
 10
9.1981
 20
56.9883
 30
0
 70
     0
  0
SEQEND
  0
POLYLINE
  8
B1822G_1_2
  6
CONTINUOUS
 62
     7
 66
     1
 40
0.0139
 41
0.0139
  0
VERTEX
  8
B1822G_1_2
 10
9.3031
 20
36.7931
 30
0
 70
     0
  0
VERTEX
  8
B1822G_1_2
 10
9.5581
 20
18.9042
 30
0
 70
     0
  0
SEQEND
  0
POLYLINE
  8
B1822G_1_2
  6
CONTINUOUS
 62
     7
 66
     1
 40
0.0139
 41
0.0139
  0
VERTEX
  8
B1822G_1_2
 10
9.6981
 20
44.1677
 30
0
 70
     0
  0
VERTEX
  8
B1822G_1_2
 10
9.6981
 20
57.3624
 30
0
 70
     0
  0
SEQEND
  0
POLYLINE
  8
B1822G_1_2
  6
CONTINUOUS
 62
     7
 66
     1
 40
0.0139
 41
0.0139
  0
VERTEX
  8
B1822G_1_2
 10
10.058
 20
18.9113
 30
0
 70
     0
  0
VERTEX
  8
B1822G_1_2
 10
9.6982
 20
44.1606
 30
0
 70
     0
  0
SEQEND
  0
INSERT
  8
B1822G_1_2
  2
Group13
 10
0
 20
0
 30
0
  0
INSERT
  8
B1822G_1_2
  2
Group14
 10
0
 20
0
 30
0
  0
ENDBLK
  8
B1822G_1_2
  0
ENDSEC
  0
SECTION
  2
ENTITIES
  0
INSERT
  8
B1822G_1_2
  2
Group15
 10
0
 20
0
 30
0
  0
ENDSEC
  0
EOF
