  0
SECTION
  2
HEADER
  9
$ACADVER
  1
AC1002
  9
$INSBASE
 10
0.0
 20
0.0
  9
$EXTMIN
 10
0.0
 20
0.0
  9
$EXTMAX
 10
119.9861
 20
59.9861
  9
$LIMMIN
 10
0.0
 20
0.0
  9
$LIMMAX
 10
119.9861
 20
59.9861
  9
$VIEWCTR
 10
6.591288
 20
4.579184
  9
$VIEWSIZE
 40
9.158369
  9
$SNAPMODE
 70
     1
  9
$SNAPUNIT
 10
0.125
 20
0.0
  9
$SNAPBASE
 10
0.0
 20
0.0
  9
$SNAPANG
 50
0.0
  9
$SNAPSTYLE
 70
     0
  9
$SNAPISOPAIR
 70
     0
  9
$GRIDMODE
 70
     0
  9
$GRIDUNIT
 10
0.125
 20
0.125
  9
$ORTHOMODE
 70
     0
  9
$REGENMODE
 70
     1
  9
$FILLMODE
 70
     1
  9
$QTEXTMODE
 70
     0
  9
$DRAGMODE
 70
     2
  9
$LTSCALE
 40
1.0
  9
$OSMODE
 70
     0
  9
$ATTMODE
 70
     1
  9
$TEXTSIZE
 40
0.2
  9
$TRACEWID
 40
0.05
  9
$TEXTSTYLE
  7
STANDARD
  9
$CLAYER
  8
0
  9
$CELTYPE
  6
CONTINUOUS
  9
$CECOLOR
 62
     0
  9
$DIMSCALE
 40
1.0
  9
$DIMASZ
 40
0.18
  9
$DIMEXO
 40
0.0625
  9
$DIMDLI
 40
0.38
  9
$DIMRND
 40
0.0
  9
$DIMDLE
 40
0.0
  9
$DIMEXE
 40
0.18
  9
$DIMTP
 40
0.0
  9
$DIMTM
 40
0.0
  9
$DIMTXT
 40
0.18
  9
$DIMCEN
 40
0.09
  9
$DIMTSZ
 40
0.0
  9
$DIMTOL
 70
     0
  9
$DIMLIM
 70
     0
  9
$DIMTIH
 70
     1
  9
$DIMTOH
 70
     1
  9
$DIMSE1
 70
     0
  9
$DIMSE2
 70
     0
  9
$DIMTAD
 70
     0
  9
$DIMZIN
 70
     0
  9
$DIMBLK
  1

  9
$LUNITS
 70
     2
  9
$LUPREC
 70
     4
  9
$AXISMODE
 70
     0
  9
$AXISUNIT
 10
0.125
 20
0.125
  9
$SKETCHINC
 40
0.1
  9
$FILLETRAD
 40
0.0
  9
$AUNITS
 70
     0
  9
$AUPREC
 70
     0
  9
$MENU
  1
acad
  9
$ELEVATION
 40
0.0
  9
$THICKNESS
 40
0.0
  9
$VIEWDIR
 10
0.0
 20
0.0
 30
1.0
  9
$LIMCHECK
 70
     0
  9
$BLIPMODE
 70
     1
  9
$CHAMFERA
 40
0.0
  9
$CHAMFERB
 40
0.0
  9
$FASTZOOM
 70
     1
  9
$SKPOLY
 70
     0
  9
$TDCREATE
 40
0.000000000
  9
$TDUPDATE
 40
0.000000000
  9
$TDINDWG
 40
0.0000000000
  9
$TDUSRTIMER
 40
0.0000000000
  9
$USRTIMER
 70
     1
  9
$ANGBASE
 50
0.0
  9
$ANGDIR
 70
     0
  9
$PDMODE
 70
     0
  9
$PDSIZE
 40
0.0
  9
$PLINEWID
 40
0.0
  9
$COORDS
 70
     0
  9
$USERI1
 70
     0
  9
$USERI2
 70
     0
  9
$USERI3
 70
     0
  9
$USERI4
 70
     0
  9
$USERI5
 70
     0
  9
$USERR1
 40
0.0
  9
$USERR2
 40
0.0
  9
$USERR3
 40
0.0
  9
$USERR4
 40
0.0
  9
$USERR5
 40
0.0
  0
ENDSEC
  0
SECTION
  2
TABLES
  0
TABLE
  2
LTYPE
 70
     1
  0
LTYPE
  2
CONTINUOUS
 70
    64
  3
Descriptive Text
 72
    65
 73
     0
 40
0.0
  0
ENDTAB
  0
TABLE
  2
LAYER
 70
     3
  0
LAYER
  2
0
 70
     0
 62
     7
  6
CONTINUOUS
  0
LAYER
  2
MACK_GRANITE_265
 70
     0
 62
     7
  6
CONTINUOUS
  0
LAYER
  2
DV1_DEFAULT
 70
     0
 62
     7
  6
CONTINUOUS
  0
ENDTAB
  0
TABLE
  2
STYLE
 70
     2
  0
STYLE
  2
STANDARD
 70
    64
 40
0.0
 41
1.0
 50
0.0
 71
     0
 42
0.2
  3
txt
  4

  0
STYLE
  2
ARIAL
 70
    64
 40
0.0
 41
1.0
 50
0.0
 71
     0
 42
0.2
  3
arial
  4

  0
ENDTAB
  0
TABLE
  2
VIEW
 70
     0
  0
ENDTAB
  0
ENDSEC
  0
SECTION
  2
BLOCKS
  0
BLOCK
  8
MACK_GRANITE_265
  2
GROUP1
 70
     0
 10
0.0
 20
0.0
  0
POLYLINE
  8
MACK_GRANITE_265
  6
CONTINUOUS
 62
     7
 66
     1
  0
VERTEX
  8
MACK_GRANITE_265
  6
CONTINUOUS
 62
     7
 10
-138.6416
 20
-5.6674
  0
VERTEX
  8
MACK_GRANITE_265
  6
CONTINUOUS
 62
     7
 10
-129.6416
 20
6.3326
  0
SEQEND
  8
MACK_GRANITE_265
  6
CONTINUOUS
 62
     7
  0
POLYLINE
  8
MACK_GRANITE_265
  6
CONTINUOUS
 62
     7
 66
     1
  0
VERTEX
  8
MACK_GRANITE_265
  6
CONTINUOUS
 62
     7
 10
-129.6416
 20
6.3326
  0
VERTEX
  8
MACK_GRANITE_265
  6
CONTINUOUS
 62
     7
 10
-99.6416
 20
6.3326
  0
SEQEND
  8
MACK_GRANITE_265
  6
CONTINUOUS
 62
     7
  0
POLYLINE
  8
MACK_GRANITE_265
  6
CONTINUOUS
 62
     7
 66
     1
  0
VERTEX
  8
MACK_GRANITE_265
  6
CONTINUOUS
 62
     7
 10
-99.6416
 20
6.3326
  0
VERTEX
  8
MACK_GRANITE_265
  6
CONTINUOUS
 62
     7
 10
-96.4166
 20
2.0326
  0
SEQEND
  8
MACK_GRANITE_265
  6
CONTINUOUS
 62
     7
  0
POLYLINE
  8
MACK_GRANITE_265
  6
CONTINUOUS
 62
     7
 66
     1
  0
VERTEX
  8
MACK_GRANITE_265
  6
CONTINUOUS
 62
     7
 10
-96.4166
 20
2.0326
  0
VERTEX
  8
MACK_GRANITE_265
  6
CONTINUOUS
 62
     7
 10
-93.5182
 20
2.0326
  0
SEQEND
  8
MACK_GRANITE_265
  6
CONTINUOUS
 62
     7
  0
POLYLINE
  8
MACK_GRANITE_265
  6
CONTINUOUS
 62
     7
 66
     1
  0
VERTEX
  8
MACK_GRANITE_265
  6
CONTINUOUS
 62
     7
 10
-140.6416
 20
5.7368
  0
VERTEX
  8
MACK_GRANITE_265
  6
CONTINUOUS
 62
     7
 10
-143.6416
 20
5.7368
  0
SEQEND
  8
MACK_GRANITE_265
  6
CONTINUOUS
 62
     7
  0
POLYLINE
  8
MACK_GRANITE_265
  6
CONTINUOUS
 62
     7
 66
     1
  0
VERTEX
  8
MACK_GRANITE_265
  6
CONTINUOUS
 62
     7
 10
-140.6416
 20
-5.6674
  0
VERTEX
  8
MACK_GRANITE_265
  6
CONTINUOUS
 62
     7
 10
-138.6416
 20
-5.6674
  0
SEQEND
  8
MACK_GRANITE_265
  6
CONTINUOUS
 62
     7
  0
POLYLINE
  8
MACK_GRANITE_265
  6
CONTINUOUS
 62
     7
 66
     1
  0
VERTEX
  8
MACK_GRANITE_265
  6
CONTINUOUS
 62
     7
 10
-102.2515
 20
13.8168
  0
VERTEX
  8
MACK_GRANITE_265
  6
CONTINUOUS
 62
     7
 10
-102.3542
 20
16.815
  0
SEQEND
  8
MACK_GRANITE_265
  6
CONTINUOUS
 62
     7
  0
POLYLINE
  8
MACK_GRANITE_265
  6
CONTINUOUS
 62
     7
 66
     1
  0
VERTEX
  8
MACK_GRANITE_265
  6
CONTINUOUS
 62
     7
 10
-133.8814
 20
12.7327
  0
VERTEX
  8
MACK_GRANITE_265
  6
CONTINUOUS
 62
     7
 10
-133.9842
 20
15.7309
  0
SEQEND
  8
MACK_GRANITE_265
  6
CONTINUOUS
 62
     7
  0
POLYLINE
  8
MACK_GRANITE_265
  6
CONTINUOUS
 62
     7
 66
     1
  0
VERTEX
  8
MACK_GRANITE_265
  6
CONTINUOUS
 62
     7
 10
-95.2409
 20
8.5976
  0
VERTEX
  8
MACK_GRANITE_265
  6
CONTINUOUS
 62
     7
 10
-92.3392
 20
9.359
  0
SEQEND
  8
MACK_GRANITE_265
  6
CONTINUOUS
 62
     7
  0
POLYLINE
  8
MACK_GRANITE_265
  6
CONTINUOUS
 62
     7
 66
     1
  0
VERTEX
  8
MACK_GRANITE_265
  6
CONTINUOUS
 62
     7
 10
-87.2241
 20
31.6006
  0
VERTEX
  8
MACK_GRANITE_265
  6
CONTINUOUS
 62
     7
 10
-92.9718
 20
32.958
  0
SEQEND
  8
MACK_GRANITE_265
  6
CONTINUOUS
 62
     7
  0
POLYLINE
  8
MACK_GRANITE_265
  6
CONTINUOUS
 62
     7
 66
     1
  0
VERTEX
  8
MACK_GRANITE_265
  6
CONTINUOUS
 62
     7
 10
-91.6416
 20
38.0326
  0
VERTEX
  8
MACK_GRANITE_265
  6
CONTINUOUS
 62
     7
 10
-88.0722
 20
37.1764
  0
SEQEND
  8
MACK_GRANITE_265
  6
CONTINUOUS
 62
     7
  0
POLYLINE
  8
MACK_GRANITE_265
  6
CONTINUOUS
 62
     7
 66
     1
  0
VERTEX
  8
MACK_GRANITE_265
  6
CONTINUOUS
 62
     7
 10
-149.6416
 20
-9.6674
  0
VERTEX
  8
MACK_GRANITE_265
  6
CONTINUOUS
 62
     7
 10
-149.6416
 20
-20.1674
  0
SEQEND
  8
MACK_GRANITE_265
  6
CONTINUOUS
 62
     7
  0
POLYLINE
  8
MACK_GRANITE_265
  6
CONTINUOUS
 62
     7
 66
     1
  0
VERTEX
  8
MACK_GRANITE_265
  6
CONTINUOUS
 62
     7
 10
-48.892
 20
14.1826
  0
VERTEX
  8
MACK_GRANITE_265
  6
CONTINUOUS
 62
     7
 10
-49.642
 20
14.1826
  0
SEQEND
  8
MACK_GRANITE_265
  6
CONTINUOUS
 62
     7
  0
POLYLINE
  8
MACK_GRANITE_265
  6
CONTINUOUS
 62
     7
 66
     1
  0
VERTEX
  8
MACK_GRANITE_265
  6
CONTINUOUS
 62
     7
 10
-49.642
 20
18.1826
  0
VERTEX
  8
MACK_GRANITE_265
  6
CONTINUOUS
 62
     7
 10
-48.892
 20
18.1826
  0
SEQEND
  8
MACK_GRANITE_265
  6
CONTINUOUS
 62
     7
  0
POLYLINE
  8
MACK_GRANITE_265
  6
CONTINUOUS
 62
     7
 66
     1
  0
VERTEX
  8
MACK_GRANITE_265
  6
CONTINUOUS
 62
     7
 10
-54.642
 20
-22.9674
  0
VERTEX
  8
MACK_GRANITE_265
  6
CONTINUOUS
 62
     7
 10
-24.642
 20
-22.9674
  0
SEQEND
  8
MACK_GRANITE_265
  6
CONTINUOUS
 62
     7
  0
POLYLINE
  8
MACK_GRANITE_265
  6
CONTINUOUS
 62
     7
 66
     1
  0
VERTEX
  8
MACK_GRANITE_265
  6
CONTINUOUS
 62
     7
 10
-36.142
 20
65.0326
  0
VERTEX
  8
MACK_GRANITE_265
  6
CONTINUOUS
 62
     7
 10
-36.142
 20
17.0326
  0
SEQEND
  8
MACK_GRANITE_265
  6
CONTINUOUS
 62
     7
  0
POLYLINE
  8
MACK_GRANITE_265
  6
CONTINUOUS
 62
     7
 66
     1
  0
VERTEX
  8
MACK_GRANITE_265
  6
CONTINUOUS
 62
     7
 10
-32.642
 20
97.0326
  0
VERTEX
  8
MACK_GRANITE_265
  6
CONTINUOUS
 62
     7
 10
-32.642
 20
65.0326
  0
SEQEND
  8
MACK_GRANITE_265
  6
CONTINUOUS
 62
     7
  0
POLYLINE
  8
MACK_GRANITE_265
  6
CONTINUOUS
 62
     7
 66
     1
  0
VERTEX
  8
MACK_GRANITE_265
  6
CONTINUOUS
 62
     7
 10
-24.642
 20
1.0326
  0
VERTEX
  8
MACK_GRANITE_265
  6
CONTINUOUS
 62
     7
 10
-54.642
 20
1.0326
  0
SEQEND
  8
MACK_GRANITE_265
  6
CONTINUOUS
 62
     7
  0
POLYLINE
  8
MACK_GRANITE_265
  6
CONTINUOUS
 62
     7
 66
     1
  0
VERTEX
  8
MACK_GRANITE_265
  6
CONTINUOUS
 62
     7
 10
-26.642
 20
9.0326
  0
VERTEX
  8
MACK_GRANITE_265
  6
CONTINUOUS
 62
     7
 10
-26.642
 20
17.0326
  0
SEQEND
  8
MACK_GRANITE_265
  6
CONTINUOUS
 62
     7
  0
POLYLINE
  8
MACK_GRANITE_265
  6
CONTINUOUS
 62
     7
 66
     1
  0
VERTEX
  8
MACK_GRANITE_265
  6
CONTINUOUS
 62
     7
 10
-23.142
 20
17.0326
  0
VERTEX
  8
MACK_GRANITE_265
  6
CONTINUOUS
 62
     7
 10
-23.142
 20
65.0326
  0
SEQEND
  8
MACK_GRANITE_265
  6
CONTINUOUS
 62
     7
  0
POLYLINE
  8
MACK_GRANITE_265
  6
CONTINUOUS
 62
     7
 66
     1
  0
VERTEX
  8
MACK_GRANITE_265
  6
CONTINUOUS
 62
     7
 10
-26.642
 20
65.0326
  0
VERTEX
  8
MACK_GRANITE_265
  6
CONTINUOUS
 62
     7
 10
-26.642
 20
97.0326
  0
SEQEND
  8
MACK_GRANITE_265
  6
CONTINUOUS
 62
     7
  0
POLYLINE
  8
MACK_GRANITE_265
  6
CONTINUOUS
 62
     7
 66
     1
  0
VERTEX
  8
MACK_GRANITE_265
  6
CONTINUOUS
 62
     7
 10
-24.642
 20
-22.9674
  0
VERTEX
  8
MACK_GRANITE_265
  6
CONTINUOUS
 62
     7
 10
-24.6416
 20
-22.9674
  0
SEQEND
  8
MACK_GRANITE_265
  6
CONTINUOUS
 62
     7
  0
POLYLINE
  8
MACK_GRANITE_265
  6
CONTINUOUS
 62
     7
 66
     1
  0
VERTEX
  8
MACK_GRANITE_265
  6
CONTINUOUS
 62
     7
 10
-84.7001
 20
66.9721
  0
VERTEX
  8
MACK_GRANITE_265
  6
CONTINUOUS
 62
     7
 10
-91.6416
 20
38.0326
  0
SEQEND
  8
MACK_GRANITE_265
  6
CONTINUOUS
 62
     7
  0
POLYLINE
  8
MACK_GRANITE_265
  6
CONTINUOUS
 62
     7
 66
     1
  0
VERTEX
  8
MACK_GRANITE_265
  6
CONTINUOUS
 62
     7
 10
-54.642
 20
1.0326
  0
VERTEX
  8
MACK_GRANITE_265
  6
CONTINUOUS
 62
     7
 10
-133.6166
 20
1.0326
  0
SEQEND
  8
MACK_GRANITE_265
  6
CONTINUOUS
 62
     7
  0
POLYLINE
  8
MACK_GRANITE_265
  6
CONTINUOUS
 62
     7
 66
     1
  0
VERTEX
  8
MACK_GRANITE_265
  6
CONTINUOUS
 62
     7
 10
-142.6416
 20
-12.2174
  0
VERTEX
  8
MACK_GRANITE_265
  6
CONTINUOUS
 62
     7
 10
-142.6416
 20
-5.6674
  0
SEQEND
  8
MACK_GRANITE_265
  6
CONTINUOUS
 62
     7
  0
POLYLINE
  8
MACK_GRANITE_265
  6
CONTINUOUS
 62
     7
 66
     1
  0
VERTEX
  8
MACK_GRANITE_265
  6
CONTINUOUS
 62
     7
 10
-36.642
 20
2.0326
  0
VERTEX
  8
MACK_GRANITE_265
  6
CONTINUOUS
 62
     7
 10
-42.642
 20
2.0326
  0
SEQEND
  8
MACK_GRANITE_265
  6
CONTINUOUS
 62
     7
  0
POLYLINE
  8
MACK_GRANITE_265
  6
CONTINUOUS
 62
     7
 66
     1
  0
VERTEX
  8
MACK_GRANITE_265
  6
CONTINUOUS
 62
     7
 10
-42.642
 20
2.0326
  0
VERTEX
  8
MACK_GRANITE_265
  6
CONTINUOUS
 62
     7
 10
-42.642
 20
65.1074
  0
SEQEND
  8
MACK_GRANITE_265
  6
CONTINUOUS
 62
     7
  0
POLYLINE
  8
MACK_GRANITE_265
  6
CONTINUOUS
 62
     7
 66
     1
  0
VERTEX
  8
MACK_GRANITE_265
  6
CONTINUOUS
 62
     7
 10
-36.642
 20
67.0359
  0
VERTEX
  8
MACK_GRANITE_265
  6
CONTINUOUS
 62
     7
 10
-36.642
 20
2.0326
  0
SEQEND
  8
MACK_GRANITE_265
  6
CONTINUOUS
 62
     7
  0
POLYLINE
  8
MACK_GRANITE_265
  6
CONTINUOUS
 62
     7
 66
     1
  0
VERTEX
  8
MACK_GRANITE_265
  6
CONTINUOUS
 62
     7
 10
-102.2515
 20
13.8168
  0
VERTEX
  8
MACK_GRANITE_265
  6
CONTINUOUS
 62
     7
 10
-133.8814
 20
12.7327
  0
SEQEND
  8
MACK_GRANITE_265
  6
CONTINUOUS
 62
     7
  0
POLYLINE
  8
MACK_GRANITE_265
  6
CONTINUOUS
 62
     7
 66
     1
  0
VERTEX
  8
MACK_GRANITE_265
  6
CONTINUOUS
 62
     7
 10
-143.6416
 20
-5.6674
  0
VERTEX
  8
MACK_GRANITE_265
  6
CONTINUOUS
 62
     7
 10
-143.6416
 20
5.7368
  0
SEQEND
  8
MACK_GRANITE_265
  6
CONTINUOUS
 62
     7
  0
POLYLINE
  8
MACK_GRANITE_265
  6
CONTINUOUS
 62
     7
 66
     1
  0
VERTEX
  8
MACK_GRANITE_265
  6
CONTINUOUS
 62
     7
 10
-140.6416
 20
-5.6674
  0
VERTEX
  8
MACK_GRANITE_265
  6
CONTINUOUS
 62
     7
 10
-143.6416
 20
-5.6674
  0
SEQEND
  8
MACK_GRANITE_265
  6
CONTINUOUS
 62
     7
  0
POLYLINE
  8
MACK_GRANITE_265
  6
CONTINUOUS
 62
     7
 66
     1
  0
VERTEX
  8
MACK_GRANITE_265
  6
CONTINUOUS
 62
     7
 10
-140.6416
 20
5.7368
  0
VERTEX
  8
MACK_GRANITE_265
  6
CONTINUOUS
 62
     7
 10
-140.6416
 20
-5.6674
  0
SEQEND
  8
MACK_GRANITE_265
  6
CONTINUOUS
 62
     7
  0
POLYLINE
  8
MACK_GRANITE_265
  6
CONTINUOUS
 62
     7
 66
     1
  0
VERTEX
  8
MACK_GRANITE_265
  6
CONTINUOUS
 62
     7
 10
-92.3392
 20
9.359
  0
VERTEX
  8
MACK_GRANITE_265
  6
CONTINUOUS
 62
     7
 10
-90.4166
 20
2.0326
  0
SEQEND
  8
MACK_GRANITE_265
  6
CONTINUOUS
 62
     7
  0
POLYLINE
  8
MACK_GRANITE_265
  6
CONTINUOUS
 62
     7
 66
     1
  0
VERTEX
  8
MACK_GRANITE_265
  6
CONTINUOUS
 62
     7
 10
-93.5182
 20
2.0326
  0
VERTEX
  8
MACK_GRANITE_265
  6
CONTINUOUS
 62
     7
 10
-95.2409
 20
8.5976
  0
SEQEND
  8
MACK_GRANITE_265
  6
CONTINUOUS
 62
     7
  0
POLYLINE
  8
MACK_GRANITE_265
  6
CONTINUOUS
 62
     7
 66
     1
  0
VERTEX
  8
MACK_GRANITE_265
  6
CONTINUOUS
 62
     7
 10
-133.9842
 20
15.7309
  0
VERTEX
  8
MACK_GRANITE_265
  6
CONTINUOUS
 62
     7
 10
-102.3542
 20
16.815
  0
SEQEND
  8
MACK_GRANITE_265
  6
CONTINUOUS
 62
     7
  0
POLYLINE
  8
MACK_GRANITE_265
  6
CONTINUOUS
 62
     7
 66
     1
  0
VERTEX
  8
MACK_GRANITE_265
  6
CONTINUOUS
 62
     7
 10
-90.4166
 20
2.0326
  0
VERTEX
  8
MACK_GRANITE_265
  6
CONTINUOUS
 62
     7
 10
-93.5182
 20
2.0326
  0
SEQEND
  8
MACK_GRANITE_265
  6
CONTINUOUS
 62
     7
  0
POLYLINE
  8
MACK_GRANITE_265
  6
CONTINUOUS
 62
     7
 66
     1
  0
VERTEX
  8
MACK_GRANITE_265
  6
CONTINUOUS
 62
     7
 10
-18.6416
 20
-12.2174
  0
VERTEX
  8
MACK_GRANITE_265
  6
CONTINUOUS
 62
     7
 10
-18.6416
 20
-16.9674
  0
SEQEND
  8
MACK_GRANITE_265
  6
CONTINUOUS
 62
     7
  0
POLYLINE
  8
MACK_GRANITE_265
  6
CONTINUOUS
 62
     7
 66
     1
  0
VERTEX
  8
MACK_GRANITE_265
  6
CONTINUOUS
 62
     7
 10
-60.642
 20
-4.9674
  0
VERTEX
  8
MACK_GRANITE_265
  6
CONTINUOUS
 62
     7
 10
-60.642
 20
-16.9674
  0
SEQEND
  8
MACK_GRANITE_265
  6
CONTINUOUS
 62
     7
  0
POLYLINE
  8
MACK_GRANITE_265
  6
CONTINUOUS
 62
     7
 66
     1
  0
VERTEX
  8
MACK_GRANITE_265
  6
CONTINUOUS
 62
     7
 10
-18.642
 20
-16.9674
  0
VERTEX
  8
MACK_GRANITE_265
  6
CONTINUOUS
 62
     7
 10
-18.642
 20
-4.9674
  0
SEQEND
  8
MACK_GRANITE_265
  6
CONTINUOUS
 62
     7
  0
POLYLINE
  8
MACK_GRANITE_265
  6
CONTINUOUS
 62
     7
 66
     1
  0
VERTEX
  8
MACK_GRANITE_265
  6
CONTINUOUS
 62
     7
 10
-24.642
 20
1.0326
  0
VERTEX
  8
MACK_GRANITE_265
  6
CONTINUOUS
 62
     7
 10
-24.642
 20
-22.9674
  0
SEQEND
  8
MACK_GRANITE_265
  6
CONTINUOUS
 62
     7
  0
POLYLINE
  8
MACK_GRANITE_265
  6
CONTINUOUS
 62
     7
 66
     1
  0
VERTEX
  8
MACK_GRANITE_265
  6
CONTINUOUS
 62
     7
 10
-54.642
 20
-22.9674
  0
VERTEX
  8
MACK_GRANITE_265
  6
CONTINUOUS
 62
     7
 10
-54.642
 20
-21.1674
  0
SEQEND
  8
MACK_GRANITE_265
  6
CONTINUOUS
 62
     7
  0
POLYLINE
  8
MACK_GRANITE_265
  6
CONTINUOUS
 62
     7
 66
     1
  0
VERTEX
  8
MACK_GRANITE_265
  6
CONTINUOUS
 62
     7
 10
-54.642
 20
-19.1674
  0
VERTEX
  8
MACK_GRANITE_265
  6
CONTINUOUS
 62
     7
 10
-54.642
 20
-3.1674
  0
SEQEND
  8
MACK_GRANITE_265
  6
CONTINUOUS
 62
     7
  0
POLYLINE
  8
MACK_GRANITE_265
  6
CONTINUOUS
 62
     7
 66
     1
  0
VERTEX
  8
MACK_GRANITE_265
  6
CONTINUOUS
 62
     7
 10
-54.642
 20
-1.1674
  0
VERTEX
  8
MACK_GRANITE_265
  6
CONTINUOUS
 62
     7
 10
-54.642
 20
1.0326
  0
SEQEND
  8
MACK_GRANITE_265
  6
CONTINUOUS
 62
     7
  0
POLYLINE
  8
MACK_GRANITE_265
  6
CONTINUOUS
 62
     7
 66
     1
  0
VERTEX
  8
MACK_GRANITE_265
  6
CONTINUOUS
 62
     7
 10
-32.642
 20
17.0326
  0
VERTEX
  8
MACK_GRANITE_265
  6
CONTINUOUS
 62
     7
 10
-32.642
 20
9.0326
  0
SEQEND
  8
MACK_GRANITE_265
  6
CONTINUOUS
 62
     7
  0
POLYLINE
  8
MACK_GRANITE_265
  6
CONTINUOUS
 62
     7
 66
     1
  0
VERTEX
  8
MACK_GRANITE_265
  6
CONTINUOUS
 62
     7
 10
-67.0827
 20
42.122
  0
VERTEX
  8
MACK_GRANITE_265
  6
CONTINUOUS
 62
     7
 10
-67.086
 20
42.1228
  0
SEQEND
  8
MACK_GRANITE_265
  6
CONTINUOUS
 62
     7
  0
POLYLINE
  8
MACK_GRANITE_265
  6
CONTINUOUS
 62
     7
 66
     1
  0
VERTEX
  8
MACK_GRANITE_265
  6
CONTINUOUS
 62
     7
 10
-33.3916
 20
-19.1674
  0
VERTEX
  8
MACK_GRANITE_265
  6
CONTINUOUS
 62
     7
 10
-81.3916
 20
-19.1674
  0
SEQEND
  8
MACK_GRANITE_265
  6
CONTINUOUS
 62
     7
  0
POLYLINE
  8
MACK_GRANITE_265
  6
CONTINUOUS
 62
     7
 66
     1
  0
VERTEX
  8
MACK_GRANITE_265
  6
CONTINUOUS
 62
     7
 10
-81.3916
 20
-19.1674
  0
VERTEX
  8
MACK_GRANITE_265
  6
CONTINUOUS
 62
     7
 10
-81.3916
 20
-21.1674
  0
SEQEND
  8
MACK_GRANITE_265
  6
CONTINUOUS
 62
     7
  0
POLYLINE
  8
MACK_GRANITE_265
  6
CONTINUOUS
 62
     7
 66
     1
  0
VERTEX
  8
MACK_GRANITE_265
  6
CONTINUOUS
 62
     7
 10
-33.3916
 20
-21.1674
  0
VERTEX
  8
MACK_GRANITE_265
  6
CONTINUOUS
 62
     7
 10
-33.3916
 20
-19.1674
  0
SEQEND
  8
MACK_GRANITE_265
  6
CONTINUOUS
 62
     7
  0
POLYLINE
  8
MACK_GRANITE_265
  6
CONTINUOUS
 62
     7
 66
     1
  0
VERTEX
  8
MACK_GRANITE_265
  6
CONTINUOUS
 62
     7
 10
-81.3916
 20
-21.1674
  0
VERTEX
  8
MACK_GRANITE_265
  6
CONTINUOUS
 62
     7
 10
-33.3916
 20
-21.1674
  0
SEQEND
  8
MACK_GRANITE_265
  6
CONTINUOUS
 62
     7
  0
POLYLINE
  8
MACK_GRANITE_265
  6
CONTINUOUS
 62
     7
 66
     1
  0
VERTEX
  8
MACK_GRANITE_265
  6
CONTINUOUS
 62
     7
 10
-33.3916
 20
-1.1674
  0
VERTEX
  8
MACK_GRANITE_265
  6
CONTINUOUS
 62
     7
 10
-81.3916
 20
-1.1674
  0
SEQEND
  8
MACK_GRANITE_265
  6
CONTINUOUS
 62
     7
  0
POLYLINE
  8
MACK_GRANITE_265
  6
CONTINUOUS
 62
     7
 66
     1
  0
VERTEX
  8
MACK_GRANITE_265
  6
CONTINUOUS
 62
     7
 10
-81.3916
 20
-1.1674
  0
VERTEX
  8
MACK_GRANITE_265
  6
CONTINUOUS
 62
     7
 10
-81.3916
 20
-3.1674
  0
SEQEND
  8
MACK_GRANITE_265
  6
CONTINUOUS
 62
     7
  0
POLYLINE
  8
MACK_GRANITE_265
  6
CONTINUOUS
 62
     7
 66
     1
  0
VERTEX
  8
MACK_GRANITE_265
  6
CONTINUOUS
 62
     7
 10
-81.3916
 20
-3.1674
  0
VERTEX
  8
MACK_GRANITE_265
  6
CONTINUOUS
 62
     7
 10
-33.3916
 20
-3.1674
  0
SEQEND
  8
MACK_GRANITE_265
  6
CONTINUOUS
 62
     7
  0
POLYLINE
  8
MACK_GRANITE_265
  6
CONTINUOUS
 62
     7
 66
     1
  0
VERTEX
  8
MACK_GRANITE_265
  6
CONTINUOUS
 62
     7
 10
-33.3916
 20
-3.1674
  0
VERTEX
  8
MACK_GRANITE_265
  6
CONTINUOUS
 62
     7
 10
-33.3916
 20
-1.1674
  0
SEQEND
  8
MACK_GRANITE_265
  6
CONTINUOUS
 62
     7
  0
POLYLINE
  8
MACK_GRANITE_265
  6
CONTINUOUS
 62
     7
 66
     1
  0
VERTEX
  8
MACK_GRANITE_265
  6
CONTINUOUS
 62
     7
 10
-83.642
 20
36.0326
  0
VERTEX
  8
MACK_GRANITE_265
  6
CONTINUOUS
 62
     7
 10
-83.642
 20
7.0326
  0
SEQEND
  8
MACK_GRANITE_265
  6
CONTINUOUS
 62
     7
  0
POLYLINE
  8
MACK_GRANITE_265
  6
CONTINUOUS
 62
     7
 66
     1
  0
VERTEX
  8
MACK_GRANITE_265
  6
CONTINUOUS
 62
     7
 10
-49.642
 20
61.0326
  0
VERTEX
  8
MACK_GRANITE_265
  6
CONTINUOUS
 62
     7
 10
-66.642
 20
61.0326
  0
SEQEND
  8
MACK_GRANITE_265
  6
CONTINUOUS
 62
     7
  0
POLYLINE
  8
MACK_GRANITE_265
  6
CONTINUOUS
 62
     7
 66
     1
  0
VERTEX
  8
MACK_GRANITE_265
  6
CONTINUOUS
 62
     7
 10
-83.642
 20
7.0326
  0
VERTEX
  8
MACK_GRANITE_265
  6
CONTINUOUS
 62
     7
 10
-49.642
 20
7.0326
  0
SEQEND
  8
MACK_GRANITE_265
  6
CONTINUOUS
 62
     7
  0
POLYLINE
  8
MACK_GRANITE_265
  6
CONTINUOUS
 62
     7
 66
     1
  0
VERTEX
  8
MACK_GRANITE_265
  6
CONTINUOUS
 62
     7
 10
-49.642
 20
7.0326
  0
VERTEX
  8
MACK_GRANITE_265
  6
CONTINUOUS
 62
     7
 10
-49.642
 20
61.0326
  0
SEQEND
  8
MACK_GRANITE_265
  6
CONTINUOUS
 62
     7
  0
POLYLINE
  8
MACK_GRANITE_265
  6
CONTINUOUS
 62
     7
 66
     1
  0
VERTEX
  8
MACK_GRANITE_265
  6
CONTINUOUS
 62
     7
 10
-84.2569
 20
6.2826
  0
VERTEX
  8
MACK_GRANITE_265
  6
CONTINUOUS
 62
     7
 10
-48.892
 20
6.2826
  0
SEQEND
  8
MACK_GRANITE_265
  6
CONTINUOUS
 62
     7
  0
POLYLINE
  8
MACK_GRANITE_265
  6
CONTINUOUS
 62
     7
 66
     1
  0
VERTEX
  8
MACK_GRANITE_265
  6
CONTINUOUS
 62
     7
 10
-78.2333
 20
61.7826
  0
VERTEX
  8
MACK_GRANITE_265
  6
CONTINUOUS
 62
     7
 10
-84.2569
 20
36.6842
  0
SEQEND
  8
MACK_GRANITE_265
  6
CONTINUOUS
 62
     7
  0
POLYLINE
  8
MACK_GRANITE_265
  6
CONTINUOUS
 62
     7
 66
     1
  0
VERTEX
  8
MACK_GRANITE_265
  6
CONTINUOUS
 62
     7
 10
-48.892
 20
61.7826
  0
VERTEX
  8
MACK_GRANITE_265
  6
CONTINUOUS
 62
     7
 10
-78.2333
 20
61.7826
  0
SEQEND
  8
MACK_GRANITE_265
  6
CONTINUOUS
 62
     7
  0
POLYLINE
  8
MACK_GRANITE_265
  6
CONTINUOUS
 62
     7
 66
     1
  0
VERTEX
  8
MACK_GRANITE_265
  6
CONTINUOUS
 62
     7
 10
-48.892
 20
6.2826
  0
VERTEX
  8
MACK_GRANITE_265
  6
CONTINUOUS
 62
     7
 10
-48.892
 20
61.7826
  0
SEQEND
  8
MACK_GRANITE_265
  6
CONTINUOUS
 62
     7
  0
POLYLINE
  8
MACK_GRANITE_265
  6
CONTINUOUS
 62
     7
 66
     1
  0
VERTEX
  8
MACK_GRANITE_265
  6
CONTINUOUS
 62
     7
 10
-67.642
 20
61.0326
  0
VERTEX
  8
MACK_GRANITE_265
  6
CONTINUOUS
 62
     7
 10
-77.642
 20
61.0326
  0
SEQEND
  8
MACK_GRANITE_265
  6
CONTINUOUS
 62
     7
  0
POLYLINE
  8
MACK_GRANITE_265
  6
CONTINUOUS
 62
     7
 66
     1
  0
VERTEX
  8
MACK_GRANITE_265
  6
CONTINUOUS
 62
     7
 10
-77.642
 20
61.0326
  0
VERTEX
  8
MACK_GRANITE_265
  6
CONTINUOUS
 62
     7
 10
-83.642
 20
36.0326
  0
SEQEND
  8
MACK_GRANITE_265
  6
CONTINUOUS
 62
     7
  0
POLYLINE
  8
MACK_GRANITE_265
  6
CONTINUOUS
 62
     7
 66
     1
  0
VERTEX
  8
MACK_GRANITE_265
  6
CONTINUOUS
 62
     7
 10
-51.642
 20
33.5326
  0
VERTEX
  8
MACK_GRANITE_265
  6
CONTINUOUS
 62
     7
 10
-51.642
 20
59.0326
  0
SEQEND
  8
MACK_GRANITE_265
  6
CONTINUOUS
 62
     7
  0
POLYLINE
  8
MACK_GRANITE_265
  6
CONTINUOUS
 62
     7
 66
     1
  0
VERTEX
  8
MACK_GRANITE_265
  6
CONTINUOUS
 62
     7
 10
-76.0652
 20
59.0326
  0
VERTEX
  8
MACK_GRANITE_265
  6
CONTINUOUS
 62
     7
 10
-82.0652
 20
34.0326
  0
SEQEND
  8
MACK_GRANITE_265
  6
CONTINUOUS
 62
     7
  0
POLYLINE
  8
MACK_GRANITE_265
  6
CONTINUOUS
 62
     7
 66
     1
  0
VERTEX
  8
MACK_GRANITE_265
  6
CONTINUOUS
 62
     7
 10
-51.642
 20
59.0326
  0
VERTEX
  8
MACK_GRANITE_265
  6
CONTINUOUS
 62
     7
 10
-66.642
 20
59.0326
  0
SEQEND
  8
MACK_GRANITE_265
  6
CONTINUOUS
 62
     7
  0
POLYLINE
  8
MACK_GRANITE_265
  6
CONTINUOUS
 62
     7
 66
     1
  0
VERTEX
  8
MACK_GRANITE_265
  6
CONTINUOUS
 62
     7
 10
-67.642
 20
59.0326
  0
VERTEX
  8
MACK_GRANITE_265
  6
CONTINUOUS
 62
     7
 10
-76.0652
 20
59.0326
  0
SEQEND
  8
MACK_GRANITE_265
  6
CONTINUOUS
 62
     7
  0
POLYLINE
  8
MACK_GRANITE_265
  6
CONTINUOUS
 62
     7
 66
     1
  0
VERTEX
  8
MACK_GRANITE_265
  6
CONTINUOUS
 62
     7
 10
-63.642
 20
33.5326
  0
VERTEX
  8
MACK_GRANITE_265
  6
CONTINUOUS
 62
     7
 10
-51.642
 20
33.5326
  0
SEQEND
  8
MACK_GRANITE_265
  6
CONTINUOUS
 62
     7
  0
POLYLINE
  8
MACK_GRANITE_265
  6
CONTINUOUS
 62
     7
 66
     1
  0
VERTEX
  8
MACK_GRANITE_265
  6
CONTINUOUS
 62
     7
 10
-72.0652
 20
28.5326
  0
VERTEX
  8
MACK_GRANITE_265
  6
CONTINUOUS
 62
     7
 10
-67.642
 20
31.1582
  0
SEQEND
  8
MACK_GRANITE_265
  6
CONTINUOUS
 62
     7
  0
POLYLINE
  8
MACK_GRANITE_265
  6
CONTINUOUS
 62
     7
 66
     1
  0
VERTEX
  8
MACK_GRANITE_265
  6
CONTINUOUS
 62
     7
 10
-66.642
 20
31.7518
  0
VERTEX
  8
MACK_GRANITE_265
  6
CONTINUOUS
 62
     7
 10
-63.642
 20
33.5326
  0
SEQEND
  8
MACK_GRANITE_265
  6
CONTINUOUS
 62
     7
  0
POLYLINE
  8
MACK_GRANITE_265
  6
CONTINUOUS
 62
     7
 66
     1
  0
VERTEX
  8
MACK_GRANITE_265
  6
CONTINUOUS
 62
     7
 10
-82.0652
 20
28.5326
  0
VERTEX
  8
MACK_GRANITE_265
  6
CONTINUOUS
 62
     7
 10
-72.0652
 20
28.5326
  0
SEQEND
  8
MACK_GRANITE_265
  6
CONTINUOUS
 62
     7
  0
POLYLINE
  8
MACK_GRANITE_265
  6
CONTINUOUS
 62
     7
 66
     1
  0
VERTEX
  8
MACK_GRANITE_265
  6
CONTINUOUS
 62
     7
 10
-82.0652
 20
34.0326
  0
VERTEX
  8
MACK_GRANITE_265
  6
CONTINUOUS
 62
     7
 10
-82.0652
 20
28.5326
  0
SEQEND
  8
MACK_GRANITE_265
  6
CONTINUOUS
 62
     7
  0
POLYLINE
  8
MACK_GRANITE_265
  6
CONTINUOUS
 62
     7
 66
     1
  0
VERTEX
  8
MACK_GRANITE_265
  6
CONTINUOUS
 62
     7
 10
-48.892
 20
17.8076
  0
VERTEX
  8
MACK_GRANITE_265
  6
CONTINUOUS
 62
     7
 10
-49.6416
 20
17.8076
  0
SEQEND
  8
MACK_GRANITE_265
  6
CONTINUOUS
 62
     7
  0
POLYLINE
  8
MACK_GRANITE_265
  6
CONTINUOUS
 62
     7
 66
     1
  0
VERTEX
  8
MACK_GRANITE_265
  6
CONTINUOUS
 62
     7
 10
-49.6416
 20
14.3076
  0
VERTEX
  8
MACK_GRANITE_265
  6
CONTINUOUS
 62
     7
 10
-48.892
 20
14.3076
  0
SEQEND
  8
MACK_GRANITE_265
  6
CONTINUOUS
 62
     7
  0
POLYLINE
  8
MACK_GRANITE_265
  6
CONTINUOUS
 62
     7
 66
     1
  0
VERTEX
  8
MACK_GRANITE_265
  6
CONTINUOUS
 62
     7
 10
-67.642
 20
61.2359
  0
VERTEX
  8
MACK_GRANITE_265
  6
CONTINUOUS
 62
     7
 10
-66.642
 20
61.2359
  0
SEQEND
  8
MACK_GRANITE_265
  6
CONTINUOUS
 62
     7
  0
POLYLINE
  8
MACK_GRANITE_265
  6
CONTINUOUS
 62
     7
 66
     1
  0
VERTEX
  8
MACK_GRANITE_265
  6
CONTINUOUS
 62
     7
 10
-67.642
 20
29.2359
  0
VERTEX
  8
MACK_GRANITE_265
  6
CONTINUOUS
 62
     7
 10
-66.642
 20
29.2359
  0
SEQEND
  8
MACK_GRANITE_265
  6
CONTINUOUS
 62
     7
  0
POLYLINE
  8
MACK_GRANITE_265
  6
CONTINUOUS
 62
     7
 66
     1
  0
VERTEX
  8
MACK_GRANITE_265
  6
CONTINUOUS
 62
     7
 10
-67.642
 20
31.6503
  0
VERTEX
  8
MACK_GRANITE_265
  6
CONTINUOUS
 62
     7
 10
-66.642
 20
31.6503
  0
SEQEND
  8
MACK_GRANITE_265
  6
CONTINUOUS
 62
     7
  0
POLYLINE
  8
MACK_GRANITE_265
  6
CONTINUOUS
 62
     7
 66
     1
  0
VERTEX
  8
MACK_GRANITE_265
  6
CONTINUOUS
 62
     7
 10
-67.642
 20
39.3264
  0
VERTEX
  8
MACK_GRANITE_265
  6
CONTINUOUS
 62
     7
 10
-66.642
 20
39.3264
  0
SEQEND
  8
MACK_GRANITE_265
  6
CONTINUOUS
 62
     7
  0
POLYLINE
  8
MACK_GRANITE_265
  6
CONTINUOUS
 62
     7
 66
     1
  0
VERTEX
  8
MACK_GRANITE_265
  6
CONTINUOUS
 62
     7
 10
-67.1577
 20
41.7409
  0
VERTEX
  8
MACK_GRANITE_265
  6
CONTINUOUS
 62
     7
 10
-66.642
 20
41.7409
  0
SEQEND
  8
MACK_GRANITE_265
  6
CONTINUOUS
 62
     7
  0
POLYLINE
  8
MACK_GRANITE_265
  6
CONTINUOUS
 62
     7
 66
     1
  0
VERTEX
  8
MACK_GRANITE_265
  6
CONTINUOUS
 62
     7
 10
-67.642
 20
44.7409
  0
VERTEX
  8
MACK_GRANITE_265
  6
CONTINUOUS
 62
     7
 10
-66.642
 20
44.7409
  0
SEQEND
  8
MACK_GRANITE_265
  6
CONTINUOUS
 62
     7
  0
POLYLINE
  8
MACK_GRANITE_265
  6
CONTINUOUS
 62
     7
 66
     1
  0
VERTEX
  8
MACK_GRANITE_265
  6
CONTINUOUS
 62
     7
 10
-67.642
 20
59.7359
  0
VERTEX
  8
MACK_GRANITE_265
  6
CONTINUOUS
 62
     7
 10
-66.642
 20
59.7359
  0
SEQEND
  8
MACK_GRANITE_265
  6
CONTINUOUS
 62
     7
  0
POLYLINE
  8
MACK_GRANITE_265
  6
CONTINUOUS
 62
     7
 66
     1
  0
VERTEX
  8
MACK_GRANITE_265
  6
CONTINUOUS
 62
     7
 10
-67.642
 20
57.7409
  0
VERTEX
  8
MACK_GRANITE_265
  6
CONTINUOUS
 62
     7
 10
-66.642
 20
57.7409
  0
SEQEND
  8
MACK_GRANITE_265
  6
CONTINUOUS
 62
     7
  0
POLYLINE
  8
MACK_GRANITE_265
  6
CONTINUOUS
 62
     7
 66
     1
  0
VERTEX
  8
MACK_GRANITE_265
  6
CONTINUOUS
 62
     7
 10
-67.642
 20
39.3264
  0
VERTEX
  8
MACK_GRANITE_265
  6
CONTINUOUS
 62
     7
 10
-67.642
 20
41.6228
  0
SEQEND
  8
MACK_GRANITE_265
  6
CONTINUOUS
 62
     7
  0
POLYLINE
  8
MACK_GRANITE_265
  6
CONTINUOUS
 62
     7
 66
     1
  0
VERTEX
  8
MACK_GRANITE_265
  6
CONTINUOUS
 62
     7
 10
-67.642
 20
59.7359
  0
VERTEX
  8
MACK_GRANITE_265
  6
CONTINUOUS
 62
     7
 10
-67.642
 20
61.2359
  0
SEQEND
  8
MACK_GRANITE_265
  6
CONTINUOUS
 62
     7
  0
POLYLINE
  8
MACK_GRANITE_265
  6
CONTINUOUS
 62
     7
 66
     1
  0
VERTEX
  8
MACK_GRANITE_265
  6
CONTINUOUS
 62
     7
 10
-67.642
 20
42.1129
  0
VERTEX
  8
MACK_GRANITE_265
  6
CONTINUOUS
 62
     7
 10
-67.642
 20
44.7409
  0
SEQEND
  8
MACK_GRANITE_265
  6
CONTINUOUS
 62
     7
  0
POLYLINE
  8
MACK_GRANITE_265
  6
CONTINUOUS
 62
     7
 66
     1
  0
VERTEX
  8
MACK_GRANITE_265
  6
CONTINUOUS
 62
     7
 10
-67.642
 20
44.7409
  0
VERTEX
  8
MACK_GRANITE_265
  6
CONTINUOUS
 62
     7
 10
-67.642
 20
57.7409
  0
SEQEND
  8
MACK_GRANITE_265
  6
CONTINUOUS
 62
     7
  0
POLYLINE
  8
MACK_GRANITE_265
  6
CONTINUOUS
 62
     7
 66
     1
  0
VERTEX
  8
MACK_GRANITE_265
  6
CONTINUOUS
 62
     7
 10
-67.642
 20
57.7409
  0
VERTEX
  8
MACK_GRANITE_265
  6
CONTINUOUS
 62
     7
 10
-67.642
 20
59.7359
  0
SEQEND
  8
MACK_GRANITE_265
  6
CONTINUOUS
 62
     7
  0
POLYLINE
  8
MACK_GRANITE_265
  6
CONTINUOUS
 62
     7
 66
     1
  0
VERTEX
  8
MACK_GRANITE_265
  6
CONTINUOUS
 62
     7
 10
-66.642
 20
57.7409
  0
VERTEX
  8
MACK_GRANITE_265
  6
CONTINUOUS
 62
     7
 10
-66.642
 20
59.7359
  0
SEQEND
  8
MACK_GRANITE_265
  6
CONTINUOUS
 62
     7
  0
POLYLINE
  8
MACK_GRANITE_265
  6
CONTINUOUS
 62
     7
 66
     1
  0
VERTEX
  8
MACK_GRANITE_265
  6
CONTINUOUS
 62
     7
 10
-67.642
 20
29.2359
  0
VERTEX
  8
MACK_GRANITE_265
  6
CONTINUOUS
 62
     7
 10
-67.642
 20
31.6503
  0
SEQEND
  8
MACK_GRANITE_265
  6
CONTINUOUS
 62
     7
  0
POLYLINE
  8
MACK_GRANITE_265
  6
CONTINUOUS
 62
     7
 66
     1
  0
VERTEX
  8
MACK_GRANITE_265
  6
CONTINUOUS
 62
     7
 10
-67.642
 20
31.6503
  0
VERTEX
  8
MACK_GRANITE_265
  6
CONTINUOUS
 62
     7
 10
-67.642
 20
39.3264
  0
SEQEND
  8
MACK_GRANITE_265
  6
CONTINUOUS
 62
     7
  0
POLYLINE
  8
MACK_GRANITE_265
  6
CONTINUOUS
 62
     7
 66
     1
  0
VERTEX
  8
MACK_GRANITE_265
  6
CONTINUOUS
 62
     7
 10
-66.642
 20
59.7359
  0
VERTEX
  8
MACK_GRANITE_265
  6
CONTINUOUS
 62
     7
 10
-66.642
 20
61.2359
  0
SEQEND
  8
MACK_GRANITE_265
  6
CONTINUOUS
 62
     7
  0
POLYLINE
  8
MACK_GRANITE_265
  6
CONTINUOUS
 62
     7
 66
     1
  0
VERTEX
  8
MACK_GRANITE_265
  6
CONTINUOUS
 62
     7
 10
-66.642
 20
31.6503
  0
VERTEX
  8
MACK_GRANITE_265
  6
CONTINUOUS
 62
     7
 10
-66.642
 20
39.3264
  0
SEQEND
  8
MACK_GRANITE_265
  6
CONTINUOUS
 62
     7
  0
POLYLINE
  8
MACK_GRANITE_265
  6
CONTINUOUS
 62
     7
 66
     1
  0
VERTEX
  8
MACK_GRANITE_265
  6
CONTINUOUS
 62
     7
 10
-66.642
 20
39.3264
  0
VERTEX
  8
MACK_GRANITE_265
  6
CONTINUOUS
 62
     7
 10
-66.642
 20
41.7409
  0
SEQEND
  8
MACK_GRANITE_265
  6
CONTINUOUS
 62
     7
  0
POLYLINE
  8
MACK_GRANITE_265
  6
CONTINUOUS
 62
     7
 66
     1
  0
VERTEX
  8
MACK_GRANITE_265
  6
CONTINUOUS
 62
     7
 10
-66.642
 20
41.7409
  0
VERTEX
  8
MACK_GRANITE_265
  6
CONTINUOUS
 62
     7
 10
-66.642
 20
44.7409
  0
SEQEND
  8
MACK_GRANITE_265
  6
CONTINUOUS
 62
     7
  0
POLYLINE
  8
MACK_GRANITE_265
  6
CONTINUOUS
 62
     7
 66
     1
  0
VERTEX
  8
MACK_GRANITE_265
  6
CONTINUOUS
 62
     7
 10
-66.642
 20
44.7409
  0
VERTEX
  8
MACK_GRANITE_265
  6
CONTINUOUS
 62
     7
 10
-66.642
 20
57.7409
  0
SEQEND
  8
MACK_GRANITE_265
  6
CONTINUOUS
 62
     7
  0
POLYLINE
  8
MACK_GRANITE_265
  6
CONTINUOUS
 62
     7
 66
     1
  0
VERTEX
  8
MACK_GRANITE_265
  6
CONTINUOUS
 62
     7
 10
-66.642
 20
29.2359
  0
VERTEX
  8
MACK_GRANITE_265
  6
CONTINUOUS
 62
     7
 10
-66.642
 20
31.6503
  0
SEQEND
  8
MACK_GRANITE_265
  6
CONTINUOUS
 62
     7
  0
POLYLINE
  8
MACK_GRANITE_265
  6
CONTINUOUS
 62
     7
 66
     1
  0
VERTEX
  8
MACK_GRANITE_265
  6
CONTINUOUS
 62
     7
 10
-67.086
 20
42.1228
  0
VERTEX
  8
MACK_GRANITE_265
  6
CONTINUOUS
 62
     7
 10
-67.5359
 20
42.1228
  0
SEQEND
  8
MACK_GRANITE_265
  6
CONTINUOUS
 62
     7
  0
POLYLINE
  8
MACK_GRANITE_265
  6
CONTINUOUS
 62
     7
 66
     1
  0
VERTEX
  8
MACK_GRANITE_265
  6
CONTINUOUS
 62
     7
 10
-67.294
 20
41.6228
  0
VERTEX
  8
MACK_GRANITE_265
  6
CONTINUOUS
 62
     7
 10
-67.7472
 20
41.6228
  0
SEQEND
  8
MACK_GRANITE_265
  6
CONTINUOUS
 62
     7
  0
POLYLINE
  8
MACK_GRANITE_265
  6
CONTINUOUS
 62
     7
 66
     1
  0
VERTEX
  8
MACK_GRANITE_265
  6
CONTINUOUS
 62
     7
 10
-67.642
 20
58.6228
  0
VERTEX
  8
MACK_GRANITE_265
  6
CONTINUOUS
 62
     7
 10
-67.7472
 20
58.6228
  0
SEQEND
  8
MACK_GRANITE_265
  6
CONTINUOUS
 62
     7
  0
ENDBLK
  8
MACK_GRANITE_265
  0
BLOCK
  8
MACK_GRANITE_265
  2
GROUP2
 70
     0
 10
0.0
 20
0.0
  0
POLYLINE
  8
MACK_GRANITE_265
  6
CONTINUOUS
 62
     7
 66
     1
  0
VERTEX
  8
MACK_GRANITE_265
  6
CONTINUOUS
 62
     7
 10
-70.7055
 20
58.6228
  0
VERTEX
  8
MACK_GRANITE_265
  6
CONTINUOUS
 62
     7
 10
-67.7472
 20
58.6228
  0
SEQEND
  8
MACK_GRANITE_265
  6
CONTINUOUS
 62
     7
  0
POLYLINE
  8
MACK_GRANITE_265
  6
CONTINUOUS
 62
     7
 66
     1
  0
VERTEX
  8
MACK_GRANITE_265
  6
CONTINUOUS
 62
     7
 10
-67.5359
 20
42.2518
  0
VERTEX
  8
MACK_GRANITE_265
  6
CONTINUOUS
 62
     7
 10
-67.5359
 20
42.1228
  0
SEQEND
  8
MACK_GRANITE_265
  6
CONTINUOUS
 62
     7
  0
POLYLINE
  8
MACK_GRANITE_265
  6
CONTINUOUS
 62
     7
 66
     1
  0
VERTEX
  8
MACK_GRANITE_265
  6
CONTINUOUS
 62
     7
 10
-70.9168
 20
42.1228
  0
VERTEX
  8
MACK_GRANITE_265
  6
CONTINUOUS
 62
     7
 10
-70.9168
 20
58.1228
  0
SEQEND
  8
MACK_GRANITE_265
  6
CONTINUOUS
 62
     7
  0
POLYLINE
  8
MACK_GRANITE_265
  6
CONTINUOUS
 62
     7
 66
     1
  0
VERTEX
  8
MACK_GRANITE_265
  6
CONTINUOUS
 62
     7
 10
-67.7472
 20
41.6228
  0
VERTEX
  8
MACK_GRANITE_265
  6
CONTINUOUS
 62
     7
 10
-70.7055
 20
41.6228
  0
SEQEND
  8
MACK_GRANITE_265
  6
CONTINUOUS
 62
     7
  0
POLYLINE
  8
MACK_GRANITE_265
  6
CONTINUOUS
 62
     7
 66
     1
  0
VERTEX
  8
MACK_GRANITE_265
  6
CONTINUOUS
 62
     7
 10
-23.142
 20
65.0326
  0
VERTEX
  8
MACK_GRANITE_265
  6
CONTINUOUS
 62
     7
 10
-36.142
 20
65.0326
  0
SEQEND
  8
MACK_GRANITE_265
  6
CONTINUOUS
 62
     7
  0
POLYLINE
  8
MACK_GRANITE_265
  6
CONTINUOUS
 62
     7
 66
     1
  0
VERTEX
  8
MACK_GRANITE_265
  6
CONTINUOUS
 62
     7
 10
-26.642
 20
97.0326
  0
VERTEX
  8
MACK_GRANITE_265
  6
CONTINUOUS
 62
     7
 10
-32.642
 20
97.0326
  0
SEQEND
  8
MACK_GRANITE_265
  6
CONTINUOUS
 62
     7
  0
POLYLINE
  8
MACK_GRANITE_265
  6
CONTINUOUS
 62
     7
 66
     1
  0
VERTEX
  8
MACK_GRANITE_265
  6
CONTINUOUS
 62
     7
 10
-23.142
 20
17.0326
  0
VERTEX
  8
MACK_GRANITE_265
  6
CONTINUOUS
 62
     7
 10
-36.142
 20
17.0326
  0
SEQEND
  8
MACK_GRANITE_265
  6
CONTINUOUS
 62
     7
  0
POLYLINE
  8
MACK_GRANITE_265
  6
CONTINUOUS
 62
     7
 66
     1
  0
VERTEX
  8
MACK_GRANITE_265
  6
CONTINUOUS
 62
     7
 10
-26.642
 20
9.0326
  0
VERTEX
  8
MACK_GRANITE_265
  6
CONTINUOUS
 62
     7
 10
-32.642
 20
9.0326
  0
SEQEND
  8
MACK_GRANITE_265
  6
CONTINUOUS
 62
     7
  0
POLYLINE
  8
MACK_GRANITE_265
  6
CONTINUOUS
 62
     7
 66
     1
  0
VERTEX
  8
MACK_GRANITE_265
  6
CONTINUOUS
 62
     7
 10
-62.8916
 20
-10.6674
  0
VERTEX
  8
MACK_GRANITE_265
  6
CONTINUOUS
 62
     7
 10
-79.8916
 20
-10.6674
  0
SEQEND
  8
MACK_GRANITE_265
  6
CONTINUOUS
 62
     7
  0
POLYLINE
  8
MACK_GRANITE_265
  6
CONTINUOUS
 62
     7
 66
     1
  0
VERTEX
  8
MACK_GRANITE_265
  6
CONTINUOUS
 62
     7
 10
-79.8916
 20
-10.6674
  0
VERTEX
  8
MACK_GRANITE_265
  6
CONTINUOUS
 62
     7
 10
-79.8916
 20
-3.1674
  0
SEQEND
  8
MACK_GRANITE_265
  6
CONTINUOUS
 62
     7
  0
POLYLINE
  8
MACK_GRANITE_265
  6
CONTINUOUS
 62
     7
 66
     1
  0
VERTEX
  8
MACK_GRANITE_265
  6
CONTINUOUS
 62
     7
 10
-79.8916
 20
-1.1674
  0
VERTEX
  8
MACK_GRANITE_265
  6
CONTINUOUS
 62
     7
 10
-79.8916
 20
-0.6674
  0
SEQEND
  8
MACK_GRANITE_265
  6
CONTINUOUS
 62
     7
  0
POLYLINE
  8
MACK_GRANITE_265
  6
CONTINUOUS
 62
     7
 66
     1
  0
VERTEX
  8
MACK_GRANITE_265
  6
CONTINUOUS
 62
     7
 10
-79.8916
 20
-0.6674
  0
VERTEX
  8
MACK_GRANITE_265
  6
CONTINUOUS
 62
     7
 10
-62.8916
 20
-0.6674
  0
SEQEND
  8
MACK_GRANITE_265
  6
CONTINUOUS
 62
     7
  0
POLYLINE
  8
MACK_GRANITE_265
  6
CONTINUOUS
 62
     7
 66
     1
  0
VERTEX
  8
MACK_GRANITE_265
  6
CONTINUOUS
 62
     7
 10
-62.8916
 20
-0.6674
  0
VERTEX
  8
MACK_GRANITE_265
  6
CONTINUOUS
 62
     7
 10
-62.8916
 20
-1.1674
  0
SEQEND
  8
MACK_GRANITE_265
  6
CONTINUOUS
 62
     7
  0
POLYLINE
  8
MACK_GRANITE_265
  6
CONTINUOUS
 62
     7
 66
     1
  0
VERTEX
  8
MACK_GRANITE_265
  6
CONTINUOUS
 62
     7
 10
-62.8916
 20
-3.1674
  0
VERTEX
  8
MACK_GRANITE_265
  6
CONTINUOUS
 62
     7
 10
-62.8916
 20
-10.6674
  0
SEQEND
  8
MACK_GRANITE_265
  6
CONTINUOUS
 62
     7
  0
POLYLINE
  8
MACK_GRANITE_265
  6
CONTINUOUS
 62
     7
 66
     1
  0
VERTEX
  8
MACK_GRANITE_265
  6
CONTINUOUS
 62
     7
 10
-146.1416
 20
-9.6674
  0
VERTEX
  8
MACK_GRANITE_265
  6
CONTINUOUS
 62
     7
 10
-143.6416
 20
-9.6674
  0
SEQEND
  8
MACK_GRANITE_265
  6
CONTINUOUS
 62
     7
  0
POLYLINE
  8
MACK_GRANITE_265
  6
CONTINUOUS
 62
     7
 66
     1
  0
VERTEX
  8
MACK_GRANITE_265
  6
CONTINUOUS
 62
     7
 10
-146.1416
 20
-20.1674
  0
VERTEX
  8
MACK_GRANITE_265
  6
CONTINUOUS
 62
     7
 10
-143.6416
 20
-20.1674
  0
SEQEND
  8
MACK_GRANITE_265
  6
CONTINUOUS
 62
     7
  0
POLYLINE
  8
MACK_GRANITE_265
  6
CONTINUOUS
 62
     7
 66
     1
  0
VERTEX
  8
MACK_GRANITE_265
  6
CONTINUOUS
 62
     7
 10
-143.6416
 20
-20.1674
  0
VERTEX
  8
MACK_GRANITE_265
  6
CONTINUOUS
 62
     7
 10
-143.6416
 20
-9.6674
  0
SEQEND
  8
MACK_GRANITE_265
  6
CONTINUOUS
 62
     7
  0
POLYLINE
  8
MACK_GRANITE_265
  6
CONTINUOUS
 62
     7
 66
     1
  0
VERTEX
  8
MACK_GRANITE_265
  6
CONTINUOUS
 62
     7
 10
-146.1416
 20
-9.6674
  0
VERTEX
  8
MACK_GRANITE_265
  6
CONTINUOUS
 62
     7
 10
-149.6416
 20
-9.6674
  0
SEQEND
  8
MACK_GRANITE_265
  6
CONTINUOUS
 62
     7
  0
POLYLINE
  8
MACK_GRANITE_265
  6
CONTINUOUS
 62
     7
 66
     1
  0
VERTEX
  8
MACK_GRANITE_265
  6
CONTINUOUS
 62
     7
 10
-146.1416
 20
-20.1674
  0
VERTEX
  8
MACK_GRANITE_265
  6
CONTINUOUS
 62
     7
 10
-146.1416
 20
-9.6674
  0
SEQEND
  8
MACK_GRANITE_265
  6
CONTINUOUS
 62
     7
  0
POLYLINE
  8
MACK_GRANITE_265
  6
CONTINUOUS
 62
     7
 66
     1
  0
VERTEX
  8
MACK_GRANITE_265
  6
CONTINUOUS
 62
     7
 10
-146.1416
 20
-20.1674
  0
VERTEX
  8
MACK_GRANITE_265
  6
CONTINUOUS
 62
     7
 10
-149.6416
 20
-20.1674
  0
SEQEND
  8
MACK_GRANITE_265
  6
CONTINUOUS
 62
     7
  0
POLYLINE
  8
MACK_GRANITE_265
  6
CONTINUOUS
 62
     7
 66
     1
  0
VERTEX
  8
MACK_GRANITE_265
  6
CONTINUOUS
 62
     7
 10
-77.7939
 20
63.7112
  0
VERTEX
  8
MACK_GRANITE_265
  6
CONTINUOUS
 62
     7
 10
-84.2569
 20
36.7666
  0
SEQEND
  8
MACK_GRANITE_265
  6
CONTINUOUS
 62
     7
  0
POLYLINE
  8
MACK_GRANITE_265
  6
CONTINUOUS
 62
     7
 66
     1
  0
VERTEX
  8
MACK_GRANITE_265
  6
CONTINUOUS
 62
     7
 10
-84.2569
 20
2.0326
  0
VERTEX
  8
MACK_GRANITE_265
  6
CONTINUOUS
 62
     7
 10
-84.8112
 20
2.0326
  0
SEQEND
  8
MACK_GRANITE_265
  6
CONTINUOUS
 62
     7
  0
POLYLINE
  8
MACK_GRANITE_265
  6
CONTINUOUS
 62
     7
 66
     1
  0
VERTEX
  8
MACK_GRANITE_265
  6
CONTINUOUS
 62
     7
 10
-84.392
 20
6.2826
  0
VERTEX
  8
MACK_GRANITE_265
  6
CONTINUOUS
 62
     7
 10
-84.2569
 20
6.2826
  0
SEQEND
  8
MACK_GRANITE_265
  6
CONTINUOUS
 62
     7
  0
POLYLINE
  8
MACK_GRANITE_265
  6
CONTINUOUS
 62
     7
 66
     1
  0
VERTEX
  8
MACK_GRANITE_265
  6
CONTINUOUS
 62
     7
 10
-84.2569
 20
6.2826
  0
VERTEX
  8
MACK_GRANITE_265
  6
CONTINUOUS
 62
     7
 10
-84.2569
 20
2.0326
  0
SEQEND
  8
MACK_GRANITE_265
  6
CONTINUOUS
 62
     7
  0
POLYLINE
  8
MACK_GRANITE_265
  6
CONTINUOUS
 62
     7
 66
     1
  0
VERTEX
  8
MACK_GRANITE_265
  6
CONTINUOUS
 62
     7
 10
-84.392
 20
36.1213
  0
VERTEX
  8
MACK_GRANITE_265
  6
CONTINUOUS
 62
     7
 10
-84.392
 20
6.2826
  0
SEQEND
  8
MACK_GRANITE_265
  6
CONTINUOUS
 62
     7
  0
POLYLINE
  8
MACK_GRANITE_265
  6
CONTINUOUS
 62
     7
 66
     1
  0
VERTEX
  8
MACK_GRANITE_265
  6
CONTINUOUS
 62
     7
 10
-84.2569
 20
36.6842
  0
VERTEX
  8
MACK_GRANITE_265
  6
CONTINUOUS
 62
     7
 10
-84.392
 20
36.1213
  0
SEQEND
  8
MACK_GRANITE_265
  6
CONTINUOUS
 62
     7
  0
POLYLINE
  8
MACK_GRANITE_265
  6
CONTINUOUS
 62
     7
 66
     1
  0
VERTEX
  8
MACK_GRANITE_265
  6
CONTINUOUS
 62
     7
 10
-84.2569
 20
36.7666
  0
VERTEX
  8
MACK_GRANITE_265
  6
CONTINUOUS
 62
     7
 10
-84.2569
 20
36.6842
  0
SEQEND
  8
MACK_GRANITE_265
  6
CONTINUOUS
 62
     7
  0
POLYLINE
  8
MACK_GRANITE_265
  6
CONTINUOUS
 62
     7
 66
     1
  0
VERTEX
  8
MACK_GRANITE_265
  6
CONTINUOUS
 62
     7
 10
-84.8112
 20
2.0326
  0
VERTEX
  8
MACK_GRANITE_265
  6
CONTINUOUS
 62
     7
 10
-84.8112
 20
36.8322
  0
SEQEND
  8
MACK_GRANITE_265
  6
CONTINUOUS
 62
     7
  0
POLYLINE
  8
MACK_GRANITE_265
  6
CONTINUOUS
 62
     7
 66
     1
  0
VERTEX
  8
MACK_GRANITE_265
  6
CONTINUOUS
 62
     7
 10
-84.2569
 20
36.7666
  0
VERTEX
  8
MACK_GRANITE_265
  6
CONTINUOUS
 62
     7
 10
-84.8112
 20
36.8322
  0
SEQEND
  8
MACK_GRANITE_265
  6
CONTINUOUS
 62
     7
  0
POLYLINE
  8
MACK_GRANITE_265
  6
CONTINUOUS
 62
     7
 66
     1
  0
VERTEX
  8
MACK_GRANITE_265
  6
CONTINUOUS
 62
     7
 10
-77.7939
 20
63.7112
  0
VERTEX
  8
MACK_GRANITE_265
  6
CONTINUOUS
 62
     7
 10
-80.6223
 20
64.3896
  0
SEQEND
  8
MACK_GRANITE_265
  6
CONTINUOUS
 62
     7
  0
POLYLINE
  8
MACK_GRANITE_265
  6
CONTINUOUS
 62
     7
 66
     1
  0
VERTEX
  8
MACK_GRANITE_265
  6
CONTINUOUS
 62
     7
 10
-42.642
 20
2.0326
  0
VERTEX
  8
MACK_GRANITE_265
  6
CONTINUOUS
 62
     7
 10
-84.2569
 20
2.0326
  0
SEQEND
  8
MACK_GRANITE_265
  6
CONTINUOUS
 62
     7
  0
POLYLINE
  8
MACK_GRANITE_265
  6
CONTINUOUS
 62
     7
 66
     1
  0
VERTEX
  8
MACK_GRANITE_265
  6
CONTINUOUS
 62
     7
 10
-90.4166
 20
2.0326
  0
VERTEX
  8
MACK_GRANITE_265
  6
CONTINUOUS
 62
     7
 10
-84.8112
 20
2.0326
  0
SEQEND
  8
MACK_GRANITE_265
  6
CONTINUOUS
 62
     7
  0
POLYLINE
  8
MACK_GRANITE_265
  6
CONTINUOUS
 62
     7
 66
     1
  0
VERTEX
  8
MACK_GRANITE_265
  6
CONTINUOUS
 62
     7
 10
-87.5353
 20
35.5691
  0
VERTEX
  8
MACK_GRANITE_265
  6
CONTINUOUS
 62
     7
 10
-80.6223
 20
64.3896
  0
SEQEND
  8
MACK_GRANITE_265
  6
CONTINUOUS
 62
     7
  0
POLYLINE
  8
MACK_GRANITE_265
  6
CONTINUOUS
 62
     7
 66
     1
  0
VERTEX
  8
MACK_GRANITE_265
  6
CONTINUOUS
 62
     7
 10
-143.6416
 20
20.4508
  0
VERTEX
  8
MACK_GRANITE_265
  6
CONTINUOUS
 62
     7
 10
-141.7231
 20
20.4508
  0
SEQEND
  8
MACK_GRANITE_265
  6
CONTINUOUS
 62
     7
  0
POLYLINE
  8
MACK_GRANITE_265
  6
CONTINUOUS
 62
     7
 66
     1
  0
VERTEX
  8
MACK_GRANITE_265
  6
CONTINUOUS
 62
     7
 10
-143.6416
 20
20.4508
  0
VERTEX
  8
MACK_GRANITE_265
  6
CONTINUOUS
 62
     7
 10
-143.6416
 20
20.96
  0
SEQEND
  8
MACK_GRANITE_265
  6
CONTINUOUS
 62
     7
  0
POLYLINE
  8
MACK_GRANITE_265
  6
CONTINUOUS
 62
     7
 66
     1
  0
VERTEX
  8
MACK_GRANITE_265
  6
CONTINUOUS
 62
     7
 10
-91.6812
 20
38.0277
  0
VERTEX
  8
MACK_GRANITE_265
  6
CONTINUOUS
 62
     7
 10
-91.6416
 20
38.0326
  0
SEQEND
  8
MACK_GRANITE_265
  6
CONTINUOUS
 62
     7
  0
POLYLINE
  8
MACK_GRANITE_265
  6
CONTINUOUS
 62
     7
 66
     1
  0
VERTEX
  8
MACK_GRANITE_265
  6
CONTINUOUS
 62
     7
 10
-141.9277
 20
21.6417
  0
VERTEX
  8
MACK_GRANITE_265
  6
CONTINUOUS
 62
     7
 10
-141.7231
 20
20.4508
  0
SEQEND
  8
MACK_GRANITE_265
  6
CONTINUOUS
 62
     7
  0
POLYLINE
  8
MACK_GRANITE_265
  6
CONTINUOUS
 62
     7
 66
     1
  0
VERTEX
  8
MACK_GRANITE_265
  6
CONTINUOUS
 62
     7
 10
-143.6416
 20
5.7368
  0
VERTEX
  8
MACK_GRANITE_265
  6
CONTINUOUS
 62
     7
 10
-143.6416
 20
20.4508
  0
SEQEND
  8
MACK_GRANITE_265
  6
CONTINUOUS
 62
     7
  0
POLYLINE
  8
MACK_GRANITE_265
  6
CONTINUOUS
 62
     7
 66
     1
  0
VERTEX
  8
MACK_GRANITE_265
  6
CONTINUOUS
 62
     7
 10
-141.7231
 20
20.4508
  0
VERTEX
  8
MACK_GRANITE_265
  6
CONTINUOUS
 62
     7
 10
-141.7231
 20
11.6266
  0
SEQEND
  8
MACK_GRANITE_265
  6
CONTINUOUS
 62
     7
  0
ENDBLK
  8
MACK_GRANITE_265
  0
BLOCK
  8
MACK_GRANITE_265
  2
GROUP3
 70
     0
 10
0.0
 20
0.0
  0
POLYLINE
  8
MACK_GRANITE_265
  6
CONTINUOUS
 62
     7
 66
     1
  0
VERTEX
  8
MACK_GRANITE_265
  6
CONTINUOUS
 62
     7
 10
-88.0722
 20
37.1764
  0
VERTEX
  8
MACK_GRANITE_265
  6
CONTINUOUS
 62
     7
 10
-88.054
 20
37.1714
  0
VERTEX
  8
MACK_GRANITE_265
  6
CONTINUOUS
 62
     7
 10
-88.036
 20
37.1652
  0
VERTEX
  8
MACK_GRANITE_265
  6
CONTINUOUS
 62
     7
 10
-88.0184
 20
37.1579
  0
VERTEX
  8
MACK_GRANITE_265
  6
CONTINUOUS
 62
     7
 10
-88.001
 20
37.1493
  0
VERTEX
  8
MACK_GRANITE_265
  6
CONTINUOUS
 62
     7
 10
-87.9924
 20
37.1446
  0
VERTEX
  8
MACK_GRANITE_265
  6
CONTINUOUS
 62
     7
 10
-87.9839
 20
37.1396
  0
VERTEX
  8
MACK_GRANITE_265
  6
CONTINUOUS
 62
     7
 10
-87.9755
 20
37.1343
  0
VERTEX
  8
MACK_GRANITE_265
  6
CONTINUOUS
 62
     7
 10
-87.9671
 20
37.1288
  0
VERTEX
  8
MACK_GRANITE_265
  6
CONTINUOUS
 62
     7
 10
-87.9588
 20
37.1229
  0
VERTEX
  8
MACK_GRANITE_265
  6
CONTINUOUS
 62
     7
 10
-87.9506
 20
37.1167
  0
VERTEX
  8
MACK_GRANITE_265
  6
CONTINUOUS
 62
     7
 10
-87.9424
 20
37.1103
  0
VERTEX
  8
MACK_GRANITE_265
  6
CONTINUOUS
 62
     7
 10
-87.9343
 20
37.1036
  0
VERTEX
  8
MACK_GRANITE_265
  6
CONTINUOUS
 62
     7
 10
-87.9263
 20
37.0965
  0
VERTEX
  8
MACK_GRANITE_265
  6
CONTINUOUS
 62
     7
 10
-87.9183
 20
37.0892
  0
VERTEX
  8
MACK_GRANITE_265
  6
CONTINUOUS
 62
     7
 10
-87.9104
 20
37.0816
  0
VERTEX
  8
MACK_GRANITE_265
  6
CONTINUOUS
 62
     7
 10
-87.9026
 20
37.0738
  0
VERTEX
  8
MACK_GRANITE_265
  6
CONTINUOUS
 62
     7
 10
-87.8948
 20
37.0656
  0
VERTEX
  8
MACK_GRANITE_265
  6
CONTINUOUS
 62
     7
 10
-87.8871
 20
37.0571
  0
VERTEX
  8
MACK_GRANITE_265
  6
CONTINUOUS
 62
     7
 10
-87.8795
 20
37.0484
  0
VERTEX
  8
MACK_GRANITE_265
  6
CONTINUOUS
 62
     7
 10
-87.872
 20
37.0394
  0
VERTEX
  8
MACK_GRANITE_265
  6
CONTINUOUS
 62
     7
 10
-87.8645
 20
37.03
  0
VERTEX
  8
MACK_GRANITE_265
  6
CONTINUOUS
 62
     7
 10
-87.8571
 20
37.0204
  0
VERTEX
  8
MACK_GRANITE_265
  6
CONTINUOUS
 62
     7
 10
-87.8497
 20
37.0105
  0
VERTEX
  8
MACK_GRANITE_265
  6
CONTINUOUS
 62
     7
 10
-87.8425
 20
37.0004
  0
VERTEX
  8
MACK_GRANITE_265
  6
CONTINUOUS
 62
     7
 10
-87.8353
 20
36.9899
  0
VERTEX
  8
MACK_GRANITE_265
  6
CONTINUOUS
 62
     7
 10
-87.8281
 20
36.9792
  0
VERTEX
  8
MACK_GRANITE_265
  6
CONTINUOUS
 62
     7
 10
-87.8211
 20
36.9681
  0
VERTEX
  8
MACK_GRANITE_265
  6
CONTINUOUS
 62
     7
 10
-87.8141
 20
36.9568
  0
VERTEX
  8
MACK_GRANITE_265
  6
CONTINUOUS
 62
     7
 10
-87.8071
 20
36.9452
  0
VERTEX
  8
MACK_GRANITE_265
  6
CONTINUOUS
 62
     7
 10
-87.8003
 20
36.9332
  0
VERTEX
  8
MACK_GRANITE_265
  6
CONTINUOUS
 62
     7
 10
-87.7935
 20
36.921
  0
VERTEX
  8
MACK_GRANITE_265
  6
CONTINUOUS
 62
     7
 10
-87.7868
 20
36.9085
  0
VERTEX
  8
MACK_GRANITE_265
  6
CONTINUOUS
 62
     7
 10
-87.7801
 20
36.8958
  0
VERTEX
  8
MACK_GRANITE_265
  6
CONTINUOUS
 62
     7
 10
-87.7736
 20
36.8827
  0
VERTEX
  8
MACK_GRANITE_265
  6
CONTINUOUS
 62
     7
 10
-87.7671
 20
36.8693
  0
VERTEX
  8
MACK_GRANITE_265
  6
CONTINUOUS
 62
     7
 10
-87.7606
 20
36.8556
  0
VERTEX
  8
MACK_GRANITE_265
  6
CONTINUOUS
 62
     7
 10
-87.7543
 20
36.8417
  0
VERTEX
  8
MACK_GRANITE_265
  6
CONTINUOUS
 62
     7
 10
-87.748
 20
36.8274
  0
VERTEX
  8
MACK_GRANITE_265
  6
CONTINUOUS
 62
     7
 10
-87.7418
 20
36.8128
  0
VERTEX
  8
MACK_GRANITE_265
  6
CONTINUOUS
 62
     7
 10
-87.7357
 20
36.798
  0
VERTEX
  8
MACK_GRANITE_265
  6
CONTINUOUS
 62
     7
 10
-87.7296
 20
36.7828
  0
VERTEX
  8
MACK_GRANITE_265
  6
CONTINUOUS
 62
     7
 10
-87.7236
 20
36.7674
  0
VERTEX
  8
MACK_GRANITE_265
  6
CONTINUOUS
 62
     7
 10
-87.7177
 20
36.7516
  0
VERTEX
  8
MACK_GRANITE_265
  6
CONTINUOUS
 62
     7
 10
-87.7118
 20
36.7355
  0
VERTEX
  8
MACK_GRANITE_265
  6
CONTINUOUS
 62
     7
 10
-87.7061
 20
36.7192
  0
VERTEX
  8
MACK_GRANITE_265
  6
CONTINUOUS
 62
     7
 10
-87.7004
 20
36.7026
  0
VERTEX
  8
MACK_GRANITE_265
  6
CONTINUOUS
 62
     7
 10
-87.6949
 20
36.6858
  0
VERTEX
  8
MACK_GRANITE_265
  6
CONTINUOUS
 62
     7
 10
-87.6894
 20
36.6687
  0
VERTEX
  8
MACK_GRANITE_265
  6
CONTINUOUS
 62
     7
 10
-87.684
 20
36.6513
  0
VERTEX
  8
MACK_GRANITE_265
  6
CONTINUOUS
 62
     7
 10
-87.6787
 20
36.6337
  0
VERTEX
  8
MACK_GRANITE_265
  6
CONTINUOUS
 62
     7
 10
-87.6735
 20
36.6158
  0
VERTEX
  8
MACK_GRANITE_265
  6
CONTINUOUS
 62
     7
 10
-87.6684
 20
36.5977
  0
VERTEX
  8
MACK_GRANITE_265
  6
CONTINUOUS
 62
     7
 10
-87.6633
 20
36.5793
  0
VERTEX
  8
MACK_GRANITE_265
  6
CONTINUOUS
 62
     7
 10
-87.6584
 20
36.5606
  0
VERTEX
  8
MACK_GRANITE_265
  6
CONTINUOUS
 62
     7
 10
-87.6535
 20
36.5417
  0
VERTEX
  8
MACK_GRANITE_265
  6
CONTINUOUS
 62
     7
 10
-87.6488
 20
36.5225
  0
VERTEX
  8
MACK_GRANITE_265
  6
CONTINUOUS
 62
     7
 10
-87.6441
 20
36.503
  0
VERTEX
  8
MACK_GRANITE_265
  6
CONTINUOUS
 62
     7
 10
-87.6395
 20
36.4833
  0
VERTEX
  8
MACK_GRANITE_265
  6
CONTINUOUS
 62
     7
 10
-87.635
 20
36.4634
  0
VERTEX
  8
MACK_GRANITE_265
  6
CONTINUOUS
 62
     7
 10
-87.6306
 20
36.4432
  0
VERTEX
  8
MACK_GRANITE_265
  6
CONTINUOUS
 62
     7
 10
-87.6263
 20
36.4227
  0
VERTEX
  8
MACK_GRANITE_265
  6
CONTINUOUS
 62
     7
 10
-87.6221
 20
36.4019
  0
VERTEX
  8
MACK_GRANITE_265
  6
CONTINUOUS
 62
     7
 10
-87.6179
 20
36.3809
  0
VERTEX
  8
MACK_GRANITE_265
  6
CONTINUOUS
 62
     7
 10
-87.6139
 20
36.3597
  0
VERTEX
  8
MACK_GRANITE_265
  6
CONTINUOUS
 62
     7
 10
-87.6099
 20
36.3382
  0
VERTEX
  8
MACK_GRANITE_265
  6
CONTINUOUS
 62
     7
 10
-87.606
 20
36.3164
  0
VERTEX
  8
MACK_GRANITE_265
  6
CONTINUOUS
 62
     7
 10
-87.6023
 20
36.2943
  0
VERTEX
  8
MACK_GRANITE_265
  6
CONTINUOUS
 62
     7
 10
-87.5986
 20
36.272
  0
VERTEX
  8
MACK_GRANITE_265
  6
CONTINUOUS
 62
     7
 10
-87.595
 20
36.2495
  0
VERTEX
  8
MACK_GRANITE_265
  6
CONTINUOUS
 62
     7
 10
-87.5915
 20
36.2266
  0
VERTEX
  8
MACK_GRANITE_265
  6
CONTINUOUS
 62
     7
 10
-87.5881
 20
36.2036
  0
VERTEX
  8
MACK_GRANITE_265
  6
CONTINUOUS
 62
     7
 10
-87.5848
 20
36.1802
  0
VERTEX
  8
MACK_GRANITE_265
  6
CONTINUOUS
 62
     7
 10
-87.5816
 20
36.1566
  0
VERTEX
  8
MACK_GRANITE_265
  6
CONTINUOUS
 62
     7
 10
-87.5784
 20
36.1327
  0
VERTEX
  8
MACK_GRANITE_265
  6
CONTINUOUS
 62
     7
 10
-87.5754
 20
36.1086
  0
VERTEX
  8
MACK_GRANITE_265
  6
CONTINUOUS
 62
     7
 10
-87.5724
 20
36.0842
  0
VERTEX
  8
MACK_GRANITE_265
  6
CONTINUOUS
 62
     7
 10
-87.5696
 20
36.0595
  0
VERTEX
  8
MACK_GRANITE_265
  6
CONTINUOUS
 62
     7
 10
-87.5669
 20
36.0345
  0
VERTEX
  8
MACK_GRANITE_265
  6
CONTINUOUS
 62
     7
 10
-87.5642
 20
36.0093
  0
VERTEX
  8
MACK_GRANITE_265
  6
CONTINUOUS
 62
     7
 10
-87.5616
 20
35.9838
  0
VERTEX
  8
MACK_GRANITE_265
  6
CONTINUOUS
 62
     7
 10
-87.5592
 20
35.9581
  0
VERTEX
  8
MACK_GRANITE_265
  6
CONTINUOUS
 62
     7
 10
-87.5568
 20
35.932
  0
VERTEX
  8
MACK_GRANITE_265
  6
CONTINUOUS
 62
     7
 10
-87.5546
 20
35.9057
  0
VERTEX
  8
MACK_GRANITE_265
  6
CONTINUOUS
 62
     7
 10
-87.5524
 20
35.8791
  0
VERTEX
  8
MACK_GRANITE_265
  6
CONTINUOUS
 62
     7
 10
-87.5503
 20
35.8523
  0
VERTEX
  8
MACK_GRANITE_265
  6
CONTINUOUS
 62
     7
 10
-87.5484
 20
35.8251
  0
VERTEX
  8
MACK_GRANITE_265
  6
CONTINUOUS
 62
     7
 10
-87.5465
 20
35.7977
  0
VERTEX
  8
MACK_GRANITE_265
  6
CONTINUOUS
 62
     7
 10
-87.5447
 20
35.77
  0
VERTEX
  8
MACK_GRANITE_265
  6
CONTINUOUS
 62
     7
 10
-87.5431
 20
35.742
  0
VERTEX
  8
MACK_GRANITE_265
  6
CONTINUOUS
 62
     7
 10
-87.5415
 20
35.7138
  0
VERTEX
  8
MACK_GRANITE_265
  6
CONTINUOUS
 62
     7
 10
-87.54
 20
35.6852
  0
VERTEX
  8
MACK_GRANITE_265
  6
CONTINUOUS
 62
     7
 10
-87.5387
 20
35.6565
  0
VERTEX
  8
MACK_GRANITE_265
  6
CONTINUOUS
 62
     7
 10
-87.5375
 20
35.6276
  0
VERTEX
  8
MACK_GRANITE_265
  6
CONTINUOUS
 62
     7
 10
-87.5363
 20
35.5984
  0
VERTEX
  8
MACK_GRANITE_265
  6
CONTINUOUS
 62
     7
 10
-87.5353
 20
35.5691
  0
SEQEND
  8
MACK_GRANITE_265
  6
CONTINUOUS
 62
     7
  0
POLYLINE
  8
MACK_GRANITE_265
  6
CONTINUOUS
 62
     7
 66
     1
  0
VERTEX
  8
MACK_GRANITE_265
  6
CONTINUOUS
 62
     7
 10
-92.9717
 20
32.958
  0
VERTEX
  8
MACK_GRANITE_265
  6
CONTINUOUS
 62
     7
 10
-94.5376
 20
32.7557
  0
VERTEX
  8
MACK_GRANITE_265
  6
CONTINUOUS
 62
     7
 10
-96.1014
 20
32.541
  0
VERTEX
  8
MACK_GRANITE_265
  6
CONTINUOUS
 62
     7
 10
-97.6632
 20
32.3141
  0
VERTEX
  8
MACK_GRANITE_265
  6
CONTINUOUS
 62
     7
 10
-99.2228
 20
32.0748
  0
VERTEX
  8
MACK_GRANITE_265
  6
CONTINUOUS
 62
     7
 10
-100.7802
 20
31.8232
  0
VERTEX
  8
MACK_GRANITE_265
  6
CONTINUOUS
 62
     7
 10
-102.3353
 20
31.5593
  0
VERTEX
  8
MACK_GRANITE_265
  6
CONTINUOUS
 62
     7
 10
-103.888
 20
31.2832
  0
VERTEX
  8
MACK_GRANITE_265
  6
CONTINUOUS
 62
     7
 10
-105.4383
 20
30.9948
  0
VERTEX
  8
MACK_GRANITE_265
  6
CONTINUOUS
 62
     7
 10
-106.986
 20
30.6942
  0
VERTEX
  8
MACK_GRANITE_265
  6
CONTINUOUS
 62
     7
 10
-108.5312
 20
30.3814
  0
VERTEX
  8
MACK_GRANITE_265
  6
CONTINUOUS
 62
     7
 10
-110.0737
 20
30.0564
  0
VERTEX
  8
MACK_GRANITE_265
  6
CONTINUOUS
 62
     7
 10
-111.6135
 20
29.7193
  0
VERTEX
  8
MACK_GRANITE_265
  6
CONTINUOUS
 62
     7
 10
-113.1504
 20
29.37
  0
VERTEX
  8
MACK_GRANITE_265
  6
CONTINUOUS
 62
     7
 10
-114.6845
 20
29.0086
  0
VERTEX
  8
MACK_GRANITE_265
  6
CONTINUOUS
 62
     7
 10
-116.2157
 20
28.6351
  0
VERTEX
  8
MACK_GRANITE_265
  6
CONTINUOUS
 62
     7
 10
-117.7438
 20
28.2495
  0
VERTEX
  8
MACK_GRANITE_265
  6
CONTINUOUS
 62
     7
 10
-119.2688
 20
27.8518
  0
VERTEX
  8
MACK_GRANITE_265
  6
CONTINUOUS
 62
     7
 10
-120.7906
 20
27.4421
  0
VERTEX
  8
MACK_GRANITE_265
  6
CONTINUOUS
 62
     7
 10
-122.3092
 20
27.0203
  0
VERTEX
  8
MACK_GRANITE_265
  6
CONTINUOUS
 62
     7
 10
-123.8245
 20
26.5865
  0
VERTEX
  8
MACK_GRANITE_265
  6
CONTINUOUS
 62
     7
 10
-125.3364
 20
26.1408
  0
VERTEX
  8
MACK_GRANITE_265
  6
CONTINUOUS
 62
     7
 10
-126.8449
 20
25.683
  0
VERTEX
  8
MACK_GRANITE_265
  6
CONTINUOUS
 62
     7
 10
-128.3498
 20
25.2133
  0
VERTEX
  8
MACK_GRANITE_265
  6
CONTINUOUS
 62
     7
 10
-129.8511
 20
24.7316
  0
VERTEX
  8
MACK_GRANITE_265
  6
CONTINUOUS
 62
     7
 10
-131.3487
 20
24.2381
  0
VERTEX
  8
MACK_GRANITE_265
  6
CONTINUOUS
 62
     7
 10
-132.8426
 20
23.7326
  0
VERTEX
  8
MACK_GRANITE_265
  6
CONTINUOUS
 62
     7
 10
-134.3327
 20
23.2152
  0
VERTEX
  8
MACK_GRANITE_265
  6
CONTINUOUS
 62
     7
 10
-135.8188
 20
22.686
  0
VERTEX
  8
MACK_GRANITE_265
  6
CONTINUOUS
 62
     7
 10
-137.301
 20
22.1449
  0
VERTEX
  8
MACK_GRANITE_265
  6
CONTINUOUS
 62
     7
 10
-138.7792
 20
21.592
  0
VERTEX
  8
MACK_GRANITE_265
  6
CONTINUOUS
 62
     7
 10
-140.2532
 20
21.0273
  0
VERTEX
  8
MACK_GRANITE_265
  6
CONTINUOUS
 62
     7
 10
-141.7231
 20
20.4508
  0
SEQEND
  8
MACK_GRANITE_265
  6
CONTINUOUS
 62
     7
  0
POLYLINE
  8
MACK_GRANITE_265
  6
CONTINUOUS
 62
     7
 66
     1
  0
VERTEX
  8
MACK_GRANITE_265
  6
CONTINUOUS
 62
     7
 10
-65.3916
 20
-16.9674
  0
VERTEX
  8
MACK_GRANITE_265
  6
CONTINUOUS
 62
     7
 10
-65.4013
 20
-16.6175
  0
VERTEX
  8
MACK_GRANITE_265
  6
CONTINUOUS
 62
     7
 10
-65.4305
 20
-16.2735
  0
VERTEX
  8
MACK_GRANITE_265
  6
CONTINUOUS
 62
     7
 10
-65.4786
 20
-15.9358
  0
VERTEX
  8
MACK_GRANITE_265
  6
CONTINUOUS
 62
     7
 10
-65.5451
 20
-15.6051
  0
VERTEX
  8
MACK_GRANITE_265
  6
CONTINUOUS
 62
     7
 10
-65.6293
 20
-15.2816
  0
VERTEX
  8
MACK_GRANITE_265
  6
CONTINUOUS
 62
     7
 10
-65.7308
 20
-14.966
  0
VERTEX
  8
MACK_GRANITE_265
  6
CONTINUOUS
 62
     7
 10
-65.8488
 20
-14.6587
  0
VERTEX
  8
MACK_GRANITE_265
  6
CONTINUOUS
 62
     7
 10
-65.983
 20
-14.3601
  0
VERTEX
  8
MACK_GRANITE_265
  6
CONTINUOUS
 62
     7
 10
-66.1325
 20
-14.0708
  0
VERTEX
  8
MACK_GRANITE_265
  6
CONTINUOUS
 62
     7
 10
-66.297
 20
-13.7913
  0
VERTEX
  8
MACK_GRANITE_265
  6
CONTINUOUS
 62
     7
 10
-66.4758
 20
-13.5219
  0
VERTEX
  8
MACK_GRANITE_265
  6
CONTINUOUS
 62
     7
 10
-66.6683
 20
-13.2632
  0
VERTEX
  8
MACK_GRANITE_265
  6
CONTINUOUS
 62
     7
 10
-66.8739
 20
-13.0158
  0
VERTEX
  8
MACK_GRANITE_265
  6
CONTINUOUS
 62
     7
 10
-67.0921
 20
-12.7799
  0
VERTEX
  8
MACK_GRANITE_265
  6
CONTINUOUS
 62
     7
 10
-67.3223
 20
-12.5562
  0
VERTEX
  8
MACK_GRANITE_265
  6
CONTINUOUS
 62
     7
 10
-67.5639
 20
-12.3451
  0
VERTEX
  8
MACK_GRANITE_265
  6
CONTINUOUS
 62
     7
 10
-67.8164
 20
-12.147
  0
VERTEX
  8
MACK_GRANITE_265
  6
CONTINUOUS
 62
     7
 10
-68.0791
 20
-11.9626
  0
VERTEX
  8
MACK_GRANITE_265
  6
CONTINUOUS
 62
     7
 10
-68.3515
 20
-11.7922
  0
VERTEX
  8
MACK_GRANITE_265
  6
CONTINUOUS
 62
     7
 10
-68.633
 20
-11.6363
  0
VERTEX
  8
MACK_GRANITE_265
  6
CONTINUOUS
 62
     7
 10
-68.923
 20
-11.4954
  0
VERTEX
  8
MACK_GRANITE_265
  6
CONTINUOUS
 62
     7
 10
-69.221
 20
-11.3699
  0
VERTEX
  8
MACK_GRANITE_265
  6
CONTINUOUS
 62
     7
 10
-69.5263
 20
-11.2605
  0
VERTEX
  8
MACK_GRANITE_265
  6
CONTINUOUS
 62
     7
 10
-69.8384
 20
-11.1675
  0
VERTEX
  8
MACK_GRANITE_265
  6
CONTINUOUS
 62
     7
 10
-70.1567
 20
-11.0914
  0
VERTEX
  8
MACK_GRANITE_265
  6
CONTINUOUS
 62
     7
 10
-70.4807
 20
-11.0327
  0
VERTEX
  8
MACK_GRANITE_265
  6
CONTINUOUS
 62
     7
 10
-70.8097
 20
-10.9918
  0
VERTEX
  8
MACK_GRANITE_265
  6
CONTINUOUS
 62
     7
 10
-71.1432
 20
-10.9694
  0
VERTEX
  8
MACK_GRANITE_265
  6
CONTINUOUS
 62
     7
 10
-71.4805
 20
-10.9657
  0
VERTEX
  8
MACK_GRANITE_265
  6
CONTINUOUS
 62
     7
 10
-71.8212
 20
-10.9814
  0
VERTEX
  8
MACK_GRANITE_265
  6
CONTINUOUS
 62
     7
 10
-72.1646
 20
-11.0169
  0
VERTEX
  8
MACK_GRANITE_265
  6
CONTINUOUS
 62
     7
 10
-72.5102
 20
-11.0726
  0
VERTEX
  8
MACK_GRANITE_265
  6
CONTINUOUS
 62
     7
 10
-72.5102
 20
-11.0726
  0
VERTEX
  8
MACK_GRANITE_265
  6
CONTINUOUS
 62
     7
 10
-72.8522
 20
-11.1473
  0
VERTEX
  8
MACK_GRANITE_265
  6
CONTINUOUS
 62
     7
 10
-73.1847
 20
-11.2401
  0
VERTEX
  8
MACK_GRANITE_265
  6
CONTINUOUS
 62
     7
 10
-73.5075
 20
-11.3503
  0
VERTEX
  8
MACK_GRANITE_265
  6
CONTINUOUS
 62
     7
 10
-73.8201
 20
-11.4773
  0
VERTEX
  8
MACK_GRANITE_265
  6
CONTINUOUS
 62
     7
 10
-74.1221
 20
-11.6204
  0
VERTEX
  8
MACK_GRANITE_265
  6
CONTINUOUS
 62
     7
 10
-74.4133
 20
-11.7789
  0
VERTEX
  8
MACK_GRANITE_265
  6
CONTINUOUS
 62
     7
 10
-74.6932
 20
-11.9522
  0
VERTEX
  8
MACK_GRANITE_265
  6
CONTINUOUS
 62
     7
 10
-74.9615
 20
-12.1396
  0
VERTEX
  8
MACK_GRANITE_265
  6
CONTINUOUS
 62
     7
 10
-75.2179
 20
-12.3405
  0
VERTEX
  8
MACK_GRANITE_265
  6
CONTINUOUS
 62
     7
 10
-75.4619
 20
-12.5542
  0
VERTEX
  8
MACK_GRANITE_265
  6
CONTINUOUS
 62
     7
 10
-75.6932
 20
-12.78
  0
VERTEX
  8
MACK_GRANITE_265
  6
CONTINUOUS
 62
     7
 10
-75.9114
 20
-13.0174
  0
VERTEX
  8
MACK_GRANITE_265
  6
CONTINUOUS
 62
     7
 10
-76.1163
 20
-13.2656
  0
VERTEX
  8
MACK_GRANITE_265
  6
CONTINUOUS
 62
     7
 10
-76.3073
 20
-13.5239
  0
VERTEX
  8
MACK_GRANITE_265
  6
CONTINUOUS
 62
     7
 10
-76.4842
 20
-13.7918
  0
VERTEX
  8
MACK_GRANITE_265
  6
CONTINUOUS
 62
     7
 10
-76.6465
 20
-14.0685
  0
VERTEX
  8
MACK_GRANITE_265
  6
CONTINUOUS
 62
     7
 10
-76.794
 20
-14.3535
  0
VERTEX
  8
MACK_GRANITE_265
  6
CONTINUOUS
 62
     7
 10
-76.9263
 20
-14.646
  0
VERTEX
  8
MACK_GRANITE_265
  6
CONTINUOUS
 62
     7
 10
-77.0429
 20
-14.9454
  0
VERTEX
  8
MACK_GRANITE_265
  6
CONTINUOUS
 62
     7
 10
-77.1436
 20
-15.251
  0
VERTEX
  8
MACK_GRANITE_265
  6
CONTINUOUS
 62
     7
 10
-77.228
 20
-15.5622
  0
VERTEX
  8
MACK_GRANITE_265
  6
CONTINUOUS
 62
     7
 10
-77.2956
 20
-15.8783
  0
VERTEX
  8
MACK_GRANITE_265
  6
CONTINUOUS
 62
     7
 10
-77.3463
 20
-16.1987
  0
VERTEX
  8
MACK_GRANITE_265
  6
CONTINUOUS
 62
     7
 10
-77.3795
 20
-16.5227
  0
VERTEX
  8
MACK_GRANITE_265
  6
CONTINUOUS
 62
     7
 10
-77.3949
 20
-16.8496
  0
VERTEX
  8
MACK_GRANITE_265
  6
CONTINUOUS
 62
     7
 10
-77.3922
 20
-17.1788
  0
VERTEX
  8
MACK_GRANITE_265
  6
CONTINUOUS
 62
     7
 10
-77.3709
 20
-17.5097
  0
VERTEX
  8
MACK_GRANITE_265
  6
CONTINUOUS
 62
     7
 10
-77.3309
 20
-17.8415
  0
VERTEX
  8
MACK_GRANITE_265
  6
CONTINUOUS
 62
     7
 10
-77.2715
 20
-18.1736
  0
VERTEX
  8
MACK_GRANITE_265
  6
CONTINUOUS
 62
     7
 10
-77.1926
 20
-18.5054
  0
VERTEX
  8
MACK_GRANITE_265
  6
CONTINUOUS
 62
     7
 10
-77.0938
 20
-18.8362
  0
VERTEX
  8
MACK_GRANITE_265
  6
CONTINUOUS
 62
     7
 10
-76.9746
 20
-19.1653
  0
SEQEND
  8
MACK_GRANITE_265
  6
CONTINUOUS
 62
     7
  0
POLYLINE
  8
MACK_GRANITE_265
  6
CONTINUOUS
 62
     7
 66
     1
  0
VERTEX
  8
MACK_GRANITE_265
  6
CONTINUOUS
 62
     7
 10
-75.6781
 20
-21.1658
  0
VERTEX
  8
MACK_GRANITE_265
  6
CONTINUOUS
 62
     7
 10
-75.4534
 20
-21.384
  0
VERTEX
  8
MACK_GRANITE_265
  6
CONTINUOUS
 62
     7
 10
-75.2204
 20
-21.5882
  0
VERTEX
  8
MACK_GRANITE_265
  6
CONTINUOUS
 62
     7
 10
-74.9797
 20
-21.7783
  0
VERTEX
  8
MACK_GRANITE_265
  6
CONTINUOUS
 62
     7
 10
-74.7317
 20
-21.9543
  0
VERTEX
  8
MACK_GRANITE_265
  6
CONTINUOUS
 62
     7
 10
-74.477
 20
-22.1162
  0
VERTEX
  8
MACK_GRANITE_265
  6
CONTINUOUS
 62
     7
 10
-74.2162
 20
-22.2641
  0
VERTEX
  8
MACK_GRANITE_265
  6
CONTINUOUS
 62
     7
 10
-73.9498
 20
-22.3979
  0
VERTEX
  8
MACK_GRANITE_265
  6
CONTINUOUS
 62
     7
 10
-73.6784
 20
-22.5176
  0
VERTEX
  8
MACK_GRANITE_265
  6
CONTINUOUS
 62
     7
 10
-73.4026
 20
-22.6233
  0
VERTEX
  8
MACK_GRANITE_265
  6
CONTINUOUS
 62
     7
 10
-73.1229
 20
-22.7148
  0
VERTEX
  8
MACK_GRANITE_265
  6
CONTINUOUS
 62
     7
 10
-72.8398
 20
-22.7923
  0
VERTEX
  8
MACK_GRANITE_265
  6
CONTINUOUS
 62
     7
 10
-72.554
 20
-22.8558
  0
VERTEX
  8
MACK_GRANITE_265
  6
CONTINUOUS
 62
     7
 10
-72.2659
 20
-22.9051
  0
VERTEX
  8
MACK_GRANITE_265
  6
CONTINUOUS
 62
     7
 10
-71.9762
 20
-22.9404
  0
VERTEX
  8
MACK_GRANITE_265
  6
CONTINUOUS
 62
     7
 10
-71.6853
 20
-22.9617
  0
VERTEX
  8
MACK_GRANITE_265
  6
CONTINUOUS
 62
     7
 10
-71.3939
 20
-22.9688
  0
VERTEX
  8
MACK_GRANITE_265
  6
CONTINUOUS
 62
     7
 10
-71.1024
 20
-22.9619
  0
VERTEX
  8
MACK_GRANITE_265
  6
CONTINUOUS
 62
     7
 10
-70.8116
 20
-22.9409
  0
VERTEX
  8
MACK_GRANITE_265
  6
CONTINUOUS
 62
     7
 10
-70.5218
 20
-22.9058
  0
VERTEX
  8
MACK_GRANITE_265
  6
CONTINUOUS
 62
     7
 10
-70.2337
 20
-22.8566
  0
VERTEX
  8
MACK_GRANITE_265
  6
CONTINUOUS
 62
     7
 10
-69.9478
 20
-22.7934
  0
VERTEX
  8
MACK_GRANITE_265
  6
CONTINUOUS
 62
     7
 10
-69.6647
 20
-22.7161
  0
VERTEX
  8
MACK_GRANITE_265
  6
CONTINUOUS
 62
     7
 10
-69.3849
 20
-22.6247
  0
VERTEX
  8
MACK_GRANITE_265
  6
CONTINUOUS
 62
     7
 10
-69.109
 20
-22.5193
  0
VERTEX
  8
MACK_GRANITE_265
  6
CONTINUOUS
 62
     7
 10
-68.8375
 20
-22.3998
  0
VERTEX
  8
MACK_GRANITE_265
  6
CONTINUOUS
 62
     7
 10
-68.571
 20
-22.2662
  0
VERTEX
  8
MACK_GRANITE_265
  6
CONTINUOUS
 62
     7
 10
-68.3101
 20
-22.1185
  0
VERTEX
  8
MACK_GRANITE_265
  6
CONTINUOUS
 62
     7
 10
-68.0553
 20
-21.9568
  0
VERTEX
  8
MACK_GRANITE_265
  6
CONTINUOUS
 62
     7
 10
-67.8072
 20
-21.7809
  0
VERTEX
  8
MACK_GRANITE_265
  6
CONTINUOUS
 62
     7
 10
-67.5663
 20
-21.591
  0
VERTEX
  8
MACK_GRANITE_265
  6
CONTINUOUS
 62
     7
 10
-67.3331
 20
-21.387
  0
VERTEX
  8
MACK_GRANITE_265
  6
CONTINUOUS
 62
     7
 10
-67.1083
 20
-21.169
  0
SEQEND
  8
MACK_GRANITE_265
  6
CONTINUOUS
 62
     7
  0
POLYLINE
  8
MACK_GRANITE_265
  6
CONTINUOUS
 62
     7
 66
     1
  0
VERTEX
  8
MACK_GRANITE_265
  6
CONTINUOUS
 62
     7
 10
-65.8103
 20
-19.1695
  0
VERTEX
  8
MACK_GRANITE_265
  6
CONTINUOUS
 62
     7
 10
-65.7128
 20
-18.9048
  0
VERTEX
  8
MACK_GRANITE_265
  6
CONTINUOUS
 62
     7
 10
-65.628
 20
-18.6362
  0
VERTEX
  8
MACK_GRANITE_265
  6
CONTINUOUS
 62
     7
 10
-65.5561
 20
-18.3642
  0
VERTEX
  8
MACK_GRANITE_265
  6
CONTINUOUS
 62
     7
 10
-65.497
 20
-18.0893
  0
VERTEX
  8
MACK_GRANITE_265
  6
CONTINUOUS
 62
     7
 10
-65.451
 20
-17.812
  0
VERTEX
  8
MACK_GRANITE_265
  6
CONTINUOUS
 62
     7
 10
-65.418
 20
-17.5326
  0
VERTEX
  8
MACK_GRANITE_265
  6
CONTINUOUS
 62
     7
 10
-65.3982
 20
-17.2516
  0
VERTEX
  8
MACK_GRANITE_265
  6
CONTINUOUS
 62
     7
 10
-65.3916
 20
-16.9696
  0
SEQEND
  8
MACK_GRANITE_265
  6
CONTINUOUS
 62
     7
  0
POLYLINE
  8
MACK_GRANITE_265
  6
CONTINUOUS
 62
     7
 66
     1
  0
VERTEX
  8
MACK_GRANITE_265
  6
CONTINUOUS
 62
     7
 10
-54.642
 20
1.0326
  0
VERTEX
  8
MACK_GRANITE_265
  6
CONTINUOUS
 62
     7
 10
-54.9782
 20
1.0234
  0
VERTEX
  8
MACK_GRANITE_265
  6
CONTINUOUS
 62
     7
 10
-55.3114
 20
0.9956
  0
VERTEX
  8
MACK_GRANITE_265
  6
CONTINUOUS
 62
     7
 10
-55.6411
 20
0.9495
  0
VERTEX
  8
MACK_GRANITE_265
  6
CONTINUOUS
 62
     7
 10
-55.9665
 20
0.8854
  0
VERTEX
  8
MACK_GRANITE_265
  6
CONTINUOUS
 62
     7
 10
-56.2869
 20
0.8036
  0
VERTEX
  8
MACK_GRANITE_265
  6
CONTINUOUS
 62
     7
 10
-56.6017
 20
0.7045
  0
VERTEX
  8
MACK_GRANITE_265
  6
CONTINUOUS
 62
     7
 10
-56.9101
 20
0.5884
  0
VERTEX
  8
MACK_GRANITE_265
  6
CONTINUOUS
 62
     7
 10
-57.2115
 20
0.4557
  0
VERTEX
  8
MACK_GRANITE_265
  6
CONTINUOUS
 62
     7
 10
-57.5051
 20
0.3065
  0
VERTEX
  8
MACK_GRANITE_265
  6
CONTINUOUS
 62
     7
 10
-57.7903
 20
0.1414
  0
VERTEX
  8
MACK_GRANITE_265
  6
CONTINUOUS
 62
     7
 10
-58.0663
 20
-0.0394
  0
VERTEX
  8
MACK_GRANITE_265
  6
CONTINUOUS
 62
     7
 10
-58.3325
 20
-0.2356
  0
VERTEX
  8
MACK_GRANITE_265
  6
CONTINUOUS
 62
     7
 10
-58.5882
 20
-0.4468
  0
VERTEX
  8
MACK_GRANITE_265
  6
CONTINUOUS
 62
     7
 10
-58.8327
 20
-0.6728
  0
VERTEX
  8
MACK_GRANITE_265
  6
CONTINUOUS
 62
     7
 10
-59.0653
 20
-0.9131
  0
VERTEX
  8
MACK_GRANITE_265
  6
CONTINUOUS
 62
     7
 10
-59.2853
 20
-1.1674
  0
SEQEND
  8
MACK_GRANITE_265
  6
CONTINUOUS
 62
     7
  0
POLYLINE
  8
MACK_GRANITE_265
  6
CONTINUOUS
 62
     7
 66
     1
  0
VERTEX
  8
MACK_GRANITE_265
  6
CONTINUOUS
 62
     7
 10
-60.3656
 20
-3.1674
  0
VERTEX
  8
MACK_GRANITE_265
  6
CONTINUOUS
 62
     7
 10
-60.4303
 20
-3.3869
  0
VERTEX
  8
MACK_GRANITE_265
  6
CONTINUOUS
 62
     7
 10
-60.4864
 20
-3.6084
  0
VERTEX
  8
MACK_GRANITE_265
  6
CONTINUOUS
 62
     7
 10
-60.5339
 20
-3.8318
  0
VERTEX
  8
MACK_GRANITE_265
  6
CONTINUOUS
 62
     7
 10
-60.5729
 20
-4.0568
  0
VERTEX
  8
MACK_GRANITE_265
  6
CONTINUOUS
 62
     7
 10
-60.6032
 20
-4.2831
  0
VERTEX
  8
MACK_GRANITE_265
  6
CONTINUOUS
 62
     7
 10
-60.6249
 20
-4.5104
  0
VERTEX
  8
MACK_GRANITE_265
  6
CONTINUOUS
 62
     7
 10
-60.6378
 20
-4.7386
  0
VERTEX
  8
MACK_GRANITE_265
  6
CONTINUOUS
 62
     7
 10
-60.642
 20
-4.9674
  0
SEQEND
  8
MACK_GRANITE_265
  6
CONTINUOUS
 62
     7
  0
POLYLINE
  8
MACK_GRANITE_265
  6
CONTINUOUS
 62
     7
 66
     1
  0
VERTEX
  8
MACK_GRANITE_265
  6
CONTINUOUS
 62
     7
 10
-18.642
 20
-4.9696
  0
VERTEX
  8
MACK_GRANITE_265
  6
CONTINUOUS
 62
     7
 10
-18.6495
 20
-4.6608
  0
VERTEX
  8
MACK_GRANITE_265
  6
CONTINUOUS
 62
     7
 10
-18.6723
 20
-4.356
  0
VERTEX
  8
MACK_GRANITE_265
  6
CONTINUOUS
 62
     7
 10
-18.7102
 20
-4.0557
  0
VERTEX
  8
MACK_GRANITE_265
  6
CONTINUOUS
 62
     7
 10
-18.7627
 20
-3.7601
  0
VERTEX
  8
MACK_GRANITE_265
  6
CONTINUOUS
 62
     7
 10
-18.8295
 20
-3.4697
  0
VERTEX
  8
MACK_GRANITE_265
  6
CONTINUOUS
 62
     7
 10
-18.9102
 20
-3.1849
  0
VERTEX
  8
MACK_GRANITE_265
  6
CONTINUOUS
 62
     7
 10
-19.0044
 20
-2.9059
  0
VERTEX
  8
MACK_GRANITE_265
  6
CONTINUOUS
 62
     7
 10
-19.1117
 20
-2.6333
  0
VERTEX
  8
MACK_GRANITE_265
  6
CONTINUOUS
 62
     7
 10
-19.2317
 20
-2.3674
  0
VERTEX
  8
MACK_GRANITE_265
  6
CONTINUOUS
 62
     7
 10
-19.3641
 20
-2.1086
  0
VERTEX
  8
MACK_GRANITE_265
  6
CONTINUOUS
 62
     7
 10
-19.5085
 20
-1.8571
  0
VERTEX
  8
MACK_GRANITE_265
  6
CONTINUOUS
 62
     7
 10
-19.6645
 20
-1.6135
  0
VERTEX
  8
MACK_GRANITE_265
  6
CONTINUOUS
 62
     7
 10
-19.8318
 20
-1.3781
  0
VERTEX
  8
MACK_GRANITE_265
  6
CONTINUOUS
 62
     7
 10
-20.0099
 20
-1.1513
  0
VERTEX
  8
MACK_GRANITE_265
  6
CONTINUOUS
 62
     7
 10
-20.1985
 20
-0.9335
  0
VERTEX
  8
MACK_GRANITE_265
  6
CONTINUOUS
 62
     7
 10
-20.3972
 20
-0.7249
  0
VERTEX
  8
MACK_GRANITE_265
  6
CONTINUOUS
 62
     7
 10
-20.6056
 20
-0.5261
  0
VERTEX
  8
MACK_GRANITE_265
  6
CONTINUOUS
 62
     7
 10
-20.8234
 20
-0.3374
  0
VERTEX
  8
MACK_GRANITE_265
  6
CONTINUOUS
 62
     7
 10
-21.0501
 20
-0.1592
  0
VERTEX
  8
MACK_GRANITE_265
  6
CONTINUOUS
 62
     7
 10
-21.2854
 20
0.0082
  0
VERTEX
  8
MACK_GRANITE_265
  6
CONTINUOUS
 62
     7
 10
-21.5289
 20
0.1644
  0
VERTEX
  8
MACK_GRANITE_265
  6
CONTINUOUS
 62
     7
 10
-21.7802
 20
0.3089
  0
VERTEX
  8
MACK_GRANITE_265
  6
CONTINUOUS
 62
     7
 10
-22.039
 20
0.4415
  0
VERTEX
  8
MACK_GRANITE_265
  6
CONTINUOUS
 62
     7
 10
-22.3049
 20
0.5617
  0
VERTEX
  8
MACK_GRANITE_265
  6
CONTINUOUS
 62
     7
 10
-22.5774
 20
0.6691
  0
VERTEX
  8
MACK_GRANITE_265
  6
CONTINUOUS
 62
     7
 10
-22.8563
 20
0.7634
  0
VERTEX
  8
MACK_GRANITE_265
  6
CONTINUOUS
 62
     7
 10
-23.1411
 20
0.8443
  0
VERTEX
  8
MACK_GRANITE_265
  6
CONTINUOUS
 62
     7
 10
-23.4315
 20
0.9112
  0
VERTEX
  8
MACK_GRANITE_265
  6
CONTINUOUS
 62
     7
 10
-23.727
 20
0.9639
  0
VERTEX
  8
MACK_GRANITE_265
  6
CONTINUOUS
 62
     7
 10
-24.0273
 20
1.0019
  0
VERTEX
  8
MACK_GRANITE_265
  6
CONTINUOUS
 62
     7
 10
-24.3321
 20
1.025
  0
VERTEX
  8
MACK_GRANITE_265
  6
CONTINUOUS
 62
     7
 10
-24.6409
 20
1.0326
  0
SEQEND
  8
MACK_GRANITE_265
  6
CONTINUOUS
 62
     7
  0
POLYLINE
  8
MACK_GRANITE_265
  6
CONTINUOUS
 62
     7
 66
     1
  0
VERTEX
  8
MACK_GRANITE_265
  6
CONTINUOUS
 62
     7
 10
-60.642
 20
-16.9674
  0
VERTEX
  8
MACK_GRANITE_265
  6
CONTINUOUS
 62
     7
 10
-60.6356
 20
-17.2491
  0
VERTEX
  8
MACK_GRANITE_265
  6
CONTINUOUS
 62
     7
 10
-60.6159
 20
-17.5298
  0
VERTEX
  8
MACK_GRANITE_265
  6
CONTINUOUS
 62
     7
 10
-60.5831
 20
-17.8089
  0
VERTEX
  8
MACK_GRANITE_265
  6
CONTINUOUS
 62
     7
 10
-60.5373
 20
-18.0861
  0
VERTEX
  8
MACK_GRANITE_265
  6
CONTINUOUS
 62
     7
 10
-60.4784
 20
-18.3607
  0
VERTEX
  8
MACK_GRANITE_265
  6
CONTINUOUS
 62
     7
 10
-60.4067
 20
-18.6325
  0
VERTEX
  8
MACK_GRANITE_265
  6
CONTINUOUS
 62
     7
 10
-60.3222
 20
-18.9008
  0
VERTEX
  8
MACK_GRANITE_265
  6
CONTINUOUS
 62
     7
 10
-60.2249
 20
-19.1653
  0
SEQEND
  8
MACK_GRANITE_265
  6
CONTINUOUS
 62
     7
  0
POLYLINE
  8
MACK_GRANITE_265
  6
CONTINUOUS
 62
     7
 66
     1
  0
VERTEX
  8
MACK_GRANITE_265
  6
CONTINUOUS
 62
     7
 10
-58.9284
 20
-21.1658
  0
VERTEX
  8
MACK_GRANITE_265
  6
CONTINUOUS
 62
     7
 10
-58.7123
 20
-21.376
  0
VERTEX
  8
MACK_GRANITE_265
  6
CONTINUOUS
 62
     7
 10
-58.4869
 20
-21.5742
  0
VERTEX
  8
MACK_GRANITE_265
  6
CONTINUOUS
 62
     7
 10
-58.2527
 20
-21.7601
  0
VERTEX
  8
MACK_GRANITE_265
  6
CONTINUOUS
 62
     7
 10
-58.0102
 20
-21.9337
  0
VERTEX
  8
MACK_GRANITE_265
  6
CONTINUOUS
 62
     7
 10
-57.76
 20
-22.0945
  0
VERTEX
  8
MACK_GRANITE_265
  6
CONTINUOUS
 62
     7
 10
-57.5026
 20
-22.2425
  0
VERTEX
  8
MACK_GRANITE_265
  6
CONTINUOUS
 62
     7
 10
-57.2385
 20
-22.3775
  0
VERTEX
  8
MACK_GRANITE_265
  6
CONTINUOUS
 62
     7
 10
-56.9682
 20
-22.4991
  0
VERTEX
  8
MACK_GRANITE_265
  6
CONTINUOUS
 62
     7
 10
-56.6922
 20
-22.6072
  0
VERTEX
  8
MACK_GRANITE_265
  6
CONTINUOUS
 62
     7
 10
-56.411
 20
-22.7016
  0
VERTEX
  8
MACK_GRANITE_265
  6
CONTINUOUS
 62
     7
 10
-56.1252
 20
-22.782
  0
VERTEX
  8
MACK_GRANITE_265
  6
CONTINUOUS
 62
     7
 10
-55.8352
 20
-22.8483
  0
VERTEX
  8
MACK_GRANITE_265
  6
CONTINUOUS
 62
     7
 10
-55.5417
 20
-22.9002
  0
VERTEX
  8
MACK_GRANITE_265
  6
CONTINUOUS
 62
     7
 10
-55.2449
 20
-22.9375
  0
VERTEX
  8
MACK_GRANITE_265
  6
CONTINUOUS
 62
     7
 10
-54.9456
 20
-22.9599
  0
VERTEX
  8
MACK_GRANITE_265
  6
CONTINUOUS
 62
     7
 10
-54.6442
 20
-22.9674
  0
SEQEND
  8
MACK_GRANITE_265
  6
CONTINUOUS
 62
     7
  0
POLYLINE
  8
MACK_GRANITE_265
  6
CONTINUOUS
 62
     7
 66
     1
  0
VERTEX
  8
MACK_GRANITE_265
  6
CONTINUOUS
 62
     7
 10
-24.6442
 20
-22.9674
  0
VERTEX
  8
MACK_GRANITE_265
  6
CONTINUOUS
 62
     7
 10
-24.3355
 20
-22.9599
  0
VERTEX
  8
MACK_GRANITE_265
  6
CONTINUOUS
 62
     7
 10
-24.0307
 20
-22.9371
  0
VERTEX
  8
MACK_GRANITE_265
  6
CONTINUOUS
 62
     7
 10
-23.7304
 20
-22.8992
  0
VERTEX
  8
MACK_GRANITE_265
  6
CONTINUOUS
 62
     7
 10
-23.4349
 20
-22.8467
  0
VERTEX
  8
MACK_GRANITE_265
  6
CONTINUOUS
 62
     7
 10
-23.1445
 20
-22.7799
  0
VERTEX
  8
MACK_GRANITE_265
  6
CONTINUOUS
 62
     7
 10
-22.8597
 20
-22.6993
  0
VERTEX
  8
MACK_GRANITE_265
  6
CONTINUOUS
 62
     7
 10
-22.5808
 20
-22.6051
  0
VERTEX
  8
MACK_GRANITE_265
  6
CONTINUOUS
 62
     7
 10
-22.3082
 20
-22.4979
  0
VERTEX
  8
MACK_GRANITE_265
  6
CONTINUOUS
 62
     7
 10
-22.0423
 20
-22.3778
  0
VERTEX
  8
MACK_GRANITE_265
  6
CONTINUOUS
 62
     7
 10
-21.7835
 20
-22.2455
  0
VERTEX
  8
MACK_GRANITE_265
  6
CONTINUOUS
 62
     7
 10
-21.5321
 20
-22.1011
  0
VERTEX
  8
MACK_GRANITE_265
  6
CONTINUOUS
 62
     7
 10
-21.2885
 20
-21.9451
  0
VERTEX
  8
MACK_GRANITE_265
  6
CONTINUOUS
 62
     7
 10
-21.0531
 20
-21.7779
  0
VERTEX
  8
MACK_GRANITE_265
  6
CONTINUOUS
 62
     7
 10
-20.8263
 20
-21.5998
  0
VERTEX
  8
MACK_GRANITE_265
  6
CONTINUOUS
 62
     7
 10
-20.6085
 20
-21.4113
  0
VERTEX
  8
MACK_GRANITE_265
  6
CONTINUOUS
 62
     7
 10
-20.4
 20
-21.2126
  0
VERTEX
  8
MACK_GRANITE_265
  6
CONTINUOUS
 62
     7
 10
-20.2012
 20
-21.0042
  0
VERTEX
  8
MACK_GRANITE_265
  6
CONTINUOUS
 62
     7
 10
-20.0124
 20
-20.7865
  0
VERTEX
  8
MACK_GRANITE_265
  6
CONTINUOUS
 62
     7
 10
-19.8342
 20
-20.5599
  0
VERTEX
  8
MACK_GRANITE_265
  6
CONTINUOUS
 62
     7
 10
-19.6668
 20
-20.3246
  0
VERTEX
  8
MACK_GRANITE_265
  6
CONTINUOUS
 62
     7
 10
-19.5106
 20
-20.0811
  0
VERTEX
  8
MACK_GRANITE_265
  6
CONTINUOUS
 62
     7
 10
-19.3661
 20
-19.8298
  0
VERTEX
  8
MACK_GRANITE_265
  6
CONTINUOUS
 62
     7
 10
-19.2335
 20
-19.5711
  0
VERTEX
  8
MACK_GRANITE_265
  6
CONTINUOUS
 62
     7
 10
-19.1133
 20
-19.3053
  0
VERTEX
  8
MACK_GRANITE_265
  6
CONTINUOUS
 62
     7
 10
-19.0058
 20
-19.0328
  0
VERTEX
  8
MACK_GRANITE_265
  6
CONTINUOUS
 62
     7
 10
-18.9114
 20
-18.754
  0
VERTEX
  8
MACK_GRANITE_265
  6
CONTINUOUS
 62
     7
 10
-18.8306
 20
-18.4692
  0
VERTEX
  8
MACK_GRANITE_265
  6
CONTINUOUS
 62
     7
 10
-18.7636
 20
-18.1789
  0
VERTEX
  8
MACK_GRANITE_265
  6
CONTINUOUS
 62
     7
 10
-18.7109
 20
-17.8834
  0
VERTEX
  8
MACK_GRANITE_265
  6
CONTINUOUS
 62
     7
 10
-18.6728
 20
-17.5831
  0
VERTEX
  8
MACK_GRANITE_265
  6
CONTINUOUS
 62
     7
 10
-18.6497
 20
-17.2784
  0
VERTEX
  8
MACK_GRANITE_265
  6
CONTINUOUS
 62
     7
 10
-18.642
 20
-16.9696
  0
SEQEND
  8
MACK_GRANITE_265
  6
CONTINUOUS
 62
     7
  0
POLYLINE
  8
MACK_GRANITE_265
  6
CONTINUOUS
 62
     7
 66
     1
  0
VERTEX
  8
MACK_GRANITE_265
  6
CONTINUOUS
 62
     7
 10
-24.6439
 20
-22.9674
  0
VERTEX
  8
MACK_GRANITE_265
  6
CONTINUOUS
 62
     7
 10
-24.3351
 20
-22.9599
  0
VERTEX
  8
MACK_GRANITE_265
  6
CONTINUOUS
 62
     7
 10
-24.0304
 20
-22.9371
  0
VERTEX
  8
MACK_GRANITE_265
  6
CONTINUOUS
 62
     7
 10
-23.73
 20
-22.8992
  0
VERTEX
  8
MACK_GRANITE_265
  6
CONTINUOUS
 62
     7
 10
-23.4345
 20
-22.8467
  0
VERTEX
  8
MACK_GRANITE_265
  6
CONTINUOUS
 62
     7
 10
-23.1441
 20
-22.7799
  0
VERTEX
  8
MACK_GRANITE_265
  6
CONTINUOUS
 62
     7
 10
-22.8593
 20
-22.6993
  0
VERTEX
  8
MACK_GRANITE_265
  6
CONTINUOUS
 62
     7
 10
-22.5804
 20
-22.6051
  0
VERTEX
  8
MACK_GRANITE_265
  6
CONTINUOUS
 62
     7
 10
-22.3079
 20
-22.4979
  0
VERTEX
  8
MACK_GRANITE_265
  6
CONTINUOUS
 62
     7
 10
-22.042
 20
-22.3778
  0
VERTEX
  8
MACK_GRANITE_265
  6
CONTINUOUS
 62
     7
 10
-21.7831
 20
-22.2455
  0
VERTEX
  8
MACK_GRANITE_265
  6
CONTINUOUS
 62
     7
 10
-21.5317
 20
-22.1011
  0
VERTEX
  8
MACK_GRANITE_265
  6
CONTINUOUS
 62
     7
 10
-21.2881
 20
-21.9451
  0
VERTEX
  8
MACK_GRANITE_265
  6
CONTINUOUS
 62
     7
 10
-21.0528
 20
-21.7779
  0
VERTEX
  8
MACK_GRANITE_265
  6
CONTINUOUS
 62
     7
 10
-20.826
 20
-21.5998
  0
VERTEX
  8
MACK_GRANITE_265
  6
CONTINUOUS
 62
     7
 10
-20.6081
 20
-21.4113
  0
VERTEX
  8
MACK_GRANITE_265
  6
CONTINUOUS
 62
     7
 10
-20.3996
 20
-21.2126
  0
VERTEX
  8
MACK_GRANITE_265
  6
CONTINUOUS
 62
     7
 10
-20.2008
 20
-21.0042
  0
VERTEX
  8
MACK_GRANITE_265
  6
CONTINUOUS
 62
     7
 10
-20.0121
 20
-20.7865
  0
VERTEX
  8
MACK_GRANITE_265
  6
CONTINUOUS
 62
     7
 10
-19.8338
 20
-20.5599
  0
VERTEX
  8
MACK_GRANITE_265
  6
CONTINUOUS
 62
     7
 10
-19.6664
 20
-20.3246
  0
VERTEX
  8
MACK_GRANITE_265
  6
CONTINUOUS
 62
     7
 10
-19.5103
 20
-20.0811
  0
VERTEX
  8
MACK_GRANITE_265
  6
CONTINUOUS
 62
     7
 10
-19.3657
 20
-19.8298
  0
VERTEX
  8
MACK_GRANITE_265
  6
CONTINUOUS
 62
     7
 10
-19.2331
 20
-19.5711
  0
VERTEX
  8
MACK_GRANITE_265
  6
CONTINUOUS
 62
     7
 10
-19.1129
 20
-19.3053
  0
VERTEX
  8
MACK_GRANITE_265
  6
CONTINUOUS
 62
     7
 10
-19.0054
 20
-19.0328
  0
VERTEX
  8
MACK_GRANITE_265
  6
CONTINUOUS
 62
     7
 10
-18.9111
 20
-18.754
  0
VERTEX
  8
MACK_GRANITE_265
  6
CONTINUOUS
 62
     7
 10
-18.8302
 20
-18.4692
  0
VERTEX
  8
MACK_GRANITE_265
  6
CONTINUOUS
 62
     7
 10
-18.7632
 20
-18.1789
  0
VERTEX
  8
MACK_GRANITE_265
  6
CONTINUOUS
 62
     7
 10
-18.7105
 20
-17.8834
  0
VERTEX
  8
MACK_GRANITE_265
  6
CONTINUOUS
 62
     7
 10
-18.6724
 20
-17.5831
  0
VERTEX
  8
MACK_GRANITE_265
  6
CONTINUOUS
 62
     7
 10
-18.6493
 20
-17.2784
  0
VERTEX
  8
MACK_GRANITE_265
  6
CONTINUOUS
 62
     7
 10
-18.6416
 20
-16.9696
  0
SEQEND
  8
MACK_GRANITE_265
  6
CONTINUOUS
 62
     7
  0
POLYLINE
  8
MACK_GRANITE_265
  6
CONTINUOUS
 62
     7
 66
     1
  0
VERTEX
  8
MACK_GRANITE_265
  6
CONTINUOUS
 62
     7
 10
-82.2466
 20
69.219
  0
VERTEX
  8
MACK_GRANITE_265
  6
CONTINUOUS
 62
     7
 10
-82.4682
 20
69.1766
  0
VERTEX
  8
MACK_GRANITE_265
  6
CONTINUOUS
 62
     7
 10
-82.6838
 20
69.1182
  0
VERTEX
  8
MACK_GRANITE_265
  6
CONTINUOUS
 62
     7
 10
-82.8927
 20
69.0445
  0
VERTEX
  8
MACK_GRANITE_265
  6
CONTINUOUS
 62
     7
 10
-83.0942
 20
68.956
  0
VERTEX
  8
MACK_GRANITE_265
  6
CONTINUOUS
 62
     7
 10
-83.2876
 20
68.8534
  0
VERTEX
  8
MACK_GRANITE_265
  6
CONTINUOUS
 62
     7
 10
-83.4723
 20
68.7373
  0
VERTEX
  8
MACK_GRANITE_265
  6
CONTINUOUS
 62
     7
 10
-83.6476
 20
68.6083
  0
VERTEX
  8
MACK_GRANITE_265
  6
CONTINUOUS
 62
     7
 10
-83.8128
 20
68.467
  0
VERTEX
  8
MACK_GRANITE_265
  6
CONTINUOUS
 62
     7
 10
-83.9673
 20
68.314
  0
VERTEX
  8
MACK_GRANITE_265
  6
CONTINUOUS
 62
     7
 10
-84.1104
 20
68.15
  0
VERTEX
  8
MACK_GRANITE_265
  6
CONTINUOUS
 62
     7
 10
-84.2414
 20
67.9756
  0
VERTEX
  8
MACK_GRANITE_265
  6
CONTINUOUS
 62
     7
 10
-84.3597
 20
67.7913
  0
VERTEX
  8
MACK_GRANITE_265
  6
CONTINUOUS
 62
     7
 10
-84.4645
 20
67.5979
  0
VERTEX
  8
MACK_GRANITE_265
  6
CONTINUOUS
 62
     7
 10
-84.5553
 20
67.3958
  0
VERTEX
  8
MACK_GRANITE_265
  6
CONTINUOUS
 62
     7
 10
-84.6313
 20
67.1858
  0
VERTEX
  8
MACK_GRANITE_265
  6
CONTINUOUS
 62
     7
 10
-84.692
 20
66.9685
  0
SEQEND
  8
MACK_GRANITE_265
  6
CONTINUOUS
 62
     7
  0
CIRCLE
  8
MACK_GRANITE_265
 10
-114.6416
 20
-20.1674
 40
20.0
  0
CIRCLE
  8
MACK_GRANITE_265
 10
-114.6416
 20
-20.1674
 40
21.0
  0
POLYLINE
  8
MACK_GRANITE_265
  6
CONTINUOUS
 62
     7
 66
     1
  0
VERTEX
  8
MACK_GRANITE_265
  6
CONTINUOUS
 62
     7
 10
-36.642
 20
67.0359
  0
VERTEX
  8
MACK_GRANITE_265
  6
CONTINUOUS
 62
     7
 10
-36.6468
 20
67.2359
  0
VERTEX
  8
MACK_GRANITE_265
  6
CONTINUOUS
 62
     7
 10
-36.6613
 20
67.4335
  0
VERTEX
  8
MACK_GRANITE_265
  6
CONTINUOUS
 62
     7
 10
-36.6853
 20
67.6284
  0
VERTEX
  8
MACK_GRANITE_265
  6
CONTINUOUS
 62
     7
 10
-36.7185
 20
67.8204
  0
VERTEX
  8
MACK_GRANITE_265
  6
CONTINUOUS
 62
     7
 10
-36.7608
 20
68.0091
  0
VERTEX
  8
MACK_GRANITE_265
  6
CONTINUOUS
 62
     7
 10
-36.8118
 20
68.1945
  0
VERTEX
  8
MACK_GRANITE_265
  6
CONTINUOUS
 62
     7
 10
-36.8715
 20
68.3761
  0
VERTEX
  8
MACK_GRANITE_265
  6
CONTINUOUS
 62
     7
 10
-36.9395
 20
68.5539
  0
VERTEX
  8
MACK_GRANITE_265
  6
CONTINUOUS
 62
     7
 10
-37.0156
 20
68.7276
  0
VERTEX
  8
MACK_GRANITE_265
  6
CONTINUOUS
 62
     7
 10
-37.0996
 20
68.8969
  0
VERTEX
  8
MACK_GRANITE_265
  6
CONTINUOUS
 62
     7
 10
-37.1913
 20
69.0615
  0
VERTEX
  8
MACK_GRANITE_265
  6
CONTINUOUS
 62
     7
 10
-37.2904
 20
69.2213
  0
VERTEX
  8
MACK_GRANITE_265
  6
CONTINUOUS
 62
     7
 10
-37.3966
 20
69.3761
  0
VERTEX
  8
MACK_GRANITE_265
  6
CONTINUOUS
 62
     7
 10
-37.5099
 20
69.5255
  0
VERTEX
  8
MACK_GRANITE_265
  6
CONTINUOUS
 62
     7
 10
-37.6299
 20
69.6693
  0
VERTEX
  8
MACK_GRANITE_265
  6
CONTINUOUS
 62
     7
 10
-37.7565
 20
69.8073
  0
VERTEX
  8
MACK_GRANITE_265
  6
CONTINUOUS
 62
     7
 10
-37.8893
 20
69.9393
  0
VERTEX
  8
MACK_GRANITE_265
  6
CONTINUOUS
 62
     7
 10
-38.0282
 20
70.065
  0
VERTEX
  8
MACK_GRANITE_265
  6
CONTINUOUS
 62
     7
 10
-38.1729
 20
70.1842
  0
VERTEX
  8
MACK_GRANITE_265
  6
CONTINUOUS
 62
     7
 10
-38.3232
 20
70.2967
  0
VERTEX
  8
MACK_GRANITE_265
  6
CONTINUOUS
 62
     7
 10
-38.4789
 20
70.4021
  0
VERTEX
  8
MACK_GRANITE_265
  6
CONTINUOUS
 62
     7
 10
-38.6397
 20
70.5004
  0
VERTEX
  8
MACK_GRANITE_265
  6
CONTINUOUS
 62
     7
 10
-38.8055
 20
70.5911
  0
VERTEX
  8
MACK_GRANITE_265
  6
CONTINUOUS
 62
     7
 10
-38.9759
 20
70.6742
  0
VERTEX
  8
MACK_GRANITE_265
  6
CONTINUOUS
 62
     7
 10
-39.1508
 20
70.7493
  0
VERTEX
  8
MACK_GRANITE_265
  6
CONTINUOUS
 62
     7
 10
-39.3299
 20
70.8162
  0
VERTEX
  8
MACK_GRANITE_265
  6
CONTINUOUS
 62
     7
 10
-39.5131
 20
70.8747
  0
VERTEX
  8
MACK_GRANITE_265
  6
CONTINUOUS
 62
     7
 10
-39.7
 20
70.9245
  0
VERTEX
  8
MACK_GRANITE_265
  6
CONTINUOUS
 62
     7
 10
-39.8904
 20
70.9655
  0
VERTEX
  8
MACK_GRANITE_265
  6
CONTINUOUS
 62
     7
 10
-40.0842
 20
70.9973
  0
VERTEX
  8
MACK_GRANITE_265
  6
CONTINUOUS
 62
     7
 10
-40.281
 20
71.0198
  0
VERTEX
  8
MACK_GRANITE_265
  6
CONTINUOUS
 62
     7
 10
-40.4807
 20
71.0326
  0
SEQEND
  8
MACK_GRANITE_265
  6
CONTINUOUS
 62
     7
  0
POLYLINE
  8
MACK_GRANITE_265
  6
CONTINUOUS
 62
     7
 66
     1
  0
VERTEX
  8
MACK_GRANITE_265
  6
CONTINUOUS
 62
     7
 10
-40.4807
 20
71.0326
  0
VERTEX
  8
MACK_GRANITE_265
  6
CONTINUOUS
 62
     7
 10
-41.6592
 20
71.0783
  0
VERTEX
  8
MACK_GRANITE_265
  6
CONTINUOUS
 62
     7
 10
-42.8378
 20
71.1183
  0
VERTEX
  8
MACK_GRANITE_265
  6
CONTINUOUS
 62
     7
 10
-44.0166
 20
71.1528
  0
VERTEX
  8
MACK_GRANITE_265
  6
CONTINUOUS
 62
     7
 10
-45.1953
 20
71.1816
  0
VERTEX
  8
MACK_GRANITE_265
  6
CONTINUOUS
 62
     7
 10
-46.3742
 20
71.2048
  0
VERTEX
  8
MACK_GRANITE_265
  6
CONTINUOUS
 62
     7
 10
-47.553
 20
71.2223
  0
VERTEX
  8
MACK_GRANITE_265
  6
CONTINUOUS
 62
     7
 10
-48.7319
 20
71.2343
  0
VERTEX
  8
MACK_GRANITE_265
  6
CONTINUOUS
 62
     7
 10
-49.9108
 20
71.2406
  0
VERTEX
  8
MACK_GRANITE_265
  6
CONTINUOUS
 62
     7
 10
-51.0896
 20
71.2414
  0
VERTEX
  8
MACK_GRANITE_265
  6
CONTINUOUS
 62
     7
 10
-52.2684
 20
71.2365
  0
VERTEX
  8
MACK_GRANITE_265
  6
CONTINUOUS
 62
     7
 10
-53.4471
 20
71.2259
  0
VERTEX
  8
MACK_GRANITE_265
  6
CONTINUOUS
 62
     7
 10
-54.6257
 20
71.2098
  0
VERTEX
  8
MACK_GRANITE_265
  6
CONTINUOUS
 62
     7
 10
-55.8042
 20
71.1881
  0
VERTEX
  8
MACK_GRANITE_265
  6
CONTINUOUS
 62
     7
 10
-56.9825
 20
71.1607
  0
VERTEX
  8
MACK_GRANITE_265
  6
CONTINUOUS
 62
     7
 10
-58.1607
 20
71.1277
  0
VERTEX
  8
MACK_GRANITE_265
  6
CONTINUOUS
 62
     7
 10
-59.3387
 20
71.0892
  0
VERTEX
  8
MACK_GRANITE_265
  6
CONTINUOUS
 62
     7
 10
-60.5165
 20
71.045
  0
VERTEX
  8
MACK_GRANITE_265
  6
CONTINUOUS
 62
     7
 10
-61.6942
 20
70.9952
  0
VERTEX
  8
MACK_GRANITE_265
  6
CONTINUOUS
 62
     7
 10
-62.8715
 20
70.9397
  0
VERTEX
  8
MACK_GRANITE_265
  6
CONTINUOUS
 62
     7
 10
-64.0486
 20
70.8787
  0
VERTEX
  8
MACK_GRANITE_265
  6
CONTINUOUS
 62
     7
 10
-65.2255
 20
70.8121
  0
VERTEX
  8
MACK_GRANITE_265
  6
CONTINUOUS
 62
     7
 10
-66.402
 20
70.7398
  0
VERTEX
  8
MACK_GRANITE_265
  6
CONTINUOUS
 62
     7
 10
-67.5782
 20
70.662
  0
VERTEX
  8
MACK_GRANITE_265
  6
CONTINUOUS
 62
     7
 10
-68.7541
 20
70.5785
  0
VERTEX
  8
MACK_GRANITE_265
  6
CONTINUOUS
 62
     7
 10
-69.9296
 20
70.4895
  0
VERTEX
  8
MACK_GRANITE_265
  6
CONTINUOUS
 62
     7
 10
-71.1047
 20
70.3948
  0
VERTEX
  8
MACK_GRANITE_265
  6
CONTINUOUS
 62
     7
 10
-72.2794
 20
70.2945
  0
VERTEX
  8
MACK_GRANITE_265
  6
CONTINUOUS
 62
     7
 10
-73.4537
 20
70.1887
  0
VERTEX
  8
MACK_GRANITE_265
  6
CONTINUOUS
 62
     7
 10
-74.6276
 20
70.0772
  0
VERTEX
  8
MACK_GRANITE_265
  6
CONTINUOUS
 62
     7
 10
-75.801
 20
69.9601
  0
VERTEX
  8
MACK_GRANITE_265
  6
CONTINUOUS
 62
     7
 10
-76.9739
 20
69.8374
  0
VERTEX
  8
MACK_GRANITE_265
  6
CONTINUOUS
 62
     7
 10
-78.1463
 20
69.7091
  0
SEQEND
  8
MACK_GRANITE_265
  6
CONTINUOUS
 62
     7
  0
POLYLINE
  8
MACK_GRANITE_265
  6
CONTINUOUS
 62
     7
 66
     1
  0
VERTEX
  8
MACK_GRANITE_265
  6
CONTINUOUS
 62
     7
 10
-42.642
 20
65.1074
  0
VERTEX
  8
MACK_GRANITE_265
  6
CONTINUOUS
 62
     7
 10
-44.8425
 20
65.1705
  0
VERTEX
  8
MACK_GRANITE_265
  6
CONTINUOUS
 62
     7
 10
-47.0432
 20
65.2136
  0
VERTEX
  8
MACK_GRANITE_265
  6
CONTINUOUS
 62
     7
 10
-49.2439
 20
65.2366
  0
VERTEX
  8
MACK_GRANITE_265
  6
CONTINUOUS
 62
     7
 10
-51.4445
 20
65.2395
  0
VERTEX
  8
MACK_GRANITE_265
  6
CONTINUOUS
 62
     7
 10
-53.645
 20
65.2224
  0
VERTEX
  8
MACK_GRANITE_265
  6
CONTINUOUS
 62
     7
 10
-55.845
 20
65.1852
  0
VERTEX
  8
MACK_GRANITE_265
  6
CONTINUOUS
 62
     7
 10
-58.0445
 20
65.1279
  0
VERTEX
  8
MACK_GRANITE_265
  6
CONTINUOUS
 62
     7
 10
-60.2434
 20
65.0506
  0
VERTEX
  8
MACK_GRANITE_265
  6
CONTINUOUS
 62
     7
 10
-62.4414
 20
64.9533
  0
VERTEX
  8
MACK_GRANITE_265
  6
CONTINUOUS
 62
     7
 10
-64.6386
 20
64.8359
  0
VERTEX
  8
MACK_GRANITE_265
  6
CONTINUOUS
 62
     7
 10
-66.8346
 20
64.6985
  0
VERTEX
  8
MACK_GRANITE_265
  6
CONTINUOUS
 62
     7
 10
-69.0295
 20
64.5411
  0
VERTEX
  8
MACK_GRANITE_265
  6
CONTINUOUS
 62
     7
 10
-71.2229
 20
64.3636
  0
VERTEX
  8
MACK_GRANITE_265
  6
CONTINUOUS
 62
     7
 10
-73.4149
 20
64.1662
  0
VERTEX
  8
MACK_GRANITE_265
  6
CONTINUOUS
 62
     7
 10
-75.6053
 20
63.9487
  0
VERTEX
  8
MACK_GRANITE_265
  6
CONTINUOUS
 62
     7
 10
-77.7938
 20
63.7112
  0
SEQEND
  8
MACK_GRANITE_265
  6
CONTINUOUS
 62
     7
  0
POLYLINE
  8
MACK_GRANITE_265
  6
CONTINUOUS
 62
     7
 66
     1
  0
VERTEX
  8
MACK_GRANITE_265
  6
CONTINUOUS
 62
     7
 10
-133.8814
 20
12.7327
  0
VERTEX
  8
MACK_GRANITE_265
  6
CONTINUOUS
 62
     7
 10
-134.2326
 20
12.7122
  0
VERTEX
  8
MACK_GRANITE_265
  6
CONTINUOUS
 62
     7
 10
-134.5787
 20
12.6748
  0
VERTEX
  8
MACK_GRANITE_265
  6
CONTINUOUS
 62
     7
 10
-134.9196
 20
12.6208
  0
VERTEX
  8
MACK_GRANITE_265
  6
CONTINUOUS
 62
     7
 10
-135.2546
 20
12.5506
  0
VERTEX
  8
MACK_GRANITE_265
  6
CONTINUOUS
 62
     7
 10
-135.5834
 20
12.4647
  0
VERTEX
  8
MACK_GRANITE_265
  6
CONTINUOUS
 62
     7
 10
-135.9057
 20
12.3635
  0
VERTEX
  8
MACK_GRANITE_265
  6
CONTINUOUS
 62
     7
 10
-136.221
 20
12.2474
  0
VERTEX
  8
MACK_GRANITE_265
  6
CONTINUOUS
 62
     7
 10
-136.5288
 20
12.1169
  0
VERTEX
  8
MACK_GRANITE_265
  6
CONTINUOUS
 62
     7
 10
-136.8289
 20
11.9723
  0
VERTEX
  8
MACK_GRANITE_265
  6
CONTINUOUS
 62
     7
 10
-137.1207
 20
11.8141
  0
VERTEX
  8
MACK_GRANITE_265
  6
CONTINUOUS
 62
     7
 10
-137.404
 20
11.6426
  0
VERTEX
  8
MACK_GRANITE_265
  6
CONTINUOUS
 62
     7
 10
-137.6782
 20
11.4584
  0
VERTEX
  8
MACK_GRANITE_265
  6
CONTINUOUS
 62
     7
 10
-137.9429
 20
11.2619
  0
VERTEX
  8
MACK_GRANITE_265
  6
CONTINUOUS
 62
     7
 10
-138.1979
 20
11.0534
  0
VERTEX
  8
MACK_GRANITE_265
  6
CONTINUOUS
 62
     7
 10
-138.4426
 20
10.8333
  0
VERTEX
  8
MACK_GRANITE_265
  6
CONTINUOUS
 62
     7
 10
-138.6766
 20
10.6022
  0
VERTEX
  8
MACK_GRANITE_265
  6
CONTINUOUS
 62
     7
 10
-138.8996
 20
10.3603
  0
VERTEX
  8
MACK_GRANITE_265
  6
CONTINUOUS
 62
     7
 10
-139.1111
 20
10.1083
  0
VERTEX
  8
MACK_GRANITE_265
  6
CONTINUOUS
 62
     7
 10
-139.3108
 20
9.8463
  0
VERTEX
  8
MACK_GRANITE_265
  6
CONTINUOUS
 62
     7
 10
-139.4982
 20
9.575
  0
VERTEX
  8
MACK_GRANITE_265
  6
CONTINUOUS
 62
     7
 10
-139.6729
 20
9.2946
  0
VERTEX
  8
MACK_GRANITE_265
  6
CONTINUOUS
 62
     7
 10
-139.8345
 20
9.0057
  0
VERTEX
  8
MACK_GRANITE_265
  6
CONTINUOUS
 62
     7
 10
-139.9826
 20
8.7086
  0
VERTEX
  8
MACK_GRANITE_265
  6
CONTINUOUS
 62
     7
 10
-140.1169
 20
8.4038
  0
VERTEX
  8
MACK_GRANITE_265
  6
CONTINUOUS
 62
     7
 10
-140.2368
 20
8.0916
  0
VERTEX
  8
MACK_GRANITE_265
  6
CONTINUOUS
 62
     7
 10
-140.342
 20
7.7725
  0
VERTEX
  8
MACK_GRANITE_265
  6
CONTINUOUS
 62
     7
 10
-140.4321
 20
7.447
  0
VERTEX
  8
MACK_GRANITE_265
  6
CONTINUOUS
 62
     7
 10
-140.5067
 20
7.1154
  0
VERTEX
  8
MACK_GRANITE_265
  6
CONTINUOUS
 62
     7
 10
-140.5653
 20
6.7782
  0
VERTEX
  8
MACK_GRANITE_265
  6
CONTINUOUS
 62
     7
 10
-140.6076
 20
6.4357
  0
VERTEX
  8
MACK_GRANITE_265
  6
CONTINUOUS
 62
     7
 10
-140.6332
 20
6.0885
  0
VERTEX
  8
MACK_GRANITE_265
  6
CONTINUOUS
 62
     7
 10
-140.6416
 20
5.7368
  0
SEQEND
  8
MACK_GRANITE_265
  6
CONTINUOUS
 62
     7
  0
POLYLINE
  8
MACK_GRANITE_265
  6
CONTINUOUS
 62
     7
 66
     1
  0
VERTEX
  8
MACK_GRANITE_265
  6
CONTINUOUS
 62
     7
 10
-95.2409
 20
8.5976
  0
VERTEX
  8
MACK_GRANITE_265
  6
CONTINUOUS
 62
     7
 10
-95.3246
 20
8.8913
  0
VERTEX
  8
MACK_GRANITE_265
  6
CONTINUOUS
 62
     7
 10
-95.4201
 20
9.179
  0
VERTEX
  8
MACK_GRANITE_265
  6
CONTINUOUS
 62
     7
 10
-95.5273
 20
9.4604
  0
VERTEX
  8
MACK_GRANITE_265
  6
CONTINUOUS
 62
     7
 10
-95.6457
 20
9.7352
  0
VERTEX
  8
MACK_GRANITE_265
  6
CONTINUOUS
 62
     7
 10
-95.7751
 20
10.0032
  0
VERTEX
  8
MACK_GRANITE_265
  6
CONTINUOUS
 62
     7
 10
-95.9151
 20
10.2643
  0
VERTEX
  8
MACK_GRANITE_265
  6
CONTINUOUS
 62
     7
 10
-96.0655
 20
10.5181
  0
VERTEX
  8
MACK_GRANITE_265
  6
CONTINUOUS
 62
     7
 10
-96.2258
 20
10.7644
  0
VERTEX
  8
MACK_GRANITE_265
  6
CONTINUOUS
 62
     7
 10
-96.3958
 20
11.0029
  0
VERTEX
  8
MACK_GRANITE_265
  6
CONTINUOUS
 62
     7
 10
-96.5752
 20
11.2336
  0
VERTEX
  8
MACK_GRANITE_265
  6
CONTINUOUS
 62
     7
 10
-96.7637
 20
11.456
  0
VERTEX
  8
MACK_GRANITE_265
  6
CONTINUOUS
 62
     7
 10
-96.9609
 20
11.67
  0
VERTEX
  8
MACK_GRANITE_265
  6
CONTINUOUS
 62
     7
 10
-97.1665
 20
11.8753
  0
VERTEX
  8
MACK_GRANITE_265
  6
CONTINUOUS
 62
     7
 10
-97.3802
 20
12.0717
  0
VERTEX
  8
MACK_GRANITE_265
  6
CONTINUOUS
 62
     7
 10
-97.6017
 20
12.259
  0
VERTEX
  8
MACK_GRANITE_265
  6
CONTINUOUS
 62
     7
 10
-97.8307
 20
12.437
  0
VERTEX
  8
MACK_GRANITE_265
  6
CONTINUOUS
 62
     7
 10
-98.0668
 20
12.6053
  0
VERTEX
  8
MACK_GRANITE_265
  6
CONTINUOUS
 62
     7
 10
-98.3097
 20
12.7638
  0
VERTEX
  8
MACK_GRANITE_265
  6
CONTINUOUS
 62
     7
 10
-98.5592
 20
12.9122
  0
VERTEX
  8
MACK_GRANITE_265
  6
CONTINUOUS
 62
     7
 10
-98.8149
 20
13.0503
  0
VERTEX
  8
MACK_GRANITE_265
  6
CONTINUOUS
 62
     7
 10
-99.0764
 20
13.1778
  0
VERTEX
  8
MACK_GRANITE_265
  6
CONTINUOUS
 62
     7
 10
-99.3436
 20
13.2945
  0
VERTEX
  8
MACK_GRANITE_265
  6
CONTINUOUS
 62
     7
 10
-99.616
 20
13.4002
  0
VERTEX
  8
MACK_GRANITE_265
  6
CONTINUOUS
 62
     7
 10
-99.8933
 20
13.4947
  0
VERTEX
  8
MACK_GRANITE_265
  6
CONTINUOUS
 62
     7
 10
-100.1752
 20
13.5777
  0
VERTEX
  8
MACK_GRANITE_265
  6
CONTINUOUS
 62
     7
 10
-100.4615
 20
13.6489
  0
VERTEX
  8
MACK_GRANITE_265
  6
CONTINUOUS
 62
     7
 10
-100.7517
 20
13.7082
  0
VERTEX
  8
MACK_GRANITE_265
  6
CONTINUOUS
 62
     7
 10
-101.0456
 20
13.7553
  0
VERTEX
  8
MACK_GRANITE_265
  6
CONTINUOUS
 62
     7
 10
-101.3428
 20
13.7899
  0
VERTEX
  8
MACK_GRANITE_265
  6
CONTINUOUS
 62
     7
 10
-101.6431
 20
13.8118
  0
VERTEX
  8
MACK_GRANITE_265
  6
CONTINUOUS
 62
     7
 10
-101.9461
 20
13.8209
  0
VERTEX
  8
MACK_GRANITE_265
  6
CONTINUOUS
 62
     7
 10
-102.2515
 20
13.8168
  0
SEQEND
  8
MACK_GRANITE_265
  6
CONTINUOUS
 62
     7
  0
POLYLINE
  8
MACK_GRANITE_265
  6
CONTINUOUS
 62
     7
 66
     1
  0
VERTEX
  8
MACK_GRANITE_265
  6
CONTINUOUS
 62
     7
 10
-133.9842
 20
15.7309
  0
VERTEX
  8
MACK_GRANITE_265
  6
CONTINUOUS
 62
     7
 10
-134.2358
 20
15.7194
  0
VERTEX
  8
MACK_GRANITE_265
  6
CONTINUOUS
 62
     7
 10
-134.4858
 20
15.7017
  0
VERTEX
  8
MACK_GRANITE_265
  6
CONTINUOUS
 62
     7
 10
-134.734
 20
15.6779
  0
VERTEX
  8
MACK_GRANITE_265
  6
CONTINUOUS
 62
     7
 10
-134.9804
 20
15.6482
  0
VERTEX
  8
MACK_GRANITE_265
  6
CONTINUOUS
 62
     7
 10
-135.2248
 20
15.6125
  0
VERTEX
  8
MACK_GRANITE_265
  6
CONTINUOUS
 62
     7
 10
-135.4672
 20
15.571
  0
VERTEX
  8
MACK_GRANITE_265
  6
CONTINUOUS
 62
     7
 10
-135.7076
 20
15.5238
  0
VERTEX
  8
MACK_GRANITE_265
  6
CONTINUOUS
 62
     7
 10
-135.9458
 20
15.4708
  0
VERTEX
  8
MACK_GRANITE_265
  6
CONTINUOUS
 62
     7
 10
-136.1819
 20
15.4122
  0
VERTEX
  8
MACK_GRANITE_265
  6
CONTINUOUS
 62
     7
 10
-136.4156
 20
15.3481
  0
VERTEX
  8
MACK_GRANITE_265
  6
CONTINUOUS
 62
     7
 10
-136.647
 20
15.2785
  0
VERTEX
  8
MACK_GRANITE_265
  6
CONTINUOUS
 62
     7
 10
-136.876
 20
15.2035
  0
VERTEX
  8
MACK_GRANITE_265
  6
CONTINUOUS
 62
     7
 10
-137.1025
 20
15.1232
  0
VERTEX
  8
MACK_GRANITE_265
  6
CONTINUOUS
 62
     7
 10
-137.3264
 20
15.0377
  0
VERTEX
  8
MACK_GRANITE_265
  6
CONTINUOUS
 62
     7
 10
-137.5476
 20
14.947
  0
VERTEX
  8
MACK_GRANITE_265
  6
CONTINUOUS
 62
     7
 10
-137.7662
 20
14.8512
  0
VERTEX
  8
MACK_GRANITE_265
  6
CONTINUOUS
 62
     7
 10
-138.1949
 20
14.6446
  0
VERTEX
  8
MACK_GRANITE_265
  6
CONTINUOUS
 62
     7
 10
-138.6118
 20
14.4186
  0
VERTEX
  8
MACK_GRANITE_265
  6
CONTINUOUS
 62
     7
 10
-139.0164
 20
14.1737
  0
VERTEX
  8
MACK_GRANITE_265
  6
CONTINUOUS
 62
     7
 10
-139.4081
 20
13.9106
  0
VERTEX
  8
MACK_GRANITE_265
  6
CONTINUOUS
 62
     7
 10
-139.7864
 20
13.6297
  0
VERTEX
  8
MACK_GRANITE_265
  6
CONTINUOUS
 62
     7
 10
-140.1506
 20
13.3319
  0
VERTEX
  8
MACK_GRANITE_265
  6
CONTINUOUS
 62
     7
 10
-140.5001
 20
13.0175
  0
VERTEX
  8
MACK_GRANITE_265
  6
CONTINUOUS
 62
     7
 10
-140.8345
 20
12.6873
  0
VERTEX
  8
MACK_GRANITE_265
  6
CONTINUOUS
 62
     7
 10
-141.153
 20
12.3419
  0
VERTEX
  8
MACK_GRANITE_265
  6
CONTINUOUS
 62
     7
 10
-141.4552
 20
11.9817
  0
VERTEX
  8
MACK_GRANITE_265
  6
CONTINUOUS
 62
     7
 10
-141.7404
 20
11.6076
  0
VERTEX
  8
MACK_GRANITE_265
  6
CONTINUOUS
 62
     7
 10
-142.0081
 20
11.2199
  0
VERTEX
  8
MACK_GRANITE_265
  6
CONTINUOUS
 62
     7
 10
-142.2577
 20
10.8194
  0
VERTEX
  8
MACK_GRANITE_265
  6
CONTINUOUS
 62
     7
 10
-142.4886
 20
10.4066
  0
VERTEX
  8
MACK_GRANITE_265
  6
CONTINUOUS
 62
     7
 10
-142.7002
 20
9.9822
  0
VERTEX
  8
MACK_GRANITE_265
  6
CONTINUOUS
 62
     7
 10
-142.892
 20
9.5467
  0
VERTEX
  8
MACK_GRANITE_265
  6
CONTINUOUS
 62
     7
 10
-142.9802
 20
9.325
  0
VERTEX
  8
MACK_GRANITE_265
  6
CONTINUOUS
 62
     7
 10
-143.0633
 20
9.1008
  0
VERTEX
  8
MACK_GRANITE_265
  6
CONTINUOUS
 62
     7
 10
-143.1411
 20
8.8741
  0
VERTEX
  8
MACK_GRANITE_265
  6
CONTINUOUS
 62
     7
 10
-143.2136
 20
8.645
  0
VERTEX
  8
MACK_GRANITE_265
  6
CONTINUOUS
 62
     7
 10
-143.2807
 20
8.4136
  0
VERTEX
  8
MACK_GRANITE_265
  6
CONTINUOUS
 62
     7
 10
-143.3423
 20
8.1799
  0
VERTEX
  8
MACK_GRANITE_265
  6
CONTINUOUS
 62
     7
 10
-143.3984
 20
7.9441
  0
VERTEX
  8
MACK_GRANITE_265
  6
CONTINUOUS
 62
     7
 10
-143.4488
 20
7.7062
  0
VERTEX
  8
MACK_GRANITE_265
  6
CONTINUOUS
 62
     7
 10
-143.4936
 20
7.4663
  0
VERTEX
  8
MACK_GRANITE_265
  6
CONTINUOUS
 62
     7
 10
-143.5326
 20
7.2245
  0
VERTEX
  8
MACK_GRANITE_265
  6
CONTINUOUS
 62
     7
 10
-143.5658
 20
6.9807
  0
VERTEX
  8
MACK_GRANITE_265
  6
CONTINUOUS
 62
     7
 10
-143.5931
 20
6.7352
  0
VERTEX
  8
MACK_GRANITE_265
  6
CONTINUOUS
 62
     7
 10
-143.6144
 20
6.488
  0
VERTEX
  8
MACK_GRANITE_265
  6
CONTINUOUS
 62
     7
 10
-143.6296
 20
6.2392
  0
VERTEX
  8
MACK_GRANITE_265
  6
CONTINUOUS
 62
     7
 10
-143.6387
 20
5.9887
  0
VERTEX
  8
MACK_GRANITE_265
  6
CONTINUOUS
 62
     7
 10
-143.6416
 20
5.7368
  0
SEQEND
  8
MACK_GRANITE_265
  6
CONTINUOUS
 62
     7
  0
POLYLINE
  8
MACK_GRANITE_265
  6
CONTINUOUS
 62
     7
 66
     1
  0
VERTEX
  8
MACK_GRANITE_265
  6
CONTINUOUS
 62
     7
 10
-92.3392
 20
9.359
  0
VERTEX
  8
MACK_GRANITE_265
  6
CONTINUOUS
 62
     7
 10
-92.4587
 20
9.7787
  0
VERTEX
  8
MACK_GRANITE_265
  6
CONTINUOUS
 62
     7
 10
-92.5952
 20
10.1896
  0
VERTEX
  8
MACK_GRANITE_265
  6
CONTINUOUS
 62
     7
 10
-92.7483
 20
10.5916
  0
VERTEX
  8
MACK_GRANITE_265
  6
CONTINUOUS
 62
     7
 10
-92.9175
 20
10.9842
  0
VERTEX
  8
MACK_GRANITE_265
  6
CONTINUOUS
 62
     7
 10
-93.1023
 20
11.3671
  0
VERTEX
  8
MACK_GRANITE_265
  6
CONTINUOUS
 62
     7
 10
-93.3023
 20
11.74
  0
VERTEX
  8
MACK_GRANITE_265
  6
CONTINUOUS
 62
     7
 10
-93.5171
 20
12.1026
  0
VERTEX
  8
MACK_GRANITE_265
  6
CONTINUOUS
 62
     7
 10
-93.7461
 20
12.4544
  0
VERTEX
  8
MACK_GRANITE_265
  6
CONTINUOUS
 62
     7
 10
-93.989
 20
12.7952
  0
VERTEX
  8
MACK_GRANITE_265
  6
CONTINUOUS
 62
     7
 10
-94.2453
 20
13.1247
  0
VERTEX
  8
MACK_GRANITE_265
  6
CONTINUOUS
 62
     7
 10
-94.5145
 20
13.4424
  0
VERTEX
  8
MACK_GRANITE_265
  6
CONTINUOUS
 62
     7
 10
-94.7962
 20
13.7482
  0
VERTEX
  8
MACK_GRANITE_265
  6
CONTINUOUS
 62
     7
 10
-95.09
 20
14.0415
  0
VERTEX
  8
MACK_GRANITE_265
  6
CONTINUOUS
 62
     7
 10
-95.3953
 20
14.3221
  0
VERTEX
  8
MACK_GRANITE_265
  6
CONTINUOUS
 62
     7
 10
-95.7117
 20
14.5897
  0
VERTEX
  8
MACK_GRANITE_265
  6
CONTINUOUS
 62
     7
 10
-96.0388
 20
14.8439
  0
VERTEX
  8
MACK_GRANITE_265
  6
CONTINUOUS
 62
     7
 10
-96.3761
 20
15.0843
  0
VERTEX
  8
MACK_GRANITE_265
  6
CONTINUOUS
 62
     7
 10
-96.7232
 20
15.3107
  0
VERTEX
  8
MACK_GRANITE_265
  6
CONTINUOUS
 62
     7
 10
-97.0796
 20
15.5227
  0
VERTEX
  8
MACK_GRANITE_265
  6
CONTINUOUS
 62
     7
 10
-97.4448
 20
15.72
  0
VERTEX
  8
MACK_GRANITE_265
  6
CONTINUOUS
 62
     7
 10
-97.8185
 20
15.9022
  0
VERTEX
  8
MACK_GRANITE_265
  6
CONTINUOUS
 62
     7
 10
-98.2001
 20
16.0689
  0
VERTEX
  8
MACK_GRANITE_265
  6
CONTINUOUS
 62
     7
 10
-98.5892
 20
16.22
  0
VERTEX
  8
MACK_GRANITE_265
  6
CONTINUOUS
 62
     7
 10
-98.9854
 20
16.3549
  0
VERTEX
  8
MACK_GRANITE_265
  6
CONTINUOUS
 62
     7
 10
-99.3882
 20
16.4734
  0
VERTEX
  8
MACK_GRANITE_265
  6
CONTINUOUS
 62
     7
 10
-99.7971
 20
16.5752
  0
VERTEX
  8
MACK_GRANITE_265
  6
CONTINUOUS
 62
     7
 10
-100.2117
 20
16.6599
  0
VERTEX
  8
MACK_GRANITE_265
  6
CONTINUOUS
 62
     7
 10
-100.6315
 20
16.7271
  0
VERTEX
  8
MACK_GRANITE_265
  6
CONTINUOUS
 62
     7
 10
-101.0561
 20
16.7766
  0
VERTEX
  8
MACK_GRANITE_265
  6
CONTINUOUS
 62
     7
 10
-101.4851
 20
16.808
  0
VERTEX
  8
MACK_GRANITE_265
  6
CONTINUOUS
 62
     7
 10
-101.918
 20
16.8209
  0
VERTEX
  8
MACK_GRANITE_265
  6
CONTINUOUS
 62
     7
 10
-102.3542
 20
16.815
  0
SEQEND
  8
MACK_GRANITE_265
  6
CONTINUOUS
 62
     7
  0
POLYLINE
  8
MACK_GRANITE_265
  6
CONTINUOUS
 62
     7
 66
     1
  0
VERTEX
  8
MACK_GRANITE_265
  6
CONTINUOUS
 62
     7
 10
-61.7039
 20
38.5169
  0
VERTEX
  8
MACK_GRANITE_265
  6
CONTINUOUS
 62
     7
 10
-61.7746
 20
38.5584
  0
VERTEX
  8
MACK_GRANITE_265
  6
CONTINUOUS
 62
     7
 10
-61.8447
 20
38.6038
  0
SEQEND
  8
MACK_GRANITE_265
  6
CONTINUOUS
 62
     7
  0
POLYLINE
  8
MACK_GRANITE_265
  6
CONTINUOUS
 62
     7
 66
     1
  0
VERTEX
  8
MACK_GRANITE_265
  6
CONTINUOUS
 62
     7
 10
-67.4208
 20
44.8047
  0
VERTEX
  8
MACK_GRANITE_265
  6
CONTINUOUS
 62
     7
 10
-67.4964
 20
44.7942
  0
VERTEX
  8
MACK_GRANITE_265
  6
CONTINUOUS
 62
     7
 10
-67.5726
 20
44.7846
  0
SEQEND
  8
MACK_GRANITE_265
  6
CONTINUOUS
 62
     7
  0
POLYLINE
  8
MACK_GRANITE_265
  6
CONTINUOUS
 62
     7
 66
     1
  0
VERTEX
  8
MACK_GRANITE_265
  6
CONTINUOUS
 62
     7
 10
-66.794
 20
42.3333
  0
VERTEX
  8
MACK_GRANITE_265
  6
CONTINUOUS
 62
     7
 10
-66.7968
 20
42.3119
  0
VERTEX
  8
MACK_GRANITE_265
  6
CONTINUOUS
 62
     7
 10
-66.8046
 20
42.291
  0
VERTEX
  8
MACK_GRANITE_265
  6
CONTINUOUS
 62
     7
 10
-66.8171
 20
42.2709
  0
VERTEX
  8
MACK_GRANITE_265
  6
CONTINUOUS
 62
     7
 10
-66.8342
 20
42.2516
  0
VERTEX
  8
MACK_GRANITE_265
  6
CONTINUOUS
 62
     7
 10
-66.8806
 20
42.2159
  0
VERTEX
  8
MACK_GRANITE_265
  6
CONTINUOUS
 62
     7
 10
-66.9419
 20
42.1847
  0
VERTEX
  8
MACK_GRANITE_265
  6
CONTINUOUS
 62
     7
 10
-67.0159
 20
42.1589
  0
VERTEX
  8
MACK_GRANITE_265
  6
CONTINUOUS
 62
     7
 10
-67.1006
 20
42.1395
  0
VERTEX
  8
MACK_GRANITE_265
  6
CONTINUOUS
 62
     7
 10
-67.194
 20
42.1271
  0
VERTEX
  8
MACK_GRANITE_265
  6
CONTINUOUS
 62
     7
 10
-67.294
 20
42.1228
  0
SEQEND
  8
MACK_GRANITE_265
  6
CONTINUOUS
 62
     7
  0
INSERT
  8
MACK_GRANITE_265
  2
GROUP1
 10
0.0
 20
0.0
  0
POLYLINE
  8
MACK_GRANITE_265
  6
CONTINUOUS
 62
     7
 66
     1
  0
VERTEX
  8
MACK_GRANITE_265
  6
CONTINUOUS
 62
     7
 10
-67.7471
 20
58.1228
  0
VERTEX
  8
MACK_GRANITE_265
  6
CONTINUOUS
 62
     7
 10
-67.6877
 20
58.1214
  0
VERTEX
  8
MACK_GRANITE_265
  6
CONTINUOUS
 62
     7
 10
-67.6293
 20
58.1169
  0
SEQEND
  8
MACK_GRANITE_265
  6
CONTINUOUS
 62
     7
  0
POLYLINE
  8
MACK_GRANITE_265
  6
CONTINUOUS
 62
     7
 66
     1
  0
VERTEX
  8
MACK_GRANITE_265
  6
CONTINUOUS
 62
     7
 10
-71.2055
 20
57.912
  0
VERTEX
  8
MACK_GRANITE_265
  6
CONTINUOUS
 62
     7
 10
-71.2028
 20
57.9334
  0
VERTEX
  8
MACK_GRANITE_265
  6
CONTINUOUS
 62
     7
 10
-71.1951
 20
57.9543
  0
VERTEX
  8
MACK_GRANITE_265
  6
CONTINUOUS
 62
     7
 10
-71.1826
 20
57.9744
  0
VERTEX
  8
MACK_GRANITE_265
  6
CONTINUOUS
 62
     7
 10
-71.1656
 20
57.9938
  0
VERTEX
  8
MACK_GRANITE_265
  6
CONTINUOUS
 62
     7
 10
-71.1192
 20
58.0296
  0
VERTEX
  8
MACK_GRANITE_265
  6
CONTINUOUS
 62
     7
 10
-71.0579
 20
58.0608
  0
VERTEX
  8
MACK_GRANITE_265
  6
CONTINUOUS
 62
     7
 10
-70.9838
 20
58.0867
  0
VERTEX
  8
MACK_GRANITE_265
  6
CONTINUOUS
 62
     7
 10
-70.899
 20
58.1062
  0
VERTEX
  8
MACK_GRANITE_265
  6
CONTINUOUS
 62
     7
 10
-70.8054
 20
58.1185
  0
VERTEX
  8
MACK_GRANITE_265
  6
CONTINUOUS
 62
     7
 10
-70.7053
 20
58.1228
  0
SEQEND
  8
MACK_GRANITE_265
  6
CONTINUOUS
 62
     7
  0
POLYLINE
  8
MACK_GRANITE_265
  6
CONTINUOUS
 62
     7
 66
     1
  0
VERTEX
  8
MACK_GRANITE_265
  6
CONTINUOUS
 62
     7
 10
-70.7057
 20
42.1228
  0
VERTEX
  8
MACK_GRANITE_265
  6
CONTINUOUS
 62
     7
 10
-70.8059
 20
42.1228
  0
VERTEX
  8
MACK_GRANITE_265
  6
CONTINUOUS
 62
     7
 10
-70.8995
 20
42.1228
  0
VERTEX
  8
MACK_GRANITE_265
  6
CONTINUOUS
 62
     7
 10
-70.9844
 20
42.1228
  0
VERTEX
  8
MACK_GRANITE_265
  6
CONTINUOUS
 62
     7
 10
-71.0585
 20
42.1228
  0
VERTEX
  8
MACK_GRANITE_265
  6
CONTINUOUS
 62
     7
 10
-71.1197
 20
42.1228
  0
VERTEX
  8
MACK_GRANITE_265
  6
CONTINUOUS
 62
     7
 10
-71.166
 20
42.1228
  0
VERTEX
  8
MACK_GRANITE_265
  6
CONTINUOUS
 62
     7
 10
-71.1829
 20
42.1228
  0
VERTEX
  8
MACK_GRANITE_265
  6
CONTINUOUS
 62
     7
 10
-71.1953
 20
42.1228
  0
VERTEX
  8
MACK_GRANITE_265
  6
CONTINUOUS
 62
     7
 10
-71.2029
 20
42.1228
  0
VERTEX
  8
MACK_GRANITE_265
  6
CONTINUOUS
 62
     7
 10
-71.2055
 20
42.1228
  0
VERTEX
  8
MACK_GRANITE_265
  6
CONTINUOUS
 62
     7
 10
-71.2055
 20
42.1228
  0
VERTEX
  8
MACK_GRANITE_265
  6
CONTINUOUS
 62
     7
 10
-71.2055
 20
42.1228
  0
SEQEND
  8
MACK_GRANITE_265
  6
CONTINUOUS
 62
     7
  0
POLYLINE
  8
MACK_GRANITE_265
  6
CONTINUOUS
 62
     7
 66
     1
  0
VERTEX
  8
MACK_GRANITE_265
  6
CONTINUOUS
 62
     7
 10
-67.2472
 20
42.334
  0
VERTEX
  8
MACK_GRANITE_265
  6
CONTINUOUS
 62
     7
 10
-67.2498
 20
42.3125
  0
VERTEX
  8
MACK_GRANITE_265
  6
CONTINUOUS
 62
     7
 10
-67.2575
 20
42.2917
  0
VERTEX
  8
MACK_GRANITE_265
  6
CONTINUOUS
 62
     7
 10
-67.2699
 20
42.2715
  0
VERTEX
  8
MACK_GRANITE_265
  6
CONTINUOUS
 62
     7
 10
-67.2868
 20
42.2521
  0
VERTEX
  8
MACK_GRANITE_265
  6
CONTINUOUS
 62
     7
 10
-67.3332
 20
42.2163
  0
VERTEX
  8
MACK_GRANITE_265
  6
CONTINUOUS
 62
     7
 10
-67.3945
 20
42.185
  0
VERTEX
  8
MACK_GRANITE_265
  6
CONTINUOUS
 62
     7
 10
-67.4686
 20
42.1591
  0
VERTEX
  8
MACK_GRANITE_265
  6
CONTINUOUS
 62
     7
 10
-67.5535
 20
42.1395
  0
VERTEX
  8
MACK_GRANITE_265
  6
CONTINUOUS
 62
     7
 10
-67.647
 20
42.1272
  0
VERTEX
  8
MACK_GRANITE_265
  6
CONTINUOUS
 62
     7
 10
-67.7472
 20
42.1228
  0
SEQEND
  8
MACK_GRANITE_265
  6
CONTINUOUS
 62
     7
  0
CIRCLE
  8
MACK_GRANITE_265
 10
-71.3916
 20
-16.9674
 40
2.0
  0
POLYLINE
  8
MACK_GRANITE_265
  6
CONTINUOUS
 62
     7
 66
     1
  0
VERTEX
  8
MACK_GRANITE_265
  6
CONTINUOUS
 62
     7
 10
-140.4747
 20
25.6119
  0
VERTEX
  8
MACK_GRANITE_265
  6
CONTINUOUS
 62
     7
 10
-140.652
 20
25.5383
  0
VERTEX
  8
MACK_GRANITE_265
  6
CONTINUOUS
 62
     7
 10
-140.8253
 20
25.4584
  0
VERTEX
  8
MACK_GRANITE_265
  6
CONTINUOUS
 62
     7
 10
-140.9946
 20
25.3724
  0
VERTEX
  8
MACK_GRANITE_265
  6
CONTINUOUS
 62
     7
 10
-141.1597
 20
25.2805
  0
VERTEX
  8
MACK_GRANITE_265
  6
CONTINUOUS
 62
     7
 10
-141.3205
 20
25.1828
  0
VERTEX
  8
MACK_GRANITE_265
  6
CONTINUOUS
 62
     7
 10
-141.4769
 20
25.0795
  0
VERTEX
  8
MACK_GRANITE_265
  6
CONTINUOUS
 62
     7
 10
-141.6289
 20
24.9708
  0
VERTEX
  8
MACK_GRANITE_265
  6
CONTINUOUS
 62
     7
 10
-141.7762
 20
24.8568
  0
VERTEX
  8
MACK_GRANITE_265
  6
CONTINUOUS
 62
     7
 10
-142.0566
 20
24.6137
  0
VERTEX
  8
MACK_GRANITE_265
  6
CONTINUOUS
 62
     7
 10
-142.3172
 20
24.3513
  0
VERTEX
  8
MACK_GRANITE_265
  6
CONTINUOUS
 62
     7
 10
-142.4398
 20
24.2134
  0
VERTEX
  8
MACK_GRANITE_265
  6
CONTINUOUS
 62
     7
 10
-142.5572
 20
24.0711
  0
VERTEX
  8
MACK_GRANITE_265
  6
CONTINUOUS
 62
     7
 10
-142.6691
 20
23.9247
  0
VERTEX
  8
MACK_GRANITE_265
  6
CONTINUOUS
 62
     7
 10
-142.7756
 20
23.7744
  0
VERTEX
  8
MACK_GRANITE_265
  6
CONTINUOUS
 62
     7
 10
-142.8765
 20
23.6202
  0
VERTEX
  8
MACK_GRANITE_265
  6
CONTINUOUS
 62
     7
 10
-142.9716
 20
23.4623
  0
VERTEX
  8
MACK_GRANITE_265
  6
CONTINUOUS
 62
     7
 10
-143.061
 20
23.301
  0
VERTEX
  8
MACK_GRANITE_265
  6
CONTINUOUS
 62
     7
 10
-143.1443
 20
23.1364
  0
VERTEX
  8
MACK_GRANITE_265
  6
CONTINUOUS
 62
     7
 10
-143.2217
 20
22.9685
  0
VERTEX
  8
MACK_GRANITE_265
  6
CONTINUOUS
 62
     7
 10
-143.2929
 20
22.7977
  0
VERTEX
  8
MACK_GRANITE_265
  6
CONTINUOUS
 62
     7
 10
-143.3578
 20
22.624
  0
VERTEX
  8
MACK_GRANITE_265
  6
CONTINUOUS
 62
     7
 10
-143.4163
 20
22.4477
  0
VERTEX
  8
MACK_GRANITE_265
  6
CONTINUOUS
 62
     7
 10
-143.4684
 20
22.2688
  0
VERTEX
  8
MACK_GRANITE_265
  6
CONTINUOUS
 62
     7
 10
-143.5138
 20
22.0876
  0
VERTEX
  8
MACK_GRANITE_265
  6
CONTINUOUS
 62
     7
 10
-143.5525
 20
21.9042
  0
VERTEX
  8
MACK_GRANITE_265
  6
CONTINUOUS
 62
     7
 10
-143.5844
 20
21.7188
  0
VERTEX
  8
MACK_GRANITE_265
  6
CONTINUOUS
 62
     7
 10
-143.6094
 20
21.5315
  0
VERTEX
  8
MACK_GRANITE_265
  6
CONTINUOUS
 62
     7
 10
-143.6273
 20
21.3425
  0
VERTEX
  8
MACK_GRANITE_265
  6
CONTINUOUS
 62
     7
 10
-143.6381
 20
21.152
  0
VERTEX
  8
MACK_GRANITE_265
  6
CONTINUOUS
 62
     7
 10
-143.6416
 20
20.96
  0
SEQEND
  8
MACK_GRANITE_265
  6
CONTINUOUS
 62
     7
  0
POLYLINE
  8
MACK_GRANITE_265
  6
CONTINUOUS
 62
     7
 66
     1
  0
VERTEX
  8
MACK_GRANITE_265
  6
CONTINUOUS
 62
     7
 10
-91.6812
 20
38.0277
  0
VERTEX
  8
MACK_GRANITE_265
  6
CONTINUOUS
 62
     7
 10
-91.6979
 20
38.025
  0
VERTEX
  8
MACK_GRANITE_265
  6
CONTINUOUS
 62
     7
 10
-91.7147
 20
38.0211
  0
VERTEX
  8
MACK_GRANITE_265
  6
CONTINUOUS
 62
     7
 10
-91.7315
 20
38.0159
  0
VERTEX
  8
MACK_GRANITE_265
  6
CONTINUOUS
 62
     7
 10
-91.7484
 20
38.0094
  0
VERTEX
  8
MACK_GRANITE_265
  6
CONTINUOUS
 62
     7
 10
-91.7652
 20
38.0017
  0
VERTEX
  8
MACK_GRANITE_265
  6
CONTINUOUS
 62
     7
 10
-91.782
 20
37.9928
  0
VERTEX
  8
MACK_GRANITE_265
  6
CONTINUOUS
 62
     7
 10
-91.7989
 20
37.9826
  0
VERTEX
  8
MACK_GRANITE_265
  6
CONTINUOUS
 62
     7
 10
-91.8158
 20
37.9712
  0
VERTEX
  8
MACK_GRANITE_265
  6
CONTINUOUS
 62
     7
 10
-91.8327
 20
37.9586
  0
VERTEX
  8
MACK_GRANITE_265
  6
CONTINUOUS
 62
     7
 10
-91.8496
 20
37.9448
  0
VERTEX
  8
MACK_GRANITE_265
  6
CONTINUOUS
 62
     7
 10
-91.8665
 20
37.9297
  0
VERTEX
  8
MACK_GRANITE_265
  6
CONTINUOUS
 62
     7
 10
-91.8835
 20
37.9135
  0
VERTEX
  8
MACK_GRANITE_265
  6
CONTINUOUS
 62
     7
 10
-91.9004
 20
37.896
  0
VERTEX
  8
MACK_GRANITE_265
  6
CONTINUOUS
 62
     7
 10
-91.9174
 20
37.8773
  0
VERTEX
  8
MACK_GRANITE_265
  6
CONTINUOUS
 62
     7
 10
-91.9344
 20
37.8574
  0
VERTEX
  8
MACK_GRANITE_265
  6
CONTINUOUS
 62
     7
 10
-91.9514
 20
37.8363
  0
VERTEX
  8
MACK_GRANITE_265
  6
CONTINUOUS
 62
     7
 10
-91.9684
 20
37.814
  0
VERTEX
  8
MACK_GRANITE_265
  6
CONTINUOUS
 62
     7
 10
-91.9854
 20
37.7904
  0
VERTEX
  8
MACK_GRANITE_265
  6
CONTINUOUS
 62
     7
 10
-92.0025
 20
37.7656
  0
VERTEX
  8
MACK_GRANITE_265
  6
CONTINUOUS
 62
     7
 10
-92.0195
 20
37.7395
  0
VERTEX
  8
MACK_GRANITE_265
  6
CONTINUOUS
 62
     7
 10
-92.0366
 20
37.7122
  0
VERTEX
  8
MACK_GRANITE_265
  6
CONTINUOUS
 62
     7
 10
-92.0536
 20
37.6837
  0
VERTEX
  8
MACK_GRANITE_265
  6
CONTINUOUS
 62
     7
 10
-92.0706
 20
37.6541
  0
VERTEX
  8
MACK_GRANITE_265
  6
CONTINUOUS
 62
     7
 10
-92.0875
 20
37.6233
  0
VERTEX
  8
MACK_GRANITE_265
  6
CONTINUOUS
 62
     7
 10
-92.1044
 20
37.5915
  0
VERTEX
  8
MACK_GRANITE_265
  6
CONTINUOUS
 62
     7
 10
-92.1211
 20
37.5586
  0
VERTEX
  8
MACK_GRANITE_265
  6
CONTINUOUS
 62
     7
 10
-92.1378
 20
37.5246
  0
VERTEX
  8
MACK_GRANITE_265
  6
CONTINUOUS
 62
     7
 10
-92.1544
 20
37.4896
  0
VERTEX
  8
MACK_GRANITE_265
  6
CONTINUOUS
 62
     7
 10
-92.1709
 20
37.4535
  0
VERTEX
  8
MACK_GRANITE_265
  6
CONTINUOUS
 62
     7
 10
-92.1874
 20
37.4164
  0
VERTEX
  8
MACK_GRANITE_265
  6
CONTINUOUS
 62
     7
 10
-92.2038
 20
37.3781
  0
VERTEX
  8
MACK_GRANITE_265
  6
CONTINUOUS
 62
     7
 10
-92.2201
 20
37.3388
  0
VERTEX
  8
MACK_GRANITE_265
  6
CONTINUOUS
 62
     7
 10
-92.2363
 20
37.2985
  0
VERTEX
  8
MACK_GRANITE_265
  6
CONTINUOUS
 62
     7
 10
-92.2525
 20
37.2571
  0
VERTEX
  8
MACK_GRANITE_265
  6
CONTINUOUS
 62
     7
 10
-92.2685
 20
37.2146
  0
VERTEX
  8
MACK_GRANITE_265
  6
CONTINUOUS
 62
     7
 10
-92.2845
 20
37.1711
  0
VERTEX
  8
MACK_GRANITE_265
  6
CONTINUOUS
 62
     7
 10
-92.3005
 20
37.1265
  0
VERTEX
  8
MACK_GRANITE_265
  6
CONTINUOUS
 62
     7
 10
-92.3163
 20
37.0808
  0
VERTEX
  8
MACK_GRANITE_265
  6
CONTINUOUS
 62
     7
 10
-92.3321
 20
37.0341
  0
VERTEX
  8
MACK_GRANITE_265
  6
CONTINUOUS
 62
     7
 10
-92.3478
 20
36.9862
  0
VERTEX
  8
MACK_GRANITE_265
  6
CONTINUOUS
 62
     7
 10
-92.3635
 20
36.9374
  0
VERTEX
  8
MACK_GRANITE_265
  6
CONTINUOUS
 62
     7
 10
-92.379
 20
36.8875
  0
VERTEX
  8
MACK_GRANITE_265
  6
CONTINUOUS
 62
     7
 10
-92.3944
 20
36.8366
  0
VERTEX
  8
MACK_GRANITE_265
  6
CONTINUOUS
 62
     7
 10
-92.4097
 20
36.7847
  0
VERTEX
  8
MACK_GRANITE_265
  6
CONTINUOUS
 62
     7
 10
-92.4249
 20
36.7321
  0
VERTEX
  8
MACK_GRANITE_265
  6
CONTINUOUS
 62
     7
 10
-92.4399
 20
36.6786
  0
VERTEX
  8
MACK_GRANITE_265
  6
CONTINUOUS
 62
     7
 10
-92.4547
 20
36.6244
  0
VERTEX
  8
MACK_GRANITE_265
  6
CONTINUOUS
 62
     7
 10
-92.4694
 20
36.5693
  0
VERTEX
  8
MACK_GRANITE_265
  6
CONTINUOUS
 62
     7
 10
-92.4839
 20
36.5134
  0
VERTEX
  8
MACK_GRANITE_265
  6
CONTINUOUS
 62
     7
 10
-92.4983
 20
36.4568
  0
VERTEX
  8
MACK_GRANITE_265
  6
CONTINUOUS
 62
     7
 10
-92.5125
 20
36.3994
  0
VERTEX
  8
MACK_GRANITE_265
  6
CONTINUOUS
 62
     7
 10
-92.5265
 20
36.3411
  0
VERTEX
  8
MACK_GRANITE_265
  6
CONTINUOUS
 62
     7
 10
-92.5404
 20
36.2821
  0
VERTEX
  8
MACK_GRANITE_265
  6
CONTINUOUS
 62
     7
 10
-92.5542
 20
36.2224
  0
VERTEX
  8
MACK_GRANITE_265
  6
CONTINUOUS
 62
     7
 10
-92.5678
 20
36.1618
  0
VERTEX
  8
MACK_GRANITE_265
  6
CONTINUOUS
 62
     7
 10
-92.5812
 20
36.1004
  0
VERTEX
  8
MACK_GRANITE_265
  6
CONTINUOUS
 62
     7
 10
-92.5945
 20
36.0383
  0
VERTEX
  8
MACK_GRANITE_265
  6
CONTINUOUS
 62
     7
 10
-92.6077
 20
35.9754
  0
VERTEX
  8
MACK_GRANITE_265
  6
CONTINUOUS
 62
     7
 10
-92.6206
 20
35.9116
  0
VERTEX
  8
MACK_GRANITE_265
  6
CONTINUOUS
 62
     7
 10
-92.6335
 20
35.8471
  0
VERTEX
  8
MACK_GRANITE_265
  6
CONTINUOUS
 62
     7
 10
-92.6461
 20
35.7818
  0
VERTEX
  8
MACK_GRANITE_265
  6
CONTINUOUS
 62
     7
 10
-92.6586
 20
35.7157
  0
VERTEX
  8
MACK_GRANITE_265
  6
CONTINUOUS
 62
     7
 10
-92.671
 20
35.6488
  0
VERTEX
  8
MACK_GRANITE_265
  6
CONTINUOUS
 62
     7
 10
-92.6832
 20
35.5813
  0
VERTEX
  8
MACK_GRANITE_265
  6
CONTINUOUS
 62
     7
 10
-92.6952
 20
35.513
  0
VERTEX
  8
MACK_GRANITE_265
  6
CONTINUOUS
 62
     7
 10
-92.707
 20
35.4442
  0
VERTEX
  8
MACK_GRANITE_265
  6
CONTINUOUS
 62
     7
 10
-92.7185
 20
35.375
  0
VERTEX
  8
MACK_GRANITE_265
  6
CONTINUOUS
 62
     7
 10
-92.7299
 20
35.3053
  0
VERTEX
  8
MACK_GRANITE_265
  6
CONTINUOUS
 62
     7
 10
-92.741
 20
35.2352
  0
VERTEX
  8
MACK_GRANITE_265
  6
CONTINUOUS
 62
     7
 10
-92.7519
 20
35.1647
  0
VERTEX
  8
MACK_GRANITE_265
  6
CONTINUOUS
 62
     7
 10
-92.7626
 20
35.0938
  0
VERTEX
  8
MACK_GRANITE_265
  6
CONTINUOUS
 62
     7
 10
-92.7731
 20
35.0224
  0
VERTEX
  8
MACK_GRANITE_265
  6
CONTINUOUS
 62
     7
 10
-92.7834
 20
34.9506
  0
VERTEX
  8
MACK_GRANITE_265
  6
CONTINUOUS
 62
     7
 10
-92.7934
 20
34.8783
  0
VERTEX
  8
MACK_GRANITE_265
  6
CONTINUOUS
 62
     7
 10
-92.8033
 20
34.8056
  0
VERTEX
  8
MACK_GRANITE_265
  6
CONTINUOUS
 62
     7
 10
-92.8129
 20
34.7325
  0
VERTEX
  8
MACK_GRANITE_265
  6
CONTINUOUS
 62
     7
 10
-92.8223
 20
34.659
  0
VERTEX
  8
MACK_GRANITE_265
  6
CONTINUOUS
 62
     7
 10
-92.8315
 20
34.585
  0
VERTEX
  8
MACK_GRANITE_265
  6
CONTINUOUS
 62
     7
 10
-92.8405
 20
34.5106
  0
VERTEX
  8
MACK_GRANITE_265
  6
CONTINUOUS
 62
     7
 10
-92.8493
 20
34.4357
  0
VERTEX
  8
MACK_GRANITE_265
  6
CONTINUOUS
 62
     7
 10
-92.8578
 20
34.3604
  0
VERTEX
  8
MACK_GRANITE_265
  6
CONTINUOUS
 62
     7
 10
-92.8662
 20
34.2846
  0
VERTEX
  8
MACK_GRANITE_265
  6
CONTINUOUS
 62
     7
 10
-92.8743
 20
34.2083
  0
VERTEX
  8
MACK_GRANITE_265
  6
CONTINUOUS
 62
     7
 10
-92.8822
 20
34.1317
  0
VERTEX
  8
MACK_GRANITE_265
  6
CONTINUOUS
 62
     7
 10
-92.8899
 20
34.0546
  0
VERTEX
  8
MACK_GRANITE_265
  6
CONTINUOUS
 62
     7
 10
-92.8974
 20
33.9773
  0
VERTEX
  8
MACK_GRANITE_265
  6
CONTINUOUS
 62
     7
 10
-92.9046
 20
33.8996
  0
VERTEX
  8
MACK_GRANITE_265
  6
CONTINUOUS
 62
     7
 10
-92.9116
 20
33.8218
  0
VERTEX
  8
MACK_GRANITE_265
  6
CONTINUOUS
 62
     7
 10
-92.9183
 20
33.7439
  0
VERTEX
  8
MACK_GRANITE_265
  6
CONTINUOUS
 62
     7
 10
-92.9247
 20
33.6659
  0
VERTEX
  8
MACK_GRANITE_265
  6
CONTINUOUS
 62
     7
 10
-92.931
 20
33.5877
  0
VERTEX
  8
MACK_GRANITE_265
  6
CONTINUOUS
 62
     7
 10
-92.9369
 20
33.5095
  0
VERTEX
  8
MACK_GRANITE_265
  6
CONTINUOUS
 62
     7
 10
-92.9427
 20
33.431
  0
VERTEX
  8
MACK_GRANITE_265
  6
CONTINUOUS
 62
     7
 10
-92.9481
 20
33.3525
  0
VERTEX
  8
MACK_GRANITE_265
  6
CONTINUOUS
 62
     7
 10
-92.9534
 20
33.2738
  0
VERTEX
  8
MACK_GRANITE_265
  6
CONTINUOUS
 62
     7
 10
-92.9583
 20
33.1951
  0
VERTEX
  8
MACK_GRANITE_265
  6
CONTINUOUS
 62
     7
 10
-92.9631
 20
33.1161
  0
VERTEX
  8
MACK_GRANITE_265
  6
CONTINUOUS
 62
     7
 10
-92.9676
 20
33.037
  0
VERTEX
  8
MACK_GRANITE_265
  6
CONTINUOUS
 62
     7
 10
-92.9718
 20
32.958
  0
SEQEND
  8
MACK_GRANITE_265
  6
CONTINUOUS
 62
     7
  0
POLYLINE
  8
MACK_GRANITE_265
  6
CONTINUOUS
 62
     7
 66
     1
  0
VERTEX
  8
MACK_GRANITE_265
  6
CONTINUOUS
 62
     7
 10
-140.6416
 20
20.9742
  0
VERTEX
  8
MACK_GRANITE_265
  6
CONTINUOUS
 62
     7
 10
-140.638
 20
21.2554
  0
VERTEX
  8
MACK_GRANITE_265
  6
CONTINUOUS
 62
     7
 10
-140.6281
 20
21.5297
  0
VERTEX
  8
MACK_GRANITE_265
  6
CONTINUOUS
 62
     7
 10
-140.612
 20
21.7956
  0
VERTEX
  8
MACK_GRANITE_265
  6
CONTINUOUS
 62
     7
 10
-140.5902
 20
22.0521
  0
VERTEX
  8
MACK_GRANITE_265
  6
CONTINUOUS
 62
     7
 10
-140.5628
 20
22.2978
  0
VERTEX
  8
MACK_GRANITE_265
  6
CONTINUOUS
 62
     7
 10
-140.5302
 20
22.5315
  0
VERTEX
  8
MACK_GRANITE_265
  6
CONTINUOUS
 62
     7
 10
-140.4926
 20
22.7521
  0
VERTEX
  8
MACK_GRANITE_265
  6
CONTINUOUS
 62
     7
 10
-140.4503
 20
22.9582
  0
VERTEX
  8
MACK_GRANITE_265
  6
CONTINUOUS
 62
     7
 10
-140.4036
 20
23.1486
  0
VERTEX
  8
MACK_GRANITE_265
  6
CONTINUOUS
 62
     7
 10
-140.3528
 20
23.3221
  0
VERTEX
  8
MACK_GRANITE_265
  6
CONTINUOUS
 62
     7
 10
-140.2981
 20
23.4775
  0
VERTEX
  8
MACK_GRANITE_265
  6
CONTINUOUS
 62
     7
 10
-140.2398
 20
23.6135
  0
VERTEX
  8
MACK_GRANITE_265
  6
CONTINUOUS
 62
     7
 10
-140.2094
 20
23.6738
  0
VERTEX
  8
MACK_GRANITE_265
  6
CONTINUOUS
 62
     7
 10
-140.1782
 20
23.7289
  0
VERTEX
  8
MACK_GRANITE_265
  6
CONTINUOUS
 62
     7
 10
-140.1462
 20
23.7784
  0
VERTEX
  8
MACK_GRANITE_265
  6
CONTINUOUS
 62
     7
 10
-140.1135
 20
23.8224
  0
VERTEX
  8
MACK_GRANITE_265
  6
CONTINUOUS
 62
     7
 10
-140.0802
 20
23.8606
  0
VERTEX
  8
MACK_GRANITE_265
  6
CONTINUOUS
 62
     7
 10
-140.0461
 20
23.8929
  0
VERTEX
  8
MACK_GRANITE_265
  6
CONTINUOUS
 62
     7
 10
-140.0115
 20
23.9191
  0
VERTEX
  8
MACK_GRANITE_265
  6
CONTINUOUS
 62
     7
 10
-139.9763
 20
23.939
  0
SEQEND
  8
MACK_GRANITE_265
  6
CONTINUOUS
 62
     7
  0
POLYLINE
  8
MACK_GRANITE_265
  6
CONTINUOUS
 62
     7
 66
     1
  0
VERTEX
  8
MACK_GRANITE_265
  6
CONTINUOUS
 62
     7
 10
-84.8112
 20
36.8322
  0
VERTEX
  8
MACK_GRANITE_265
  6
CONTINUOUS
 62
     7
 10
-84.8698
 20
36.8267
  0
VERTEX
  8
MACK_GRANITE_265
  6
CONTINUOUS
 62
     7
 10
-84.924
 20
36.8033
  0
VERTEX
  8
MACK_GRANITE_265
  6
CONTINUOUS
 62
     7
 10
-84.973
 20
36.7698
  0
VERTEX
  8
MACK_GRANITE_265
  6
CONTINUOUS
 62
     7
 10
-85.0175
 20
36.7312
  0
VERTEX
  8
MACK_GRANITE_265
  6
CONTINUOUS
 62
     7
 10
-85.0588
 20
36.6891
  0
VERTEX
  8
MACK_GRANITE_265
  6
CONTINUOUS
 62
     7
 10
-85.0978
 20
36.6445
  0
VERTEX
  8
MACK_GRANITE_265
  6
CONTINUOUS
 62
     7
 10
-85.1349
 20
36.5982
  0
VERTEX
  8
MACK_GRANITE_265
  6
CONTINUOUS
 62
     7
 10
-85.1702
 20
36.5509
  0
VERTEX
  8
MACK_GRANITE_265
  6
CONTINUOUS
 62
     7
 10
-85.2042
 20
36.5027
  0
VERTEX
  8
MACK_GRANITE_265
  6
CONTINUOUS
 62
     7
 10
-85.237
 20
36.4538
  0
VERTEX
  8
MACK_GRANITE_265
  6
CONTINUOUS
 62
     7
 10
-85.2689
 20
36.4043
  0
VERTEX
  8
MACK_GRANITE_265
  6
CONTINUOUS
 62
     7
 10
-85.2999
 20
36.3543
  0
VERTEX
  8
MACK_GRANITE_265
  6
CONTINUOUS
 62
     7
 10
-85.3302
 20
36.3038
  0
VERTEX
  8
MACK_GRANITE_265
  6
CONTINUOUS
 62
     7
 10
-85.3599
 20
36.253
  0
VERTEX
  8
MACK_GRANITE_265
  6
CONTINUOUS
 62
     7
 10
-85.389
 20
36.2017
  0
VERTEX
  8
MACK_GRANITE_265
  6
CONTINUOUS
 62
     7
 10
-85.4175
 20
36.1502
  0
VERTEX
  8
MACK_GRANITE_265
  6
CONTINUOUS
 62
     7
 10
-85.4456
 20
36.0983
  0
VERTEX
  8
MACK_GRANITE_265
  6
CONTINUOUS
 62
     7
 10
-85.4733
 20
36.0462
  0
VERTEX
  8
MACK_GRANITE_265
  6
CONTINUOUS
 62
     7
 10
-85.5005
 20
35.9939
  0
VERTEX
  8
MACK_GRANITE_265
  6
CONTINUOUS
 62
     7
 10
-85.5275
 20
35.9413
  0
VERTEX
  8
MACK_GRANITE_265
  6
CONTINUOUS
 62
     7
 10
-85.5541
 20
35.8886
  0
VERTEX
  8
MACK_GRANITE_265
  6
CONTINUOUS
 62
     7
 10
-85.5804
 20
35.8356
  0
VERTEX
  8
MACK_GRANITE_265
  6
CONTINUOUS
 62
     7
 10
-85.6063
 20
35.7825
  0
VERTEX
  8
MACK_GRANITE_265
  6
CONTINUOUS
 62
     7
 10
-85.632
 20
35.7293
  0
VERTEX
  8
MACK_GRANITE_265
  6
CONTINUOUS
 62
     7
 10
-85.6575
 20
35.676
  0
VERTEX
  8
MACK_GRANITE_265
  6
CONTINUOUS
 62
     7
 10
-85.6826
 20
35.6226
  0
VERTEX
  8
MACK_GRANITE_265
  6
CONTINUOUS
 62
     7
 10
-85.7076
 20
35.569
  0
VERTEX
  8
MACK_GRANITE_265
  6
CONTINUOUS
 62
     7
 10
-85.7323
 20
35.5154
  0
VERTEX
  8
MACK_GRANITE_265
  6
CONTINUOUS
 62
     7
 10
-85.7568
 20
35.4617
  0
VERTEX
  8
MACK_GRANITE_265
  6
CONTINUOUS
 62
     7
 10
-85.781
 20
35.408
  0
VERTEX
  8
MACK_GRANITE_265
  6
CONTINUOUS
 62
     7
 10
-85.8051
 20
35.3541
  0
VERTEX
  8
MACK_GRANITE_265
  6
CONTINUOUS
 62
     7
 10
-85.8291
 20
35.3002
  0
VERTEX
  8
MACK_GRANITE_265
  6
CONTINUOUS
 62
     7
 10
-85.8528
 20
35.2461
  0
VERTEX
  8
MACK_GRANITE_265
  6
CONTINUOUS
 62
     7
 10
-85.8764
 20
35.1921
  0
VERTEX
  8
MACK_GRANITE_265
  6
CONTINUOUS
 62
     7
 10
-85.8998
 20
35.1379
  0
VERTEX
  8
MACK_GRANITE_265
  6
CONTINUOUS
 62
     7
 10
-85.9231
 20
35.0837
  0
VERTEX
  8
MACK_GRANITE_265
  6
CONTINUOUS
 62
     7
 10
-85.9462
 20
35.0295
  0
VERTEX
  8
MACK_GRANITE_265
  6
CONTINUOUS
 62
     7
 10
-85.9692
 20
34.9751
  0
VERTEX
  8
MACK_GRANITE_265
  6
CONTINUOUS
 62
     7
 10
-85.9921
 20
34.9208
  0
VERTEX
  8
MACK_GRANITE_265
  6
CONTINUOUS
 62
     7
 10
-86.0148
 20
34.8663
  0
VERTEX
  8
MACK_GRANITE_265
  6
CONTINUOUS
 62
     7
 10
-86.0375
 20
34.8119
  0
VERTEX
  8
MACK_GRANITE_265
  6
CONTINUOUS
 62
     7
 10
-86.06
 20
34.7573
  0
VERTEX
  8
MACK_GRANITE_265
  6
CONTINUOUS
 62
     7
 10
-86.0823
 20
34.7028
  0
VERTEX
  8
MACK_GRANITE_265
  6
CONTINUOUS
 62
     7
 10
-86.1046
 20
34.6481
  0
VERTEX
  8
MACK_GRANITE_265
  6
CONTINUOUS
 62
     7
 10
-86.1268
 20
34.5935
  0
VERTEX
  8
MACK_GRANITE_265
  6
CONTINUOUS
 62
     7
 10
-86.1488
 20
34.5388
  0
VERTEX
  8
MACK_GRANITE_265
  6
CONTINUOUS
 62
     7
 10
-86.1708
 20
34.484
  0
VERTEX
  8
MACK_GRANITE_265
  6
CONTINUOUS
 62
     7
 10
-86.2144
 20
34.3744
  0
VERTEX
  8
MACK_GRANITE_265
  6
CONTINUOUS
 62
     7
 10
-86.2577
 20
34.2646
  0
VERTEX
  8
MACK_GRANITE_265
  6
CONTINUOUS
 62
     7
 10
-86.3007
 20
34.1547
  0
VERTEX
  8
MACK_GRANITE_265
  6
CONTINUOUS
 62
     7
 10
-86.3433
 20
34.0447
  0
VERTEX
  8
MACK_GRANITE_265
  6
CONTINUOUS
 62
     7
 10
-86.3856
 20
33.9345
  0
VERTEX
  8
MACK_GRANITE_265
  6
CONTINUOUS
 62
     7
 10
-86.4277
 20
33.8243
  0
VERTEX
  8
MACK_GRANITE_265
  6
CONTINUOUS
 62
     7
 10
-86.4694
 20
33.7139
  0
VERTEX
  8
MACK_GRANITE_265
  6
CONTINUOUS
 62
     7
 10
-86.5316
 20
33.5481
  0
VERTEX
  8
MACK_GRANITE_265
  6
CONTINUOUS
 62
     7
 10
-86.5932
 20
33.3821
  0
VERTEX
  8
MACK_GRANITE_265
  6
CONTINUOUS
 62
     7
 10
-86.6543
 20
33.2158
  0
VERTEX
  8
MACK_GRANITE_265
  6
CONTINUOUS
 62
     7
 10
-86.715
 20
33.0494
  0
VERTEX
  8
MACK_GRANITE_265
  6
CONTINUOUS
 62
     7
 10
-86.7951
 20
32.8273
  0
VERTEX
  8
MACK_GRANITE_265
  6
CONTINUOUS
 62
     7
 10
-86.8746
 20
32.6048
  0
VERTEX
  8
MACK_GRANITE_265
  6
CONTINUOUS
 62
     7
 10
-86.9533
 20
32.382
  0
VERTEX
  8
MACK_GRANITE_265
  6
CONTINUOUS
 62
     7
 10
-87.0314
 20
32.159
  0
VERTEX
  8
MACK_GRANITE_265
  6
CONTINUOUS
 62
     7
 10
-87.1282
 20
31.88
  0
VERTEX
  8
MACK_GRANITE_265
  6
CONTINUOUS
 62
     7
 10
-87.2241
 20
31.6006
  0
SEQEND
  8
MACK_GRANITE_265
  6
CONTINUOUS
 62
     7
  0
POLYLINE
  8
MACK_GRANITE_265
  6
CONTINUOUS
 62
     7
 66
     1
  0
VERTEX
  8
MACK_GRANITE_265
  6
CONTINUOUS
 62
     7
 10
-87.2241
 20
31.6006
  0
VERTEX
  8
MACK_GRANITE_265
  6
CONTINUOUS
 62
     7
 10
-87.2096
 20
31.6443
  0
VERTEX
  8
MACK_GRANITE_265
  6
CONTINUOUS
 62
     7
 10
-87.196
 20
31.6881
  0
VERTEX
  8
MACK_GRANITE_265
  6
CONTINUOUS
 62
     7
 10
-87.1833
 20
31.7321
  0
VERTEX
  8
MACK_GRANITE_265
  6
CONTINUOUS
 62
     7
 10
-87.1715
 20
31.7761
  0
VERTEX
  8
MACK_GRANITE_265
  6
CONTINUOUS
 62
     7
 10
-87.1605
 20
31.8204
  0
VERTEX
  8
MACK_GRANITE_265
  6
CONTINUOUS
 62
     7
 10
-87.1504
 20
31.8647
  0
VERTEX
  8
MACK_GRANITE_265
  6
CONTINUOUS
 62
     7
 10
-87.1411
 20
31.9092
  0
VERTEX
  8
MACK_GRANITE_265
  6
CONTINUOUS
 62
     7
 10
-87.1328
 20
31.9538
  0
VERTEX
  8
MACK_GRANITE_265
  6
CONTINUOUS
 62
     7
 10
-87.1252
 20
31.9986
  0
VERTEX
  8
MACK_GRANITE_265
  6
CONTINUOUS
 62
     7
 10
-87.1186
 20
32.0435
  0
VERTEX
  8
MACK_GRANITE_265
  6
CONTINUOUS
 62
     7
 10
-87.1127
 20
32.0885
  0
VERTEX
  8
MACK_GRANITE_265
  6
CONTINUOUS
 62
     7
 10
-87.1076
 20
32.1336
  0
VERTEX
  8
MACK_GRANITE_265
  6
CONTINUOUS
 62
     7
 10
-87.1033
 20
32.1789
  0
VERTEX
  8
MACK_GRANITE_265
  6
CONTINUOUS
 62
     7
 10
-87.0998
 20
32.2242
  0
VERTEX
  8
MACK_GRANITE_265
  6
CONTINUOUS
 62
     7
 10
-87.097
 20
32.2697
  0
VERTEX
  8
MACK_GRANITE_265
  6
CONTINUOUS
 62
     7
 10
-87.095
 20
32.3153
  0
VERTEX
  8
MACK_GRANITE_265
  6
CONTINUOUS
 62
     7
 10
-87.0936
 20
32.3608
  0
VERTEX
  8
MACK_GRANITE_265
  6
CONTINUOUS
 62
     7
 10
-87.093
 20
32.4062
  0
VERTEX
  8
MACK_GRANITE_265
  6
CONTINUOUS
 62
     7
 10
-87.0929
 20
32.4513
  0
VERTEX
  8
MACK_GRANITE_265
  6
CONTINUOUS
 62
     7
 10
-87.0935
 20
32.4963
  0
VERTEX
  8
MACK_GRANITE_265
  6
CONTINUOUS
 62
     7
 10
-87.0946
 20
32.5411
  0
VERTEX
  8
MACK_GRANITE_265
  6
CONTINUOUS
 62
     7
 10
-87.0963
 20
32.5858
  0
VERTEX
  8
MACK_GRANITE_265
  6
CONTINUOUS
 62
     7
 10
-87.0985
 20
32.6303
  0
VERTEX
  8
MACK_GRANITE_265
  6
CONTINUOUS
 62
     7
 10
-87.1011
 20
32.6746
  0
VERTEX
  8
MACK_GRANITE_265
  6
CONTINUOUS
 62
     7
 10
-87.1042
 20
32.7188
  0
VERTEX
  8
MACK_GRANITE_265
  6
CONTINUOUS
 62
     7
 10
-87.1077
 20
32.7629
  0
VERTEX
  8
MACK_GRANITE_265
  6
CONTINUOUS
 62
     7
 10
-87.1116
 20
32.8068
  0
VERTEX
  8
MACK_GRANITE_265
  6
CONTINUOUS
 62
     7
 10
-87.1159
 20
32.8506
  0
VERTEX
  8
MACK_GRANITE_265
  6
CONTINUOUS
 62
     7
 10
-87.1205
 20
32.8943
  0
VERTEX
  8
MACK_GRANITE_265
  6
CONTINUOUS
 62
     7
 10
-87.1255
 20
32.9378
  0
VERTEX
  8
MACK_GRANITE_265
  6
CONTINUOUS
 62
     7
 10
-87.1307
 20
32.9812
  0
VERTEX
  8
MACK_GRANITE_265
  6
CONTINUOUS
 62
     7
 10
-87.1362
 20
33.0245
  0
VERTEX
  8
MACK_GRANITE_265
  6
CONTINUOUS
 62
     7
 10
-87.142
 20
33.0677
  0
VERTEX
  8
MACK_GRANITE_265
  6
CONTINUOUS
 62
     7
 10
-87.148
 20
33.1108
  0
VERTEX
  8
MACK_GRANITE_265
  6
CONTINUOUS
 62
     7
 10
-87.1543
 20
33.1537
  0
VERTEX
  8
MACK_GRANITE_265
  6
CONTINUOUS
 62
     7
 10
-87.1607
 20
33.1966
  0
VERTEX
  8
MACK_GRANITE_265
  6
CONTINUOUS
 62
     7
 10
-87.1674
 20
33.2393
  0
VERTEX
  8
MACK_GRANITE_265
  6
CONTINUOUS
 62
     7
 10
-87.1742
 20
33.2819
  0
VERTEX
  8
MACK_GRANITE_265
  6
CONTINUOUS
 62
     7
 10
-87.1812
 20
33.3245
  0
VERTEX
  8
MACK_GRANITE_265
  6
CONTINUOUS
 62
     7
 10
-87.1883
 20
33.3669
  0
VERTEX
  8
MACK_GRANITE_265
  6
CONTINUOUS
 62
     7
 10
-87.1955
 20
33.4091
  0
VERTEX
  8
MACK_GRANITE_265
  6
CONTINUOUS
 62
     7
 10
-87.2029
 20
33.4511
  0
VERTEX
  8
MACK_GRANITE_265
  6
CONTINUOUS
 62
     7
 10
-87.2103
 20
33.4929
  0
VERTEX
  8
MACK_GRANITE_265
  6
CONTINUOUS
 62
     7
 10
-87.2178
 20
33.5346
  0
VERTEX
  8
MACK_GRANITE_265
  6
CONTINUOUS
 62
     7
 10
-87.2254
 20
33.576
  0
VERTEX
  8
MACK_GRANITE_265
  6
CONTINUOUS
 62
     7
 10
-87.2331
 20
33.6173
  0
VERTEX
  8
MACK_GRANITE_265
  6
CONTINUOUS
 62
     7
 10
-87.2485
 20
33.6994
  0
VERTEX
  8
MACK_GRANITE_265
  6
CONTINUOUS
 62
     7
 10
-87.2718
 20
33.8211
  0
VERTEX
  8
MACK_GRANITE_265
  6
CONTINUOUS
 62
     7
 10
-87.3485
 20
34.2163
  0
VERTEX
  8
MACK_GRANITE_265
  6
CONTINUOUS
 62
     7
 10
-87.3705
 20
34.3318
  0
VERTEX
  8
MACK_GRANITE_265
  6
CONTINUOUS
 62
     7
 10
-87.3848
 20
34.408
  0
VERTEX
  8
MACK_GRANITE_265
  6
CONTINUOUS
 62
     7
 10
-87.3918
 20
34.4459
  0
VERTEX
  8
MACK_GRANITE_265
  6
CONTINUOUS
 62
     7
 10
-87.3987
 20
34.4836
  0
VERTEX
  8
MACK_GRANITE_265
  6
CONTINUOUS
 62
     7
 10
-87.4055
 20
34.5212
  0
VERTEX
  8
MACK_GRANITE_265
  6
CONTINUOUS
 62
     7
 10
-87.4122
 20
34.5587
  0
VERTEX
  8
MACK_GRANITE_265
  6
CONTINUOUS
 62
     7
 10
-87.4188
 20
34.596
  0
VERTEX
  8
MACK_GRANITE_265
  6
CONTINUOUS
 62
     7
 10
-87.4253
 20
34.6331
  0
VERTEX
  8
MACK_GRANITE_265
  6
CONTINUOUS
 62
     7
 10
-87.4316
 20
34.6701
  0
VERTEX
  8
MACK_GRANITE_265
  6
CONTINUOUS
 62
     7
 10
-87.4379
 20
34.7069
  0
VERTEX
  8
MACK_GRANITE_265
  6
CONTINUOUS
 62
     7
 10
-87.4439
 20
34.7436
  0
VERTEX
  8
MACK_GRANITE_265
  6
CONTINUOUS
 62
     7
 10
-87.4499
 20
34.7801
  0
VERTEX
  8
MACK_GRANITE_265
  6
CONTINUOUS
 62
     7
 10
-87.4557
 20
34.8165
  0
VERTEX
  8
MACK_GRANITE_265
  6
CONTINUOUS
 62
     7
 10
-87.4613
 20
34.8527
  0
VERTEX
  8
MACK_GRANITE_265
  6
CONTINUOUS
 62
     7
 10
-87.4668
 20
34.8888
  0
VERTEX
  8
MACK_GRANITE_265
  6
CONTINUOUS
 62
     7
 10
-87.4722
 20
34.9247
  0
VERTEX
  8
MACK_GRANITE_265
  6
CONTINUOUS
 62
     7
 10
-87.4774
 20
34.9604
  0
VERTEX
  8
MACK_GRANITE_265
  6
CONTINUOUS
 62
     7
 10
-87.4824
 20
34.996
  0
VERTEX
  8
MACK_GRANITE_265
  6
CONTINUOUS
 62
     7
 10
-87.4872
 20
35.0315
  0
VERTEX
  8
MACK_GRANITE_265
  6
CONTINUOUS
 62
     7
 10
-87.4918
 20
35.0668
  0
VERTEX
  8
MACK_GRANITE_265
  6
CONTINUOUS
 62
     7
 10
-87.4963
 20
35.1019
  0
VERTEX
  8
MACK_GRANITE_265
  6
CONTINUOUS
 62
     7
 10
-87.5005
 20
35.1368
  0
VERTEX
  8
MACK_GRANITE_265
  6
CONTINUOUS
 62
     7
 10
-87.5046
 20
35.1715
  0
VERTEX
  8
MACK_GRANITE_265
  6
CONTINUOUS
 62
     7
 10
-87.5085
 20
35.206
  0
VERTEX
  8
MACK_GRANITE_265
  6
CONTINUOUS
 62
     7
 10
-87.5121
 20
35.2402
  0
VERTEX
  8
MACK_GRANITE_265
  6
CONTINUOUS
 62
     7
 10
-87.5155
 20
35.2742
  0
VERTEX
  8
MACK_GRANITE_265
  6
CONTINUOUS
 62
     7
 10
-87.5187
 20
35.308
  0
VERTEX
  8
MACK_GRANITE_265
  6
CONTINUOUS
 62
     7
 10
-87.5216
 20
35.3415
  0
VERTEX
  8
MACK_GRANITE_265
  6
CONTINUOUS
 62
     7
 10
-87.5243
 20
35.3747
  0
VERTEX
  8
MACK_GRANITE_265
  6
CONTINUOUS
 62
     7
 10
-87.5268
 20
35.4077
  0
VERTEX
  8
MACK_GRANITE_265
  6
CONTINUOUS
 62
     7
 10
-87.529
 20
35.4405
  0
VERTEX
  8
MACK_GRANITE_265
  6
CONTINUOUS
 62
     7
 10
-87.531
 20
35.473
  0
VERTEX
  8
MACK_GRANITE_265
  6
CONTINUOUS
 62
     7
 10
-87.5327
 20
35.5053
  0
VERTEX
  8
MACK_GRANITE_265
  6
CONTINUOUS
 62
     7
 10
-87.5341
 20
35.5373
  0
VERTEX
  8
MACK_GRANITE_265
  6
CONTINUOUS
 62
     7
 10
-87.5353
 20
35.5691
  0
SEQEND
  8
MACK_GRANITE_265
  6
CONTINUOUS
 62
     7
  0
POLYLINE
  8
MACK_GRANITE_265
  6
CONTINUOUS
 62
     7
 66
     1
  0
VERTEX
  8
MACK_GRANITE_265
  6
CONTINUOUS
 62
     7
 10
-78.1463
 20
69.7091
  0
VERTEX
  8
MACK_GRANITE_265
  6
CONTINUOUS
 62
     7
 10
-80.1566
 20
69.4785
  0
VERTEX
  8
MACK_GRANITE_265
  6
CONTINUOUS
 62
     7
 10
-82.1647
 20
69.23
  0
SEQEND
  8
MACK_GRANITE_265
  6
CONTINUOUS
 62
     7
  0
POLYLINE
  8
MACK_GRANITE_265
  6
CONTINUOUS
 62
     7
 66
     1
  0
VERTEX
  8
MACK_GRANITE_265
  6
CONTINUOUS
 62
     7
 10
-80.4097
 20
64.4943
  0
VERTEX
  8
MACK_GRANITE_265
  6
CONTINUOUS
 62
     7
 10
-80.3449
 20
64.7189
  0
VERTEX
  8
MACK_GRANITE_265
  6
CONTINUOUS
 62
     7
 10
-80.264
 20
64.9349
  0
VERTEX
  8
MACK_GRANITE_265
  6
CONTINUOUS
 62
     7
 10
-80.1675
 20
65.1416
  0
VERTEX
  8
MACK_GRANITE_265
  6
CONTINUOUS
 62
     7
 10
-80.0561
 20
65.3386
  0
VERTEX
  8
MACK_GRANITE_265
  6
CONTINUOUS
 62
     7
 10
-79.9306
 20
65.5252
  0
VERTEX
  8
MACK_GRANITE_265
  6
CONTINUOUS
 62
     7
 10
-79.7915
 20
65.7008
  0
VERTEX
  8
MACK_GRANITE_265
  6
CONTINUOUS
 62
     7
 10
-79.6396
 20
65.865
  0
VERTEX
  8
MACK_GRANITE_265
  6
CONTINUOUS
 62
     7
 10
-79.4756
 20
66.017
  0
VERTEX
  8
MACK_GRANITE_265
  6
CONTINUOUS
 62
     7
 10
-79.3001
 20
66.1563
  0
VERTEX
  8
MACK_GRANITE_265
  6
CONTINUOUS
 62
     7
 10
-79.1137
 20
66.2824
  0
VERTEX
  8
MACK_GRANITE_265
  6
CONTINUOUS
 62
     7
 10
-78.9172
 20
66.3947
  0
VERTEX
  8
MACK_GRANITE_265
  6
CONTINUOUS
 62
     7
 10
-78.7112
 20
66.4926
  0
VERTEX
  8
MACK_GRANITE_265
  6
CONTINUOUS
 62
     7
 10
-78.4964
 20
66.5755
  0
VERTEX
  8
MACK_GRANITE_265
  6
CONTINUOUS
 62
     7
 10
-78.2735
 20
66.6428
  0
VERTEX
  8
MACK_GRANITE_265
  6
CONTINUOUS
 62
     7
 10
-78.0431
 20
66.694
  0
VERTEX
  8
MACK_GRANITE_265
  6
CONTINUOUS
 62
     7
 10
-77.8059
 20
66.7285
  0
SEQEND
  8
MACK_GRANITE_265
  6
CONTINUOUS
 62
     7
  0
CIRCLE
  8
MACK_GRANITE_265
 10
-114.6416
 20
-20.1674
 40
2.5
  0
POLYLINE
  8
MACK_GRANITE_265
  6
CONTINUOUS
 62
     7
 66
     1
  0
VERTEX
  8
MACK_GRANITE_265
  6
CONTINUOUS
 62
     7
 10
-104.5463
 20
-20.1674
  0
VERTEX
  8
MACK_GRANITE_265
  6
CONTINUOUS
 62
     7
 10
-104.5497
 20
-20.4263
  0
VERTEX
  8
MACK_GRANITE_265
  6
CONTINUOUS
 62
     7
 10
-104.5596
 20
-20.6836
  0
VERTEX
  8
MACK_GRANITE_265
  6
CONTINUOUS
 62
     7
 10
-104.576
 20
-20.9394
  0
VERTEX
  8
MACK_GRANITE_265
  6
CONTINUOUS
 62
     7
 10
-104.5989
 20
-21.1934
  0
VERTEX
  8
MACK_GRANITE_265
  6
CONTINUOUS
 62
     7
 10
-104.6281
 20
-21.4457
  0
VERTEX
  8
MACK_GRANITE_265
  6
CONTINUOUS
 62
     7
 10
-104.6636
 20
-21.6962
  0
VERTEX
  8
MACK_GRANITE_265
  6
CONTINUOUS
 62
     7
 10
-104.7052
 20
-21.9447
  0
VERTEX
  8
MACK_GRANITE_265
  6
CONTINUOUS
 62
     7
 10
-104.753
 20
-22.1912
  0
VERTEX
  8
MACK_GRANITE_265
  6
CONTINUOUS
 62
     7
 10
-104.8068
 20
-22.4357
  0
VERTEX
  8
MACK_GRANITE_265
  6
CONTINUOUS
 62
     7
 10
-104.8665
 20
-22.6779
  0
VERTEX
  8
MACK_GRANITE_265
  6
CONTINUOUS
 62
     7
 10
-104.9321
 20
-22.9179
  0
VERTEX
  8
MACK_GRANITE_265
  6
CONTINUOUS
 62
     7
 10
-105.0034
 20
-23.1556
  0
VERTEX
  8
MACK_GRANITE_265
  6
CONTINUOUS
 62
     7
 10
-105.0805
 20
-23.3908
  0
VERTEX
  8
MACK_GRANITE_265
  6
CONTINUOUS
 62
     7
 10
-105.1631
 20
-23.6235
  0
VERTEX
  8
MACK_GRANITE_265
  6
CONTINUOUS
 62
     7
 10
-105.2513
 20
-23.8537
  0
VERTEX
  8
MACK_GRANITE_265
  6
CONTINUOUS
 62
     7
 10
-105.3449
 20
-24.0812
  0
VERTEX
  8
MACK_GRANITE_265
  6
CONTINUOUS
 62
     7
 10
-105.4439
 20
-24.3059
  0
VERTEX
  8
MACK_GRANITE_265
  6
CONTINUOUS
 62
     7
 10
-105.5482
 20
-24.5278
  0
VERTEX
  8
MACK_GRANITE_265
  6
CONTINUOUS
 62
     7
 10
-105.6577
 20
-24.7468
  0
VERTEX
  8
MACK_GRANITE_265
  6
CONTINUOUS
 62
     7
 10
-105.7723
 20
-24.9629
  0
VERTEX
  8
MACK_GRANITE_265
  6
CONTINUOUS
 62
     7
 10
-106.0166
 20
-25.3856
  0
VERTEX
  8
MACK_GRANITE_265
  6
CONTINUOUS
 62
     7
 10
-106.2803
 20
-25.7954
  0
VERTEX
  8
MACK_GRANITE_265
  6
CONTINUOUS
 62
     7
 10
-106.5629
 20
-26.1915
  0
VERTEX
  8
MACK_GRANITE_265
  6
CONTINUOUS
 62
     7
 10
-106.8637
 20
-26.5734
  0
VERTEX
  8
MACK_GRANITE_265
  6
CONTINUOUS
 62
     7
 10
-107.182
 20
-26.9404
  0
VERTEX
  8
MACK_GRANITE_265
  6
CONTINUOUS
 62
     7
 10
-107.5172
 20
-27.2918
  0
VERTEX
  8
MACK_GRANITE_265
  6
CONTINUOUS
 62
     7
 10
-107.8686
 20
-27.627
  0
VERTEX
  8
MACK_GRANITE_265
  6
CONTINUOUS
 62
     7
 10
-108.2356
 20
-27.9454
  0
VERTEX
  8
MACK_GRANITE_265
  6
CONTINUOUS
 62
     7
 10
-108.6175
 20
-28.2461
  0
VERTEX
  8
MACK_GRANITE_265
  6
CONTINUOUS
 62
     7
 10
-109.0137
 20
-28.5287
  0
VERTEX
  8
MACK_GRANITE_265
  6
CONTINUOUS
 62
     7
 10
-109.4235
 20
-28.7925
  0
VERTEX
  8
MACK_GRANITE_265
  6
CONTINUOUS
 62
     7
 10
-109.8462
 20
-29.0367
  0
VERTEX
  8
MACK_GRANITE_265
  6
CONTINUOUS
 62
     7
 10
-110.0622
 20
-29.1513
  0
VERTEX
  8
MACK_GRANITE_265
  6
CONTINUOUS
 62
     7
 10
-110.2812
 20
-29.2608
  0
VERTEX
  8
MACK_GRANITE_265
  6
CONTINUOUS
 62
     7
 10
-110.5031
 20
-29.3651
  0
VERTEX
  8
MACK_GRANITE_265
  6
CONTINUOUS
 62
     7
 10
-110.7279
 20
-29.4641
  0
VERTEX
  8
MACK_GRANITE_265
  6
CONTINUOUS
 62
     7
 10
-110.9554
 20
-29.5577
  0
VERTEX
  8
MACK_GRANITE_265
  6
CONTINUOUS
 62
     7
 10
-111.1855
 20
-29.6459
  0
VERTEX
  8
MACK_GRANITE_265
  6
CONTINUOUS
 62
     7
 10
-111.4182
 20
-29.7286
  0
VERTEX
  8
MACK_GRANITE_265
  6
CONTINUOUS
 62
     7
 10
-111.6535
 20
-29.8056
  0
VERTEX
  8
MACK_GRANITE_265
  6
CONTINUOUS
 62
     7
 10
-111.8911
 20
-29.877
  0
VERTEX
  8
MACK_GRANITE_265
  6
CONTINUOUS
 62
     7
 10
-112.1311
 20
-29.9426
  0
VERTEX
  8
MACK_GRANITE_265
  6
CONTINUOUS
 62
     7
 10
-112.3734
 20
-30.0023
  0
VERTEX
  8
MACK_GRANITE_265
  6
CONTINUOUS
 62
     7
 10
-112.6178
 20
-30.0561
  0
VERTEX
  8
MACK_GRANITE_265
  6
CONTINUOUS
 62
     7
 10
-112.8643
 20
-30.1038
  0
VERTEX
  8
MACK_GRANITE_265
  6
CONTINUOUS
 62
     7
 10
-113.1129
 20
-30.1455
  0
VERTEX
  8
MACK_GRANITE_265
  6
CONTINUOUS
 62
     7
 10
-113.3633
 20
-30.181
  0
VERTEX
  8
MACK_GRANITE_265
  6
CONTINUOUS
 62
     7
 10
-113.6156
 20
-30.2102
  0
VERTEX
  8
MACK_GRANITE_265
  6
CONTINUOUS
 62
     7
 10
-113.8697
 20
-30.233
  0
VERTEX
  8
MACK_GRANITE_265
  6
CONTINUOUS
 62
     7
 10
-114.1254
 20
-30.2495
  0
VERTEX
  8
MACK_GRANITE_265
  6
CONTINUOUS
 62
     7
 10
-114.3828
 20
-30.2594
  0
VERTEX
  8
MACK_GRANITE_265
  6
CONTINUOUS
 62
     7
 10
-114.6416
 20
-30.2627
  0
VERTEX
  8
MACK_GRANITE_265
  6
CONTINUOUS
 62
     7
 10
-114.6416
 20
-30.2627
  0
VERTEX
  8
MACK_GRANITE_265
  6
CONTINUOUS
 62
     7
 10
-114.9005
 20
-30.2594
  0
VERTEX
  8
MACK_GRANITE_265
  6
CONTINUOUS
 62
     7
 10
-115.1579
 20
-30.2495
  0
VERTEX
  8
MACK_GRANITE_265
  6
CONTINUOUS
 62
     7
 10
-115.4136
 20
-30.233
  0
VERTEX
  8
MACK_GRANITE_265
  6
CONTINUOUS
 62
     7
 10
-115.6677
 20
-30.2102
  0
VERTEX
  8
MACK_GRANITE_265
  6
CONTINUOUS
 62
     7
 10
-115.92
 20
-30.181
  0
VERTEX
  8
MACK_GRANITE_265
  6
CONTINUOUS
 62
     7
 10
-116.1704
 20
-30.1455
  0
VERTEX
  8
MACK_GRANITE_265
  6
CONTINUOUS
 62
     7
 10
-116.419
 20
-30.1038
  0
VERTEX
  8
MACK_GRANITE_265
  6
CONTINUOUS
 62
     7
 10
-116.6655
 20
-30.0561
  0
VERTEX
  8
MACK_GRANITE_265
  6
CONTINUOUS
 62
     7
 10
-116.9099
 20
-30.0023
  0
VERTEX
  8
MACK_GRANITE_265
  6
CONTINUOUS
 62
     7
 10
-117.1521
 20
-29.9426
  0
VERTEX
  8
MACK_GRANITE_265
  6
CONTINUOUS
 62
     7
 10
-117.3921
 20
-29.877
  0
VERTEX
  8
MACK_GRANITE_265
  6
CONTINUOUS
 62
     7
 10
-117.6298
 20
-29.8056
  0
VERTEX
  8
MACK_GRANITE_265
  6
CONTINUOUS
 62
     7
 10
-117.865
 20
-29.7286
  0
VERTEX
  8
MACK_GRANITE_265
  6
CONTINUOUS
 62
     7
 10
-118.0978
 20
-29.6459
  0
VERTEX
  8
MACK_GRANITE_265
  6
CONTINUOUS
 62
     7
 10
-118.3279
 20
-29.5577
  0
VERTEX
  8
MACK_GRANITE_265
  6
CONTINUOUS
 62
     7
 10
-118.5554
 20
-29.4641
  0
VERTEX
  8
MACK_GRANITE_265
  6
CONTINUOUS
 62
     7
 10
-118.7802
 20
-29.3651
  0
VERTEX
  8
MACK_GRANITE_265
  6
CONTINUOUS
 62
     7
 10
-119.0021
 20
-29.2608
  0
VERTEX
  8
MACK_GRANITE_265
  6
CONTINUOUS
 62
     7
 10
-119.2211
 20
-29.1513
  0
VERTEX
  8
MACK_GRANITE_265
  6
CONTINUOUS
 62
     7
 10
-119.4371
 20
-29.0367
  0
VERTEX
  8
MACK_GRANITE_265
  6
CONTINUOUS
 62
     7
 10
-119.8598
 20
-28.7925
  0
VERTEX
  8
MACK_GRANITE_265
  6
CONTINUOUS
 62
     7
 10
-120.2696
 20
-28.5287
  0
VERTEX
  8
MACK_GRANITE_265
  6
CONTINUOUS
 62
     7
 10
-120.6658
 20
-28.2461
  0
VERTEX
  8
MACK_GRANITE_265
  6
CONTINUOUS
 62
     7
 10
-121.0477
 20
-27.9454
  0
VERTEX
  8
MACK_GRANITE_265
  6
CONTINUOUS
 62
     7
 10
-121.4147
 20
-27.627
  0
VERTEX
  8
MACK_GRANITE_265
  6
CONTINUOUS
 62
     7
 10
-121.7661
 20
-27.2918
  0
VERTEX
  8
MACK_GRANITE_265
  6
CONTINUOUS
 62
     7
 10
-122.1013
 20
-26.9404
  0
VERTEX
  8
MACK_GRANITE_265
  6
CONTINUOUS
 62
     7
 10
-122.4196
 20
-26.5734
  0
VERTEX
  8
MACK_GRANITE_265
  6
CONTINUOUS
 62
     7
 10
-122.7204
 20
-26.1915
  0
VERTEX
  8
MACK_GRANITE_265
  6
CONTINUOUS
 62
     7
 10
-123.003
 20
-25.7954
  0
VERTEX
  8
MACK_GRANITE_265
  6
CONTINUOUS
 62
     7
 10
-123.2667
 20
-25.3856
  0
VERTEX
  8
MACK_GRANITE_265
  6
CONTINUOUS
 62
     7
 10
-123.511
 20
-24.9629
  0
VERTEX
  8
MACK_GRANITE_265
  6
CONTINUOUS
 62
     7
 10
-123.6256
 20
-24.7468
  0
VERTEX
  8
MACK_GRANITE_265
  6
CONTINUOUS
 62
     7
 10
-123.7351
 20
-24.5278
  0
VERTEX
  8
MACK_GRANITE_265
  6
CONTINUOUS
 62
     7
 10
-123.8393
 20
-24.3059
  0
VERTEX
  8
MACK_GRANITE_265
  6
CONTINUOUS
 62
     7
 10
-123.9384
 20
-24.0812
  0
VERTEX
  8
MACK_GRANITE_265
  6
CONTINUOUS
 62
     7
 10
-124.032
 20
-23.8537
  0
VERTEX
  8
MACK_GRANITE_265
  6
CONTINUOUS
 62
     7
 10
-124.1202
 20
-23.6235
  0
VERTEX
  8
MACK_GRANITE_265
  6
CONTINUOUS
 62
     7
 10
-124.2028
 20
-23.3908
  0
VERTEX
  8
MACK_GRANITE_265
  6
CONTINUOUS
 62
     7
 10
-124.2799
 20
-23.1556
  0
VERTEX
  8
MACK_GRANITE_265
  6
CONTINUOUS
 62
     7
 10
-124.3512
 20
-22.9179
  0
VERTEX
  8
MACK_GRANITE_265
  6
CONTINUOUS
 62
     7
 10
-124.4168
 20
-22.6779
  0
VERTEX
  8
MACK_GRANITE_265
  6
CONTINUOUS
 62
     7
 10
-124.4765
 20
-22.4357
  0
VERTEX
  8
MACK_GRANITE_265
  6
CONTINUOUS
 62
     7
 10
-124.5303
 20
-22.1912
  0
VERTEX
  8
MACK_GRANITE_265
  6
CONTINUOUS
 62
     7
 10
-124.5781
 20
-21.9447
  0
VERTEX
  8
MACK_GRANITE_265
  6
CONTINUOUS
 62
     7
 10
-124.6197
 20
-21.6962
  0
VERTEX
  8
MACK_GRANITE_265
  6
CONTINUOUS
 62
     7
 10
-124.6552
 20
-21.4457
  0
VERTEX
  8
MACK_GRANITE_265
  6
CONTINUOUS
 62
     7
 10
-124.6844
 20
-21.1934
  0
VERTEX
  8
MACK_GRANITE_265
  6
CONTINUOUS
 62
     7
 10
-124.7073
 20
-20.9394
  0
VERTEX
  8
MACK_GRANITE_265
  6
CONTINUOUS
 62
     7
 10
-124.7237
 20
-20.6836
  0
VERTEX
  8
MACK_GRANITE_265
  6
CONTINUOUS
 62
     7
 10
-124.7336
 20
-20.4263
  0
VERTEX
  8
MACK_GRANITE_265
  6
CONTINUOUS
 62
     7
 10
-124.7369
 20
-20.1674
  0
VERTEX
  8
MACK_GRANITE_265
  6
CONTINUOUS
 62
     7
 10
-124.7369
 20
-20.1674
  0
VERTEX
  8
MACK_GRANITE_265
  6
CONTINUOUS
 62
     7
 10
-124.7336
 20
-19.9085
  0
VERTEX
  8
MACK_GRANITE_265
  6
CONTINUOUS
 62
     7
 10
-124.7237
 20
-19.6512
  0
VERTEX
  8
MACK_GRANITE_265
  6
CONTINUOUS
 62
     7
 10
-124.7073
 20
-19.3954
  0
VERTEX
  8
MACK_GRANITE_265
  6
CONTINUOUS
 62
     7
 10
-124.6844
 20
-19.1414
  0
VERTEX
  8
MACK_GRANITE_265
  6
CONTINUOUS
 62
     7
 10
-124.6552
 20
-18.8891
  0
VERTEX
  8
MACK_GRANITE_265
  6
CONTINUOUS
 62
     7
 10
-124.6197
 20
-18.6386
  0
VERTEX
  8
MACK_GRANITE_265
  6
CONTINUOUS
 62
     7
 10
-124.5781
 20
-18.3901
  0
VERTEX
  8
MACK_GRANITE_265
  6
CONTINUOUS
 62
     7
 10
-124.5303
 20
-18.1436
  0
VERTEX
  8
MACK_GRANITE_265
  6
CONTINUOUS
 62
     7
 10
-124.4765
 20
-17.8991
  0
VERTEX
  8
MACK_GRANITE_265
  6
CONTINUOUS
 62
     7
 10
-124.4168
 20
-17.6569
  0
VERTEX
  8
MACK_GRANITE_265
  6
CONTINUOUS
 62
     7
 10
-124.3512
 20
-17.4169
  0
VERTEX
  8
MACK_GRANITE_265
  6
CONTINUOUS
 62
     7
 10
-124.2799
 20
-17.1792
  0
VERTEX
  8
MACK_GRANITE_265
  6
CONTINUOUS
 62
     7
 10
-124.2028
 20
-16.944
  0
VERTEX
  8
MACK_GRANITE_265
  6
CONTINUOUS
 62
     7
 10
-124.1202
 20
-16.7113
  0
VERTEX
  8
MACK_GRANITE_265
  6
CONTINUOUS
 62
     7
 10
-124.032
 20
-16.4811
  0
VERTEX
  8
MACK_GRANITE_265
  6
CONTINUOUS
 62
     7
 10
-123.9384
 20
-16.2536
  0
VERTEX
  8
MACK_GRANITE_265
  6
CONTINUOUS
 62
     7
 10
-123.8393
 20
-16.0289
  0
VERTEX
  8
MACK_GRANITE_265
  6
CONTINUOUS
 62
     7
 10
-123.7351
 20
-15.807
  0
VERTEX
  8
MACK_GRANITE_265
  6
CONTINUOUS
 62
     7
 10
-123.6256
 20
-15.5879
  0
VERTEX
  8
MACK_GRANITE_265
  6
CONTINUOUS
 62
     7
 10
-123.511
 20
-15.3719
  0
VERTEX
  8
MACK_GRANITE_265
  6
CONTINUOUS
 62
     7
 10
-123.2667
 20
-14.9492
  0
VERTEX
  8
MACK_GRANITE_265
  6
CONTINUOUS
 62
     7
 10
-123.003
 20
-14.5394
  0
VERTEX
  8
MACK_GRANITE_265
  6
CONTINUOUS
 62
     7
 10
-122.7204
 20
-14.1433
  0
VERTEX
  8
MACK_GRANITE_265
  6
CONTINUOUS
 62
     7
 10
-122.4196
 20
-13.7614
  0
VERTEX
  8
MACK_GRANITE_265
  6
CONTINUOUS
 62
     7
 10
-122.1013
 20
-13.3944
  0
VERTEX
  8
MACK_GRANITE_265
  6
CONTINUOUS
 62
     7
 10
-121.7661
 20
-13.043
  0
VERTEX
  8
MACK_GRANITE_265
  6
CONTINUOUS
 62
     7
 10
-121.4147
 20
-12.7078
  0
VERTEX
  8
MACK_GRANITE_265
  6
CONTINUOUS
 62
     7
 10
-121.0477
 20
-12.3894
  0
VERTEX
  8
MACK_GRANITE_265
  6
CONTINUOUS
 62
     7
 10
-120.6658
 20
-12.0887
  0
VERTEX
  8
MACK_GRANITE_265
  6
CONTINUOUS
 62
     7
 10
-120.2696
 20
-11.8061
  0
VERTEX
  8
MACK_GRANITE_265
  6
CONTINUOUS
 62
     7
 10
-119.8598
 20
-11.5423
  0
VERTEX
  8
MACK_GRANITE_265
  6
CONTINUOUS
 62
     7
 10
-119.4371
 20
-11.2981
  0
VERTEX
  8
MACK_GRANITE_265
  6
CONTINUOUS
 62
     7
 10
-119.2211
 20
-11.1835
  0
VERTEX
  8
MACK_GRANITE_265
  6
CONTINUOUS
 62
     7
 10
-119.0021
 20
-11.074
  0
VERTEX
  8
MACK_GRANITE_265
  6
CONTINUOUS
 62
     7
 10
-118.7802
 20
-10.9697
  0
VERTEX
  8
MACK_GRANITE_265
  6
CONTINUOUS
 62
     7
 10
-118.5554
 20
-10.8707
  0
VERTEX
  8
MACK_GRANITE_265
  6
CONTINUOUS
 62
     7
 10
-118.3279
 20
-10.7771
  0
VERTEX
  8
MACK_GRANITE_265
  6
CONTINUOUS
 62
     7
 10
-118.0978
 20
-10.6889
  0
VERTEX
  8
MACK_GRANITE_265
  6
CONTINUOUS
 62
     7
 10
-117.865
 20
-10.6062
  0
VERTEX
  8
MACK_GRANITE_265
  6
CONTINUOUS
 62
     7
 10
-117.6298
 20
-10.5292
  0
VERTEX
  8
MACK_GRANITE_265
  6
CONTINUOUS
 62
     7
 10
-117.3921
 20
-10.4578
  0
VERTEX
  8
MACK_GRANITE_265
  6
CONTINUOUS
 62
     7
 10
-117.1521
 20
-10.3922
  0
VERTEX
  8
MACK_GRANITE_265
  6
CONTINUOUS
 62
     7
 10
-116.9099
 20
-10.3325
  0
VERTEX
  8
MACK_GRANITE_265
  6
CONTINUOUS
 62
     7
 10
-116.6655
 20
-10.2787
  0
VERTEX
  8
MACK_GRANITE_265
  6
CONTINUOUS
 62
     7
 10
-116.419
 20
-10.231
  0
VERTEX
  8
MACK_GRANITE_265
  6
CONTINUOUS
 62
     7
 10
-116.1704
 20
-10.1893
  0
VERTEX
  8
MACK_GRANITE_265
  6
CONTINUOUS
 62
     7
 10
-115.92
 20
-10.1538
  0
VERTEX
  8
MACK_GRANITE_265
  6
CONTINUOUS
 62
     7
 10
-115.6677
 20
-10.1246
  0
VERTEX
  8
MACK_GRANITE_265
  6
CONTINUOUS
 62
     7
 10
-115.4136
 20
-10.1018
  0
VERTEX
  8
MACK_GRANITE_265
  6
CONTINUOUS
 62
     7
 10
-115.1579
 20
-10.0853
  0
VERTEX
  8
MACK_GRANITE_265
  6
CONTINUOUS
 62
     7
 10
-114.9005
 20
-10.0754
  0
VERTEX
  8
MACK_GRANITE_265
  6
CONTINUOUS
 62
     7
 10
-114.6416
 20
-10.0721
  0
VERTEX
  8
MACK_GRANITE_265
  6
CONTINUOUS
 62
     7
 10
-114.6416
 20
-10.0721
  0
VERTEX
  8
MACK_GRANITE_265
  6
CONTINUOUS
 62
     7
 10
-114.3828
 20
-10.0754
  0
VERTEX
  8
MACK_GRANITE_265
  6
CONTINUOUS
 62
     7
 10
-114.1254
 20
-10.0853
  0
VERTEX
  8
MACK_GRANITE_265
  6
CONTINUOUS
 62
     7
 10
-113.8697
 20
-10.1018
  0
VERTEX
  8
MACK_GRANITE_265
  6
CONTINUOUS
 62
     7
 10
-113.6156
 20
-10.1246
  0
VERTEX
  8
MACK_GRANITE_265
  6
CONTINUOUS
 62
     7
 10
-113.3633
 20
-10.1538
  0
VERTEX
  8
MACK_GRANITE_265
  6
CONTINUOUS
 62
     7
 10
-113.1129
 20
-10.1893
  0
VERTEX
  8
MACK_GRANITE_265
  6
CONTINUOUS
 62
     7
 10
-112.8643
 20
-10.231
  0
VERTEX
  8
MACK_GRANITE_265
  6
CONTINUOUS
 62
     7
 10
-112.6178
 20
-10.2787
  0
VERTEX
  8
MACK_GRANITE_265
  6
CONTINUOUS
 62
     7
 10
-112.3734
 20
-10.3325
  0
VERTEX
  8
MACK_GRANITE_265
  6
CONTINUOUS
 62
     7
 10
-112.1311
 20
-10.3922
  0
VERTEX
  8
MACK_GRANITE_265
  6
CONTINUOUS
 62
     7
 10
-111.8911
 20
-10.4578
  0
VERTEX
  8
MACK_GRANITE_265
  6
CONTINUOUS
 62
     7
 10
-111.6535
 20
-10.5292
  0
VERTEX
  8
MACK_GRANITE_265
  6
CONTINUOUS
 62
     7
 10
-111.4182
 20
-10.6062
  0
VERTEX
  8
MACK_GRANITE_265
  6
CONTINUOUS
 62
     7
 10
-111.1855
 20
-10.6889
  0
VERTEX
  8
MACK_GRANITE_265
  6
CONTINUOUS
 62
     7
 10
-110.9554
 20
-10.7771
  0
VERTEX
  8
MACK_GRANITE_265
  6
CONTINUOUS
 62
     7
 10
-110.7279
 20
-10.8707
  0
VERTEX
  8
MACK_GRANITE_265
  6
CONTINUOUS
 62
     7
 10
-110.5031
 20
-10.9697
  0
VERTEX
  8
MACK_GRANITE_265
  6
CONTINUOUS
 62
     7
 10
-110.2812
 20
-11.074
  0
VERTEX
  8
MACK_GRANITE_265
  6
CONTINUOUS
 62
     7
 10
-110.0622
 20
-11.1835
  0
VERTEX
  8
MACK_GRANITE_265
  6
CONTINUOUS
 62
     7
 10
-109.8462
 20
-11.2981
  0
VERTEX
  8
MACK_GRANITE_265
  6
CONTINUOUS
 62
     7
 10
-109.4235
 20
-11.5423
  0
VERTEX
  8
MACK_GRANITE_265
  6
CONTINUOUS
 62
     7
 10
-109.0137
 20
-11.8061
  0
VERTEX
  8
MACK_GRANITE_265
  6
CONTINUOUS
 62
     7
 10
-108.6175
 20
-12.0887
  0
VERTEX
  8
MACK_GRANITE_265
  6
CONTINUOUS
 62
     7
 10
-108.2356
 20
-12.3894
  0
VERTEX
  8
MACK_GRANITE_265
  6
CONTINUOUS
 62
     7
 10
-107.8686
 20
-12.7078
  0
VERTEX
  8
MACK_GRANITE_265
  6
CONTINUOUS
 62
     7
 10
-107.5172
 20
-13.043
  0
VERTEX
  8
MACK_GRANITE_265
  6
CONTINUOUS
 62
     7
 10
-107.182
 20
-13.3944
  0
VERTEX
  8
MACK_GRANITE_265
  6
CONTINUOUS
 62
     7
 10
-106.8637
 20
-13.7614
  0
VERTEX
  8
MACK_GRANITE_265
  6
CONTINUOUS
 62
     7
 10
-106.5629
 20
-14.1433
  0
VERTEX
  8
MACK_GRANITE_265
  6
CONTINUOUS
 62
     7
 10
-106.2803
 20
-14.5394
  0
VERTEX
  8
MACK_GRANITE_265
  6
CONTINUOUS
 62
     7
 10
-106.0166
 20
-14.9492
  0
VERTEX
  8
MACK_GRANITE_265
  6
CONTINUOUS
 62
     7
 10
-105.7723
 20
-15.3719
  0
VERTEX
  8
MACK_GRANITE_265
  6
CONTINUOUS
 62
     7
 10
-105.6577
 20
-15.5879
  0
VERTEX
  8
MACK_GRANITE_265
  6
CONTINUOUS
 62
     7
 10
-105.5482
 20
-15.807
  0
VERTEX
  8
MACK_GRANITE_265
  6
CONTINUOUS
 62
     7
 10
-105.4439
 20
-16.0289
  0
VERTEX
  8
MACK_GRANITE_265
  6
CONTINUOUS
 62
     7
 10
-105.3449
 20
-16.2536
  0
VERTEX
  8
MACK_GRANITE_265
  6
CONTINUOUS
 62
     7
 10
-105.2513
 20
-16.4811
  0
VERTEX
  8
MACK_GRANITE_265
  6
CONTINUOUS
 62
     7
 10
-105.1631
 20
-16.7113
  0
VERTEX
  8
MACK_GRANITE_265
  6
CONTINUOUS
 62
     7
 10
-105.0805
 20
-16.944
  0
VERTEX
  8
MACK_GRANITE_265
  6
CONTINUOUS
 62
     7
 10
-105.0034
 20
-17.1792
  0
VERTEX
  8
MACK_GRANITE_265
  6
CONTINUOUS
 62
     7
 10
-104.9321
 20
-17.4169
  0
VERTEX
  8
MACK_GRANITE_265
  6
CONTINUOUS
 62
     7
 10
-104.8665
 20
-17.6569
  0
VERTEX
  8
MACK_GRANITE_265
  6
CONTINUOUS
 62
     7
 10
-104.8068
 20
-17.8991
  0
VERTEX
  8
MACK_GRANITE_265
  6
CONTINUOUS
 62
     7
 10
-104.753
 20
-18.1436
  0
VERTEX
  8
MACK_GRANITE_265
  6
CONTINUOUS
 62
     7
 10
-104.7052
 20
-18.3901
  0
VERTEX
  8
MACK_GRANITE_265
  6
CONTINUOUS
 62
     7
 10
-104.6636
 20
-18.6386
  0
VERTEX
  8
MACK_GRANITE_265
  6
CONTINUOUS
 62
     7
 10
-104.6281
 20
-18.8891
  0
VERTEX
  8
MACK_GRANITE_265
  6
CONTINUOUS
 62
     7
 10
-104.5989
 20
-19.1414
  0
VERTEX
  8
MACK_GRANITE_265
  6
CONTINUOUS
 62
     7
 10
-104.576
 20
-19.3954
  0
VERTEX
  8
MACK_GRANITE_265
  6
CONTINUOUS
 62
     7
 10
-104.5596
 20
-19.6512
  0
VERTEX
  8
MACK_GRANITE_265
  6
CONTINUOUS
 62
     7
 10
-104.5497
 20
-19.9085
  0
VERTEX
  8
MACK_GRANITE_265
  6
CONTINUOUS
 62
     7
 10
-104.5463
 20
-20.1674
  0
SEQEND
  8
MACK_GRANITE_265
  6
CONTINUOUS
 62
     7
  0
CIRCLE
  8
MACK_GRANITE_265
 10
-114.6416
 20
-20.1674
 40
11.25
  0
POLYLINE
  8
MACK_GRANITE_265
  6
CONTINUOUS
 62
     7
 66
     1
  0
VERTEX
  8
MACK_GRANITE_265
  6
CONTINUOUS
 62
     7
 10
-36.6413
 20
67.0361
  0
VERTEX
  8
MACK_GRANITE_265
  6
CONTINUOUS
 62
     7
 10
-39.6422
 20
66.0747
  0
VERTEX
  8
MACK_GRANITE_265
  6
CONTINUOUS
 62
     7
 10
-42.6413
 20
65.1076
  0
SEQEND
  8
MACK_GRANITE_265
  6
CONTINUOUS
 62
     7
  0
POLYLINE
  8
MACK_GRANITE_265
  6
CONTINUOUS
 62
     7
 66
     1
  0
VERTEX
  8
MACK_GRANITE_265
  6
CONTINUOUS
 62
     7
 10
-40.4807
 20
71.0328
  0
VERTEX
  8
MACK_GRANITE_265
  6
CONTINUOUS
 62
     7
 10
-41.5701
 20
68.0734
  0
VERTEX
  8
MACK_GRANITE_265
  6
CONTINUOUS
 62
     7
 10
-42.6419
 20
65.1076
  0
SEQEND
  8
MACK_GRANITE_265
  6
CONTINUOUS
 62
     7
  0
POLYLINE
  8
MACK_GRANITE_265
  6
CONTINUOUS
 62
     7
 66
     1
  0
VERTEX
  8
MACK_GRANITE_265
  6
CONTINUOUS
 62
     7
 10
-80.6223
 20
64.3896
  0
VERTEX
  8
MACK_GRANITE_265
  6
CONTINUOUS
 62
     7
 10
-80.6109
 20
64.4376
  0
VERTEX
  8
MACK_GRANITE_265
  6
CONTINUOUS
 62
     7
 10
-80.5997
 20
64.4856
  0
VERTEX
  8
MACK_GRANITE_265
  6
CONTINUOUS
 62
     7
 10
-80.5887
 20
64.5334
  0
VERTEX
  8
MACK_GRANITE_265
  6
CONTINUOUS
 62
     7
 10
-80.5779
 20
64.5812
  0
VERTEX
  8
MACK_GRANITE_265
  6
CONTINUOUS
 62
     7
 10
-80.5673
 20
64.6289
  0
VERTEX
  8
MACK_GRANITE_265
  6
CONTINUOUS
 62
     7
 10
-80.5569
 20
64.6765
  0
VERTEX
  8
MACK_GRANITE_265
  6
CONTINUOUS
 62
     7
 10
-80.5467
 20
64.724
  0
VERTEX
  8
MACK_GRANITE_265
  6
CONTINUOUS
 62
     7
 10
-80.5368
 20
64.7715
  0
VERTEX
  8
MACK_GRANITE_265
  6
CONTINUOUS
 62
     7
 10
-80.527
 20
64.8189
  0
VERTEX
  8
MACK_GRANITE_265
  6
CONTINUOUS
 62
     7
 10
-80.5175
 20
64.8662
  0
VERTEX
  8
MACK_GRANITE_265
  6
CONTINUOUS
 62
     7
 10
-80.5081
 20
64.9134
  0
VERTEX
  8
MACK_GRANITE_265
  6
CONTINUOUS
 62
     7
 10
-80.499
 20
64.9605
  0
VERTEX
  8
MACK_GRANITE_265
  6
CONTINUOUS
 62
     7
 10
-80.4901
 20
65.0076
  0
VERTEX
  8
MACK_GRANITE_265
  6
CONTINUOUS
 62
     7
 10
-80.4814
 20
65.0546
  0
VERTEX
  8
MACK_GRANITE_265
  6
CONTINUOUS
 62
     7
 10
-80.4729
 20
65.1015
  0
VERTEX
  8
MACK_GRANITE_265
  6
CONTINUOUS
 62
     7
 10
-80.4646
 20
65.1483
  0
VERTEX
  8
MACK_GRANITE_265
  6
CONTINUOUS
 62
     7
 10
-80.4566
 20
65.1951
  0
VERTEX
  8
MACK_GRANITE_265
  6
CONTINUOUS
 62
     7
 10
-80.4487
 20
65.2418
  0
VERTEX
  8
MACK_GRANITE_265
  6
CONTINUOUS
 62
     7
 10
-80.4411
 20
65.2883
  0
VERTEX
  8
MACK_GRANITE_265
  6
CONTINUOUS
 62
     7
 10
-80.4337
 20
65.3348
  0
VERTEX
  8
MACK_GRANITE_265
  6
CONTINUOUS
 62
     7
 10
-80.4265
 20
65.3812
  0
VERTEX
  8
MACK_GRANITE_265
  6
CONTINUOUS
 62
     7
 10
-80.4196
 20
65.4274
  0
VERTEX
  8
MACK_GRANITE_265
  6
CONTINUOUS
 62
     7
 10
-80.4129
 20
65.4732
  0
VERTEX
  8
MACK_GRANITE_265
  6
CONTINUOUS
 62
     7
 10
-80.4065
 20
65.5187
  0
VERTEX
  8
MACK_GRANITE_265
  6
CONTINUOUS
 62
     7
 10
-80.4003
 20
65.5638
  0
VERTEX
  8
MACK_GRANITE_265
  6
CONTINUOUS
 62
     7
 10
-80.3944
 20
65.6086
  0
VERTEX
  8
MACK_GRANITE_265
  6
CONTINUOUS
 62
     7
 10
-80.3888
 20
65.653
  0
VERTEX
  8
MACK_GRANITE_265
  6
CONTINUOUS
 62
     7
 10
-80.3835
 20
65.6971
  0
VERTEX
  8
MACK_GRANITE_265
  6
CONTINUOUS
 62
     7
 10
-80.3783
 20
65.7408
  0
VERTEX
  8
MACK_GRANITE_265
  6
CONTINUOUS
 62
     7
 10
-80.3735
 20
65.7842
  0
VERTEX
  8
MACK_GRANITE_265
  6
CONTINUOUS
 62
     7
 10
-80.3689
 20
65.8272
  0
VERTEX
  8
MACK_GRANITE_265
  6
CONTINUOUS
 62
     7
 10
-80.3646
 20
65.8699
  0
VERTEX
  8
MACK_GRANITE_265
  6
CONTINUOUS
 62
     7
 10
-80.3605
 20
65.9122
  0
VERTEX
  8
MACK_GRANITE_265
  6
CONTINUOUS
 62
     7
 10
-80.3567
 20
65.9542
  0
VERTEX
  8
MACK_GRANITE_265
  6
CONTINUOUS
 62
     7
 10
-80.3532
 20
65.9958
  0
VERTEX
  8
MACK_GRANITE_265
  6
CONTINUOUS
 62
     7
 10
-80.3499
 20
66.0371
  0
VERTEX
  8
MACK_GRANITE_265
  6
CONTINUOUS
 62
     7
 10
-80.3469
 20
66.078
  0
VERTEX
  8
MACK_GRANITE_265
  6
CONTINUOUS
 62
     7
 10
-80.3441
 20
66.1185
  0
VERTEX
  8
MACK_GRANITE_265
  6
CONTINUOUS
 62
     7
 10
-80.3416
 20
66.1587
  0
VERTEX
  8
MACK_GRANITE_265
  6
CONTINUOUS
 62
     7
 10
-80.3394
 20
66.1986
  0
VERTEX
  8
MACK_GRANITE_265
  6
CONTINUOUS
 62
     7
 10
-80.3375
 20
66.2381
  0
VERTEX
  8
MACK_GRANITE_265
  6
CONTINUOUS
 62
     7
 10
-80.3358
 20
66.2771
  0
VERTEX
  8
MACK_GRANITE_265
  6
CONTINUOUS
 62
     7
 10
-80.3344
 20
66.3157
  0
VERTEX
  8
MACK_GRANITE_265
  6
CONTINUOUS
 62
     7
 10
-80.3333
 20
66.3536
  0
VERTEX
  8
MACK_GRANITE_265
  6
CONTINUOUS
 62
     7
 10
-80.3324
 20
66.391
  0
VERTEX
  8
MACK_GRANITE_265
  6
CONTINUOUS
 62
     7
 10
-80.3318
 20
66.4277
  0
VERTEX
  8
MACK_GRANITE_265
  6
CONTINUOUS
 62
     7
 10
-80.3316
 20
66.4638
  0
VERTEX
  8
MACK_GRANITE_265
  6
CONTINUOUS
 62
     7
 10
-80.3315
 20
66.4994
  0
VERTEX
  8
MACK_GRANITE_265
  6
CONTINUOUS
 62
     7
 10
-80.3318
 20
66.5343
  0
VERTEX
  8
MACK_GRANITE_265
  6
CONTINUOUS
 62
     7
 10
-80.3323
 20
66.5686
  0
VERTEX
  8
MACK_GRANITE_265
  6
CONTINUOUS
 62
     7
 10
-80.3331
 20
66.6024
  0
VERTEX
  8
MACK_GRANITE_265
  6
CONTINUOUS
 62
     7
 10
-80.3342
 20
66.6355
  0
VERTEX
  8
MACK_GRANITE_265
  6
CONTINUOUS
 62
     7
 10
-80.3355
 20
66.6681
  0
VERTEX
  8
MACK_GRANITE_265
  6
CONTINUOUS
 62
     7
 10
-80.3371
 20
66.7
  0
VERTEX
  8
MACK_GRANITE_265
  6
CONTINUOUS
 62
     7
 10
-80.339
 20
66.7314
  0
VERTEX
  8
MACK_GRANITE_265
  6
CONTINUOUS
 62
     7
 10
-80.3411
 20
66.7622
  0
VERTEX
  8
MACK_GRANITE_265
  6
CONTINUOUS
 62
     7
 10
-80.3435
 20
66.7923
  0
VERTEX
  8
MACK_GRANITE_265
  6
CONTINUOUS
 62
     7
 10
-80.3462
 20
66.8219
  0
VERTEX
  8
MACK_GRANITE_265
  6
CONTINUOUS
 62
     7
 10
-80.3492
 20
66.8509
  0
VERTEX
  8
MACK_GRANITE_265
  6
CONTINUOUS
 62
     7
 10
-80.3524
 20
66.8792
  0
VERTEX
  8
MACK_GRANITE_265
  6
CONTINUOUS
 62
     7
 10
-80.3559
 20
66.907
  0
VERTEX
  8
MACK_GRANITE_265
  6
CONTINUOUS
 62
     7
 10
-80.3596
 20
66.9341
  0
VERTEX
  8
MACK_GRANITE_265
  6
CONTINUOUS
 62
     7
 10
-80.3637
 20
66.9605
  0
VERTEX
  8
MACK_GRANITE_265
  6
CONTINUOUS
 62
     7
 10
-80.3679
 20
66.9861
  0
VERTEX
  8
MACK_GRANITE_265
  6
CONTINUOUS
 62
     7
 10
-80.3725
 20
67.0109
  0
VERTEX
  8
MACK_GRANITE_265
  6
CONTINUOUS
 62
     7
 10
-80.3772
 20
67.035
  0
VERTEX
  8
MACK_GRANITE_265
  6
CONTINUOUS
 62
     7
 10
-80.3822
 20
67.0584
  0
VERTEX
  8
MACK_GRANITE_265
  6
CONTINUOUS
 62
     7
 10
-80.3875
 20
67.081
  0
VERTEX
  8
MACK_GRANITE_265
  6
CONTINUOUS
 62
     7
 10
-80.3929
 20
67.1028
  0
VERTEX
  8
MACK_GRANITE_265
  6
CONTINUOUS
 62
     7
 10
-80.3987
 20
67.124
  0
VERTEX
  8
MACK_GRANITE_265
  6
CONTINUOUS
 62
     7
 10
-80.4046
 20
67.1443
  0
VERTEX
  8
MACK_GRANITE_265
  6
CONTINUOUS
 62
     7
 10
-80.4108
 20
67.164
  0
VERTEX
  8
MACK_GRANITE_265
  6
CONTINUOUS
 62
     7
 10
-80.4172
 20
67.1829
  0
VERTEX
  8
MACK_GRANITE_265
  6
CONTINUOUS
 62
     7
 10
-80.4239
 20
67.201
  0
VERTEX
  8
MACK_GRANITE_265
  6
CONTINUOUS
 62
     7
 10
-80.4308
 20
67.2185
  0
VERTEX
  8
MACK_GRANITE_265
  6
CONTINUOUS
 62
     7
 10
-80.4379
 20
67.2352
  0
VERTEX
  8
MACK_GRANITE_265
  6
CONTINUOUS
 62
     7
 10
-80.4453
 20
67.2512
  0
VERTEX
  8
MACK_GRANITE_265
  6
CONTINUOUS
 62
     7
 10
-80.4529
 20
67.2664
  0
VERTEX
  8
MACK_GRANITE_265
  6
CONTINUOUS
 62
     7
 10
-80.4607
 20
67.2809
  0
VERTEX
  8
MACK_GRANITE_265
  6
CONTINUOUS
 62
     7
 10
-80.4687
 20
67.2947
  0
VERTEX
  8
MACK_GRANITE_265
  6
CONTINUOUS
 62
     7
 10
-80.477
 20
67.3077
  0
VERTEX
  8
MACK_GRANITE_265
  6
CONTINUOUS
 62
     7
 10
-80.4855
 20
67.3199
  0
VERTEX
  8
MACK_GRANITE_265
  6
CONTINUOUS
 62
     7
 10
-80.4942
 20
67.3314
  0
VERTEX
  8
MACK_GRANITE_265
  6
CONTINUOUS
 62
     7
 10
-80.5031
 20
67.3421
  0
VERTEX
  8
MACK_GRANITE_265
  6
CONTINUOUS
 62
     7
 10
-80.5122
 20
67.3519
  0
VERTEX
  8
MACK_GRANITE_265
  6
CONTINUOUS
 62
     7
 10
-80.5215
 20
67.361
  0
VERTEX
  8
MACK_GRANITE_265
  6
CONTINUOUS
 62
     7
 10
-80.5309
 20
67.3693
  0
VERTEX
  8
MACK_GRANITE_265
  6
CONTINUOUS
 62
     7
 10
-80.5405
 20
67.3768
  0
VERTEX
  8
MACK_GRANITE_265
  6
CONTINUOUS
 62
     7
 10
-80.5503
 20
67.3836
  0
VERTEX
  8
MACK_GRANITE_265
  6
CONTINUOUS
 62
     7
 10
-80.5603
 20
67.3896
  0
VERTEX
  8
MACK_GRANITE_265
  6
CONTINUOUS
 62
     7
 10
-80.5704
 20
67.3948
  0
VERTEX
  8
MACK_GRANITE_265
  6
CONTINUOUS
 62
     7
 10
-80.5808
 20
67.3993
  0
VERTEX
  8
MACK_GRANITE_265
  6
CONTINUOUS
 62
     7
 10
-80.5913
 20
67.403
  0
VERTEX
  8
MACK_GRANITE_265
  6
CONTINUOUS
 62
     7
 10
-80.602
 20
67.406
  0
VERTEX
  8
MACK_GRANITE_265
  6
CONTINUOUS
 62
     7
 10
-80.6128
 20
67.4082
  0
VERTEX
  8
MACK_GRANITE_265
  6
CONTINUOUS
 62
     7
 10
-80.6239
 20
67.4096
  0
VERTEX
  8
MACK_GRANITE_265
  6
CONTINUOUS
 62
     7
 10
-80.6351
 20
67.4103
  0
VERTEX
  8
MACK_GRANITE_265
  6
CONTINUOUS
 62
     7
 10
-80.6465
 20
67.4102
  0
VERTEX
  8
MACK_GRANITE_265
  6
CONTINUOUS
 62
     7
 10
-80.6581
 20
67.4093
  0
SEQEND
  8
MACK_GRANITE_265
  6
CONTINUOUS
 62
     7
  0
POLYLINE
  8
MACK_GRANITE_265
  6
CONTINUOUS
 62
     7
 66
     1
  0
VERTEX
  8
MACK_GRANITE_265
  6
CONTINUOUS
 62
     7
 10
-78.1463
 20
69.7091
  0
VERTEX
  8
MACK_GRANITE_265
  6
CONTINUOUS
 62
     7
 10
-78.1346
 20
69.7097
  0
VERTEX
  8
MACK_GRANITE_265
  6
CONTINUOUS
 62
     7
 10
-78.123
 20
69.7087
  0
VERTEX
  8
MACK_GRANITE_265
  6
CONTINUOUS
 62
     7
 10
-78.1115
 20
69.7062
  0
VERTEX
  8
MACK_GRANITE_265
  6
CONTINUOUS
 62
     7
 10
-78.1001
 20
69.7021
  0
VERTEX
  8
MACK_GRANITE_265
  6
CONTINUOUS
 62
     7
 10
-78.0888
 20
69.6966
  0
VERTEX
  8
MACK_GRANITE_265
  6
CONTINUOUS
 62
     7
 10
-78.0777
 20
69.6895
  0
VERTEX
  8
MACK_GRANITE_265
  6
CONTINUOUS
 62
     7
 10
-78.0667
 20
69.6809
  0
VERTEX
  8
MACK_GRANITE_265
  6
CONTINUOUS
 62
     7
 10
-78.0557
 20
69.6708
  0
VERTEX
  8
MACK_GRANITE_265
  6
CONTINUOUS
 62
     7
 10
-78.0449
 20
69.6592
  0
VERTEX
  8
MACK_GRANITE_265
  6
CONTINUOUS
 62
     7
 10
-78.0343
 20
69.646
  0
VERTEX
  8
MACK_GRANITE_265
  6
CONTINUOUS
 62
     7
 10
-78.0237
 20
69.6314
  0
VERTEX
  8
MACK_GRANITE_265
  6
CONTINUOUS
 62
     7
 10
-78.0132
 20
69.6153
  0
VERTEX
  8
MACK_GRANITE_265
  6
CONTINUOUS
 62
     7
 10
-78.0029
 20
69.5977
  0
VERTEX
  8
MACK_GRANITE_265
  6
CONTINUOUS
 62
     7
 10
-77.9927
 20
69.5786
  0
VERTEX
  8
MACK_GRANITE_265
  6
CONTINUOUS
 62
     7
 10
-77.9826
 20
69.5579
  0
VERTEX
  8
MACK_GRANITE_265
  6
CONTINUOUS
 62
     7
 10
-77.9726
 20
69.5358
  0
VERTEX
  8
MACK_GRANITE_265
  6
CONTINUOUS
 62
     7
 10
-77.9627
 20
69.5121
  0
VERTEX
  8
MACK_GRANITE_265
  6
CONTINUOUS
 62
     7
 10
-77.953
 20
69.4869
  0
VERTEX
  8
MACK_GRANITE_265
  6
CONTINUOUS
 62
     7
 10
-77.9434
 20
69.4601
  0
VERTEX
  8
MACK_GRANITE_265
  6
CONTINUOUS
 62
     7
 10
-77.9339
 20
69.4318
  0
VERTEX
  8
MACK_GRANITE_265
  6
CONTINUOUS
 62
     7
 10
-77.9245
 20
69.402
  0
VERTEX
  8
MACK_GRANITE_265
  6
CONTINUOUS
 62
     7
 10
-77.9153
 20
69.3707
  0
VERTEX
  8
MACK_GRANITE_265
  6
CONTINUOUS
 62
     7
 10
-77.9062
 20
69.3379
  0
VERTEX
  8
MACK_GRANITE_265
  6
CONTINUOUS
 62
     7
 10
-77.8974
 20
69.3037
  0
VERTEX
  8
MACK_GRANITE_265
  6
CONTINUOUS
 62
     7
 10
-77.8886
 20
69.2682
  0
VERTEX
  8
MACK_GRANITE_265
  6
CONTINUOUS
 62
     7
 10
-77.8801
 20
69.2313
  0
VERTEX
  8
MACK_GRANITE_265
  6
CONTINUOUS
 62
     7
 10
-77.8718
 20
69.1931
  0
VERTEX
  8
MACK_GRANITE_265
  6
CONTINUOUS
 62
     7
 10
-77.8636
 20
69.1535
  0
VERTEX
  8
MACK_GRANITE_265
  6
CONTINUOUS
 62
     7
 10
-77.8556
 20
69.1125
  0
VERTEX
  8
MACK_GRANITE_265
  6
CONTINUOUS
 62
     7
 10
-77.8477
 20
69.0702
  0
VERTEX
  8
MACK_GRANITE_265
  6
CONTINUOUS
 62
     7
 10
-77.8401
 20
69.0265
  0
VERTEX
  8
MACK_GRANITE_265
  6
CONTINUOUS
 62
     7
 10
-77.8326
 20
68.9815
  0
VERTEX
  8
MACK_GRANITE_265
  6
CONTINUOUS
 62
     7
 10
-77.8253
 20
68.9351
  0
VERTEX
  8
MACK_GRANITE_265
  6
CONTINUOUS
 62
     7
 10
-77.8181
 20
68.8873
  0
VERTEX
  8
MACK_GRANITE_265
  6
CONTINUOUS
 62
     7
 10
-77.8112
 20
68.8382
  0
VERTEX
  8
MACK_GRANITE_265
  6
CONTINUOUS
 62
     7
 10
-77.8044
 20
68.7877
  0
VERTEX
  8
MACK_GRANITE_265
  6
CONTINUOUS
 62
     7
 10
-77.7978
 20
68.7358
  0
VERTEX
  8
MACK_GRANITE_265
  6
CONTINUOUS
 62
     7
 10
-77.7913
 20
68.6826
  0
VERTEX
  8
MACK_GRANITE_265
  6
CONTINUOUS
 62
     7
 10
-77.785
 20
68.6279
  0
VERTEX
  8
MACK_GRANITE_265
  6
CONTINUOUS
 62
     7
 10
-77.779
 20
68.5718
  0
VERTEX
  8
MACK_GRANITE_265
  6
CONTINUOUS
 62
     7
 10
-77.773
 20
68.5144
  0
VERTEX
  8
MACK_GRANITE_265
  6
CONTINUOUS
 62
     7
 10
-77.7673
 20
68.4557
  0
VERTEX
  8
MACK_GRANITE_265
  6
CONTINUOUS
 62
     7
 10
-77.7618
 20
68.3959
  0
VERTEX
  8
MACK_GRANITE_265
  6
CONTINUOUS
 62
     7
 10
-77.7565
 20
68.3348
  0
VERTEX
  8
MACK_GRANITE_265
  6
CONTINUOUS
 62
     7
 10
-77.7514
 20
68.2727
  0
VERTEX
  8
MACK_GRANITE_265
  6
CONTINUOUS
 62
     7
 10
-77.7466
 20
68.2095
  0
VERTEX
  8
MACK_GRANITE_265
  6
CONTINUOUS
 62
     7
 10
-77.7419
 20
68.1453
  0
VERTEX
  8
MACK_GRANITE_265
  6
CONTINUOUS
 62
     7
 10
-77.7374
 20
68.08
  0
VERTEX
  8
MACK_GRANITE_265
  6
CONTINUOUS
 62
     7
 10
-77.7332
 20
68.0136
  0
VERTEX
  8
MACK_GRANITE_265
  6
CONTINUOUS
 62
     7
 10
-77.7291
 20
67.9463
  0
VERTEX
  8
MACK_GRANITE_265
  6
CONTINUOUS
 62
     7
 10
-77.7253
 20
67.8779
  0
VERTEX
  8
MACK_GRANITE_265
  6
CONTINUOUS
 62
     7
 10
-77.7217
 20
67.8085
  0
VERTEX
  8
MACK_GRANITE_265
  6
CONTINUOUS
 62
     7
 10
-77.7183
 20
67.738
  0
VERTEX
  8
MACK_GRANITE_265
  6
CONTINUOUS
 62
     7
 10
-77.7151
 20
67.6665
  0
VERTEX
  8
MACK_GRANITE_265
  6
CONTINUOUS
 62
     7
 10
-77.7121
 20
67.594
  0
VERTEX
  8
MACK_GRANITE_265
  6
CONTINUOUS
 62
     7
 10
-77.7093
 20
67.5204
  0
VERTEX
  8
MACK_GRANITE_265
  6
CONTINUOUS
 62
     7
 10
-77.7067
 20
67.4457
  0
VERTEX
  8
MACK_GRANITE_265
  6
CONTINUOUS
 62
     7
 10
-77.7044
 20
67.3701
  0
VERTEX
  8
MACK_GRANITE_265
  6
CONTINUOUS
 62
     7
 10
-77.7022
 20
67.2934
  0
VERTEX
  8
MACK_GRANITE_265
  6
CONTINUOUS
 62
     7
 10
-77.7003
 20
67.2156
  0
VERTEX
  8
MACK_GRANITE_265
  6
CONTINUOUS
 62
     7
 10
-77.6986
 20
67.1368
  0
VERTEX
  8
MACK_GRANITE_265
  6
CONTINUOUS
 62
     7
 10
-77.6971
 20
67.0569
  0
VERTEX
  8
MACK_GRANITE_265
  6
CONTINUOUS
 62
     7
 10
-77.6958
 20
66.9761
  0
VERTEX
  8
MACK_GRANITE_265
  6
CONTINUOUS
 62
     7
 10
-77.6947
 20
66.8946
  0
VERTEX
  8
MACK_GRANITE_265
  6
CONTINUOUS
 62
     7
 10
-77.6939
 20
66.8123
  0
VERTEX
  8
MACK_GRANITE_265
  6
CONTINUOUS
 62
     7
 10
-77.6933
 20
66.7294
  0
VERTEX
  8
MACK_GRANITE_265
  6
CONTINUOUS
 62
     7
 10
-77.6929
 20
66.6459
  0
VERTEX
  8
MACK_GRANITE_265
  6
CONTINUOUS
 62
     7
 10
-77.6927
 20
66.5618
  0
VERTEX
  8
MACK_GRANITE_265
  6
CONTINUOUS
 62
     7
 10
-77.6928
 20
66.4772
  0
VERTEX
  8
MACK_GRANITE_265
  6
CONTINUOUS
 62
     7
 10
-77.693
 20
66.3919
  0
VERTEX
  8
MACK_GRANITE_265
  6
CONTINUOUS
 62
     7
 10
-77.6935
 20
66.306
  0
VERTEX
  8
MACK_GRANITE_265
  6
CONTINUOUS
 62
     7
 10
-77.6942
 20
66.2196
  0
VERTEX
  8
MACK_GRANITE_265
  6
CONTINUOUS
 62
     7
 10
-77.6951
 20
66.1325
  0
VERTEX
  8
MACK_GRANITE_265
  6
CONTINUOUS
 62
     7
 10
-77.6962
 20
66.0449
  0
VERTEX
  8
MACK_GRANITE_265
  6
CONTINUOUS
 62
     7
 10
-77.6976
 20
65.9567
  0
VERTEX
  8
MACK_GRANITE_265
  6
CONTINUOUS
 62
     7
 10
-77.6992
 20
65.8678
  0
VERTEX
  8
MACK_GRANITE_265
  6
CONTINUOUS
 62
     7
 10
-77.7009
 20
65.7784
  0
VERTEX
  8
MACK_GRANITE_265
  6
CONTINUOUS
 62
     7
 10
-77.7029
 20
65.6884
  0
VERTEX
  8
MACK_GRANITE_265
  6
CONTINUOUS
 62
     7
 10
-77.7052
 20
65.5977
  0
VERTEX
  8
MACK_GRANITE_265
  6
CONTINUOUS
 62
     7
 10
-77.7076
 20
65.5065
  0
VERTEX
  8
MACK_GRANITE_265
  6
CONTINUOUS
 62
     7
 10
-77.7103
 20
65.4147
  0
VERTEX
  8
MACK_GRANITE_265
  6
CONTINUOUS
 62
     7
 10
-77.7131
 20
65.3222
  0
VERTEX
  8
MACK_GRANITE_265
  6
CONTINUOUS
 62
     7
 10
-77.7162
 20
65.2292
  0
VERTEX
  8
MACK_GRANITE_265
  6
CONTINUOUS
 62
     7
 10
-77.7196
 20
65.1358
  0
VERTEX
  8
MACK_GRANITE_265
  6
CONTINUOUS
 62
     7
 10
-77.7231
 20
65.042
  0
VERTEX
  8
MACK_GRANITE_265
  6
CONTINUOUS
 62
     7
 10
-77.7268
 20
64.948
  0
VERTEX
  8
MACK_GRANITE_265
  6
CONTINUOUS
 62
     7
 10
-77.7308
 20
64.8539
  0
VERTEX
  8
MACK_GRANITE_265
  6
CONTINUOUS
 62
     7
 10
-77.7349
 20
64.7596
  0
VERTEX
  8
MACK_GRANITE_265
  6
CONTINUOUS
 62
     7
 10
-77.7393
 20
64.6652
  0
VERTEX
  8
MACK_GRANITE_265
  6
CONTINUOUS
 62
     7
 10
-77.7438
 20
64.5705
  0
VERTEX
  8
MACK_GRANITE_265
  6
CONTINUOUS
 62
     7
 10
-77.7486
 20
64.4757
  0
VERTEX
  8
MACK_GRANITE_265
  6
CONTINUOUS
 62
     7
 10
-77.7535
 20
64.3808
  0
VERTEX
  8
MACK_GRANITE_265
  6
CONTINUOUS
 62
     7
 10
-77.7587
 20
64.2856
  0
VERTEX
  8
MACK_GRANITE_265
  6
CONTINUOUS
 62
     7
 10
-77.764
 20
64.1903
  0
VERTEX
  8
MACK_GRANITE_265
  6
CONTINUOUS
 62
     7
 10
-77.7696
 20
64.0949
  0
VERTEX
  8
MACK_GRANITE_265
  6
CONTINUOUS
 62
     7
 10
-77.7754
 20
63.9992
  0
VERTEX
  8
MACK_GRANITE_265
  6
CONTINUOUS
 62
     7
 10
-77.7813
 20
63.9034
  0
VERTEX
  8
MACK_GRANITE_265
  6
CONTINUOUS
 62
     7
 10
-77.7875
 20
63.8074
  0
VERTEX
  8
MACK_GRANITE_265
  6
CONTINUOUS
 62
     7
 10
-77.7939
 20
63.7112
  0
SEQEND
  8
MACK_GRANITE_265
  6
CONTINUOUS
 62
     7
  0
POLYLINE
  8
MACK_GRANITE_265
  6
CONTINUOUS
 62
     7
 66
     1
  0
VERTEX
  8
MACK_GRANITE_265
  6
CONTINUOUS
 62
     7
 10
-80.658
 20
67.4094
  0
VERTEX
  8
MACK_GRANITE_265
  6
CONTINUOUS
 62
     7
 10
-82.6823
 20
67.1904
  0
VERTEX
  8
MACK_GRANITE_265
  6
CONTINUOUS
 62
     7
 10
-84.7045
 20
66.9536
  0
SEQEND
  8
MACK_GRANITE_265
  6
CONTINUOUS
 62
     7
  0
POLYLINE
  8
MACK_GRANITE_265
  6
CONTINUOUS
 62
     7
 66
     1
  0
VERTEX
  8
MACK_GRANITE_265
  6
CONTINUOUS
 62
     7
 10
-91.6811
 20
38.0277
  0
VERTEX
  8
MACK_GRANITE_265
  6
CONTINUOUS
 62
     7
 10
-93.248
 20
37.829
  0
VERTEX
  8
MACK_GRANITE_265
  6
CONTINUOUS
 62
     7
 10
-94.813
 20
37.6179
  0
VERTEX
  8
MACK_GRANITE_265
  6
CONTINUOUS
 62
     7
 10
-96.3759
 20
37.3944
  0
VERTEX
  8
MACK_GRANITE_265
  6
CONTINUOUS
 62
     7
 10
-97.9366
 20
37.1586
  0
VERTEX
  8
MACK_GRANITE_265
  6
CONTINUOUS
 62
     7
 10
-99.4952
 20
36.9104
  0
VERTEX
  8
MACK_GRANITE_265
  6
CONTINUOUS
 62
     7
 10
-101.0514
 20
36.6499
  0
VERTEX
  8
MACK_GRANITE_265
  6
CONTINUOUS
 62
     7
 10
-102.6053
 20
36.3771
  0
VERTEX
  8
MACK_GRANITE_265
  6
CONTINUOUS
 62
     7
 10
-104.1568
 20
36.092
  0
VERTEX
  8
MACK_GRANITE_265
  6
CONTINUOUS
 62
     7
 10
-105.7058
 20
35.7946
  0
VERTEX
  8
MACK_GRANITE_265
  6
CONTINUOUS
 62
     7
 10
-107.2522
 20
35.485
  0
VERTEX
  8
MACK_GRANITE_265
  6
CONTINUOUS
 62
     7
 10
-108.796
 20
35.1631
  0
VERTEX
  8
MACK_GRANITE_265
  6
CONTINUOUS
 62
     7
 10
-110.3371
 20
34.8291
  0
VERTEX
  8
MACK_GRANITE_265
  6
CONTINUOUS
 62
     7
 10
-111.8753
 20
34.4828
  0
VERTEX
  8
MACK_GRANITE_265
  6
CONTINUOUS
 62
     7
 10
-113.4107
 20
34.1244
  0
VERTEX
  8
MACK_GRANITE_265
  6
CONTINUOUS
 62
     7
 10
-114.9432
 20
33.7538
  0
VERTEX
  8
MACK_GRANITE_265
  6
CONTINUOUS
 62
     7
 10
-116.4726
 20
33.3711
  0
VERTEX
  8
MACK_GRANITE_265
  6
CONTINUOUS
 62
     7
 10
-117.999
 20
32.9762
  0
VERTEX
  8
MACK_GRANITE_265
  6
CONTINUOUS
 62
     7
 10
-119.5222
 20
32.5693
  0
VERTEX
  8
MACK_GRANITE_265
  6
CONTINUOUS
 62
     7
 10
-121.0422
 20
32.1502
  0
VERTEX
  8
MACK_GRANITE_265
  6
CONTINUOUS
 62
     7
 10
-122.5589
 20
31.7191
  0
VERTEX
  8
MACK_GRANITE_265
  6
CONTINUOUS
 62
     7
 10
-124.0722
 20
31.276
  0
VERTEX
  8
MACK_GRANITE_265
  6
CONTINUOUS
 62
     7
 10
-125.582
 20
30.8208
  0
VERTEX
  8
MACK_GRANITE_265
  6
CONTINUOUS
 62
     7
 10
-127.0883
 20
30.3537
  0
VERTEX
  8
MACK_GRANITE_265
  6
CONTINUOUS
 62
     7
 10
-128.5911
 20
29.8745
  0
VERTEX
  8
MACK_GRANITE_265
  6
CONTINUOUS
 62
     7
 10
-130.0901
 20
29.3834
  0
VERTEX
  8
MACK_GRANITE_265
  6
CONTINUOUS
 62
     7
 10
-131.5854
 20
28.8803
  0
VERTEX
  8
MACK_GRANITE_265
  6
CONTINUOUS
 62
     7
 10
-133.077
 20
28.3653
  0
VERTEX
  8
MACK_GRANITE_265
  6
CONTINUOUS
 62
     7
 10
-134.5646
 20
27.8384
  0
VERTEX
  8
MACK_GRANITE_265
  6
CONTINUOUS
 62
     7
 10
-136.0482
 20
27.2996
  0
VERTEX
  8
MACK_GRANITE_265
  6
CONTINUOUS
 62
     7
 10
-137.5278
 20
26.7489
  0
VERTEX
  8
MACK_GRANITE_265
  6
CONTINUOUS
 62
     7
 10
-139.0034
 20
26.1863
  0
VERTEX
  8
MACK_GRANITE_265
  6
CONTINUOUS
 62
     7
 10
-140.4747
 20
25.6119
  0
SEQEND
  8
MACK_GRANITE_265
  6
CONTINUOUS
 62
     7
  0
POLYLINE
  8
MACK_GRANITE_265
  6
CONTINUOUS
 62
     7
 66
     1
  0
VERTEX
  8
MACK_GRANITE_265
  6
CONTINUOUS
 62
     7
 10
-140.4747
 20
25.6119
  0
VERTEX
  8
MACK_GRANITE_265
  6
CONTINUOUS
 62
     7
 10
-140.5083
 20
25.5983
  0
VERTEX
  8
MACK_GRANITE_265
  6
CONTINUOUS
 62
     7
 10
-140.5416
 20
25.584
  0
VERTEX
  8
MACK_GRANITE_265
  6
CONTINUOUS
 62
     7
 10
-140.5746
 20
25.5691
  0
VERTEX
  8
MACK_GRANITE_265
  6
CONTINUOUS
 62
     7
 10
-140.6073
 20
25.5535
  0
VERTEX
  8
MACK_GRANITE_265
  6
CONTINUOUS
 62
     7
 10
-140.6397
 20
25.5373
  0
VERTEX
  8
MACK_GRANITE_265
  6
CONTINUOUS
 62
     7
 10
-140.6718
 20
25.5204
  0
VERTEX
  8
MACK_GRANITE_265
  6
CONTINUOUS
 62
     7
 10
-140.7036
 20
25.5029
  0
VERTEX
  8
MACK_GRANITE_265
  6
CONTINUOUS
 62
     7
 10
-140.7351
 20
25.4847
  0
VERTEX
  8
MACK_GRANITE_265
  6
CONTINUOUS
 62
     7
 10
-140.7664
 20
25.4659
  0
VERTEX
  8
MACK_GRANITE_265
  6
CONTINUOUS
 62
     7
 10
-140.7973
 20
25.4464
  0
VERTEX
  8
MACK_GRANITE_265
  6
CONTINUOUS
 62
     7
 10
-140.8279
 20
25.4263
  0
VERTEX
  8
MACK_GRANITE_265
  6
CONTINUOUS
 62
     7
 10
-140.8583
 20
25.4055
  0
VERTEX
  8
MACK_GRANITE_265
  6
CONTINUOUS
 62
     7
 10
-140.8883
 20
25.3841
  0
VERTEX
  8
MACK_GRANITE_265
  6
CONTINUOUS
 62
     7
 10
-140.918
 20
25.3621
  0
VERTEX
  8
MACK_GRANITE_265
  6
CONTINUOUS
 62
     7
 10
-140.9475
 20
25.3393
  0
VERTEX
  8
MACK_GRANITE_265
  6
CONTINUOUS
 62
     7
 10
-140.9766
 20
25.316
  0
VERTEX
  8
MACK_GRANITE_265
  6
CONTINUOUS
 62
     7
 10
-141.0054
 20
25.292
  0
VERTEX
  8
MACK_GRANITE_265
  6
CONTINUOUS
 62
     7
 10
-141.0339
 20
25.2674
  0
VERTEX
  8
MACK_GRANITE_265
  6
CONTINUOUS
 62
     7
 10
-141.0619
 20
25.2422
  0
VERTEX
  8
MACK_GRANITE_265
  6
CONTINUOUS
 62
     7
 10
-141.0896
 20
25.2164
  0
VERTEX
  8
MACK_GRANITE_265
  6
CONTINUOUS
 62
     7
 10
-141.1169
 20
25.1901
  0
VERTEX
  8
MACK_GRANITE_265
  6
CONTINUOUS
 62
     7
 10
-141.1438
 20
25.1632
  0
VERTEX
  8
MACK_GRANITE_265
  6
CONTINUOUS
 62
     7
 10
-141.1703
 20
25.1357
  0
VERTEX
  8
MACK_GRANITE_265
  6
CONTINUOUS
 62
     7
 10
-141.1964
 20
25.1077
  0
VERTEX
  8
MACK_GRANITE_265
  6
CONTINUOUS
 62
     7
 10
-141.2222
 20
25.0791
  0
VERTEX
  8
MACK_GRANITE_265
  6
CONTINUOUS
 62
     7
 10
-141.2476
 20
25.0499
  0
VERTEX
  8
MACK_GRANITE_265
  6
CONTINUOUS
 62
     7
 10
-141.2726
 20
25.0201
  0
VERTEX
  8
MACK_GRANITE_265
  6
CONTINUOUS
 62
     7
 10
-141.2973
 20
24.9898
  0
VERTEX
  8
MACK_GRANITE_265
  6
CONTINUOUS
 62
     7
 10
-141.3215
 20
24.9589
  0
VERTEX
  8
MACK_GRANITE_265
  6
CONTINUOUS
 62
     7
 10
-141.3454
 20
24.9274
  0
VERTEX
  8
MACK_GRANITE_265
  6
CONTINUOUS
 62
     7
 10
-141.3689
 20
24.8954
  0
VERTEX
  8
MACK_GRANITE_265
  6
CONTINUOUS
 62
     7
 10
-141.3921
 20
24.8628
  0
VERTEX
  8
MACK_GRANITE_265
  6
CONTINUOUS
 62
     7
 10
-141.4148
 20
24.8296
  0
VERTEX
  8
MACK_GRANITE_265
  6
CONTINUOUS
 62
     7
 10
-141.4372
 20
24.7959
  0
VERTEX
  8
MACK_GRANITE_265
  6
CONTINUOUS
 62
     7
 10
-141.4592
 20
24.7616
  0
VERTEX
  8
MACK_GRANITE_265
  6
CONTINUOUS
 62
     7
 10
-141.4808
 20
24.7267
  0
VERTEX
  8
MACK_GRANITE_265
  6
CONTINUOUS
 62
     7
 10
-141.502
 20
24.6912
  0
VERTEX
  8
MACK_GRANITE_265
  6
CONTINUOUS
 62
     7
 10
-141.5229
 20
24.6551
  0
VERTEX
  8
MACK_GRANITE_265
  6
CONTINUOUS
 62
     7
 10
-141.5434
 20
24.6185
  0
VERTEX
  8
MACK_GRANITE_265
  6
CONTINUOUS
 62
     7
 10
-141.5634
 20
24.5813
  0
VERTEX
  8
MACK_GRANITE_265
  6
CONTINUOUS
 62
     7
 10
-141.5831
 20
24.5435
  0
VERTEX
  8
MACK_GRANITE_265
  6
CONTINUOUS
 62
     7
 10
-141.6024
 20
24.5051
  0
VERTEX
  8
MACK_GRANITE_265
  6
CONTINUOUS
 62
     7
 10
-141.6213
 20
24.4662
  0
VERTEX
  8
MACK_GRANITE_265
  6
CONTINUOUS
 62
     7
 10
-141.6398
 20
24.4266
  0
VERTEX
  8
MACK_GRANITE_265
  6
CONTINUOUS
 62
     7
 10
-141.6579
 20
24.3865
  0
VERTEX
  8
MACK_GRANITE_265
  6
CONTINUOUS
 62
     7
 10
-141.6756
 20
24.3459
  0
VERTEX
  8
MACK_GRANITE_265
  6
CONTINUOUS
 62
     7
 10
-141.6927
 20
24.3049
  0
VERTEX
  8
MACK_GRANITE_265
  6
CONTINUOUS
 62
     7
 10
-141.7094
 20
24.2634
  0
VERTEX
  8
MACK_GRANITE_265
  6
CONTINUOUS
 62
     7
 10
-141.7256
 20
24.2215
  0
VERTEX
  8
MACK_GRANITE_265
  6
CONTINUOUS
 62
     7
 10
-141.7414
 20
24.1792
  0
VERTEX
  8
MACK_GRANITE_265
  6
CONTINUOUS
 62
     7
 10
-141.7567
 20
24.1364
  0
VERTEX
  8
MACK_GRANITE_265
  6
CONTINUOUS
 62
     7
 10
-141.7715
 20
24.0932
  0
VERTEX
  8
MACK_GRANITE_265
  6
CONTINUOUS
 62
     7
 10
-141.7859
 20
24.0496
  0
VERTEX
  8
MACK_GRANITE_265
  6
CONTINUOUS
 62
     7
 10
-141.7998
 20
24.0055
  0
VERTEX
  8
MACK_GRANITE_265
  6
CONTINUOUS
 62
     7
 10
-141.8133
 20
23.961
  0
VERTEX
  8
MACK_GRANITE_265
  6
CONTINUOUS
 62
     7
 10
-141.8263
 20
23.9161
  0
VERTEX
  8
MACK_GRANITE_265
  6
CONTINUOUS
 62
     7
 10
-141.8388
 20
23.8707
  0
VERTEX
  8
MACK_GRANITE_265
  6
CONTINUOUS
 62
     7
 10
-141.8509
 20
23.8249
  0
VERTEX
  8
MACK_GRANITE_265
  6
CONTINUOUS
 62
     7
 10
-141.8625
 20
23.7787
  0
VERTEX
  8
MACK_GRANITE_265
  6
CONTINUOUS
 62
     7
 10
-141.8737
 20
23.732
  0
VERTEX
  8
MACK_GRANITE_265
  6
CONTINUOUS
 62
     7
 10
-141.8844
 20
23.6849
  0
VERTEX
  8
MACK_GRANITE_265
  6
CONTINUOUS
 62
     7
 10
-141.8946
 20
23.6373
  0
VERTEX
  8
MACK_GRANITE_265
  6
CONTINUOUS
 62
     7
 10
-141.9044
 20
23.5894
  0
VERTEX
  8
MACK_GRANITE_265
  6
CONTINUOUS
 62
     7
 10
-141.9136
 20
23.5409
  0
VERTEX
  8
MACK_GRANITE_265
  6
CONTINUOUS
 62
     7
 10
-141.9225
 20
23.4921
  0
VERTEX
  8
MACK_GRANITE_265
  6
CONTINUOUS
 62
     7
 10
-141.9308
 20
23.4428
  0
VERTEX
  8
MACK_GRANITE_265
  6
CONTINUOUS
 62
     7
 10
-141.9387
 20
23.393
  0
VERTEX
  8
MACK_GRANITE_265
  6
CONTINUOUS
 62
     7
 10
-141.9461
 20
23.3428
  0
VERTEX
  8
MACK_GRANITE_265
  6
CONTINUOUS
 62
     7
 10
-141.953
 20
23.2922
  0
VERTEX
  8
MACK_GRANITE_265
  6
CONTINUOUS
 62
     7
 10
-141.9595
 20
23.2411
  0
VERTEX
  8
MACK_GRANITE_265
  6
CONTINUOUS
 62
     7
 10
-141.9654
 20
23.1895
  0
VERTEX
  8
MACK_GRANITE_265
  6
CONTINUOUS
 62
     7
 10
-141.9709
 20
23.1375
  0
VERTEX
  8
MACK_GRANITE_265
  6
CONTINUOUS
 62
     7
 10
-141.9758
 20
23.0852
  0
VERTEX
  8
MACK_GRANITE_265
  6
CONTINUOUS
 62
     7
 10
-141.9803
 20
23.0327
  0
VERTEX
  8
MACK_GRANITE_265
  6
CONTINUOUS
 62
     7
 10
-141.9842
 20
22.9799
  0
VERTEX
  8
MACK_GRANITE_265
  6
CONTINUOUS
 62
     7
 10
-141.9877
 20
22.9269
  0
VERTEX
  8
MACK_GRANITE_265
  6
CONTINUOUS
 62
     7
 10
-141.9906
 20
22.8737
  0
VERTEX
  8
MACK_GRANITE_265
  6
CONTINUOUS
 62
     7
 10
-141.993
 20
22.8202
  0
VERTEX
  8
MACK_GRANITE_265
  6
CONTINUOUS
 62
     7
 10
-141.995
 20
22.7665
  0
VERTEX
  8
MACK_GRANITE_265
  6
CONTINUOUS
 62
     7
 10
-141.9964
 20
22.7125
  0
VERTEX
  8
MACK_GRANITE_265
  6
CONTINUOUS
 62
     7
 10
-141.9973
 20
22.6583
  0
VERTEX
  8
MACK_GRANITE_265
  6
CONTINUOUS
 62
     7
 10
-141.9977
 20
22.6039
  0
VERTEX
  8
MACK_GRANITE_265
  6
CONTINUOUS
 62
     7
 10
-141.9976
 20
22.5492
  0
VERTEX
  8
MACK_GRANITE_265
  6
CONTINUOUS
 62
     7
 10
-141.9971
 20
22.4943
  0
VERTEX
  8
MACK_GRANITE_265
  6
CONTINUOUS
 62
     7
 10
-141.996
 20
22.4391
  0
VERTEX
  8
MACK_GRANITE_265
  6
CONTINUOUS
 62
     7
 10
-141.9944
 20
22.3837
  0
VERTEX
  8
MACK_GRANITE_265
  6
CONTINUOUS
 62
     7
 10
-141.9923
 20
22.3281
  0
VERTEX
  8
MACK_GRANITE_265
  6
CONTINUOUS
 62
     7
 10
-141.9897
 20
22.2722
  0
VERTEX
  8
MACK_GRANITE_265
  6
CONTINUOUS
 62
     7
 10
-141.9866
 20
22.2161
  0
VERTEX
  8
MACK_GRANITE_265
  6
CONTINUOUS
 62
     7
 10
-141.9831
 20
22.1598
  0
VERTEX
  8
MACK_GRANITE_265
  6
CONTINUOUS
 62
     7
 10
-141.979
 20
22.1032
  0
VERTEX
  8
MACK_GRANITE_265
  6
CONTINUOUS
 62
     7
 10
-141.9744
 20
22.0464
  0
VERTEX
  8
MACK_GRANITE_265
  6
CONTINUOUS
 62
     7
 10
-141.9692
 20
21.9893
  0
VERTEX
  8
MACK_GRANITE_265
  6
CONTINUOUS
 62
     7
 10
-141.9636
 20
21.932
  0
VERTEX
  8
MACK_GRANITE_265
  6
CONTINUOUS
 62
     7
 10
-141.9575
 20
21.8744
  0
VERTEX
  8
MACK_GRANITE_265
  6
CONTINUOUS
 62
     7
 10
-141.9508
 20
21.8166
  0
VERTEX
  8
MACK_GRANITE_265
  6
CONTINUOUS
 62
     7
 10
-141.9436
 20
21.7586
  0
VERTEX
  8
MACK_GRANITE_265
  6
CONTINUOUS
 62
     7
 10
-141.9359
 20
21.7003
  0
VERTEX
  8
MACK_GRANITE_265
  6
CONTINUOUS
 62
     7
 10
-141.9277
 20
21.6417
  0
SEQEND
  8
MACK_GRANITE_265
  6
CONTINUOUS
 62
     7
  0
INSERT
  8
MACK_GRANITE_265
  2
GROUP2
 10
0.0
 20
0.0
  0
ENDBLK
  8
MACK_GRANITE_265
  0
ENDSEC
  0
SECTION
  2
ENTITIES
  0
INSERT
  8
MACK_GRANITE_265
  2
GROUP3
 10
0.0
 20
0.0
  0
POLYLINE
  8
DV1_DEFAULT
  6
CONTINUOUS
 62
     7
 66
     1
  0
VERTEX
  8
DV1_DEFAULT
  6
CONTINUOUS
 62
     7
 10
-133.6166
 20
1.0326
  0
VERTEX
  8
DV1_DEFAULT
  6
CONTINUOUS
 62
     7
 10
-9.1302
 20
1.0326
  0
SEQEND
  8
DV1_DEFAULT
  6
CONTINUOUS
 62
     7
  0
ENDSEC
  0
EOF
