  0
SECTION
  2
HEADER
  9
$ACADVER
  1
AC1006
  9
$AXISMODE
 70
     0
  9
$AXISUNIT
 10
0.125
 20
0.125
  9
$CECOLOR
 62
0
  9
$CELTYPE
  6
CONTINUOUS
  9
$CLAYER
  8
MACK_GRANITE_265
  9
$EXTMIN
 10
0
 20
0
  9
$EXTMAX
 10
119.9583
 20
59.9583
  9
$LIMMIN
 10
0
 20
0
  9
$LIMMAX
 10
119.9583
 20
59.9583
  9
$GRIDMODE
 70
     0
  9
$GRIDUNIT
 10
0.125
 20
0.125
  9
$MIRRTEXT
 70
     1
  9
$SNAPMODE
 70
     1
  9
$SNAPUNIT
 10
0.125
 20
0
  9
$SNAPSTYLE
 70
     0
  9
$SPLINESEGS
 70
     8
  9
$SPLINETYPE
 70
     6
  0
ENDSEC
  0
SECTION
  2
TABLES
  0
TABLE
  2
LTYPE
 70
     1
  0
LTYPE
  2
CONTINUOUS
 70
    64
  3
Descriptive Text
 72
    65
 73
     0
 40
0
  0
ENDTAB
  0
TABLE
  2
LAYER
 70
     2
  0
LAYER
  2
DV1_DEFAULT
 70
     0
 62
     7
  6
CONTINUOUS
  0
ENDTAB
  0
TABLE
  2
STYLE
 70
     1
  0
STYLE
  2
STANDARD
 70
    64
 40
0.0
 41
1.0
 50
0.0
 71
     0
 42
0.2
  3
txt
  4

  0
STYLE
  2
ARIAL
 70
    64
 40
0.0
 41
1.0
 50
0.0
 71
     0
 42
0.2
  3
arial
  4

  0
ENDTAB
  0
TABLE
  2
VIEW
 70
     0
  0
ENDTAB
  0
TABLE
  2
USC
 70
     0
  0
ENDTAB
  0
TABLE
  2
DWGMGR
 70
     0
  0
ENDTAB
  0
ENDSEC
  0
SECTION
  2
BLOCKS
  0
BLOCK
  8
DV1_DEFAULT
  2
Group1
 70
     0
 10
0
 20
0
 30
0
  0
POLYLINE
  8
DV1_DEFAULT
  6
CONTINUOUS
 62
     7
 66
     1
 40
0
 41
0
  0
VERTEX
  8
DV1_DEFAULT
 10
12.1254
 20
35.4937
 30
0
 70
     0
  0
VERTEX
  8
DV1_DEFAULT
 10
21.1254
 20
47.4937
 30
0
 70
     0
  0
SEQEND
  0
POLYLINE
  8
DV1_DEFAULT
  6
CONTINUOUS
 62
     7
 66
     1
 40
0
 41
0
  0
VERTEX
  8
DV1_DEFAULT
 10
21.1254
 20
47.4937
 30
0
 70
     0
  0
VERTEX
  8
DV1_DEFAULT
 10
51.1254
 20
47.4937
 30
0
 70
     0
  0
SEQEND
  0
POLYLINE
  8
DV1_DEFAULT
  6
CONTINUOUS
 62
     7
 66
     1
 40
0
 41
0
  0
VERTEX
  8
DV1_DEFAULT
 10
51.1254
 20
47.4937
 30
0
 70
     0
  0
VERTEX
  8
DV1_DEFAULT
 10
54.3504
 20
43.1937
 30
0
 70
     0
  0
SEQEND
  0
POLYLINE
  8
DV1_DEFAULT
  6
CONTINUOUS
 62
     7
 66
     1
 40
0
 41
0
  0
VERTEX
  8
DV1_DEFAULT
 10
54.3504
 20
43.1937
 30
0
 70
     0
  0
VERTEX
  8
DV1_DEFAULT
 10
57.2488
 20
43.1937
 30
0
 70
     0
  0
SEQEND
  0
POLYLINE
  8
DV1_DEFAULT
  6
CONTINUOUS
 62
     7
 66
     1
 40
0
 41
0
  0
VERTEX
  8
DV1_DEFAULT
 10
10.1254
 20
46.8979
 30
0
 70
     0
  0
VERTEX
  8
DV1_DEFAULT
 10
7.1254
 20
46.8979
 30
0
 70
     0
  0
SEQEND
  0
POLYLINE
  8
DV1_DEFAULT
  6
CONTINUOUS
 62
     7
 66
     1
 40
0
 41
0
  0
VERTEX
  8
DV1_DEFAULT
 10
10.1254
 20
35.4937
 30
0
 70
     0
  0
VERTEX
  8
DV1_DEFAULT
 10
12.1254
 20
35.4937
 30
0
 70
     0
  0
SEQEND
  0
POLYLINE
  8
DV1_DEFAULT
  6
CONTINUOUS
 62
     7
 66
     1
 40
0
 41
0
  0
VERTEX
  8
DV1_DEFAULT
 10
48.5155
 20
54.9779
 30
0
 70
     0
  0
VERTEX
  8
DV1_DEFAULT
 10
48.4128
 20
57.9761
 30
0
 70
     0
  0
SEQEND
  0
POLYLINE
  8
DV1_DEFAULT
  6
CONTINUOUS
 62
     7
 66
     1
 40
0
 41
0
  0
VERTEX
  8
DV1_DEFAULT
 10
16.8856
 20
53.8938
 30
0
 70
     0
  0
VERTEX
  8
DV1_DEFAULT
 10
16.7828
 20
56.892
 30
0
 70
     0
  0
SEQEND
  0
POLYLINE
  8
DV1_DEFAULT
  6
CONTINUOUS
 62
     7
 66
     1
 40
0
 41
0
  0
VERTEX
  8
DV1_DEFAULT
 10
55.5261
 20
49.7587
 30
0
 70
     0
  0
VERTEX
  8
DV1_DEFAULT
 10
58.4278
 20
50.5201
 30
0
 70
     0
  0
SEQEND
  0
POLYLINE
  8
DV1_DEFAULT
  6
CONTINUOUS
 62
     7
 66
     1
 40
0
 41
0
  0
VERTEX
  8
DV1_DEFAULT
 10
63.5429
 20
72.7617
 30
0
 70
     0
  0
VERTEX
  8
DV1_DEFAULT
 10
57.7952
 20
74.1191
 30
0
 70
     0
  0
SEQEND
  0
POLYLINE
  8
DV1_DEFAULT
  6
CONTINUOUS
 62
     7
 66
     1
 40
0
 41
0
  0
VERTEX
  8
DV1_DEFAULT
 10
59.1254
 20
79.1937
 30
0
 70
     0
  0
VERTEX
  8
DV1_DEFAULT
 10
62.6948
 20
78.3375
 30
0
 70
     0
  0
SEQEND
  0
POLYLINE
  8
DV1_DEFAULT
  6
CONTINUOUS
 62
     7
 66
     1
 40
0
 41
0
  0
VERTEX
  8
DV1_DEFAULT
 10
1.1254
 20
31.4937
 30
0
 70
     0
  0
VERTEX
  8
DV1_DEFAULT
 10
1.1254
 20
20.9937
 30
0
 70
     0
  0
SEQEND
  0
POLYLINE
  8
DV1_DEFAULT
  6
CONTINUOUS
 62
     7
 66
     1
 40
0
 41
0
  0
VERTEX
  8
DV1_DEFAULT
 10
101.875
 20
55.3437
 30
0
 70
     0
  0
VERTEX
  8
DV1_DEFAULT
 10
101.125
 20
55.3437
 30
0
 70
     0
  0
SEQEND
  0
POLYLINE
  8
DV1_DEFAULT
  6
CONTINUOUS
 62
     7
 66
     1
 40
0
 41
0
  0
VERTEX
  8
DV1_DEFAULT
 10
101.125
 20
59.3437
 30
0
 70
     0
  0
VERTEX
  8
DV1_DEFAULT
 10
101.875
 20
59.3437
 30
0
 70
     0
  0
SEQEND
  0
POLYLINE
  8
DV1_DEFAULT
  6
CONTINUOUS
 62
     7
 66
     1
 40
0
 41
0
  0
VERTEX
  8
DV1_DEFAULT
 10
96.125
 20
18.1937
 30
0
 70
     0
  0
VERTEX
  8
DV1_DEFAULT
 10
126.125
 20
18.1937
 30
0
 70
     0
  0
SEQEND
  0
POLYLINE
  8
DV1_DEFAULT
  6
CONTINUOUS
 62
     7
 66
     1
 40
0
 41
0
  0
VERTEX
  8
DV1_DEFAULT
 10
114.625
 20
106.1937
 30
0
 70
     0
  0
VERTEX
  8
DV1_DEFAULT
 10
114.625
 20
58.1937
 30
0
 70
     0
  0
SEQEND
  0
POLYLINE
  8
DV1_DEFAULT
  6
CONTINUOUS
 62
     7
 66
     1
 40
0
 41
0
  0
VERTEX
  8
DV1_DEFAULT
 10
118.125
 20
138.1937
 30
0
 70
     0
  0
VERTEX
  8
DV1_DEFAULT
 10
118.125
 20
106.1937
 30
0
 70
     0
  0
SEQEND
  0
POLYLINE
  8
DV1_DEFAULT
  6
CONTINUOUS
 62
     7
 66
     1
 40
0
 41
0
  0
VERTEX
  8
DV1_DEFAULT
 10
126.125
 20
42.1937
 30
0
 70
     0
  0
VERTEX
  8
DV1_DEFAULT
 10
96.125
 20
42.1937
 30
0
 70
     0
  0
SEQEND
  0
POLYLINE
  8
DV1_DEFAULT
  6
CONTINUOUS
 62
     7
 66
     1
 40
0
 41
0
  0
VERTEX
  8
DV1_DEFAULT
 10
124.125
 20
50.1937
 30
0
 70
     0
  0
VERTEX
  8
DV1_DEFAULT
 10
124.125
 20
58.1937
 30
0
 70
     0
  0
SEQEND
  0
POLYLINE
  8
DV1_DEFAULT
  6
CONTINUOUS
 62
     7
 66
     1
 40
0
 41
0
  0
VERTEX
  8
DV1_DEFAULT
 10
127.625
 20
58.1937
 30
0
 70
     0
  0
VERTEX
  8
DV1_DEFAULT
 10
127.625
 20
106.1937
 30
0
 70
     0
  0
SEQEND
  0
POLYLINE
  8
DV1_DEFAULT
  6
CONTINUOUS
 62
     7
 66
     1
 40
0
 41
0
  0
VERTEX
  8
DV1_DEFAULT
 10
124.125
 20
106.1937
 30
0
 70
     0
  0
VERTEX
  8
DV1_DEFAULT
 10
124.125
 20
138.1937
 30
0
 70
     0
  0
SEQEND
  0
POLYLINE
  8
DV1_DEFAULT
  6
CONTINUOUS
 62
     7
 66
     1
 40
0
 41
0
  0
VERTEX
  8
DV1_DEFAULT
 10
126.125
 20
18.1937
 30
0
 70
     0
  0
VERTEX
  8
DV1_DEFAULT
 10
126.1254
 20
18.1937
 30
0
 70
     0
  0
SEQEND
  0
POLYLINE
  8
DV1_DEFAULT
  6
CONTINUOUS
 62
     7
 66
     1
 40
0
 41
0
  0
VERTEX
  8
DV1_DEFAULT
 10
66.0669
 20
108.1332
 30
0
 70
     0
  0
VERTEX
  8
DV1_DEFAULT
 10
59.1254
 20
79.1937
 30
0
 70
     0
  0
SEQEND
  0
POLYLINE
  8
DV1_DEFAULT
  6
CONTINUOUS
 62
     7
 66
     1
 40
0
 41
0
  0
VERTEX
  8
DV1_DEFAULT
 10
96.125
 20
42.1937
 30
0
 70
     0
  0
VERTEX
  8
DV1_DEFAULT
 10
17.1504
 20
42.1937
 30
0
 70
     0
  0
SEQEND
  0
POLYLINE
  8
DV1_DEFAULT
  6
CONTINUOUS
 62
     7
 66
     1
 40
0
 41
0
  0
VERTEX
  8
DV1_DEFAULT
 10
8.1254
 20
28.9437
 30
0
 70
     0
  0
VERTEX
  8
DV1_DEFAULT
 10
8.1254
 20
35.4937
 30
0
 70
     0
  0
SEQEND
  0
POLYLINE
  8
DV1_DEFAULT
  6
CONTINUOUS
 62
     7
 66
     1
 40
0
 41
0
  0
VERTEX
  8
DV1_DEFAULT
 10
114.125
 20
43.1937
 30
0
 70
     0
  0
VERTEX
  8
DV1_DEFAULT
 10
108.125
 20
43.1937
 30
0
 70
     0
  0
SEQEND
  0
POLYLINE
  8
DV1_DEFAULT
  6
CONTINUOUS
 62
     7
 66
     1
 40
0
 41
0
  0
VERTEX
  8
DV1_DEFAULT
 10
108.125
 20
43.1937
 30
0
 70
     0
  0
VERTEX
  8
DV1_DEFAULT
 10
108.125
 20
106.2685
 30
0
 70
     0
  0
SEQEND
  0
POLYLINE
  8
DV1_DEFAULT
  6
CONTINUOUS
 62
     7
 66
     1
 40
0
 41
0
  0
VERTEX
  8
DV1_DEFAULT
 10
114.125
 20
108.197
 30
0
 70
     0
  0
VERTEX
  8
DV1_DEFAULT
 10
114.125
 20
43.1937
 30
0
 70
     0
  0
SEQEND
  0
POLYLINE
  8
DV1_DEFAULT
  6
CONTINUOUS
 62
     7
 66
     1
 40
0
 41
0
  0
VERTEX
  8
DV1_DEFAULT
 10
48.5155
 20
54.9779
 30
0
 70
     0
  0
VERTEX
  8
DV1_DEFAULT
 10
16.8856
 20
53.8938
 30
0
 70
     0
  0
SEQEND
  0
POLYLINE
  8
DV1_DEFAULT
  6
CONTINUOUS
 62
     7
 66
     1
 40
0
 41
0
  0
VERTEX
  8
DV1_DEFAULT
 10
7.1254
 20
35.4937
 30
0
 70
     0
  0
VERTEX
  8
DV1_DEFAULT
 10
7.1254
 20
46.8979
 30
0
 70
     0
  0
SEQEND
  0
POLYLINE
  8
DV1_DEFAULT
  6
CONTINUOUS
 62
     7
 66
     1
 40
0
 41
0
  0
VERTEX
  8
DV1_DEFAULT
 10
10.1254
 20
35.4937
 30
0
 70
     0
  0
VERTEX
  8
DV1_DEFAULT
 10
7.1254
 20
35.4937
 30
0
 70
     0
  0
SEQEND
  0
POLYLINE
  8
DV1_DEFAULT
  6
CONTINUOUS
 62
     7
 66
     1
 40
0
 41
0
  0
VERTEX
  8
DV1_DEFAULT
 10
10.1254
 20
46.8979
 30
0
 70
     0
  0
VERTEX
  8
DV1_DEFAULT
 10
10.1254
 20
35.4937
 30
0
 70
     0
  0
SEQEND
  0
POLYLINE
  8
DV1_DEFAULT
  6
CONTINUOUS
 62
     7
 66
     1
 40
0
 41
0
  0
VERTEX
  8
DV1_DEFAULT
 10
58.4278
 20
50.5201
 30
0
 70
     0
  0
VERTEX
  8
DV1_DEFAULT
 10
60.3504
 20
43.1937
 30
0
 70
     0
  0
SEQEND
  0
POLYLINE
  8
DV1_DEFAULT
  6
CONTINUOUS
 62
     7
 66
     1
 40
0
 41
0
  0
VERTEX
  8
DV1_DEFAULT
 10
57.2488
 20
43.1937
 30
0
 70
     0
  0
VERTEX
  8
DV1_DEFAULT
 10
55.5261
 20
49.7587
 30
0
 70
     0
  0
SEQEND
  0
POLYLINE
  8
DV1_DEFAULT
  6
CONTINUOUS
 62
     7
 66
     1
 40
0
 41
0
  0
VERTEX
  8
DV1_DEFAULT
 10
16.7828
 20
56.892
 30
0
 70
     0
  0
VERTEX
  8
DV1_DEFAULT
 10
48.4128
 20
57.9761
 30
0
 70
     0
  0
SEQEND
  0
POLYLINE
  8
DV1_DEFAULT
  6
CONTINUOUS
 62
     7
 66
     1
 40
0
 41
0
  0
VERTEX
  8
DV1_DEFAULT
 10
60.3504
 20
43.1937
 30
0
 70
     0
  0
VERTEX
  8
DV1_DEFAULT
 10
57.2488
 20
43.1937
 30
0
 70
     0
  0
SEQEND
  0
POLYLINE
  8
DV1_DEFAULT
  6
CONTINUOUS
 62
     7
 66
     1
 40
0
 41
0
  0
VERTEX
  8
DV1_DEFAULT
 10
132.1254
 20
28.9437
 30
0
 70
     0
  0
VERTEX
  8
DV1_DEFAULT
 10
132.1254
 20
24.1937
 30
0
 70
     0
  0
SEQEND
  0
POLYLINE
  8
DV1_DEFAULT
  6
CONTINUOUS
 62
     7
 66
     1
 40
0
 41
0
  0
VERTEX
  8
DV1_DEFAULT
 10
90.125
 20
36.1937
 30
0
 70
     0
  0
VERTEX
  8
DV1_DEFAULT
 10
90.125
 20
24.1937
 30
0
 70
     0
  0
SEQEND
  0
POLYLINE
  8
DV1_DEFAULT
  6
CONTINUOUS
 62
     7
 66
     1
 40
0
 41
0
  0
VERTEX
  8
DV1_DEFAULT
 10
132.125
 20
24.1937
 30
0
 70
     0
  0
VERTEX
  8
DV1_DEFAULT
 10
132.125
 20
36.1937
 30
0
 70
     0
  0
SEQEND
  0
POLYLINE
  8
DV1_DEFAULT
  6
CONTINUOUS
 62
     7
 66
     1
 40
0
 41
0
  0
VERTEX
  8
DV1_DEFAULT
 10
126.125
 20
42.1937
 30
0
 70
     0
  0
VERTEX
  8
DV1_DEFAULT
 10
126.125
 20
18.1937
 30
0
 70
     0
  0
SEQEND
  0
POLYLINE
  8
DV1_DEFAULT
  6
CONTINUOUS
 62
     7
 66
     1
 40
0
 41
0
  0
VERTEX
  8
DV1_DEFAULT
 10
96.125
 20
18.1937
 30
0
 70
     0
  0
VERTEX
  8
DV1_DEFAULT
 10
96.125
 20
19.9937
 30
0
 70
     0
  0
SEQEND
  0
POLYLINE
  8
DV1_DEFAULT
  6
CONTINUOUS
 62
     7
 66
     1
 40
0
 41
0
  0
VERTEX
  8
DV1_DEFAULT
 10
96.125
 20
21.9937
 30
0
 70
     0
  0
VERTEX
  8
DV1_DEFAULT
 10
96.125
 20
37.9937
 30
0
 70
     0
  0
SEQEND
  0
POLYLINE
  8
DV1_DEFAULT
  6
CONTINUOUS
 62
     7
 66
     1
 40
0
 41
0
  0
VERTEX
  8
DV1_DEFAULT
 10
96.125
 20
39.9937
 30
0
 70
     0
  0
VERTEX
  8
DV1_DEFAULT
 10
96.125
 20
42.1937
 30
0
 70
     0
  0
SEQEND
  0
POLYLINE
  8
DV1_DEFAULT
  6
CONTINUOUS
 62
     7
 66
     1
 40
0
 41
0
  0
VERTEX
  8
DV1_DEFAULT
 10
118.125
 20
58.1937
 30
0
 70
     0
  0
VERTEX
  8
DV1_DEFAULT
 10
118.125
 20
50.1937
 30
0
 70
     0
  0
SEQEND
  0
POLYLINE
  8
DV1_DEFAULT
  6
CONTINUOUS
 62
     7
 66
     1
 40
0
 41
0
  0
VERTEX
  8
DV1_DEFAULT
 10
83.6843
 20
83.2831
 30
0
 70
     0
  0
VERTEX
  8
DV1_DEFAULT
 10
83.681
 20
83.2839
 30
0
 70
     0
  0
SEQEND
  0
POLYLINE
  8
DV1_DEFAULT
  6
CONTINUOUS
 62
     7
 66
     1
 40
0
 41
0
  0
VERTEX
  8
DV1_DEFAULT
 10
117.3754
 20
21.9937
 30
0
 70
     0
  0
VERTEX
  8
DV1_DEFAULT
 10
69.3754
 20
21.9937
 30
0
 70
     0
  0
SEQEND
  0
POLYLINE
  8
DV1_DEFAULT
  6
CONTINUOUS
 62
     7
 66
     1
 40
0
 41
0
  0
VERTEX
  8
DV1_DEFAULT
 10
69.3754
 20
21.9937
 30
0
 70
     0
  0
VERTEX
  8
DV1_DEFAULT
 10
69.3754
 20
19.9937
 30
0
 70
     0
  0
SEQEND
  0
POLYLINE
  8
DV1_DEFAULT
  6
CONTINUOUS
 62
     7
 66
     1
 40
0
 41
0
  0
VERTEX
  8
DV1_DEFAULT
 10
117.3754
 20
19.9937
 30
0
 70
     0
  0
VERTEX
  8
DV1_DEFAULT
 10
117.3754
 20
21.9937
 30
0
 70
     0
  0
SEQEND
  0
POLYLINE
  8
DV1_DEFAULT
  6
CONTINUOUS
 62
     7
 66
     1
 40
0
 41
0
  0
VERTEX
  8
DV1_DEFAULT
 10
69.3754
 20
19.9937
 30
0
 70
     0
  0
VERTEX
  8
DV1_DEFAULT
 10
117.3754
 20
19.9937
 30
0
 70
     0
  0
SEQEND
  0
POLYLINE
  8
DV1_DEFAULT
  6
CONTINUOUS
 62
     7
 66
     1
 40
0
 41
0
  0
VERTEX
  8
DV1_DEFAULT
 10
117.3754
 20
39.9937
 30
0
 70
     0
  0
VERTEX
  8
DV1_DEFAULT
 10
69.3754
 20
39.9937
 30
0
 70
     0
  0
SEQEND
  0
POLYLINE
  8
DV1_DEFAULT
  6
CONTINUOUS
 62
     7
 66
     1
 40
0
 41
0
  0
VERTEX
  8
DV1_DEFAULT
 10
69.3754
 20
39.9937
 30
0
 70
     0
  0
VERTEX
  8
DV1_DEFAULT
 10
69.3754
 20
37.9937
 30
0
 70
     0
  0
SEQEND
  0
POLYLINE
  8
DV1_DEFAULT
  6
CONTINUOUS
 62
     7
 66
     1
 40
0
 41
0
  0
VERTEX
  8
DV1_DEFAULT
 10
69.3754
 20
37.9937
 30
0
 70
     0
  0
VERTEX
  8
DV1_DEFAULT
 10
117.3754
 20
37.9937
 30
0
 70
     0
  0
SEQEND
  0
POLYLINE
  8
DV1_DEFAULT
  6
CONTINUOUS
 62
     7
 66
     1
 40
0
 41
0
  0
VERTEX
  8
DV1_DEFAULT
 10
117.3754
 20
37.9937
 30
0
 70
     0
  0
VERTEX
  8
DV1_DEFAULT
 10
117.3754
 20
39.9937
 30
0
 70
     0
  0
SEQEND
  0
POLYLINE
  8
DV1_DEFAULT
  6
CONTINUOUS
 62
     7
 66
     1
 40
0
 41
0
  0
VERTEX
  8
DV1_DEFAULT
 10
67.125
 20
77.1937
 30
0
 70
     0
  0
VERTEX
  8
DV1_DEFAULT
 10
67.125
 20
48.1937
 30
0
 70
     0
  0
SEQEND
  0
POLYLINE
  8
DV1_DEFAULT
  6
CONTINUOUS
 62
     7
 66
     1
 40
0
 41
0
  0
VERTEX
  8
DV1_DEFAULT
 10
101.125
 20
102.1937
 30
0
 70
     0
  0
VERTEX
  8
DV1_DEFAULT
 10
84.125
 20
102.1937
 30
0
 70
     0
  0
SEQEND
  0
POLYLINE
  8
DV1_DEFAULT
  6
CONTINUOUS
 62
     7
 66
     1
 40
0
 41
0
  0
VERTEX
  8
DV1_DEFAULT
 10
67.125
 20
48.1937
 30
0
 70
     0
  0
VERTEX
  8
DV1_DEFAULT
 10
101.125
 20
48.1937
 30
0
 70
     0
  0
SEQEND
  0
POLYLINE
  8
DV1_DEFAULT
  6
CONTINUOUS
 62
     7
 66
     1
 40
0
 41
0
  0
VERTEX
  8
DV1_DEFAULT
 10
101.125
 20
48.1937
 30
0
 70
     0
  0
VERTEX
  8
DV1_DEFAULT
 10
101.125
 20
102.1937
 30
0
 70
     0
  0
SEQEND
  0
POLYLINE
  8
DV1_DEFAULT
  6
CONTINUOUS
 62
     7
 66
     1
 40
0
 41
0
  0
VERTEX
  8
DV1_DEFAULT
 10
66.5101
 20
47.4437
 30
0
 70
     0
  0
VERTEX
  8
DV1_DEFAULT
 10
101.875
 20
47.4437
 30
0
 70
     0
  0
SEQEND
  0
POLYLINE
  8
DV1_DEFAULT
  6
CONTINUOUS
 62
     7
 66
     1
 40
0
 41
0
  0
VERTEX
  8
DV1_DEFAULT
 10
72.5337
 20
102.9437
 30
0
 70
     0
  0
VERTEX
  8
DV1_DEFAULT
 10
66.5101
 20
77.8453
 30
0
 70
     0
  0
SEQEND
  0
POLYLINE
  8
DV1_DEFAULT
  6
CONTINUOUS
 62
     7
 66
     1
 40
0
 41
0
  0
VERTEX
  8
DV1_DEFAULT
 10
101.875
 20
102.9437
 30
0
 70
     0
  0
VERTEX
  8
DV1_DEFAULT
 10
72.5337
 20
102.9437
 30
0
 70
     0
  0
SEQEND
  0
POLYLINE
  8
DV1_DEFAULT
  6
CONTINUOUS
 62
     7
 66
     1
 40
0
 41
0
  0
VERTEX
  8
DV1_DEFAULT
 10
101.875
 20
47.4437
 30
0
 70
     0
  0
VERTEX
  8
DV1_DEFAULT
 10
101.875
 20
102.9437
 30
0
 70
     0
  0
SEQEND
  0
POLYLINE
  8
DV1_DEFAULT
  6
CONTINUOUS
 62
     7
 66
     1
 40
0
 41
0
  0
VERTEX
  8
DV1_DEFAULT
 10
83.125
 20
102.1937
 30
0
 70
     0
  0
VERTEX
  8
DV1_DEFAULT
 10
73.125
 20
102.1937
 30
0
 70
     0
  0
SEQEND
  0
POLYLINE
  8
DV1_DEFAULT
  6
CONTINUOUS
 62
     7
 66
     1
 40
0
 41
0
  0
VERTEX
  8
DV1_DEFAULT
 10
73.125
 20
102.1937
 30
0
 70
     0
  0
VERTEX
  8
DV1_DEFAULT
 10
67.125
 20
77.1937
 30
0
 70
     0
  0
SEQEND
  0
POLYLINE
  8
DV1_DEFAULT
  6
CONTINUOUS
 62
     7
 66
     1
 40
0
 41
0
  0
VERTEX
  8
DV1_DEFAULT
 10
99.125
 20
74.6937
 30
0
 70
     0
  0
VERTEX
  8
DV1_DEFAULT
 10
99.125
 20
100.1937
 30
0
 70
     0
  0
SEQEND
  0
POLYLINE
  8
DV1_DEFAULT
  6
CONTINUOUS
 62
     7
 66
     1
 40
0
 41
0
  0
VERTEX
  8
DV1_DEFAULT
 10
74.7018
 20
100.1937
 30
0
 70
     0
  0
VERTEX
  8
DV1_DEFAULT
 10
68.7018
 20
75.1937
 30
0
 70
     0
  0
SEQEND
  0
POLYLINE
  8
DV1_DEFAULT
  6
CONTINUOUS
 62
     7
 66
     1
 40
0
 41
0
  0
VERTEX
  8
DV1_DEFAULT
 10
99.125
 20
100.1937
 30
0
 70
     0
  0
VERTEX
  8
DV1_DEFAULT
 10
84.125
 20
100.1937
 30
0
 70
     0
  0
SEQEND
  0
POLYLINE
  8
DV1_DEFAULT
  6
CONTINUOUS
 62
     7
 66
     1
 40
0
 41
0
  0
VERTEX
  8
DV1_DEFAULT
 10
83.125
 20
100.1937
 30
0
 70
     0
  0
VERTEX
  8
DV1_DEFAULT
 10
74.7018
 20
100.1937
 30
0
 70
     0
  0
SEQEND
  0
POLYLINE
  8
DV1_DEFAULT
  6
CONTINUOUS
 62
     7
 66
     1
 40
0
 41
0
  0
VERTEX
  8
DV1_DEFAULT
 10
87.125
 20
74.6937
 30
0
 70
     0
  0
VERTEX
  8
DV1_DEFAULT
 10
99.125
 20
74.6937
 30
0
 70
     0
  0
SEQEND
  0
POLYLINE
  8
DV1_DEFAULT
  6
CONTINUOUS
 62
     7
 66
     1
 40
0
 41
0
  0
VERTEX
  8
DV1_DEFAULT
 10
78.7018
 20
69.6937
 30
0
 70
     0
  0
VERTEX
  8
DV1_DEFAULT
 10
83.125
 20
72.3193
 30
0
 70
     0
  0
SEQEND
  0
POLYLINE
  8
DV1_DEFAULT
  6
CONTINUOUS
 62
     7
 66
     1
 40
0
 41
0
  0
VERTEX
  8
DV1_DEFAULT
 10
84.125
 20
72.9129
 30
0
 70
     0
  0
VERTEX
  8
DV1_DEFAULT
 10
87.125
 20
74.6937
 30
0
 70
     0
  0
SEQEND
  0
POLYLINE
  8
DV1_DEFAULT
  6
CONTINUOUS
 62
     7
 66
     1
 40
0
 41
0
  0
VERTEX
  8
DV1_DEFAULT
 10
68.7018
 20
69.6937
 30
0
 70
     0
  0
VERTEX
  8
DV1_DEFAULT
 10
78.7018
 20
69.6937
 30
0
 70
     0
  0
SEQEND
  0
POLYLINE
  8
DV1_DEFAULT
  6
CONTINUOUS
 62
     7
 66
     1
 40
0
 41
0
  0
VERTEX
  8
DV1_DEFAULT
 10
68.7018
 20
75.1937
 30
0
 70
     0
  0
VERTEX
  8
DV1_DEFAULT
 10
68.7018
 20
69.6937
 30
0
 70
     0
  0
SEQEND
  0
POLYLINE
  8
DV1_DEFAULT
  6
CONTINUOUS
 62
     7
 66
     1
 40
0
 41
0
  0
VERTEX
  8
DV1_DEFAULT
 10
101.875
 20
58.9687
 30
0
 70
     0
  0
VERTEX
  8
DV1_DEFAULT
 10
101.1254
 20
58.9687
 30
0
 70
     0
  0
SEQEND
  0
POLYLINE
  8
DV1_DEFAULT
  6
CONTINUOUS
 62
     7
 66
     1
 40
0
 41
0
  0
VERTEX
  8
DV1_DEFAULT
 10
101.1254
 20
55.4687
 30
0
 70
     0
  0
VERTEX
  8
DV1_DEFAULT
 10
101.875
 20
55.4687
 30
0
 70
     0
  0
SEQEND
  0
POLYLINE
  8
DV1_DEFAULT
  6
CONTINUOUS
 62
     7
 66
     1
 40
0
 41
0
  0
VERTEX
  8
DV1_DEFAULT
 10
83.125
 20
102.397
 30
0
 70
     0
  0
VERTEX
  8
DV1_DEFAULT
 10
84.125
 20
102.397
 30
0
 70
     0
  0
SEQEND
  0
POLYLINE
  8
DV1_DEFAULT
  6
CONTINUOUS
 62
     7
 66
     1
 40
0
 41
0
  0
VERTEX
  8
DV1_DEFAULT
 10
83.125
 20
70.397
 30
0
 70
     0
  0
VERTEX
  8
DV1_DEFAULT
 10
84.125
 20
70.397
 30
0
 70
     0
  0
SEQEND
  0
POLYLINE
  8
DV1_DEFAULT
  6
CONTINUOUS
 62
     7
 66
     1
 40
0
 41
0
  0
VERTEX
  8
DV1_DEFAULT
 10
83.125
 20
72.8114
 30
0
 70
     0
  0
VERTEX
  8
DV1_DEFAULT
 10
84.125
 20
72.8114
 30
0
 70
     0
  0
SEQEND
  0
POLYLINE
  8
DV1_DEFAULT
  6
CONTINUOUS
 62
     7
 66
     1
 40
0
 41
0
  0
VERTEX
  8
DV1_DEFAULT
 10
83.125
 20
80.4875
 30
0
 70
     0
  0
VERTEX
  8
DV1_DEFAULT
 10
84.125
 20
80.4875
 30
0
 70
     0
  0
SEQEND
  0
POLYLINE
  8
DV1_DEFAULT
  6
CONTINUOUS
 62
     7
 66
     1
 40
0
 41
0
  0
VERTEX
  8
DV1_DEFAULT
 10
83.6093
 20
82.902
 30
0
 70
     0
  0
VERTEX
  8
DV1_DEFAULT
 10
84.125
 20
82.902
 30
0
 70
     0
  0
SEQEND
  0
POLYLINE
  8
DV1_DEFAULT
  6
CONTINUOUS
 62
     7
 66
     1
 40
0
 41
0
  0
VERTEX
  8
DV1_DEFAULT
 10
83.125
 20
85.902
 30
0
 70
     0
  0
VERTEX
  8
DV1_DEFAULT
 10
84.125
 20
85.902
 30
0
 70
     0
  0
SEQEND
  0
POLYLINE
  8
DV1_DEFAULT
  6
CONTINUOUS
 62
     7
 66
     1
 40
0
 41
0
  0
VERTEX
  8
DV1_DEFAULT
 10
83.125
 20
100.897
 30
0
 70
     0
  0
VERTEX
  8
DV1_DEFAULT
 10
84.125
 20
100.897
 30
0
 70
     0
  0
SEQEND
  0
POLYLINE
  8
DV1_DEFAULT
  6
CONTINUOUS
 62
     7
 66
     1
 40
0
 41
0
  0
VERTEX
  8
DV1_DEFAULT
 10
83.125
 20
98.902
 30
0
 70
     0
  0
VERTEX
  8
DV1_DEFAULT
 10
84.125
 20
98.902
 30
0
 70
     0
  0
SEQEND
  0
POLYLINE
  8
DV1_DEFAULT
  6
CONTINUOUS
 62
     7
 66
     1
 40
0
 41
0
  0
VERTEX
  8
DV1_DEFAULT
 10
83.125
 20
80.4875
 30
0
 70
     0
  0
VERTEX
  8
DV1_DEFAULT
 10
83.125
 20
82.7839
 30
0
 70
     0
  0
SEQEND
  0
POLYLINE
  8
DV1_DEFAULT
  6
CONTINUOUS
 62
     7
 66
     1
 40
0
 41
0
  0
VERTEX
  8
DV1_DEFAULT
 10
83.125
 20
100.897
 30
0
 70
     0
  0
VERTEX
  8
DV1_DEFAULT
 10
83.125
 20
102.397
 30
0
 70
     0
  0
SEQEND
  0
POLYLINE
  8
DV1_DEFAULT
  6
CONTINUOUS
 62
     7
 66
     1
 40
0
 41
0
  0
VERTEX
  8
DV1_DEFAULT
 10
83.125
 20
83.274
 30
0
 70
     0
  0
VERTEX
  8
DV1_DEFAULT
 10
83.125
 20
85.902
 30
0
 70
     0
  0
SEQEND
  0
POLYLINE
  8
DV1_DEFAULT
  6
CONTINUOUS
 62
     7
 66
     1
 40
0
 41
0
  0
VERTEX
  8
DV1_DEFAULT
 10
83.125
 20
85.902
 30
0
 70
     0
  0
VERTEX
  8
DV1_DEFAULT
 10
83.125
 20
98.902
 30
0
 70
     0
  0
SEQEND
  0
POLYLINE
  8
DV1_DEFAULT
  6
CONTINUOUS
 62
     7
 66
     1
 40
0
 41
0
  0
VERTEX
  8
DV1_DEFAULT
 10
83.125
 20
98.902
 30
0
 70
     0
  0
VERTEX
  8
DV1_DEFAULT
 10
83.125
 20
100.897
 30
0
 70
     0
  0
SEQEND
  0
POLYLINE
  8
DV1_DEFAULT
  6
CONTINUOUS
 62
     7
 66
     1
 40
0
 41
0
  0
VERTEX
  8
DV1_DEFAULT
 10
84.125
 20
98.902
 30
0
 70
     0
  0
VERTEX
  8
DV1_DEFAULT
 10
84.125
 20
100.897
 30
0
 70
     0
  0
SEQEND
  0
POLYLINE
  8
DV1_DEFAULT
  6
CONTINUOUS
 62
     7
 66
     1
 40
0
 41
0
  0
VERTEX
  8
DV1_DEFAULT
 10
83.125
 20
70.397
 30
0
 70
     0
  0
VERTEX
  8
DV1_DEFAULT
 10
83.125
 20
72.8114
 30
0
 70
     0
  0
SEQEND
  0
POLYLINE
  8
DV1_DEFAULT
  6
CONTINUOUS
 62
     7
 66
     1
 40
0
 41
0
  0
VERTEX
  8
DV1_DEFAULT
 10
83.125
 20
72.8114
 30
0
 70
     0
  0
VERTEX
  8
DV1_DEFAULT
 10
83.125
 20
80.4875
 30
0
 70
     0
  0
SEQEND
  0
POLYLINE
  8
DV1_DEFAULT
  6
CONTINUOUS
 62
     7
 66
     1
 40
0
 41
0
  0
VERTEX
  8
DV1_DEFAULT
 10
84.125
 20
100.897
 30
0
 70
     0
  0
VERTEX
  8
DV1_DEFAULT
 10
84.125
 20
102.397
 30
0
 70
     0
  0
SEQEND
  0
POLYLINE
  8
DV1_DEFAULT
  6
CONTINUOUS
 62
     7
 66
     1
 40
0
 41
0
  0
VERTEX
  8
DV1_DEFAULT
 10
84.125
 20
72.8114
 30
0
 70
     0
  0
VERTEX
  8
DV1_DEFAULT
 10
84.125
 20
80.4875
 30
0
 70
     0
  0
SEQEND
  0
POLYLINE
  8
DV1_DEFAULT
  6
CONTINUOUS
 62
     7
 66
     1
 40
0
 41
0
  0
VERTEX
  8
DV1_DEFAULT
 10
84.125
 20
80.4875
 30
0
 70
     0
  0
VERTEX
  8
DV1_DEFAULT
 10
84.125
 20
82.902
 30
0
 70
     0
  0
SEQEND
  0
POLYLINE
  8
DV1_DEFAULT
  6
CONTINUOUS
 62
     7
 66
     1
 40
0
 41
0
  0
VERTEX
  8
DV1_DEFAULT
 10
84.125
 20
82.902
 30
0
 70
     0
  0
VERTEX
  8
DV1_DEFAULT
 10
84.125
 20
85.902
 30
0
 70
     0
  0
SEQEND
  0
POLYLINE
  8
DV1_DEFAULT
  6
CONTINUOUS
 62
     7
 66
     1
 40
0
 41
0
  0
VERTEX
  8
DV1_DEFAULT
 10
84.125
 20
85.902
 30
0
 70
     0
  0
VERTEX
  8
DV1_DEFAULT
 10
84.125
 20
98.902
 30
0
 70
     0
  0
SEQEND
  0
POLYLINE
  8
DV1_DEFAULT
  6
CONTINUOUS
 62
     7
 66
     1
 40
0
 41
0
  0
VERTEX
  8
DV1_DEFAULT
 10
84.125
 20
70.397
 30
0
 70
     0
  0
VERTEX
  8
DV1_DEFAULT
 10
84.125
 20
72.8114
 30
0
 70
     0
  0
SEQEND
  0
POLYLINE
  8
DV1_DEFAULT
  6
CONTINUOUS
 62
     7
 66
     1
 40
0
 41
0
  0
VERTEX
  8
DV1_DEFAULT
 10
83.681
 20
83.2839
 30
0
 70
     0
  0
VERTEX
  8
DV1_DEFAULT
 10
83.2311
 20
83.2839
 30
0
 70
     0
  0
SEQEND
  0
POLYLINE
  8
DV1_DEFAULT
  6
CONTINUOUS
 62
     7
 66
     1
 40
0
 41
0
  0
VERTEX
  8
DV1_DEFAULT
 10
83.473
 20
82.7839
 30
0
 70
     0
  0
VERTEX
  8
DV1_DEFAULT
 10
83.0198
 20
82.7839
 30
0
 70
     0
  0
SEQEND
  0
POLYLINE
  8
DV1_DEFAULT
  6
CONTINUOUS
 62
     7
 66
     1
 40
0
 41
0
  0
VERTEX
  8
DV1_DEFAULT
 10
83.125
 20
99.7839
 30
0
 70
     0
  0
VERTEX
  8
DV1_DEFAULT
 10
83.0198
 20
99.7839
 30
0
 70
     0
  0
SEQEND
  0
ENDBLK
  8
DV1_DEFAULT
  0
BLOCK
  8
DV1_DEFAULT
  2
Group2
 70
     0
 10
0
 20
0
 30
0
  0
POLYLINE
  8
DV1_DEFAULT
  6
CONTINUOUS
 62
     7
 66
     1
 40
0
 41
0
  0
VERTEX
  8
DV1_DEFAULT
 10
80.0615
 20
99.7839
 30
0
 70
     0
  0
VERTEX
  8
DV1_DEFAULT
 10
83.0198
 20
99.7839
 30
0
 70
     0
  0
SEQEND
  0
POLYLINE
  8
DV1_DEFAULT
  6
CONTINUOUS
 62
     7
 66
     1
 40
0
 41
0
  0
VERTEX
  8
DV1_DEFAULT
 10
83.2311
 20
83.4129
 30
0
 70
     0
  0
VERTEX
  8
DV1_DEFAULT
 10
83.2311
 20
83.2839
 30
0
 70
     0
  0
SEQEND
  0
POLYLINE
  8
DV1_DEFAULT
  6
CONTINUOUS
 62
     7
 66
     1
 40
0
 41
0
  0
VERTEX
  8
DV1_DEFAULT
 10
79.8502
 20
83.2839
 30
0
 70
     0
  0
VERTEX
  8
DV1_DEFAULT
 10
79.8502
 20
99.2839
 30
0
 70
     0
  0
SEQEND
  0
POLYLINE
  8
DV1_DEFAULT
  6
CONTINUOUS
 62
     7
 66
     1
 40
0
 41
0
  0
VERTEX
  8
DV1_DEFAULT
 10
83.0198
 20
82.7839
 30
0
 70
     0
  0
VERTEX
  8
DV1_DEFAULT
 10
80.0615
 20
82.7839
 30
0
 70
     0
  0
SEQEND
  0
POLYLINE
  8
DV1_DEFAULT
  6
CONTINUOUS
 62
     7
 66
     1
 40
0
 41
0
  0
VERTEX
  8
DV1_DEFAULT
 10
127.625
 20
106.1937
 30
0
 70
     0
  0
VERTEX
  8
DV1_DEFAULT
 10
114.625
 20
106.1937
 30
0
 70
     0
  0
SEQEND
  0
POLYLINE
  8
DV1_DEFAULT
  6
CONTINUOUS
 62
     7
 66
     1
 40
0
 41
0
  0
VERTEX
  8
DV1_DEFAULT
 10
124.125
 20
138.1937
 30
0
 70
     0
  0
VERTEX
  8
DV1_DEFAULT
 10
118.125
 20
138.1937
 30
0
 70
     0
  0
SEQEND
  0
POLYLINE
  8
DV1_DEFAULT
  6
CONTINUOUS
 62
     7
 66
     1
 40
0
 41
0
  0
VERTEX
  8
DV1_DEFAULT
 10
127.625
 20
58.1937
 30
0
 70
     0
  0
VERTEX
  8
DV1_DEFAULT
 10
114.625
 20
58.1937
 30
0
 70
     0
  0
SEQEND
  0
POLYLINE
  8
DV1_DEFAULT
  6
CONTINUOUS
 62
     7
 66
     1
 40
0
 41
0
  0
VERTEX
  8
DV1_DEFAULT
 10
124.125
 20
50.1937
 30
0
 70
     0
  0
VERTEX
  8
DV1_DEFAULT
 10
118.125
 20
50.1937
 30
0
 70
     0
  0
SEQEND
  0
POLYLINE
  8
DV1_DEFAULT
  6
CONTINUOUS
 62
     7
 66
     1
 40
0
 41
0
  0
VERTEX
  8
DV1_DEFAULT
 10
87.8754
 20
30.4937
 30
0
 70
     0
  0
VERTEX
  8
DV1_DEFAULT
 10
70.8754
 20
30.4937
 30
0
 70
     0
  0
SEQEND
  0
POLYLINE
  8
DV1_DEFAULT
  6
CONTINUOUS
 62
     7
 66
     1
 40
0
 41
0
  0
VERTEX
  8
DV1_DEFAULT
 10
70.8754
 20
30.4937
 30
0
 70
     0
  0
VERTEX
  8
DV1_DEFAULT
 10
70.8754
 20
37.9937
 30
0
 70
     0
  0
SEQEND
  0
POLYLINE
  8
DV1_DEFAULT
  6
CONTINUOUS
 62
     7
 66
     1
 40
0
 41
0
  0
VERTEX
  8
DV1_DEFAULT
 10
70.8754
 20
39.9937
 30
0
 70
     0
  0
VERTEX
  8
DV1_DEFAULT
 10
70.8754
 20
40.4937
 30
0
 70
     0
  0
SEQEND
  0
POLYLINE
  8
DV1_DEFAULT
  6
CONTINUOUS
 62
     7
 66
     1
 40
0
 41
0
  0
VERTEX
  8
DV1_DEFAULT
 10
70.8754
 20
40.4937
 30
0
 70
     0
  0
VERTEX
  8
DV1_DEFAULT
 10
87.8754
 20
40.4937
 30
0
 70
     0
  0
SEQEND
  0
POLYLINE
  8
DV1_DEFAULT
  6
CONTINUOUS
 62
     7
 66
     1
 40
0
 41
0
  0
VERTEX
  8
DV1_DEFAULT
 10
87.8754
 20
40.4937
 30
0
 70
     0
  0
VERTEX
  8
DV1_DEFAULT
 10
87.8754
 20
39.9937
 30
0
 70
     0
  0
SEQEND
  0
POLYLINE
  8
DV1_DEFAULT
  6
CONTINUOUS
 62
     7
 66
     1
 40
0
 41
0
  0
VERTEX
  8
DV1_DEFAULT
 10
87.8754
 20
37.9937
 30
0
 70
     0
  0
VERTEX
  8
DV1_DEFAULT
 10
87.8754
 20
30.4937
 30
0
 70
     0
  0
SEQEND
  0
POLYLINE
  8
DV1_DEFAULT
  6
CONTINUOUS
 62
     7
 66
     1
 40
0
 41
0
  0
VERTEX
  8
DV1_DEFAULT
 10
4.6254
 20
31.4937
 30
0
 70
     0
  0
VERTEX
  8
DV1_DEFAULT
 10
7.1254
 20
31.4937
 30
0
 70
     0
  0
SEQEND
  0
POLYLINE
  8
DV1_DEFAULT
  6
CONTINUOUS
 62
     7
 66
     1
 40
0
 41
0
  0
VERTEX
  8
DV1_DEFAULT
 10
4.6254
 20
20.9937
 30
0
 70
     0
  0
VERTEX
  8
DV1_DEFAULT
 10
7.1254
 20
20.9937
 30
0
 70
     0
  0
SEQEND
  0
POLYLINE
  8
DV1_DEFAULT
  6
CONTINUOUS
 62
     7
 66
     1
 40
0
 41
0
  0
VERTEX
  8
DV1_DEFAULT
 10
7.1254
 20
20.9937
 30
0
 70
     0
  0
VERTEX
  8
DV1_DEFAULT
 10
7.1254
 20
31.4937
 30
0
 70
     0
  0
SEQEND
  0
POLYLINE
  8
DV1_DEFAULT
  6
CONTINUOUS
 62
     7
 66
     1
 40
0
 41
0
  0
VERTEX
  8
DV1_DEFAULT
 10
4.6254
 20
31.4937
 30
0
 70
     0
  0
VERTEX
  8
DV1_DEFAULT
 10
1.1254
 20
31.4937
 30
0
 70
     0
  0
SEQEND
  0
POLYLINE
  8
DV1_DEFAULT
  6
CONTINUOUS
 62
     7
 66
     1
 40
0
 41
0
  0
VERTEX
  8
DV1_DEFAULT
 10
4.6254
 20
20.9937
 30
0
 70
     0
  0
VERTEX
  8
DV1_DEFAULT
 10
4.6254
 20
31.4937
 30
0
 70
     0
  0
SEQEND
  0
POLYLINE
  8
DV1_DEFAULT
  6
CONTINUOUS
 62
     7
 66
     1
 40
0
 41
0
  0
VERTEX
  8
DV1_DEFAULT
 10
4.6254
 20
20.9937
 30
0
 70
     0
  0
VERTEX
  8
DV1_DEFAULT
 10
1.1254
 20
20.9937
 30
0
 70
     0
  0
SEQEND
  0
POLYLINE
  8
DV1_DEFAULT
  6
CONTINUOUS
 62
     7
 66
     1
 40
0
 41
0
  0
VERTEX
  8
DV1_DEFAULT
 10
72.9731
 20
104.8723
 30
0
 70
     0
  0
VERTEX
  8
DV1_DEFAULT
 10
66.5101
 20
77.9277
 30
0
 70
     0
  0
SEQEND
  0
POLYLINE
  8
DV1_DEFAULT
  6
CONTINUOUS
 62
     7
 66
     1
 40
0
 41
0
  0
VERTEX
  8
DV1_DEFAULT
 10
66.5101
 20
43.1937
 30
0
 70
     0
  0
VERTEX
  8
DV1_DEFAULT
 10
65.9558
 20
43.1937
 30
0
 70
     0
  0
SEQEND
  0
POLYLINE
  8
DV1_DEFAULT
  6
CONTINUOUS
 62
     7
 66
     1
 40
0
 41
0
  0
VERTEX
  8
DV1_DEFAULT
 10
66.375
 20
47.4437
 30
0
 70
     0
  0
VERTEX
  8
DV1_DEFAULT
 10
66.5101
 20
47.4437
 30
0
 70
     0
  0
SEQEND
  0
POLYLINE
  8
DV1_DEFAULT
  6
CONTINUOUS
 62
     7
 66
     1
 40
0
 41
0
  0
VERTEX
  8
DV1_DEFAULT
 10
66.5101
 20
47.4437
 30
0
 70
     0
  0
VERTEX
  8
DV1_DEFAULT
 10
66.5101
 20
43.1937
 30
0
 70
     0
  0
SEQEND
  0
POLYLINE
  8
DV1_DEFAULT
  6
CONTINUOUS
 62
     7
 66
     1
 40
0
 41
0
  0
VERTEX
  8
DV1_DEFAULT
 10
66.375
 20
77.2824
 30
0
 70
     0
  0
VERTEX
  8
DV1_DEFAULT
 10
66.375
 20
47.4437
 30
0
 70
     0
  0
SEQEND
  0
POLYLINE
  8
DV1_DEFAULT
  6
CONTINUOUS
 62
     7
 66
     1
 40
0
 41
0
  0
VERTEX
  8
DV1_DEFAULT
 10
66.5101
 20
77.8453
 30
0
 70
     0
  0
VERTEX
  8
DV1_DEFAULT
 10
66.375
 20
77.2824
 30
0
 70
     0
  0
SEQEND
  0
POLYLINE
  8
DV1_DEFAULT
  6
CONTINUOUS
 62
     7
 66
     1
 40
0
 41
0
  0
VERTEX
  8
DV1_DEFAULT
 10
66.5101
 20
77.9277
 30
0
 70
     0
  0
VERTEX
  8
DV1_DEFAULT
 10
66.5101
 20
77.8453
 30
0
 70
     0
  0
SEQEND
  0
POLYLINE
  8
DV1_DEFAULT
  6
CONTINUOUS
 62
     7
 66
     1
 40
0
 41
0
  0
VERTEX
  8
DV1_DEFAULT
 10
65.9558
 20
43.1937
 30
0
 70
     0
  0
VERTEX
  8
DV1_DEFAULT
 10
65.9558
 20
77.9933
 30
0
 70
     0
  0
SEQEND
  0
POLYLINE
  8
DV1_DEFAULT
  6
CONTINUOUS
 62
     7
 66
     1
 40
0
 41
0
  0
VERTEX
  8
DV1_DEFAULT
 10
66.5101
 20
77.9277
 30
0
 70
     0
  0
VERTEX
  8
DV1_DEFAULT
 10
65.9558
 20
77.9933
 30
0
 70
     0
  0
SEQEND
  0
POLYLINE
  8
DV1_DEFAULT
  6
CONTINUOUS
 62
     7
 66
     1
 40
0
 41
0
  0
VERTEX
  8
DV1_DEFAULT
 10
72.9731
 20
104.8723
 30
0
 70
     0
  0
VERTEX
  8
DV1_DEFAULT
 10
70.1447
 20
105.5507
 30
0
 70
     0
  0
SEQEND
  0
POLYLINE
  8
DV1_DEFAULT
  6
CONTINUOUS
 62
     7
 66
     1
 40
0
 41
0
  0
VERTEX
  8
DV1_DEFAULT
 10
108.125
 20
43.1937
 30
0
 70
     0
  0
VERTEX
  8
DV1_DEFAULT
 10
66.5101
 20
43.1937
 30
0
 70
     0
  0
SEQEND
  0
POLYLINE
  8
DV1_DEFAULT
  6
CONTINUOUS
 62
     7
 66
     1
 40
0
 41
0
  0
VERTEX
  8
DV1_DEFAULT
 10
60.3504
 20
43.1937
 30
0
 70
     0
  0
VERTEX
  8
DV1_DEFAULT
 10
65.9558
 20
43.1937
 30
0
 70
     0
  0
SEQEND
  0
POLYLINE
  8
DV1_DEFAULT
  6
CONTINUOUS
 62
     7
 66
     1
 40
0
 41
0
  0
VERTEX
  8
DV1_DEFAULT
 10
63.2317
 20
76.7302
 30
0
 70
     0
  0
VERTEX
  8
DV1_DEFAULT
 10
70.1447
 20
105.5507
 30
0
 70
     0
  0
SEQEND
  0
POLYLINE
  8
DV1_DEFAULT
  6
CONTINUOUS
 62
     7
 66
     1
 40
0
 41
0
  0
VERTEX
  8
DV1_DEFAULT
 10
7.1254
 20
61.6119
 30
0
 70
     0
  0
VERTEX
  8
DV1_DEFAULT
 10
9.0439
 20
61.6119
 30
0
 70
     0
  0
SEQEND
  0
POLYLINE
  8
DV1_DEFAULT
  6
CONTINUOUS
 62
     7
 66
     1
 40
0
 41
0
  0
VERTEX
  8
DV1_DEFAULT
 10
7.1254
 20
61.6119
 30
0
 70
     0
  0
VERTEX
  8
DV1_DEFAULT
 10
7.1254
 20
62.1211
 30
0
 70
     0
  0
SEQEND
  0
POLYLINE
  8
DV1_DEFAULT
  6
CONTINUOUS
 62
     7
 66
     1
 40
0
 41
0
  0
VERTEX
  8
DV1_DEFAULT
 10
59.0858
 20
79.1888
 30
0
 70
     0
  0
VERTEX
  8
DV1_DEFAULT
 10
59.1254
 20
79.1937
 30
0
 70
     0
  0
SEQEND
  0
POLYLINE
  8
DV1_DEFAULT
  6
CONTINUOUS
 62
     7
 66
     1
 40
0
 41
0
  0
VERTEX
  8
DV1_DEFAULT
 10
8.8393
 20
62.8028
 30
0
 70
     0
  0
VERTEX
  8
DV1_DEFAULT
 10
9.0439
 20
61.6119
 30
0
 70
     0
  0
SEQEND
  0
POLYLINE
  8
DV1_DEFAULT
  6
CONTINUOUS
 62
     7
 66
     1
 40
0
 41
0
  0
VERTEX
  8
DV1_DEFAULT
 10
7.1254
 20
46.8979
 30
0
 70
     0
  0
VERTEX
  8
DV1_DEFAULT
 10
7.1254
 20
61.6119
 30
0
 70
     0
  0
SEQEND
  0
POLYLINE
  8
DV1_DEFAULT
  6
CONTINUOUS
 62
     7
 66
     1
 40
0
 41
0
  0
VERTEX
  8
DV1_DEFAULT
 10
9.0439
 20
61.6119
 30
0
 70
     0
  0
VERTEX
  8
DV1_DEFAULT
 10
9.0439
 20
52.7877
 30
0
 70
     0
  0
SEQEND
  0
ENDBLK
  8
DV1_DEFAULT
  0
BLOCK
  8
DV1_DEFAULT
  2
Group3
 70
     0
 10
0
 20
0
 30
0
  0
POLYLINE
  8
DV1_DEFAULT
  6
CONTINUOUS
 62
     7
 66
     1
 40
0
 41
0
  0
VERTEX
  8
DV1_DEFAULT
 10
17.1504
 20
42.1937
 30
0
 70
     0
  0
VERTEX
  8
DV1_DEFAULT
 10
141.6368
 20
42.1937
 30
0
 70
     0
  0
SEQEND
  0
POLYLINE
  8
DV1_DEFAULT
  6
CONTINUOUS
 62
     7
 66
     1
 40
0
 41
0
  0
VERTEX
  8
DV1_DEFAULT
 10
62.6948
 20
78.3375
 30
0
 70
     0
  0
VERTEX
  8
DV1_DEFAULT
 10
62.713
 20
78.3325
 30
0
 70
     0
  0
VERTEX
  8
DV1_DEFAULT
 10
62.731
 20
78.3263
 30
0
 70
     0
  0
VERTEX
  8
DV1_DEFAULT
 10
62.7486
 20
78.319
 30
0
 70
     0
  0
VERTEX
  8
DV1_DEFAULT
 10
62.766
 20
78.3104
 30
0
 70
     0
  0
VERTEX
  8
DV1_DEFAULT
 10
62.7746
 20
78.3057
 30
0
 70
     0
  0
VERTEX
  8
DV1_DEFAULT
 10
62.7831
 20
78.3007
 30
0
 70
     0
  0
VERTEX
  8
DV1_DEFAULT
 10
62.7915
 20
78.2954
 30
0
 70
     0
  0
VERTEX
  8
DV1_DEFAULT
 10
62.7999
 20
78.2899
 30
0
 70
     0
  0
VERTEX
  8
DV1_DEFAULT
 10
62.8082
 20
78.284
 30
0
 70
     0
  0
VERTEX
  8
DV1_DEFAULT
 10
62.8164
 20
78.2778
 30
0
 70
     0
  0
VERTEX
  8
DV1_DEFAULT
 10
62.8246
 20
78.2714
 30
0
 70
     0
  0
VERTEX
  8
DV1_DEFAULT
 10
62.8327
 20
78.2647
 30
0
 70
     0
  0
VERTEX
  8
DV1_DEFAULT
 10
62.8407
 20
78.2576
 30
0
 70
     0
  0
VERTEX
  8
DV1_DEFAULT
 10
62.8487
 20
78.2503
 30
0
 70
     0
  0
VERTEX
  8
DV1_DEFAULT
 10
62.8566
 20
78.2427
 30
0
 70
     0
  0
VERTEX
  8
DV1_DEFAULT
 10
62.8644
 20
78.2349
 30
0
 70
     0
  0
VERTEX
  8
DV1_DEFAULT
 10
62.8722
 20
78.2267
 30
0
 70
     0
  0
VERTEX
  8
DV1_DEFAULT
 10
62.8799
 20
78.2182
 30
0
 70
     0
  0
VERTEX
  8
DV1_DEFAULT
 10
62.8875
 20
78.2095
 30
0
 70
     0
  0
VERTEX
  8
DV1_DEFAULT
 10
62.895
 20
78.2005
 30
0
 70
     0
  0
VERTEX
  8
DV1_DEFAULT
 10
62.9025
 20
78.1911
 30
0
 70
     0
  0
VERTEX
  8
DV1_DEFAULT
 10
62.9099
 20
78.1815
 30
0
 70
     0
  0
VERTEX
  8
DV1_DEFAULT
 10
62.9173
 20
78.1716
 30
0
 70
     0
  0
VERTEX
  8
DV1_DEFAULT
 10
62.9245
 20
78.1615
 30
0
 70
     0
  0
VERTEX
  8
DV1_DEFAULT
 10
62.9317
 20
78.151
 30
0
 70
     0
  0
VERTEX
  8
DV1_DEFAULT
 10
62.9389
 20
78.1403
 30
0
 70
     0
  0
VERTEX
  8
DV1_DEFAULT
 10
62.9459
 20
78.1292
 30
0
 70
     0
  0
VERTEX
  8
DV1_DEFAULT
 10
62.9529
 20
78.1179
 30
0
 70
     0
  0
VERTEX
  8
DV1_DEFAULT
 10
62.9599
 20
78.1063
 30
0
 70
     0
  0
VERTEX
  8
DV1_DEFAULT
 10
62.9667
 20
78.0943
 30
0
 70
     0
  0
VERTEX
  8
DV1_DEFAULT
 10
62.9735
 20
78.0821
 30
0
 70
     0
  0
VERTEX
  8
DV1_DEFAULT
 10
62.9802
 20
78.0696
 30
0
 70
     0
  0
VERTEX
  8
DV1_DEFAULT
 10
62.9869
 20
78.0569
 30
0
 70
     0
  0
VERTEX
  8
DV1_DEFAULT
 10
62.9934
 20
78.0438
 30
0
 70
     0
  0
VERTEX
  8
DV1_DEFAULT
 10
62.9999
 20
78.0304
 30
0
 70
     0
  0
VERTEX
  8
DV1_DEFAULT
 10
63.0064
 20
78.0167
 30
0
 70
     0
  0
VERTEX
  8
DV1_DEFAULT
 10
63.0127
 20
78.0028
 30
0
 70
     0
  0
VERTEX
  8
DV1_DEFAULT
 10
63.019
 20
77.9885
 30
0
 70
     0
  0
VERTEX
  8
DV1_DEFAULT
 10
63.0252
 20
77.9739
 30
0
 70
     0
  0
VERTEX
  8
DV1_DEFAULT
 10
63.0313
 20
77.9591
 30
0
 70
     0
  0
VERTEX
  8
DV1_DEFAULT
 10
63.0374
 20
77.9439
 30
0
 70
     0
  0
VERTEX
  8
DV1_DEFAULT
 10
63.0434
 20
77.9285
 30
0
 70
     0
  0
VERTEX
  8
DV1_DEFAULT
 10
63.0493
 20
77.9127
 30
0
 70
     0
  0
VERTEX
  8
DV1_DEFAULT
 10
63.0552
 20
77.8966
 30
0
 70
     0
  0
VERTEX
  8
DV1_DEFAULT
 10
63.0609
 20
77.8803
 30
0
 70
     0
  0
VERTEX
  8
DV1_DEFAULT
 10
63.0666
 20
77.8637
 30
0
 70
     0
  0
VERTEX
  8
DV1_DEFAULT
 10
63.0721
 20
77.8469
 30
0
 70
     0
  0
VERTEX
  8
DV1_DEFAULT
 10
63.0776
 20
77.8298
 30
0
 70
     0
  0
VERTEX
  8
DV1_DEFAULT
 10
63.083
 20
77.8124
 30
0
 70
     0
  0
VERTEX
  8
DV1_DEFAULT
 10
63.0883
 20
77.7948
 30
0
 70
     0
  0
VERTEX
  8
DV1_DEFAULT
 10
63.0935
 20
77.7769
 30
0
 70
     0
  0
VERTEX
  8
DV1_DEFAULT
 10
63.0986
 20
77.7588
 30
0
 70
     0
  0
VERTEX
  8
DV1_DEFAULT
 10
63.1037
 20
77.7404
 30
0
 70
     0
  0
VERTEX
  8
DV1_DEFAULT
 10
63.1086
 20
77.7217
 30
0
 70
     0
  0
VERTEX
  8
DV1_DEFAULT
 10
63.1135
 20
77.7028
 30
0
 70
     0
  0
VERTEX
  8
DV1_DEFAULT
 10
63.1182
 20
77.6836
 30
0
 70
     0
  0
VERTEX
  8
DV1_DEFAULT
 10
63.1229
 20
77.6641
 30
0
 70
     0
  0
VERTEX
  8
DV1_DEFAULT
 10
63.1275
 20
77.6444
 30
0
 70
     0
  0
VERTEX
  8
DV1_DEFAULT
 10
63.132
 20
77.6245
 30
0
 70
     0
  0
VERTEX
  8
DV1_DEFAULT
 10
63.1364
 20
77.6043
 30
0
 70
     0
  0
VERTEX
  8
DV1_DEFAULT
 10
63.1407
 20
77.5838
 30
0
 70
     0
  0
VERTEX
  8
DV1_DEFAULT
 10
63.1449
 20
77.563
 30
0
 70
     0
  0
VERTEX
  8
DV1_DEFAULT
 10
63.1491
 20
77.542
 30
0
 70
     0
  0
VERTEX
  8
DV1_DEFAULT
 10
63.1531
 20
77.5208
 30
0
 70
     0
  0
VERTEX
  8
DV1_DEFAULT
 10
63.1571
 20
77.4993
 30
0
 70
     0
  0
VERTEX
  8
DV1_DEFAULT
 10
63.161
 20
77.4775
 30
0
 70
     0
  0
VERTEX
  8
DV1_DEFAULT
 10
63.1684
 20
77.4331
 30
0
 70
     0
  0
VERTEX
  8
DV1_DEFAULT
 10
63.172
 20
77.4106
 30
0
 70
     0
  0
VERTEX
  8
DV1_DEFAULT
 10
63.1755
 20
77.3877
 30
0
 70
     0
  0
VERTEX
  8
DV1_DEFAULT
 10
63.1789
 20
77.3647
 30
0
 70
     0
  0
VERTEX
  8
DV1_DEFAULT
 10
63.1822
 20
77.3413
 30
0
 70
     0
  0
VERTEX
  8
DV1_DEFAULT
 10
63.1886
 20
77.2938
 30
0
 70
     0
  0
VERTEX
  8
DV1_DEFAULT
 10
63.1946
 20
77.2453
 30
0
 70
     0
  0
VERTEX
  8
DV1_DEFAULT
 10
63.1974
 20
77.2206
 30
0
 70
     0
  0
VERTEX
  8
DV1_DEFAULT
 10
63.2028
 20
77.1704
 30
0
 70
     0
  0
VERTEX
  8
DV1_DEFAULT
 10
63.2054
 20
77.1449
 30
0
 70
     0
  0
VERTEX
  8
DV1_DEFAULT
 10
63.2102
 20
77.0931
 30
0
 70
     0
  0
VERTEX
  8
DV1_DEFAULT
 10
63.2146
 20
77.0402
 30
0
 70
     0
  0
VERTEX
  8
DV1_DEFAULT
 10
63.2167
 20
77.0134
 30
0
 70
     0
  0
VERTEX
  8
DV1_DEFAULT
 10
63.2205
 20
76.9588
 30
0
 70
     0
  0
VERTEX
  8
DV1_DEFAULT
 10
63.2223
 20
76.9311
 30
0
 70
     0
  0
VERTEX
  8
DV1_DEFAULT
 10
63.2255
 20
76.8749
 30
0
 70
     0
  0
VERTEX
  8
DV1_DEFAULT
 10
63.227
 20
76.8463
 30
0
 70
     0
  0
VERTEX
  8
DV1_DEFAULT
 10
63.2283
 20
76.8176
 30
0
 70
     0
  0
VERTEX
  8
DV1_DEFAULT
 10
63.2307
 20
76.7595
 30
0
 70
     0
  0
VERTEX
  8
DV1_DEFAULT
 10
63.2317
 20
76.7302
 30
0
 70
     0
  0
SEQEND
  0
POLYLINE
  8
DV1_DEFAULT
  6
CONTINUOUS
 62
     7
 66
     1
 40
0
 41
0
  0
VERTEX
  8
DV1_DEFAULT
 10
57.7953
 20
74.1191
 30
0
 70
     0
  0
VERTEX
  8
DV1_DEFAULT
 10
56.2294
 20
73.9168
 30
0
 70
     0
  0
VERTEX
  8
DV1_DEFAULT
 10
54.6656
 20
73.7021
 30
0
 70
     0
  0
VERTEX
  8
DV1_DEFAULT
 10
53.1038
 20
73.4752
 30
0
 70
     0
  0
VERTEX
  8
DV1_DEFAULT
 10
51.5442
 20
73.2359
 30
0
 70
     0
  0
VERTEX
  8
DV1_DEFAULT
 10
49.9868
 20
72.9843
 30
0
 70
     0
  0
VERTEX
  8
DV1_DEFAULT
 10
48.4317
 20
72.7204
 30
0
 70
     0
  0
VERTEX
  8
DV1_DEFAULT
 10
46.879
 20
72.4443
 30
0
 70
     0
  0
VERTEX
  8
DV1_DEFAULT
 10
45.3287
 20
72.1559
 30
0
 70
     0
  0
VERTEX
  8
DV1_DEFAULT
 10
43.781
 20
71.8553
 30
0
 70
     0
  0
VERTEX
  8
DV1_DEFAULT
 10
42.2358
 20
71.5425
 30
0
 70
     0
  0
VERTEX
  8
DV1_DEFAULT
 10
40.6933
 20
71.2175
 30
0
 70
     0
  0
VERTEX
  8
DV1_DEFAULT
 10
39.1535
 20
70.8804
 30
0
 70
     0
  0
VERTEX
  8
DV1_DEFAULT
 10
37.6166
 20
70.5311
 30
0
 70
     0
  0
VERTEX
  8
DV1_DEFAULT
 10
36.0825
 20
70.1697
 30
0
 70
     0
  0
VERTEX
  8
DV1_DEFAULT
 10
34.5513
 20
69.7962
 30
0
 70
     0
  0
VERTEX
  8
DV1_DEFAULT
 10
33.0232
 20
69.4106
 30
0
 70
     0
  0
VERTEX
  8
DV1_DEFAULT
 10
31.4982
 20
69.0129
 30
0
 70
     0
  0
VERTEX
  8
DV1_DEFAULT
 10
29.9764
 20
68.6032
 30
0
 70
     0
  0
VERTEX
  8
DV1_DEFAULT
 10
28.4578
 20
68.1814
 30
0
 70
     0
  0
VERTEX
  8
DV1_DEFAULT
 10
26.9425
 20
67.7476
 30
0
 70
     0
  0
VERTEX
  8
DV1_DEFAULT
 10
25.4306
 20
67.3019
 30
0
 70
     0
  0
VERTEX
  8
DV1_DEFAULT
 10
23.9221
 20
66.8441
 30
0
 70
     0
  0
VERTEX
  8
DV1_DEFAULT
 10
22.4172
 20
66.3744
 30
0
 70
     0
  0
VERTEX
  8
DV1_DEFAULT
 10
20.9159
 20
65.8927
 30
0
 70
     0
  0
VERTEX
  8
DV1_DEFAULT
 10
19.4183
 20
65.3992
 30
0
 70
     0
  0
VERTEX
  8
DV1_DEFAULT
 10
17.9244
 20
64.8937
 30
0
 70
     0
  0
VERTEX
  8
DV1_DEFAULT
 10
16.4343
 20
64.3763
 30
0
 70
     0
  0
VERTEX
  8
DV1_DEFAULT
 10
14.9482
 20
63.8471
 30
0
 70
     0
  0
VERTEX
  8
DV1_DEFAULT
 10
13.466
 20
63.306
 30
0
 70
     0
  0
VERTEX
  8
DV1_DEFAULT
 10
11.9878
 20
62.7531
 30
0
 70
     0
  0
VERTEX
  8
DV1_DEFAULT
 10
10.5138
 20
62.1884
 30
0
 70
     0
  0
VERTEX
  8
DV1_DEFAULT
 10
9.0439
 20
61.6119
 30
0
 70
     0
  0
SEQEND
  0
POLYLINE
  8
DV1_DEFAULT
  6
CONTINUOUS
 62
     7
 66
     1
 40
0
 41
0
  0
VERTEX
  8
DV1_DEFAULT
 10
85.3754
 20
24.1937
 30
0
 70
     0
  0
VERTEX
  8
DV1_DEFAULT
 10
85.3657
 20
24.5436
 30
0
 70
     0
  0
VERTEX
  8
DV1_DEFAULT
 10
85.3365
 20
24.8876
 30
0
 70
     0
  0
VERTEX
  8
DV1_DEFAULT
 10
85.2884
 20
25.2253
 30
0
 70
     0
  0
VERTEX
  8
DV1_DEFAULT
 10
85.2219
 20
25.556
 30
0
 70
     0
  0
VERTEX
  8
DV1_DEFAULT
 10
85.1377
 20
25.8795
 30
0
 70
     0
  0
VERTEX
  8
DV1_DEFAULT
 10
85.0362
 20
26.1951
 30
0
 70
     0
  0
VERTEX
  8
DV1_DEFAULT
 10
84.9182
 20
26.5024
 30
0
 70
     0
  0
VERTEX
  8
DV1_DEFAULT
 10
84.784
 20
26.801
 30
0
 70
     0
  0
VERTEX
  8
DV1_DEFAULT
 10
84.6345
 20
27.0903
 30
0
 70
     0
  0
VERTEX
  8
DV1_DEFAULT
 10
84.47
 20
27.3698
 30
0
 70
     0
  0
VERTEX
  8
DV1_DEFAULT
 10
84.2912
 20
27.6392
 30
0
 70
     0
  0
VERTEX
  8
DV1_DEFAULT
 10
84.0987
 20
27.8979
 30
0
 70
     0
  0
VERTEX
  8
DV1_DEFAULT
 10
83.8931
 20
28.1453
 30
0
 70
     0
  0
VERTEX
  8
DV1_DEFAULT
 10
83.6749
 20
28.3812
 30
0
 70
     0
  0
VERTEX
  8
DV1_DEFAULT
 10
83.4447
 20
28.6049
 30
0
 70
     0
  0
VERTEX
  8
DV1_DEFAULT
 10
83.2031
 20
28.816
 30
0
 70
     0
  0
VERTEX
  8
DV1_DEFAULT
 10
82.9506
 20
29.0141
 30
0
 70
     0
  0
VERTEX
  8
DV1_DEFAULT
 10
82.6879
 20
29.1985
 30
0
 70
     0
  0
VERTEX
  8
DV1_DEFAULT
 10
82.4155
 20
29.3689
 30
0
 70
     0
  0
VERTEX
  8
DV1_DEFAULT
 10
82.134
 20
29.5248
 30
0
 70
     0
  0
VERTEX
  8
DV1_DEFAULT
 10
81.844
 20
29.6657
 30
0
 70
     0
  0
VERTEX
  8
DV1_DEFAULT
 10
81.546
 20
29.7912
 30
0
 70
     0
  0
VERTEX
  8
DV1_DEFAULT
 10
81.2407
 20
29.9006
 30
0
 70
     0
  0
VERTEX
  8
DV1_DEFAULT
 10
80.9286
 20
29.9936
 30
0
 70
     0
  0
VERTEX
  8
DV1_DEFAULT
 10
80.6103
 20
30.0697
 30
0
 70
     0
  0
VERTEX
  8
DV1_DEFAULT
 10
80.2863
 20
30.1284
 30
0
 70
     0
  0
VERTEX
  8
DV1_DEFAULT
 10
79.9573
 20
30.1693
 30
0
 70
     0
  0
VERTEX
  8
DV1_DEFAULT
 10
79.6238
 20
30.1917
 30
0
 70
     0
  0
VERTEX
  8
DV1_DEFAULT
 10
79.2865
 20
30.1954
 30
0
 70
     0
  0
VERTEX
  8
DV1_DEFAULT
 10
78.9458
 20
30.1797
 30
0
 70
     0
  0
VERTEX
  8
DV1_DEFAULT
 10
78.6024
 20
30.1442
 30
0
 70
     0
  0
VERTEX
  8
DV1_DEFAULT
 10
78.2568
 20
30.0885
 30
0
 70
     0
  0
VERTEX
  8
DV1_DEFAULT
 10
78.2568
 20
30.0885
 30
0
 70
     0
  0
VERTEX
  8
DV1_DEFAULT
 10
77.9148
 20
30.0138
 30
0
 70
     0
  0
VERTEX
  8
DV1_DEFAULT
 10
77.5823
 20
29.921
 30
0
 70
     0
  0
VERTEX
  8
DV1_DEFAULT
 10
77.2595
 20
29.8108
 30
0
 70
     0
  0
VERTEX
  8
DV1_DEFAULT
 10
76.9469
 20
29.6838
 30
0
 70
     0
  0
VERTEX
  8
DV1_DEFAULT
 10
76.6449
 20
29.5407
 30
0
 70
     0
  0
VERTEX
  8
DV1_DEFAULT
 10
76.3537
 20
29.3822
 30
0
 70
     0
  0
VERTEX
  8
DV1_DEFAULT
 10
76.0738
 20
29.2089
 30
0
 70
     0
  0
VERTEX
  8
DV1_DEFAULT
 10
75.8055
 20
29.0215
 30
0
 70
     0
  0
VERTEX
  8
DV1_DEFAULT
 10
75.5491
 20
28.8206
 30
0
 70
     0
  0
VERTEX
  8
DV1_DEFAULT
 10
75.3051
 20
28.6069
 30
0
 70
     0
  0
VERTEX
  8
DV1_DEFAULT
 10
75.0738
 20
28.3811
 30
0
 70
     0
  0
VERTEX
  8
DV1_DEFAULT
 10
74.8556
 20
28.1437
 30
0
 70
     0
  0
VERTEX
  8
DV1_DEFAULT
 10
74.6507
 20
27.8955
 30
0
 70
     0
  0
VERTEX
  8
DV1_DEFAULT
 10
74.4597
 20
27.6372
 30
0
 70
     0
  0
VERTEX
  8
DV1_DEFAULT
 10
74.2828
 20
27.3693
 30
0
 70
     0
  0
VERTEX
  8
DV1_DEFAULT
 10
74.1205
 20
27.0926
 30
0
 70
     0
  0
VERTEX
  8
DV1_DEFAULT
 10
73.973
 20
26.8076
 30
0
 70
     0
  0
VERTEX
  8
DV1_DEFAULT
 10
73.8407
 20
26.5151
 30
0
 70
     0
  0
VERTEX
  8
DV1_DEFAULT
 10
73.7241
 20
26.2157
 30
0
 70
     0
  0
VERTEX
  8
DV1_DEFAULT
 10
73.6234
 20
25.9101
 30
0
 70
     0
  0
VERTEX
  8
DV1_DEFAULT
 10
73.539
 20
25.5989
 30
0
 70
     0
  0
VERTEX
  8
DV1_DEFAULT
 10
73.4714
 20
25.2828
 30
0
 70
     0
  0
VERTEX
  8
DV1_DEFAULT
 10
73.4207
 20
24.9624
 30
0
 70
     0
  0
VERTEX
  8
DV1_DEFAULT
 10
73.3875
 20
24.6384
 30
0
 70
     0
  0
VERTEX
  8
DV1_DEFAULT
 10
73.3721
 20
24.3115
 30
0
 70
     0
  0
VERTEX
  8
DV1_DEFAULT
 10
73.3748
 20
23.9823
 30
0
 70
     0
  0
VERTEX
  8
DV1_DEFAULT
 10
73.3961
 20
23.6514
 30
0
 70
     0
  0
VERTEX
  8
DV1_DEFAULT
 10
73.4361
 20
23.3196
 30
0
 70
     0
  0
VERTEX
  8
DV1_DEFAULT
 10
73.4955
 20
22.9875
 30
0
 70
     0
  0
VERTEX
  8
DV1_DEFAULT
 10
73.5744
 20
22.6557
 30
0
 70
     0
  0
VERTEX
  8
DV1_DEFAULT
 10
73.6732
 20
22.3249
 30
0
 70
     0
  0
VERTEX
  8
DV1_DEFAULT
 10
73.7924
 20
21.9958
 30
0
 70
     0
  0
SEQEND
  0
POLYLINE
  8
DV1_DEFAULT
  6
CONTINUOUS
 62
     7
 66
     1
 40
0
 41
0
  0
VERTEX
  8
DV1_DEFAULT
 10
75.0889
 20
19.9953
 30
0
 70
     0
  0
VERTEX
  8
DV1_DEFAULT
 10
75.3136
 20
19.7771
 30
0
 70
     0
  0
VERTEX
  8
DV1_DEFAULT
 10
75.5466
 20
19.5729
 30
0
 70
     0
  0
VERTEX
  8
DV1_DEFAULT
 10
75.7873
 20
19.3828
 30
0
 70
     0
  0
VERTEX
  8
DV1_DEFAULT
 10
76.0353
 20
19.2068
 30
0
 70
     0
  0
VERTEX
  8
DV1_DEFAULT
 10
76.29
 20
19.0449
 30
0
 70
     0
  0
VERTEX
  8
DV1_DEFAULT
 10
76.5508
 20
18.897
 30
0
 70
     0
  0
VERTEX
  8
DV1_DEFAULT
 10
76.8172
 20
18.7632
 30
0
 70
     0
  0
VERTEX
  8
DV1_DEFAULT
 10
77.0886
 20
18.6435
 30
0
 70
     0
  0
VERTEX
  8
DV1_DEFAULT
 10
77.3644
 20
18.5378
 30
0
 70
     0
  0
VERTEX
  8
DV1_DEFAULT
 10
77.6441
 20
18.4463
 30
0
 70
     0
  0
VERTEX
  8
DV1_DEFAULT
 10
77.9272
 20
18.3688
 30
0
 70
     0
  0
VERTEX
  8
DV1_DEFAULT
 10
78.213
 20
18.3053
 30
0
 70
     0
  0
VERTEX
  8
DV1_DEFAULT
 10
78.5011
 20
18.256
 30
0
 70
     0
  0
VERTEX
  8
DV1_DEFAULT
 10
78.7908
 20
18.2207
 30
0
 70
     0
  0
VERTEX
  8
DV1_DEFAULT
 10
79.0817
 20
18.1994
 30
0
 70
     0
  0
VERTEX
  8
DV1_DEFAULT
 10
79.3731
 20
18.1923
 30
0
 70
     0
  0
VERTEX
  8
DV1_DEFAULT
 10
79.6646
 20
18.1992
 30
0
 70
     0
  0
VERTEX
  8
DV1_DEFAULT
 10
79.9554
 20
18.2202
 30
0
 70
     0
  0
VERTEX
  8
DV1_DEFAULT
 10
80.2452
 20
18.2553
 30
0
 70
     0
  0
VERTEX
  8
DV1_DEFAULT
 10
80.5333
 20
18.3045
 30
0
 70
     0
  0
VERTEX
  8
DV1_DEFAULT
 10
80.8192
 20
18.3677
 30
0
 70
     0
  0
VERTEX
  8
DV1_DEFAULT
 10
81.1023
 20
18.445
 30
0
 70
     0
  0
VERTEX
  8
DV1_DEFAULT
 10
81.3821
 20
18.5364
 30
0
 70
     0
  0
VERTEX
  8
DV1_DEFAULT
 10
81.658
 20
18.6418
 30
0
 70
     0
  0
VERTEX
  8
DV1_DEFAULT
 10
81.9295
 20
18.7613
 30
0
 70
     0
  0
VERTEX
  8
DV1_DEFAULT
 10
82.196
 20
18.8949
 30
0
 70
     0
  0
VERTEX
  8
DV1_DEFAULT
 10
82.4569
 20
19.0426
 30
0
 70
     0
  0
VERTEX
  8
DV1_DEFAULT
 10
82.7117
 20
19.2043
 30
0
 70
     0
  0
VERTEX
  8
DV1_DEFAULT
 10
82.9598
 20
19.3802
 30
0
 70
     0
  0
VERTEX
  8
DV1_DEFAULT
 10
83.2007
 20
19.5701
 30
0
 70
     0
  0
VERTEX
  8
DV1_DEFAULT
 10
83.4339
 20
19.7741
 30
0
 70
     0
  0
VERTEX
  8
DV1_DEFAULT
 10
83.6587
 20
19.9921
 30
0
 70
     0
  0
SEQEND
  0
POLYLINE
  8
DV1_DEFAULT
  6
CONTINUOUS
 62
     7
 66
     1
 40
0
 41
0
  0
VERTEX
  8
DV1_DEFAULT
 10
84.9567
 20
21.9916
 30
0
 70
     0
  0
VERTEX
  8
DV1_DEFAULT
 10
85.0542
 20
22.2563
 30
0
 70
     0
  0
VERTEX
  8
DV1_DEFAULT
 10
85.139
 20
22.5249
 30
0
 70
     0
  0
VERTEX
  8
DV1_DEFAULT
 10
85.2109
 20
22.7969
 30
0
 70
     0
  0
VERTEX
  8
DV1_DEFAULT
 10
85.27
 20
23.0718
 30
0
 70
     0
  0
VERTEX
  8
DV1_DEFAULT
 10
85.316
 20
23.3491
 30
0
 70
     0
  0
VERTEX
  8
DV1_DEFAULT
 10
85.349
 20
23.6285
 30
0
 70
     0
  0
VERTEX
  8
DV1_DEFAULT
 10
85.3688
 20
23.9095
 30
0
 70
     0
  0
VERTEX
  8
DV1_DEFAULT
 10
85.3754
 20
24.1915
 30
0
 70
     0
  0
SEQEND
  0
POLYLINE
  8
DV1_DEFAULT
  6
CONTINUOUS
 62
     7
 66
     1
 40
0
 41
0
  0
VERTEX
  8
DV1_DEFAULT
 10
96.125
 20
42.1937
 30
0
 70
     0
  0
VERTEX
  8
DV1_DEFAULT
 10
95.7888
 20
42.1845
 30
0
 70
     0
  0
VERTEX
  8
DV1_DEFAULT
 10
95.4556
 20
42.1567
 30
0
 70
     0
  0
VERTEX
  8
DV1_DEFAULT
 10
95.1259
 20
42.1106
 30
0
 70
     0
  0
VERTEX
  8
DV1_DEFAULT
 10
94.8005
 20
42.0465
 30
0
 70
     0
  0
VERTEX
  8
DV1_DEFAULT
 10
94.4801
 20
41.9647
 30
0
 70
     0
  0
VERTEX
  8
DV1_DEFAULT
 10
94.1653
 20
41.8656
 30
0
 70
     0
  0
VERTEX
  8
DV1_DEFAULT
 10
93.8569
 20
41.7495
 30
0
 70
     0
  0
VERTEX
  8
DV1_DEFAULT
 10
93.5555
 20
41.6168
 30
0
 70
     0
  0
VERTEX
  8
DV1_DEFAULT
 10
93.2619
 20
41.4676
 30
0
 70
     0
  0
VERTEX
  8
DV1_DEFAULT
 10
92.9767
 20
41.3025
 30
0
 70
     0
  0
VERTEX
  8
DV1_DEFAULT
 10
92.7007
 20
41.1217
 30
0
 70
     0
  0
VERTEX
  8
DV1_DEFAULT
 10
92.4345
 20
40.9255
 30
0
 70
     0
  0
VERTEX
  8
DV1_DEFAULT
 10
92.1788
 20
40.7143
 30
0
 70
     0
  0
VERTEX
  8
DV1_DEFAULT
 10
91.9343
 20
40.4883
 30
0
 70
     0
  0
VERTEX
  8
DV1_DEFAULT
 10
91.7017
 20
40.248
 30
0
 70
     0
  0
VERTEX
  8
DV1_DEFAULT
 10
91.4817
 20
39.9937
 30
0
 70
     0
  0
SEQEND
  0
POLYLINE
  8
DV1_DEFAULT
  6
CONTINUOUS
 62
     7
 66
     1
 40
0
 41
0
  0
VERTEX
  8
DV1_DEFAULT
 10
90.4014
 20
37.9937
 30
0
 70
     0
  0
VERTEX
  8
DV1_DEFAULT
 10
90.3367
 20
37.7742
 30
0
 70
     0
  0
VERTEX
  8
DV1_DEFAULT
 10
90.2806
 20
37.5527
 30
0
 70
     0
  0
VERTEX
  8
DV1_DEFAULT
 10
90.2331
 20
37.3293
 30
0
 70
     0
  0
VERTEX
  8
DV1_DEFAULT
 10
90.1941
 20
37.1043
 30
0
 70
     0
  0
VERTEX
  8
DV1_DEFAULT
 10
90.1638
 20
36.878
 30
0
 70
     0
  0
VERTEX
  8
DV1_DEFAULT
 10
90.1421
 20
36.6507
 30
0
 70
     0
  0
VERTEX
  8
DV1_DEFAULT
 10
90.1292
 20
36.4225
 30
0
 70
     0
  0
VERTEX
  8
DV1_DEFAULT
 10
90.125
 20
36.1937
 30
0
 70
     0
  0
SEQEND
  0
POLYLINE
  8
DV1_DEFAULT
  6
CONTINUOUS
 62
     7
 66
     1
 40
0
 41
0
  0
VERTEX
  8
DV1_DEFAULT
 10
132.125
 20
36.1915
 30
0
 70
     0
  0
VERTEX
  8
DV1_DEFAULT
 10
132.1175
 20
36.5003
 30
0
 70
     0
  0
VERTEX
  8
DV1_DEFAULT
 10
132.0947
 20
36.8051
 30
0
 70
     0
  0
VERTEX
  8
DV1_DEFAULT
 10
132.0568
 20
37.1054
 30
0
 70
     0
  0
VERTEX
  8
DV1_DEFAULT
 10
132.0043
 20
37.401
 30
0
 70
     0
  0
VERTEX
  8
DV1_DEFAULT
 10
131.9375
 20
37.6914
 30
0
 70
     0
  0
VERTEX
  8
DV1_DEFAULT
 10
131.8568
 20
37.9762
 30
0
 70
     0
  0
VERTEX
  8
DV1_DEFAULT
 10
131.7626
 20
38.2552
 30
0
 70
     0
  0
VERTEX
  8
DV1_DEFAULT
 10
131.6553
 20
38.5278
 30
0
 70
     0
  0
VERTEX
  8
DV1_DEFAULT
 10
131.5353
 20
38.7937
 30
0
 70
     0
  0
VERTEX
  8
DV1_DEFAULT
 10
131.4029
 20
39.0525
 30
0
 70
     0
  0
VERTEX
  8
DV1_DEFAULT
 10
131.2585
 20
39.304
 30
0
 70
     0
  0
VERTEX
  8
DV1_DEFAULT
 10
131.1025
 20
39.5476
 30
0
 70
     0
  0
VERTEX
  8
DV1_DEFAULT
 10
130.9352
 20
39.783
 30
0
 70
     0
  0
VERTEX
  8
DV1_DEFAULT
 10
130.7571
 20
40.0098
 30
0
 70
     0
  0
VERTEX
  8
DV1_DEFAULT
 10
130.5685
 20
40.2276
 30
0
 70
     0
  0
VERTEX
  8
DV1_DEFAULT
 10
130.3698
 20
40.4362
 30
0
 70
     0
  0
VERTEX
  8
DV1_DEFAULT
 10
130.1614
 20
40.635
 30
0
 70
     0
  0
VERTEX
  8
DV1_DEFAULT
 10
129.9436
 20
40.8237
 30
0
 70
     0
  0
VERTEX
  8
DV1_DEFAULT
 10
129.7169
 20
41.0019
 30
0
 70
     0
  0
VERTEX
  8
DV1_DEFAULT
 10
129.4816
 20
41.1693
 30
0
 70
     0
  0
VERTEX
  8
DV1_DEFAULT
 10
129.2381
 20
41.3255
 30
0
 70
     0
  0
VERTEX
  8
DV1_DEFAULT
 10
128.9868
 20
41.47
 30
0
 70
     0
  0
VERTEX
  8
DV1_DEFAULT
 10
128.728
 20
41.6026
 30
0
 70
     0
  0
VERTEX
  8
DV1_DEFAULT
 10
128.4621
 20
41.7228
 30
0
 70
     0
  0
VERTEX
  8
DV1_DEFAULT
 10
128.1896
 20
41.8302
 30
0
 70
     0
  0
VERTEX
  8
DV1_DEFAULT
 10
127.9107
 20
41.9245
 30
0
 70
     0
  0
VERTEX
  8
DV1_DEFAULT
 10
127.6259
 20
42.0054
 30
0
 70
     0
  0
VERTEX
  8
DV1_DEFAULT
 10
127.3355
 20
42.0723
 30
0
 70
     0
  0
VERTEX
  8
DV1_DEFAULT
 10
127.04
 20
42.125
 30
0
 70
     0
  0
VERTEX
  8
DV1_DEFAULT
 10
126.7397
 20
42.163
 30
0
 70
     0
  0
VERTEX
  8
DV1_DEFAULT
 10
126.4349
 20
42.1861
 30
0
 70
     0
  0
VERTEX
  8
DV1_DEFAULT
 10
126.1261
 20
42.1937
 30
0
 70
     0
  0
SEQEND
  0
POLYLINE
  8
DV1_DEFAULT
  6
CONTINUOUS
 62
     7
 66
     1
 40
0
 41
0
  0
VERTEX
  8
DV1_DEFAULT
 10
90.125
 20
24.1937
 30
0
 70
     0
  0
VERTEX
  8
DV1_DEFAULT
 10
90.1314
 20
23.912
 30
0
 70
     0
  0
VERTEX
  8
DV1_DEFAULT
 10
90.1511
 20
23.6313
 30
0
 70
     0
  0
VERTEX
  8
DV1_DEFAULT
 10
90.1839
 20
23.3522
 30
0
 70
     0
  0
VERTEX
  8
DV1_DEFAULT
 10
90.2297
 20
23.075
 30
0
 70
     0
  0
VERTEX
  8
DV1_DEFAULT
 10
90.2886
 20
22.8004
 30
0
 70
     0
  0
VERTEX
  8
DV1_DEFAULT
 10
90.3603
 20
22.5286
 30
0
 70
     0
  0
VERTEX
  8
DV1_DEFAULT
 10
90.4448
 20
22.2603
 30
0
 70
     0
  0
VERTEX
  8
DV1_DEFAULT
 10
90.5421
 20
21.9958
 30
0
 70
     0
  0
SEQEND
  0
POLYLINE
  8
DV1_DEFAULT
  6
CONTINUOUS
 62
     7
 66
     1
 40
0
 41
0
  0
VERTEX
  8
DV1_DEFAULT
 10
91.8386
 20
19.9953
 30
0
 70
     0
  0
VERTEX
  8
DV1_DEFAULT
 10
92.0547
 20
19.7851
 30
0
 70
     0
  0
VERTEX
  8
DV1_DEFAULT
 10
92.2801
 20
19.5869
 30
0
 70
     0
  0
VERTEX
  8
DV1_DEFAULT
 10
92.5143
 20
19.401
 30
0
 70
     0
  0
VERTEX
  8
DV1_DEFAULT
 10
92.7568
 20
19.2274
 30
0
 70
     0
  0
VERTEX
  8
DV1_DEFAULT
 10
93.007
 20
19.0666
 30
0
 70
     0
  0
VERTEX
  8
DV1_DEFAULT
 10
93.2644
 20
18.9186
 30
0
 70
     0
  0
VERTEX
  8
DV1_DEFAULT
 10
93.5285
 20
18.7836
 30
0
 70
     0
  0
VERTEX
  8
DV1_DEFAULT
 10
93.7988
 20
18.662
 30
0
 70
     0
  0
VERTEX
  8
DV1_DEFAULT
 10
94.0748
 20
18.5539
 30
0
 70
     0
  0
VERTEX
  8
DV1_DEFAULT
 10
94.356
 20
18.4595
 30
0
 70
     0
  0
VERTEX
  8
DV1_DEFAULT
 10
94.6418
 20
18.3791
 30
0
 70
     0
  0
VERTEX
  8
DV1_DEFAULT
 10
94.9318
 20
18.3128
 30
0
 70
     0
  0
VERTEX
  8
DV1_DEFAULT
 10
95.2253
 20
18.2609
 30
0
 70
     0
  0
VERTEX
  8
DV1_DEFAULT
 10
95.5221
 20
18.2236
 30
0
 70
     0
  0
VERTEX
  8
DV1_DEFAULT
 10
95.8214
 20
18.2012
 30
0
 70
     0
  0
VERTEX
  8
DV1_DEFAULT
 10
96.1228
 20
18.1937
 30
0
 70
     0
  0
SEQEND
  0
POLYLINE
  8
DV1_DEFAULT
  6
CONTINUOUS
 62
     7
 66
     1
 40
0
 41
0
  0
VERTEX
  8
DV1_DEFAULT
 10
126.1228
 20
18.1937
 30
0
 70
     0
  0
VERTEX
  8
DV1_DEFAULT
 10
126.4315
 20
18.2012
 30
0
 70
     0
  0
VERTEX
  8
DV1_DEFAULT
 10
126.7363
 20
18.224
 30
0
 70
     0
  0
VERTEX
  8
DV1_DEFAULT
 10
127.0366
 20
18.2619
 30
0
 70
     0
  0
VERTEX
  8
DV1_DEFAULT
 10
127.3321
 20
18.3144
 30
0
 70
     0
  0
VERTEX
  8
DV1_DEFAULT
 10
127.6225
 20
18.3812
 30
0
 70
     0
  0
VERTEX
  8
DV1_DEFAULT
 10
127.9073
 20
18.4618
 30
0
 70
     0
  0
VERTEX
  8
DV1_DEFAULT
 10
128.1862
 20
18.556
 30
0
 70
     0
  0
VERTEX
  8
DV1_DEFAULT
 10
128.4588
 20
18.6632
 30
0
 70
     0
  0
VERTEX
  8
DV1_DEFAULT
 10
128.7247
 20
18.7833
 30
0
 70
     0
  0
VERTEX
  8
DV1_DEFAULT
 10
128.9835
 20
18.9156
 30
0
 70
     0
  0
VERTEX
  8
DV1_DEFAULT
 10
129.2349
 20
19.06
 30
0
 70
     0
  0
VERTEX
  8
DV1_DEFAULT
 10
129.4785
 20
19.216
 30
0
 70
     0
  0
VERTEX
  8
DV1_DEFAULT
 10
129.7139
 20
19.3832
 30
0
 70
     0
  0
VERTEX
  8
DV1_DEFAULT
 10
129.9407
 20
19.5613
 30
0
 70
     0
  0
VERTEX
  8
DV1_DEFAULT
 10
130.1585
 20
19.7498
 30
0
 70
     0
  0
VERTEX
  8
DV1_DEFAULT
 10
130.367
 20
19.9485
 30
0
 70
     0
  0
VERTEX
  8
DV1_DEFAULT
 10
130.5658
 20
20.1569
 30
0
 70
     0
  0
VERTEX
  8
DV1_DEFAULT
 10
130.7546
 20
20.3746
 30
0
 70
     0
  0
VERTEX
  8
DV1_DEFAULT
 10
130.9328
 20
20.6012
 30
0
 70
     0
  0
VERTEX
  8
DV1_DEFAULT
 10
131.1002
 20
20.8365
 30
0
 70
     0
  0
VERTEX
  8
DV1_DEFAULT
 10
131.2564
 20
21.08
 30
0
 70
     0
  0
VERTEX
  8
DV1_DEFAULT
 10
131.4009
 20
21.3313
 30
0
 70
     0
  0
VERTEX
  8
DV1_DEFAULT
 10
131.5335
 20
21.59
 30
0
 70
     0
  0
VERTEX
  8
DV1_DEFAULT
 10
131.6537
 20
21.8558
 30
0
 70
     0
  0
VERTEX
  8
DV1_DEFAULT
 10
131.7612
 20
22.1283
 30
0
 70
     0
  0
VERTEX
  8
DV1_DEFAULT
 10
131.8556
 20
22.4071
 30
0
 70
     0
  0
VERTEX
  8
DV1_DEFAULT
 10
131.9364
 20
22.6919
 30
0
 70
     0
  0
VERTEX
  8
DV1_DEFAULT
 10
132.0034
 20
22.9822
 30
0
 70
     0
  0
VERTEX
  8
DV1_DEFAULT
 10
132.0561
 20
23.2777
 30
0
 70
     0
  0
VERTEX
  8
DV1_DEFAULT
 10
132.0942
 20
23.578
 30
0
 70
     0
  0
VERTEX
  8
DV1_DEFAULT
 10
132.1173
 20
23.8827
 30
0
 70
     0
  0
VERTEX
  8
DV1_DEFAULT
 10
132.125
 20
24.1915
 30
0
 70
     0
  0
SEQEND
  0
POLYLINE
  8
DV1_DEFAULT
  6
CONTINUOUS
 62
     7
 66
     1
 40
0
 41
0
  0
VERTEX
  8
DV1_DEFAULT
 10
126.1231
 20
18.1937
 30
0
 70
     0
  0
VERTEX
  8
DV1_DEFAULT
 10
126.4319
 20
18.2012
 30
0
 70
     0
  0
VERTEX
  8
DV1_DEFAULT
 10
126.7366
 20
18.224
 30
0
 70
     0
  0
VERTEX
  8
DV1_DEFAULT
 10
127.037
 20
18.2619
 30
0
 70
     0
  0
VERTEX
  8
DV1_DEFAULT
 10
127.3325
 20
18.3144
 30
0
 70
     0
  0
VERTEX
  8
DV1_DEFAULT
 10
127.6229
 20
18.3812
 30
0
 70
     0
  0
VERTEX
  8
DV1_DEFAULT
 10
127.9077
 20
18.4618
 30
0
 70
     0
  0
VERTEX
  8
DV1_DEFAULT
 10
128.1866
 20
18.556
 30
0
 70
     0
  0
VERTEX
  8
DV1_DEFAULT
 10
128.4591
 20
18.6632
 30
0
 70
     0
  0
VERTEX
  8
DV1_DEFAULT
 10
128.725
 20
18.7833
 30
0
 70
     0
  0
VERTEX
  8
DV1_DEFAULT
 10
128.9839
 20
18.9156
 30
0
 70
     0
  0
VERTEX
  8
DV1_DEFAULT
 10
129.2353
 20
19.06
 30
0
 70
     0
  0
VERTEX
  8
DV1_DEFAULT
 10
129.4789
 20
19.216
 30
0
 70
     0
  0
VERTEX
  8
DV1_DEFAULT
 10
129.7142
 20
19.3832
 30
0
 70
     0
  0
VERTEX
  8
DV1_DEFAULT
 10
129.941
 20
19.5613
 30
0
 70
     0
  0
VERTEX
  8
DV1_DEFAULT
 10
130.1589
 20
19.7498
 30
0
 70
     0
  0
VERTEX
  8
DV1_DEFAULT
 10
130.3674
 20
19.9485
 30
0
 70
     0
  0
VERTEX
  8
DV1_DEFAULT
 10
130.5662
 20
20.1569
 30
0
 70
     0
  0
VERTEX
  8
DV1_DEFAULT
 10
130.7549
 20
20.3746
 30
0
 70
     0
  0
VERTEX
  8
DV1_DEFAULT
 10
130.9332
 20
20.6012
 30
0
 70
     0
  0
VERTEX
  8
DV1_DEFAULT
 10
131.1006
 20
20.8365
 30
0
 70
     0
  0
VERTEX
  8
DV1_DEFAULT
 10
131.2567
 20
21.08
 30
0
 70
     0
  0
VERTEX
  8
DV1_DEFAULT
 10
131.4013
 20
21.3313
 30
0
 70
     0
  0
VERTEX
  8
DV1_DEFAULT
 10
131.5339
 20
21.59
 30
0
 70
     0
  0
VERTEX
  8
DV1_DEFAULT
 10
131.6541
 20
21.8558
 30
0
 70
     0
  0
VERTEX
  8
DV1_DEFAULT
 10
131.7616
 20
22.1283
 30
0
 70
     0
  0
VERTEX
  8
DV1_DEFAULT
 10
131.8559
 20
22.4071
 30
0
 70
     0
  0
VERTEX
  8
DV1_DEFAULT
 10
131.9368
 20
22.6919
 30
0
 70
     0
  0
VERTEX
  8
DV1_DEFAULT
 10
132.0038
 20
22.9822
 30
0
 70
     0
  0
VERTEX
  8
DV1_DEFAULT
 10
132.0565
 20
23.2777
 30
0
 70
     0
  0
VERTEX
  8
DV1_DEFAULT
 10
132.0946
 20
23.578
 30
0
 70
     0
  0
VERTEX
  8
DV1_DEFAULT
 10
132.1177
 20
23.8827
 30
0
 70
     0
  0
VERTEX
  8
DV1_DEFAULT
 10
132.1254
 20
24.1915
 30
0
 70
     0
  0
SEQEND
  0
POLYLINE
  8
DV1_DEFAULT
  6
CONTINUOUS
 62
     7
 66
     1
 40
0
 41
0
  0
VERTEX
  8
DV1_DEFAULT
 10
68.5204
 20
110.3801
 30
0
 70
     0
  0
VERTEX
  8
DV1_DEFAULT
 10
68.2988
 20
110.3377
 30
0
 70
     0
  0
VERTEX
  8
DV1_DEFAULT
 10
68.0832
 20
110.2793
 30
0
 70
     0
  0
VERTEX
  8
DV1_DEFAULT
 10
67.8743
 20
110.2056
 30
0
 70
     0
  0
VERTEX
  8
DV1_DEFAULT
 10
67.6728
 20
110.1171
 30
0
 70
     0
  0
VERTEX
  8
DV1_DEFAULT
 10
67.4794
 20
110.0145
 30
0
 70
     0
  0
VERTEX
  8
DV1_DEFAULT
 10
67.2947
 20
109.8984
 30
0
 70
     0
  0
VERTEX
  8
DV1_DEFAULT
 10
67.1194
 20
109.7694
 30
0
 70
     0
  0
VERTEX
  8
DV1_DEFAULT
 10
66.9542
 20
109.6281
 30
0
 70
     0
  0
VERTEX
  8
DV1_DEFAULT
 10
66.7997
 20
109.4751
 30
0
 70
     0
  0
VERTEX
  8
DV1_DEFAULT
 10
66.6566
 20
109.3111
 30
0
 70
     0
  0
VERTEX
  8
DV1_DEFAULT
 10
66.5256
 20
109.1367
 30
0
 70
     0
  0
VERTEX
  8
DV1_DEFAULT
 10
66.4073
 20
108.9524
 30
0
 70
     0
  0
VERTEX
  8
DV1_DEFAULT
 10
66.3025
 20
108.759
 30
0
 70
     0
  0
VERTEX
  8
DV1_DEFAULT
 10
66.2117
 20
108.5569
 30
0
 70
     0
  0
VERTEX
  8
DV1_DEFAULT
 10
66.1357
 20
108.3469
 30
0
 70
     0
  0
VERTEX
  8
DV1_DEFAULT
 10
66.075
 20
108.1296
 30
0
 70
     0
  0
SEQEND
  0
POLYLINE
  8
DV1_DEFAULT
  6
CONTINUOUS
 62
     7
 66
     1
 40
0
 41
0
  0
VERTEX
  8
DV1_DEFAULT
 10
56.1254
 20
20.9937
 30
0
 70
     0
  0
VERTEX
  8
DV1_DEFAULT
 10
56.1188
 20
20.4809
 30
0
 70
     0
  0
VERTEX
  8
DV1_DEFAULT
 10
56.0992
 20
19.9711
 30
0
 70
     0
  0
VERTEX
  8
DV1_DEFAULT
 10
56.0666
 20
19.4644
 30
0
 70
     0
  0
VERTEX
  8
DV1_DEFAULT
 10
56.0213
 20
18.9611
 30
0
 70
     0
  0
VERTEX
  8
DV1_DEFAULT
 10
55.9635
 20
18.4612
 30
0
 70
     0
  0
VERTEX
  8
DV1_DEFAULT
 10
55.8932
 20
17.965
 30
0
 70
     0
  0
VERTEX
  8
DV1_DEFAULT
 10
55.8106
 20
17.4727
 30
0
 70
     0
  0
VERTEX
  8
DV1_DEFAULT
 10
55.716
 20
16.9843
 30
0
 70
     0
  0
VERTEX
  8
DV1_DEFAULT
 10
55.6095
 20
16.5001
 30
0
 70
     0
  0
VERTEX
  8
DV1_DEFAULT
 10
55.4912
 20
16.0201
 30
0
 70
     0
  0
VERTEX
  8
DV1_DEFAULT
 10
55.3612
 20
15.5447
 30
0
 70
     0
  0
VERTEX
  8
DV1_DEFAULT
 10
55.2199
 20
15.0738
 30
0
 70
     0
  0
VERTEX
  8
DV1_DEFAULT
 10
55.0673
 20
14.6078
 30
0
 70
     0
  0
VERTEX
  8
DV1_DEFAULT
 10
54.9035
 20
14.1467
 30
0
 70
     0
  0
VERTEX
  8
DV1_DEFAULT
 10
54.7288
 20
13.6908
 30
0
 70
     0
  0
VERTEX
  8
DV1_DEFAULT
 10
54.5433
 20
13.2401
 30
0
 70
     0
  0
VERTEX
  8
DV1_DEFAULT
 10
54.3472
 20
12.7948
 30
0
 70
     0
  0
VERTEX
  8
DV1_DEFAULT
 10
54.1406
 20
12.3552
 30
0
 70
     0
  0
VERTEX
  8
DV1_DEFAULT
 10
53.9236
 20
11.9213
 30
0
 70
     0
  0
VERTEX
  8
DV1_DEFAULT
 10
53.6966
 20
11.4934
 30
0
 70
     0
  0
VERTEX
  8
DV1_DEFAULT
 10
53.4596
 20
11.0715
 30
0
 70
     0
  0
VERTEX
  8
DV1_DEFAULT
 10
53.2127
 20
10.6559
 30
0
 70
     0
  0
VERTEX
  8
DV1_DEFAULT
 10
52.9562
 20
10.2467
 30
0
 70
     0
  0
VERTEX
  8
DV1_DEFAULT
 10
52.6902
 20
9.8441
 30
0
 70
     0
  0
VERTEX
  8
DV1_DEFAULT
 10
52.4149
 20
9.4482
 30
0
 70
     0
  0
VERTEX
  8
DV1_DEFAULT
 10
52.1303
 20
9.0592
 30
0
 70
     0
  0
VERTEX
  8
DV1_DEFAULT
 10
51.8368
 20
8.6773
 30
0
 70
     0
  0
VERTEX
  8
DV1_DEFAULT
 10
51.5345
 20
8.3026
 30
0
 70
     0
  0
VERTEX
  8
DV1_DEFAULT
 10
51.2234
 20
7.9353
 30
0
 70
     0
  0
VERTEX
  8
DV1_DEFAULT
 10
50.9038
 20
7.5756
 30
0
 70
     0
  0
VERTEX
  8
DV1_DEFAULT
 10
50.5759
 20
7.2235
 30
0
 70
     0
  0
VERTEX
  8
DV1_DEFAULT
 10
50.2398
 20
6.8794
 30
0
 70
     0
  0
VERTEX
  8
DV1_DEFAULT
 10
49.8956
 20
6.5432
 30
0
 70
     0
  0
VERTEX
  8
DV1_DEFAULT
 10
49.5436
 20
6.2153
 30
0
 70
     0
  0
VERTEX
  8
DV1_DEFAULT
 10
49.1838
 20
5.8957
 30
0
 70
     0
  0
VERTEX
  8
DV1_DEFAULT
 10
48.8165
 20
5.5847
 30
0
 70
     0
  0
VERTEX
  8
DV1_DEFAULT
 10
48.4418
 20
5.2823
 30
0
 70
     0
  0
VERTEX
  8
DV1_DEFAULT
 10
48.0599
 20
4.9888
 30
0
 70
     0
  0
VERTEX
  8
DV1_DEFAULT
 10
47.6709
 20
4.7043
 30
0
 70
     0
  0
VERTEX
  8
DV1_DEFAULT
 10
47.2751
 20
4.4289
 30
0
 70
     0
  0
VERTEX
  8
DV1_DEFAULT
 10
46.8724
 20
4.1629
 30
0
 70
     0
  0
VERTEX
  8
DV1_DEFAULT
 10
46.4632
 20
3.9064
 30
0
 70
     0
  0
VERTEX
  8
DV1_DEFAULT
 10
46.0476
 20
3.6596
 30
0
 70
     0
  0
VERTEX
  8
DV1_DEFAULT
 10
45.6258
 20
3.4225
 30
0
 70
     0
  0
VERTEX
  8
DV1_DEFAULT
 10
45.1978
 20
3.1955
 30
0
 70
     0
  0
VERTEX
  8
DV1_DEFAULT
 10
44.764
 20
2.9786
 30
0
 70
     0
  0
VERTEX
  8
DV1_DEFAULT
 10
44.3243
 20
2.772
 30
0
 70
     0
  0
VERTEX
  8
DV1_DEFAULT
 10
43.8791
 20
2.5759
 30
0
 70
     0
  0
VERTEX
  8
DV1_DEFAULT
 10
43.4284
 20
2.3903
 30
0
 70
     0
  0
VERTEX
  8
DV1_DEFAULT
 10
42.9724
 20
2.2156
 30
0
 70
     0
  0
VERTEX
  8
DV1_DEFAULT
 10
42.5113
 20
2.0519
 30
0
 70
     0
  0
VERTEX
  8
DV1_DEFAULT
 10
42.0453
 20
1.8992
 30
0
 70
     0
  0
VERTEX
  8
DV1_DEFAULT
 10
41.5745
 20
1.7579
 30
0
 70
     0
  0
VERTEX
  8
DV1_DEFAULT
 10
41.099
 20
1.628
 30
0
 70
     0
  0
VERTEX
  8
DV1_DEFAULT
 10
40.6191
 20
1.5097
 30
0
 70
     0
  0
VERTEX
  8
DV1_DEFAULT
 10
40.1348
 20
1.4031
 30
0
 70
     0
  0
VERTEX
  8
DV1_DEFAULT
 10
39.6465
 20
1.3085
 30
0
 70
     0
  0
VERTEX
  8
DV1_DEFAULT
 10
39.1541
 20
1.226
 30
0
 70
     0
  0
VERTEX
  8
DV1_DEFAULT
 10
38.6579
 20
1.1557
 30
0
 70
     0
  0
VERTEX
  8
DV1_DEFAULT
 10
38.1581
 20
1.0978
 30
0
 70
     0
  0
VERTEX
  8
DV1_DEFAULT
 10
37.6547
 20
1.0525
 30
0
 70
     0
  0
VERTEX
  8
DV1_DEFAULT
 10
37.1481
 20
1.02
 30
0
 70
     0
  0
VERTEX
  8
DV1_DEFAULT
 10
36.6382
 20
1.0003
 30
0
 70
     0
  0
VERTEX
  8
DV1_DEFAULT
 10
36.1254
 20
0.9937
 30
0
 70
     0
  0
VERTEX
  8
DV1_DEFAULT
 10
35.6125
 20
1.0003
 30
0
 70
     0
  0
VERTEX
  8
DV1_DEFAULT
 10
35.1027
 20
1.02
 30
0
 70
     0
  0
VERTEX
  8
DV1_DEFAULT
 10
34.596
 20
1.0525
 30
0
 70
     0
  0
VERTEX
  8
DV1_DEFAULT
 10
34.0927
 20
1.0978
 30
0
 70
     0
  0
VERTEX
  8
DV1_DEFAULT
 10
33.5929
 20
1.1557
 30
0
 70
     0
  0
VERTEX
  8
DV1_DEFAULT
 10
33.0967
 20
1.226
 30
0
 70
     0
  0
VERTEX
  8
DV1_DEFAULT
 10
32.6043
 20
1.3085
 30
0
 70
     0
  0
VERTEX
  8
DV1_DEFAULT
 10
32.1159
 20
1.4031
 30
0
 70
     0
  0
VERTEX
  8
DV1_DEFAULT
 10
31.6317
 20
1.5097
 30
0
 70
     0
  0
VERTEX
  8
DV1_DEFAULT
 10
31.1518
 20
1.628
 30
0
 70
     0
  0
VERTEX
  8
DV1_DEFAULT
 10
30.6763
 20
1.7579
 30
0
 70
     0
  0
VERTEX
  8
DV1_DEFAULT
 10
30.2055
 20
1.8992
 30
0
 70
     0
  0
VERTEX
  8
DV1_DEFAULT
 10
29.7395
 20
2.0519
 30
0
 70
     0
  0
VERTEX
  8
DV1_DEFAULT
 10
29.2784
 20
2.2156
 30
0
 70
     0
  0
VERTEX
  8
DV1_DEFAULT
 10
28.8224
 20
2.3903
 30
0
 70
     0
  0
VERTEX
  8
DV1_DEFAULT
 10
28.3717
 20
2.5759
 30
0
 70
     0
  0
VERTEX
  8
DV1_DEFAULT
 10
27.9265
 20
2.772
 30
0
 70
     0
  0
VERTEX
  8
DV1_DEFAULT
 10
27.4868
 20
2.9786
 30
0
 70
     0
  0
VERTEX
  8
DV1_DEFAULT
 10
27.053
 20
3.1955
 30
0
 70
     0
  0
VERTEX
  8
DV1_DEFAULT
 10
26.625
 20
3.4225
 30
0
 70
     0
  0
VERTEX
  8
DV1_DEFAULT
 10
26.2031
 20
3.6596
 30
0
 70
     0
  0
VERTEX
  8
DV1_DEFAULT
 10
25.7875
 20
3.9064
 30
0
 70
     0
  0
VERTEX
  8
DV1_DEFAULT
 10
25.3783
 20
4.1629
 30
0
 70
     0
  0
VERTEX
  8
DV1_DEFAULT
 10
24.9757
 20
4.4289
 30
0
 70
     0
  0
VERTEX
  8
DV1_DEFAULT
 10
24.5799
 20
4.7043
 30
0
 70
     0
  0
VERTEX
  8
DV1_DEFAULT
 10
24.1909
 20
4.9888
 30
0
 70
     0
  0
VERTEX
  8
DV1_DEFAULT
 10
23.809
 20
5.2823
 30
0
 70
     0
  0
VERTEX
  8
DV1_DEFAULT
 10
23.4343
 20
5.5847
 30
0
 70
     0
  0
VERTEX
  8
DV1_DEFAULT
 10
23.067
 20
5.8957
 30
0
 70
     0
  0
VERTEX
  8
DV1_DEFAULT
 10
22.7072
 20
6.2153
 30
0
 70
     0
  0
VERTEX
  8
DV1_DEFAULT
 10
22.3552
 20
6.5432
 30
0
 70
     0
  0
VERTEX
  8
DV1_DEFAULT
 10
22.011
 20
6.8794
 30
0
 70
     0
  0
VERTEX
  8
DV1_DEFAULT
 10
21.6749
 20
7.2235
 30
0
 70
     0
  0
VERTEX
  8
DV1_DEFAULT
 10
21.347
 20
7.5756
 30
0
 70
     0
  0
VERTEX
  8
DV1_DEFAULT
 10
21.0274
 20
7.9353
 30
0
 70
     0
  0
VERTEX
  8
DV1_DEFAULT
 10
20.7163
 20
8.3026
 30
0
 70
     0
  0
VERTEX
  8
DV1_DEFAULT
 10
20.414
 20
8.6773
 30
0
 70
     0
  0
VERTEX
  8
DV1_DEFAULT
 10
20.1204
 20
9.0592
 30
0
 70
     0
  0
VERTEX
  8
DV1_DEFAULT
 10
19.8359
 20
9.4482
 30
0
 70
     0
  0
VERTEX
  8
DV1_DEFAULT
 10
19.5606
 20
9.8441
 30
0
 70
     0
  0
VERTEX
  8
DV1_DEFAULT
 10
19.2946
 20
10.2467
 30
0
 70
     0
  0
VERTEX
  8
DV1_DEFAULT
 10
19.0381
 20
10.6559
 30
0
 70
     0
  0
VERTEX
  8
DV1_DEFAULT
 10
18.7912
 20
11.0715
 30
0
 70
     0
  0
VERTEX
  8
DV1_DEFAULT
 10
18.5542
 20
11.4934
 30
0
 70
     0
  0
VERTEX
  8
DV1_DEFAULT
 10
18.3271
 20
11.9213
 30
0
 70
     0
  0
VERTEX
  8
DV1_DEFAULT
 10
18.1102
 20
12.3552
 30
0
 70
     0
  0
VERTEX
  8
DV1_DEFAULT
 10
17.9036
 20
12.7948
 30
0
 70
     0
  0
VERTEX
  8
DV1_DEFAULT
 10
17.7075
 20
13.2401
 30
0
 70
     0
  0
VERTEX
  8
DV1_DEFAULT
 10
17.522
 20
13.6908
 30
0
 70
     0
  0
VERTEX
  8
DV1_DEFAULT
 10
17.3473
 20
14.1467
 30
0
 70
     0
  0
VERTEX
  8
DV1_DEFAULT
 10
17.1835
 20
14.6078
 30
0
 70
     0
  0
VERTEX
  8
DV1_DEFAULT
 10
17.0309
 20
15.0738
 30
0
 70
     0
  0
VERTEX
  8
DV1_DEFAULT
 10
16.8895
 20
15.5447
 30
0
 70
     0
  0
VERTEX
  8
DV1_DEFAULT
 10
16.7596
 20
16.0201
 30
0
 70
     0
  0
VERTEX
  8
DV1_DEFAULT
 10
16.6413
 20
16.5001
 30
0
 70
     0
  0
VERTEX
  8
DV1_DEFAULT
 10
16.5348
 20
16.9843
 30
0
 70
     0
  0
VERTEX
  8
DV1_DEFAULT
 10
16.4401
 20
17.4727
 30
0
 70
     0
  0
VERTEX
  8
DV1_DEFAULT
 10
16.3576
 20
17.965
 30
0
 70
     0
  0
VERTEX
  8
DV1_DEFAULT
 10
16.2873
 20
18.4612
 30
0
 70
     0
  0
VERTEX
  8
DV1_DEFAULT
 10
16.2295
 20
18.9611
 30
0
 70
     0
  0
VERTEX
  8
DV1_DEFAULT
 10
16.1842
 20
19.4644
 30
0
 70
     0
  0
VERTEX
  8
DV1_DEFAULT
 10
16.1516
 20
19.9711
 30
0
 70
     0
  0
VERTEX
  8
DV1_DEFAULT
 10
16.132
 20
20.4809
 30
0
 70
     0
  0
VERTEX
  8
DV1_DEFAULT
 10
16.1254
 20
20.9937
 30
0
 70
     0
  0
VERTEX
  8
DV1_DEFAULT
 10
16.132
 20
21.5066
 30
0
 70
     0
  0
VERTEX
  8
DV1_DEFAULT
 10
16.1516
 20
22.0164
 30
0
 70
     0
  0
VERTEX
  8
DV1_DEFAULT
 10
16.1842
 20
22.5231
 30
0
 70
     0
  0
VERTEX
  8
DV1_DEFAULT
 10
16.2295
 20
23.0264
 30
0
 70
     0
  0
VERTEX
  8
DV1_DEFAULT
 10
16.2873
 20
23.5263
 30
0
 70
     0
  0
VERTEX
  8
DV1_DEFAULT
 10
16.3576
 20
24.0224
 30
0
 70
     0
  0
VERTEX
  8
DV1_DEFAULT
 10
16.4401
 20
24.5148
 30
0
 70
     0
  0
VERTEX
  8
DV1_DEFAULT
 10
16.5348
 20
25.0032
 30
0
 70
     0
  0
VERTEX
  8
DV1_DEFAULT
 10
16.6413
 20
25.4874
 30
0
 70
     0
  0
VERTEX
  8
DV1_DEFAULT
 10
16.7596
 20
25.9674
 30
0
 70
     0
  0
VERTEX
  8
DV1_DEFAULT
 10
16.8895
 20
26.4428
 30
0
 70
     0
  0
VERTEX
  8
DV1_DEFAULT
 10
17.0309
 20
26.9136
 30
0
 70
     0
  0
VERTEX
  8
DV1_DEFAULT
 10
17.1835
 20
27.3797
 30
0
 70
     0
  0
VERTEX
  8
DV1_DEFAULT
 10
17.3473
 20
27.8408
 30
0
 70
     0
  0
VERTEX
  8
DV1_DEFAULT
 10
17.522
 20
28.2967
 30
0
 70
     0
  0
VERTEX
  8
DV1_DEFAULT
 10
17.7075
 20
28.7474
 30
0
 70
     0
  0
VERTEX
  8
DV1_DEFAULT
 10
17.9036
 20
29.1927
 30
0
 70
     0
  0
VERTEX
  8
DV1_DEFAULT
 10
18.1102
 20
29.6323
 30
0
 70
     0
  0
VERTEX
  8
DV1_DEFAULT
 10
18.3271
 20
30.0662
 30
0
 70
     0
  0
VERTEX
  8
DV1_DEFAULT
 10
18.5542
 20
30.4941
 30
0
 70
     0
  0
VERTEX
  8
DV1_DEFAULT
 10
18.7912
 20
30.916
 30
0
 70
     0
  0
VERTEX
  8
DV1_DEFAULT
 10
19.0381
 20
31.3316
 30
0
 70
     0
  0
VERTEX
  8
DV1_DEFAULT
 10
19.2946
 20
31.7408
 30
0
 70
     0
  0
VERTEX
  8
DV1_DEFAULT
 10
19.5606
 20
32.1434
 30
0
 70
     0
  0
VERTEX
  8
DV1_DEFAULT
 10
19.8359
 20
32.5393
 30
0
 70
     0
  0
VERTEX
  8
DV1_DEFAULT
 10
20.1204
 20
32.9283
 30
0
 70
     0
  0
VERTEX
  8
DV1_DEFAULT
 10
20.414
 20
33.3102
 30
0
 70
     0
  0
VERTEX
  8
DV1_DEFAULT
 10
20.7163
 20
33.6849
 30
0
 70
     0
  0
VERTEX
  8
DV1_DEFAULT
 10
21.0274
 20
34.0522
 30
0
 70
     0
  0
VERTEX
  8
DV1_DEFAULT
 10
21.347
 20
34.4119
 30
0
 70
     0
  0
VERTEX
  8
DV1_DEFAULT
 10
21.6749
 20
34.764
 30
0
 70
     0
  0
VERTEX
  8
DV1_DEFAULT
 10
22.011
 20
35.1081
 30
0
 70
     0
  0
VERTEX
  8
DV1_DEFAULT
 10
22.3552
 20
35.4443
 30
0
 70
     0
  0
VERTEX
  8
DV1_DEFAULT
 10
22.7072
 20
35.7722
 30
0
 70
     0
  0
VERTEX
  8
DV1_DEFAULT
 10
23.067
 20
36.0918
 30
0
 70
     0
  0
VERTEX
  8
DV1_DEFAULT
 10
23.4343
 20
36.4028
 30
0
 70
     0
  0
VERTEX
  8
DV1_DEFAULT
 10
23.809
 20
36.7052
 30
0
 70
     0
  0
VERTEX
  8
DV1_DEFAULT
 10
24.1909
 20
36.9987
 30
0
 70
     0
  0
VERTEX
  8
DV1_DEFAULT
 10
24.5799
 20
37.2832
 30
0
 70
     0
  0
VERTEX
  8
DV1_DEFAULT
 10
24.9757
 20
37.5585
 30
0
 70
     0
  0
VERTEX
  8
DV1_DEFAULT
 10
25.3783
 20
37.8245
 30
0
 70
     0
  0
VERTEX
  8
DV1_DEFAULT
 10
25.7875
 20
38.0811
 30
0
 70
     0
  0
VERTEX
  8
DV1_DEFAULT
 10
26.2031
 20
38.3279
 30
0
 70
     0
  0
VERTEX
  8
DV1_DEFAULT
 10
26.625
 20
38.5649
 30
0
 70
     0
  0
VERTEX
  8
DV1_DEFAULT
 10
27.053
 20
38.792
 30
0
 70
     0
  0
VERTEX
  8
DV1_DEFAULT
 10
27.4868
 20
39.0089
 30
0
 70
     0
  0
VERTEX
  8
DV1_DEFAULT
 10
27.9265
 20
39.2155
 30
0
 70
     0
  0
VERTEX
  8
DV1_DEFAULT
 10
28.3717
 20
39.4116
 30
0
 70
     0
  0
VERTEX
  8
DV1_DEFAULT
 10
28.8224
 20
39.5971
 30
0
 70
     0
  0
VERTEX
  8
DV1_DEFAULT
 10
29.2784
 20
39.7718
 30
0
 70
     0
  0
VERTEX
  8
DV1_DEFAULT
 10
29.7395
 20
39.9356
 30
0
 70
     0
  0
VERTEX
  8
DV1_DEFAULT
 10
30.2055
 20
40.0882
 30
0
 70
     0
  0
VERTEX
  8
DV1_DEFAULT
 10
30.6763
 20
40.2296
 30
0
 70
     0
  0
VERTEX
  8
DV1_DEFAULT
 10
31.1518
 20
40.3595
 30
0
 70
     0
  0
VERTEX
  8
DV1_DEFAULT
 10
31.6317
 20
40.4778
 30
0
 70
     0
  0
VERTEX
  8
DV1_DEFAULT
 10
32.1159
 20
40.5844
 30
0
 70
     0
  0
VERTEX
  8
DV1_DEFAULT
 10
32.6043
 20
40.679
 30
0
 70
     0
  0
VERTEX
  8
DV1_DEFAULT
 10
33.0967
 20
40.7615
 30
0
 70
     0
  0
VERTEX
  8
DV1_DEFAULT
 10
33.5929
 20
40.8318
 30
0
 70
     0
  0
VERTEX
  8
DV1_DEFAULT
 10
34.0927
 20
40.8897
 30
0
 70
     0
  0
VERTEX
  8
DV1_DEFAULT
 10
34.596
 20
40.935
 30
0
 70
     0
  0
VERTEX
  8
DV1_DEFAULT
 10
35.1027
 20
40.9675
 30
0
 70
     0
  0
VERTEX
  8
DV1_DEFAULT
 10
35.6125
 20
40.9872
 30
0
 70
     0
  0
VERTEX
  8
DV1_DEFAULT
 10
36.1254
 20
40.9937
 30
0
 70
     0
  0
VERTEX
  8
DV1_DEFAULT
 10
36.6382
 20
40.9872
 30
0
 70
     0
  0
VERTEX
  8
DV1_DEFAULT
 10
37.1481
 20
40.9675
 30
0
 70
     0
  0
VERTEX
  8
DV1_DEFAULT
 10
37.6547
 20
40.935
 30
0
 70
     0
  0
VERTEX
  8
DV1_DEFAULT
 10
38.1581
 20
40.8897
 30
0
 70
     0
  0
VERTEX
  8
DV1_DEFAULT
 10
38.6579
 20
40.8318
 30
0
 70
     0
  0
VERTEX
  8
DV1_DEFAULT
 10
39.1541
 20
40.7615
 30
0
 70
     0
  0
VERTEX
  8
DV1_DEFAULT
 10
39.6465
 20
40.679
 30
0
 70
     0
  0
VERTEX
  8
DV1_DEFAULT
 10
40.1348
 20
40.5844
 30
0
 70
     0
  0
VERTEX
  8
DV1_DEFAULT
 10
40.6191
 20
40.4778
 30
0
 70
     0
  0
VERTEX
  8
DV1_DEFAULT
 10
41.099
 20
40.3595
 30
0
 70
     0
  0
VERTEX
  8
DV1_DEFAULT
 10
41.5745
 20
40.2296
 30
0
 70
     0
  0
VERTEX
  8
DV1_DEFAULT
 10
42.0453
 20
40.0882
 30
0
 70
     0
  0
VERTEX
  8
DV1_DEFAULT
 10
42.5113
 20
39.9356
 30
0
 70
     0
  0
VERTEX
  8
DV1_DEFAULT
 10
42.9724
 20
39.7718
 30
0
 70
     0
  0
VERTEX
  8
DV1_DEFAULT
 10
43.4284
 20
39.5971
 30
0
 70
     0
  0
VERTEX
  8
DV1_DEFAULT
 10
43.8791
 20
39.4116
 30
0
 70
     0
  0
VERTEX
  8
DV1_DEFAULT
 10
44.3243
 20
39.2155
 30
0
 70
     0
  0
VERTEX
  8
DV1_DEFAULT
 10
44.764
 20
39.0089
 30
0
 70
     0
  0
VERTEX
  8
DV1_DEFAULT
 10
45.1978
 20
38.792
 30
0
 70
     0
  0
VERTEX
  8
DV1_DEFAULT
 10
45.6258
 20
38.5649
 30
0
 70
     0
  0
VERTEX
  8
DV1_DEFAULT
 10
46.0476
 20
38.3279
 30
0
 70
     0
  0
VERTEX
  8
DV1_DEFAULT
 10
46.4632
 20
38.0811
 30
0
 70
     0
  0
VERTEX
  8
DV1_DEFAULT
 10
46.8724
 20
37.8245
 30
0
 70
     0
  0
VERTEX
  8
DV1_DEFAULT
 10
47.2751
 20
37.5585
 30
0
 70
     0
  0
VERTEX
  8
DV1_DEFAULT
 10
47.6709
 20
37.2832
 30
0
 70
     0
  0
VERTEX
  8
DV1_DEFAULT
 10
48.0599
 20
36.9987
 30
0
 70
     0
  0
VERTEX
  8
DV1_DEFAULT
 10
48.4418
 20
36.7052
 30
0
 70
     0
  0
VERTEX
  8
DV1_DEFAULT
 10
48.8165
 20
36.4028
 30
0
 70
     0
  0
VERTEX
  8
DV1_DEFAULT
 10
49.1838
 20
36.0918
 30
0
 70
     0
  0
VERTEX
  8
DV1_DEFAULT
 10
49.5436
 20
35.7722
 30
0
 70
     0
  0
VERTEX
  8
DV1_DEFAULT
 10
49.8956
 20
35.4443
 30
0
 70
     0
  0
VERTEX
  8
DV1_DEFAULT
 10
50.2398
 20
35.1081
 30
0
 70
     0
  0
VERTEX
  8
DV1_DEFAULT
 10
50.5759
 20
34.764
 30
0
 70
     0
  0
VERTEX
  8
DV1_DEFAULT
 10
50.9038
 20
34.4119
 30
0
 70
     0
  0
VERTEX
  8
DV1_DEFAULT
 10
51.2234
 20
34.0522
 30
0
 70
     0
  0
VERTEX
  8
DV1_DEFAULT
 10
51.5345
 20
33.6849
 30
0
 70
     0
  0
VERTEX
  8
DV1_DEFAULT
 10
51.8368
 20
33.3102
 30
0
 70
     0
  0
VERTEX
  8
DV1_DEFAULT
 10
52.1303
 20
32.9283
 30
0
 70
     0
  0
VERTEX
  8
DV1_DEFAULT
 10
52.4149
 20
32.5393
 30
0
 70
     0
  0
VERTEX
  8
DV1_DEFAULT
 10
52.6902
 20
32.1434
 30
0
 70
     0
  0
VERTEX
  8
DV1_DEFAULT
 10
52.9562
 20
31.7408
 30
0
 70
     0
  0
VERTEX
  8
DV1_DEFAULT
 10
53.2127
 20
31.3316
 30
0
 70
     0
  0
VERTEX
  8
DV1_DEFAULT
 10
53.4596
 20
30.916
 30
0
 70
     0
  0
VERTEX
  8
DV1_DEFAULT
 10
53.6966
 20
30.4941
 30
0
 70
     0
  0
VERTEX
  8
DV1_DEFAULT
 10
53.9236
 20
30.0662
 30
0
 70
     0
  0
VERTEX
  8
DV1_DEFAULT
 10
54.1406
 20
29.6323
 30
0
 70
     0
  0
VERTEX
  8
DV1_DEFAULT
 10
54.3472
 20
29.1927
 30
0
 70
     0
  0
VERTEX
  8
DV1_DEFAULT
 10
54.5433
 20
28.7474
 30
0
 70
     0
  0
VERTEX
  8
DV1_DEFAULT
 10
54.7288
 20
28.2967
 30
0
 70
     0
  0
VERTEX
  8
DV1_DEFAULT
 10
54.9035
 20
27.8408
 30
0
 70
     0
  0
VERTEX
  8
DV1_DEFAULT
 10
55.0673
 20
27.3797
 30
0
 70
     0
  0
VERTEX
  8
DV1_DEFAULT
 10
55.2199
 20
26.9136
 30
0
 70
     0
  0
VERTEX
  8
DV1_DEFAULT
 10
55.3612
 20
26.4428
 30
0
 70
     0
  0
VERTEX
  8
DV1_DEFAULT
 10
55.4912
 20
25.9674
 30
0
 70
     0
  0
VERTEX
  8
DV1_DEFAULT
 10
55.6095
 20
25.4874
 30
0
 70
     0
  0
VERTEX
  8
DV1_DEFAULT
 10
55.716
 20
25.0032
 30
0
 70
     0
  0
VERTEX
  8
DV1_DEFAULT
 10
55.8106
 20
24.5148
 30
0
 70
     0
  0
VERTEX
  8
DV1_DEFAULT
 10
55.8932
 20
24.0224
 30
0
 70
     0
  0
VERTEX
  8
DV1_DEFAULT
 10
55.9635
 20
23.5263
 30
0
 70
     0
  0
VERTEX
  8
DV1_DEFAULT
 10
56.0213
 20
23.0264
 30
0
 70
     0
  0
VERTEX
  8
DV1_DEFAULT
 10
56.0666
 20
22.5231
 30
0
 70
     0
  0
VERTEX
  8
DV1_DEFAULT
 10
56.0992
 20
22.0164
 30
0
 70
     0
  0
VERTEX
  8
DV1_DEFAULT
 10
56.1188
 20
21.5066
 30
0
 70
     0
  0
VERTEX
  8
DV1_DEFAULT
 10
56.1254
 20
20.9937
 30
0
 70
     0
  0
SEQEND
  0
POLYLINE
  8
DV1_DEFAULT
  6
CONTINUOUS
 62
     7
 66
     1
 40
0
 41
0
  0
VERTEX
  8
DV1_DEFAULT
 10
57.1254
 20
20.9937
 30
0
 70
     0
  0
VERTEX
  8
DV1_DEFAULT
 10
57.1185
 20
20.4553
 30
0
 70
     0
  0
VERTEX
  8
DV1_DEFAULT
 10
57.0978
 20
19.9199
 30
0
 70
     0
  0
VERTEX
  8
DV1_DEFAULT
 10
57.0637
 20
19.3879
 30
0
 70
     0
  0
VERTEX
  8
DV1_DEFAULT
 10
57.0161
 20
18.8594
 30
0
 70
     0
  0
VERTEX
  8
DV1_DEFAULT
 10
56.9554
 20
18.3346
 30
0
 70
     0
  0
VERTEX
  8
DV1_DEFAULT
 10
56.8816
 20
17.8136
 30
0
 70
     0
  0
VERTEX
  8
DV1_DEFAULT
 10
56.7949
 20
17.2966
 30
0
 70
     0
  0
VERTEX
  8
DV1_DEFAULT
 10
56.6956
 20
16.7838
 30
0
 70
     0
  0
VERTEX
  8
DV1_DEFAULT
 10
56.5837
 20
16.2754
 30
0
 70
     0
  0
VERTEX
  8
DV1_DEFAULT
 10
56.4595
 20
15.7715
 30
0
 70
     0
  0
VERTEX
  8
DV1_DEFAULT
 10
56.323
 20
15.2722
 30
0
 70
     0
  0
VERTEX
  8
DV1_DEFAULT
 10
56.1746
 20
14.7778
 30
0
 70
     0
  0
VERTEX
  8
DV1_DEFAULT
 10
56.0143
 20
14.2885
 30
0
 70
     0
  0
VERTEX
  8
DV1_DEFAULT
 10
55.8424
 20
13.8044
 30
0
 70
     0
  0
VERTEX
  8
DV1_DEFAULT
 10
55.659
 20
13.3256
 30
0
 70
     0
  0
VERTEX
  8
DV1_DEFAULT
 10
55.4642
 20
12.8524
 30
0
 70
     0
  0
VERTEX
  8
DV1_DEFAULT
 10
55.2582
 20
12.3849
 30
0
 70
     0
  0
VERTEX
  8
DV1_DEFAULT
 10
55.0413
 20
11.9233
 30
0
 70
     0
  0
VERTEX
  8
DV1_DEFAULT
 10
54.8136
 20
11.4677
 30
0
 70
     0
  0
VERTEX
  8
DV1_DEFAULT
 10
54.5752
 20
11.0183
 30
0
 70
     0
  0
VERTEX
  8
DV1_DEFAULT
 10
54.3263
 20
10.5754
 30
0
 70
     0
  0
VERTEX
  8
DV1_DEFAULT
 10
54.0671
 20
10.139
 30
0
 70
     0
  0
VERTEX
  8
DV1_DEFAULT
 10
53.7977
 20
9.7093
 30
0
 70
     0
  0
VERTEX
  8
DV1_DEFAULT
 10
53.5184
 20
9.2866
 30
0
 70
     0
  0
VERTEX
  8
DV1_DEFAULT
 10
53.2293
 20
8.8709
 30
0
 70
     0
  0
VERTEX
  8
DV1_DEFAULT
 10
52.9306
 20
8.4625
 30
0
 70
     0
  0
VERTEX
  8
DV1_DEFAULT
 10
52.6224
 20
8.0615
 30
0
 70
     0
  0
VERTEX
  8
DV1_DEFAULT
 10
52.3049
 20
7.6681
 30
0
 70
     0
  0
VERTEX
  8
DV1_DEFAULT
 10
51.9783
 20
7.2824
 30
0
 70
     0
  0
VERTEX
  8
DV1_DEFAULT
 10
51.6428
 20
6.9047
 30
0
 70
     0
  0
VERTEX
  8
DV1_DEFAULT
 10
51.2984
 20
6.535
 30
0
 70
     0
  0
VERTEX
  8
DV1_DEFAULT
 10
50.9455
 20
6.1736
 30
0
 70
     0
  0
VERTEX
  8
DV1_DEFAULT
 10
50.5841
 20
5.8207
 30
0
 70
     0
  0
VERTEX
  8
DV1_DEFAULT
 10
50.2145
 20
5.4764
 30
0
 70
     0
  0
VERTEX
  8
DV1_DEFAULT
 10
49.8367
 20
5.1408
 30
0
 70
     0
  0
VERTEX
  8
DV1_DEFAULT
 10
49.4511
 20
4.8142
 30
0
 70
     0
  0
VERTEX
  8
DV1_DEFAULT
 10
49.0576
 20
4.4967
 30
0
 70
     0
  0
VERTEX
  8
DV1_DEFAULT
 10
48.6566
 20
4.1885
 30
0
 70
     0
  0
VERTEX
  8
DV1_DEFAULT
 10
48.2482
 20
3.8898
 30
0
 70
     0
  0
VERTEX
  8
DV1_DEFAULT
 10
47.8325
 20
3.6007
 30
0
 70
     0
  0
VERTEX
  8
DV1_DEFAULT
 10
47.4098
 20
3.3214
 30
0
 70
     0
  0
VERTEX
  8
DV1_DEFAULT
 10
46.9801
 20
3.0521
 30
0
 70
     0
  0
VERTEX
  8
DV1_DEFAULT
 10
46.5438
 20
2.7929
 30
0
 70
     0
  0
VERTEX
  8
DV1_DEFAULT
 10
46.1008
 20
2.544
 30
0
 70
     0
  0
VERTEX
  8
DV1_DEFAULT
 10
45.6515
 20
2.3056
 30
0
 70
     0
  0
VERTEX
  8
DV1_DEFAULT
 10
45.1959
 20
2.0778
 30
0
 70
     0
  0
VERTEX
  8
DV1_DEFAULT
 10
44.7343
 20
1.8609
 30
0
 70
     0
  0
VERTEX
  8
DV1_DEFAULT
 10
44.2668
 20
1.655
 30
0
 70
     0
  0
VERTEX
  8
DV1_DEFAULT
 10
43.7935
 20
1.4602
 30
0
 70
     0
  0
VERTEX
  8
DV1_DEFAULT
 10
43.3148
 20
1.2767
 30
0
 70
     0
  0
VERTEX
  8
DV1_DEFAULT
 10
42.8306
 20
1.1048
 30
0
 70
     0
  0
VERTEX
  8
DV1_DEFAULT
 10
42.3413
 20
0.9445
 30
0
 70
     0
  0
VERTEX
  8
DV1_DEFAULT
 10
41.8469
 20
0.7961
 30
0
 70
     0
  0
VERTEX
  8
DV1_DEFAULT
 10
41.3477
 20
0.6597
 30
0
 70
     0
  0
VERTEX
  8
DV1_DEFAULT
 10
40.8438
 20
0.5355
 30
0
 70
     0
  0
VERTEX
  8
DV1_DEFAULT
 10
40.3353
 20
0.4236
 30
0
 70
     0
  0
VERTEX
  8
DV1_DEFAULT
 10
39.8225
 20
0.3242
 30
0
 70
     0
  0
VERTEX
  8
DV1_DEFAULT
 10
39.3055
 20
0.2376
 30
0
 70
     0
  0
VERTEX
  8
DV1_DEFAULT
 10
38.7845
 20
0.1638
 30
0
 70
     0
  0
VERTEX
  8
DV1_DEFAULT
 10
38.2597
 20
0.103
 30
0
 70
     0
  0
VERTEX
  8
DV1_DEFAULT
 10
37.7312
 20
0.0555
 30
0
 70
     0
  0
VERTEX
  8
DV1_DEFAULT
 10
37.1992
 20
0.0213
 30
0
 70
     0
  0
VERTEX
  8
DV1_DEFAULT
 10
36.6639
 20
0.0007
 30
0
 70
     0
  0
VERTEX
  8
DV1_DEFAULT
 10
36.1254
 20
-0.0063
 30
0
 70
     0
  0
VERTEX
  8
DV1_DEFAULT
 10
35.5869
 20
0.0007
 30
0
 70
     0
  0
VERTEX
  8
DV1_DEFAULT
 10
35.0516
 20
0.0213
 30
0
 70
     0
  0
VERTEX
  8
DV1_DEFAULT
 10
34.5196
 20
0.0555
 30
0
 70
     0
  0
VERTEX
  8
DV1_DEFAULT
 10
33.9911
 20
0.103
 30
0
 70
     0
  0
VERTEX
  8
DV1_DEFAULT
 10
33.4662
 20
0.1638
 30
0
 70
     0
  0
VERTEX
  8
DV1_DEFAULT
 10
32.9453
 20
0.2376
 30
0
 70
     0
  0
VERTEX
  8
DV1_DEFAULT
 10
32.4283
 20
0.3242
 30
0
 70
     0
  0
VERTEX
  8
DV1_DEFAULT
 10
31.9155
 20
0.4236
 30
0
 70
     0
  0
VERTEX
  8
DV1_DEFAULT
 10
31.407
 20
0.5355
 30
0
 70
     0
  0
VERTEX
  8
DV1_DEFAULT
 10
30.9031
 20
0.6597
 30
0
 70
     0
  0
VERTEX
  8
DV1_DEFAULT
 10
30.4039
 20
0.7961
 30
0
 70
     0
  0
VERTEX
  8
DV1_DEFAULT
 10
29.9095
 20
0.9445
 30
0
 70
     0
  0
VERTEX
  8
DV1_DEFAULT
 10
29.4202
 20
1.1048
 30
0
 70
     0
  0
VERTEX
  8
DV1_DEFAULT
 10
28.936
 20
1.2767
 30
0
 70
     0
  0
VERTEX
  8
DV1_DEFAULT
 10
28.4573
 20
1.4602
 30
0
 70
     0
  0
VERTEX
  8
DV1_DEFAULT
 10
27.984
 20
1.655
 30
0
 70
     0
  0
VERTEX
  8
DV1_DEFAULT
 10
27.5165
 20
1.8609
 30
0
 70
     0
  0
VERTEX
  8
DV1_DEFAULT
 10
27.0549
 20
2.0778
 30
0
 70
     0
  0
VERTEX
  8
DV1_DEFAULT
 10
26.5993
 20
2.3056
 30
0
 70
     0
  0
VERTEX
  8
DV1_DEFAULT
 10
26.15
 20
2.544
 30
0
 70
     0
  0
VERTEX
  8
DV1_DEFAULT
 10
25.707
 20
2.7929
 30
0
 70
     0
  0
VERTEX
  8
DV1_DEFAULT
 10
25.2706
 20
3.0521
 30
0
 70
     0
  0
VERTEX
  8
DV1_DEFAULT
 10
24.841
 20
3.3214
 30
0
 70
     0
  0
VERTEX
  8
DV1_DEFAULT
 10
24.4182
 20
3.6007
 30
0
 70
     0
  0
VERTEX
  8
DV1_DEFAULT
 10
24.0026
 20
3.8898
 30
0
 70
     0
  0
VERTEX
  8
DV1_DEFAULT
 10
23.5942
 20
4.1885
 30
0
 70
     0
  0
VERTEX
  8
DV1_DEFAULT
 10
23.1931
 20
4.4967
 30
0
 70
     0
  0
VERTEX
  8
DV1_DEFAULT
 10
22.7997
 20
4.8142
 30
0
 70
     0
  0
VERTEX
  8
DV1_DEFAULT
 10
22.4141
 20
5.1408
 30
0
 70
     0
  0
VERTEX
  8
DV1_DEFAULT
 10
22.0363
 20
5.4764
 30
0
 70
     0
  0
VERTEX
  8
DV1_DEFAULT
 10
21.6667
 20
5.8207
 30
0
 70
     0
  0
VERTEX
  8
DV1_DEFAULT
 10
21.3053
 20
6.1736
 30
0
 70
     0
  0
VERTEX
  8
DV1_DEFAULT
 10
20.9524
 20
6.535
 30
0
 70
     0
  0
VERTEX
  8
DV1_DEFAULT
 10
20.608
 20
6.9047
 30
0
 70
     0
  0
VERTEX
  8
DV1_DEFAULT
 10
20.2725
 20
7.2824
 30
0
 70
     0
  0
VERTEX
  8
DV1_DEFAULT
 10
19.9459
 20
7.6681
 30
0
 70
     0
  0
VERTEX
  8
DV1_DEFAULT
 10
19.6284
 20
8.0615
 30
0
 70
     0
  0
VERTEX
  8
DV1_DEFAULT
 10
19.3202
 20
8.4625
 30
0
 70
     0
  0
VERTEX
  8
DV1_DEFAULT
 10
19.0215
 20
8.8709
 30
0
 70
     0
  0
VERTEX
  8
DV1_DEFAULT
 10
18.7324
 20
9.2866
 30
0
 70
     0
  0
VERTEX
  8
DV1_DEFAULT
 10
18.4531
 20
9.7093
 30
0
 70
     0
  0
VERTEX
  8
DV1_DEFAULT
 10
18.1837
 20
10.139
 30
0
 70
     0
  0
VERTEX
  8
DV1_DEFAULT
 10
17.9245
 20
10.5754
 30
0
 70
     0
  0
VERTEX
  8
DV1_DEFAULT
 10
17.6756
 20
11.0183
 30
0
 70
     0
  0
VERTEX
  8
DV1_DEFAULT
 10
17.4372
 20
11.4677
 30
0
 70
     0
  0
VERTEX
  8
DV1_DEFAULT
 10
17.2095
 20
11.9233
 30
0
 70
     0
  0
VERTEX
  8
DV1_DEFAULT
 10
16.9925
 20
12.3849
 30
0
 70
     0
  0
VERTEX
  8
DV1_DEFAULT
 10
16.7866
 20
12.8524
 30
0
 70
     0
  0
VERTEX
  8
DV1_DEFAULT
 10
16.5918
 20
13.3256
 30
0
 70
     0
  0
VERTEX
  8
DV1_DEFAULT
 10
16.4084
 20
13.8044
 30
0
 70
     0
  0
VERTEX
  8
DV1_DEFAULT
 10
16.2364
 20
14.2885
 30
0
 70
     0
  0
VERTEX
  8
DV1_DEFAULT
 10
16.0762
 20
14.7778
 30
0
 70
     0
  0
VERTEX
  8
DV1_DEFAULT
 10
15.9277
 20
15.2722
 30
0
 70
     0
  0
VERTEX
  8
DV1_DEFAULT
 10
15.7913
 20
15.7715
 30
0
 70
     0
  0
VERTEX
  8
DV1_DEFAULT
 10
15.6671
 20
16.2754
 30
0
 70
     0
  0
VERTEX
  8
DV1_DEFAULT
 10
15.5552
 20
16.7838
 30
0
 70
     0
  0
VERTEX
  8
DV1_DEFAULT
 10
15.4559
 20
17.2966
 30
0
 70
     0
  0
VERTEX
  8
DV1_DEFAULT
 10
15.3692
 20
17.8136
 30
0
 70
     0
  0
VERTEX
  8
DV1_DEFAULT
 10
15.2954
 20
18.3346
 30
0
 70
     0
  0
VERTEX
  8
DV1_DEFAULT
 10
15.2347
 20
18.8594
 30
0
 70
     0
  0
VERTEX
  8
DV1_DEFAULT
 10
15.1871
 20
19.3879
 30
0
 70
     0
  0
VERTEX
  8
DV1_DEFAULT
 10
15.1529
 20
19.9199
 30
0
 70
     0
  0
VERTEX
  8
DV1_DEFAULT
 10
15.1323
 20
20.4553
 30
0
 70
     0
  0
VERTEX
  8
DV1_DEFAULT
 10
15.1254
 20
20.9937
 30
0
 70
     0
  0
VERTEX
  8
DV1_DEFAULT
 10
15.1323
 20
21.5322
 30
0
 70
     0
  0
VERTEX
  8
DV1_DEFAULT
 10
15.1529
 20
22.0676
 30
0
 70
     0
  0
VERTEX
  8
DV1_DEFAULT
 10
15.1871
 20
22.5996
 30
0
 70
     0
  0
VERTEX
  8
DV1_DEFAULT
 10
15.2347
 20
23.1281
 30
0
 70
     0
  0
VERTEX
  8
DV1_DEFAULT
 10
15.2954
 20
23.6529
 30
0
 70
     0
  0
VERTEX
  8
DV1_DEFAULT
 10
15.3692
 20
24.1739
 30
0
 70
     0
  0
VERTEX
  8
DV1_DEFAULT
 10
15.4559
 20
24.6909
 30
0
 70
     0
  0
VERTEX
  8
DV1_DEFAULT
 10
15.5552
 20
25.2037
 30
0
 70
     0
  0
VERTEX
  8
DV1_DEFAULT
 10
15.6671
 20
25.7121
 30
0
 70
     0
  0
VERTEX
  8
DV1_DEFAULT
 10
15.7913
 20
26.216
 30
0
 70
     0
  0
VERTEX
  8
DV1_DEFAULT
 10
15.9277
 20
26.7153
 30
0
 70
     0
  0
VERTEX
  8
DV1_DEFAULT
 10
16.0762
 20
27.2096
 30
0
 70
     0
  0
VERTEX
  8
DV1_DEFAULT
 10
16.2364
 20
27.699
 30
0
 70
     0
  0
VERTEX
  8
DV1_DEFAULT
 10
16.4084
 20
28.1831
 30
0
 70
     0
  0
VERTEX
  8
DV1_DEFAULT
 10
16.5918
 20
28.6619
 30
0
 70
     0
  0
VERTEX
  8
DV1_DEFAULT
 10
16.7866
 20
29.1351
 30
0
 70
     0
  0
VERTEX
  8
DV1_DEFAULT
 10
16.9925
 20
29.6026
 30
0
 70
     0
  0
VERTEX
  8
DV1_DEFAULT
 10
17.2095
 20
30.0642
 30
0
 70
     0
  0
VERTEX
  8
DV1_DEFAULT
 10
17.4372
 20
30.5198
 30
0
 70
     0
  0
VERTEX
  8
DV1_DEFAULT
 10
17.6756
 20
30.9692
 30
0
 70
     0
  0
VERTEX
  8
DV1_DEFAULT
 10
17.9245
 20
31.4121
 30
0
 70
     0
  0
VERTEX
  8
DV1_DEFAULT
 10
18.1837
 20
31.8485
 30
0
 70
     0
  0
VERTEX
  8
DV1_DEFAULT
 10
18.4531
 20
32.2781
 30
0
 70
     0
  0
VERTEX
  8
DV1_DEFAULT
 10
18.7324
 20
32.7009
 30
0
 70
     0
  0
VERTEX
  8
DV1_DEFAULT
 10
19.0215
 20
33.1166
 30
0
 70
     0
  0
VERTEX
  8
DV1_DEFAULT
 10
19.3202
 20
33.525
 30
0
 70
     0
  0
VERTEX
  8
DV1_DEFAULT
 10
19.6284
 20
33.926
 30
0
 70
     0
  0
VERTEX
  8
DV1_DEFAULT
 10
19.9459
 20
34.3194
 30
0
 70
     0
  0
VERTEX
  8
DV1_DEFAULT
 10
20.2725
 20
34.7051
 30
0
 70
     0
  0
VERTEX
  8
DV1_DEFAULT
 10
20.608
 20
35.0828
 30
0
 70
     0
  0
VERTEX
  8
DV1_DEFAULT
 10
20.9524
 20
35.4525
 30
0
 70
     0
  0
VERTEX
  8
DV1_DEFAULT
 10
21.3053
 20
35.8138
 30
0
 70
     0
  0
VERTEX
  8
DV1_DEFAULT
 10
21.6667
 20
36.1668
 30
0
 70
     0
  0
VERTEX
  8
DV1_DEFAULT
 10
22.0363
 20
36.5111
 30
0
 70
     0
  0
VERTEX
  8
DV1_DEFAULT
 10
22.4141
 20
36.8467
 30
0
 70
     0
  0
VERTEX
  8
DV1_DEFAULT
 10
22.7997
 20
37.1733
 30
0
 70
     0
  0
VERTEX
  8
DV1_DEFAULT
 10
23.1931
 20
37.4907
 30
0
 70
     0
  0
VERTEX
  8
DV1_DEFAULT
 10
23.5942
 20
37.7989
 30
0
 70
     0
  0
VERTEX
  8
DV1_DEFAULT
 10
24.0026
 20
38.0977
 30
0
 70
     0
  0
VERTEX
  8
DV1_DEFAULT
 10
24.4182
 20
38.3868
 30
0
 70
     0
  0
VERTEX
  8
DV1_DEFAULT
 10
24.841
 20
38.6661
 30
0
 70
     0
  0
VERTEX
  8
DV1_DEFAULT
 10
25.2706
 20
38.9354
 30
0
 70
     0
  0
VERTEX
  8
DV1_DEFAULT
 10
25.707
 20
39.1946
 30
0
 70
     0
  0
VERTEX
  8
DV1_DEFAULT
 10
26.15
 20
39.4435
 30
0
 70
     0
  0
VERTEX
  8
DV1_DEFAULT
 10
26.5993
 20
39.6819
 30
0
 70
     0
  0
VERTEX
  8
DV1_DEFAULT
 10
27.0549
 20
39.9097
 30
0
 70
     0
  0
VERTEX
  8
DV1_DEFAULT
 10
27.5165
 20
40.1266
 30
0
 70
     0
  0
VERTEX
  8
DV1_DEFAULT
 10
27.984
 20
40.3325
 30
0
 70
     0
  0
VERTEX
  8
DV1_DEFAULT
 10
28.4573
 20
40.5273
 30
0
 70
     0
  0
VERTEX
  8
DV1_DEFAULT
 10
28.936
 20
40.7108
 30
0
 70
     0
  0
VERTEX
  8
DV1_DEFAULT
 10
29.4202
 20
40.8827
 30
0
 70
     0
  0
VERTEX
  8
DV1_DEFAULT
 10
29.9095
 20
41.043
 30
0
 70
     0
  0
VERTEX
  8
DV1_DEFAULT
 10
30.4039
 20
41.1914
 30
0
 70
     0
  0
VERTEX
  8
DV1_DEFAULT
 10
30.9031
 20
41.3278
 30
0
 70
     0
  0
VERTEX
  8
DV1_DEFAULT
 10
31.407
 20
41.452
 30
0
 70
     0
  0
VERTEX
  8
DV1_DEFAULT
 10
31.9155
 20
41.5639
 30
0
 70
     0
  0
VERTEX
  8
DV1_DEFAULT
 10
32.4283
 20
41.6633
 30
0
 70
     0
  0
VERTEX
  8
DV1_DEFAULT
 10
32.9453
 20
41.7499
 30
0
 70
     0
  0
VERTEX
  8
DV1_DEFAULT
 10
33.4662
 20
41.8237
 30
0
 70
     0
  0
VERTEX
  8
DV1_DEFAULT
 10
33.9911
 20
41.8845
 30
0
 70
     0
  0
VERTEX
  8
DV1_DEFAULT
 10
34.5196
 20
41.932
 30
0
 70
     0
  0
VERTEX
  8
DV1_DEFAULT
 10
35.0516
 20
41.9662
 30
0
 70
     0
  0
VERTEX
  8
DV1_DEFAULT
 10
35.5869
 20
41.9868
 30
0
 70
     0
  0
VERTEX
  8
DV1_DEFAULT
 10
36.1254
 20
41.9937
 30
0
 70
     0
  0
VERTEX
  8
DV1_DEFAULT
 10
36.6639
 20
41.9868
 30
0
 70
     0
  0
VERTEX
  8
DV1_DEFAULT
 10
37.1992
 20
41.9662
 30
0
 70
     0
  0
VERTEX
  8
DV1_DEFAULT
 10
37.7312
 20
41.932
 30
0
 70
     0
  0
VERTEX
  8
DV1_DEFAULT
 10
38.2597
 20
41.8845
 30
0
 70
     0
  0
VERTEX
  8
DV1_DEFAULT
 10
38.7845
 20
41.8237
 30
0
 70
     0
  0
VERTEX
  8
DV1_DEFAULT
 10
39.3055
 20
41.7499
 30
0
 70
     0
  0
VERTEX
  8
DV1_DEFAULT
 10
39.8225
 20
41.6633
 30
0
 70
     0
  0
VERTEX
  8
DV1_DEFAULT
 10
40.3353
 20
41.5639
 30
0
 70
     0
  0
VERTEX
  8
DV1_DEFAULT
 10
40.8438
 20
41.452
 30
0
 70
     0
  0
VERTEX
  8
DV1_DEFAULT
 10
41.3477
 20
41.3278
 30
0
 70
     0
  0
VERTEX
  8
DV1_DEFAULT
 10
41.8469
 20
41.1914
 30
0
 70
     0
  0
VERTEX
  8
DV1_DEFAULT
 10
42.3413
 20
41.043
 30
0
 70
     0
  0
VERTEX
  8
DV1_DEFAULT
 10
42.8306
 20
40.8827
 30
0
 70
     0
  0
VERTEX
  8
DV1_DEFAULT
 10
43.3148
 20
40.7108
 30
0
 70
     0
  0
VERTEX
  8
DV1_DEFAULT
 10
43.7935
 20
40.5273
 30
0
 70
     0
  0
VERTEX
  8
DV1_DEFAULT
 10
44.2668
 20
40.3325
 30
0
 70
     0
  0
VERTEX
  8
DV1_DEFAULT
 10
44.7343
 20
40.1266
 30
0
 70
     0
  0
VERTEX
  8
DV1_DEFAULT
 10
45.1959
 20
39.9097
 30
0
 70
     0
  0
VERTEX
  8
DV1_DEFAULT
 10
45.6515
 20
39.6819
 30
0
 70
     0
  0
VERTEX
  8
DV1_DEFAULT
 10
46.1008
 20
39.4435
 30
0
 70
     0
  0
VERTEX
  8
DV1_DEFAULT
 10
46.5438
 20
39.1946
 30
0
 70
     0
  0
VERTEX
  8
DV1_DEFAULT
 10
46.9801
 20
38.9354
 30
0
 70
     0
  0
VERTEX
  8
DV1_DEFAULT
 10
47.4098
 20
38.6661
 30
0
 70
     0
  0
VERTEX
  8
DV1_DEFAULT
 10
47.8325
 20
38.3868
 30
0
 70
     0
  0
VERTEX
  8
DV1_DEFAULT
 10
48.2482
 20
38.0977
 30
0
 70
     0
  0
VERTEX
  8
DV1_DEFAULT
 10
48.6566
 20
37.7989
 30
0
 70
     0
  0
VERTEX
  8
DV1_DEFAULT
 10
49.0576
 20
37.4907
 30
0
 70
     0
  0
VERTEX
  8
DV1_DEFAULT
 10
49.4511
 20
37.1733
 30
0
 70
     0
  0
VERTEX
  8
DV1_DEFAULT
 10
49.8367
 20
36.8467
 30
0
 70
     0
  0
VERTEX
  8
DV1_DEFAULT
 10
50.2145
 20
36.5111
 30
0
 70
     0
  0
VERTEX
  8
DV1_DEFAULT
 10
50.5841
 20
36.1668
 30
0
 70
     0
  0
VERTEX
  8
DV1_DEFAULT
 10
50.9455
 20
35.8138
 30
0
 70
     0
  0
VERTEX
  8
DV1_DEFAULT
 10
51.2984
 20
35.4525
 30
0
 70
     0
  0
VERTEX
  8
DV1_DEFAULT
 10
51.6428
 20
35.0828
 30
0
 70
     0
  0
VERTEX
  8
DV1_DEFAULT
 10
51.9783
 20
34.7051
 30
0
 70
     0
  0
VERTEX
  8
DV1_DEFAULT
 10
52.3049
 20
34.3194
 30
0
 70
     0
  0
VERTEX
  8
DV1_DEFAULT
 10
52.6224
 20
33.926
 30
0
 70
     0
  0
VERTEX
  8
DV1_DEFAULT
 10
52.9306
 20
33.525
 30
0
 70
     0
  0
VERTEX
  8
DV1_DEFAULT
 10
53.2293
 20
33.1166
 30
0
 70
     0
  0
VERTEX
  8
DV1_DEFAULT
 10
53.5184
 20
32.7009
 30
0
 70
     0
  0
VERTEX
  8
DV1_DEFAULT
 10
53.7977
 20
32.2781
 30
0
 70
     0
  0
VERTEX
  8
DV1_DEFAULT
 10
54.0671
 20
31.8485
 30
0
 70
     0
  0
VERTEX
  8
DV1_DEFAULT
 10
54.3263
 20
31.4121
 30
0
 70
     0
  0
VERTEX
  8
DV1_DEFAULT
 10
54.5752
 20
30.9692
 30
0
 70
     0
  0
VERTEX
  8
DV1_DEFAULT
 10
54.8136
 20
30.5198
 30
0
 70
     0
  0
VERTEX
  8
DV1_DEFAULT
 10
55.0413
 20
30.0642
 30
0
 70
     0
  0
VERTEX
  8
DV1_DEFAULT
 10
55.2582
 20
29.6026
 30
0
 70
     0
  0
VERTEX
  8
DV1_DEFAULT
 10
55.4642
 20
29.1351
 30
0
 70
     0
  0
VERTEX
  8
DV1_DEFAULT
 10
55.659
 20
28.6619
 30
0
 70
     0
  0
VERTEX
  8
DV1_DEFAULT
 10
55.8424
 20
28.1831
 30
0
 70
     0
  0
VERTEX
  8
DV1_DEFAULT
 10
56.0143
 20
27.699
 30
0
 70
     0
  0
VERTEX
  8
DV1_DEFAULT
 10
56.1746
 20
27.2096
 30
0
 70
     0
  0
VERTEX
  8
DV1_DEFAULT
 10
56.323
 20
26.7153
 30
0
 70
     0
  0
VERTEX
  8
DV1_DEFAULT
 10
56.4595
 20
26.216
 30
0
 70
     0
  0
VERTEX
  8
DV1_DEFAULT
 10
56.5837
 20
25.7121
 30
0
 70
     0
  0
VERTEX
  8
DV1_DEFAULT
 10
56.6956
 20
25.2037
 30
0
 70
     0
  0
VERTEX
  8
DV1_DEFAULT
 10
56.7949
 20
24.6909
 30
0
 70
     0
  0
VERTEX
  8
DV1_DEFAULT
 10
56.8816
 20
24.1739
 30
0
 70
     0
  0
VERTEX
  8
DV1_DEFAULT
 10
56.9554
 20
23.6529
 30
0
 70
     0
  0
VERTEX
  8
DV1_DEFAULT
 10
57.0161
 20
23.1281
 30
0
 70
     0
  0
VERTEX
  8
DV1_DEFAULT
 10
57.0637
 20
22.5996
 30
0
 70
     0
  0
VERTEX
  8
DV1_DEFAULT
 10
57.0978
 20
22.0676
 30
0
 70
     0
  0
VERTEX
  8
DV1_DEFAULT
 10
57.1185
 20
21.5322
 30
0
 70
     0
  0
VERTEX
  8
DV1_DEFAULT
 10
57.1254
 20
20.9937
 30
0
 70
     0
  0
SEQEND
  0
POLYLINE
  8
DV1_DEFAULT
  6
CONTINUOUS
 62
     7
 66
     1
 40
0
 41
0
  0
VERTEX
  8
DV1_DEFAULT
 10
114.125
 20
108.197
 30
0
 70
     0
  0
VERTEX
  8
DV1_DEFAULT
 10
114.1202
 20
108.397
 30
0
 70
     0
  0
VERTEX
  8
DV1_DEFAULT
 10
114.1057
 20
108.5946
 30
0
 70
     0
  0
VERTEX
  8
DV1_DEFAULT
 10
114.0817
 20
108.7895
 30
0
 70
     0
  0
VERTEX
  8
DV1_DEFAULT
 10
114.0485
 20
108.9815
 30
0
 70
     0
  0
VERTEX
  8
DV1_DEFAULT
 10
114.0062
 20
109.1702
 30
0
 70
     0
  0
VERTEX
  8
DV1_DEFAULT
 10
113.9552
 20
109.3556
 30
0
 70
     0
  0
VERTEX
  8
DV1_DEFAULT
 10
113.8955
 20
109.5372
 30
0
 70
     0
  0
VERTEX
  8
DV1_DEFAULT
 10
113.8275
 20
109.715
 30
0
 70
     0
  0
VERTEX
  8
DV1_DEFAULT
 10
113.7514
 20
109.8887
 30
0
 70
     0
  0
VERTEX
  8
DV1_DEFAULT
 10
113.6674
 20
110.058
 30
0
 70
     0
  0
VERTEX
  8
DV1_DEFAULT
 10
113.5757
 20
110.2226
 30
0
 70
     0
  0
VERTEX
  8
DV1_DEFAULT
 10
113.4766
 20
110.3824
 30
0
 70
     0
  0
VERTEX
  8
DV1_DEFAULT
 10
113.3704
 20
110.5372
 30
0
 70
     0
  0
VERTEX
  8
DV1_DEFAULT
 10
113.2571
 20
110.6866
 30
0
 70
     0
  0
VERTEX
  8
DV1_DEFAULT
 10
113.1371
 20
110.8304
 30
0
 70
     0
  0
VERTEX
  8
DV1_DEFAULT
 10
113.0105
 20
110.9684
 30
0
 70
     0
  0
VERTEX
  8
DV1_DEFAULT
 10
112.8777
 20
111.1004
 30
0
 70
     0
  0
VERTEX
  8
DV1_DEFAULT
 10
112.7388
 20
111.2261
 30
0
 70
     0
  0
VERTEX
  8
DV1_DEFAULT
 10
112.5941
 20
111.3453
 30
0
 70
     0
  0
VERTEX
  8
DV1_DEFAULT
 10
112.4438
 20
111.4578
 30
0
 70
     0
  0
VERTEX
  8
DV1_DEFAULT
 10
112.2881
 20
111.5632
 30
0
 70
     0
  0
VERTEX
  8
DV1_DEFAULT
 10
112.1273
 20
111.6615
 30
0
 70
     0
  0
VERTEX
  8
DV1_DEFAULT
 10
111.9615
 20
111.7522
 30
0
 70
     0
  0
VERTEX
  8
DV1_DEFAULT
 10
111.7911
 20
111.8353
 30
0
 70
     0
  0
VERTEX
  8
DV1_DEFAULT
 10
111.6162
 20
111.9104
 30
0
 70
     0
  0
VERTEX
  8
DV1_DEFAULT
 10
111.4371
 20
111.9773
 30
0
 70
     0
  0
VERTEX
  8
DV1_DEFAULT
 10
111.2539
 20
112.0358
 30
0
 70
     0
  0
VERTEX
  8
DV1_DEFAULT
 10
111.067
 20
112.0856
 30
0
 70
     0
  0
VERTEX
  8
DV1_DEFAULT
 10
110.8766
 20
112.1266
 30
0
 70
     0
  0
VERTEX
  8
DV1_DEFAULT
 10
110.6828
 20
112.1584
 30
0
 70
     0
  0
VERTEX
  8
DV1_DEFAULT
 10
110.486
 20
112.1809
 30
0
 70
     0
  0
VERTEX
  8
DV1_DEFAULT
 10
110.2863
 20
112.1937
 30
0
 70
     0
  0
SEQEND
  0
POLYLINE
  8
DV1_DEFAULT
  6
CONTINUOUS
 62
     7
 66
     1
 40
0
 41
0
  0
VERTEX
  8
DV1_DEFAULT
 10
110.2863
 20
112.1937
 30
0
 70
     0
  0
VERTEX
  8
DV1_DEFAULT
 10
109.1078
 20
112.2394
 30
0
 70
     0
  0
VERTEX
  8
DV1_DEFAULT
 10
107.9292
 20
112.2794
 30
0
 70
     0
  0
VERTEX
  8
DV1_DEFAULT
 10
106.7504
 20
112.3139
 30
0
 70
     0
  0
VERTEX
  8
DV1_DEFAULT
 10
105.5717
 20
112.3427
 30
0
 70
     0
  0
VERTEX
  8
DV1_DEFAULT
 10
104.3928
 20
112.3659
 30
0
 70
     0
  0
VERTEX
  8
DV1_DEFAULT
 10
103.214
 20
112.3834
 30
0
 70
     0
  0
VERTEX
  8
DV1_DEFAULT
 10
102.0351
 20
112.3954
 30
0
 70
     0
  0
VERTEX
  8
DV1_DEFAULT
 10
100.8562
 20
112.4017
 30
0
 70
     0
  0
VERTEX
  8
DV1_DEFAULT
 10
99.6774
 20
112.4025
 30
0
 70
     0
  0
VERTEX
  8
DV1_DEFAULT
 10
98.4986
 20
112.3976
 30
0
 70
     0
  0
VERTEX
  8
DV1_DEFAULT
 10
97.3199
 20
112.387
 30
0
 70
     0
  0
VERTEX
  8
DV1_DEFAULT
 10
96.1413
 20
112.3709
 30
0
 70
     0
  0
VERTEX
  8
DV1_DEFAULT
 10
94.9628
 20
112.3492
 30
0
 70
     0
  0
VERTEX
  8
DV1_DEFAULT
 10
93.7845
 20
112.3218
 30
0
 70
     0
  0
VERTEX
  8
DV1_DEFAULT
 10
92.6063
 20
112.2888
 30
0
 70
     0
  0
VERTEX
  8
DV1_DEFAULT
 10
91.4283
 20
112.2503
 30
0
 70
     0
  0
VERTEX
  8
DV1_DEFAULT
 10
90.2505
 20
112.2061
 30
0
 70
     0
  0
VERTEX
  8
DV1_DEFAULT
 10
89.0728
 20
112.1563
 30
0
 70
     0
  0
VERTEX
  8
DV1_DEFAULT
 10
87.8955
 20
112.1008
 30
0
 70
     0
  0
VERTEX
  8
DV1_DEFAULT
 10
86.7184
 20
112.0398
 30
0
 70
     0
  0
VERTEX
  8
DV1_DEFAULT
 10
85.5415
 20
111.9732
 30
0
 70
     0
  0
VERTEX
  8
DV1_DEFAULT
 10
84.365
 20
111.9009
 30
0
 70
     0
  0
VERTEX
  8
DV1_DEFAULT
 10
83.1888
 20
111.8231
 30
0
 70
     0
  0
VERTEX
  8
DV1_DEFAULT
 10
82.0129
 20
111.7396
 30
0
 70
     0
  0
VERTEX
  8
DV1_DEFAULT
 10
80.8374
 20
111.6506
 30
0
 70
     0
  0
VERTEX
  8
DV1_DEFAULT
 10
79.6623
 20
111.5559
 30
0
 70
     0
  0
VERTEX
  8
DV1_DEFAULT
 10
78.4876
 20
111.4556
 30
0
 70
     0
  0
VERTEX
  8
DV1_DEFAULT
 10
77.3133
 20
111.3498
 30
0
 70
     0
  0
VERTEX
  8
DV1_DEFAULT
 10
76.1394
 20
111.2383
 30
0
 70
     0
  0
VERTEX
  8
DV1_DEFAULT
 10
74.966
 20
111.1212
 30
0
 70
     0
  0
VERTEX
  8
DV1_DEFAULT
 10
73.7931
 20
110.9985
 30
0
 70
     0
  0
VERTEX
  8
DV1_DEFAULT
 10
72.6207
 20
110.8702
 30
0
 70
     0
  0
SEQEND
  0
POLYLINE
  8
DV1_DEFAULT
  6
CONTINUOUS
 62
     7
 66
     1
 40
0
 41
0
  0
VERTEX
  8
DV1_DEFAULT
 10
108.125
 20
106.2685
 30
0
 70
     0
  0
VERTEX
  8
DV1_DEFAULT
 10
105.9245
 20
106.3316
 30
0
 70
     0
  0
VERTEX
  8
DV1_DEFAULT
 10
103.7238
 20
106.3747
 30
0
 70
     0
  0
VERTEX
  8
DV1_DEFAULT
 10
101.5231
 20
106.3977
 30
0
 70
     0
  0
VERTEX
  8
DV1_DEFAULT
 10
99.3225
 20
106.4006
 30
0
 70
     0
  0
VERTEX
  8
DV1_DEFAULT
 10
97.122
 20
106.3835
 30
0
 70
     0
  0
VERTEX
  8
DV1_DEFAULT
 10
94.922
 20
106.3463
 30
0
 70
     0
  0
VERTEX
  8
DV1_DEFAULT
 10
92.7225
 20
106.289
 30
0
 70
     0
  0
VERTEX
  8
DV1_DEFAULT
 10
90.5236
 20
106.2117
 30
0
 70
     0
  0
VERTEX
  8
DV1_DEFAULT
 10
88.3256
 20
106.1144
 30
0
 70
     0
  0
VERTEX
  8
DV1_DEFAULT
 10
86.1284
 20
105.997
 30
0
 70
     0
  0
VERTEX
  8
DV1_DEFAULT
 10
83.9324
 20
105.8596
 30
0
 70
     0
  0
VERTEX
  8
DV1_DEFAULT
 10
81.7375
 20
105.7022
 30
0
 70
     0
  0
VERTEX
  8
DV1_DEFAULT
 10
79.5441
 20
105.5247
 30
0
 70
     0
  0
VERTEX
  8
DV1_DEFAULT
 10
77.3521
 20
105.3273
 30
0
 70
     0
  0
VERTEX
  8
DV1_DEFAULT
 10
75.1617
 20
105.1098
 30
0
 70
     0
  0
VERTEX
  8
DV1_DEFAULT
 10
72.9732
 20
104.8723
 30
0
 70
     0
  0
SEQEND
  0
POLYLINE
  8
DV1_DEFAULT
  6
CONTINUOUS
 62
     7
 66
     1
 40
0
 41
0
  0
VERTEX
  8
DV1_DEFAULT
 10
16.8856
 20
53.8938
 30
0
 70
     0
  0
VERTEX
  8
DV1_DEFAULT
 10
16.5344
 20
53.8733
 30
0
 70
     0
  0
VERTEX
  8
DV1_DEFAULT
 10
16.1883
 20
53.8359
 30
0
 70
     0
  0
VERTEX
  8
DV1_DEFAULT
 10
15.8474
 20
53.7819
 30
0
 70
     0
  0
VERTEX
  8
DV1_DEFAULT
 10
15.5124
 20
53.7117
 30
0
 70
     0
  0
VERTEX
  8
DV1_DEFAULT
 10
15.1836
 20
53.6258
 30
0
 70
     0
  0
VERTEX
  8
DV1_DEFAULT
 10
14.8613
 20
53.5246
 30
0
 70
     0
  0
VERTEX
  8
DV1_DEFAULT
 10
14.546
 20
53.4085
 30
0
 70
     0
  0
VERTEX
  8
DV1_DEFAULT
 10
14.2382
 20
53.278
 30
0
 70
     0
  0
VERTEX
  8
DV1_DEFAULT
 10
13.9381
 20
53.1334
 30
0
 70
     0
  0
VERTEX
  8
DV1_DEFAULT
 10
13.6463
 20
52.9752
 30
0
 70
     0
  0
VERTEX
  8
DV1_DEFAULT
 10
13.363
 20
52.8037
 30
0
 70
     0
  0
VERTEX
  8
DV1_DEFAULT
 10
13.0888
 20
52.6195
 30
0
 70
     0
  0
VERTEX
  8
DV1_DEFAULT
 10
12.8241
 20
52.423
 30
0
 70
     0
  0
VERTEX
  8
DV1_DEFAULT
 10
12.5691
 20
52.2145
 30
0
 70
     0
  0
VERTEX
  8
DV1_DEFAULT
 10
12.3244
 20
51.9944
 30
0
 70
     0
  0
VERTEX
  8
DV1_DEFAULT
 10
12.0904
 20
51.7633
 30
0
 70
     0
  0
VERTEX
  8
DV1_DEFAULT
 10
11.8674
 20
51.5214
 30
0
 70
     0
  0
VERTEX
  8
DV1_DEFAULT
 10
11.6559
 20
51.2694
 30
0
 70
     0
  0
VERTEX
  8
DV1_DEFAULT
 10
11.4562
 20
51.0074
 30
0
 70
     0
  0
VERTEX
  8
DV1_DEFAULT
 10
11.2688
 20
50.7361
 30
0
 70
     0
  0
VERTEX
  8
DV1_DEFAULT
 10
11.0941
 20
50.4557
 30
0
 70
     0
  0
VERTEX
  8
DV1_DEFAULT
 10
10.9325
 20
50.1668
 30
0
 70
     0
  0
VERTEX
  8
DV1_DEFAULT
 10
10.7844
 20
49.8697
 30
0
 70
     0
  0
VERTEX
  8
DV1_DEFAULT
 10
10.6501
 20
49.5649
 30
0
 70
     0
  0
VERTEX
  8
DV1_DEFAULT
 10
10.5302
 20
49.2527
 30
0
 70
     0
  0
VERTEX
  8
DV1_DEFAULT
 10
10.425
 20
48.9336
 30
0
 70
     0
  0
VERTEX
  8
DV1_DEFAULT
 10
10.3349
 20
48.6081
 30
0
 70
     0
  0
VERTEX
  8
DV1_DEFAULT
 10
10.2603
 20
48.2765
 30
0
 70
     0
  0
VERTEX
  8
DV1_DEFAULT
 10
10.2017
 20
47.9393
 30
0
 70
     0
  0
VERTEX
  8
DV1_DEFAULT
 10
10.1594
 20
47.5968
 30
0
 70
     0
  0
VERTEX
  8
DV1_DEFAULT
 10
10.1338
 20
47.2496
 30
0
 70
     0
  0
VERTEX
  8
DV1_DEFAULT
 10
10.1254
 20
46.8979
 30
0
 70
     0
  0
SEQEND
  0
POLYLINE
  8
DV1_DEFAULT
  6
CONTINUOUS
 62
     7
 66
     1
 40
0
 41
0
  0
VERTEX
  8
DV1_DEFAULT
 10
55.5261
 20
49.7587
 30
0
 70
     0
  0
VERTEX
  8
DV1_DEFAULT
 10
55.4424
 20
50.0524
 30
0
 70
     0
  0
VERTEX
  8
DV1_DEFAULT
 10
55.3469
 20
50.3401
 30
0
 70
     0
  0
VERTEX
  8
DV1_DEFAULT
 10
55.2397
 20
50.6215
 30
0
 70
     0
  0
VERTEX
  8
DV1_DEFAULT
 10
55.1213
 20
50.8963
 30
0
 70
     0
  0
VERTEX
  8
DV1_DEFAULT
 10
54.9919
 20
51.1643
 30
0
 70
     0
  0
VERTEX
  8
DV1_DEFAULT
 10
54.8519
 20
51.4254
 30
0
 70
     0
  0
VERTEX
  8
DV1_DEFAULT
 10
54.7015
 20
51.6792
 30
0
 70
     0
  0
VERTEX
  8
DV1_DEFAULT
 10
54.5412
 20
51.9255
 30
0
 70
     0
  0
VERTEX
  8
DV1_DEFAULT
 10
54.3712
 20
52.164
 30
0
 70
     0
  0
VERTEX
  8
DV1_DEFAULT
 10
54.1918
 20
52.3947
 30
0
 70
     0
  0
VERTEX
  8
DV1_DEFAULT
 10
54.0033
 20
52.6171
 30
0
 70
     0
  0
VERTEX
  8
DV1_DEFAULT
 10
53.8061
 20
52.8311
 30
0
 70
     0
  0
VERTEX
  8
DV1_DEFAULT
 10
53.6005
 20
53.0364
 30
0
 70
     0
  0
VERTEX
  8
DV1_DEFAULT
 10
53.3868
 20
53.2328
 30
0
 70
     0
  0
VERTEX
  8
DV1_DEFAULT
 10
53.1653
 20
53.4201
 30
0
 70
     0
  0
VERTEX
  8
DV1_DEFAULT
 10
52.9363
 20
53.5981
 30
0
 70
     0
  0
VERTEX
  8
DV1_DEFAULT
 10
52.7002
 20
53.7664
 30
0
 70
     0
  0
VERTEX
  8
DV1_DEFAULT
 10
52.4573
 20
53.9249
 30
0
 70
     0
  0
VERTEX
  8
DV1_DEFAULT
 10
52.2078
 20
54.0733
 30
0
 70
     0
  0
VERTEX
  8
DV1_DEFAULT
 10
51.9521
 20
54.2114
 30
0
 70
     0
  0
VERTEX
  8
DV1_DEFAULT
 10
51.6906
 20
54.3389
 30
0
 70
     0
  0
VERTEX
  8
DV1_DEFAULT
 10
51.4234
 20
54.4556
 30
0
 70
     0
  0
VERTEX
  8
DV1_DEFAULT
 10
51.151
 20
54.5613
 30
0
 70
     0
  0
VERTEX
  8
DV1_DEFAULT
 10
50.8737
 20
54.6558
 30
0
 70
     0
  0
VERTEX
  8
DV1_DEFAULT
 10
50.5918
 20
54.7388
 30
0
 70
     0
  0
VERTEX
  8
DV1_DEFAULT
 10
50.3055
 20
54.81
 30
0
 70
     0
  0
VERTEX
  8
DV1_DEFAULT
 10
50.0153
 20
54.8693
 30
0
 70
     0
  0
VERTEX
  8
DV1_DEFAULT
 10
49.7214
 20
54.9164
 30
0
 70
     0
  0
VERTEX
  8
DV1_DEFAULT
 10
49.4242
 20
54.951
 30
0
 70
     0
  0
VERTEX
  8
DV1_DEFAULT
 10
49.1239
 20
54.9729
 30
0
 70
     0
  0
VERTEX
  8
DV1_DEFAULT
 10
48.8209
 20
54.982
 30
0
 70
     0
  0
VERTEX
  8
DV1_DEFAULT
 10
48.5155
 20
54.9779
 30
0
 70
     0
  0
SEQEND
  0
POLYLINE
  8
DV1_DEFAULT
  6
CONTINUOUS
 62
     7
 66
     1
 40
0
 41
0
  0
VERTEX
  8
DV1_DEFAULT
 10
16.7828
 20
56.892
 30
0
 70
     0
  0
VERTEX
  8
DV1_DEFAULT
 10
16.5312
 20
56.8805
 30
0
 70
     0
  0
VERTEX
  8
DV1_DEFAULT
 10
16.2812
 20
56.8628
 30
0
 70
     0
  0
VERTEX
  8
DV1_DEFAULT
 10
16.033
 20
56.839
 30
0
 70
     0
  0
VERTEX
  8
DV1_DEFAULT
 10
15.7866
 20
56.8093
 30
0
 70
     0
  0
VERTEX
  8
DV1_DEFAULT
 10
15.5422
 20
56.7736
 30
0
 70
     0
  0
VERTEX
  8
DV1_DEFAULT
 10
15.2998
 20
56.7321
 30
0
 70
     0
  0
VERTEX
  8
DV1_DEFAULT
 10
15.0594
 20
56.6849
 30
0
 70
     0
  0
VERTEX
  8
DV1_DEFAULT
 10
14.8212
 20
56.6319
 30
0
 70
     0
  0
VERTEX
  8
DV1_DEFAULT
 10
14.5851
 20
56.5733
 30
0
 70
     0
  0
VERTEX
  8
DV1_DEFAULT
 10
14.3514
 20
56.5092
 30
0
 70
     0
  0
VERTEX
  8
DV1_DEFAULT
 10
14.12
 20
56.4396
 30
0
 70
     0
  0
VERTEX
  8
DV1_DEFAULT
 10
13.891
 20
56.3646
 30
0
 70
     0
  0
VERTEX
  8
DV1_DEFAULT
 10
13.6645
 20
56.2843
 30
0
 70
     0
  0
VERTEX
  8
DV1_DEFAULT
 10
13.4406
 20
56.1988
 30
0
 70
     0
  0
VERTEX
  8
DV1_DEFAULT
 10
13.2194
 20
56.1081
 30
0
 70
     0
  0
VERTEX
  8
DV1_DEFAULT
 10
13.0008
 20
56.0123
 30
0
 70
     0
  0
VERTEX
  8
DV1_DEFAULT
 10
12.5721
 20
55.8057
 30
0
 70
     0
  0
VERTEX
  8
DV1_DEFAULT
 10
12.1552
 20
55.5797
 30
0
 70
     0
  0
VERTEX
  8
DV1_DEFAULT
 10
11.7506
 20
55.3348
 30
0
 70
     0
  0
VERTEX
  8
DV1_DEFAULT
 10
11.3589
 20
55.0717
 30
0
 70
     0
  0
VERTEX
  8
DV1_DEFAULT
 10
10.9806
 20
54.7908
 30
0
 70
     0
  0
VERTEX
  8
DV1_DEFAULT
 10
10.6164
 20
54.493
 30
0
 70
     0
  0
VERTEX
  8
DV1_DEFAULT
 10
10.2669
 20
54.1786
 30
0
 70
     0
  0
VERTEX
  8
DV1_DEFAULT
 10
9.9325
 20
53.8484
 30
0
 70
     0
  0
VERTEX
  8
DV1_DEFAULT
 10
9.614
 20
53.503
 30
0
 70
     0
  0
VERTEX
  8
DV1_DEFAULT
 10
9.3118
 20
53.1428
 30
0
 70
     0
  0
VERTEX
  8
DV1_DEFAULT
 10
9.0266
 20
52.7687
 30
0
 70
     0
  0
VERTEX
  8
DV1_DEFAULT
 10
8.7589
 20
52.381
 30
0
 70
     0
  0
VERTEX
  8
DV1_DEFAULT
 10
8.5093
 20
51.9805
 30
0
 70
     0
  0
VERTEX
  8
DV1_DEFAULT
 10
8.2784
 20
51.5677
 30
0
 70
     0
  0
VERTEX
  8
DV1_DEFAULT
 10
8.0668
 20
51.1433
 30
0
 70
     0
  0
VERTEX
  8
DV1_DEFAULT
 10
7.875
 20
50.7078
 30
0
 70
     0
  0
VERTEX
  8
DV1_DEFAULT
 10
7.7868
 20
50.4861
 30
0
 70
     0
  0
VERTEX
  8
DV1_DEFAULT
 10
7.7037
 20
50.2619
 30
0
 70
     0
  0
VERTEX
  8
DV1_DEFAULT
 10
7.6259
 20
50.0352
 30
0
 70
     0
  0
VERTEX
  8
DV1_DEFAULT
 10
7.5534
 20
49.8061
 30
0
 70
     0
  0
VERTEX
  8
DV1_DEFAULT
 10
7.4863
 20
49.5747
 30
0
 70
     0
  0
VERTEX
  8
DV1_DEFAULT
 10
7.4247
 20
49.341
 30
0
 70
     0
  0
VERTEX
  8
DV1_DEFAULT
 10
7.3686
 20
49.1052
 30
0
 70
     0
  0
VERTEX
  8
DV1_DEFAULT
 10
7.3182
 20
48.8673
 30
0
 70
     0
  0
VERTEX
  8
DV1_DEFAULT
 10
7.2734
 20
48.6274
 30
0
 70
     0
  0
VERTEX
  8
DV1_DEFAULT
 10
7.2344
 20
48.3856
 30
0
 70
     0
  0
VERTEX
  8
DV1_DEFAULT
 10
7.2012
 20
48.1418
 30
0
 70
     0
  0
VERTEX
  8
DV1_DEFAULT
 10
7.1739
 20
47.8963
 30
0
 70
     0
  0
VERTEX
  8
DV1_DEFAULT
 10
7.1526
 20
47.6491
 30
0
 70
     0
  0
VERTEX
  8
DV1_DEFAULT
 10
7.1374
 20
47.4003
 30
0
 70
     0
  0
VERTEX
  8
DV1_DEFAULT
 10
7.1283
 20
47.1498
 30
0
 70
     0
  0
VERTEX
  8
DV1_DEFAULT
 10
7.1254
 20
46.8979
 30
0
 70
     0
  0
SEQEND
  0
POLYLINE
  8
DV1_DEFAULT
  6
CONTINUOUS
 62
     7
 66
     1
 40
0
 41
0
  0
VERTEX
  8
DV1_DEFAULT
 10
58.4278
 20
50.5201
 30
0
 70
     0
  0
VERTEX
  8
DV1_DEFAULT
 10
58.3083
 20
50.9398
 30
0
 70
     0
  0
VERTEX
  8
DV1_DEFAULT
 10
58.1718
 20
51.3507
 30
0
 70
     0
  0
VERTEX
  8
DV1_DEFAULT
 10
58.0187
 20
51.7527
 30
0
 70
     0
  0
VERTEX
  8
DV1_DEFAULT
 10
57.8495
 20
52.1453
 30
0
 70
     0
  0
VERTEX
  8
DV1_DEFAULT
 10
57.6647
 20
52.5282
 30
0
 70
     0
  0
VERTEX
  8
DV1_DEFAULT
 10
57.4647
 20
52.9011
 30
0
 70
     0
  0
VERTEX
  8
DV1_DEFAULT
 10
57.2499
 20
53.2637
 30
0
 70
     0
  0
VERTEX
  8
DV1_DEFAULT
 10
57.0209
 20
53.6155
 30
0
 70
     0
  0
VERTEX
  8
DV1_DEFAULT
 10
56.778
 20
53.9563
 30
0
 70
     0
  0
VERTEX
  8
DV1_DEFAULT
 10
56.5217
 20
54.2858
 30
0
 70
     0
  0
VERTEX
  8
DV1_DEFAULT
 10
56.2525
 20
54.6035
 30
0
 70
     0
  0
VERTEX
  8
DV1_DEFAULT
 10
55.9708
 20
54.9093
 30
0
 70
     0
  0
VERTEX
  8
DV1_DEFAULT
 10
55.677
 20
55.2026
 30
0
 70
     0
  0
VERTEX
  8
DV1_DEFAULT
 10
55.3717
 20
55.4832
 30
0
 70
     0
  0
VERTEX
  8
DV1_DEFAULT
 10
55.0553
 20
55.7508
 30
0
 70
     0
  0
VERTEX
  8
DV1_DEFAULT
 10
54.7282
 20
56.005
 30
0
 70
     0
  0
VERTEX
  8
DV1_DEFAULT
 10
54.3909
 20
56.2454
 30
0
 70
     0
  0
VERTEX
  8
DV1_DEFAULT
 10
54.0438
 20
56.4718
 30
0
 70
     0
  0
VERTEX
  8
DV1_DEFAULT
 10
53.6874
 20
56.6838
 30
0
 70
     0
  0
VERTEX
  8
DV1_DEFAULT
 10
53.3222
 20
56.8811
 30
0
 70
     0
  0
VERTEX
  8
DV1_DEFAULT
 10
52.9485
 20
57.0633
 30
0
 70
     0
  0
VERTEX
  8
DV1_DEFAULT
 10
52.5669
 20
57.23
 30
0
 70
     0
  0
VERTEX
  8
DV1_DEFAULT
 10
52.1778
 20
57.3811
 30
0
 70
     0
  0
VERTEX
  8
DV1_DEFAULT
 10
51.7816
 20
57.516
 30
0
 70
     0
  0
VERTEX
  8
DV1_DEFAULT
 10
51.3788
 20
57.6345
 30
0
 70
     0
  0
VERTEX
  8
DV1_DEFAULT
 10
50.9699
 20
57.7363
 30
0
 70
     0
  0
VERTEX
  8
DV1_DEFAULT
 10
50.5553
 20
57.821
 30
0
 70
     0
  0
VERTEX
  8
DV1_DEFAULT
 10
50.1355
 20
57.8882
 30
0
 70
     0
  0
VERTEX
  8
DV1_DEFAULT
 10
49.7109
 20
57.9377
 30
0
 70
     0
  0
VERTEX
  8
DV1_DEFAULT
 10
49.2819
 20
57.9691
 30
0
 70
     0
  0
VERTEX
  8
DV1_DEFAULT
 10
48.849
 20
57.982
 30
0
 70
     0
  0
VERTEX
  8
DV1_DEFAULT
 10
48.4128
 20
57.9761
 30
0
 70
     0
  0
SEQEND
  0
POLYLINE
  8
DV1_DEFAULT
  6
CONTINUOUS
 62
     7
 66
     1
 40
0
 41
0
  0
VERTEX
  8
DV1_DEFAULT
 10
89.0631
 20
79.678
 30
0
 70
     0
  0
VERTEX
  8
DV1_DEFAULT
 10
88.9924
 20
79.7195
 30
0
 70
     0
  0
VERTEX
  8
DV1_DEFAULT
 10
88.9223
 20
79.7649
 30
0
 70
     0
  0
SEQEND
  0
POLYLINE
  8
DV1_DEFAULT
  6
CONTINUOUS
 62
     7
 66
     1
 40
0
 41
0
  0
VERTEX
  8
DV1_DEFAULT
 10
83.3462
 20
85.9658
 30
0
 70
     0
  0
VERTEX
  8
DV1_DEFAULT
 10
83.2706
 20
85.9553
 30
0
 70
     0
  0
VERTEX
  8
DV1_DEFAULT
 10
83.1944
 20
85.9457
 30
0
 70
     0
  0
SEQEND
  0
POLYLINE
  8
DV1_DEFAULT
  6
CONTINUOUS
 62
     7
 66
     1
 40
0
 41
0
  0
VERTEX
  8
DV1_DEFAULT
 10
83.973
 20
83.4944
 30
0
 70
     0
  0
VERTEX
  8
DV1_DEFAULT
 10
83.9702
 20
83.473
 30
0
 70
     0
  0
VERTEX
  8
DV1_DEFAULT
 10
83.9624
 20
83.4521
 30
0
 70
     0
  0
VERTEX
  8
DV1_DEFAULT
 10
83.9499
 20
83.432
 30
0
 70
     0
  0
VERTEX
  8
DV1_DEFAULT
 10
83.9328
 20
83.4127
 30
0
 70
     0
  0
VERTEX
  8
DV1_DEFAULT
 10
83.8864
 20
83.377
 30
0
 70
     0
  0
VERTEX
  8
DV1_DEFAULT
 10
83.8251
 20
83.3458
 30
0
 70
     0
  0
VERTEX
  8
DV1_DEFAULT
 10
83.7511
 20
83.32
 30
0
 70
     0
  0
VERTEX
  8
DV1_DEFAULT
 10
83.6664
 20
83.3006
 30
0
 70
     0
  0
VERTEX
  8
DV1_DEFAULT
 10
83.573
 20
83.2882
 30
0
 70
     0
  0
VERTEX
  8
DV1_DEFAULT
 10
83.473
 20
83.2839
 30
0
 70
     0
  0
SEQEND
  0
INSERT
  8
DV1_DEFAULT
  2
Group1
 10
0
 20
0
 30
0
  0
POLYLINE
  8
DV1_DEFAULT
  6
CONTINUOUS
 62
     7
 66
     1
 40
0
 41
0
  0
VERTEX
  8
DV1_DEFAULT
 10
83.0199
 20
99.2839
 30
0
 70
     0
  0
VERTEX
  8
DV1_DEFAULT
 10
83.0793
 20
99.2825
 30
0
 70
     0
  0
VERTEX
  8
DV1_DEFAULT
 10
83.1377
 20
99.278
 30
0
 70
     0
  0
SEQEND
  0
POLYLINE
  8
DV1_DEFAULT
  6
CONTINUOUS
 62
     7
 66
     1
 40
0
 41
0
  0
VERTEX
  8
DV1_DEFAULT
 10
79.5615
 20
99.0731
 30
0
 70
     0
  0
VERTEX
  8
DV1_DEFAULT
 10
79.5642
 20
99.0945
 30
0
 70
     0
  0
VERTEX
  8
DV1_DEFAULT
 10
79.5719
 20
99.1154
 30
0
 70
     0
  0
VERTEX
  8
DV1_DEFAULT
 10
79.5844
 20
99.1355
 30
0
 70
     0
  0
VERTEX
  8
DV1_DEFAULT
 10
79.6014
 20
99.1549
 30
0
 70
     0
  0
VERTEX
  8
DV1_DEFAULT
 10
79.6478
 20
99.1907
 30
0
 70
     0
  0
VERTEX
  8
DV1_DEFAULT
 10
79.7091
 20
99.2219
 30
0
 70
     0
  0
VERTEX
  8
DV1_DEFAULT
 10
79.7832
 20
99.2478
 30
0
 70
     0
  0
VERTEX
  8
DV1_DEFAULT
 10
79.868
 20
99.2673
 30
0
 70
     0
  0
VERTEX
  8
DV1_DEFAULT
 10
79.9616
 20
99.2796
 30
0
 70
     0
  0
VERTEX
  8
DV1_DEFAULT
 10
80.0617
 20
99.2839
 30
0
 70
     0
  0
SEQEND
  0
POLYLINE
  8
DV1_DEFAULT
  6
CONTINUOUS
 62
     7
 66
     1
 40
0
 41
0
  0
VERTEX
  8
DV1_DEFAULT
 10
80.0613
 20
83.2839
 30
0
 70
     0
  0
VERTEX
  8
DV1_DEFAULT
 10
79.9611
 20
83.2839
 30
0
 70
     0
  0
VERTEX
  8
DV1_DEFAULT
 10
79.8675
 20
83.2839
 30
0
 70
     0
  0
VERTEX
  8
DV1_DEFAULT
 10
79.7826
 20
83.2839
 30
0
 70
     0
  0
VERTEX
  8
DV1_DEFAULT
 10
79.7085
 20
83.2839
 30
0
 70
     0
  0
VERTEX
  8
DV1_DEFAULT
 10
79.6473
 20
83.2839
 30
0
 70
     0
  0
VERTEX
  8
DV1_DEFAULT
 10
79.601
 20
83.2839
 30
0
 70
     0
  0
VERTEX
  8
DV1_DEFAULT
 10
79.5841
 20
83.2839
 30
0
 70
     0
  0
VERTEX
  8
DV1_DEFAULT
 10
79.5717
 20
83.2839
 30
0
 70
     0
  0
VERTEX
  8
DV1_DEFAULT
 10
79.5641
 20
83.2839
 30
0
 70
     0
  0
VERTEX
  8
DV1_DEFAULT
 10
79.5615
 20
83.2839
 30
0
 70
     0
  0
VERTEX
  8
DV1_DEFAULT
 10
79.5615
 20
83.2839
 30
0
 70
     0
  0
VERTEX
  8
DV1_DEFAULT
 10
79.5615
 20
83.2839
 30
0
 70
     0
  0
SEQEND
  0
POLYLINE
  8
DV1_DEFAULT
  6
CONTINUOUS
 62
     7
 66
     1
 40
0
 41
0
  0
VERTEX
  8
DV1_DEFAULT
 10
83.5198
 20
83.4951
 30
0
 70
     0
  0
VERTEX
  8
DV1_DEFAULT
 10
83.5172
 20
83.4736
 30
0
 70
     0
  0
VERTEX
  8
DV1_DEFAULT
 10
83.5095
 20
83.4528
 30
0
 70
     0
  0
VERTEX
  8
DV1_DEFAULT
 10
83.4971
 20
83.4326
 30
0
 70
     0
  0
VERTEX
  8
DV1_DEFAULT
 10
83.4802
 20
83.4132
 30
0
 70
     0
  0
VERTEX
  8
DV1_DEFAULT
 10
83.4338
 20
83.3774
 30
0
 70
     0
  0
VERTEX
  8
DV1_DEFAULT
 10
83.3725
 20
83.3461
 30
0
 70
     0
  0
VERTEX
  8
DV1_DEFAULT
 10
83.2984
 20
83.3202
 30
0
 70
     0
  0
VERTEX
  8
DV1_DEFAULT
 10
83.2135
 20
83.3006
 30
0
 70
     0
  0
VERTEX
  8
DV1_DEFAULT
 10
83.12
 20
83.2883
 30
0
 70
     0
  0
VERTEX
  8
DV1_DEFAULT
 10
83.0198
 20
83.2839
 30
0
 70
     0
  0
SEQEND
  0
CIRCLE
  8
DV1_DEFAULT
 10
79.3754
 20
24.1937
 30
0
 40
2
  0
POLYLINE
  8
DV1_DEFAULT
  6
CONTINUOUS
 62
     7
 66
     1
 40
0
 41
0
  0
VERTEX
  8
DV1_DEFAULT
 10
10.2923
 20
66.773
 30
0
 70
     0
  0
VERTEX
  8
DV1_DEFAULT
 10
10.115
 20
66.6994
 30
0
 70
     0
  0
VERTEX
  8
DV1_DEFAULT
 10
9.9417
 20
66.6195
 30
0
 70
     0
  0
VERTEX
  8
DV1_DEFAULT
 10
9.7724
 20
66.5335
 30
0
 70
     0
  0
VERTEX
  8
DV1_DEFAULT
 10
9.6073
 20
66.4416
 30
0
 70
     0
  0
VERTEX
  8
DV1_DEFAULT
 10
9.4465
 20
66.3439
 30
0
 70
     0
  0
VERTEX
  8
DV1_DEFAULT
 10
9.2901
 20
66.2406
 30
0
 70
     0
  0
VERTEX
  8
DV1_DEFAULT
 10
9.1381
 20
66.1319
 30
0
 70
     0
  0
VERTEX
  8
DV1_DEFAULT
 10
8.9908
 20
66.0179
 30
0
 70
     0
  0
VERTEX
  8
DV1_DEFAULT
 10
8.7104
 20
65.7748
 30
0
 70
     0
  0
VERTEX
  8
DV1_DEFAULT
 10
8.4498
 20
65.5124
 30
0
 70
     0
  0
VERTEX
  8
DV1_DEFAULT
 10
8.3272
 20
65.3745
 30
0
 70
     0
  0
VERTEX
  8
DV1_DEFAULT
 10
8.2098
 20
65.2322
 30
0
 70
     0
  0
VERTEX
  8
DV1_DEFAULT
 10
8.0979
 20
65.0858
 30
0
 70
     0
  0
VERTEX
  8
DV1_DEFAULT
 10
7.9914
 20
64.9355
 30
0
 70
     0
  0
VERTEX
  8
DV1_DEFAULT
 10
7.8905
 20
64.7813
 30
0
 70
     0
  0
VERTEX
  8
DV1_DEFAULT
 10
7.7954
 20
64.6234
 30
0
 70
     0
  0
VERTEX
  8
DV1_DEFAULT
 10
7.706
 20
64.4621
 30
0
 70
     0
  0
VERTEX
  8
DV1_DEFAULT
 10
7.6227
 20
64.2975
 30
0
 70
     0
  0
VERTEX
  8
DV1_DEFAULT
 10
7.5453
 20
64.1296
 30
0
 70
     0
  0
VERTEX
  8
DV1_DEFAULT
 10
7.4741
 20
63.9588
 30
0
 70
     0
  0
VERTEX
  8
DV1_DEFAULT
 10
7.4092
 20
63.7851
 30
0
 70
     0
  0
VERTEX
  8
DV1_DEFAULT
 10
7.3507
 20
63.6088
 30
0
 70
     0
  0
VERTEX
  8
DV1_DEFAULT
 10
7.2986
 20
63.4299
 30
0
 70
     0
  0
VERTEX
  8
DV1_DEFAULT
 10
7.2532
 20
63.2487
 30
0
 70
     0
  0
VERTEX
  8
DV1_DEFAULT
 10
7.2145
 20
63.0653
 30
0
 70
     0
  0
VERTEX
  8
DV1_DEFAULT
 10
7.1826
 20
62.8799
 30
0
 70
     0
  0
VERTEX
  8
DV1_DEFAULT
 10
7.1576
 20
62.6926
 30
0
 70
     0
  0
VERTEX
  8
DV1_DEFAULT
 10
7.1397
 20
62.5036
 30
0
 70
     0
  0
VERTEX
  8
DV1_DEFAULT
 10
7.1289
 20
62.3131
 30
0
 70
     0
  0
VERTEX
  8
DV1_DEFAULT
 10
7.1254
 20
62.1211
 30
0
 70
     0
  0
SEQEND
  0
POLYLINE
  8
DV1_DEFAULT
  6
CONTINUOUS
 62
     7
 66
     1
 40
0
 41
0
  0
VERTEX
  8
DV1_DEFAULT
 10
59.0858
 20
79.1888
 30
0
 70
     0
  0
VERTEX
  8
DV1_DEFAULT
 10
59.0691
 20
79.1861
 30
0
 70
     0
  0
VERTEX
  8
DV1_DEFAULT
 10
59.0523
 20
79.1822
 30
0
 70
     0
  0
VERTEX
  8
DV1_DEFAULT
 10
59.0355
 20
79.177
 30
0
 70
     0
  0
VERTEX
  8
DV1_DEFAULT
 10
59.0186
 20
79.1705
 30
0
 70
     0
  0
VERTEX
  8
DV1_DEFAULT
 10
59.0018
 20
79.1628
 30
0
 70
     0
  0
VERTEX
  8
DV1_DEFAULT
 10
58.985
 20
79.1539
 30
0
 70
     0
  0
VERTEX
  8
DV1_DEFAULT
 10
58.9681
 20
79.1437
 30
0
 70
     0
  0
VERTEX
  8
DV1_DEFAULT
 10
58.9512
 20
79.1323
 30
0
 70
     0
  0
VERTEX
  8
DV1_DEFAULT
 10
58.9343
 20
79.1197
 30
0
 70
     0
  0
VERTEX
  8
DV1_DEFAULT
 10
58.9174
 20
79.1059
 30
0
 70
     0
  0
VERTEX
  8
DV1_DEFAULT
 10
58.9005
 20
79.0908
 30
0
 70
     0
  0
VERTEX
  8
DV1_DEFAULT
 10
58.8835
 20
79.0746
 30
0
 70
     0
  0
VERTEX
  8
DV1_DEFAULT
 10
58.8666
 20
79.0571
 30
0
 70
     0
  0
VERTEX
  8
DV1_DEFAULT
 10
58.8496
 20
79.0384
 30
0
 70
     0
  0
VERTEX
  8
DV1_DEFAULT
 10
58.8326
 20
79.0185
 30
0
 70
     0
  0
VERTEX
  8
DV1_DEFAULT
 10
58.8156
 20
78.9974
 30
0
 70
     0
  0
VERTEX
  8
DV1_DEFAULT
 10
58.7986
 20
78.9751
 30
0
 70
     0
  0
VERTEX
  8
DV1_DEFAULT
 10
58.7816
 20
78.9515
 30
0
 70
     0
  0
VERTEX
  8
DV1_DEFAULT
 10
58.7645
 20
78.9267
 30
0
 70
     0
  0
VERTEX
  8
DV1_DEFAULT
 10
58.7475
 20
78.9006
 30
0
 70
     0
  0
VERTEX
  8
DV1_DEFAULT
 10
58.7304
 20
78.8733
 30
0
 70
     0
  0
VERTEX
  8
DV1_DEFAULT
 10
58.7134
 20
78.8448
 30
0
 70
     0
  0
VERTEX
  8
DV1_DEFAULT
 10
58.6964
 20
78.8152
 30
0
 70
     0
  0
VERTEX
  8
DV1_DEFAULT
 10
58.6795
 20
78.7844
 30
0
 70
     0
  0
VERTEX
  8
DV1_DEFAULT
 10
58.6626
 20
78.7526
 30
0
 70
     0
  0
VERTEX
  8
DV1_DEFAULT
 10
58.6459
 20
78.7197
 30
0
 70
     0
  0
VERTEX
  8
DV1_DEFAULT
 10
58.6292
 20
78.6857
 30
0
 70
     0
  0
VERTEX
  8
DV1_DEFAULT
 10
58.6126
 20
78.6507
 30
0
 70
     0
  0
VERTEX
  8
DV1_DEFAULT
 10
58.5961
 20
78.6146
 30
0
 70
     0
  0
VERTEX
  8
DV1_DEFAULT
 10
58.5796
 20
78.5775
 30
0
 70
     0
  0
VERTEX
  8
DV1_DEFAULT
 10
58.5632
 20
78.5392
 30
0
 70
     0
  0
VERTEX
  8
DV1_DEFAULT
 10
58.5469
 20
78.4999
 30
0
 70
     0
  0
VERTEX
  8
DV1_DEFAULT
 10
58.5307
 20
78.4596
 30
0
 70
     0
  0
VERTEX
  8
DV1_DEFAULT
 10
58.5145
 20
78.4182
 30
0
 70
     0
  0
VERTEX
  8
DV1_DEFAULT
 10
58.4985
 20
78.3757
 30
0
 70
     0
  0
VERTEX
  8
DV1_DEFAULT
 10
58.4825
 20
78.3322
 30
0
 70
     0
  0
VERTEX
  8
DV1_DEFAULT
 10
58.4665
 20
78.2876
 30
0
 70
     0
  0
VERTEX
  8
DV1_DEFAULT
 10
58.4507
 20
78.2419
 30
0
 70
     0
  0
VERTEX
  8
DV1_DEFAULT
 10
58.4349
 20
78.1952
 30
0
 70
     0
  0
VERTEX
  8
DV1_DEFAULT
 10
58.4192
 20
78.1473
 30
0
 70
     0
  0
VERTEX
  8
DV1_DEFAULT
 10
58.4035
 20
78.0985
 30
0
 70
     0
  0
VERTEX
  8
DV1_DEFAULT
 10
58.388
 20
78.0486
 30
0
 70
     0
  0
VERTEX
  8
DV1_DEFAULT
 10
58.3726
 20
77.9977
 30
0
 70
     0
  0
VERTEX
  8
DV1_DEFAULT
 10
58.3573
 20
77.9458
 30
0
 70
     0
  0
VERTEX
  8
DV1_DEFAULT
 10
58.3421
 20
77.8932
 30
0
 70
     0
  0
VERTEX
  8
DV1_DEFAULT
 10
58.3271
 20
77.8397
 30
0
 70
     0
  0
VERTEX
  8
DV1_DEFAULT
 10
58.3123
 20
77.7855
 30
0
 70
     0
  0
VERTEX
  8
DV1_DEFAULT
 10
58.2976
 20
77.7304
 30
0
 70
     0
  0
VERTEX
  8
DV1_DEFAULT
 10
58.2831
 20
77.6745
 30
0
 70
     0
  0
VERTEX
  8
DV1_DEFAULT
 10
58.2687
 20
77.6179
 30
0
 70
     0
  0
VERTEX
  8
DV1_DEFAULT
 10
58.2545
 20
77.5605
 30
0
 70
     0
  0
VERTEX
  8
DV1_DEFAULT
 10
58.2405
 20
77.5022
 30
0
 70
     0
  0
VERTEX
  8
DV1_DEFAULT
 10
58.2266
 20
77.4432
 30
0
 70
     0
  0
VERTEX
  8
DV1_DEFAULT
 10
58.2128
 20
77.3835
 30
0
 70
     0
  0
VERTEX
  8
DV1_DEFAULT
 10
58.1992
 20
77.3229
 30
0
 70
     0
  0
VERTEX
  8
DV1_DEFAULT
 10
58.1858
 20
77.2615
 30
0
 70
     0
  0
VERTEX
  8
DV1_DEFAULT
 10
58.1725
 20
77.1994
 30
0
 70
     0
  0
VERTEX
  8
DV1_DEFAULT
 10
58.1593
 20
77.1365
 30
0
 70
     0
  0
VERTEX
  8
DV1_DEFAULT
 10
58.1464
 20
77.0727
 30
0
 70
     0
  0
VERTEX
  8
DV1_DEFAULT
 10
58.1335
 20
77.0082
 30
0
 70
     0
  0
VERTEX
  8
DV1_DEFAULT
 10
58.1209
 20
76.9429
 30
0
 70
     0
  0
VERTEX
  8
DV1_DEFAULT
 10
58.1084
 20
76.8768
 30
0
 70
     0
  0
VERTEX
  8
DV1_DEFAULT
 10
58.096
 20
76.8099
 30
0
 70
     0
  0
VERTEX
  8
DV1_DEFAULT
 10
58.0838
 20
76.7424
 30
0
 70
     0
  0
VERTEX
  8
DV1_DEFAULT
 10
58.0718
 20
76.6741
 30
0
 70
     0
  0
VERTEX
  8
DV1_DEFAULT
 10
58.06
 20
76.6053
 30
0
 70
     0
  0
VERTEX
  8
DV1_DEFAULT
 10
58.0485
 20
76.5361
 30
0
 70
     0
  0
VERTEX
  8
DV1_DEFAULT
 10
58.0371
 20
76.4664
 30
0
 70
     0
  0
VERTEX
  8
DV1_DEFAULT
 10
58.026
 20
76.3963
 30
0
 70
     0
  0
VERTEX
  8
DV1_DEFAULT
 10
58.0151
 20
76.3258
 30
0
 70
     0
  0
VERTEX
  8
DV1_DEFAULT
 10
58.0044
 20
76.2549
 30
0
 70
     0
  0
VERTEX
  8
DV1_DEFAULT
 10
57.9939
 20
76.1835
 30
0
 70
     0
  0
VERTEX
  8
DV1_DEFAULT
 10
57.9836
 20
76.1117
 30
0
 70
     0
  0
VERTEX
  8
DV1_DEFAULT
 10
57.9736
 20
76.0394
 30
0
 70
     0
  0
VERTEX
  8
DV1_DEFAULT
 10
57.9637
 20
75.9667
 30
0
 70
     0
  0
VERTEX
  8
DV1_DEFAULT
 10
57.9541
 20
75.8936
 30
0
 70
     0
  0
VERTEX
  8
DV1_DEFAULT
 10
57.9447
 20
75.8201
 30
0
 70
     0
  0
VERTEX
  8
DV1_DEFAULT
 10
57.9355
 20
75.7461
 30
0
 70
     0
  0
VERTEX
  8
DV1_DEFAULT
 10
57.9265
 20
75.6717
 30
0
 70
     0
  0
VERTEX
  8
DV1_DEFAULT
 10
57.9177
 20
75.5968
 30
0
 70
     0
  0
VERTEX
  8
DV1_DEFAULT
 10
57.9092
 20
75.5215
 30
0
 70
     0
  0
VERTEX
  8
DV1_DEFAULT
 10
57.9008
 20
75.4457
 30
0
 70
     0
  0
VERTEX
  8
DV1_DEFAULT
 10
57.8927
 20
75.3694
 30
0
 70
     0
  0
VERTEX
  8
DV1_DEFAULT
 10
57.8848
 20
75.2928
 30
0
 70
     0
  0
VERTEX
  8
DV1_DEFAULT
 10
57.8771
 20
75.2157
 30
0
 70
     0
  0
VERTEX
  8
DV1_DEFAULT
 10
57.8696
 20
75.1384
 30
0
 70
     0
  0
VERTEX
  8
DV1_DEFAULT
 10
57.8624
 20
75.0607
 30
0
 70
     0
  0
VERTEX
  8
DV1_DEFAULT
 10
57.8554
 20
74.9829
 30
0
 70
     0
  0
VERTEX
  8
DV1_DEFAULT
 10
57.8487
 20
74.905
 30
0
 70
     0
  0
VERTEX
  8
DV1_DEFAULT
 10
57.836
 20
74.7488
 30
0
 70
     0
  0
VERTEX
  8
DV1_DEFAULT
 10
57.8243
 20
74.5921
 30
0
 70
     0
  0
VERTEX
  8
DV1_DEFAULT
 10
57.8136
 20
74.4349
 30
0
 70
     0
  0
VERTEX
  8
DV1_DEFAULT
 10
57.8039
 20
74.2772
 30
0
 70
     0
  0
VERTEX
  8
DV1_DEFAULT
 10
57.7994
 20
74.1981
 30
0
 70
     0
  0
VERTEX
  8
DV1_DEFAULT
 10
57.7952
 20
74.1191
 30
0
 70
     0
  0
SEQEND
  0
POLYLINE
  8
DV1_DEFAULT
  6
CONTINUOUS
 62
     7
 66
     1
 40
0
 41
0
  0
VERTEX
  8
DV1_DEFAULT
 10
10.1254
 20
62.1353
 30
0
 70
     0
  0
VERTEX
  8
DV1_DEFAULT
 10
10.129
 20
62.4165
 30
0
 70
     0
  0
VERTEX
  8
DV1_DEFAULT
 10
10.1389
 20
62.6908
 30
0
 70
     0
  0
VERTEX
  8
DV1_DEFAULT
 10
10.155
 20
62.9567
 30
0
 70
     0
  0
VERTEX
  8
DV1_DEFAULT
 10
10.1768
 20
63.2132
 30
0
 70
     0
  0
VERTEX
  8
DV1_DEFAULT
 10
10.2042
 20
63.4589
 30
0
 70
     0
  0
VERTEX
  8
DV1_DEFAULT
 10
10.2368
 20
63.6926
 30
0
 70
     0
  0
VERTEX
  8
DV1_DEFAULT
 10
10.2744
 20
63.9132
 30
0
 70
     0
  0
VERTEX
  8
DV1_DEFAULT
 10
10.3167
 20
64.1193
 30
0
 70
     0
  0
VERTEX
  8
DV1_DEFAULT
 10
10.3634
 20
64.3097
 30
0
 70
     0
  0
VERTEX
  8
DV1_DEFAULT
 10
10.4142
 20
64.4832
 30
0
 70
     0
  0
VERTEX
  8
DV1_DEFAULT
 10
10.4689
 20
64.6386
 30
0
 70
     0
  0
VERTEX
  8
DV1_DEFAULT
 10
10.5272
 20
64.7746
 30
0
 70
     0
  0
VERTEX
  8
DV1_DEFAULT
 10
10.5576
 20
64.8349
 30
0
 70
     0
  0
VERTEX
  8
DV1_DEFAULT
 10
10.5888
 20
64.89
 30
0
 70
     0
  0
VERTEX
  8
DV1_DEFAULT
 10
10.6208
 20
64.9395
 30
0
 70
     0
  0
VERTEX
  8
DV1_DEFAULT
 10
10.6535
 20
64.9835
 30
0
 70
     0
  0
VERTEX
  8
DV1_DEFAULT
 10
10.6868
 20
65.0217
 30
0
 70
     0
  0
VERTEX
  8
DV1_DEFAULT
 10
10.7209
 20
65.054
 30
0
 70
     0
  0
VERTEX
  8
DV1_DEFAULT
 10
10.7555
 20
65.0802
 30
0
 70
     0
  0
VERTEX
  8
DV1_DEFAULT
 10
10.7907
 20
65.1001
 30
0
 70
     0
  0
SEQEND
  0
POLYLINE
  8
DV1_DEFAULT
  6
CONTINUOUS
 62
     7
 66
     1
 40
0
 41
0
  0
VERTEX
  8
DV1_DEFAULT
 10
65.9558
 20
77.9933
 30
0
 70
     0
  0
VERTEX
  8
DV1_DEFAULT
 10
65.8972
 20
77.9878
 30
0
 70
     0
  0
VERTEX
  8
DV1_DEFAULT
 10
65.843
 20
77.9644
 30
0
 70
     0
  0
VERTEX
  8
DV1_DEFAULT
 10
65.794
 20
77.9309
 30
0
 70
     0
  0
VERTEX
  8
DV1_DEFAULT
 10
65.7495
 20
77.8923
 30
0
 70
     0
  0
VERTEX
  8
DV1_DEFAULT
 10
65.7082
 20
77.8502
 30
0
 70
     0
  0
VERTEX
  8
DV1_DEFAULT
 10
65.6692
 20
77.8056
 30
0
 70
     0
  0
VERTEX
  8
DV1_DEFAULT
 10
65.6321
 20
77.7593
 30
0
 70
     0
  0
VERTEX
  8
DV1_DEFAULT
 10
65.5968
 20
77.712
 30
0
 70
     0
  0
VERTEX
  8
DV1_DEFAULT
 10
65.5628
 20
77.6638
 30
0
 70
     0
  0
VERTEX
  8
DV1_DEFAULT
 10
65.53
 20
77.6149
 30
0
 70
     0
  0
VERTEX
  8
DV1_DEFAULT
 10
65.4981
 20
77.5654
 30
0
 70
     0
  0
VERTEX
  8
DV1_DEFAULT
 10
65.4671
 20
77.5154
 30
0
 70
     0
  0
VERTEX
  8
DV1_DEFAULT
 10
65.4368
 20
77.4649
 30
0
 70
     0
  0
VERTEX
  8
DV1_DEFAULT
 10
65.4071
 20
77.4141
 30
0
 70
     0
  0
VERTEX
  8
DV1_DEFAULT
 10
65.378
 20
77.3628
 30
0
 70
     0
  0
VERTEX
  8
DV1_DEFAULT
 10
65.3495
 20
77.3113
 30
0
 70
     0
  0
VERTEX
  8
DV1_DEFAULT
 10
65.3214
 20
77.2594
 30
0
 70
     0
  0
VERTEX
  8
DV1_DEFAULT
 10
65.2937
 20
77.2073
 30
0
 70
     0
  0
VERTEX
  8
DV1_DEFAULT
 10
65.2665
 20
77.155
 30
0
 70
     0
  0
VERTEX
  8
DV1_DEFAULT
 10
65.2395
 20
77.1024
 30
0
 70
     0
  0
VERTEX
  8
DV1_DEFAULT
 10
65.2129
 20
77.0497
 30
0
 70
     0
  0
VERTEX
  8
DV1_DEFAULT
 10
65.1866
 20
76.9967
 30
0
 70
     0
  0
VERTEX
  8
DV1_DEFAULT
 10
65.1607
 20
76.9436
 30
0
 70
     0
  0
VERTEX
  8
DV1_DEFAULT
 10
65.135
 20
76.8904
 30
0
 70
     0
  0
VERTEX
  8
DV1_DEFAULT
 10
65.1095
 20
76.8371
 30
0
 70
     0
  0
VERTEX
  8
DV1_DEFAULT
 10
65.0844
 20
76.7837
 30
0
 70
     0
  0
VERTEX
  8
DV1_DEFAULT
 10
65.0594
 20
76.7301
 30
0
 70
     0
  0
VERTEX
  8
DV1_DEFAULT
 10
65.0347
 20
76.6765
 30
0
 70
     0
  0
VERTEX
  8
DV1_DEFAULT
 10
65.0102
 20
76.6228
 30
0
 70
     0
  0
VERTEX
  8
DV1_DEFAULT
 10
64.986
 20
76.5691
 30
0
 70
     0
  0
VERTEX
  8
DV1_DEFAULT
 10
64.9619
 20
76.5152
 30
0
 70
     0
  0
VERTEX
  8
DV1_DEFAULT
 10
64.9379
 20
76.4613
 30
0
 70
     0
  0
VERTEX
  8
DV1_DEFAULT
 10
64.9142
 20
76.4072
 30
0
 70
     0
  0
VERTEX
  8
DV1_DEFAULT
 10
64.8906
 20
76.3532
 30
0
 70
     0
  0
VERTEX
  8
DV1_DEFAULT
 10
64.8672
 20
76.299
 30
0
 70
     0
  0
VERTEX
  8
DV1_DEFAULT
 10
64.8439
 20
76.2448
 30
0
 70
     0
  0
VERTEX
  8
DV1_DEFAULT
 10
64.8208
 20
76.1906
 30
0
 70
     0
  0
VERTEX
  8
DV1_DEFAULT
 10
64.7978
 20
76.1362
 30
0
 70
     0
  0
VERTEX
  8
DV1_DEFAULT
 10
64.7749
 20
76.0819
 30
0
 70
     0
  0
VERTEX
  8
DV1_DEFAULT
 10
64.7522
 20
76.0274
 30
0
 70
     0
  0
VERTEX
  8
DV1_DEFAULT
 10
64.7295
 20
75.973
 30
0
 70
     0
  0
VERTEX
  8
DV1_DEFAULT
 10
64.707
 20
75.9184
 30
0
 70
     0
  0
VERTEX
  8
DV1_DEFAULT
 10
64.6847
 20
75.8639
 30
0
 70
     0
  0
VERTEX
  8
DV1_DEFAULT
 10
64.6624
 20
75.8092
 30
0
 70
     0
  0
VERTEX
  8
DV1_DEFAULT
 10
64.6402
 20
75.7546
 30
0
 70
     0
  0
VERTEX
  8
DV1_DEFAULT
 10
64.6182
 20
75.6999
 30
0
 70
     0
  0
VERTEX
  8
DV1_DEFAULT
 10
64.5962
 20
75.6451
 30
0
 70
     0
  0
VERTEX
  8
DV1_DEFAULT
 10
64.5526
 20
75.5355
 30
0
 70
     0
  0
VERTEX
  8
DV1_DEFAULT
 10
64.5093
 20
75.4257
 30
0
 70
     0
  0
VERTEX
  8
DV1_DEFAULT
 10
64.4663
 20
75.3158
 30
0
 70
     0
  0
VERTEX
  8
DV1_DEFAULT
 10
64.4237
 20
75.2058
 30
0
 70
     0
  0
VERTEX
  8
DV1_DEFAULT
 10
64.3814
 20
75.0956
 30
0
 70
     0
  0
VERTEX
  8
DV1_DEFAULT
 10
64.3393
 20
74.9854
 30
0
 70
     0
  0
VERTEX
  8
DV1_DEFAULT
 10
64.2976
 20
74.875
 30
0
 70
     0
  0
VERTEX
  8
DV1_DEFAULT
 10
64.2354
 20
74.7092
 30
0
 70
     0
  0
VERTEX
  8
DV1_DEFAULT
 10
64.1738
 20
74.5432
 30
0
 70
     0
  0
VERTEX
  8
DV1_DEFAULT
 10
64.1127
 20
74.3769
 30
0
 70
     0
  0
VERTEX
  8
DV1_DEFAULT
 10
64.052
 20
74.2105
 30
0
 70
     0
  0
VERTEX
  8
DV1_DEFAULT
 10
63.9719
 20
73.9884
 30
0
 70
     0
  0
VERTEX
  8
DV1_DEFAULT
 10
63.8924
 20
73.7659
 30
0
 70
     0
  0
VERTEX
  8
DV1_DEFAULT
 10
63.8137
 20
73.5431
 30
0
 70
     0
  0
VERTEX
  8
DV1_DEFAULT
 10
63.7356
 20
73.3201
 30
0
 70
     0
  0
VERTEX
  8
DV1_DEFAULT
 10
63.6388
 20
73.0411
 30
0
 70
     0
  0
VERTEX
  8
DV1_DEFAULT
 10
63.5429
 20
72.7617
 30
0
 70
     0
  0
SEQEND
  0
POLYLINE
  8
DV1_DEFAULT
  6
CONTINUOUS
 62
     7
 66
     1
 40
0
 41
0
  0
VERTEX
  8
DV1_DEFAULT
 10
63.5429
 20
72.7617
 30
0
 70
     0
  0
VERTEX
  8
DV1_DEFAULT
 10
63.5574
 20
72.8054
 30
0
 70
     0
  0
VERTEX
  8
DV1_DEFAULT
 10
63.571
 20
72.8492
 30
0
 70
     0
  0
VERTEX
  8
DV1_DEFAULT
 10
63.5837
 20
72.8932
 30
0
 70
     0
  0
VERTEX
  8
DV1_DEFAULT
 10
63.5955
 20
72.9372
 30
0
 70
     0
  0
VERTEX
  8
DV1_DEFAULT
 10
63.6065
 20
72.9815
 30
0
 70
     0
  0
VERTEX
  8
DV1_DEFAULT
 10
63.6166
 20
73.0258
 30
0
 70
     0
  0
VERTEX
  8
DV1_DEFAULT
 10
63.6259
 20
73.0703
 30
0
 70
     0
  0
VERTEX
  8
DV1_DEFAULT
 10
63.6342
 20
73.1149
 30
0
 70
     0
  0
VERTEX
  8
DV1_DEFAULT
 10
63.6418
 20
73.1597
 30
0
 70
     0
  0
VERTEX
  8
DV1_DEFAULT
 10
63.6484
 20
73.2046
 30
0
 70
     0
  0
VERTEX
  8
DV1_DEFAULT
 10
63.6543
 20
73.2496
 30
0
 70
     0
  0
VERTEX
  8
DV1_DEFAULT
 10
63.6594
 20
73.2947
 30
0
 70
     0
  0
VERTEX
  8
DV1_DEFAULT
 10
63.6637
 20
73.34
 30
0
 70
     0
  0
VERTEX
  8
DV1_DEFAULT
 10
63.6672
 20
73.3853
 30
0
 70
     0
  0
VERTEX
  8
DV1_DEFAULT
 10
63.67
 20
73.4308
 30
0
 70
     0
  0
VERTEX
  8
DV1_DEFAULT
 10
63.672
 20
73.4764
 30
0
 70
     0
  0
VERTEX
  8
DV1_DEFAULT
 10
63.6734
 20
73.5219
 30
0
 70
     0
  0
VERTEX
  8
DV1_DEFAULT
 10
63.674
 20
73.5673
 30
0
 70
     0
  0
VERTEX
  8
DV1_DEFAULT
 10
63.6741
 20
73.6124
 30
0
 70
     0
  0
VERTEX
  8
DV1_DEFAULT
 10
63.6735
 20
73.6574
 30
0
 70
     0
  0
VERTEX
  8
DV1_DEFAULT
 10
63.6724
 20
73.7022
 30
0
 70
     0
  0
VERTEX
  8
DV1_DEFAULT
 10
63.6707
 20
73.7469
 30
0
 70
     0
  0
VERTEX
  8
DV1_DEFAULT
 10
63.6685
 20
73.7914
 30
0
 70
     0
  0
VERTEX
  8
DV1_DEFAULT
 10
63.6659
 20
73.8357
 30
0
 70
     0
  0
VERTEX
  8
DV1_DEFAULT
 10
63.6628
 20
73.8799
 30
0
 70
     0
  0
VERTEX
  8
DV1_DEFAULT
 10
63.6593
 20
73.924
 30
0
 70
     0
  0
VERTEX
  8
DV1_DEFAULT
 10
63.6554
 20
73.9679
 30
0
 70
     0
  0
VERTEX
  8
DV1_DEFAULT
 10
63.6511
 20
74.0117
 30
0
 70
     0
  0
VERTEX
  8
DV1_DEFAULT
 10
63.6465
 20
74.0554
 30
0
 70
     0
  0
VERTEX
  8
DV1_DEFAULT
 10
63.6415
 20
74.0989
 30
0
 70
     0
  0
VERTEX
  8
DV1_DEFAULT
 10
63.6363
 20
74.1423
 30
0
 70
     0
  0
VERTEX
  8
DV1_DEFAULT
 10
63.6308
 20
74.1856
 30
0
 70
     0
  0
VERTEX
  8
DV1_DEFAULT
 10
63.625
 20
74.2288
 30
0
 70
     0
  0
VERTEX
  8
DV1_DEFAULT
 10
63.619
 20
74.2719
 30
0
 70
     0
  0
VERTEX
  8
DV1_DEFAULT
 10
63.6127
 20
74.3148
 30
0
 70
     0
  0
VERTEX
  8
DV1_DEFAULT
 10
63.6063
 20
74.3577
 30
0
 70
     0
  0
VERTEX
  8
DV1_DEFAULT
 10
63.5996
 20
74.4004
 30
0
 70
     0
  0
VERTEX
  8
DV1_DEFAULT
 10
63.5928
 20
74.443
 30
0
 70
     0
  0
VERTEX
  8
DV1_DEFAULT
 10
63.5858
 20
74.4856
 30
0
 70
     0
  0
VERTEX
  8
DV1_DEFAULT
 10
63.5787
 20
74.528
 30
0
 70
     0
  0
VERTEX
  8
DV1_DEFAULT
 10
63.5715
 20
74.5702
 30
0
 70
     0
  0
VERTEX
  8
DV1_DEFAULT
 10
63.5641
 20
74.6122
 30
0
 70
     0
  0
VERTEX
  8
DV1_DEFAULT
 10
63.5567
 20
74.654
 30
0
 70
     0
  0
VERTEX
  8
DV1_DEFAULT
 10
63.5492
 20
74.6957
 30
0
 70
     0
  0
VERTEX
  8
DV1_DEFAULT
 10
63.5416
 20
74.7371
 30
0
 70
     0
  0
VERTEX
  8
DV1_DEFAULT
 10
63.5339
 20
74.7784
 30
0
 70
     0
  0
VERTEX
  8
DV1_DEFAULT
 10
63.5185
 20
74.8605
 30
0
 70
     0
  0
VERTEX
  8
DV1_DEFAULT
 10
63.4952
 20
74.9822
 30
0
 70
     0
  0
VERTEX
  8
DV1_DEFAULT
 10
63.4185
 20
75.3774
 30
0
 70
     0
  0
VERTEX
  8
DV1_DEFAULT
 10
63.3965
 20
75.4929
 30
0
 70
     0
  0
VERTEX
  8
DV1_DEFAULT
 10
63.3822
 20
75.5691
 30
0
 70
     0
  0
VERTEX
  8
DV1_DEFAULT
 10
63.3752
 20
75.607
 30
0
 70
     0
  0
VERTEX
  8
DV1_DEFAULT
 10
63.3683
 20
75.6447
 30
0
 70
     0
  0
VERTEX
  8
DV1_DEFAULT
 10
63.3615
 20
75.6823
 30
0
 70
     0
  0
VERTEX
  8
DV1_DEFAULT
 10
63.3548
 20
75.7198
 30
0
 70
     0
  0
VERTEX
  8
DV1_DEFAULT
 10
63.3482
 20
75.7571
 30
0
 70
     0
  0
VERTEX
  8
DV1_DEFAULT
 10
63.3417
 20
75.7942
 30
0
 70
     0
  0
VERTEX
  8
DV1_DEFAULT
 10
63.3354
 20
75.8312
 30
0
 70
     0
  0
VERTEX
  8
DV1_DEFAULT
 10
63.3291
 20
75.868
 30
0
 70
     0
  0
VERTEX
  8
DV1_DEFAULT
 10
63.3231
 20
75.9047
 30
0
 70
     0
  0
VERTEX
  8
DV1_DEFAULT
 10
63.3171
 20
75.9412
 30
0
 70
     0
  0
VERTEX
  8
DV1_DEFAULT
 10
63.3113
 20
75.9776
 30
0
 70
     0
  0
VERTEX
  8
DV1_DEFAULT
 10
63.3057
 20
76.0138
 30
0
 70
     0
  0
VERTEX
  8
DV1_DEFAULT
 10
63.3002
 20
76.0499
 30
0
 70
     0
  0
VERTEX
  8
DV1_DEFAULT
 10
63.2948
 20
76.0858
 30
0
 70
     0
  0
VERTEX
  8
DV1_DEFAULT
 10
63.2896
 20
76.1215
 30
0
 70
     0
  0
VERTEX
  8
DV1_DEFAULT
 10
63.2846
 20
76.1571
 30
0
 70
     0
  0
VERTEX
  8
DV1_DEFAULT
 10
63.2798
 20
76.1926
 30
0
 70
     0
  0
VERTEX
  8
DV1_DEFAULT
 10
63.2752
 20
76.2279
 30
0
 70
     0
  0
VERTEX
  8
DV1_DEFAULT
 10
63.2707
 20
76.263
 30
0
 70
     0
  0
VERTEX
  8
DV1_DEFAULT
 10
63.2665
 20
76.2979
 30
0
 70
     0
  0
VERTEX
  8
DV1_DEFAULT
 10
63.2624
 20
76.3326
 30
0
 70
     0
  0
VERTEX
  8
DV1_DEFAULT
 10
63.2585
 20
76.3671
 30
0
 70
     0
  0
VERTEX
  8
DV1_DEFAULT
 10
63.2549
 20
76.4013
 30
0
 70
     0
  0
VERTEX
  8
DV1_DEFAULT
 10
63.2515
 20
76.4353
 30
0
 70
     0
  0
VERTEX
  8
DV1_DEFAULT
 10
63.2483
 20
76.4691
 30
0
 70
     0
  0
VERTEX
  8
DV1_DEFAULT
 10
63.2454
 20
76.5026
 30
0
 70
     0
  0
VERTEX
  8
DV1_DEFAULT
 10
63.2427
 20
76.5358
 30
0
 70
     0
  0
VERTEX
  8
DV1_DEFAULT
 10
63.2402
 20
76.5688
 30
0
 70
     0
  0
VERTEX
  8
DV1_DEFAULT
 10
63.238
 20
76.6016
 30
0
 70
     0
  0
VERTEX
  8
DV1_DEFAULT
 10
63.236
 20
76.6341
 30
0
 70
     0
  0
VERTEX
  8
DV1_DEFAULT
 10
63.2343
 20
76.6664
 30
0
 70
     0
  0
VERTEX
  8
DV1_DEFAULT
 10
63.2329
 20
76.6984
 30
0
 70
     0
  0
VERTEX
  8
DV1_DEFAULT
 10
63.2317
 20
76.7302
 30
0
 70
     0
  0
SEQEND
  0
POLYLINE
  8
DV1_DEFAULT
  6
CONTINUOUS
 62
     7
 66
     1
 40
0
 41
0
  0
VERTEX
  8
DV1_DEFAULT
 10
72.6207
 20
110.8702
 30
0
 70
     0
  0
VERTEX
  8
DV1_DEFAULT
 10
70.6104
 20
110.6396
 30
0
 70
     0
  0
VERTEX
  8
DV1_DEFAULT
 10
68.6023
 20
110.3911
 30
0
 70
     0
  0
SEQEND
  0
POLYLINE
  8
DV1_DEFAULT
  6
CONTINUOUS
 62
     7
 66
     1
 40
0
 41
0
  0
VERTEX
  8
DV1_DEFAULT
 10
70.3573
 20
105.6554
 30
0
 70
     0
  0
VERTEX
  8
DV1_DEFAULT
 10
70.4221
 20
105.88
 30
0
 70
     0
  0
VERTEX
  8
DV1_DEFAULT
 10
70.503
 20
106.096
 30
0
 70
     0
  0
VERTEX
  8
DV1_DEFAULT
 10
70.5995
 20
106.3027
 30
0
 70
     0
  0
VERTEX
  8
DV1_DEFAULT
 10
70.7109
 20
106.4997
 30
0
 70
     0
  0
VERTEX
  8
DV1_DEFAULT
 10
70.8364
 20
106.6863
 30
0
 70
     0
  0
VERTEX
  8
DV1_DEFAULT
 10
70.9755
 20
106.8619
 30
0
 70
     0
  0
VERTEX
  8
DV1_DEFAULT
 10
71.1274
 20
107.0261
 30
0
 70
     0
  0
VERTEX
  8
DV1_DEFAULT
 10
71.2914
 20
107.1781
 30
0
 70
     0
  0
VERTEX
  8
DV1_DEFAULT
 10
71.4669
 20
107.3174
 30
0
 70
     0
  0
VERTEX
  8
DV1_DEFAULT
 10
71.6533
 20
107.4435
 30
0
 70
     0
  0
VERTEX
  8
DV1_DEFAULT
 10
71.8498
 20
107.5558
 30
0
 70
     0
  0
VERTEX
  8
DV1_DEFAULT
 10
72.0558
 20
107.6537
 30
0
 70
     0
  0
VERTEX
  8
DV1_DEFAULT
 10
72.2706
 20
107.7366
 30
0
 70
     0
  0
VERTEX
  8
DV1_DEFAULT
 10
72.4935
 20
107.8039
 30
0
 70
     0
  0
VERTEX
  8
DV1_DEFAULT
 10
72.7239
 20
107.8551
 30
0
 70
     0
  0
VERTEX
  8
DV1_DEFAULT
 10
72.9611
 20
107.8896
 30
0
 70
     0
  0
SEQEND
  0
CIRCLE
  8
DV1_DEFAULT
 10
36.1254
 20
20.9937
 30
0
 40
2.5
  0
POLYLINE
  8
DV1_DEFAULT
  6
CONTINUOUS
 62
     7
 66
     1
 40
0
 41
0
  0
VERTEX
  8
DV1_DEFAULT
 10
46.2207
 20
20.9937
 30
0
 70
     0
  0
VERTEX
  8
DV1_DEFAULT
 10
46.2173
 20
20.7348
 30
0
 70
     0
  0
VERTEX
  8
DV1_DEFAULT
 10
46.2074
 20
20.4775
 30
0
 70
     0
  0
VERTEX
  8
DV1_DEFAULT
 10
46.191
 20
20.2217
 30
0
 70
     0
  0
VERTEX
  8
DV1_DEFAULT
 10
46.1681
 20
19.9677
 30
0
 70
     0
  0
VERTEX
  8
DV1_DEFAULT
 10
46.1389
 20
19.7154
 30
0
 70
     0
  0
VERTEX
  8
DV1_DEFAULT
 10
46.1034
 20
19.4649
 30
0
 70
     0
  0
VERTEX
  8
DV1_DEFAULT
 10
46.0618
 20
19.2164
 30
0
 70
     0
  0
VERTEX
  8
DV1_DEFAULT
 10
46.014
 20
18.9699
 30
0
 70
     0
  0
VERTEX
  8
DV1_DEFAULT
 10
45.9602
 20
18.7254
 30
0
 70
     0
  0
VERTEX
  8
DV1_DEFAULT
 10
45.9005
 20
18.4832
 30
0
 70
     0
  0
VERTEX
  8
DV1_DEFAULT
 10
45.8349
 20
18.2432
 30
0
 70
     0
  0
VERTEX
  8
DV1_DEFAULT
 10
45.7636
 20
18.0055
 30
0
 70
     0
  0
VERTEX
  8
DV1_DEFAULT
 10
45.6865
 20
17.7703
 30
0
 70
     0
  0
VERTEX
  8
DV1_DEFAULT
 10
45.6039
 20
17.5376
 30
0
 70
     0
  0
VERTEX
  8
DV1_DEFAULT
 10
45.5157
 20
17.3074
 30
0
 70
     0
  0
VERTEX
  8
DV1_DEFAULT
 10
45.4221
 20
17.0799
 30
0
 70
     0
  0
VERTEX
  8
DV1_DEFAULT
 10
45.3231
 20
16.8552
 30
0
 70
     0
  0
VERTEX
  8
DV1_DEFAULT
 10
45.2188
 20
16.6333
 30
0
 70
     0
  0
VERTEX
  8
DV1_DEFAULT
 10
45.1093
 20
16.4143
 30
0
 70
     0
  0
VERTEX
  8
DV1_DEFAULT
 10
44.9947
 20
16.1982
 30
0
 70
     0
  0
VERTEX
  8
DV1_DEFAULT
 10
44.7504
 20
15.7755
 30
0
 70
     0
  0
VERTEX
  8
DV1_DEFAULT
 10
44.4867
 20
15.3657
 30
0
 70
     0
  0
VERTEX
  8
DV1_DEFAULT
 10
44.2041
 20
14.9696
 30
0
 70
     0
  0
VERTEX
  8
DV1_DEFAULT
 10
43.9033
 20
14.5877
 30
0
 70
     0
  0
VERTEX
  8
DV1_DEFAULT
 10
43.585
 20
14.2207
 30
0
 70
     0
  0
VERTEX
  8
DV1_DEFAULT
 10
43.2498
 20
13.8693
 30
0
 70
     0
  0
VERTEX
  8
DV1_DEFAULT
 10
42.8984
 20
13.5341
 30
0
 70
     0
  0
VERTEX
  8
DV1_DEFAULT
 10
42.5314
 20
13.2157
 30
0
 70
     0
  0
VERTEX
  8
DV1_DEFAULT
 10
42.1495
 20
12.915
 30
0
 70
     0
  0
VERTEX
  8
DV1_DEFAULT
 10
41.7533
 20
12.6324
 30
0
 70
     0
  0
VERTEX
  8
DV1_DEFAULT
 10
41.3435
 20
12.3686
 30
0
 70
     0
  0
VERTEX
  8
DV1_DEFAULT
 10
40.9208
 20
12.1244
 30
0
 70
     0
  0
VERTEX
  8
DV1_DEFAULT
 10
40.7048
 20
12.0098
 30
0
 70
     0
  0
VERTEX
  8
DV1_DEFAULT
 10
40.4858
 20
11.9003
 30
0
 70
     0
  0
VERTEX
  8
DV1_DEFAULT
 10
40.2639
 20
11.796
 30
0
 70
     0
  0
VERTEX
  8
DV1_DEFAULT
 10
40.0391
 20
11.697
 30
0
 70
     0
  0
VERTEX
  8
DV1_DEFAULT
 10
39.8116
 20
11.6034
 30
0
 70
     0
  0
VERTEX
  8
DV1_DEFAULT
 10
39.5815
 20
11.5152
 30
0
 70
     0
  0
VERTEX
  8
DV1_DEFAULT
 10
39.3488
 20
11.4325
 30
0
 70
     0
  0
VERTEX
  8
DV1_DEFAULT
 10
39.1135
 20
11.3555
 30
0
 70
     0
  0
VERTEX
  8
DV1_DEFAULT
 10
38.8759
 20
11.2841
 30
0
 70
     0
  0
VERTEX
  8
DV1_DEFAULT
 10
38.6359
 20
11.2185
 30
0
 70
     0
  0
VERTEX
  8
DV1_DEFAULT
 10
38.3936
 20
11.1588
 30
0
 70
     0
  0
VERTEX
  8
DV1_DEFAULT
 10
38.1492
 20
11.105
 30
0
 70
     0
  0
VERTEX
  8
DV1_DEFAULT
 10
37.9027
 20
11.0573
 30
0
 70
     0
  0
VERTEX
  8
DV1_DEFAULT
 10
37.6541
 20
11.0156
 30
0
 70
     0
  0
VERTEX
  8
DV1_DEFAULT
 10
37.4037
 20
10.9801
 30
0
 70
     0
  0
VERTEX
  8
DV1_DEFAULT
 10
37.1514
 20
10.9509
 30
0
 70
     0
  0
VERTEX
  8
DV1_DEFAULT
 10
36.8973
 20
10.9281
 30
0
 70
     0
  0
VERTEX
  8
DV1_DEFAULT
 10
36.6416
 20
10.9116
 30
0
 70
     0
  0
VERTEX
  8
DV1_DEFAULT
 10
36.3842
 20
10.9017
 30
0
 70
     0
  0
VERTEX
  8
DV1_DEFAULT
 10
36.1254
 20
10.8984
 30
0
 70
     0
  0
VERTEX
  8
DV1_DEFAULT
 10
35.8665
 20
10.9017
 30
0
 70
     0
  0
VERTEX
  8
DV1_DEFAULT
 10
35.6091
 20
10.9116
 30
0
 70
     0
  0
VERTEX
  8
DV1_DEFAULT
 10
35.3534
 20
10.9281
 30
0
 70
     0
  0
VERTEX
  8
DV1_DEFAULT
 10
35.0993
 20
10.9509
 30
0
 70
     0
  0
VERTEX
  8
DV1_DEFAULT
 10
34.847
 20
10.9801
 30
0
 70
     0
  0
VERTEX
  8
DV1_DEFAULT
 10
34.5966
 20
11.0156
 30
0
 70
     0
  0
VERTEX
  8
DV1_DEFAULT
 10
34.348
 20
11.0573
 30
0
 70
     0
  0
VERTEX
  8
DV1_DEFAULT
 10
34.1015
 20
11.105
 30
0
 70
     0
  0
VERTEX
  8
DV1_DEFAULT
 10
33.8571
 20
11.1588
 30
0
 70
     0
  0
VERTEX
  8
DV1_DEFAULT
 10
33.6149
 20
11.2185
 30
0
 70
     0
  0
VERTEX
  8
DV1_DEFAULT
 10
33.3749
 20
11.2841
 30
0
 70
     0
  0
VERTEX
  8
DV1_DEFAULT
 10
33.1372
 20
11.3555
 30
0
 70
     0
  0
VERTEX
  8
DV1_DEFAULT
 10
32.902
 20
11.4325
 30
0
 70
     0
  0
VERTEX
  8
DV1_DEFAULT
 10
32.6692
 20
11.5152
 30
0
 70
     0
  0
VERTEX
  8
DV1_DEFAULT
 10
32.4391
 20
11.6034
 30
0
 70
     0
  0
VERTEX
  8
DV1_DEFAULT
 10
32.2116
 20
11.697
 30
0
 70
     0
  0
VERTEX
  8
DV1_DEFAULT
 10
31.9868
 20
11.796
 30
0
 70
     0
  0
VERTEX
  8
DV1_DEFAULT
 10
31.7649
 20
11.9003
 30
0
 70
     0
  0
VERTEX
  8
DV1_DEFAULT
 10
31.5459
 20
12.0098
 30
0
 70
     0
  0
VERTEX
  8
DV1_DEFAULT
 10
31.3299
 20
12.1244
 30
0
 70
     0
  0
VERTEX
  8
DV1_DEFAULT
 10
30.9072
 20
12.3686
 30
0
 70
     0
  0
VERTEX
  8
DV1_DEFAULT
 10
30.4974
 20
12.6324
 30
0
 70
     0
  0
VERTEX
  8
DV1_DEFAULT
 10
30.1012
 20
12.915
 30
0
 70
     0
  0
VERTEX
  8
DV1_DEFAULT
 10
29.7193
 20
13.2157
 30
0
 70
     0
  0
VERTEX
  8
DV1_DEFAULT
 10
29.3523
 20
13.5341
 30
0
 70
     0
  0
VERTEX
  8
DV1_DEFAULT
 10
29.0009
 20
13.8693
 30
0
 70
     0
  0
VERTEX
  8
DV1_DEFAULT
 10
28.6657
 20
14.2207
 30
0
 70
     0
  0
VERTEX
  8
DV1_DEFAULT
 10
28.3474
 20
14.5877
 30
0
 70
     0
  0
VERTEX
  8
DV1_DEFAULT
 10
28.0466
 20
14.9696
 30
0
 70
     0
  0
VERTEX
  8
DV1_DEFAULT
 10
27.764
 20
15.3657
 30
0
 70
     0
  0
VERTEX
  8
DV1_DEFAULT
 10
27.5003
 20
15.7755
 30
0
 70
     0
  0
VERTEX
  8
DV1_DEFAULT
 10
27.256
 20
16.1982
 30
0
 70
     0
  0
VERTEX
  8
DV1_DEFAULT
 10
27.1414
 20
16.4143
 30
0
 70
     0
  0
VERTEX
  8
DV1_DEFAULT
 10
27.0319
 20
16.6333
 30
0
 70
     0
  0
VERTEX
  8
DV1_DEFAULT
 10
26.9277
 20
16.8552
 30
0
 70
     0
  0
VERTEX
  8
DV1_DEFAULT
 10
26.8286
 20
17.0799
 30
0
 70
     0
  0
VERTEX
  8
DV1_DEFAULT
 10
26.735
 20
17.3074
 30
0
 70
     0
  0
VERTEX
  8
DV1_DEFAULT
 10
26.6468
 20
17.5376
 30
0
 70
     0
  0
VERTEX
  8
DV1_DEFAULT
 10
26.5642
 20
17.7703
 30
0
 70
     0
  0
VERTEX
  8
DV1_DEFAULT
 10
26.4871
 20
18.0055
 30
0
 70
     0
  0
VERTEX
  8
DV1_DEFAULT
 10
26.4158
 20
18.2432
 30
0
 70
     0
  0
VERTEX
  8
DV1_DEFAULT
 10
26.3502
 20
18.4832
 30
0
 70
     0
  0
VERTEX
  8
DV1_DEFAULT
 10
26.2905
 20
18.7254
 30
0
 70
     0
  0
VERTEX
  8
DV1_DEFAULT
 10
26.2367
 20
18.9699
 30
0
 70
     0
  0
VERTEX
  8
DV1_DEFAULT
 10
26.1889
 20
19.2164
 30
0
 70
     0
  0
VERTEX
  8
DV1_DEFAULT
 10
26.1473
 20
19.4649
 30
0
 70
     0
  0
VERTEX
  8
DV1_DEFAULT
 10
26.1118
 20
19.7154
 30
0
 70
     0
  0
VERTEX
  8
DV1_DEFAULT
 10
26.0826
 20
19.9677
 30
0
 70
     0
  0
VERTEX
  8
DV1_DEFAULT
 10
26.0597
 20
20.2217
 30
0
 70
     0
  0
VERTEX
  8
DV1_DEFAULT
 10
26.0433
 20
20.4775
 30
0
 70
     0
  0
VERTEX
  8
DV1_DEFAULT
 10
26.0334
 20
20.7348
 30
0
 70
     0
  0
VERTEX
  8
DV1_DEFAULT
 10
26.0301
 20
20.9937
 30
0
 70
     0
  0
VERTEX
  8
DV1_DEFAULT
 10
26.0334
 20
21.2526
 30
0
 70
     0
  0
VERTEX
  8
DV1_DEFAULT
 10
26.0433
 20
21.5099
 30
0
 70
     0
  0
VERTEX
  8
DV1_DEFAULT
 10
26.0597
 20
21.7657
 30
0
 70
     0
  0
VERTEX
  8
DV1_DEFAULT
 10
26.0826
 20
22.0197
 30
0
 70
     0
  0
VERTEX
  8
DV1_DEFAULT
 10
26.1118
 20
22.272
 30
0
 70
     0
  0
VERTEX
  8
DV1_DEFAULT
 10
26.1473
 20
22.5225
 30
0
 70
     0
  0
VERTEX
  8
DV1_DEFAULT
 10
26.1889
 20
22.771
 30
0
 70
     0
  0
VERTEX
  8
DV1_DEFAULT
 10
26.2367
 20
23.0175
 30
0
 70
     0
  0
VERTEX
  8
DV1_DEFAULT
 10
26.2905
 20
23.262
 30
0
 70
     0
  0
VERTEX
  8
DV1_DEFAULT
 10
26.3502
 20
23.5042
 30
0
 70
     0
  0
VERTEX
  8
DV1_DEFAULT
 10
26.4158
 20
23.7442
 30
0
 70
     0
  0
VERTEX
  8
DV1_DEFAULT
 10
26.4871
 20
23.9819
 30
0
 70
     0
  0
VERTEX
  8
DV1_DEFAULT
 10
26.5642
 20
24.2171
 30
0
 70
     0
  0
VERTEX
  8
DV1_DEFAULT
 10
26.6468
 20
24.4498
 30
0
 70
     0
  0
VERTEX
  8
DV1_DEFAULT
 10
26.735
 20
24.68
 30
0
 70
     0
  0
VERTEX
  8
DV1_DEFAULT
 10
26.8286
 20
24.9075
 30
0
 70
     0
  0
VERTEX
  8
DV1_DEFAULT
 10
26.9277
 20
25.1322
 30
0
 70
     0
  0
VERTEX
  8
DV1_DEFAULT
 10
27.0319
 20
25.3541
 30
0
 70
     0
  0
VERTEX
  8
DV1_DEFAULT
 10
27.1414
 20
25.5732
 30
0
 70
     0
  0
VERTEX
  8
DV1_DEFAULT
 10
27.256
 20
25.7892
 30
0
 70
     0
  0
VERTEX
  8
DV1_DEFAULT
 10
27.5003
 20
26.2119
 30
0
 70
     0
  0
VERTEX
  8
DV1_DEFAULT
 10
27.764
 20
26.6217
 30
0
 70
     0
  0
VERTEX
  8
DV1_DEFAULT
 10
28.0466
 20
27.0178
 30
0
 70
     0
  0
VERTEX
  8
DV1_DEFAULT
 10
28.3474
 20
27.3997
 30
0
 70
     0
  0
VERTEX
  8
DV1_DEFAULT
 10
28.6657
 20
27.7667
 30
0
 70
     0
  0
VERTEX
  8
DV1_DEFAULT
 10
29.0009
 20
28.1181
 30
0
 70
     0
  0
VERTEX
  8
DV1_DEFAULT
 10
29.3523
 20
28.4533
 30
0
 70
     0
  0
VERTEX
  8
DV1_DEFAULT
 10
29.7193
 20
28.7717
 30
0
 70
     0
  0
VERTEX
  8
DV1_DEFAULT
 10
30.1012
 20
29.0724
 30
0
 70
     0
  0
VERTEX
  8
DV1_DEFAULT
 10
30.4974
 20
29.355
 30
0
 70
     0
  0
VERTEX
  8
DV1_DEFAULT
 10
30.9072
 20
29.6188
 30
0
 70
     0
  0
VERTEX
  8
DV1_DEFAULT
 10
31.3299
 20
29.863
 30
0
 70
     0
  0
VERTEX
  8
DV1_DEFAULT
 10
31.5459
 20
29.9776
 30
0
 70
     0
  0
VERTEX
  8
DV1_DEFAULT
 10
31.7649
 20
30.0871
 30
0
 70
     0
  0
VERTEX
  8
DV1_DEFAULT
 10
31.9868
 20
30.1914
 30
0
 70
     0
  0
VERTEX
  8
DV1_DEFAULT
 10
32.2116
 20
30.2904
 30
0
 70
     0
  0
VERTEX
  8
DV1_DEFAULT
 10
32.4391
 20
30.384
 30
0
 70
     0
  0
VERTEX
  8
DV1_DEFAULT
 10
32.6692
 20
30.4722
 30
0
 70
     0
  0
VERTEX
  8
DV1_DEFAULT
 10
32.902
 20
30.5549
 30
0
 70
     0
  0
VERTEX
  8
DV1_DEFAULT
 10
33.1372
 20
30.6319
 30
0
 70
     0
  0
VERTEX
  8
DV1_DEFAULT
 10
33.3749
 20
30.7033
 30
0
 70
     0
  0
VERTEX
  8
DV1_DEFAULT
 10
33.6149
 20
30.7689
 30
0
 70
     0
  0
VERTEX
  8
DV1_DEFAULT
 10
33.8571
 20
30.8286
 30
0
 70
     0
  0
VERTEX
  8
DV1_DEFAULT
 10
34.1015
 20
30.8824
 30
0
 70
     0
  0
VERTEX
  8
DV1_DEFAULT
 10
34.348
 20
30.9301
 30
0
 70
     0
  0
VERTEX
  8
DV1_DEFAULT
 10
34.5966
 20
30.9718
 30
0
 70
     0
  0
VERTEX
  8
DV1_DEFAULT
 10
34.847
 20
31.0073
 30
0
 70
     0
  0
VERTEX
  8
DV1_DEFAULT
 10
35.0993
 20
31.0365
 30
0
 70
     0
  0
VERTEX
  8
DV1_DEFAULT
 10
35.3534
 20
31.0593
 30
0
 70
     0
  0
VERTEX
  8
DV1_DEFAULT
 10
35.6091
 20
31.0758
 30
0
 70
     0
  0
VERTEX
  8
DV1_DEFAULT
 10
35.8665
 20
31.0857
 30
0
 70
     0
  0
VERTEX
  8
DV1_DEFAULT
 10
36.1254
 20
31.089
 30
0
 70
     0
  0
VERTEX
  8
DV1_DEFAULT
 10
36.3842
 20
31.0857
 30
0
 70
     0
  0
VERTEX
  8
DV1_DEFAULT
 10
36.6416
 20
31.0758
 30
0
 70
     0
  0
VERTEX
  8
DV1_DEFAULT
 10
36.8973
 20
31.0593
 30
0
 70
     0
  0
VERTEX
  8
DV1_DEFAULT
 10
37.1514
 20
31.0365
 30
0
 70
     0
  0
VERTEX
  8
DV1_DEFAULT
 10
37.4037
 20
31.0073
 30
0
 70
     0
  0
VERTEX
  8
DV1_DEFAULT
 10
37.6541
 20
30.9718
 30
0
 70
     0
  0
VERTEX
  8
DV1_DEFAULT
 10
37.9027
 20
30.9301
 30
0
 70
     0
  0
VERTEX
  8
DV1_DEFAULT
 10
38.1492
 20
30.8824
 30
0
 70
     0
  0
VERTEX
  8
DV1_DEFAULT
 10
38.3936
 20
30.8286
 30
0
 70
     0
  0
VERTEX
  8
DV1_DEFAULT
 10
38.6359
 20
30.7689
 30
0
 70
     0
  0
VERTEX
  8
DV1_DEFAULT
 10
38.8759
 20
30.7033
 30
0
 70
     0
  0
VERTEX
  8
DV1_DEFAULT
 10
39.1135
 20
30.6319
 30
0
 70
     0
  0
VERTEX
  8
DV1_DEFAULT
 10
39.3488
 20
30.5549
 30
0
 70
     0
  0
VERTEX
  8
DV1_DEFAULT
 10
39.5815
 20
30.4722
 30
0
 70
     0
  0
VERTEX
  8
DV1_DEFAULT
 10
39.8116
 20
30.384
 30
0
 70
     0
  0
VERTEX
  8
DV1_DEFAULT
 10
40.0391
 20
30.2904
 30
0
 70
     0
  0
VERTEX
  8
DV1_DEFAULT
 10
40.2639
 20
30.1914
 30
0
 70
     0
  0
VERTEX
  8
DV1_DEFAULT
 10
40.4858
 20
30.0871
 30
0
 70
     0
  0
VERTEX
  8
DV1_DEFAULT
 10
40.7048
 20
29.9776
 30
0
 70
     0
  0
VERTEX
  8
DV1_DEFAULT
 10
40.9208
 20
29.863
 30
0
 70
     0
  0
VERTEX
  8
DV1_DEFAULT
 10
41.3435
 20
29.6188
 30
0
 70
     0
  0
VERTEX
  8
DV1_DEFAULT
 10
41.7533
 20
29.355
 30
0
 70
     0
  0
VERTEX
  8
DV1_DEFAULT
 10
42.1495
 20
29.0724
 30
0
 70
     0
  0
VERTEX
  8
DV1_DEFAULT
 10
42.5314
 20
28.7717
 30
0
 70
     0
  0
VERTEX
  8
DV1_DEFAULT
 10
42.8984
 20
28.4533
 30
0
 70
     0
  0
VERTEX
  8
DV1_DEFAULT
 10
43.2498
 20
28.1181
 30
0
 70
     0
  0
VERTEX
  8
DV1_DEFAULT
 10
43.585
 20
27.7667
 30
0
 70
     0
  0
VERTEX
  8
DV1_DEFAULT
 10
43.9033
 20
27.3997
 30
0
 70
     0
  0
VERTEX
  8
DV1_DEFAULT
 10
44.2041
 20
27.0178
 30
0
 70
     0
  0
VERTEX
  8
DV1_DEFAULT
 10
44.4867
 20
26.6217
 30
0
 70
     0
  0
VERTEX
  8
DV1_DEFAULT
 10
44.7504
 20
26.2119
 30
0
 70
     0
  0
VERTEX
  8
DV1_DEFAULT
 10
44.9947
 20
25.7892
 30
0
 70
     0
  0
VERTEX
  8
DV1_DEFAULT
 10
45.1093
 20
25.5732
 30
0
 70
     0
  0
VERTEX
  8
DV1_DEFAULT
 10
45.2188
 20
25.3541
 30
0
 70
     0
  0
VERTEX
  8
DV1_DEFAULT
 10
45.3231
 20
25.1322
 30
0
 70
     0
  0
VERTEX
  8
DV1_DEFAULT
 10
45.4221
 20
24.9075
 30
0
 70
     0
  0
VERTEX
  8
DV1_DEFAULT
 10
45.5157
 20
24.68
 30
0
 70
     0
  0
VERTEX
  8
DV1_DEFAULT
 10
45.6039
 20
24.4498
 30
0
 70
     0
  0
VERTEX
  8
DV1_DEFAULT
 10
45.6865
 20
24.2171
 30
0
 70
     0
  0
VERTEX
  8
DV1_DEFAULT
 10
45.7636
 20
23.9819
 30
0
 70
     0
  0
VERTEX
  8
DV1_DEFAULT
 10
45.8349
 20
23.7442
 30
0
 70
     0
  0
VERTEX
  8
DV1_DEFAULT
 10
45.9005
 20
23.5042
 30
0
 70
     0
  0
VERTEX
  8
DV1_DEFAULT
 10
45.9602
 20
23.262
 30
0
 70
     0
  0
VERTEX
  8
DV1_DEFAULT
 10
46.014
 20
23.0175
 30
0
 70
     0
  0
VERTEX
  8
DV1_DEFAULT
 10
46.0618
 20
22.771
 30
0
 70
     0
  0
VERTEX
  8
DV1_DEFAULT
 10
46.1034
 20
22.5225
 30
0
 70
     0
  0
VERTEX
  8
DV1_DEFAULT
 10
46.1389
 20
22.272
 30
0
 70
     0
  0
VERTEX
  8
DV1_DEFAULT
 10
46.1681
 20
22.0197
 30
0
 70
     0
  0
VERTEX
  8
DV1_DEFAULT
 10
46.191
 20
21.7657
 30
0
 70
     0
  0
VERTEX
  8
DV1_DEFAULT
 10
46.2074
 20
21.5099
 30
0
 70
     0
  0
VERTEX
  8
DV1_DEFAULT
 10
46.2173
 20
21.2526
 30
0
 70
     0
  0
VERTEX
  8
DV1_DEFAULT
 10
46.2207
 20
20.9937
 30
0
 70
     0
  0
SEQEND
  0
CIRCLE
  8
DV1_DEFAULT
 10
36.1254
 20
20.9937
 30
0
 40
11.25
  0
POLYLINE
  8
DV1_DEFAULT
  6
CONTINUOUS
 62
     7
 66
     1
 40
0
 41
0
  0
VERTEX
  8
DV1_DEFAULT
 10
114.1257
 20
108.1972
 30
0
 70
     0
  0
VERTEX
  8
DV1_DEFAULT
 10
111.1248
 20
107.2358
 30
0
 70
     0
  0
VERTEX
  8
DV1_DEFAULT
 10
108.1257
 20
106.2687
 30
0
 70
     0
  0
SEQEND
  0
POLYLINE
  8
DV1_DEFAULT
  6
CONTINUOUS
 62
     7
 66
     1
 40
0
 41
0
  0
VERTEX
  8
DV1_DEFAULT
 10
110.2863
 20
112.1939
 30
0
 70
     0
  0
VERTEX
  8
DV1_DEFAULT
 10
109.1969
 20
109.2345
 30
0
 70
     0
  0
VERTEX
  8
DV1_DEFAULT
 10
108.1251
 20
106.2687
 30
0
 70
     0
  0
SEQEND
  0
POLYLINE
  8
DV1_DEFAULT
  6
CONTINUOUS
 62
     7
 66
     1
 40
0
 41
0
  0
VERTEX
  8
DV1_DEFAULT
 10
70.1447
 20
105.5507
 30
0
 70
     0
  0
VERTEX
  8
DV1_DEFAULT
 10
70.1561
 20
105.5987
 30
0
 70
     0
  0
VERTEX
  8
DV1_DEFAULT
 10
70.1673
 20
105.6467
 30
0
 70
     0
  0
VERTEX
  8
DV1_DEFAULT
 10
70.1783
 20
105.6945
 30
0
 70
     0
  0
VERTEX
  8
DV1_DEFAULT
 10
70.1891
 20
105.7423
 30
0
 70
     0
  0
VERTEX
  8
DV1_DEFAULT
 10
70.1997
 20
105.79
 30
0
 70
     0
  0
VERTEX
  8
DV1_DEFAULT
 10
70.2101
 20
105.8376
 30
0
 70
     0
  0
VERTEX
  8
DV1_DEFAULT
 10
70.2203
 20
105.8851
 30
0
 70
     0
  0
VERTEX
  8
DV1_DEFAULT
 10
70.24
 20
105.98
 30
0
 70
     0
  0
VERTEX
  8
DV1_DEFAULT
 10
70.2589
 20
106.0745
 30
0
 70
     0
  0
VERTEX
  8
DV1_DEFAULT
 10
70.268
 20
106.1216
 30
0
 70
     0
  0
VERTEX
  8
DV1_DEFAULT
 10
70.2769
 20
106.1687
 30
0
 70
     0
  0
VERTEX
  8
DV1_DEFAULT
 10
70.2856
 20
106.2157
 30
0
 70
     0
  0
VERTEX
  8
DV1_DEFAULT
 10
70.2941
 20
106.2626
 30
0
 70
     0
  0
VERTEX
  8
DV1_DEFAULT
 10
70.3024
 20
106.3094
 30
0
 70
     0
  0
VERTEX
  8
DV1_DEFAULT
 10
70.3183
 20
106.4029
 30
0
 70
     0
  0
VERTEX
  8
DV1_DEFAULT
 10
70.3259
 20
106.4494
 30
0
 70
     0
  0
VERTEX
  8
DV1_DEFAULT
 10
70.3333
 20
106.4959
 30
0
 70
     0
  0
VERTEX
  8
DV1_DEFAULT
 10
70.3405
 20
106.5423
 30
0
 70
     0
  0
VERTEX
  8
DV1_DEFAULT
 10
70.3474
 20
106.5885
 30
0
 70
     0
  0
VERTEX
  8
DV1_DEFAULT
 10
70.3541
 20
106.6343
 30
0
 70
     0
  0
VERTEX
  8
DV1_DEFAULT
 10
70.3605
 20
106.6798
 30
0
 70
     0
  0
VERTEX
  8
DV1_DEFAULT
 10
70.3667
 20
106.7249
 30
0
 70
     0
  0
VERTEX
  8
DV1_DEFAULT
 10
70.3726
 20
106.7697
 30
0
 70
     0
  0
VERTEX
  8
DV1_DEFAULT
 10
70.3782
 20
106.8141
 30
0
 70
     0
  0
VERTEX
  8
DV1_DEFAULT
 10
70.3887
 20
106.9019
 30
0
 70
     0
  0
VERTEX
  8
DV1_DEFAULT
 10
70.3935
 20
106.9453
 30
0
 70
     0
  0
VERTEX
  8
DV1_DEFAULT
 10
70.3981
 20
106.9883
 30
0
 70
     0
  0
VERTEX
  8
DV1_DEFAULT
 10
70.4024
 20
107.031
 30
0
 70
     0
  0
VERTEX
  8
DV1_DEFAULT
 10
70.4065
 20
107.0733
 30
0
 70
     0
  0
VERTEX
  8
DV1_DEFAULT
 10
70.4103
 20
107.1153
 30
0
 70
     0
  0
VERTEX
  8
DV1_DEFAULT
 10
70.4138
 20
107.1569
 30
0
 70
     0
  0
VERTEX
  8
DV1_DEFAULT
 10
70.4171
 20
107.1982
 30
0
 70
     0
  0
VERTEX
  8
DV1_DEFAULT
 10
70.4201
 20
107.2391
 30
0
 70
     0
  0
VERTEX
  8
DV1_DEFAULT
 10
70.4229
 20
107.2796
 30
0
 70
     0
  0
VERTEX
  8
DV1_DEFAULT
 10
70.4254
 20
107.3198
 30
0
 70
     0
  0
VERTEX
  8
DV1_DEFAULT
 10
70.4276
 20
107.3597
 30
0
 70
     0
  0
VERTEX
  8
DV1_DEFAULT
 10
70.4295
 20
107.3992
 30
0
 70
     0
  0
VERTEX
  8
DV1_DEFAULT
 10
70.4312
 20
107.4382
 30
0
 70
     0
  0
VERTEX
  8
DV1_DEFAULT
 10
70.4326
 20
107.4768
 30
0
 70
     0
  0
VERTEX
  8
DV1_DEFAULT
 10
70.4337
 20
107.5147
 30
0
 70
     0
  0
VERTEX
  8
DV1_DEFAULT
 10
70.4346
 20
107.5521
 30
0
 70
     0
  0
VERTEX
  8
DV1_DEFAULT
 10
70.4352
 20
107.5888
 30
0
 70
     0
  0
VERTEX
  8
DV1_DEFAULT
 10
70.4354
 20
107.6249
 30
0
 70
     0
  0
VERTEX
  8
DV1_DEFAULT
 10
70.4355
 20
107.6605
 30
0
 70
     0
  0
VERTEX
  8
DV1_DEFAULT
 10
70.4352
 20
107.6954
 30
0
 70
     0
  0
VERTEX
  8
DV1_DEFAULT
 10
70.4347
 20
107.7297
 30
0
 70
     0
  0
VERTEX
  8
DV1_DEFAULT
 10
70.4339
 20
107.7635
 30
0
 70
     0
  0
VERTEX
  8
DV1_DEFAULT
 10
70.4328
 20
107.7966
 30
0
 70
     0
  0
VERTEX
  8
DV1_DEFAULT
 10
70.4315
 20
107.8292
 30
0
 70
     0
  0
VERTEX
  8
DV1_DEFAULT
 10
70.4299
 20
107.8611
 30
0
 70
     0
  0
VERTEX
  8
DV1_DEFAULT
 10
70.428
 20
107.8925
 30
0
 70
     0
  0
VERTEX
  8
DV1_DEFAULT
 10
70.4259
 20
107.9233
 30
0
 70
     0
  0
VERTEX
  8
DV1_DEFAULT
 10
70.4235
 20
107.9534
 30
0
 70
     0
  0
VERTEX
  8
DV1_DEFAULT
 10
70.4208
 20
107.983
 30
0
 70
     0
  0
VERTEX
  8
DV1_DEFAULT
 10
70.4178
 20
108.012
 30
0
 70
     0
  0
VERTEX
  8
DV1_DEFAULT
 10
70.4146
 20
108.0403
 30
0
 70
     0
  0
VERTEX
  8
DV1_DEFAULT
 10
70.4111
 20
108.0681
 30
0
 70
     0
  0
VERTEX
  8
DV1_DEFAULT
 10
70.4074
 20
108.0952
 30
0
 70
     0
  0
VERTEX
  8
DV1_DEFAULT
 10
70.4033
 20
108.1216
 30
0
 70
     0
  0
VERTEX
  8
DV1_DEFAULT
 10
70.3991
 20
108.1472
 30
0
 70
     0
  0
VERTEX
  8
DV1_DEFAULT
 10
70.3945
 20
108.172
 30
0
 70
     0
  0
VERTEX
  8
DV1_DEFAULT
 10
70.3898
 20
108.1961
 30
0
 70
     0
  0
VERTEX
  8
DV1_DEFAULT
 10
70.3848
 20
108.2195
 30
0
 70
     0
  0
VERTEX
  8
DV1_DEFAULT
 10
70.3795
 20
108.2421
 30
0
 70
     0
  0
VERTEX
  8
DV1_DEFAULT
 10
70.3741
 20
108.2639
 30
0
 70
     0
  0
VERTEX
  8
DV1_DEFAULT
 10
70.3683
 20
108.2851
 30
0
 70
     0
  0
VERTEX
  8
DV1_DEFAULT
 10
70.3624
 20
108.3054
 30
0
 70
     0
  0
VERTEX
  8
DV1_DEFAULT
 10
70.3562
 20
108.3251
 30
0
 70
     0
  0
VERTEX
  8
DV1_DEFAULT
 10
70.3498
 20
108.344
 30
0
 70
     0
  0
VERTEX
  8
DV1_DEFAULT
 10
70.3431
 20
108.3621
 30
0
 70
     0
  0
VERTEX
  8
DV1_DEFAULT
 10
70.3362
 20
108.3796
 30
0
 70
     0
  0
VERTEX
  8
DV1_DEFAULT
 10
70.3291
 20
108.3963
 30
0
 70
     0
  0
VERTEX
  8
DV1_DEFAULT
 10
70.3217
 20
108.4123
 30
0
 70
     0
  0
VERTEX
  8
DV1_DEFAULT
 10
70.3141
 20
108.4275
 30
0
 70
     0
  0
VERTEX
  8
DV1_DEFAULT
 10
70.3063
 20
108.442
 30
0
 70
     0
  0
VERTEX
  8
DV1_DEFAULT
 10
70.2983
 20
108.4558
 30
0
 70
     0
  0
VERTEX
  8
DV1_DEFAULT
 10
70.29
 20
108.4688
 30
0
 70
     0
  0
VERTEX
  8
DV1_DEFAULT
 10
70.2815
 20
108.481
 30
0
 70
     0
  0
VERTEX
  8
DV1_DEFAULT
 10
70.2728
 20
108.4925
 30
0
 70
     0
  0
VERTEX
  8
DV1_DEFAULT
 10
70.2639
 20
108.5032
 30
0
 70
     0
  0
VERTEX
  8
DV1_DEFAULT
 10
70.2548
 20
108.513
 30
0
 70
     0
  0
VERTEX
  8
DV1_DEFAULT
 10
70.2455
 20
108.5221
 30
0
 70
     0
  0
VERTEX
  8
DV1_DEFAULT
 10
70.2361
 20
108.5304
 30
0
 70
     0
  0
VERTEX
  8
DV1_DEFAULT
 10
70.2265
 20
108.5379
 30
0
 70
     0
  0
VERTEX
  8
DV1_DEFAULT
 10
70.2167
 20
108.5447
 30
0
 70
     0
  0
VERTEX
  8
DV1_DEFAULT
 10
70.2067
 20
108.5507
 30
0
 70
     0
  0
VERTEX
  8
DV1_DEFAULT
 10
70.1966
 20
108.5559
 30
0
 70
     0
  0
VERTEX
  8
DV1_DEFAULT
 10
70.1862
 20
108.5604
 30
0
 70
     0
  0
VERTEX
  8
DV1_DEFAULT
 10
70.1757
 20
108.5641
 30
0
 70
     0
  0
VERTEX
  8
DV1_DEFAULT
 10
70.165
 20
108.5671
 30
0
 70
     0
  0
VERTEX
  8
DV1_DEFAULT
 10
70.1542
 20
108.5693
 30
0
 70
     0
  0
VERTEX
  8
DV1_DEFAULT
 10
70.1431
 20
108.5707
 30
0
 70
     0
  0
VERTEX
  8
DV1_DEFAULT
 10
70.1319
 20
108.5714
 30
0
 70
     0
  0
VERTEX
  8
DV1_DEFAULT
 10
70.1205
 20
108.5713
 30
0
 70
     0
  0
VERTEX
  8
DV1_DEFAULT
 10
70.1089
 20
108.5704
 30
0
 70
     0
  0
SEQEND
  0
POLYLINE
  8
DV1_DEFAULT
  6
CONTINUOUS
 62
     7
 66
     1
 40
0
 41
0
  0
VERTEX
  8
DV1_DEFAULT
 10
72.6207
 20
110.8702
 30
0
 70
     0
  0
VERTEX
  8
DV1_DEFAULT
 10
72.6324
 20
110.8708
 30
0
 70
     0
  0
VERTEX
  8
DV1_DEFAULT
 10
72.644
 20
110.8698
 30
0
 70
     0
  0
VERTEX
  8
DV1_DEFAULT
 10
72.6555
 20
110.8673
 30
0
 70
     0
  0
VERTEX
  8
DV1_DEFAULT
 10
72.6669
 20
110.8632
 30
0
 70
     0
  0
VERTEX
  8
DV1_DEFAULT
 10
72.6782
 20
110.8577
 30
0
 70
     0
  0
VERTEX
  8
DV1_DEFAULT
 10
72.6893
 20
110.8506
 30
0
 70
     0
  0
VERTEX
  8
DV1_DEFAULT
 10
72.7003
 20
110.842
 30
0
 70
     0
  0
VERTEX
  8
DV1_DEFAULT
 10
72.7113
 20
110.8319
 30
0
 70
     0
  0
VERTEX
  8
DV1_DEFAULT
 10
72.7221
 20
110.8203
 30
0
 70
     0
  0
VERTEX
  8
DV1_DEFAULT
 10
72.7327
 20
110.8071
 30
0
 70
     0
  0
VERTEX
  8
DV1_DEFAULT
 10
72.7433
 20
110.7925
 30
0
 70
     0
  0
VERTEX
  8
DV1_DEFAULT
 10
72.7538
 20
110.7764
 30
0
 70
     0
  0
VERTEX
  8
DV1_DEFAULT
 10
72.7641
 20
110.7588
 30
0
 70
     0
  0
VERTEX
  8
DV1_DEFAULT
 10
72.7743
 20
110.7397
 30
0
 70
     0
  0
VERTEX
  8
DV1_DEFAULT
 10
72.7844
 20
110.719
 30
0
 70
     0
  0
VERTEX
  8
DV1_DEFAULT
 10
72.7944
 20
110.6969
 30
0
 70
     0
  0
VERTEX
  8
DV1_DEFAULT
 10
72.8043
 20
110.6732
 30
0
 70
     0
  0
VERTEX
  8
DV1_DEFAULT
 10
72.814
 20
110.648
 30
0
 70
     0
  0
VERTEX
  8
DV1_DEFAULT
 10
72.8236
 20
110.6212
 30
0
 70
     0
  0
VERTEX
  8
DV1_DEFAULT
 10
72.8331
 20
110.5929
 30
0
 70
     0
  0
VERTEX
  8
DV1_DEFAULT
 10
72.8425
 20
110.5631
 30
0
 70
     0
  0
VERTEX
  8
DV1_DEFAULT
 10
72.8517
 20
110.5318
 30
0
 70
     0
  0
VERTEX
  8
DV1_DEFAULT
 10
72.8608
 20
110.499
 30
0
 70
     0
  0
VERTEX
  8
DV1_DEFAULT
 10
72.8696
 20
110.4648
 30
0
 70
     0
  0
VERTEX
  8
DV1_DEFAULT
 10
72.8784
 20
110.4293
 30
0
 70
     0
  0
VERTEX
  8
DV1_DEFAULT
 10
72.8869
 20
110.3924
 30
0
 70
     0
  0
VERTEX
  8
DV1_DEFAULT
 10
72.8952
 20
110.3542
 30
0
 70
     0
  0
VERTEX
  8
DV1_DEFAULT
 10
72.9034
 20
110.3146
 30
0
 70
     0
  0
VERTEX
  8
DV1_DEFAULT
 10
72.9114
 20
110.2736
 30
0
 70
     0
  0
VERTEX
  8
DV1_DEFAULT
 10
72.9193
 20
110.2313
 30
0
 70
     0
  0
VERTEX
  8
DV1_DEFAULT
 10
72.9269
 20
110.1876
 30
0
 70
     0
  0
VERTEX
  8
DV1_DEFAULT
 10
72.9344
 20
110.1426
 30
0
 70
     0
  0
VERTEX
  8
DV1_DEFAULT
 10
72.9417
 20
110.0962
 30
0
 70
     0
  0
VERTEX
  8
DV1_DEFAULT
 10
72.9489
 20
110.0484
 30
0
 70
     0
  0
VERTEX
  8
DV1_DEFAULT
 10
72.9558
 20
109.9993
 30
0
 70
     0
  0
VERTEX
  8
DV1_DEFAULT
 10
72.9626
 20
109.9488
 30
0
 70
     0
  0
VERTEX
  8
DV1_DEFAULT
 10
72.9692
 20
109.8969
 30
0
 70
     0
  0
VERTEX
  8
DV1_DEFAULT
 10
72.9757
 20
109.8437
 30
0
 70
     0
  0
VERTEX
  8
DV1_DEFAULT
 10
72.982
 20
109.789
 30
0
 70
     0
  0
VERTEX
  8
DV1_DEFAULT
 10
72.988
 20
109.7329
 30
0
 70
     0
  0
VERTEX
  8
DV1_DEFAULT
 10
72.994
 20
109.6755
 30
0
 70
     0
  0
VERTEX
  8
DV1_DEFAULT
 10
72.9997
 20
109.6168
 30
0
 70
     0
  0
VERTEX
  8
DV1_DEFAULT
 10
73.0052
 20
109.557
 30
0
 70
     0
  0
VERTEX
  8
DV1_DEFAULT
 10
73.0105
 20
109.4959
 30
0
 70
     0
  0
VERTEX
  8
DV1_DEFAULT
 10
73.0156
 20
109.4338
 30
0
 70
     0
  0
VERTEX
  8
DV1_DEFAULT
 10
73.0204
 20
109.3706
 30
0
 70
     0
  0
VERTEX
  8
DV1_DEFAULT
 10
73.0251
 20
109.3064
 30
0
 70
     0
  0
VERTEX
  8
DV1_DEFAULT
 10
73.0296
 20
109.2411
 30
0
 70
     0
  0
VERTEX
  8
DV1_DEFAULT
 10
73.0338
 20
109.1747
 30
0
 70
     0
  0
VERTEX
  8
DV1_DEFAULT
 10
73.0379
 20
109.1074
 30
0
 70
     0
  0
VERTEX
  8
DV1_DEFAULT
 10
73.0417
 20
109.039
 30
0
 70
     0
  0
VERTEX
  8
DV1_DEFAULT
 10
73.0453
 20
108.9696
 30
0
 70
     0
  0
VERTEX
  8
DV1_DEFAULT
 10
73.0487
 20
108.8991
 30
0
 70
     0
  0
VERTEX
  8
DV1_DEFAULT
 10
73.0519
 20
108.8276
 30
0
 70
     0
  0
VERTEX
  8
DV1_DEFAULT
 10
73.0549
 20
108.7551
 30
0
 70
     0
  0
VERTEX
  8
DV1_DEFAULT
 10
73.0577
 20
108.6815
 30
0
 70
     0
  0
VERTEX
  8
DV1_DEFAULT
 10
73.0603
 20
108.6068
 30
0
 70
     0
  0
VERTEX
  8
DV1_DEFAULT
 10
73.0648
 20
108.4545
 30
0
 70
     0
  0
VERTEX
  8
DV1_DEFAULT
 10
73.0667
 20
108.3767
 30
0
 70
     0
  0
VERTEX
  8
DV1_DEFAULT
 10
73.0684
 20
108.2979
 30
0
 70
     0
  0
VERTEX
  8
DV1_DEFAULT
 10
73.0699
 20
108.218
 30
0
 70
     0
  0
VERTEX
  8
DV1_DEFAULT
 10
73.0712
 20
108.1372
 30
0
 70
     0
  0
VERTEX
  8
DV1_DEFAULT
 10
73.0723
 20
108.0557
 30
0
 70
     0
  0
VERTEX
  8
DV1_DEFAULT
 10
73.0731
 20
107.9734
 30
0
 70
     0
  0
VERTEX
  8
DV1_DEFAULT
 10
73.0737
 20
107.8905
 30
0
 70
     0
  0
VERTEX
  8
DV1_DEFAULT
 10
73.0741
 20
107.807
 30
0
 70
     0
  0
VERTEX
  8
DV1_DEFAULT
 10
73.0743
 20
107.7229
 30
0
 70
     0
  0
VERTEX
  8
DV1_DEFAULT
 10
73.074
 20
107.553
 30
0
 70
     0
  0
VERTEX
  8
DV1_DEFAULT
 10
73.0735
 20
107.4671
 30
0
 70
     0
  0
VERTEX
  8
DV1_DEFAULT
 10
73.0728
 20
107.3807
 30
0
 70
     0
  0
VERTEX
  8
DV1_DEFAULT
 10
73.0719
 20
107.2936
 30
0
 70
     0
  0
VERTEX
  8
DV1_DEFAULT
 10
73.0708
 20
107.206
 30
0
 70
     0
  0
VERTEX
  8
DV1_DEFAULT
 10
73.0694
 20
107.1178
 30
0
 70
     0
  0
VERTEX
  8
DV1_DEFAULT
 10
73.0661
 20
106.9395
 30
0
 70
     0
  0
VERTEX
  8
DV1_DEFAULT
 10
73.0641
 20
106.8495
 30
0
 70
     0
  0
VERTEX
  8
DV1_DEFAULT
 10
73.0594
 20
106.6676
 30
0
 70
     0
  0
VERTEX
  8
DV1_DEFAULT
 10
73.0539
 20
106.4833
 30
0
 70
     0
  0
VERTEX
  8
DV1_DEFAULT
 10
73.0508
 20
106.3903
 30
0
 70
     0
  0
VERTEX
  8
DV1_DEFAULT
 10
73.0439
 20
106.2031
 30
0
 70
     0
  0
VERTEX
  8
DV1_DEFAULT
 10
73.0402
 20
106.1091
 30
0
 70
     0
  0
VERTEX
  8
DV1_DEFAULT
 10
73.0321
 20
105.9207
 30
0
 70
     0
  0
VERTEX
  8
DV1_DEFAULT
 10
73.0232
 20
105.7316
 30
0
 70
     0
  0
VERTEX
  8
DV1_DEFAULT
 10
73.0135
 20
105.5419
 30
0
 70
     0
  0
VERTEX
  8
DV1_DEFAULT
 10
73.003
 20
105.3514
 30
0
 70
     0
  0
VERTEX
  8
DV1_DEFAULT
 10
72.9974
 20
105.256
 30
0
 70
     0
  0
VERTEX
  8
DV1_DEFAULT
 10
72.9857
 20
105.0645
 30
0
 70
     0
  0
VERTEX
  8
DV1_DEFAULT
 10
72.9795
 20
104.9685
 30
0
 70
     0
  0
VERTEX
  8
DV1_DEFAULT
 10
72.9731
 20
104.8723
 30
0
 70
     0
  0
SEQEND
  0
POLYLINE
  8
DV1_DEFAULT
  6
CONTINUOUS
 62
     7
 66
     1
 40
0
 41
0
  0
VERTEX
  8
DV1_DEFAULT
 10
70.109
 20
108.5705
 30
0
 70
     0
  0
VERTEX
  8
DV1_DEFAULT
 10
68.0847
 20
108.3515
 30
0
 70
     0
  0
VERTEX
  8
DV1_DEFAULT
 10
66.0625
 20
108.1147
 30
0
 70
     0
  0
SEQEND
  0
POLYLINE
  8
DV1_DEFAULT
  6
CONTINUOUS
 62
     7
 66
     1
 40
0
 41
0
  0
VERTEX
  8
DV1_DEFAULT
 10
59.0859
 20
79.1888
 30
0
 70
     0
  0
VERTEX
  8
DV1_DEFAULT
 10
57.519
 20
78.9901
 30
0
 70
     0
  0
VERTEX
  8
DV1_DEFAULT
 10
55.954
 20
78.779
 30
0
 70
     0
  0
VERTEX
  8
DV1_DEFAULT
 10
54.3911
 20
78.5555
 30
0
 70
     0
  0
VERTEX
  8
DV1_DEFAULT
 10
52.8304
 20
78.3197
 30
0
 70
     0
  0
VERTEX
  8
DV1_DEFAULT
 10
51.2718
 20
78.0715
 30
0
 70
     0
  0
VERTEX
  8
DV1_DEFAULT
 10
49.7156
 20
77.811
 30
0
 70
     0
  0
VERTEX
  8
DV1_DEFAULT
 10
48.1617
 20
77.5382
 30
0
 70
     0
  0
VERTEX
  8
DV1_DEFAULT
 10
46.6102
 20
77.2531
 30
0
 70
     0
  0
VERTEX
  8
DV1_DEFAULT
 10
45.0612
 20
76.9557
 30
0
 70
     0
  0
VERTEX
  8
DV1_DEFAULT
 10
43.5148
 20
76.6461
 30
0
 70
     0
  0
VERTEX
  8
DV1_DEFAULT
 10
41.971
 20
76.3242
 30
0
 70
     0
  0
VERTEX
  8
DV1_DEFAULT
 10
40.4299
 20
75.9902
 30
0
 70
     0
  0
VERTEX
  8
DV1_DEFAULT
 10
38.8917
 20
75.6439
 30
0
 70
     0
  0
VERTEX
  8
DV1_DEFAULT
 10
37.3563
 20
75.2855
 30
0
 70
     0
  0
VERTEX
  8
DV1_DEFAULT
 10
35.8238
 20
74.9149
 30
0
 70
     0
  0
VERTEX
  8
DV1_DEFAULT
 10
34.2944
 20
74.5322
 30
0
 70
     0
  0
VERTEX
  8
DV1_DEFAULT
 10
32.768
 20
74.1373
 30
0
 70
     0
  0
VERTEX
  8
DV1_DEFAULT
 10
31.2448
 20
73.7304
 30
0
 70
     0
  0
VERTEX
  8
DV1_DEFAULT
 10
29.7248
 20
73.3113
 30
0
 70
     0
  0
VERTEX
  8
DV1_DEFAULT
 10
28.2081
 20
72.8802
 30
0
 70
     0
  0
VERTEX
  8
DV1_DEFAULT
 10
26.6948
 20
72.4371
 30
0
 70
     0
  0
VERTEX
  8
DV1_DEFAULT
 10
25.185
 20
71.9819
 30
0
 70
     0
  0
VERTEX
  8
DV1_DEFAULT
 10
23.6787
 20
71.5148
 30
0
 70
     0
  0
VERTEX
  8
DV1_DEFAULT
 10
22.1759
 20
71.0356
 30
0
 70
     0
  0
VERTEX
  8
DV1_DEFAULT
 10
20.6769
 20
70.5445
 30
0
 70
     0
  0
VERTEX
  8
DV1_DEFAULT
 10
19.1816
 20
70.0414
 30
0
 70
     0
  0
VERTEX
  8
DV1_DEFAULT
 10
17.69
 20
69.5264
 30
0
 70
     0
  0
VERTEX
  8
DV1_DEFAULT
 10
16.2024
 20
68.9995
 30
0
 70
     0
  0
VERTEX
  8
DV1_DEFAULT
 10
14.7188
 20
68.4607
 30
0
 70
     0
  0
VERTEX
  8
DV1_DEFAULT
 10
13.2392
 20
67.91
 30
0
 70
     0
  0
VERTEX
  8
DV1_DEFAULT
 10
11.7636
 20
67.3474
 30
0
 70
     0
  0
VERTEX
  8
DV1_DEFAULT
 10
10.2923
 20
66.773
 30
0
 70
     0
  0
SEQEND
  0
POLYLINE
  8
DV1_DEFAULT
  6
CONTINUOUS
 62
     7
 66
     1
 40
0
 41
0
  0
VERTEX
  8
DV1_DEFAULT
 10
10.2923
 20
66.773
 30
0
 70
     0
  0
VERTEX
  8
DV1_DEFAULT
 10
10.2587
 20
66.7594
 30
0
 70
     0
  0
VERTEX
  8
DV1_DEFAULT
 10
10.2254
 20
66.7451
 30
0
 70
     0
  0
VERTEX
  8
DV1_DEFAULT
 10
10.1924
 20
66.7302
 30
0
 70
     0
  0
VERTEX
  8
DV1_DEFAULT
 10
10.1597
 20
66.7146
 30
0
 70
     0
  0
VERTEX
  8
DV1_DEFAULT
 10
10.1273
 20
66.6984
 30
0
 70
     0
  0
VERTEX
  8
DV1_DEFAULT
 10
10.0952
 20
66.6815
 30
0
 70
     0
  0
VERTEX
  8
DV1_DEFAULT
 10
10.0634
 20
66.664
 30
0
 70
     0
  0
VERTEX
  8
DV1_DEFAULT
 10
10.0319
 20
66.6458
 30
0
 70
     0
  0
VERTEX
  8
DV1_DEFAULT
 10
10.0006
 20
66.627
 30
0
 70
     0
  0
VERTEX
  8
DV1_DEFAULT
 10
9.9697
 20
66.6075
 30
0
 70
     0
  0
VERTEX
  8
DV1_DEFAULT
 10
9.9391
 20
66.5874
 30
0
 70
     0
  0
VERTEX
  8
DV1_DEFAULT
 10
9.9087
 20
66.5666
 30
0
 70
     0
  0
VERTEX
  8
DV1_DEFAULT
 10
9.8787
 20
66.5452
 30
0
 70
     0
  0
VERTEX
  8
DV1_DEFAULT
 10
9.849
 20
66.5232
 30
0
 70
     0
  0
VERTEX
  8
DV1_DEFAULT
 10
9.8195
 20
66.5004
 30
0
 70
     0
  0
VERTEX
  8
DV1_DEFAULT
 10
9.7904
 20
66.4771
 30
0
 70
     0
  0
VERTEX
  8
DV1_DEFAULT
 10
9.7616
 20
66.4531
 30
0
 70
     0
  0
VERTEX
  8
DV1_DEFAULT
 10
9.7331
 20
66.4285
 30
0
 70
     0
  0
VERTEX
  8
DV1_DEFAULT
 10
9.7051
 20
66.4033
 30
0
 70
     0
  0
VERTEX
  8
DV1_DEFAULT
 10
9.6774
 20
66.3775
 30
0
 70
     0
  0
VERTEX
  8
DV1_DEFAULT
 10
9.6501
 20
66.3512
 30
0
 70
     0
  0
VERTEX
  8
DV1_DEFAULT
 10
9.6232
 20
66.3243
 30
0
 70
     0
  0
VERTEX
  8
DV1_DEFAULT
 10
9.5967
 20
66.2968
 30
0
 70
     0
  0
VERTEX
  8
DV1_DEFAULT
 10
9.5706
 20
66.2688
 30
0
 70
     0
  0
VERTEX
  8
DV1_DEFAULT
 10
9.5448
 20
66.2402
 30
0
 70
     0
  0
VERTEX
  8
DV1_DEFAULT
 10
9.5194
 20
66.211
 30
0
 70
     0
  0
VERTEX
  8
DV1_DEFAULT
 10
9.4944
 20
66.1812
 30
0
 70
     0
  0
VERTEX
  8
DV1_DEFAULT
 10
9.4697
 20
66.1509
 30
0
 70
     0
  0
VERTEX
  8
DV1_DEFAULT
 10
9.4455
 20
66.12
 30
0
 70
     0
  0
VERTEX
  8
DV1_DEFAULT
 10
9.4216
 20
66.0885
 30
0
 70
     0
  0
VERTEX
  8
DV1_DEFAULT
 10
9.3981
 20
66.0565
 30
0
 70
     0
  0
VERTEX
  8
DV1_DEFAULT
 10
9.3749
 20
66.0239
 30
0
 70
     0
  0
VERTEX
  8
DV1_DEFAULT
 10
9.3522
 20
65.9907
 30
0
 70
     0
  0
VERTEX
  8
DV1_DEFAULT
 10
9.3298
 20
65.957
 30
0
 70
     0
  0
VERTEX
  8
DV1_DEFAULT
 10
9.3078
 20
65.9227
 30
0
 70
     0
  0
VERTEX
  8
DV1_DEFAULT
 10
9.2862
 20
65.8878
 30
0
 70
     0
  0
VERTEX
  8
DV1_DEFAULT
 10
9.265
 20
65.8523
 30
0
 70
     0
  0
VERTEX
  8
DV1_DEFAULT
 10
9.2441
 20
65.8162
 30
0
 70
     0
  0
VERTEX
  8
DV1_DEFAULT
 10
9.2236
 20
65.7796
 30
0
 70
     0
  0
VERTEX
  8
DV1_DEFAULT
 10
9.2036
 20
65.7424
 30
0
 70
     0
  0
VERTEX
  8
DV1_DEFAULT
 10
9.1839
 20
65.7046
 30
0
 70
     0
  0
VERTEX
  8
DV1_DEFAULT
 10
9.1646
 20
65.6662
 30
0
 70
     0
  0
VERTEX
  8
DV1_DEFAULT
 10
9.1457
 20
65.6273
 30
0
 70
     0
  0
VERTEX
  8
DV1_DEFAULT
 10
9.1272
 20
65.5877
 30
0
 70
     0
  0
VERTEX
  8
DV1_DEFAULT
 10
9.1091
 20
65.5476
 30
0
 70
     0
  0
VERTEX
  8
DV1_DEFAULT
 10
9.0914
 20
65.507
 30
0
 70
     0
  0
VERTEX
  8
DV1_DEFAULT
 10
9.0743
 20
65.466
 30
0
 70
     0
  0
VERTEX
  8
DV1_DEFAULT
 10
9.0576
 20
65.4245
 30
0
 70
     0
  0
VERTEX
  8
DV1_DEFAULT
 10
9.0414
 20
65.3826
 30
0
 70
     0
  0
VERTEX
  8
DV1_DEFAULT
 10
9.0256
 20
65.3403
 30
0
 70
     0
  0
VERTEX
  8
DV1_DEFAULT
 10
9.0103
 20
65.2975
 30
0
 70
     0
  0
VERTEX
  8
DV1_DEFAULT
 10
8.9955
 20
65.2543
 30
0
 70
     0
  0
VERTEX
  8
DV1_DEFAULT
 10
8.9811
 20
65.2107
 30
0
 70
     0
  0
VERTEX
  8
DV1_DEFAULT
 10
8.9672
 20
65.1666
 30
0
 70
     0
  0
VERTEX
  8
DV1_DEFAULT
 10
8.9537
 20
65.1221
 30
0
 70
     0
  0
VERTEX
  8
DV1_DEFAULT
 10
8.9407
 20
65.0772
 30
0
 70
     0
  0
VERTEX
  8
DV1_DEFAULT
 10
8.9282
 20
65.0318
 30
0
 70
     0
  0
VERTEX
  8
DV1_DEFAULT
 10
8.9161
 20
64.986
 30
0
 70
     0
  0
VERTEX
  8
DV1_DEFAULT
 10
8.9045
 20
64.9398
 30
0
 70
     0
  0
VERTEX
  8
DV1_DEFAULT
 10
8.8933
 20
64.8931
 30
0
 70
     0
  0
VERTEX
  8
DV1_DEFAULT
 10
8.8826
 20
64.846
 30
0
 70
     0
  0
VERTEX
  8
DV1_DEFAULT
 10
8.8724
 20
64.7984
 30
0
 70
     0
  0
VERTEX
  8
DV1_DEFAULT
 10
8.8626
 20
64.7505
 30
0
 70
     0
  0
VERTEX
  8
DV1_DEFAULT
 10
8.8534
 20
64.702
 30
0
 70
     0
  0
VERTEX
  8
DV1_DEFAULT
 10
8.8445
 20
64.6532
 30
0
 70
     0
  0
VERTEX
  8
DV1_DEFAULT
 10
8.8362
 20
64.6039
 30
0
 70
     0
  0
VERTEX
  8
DV1_DEFAULT
 10
8.8283
 20
64.5541
 30
0
 70
     0
  0
VERTEX
  8
DV1_DEFAULT
 10
8.8209
 20
64.5039
 30
0
 70
     0
  0
VERTEX
  8
DV1_DEFAULT
 10
8.814
 20
64.4533
 30
0
 70
     0
  0
VERTEX
  8
DV1_DEFAULT
 10
8.8075
 20
64.4022
 30
0
 70
     0
  0
VERTEX
  8
DV1_DEFAULT
 10
8.8016
 20
64.3506
 30
0
 70
     0
  0
VERTEX
  8
DV1_DEFAULT
 10
8.7961
 20
64.2986
 30
0
 70
     0
  0
VERTEX
  8
DV1_DEFAULT
 10
8.7912
 20
64.2463
 30
0
 70
     0
  0
VERTEX
  8
DV1_DEFAULT
 10
8.7867
 20
64.1938
 30
0
 70
     0
  0
VERTEX
  8
DV1_DEFAULT
 10
8.7828
 20
64.141
 30
0
 70
     0
  0
VERTEX
  8
DV1_DEFAULT
 10
8.7793
 20
64.088
 30
0
 70
     0
  0
VERTEX
  8
DV1_DEFAULT
 10
8.7764
 20
64.0348
 30
0
 70
     0
  0
VERTEX
  8
DV1_DEFAULT
 10
8.774
 20
63.9813
 30
0
 70
     0
  0
VERTEX
  8
DV1_DEFAULT
 10
8.772
 20
63.9276
 30
0
 70
     0
  0
VERTEX
  8
DV1_DEFAULT
 10
8.7706
 20
63.8736
 30
0
 70
     0
  0
VERTEX
  8
DV1_DEFAULT
 10
8.7697
 20
63.8194
 30
0
 70
     0
  0
VERTEX
  8
DV1_DEFAULT
 10
8.7693
 20
63.765
 30
0
 70
     0
  0
VERTEX
  8
DV1_DEFAULT
 10
8.7694
 20
63.7103
 30
0
 70
     0
  0
VERTEX
  8
DV1_DEFAULT
 10
8.7699
 20
63.6554
 30
0
 70
     0
  0
VERTEX
  8
DV1_DEFAULT
 10
8.771
 20
63.6002
 30
0
 70
     0
  0
VERTEX
  8
DV1_DEFAULT
 10
8.7726
 20
63.5448
 30
0
 70
     0
  0
VERTEX
  8
DV1_DEFAULT
 10
8.7747
 20
63.4892
 30
0
 70
     0
  0
VERTEX
  8
DV1_DEFAULT
 10
8.7773
 20
63.4333
 30
0
 70
     0
  0
VERTEX
  8
DV1_DEFAULT
 10
8.7804
 20
63.3772
 30
0
 70
     0
  0
VERTEX
  8
DV1_DEFAULT
 10
8.7839
 20
63.3209
 30
0
 70
     0
  0
VERTEX
  8
DV1_DEFAULT
 10
8.788
 20
63.2643
 30
0
 70
     0
  0
VERTEX
  8
DV1_DEFAULT
 10
8.7926
 20
63.2075
 30
0
 70
     0
  0
VERTEX
  8
DV1_DEFAULT
 10
8.7978
 20
63.1504
 30
0
 70
     0
  0
VERTEX
  8
DV1_DEFAULT
 10
8.8034
 20
63.0931
 30
0
 70
     0
  0
VERTEX
  8
DV1_DEFAULT
 10
8.8095
 20
63.0355
 30
0
 70
     0
  0
VERTEX
  8
DV1_DEFAULT
 10
8.8162
 20
62.9777
 30
0
 70
     0
  0
VERTEX
  8
DV1_DEFAULT
 10
8.8234
 20
62.9197
 30
0
 70
     0
  0
VERTEX
  8
DV1_DEFAULT
 10
8.8311
 20
62.8614
 30
0
 70
     0
  0
VERTEX
  8
DV1_DEFAULT
 10
8.8393
 20
62.8028
 30
0
 70
     0
  0
SEQEND
  0
INSERT
  8
DV1_DEFAULT
  2
Group2
 10
0
 20
0
 30
0
  0
ENDBLK
  8
DV1_DEFAULT
  0
ENDSEC
  0
SECTION
  2
ENTITIES
  0
INSERT
  8
DV1_DEFAULT
  2
Group3
 10
0
 20
0
 30
0
  0
ENDSEC
  0
EOF
