  0
SECTION
  2
HEADER
  9
$ACADVER
  1
AC1006
  9
$AXISMODE
 70
     0
  9
$AXISUNIT
 10
0.125
 20
0.125
  9
$CECOLOR
 62
0
  9
$CELTYPE
  6
CONTINUOUS
  9
$CLAYER
  8
0
  9
$EXTMIN
 10
0
 20
0
  9
$EXTMAX
 10
119.9861
 20
59.9861
  9
$LIMMIN
 10
0
 20
0
  9
$LIMMAX
 10
119.9861
 20
59.9861
  9
$GRIDMODE
 70
     0
  9
$GRIDUNIT
 10
0.125
 20
0.125
  9
$MIRRTEXT
 70
     1
  9
$SNAPMODE
 70
     1
  9
$SNAPUNIT
 10
0.125
 20
0
  9
$SNAPSTYLE
 70
     0
  9
$SPLINESEGS
 70
     8
  9
$SPLINETYPE
 70
     6
  0
ENDSEC
  0
SECTION
  2
TABLES
  0
TABLE
  2
LTYPE
 70
     1
  0
LTYPE
  2
CONTINUOUS
 70
    64
  3
Descriptive Text
 72
    65
 73
     0
 40
0
  0
ENDTAB
  0
TABLE
  2
LAYER
 70
     2
  0
LAYER
  2
0
 70
     0
 62
     7
  6
CONTINUOUS
  0
LAYER
  2
MACK_GRANITE_265
 70
     0
 62
     7
  6
CONTINUOUS
  0
ENDTAB
  0
TABLE
  2
STYLE
 70
     1
  0
STYLE
  2
STANDARD
 70
    64
 40
0.0
 41
1.0
 50
0.0
 71
     0
 42
0.2
  3
txt
  4

  0
STYLE
  2
ARIAL
 70
    64
 40
0.0
 41
1.0
 50
0.0
 71
     0
 42
0.2
  3
arial
  4

  0
ENDTAB
  0
TABLE
  2
VIEW
 70
     0
  0
ENDTAB
  0
TABLE
  2
USC
 70
     0
  0
ENDTAB
  0
TABLE
  2
DWGMGR
 70
     0
  0
ENDTAB
  0
ENDSEC
  0
SECTION
  2
BLOCKS
  0
BLOCK
  8
MACK_GRANITE_265
  2
Group1
 70
     0
 10
0
 20
0
 30
0
  0
POLYLINE
  8
MACK_GRANITE_265
  6
CONTINUOUS
 62
     7
 66
     1
 40
0.0139
 41
0.0139
  0
VERTEX
  8
MACK_GRANITE_265
 10
-85.0451
 20
1.4629
 30
0
 70
     0
  0
VERTEX
  8
MACK_GRANITE_265
 10
-85.5994
 20
1.4629
 30
0
 70
     0
  0
SEQEND
  0
POLYLINE
  8
MACK_GRANITE_265
  6
CONTINUOUS
 62
     7
 66
     1
 40
0.0139
 41
0.0139
  0
VERTEX
  8
MACK_GRANITE_265
 10
-85.1802
 20
5.7129
 30
0
 70
     0
  0
VERTEX
  8
MACK_GRANITE_265
 10
-85.0451
 20
5.7129
 30
0
 70
     0
  0
SEQEND
  0
POLYLINE
  8
MACK_GRANITE_265
  6
CONTINUOUS
 62
     7
 66
     1
 40
0.0139
 41
0.0139
  0
VERTEX
  8
MACK_GRANITE_265
 10
-85.1802
 20
35.5516
 30
0
 70
     0
  0
VERTEX
  8
MACK_GRANITE_265
 10
-85.1802
 20
5.7129
 30
0
 70
     0
  0
SEQEND
  0
POLYLINE
  8
MACK_GRANITE_265
  6
CONTINUOUS
 62
     7
 66
     1
 40
0.0139
 41
0.0139
  0
VERTEX
  8
MACK_GRANITE_265
 10
-85.0451
 20
36.1145
 30
0
 70
     0
  0
VERTEX
  8
MACK_GRANITE_265
 10
-85.1802
 20
35.5516
 30
0
 70
     0
  0
SEQEND
  0
POLYLINE
  8
MACK_GRANITE_265
  6
CONTINUOUS
 62
     7
 66
     1
 40
0.0139
 41
0.0139
  0
VERTEX
  8
MACK_GRANITE_265
 10
-85.0451
 20
36.1969
 30
0
 70
     0
  0
VERTEX
  8
MACK_GRANITE_265
 10
-85.5994
 20
36.2625
 30
0
 70
     0
  0
SEQEND
  0
POLYLINE
  8
MACK_GRANITE_265
  6
CONTINUOUS
 62
     7
 66
     1
 40
0.0139
 41
0.0139
  0
VERTEX
  8
MACK_GRANITE_265
 10
-43.4302
 20
1.4629
 30
0
 70
     0
  0
VERTEX
  8
MACK_GRANITE_265
 10
-85.0451
 20
1.4629
 30
0
 70
     0
  0
SEQEND
  0
POLYLINE
  8
MACK_GRANITE_265
  6
CONTINUOUS
 62
     7
 66
     1
 40
0.0139
 41
0.0139
  0
VERTEX
  8
MACK_GRANITE_265
 10
-91.2048
 20
1.4629
 30
0
 70
     0
  0
VERTEX
  8
MACK_GRANITE_265
 10
-85.5994
 20
1.4629
 30
0
 70
     0
  0
SEQEND
  0
POLYLINE
  8
MACK_GRANITE_265
  6
CONTINUOUS
 62
     7
 66
     1
 40
0.0139
 41
0.0139
  0
VERTEX
  8
MACK_GRANITE_265
 10
-144.4298
 20
19.8811
 30
0
 70
     0
  0
VERTEX
  8
MACK_GRANITE_265
 10
-144.4298
 20
20.3903
 30
0
 70
     0
  0
SEQEND
  0
POLYLINE
  8
MACK_GRANITE_265
  6
CONTINUOUS
 62
     7
 66
     1
 40
0.0139
 41
0.0139
  0
VERTEX
  8
MACK_GRANITE_265
 10
-92.4694
 20
37.458
 30
0
 70
     0
  0
VERTEX
  8
MACK_GRANITE_265
 10
-92.4298
 20
37.4629
 30
0
 70
     0
  0
SEQEND
  0
POLYLINE
  8
MACK_GRANITE_265
  6
CONTINUOUS
 62
     7
 66
     1
 40
0.0139
 41
0.0139
  0
VERTEX
  8
MACK_GRANITE_265
 10
-144.4298
 20
5.1671
 30
0
 70
     0
  0
VERTEX
  8
MACK_GRANITE_265
 10
-144.4298
 20
19.8811
 30
0
 70
     0
  0
SEQEND
  0
POLYLINE
  8
MACK_GRANITE_265
  6
CONTINUOUS
 62
     7
 66
     1
 40
0.0139
 41
0.0139
  0
VERTEX
  8
MACK_GRANITE_265
 10
-100.4298
 20
5.7629
 30
0
 70
     0
  0
VERTEX
  8
MACK_GRANITE_265
 10
-97.2048
 20
1.4629
 30
0
 70
     0
  0
SEQEND
  0
POLYLINE
  8
MACK_GRANITE_265
  6
CONTINUOUS
 62
     7
 66
     1
 40
0.0139
 41
0.0139
  0
VERTEX
  8
MACK_GRANITE_265
 10
-97.2048
 20
1.4629
 30
0
 70
     0
  0
VERTEX
  8
MACK_GRANITE_265
 10
-94.3064
 20
1.4629
 30
0
 70
     0
  0
SEQEND
  0
POLYLINE
  8
MACK_GRANITE_265
  6
CONTINUOUS
 62
     7
 66
     1
 40
0.0139
 41
0.0139
  0
VERTEX
  8
MACK_GRANITE_265
 10
-141.4298
 20
-6.2371
 30
0
 70
     0
  0
VERTEX
  8
MACK_GRANITE_265
 10
-139.4298
 20
-6.2371
 30
0
 70
     0
  0
SEQEND
  0
POLYLINE
  8
MACK_GRANITE_265
  6
CONTINUOUS
 62
     7
 66
     1
 40
0.0139
 41
0.0139
  0
VERTEX
  8
MACK_GRANITE_265
 10
-139.4298
 20
-6.2371
 30
0
 70
     0
  0
VERTEX
  8
MACK_GRANITE_265
 10
-130.4298
 20
5.7629
 30
0
 70
     0
  0
SEQEND
  0
POLYLINE
  8
MACK_GRANITE_265
  6
CONTINUOUS
 62
     7
 66
     1
 40
0.0139
 41
0.0139
  0
VERTEX
  8
MACK_GRANITE_265
 10
-130.4298
 20
5.7629
 30
0
 70
     0
  0
VERTEX
  8
MACK_GRANITE_265
 10
-100.4298
 20
5.7629
 30
0
 70
     0
  0
SEQEND
  0
POLYLINE
  8
MACK_GRANITE_265
  6
CONTINUOUS
 62
     7
 66
     1
 40
0.0139
 41
0.0139
  0
VERTEX
  8
MACK_GRANITE_265
 10
-92.4298
 20
37.4629
 30
0
 70
     0
  0
VERTEX
  8
MACK_GRANITE_265
 10
-88.8604
 20
36.6067
 30
0
 70
     0
  0
SEQEND
  0
POLYLINE
  8
MACK_GRANITE_265
  6
CONTINUOUS
 62
     7
 66
     1
 40
0.0139
 41
0.0139
  0
VERTEX
  8
MACK_GRANITE_265
 10
-150.4298
 20
-10.2371
 30
0
 70
     0
  0
VERTEX
  8
MACK_GRANITE_265
 10
-150.4298
 20
-20.7371
 30
0
 70
     0
  0
SEQEND
  0
POLYLINE
  8
MACK_GRANITE_265
  6
CONTINUOUS
 62
     7
 66
     1
 40
0.0139
 41
0.0139
  0
VERTEX
  8
MACK_GRANITE_265
 10
-49.6802
 20
13.6129
 30
0
 70
     0
  0
VERTEX
  8
MACK_GRANITE_265
 10
-50.4302
 20
13.6129
 30
0
 70
     0
  0
SEQEND
  0
POLYLINE
  8
MACK_GRANITE_265
  6
CONTINUOUS
 62
     7
 66
     1
 40
0.0139
 41
0.0139
  0
VERTEX
  8
MACK_GRANITE_265
 10
-50.4302
 20
17.6129
 30
0
 70
     0
  0
VERTEX
  8
MACK_GRANITE_265
 10
-49.6802
 20
17.6129
 30
0
 70
     0
  0
SEQEND
  0
ENDBLK
  8
MACK_GRANITE_265
  0
ENDSEC
  0
SECTION
  2
ENTITIES
  0
POLYLINE
  8
MACK_GRANITE_265
  6
CONTINUOUS
 62
     7
 66
     1
 40
0.0139
 41
0.0139
  0
VERTEX
  8
MACK_GRANITE_265
 10
-55.4302
 20
0.4629
 30
0
 70
     0
  0
VERTEX
  8
MACK_GRANITE_265
 10
-55.7664
 20
0.4537
 30
0
 70
     0
  0
VERTEX
  8
MACK_GRANITE_265
 10
-56.0996
 20
0.4259
 30
0
 70
     0
  0
VERTEX
  8
MACK_GRANITE_265
 10
-56.4293
 20
0.3798
 30
0
 70
     0
  0
VERTEX
  8
MACK_GRANITE_265
 10
-56.7547
 20
0.3157
 30
0
 70
     0
  0
VERTEX
  8
MACK_GRANITE_265
 10
-57.0751
 20
0.2339
 30
0
 70
     0
  0
VERTEX
  8
MACK_GRANITE_265
 10
-57.3899
 20
0.1348
 30
0
 70
     0
  0
VERTEX
  8
MACK_GRANITE_265
 10
-57.6983
 20
0.0187
 30
0
 70
     0
  0
VERTEX
  8
MACK_GRANITE_265
 10
-57.9997
 20
-0.114
 30
0
 70
     0
  0
VERTEX
  8
MACK_GRANITE_265
 10
-58.2933
 20
-0.2632
 30
0
 70
     0
  0
VERTEX
  8
MACK_GRANITE_265
 10
-58.5785
 20
-0.4283
 30
0
 70
     0
  0
VERTEX
  8
MACK_GRANITE_265
 10
-58.8545
 20
-0.6091
 30
0
 70
     0
  0
VERTEX
  8
MACK_GRANITE_265
 10
-59.1207
 20
-0.8053
 30
0
 70
     0
  0
VERTEX
  8
MACK_GRANITE_265
 10
-59.3764
 20
-1.0165
 30
0
 70
     0
  0
VERTEX
  8
MACK_GRANITE_265
 10
-59.6209
 20
-1.2425
 30
0
 70
     0
  0
VERTEX
  8
MACK_GRANITE_265
 10
-59.8535
 20
-1.4828
 30
0
 70
     0
  0
VERTEX
  8
MACK_GRANITE_265
 10
-60.0735
 20
-1.7371
 30
0
 70
     0
  0
SEQEND
  0
POLYLINE
  8
MACK_GRANITE_265
  6
CONTINUOUS
 62
     7
 66
     1
 40
0.0139
 41
0.0139
  0
VERTEX
  8
MACK_GRANITE_265
 10
-61.1538
 20
-3.7371
 30
0
 70
     0
  0
VERTEX
  8
MACK_GRANITE_265
 10
-61.2185
 20
-3.9566
 30
0
 70
     0
  0
VERTEX
  8
MACK_GRANITE_265
 10
-61.2746
 20
-4.1781
 30
0
 70
     0
  0
VERTEX
  8
MACK_GRANITE_265
 10
-61.3221
 20
-4.4015
 30
0
 70
     0
  0
VERTEX
  8
MACK_GRANITE_265
 10
-61.3611
 20
-4.6265
 30
0
 70
     0
  0
VERTEX
  8
MACK_GRANITE_265
 10
-61.3914
 20
-4.8528
 30
0
 70
     0
  0
VERTEX
  8
MACK_GRANITE_265
 10
-61.4131
 20
-5.0802
 30
0
 70
     0
  0
VERTEX
  8
MACK_GRANITE_265
 10
-61.426
 20
-5.3083
 30
0
 70
     0
  0
VERTEX
  8
MACK_GRANITE_265
 10
-61.4302
 20
-5.5371
 30
0
 70
     0
  0
SEQEND
  0
POLYLINE
  8
MACK_GRANITE_265
  6
CONTINUOUS
 62
     7
 66
     1
 40
0.0139
 41
0.0139
  0
VERTEX
  8
MACK_GRANITE_265
 10
-19.4302
 20
-5.5393
 30
0
 70
     0
  0
VERTEX
  8
MACK_GRANITE_265
 10
-19.4377
 20
-5.2305
 30
0
 70
     0
  0
VERTEX
  8
MACK_GRANITE_265
 10
-19.4605
 20
-4.9257
 30
0
 70
     0
  0
VERTEX
  8
MACK_GRANITE_265
 10
-19.4984
 20
-4.6254
 30
0
 70
     0
  0
VERTEX
  8
MACK_GRANITE_265
 10
-19.5509
 20
-4.3298
 30
0
 70
     0
  0
VERTEX
  8
MACK_GRANITE_265
 10
-19.6177
 20
-4.0394
 30
0
 70
     0
  0
VERTEX
  8
MACK_GRANITE_265
 10
-19.6984
 20
-3.7546
 30
0
 70
     0
  0
VERTEX
  8
MACK_GRANITE_265
 10
-19.7926
 20
-3.4757
 30
0
 70
     0
  0
VERTEX
  8
MACK_GRANITE_265
 10
-19.8999
 20
-3.203
 30
0
 70
     0
  0
VERTEX
  8
MACK_GRANITE_265
 10
-20.0199
 20
-2.9371
 30
0
 70
     0
  0
VERTEX
  8
MACK_GRANITE_265
 10
-20.1523
 20
-2.6783
 30
0
 70
     0
  0
VERTEX
  8
MACK_GRANITE_265
 10
-20.2967
 20
-2.4268
 30
0
 70
     0
  0
VERTEX
  8
MACK_GRANITE_265
 10
-20.4528
 20
-2.1832
 30
0
 70
     0
  0
VERTEX
  8
MACK_GRANITE_265
 10
-20.62
 20
-1.9478
 30
0
 70
     0
  0
VERTEX
  8
MACK_GRANITE_265
 10
-20.7981
 20
-1.721
 30
0
 70
     0
  0
VERTEX
  8
MACK_GRANITE_265
 10
-20.9867
 20
-1.5032
 30
0
 70
     0
  0
VERTEX
  8
MACK_GRANITE_265
 10
-21.1854
 20
-1.2947
 30
0
 70
     0
  0
VERTEX
  8
MACK_GRANITE_265
 10
-21.3938
 20
-1.0958
 30
0
 70
     0
  0
VERTEX
  8
MACK_GRANITE_265
 10
-21.6116
 20
-0.9071
 30
0
 70
     0
  0
VERTEX
  8
MACK_GRANITE_265
 10
-21.8383
 20
-0.7289
 30
0
 70
     0
  0
VERTEX
  8
MACK_GRANITE_265
 10
-22.0736
 20
-0.5615
 30
0
 70
     0
  0
VERTEX
  8
MACK_GRANITE_265
 10
-22.3171
 20
-0.4054
 30
0
 70
     0
  0
VERTEX
  8
MACK_GRANITE_265
 10
-22.5684
 20
-0.2608
 30
0
 70
     0
  0
VERTEX
  8
MACK_GRANITE_265
 10
-22.8272
 20
-0.1282
 30
0
 70
     0
  0
VERTEX
  8
MACK_GRANITE_265
 10
-23.0931
 20
-0.008
 30
0
 70
     0
  0
VERTEX
  8
MACK_GRANITE_265
 10
-23.3656
 20
0.0994
 30
0
 70
     0
  0
VERTEX
  8
MACK_GRANITE_265
 10
-23.6445
 20
0.1937
 30
0
 70
     0
  0
VERTEX
  8
MACK_GRANITE_265
 10
-23.9293
 20
0.2746
 30
0
 70
     0
  0
VERTEX
  8
MACK_GRANITE_265
 10
-24.2197
 20
0.3415
 30
0
 70
     0
  0
VERTEX
  8
MACK_GRANITE_265
 10
-24.5152
 20
0.3942
 30
0
 70
     0
  0
VERTEX
  8
MACK_GRANITE_265
 10
-24.8155
 20
0.4322
 30
0
 70
     0
  0
VERTEX
  8
MACK_GRANITE_265
 10
-25.1203
 20
0.4553
 30
0
 70
     0
  0
VERTEX
  8
MACK_GRANITE_265
 10
-25.4291
 20
0.4629
 30
0
 70
     0
  0
SEQEND
  0
POLYLINE
  8
MACK_GRANITE_265
  6
CONTINUOUS
 62
     7
 66
     1
 40
0.0139
 41
0.0139
  0
VERTEX
  8
MACK_GRANITE_265
 10
-61.4302
 20
-17.5371
 30
0
 70
     0
  0
VERTEX
  8
MACK_GRANITE_265
 10
-61.4238
 20
-17.8188
 30
0
 70
     0
  0
VERTEX
  8
MACK_GRANITE_265
 10
-61.4041
 20
-18.0995
 30
0
 70
     0
  0
VERTEX
  8
MACK_GRANITE_265
 10
-61.3713
 20
-18.3786
 30
0
 70
     0
  0
VERTEX
  8
MACK_GRANITE_265
 10
-61.3255
 20
-18.6558
 30
0
 70
     0
  0
VERTEX
  8
MACK_GRANITE_265
 10
-61.2666
 20
-18.9304
 30
0
 70
     0
  0
VERTEX
  8
MACK_GRANITE_265
 10
-61.1949
 20
-19.2022
 30
0
 70
     0
  0
VERTEX
  8
MACK_GRANITE_265
 10
-61.1104
 20
-19.4705
 30
0
 70
     0
  0
VERTEX
  8
MACK_GRANITE_265
 10
-61.0131
 20
-19.735
 30
0
 70
     0
  0
SEQEND
  0
POLYLINE
  8
MACK_GRANITE_265
  6
CONTINUOUS
 62
     7
 66
     1
 40
0.0139
 41
0.0139
  0
VERTEX
  8
MACK_GRANITE_265
 10
-59.7166
 20
-21.7355
 30
0
 70
     0
  0
VERTEX
  8
MACK_GRANITE_265
 10
-59.5005
 20
-21.9457
 30
0
 70
     0
  0
VERTEX
  8
MACK_GRANITE_265
 10
-59.2751
 20
-22.1439
 30
0
 70
     0
  0
VERTEX
  8
MACK_GRANITE_265
 10
-59.0409
 20
-22.3298
 30
0
 70
     0
  0
VERTEX
  8
MACK_GRANITE_265
 10
-58.7984
 20
-22.5034
 30
0
 70
     0
  0
VERTEX
  8
MACK_GRANITE_265
 10
-58.5482
 20
-22.6642
 30
0
 70
     0
  0
VERTEX
  8
MACK_GRANITE_265
 10
-58.2908
 20
-22.8122
 30
0
 70
     0
  0
VERTEX
  8
MACK_GRANITE_265
 10
-58.0267
 20
-22.9472
 30
0
 70
     0
  0
VERTEX
  8
MACK_GRANITE_265
 10
-57.7564
 20
-23.0688
 30
0
 70
     0
  0
VERTEX
  8
MACK_GRANITE_265
 10
-57.4804
 20
-23.1769
 30
0
 70
     0
  0
VERTEX
  8
MACK_GRANITE_265
 10
-57.1992
 20
-23.2713
 30
0
 70
     0
  0
VERTEX
  8
MACK_GRANITE_265
 10
-56.9134
 20
-23.3517
 30
0
 70
     0
  0
VERTEX
  8
MACK_GRANITE_265
 10
-56.6234
 20
-23.418
 30
0
 70
     0
  0
VERTEX
  8
MACK_GRANITE_265
 10
-56.3299
 20
-23.4699
 30
0
 70
     0
  0
VERTEX
  8
MACK_GRANITE_265
 10
-56.0331
 20
-23.5072
 30
0
 70
     0
  0
VERTEX
  8
MACK_GRANITE_265
 10
-55.7338
 20
-23.5296
 30
0
 70
     0
  0
VERTEX
  8
MACK_GRANITE_265
 10
-55.4324
 20
-23.5371
 30
0
 70
     0
  0
SEQEND
  0
POLYLINE
  8
MACK_GRANITE_265
  6
CONTINUOUS
 62
     7
 66
     1
 40
0.0139
 41
0.0139
  0
VERTEX
  8
MACK_GRANITE_265
 10
-25.4324
 20
-23.5371
 30
0
 70
     0
  0
VERTEX
  8
MACK_GRANITE_265
 10
-25.1237
 20
-23.5296
 30
0
 70
     0
  0
VERTEX
  8
MACK_GRANITE_265
 10
-24.8189
 20
-23.5068
 30
0
 70
     0
  0
VERTEX
  8
MACK_GRANITE_265
 10
-24.5186
 20
-23.4689
 30
0
 70
     0
  0
VERTEX
  8
MACK_GRANITE_265
 10
-24.2231
 20
-23.4164
 30
0
 70
     0
  0
VERTEX
  8
MACK_GRANITE_265
 10
-23.9327
 20
-23.3496
 30
0
 70
     0
  0
VERTEX
  8
MACK_GRANITE_265
 10
-23.6479
 20
-23.269
 30
0
 70
     0
  0
VERTEX
  8
MACK_GRANITE_265
 10
-23.369
 20
-23.1748
 30
0
 70
     0
  0
VERTEX
  8
MACK_GRANITE_265
 10
-23.0964
 20
-23.0676
 30
0
 70
     0
  0
VERTEX
  8
MACK_GRANITE_265
 10
-22.8305
 20
-22.9476
 30
0
 70
     0
  0
VERTEX
  8
MACK_GRANITE_265
 10
-22.5717
 20
-22.8152
 30
0
 70
     0
  0
VERTEX
  8
MACK_GRANITE_265
 10
-22.3203
 20
-22.6708
 30
0
 70
     0
  0
VERTEX
  8
MACK_GRANITE_265
 10
-22.0767
 20
-22.5148
 30
0
 70
     0
  0
VERTEX
  8
MACK_GRANITE_265
 10
-21.8413
 20
-22.3476
 30
0
 70
     0
  0
VERTEX
  8
MACK_GRANITE_265
 10
-21.6145
 20
-22.1695
 30
0
 70
     0
  0
VERTEX
  8
MACK_GRANITE_265
 10
-21.3967
 20
-21.981
 30
0
 70
     0
  0
VERTEX
  8
MACK_GRANITE_265
 10
-21.1882
 20
-21.7823
 30
0
 70
     0
  0
VERTEX
  8
MACK_GRANITE_265
 10
-20.9894
 20
-21.5739
 30
0
 70
     0
  0
VERTEX
  8
MACK_GRANITE_265
 10
-20.8006
 20
-21.3562
 30
0
 70
     0
  0
VERTEX
  8
MACK_GRANITE_265
 10
-20.6224
 20
-21.1296
 30
0
 70
     0
  0
VERTEX
  8
MACK_GRANITE_265
 10
-20.455
 20
-20.8943
 30
0
 70
     0
  0
VERTEX
  8
MACK_GRANITE_265
 10
-20.2988
 20
-20.6508
 30
0
 70
     0
  0
VERTEX
  8
MACK_GRANITE_265
 10
-20.1543
 20
-20.3996
 30
0
 70
     0
  0
VERTEX
  8
MACK_GRANITE_265
 10
-20.0217
 20
-20.1408
 30
0
 70
     0
  0
VERTEX
  8
MACK_GRANITE_265
 10
-19.9015
 20
-19.875
 30
0
 70
     0
  0
VERTEX
  8
MACK_GRANITE_265
 10
-19.794
 20
-19.6025
 30
0
 70
     0
  0
VERTEX
  8
MACK_GRANITE_265
 10
-19.6996
 20
-19.3237
 30
0
 70
     0
  0
VERTEX
  8
MACK_GRANITE_265
 10
-19.6188
 20
-19.0389
 30
0
 70
     0
  0
VERTEX
  8
MACK_GRANITE_265
 10
-19.5518
 20
-18.7486
 30
0
 70
     0
  0
VERTEX
  8
MACK_GRANITE_265
 10
-19.4991
 20
-18.4531
 30
0
 70
     0
  0
VERTEX
  8
MACK_GRANITE_265
 10
-19.461
 20
-18.1528
 30
0
 70
     0
  0
VERTEX
  8
MACK_GRANITE_265
 10
-19.4379
 20
-17.8481
 30
0
 70
     0
  0
VERTEX
  8
MACK_GRANITE_265
 10
-19.4302
 20
-17.5393
 30
0
 70
     0
  0
SEQEND
  0
POLYLINE
  8
MACK_GRANITE_265
  6
CONTINUOUS
 62
     7
 66
     1
 40
0.0139
 41
0.0139
  0
VERTEX
  8
MACK_GRANITE_265
 10
-25.4321
 20
-23.5371
 30
0
 70
     0
  0
VERTEX
  8
MACK_GRANITE_265
 10
-25.1233
 20
-23.5296
 30
0
 70
     0
  0
VERTEX
  8
MACK_GRANITE_265
 10
-24.8186
 20
-23.5068
 30
0
 70
     0
  0
VERTEX
  8
MACK_GRANITE_265
 10
-24.5182
 20
-23.4689
 30
0
 70
     0
  0
VERTEX
  8
MACK_GRANITE_265
 10
-24.2227
 20
-23.4164
 30
0
 70
     0
  0
VERTEX
  8
MACK_GRANITE_265
 10
-23.9323
 20
-23.3496
 30
0
 70
     0
  0
VERTEX
  8
MACK_GRANITE_265
 10
-23.6475
 20
-23.269
 30
0
 70
     0
  0
VERTEX
  8
MACK_GRANITE_265
 10
-23.3686
 20
-23.1748
 30
0
 70
     0
  0
VERTEX
  8
MACK_GRANITE_265
 10
-23.0961
 20
-23.0676
 30
0
 70
     0
  0
VERTEX
  8
MACK_GRANITE_265
 10
-22.8302
 20
-22.9476
 30
0
 70
     0
  0
VERTEX
  8
MACK_GRANITE_265
 10
-22.5713
 20
-22.8152
 30
0
 70
     0
  0
VERTEX
  8
MACK_GRANITE_265
 10
-22.3199
 20
-22.6708
 30
0
 70
     0
  0
VERTEX
  8
MACK_GRANITE_265
 10
-22.0763
 20
-22.5148
 30
0
 70
     0
  0
VERTEX
  8
MACK_GRANITE_265
 10
-21.841
 20
-22.3476
 30
0
 70
     0
  0
VERTEX
  8
MACK_GRANITE_265
 10
-21.6142
 20
-22.1695
 30
0
 70
     0
  0
VERTEX
  8
MACK_GRANITE_265
 10
-21.3963
 20
-21.981
 30
0
 70
     0
  0
VERTEX
  8
MACK_GRANITE_265
 10
-21.1878
 20
-21.7823
 30
0
 70
     0
  0
VERTEX
  8
MACK_GRANITE_265
 10
-20.989
 20
-21.5739
 30
0
 70
     0
  0
VERTEX
  8
MACK_GRANITE_265
 10
-20.8003
 20
-21.3562
 30
0
 70
     0
  0
VERTEX
  8
MACK_GRANITE_265
 10
-20.622
 20
-21.1296
 30
0
 70
     0
  0
VERTEX
  8
MACK_GRANITE_265
 10
-20.4546
 20
-20.8943
 30
0
 70
     0
  0
VERTEX
  8
MACK_GRANITE_265
 10
-20.2985
 20
-20.6508
 30
0
 70
     0
  0
VERTEX
  8
MACK_GRANITE_265
 10
-20.1539
 20
-20.3996
 30
0
 70
     0
  0
VERTEX
  8
MACK_GRANITE_265
 10
-20.0213
 20
-20.1408
 30
0
 70
     0
  0
VERTEX
  8
MACK_GRANITE_265
 10
-19.9011
 20
-19.875
 30
0
 70
     0
  0
VERTEX
  8
MACK_GRANITE_265
 10
-19.7936
 20
-19.6025
 30
0
 70
     0
  0
VERTEX
  8
MACK_GRANITE_265
 10
-19.6993
 20
-19.3237
 30
0
 70
     0
  0
VERTEX
  8
MACK_GRANITE_265
 10
-19.6184
 20
-19.0389
 30
0
 70
     0
  0
VERTEX
  8
MACK_GRANITE_265
 10
-19.5514
 20
-18.7486
 30
0
 70
     0
  0
VERTEX
  8
MACK_GRANITE_265
 10
-19.4987
 20
-18.4531
 30
0
 70
     0
  0
VERTEX
  8
MACK_GRANITE_265
 10
-19.4606
 20
-18.1528
 30
0
 70
     0
  0
VERTEX
  8
MACK_GRANITE_265
 10
-19.4375
 20
-17.8481
 30
0
 70
     0
  0
VERTEX
  8
MACK_GRANITE_265
 10
-19.4298
 20
-17.5393
 30
0
 70
     0
  0
SEQEND
  0
POLYLINE
  8
MACK_GRANITE_265
  6
CONTINUOUS
 62
     7
 66
     1
 40
0.0139
 41
0.0139
  0
VERTEX
  8
MACK_GRANITE_265
 10
-83.0348
 20
68.6493
 30
0
 70
     0
  0
VERTEX
  8
MACK_GRANITE_265
 10
-83.2564
 20
68.6069
 30
0
 70
     0
  0
VERTEX
  8
MACK_GRANITE_265
 10
-83.472
 20
68.5485
 30
0
 70
     0
  0
VERTEX
  8
MACK_GRANITE_265
 10
-83.6809
 20
68.4748
 30
0
 70
     0
  0
VERTEX
  8
MACK_GRANITE_265
 10
-83.8824
 20
68.3863
 30
0
 70
     0
  0
VERTEX
  8
MACK_GRANITE_265
 10
-84.0758
 20
68.2837
 30
0
 70
     0
  0
VERTEX
  8
MACK_GRANITE_265
 10
-84.2605
 20
68.1676
 30
0
 70
     0
  0
VERTEX
  8
MACK_GRANITE_265
 10
-84.4358
 20
68.0386
 30
0
 70
     0
  0
VERTEX
  8
MACK_GRANITE_265
 10
-84.601
 20
67.8973
 30
0
 70
     0
  0
VERTEX
  8
MACK_GRANITE_265
 10
-84.7555
 20
67.7443
 30
0
 70
     0
  0
VERTEX
  8
MACK_GRANITE_265
 10
-84.8986
 20
67.5803
 30
0
 70
     0
  0
VERTEX
  8
MACK_GRANITE_265
 10
-85.0296
 20
67.4059
 30
0
 70
     0
  0
VERTEX
  8
MACK_GRANITE_265
 10
-85.1479
 20
67.2216
 30
0
 70
     0
  0
VERTEX
  8
MACK_GRANITE_265
 10
-85.2527
 20
67.0282
 30
0
 70
     0
  0
VERTEX
  8
MACK_GRANITE_265
 10
-85.3435
 20
66.8261
 30
0
 70
     0
  0
VERTEX
  8
MACK_GRANITE_265
 10
-85.4196
 20
66.6161
 30
0
 70
     0
  0
VERTEX
  8
MACK_GRANITE_265
 10
-85.4802
 20
66.3988
 30
0
 70
     0
  0
SEQEND
  0
POLYLINE
  8
MACK_GRANITE_265
  6
CONTINUOUS
 62
     7
 66
     1
 40
0.0139
 41
0.0139
  0
VERTEX
  8
MACK_GRANITE_265
 10
-95.4298
 20
-20.7371
 30
0
 70
     0
  0
VERTEX
  8
MACK_GRANITE_265
 10
-95.4364
 20
-21.2499
 30
0
 70
     0
  0
VERTEX
  8
MACK_GRANITE_265
 10
-95.4561
 20
-21.7598
 30
0
 70
     0
  0
VERTEX
  8
MACK_GRANITE_265
 10
-95.4886
 20
-22.2665
 30
0
 70
     0
  0
VERTEX
  8
MACK_GRANITE_265
 10
-95.5339
 20
-22.7698
 30
0
 70
     0
  0
VERTEX
  8
MACK_GRANITE_265
 10
-95.5918
 20
-23.2696
 30
0
 70
     0
  0
VERTEX
  8
MACK_GRANITE_265
 10
-95.6621
 20
-23.7658
 30
0
 70
     0
  0
VERTEX
  8
MACK_GRANITE_265
 10
-95.7446
 20
-24.2582
 30
0
 70
     0
  0
VERTEX
  8
MACK_GRANITE_265
 10
-95.8392
 20
-24.7465
 30
0
 70
     0
  0
VERTEX
  8
MACK_GRANITE_265
 10
-95.9458
 20
-25.2308
 30
0
 70
     0
  0
VERTEX
  8
MACK_GRANITE_265
 10
-96.0641
 20
-25.7107
 30
0
 70
     0
  0
VERTEX
  8
MACK_GRANITE_265
 10
-96.194
 20
-26.1862
 30
0
 70
     0
  0
VERTEX
  8
MACK_GRANITE_265
 10
-96.3354
 20
-26.657
 30
0
 70
     0
  0
VERTEX
  8
MACK_GRANITE_265
 10
-96.488
 20
-27.123
 30
0
 70
     0
  0
VERTEX
  8
MACK_GRANITE_265
 10
-96.6517
 20
-27.5841
 30
0
 70
     0
  0
VERTEX
  8
MACK_GRANITE_265
 10
-96.8265
 20
-28.0401
 30
0
 70
     0
  0
VERTEX
  8
MACK_GRANITE_265
 10
-97.012
 20
-28.4908
 30
0
 70
     0
  0
VERTEX
  8
MACK_GRANITE_265
 10
-97.2081
 20
-28.936
 30
0
 70
     0
  0
VERTEX
  8
MACK_GRANITE_265
 10
-97.4147
 20
-29.3757
 30
0
 70
     0
  0
VERTEX
  8
MACK_GRANITE_265
 10
-97.6316
 20
-29.8095
 30
0
 70
     0
  0
VERTEX
  8
MACK_GRANITE_265
 10
-97.8586
 20
-30.2375
 30
0
 70
     0
  0
VERTEX
  8
MACK_GRANITE_265
 10
-98.0957
 20
-30.6594
 30
0
 70
     0
  0
VERTEX
  8
MACK_GRANITE_265
 10
-98.3425
 20
-31.075
 30
0
 70
     0
  0
VERTEX
  8
MACK_GRANITE_265
 10
-98.599
 20
-31.4841
 30
0
 70
     0
  0
VERTEX
  8
MACK_GRANITE_265
 10
-98.865
 20
-31.8868
 30
0
 70
     0
  0
VERTEX
  8
MACK_GRANITE_265
 10
-99.1404
 20
-32.2826
 30
0
 70
     0
  0
VERTEX
  8
MACK_GRANITE_265
 10
-99.4249
 20
-32.6716
 30
0
 70
     0
  0
VERTEX
  8
MACK_GRANITE_265
 10
-99.7184
 20
-33.0535
 30
0
 70
     0
  0
VERTEX
  8
MACK_GRANITE_265
 10
-100.0208
 20
-33.4282
 30
0
 70
     0
  0
VERTEX
  8
MACK_GRANITE_265
 10
-100.3318
 20
-33.7955
 30
0
 70
     0
  0
VERTEX
  8
MACK_GRANITE_265
 10
-100.6514
 20
-34.1553
 30
0
 70
     0
  0
VERTEX
  8
MACK_GRANITE_265
 10
-100.9793
 20
-34.5073
 30
0
 70
     0
  0
VERTEX
  8
MACK_GRANITE_265
 10
-101.3155
 20
-34.8515
 30
0
 70
     0
  0
VERTEX
  8
MACK_GRANITE_265
 10
-101.6596
 20
-35.1876
 30
0
 70
     0
  0
VERTEX
  8
MACK_GRANITE_265
 10
-102.0117
 20
-35.5155
 30
0
 70
     0
  0
VERTEX
  8
MACK_GRANITE_265
 10
-102.3714
 20
-35.8351
 30
0
 70
     0
  0
VERTEX
  8
MACK_GRANITE_265
 10
-102.7387
 20
-36.1462
 30
0
 70
     0
  0
VERTEX
  8
MACK_GRANITE_265
 10
-103.1134
 20
-36.4485
 30
0
 70
     0
  0
VERTEX
  8
MACK_GRANITE_265
 10
-103.4953
 20
-36.7421
 30
0
 70
     0
  0
VERTEX
  8
MACK_GRANITE_265
 10
-103.8843
 20
-37.0266
 30
0
 70
     0
  0
VERTEX
  8
MACK_GRANITE_265
 10
-104.2802
 20
-37.3019
 30
0
 70
     0
  0
VERTEX
  8
MACK_GRANITE_265
 10
-104.6828
 20
-37.5679
 30
0
 70
     0
  0
VERTEX
  8
MACK_GRANITE_265
 10
-105.092
 20
-37.8244
 30
0
 70
     0
  0
VERTEX
  8
MACK_GRANITE_265
 10
-105.5076
 20
-38.0713
 30
0
 70
     0
  0
VERTEX
  8
MACK_GRANITE_265
 10
-105.9295
 20
-38.3083
 30
0
 70
     0
  0
VERTEX
  8
MACK_GRANITE_265
 10
-106.3574
 20
-38.5354
 30
0
 70
     0
  0
VERTEX
  8
MACK_GRANITE_265
 10
-106.7913
 20
-38.7523
 30
0
 70
     0
  0
VERTEX
  8
MACK_GRANITE_265
 10
-107.2309
 20
-38.9589
 30
0
 70
     0
  0
VERTEX
  8
MACK_GRANITE_265
 10
-107.6762
 20
-39.155
 30
0
 70
     0
  0
VERTEX
  8
MACK_GRANITE_265
 10
-108.1269
 20
-39.3405
 30
0
 70
     0
  0
VERTEX
  8
MACK_GRANITE_265
 10
-108.5828
 20
-39.5152
 30
0
 70
     0
  0
VERTEX
  8
MACK_GRANITE_265
 10
-109.0439
 20
-39.679
 30
0
 70
     0
  0
VERTEX
  8
MACK_GRANITE_265
 10
-109.5099
 20
-39.8316
 30
0
 70
     0
  0
VERTEX
  8
MACK_GRANITE_265
 10
-109.9808
 20
-39.973
 30
0
 70
     0
  0
VERTEX
  8
MACK_GRANITE_265
 10
-110.4562
 20
-40.1029
 30
0
 70
     0
  0
VERTEX
  8
MACK_GRANITE_265
 10
-110.9362
 20
-40.2212
 30
0
 70
     0
  0
VERTEX
  8
MACK_GRANITE_265
 10
-111.4204
 20
-40.3277
 30
0
 70
     0
  0
VERTEX
  8
MACK_GRANITE_265
 10
-111.9088
 20
-40.4224
 30
0
 70
     0
  0
VERTEX
  8
MACK_GRANITE_265
 10
-112.4011
 20
-40.5049
 30
0
 70
     0
  0
VERTEX
  8
MACK_GRANITE_265
 10
-112.8973
 20
-40.5752
 30
0
 70
     0
  0
VERTEX
  8
MACK_GRANITE_265
 10
-113.3972
 20
-40.633
 30
0
 70
     0
  0
VERTEX
  8
MACK_GRANITE_265
 10
-113.9005
 20
-40.6783
 30
0
 70
     0
  0
VERTEX
  8
MACK_GRANITE_265
 10
-114.4072
 20
-40.7109
 30
0
 70
     0
  0
VERTEX
  8
MACK_GRANITE_265
 10
-114.917
 20
-40.7305
 30
0
 70
     0
  0
VERTEX
  8
MACK_GRANITE_265
 10
-115.4298
 20
-40.7371
 30
0
 70
     0
  0
VERTEX
  8
MACK_GRANITE_265
 10
-115.4298
 20
-40.7371
 30
0
 70
     0
  0
VERTEX
  8
MACK_GRANITE_265
 10
-115.9427
 20
-40.7305
 30
0
 70
     0
  0
VERTEX
  8
MACK_GRANITE_265
 10
-116.4525
 20
-40.7109
 30
0
 70
     0
  0
VERTEX
  8
MACK_GRANITE_265
 10
-116.9592
 20
-40.6783
 30
0
 70
     0
  0
VERTEX
  8
MACK_GRANITE_265
 10
-117.4625
 20
-40.633
 30
0
 70
     0
  0
VERTEX
  8
MACK_GRANITE_265
 10
-117.9624
 20
-40.5752
 30
0
 70
     0
  0
VERTEX
  8
MACK_GRANITE_265
 10
-118.4586
 20
-40.5049
 30
0
 70
     0
  0
VERTEX
  8
MACK_GRANITE_265
 10
-118.9509
 20
-40.4224
 30
0
 70
     0
  0
VERTEX
  8
MACK_GRANITE_265
 10
-119.4393
 20
-40.3277
 30
0
 70
     0
  0
VERTEX
  8
MACK_GRANITE_265
 10
-119.9235
 20
-40.2212
 30
0
 70
     0
  0
VERTEX
  8
MACK_GRANITE_265
 10
-120.4035
 20
-40.1029
 30
0
 70
     0
  0
VERTEX
  8
MACK_GRANITE_265
 10
-120.8789
 20
-39.973
 30
0
 70
     0
  0
VERTEX
  8
MACK_GRANITE_265
 10
-121.3497
 20
-39.8316
 30
0
 70
     0
  0
VERTEX
  8
MACK_GRANITE_265
 10
-121.8158
 20
-39.679
 30
0
 70
     0
  0
VERTEX
  8
MACK_GRANITE_265
 10
-122.2769
 20
-39.5152
 30
0
 70
     0
  0
VERTEX
  8
MACK_GRANITE_265
 10
-122.7328
 20
-39.3405
 30
0
 70
     0
  0
VERTEX
  8
MACK_GRANITE_265
 10
-123.1835
 20
-39.155
 30
0
 70
     0
  0
VERTEX
  8
MACK_GRANITE_265
 10
-123.6288
 20
-38.9589
 30
0
 70
     0
  0
VERTEX
  8
MACK_GRANITE_265
 10
-124.0684
 20
-38.7523
 30
0
 70
     0
  0
VERTEX
  8
MACK_GRANITE_265
 10
-124.5023
 20
-38.5354
 30
0
 70
     0
  0
VERTEX
  8
MACK_GRANITE_265
 10
-124.9302
 20
-38.3083
 30
0
 70
     0
  0
VERTEX
  8
MACK_GRANITE_265
 10
-125.3521
 20
-38.0713
 30
0
 70
     0
  0
VERTEX
  8
MACK_GRANITE_265
 10
-125.7677
 20
-37.8244
 30
0
 70
     0
  0
VERTEX
  8
MACK_GRANITE_265
 10
-126.1769
 20
-37.5679
 30
0
 70
     0
  0
VERTEX
  8
MACK_GRANITE_265
 10
-126.5795
 20
-37.3019
 30
0
 70
     0
  0
VERTEX
  8
MACK_GRANITE_265
 10
-126.9754
 20
-37.0266
 30
0
 70
     0
  0
VERTEX
  8
MACK_GRANITE_265
 10
-127.3644
 20
-36.7421
 30
0
 70
     0
  0
VERTEX
  8
MACK_GRANITE_265
 10
-127.7463
 20
-36.4485
 30
0
 70
     0
  0
VERTEX
  8
MACK_GRANITE_265
 10
-128.121
 20
-36.1462
 30
0
 70
     0
  0
VERTEX
  8
MACK_GRANITE_265
 10
-128.4883
 20
-35.8351
 30
0
 70
     0
  0
VERTEX
  8
MACK_GRANITE_265
 10
-128.848
 20
-35.5155
 30
0
 70
     0
  0
VERTEX
  8
MACK_GRANITE_265
 10
-129.2001
 20
-35.1876
 30
0
 70
     0
  0
VERTEX
  8
MACK_GRANITE_265
 10
-129.5442
 20
-34.8515
 30
0
 70
     0
  0
VERTEX
  8
MACK_GRANITE_265
 10
-129.8804
 20
-34.5073
 30
0
 70
     0
  0
VERTEX
  8
MACK_GRANITE_265
 10
-130.2083
 20
-34.1553
 30
0
 70
     0
  0
VERTEX
  8
MACK_GRANITE_265
 10
-130.5279
 20
-33.7955
 30
0
 70
     0
  0
VERTEX
  8
MACK_GRANITE_265
 10
-130.8389
 20
-33.4282
 30
0
 70
     0
  0
VERTEX
  8
MACK_GRANITE_265
 10
-131.1413
 20
-33.0535
 30
0
 70
     0
  0
VERTEX
  8
MACK_GRANITE_265
 10
-131.4348
 20
-32.6716
 30
0
 70
     0
  0
VERTEX
  8
MACK_GRANITE_265
 10
-131.7193
 20
-32.2826
 30
0
 70
     0
  0
VERTEX
  8
MACK_GRANITE_265
 10
-131.9946
 20
-31.8868
 30
0
 70
     0
  0
VERTEX
  8
MACK_GRANITE_265
 10
-132.2606
 20
-31.4841
 30
0
 70
     0
  0
VERTEX
  8
MACK_GRANITE_265
 10
-132.5172
 20
-31.075
 30
0
 70
     0
  0
VERTEX
  8
MACK_GRANITE_265
 10
-132.764
 20
-30.6594
 30
0
 70
     0
  0
VERTEX
  8
MACK_GRANITE_265
 10
-133.001
 20
-30.2375
 30
0
 70
     0
  0
VERTEX
  8
MACK_GRANITE_265
 10
-133.2281
 20
-29.8095
 30
0
 70
     0
  0
VERTEX
  8
MACK_GRANITE_265
 10
-133.445
 20
-29.3757
 30
0
 70
     0
  0
VERTEX
  8
MACK_GRANITE_265
 10
-133.6516
 20
-28.936
 30
0
 70
     0
  0
VERTEX
  8
MACK_GRANITE_265
 10
-133.8477
 20
-28.4908
 30
0
 70
     0
  0
VERTEX
  8
MACK_GRANITE_265
 10
-134.0332
 20
-28.0401
 30
0
 70
     0
  0
VERTEX
  8
MACK_GRANITE_265
 10
-134.208
 20
-27.5841
 30
0
 70
     0
  0
VERTEX
  8
MACK_GRANITE_265
 10
-134.3717
 20
-27.123
 30
0
 70
     0
  0
VERTEX
  8
MACK_GRANITE_265
 10
-134.5243
 20
-26.657
 30
0
 70
     0
  0
VERTEX
  8
MACK_GRANITE_265
 10
-134.6657
 20
-26.1862
 30
0
 70
     0
  0
VERTEX
  8
MACK_GRANITE_265
 10
-134.7956
 20
-25.7107
 30
0
 70
     0
  0
VERTEX
  8
MACK_GRANITE_265
 10
-134.9139
 20
-25.2308
 30
0
 70
     0
  0
VERTEX
  8
MACK_GRANITE_265
 10
-135.0205
 20
-24.7465
 30
0
 70
     0
  0
VERTEX
  8
MACK_GRANITE_265
 10
-135.1151
 20
-24.2582
 30
0
 70
     0
  0
VERTEX
  8
MACK_GRANITE_265
 10
-135.1976
 20
-23.7658
 30
0
 70
     0
  0
VERTEX
  8
MACK_GRANITE_265
 10
-135.2679
 20
-23.2696
 30
0
 70
     0
  0
VERTEX
  8
MACK_GRANITE_265
 10
-135.3258
 20
-22.7698
 30
0
 70
     0
  0
VERTEX
  8
MACK_GRANITE_265
 10
-135.3711
 20
-22.2665
 30
0
 70
     0
  0
VERTEX
  8
MACK_GRANITE_265
 10
-135.4036
 20
-21.7598
 30
0
 70
     0
  0
VERTEX
  8
MACK_GRANITE_265
 10
-135.4233
 20
-21.2499
 30
0
 70
     0
  0
VERTEX
  8
MACK_GRANITE_265
 10
-135.4298
 20
-20.7371
 30
0
 70
     0
  0
VERTEX
  8
MACK_GRANITE_265
 10
-135.4298
 20
-20.7371
 30
0
 70
     0
  0
VERTEX
  8
MACK_GRANITE_265
 10
-135.4233
 20
-20.2243
 30
0
 70
     0
  0
VERTEX
  8
MACK_GRANITE_265
 10
-135.4036
 20
-19.7144
 30
0
 70
     0
  0
VERTEX
  8
MACK_GRANITE_265
 10
-135.3711
 20
-19.2078
 30
0
 70
     0
  0
VERTEX
  8
MACK_GRANITE_265
 10
-135.3258
 20
-18.7044
 30
0
 70
     0
  0
VERTEX
  8
MACK_GRANITE_265
 10
-135.2679
 20
-18.2046
 30
0
 70
     0
  0
VERTEX
  8
MACK_GRANITE_265
 10
-135.1976
 20
-17.7084
 30
0
 70
     0
  0
VERTEX
  8
MACK_GRANITE_265
 10
-135.1151
 20
-17.216
 30
0
 70
     0
  0
VERTEX
  8
MACK_GRANITE_265
 10
-135.0205
 20
-16.7277
 30
0
 70
     0
  0
VERTEX
  8
MACK_GRANITE_265
 10
-134.9139
 20
-16.2434
 30
0
 70
     0
  0
VERTEX
  8
MACK_GRANITE_265
 10
-134.7956
 20
-15.7635
 30
0
 70
     0
  0
VERTEX
  8
MACK_GRANITE_265
 10
-134.6657
 20
-15.288
 30
0
 70
     0
  0
VERTEX
  8
MACK_GRANITE_265
 10
-134.5243
 20
-14.8172
 30
0
 70
     0
  0
VERTEX
  8
MACK_GRANITE_265
 10
-134.3717
 20
-14.3512
 30
0
 70
     0
  0
VERTEX
  8
MACK_GRANITE_265
 10
-134.208
 20
-13.8901
 30
0
 70
     0
  0
VERTEX
  8
MACK_GRANITE_265
 10
-134.0332
 20
-13.4341
 30
0
 70
     0
  0
VERTEX
  8
MACK_GRANITE_265
 10
-133.8477
 20
-12.9834
 30
0
 70
     0
  0
VERTEX
  8
MACK_GRANITE_265
 10
-133.6516
 20
-12.5382
 30
0
 70
     0
  0
VERTEX
  8
MACK_GRANITE_265
 10
-133.445
 20
-12.0985
 30
0
 70
     0
  0
VERTEX
  8
MACK_GRANITE_265
 10
-133.2281
 20
-11.6647
 30
0
 70
     0
  0
VERTEX
  8
MACK_GRANITE_265
 10
-133.001
 20
-11.2367
 30
0
 70
     0
  0
VERTEX
  8
MACK_GRANITE_265
 10
-132.764
 20
-10.8149
 30
0
 70
     0
  0
VERTEX
  8
MACK_GRANITE_265
 10
-132.5172
 20
-10.3992
 30
0
 70
     0
  0
VERTEX
  8
MACK_GRANITE_265
 10
-132.2606
 20
-9.9901
 30
0
 70
     0
  0
VERTEX
  8
MACK_GRANITE_265
 10
-131.9946
 20
-9.5874
 30
0
 70
     0
  0
VERTEX
  8
MACK_GRANITE_265
 10
-131.7193
 20
-9.1916
 30
0
 70
     0
  0
VERTEX
  8
MACK_GRANITE_265
 10
-131.4348
 20
-8.8026
 30
0
 70
     0
  0
VERTEX
  8
MACK_GRANITE_265
 10
-131.1413
 20
-8.4207
 30
0
 70
     0
  0
VERTEX
  8
MACK_GRANITE_265
 10
-130.8389
 20
-8.046
 30
0
 70
     0
  0
VERTEX
  8
MACK_GRANITE_265
 10
-130.5279
 20
-7.6787
 30
0
 70
     0
  0
VERTEX
  8
MACK_GRANITE_265
 10
-130.2083
 20
-7.3189
 30
0
 70
     0
  0
VERTEX
  8
MACK_GRANITE_265
 10
-129.8804
 20
-6.9669
 30
0
 70
     0
  0
VERTEX
  8
MACK_GRANITE_265
 10
-129.5442
 20
-6.6227
 30
0
 70
     0
  0
VERTEX
  8
MACK_GRANITE_265
 10
-129.2001
 20
-6.2866
 30
0
 70
     0
  0
VERTEX
  8
MACK_GRANITE_265
 10
-128.848
 20
-5.9587
 30
0
 70
     0
  0
VERTEX
  8
MACK_GRANITE_265
 10
-128.4883
 20
-5.6391
 30
0
 70
     0
  0
VERTEX
  8
MACK_GRANITE_265
 10
-128.121
 20
-5.328
 30
0
 70
     0
  0
VERTEX
  8
MACK_GRANITE_265
 10
-127.7463
 20
-5.0257
 30
0
 70
     0
  0
VERTEX
  8
MACK_GRANITE_265
 10
-127.3644
 20
-4.7322
 30
0
 70
     0
  0
VERTEX
  8
MACK_GRANITE_265
 10
-126.9754
 20
-4.4476
 30
0
 70
     0
  0
VERTEX
  8
MACK_GRANITE_265
 10
-126.5795
 20
-4.1723
 30
0
 70
     0
  0
VERTEX
  8
MACK_GRANITE_265
 10
-126.1769
 20
-3.9063
 30
0
 70
     0
  0
VERTEX
  8
MACK_GRANITE_265
 10
-125.7677
 20
-3.6498
 30
0
 70
     0
  0
VERTEX
  8
MACK_GRANITE_265
 10
-125.3521
 20
-3.4029
 30
0
 70
     0
  0
VERTEX
  8
MACK_GRANITE_265
 10
-124.9302
 20
-3.1659
 30
0
 70
     0
  0
VERTEX
  8
MACK_GRANITE_265
 10
-124.5023
 20
-2.9389
 30
0
 70
     0
  0
VERTEX
  8
MACK_GRANITE_265
 10
-124.0684
 20
-2.7219
 30
0
 70
     0
  0
VERTEX
  8
MACK_GRANITE_265
 10
-123.6288
 20
-2.5153
 30
0
 70
     0
  0
VERTEX
  8
MACK_GRANITE_265
 10
-123.1835
 20
-2.3192
 30
0
 70
     0
  0
VERTEX
  8
MACK_GRANITE_265
 10
-122.7328
 20
-2.1337
 30
0
 70
     0
  0
VERTEX
  8
MACK_GRANITE_265
 10
-122.2769
 20
-1.959
 30
0
 70
     0
  0
VERTEX
  8
MACK_GRANITE_265
 10
-121.8158
 20
-1.7952
 30
0
 70
     0
  0
VERTEX
  8
MACK_GRANITE_265
 10
-121.3497
 20
-1.6426
 30
0
 70
     0
  0
VERTEX
  8
MACK_GRANITE_265
 10
-120.8789
 20
-1.5012
 30
0
 70
     0
  0
VERTEX
  8
MACK_GRANITE_265
 10
-120.4035
 20
-1.3713
 30
0
 70
     0
  0
VERTEX
  8
MACK_GRANITE_265
 10
-119.9235
 20
-1.253
 30
0
 70
     0
  0
VERTEX
  8
MACK_GRANITE_265
 10
-119.4393
 20
-1.1465
 30
0
 70
     0
  0
VERTEX
  8
MACK_GRANITE_265
 10
-118.9509
 20
-1.0518
 30
0
 70
     0
  0
VERTEX
  8
MACK_GRANITE_265
 10
-118.4586
 20
-0.9693
 30
0
 70
     0
  0
VERTEX
  8
MACK_GRANITE_265
 10
-117.9624
 20
-0.899
 30
0
 70
     0
  0
VERTEX
  8
MACK_GRANITE_265
 10
-117.4625
 20
-0.8412
 30
0
 70
     0
  0
VERTEX
  8
MACK_GRANITE_265
 10
-116.9592
 20
-0.7959
 30
0
 70
     0
  0
VERTEX
  8
MACK_GRANITE_265
 10
-116.4525
 20
-0.7633
 30
0
 70
     0
  0
VERTEX
  8
MACK_GRANITE_265
 10
-115.9427
 20
-0.7437
 30
0
 70
     0
  0
VERTEX
  8
MACK_GRANITE_265
 10
-115.4298
 20
-0.7371
 30
0
 70
     0
  0
VERTEX
  8
MACK_GRANITE_265
 10
-115.4298
 20
-0.7371
 30
0
 70
     0
  0
VERTEX
  8
MACK_GRANITE_265
 10
-114.917
 20
-0.7437
 30
0
 70
     0
  0
VERTEX
  8
MACK_GRANITE_265
 10
-114.4072
 20
-0.7633
 30
0
 70
     0
  0
VERTEX
  8
MACK_GRANITE_265
 10
-113.9005
 20
-0.7959
 30
0
 70
     0
  0
VERTEX
  8
MACK_GRANITE_265
 10
-113.3972
 20
-0.8412
 30
0
 70
     0
  0
VERTEX
  8
MACK_GRANITE_265
 10
-112.8973
 20
-0.899
 30
0
 70
     0
  0
VERTEX
  8
MACK_GRANITE_265
 10
-112.4011
 20
-0.9693
 30
0
 70
     0
  0
VERTEX
  8
MACK_GRANITE_265
 10
-111.9088
 20
-1.0518
 30
0
 70
     0
  0
VERTEX
  8
MACK_GRANITE_265
 10
-111.4204
 20
-1.1465
 30
0
 70
     0
  0
VERTEX
  8
MACK_GRANITE_265
 10
-110.9362
 20
-1.253
 30
0
 70
     0
  0
VERTEX
  8
MACK_GRANITE_265
 10
-110.4562
 20
-1.3713
 30
0
 70
     0
  0
VERTEX
  8
MACK_GRANITE_265
 10
-109.9808
 20
-1.5012
 30
0
 70
     0
  0
VERTEX
  8
MACK_GRANITE_265
 10
-109.5099
 20
-1.6426
 30
0
 70
     0
  0
VERTEX
  8
MACK_GRANITE_265
 10
-109.0439
 20
-1.7952
 30
0
 70
     0
  0
VERTEX
  8
MACK_GRANITE_265
 10
-108.5828
 20
-1.959
 30
0
 70
     0
  0
VERTEX
  8
MACK_GRANITE_265
 10
-108.1269
 20
-2.1337
 30
0
 70
     0
  0
VERTEX
  8
MACK_GRANITE_265
 10
-107.6762
 20
-2.3192
 30
0
 70
     0
  0
VERTEX
  8
MACK_GRANITE_265
 10
-107.2309
 20
-2.5153
 30
0
 70
     0
  0
VERTEX
  8
MACK_GRANITE_265
 10
-106.7913
 20
-2.7219
 30
0
 70
     0
  0
VERTEX
  8
MACK_GRANITE_265
 10
-106.3574
 20
-2.9389
 30
0
 70
     0
  0
VERTEX
  8
MACK_GRANITE_265
 10
-105.9295
 20
-3.1659
 30
0
 70
     0
  0
VERTEX
  8
MACK_GRANITE_265
 10
-105.5076
 20
-3.4029
 30
0
 70
     0
  0
VERTEX
  8
MACK_GRANITE_265
 10
-105.092
 20
-3.6498
 30
0
 70
     0
  0
VERTEX
  8
MACK_GRANITE_265
 10
-104.6828
 20
-3.9063
 30
0
 70
     0
  0
VERTEX
  8
MACK_GRANITE_265
 10
-104.2802
 20
-4.1723
 30
0
 70
     0
  0
VERTEX
  8
MACK_GRANITE_265
 10
-103.8843
 20
-4.4476
 30
0
 70
     0
  0
VERTEX
  8
MACK_GRANITE_265
 10
-103.4953
 20
-4.7322
 30
0
 70
     0
  0
VERTEX
  8
MACK_GRANITE_265
 10
-103.1134
 20
-5.0257
 30
0
 70
     0
  0
VERTEX
  8
MACK_GRANITE_265
 10
-102.7387
 20
-5.328
 30
0
 70
     0
  0
VERTEX
  8
MACK_GRANITE_265
 10
-102.3714
 20
-5.6391
 30
0
 70
     0
  0
VERTEX
  8
MACK_GRANITE_265
 10
-102.0117
 20
-5.9587
 30
0
 70
     0
  0
VERTEX
  8
MACK_GRANITE_265
 10
-101.6596
 20
-6.2866
 30
0
 70
     0
  0
VERTEX
  8
MACK_GRANITE_265
 10
-101.3155
 20
-6.6227
 30
0
 70
     0
  0
VERTEX
  8
MACK_GRANITE_265
 10
-100.9793
 20
-6.9669
 30
0
 70
     0
  0
VERTEX
  8
MACK_GRANITE_265
 10
-100.6514
 20
-7.3189
 30
0
 70
     0
  0
VERTEX
  8
MACK_GRANITE_265
 10
-100.3318
 20
-7.6787
 30
0
 70
     0
  0
VERTEX
  8
MACK_GRANITE_265
 10
-100.0208
 20
-8.046
 30
0
 70
     0
  0
VERTEX
  8
MACK_GRANITE_265
 10
-99.7184
 20
-8.4207
 30
0
 70
     0
  0
VERTEX
  8
MACK_GRANITE_265
 10
-99.4249
 20
-8.8026
 30
0
 70
     0
  0
VERTEX
  8
MACK_GRANITE_265
 10
-99.1404
 20
-9.1916
 30
0
 70
     0
  0
VERTEX
  8
MACK_GRANITE_265
 10
-98.865
 20
-9.5874
 30
0
 70
     0
  0
VERTEX
  8
MACK_GRANITE_265
 10
-98.599
 20
-9.9901
 30
0
 70
     0
  0
VERTEX
  8
MACK_GRANITE_265
 10
-98.3425
 20
-10.3992
 30
0
 70
     0
  0
VERTEX
  8
MACK_GRANITE_265
 10
-98.0957
 20
-10.8149
 30
0
 70
     0
  0
VERTEX
  8
MACK_GRANITE_265
 10
-97.8586
 20
-11.2367
 30
0
 70
     0
  0
VERTEX
  8
MACK_GRANITE_265
 10
-97.6316
 20
-11.6647
 30
0
 70
     0
  0
VERTEX
  8
MACK_GRANITE_265
 10
-97.4147
 20
-12.0985
 30
0
 70
     0
  0
VERTEX
  8
MACK_GRANITE_265
 10
-97.2081
 20
-12.5382
 30
0
 70
     0
  0
VERTEX
  8
MACK_GRANITE_265
 10
-97.012
 20
-12.9834
 30
0
 70
     0
  0
VERTEX
  8
MACK_GRANITE_265
 10
-96.8265
 20
-13.4341
 30
0
 70
     0
  0
VERTEX
  8
MACK_GRANITE_265
 10
-96.6517
 20
-13.8901
 30
0
 70
     0
  0
VERTEX
  8
MACK_GRANITE_265
 10
-96.488
 20
-14.3512
 30
0
 70
     0
  0
VERTEX
  8
MACK_GRANITE_265
 10
-96.3354
 20
-14.8172
 30
0
 70
     0
  0
VERTEX
  8
MACK_GRANITE_265
 10
-96.194
 20
-15.288
 30
0
 70
     0
  0
VERTEX
  8
MACK_GRANITE_265
 10
-96.0641
 20
-15.7635
 30
0
 70
     0
  0
VERTEX
  8
MACK_GRANITE_265
 10
-95.9458
 20
-16.2434
 30
0
 70
     0
  0
VERTEX
  8
MACK_GRANITE_265
 10
-95.8392
 20
-16.7277
 30
0
 70
     0
  0
VERTEX
  8
MACK_GRANITE_265
 10
-95.7446
 20
-17.216
 30
0
 70
     0
  0
VERTEX
  8
MACK_GRANITE_265
 10
-95.6621
 20
-17.7084
 30
0
 70
     0
  0
VERTEX
  8
MACK_GRANITE_265
 10
-95.5918
 20
-18.2046
 30
0
 70
     0
  0
VERTEX
  8
MACK_GRANITE_265
 10
-95.5339
 20
-18.7044
 30
0
 70
     0
  0
VERTEX
  8
MACK_GRANITE_265
 10
-95.4886
 20
-19.2078
 30
0
 70
     0
  0
VERTEX
  8
MACK_GRANITE_265
 10
-95.4561
 20
-19.7144
 30
0
 70
     0
  0
VERTEX
  8
MACK_GRANITE_265
 10
-95.4364
 20
-20.2243
 30
0
 70
     0
  0
VERTEX
  8
MACK_GRANITE_265
 10
-95.4298
 20
-20.7371
 30
0
 70
     0
  0
SEQEND
  0
POLYLINE
  8
MACK_GRANITE_265
  6
CONTINUOUS
 62
     7
 66
     1
 40
0.0139
 41
0.0139
  0
VERTEX
  8
MACK_GRANITE_265
 10
-94.4298
 20
-20.7371
 30
0
 70
     0
  0
VERTEX
  8
MACK_GRANITE_265
 10
-94.4368
 20
-21.2756
 30
0
 70
     0
  0
VERTEX
  8
MACK_GRANITE_265
 10
-94.4574
 20
-21.8109
 30
0
 70
     0
  0
VERTEX
  8
MACK_GRANITE_265
 10
-94.4916
 20
-22.3429
 30
0
 70
     0
  0
VERTEX
  8
MACK_GRANITE_265
 10
-94.5391
 20
-22.8714
 30
0
 70
     0
  0
VERTEX
  8
MACK_GRANITE_265
 10
-94.5999
 20
-23.3963
 30
0
 70
     0
  0
VERTEX
  8
MACK_GRANITE_265
 10
-94.6737
 20
-23.9172
 30
0
 70
     0
  0
VERTEX
  8
MACK_GRANITE_265
 10
-94.7603
 20
-24.4342
 30
0
 70
     0
  0
VERTEX
  8
MACK_GRANITE_265
 10
-94.8597
 20
-24.947
 30
0
 70
     0
  0
VERTEX
  8
MACK_GRANITE_265
 10
-94.9716
 20
-25.4555
 30
0
 70
     0
  0
VERTEX
  8
MACK_GRANITE_265
 10
-95.0958
 20
-25.9594
 30
0
 70
     0
  0
VERTEX
  8
MACK_GRANITE_265
 10
-95.2322
 20
-26.4586
 30
0
 70
     0
  0
VERTEX
  8
MACK_GRANITE_265
 10
-95.3806
 20
-26.953
 30
0
 70
     0
  0
VERTEX
  8
MACK_GRANITE_265
 10
-95.5409
 20
-27.4423
 30
0
 70
     0
  0
VERTEX
  8
MACK_GRANITE_265
 10
-95.7128
 20
-27.9265
 30
0
 70
     0
  0
VERTEX
  8
MACK_GRANITE_265
 10
-95.8963
 20
-28.4052
 30
0
 70
     0
  0
VERTEX
  8
MACK_GRANITE_265
 10
-96.0911
 20
-28.8785
 30
0
 70
     0
  0
VERTEX
  8
MACK_GRANITE_265
 10
-96.297
 20
-29.346
 30
0
 70
     0
  0
VERTEX
  8
MACK_GRANITE_265
 10
-96.5139
 20
-29.8076
 30
0
 70
     0
  0
VERTEX
  8
MACK_GRANITE_265
 10
-96.7417
 20
-30.2632
 30
0
 70
     0
  0
VERTEX
  8
MACK_GRANITE_265
 10
-96.9801
 20
-30.7125
 30
0
 70
     0
  0
VERTEX
  8
MACK_GRANITE_265
 10
-97.229
 20
-31.1555
 30
0
 70
     0
  0
VERTEX
  8
MACK_GRANITE_265
 10
-97.4882
 20
-31.5918
 30
0
 70
     0
  0
VERTEX
  8
MACK_GRANITE_265
 10
-97.7575
 20
-32.0215
 30
0
 70
     0
  0
VERTEX
  8
MACK_GRANITE_265
 10
-98.0368
 20
-32.4442
 30
0
 70
     0
  0
VERTEX
  8
MACK_GRANITE_265
 10
-98.3259
 20
-32.8599
 30
0
 70
     0
  0
VERTEX
  8
MACK_GRANITE_265
 10
-98.6247
 20
-33.2683
 30
0
 70
     0
  0
VERTEX
  8
MACK_GRANITE_265
 10
-98.9328
 20
-33.6694
 30
0
 70
     0
  0
VERTEX
  8
MACK_GRANITE_265
 10
-99.2503
 20
-34.0628
 30
0
 70
     0
  0
VERTEX
  8
MACK_GRANITE_265
 10
-99.5769
 20
-34.4484
 30
0
 70
     0
  0
VERTEX
  8
MACK_GRANITE_265
 10
-99.9125
 20
-34.8262
 30
0
 70
     0
  0
VERTEX
  8
MACK_GRANITE_265
 10
-100.2568
 20
-35.1958
 30
0
 70
     0
  0
VERTEX
  8
MACK_GRANITE_265
 10
-100.6097
 20
-35.5572
 30
0
 70
     0
  0
VERTEX
  8
MACK_GRANITE_265
 10
-100.9711
 20
-35.9101
 30
0
 70
     0
  0
VERTEX
  8
MACK_GRANITE_265
 10
-101.3408
 20
-36.2545
 30
0
 70
     0
  0
VERTEX
  8
MACK_GRANITE_265
 10
-101.7185
 20
-36.59
 30
0
 70
     0
  0
VERTEX
  8
MACK_GRANITE_265
 10
-102.1042
 20
-36.9166
 30
0
 70
     0
  0
VERTEX
  8
MACK_GRANITE_265
 10
-102.4976
 20
-37.2341
 30
0
 70
     0
  0
VERTEX
  8
MACK_GRANITE_265
 10
-102.8986
 20
-37.5423
 30
0
 70
     0
  0
VERTEX
  8
MACK_GRANITE_265
 10
-103.307
 20
-37.841
 30
0
 70
     0
  0
VERTEX
  8
MACK_GRANITE_265
 10
-103.7227
 20
-38.1301
 30
0
 70
     0
  0
VERTEX
  8
MACK_GRANITE_265
 10
-104.1454
 20
-38.4094
 30
0
 70
     0
  0
VERTEX
  8
MACK_GRANITE_265
 10
-104.5751
 20
-38.6788
 30
0
 70
     0
  0
VERTEX
  8
MACK_GRANITE_265
 10
-105.0115
 20
-38.938
 30
0
 70
     0
  0
VERTEX
  8
MACK_GRANITE_265
 10
-105.4544
 20
-39.1869
 30
0
 70
     0
  0
VERTEX
  8
MACK_GRANITE_265
 10
-105.9038
 20
-39.4253
 30
0
 70
     0
  0
VERTEX
  8
MACK_GRANITE_265
 10
-106.3594
 20
-39.653
 30
0
 70
     0
  0
VERTEX
  8
MACK_GRANITE_265
 10
-106.821
 20
-39.8699
 30
0
 70
     0
  0
VERTEX
  8
MACK_GRANITE_265
 10
-107.2885
 20
-40.0759
 30
0
 70
     0
  0
VERTEX
  8
MACK_GRANITE_265
 10
-107.7617
 20
-40.2707
 30
0
 70
     0
  0
VERTEX
  8
MACK_GRANITE_265
 10
-108.2405
 20
-40.4541
 30
0
 70
     0
  0
VERTEX
  8
MACK_GRANITE_265
 10
-108.7246
 20
-40.6261
 30
0
 70
     0
  0
VERTEX
  8
MACK_GRANITE_265
 10
-109.2139
 20
-40.7863
 30
0
 70
     0
  0
VERTEX
  8
MACK_GRANITE_265
 10
-109.7083
 20
-40.9348
 30
0
 70
     0
  0
VERTEX
  8
MACK_GRANITE_265
 10
-110.2076
 20
-41.0712
 30
0
 70
     0
  0
VERTEX
  8
MACK_GRANITE_265
 10
-110.7115
 20
-41.1954
 30
0
 70
     0
  0
VERTEX
  8
MACK_GRANITE_265
 10
-111.2199
 20
-41.3073
 30
0
 70
     0
  0
VERTEX
  8
MACK_GRANITE_265
 10
-111.7327
 20
-41.4066
 30
0
 70
     0
  0
VERTEX
  8
MACK_GRANITE_265
 10
-112.2497
 20
-41.4933
 30
0
 70
     0
  0
VERTEX
  8
MACK_GRANITE_265
 10
-112.7707
 20
-41.5671
 30
0
 70
     0
  0
VERTEX
  8
MACK_GRANITE_265
 10
-113.2955
 20
-41.6278
 30
0
 70
     0
  0
VERTEX
  8
MACK_GRANITE_265
 10
-113.824
 20
-41.6754
 30
0
 70
     0
  0
VERTEX
  8
MACK_GRANITE_265
 10
-114.356
 20
-41.7096
 30
0
 70
     0
  0
VERTEX
  8
MACK_GRANITE_265
 10
-114.8914
 20
-41.7302
 30
0
 70
     0
  0
VERTEX
  8
MACK_GRANITE_265
 10
-115.4298
 20
-41.7371
 30
0
 70
     0
  0
VERTEX
  8
MACK_GRANITE_265
 10
-115.4298
 20
-41.7371
 30
0
 70
     0
  0
VERTEX
  8
MACK_GRANITE_265
 10
-115.9683
 20
-41.7302
 30
0
 70
     0
  0
VERTEX
  8
MACK_GRANITE_265
 10
-116.5037
 20
-41.7096
 30
0
 70
     0
  0
VERTEX
  8
MACK_GRANITE_265
 10
-117.0357
 20
-41.6754
 30
0
 70
     0
  0
VERTEX
  8
MACK_GRANITE_265
 10
-117.5642
 20
-41.6278
 30
0
 70
     0
  0
VERTEX
  8
MACK_GRANITE_265
 10
-118.089
 20
-41.5671
 30
0
 70
     0
  0
VERTEX
  8
MACK_GRANITE_265
 10
-118.61
 20
-41.4933
 30
0
 70
     0
  0
VERTEX
  8
MACK_GRANITE_265
 10
-119.127
 20
-41.4066
 30
0
 70
     0
  0
VERTEX
  8
MACK_GRANITE_265
 10
-119.6398
 20
-41.3073
 30
0
 70
     0
  0
VERTEX
  8
MACK_GRANITE_265
 10
-120.1482
 20
-41.1954
 30
0
 70
     0
  0
VERTEX
  8
MACK_GRANITE_265
 10
-120.6521
 20
-41.0712
 30
0
 70
     0
  0
VERTEX
  8
MACK_GRANITE_265
 10
-121.1514
 20
-40.9348
 30
0
 70
     0
  0
VERTEX
  8
MACK_GRANITE_265
 10
-121.6457
 20
-40.7863
 30
0
 70
     0
  0
VERTEX
  8
MACK_GRANITE_265
 10
-122.1351
 20
-40.6261
 30
0
 70
     0
  0
VERTEX
  8
MACK_GRANITE_265
 10
-122.6192
 20
-40.4541
 30
0
 70
     0
  0
VERTEX
  8
MACK_GRANITE_265
 10
-123.098
 20
-40.2707
 30
0
 70
     0
  0
VERTEX
  8
MACK_GRANITE_265
 10
-123.5712
 20
-40.0759
 30
0
 70
     0
  0
VERTEX
  8
MACK_GRANITE_265
 10
-124.0387
 20
-39.8699
 30
0
 70
     0
  0
VERTEX
  8
MACK_GRANITE_265
 10
-124.5003
 20
-39.653
 30
0
 70
     0
  0
VERTEX
  8
MACK_GRANITE_265
 10
-124.9559
 20
-39.4253
 30
0
 70
     0
  0
VERTEX
  8
MACK_GRANITE_265
 10
-125.4053
 20
-39.1869
 30
0
 70
     0
  0
VERTEX
  8
MACK_GRANITE_265
 10
-125.8482
 20
-38.938
 30
0
 70
     0
  0
VERTEX
  8
MACK_GRANITE_265
 10
-126.2846
 20
-38.6788
 30
0
 70
     0
  0
VERTEX
  8
MACK_GRANITE_265
 10
-126.7142
 20
-38.4094
 30
0
 70
     0
  0
VERTEX
  8
MACK_GRANITE_265
 10
-127.137
 20
-38.1301
 30
0
 70
     0
  0
VERTEX
  8
MACK_GRANITE_265
 10
-127.5527
 20
-37.841
 30
0
 70
     0
  0
VERTEX
  8
MACK_GRANITE_265
 10
-127.9611
 20
-37.5423
 30
0
 70
     0
  0
VERTEX
  8
MACK_GRANITE_265
 10
-128.3621
 20
-37.2341
 30
0
 70
     0
  0
VERTEX
  8
MACK_GRANITE_265
 10
-128.7555
 20
-36.9166
 30
0
 70
     0
  0
VERTEX
  8
MACK_GRANITE_265
 10
-129.1412
 20
-36.59
 30
0
 70
     0
  0
VERTEX
  8
MACK_GRANITE_265
 10
-129.5189
 20
-36.2545
 30
0
 70
     0
  0
VERTEX
  8
MACK_GRANITE_265
 10
-129.8886
 20
-35.9101
 30
0
 70
     0
  0
VERTEX
  8
MACK_GRANITE_265
 10
-130.2499
 20
-35.5572
 30
0
 70
     0
  0
VERTEX
  8
MACK_GRANITE_265
 10
-130.6029
 20
-35.1958
 30
0
 70
     0
  0
VERTEX
  8
MACK_GRANITE_265
 10
-130.9472
 20
-34.8262
 30
0
 70
     0
  0
VERTEX
  8
MACK_GRANITE_265
 10
-131.2828
 20
-34.4484
 30
0
 70
     0
  0
VERTEX
  8
MACK_GRANITE_265
 10
-131.6094
 20
-34.0628
 30
0
 70
     0
  0
VERTEX
  8
MACK_GRANITE_265
 10
-131.9268
 20
-33.6694
 30
0
 70
     0
  0
VERTEX
  8
MACK_GRANITE_265
 10
-132.235
 20
-33.2683
 30
0
 70
     0
  0
VERTEX
  8
MACK_GRANITE_265
 10
-132.5338
 20
-32.8599
 30
0
 70
     0
  0
VERTEX
  8
MACK_GRANITE_265
 10
-132.8229
 20
-32.4442
 30
0
 70
     0
  0
VERTEX
  8
MACK_GRANITE_265
 10
-133.1022
 20
-32.0215
 30
0
 70
     0
  0
VERTEX
  8
MACK_GRANITE_265
 10
-133.3715
 20
-31.5918
 30
0
 70
     0
  0
VERTEX
  8
MACK_GRANITE_265
 10
-133.6307
 20
-31.1555
 30
0
 70
     0
  0
VERTEX
  8
MACK_GRANITE_265
 10
-133.8796
 20
-30.7125
 30
0
 70
     0
  0
VERTEX
  8
MACK_GRANITE_265
 10
-134.118
 20
-30.2632
 30
0
 70
     0
  0
VERTEX
  8
MACK_GRANITE_265
 10
-134.3458
 20
-29.8076
 30
0
 70
     0
  0
VERTEX
  8
MACK_GRANITE_265
 10
-134.5627
 20
-29.346
 30
0
 70
     0
  0
VERTEX
  8
MACK_GRANITE_265
 10
-134.7686
 20
-28.8785
 30
0
 70
     0
  0
VERTEX
  8
MACK_GRANITE_265
 10
-134.9634
 20
-28.4052
 30
0
 70
     0
  0
VERTEX
  8
MACK_GRANITE_265
 10
-135.1469
 20
-27.9265
 30
0
 70
     0
  0
VERTEX
  8
MACK_GRANITE_265
 10
-135.3188
 20
-27.4423
 30
0
 70
     0
  0
VERTEX
  8
MACK_GRANITE_265
 10
-135.4791
 20
-26.953
 30
0
 70
     0
  0
VERTEX
  8
MACK_GRANITE_265
 10
-135.6275
 20
-26.4586
 30
0
 70
     0
  0
VERTEX
  8
MACK_GRANITE_265
 10
-135.7639
 20
-25.9594
 30
0
 70
     0
  0
VERTEX
  8
MACK_GRANITE_265
 10
-135.8881
 20
-25.4555
 30
0
 70
     0
  0
VERTEX
  8
MACK_GRANITE_265
 10
-136
 20
-24.947
 30
0
 70
     0
  0
VERTEX
  8
MACK_GRANITE_265
 10
-136.0994
 20
-24.4342
 30
0
 70
     0
  0
VERTEX
  8
MACK_GRANITE_265
 10
-136.186
 20
-23.9172
 30
0
 70
     0
  0
VERTEX
  8
MACK_GRANITE_265
 10
-136.2598
 20
-23.3963
 30
0
 70
     0
  0
VERTEX
  8
MACK_GRANITE_265
 10
-136.3206
 20
-22.8714
 30
0
 70
     0
  0
VERTEX
  8
MACK_GRANITE_265
 10
-136.3681
 20
-22.3429
 30
0
 70
     0
  0
VERTEX
  8
MACK_GRANITE_265
 10
-136.4023
 20
-21.8109
 30
0
 70
     0
  0
VERTEX
  8
MACK_GRANITE_265
 10
-136.4229
 20
-21.2756
 30
0
 70
     0
  0
VERTEX
  8
MACK_GRANITE_265
 10
-136.4298
 20
-20.7371
 30
0
 70
     0
  0
VERTEX
  8
MACK_GRANITE_265
 10
-136.4298
 20
-20.7371
 30
0
 70
     0
  0
VERTEX
  8
MACK_GRANITE_265
 10
-136.4229
 20
-20.1986
 30
0
 70
     0
  0
VERTEX
  8
MACK_GRANITE_265
 10
-136.4023
 20
-19.6633
 30
0
 70
     0
  0
VERTEX
  8
MACK_GRANITE_265
 10
-136.3681
 20
-19.1313
 30
0
 70
     0
  0
VERTEX
  8
MACK_GRANITE_265
 10
-136.3206
 20
-18.6028
 30
0
 70
     0
  0
VERTEX
  8
MACK_GRANITE_265
 10
-136.2598
 20
-18.078
 30
0
 70
     0
  0
VERTEX
  8
MACK_GRANITE_265
 10
-136.186
 20
-17.557
 30
0
 70
     0
  0
VERTEX
  8
MACK_GRANITE_265
 10
-136.0994
 20
-17.04
 30
0
 70
     0
  0
VERTEX
  8
MACK_GRANITE_265
 10
-136
 20
-16.5272
 30
0
 70
     0
  0
VERTEX
  8
MACK_GRANITE_265
 10
-135.8881
 20
-16.0187
 30
0
 70
     0
  0
VERTEX
  8
MACK_GRANITE_265
 10
-135.7639
 20
-15.5148
 30
0
 70
     0
  0
VERTEX
  8
MACK_GRANITE_265
 10
-135.6275
 20
-15.0156
 30
0
 70
     0
  0
VERTEX
  8
MACK_GRANITE_265
 10
-135.4791
 20
-14.5212
 30
0
 70
     0
  0
VERTEX
  8
MACK_GRANITE_265
 10
-135.3188
 20
-14.0319
 30
0
 70
     0
  0
VERTEX
  8
MACK_GRANITE_265
 10
-135.1469
 20
-13.5477
 30
0
 70
     0
  0
VERTEX
  8
MACK_GRANITE_265
 10
-134.9634
 20
-13.069
 30
0
 70
     0
  0
VERTEX
  8
MACK_GRANITE_265
 10
-134.7686
 20
-12.5957
 30
0
 70
     0
  0
VERTEX
  8
MACK_GRANITE_265
 10
-134.5627
 20
-12.1282
 30
0
 70
     0
  0
VERTEX
  8
MACK_GRANITE_265
 10
-134.3458
 20
-11.6666
 30
0
 70
     0
  0
VERTEX
  8
MACK_GRANITE_265
 10
-134.118
 20
-11.211
 30
0
 70
     0
  0
VERTEX
  8
MACK_GRANITE_265
 10
-133.8796
 20
-10.7617
 30
0
 70
     0
  0
VERTEX
  8
MACK_GRANITE_265
 10
-133.6307
 20
-10.3187
 30
0
 70
     0
  0
VERTEX
  8
MACK_GRANITE_265
 10
-133.3715
 20
-9.8824
 30
0
 70
     0
  0
VERTEX
  8
MACK_GRANITE_265
 10
-133.1022
 20
-9.4527
 30
0
 70
     0
  0
VERTEX
  8
MACK_GRANITE_265
 10
-132.8229
 20
-9.03
 30
0
 70
     0
  0
VERTEX
  8
MACK_GRANITE_265
 10
-132.5338
 20
-8.6143
 30
0
 70
     0
  0
VERTEX
  8
MACK_GRANITE_265
 10
-132.235
 20
-8.2059
 30
0
 70
     0
  0
VERTEX
  8
MACK_GRANITE_265
 10
-131.9268
 20
-7.8049
 30
0
 70
     0
  0
VERTEX
  8
MACK_GRANITE_265
 10
-131.6094
 20
-7.4114
 30
0
 70
     0
  0
VERTEX
  8
MACK_GRANITE_265
 10
-131.2828
 20
-7.0258
 30
0
 70
     0
  0
VERTEX
  8
MACK_GRANITE_265
 10
-130.9472
 20
-6.648
 30
0
 70
     0
  0
VERTEX
  8
MACK_GRANITE_265
 10
-130.6029
 20
-6.2784
 30
0
 70
     0
  0
VERTEX
  8
MACK_GRANITE_265
 10
-130.2499
 20
-5.917
 30
0
 70
     0
  0
VERTEX
  8
MACK_GRANITE_265
 10
-129.8886
 20
-5.5641
 30
0
 70
     0
  0
VERTEX
  8
MACK_GRANITE_265
 10
-129.5189
 20
-5.2197
 30
0
 70
     0
  0
VERTEX
  8
MACK_GRANITE_265
 10
-129.1412
 20
-4.8842
 30
0
 70
     0
  0
VERTEX
  8
MACK_GRANITE_265
 10
-128.7555
 20
-4.5576
 30
0
 70
     0
  0
VERTEX
  8
MACK_GRANITE_265
 10
-128.3621
 20
-4.2401
 30
0
 70
     0
  0
VERTEX
  8
MACK_GRANITE_265
 10
-127.9611
 20
-3.9319
 30
0
 70
     0
  0
VERTEX
  8
MACK_GRANITE_265
 10
-127.5527
 20
-3.6332
 30
0
 70
     0
  0
VERTEX
  8
MACK_GRANITE_265
 10
-127.137
 20
-3.3441
 30
0
 70
     0
  0
VERTEX
  8
MACK_GRANITE_265
 10
-126.7142
 20
-3.0648
 30
0
 70
     0
  0
VERTEX
  8
MACK_GRANITE_265
 10
-126.2846
 20
-2.7954
 30
0
 70
     0
  0
VERTEX
  8
MACK_GRANITE_265
 10
-125.8482
 20
-2.5362
 30
0
 70
     0
  0
VERTEX
  8
MACK_GRANITE_265
 10
-125.4053
 20
-2.2873
 30
0
 70
     0
  0
VERTEX
  8
MACK_GRANITE_265
 10
-124.9559
 20
-2.0489
 30
0
 70
     0
  0
VERTEX
  8
MACK_GRANITE_265
 10
-124.5003
 20
-1.8212
 30
0
 70
     0
  0
VERTEX
  8
MACK_GRANITE_265
 10
-124.0387
 20
-1.6043
 30
0
 70
     0
  0
VERTEX
  8
MACK_GRANITE_265
 10
-123.5712
 20
-1.3983
 30
0
 70
     0
  0
VERTEX
  8
MACK_GRANITE_265
 10
-123.098
 20
-1.2035
 30
0
 70
     0
  0
VERTEX
  8
MACK_GRANITE_265
 10
-122.6192
 20
-1.0201
 30
0
 70
     0
  0
VERTEX
  8
MACK_GRANITE_265
 10
-122.1351
 20
-0.8482
 30
0
 70
     0
  0
VERTEX
  8
MACK_GRANITE_265
 10
-121.6457
 20
-0.6879
 30
0
 70
     0
  0
VERTEX
  8
MACK_GRANITE_265
 10
-121.1514
 20
-0.5395
 30
0
 70
     0
  0
VERTEX
  8
MACK_GRANITE_265
 10
-120.6521
 20
-0.403
 30
0
 70
     0
  0
VERTEX
  8
MACK_GRANITE_265
 10
-120.1482
 20
-0.2788
 30
0
 70
     0
  0
VERTEX
  8
MACK_GRANITE_265
 10
-119.6398
 20
-0.1669
 30
0
 70
     0
  0
VERTEX
  8
MACK_GRANITE_265
 10
-119.127
 20
-0.0676
 30
0
 70
     0
  0
VERTEX
  8
MACK_GRANITE_265
 10
-118.61
 20
0.0191
 30
0
 70
     0
  0
VERTEX
  8
MACK_GRANITE_265
 10
-118.089
 20
0.0929
 30
0
 70
     0
  0
VERTEX
  8
MACK_GRANITE_265
 10
-117.5642
 20
0.1536
 30
0
 70
     0
  0
VERTEX
  8
MACK_GRANITE_265
 10
-117.0357
 20
0.2012
 30
0
 70
     0
  0
VERTEX
  8
MACK_GRANITE_265
 10
-116.5037
 20
0.2354
 30
0
 70
     0
  0
VERTEX
  8
MACK_GRANITE_265
 10
-115.9683
 20
0.256
 30
0
 70
     0
  0
VERTEX
  8
MACK_GRANITE_265
 10
-115.4298
 20
0.2629
 30
0
 70
     0
  0
VERTEX
  8
MACK_GRANITE_265
 10
-115.4298
 20
0.2629
 30
0
 70
     0
  0
VERTEX
  8
MACK_GRANITE_265
 10
-114.8914
 20
0.256
 30
0
 70
     0
  0
VERTEX
  8
MACK_GRANITE_265
 10
-114.356
 20
0.2354
 30
0
 70
     0
  0
VERTEX
  8
MACK_GRANITE_265
 10
-113.824
 20
0.2012
 30
0
 70
     0
  0
VERTEX
  8
MACK_GRANITE_265
 10
-113.2955
 20
0.1536
 30
0
 70
     0
  0
VERTEX
  8
MACK_GRANITE_265
 10
-112.7707
 20
0.0929
 30
0
 70
     0
  0
VERTEX
  8
MACK_GRANITE_265
 10
-112.2497
 20
0.0191
 30
0
 70
     0
  0
VERTEX
  8
MACK_GRANITE_265
 10
-111.7327
 20
-0.0676
 30
0
 70
     0
  0
VERTEX
  8
MACK_GRANITE_265
 10
-111.2199
 20
-0.1669
 30
0
 70
     0
  0
VERTEX
  8
MACK_GRANITE_265
 10
-110.7115
 20
-0.2788
 30
0
 70
     0
  0
VERTEX
  8
MACK_GRANITE_265
 10
-110.2076
 20
-0.403
 30
0
 70
     0
  0
VERTEX
  8
MACK_GRANITE_265
 10
-109.7083
 20
-0.5395
 30
0
 70
     0
  0
VERTEX
  8
MACK_GRANITE_265
 10
-109.2139
 20
-0.6879
 30
0
 70
     0
  0
VERTEX
  8
MACK_GRANITE_265
 10
-108.7246
 20
-0.8482
 30
0
 70
     0
  0
VERTEX
  8
MACK_GRANITE_265
 10
-108.2405
 20
-1.0201
 30
0
 70
     0
  0
VERTEX
  8
MACK_GRANITE_265
 10
-107.7617
 20
-1.2035
 30
0
 70
     0
  0
VERTEX
  8
MACK_GRANITE_265
 10
-107.2885
 20
-1.3983
 30
0
 70
     0
  0
VERTEX
  8
MACK_GRANITE_265
 10
-106.821
 20
-1.6043
 30
0
 70
     0
  0
VERTEX
  8
MACK_GRANITE_265
 10
-106.3594
 20
-1.8212
 30
0
 70
     0
  0
VERTEX
  8
MACK_GRANITE_265
 10
-105.9038
 20
-2.0489
 30
0
 70
     0
  0
VERTEX
  8
MACK_GRANITE_265
 10
-105.4544
 20
-2.2873
 30
0
 70
     0
  0
VERTEX
  8
MACK_GRANITE_265
 10
-105.0115
 20
-2.5362
 30
0
 70
     0
  0
VERTEX
  8
MACK_GRANITE_265
 10
-104.5751
 20
-2.7954
 30
0
 70
     0
  0
VERTEX
  8
MACK_GRANITE_265
 10
-104.1454
 20
-3.0648
 30
0
 70
     0
  0
VERTEX
  8
MACK_GRANITE_265
 10
-103.7227
 20
-3.3441
 30
0
 70
     0
  0
VERTEX
  8
MACK_GRANITE_265
 10
-103.307
 20
-3.6332
 30
0
 70
     0
  0
VERTEX
  8
MACK_GRANITE_265
 10
-102.8986
 20
-3.9319
 30
0
 70
     0
  0
VERTEX
  8
MACK_GRANITE_265
 10
-102.4976
 20
-4.2401
 30
0
 70
     0
  0
VERTEX
  8
MACK_GRANITE_265
 10
-102.1042
 20
-4.5576
 30
0
 70
     0
  0
VERTEX
  8
MACK_GRANITE_265
 10
-101.7185
 20
-4.8842
 30
0
 70
     0
  0
VERTEX
  8
MACK_GRANITE_265
 10
-101.3408
 20
-5.2197
 30
0
 70
     0
  0
VERTEX
  8
MACK_GRANITE_265
 10
-100.9711
 20
-5.5641
 30
0
 70
     0
  0
VERTEX
  8
MACK_GRANITE_265
 10
-100.6097
 20
-5.917
 30
0
 70
     0
  0
VERTEX
  8
MACK_GRANITE_265
 10
-100.2568
 20
-6.2784
 30
0
 70
     0
  0
VERTEX
  8
MACK_GRANITE_265
 10
-99.9125
 20
-6.648
 30
0
 70
     0
  0
VERTEX
  8
MACK_GRANITE_265
 10
-99.5769
 20
-7.0258
 30
0
 70
     0
  0
VERTEX
  8
MACK_GRANITE_265
 10
-99.2503
 20
-7.4114
 30
0
 70
     0
  0
VERTEX
  8
MACK_GRANITE_265
 10
-98.9328
 20
-7.8049
 30
0
 70
     0
  0
VERTEX
  8
MACK_GRANITE_265
 10
-98.6247
 20
-8.2059
 30
0
 70
     0
  0
VERTEX
  8
MACK_GRANITE_265
 10
-98.3259
 20
-8.6143
 30
0
 70
     0
  0
VERTEX
  8
MACK_GRANITE_265
 10
-98.0368
 20
-9.03
 30
0
 70
     0
  0
VERTEX
  8
MACK_GRANITE_265
 10
-97.7575
 20
-9.4527
 30
0
 70
     0
  0
VERTEX
  8
MACK_GRANITE_265
 10
-97.4882
 20
-9.8824
 30
0
 70
     0
  0
VERTEX
  8
MACK_GRANITE_265
 10
-97.229
 20
-10.3187
 30
0
 70
     0
  0
VERTEX
  8
MACK_GRANITE_265
 10
-96.9801
 20
-10.7617
 30
0
 70
     0
  0
VERTEX
  8
MACK_GRANITE_265
 10
-96.7417
 20
-11.211
 30
0
 70
     0
  0
VERTEX
  8
MACK_GRANITE_265
 10
-96.5139
 20
-11.6666
 30
0
 70
     0
  0
VERTEX
  8
MACK_GRANITE_265
 10
-96.297
 20
-12.1282
 30
0
 70
     0
  0
VERTEX
  8
MACK_GRANITE_265
 10
-96.0911
 20
-12.5957
 30
0
 70
     0
  0
VERTEX
  8
MACK_GRANITE_265
 10
-95.8963
 20
-13.069
 30
0
 70
     0
  0
VERTEX
  8
MACK_GRANITE_265
 10
-95.7128
 20
-13.5477
 30
0
 70
     0
  0
VERTEX
  8
MACK_GRANITE_265
 10
-95.5409
 20
-14.0319
 30
0
 70
     0
  0
VERTEX
  8
MACK_GRANITE_265
 10
-95.3806
 20
-14.5212
 30
0
 70
     0
  0
VERTEX
  8
MACK_GRANITE_265
 10
-95.2322
 20
-15.0156
 30
0
 70
     0
  0
VERTEX
  8
MACK_GRANITE_265
 10
-95.0958
 20
-15.5148
 30
0
 70
     0
  0
VERTEX
  8
MACK_GRANITE_265
 10
-94.9716
 20
-16.0187
 30
0
 70
     0
  0
VERTEX
  8
MACK_GRANITE_265
 10
-94.8597
 20
-16.5272
 30
0
 70
     0
  0
VERTEX
  8
MACK_GRANITE_265
 10
-94.7603
 20
-17.04
 30
0
 70
     0
  0
VERTEX
  8
MACK_GRANITE_265
 10
-94.6737
 20
-17.557
 30
0
 70
     0
  0
VERTEX
  8
MACK_GRANITE_265
 10
-94.5999
 20
-18.078
 30
0
 70
     0
  0
VERTEX
  8
MACK_GRANITE_265
 10
-94.5391
 20
-18.6028
 30
0
 70
     0
  0
VERTEX
  8
MACK_GRANITE_265
 10
-94.4916
 20
-19.1313
 30
0
 70
     0
  0
VERTEX
  8
MACK_GRANITE_265
 10
-94.4574
 20
-19.6633
 30
0
 70
     0
  0
VERTEX
  8
MACK_GRANITE_265
 10
-94.4368
 20
-20.1986
 30
0
 70
     0
  0
VERTEX
  8
MACK_GRANITE_265
 10
-94.4298
 20
-20.7371
 30
0
 70
     0
  0
SEQEND
  0
POLYLINE
  8
MACK_GRANITE_265
  6
CONTINUOUS
 62
     7
 66
     1
 40
0.0139
 41
0.0139
  0
VERTEX
  8
MACK_GRANITE_265
 10
-37.4302
 20
66.4661
 30
0
 70
     0
  0
VERTEX
  8
MACK_GRANITE_265
 10
-37.435
 20
66.6662
 30
0
 70
     0
  0
VERTEX
  8
MACK_GRANITE_265
 10
-37.4495
 20
66.8638
 30
0
 70
     0
  0
VERTEX
  8
MACK_GRANITE_265
 10
-37.4735
 20
67.0587
 30
0
 70
     0
  0
VERTEX
  8
MACK_GRANITE_265
 10
-37.5067
 20
67.2507
 30
0
 70
     0
  0
VERTEX
  8
MACK_GRANITE_265
 10
-37.549
 20
67.4394
 30
0
 70
     0
  0
VERTEX
  8
MACK_GRANITE_265
 10
-37.6
 20
67.6248
 30
0
 70
     0
  0
VERTEX
  8
MACK_GRANITE_265
 10
-37.6597
 20
67.8064
 30
0
 70
     0
  0
VERTEX
  8
MACK_GRANITE_265
 10
-37.7277
 20
67.9842
 30
0
 70
     0
  0
VERTEX
  8
MACK_GRANITE_265
 10
-37.8038
 20
68.1579
 30
0
 70
     0
  0
VERTEX
  8
MACK_GRANITE_265
 10
-37.8878
 20
68.3271
 30
0
 70
     0
  0
VERTEX
  8
MACK_GRANITE_265
 10
-37.9795
 20
68.4918
 30
0
 70
     0
  0
VERTEX
  8
MACK_GRANITE_265
 10
-38.0786
 20
68.6516
 30
0
 70
     0
  0
VERTEX
  8
MACK_GRANITE_265
 10
-38.1849
 20
68.8063
 30
0
 70
     0
  0
VERTEX
  8
MACK_GRANITE_265
 10
-38.2981
 20
68.9557
 30
0
 70
     0
  0
VERTEX
  8
MACK_GRANITE_265
 10
-38.4181
 20
69.0996
 30
0
 70
     0
  0
VERTEX
  8
MACK_GRANITE_265
 10
-38.5447
 20
69.2376
 30
0
 70
     0
  0
VERTEX
  8
MACK_GRANITE_265
 10
-38.6775
 20
69.3696
 30
0
 70
     0
  0
VERTEX
  8
MACK_GRANITE_265
 10
-38.8164
 20
69.4953
 30
0
 70
     0
  0
VERTEX
  8
MACK_GRANITE_265
 10
-38.9611
 20
69.6145
 30
0
 70
     0
  0
VERTEX
  8
MACK_GRANITE_265
 10
-39.1114
 20
69.727
 30
0
 70
     0
  0
VERTEX
  8
MACK_GRANITE_265
 10
-39.2671
 20
69.8324
 30
0
 70
     0
  0
VERTEX
  8
MACK_GRANITE_265
 10
-39.4279
 20
69.9306
 30
0
 70
     0
  0
VERTEX
  8
MACK_GRANITE_265
 10
-39.5937
 20
70.0214
 30
0
 70
     0
  0
VERTEX
  8
MACK_GRANITE_265
 10
-39.7641
 20
70.1045
 30
0
 70
     0
  0
VERTEX
  8
MACK_GRANITE_265
 10
-39.939
 20
70.1796
 30
0
 70
     0
  0
VERTEX
  8
MACK_GRANITE_265
 10
-40.1181
 20
70.2465
 30
0
 70
     0
  0
VERTEX
  8
MACK_GRANITE_265
 10
-40.3013
 20
70.305
 30
0
 70
     0
  0
VERTEX
  8
MACK_GRANITE_265
 10
-40.4882
 20
70.3548
 30
0
 70
     0
  0
VERTEX
  8
MACK_GRANITE_265
 10
-40.6786
 20
70.3958
 30
0
 70
     0
  0
VERTEX
  8
MACK_GRANITE_265
 10
-40.8724
 20
70.4276
 30
0
 70
     0
  0
VERTEX
  8
MACK_GRANITE_265
 10
-41.0692
 20
70.4501
 30
0
 70
     0
  0
VERTEX
  8
MACK_GRANITE_265
 10
-41.2689
 20
70.4629
 30
0
 70
     0
  0
SEQEND
  0
POLYLINE
  8
MACK_GRANITE_265
  6
CONTINUOUS
 62
     7
 66
     1
 40
0.0139
 41
0.0139
  0
VERTEX
  8
MACK_GRANITE_265
 10
-41.2689
 20
70.4629
 30
0
 70
     0
  0
VERTEX
  8
MACK_GRANITE_265
 10
-42.4474
 20
70.5086
 30
0
 70
     0
  0
VERTEX
  8
MACK_GRANITE_265
 10
-43.626
 20
70.5486
 30
0
 70
     0
  0
VERTEX
  8
MACK_GRANITE_265
 10
-44.8048
 20
70.5831
 30
0
 70
     0
  0
VERTEX
  8
MACK_GRANITE_265
 10
-45.9835
 20
70.6119
 30
0
 70
     0
  0
VERTEX
  8
MACK_GRANITE_265
 10
-47.1624
 20
70.6351
 30
0
 70
     0
  0
VERTEX
  8
MACK_GRANITE_265
 10
-48.3412
 20
70.6526
 30
0
 70
     0
  0
VERTEX
  8
MACK_GRANITE_265
 10
-49.5201
 20
70.6646
 30
0
 70
     0
  0
VERTEX
  8
MACK_GRANITE_265
 10
-50.699
 20
70.6709
 30
0
 70
     0
  0
VERTEX
  8
MACK_GRANITE_265
 10
-51.8778
 20
70.6716
 30
0
 70
     0
  0
VERTEX
  8
MACK_GRANITE_265
 10
-53.0566
 20
70.6668
 30
0
 70
     0
  0
VERTEX
  8
MACK_GRANITE_265
 10
-54.2353
 20
70.6562
 30
0
 70
     0
  0
VERTEX
  8
MACK_GRANITE_265
 10
-55.4139
 20
70.6401
 30
0
 70
     0
  0
VERTEX
  8
MACK_GRANITE_265
 10
-56.5924
 20
70.6184
 30
0
 70
     0
  0
VERTEX
  8
MACK_GRANITE_265
 10
-57.7707
 20
70.591
 30
0
 70
     0
  0
VERTEX
  8
MACK_GRANITE_265
 10
-58.9489
 20
70.558
 30
0
 70
     0
  0
VERTEX
  8
MACK_GRANITE_265
 10
-60.1269
 20
70.5195
 30
0
 70
     0
  0
VERTEX
  8
MACK_GRANITE_265
 10
-61.3048
 20
70.4753
 30
0
 70
     0
  0
VERTEX
  8
MACK_GRANITE_265
 10
-62.4824
 20
70.4255
 30
0
 70
     0
  0
VERTEX
  8
MACK_GRANITE_265
 10
-63.6597
 20
70.37
 30
0
 70
     0
  0
VERTEX
  8
MACK_GRANITE_265
 10
-64.8368
 20
70.309
 30
0
 70
     0
  0
VERTEX
  8
MACK_GRANITE_265
 10
-66.0137
 20
70.2424
 30
0
 70
     0
  0
VERTEX
  8
MACK_GRANITE_265
 10
-67.1902
 20
70.1701
 30
0
 70
     0
  0
VERTEX
  8
MACK_GRANITE_265
 10
-68.3664
 20
70.0923
 30
0
 70
     0
  0
VERTEX
  8
MACK_GRANITE_265
 10
-69.5423
 20
70.0088
 30
0
 70
     0
  0
VERTEX
  8
MACK_GRANITE_265
 10
-70.7178
 20
69.9198
 30
0
 70
     0
  0
VERTEX
  8
MACK_GRANITE_265
 10
-71.8929
 20
69.8251
 30
0
 70
     0
  0
VERTEX
  8
MACK_GRANITE_265
 10
-73.0676
 20
69.7248
 30
0
 70
     0
  0
VERTEX
  8
MACK_GRANITE_265
 10
-74.2419
 20
69.619
 30
0
 70
     0
  0
VERTEX
  8
MACK_GRANITE_265
 10
-75.4158
 20
69.5075
 30
0
 70
     0
  0
VERTEX
  8
MACK_GRANITE_265
 10
-76.5892
 20
69.3904
 30
0
 70
     0
  0
VERTEX
  8
MACK_GRANITE_265
 10
-77.7621
 20
69.2677
 30
0
 70
     0
  0
VERTEX
  8
MACK_GRANITE_265
 10
-78.9345
 20
69.1394
 30
0
 70
     0
  0
SEQEND
  0
POLYLINE
  8
MACK_GRANITE_265
  6
CONTINUOUS
 62
     7
 66
     1
 40
0.0139
 41
0.0139
  0
VERTEX
  8
MACK_GRANITE_265
 10
-134.7724
 20
15.1612
 30
0
 70
     0
  0
VERTEX
  8
MACK_GRANITE_265
 10
-135.0241
 20
15.1497
 30
0
 70
     0
  0
VERTEX
  8
MACK_GRANITE_265
 10
-135.274
 20
15.132
 30
0
 70
     0
  0
VERTEX
  8
MACK_GRANITE_265
 10
-135.5222
 20
15.1082
 30
0
 70
     0
  0
VERTEX
  8
MACK_GRANITE_265
 10
-135.7686
 20
15.0785
 30
0
 70
     0
  0
VERTEX
  8
MACK_GRANITE_265
 10
-136.013
 20
15.0428
 30
0
 70
     0
  0
VERTEX
  8
MACK_GRANITE_265
 10
-136.2554
 20
15.0013
 30
0
 70
     0
  0
VERTEX
  8
MACK_GRANITE_265
 10
-136.4958
 20
14.954
 30
0
 70
     0
  0
VERTEX
  8
MACK_GRANITE_265
 10
-136.734
 20
14.9011
 30
0
 70
     0
  0
VERTEX
  8
MACK_GRANITE_265
 10
-136.9701
 20
14.8425
 30
0
 70
     0
  0
VERTEX
  8
MACK_GRANITE_265
 10
-137.2038
 20
14.7784
 30
0
 70
     0
  0
VERTEX
  8
MACK_GRANITE_265
 10
-137.4352
 20
14.7088
 30
0
 70
     0
  0
VERTEX
  8
MACK_GRANITE_265
 10
-137.6642
 20
14.6338
 30
0
 70
     0
  0
VERTEX
  8
MACK_GRANITE_265
 10
-137.8907
 20
14.5535
 30
0
 70
     0
  0
VERTEX
  8
MACK_GRANITE_265
 10
-138.1146
 20
14.468
 30
0
 70
     0
  0
VERTEX
  8
MACK_GRANITE_265
 10
-138.3359
 20
14.3773
 30
0
 70
     0
  0
VERTEX
  8
MACK_GRANITE_265
 10
-138.5544
 20
14.2815
 30
0
 70
     0
  0
VERTEX
  8
MACK_GRANITE_265
 10
-138.9831
 20
14.0749
 30
0
 70
     0
  0
VERTEX
  8
MACK_GRANITE_265
 10
-139.4
 20
13.8489
 30
0
 70
     0
  0
VERTEX
  8
MACK_GRANITE_265
 10
-139.8046
 20
13.604
 30
0
 70
     0
  0
VERTEX
  8
MACK_GRANITE_265
 10
-140.1963
 20
13.3409
 30
0
 70
     0
  0
VERTEX
  8
MACK_GRANITE_265
 10
-140.5746
 20
13.06
 30
0
 70
     0
  0
VERTEX
  8
MACK_GRANITE_265
 10
-140.9388
 20
12.7622
 30
0
 70
     0
  0
VERTEX
  8
MACK_GRANITE_265
 10
-141.2883
 20
12.4478
 30
0
 70
     0
  0
VERTEX
  8
MACK_GRANITE_265
 10
-141.6227
 20
12.1176
 30
0
 70
     0
  0
VERTEX
  8
MACK_GRANITE_265
 10
-141.9412
 20
11.7722
 30
0
 70
     0
  0
VERTEX
  8
MACK_GRANITE_265
 10
-142.2434
 20
11.412
 30
0
 70
     0
  0
VERTEX
  8
MACK_GRANITE_265
 10
-142.5286
 20
11.0379
 30
0
 70
     0
  0
VERTEX
  8
MACK_GRANITE_265
 10
-142.7963
 20
10.6502
 30
0
 70
     0
  0
VERTEX
  8
MACK_GRANITE_265
 10
-143.0459
 20
10.2497
 30
0
 70
     0
  0
VERTEX
  8
MACK_GRANITE_265
 10
-143.2768
 20
9.8369
 30
0
 70
     0
  0
VERTEX
  8
MACK_GRANITE_265
 10
-143.4884
 20
9.4125
 30
0
 70
     0
  0
VERTEX
  8
MACK_GRANITE_265
 10
-143.6802
 20
8.977
 30
0
 70
     0
  0
VERTEX
  8
MACK_GRANITE_265
 10
-143.7684
 20
8.7553
 30
0
 70
     0
  0
VERTEX
  8
MACK_GRANITE_265
 10
-143.8515
 20
8.5311
 30
0
 70
     0
  0
VERTEX
  8
MACK_GRANITE_265
 10
-143.9293
 20
8.3044
 30
0
 70
     0
  0
VERTEX
  8
MACK_GRANITE_265
 10
-144.0018
 20
8.0753
 30
0
 70
     0
  0
VERTEX
  8
MACK_GRANITE_265
 10
-144.0689
 20
7.8439
 30
0
 70
     0
  0
VERTEX
  8
MACK_GRANITE_265
 10
-144.1305
 20
7.6102
 30
0
 70
     0
  0
VERTEX
  8
MACK_GRANITE_265
 10
-144.1866
 20
7.3744
 30
0
 70
     0
  0
VERTEX
  8
MACK_GRANITE_265
 10
-144.237
 20
7.1365
 30
0
 70
     0
  0
VERTEX
  8
MACK_GRANITE_265
 10
-144.2818
 20
6.8966
 30
0
 70
     0
  0
VERTEX
  8
MACK_GRANITE_265
 10
-144.3208
 20
6.6548
 30
0
 70
     0
  0
VERTEX
  8
MACK_GRANITE_265
 10
-144.354
 20
6.411
 30
0
 70
     0
  0
VERTEX
  8
MACK_GRANITE_265
 10
-144.3813
 20
6.1655
 30
0
 70
     0
  0
VERTEX
  8
MACK_GRANITE_265
 10
-144.4026
 20
5.9183
 30
0
 70
     0
  0
VERTEX
  8
MACK_GRANITE_265
 10
-144.4178
 20
5.6695
 30
0
 70
     0
  0
VERTEX
  8
MACK_GRANITE_265
 10
-144.4269
 20
5.419
 30
0
 70
     0
  0
VERTEX
  8
MACK_GRANITE_265
 10
-144.4298
 20
5.1671
 30
0
 70
     0
  0
SEQEND
  0
POLYLINE
  8
MACK_GRANITE_265
  6
CONTINUOUS
 62
     7
 66
     1
 40
0.0139
 41
0.0139
  0
VERTEX
  8
MACK_GRANITE_265
 10
-93.1274
 20
8.7893
 30
0
 70
     0
  0
VERTEX
  8
MACK_GRANITE_265
 10
-93.2469
 20
9.209
 30
0
 70
     0
  0
VERTEX
  8
MACK_GRANITE_265
 10
-93.3834
 20
9.6199
 30
0
 70
     0
  0
VERTEX
  8
MACK_GRANITE_265
 10
-93.5365
 20
10.0219
 30
0
 70
     0
  0
VERTEX
  8
MACK_GRANITE_265
 10
-93.7057
 20
10.4145
 30
0
 70
     0
  0
VERTEX
  8
MACK_GRANITE_265
 10
-93.8905
 20
10.7974
 30
0
 70
     0
  0
VERTEX
  8
MACK_GRANITE_265
 10
-94.0905
 20
11.1703
 30
0
 70
     0
  0
VERTEX
  8
MACK_GRANITE_265
 10
-94.3053
 20
11.5328
 30
0
 70
     0
  0
VERTEX
  8
MACK_GRANITE_265
 10
-94.5343
 20
11.8847
 30
0
 70
     0
  0
VERTEX
  8
MACK_GRANITE_265
 10
-94.7772
 20
12.2255
 30
0
 70
     0
  0
VERTEX
  8
MACK_GRANITE_265
 10
-95.0335
 20
12.555
 30
0
 70
     0
  0
VERTEX
  8
MACK_GRANITE_265
 10
-95.3027
 20
12.8727
 30
0
 70
     0
  0
VERTEX
  8
MACK_GRANITE_265
 10
-95.5844
 20
13.1785
 30
0
 70
     0
  0
VERTEX
  8
MACK_GRANITE_265
 10
-95.8782
 20
13.4718
 30
0
 70
     0
  0
VERTEX
  8
MACK_GRANITE_265
 10
-96.1835
 20
13.7524
 30
0
 70
     0
  0
VERTEX
  8
MACK_GRANITE_265
 10
-96.4999
 20
14.02
 30
0
 70
     0
  0
VERTEX
  8
MACK_GRANITE_265
 10
-96.827
 20
14.2742
 30
0
 70
     0
  0
VERTEX
  8
MACK_GRANITE_265
 10
-97.1643
 20
14.5146
 30
0
 70
     0
  0
VERTEX
  8
MACK_GRANITE_265
 10
-97.5114
 20
14.741
 30
0
 70
     0
  0
VERTEX
  8
MACK_GRANITE_265
 10
-97.8678
 20
14.953
 30
0
 70
     0
  0
VERTEX
  8
MACK_GRANITE_265
 10
-98.233
 20
15.1503
 30
0
 70
     0
  0
VERTEX
  8
MACK_GRANITE_265
 10
-98.6067
 20
15.3325
 30
0
 70
     0
  0
VERTEX
  8
MACK_GRANITE_265
 10
-98.9883
 20
15.4992
 30
0
 70
     0
  0
VERTEX
  8
MACK_GRANITE_265
 10
-99.3774
 20
15.6503
 30
0
 70
     0
  0
VERTEX
  8
MACK_GRANITE_265
 10
-99.7736
 20
15.7852
 30
0
 70
     0
  0
VERTEX
  8
MACK_GRANITE_265
 10
-100.1764
 20
15.9037
 30
0
 70
     0
  0
VERTEX
  8
MACK_GRANITE_265
 10
-100.5853
 20
16.0055
 30
0
 70
     0
  0
VERTEX
  8
MACK_GRANITE_265
 10
-100.9999
 20
16.0902
 30
0
 70
     0
  0
VERTEX
  8
MACK_GRANITE_265
 10
-101.4197
 20
16.1574
 30
0
 70
     0
  0
VERTEX
  8
MACK_GRANITE_265
 10
-101.8443
 20
16.2069
 30
0
 70
     0
  0
VERTEX
  8
MACK_GRANITE_265
 10
-102.2733
 20
16.2383
 30
0
 70
     0
  0
VERTEX
  8
MACK_GRANITE_265
 10
-102.7062
 20
16.2512
 30
0
 70
     0
  0
VERTEX
  8
MACK_GRANITE_265
 10
-103.1424
 20
16.2453
 30
0
 70
     0
  0
SEQEND
  0
POLYLINE
  8
MACK_GRANITE_265
  6
CONTINUOUS
 62
     7
 66
     1
 40
0.0139
 41
0.0139
  0
VERTEX
  8
MACK_GRANITE_265
 10
-68.3241
 20
41.6821
 30
0
 70
     0
  0
VERTEX
  8
MACK_GRANITE_265
 10
-68.102
 20
41.6155
 30
0
 70
     0
  0
VERTEX
  8
MACK_GRANITE_265
 10
-67.8742
 20
41.5531
 30
0
 70
     0
  0
SEQEND
  0
POLYLINE
  8
MACK_GRANITE_265
  6
CONTINUOUS
 62
     7
 66
     1
 40
0.0139
 41
0.0139
  0
VERTEX
  8
MACK_GRANITE_265
 10
-68.4302
 20
41.5432
 30
0
 70
     0
  0
VERTEX
  8
MACK_GRANITE_265
 10
-68.3764
 20
41.6101
 30
0
 70
     0
  0
VERTEX
  8
MACK_GRANITE_265
 10
-68.3241
 20
41.6821
 30
0
 70
     0
  0
SEQEND
  0
POLYLINE
  8
MACK_GRANITE_265
  6
CONTINUOUS
 62
     7
 66
     1
 40
0.0139
 41
0.0139
  0
VERTEX
  8
MACK_GRANITE_265
 10
-68.0822
 20
41.0531
 30
0
 70
     0
  0
VERTEX
  8
MACK_GRANITE_265
 10
-68.0438
 20
41.0615
 30
0
 70
     0
  0
VERTEX
  8
MACK_GRANITE_265
 10
-68.0045
 20
41.0882
 30
0
 70
     0
  0
VERTEX
  8
MACK_GRANITE_265
 10
-67.9667
 20
41.1345
 30
0
 70
     0
  0
VERTEX
  8
MACK_GRANITE_265
 10
-67.9329
 20
41.1993
 30
0
 70
     0
  0
VERTEX
  8
MACK_GRANITE_265
 10
-67.8859
 20
41.3685
 30
0
 70
     0
  0
VERTEX
  8
MACK_GRANITE_265
 10
-67.8709
 20
41.5523
 30
0
 70
     0
  0
SEQEND
  0
POLYLINE
  8
MACK_GRANITE_265
  6
CONTINUOUS
 62
     7
 66
     1
 40
0.0139
 41
0.0139
  0
VERTEX
  8
MACK_GRANITE_265
 10
-68.4302
 20
57.9868
 30
0
 70
     0
  0
VERTEX
  8
MACK_GRANITE_265
 10
-68.481
 20
58.0363
 30
0
 70
     0
  0
VERTEX
  8
MACK_GRANITE_265
 10
-68.5354
 20
58.0531
 30
0
 70
     0
  0
SEQEND
  0
POLYLINE
  8
MACK_GRANITE_265
  6
CONTINUOUS
 62
     7
 66
     1
 40
0.0139
 41
0.0139
  0
VERTEX
  8
MACK_GRANITE_265
 10
-71.4937
 20
58.0531
 30
0
 70
     0
  0
VERTEX
  8
MACK_GRANITE_265
 10
-71.5322
 20
58.0448
 30
0
 70
     0
  0
VERTEX
  8
MACK_GRANITE_265
 10
-71.5715
 20
58.018
 30
0
 70
     0
  0
VERTEX
  8
MACK_GRANITE_265
 10
-71.6093
 20
57.9716
 30
0
 70
     0
  0
VERTEX
  8
MACK_GRANITE_265
 10
-71.6431
 20
57.9067
 30
0
 70
     0
  0
VERTEX
  8
MACK_GRANITE_265
 10
-71.6902
 20
57.7372
 30
0
 70
     0
  0
VERTEX
  8
MACK_GRANITE_265
 10
-71.705
 20
57.5531
 30
0
 70
     0
  0
SEQEND
  0
POLYLINE
  8
MACK_GRANITE_265
  6
CONTINUOUS
 62
     7
 66
     1
 40
0.0139
 41
0.0139
  0
VERTEX
  8
MACK_GRANITE_265
 10
-71.705
 20
41.5531
 30
0
 70
     0
  0
VERTEX
  8
MACK_GRANITE_265
 10
-71.6902
 20
41.3691
 30
0
 70
     0
  0
VERTEX
  8
MACK_GRANITE_265
 10
-71.6431
 20
41.1996
 30
0
 70
     0
  0
VERTEX
  8
MACK_GRANITE_265
 10
-71.6093
 20
41.1346
 30
0
 70
     0
  0
VERTEX
  8
MACK_GRANITE_265
 10
-71.5715
 20
41.0882
 30
0
 70
     0
  0
VERTEX
  8
MACK_GRANITE_265
 10
-71.5322
 20
41.0615
 30
0
 70
     0
  0
VERTEX
  8
MACK_GRANITE_265
 10
-71.4937
 20
41.0531
 30
0
 70
     0
  0
SEQEND
  0
POLYLINE
  8
MACK_GRANITE_265
  6
CONTINUOUS
 62
     7
 66
     1
 40
0.0139
 41
0.0139
  0
VERTEX
  8
MACK_GRANITE_265
 10
-68.5354
 20
41.0531
 30
0
 70
     0
  0
VERTEX
  8
MACK_GRANITE_265
 10
-68.4969
 20
41.0615
 30
0
 70
     0
  0
VERTEX
  8
MACK_GRANITE_265
 10
-68.4576
 20
41.0882
 30
0
 70
     0
  0
VERTEX
  8
MACK_GRANITE_265
 10
-68.4198
 20
41.1346
 30
0
 70
     0
  0
VERTEX
  8
MACK_GRANITE_265
 10
-68.386
 20
41.1996
 30
0
 70
     0
  0
VERTEX
  8
MACK_GRANITE_265
 10
-68.3389
 20
41.3691
 30
0
 70
     0
  0
VERTEX
  8
MACK_GRANITE_265
 10
-68.3241
 20
41.5531
 30
0
 70
     0
  0
SEQEND
  0
POLYLINE
  8
MACK_GRANITE_265
  6
CONTINUOUS
 62
     7
 66
     1
 40
0.0139
 41
0.0139
  0
VERTEX
  8
MACK_GRANITE_265
 10
-92.4694
 20
37.458
 30
0
 70
     0
  0
VERTEX
  8
MACK_GRANITE_265
 10
-92.5734
 20
37.4213
 30
0
 70
     0
  0
VERTEX
  8
MACK_GRANITE_265
 10
-92.678
 20
37.3374
 30
0
 70
     0
  0
VERTEX
  8
MACK_GRANITE_265
 10
-92.7305
 20
37.278
 30
0
 70
     0
  0
VERTEX
  8
MACK_GRANITE_265
 10
-92.7832
 20
37.2069
 30
0
 70
     0
  0
VERTEX
  8
MACK_GRANITE_265
 10
-92.836
 20
37.1239
 30
0
 70
     0
  0
VERTEX
  8
MACK_GRANITE_265
 10
-92.8884
 20
37.0298
 30
0
 70
     0
  0
VERTEX
  8
MACK_GRANITE_265
 10
-92.991
 20
36.8108
 30
0
 70
     0
  0
VERTEX
  8
MACK_GRANITE_265
 10
-93.0907
 20
36.5512
 30
0
 70
     0
  0
VERTEX
  8
MACK_GRANITE_265
 10
-93.1395
 20
36.4059
 30
0
 70
     0
  0
VERTEX
  8
MACK_GRANITE_265
 10
-93.1874
 20
36.2508
 30
0
 70
     0
  0
VERTEX
  8
MACK_GRANITE_265
 10
-93.2341
 20
36.087
 30
0
 70
     0
  0
VERTEX
  8
MACK_GRANITE_265
 10
-93.2793
 20
35.9155
 30
0
 70
     0
  0
VERTEX
  8
MACK_GRANITE_265
 10
-93.3652
 20
35.55
 30
0
 70
     0
  0
VERTEX
  8
MACK_GRANITE_265
 10
-93.4453
 20
35.1543
 30
0
 70
     0
  0
VERTEX
  8
MACK_GRANITE_265
 10
-93.483
 20
34.9455
 30
0
 70
     0
  0
VERTEX
  8
MACK_GRANITE_265
 10
-93.5188
 20
34.7312
 30
0
 70
     0
  0
VERTEX
  8
MACK_GRANITE_265
 10
-93.5525
 20
34.513
 30
0
 70
     0
  0
VERTEX
  8
MACK_GRANITE_265
 10
-93.5841
 20
34.2905
 30
0
 70
     0
  0
VERTEX
  8
MACK_GRANITE_265
 10
-93.6137
 20
34.0639
 30
0
 70
     0
  0
VERTEX
  8
MACK_GRANITE_265
 10
-93.6412
 20
33.8331
 30
0
 70
     0
  0
VERTEX
  8
MACK_GRANITE_265
 10
-93.6667
 20
33.5979
 30
0
 70
     0
  0
VERTEX
  8
MACK_GRANITE_265
 10
-93.6901
 20
33.3591
 30
0
 70
     0
  0
VERTEX
  8
MACK_GRANITE_265
 10
-93.7111
 20
33.1182
 30
0
 70
     0
  0
VERTEX
  8
MACK_GRANITE_265
 10
-93.7298
 20
32.876
 30
0
 70
     0
  0
VERTEX
  8
MACK_GRANITE_265
 10
-93.7382
 20
32.7545
 30
0
 70
     0
  0
VERTEX
  8
MACK_GRANITE_265
 10
-93.7461
 20
32.6327
 30
0
 70
     0
  0
VERTEX
  8
MACK_GRANITE_265
 10
-93.7498
 20
32.5717
 30
0
 70
     0
  0
VERTEX
  8
MACK_GRANITE_265
 10
-93.7533
 20
32.5106
 30
0
 70
     0
  0
VERTEX
  8
MACK_GRANITE_265
 10
-93.7567
 20
32.4493
 30
0
 70
     0
  0
VERTEX
  8
MACK_GRANITE_265
 10
-93.76
 20
32.3883
 30
0
 70
     0
  0
SEQEND
  0
POLYLINE
  8
MACK_GRANITE_265
  6
CONTINUOUS
 62
     7
 66
     1
 40
0.0139
 41
0.0139
  0
VERTEX
  8
MACK_GRANITE_265
 10
-141.2629
 20
25.0422
 30
0
 70
     0
  0
VERTEX
  8
MACK_GRANITE_265
 10
-141.4402
 20
24.9686
 30
0
 70
     0
  0
VERTEX
  8
MACK_GRANITE_265
 10
-141.6135
 20
24.8887
 30
0
 70
     0
  0
VERTEX
  8
MACK_GRANITE_265
 10
-141.7828
 20
24.8027
 30
0
 70
     0
  0
VERTEX
  8
MACK_GRANITE_265
 10
-141.9479
 20
24.7108
 30
0
 70
     0
  0
VERTEX
  8
MACK_GRANITE_265
 10
-142.1087
 20
24.6131
 30
0
 70
     0
  0
VERTEX
  8
MACK_GRANITE_265
 10
-142.2651
 20
24.5098
 30
0
 70
     0
  0
VERTEX
  8
MACK_GRANITE_265
 10
-142.4171
 20
24.4011
 30
0
 70
     0
  0
VERTEX
  8
MACK_GRANITE_265
 10
-142.5644
 20
24.2871
 30
0
 70
     0
  0
VERTEX
  8
MACK_GRANITE_265
 10
-142.8448
 20
24.044
 30
0
 70
     0
  0
VERTEX
  8
MACK_GRANITE_265
 10
-143.1054
 20
23.7816
 30
0
 70
     0
  0
VERTEX
  8
MACK_GRANITE_265
 10
-143.228
 20
23.6437
 30
0
 70
     0
  0
VERTEX
  8
MACK_GRANITE_265
 10
-143.3454
 20
23.5014
 30
0
 70
     0
  0
VERTEX
  8
MACK_GRANITE_265
 10
-143.4573
 20
23.355
 30
0
 70
     0
  0
VERTEX
  8
MACK_GRANITE_265
 10
-143.5638
 20
23.2047
 30
0
 70
     0
  0
VERTEX
  8
MACK_GRANITE_265
 10
-143.6647
 20
23.0505
 30
0
 70
     0
  0
VERTEX
  8
MACK_GRANITE_265
 10
-143.7598
 20
22.8926
 30
0
 70
     0
  0
VERTEX
  8
MACK_GRANITE_265
 10
-143.8492
 20
22.7313
 30
0
 70
     0
  0
VERTEX
  8
MACK_GRANITE_265
 10
-143.9325
 20
22.5667
 30
0
 70
     0
  0
VERTEX
  8
MACK_GRANITE_265
 10
-144.0099
 20
22.3988
 30
0
 70
     0
  0
VERTEX
  8
MACK_GRANITE_265
 10
-144.0811
 20
22.228
 30
0
 70
     0
  0
VERTEX
  8
MACK_GRANITE_265
 10
-144.146
 20
22.0543
 30
0
 70
     0
  0
VERTEX
  8
MACK_GRANITE_265
 10
-144.2045
 20
21.878
 30
0
 70
     0
  0
VERTEX
  8
MACK_GRANITE_265
 10
-144.2566
 20
21.6991
 30
0
 70
     0
  0
VERTEX
  8
MACK_GRANITE_265
 10
-144.302
 20
21.5179
 30
0
 70
     0
  0
VERTEX
  8
MACK_GRANITE_265
 10
-144.3407
 20
21.3345
 30
0
 70
     0
  0
VERTEX
  8
MACK_GRANITE_265
 10
-144.3726
 20
21.1491
 30
0
 70
     0
  0
VERTEX
  8
MACK_GRANITE_265
 10
-144.3976
 20
20.9618
 30
0
 70
     0
  0
VERTEX
  8
MACK_GRANITE_265
 10
-144.4156
 20
20.7728
 30
0
 70
     0
  0
VERTEX
  8
MACK_GRANITE_265
 10
-144.4263
 20
20.5823
 30
0
 70
     0
  0
VERTEX
  8
MACK_GRANITE_265
 10
-144.4298
 20
20.3903
 30
0
 70
     0
  0
SEQEND
  0
POLYLINE
  8
MACK_GRANITE_265
  6
CONTINUOUS
 62
     7
 66
     1
 40
0.0139
 41
0.0139
  0
VERTEX
  8
MACK_GRANITE_265
 10
-55.4302
 20
-23.5371
 30
0
 70
     0
  0
VERTEX
  8
MACK_GRANITE_265
 10
-25.4302
 20
-23.5371
 30
0
 70
     0
  0
SEQEND
  0
POLYLINE
  8
MACK_GRANITE_265
  6
CONTINUOUS
 62
     7
 66
     1
 40
0.0139
 41
0.0139
  0
VERTEX
  8
MACK_GRANITE_265
 10
-36.9302
 20
64.4629
 30
0
 70
     0
  0
VERTEX
  8
MACK_GRANITE_265
 10
-36.9302
 20
16.4629
 30
0
 70
     0
  0
SEQEND
  0
POLYLINE
  8
MACK_GRANITE_265
  6
CONTINUOUS
 62
     7
 66
     1
 40
0.0139
 41
0.0139
  0
VERTEX
  8
MACK_GRANITE_265
 10
-33.4302
 20
96.4629
 30
0
 70
     0
  0
VERTEX
  8
MACK_GRANITE_265
 10
-33.4302
 20
64.4629
 30
0
 70
     0
  0
SEQEND
  0
POLYLINE
  8
MACK_GRANITE_265
  6
CONTINUOUS
 62
     7
 66
     1
 40
0.0139
 41
0.0139
  0
VERTEX
  8
MACK_GRANITE_265
 10
-27.4302
 20
8.4629
 30
0
 70
     0
  0
VERTEX
  8
MACK_GRANITE_265
 10
-27.4302
 20
16.4629
 30
0
 70
     0
  0
SEQEND
  0
POLYLINE
  8
MACK_GRANITE_265
  6
CONTINUOUS
 62
     7
 66
     1
 40
0.0139
 41
0.0139
  0
VERTEX
  8
MACK_GRANITE_265
 10
-25.4302
 20
0.4629
 30
0
 70
     0
  0
VERTEX
  8
MACK_GRANITE_265
 10
-55.4302
 20
0.4629
 30
0
 70
     0
  0
SEQEND
  0
POLYLINE
  8
MACK_GRANITE_265
  6
CONTINUOUS
 62
     7
 66
     1
 40
0.0139
 41
0.0139
  0
VERTEX
  8
MACK_GRANITE_265
 10
-23.9302
 20
16.4629
 30
0
 70
     0
  0
VERTEX
  8
MACK_GRANITE_265
 10
-23.9302
 20
64.4629
 30
0
 70
     0
  0
SEQEND
  0
POLYLINE
  8
MACK_GRANITE_265
  6
CONTINUOUS
 62
     7
 66
     1
 40
0.0139
 41
0.0139
  0
VERTEX
  8
MACK_GRANITE_265
 10
-27.4302
 20
64.4629
 30
0
 70
     0
  0
VERTEX
  8
MACK_GRANITE_265
 10
-27.4302
 20
96.4629
 30
0
 70
     0
  0
SEQEND
  0
POLYLINE
  8
MACK_GRANITE_265
  6
CONTINUOUS
 62
     7
 66
     1
 40
0.0139
 41
0.0139
  0
VERTEX
  8
MACK_GRANITE_265
 10
-25.4302
 20
-23.5371
 30
0
 70
     0
  0
VERTEX
  8
MACK_GRANITE_265
 10
-25.4298
 20
-23.5371
 30
0
 70
     0
  0
SEQEND
  0
POLYLINE
  8
MACK_GRANITE_265
  6
CONTINUOUS
 62
     7
 66
     1
 40
0.0139
 41
0.0139
  0
VERTEX
  8
MACK_GRANITE_265
 10
-85.4883
 20
66.4024
 30
0
 70
     0
  0
VERTEX
  8
MACK_GRANITE_265
 10
-92.4298
 20
37.4629
 30
0
 70
     0
  0
SEQEND
  0
POLYLINE
  8
MACK_GRANITE_265
  6
CONTINUOUS
 62
     7
 66
     1
 40
0.0139
 41
0.0139
  0
VERTEX
  8
MACK_GRANITE_265
 10
57.6687
 20
0.4629
 30
0
 70
     0
  0
VERTEX
  8
MACK_GRANITE_265
 10
-25.4302
 20
0.4629
 30
0
 70
     0
  0
SEQEND
  0
POLYLINE
  8
MACK_GRANITE_265
  6
CONTINUOUS
 62
     7
 66
     1
 40
0.0139
 41
0.0139
  0
VERTEX
  8
MACK_GRANITE_265
 10
-55.4302
 20
0.4629
 30
0
 70
     0
  0
VERTEX
  8
MACK_GRANITE_265
 10
-134.4048
 20
0.4629
 30
0
 70
     0
  0
SEQEND
  0
POLYLINE
  8
MACK_GRANITE_265
  6
CONTINUOUS
 62
     7
 66
     1
 40
0.0139
 41
0.0139
  0
VERTEX
  8
MACK_GRANITE_265
 10
36.1614
 20
-12.7871
 30
0
 70
     0
  0
VERTEX
  8
MACK_GRANITE_265
 10
-19.4302
 20
-12.7871
 30
0
 70
     0
  0
SEQEND
  0
POLYLINE
  8
MACK_GRANITE_265
  6
CONTINUOUS
 62
     7
 66
     1
 40
0.0139
 41
0.0139
  0
VERTEX
  8
MACK_GRANITE_265
 10
-61.4302
 20
-12.7871
 30
0
 70
     0
  0
VERTEX
  8
MACK_GRANITE_265
 10
-68.5141
 20
-12.7871
 30
0
 70
     0
  0
SEQEND
  0
POLYLINE
  8
MACK_GRANITE_265
  6
CONTINUOUS
 62
     7
 66
     1
 40
0.0139
 41
0.0139
  0
VERTEX
  8
MACK_GRANITE_265
 10
-75.8456
 20
-12.7871
 30
0
 70
     0
  0
VERTEX
  8
MACK_GRANITE_265
 10
-95.9928
 20
-12.7871
 30
0
 70
     0
  0
SEQEND
  0
POLYLINE
  8
MACK_GRANITE_265
  6
CONTINUOUS
 62
     7
 66
     1
 40
0.0139
 41
0.0139
  0
VERTEX
  8
MACK_GRANITE_265
 10
-134.8669
 20
-12.7871
 30
0
 70
     0
  0
VERTEX
  8
MACK_GRANITE_265
 10
-143.4298
 20
-12.7871
 30
0
 70
     0
  0
SEQEND
  0
POLYLINE
  8
MACK_GRANITE_265
  6
CONTINUOUS
 62
     7
 66
     1
 40
0.0139
 41
0.0139
  0
VERTEX
  8
MACK_GRANITE_265
 10
-143.4298
 20
-12.7871
 30
0
 70
     0
  0
VERTEX
  8
MACK_GRANITE_265
 10
-143.4298
 20
-6.2371
 30
0
 70
     0
  0
SEQEND
  0
POLYLINE
  8
MACK_GRANITE_265
  6
CONTINUOUS
 62
     7
 66
     1
 40
0.0139
 41
0.0139
  0
VERTEX
  8
MACK_GRANITE_265
 10
-37.4302
 20
1.4629
 30
0
 70
     0
  0
VERTEX
  8
MACK_GRANITE_265
 10
-43.4302
 20
1.4629
 30
0
 70
     0
  0
SEQEND
  0
POLYLINE
  8
MACK_GRANITE_265
  6
CONTINUOUS
 62
     7
 66
     1
 40
0.0139
 41
0.0139
  0
VERTEX
  8
MACK_GRANITE_265
 10
-37.4302
 20
66.4661
 30
0
 70
     0
  0
VERTEX
  8
MACK_GRANITE_265
 10
-37.4302
 20
1.4629
 30
0
 70
     0
  0
SEQEND
  0
POLYLINE
  8
MACK_GRANITE_265
  6
CONTINUOUS
 62
     7
 66
     1
 40
0.0139
 41
0.0139
  0
VERTEX
  8
MACK_GRANITE_265
 10
-144.4298
 20
-6.2371
 30
0
 70
     0
  0
VERTEX
  8
MACK_GRANITE_265
 10
-144.4298
 20
5.1671
 30
0
 70
     0
  0
SEQEND
  0
POLYLINE
  8
MACK_GRANITE_265
  6
CONTINUOUS
 62
     7
 66
     1
 40
0.0139
 41
0.0139
  0
VERTEX
  8
MACK_GRANITE_265
 10
-141.4298
 20
-6.2371
 30
0
 70
     0
  0
VERTEX
  8
MACK_GRANITE_265
 10
-144.4298
 20
-6.2371
 30
0
 70
     0
  0
SEQEND
  0
POLYLINE
  8
MACK_GRANITE_265
  6
CONTINUOUS
 62
     7
 66
     1
 40
0.0139
 41
0.0139
  0
VERTEX
  8
MACK_GRANITE_265
 10
-91.2048
 20
1.4629
 30
0
 70
     0
  0
VERTEX
  8
MACK_GRANITE_265
 10
-94.3064
 20
1.4629
 30
0
 70
     0
  0
SEQEND
  0
POLYLINE
  8
MACK_GRANITE_265
  6
CONTINUOUS
 62
     7
 66
     1
 40
0.0139
 41
0.0139
  0
VERTEX
  8
MACK_GRANITE_265
 10
-93.1274
 20
8.7893
 30
0
 70
     0
  0
VERTEX
  8
MACK_GRANITE_265
 10
-91.2048
 20
1.4629
 30
0
 70
     0
  0
SEQEND
  0
POLYLINE
  8
MACK_GRANITE_265
  6
CONTINUOUS
 62
     7
 66
     1
 40
0.0139
 41
0.0139
  0
VERTEX
  8
MACK_GRANITE_265
 10
-134.7724
 20
15.1612
 30
0
 70
     0
  0
VERTEX
  8
MACK_GRANITE_265
 10
-103.1424
 20
16.2453
 30
0
 70
     0
  0
SEQEND
  0
POLYLINE
  8
MACK_GRANITE_265
  6
CONTINUOUS
 62
     7
 66
     1
 40
0.0139
 41
0.0139
  0
VERTEX
  8
MACK_GRANITE_265
 10
-19.4298
 20
-12.7871
 30
0
 70
     0
  0
VERTEX
  8
MACK_GRANITE_265
 10
-19.4298
 20
-17.5371
 30
0
 70
     0
  0
SEQEND
  0
POLYLINE
  8
MACK_GRANITE_265
  6
CONTINUOUS
 62
     7
 66
     1
 40
0.0139
 41
0.0139
  0
VERTEX
  8
MACK_GRANITE_265
 10
-61.4302
 20
-5.5371
 30
0
 70
     0
  0
VERTEX
  8
MACK_GRANITE_265
 10
-61.4302
 20
-17.5371
 30
0
 70
     0
  0
SEQEND
  0
POLYLINE
  8
MACK_GRANITE_265
  6
CONTINUOUS
 62
     7
 66
     1
 40
0.0139
 41
0.0139
  0
VERTEX
  8
MACK_GRANITE_265
 10
-19.4302
 20
-17.5371
 30
0
 70
     0
  0
VERTEX
  8
MACK_GRANITE_265
 10
-19.4302
 20
-5.5371
 30
0
 70
     0
  0
SEQEND
  0
POLYLINE
  8
MACK_GRANITE_265
  6
CONTINUOUS
 62
     7
 66
     1
 40
0.0139
 41
0.0139
  0
VERTEX
  8
MACK_GRANITE_265
 10
-33.4302
 20
16.4629
 30
0
 70
     0
  0
VERTEX
  8
MACK_GRANITE_265
 10
-33.4302
 20
8.4629
 30
0
 70
     0
  0
SEQEND
  0
POLYLINE
  8
MACK_GRANITE_265
  6
CONTINUOUS
 62
     7
 66
     1
 40
0.0139
 41
0.0139
  0
VERTEX
  8
MACK_GRANITE_265
 10
-67.8709
 20
41.5523
 30
0
 70
     0
  0
VERTEX
  8
MACK_GRANITE_265
 10
-67.8742
 20
41.5531
 30
0
 70
     0
  0
SEQEND
  0
POLYLINE
  8
MACK_GRANITE_265
  6
CONTINUOUS
 62
     7
 66
     1
 40
0.0139
 41
0.0139
  0
VERTEX
  8
MACK_GRANITE_265
 10
-34.1798
 20
-19.7371
 30
0
 70
     0
  0
VERTEX
  8
MACK_GRANITE_265
 10
-82.1798
 20
-19.7371
 30
0
 70
     0
  0
SEQEND
  0
POLYLINE
  8
MACK_GRANITE_265
  6
CONTINUOUS
 62
     7
 66
     1
 40
0.0139
 41
0.0139
  0
VERTEX
  8
MACK_GRANITE_265
 10
-82.1798
 20
-21.7371
 30
0
 70
     0
  0
VERTEX
  8
MACK_GRANITE_265
 10
-34.1798
 20
-21.7371
 30
0
 70
     0
  0
SEQEND
  0
POLYLINE
  8
MACK_GRANITE_265
  6
CONTINUOUS
 62
     7
 66
     1
 40
0.0139
 41
0.0139
  0
VERTEX
  8
MACK_GRANITE_265
 10
-82.1798
 20
-19.7371
 30
0
 70
     0
  0
VERTEX
  8
MACK_GRANITE_265
 10
-82.1798
 20
-21.7371
 30
0
 70
     0
  0
SEQEND
  0
POLYLINE
  8
MACK_GRANITE_265
  6
CONTINUOUS
 62
     7
 66
     1
 40
0.0139
 41
0.0139
  0
VERTEX
  8
MACK_GRANITE_265
 10
-34.1798
 20
-21.7371
 30
0
 70
     0
  0
VERTEX
  8
MACK_GRANITE_265
 10
-34.1798
 20
-19.7371
 30
0
 70
     0
  0
SEQEND
  0
POLYLINE
  8
MACK_GRANITE_265
  6
CONTINUOUS
 62
     7
 66
     1
 40
0.0139
 41
0.0139
  0
VERTEX
  8
MACK_GRANITE_265
 10
-34.1798
 20
-1.7371
 30
0
 70
     0
  0
VERTEX
  8
MACK_GRANITE_265
 10
-82.1798
 20
-1.7371
 30
0
 70
     0
  0
SEQEND
  0
POLYLINE
  8
MACK_GRANITE_265
  6
CONTINUOUS
 62
     7
 66
     1
 40
0.0139
 41
0.0139
  0
VERTEX
  8
MACK_GRANITE_265
 10
-82.1798
 20
-1.7371
 30
0
 70
     0
  0
VERTEX
  8
MACK_GRANITE_265
 10
-82.1798
 20
-3.7371
 30
0
 70
     0
  0
SEQEND
  0
POLYLINE
  8
MACK_GRANITE_265
  6
CONTINUOUS
 62
     7
 66
     1
 40
0.0139
 41
0.0139
  0
VERTEX
  8
MACK_GRANITE_265
 10
-82.1798
 20
-3.7371
 30
0
 70
     0
  0
VERTEX
  8
MACK_GRANITE_265
 10
-34.1798
 20
-3.7371
 30
0
 70
     0
  0
SEQEND
  0
POLYLINE
  8
MACK_GRANITE_265
  6
CONTINUOUS
 62
     7
 66
     1
 40
0.0139
 41
0.0139
  0
VERTEX
  8
MACK_GRANITE_265
 10
-34.1798
 20
-3.7371
 30
0
 70
     0
  0
VERTEX
  8
MACK_GRANITE_265
 10
-34.1798
 20
-1.7371
 30
0
 70
     0
  0
SEQEND
  0
POLYLINE
  8
MACK_GRANITE_265
  6
CONTINUOUS
 62
     7
 66
     1
 40
0.0139
 41
0.0139
  0
VERTEX
  8
MACK_GRANITE_265
 10
-84.4302
 20
35.4629
 30
0
 70
     0
  0
VERTEX
  8
MACK_GRANITE_265
 10
-84.4302
 20
6.4629
 30
0
 70
     0
  0
SEQEND
  0
POLYLINE
  8
MACK_GRANITE_265
  6
CONTINUOUS
 62
     7
 66
     1
 40
0.0139
 41
0.0139
  0
VERTEX
  8
MACK_GRANITE_265
 10
-84.4302
 20
6.4629
 30
0
 70
     0
  0
VERTEX
  8
MACK_GRANITE_265
 10
-50.4302
 20
6.4629
 30
0
 70
     0
  0
SEQEND
  0
POLYLINE
  8
MACK_GRANITE_265
  6
CONTINUOUS
 62
     7
 66
     1
 40
0.0139
 41
0.0139
  0
VERTEX
  8
MACK_GRANITE_265
 10
-85.0451
 20
5.7129
 30
0
 70
     0
  0
VERTEX
  8
MACK_GRANITE_265
 10
-49.6802
 20
5.7129
 30
0
 70
     0
  0
SEQEND
  0
POLYLINE
  8
MACK_GRANITE_265
  6
CONTINUOUS
 62
     7
 66
     1
 40
0.0139
 41
0.0139
  0
VERTEX
  8
MACK_GRANITE_265
 10
-50.4302
 20
60.4629
 30
0
 70
     0
  0
VERTEX
  8
MACK_GRANITE_265
 10
-67.4302
 20
60.4629
 30
0
 70
     0
  0
SEQEND
  0
POLYLINE
  8
MACK_GRANITE_265
  6
CONTINUOUS
 62
     7
 66
     1
 40
0.0139
 41
0.0139
  0
VERTEX
  8
MACK_GRANITE_265
 10
-68.4302
 20
60.4629
 30
0
 70
     0
  0
VERTEX
  8
MACK_GRANITE_265
 10
-78.4302
 20
60.4629
 30
0
 70
     0
  0
SEQEND
  0
POLYLINE
  8
MACK_GRANITE_265
  6
CONTINUOUS
 62
     7
 66
     1
 40
0.0139
 41
0.0139
  0
VERTEX
  8
MACK_GRANITE_265
 10
-78.4302
 20
60.4629
 30
0
 70
     0
  0
VERTEX
  8
MACK_GRANITE_265
 10
-84.4302
 20
35.4629
 30
0
 70
     0
  0
SEQEND
  0
POLYLINE
  8
MACK_GRANITE_265
  6
CONTINUOUS
 62
     7
 66
     1
 40
0.0139
 41
0.0139
  0
VERTEX
  8
MACK_GRANITE_265
 10
-50.4302
 20
6.4629
 30
0
 70
     0
  0
VERTEX
  8
MACK_GRANITE_265
 10
-50.4302
 20
60.4629
 30
0
 70
     0
  0
SEQEND
  0
POLYLINE
  8
MACK_GRANITE_265
  6
CONTINUOUS
 62
     7
 66
     1
 40
0.0139
 41
0.0139
  0
VERTEX
  8
MACK_GRANITE_265
 10
-79.0215
 20
61.2129
 30
0
 70
     0
  0
VERTEX
  8
MACK_GRANITE_265
 10
-85.0451
 20
36.1145
 30
0
 70
     0
  0
SEQEND
  0
POLYLINE
  8
MACK_GRANITE_265
  6
CONTINUOUS
 62
     7
 66
     1
 40
0.0139
 41
0.0139
  0
VERTEX
  8
MACK_GRANITE_265
 10
-49.6802
 20
61.2129
 30
0
 70
     0
  0
VERTEX
  8
MACK_GRANITE_265
 10
-79.0215
 20
61.2129
 30
0
 70
     0
  0
SEQEND
  0
POLYLINE
  8
MACK_GRANITE_265
  6
CONTINUOUS
 62
     7
 66
     1
 40
0.0139
 41
0.0139
  0
VERTEX
  8
MACK_GRANITE_265
 10
-49.6802
 20
5.7129
 30
0
 70
     0
  0
VERTEX
  8
MACK_GRANITE_265
 10
-49.6802
 20
61.2129
 30
0
 70
     0
  0
SEQEND
  0
POLYLINE
  8
MACK_GRANITE_265
  6
CONTINUOUS
 62
     7
 66
     1
 40
0.0139
 41
0.0139
  0
VERTEX
  8
MACK_GRANITE_265
 10
-52.4302
 20
32.9629
 30
0
 70
     0
  0
VERTEX
  8
MACK_GRANITE_265
 10
-52.4302
 20
58.4629
 30
0
 70
     0
  0
SEQEND
  0
POLYLINE
  8
MACK_GRANITE_265
  6
CONTINUOUS
 62
     7
 66
     1
 40
0.0139
 41
0.0139
  0
VERTEX
  8
MACK_GRANITE_265
 10
-76.8534
 20
58.4629
 30
0
 70
     0
  0
VERTEX
  8
MACK_GRANITE_265
 10
-82.8534
 20
33.4629
 30
0
 70
     0
  0
SEQEND
  0
POLYLINE
  8
MACK_GRANITE_265
  6
CONTINUOUS
 62
     7
 66
     1
 40
0.0139
 41
0.0139
  0
VERTEX
  8
MACK_GRANITE_265
 10
-52.4302
 20
58.4629
 30
0
 70
     0
  0
VERTEX
  8
MACK_GRANITE_265
 10
-67.4302
 20
58.4629
 30
0
 70
     0
  0
SEQEND
  0
POLYLINE
  8
MACK_GRANITE_265
  6
CONTINUOUS
 62
     7
 66
     1
 40
0.0139
 41
0.0139
  0
VERTEX
  8
MACK_GRANITE_265
 10
-68.4302
 20
58.4629
 30
0
 70
     0
  0
VERTEX
  8
MACK_GRANITE_265
 10
-76.8534
 20
58.4629
 30
0
 70
     0
  0
SEQEND
  0
POLYLINE
  8
MACK_GRANITE_265
  6
CONTINUOUS
 62
     7
 66
     1
 40
0.0139
 41
0.0139
  0
VERTEX
  8
MACK_GRANITE_265
 10
-64.4302
 20
32.9629
 30
0
 70
     0
  0
VERTEX
  8
MACK_GRANITE_265
 10
-52.4302
 20
32.9629
 30
0
 70
     0
  0
SEQEND
  0
POLYLINE
  8
MACK_GRANITE_265
  6
CONTINUOUS
 62
     7
 66
     1
 40
0.0139
 41
0.0139
  0
VERTEX
  8
MACK_GRANITE_265
 10
-72.8534
 20
27.9629
 30
0
 70
     0
  0
VERTEX
  8
MACK_GRANITE_265
 10
-68.4302
 20
30.5885
 30
0
 70
     0
  0
SEQEND
  0
POLYLINE
  8
MACK_GRANITE_265
  6
CONTINUOUS
 62
     7
 66
     1
 40
0.0139
 41
0.0139
  0
VERTEX
  8
MACK_GRANITE_265
 10
-67.4302
 20
31.1821
 30
0
 70
     0
  0
VERTEX
  8
MACK_GRANITE_265
 10
-64.4302
 20
32.9629
 30
0
 70
     0
  0
SEQEND
  0
POLYLINE
  8
MACK_GRANITE_265
  6
CONTINUOUS
 62
     7
 66
     1
 40
0.0139
 41
0.0139
  0
VERTEX
  8
MACK_GRANITE_265
 10
-82.8534
 20
27.9629
 30
0
 70
     0
  0
VERTEX
  8
MACK_GRANITE_265
 10
-72.8534
 20
27.9629
 30
0
 70
     0
  0
SEQEND
  0
POLYLINE
  8
MACK_GRANITE_265
  6
CONTINUOUS
 62
     7
 66
     1
 40
0.0139
 41
0.0139
  0
VERTEX
  8
MACK_GRANITE_265
 10
-82.8534
 20
33.4629
 30
0
 70
     0
  0
VERTEX
  8
MACK_GRANITE_265
 10
-82.8534
 20
27.9629
 30
0
 70
     0
  0
SEQEND
  0
POLYLINE
  8
MACK_GRANITE_265
  6
CONTINUOUS
 62
     7
 66
     1
 40
0.0139
 41
0.0139
  0
VERTEX
  8
MACK_GRANITE_265
 10
-49.6802
 20
17.2379
 30
0
 70
     0
  0
VERTEX
  8
MACK_GRANITE_265
 10
-50.4298
 20
17.2379
 30
0
 70
     0
  0
SEQEND
  0
POLYLINE
  8
MACK_GRANITE_265
  6
CONTINUOUS
 62
     7
 66
     1
 40
0.0139
 41
0.0139
  0
VERTEX
  8
MACK_GRANITE_265
 10
-50.4298
 20
13.7379
 30
0
 70
     0
  0
VERTEX
  8
MACK_GRANITE_265
 10
-49.6802
 20
13.7379
 30
0
 70
     0
  0
SEQEND
  0
POLYLINE
  8
MACK_GRANITE_265
  6
CONTINUOUS
 62
     7
 66
     1
 40
0.0139
 41
0.0139
  0
VERTEX
  8
MACK_GRANITE_265
 10
-68.4302
 20
60.6661
 30
0
 70
     0
  0
VERTEX
  8
MACK_GRANITE_265
 10
-67.4302
 20
60.6661
 30
0
 70
     0
  0
SEQEND
  0
POLYLINE
  8
MACK_GRANITE_265
  6
CONTINUOUS
 62
     7
 66
     1
 40
0.0139
 41
0.0139
  0
VERTEX
  8
MACK_GRANITE_265
 10
-68.4302
 20
28.6661
 30
0
 70
     0
  0
VERTEX
  8
MACK_GRANITE_265
 10
-67.4302
 20
28.6661
 30
0
 70
     0
  0
SEQEND
  0
POLYLINE
  8
MACK_GRANITE_265
  6
CONTINUOUS
 62
     7
 66
     1
 40
0.0139
 41
0.0139
  0
VERTEX
  8
MACK_GRANITE_265
 10
-67.9459
 20
41.1712
 30
0
 70
     0
  0
VERTEX
  8
MACK_GRANITE_265
 10
-67.4302
 20
41.1712
 30
0
 70
     0
  0
SEQEND
  0
POLYLINE
  8
MACK_GRANITE_265
  6
CONTINUOUS
 62
     7
 66
     1
 40
0.0139
 41
0.0139
  0
VERTEX
  8
MACK_GRANITE_265
 10
-68.4302
 20
59.1661
 30
0
 70
     0
  0
VERTEX
  8
MACK_GRANITE_265
 10
-68.4302
 20
60.6661
 30
0
 70
     0
  0
SEQEND
  0
POLYLINE
  8
MACK_GRANITE_265
  6
CONTINUOUS
 62
     7
 66
     1
 40
0.0139
 41
0.0139
  0
VERTEX
  8
MACK_GRANITE_265
 10
-68.4302
 20
57.1712
 30
0
 70
     0
  0
VERTEX
  8
MACK_GRANITE_265
 10
-68.4302
 20
59.1661
 30
0
 70
     0
  0
SEQEND
  0
POLYLINE
  8
MACK_GRANITE_265
  6
CONTINUOUS
 62
     7
 66
     1
 40
0.0139
 41
0.0139
  0
VERTEX
  8
MACK_GRANITE_265
 10
-67.4302
 20
57.1712
 30
0
 70
     0
  0
VERTEX
  8
MACK_GRANITE_265
 10
-67.4302
 20
59.1661
 30
0
 70
     0
  0
SEQEND
  0
POLYLINE
  8
MACK_GRANITE_265
  6
CONTINUOUS
 62
     7
 66
     1
 40
0.0139
 41
0.0139
  0
VERTEX
  8
MACK_GRANITE_265
 10
-68.4302
 20
28.6661
 30
0
 70
     0
  0
VERTEX
  8
MACK_GRANITE_265
 10
-68.4302
 20
31.0806
 30
0
 70
     0
  0
SEQEND
  0
POLYLINE
  8
MACK_GRANITE_265
  6
CONTINUOUS
 62
     7
 66
     1
 40
0.0139
 41
0.0139
  0
VERTEX
  8
MACK_GRANITE_265
 10
-68.4302
 20
31.0806
 30
0
 70
     0
  0
VERTEX
  8
MACK_GRANITE_265
 10
-68.4302
 20
38.7567
 30
0
 70
     0
  0
SEQEND
  0
POLYLINE
  8
MACK_GRANITE_265
  6
CONTINUOUS
 62
     7
 66
     1
 40
0.0139
 41
0.0139
  0
VERTEX
  8
MACK_GRANITE_265
 10
-68.4302
 20
38.7567
 30
0
 70
     0
  0
VERTEX
  8
MACK_GRANITE_265
 10
-68.4302
 20
41.0531
 30
0
 70
     0
  0
SEQEND
  0
POLYLINE
  8
MACK_GRANITE_265
  6
CONTINUOUS
 62
     7
 66
     1
 40
0.0139
 41
0.0139
  0
VERTEX
  8
MACK_GRANITE_265
 10
-68.4302
 20
41.5432
 30
0
 70
     0
  0
VERTEX
  8
MACK_GRANITE_265
 10
-68.4302
 20
44.1712
 30
0
 70
     0
  0
SEQEND
  0
POLYLINE
  8
MACK_GRANITE_265
  6
CONTINUOUS
 62
     7
 66
     1
 40
0.0139
 41
0.0139
  0
VERTEX
  8
MACK_GRANITE_265
 10
-68.4302
 20
44.1712
 30
0
 70
     0
  0
VERTEX
  8
MACK_GRANITE_265
 10
-68.4302
 20
57.1712
 30
0
 70
     0
  0
SEQEND
  0
POLYLINE
  8
MACK_GRANITE_265
  6
CONTINUOUS
 62
     7
 66
     1
 40
0.0139
 41
0.0139
  0
VERTEX
  8
MACK_GRANITE_265
 10
-67.4302
 20
59.1661
 30
0
 70
     0
  0
VERTEX
  8
MACK_GRANITE_265
 10
-67.4302
 20
60.6661
 30
0
 70
     0
  0
SEQEND
  0
POLYLINE
  8
MACK_GRANITE_265
  6
CONTINUOUS
 62
     7
 66
     1
 40
0.0139
 41
0.0139
  0
VERTEX
  8
MACK_GRANITE_265
 10
-67.4302
 20
44.1712
 30
0
 70
     0
  0
VERTEX
  8
MACK_GRANITE_265
 10
-67.4302
 20
57.1712
 30
0
 70
     0
  0
SEQEND
  0
POLYLINE
  8
MACK_GRANITE_265
  6
CONTINUOUS
 62
     7
 66
     1
 40
0.0139
 41
0.0139
  0
VERTEX
  8
MACK_GRANITE_265
 10
-67.4302
 20
28.6661
 30
0
 70
     0
  0
VERTEX
  8
MACK_GRANITE_265
 10
-67.4302
 20
31.0806
 30
0
 70
     0
  0
SEQEND
  0
POLYLINE
  8
MACK_GRANITE_265
  6
CONTINUOUS
 62
     7
 66
     1
 40
0.0139
 41
0.0139
  0
VERTEX
  8
MACK_GRANITE_265
 10
-67.4302
 20
31.0806
 30
0
 70
     0
  0
VERTEX
  8
MACK_GRANITE_265
 10
-67.4302
 20
38.7567
 30
0
 70
     0
  0
SEQEND
  0
POLYLINE
  8
MACK_GRANITE_265
  6
CONTINUOUS
 62
     7
 66
     1
 40
0.0139
 41
0.0139
  0
VERTEX
  8
MACK_GRANITE_265
 10
-67.4302
 20
38.7567
 30
0
 70
     0
  0
VERTEX
  8
MACK_GRANITE_265
 10
-67.4302
 20
41.1712
 30
0
 70
     0
  0
SEQEND
  0
POLYLINE
  8
MACK_GRANITE_265
  6
CONTINUOUS
 62
     7
 66
     1
 40
0.0139
 41
0.0139
  0
VERTEX
  8
MACK_GRANITE_265
 10
-67.4302
 20
41.1712
 30
0
 70
     0
  0
VERTEX
  8
MACK_GRANITE_265
 10
-67.4302
 20
44.1712
 30
0
 70
     0
  0
SEQEND
  0
POLYLINE
  8
MACK_GRANITE_265
  6
CONTINUOUS
 62
     7
 66
     1
 40
0.0139
 41
0.0139
  0
VERTEX
  8
MACK_GRANITE_265
 10
-68.0822
 20
41.0531
 30
0
 70
     0
  0
VERTEX
  8
MACK_GRANITE_265
 10
-68.5354
 20
41.0531
 30
0
 70
     0
  0
SEQEND
  0
POLYLINE
  8
MACK_GRANITE_265
  6
CONTINUOUS
 62
     7
 66
     1
 40
0.0139
 41
0.0139
  0
VERTEX
  8
MACK_GRANITE_265
 10
-68.4302
 20
58.0531
 30
0
 70
     0
  0
VERTEX
  8
MACK_GRANITE_265
 10
-68.5354
 20
58.0531
 30
0
 70
     0
  0
SEQEND
  0
POLYLINE
  8
MACK_GRANITE_265
  6
CONTINUOUS
 62
     7
 66
     1
 40
0.0139
 41
0.0139
  0
VERTEX
  8
MACK_GRANITE_265
 10
-71.4937
 20
58.0531
 30
0
 70
     0
  0
VERTEX
  8
MACK_GRANITE_265
 10
-68.5354
 20
58.0531
 30
0
 70
     0
  0
SEQEND
  0
POLYLINE
  8
MACK_GRANITE_265
  6
CONTINUOUS
 62
     7
 66
     1
 40
0.0139
 41
0.0139
  0
VERTEX
  8
MACK_GRANITE_265
 10
-68.3241
 20
41.6821
 30
0
 70
     0
  0
VERTEX
  8
MACK_GRANITE_265
 10
-68.3241
 20
41.5531
 30
0
 70
     0
  0
SEQEND
  0
POLYLINE
  8
MACK_GRANITE_265
  6
CONTINUOUS
 62
     7
 66
     1
 40
0.0139
 41
0.0139
  0
VERTEX
  8
MACK_GRANITE_265
 10
-71.705
 20
41.5531
 30
0
 70
     0
  0
VERTEX
  8
MACK_GRANITE_265
 10
-71.705
 20
57.5531
 30
0
 70
     0
  0
SEQEND
  0
POLYLINE
  8
MACK_GRANITE_265
  6
CONTINUOUS
 62
     7
 66
     1
 40
0.0139
 41
0.0139
  0
VERTEX
  8
MACK_GRANITE_265
 10
-68.5354
 20
41.0531
 30
0
 70
     0
  0
VERTEX
  8
MACK_GRANITE_265
 10
-71.4937
 20
41.0531
 30
0
 70
     0
  0
SEQEND
  0
POLYLINE
  8
MACK_GRANITE_265
  6
CONTINUOUS
 62
     7
 66
     1
 40
0.0139
 41
0.0139
  0
VERTEX
  8
MACK_GRANITE_265
 10
-27.4302
 20
96.4629
 30
0
 70
     0
  0
VERTEX
  8
MACK_GRANITE_265
 10
-33.4302
 20
96.4629
 30
0
 70
     0
  0
SEQEND
  0
POLYLINE
  8
MACK_GRANITE_265
  6
CONTINUOUS
 62
     7
 66
     1
 40
0.0139
 41
0.0139
  0
VERTEX
  8
MACK_GRANITE_265
 10
-23.9302
 20
64.4629
 30
0
 70
     0
  0
VERTEX
  8
MACK_GRANITE_265
 10
-36.9302
 20
64.4629
 30
0
 70
     0
  0
SEQEND
  0
POLYLINE
  8
MACK_GRANITE_265
  6
CONTINUOUS
 62
     7
 66
     1
 40
0.0139
 41
0.0139
  0
VERTEX
  8
MACK_GRANITE_265
 10
-23.9302
 20
16.4629
 30
0
 70
     0
  0
VERTEX
  8
MACK_GRANITE_265
 10
-36.9302
 20
16.4629
 30
0
 70
     0
  0
SEQEND
  0
POLYLINE
  8
MACK_GRANITE_265
  6
CONTINUOUS
 62
     7
 66
     1
 40
0.0139
 41
0.0139
  0
VERTEX
  8
MACK_GRANITE_265
 10
-27.4302
 20
8.4629
 30
0
 70
     0
  0
VERTEX
  8
MACK_GRANITE_265
 10
-33.4302
 20
8.4629
 30
0
 70
     0
  0
SEQEND
  0
POLYLINE
  8
MACK_GRANITE_265
  6
CONTINUOUS
 62
     7
 66
     1
 40
0.0139
 41
0.0139
  0
VERTEX
  8
MACK_GRANITE_265
 10
-63.6798
 20
-11.2371
 30
0
 70
     0
  0
VERTEX
  8
MACK_GRANITE_265
 10
-80.6798
 20
-11.2371
 30
0
 70
     0
  0
SEQEND
  0
POLYLINE
  8
MACK_GRANITE_265
  6
CONTINUOUS
 62
     7
 66
     1
 40
0.0139
 41
0.0139
  0
VERTEX
  8
MACK_GRANITE_265
 10
-80.6798
 20
-11.2371
 30
0
 70
     0
  0
VERTEX
  8
MACK_GRANITE_265
 10
-80.6798
 20
-3.7371
 30
0
 70
     0
  0
SEQEND
  0
POLYLINE
  8
MACK_GRANITE_265
  6
CONTINUOUS
 62
     7
 66
     1
 40
0.0139
 41
0.0139
  0
VERTEX
  8
MACK_GRANITE_265
 10
-80.6798
 20
-1.7371
 30
0
 70
     0
  0
VERTEX
  8
MACK_GRANITE_265
 10
-80.6798
 20
-1.2371
 30
0
 70
     0
  0
SEQEND
  0
POLYLINE
  8
MACK_GRANITE_265
  6
CONTINUOUS
 62
     7
 66
     1
 40
0.0139
 41
0.0139
  0
VERTEX
  8
MACK_GRANITE_265
 10
-63.6798
 20
-1.2371
 30
0
 70
     0
  0
VERTEX
  8
MACK_GRANITE_265
 10
-63.6798
 20
-1.7371
 30
0
 70
     0
  0
SEQEND
  0
POLYLINE
  8
MACK_GRANITE_265
  6
CONTINUOUS
 62
     7
 66
     1
 40
0.0139
 41
0.0139
  0
VERTEX
  8
MACK_GRANITE_265
 10
-63.6798
 20
-3.7371
 30
0
 70
     0
  0
VERTEX
  8
MACK_GRANITE_265
 10
-63.6798
 20
-11.2371
 30
0
 70
     0
  0
SEQEND
  0
POLYLINE
  8
MACK_GRANITE_265
  6
CONTINUOUS
 62
     7
 66
     1
 40
0.0139
 41
0.0139
  0
VERTEX
  8
MACK_GRANITE_265
 10
-80.6798
 20
-1.2371
 30
0
 70
     0
  0
VERTEX
  8
MACK_GRANITE_265
 10
-63.6798
 20
-1.2371
 30
0
 70
     0
  0
SEQEND
  0
POLYLINE
  8
MACK_GRANITE_265
  6
CONTINUOUS
 62
     7
 66
     1
 40
0.0139
 41
0.0139
  0
VERTEX
  8
MACK_GRANITE_265
 10
-146.9298
 20
-10.2371
 30
0
 70
     0
  0
VERTEX
  8
MACK_GRANITE_265
 10
-144.4298
 20
-10.2371
 30
0
 70
     0
  0
SEQEND
  0
POLYLINE
  8
MACK_GRANITE_265
  6
CONTINUOUS
 62
     7
 66
     1
 40
0.0139
 41
0.0139
  0
VERTEX
  8
MACK_GRANITE_265
 10
-146.9298
 20
-20.7371
 30
0
 70
     0
  0
VERTEX
  8
MACK_GRANITE_265
 10
-144.4298
 20
-20.7371
 30
0
 70
     0
  0
SEQEND
  0
POLYLINE
  8
MACK_GRANITE_265
  6
CONTINUOUS
 62
     7
 66
     1
 40
0.0139
 41
0.0139
  0
VERTEX
  8
MACK_GRANITE_265
 10
-144.4298
 20
-20.7371
 30
0
 70
     0
  0
VERTEX
  8
MACK_GRANITE_265
 10
-144.4298
 20
-10.2371
 30
0
 70
     0
  0
SEQEND
  0
POLYLINE
  8
MACK_GRANITE_265
  6
CONTINUOUS
 62
     7
 66
     1
 40
0.0139
 41
0.0139
  0
VERTEX
  8
MACK_GRANITE_265
 10
-146.9298
 20
-20.7371
 30
0
 70
     0
  0
VERTEX
  8
MACK_GRANITE_265
 10
-150.4298
 20
-20.7371
 30
0
 70
     0
  0
SEQEND
  0
POLYLINE
  8
MACK_GRANITE_265
  6
CONTINUOUS
 62
     7
 66
     1
 40
0.0139
 41
0.0139
  0
VERTEX
  8
MACK_GRANITE_265
 10
-146.9298
 20
-10.2371
 30
0
 70
     0
  0
VERTEX
  8
MACK_GRANITE_265
 10
-150.4298
 20
-10.2371
 30
0
 70
     0
  0
SEQEND
  0
POLYLINE
  8
MACK_GRANITE_265
  6
CONTINUOUS
 62
     7
 66
     1
 40
0.0139
 41
0.0139
  0
VERTEX
  8
MACK_GRANITE_265
 10
-146.9298
 20
-20.7371
 30
0
 70
     0
  0
VERTEX
  8
MACK_GRANITE_265
 10
-146.9298
 20
-10.2371
 30
0
 70
     0
  0
SEQEND
  0
POLYLINE
  8
MACK_GRANITE_265
  6
CONTINUOUS
 62
     7
 66
     1
 40
0.0139
 41
0.0139
  0
VERTEX
  8
MACK_GRANITE_265
 10
-85.5994
 20
36.2625
 30
0
 70
     0
  0
VERTEX
  8
MACK_GRANITE_265
 10
-85.6223
 20
36.2632
 30
0
 70
     0
  0
VERTEX
  8
MACK_GRANITE_265
 10
-85.6449
 20
36.2602
 30
0
 70
     0
  0
VERTEX
  8
MACK_GRANITE_265
 10
-85.6561
 20
36.2576
 30
0
 70
     0
  0
VERTEX
  8
MACK_GRANITE_265
 10
-85.6671
 20
36.2542
 30
0
 70
     0
  0
VERTEX
  8
MACK_GRANITE_265
 10
-85.6779
 20
36.2503
 30
0
 70
     0
  0
VERTEX
  8
MACK_GRANITE_265
 10
-85.6884
 20
36.2458
 30
0
 70
     0
  0
VERTEX
  8
MACK_GRANITE_265
 10
-85.7088
 20
36.2355
 30
0
 70
     0
  0
VERTEX
  8
MACK_GRANITE_265
 10
-85.7285
 20
36.2236
 30
0
 70
     0
  0
VERTEX
  8
MACK_GRANITE_265
 10
-85.7474
 20
36.2106
 30
0
 70
     0
  0
VERTEX
  8
MACK_GRANITE_265
 10
-85.7656
 20
36.1967
 30
0
 70
     0
  0
VERTEX
  8
MACK_GRANITE_265
 10
-85.8
 20
36.1668
 30
0
 70
     0
  0
VERTEX
  8
MACK_GRANITE_265
 10
-85.8324
 20
36.1348
 30
0
 70
     0
  0
VERTEX
  8
MACK_GRANITE_265
 10
-85.8634
 20
36.1011
 30
0
 70
     0
  0
VERTEX
  8
MACK_GRANITE_265
 10
-85.8931
 20
36.0662
 30
0
 70
     0
  0
VERTEX
  8
MACK_GRANITE_265
 10
-85.9492
 20
35.9939
 30
0
 70
     0
  0
VERTEX
  8
MACK_GRANITE_265
 10
-86.0017
 20
35.9193
 30
0
 70
     0
  0
VERTEX
  8
MACK_GRANITE_265
 10
-86.0517
 20
35.8432
 30
0
 70
     0
  0
VERTEX
  8
MACK_GRANITE_265
 10
-86.0995
 20
35.7657
 30
0
 70
     0
  0
VERTEX
  8
MACK_GRANITE_265
 10
-86.1906
 20
35.6079
 30
0
 70
     0
  0
VERTEX
  8
MACK_GRANITE_265
 10
-86.2769
 20
35.4471
 30
0
 70
     0
  0
VERTEX
  8
MACK_GRANITE_265
 10
-86.3596
 20
35.2841
 30
0
 70
     0
  0
VERTEX
  8
MACK_GRANITE_265
 10
-86.4393
 20
35.1196
 30
0
 70
     0
  0
VERTEX
  8
MACK_GRANITE_265
 10
-86.5166
 20
34.9541
 30
0
 70
     0
  0
VERTEX
  8
MACK_GRANITE_265
 10
-86.5918
 20
34.7878
 30
0
 70
     0
  0
VERTEX
  8
MACK_GRANITE_265
 10
-86.6653
 20
34.6207
 30
0
 70
     0
  0
VERTEX
  8
MACK_GRANITE_265
 10
-86.7373
 20
34.453
 30
0
 70
     0
  0
VERTEX
  8
MACK_GRANITE_265
 10
-86.8775
 20
34.116
 30
0
 70
     0
  0
VERTEX
  8
MACK_GRANITE_265
 10
-87.0135
 20
33.7773
 30
0
 70
     0
  0
VERTEX
  8
MACK_GRANITE_265
 10
-87.1461
 20
33.4371
 30
0
 70
     0
  0
VERTEX
  8
MACK_GRANITE_265
 10
-87.2758
 20
33.0958
 30
0
 70
     0
  0
VERTEX
  8
MACK_GRANITE_265
 10
-87.4031
 20
32.7535
 30
0
 70
     0
  0
VERTEX
  8
MACK_GRANITE_265
 10
-87.5283
 20
32.4103
 30
0
 70
     0
  0
VERTEX
  8
MACK_GRANITE_265
 10
-87.7733
 20
31.7218
 30
0
 70
     0
  0
VERTEX
  8
MACK_GRANITE_265
 10
-88.0123
 20
31.0309
 30
0
 70
     0
  0
SEQEND
  0
POLYLINE
  8
MACK_GRANITE_265
  6
CONTINUOUS
 62
     7
 66
     1
 40
0.0139
 41
0.0139
  0
VERTEX
  8
MACK_GRANITE_265
 10
-88.0123
 20
31.0309
 30
0
 70
     0
  0
VERTEX
  8
MACK_GRANITE_265
 10
-87.9704
 20
31.1665
 30
0
 70
     0
  0
VERTEX
  8
MACK_GRANITE_265
 10
-87.9368
 20
31.3033
 30
0
 70
     0
  0
VERTEX
  8
MACK_GRANITE_265
 10
-87.9115
 20
31.4415
 30
0
 70
     0
  0
VERTEX
  8
MACK_GRANITE_265
 10
-87.8941
 20
31.5809
 30
0
 70
     0
  0
VERTEX
  8
MACK_GRANITE_265
 10
-87.8883
 20
31.651
 30
0
 70
     0
  0
VERTEX
  8
MACK_GRANITE_265
 10
-87.8842
 20
31.7214
 30
0
 70
     0
  0
VERTEX
  8
MACK_GRANITE_265
 10
-87.8818
 20
31.7918
 30
0
 70
     0
  0
VERTEX
  8
MACK_GRANITE_265
 10
-87.8811
 20
31.8619
 30
0
 70
     0
  0
VERTEX
  8
MACK_GRANITE_265
 10
-87.8839
 20
32.0007
 30
0
 70
     0
  0
VERTEX
  8
MACK_GRANITE_265
 10
-87.8916
 20
32.1381
 30
0
 70
     0
  0
VERTEX
  8
MACK_GRANITE_265
 10
-87.9034
 20
32.2741
 30
0
 70
     0
  0
VERTEX
  8
MACK_GRANITE_265
 10
-87.9186
 20
32.4088
 30
0
 70
     0
  0
VERTEX
  8
MACK_GRANITE_265
 10
-87.9364
 20
32.5424
 30
0
 70
     0
  0
VERTEX
  8
MACK_GRANITE_265
 10
-87.9564
 20
32.6749
 30
0
 70
     0
  0
VERTEX
  8
MACK_GRANITE_265
 10
-87.9671
 20
32.7408
 30
0
 70
     0
  0
VERTEX
  8
MACK_GRANITE_265
 10
-87.9781
 20
32.8064
 30
0
 70
     0
  0
VERTEX
  8
MACK_GRANITE_265
 10
-87.9894
 20
32.8716
 30
0
 70
     0
  0
VERTEX
  8
MACK_GRANITE_265
 10
-88.0009
 20
32.9363
 30
0
 70
     0
  0
VERTEX
  8
MACK_GRANITE_265
 10
-88.0244
 20
33.0643
 30
0
 70
     0
  0
VERTEX
  8
MACK_GRANITE_265
 10
-88.0483
 20
33.1907
 30
0
 70
     0
  0
VERTEX
  8
MACK_GRANITE_265
 10
-88.0963
 20
33.4386
 30
0
 70
     0
  0
VERTEX
  8
MACK_GRANITE_265
 10
-88.1432
 20
33.6804
 30
0
 70
     0
  0
VERTEX
  8
MACK_GRANITE_265
 10
-88.1874
 20
33.9163
 30
0
 70
     0
  0
VERTEX
  8
MACK_GRANITE_265
 10
-88.2276
 20
34.1464
 30
0
 70
     0
  0
VERTEX
  8
MACK_GRANITE_265
 10
-88.2459
 20
34.2592
 30
0
 70
     0
  0
VERTEX
  8
MACK_GRANITE_265
 10
-88.2627
 20
34.3706
 30
0
 70
     0
  0
VERTEX
  8
MACK_GRANITE_265
 10
-88.2705
 20
34.4258
 30
0
 70
     0
  0
VERTEX
  8
MACK_GRANITE_265
 10
-88.2779
 20
34.4806
 30
0
 70
     0
  0
VERTEX
  8
MACK_GRANITE_265
 10
-88.2848
 20
34.5349
 30
0
 70
     0
  0
VERTEX
  8
MACK_GRANITE_265
 10
-88.2913
 20
34.5889
 30
0
 70
     0
  0
VERTEX
  8
MACK_GRANITE_265
 10
-88.312
 20
34.7988
 30
0
 70
     0
  0
VERTEX
  8
MACK_GRANITE_265
 10
-88.3235
 20
34.9994
 30
0
 70
     0
  0
SEQEND
  0
POLYLINE
  8
MACK_GRANITE_265
  6
CONTINUOUS
 62
     7
 66
     1
 40
0.0139
 41
0.0139
  0
VERTEX
  8
MACK_GRANITE_265
 10
-78.9345
 20
69.1394
 30
0
 70
     0
  0
VERTEX
  8
MACK_GRANITE_265
 10
-80.9448
 20
68.9088
 30
0
 70
     0
  0
VERTEX
  8
MACK_GRANITE_265
 10
-82.9529
 20
68.6603
 30
0
 70
     0
  0
SEQEND
  0
POLYLINE
  8
MACK_GRANITE_265
  6
CONTINUOUS
 62
     7
 66
     1
 40
0.0139
 41
0.0139
  0
VERTEX
  8
MACK_GRANITE_265
 10
-105.3345
 20
-20.7371
 30
0
 70
     0
  0
VERTEX
  8
MACK_GRANITE_265
 10
-105.3379
 20
-20.996
 30
0
 70
     0
  0
VERTEX
  8
MACK_GRANITE_265
 10
-105.3478
 20
-21.2533
 30
0
 70
     0
  0
VERTEX
  8
MACK_GRANITE_265
 10
-105.3642
 20
-21.5091
 30
0
 70
     0
  0
VERTEX
  8
MACK_GRANITE_265
 10
-105.3871
 20
-21.7631
 30
0
 70
     0
  0
VERTEX
  8
MACK_GRANITE_265
 10
-105.4163
 20
-22.0154
 30
0
 70
     0
  0
VERTEX
  8
MACK_GRANITE_265
 10
-105.4518
 20
-22.2659
 30
0
 70
     0
  0
VERTEX
  8
MACK_GRANITE_265
 10
-105.4934
 20
-22.5144
 30
0
 70
     0
  0
VERTEX
  8
MACK_GRANITE_265
 10
-105.5412
 20
-22.7609
 30
0
 70
     0
  0
VERTEX
  8
MACK_GRANITE_265
 10
-105.595
 20
-23.0054
 30
0
 70
     0
  0
VERTEX
  8
MACK_GRANITE_265
 10
-105.6547
 20
-23.2476
 30
0
 70
     0
  0
VERTEX
  8
MACK_GRANITE_265
 10
-105.7203
 20
-23.4876
 30
0
 70
     0
  0
VERTEX
  8
MACK_GRANITE_265
 10
-105.7916
 20
-23.7253
 30
0
 70
     0
  0
VERTEX
  8
MACK_GRANITE_265
 10
-105.8687
 20
-23.9605
 30
0
 70
     0
  0
VERTEX
  8
MACK_GRANITE_265
 10
-105.9513
 20
-24.1932
 30
0
 70
     0
  0
VERTEX
  8
MACK_GRANITE_265
 10
-106.0395
 20
-24.4234
 30
0
 70
     0
  0
VERTEX
  8
MACK_GRANITE_265
 10
-106.1331
 20
-24.6509
 30
0
 70
     0
  0
VERTEX
  8
MACK_GRANITE_265
 10
-106.2321
 20
-24.8756
 30
0
 70
     0
  0
VERTEX
  8
MACK_GRANITE_265
 10
-106.3364
 20
-25.0975
 30
0
 70
     0
  0
VERTEX
  8
MACK_GRANITE_265
 10
-106.4459
 20
-25.3166
 30
0
 70
     0
  0
VERTEX
  8
MACK_GRANITE_265
 10
-106.5605
 20
-25.5326
 30
0
 70
     0
  0
VERTEX
  8
MACK_GRANITE_265
 10
-106.8048
 20
-25.9553
 30
0
 70
     0
  0
VERTEX
  8
MACK_GRANITE_265
 10
-107.0685
 20
-26.3651
 30
0
 70
     0
  0
VERTEX
  8
MACK_GRANITE_265
 10
-107.3511
 20
-26.7612
 30
0
 70
     0
  0
VERTEX
  8
MACK_GRANITE_265
 10
-107.6519
 20
-27.1431
 30
0
 70
     0
  0
VERTEX
  8
MACK_GRANITE_265
 10
-107.9702
 20
-27.5101
 30
0
 70
     0
  0
VERTEX
  8
MACK_GRANITE_265
 10
-108.3054
 20
-27.8615
 30
0
 70
     0
  0
VERTEX
  8
MACK_GRANITE_265
 10
-108.6568
 20
-28.1967
 30
0
 70
     0
  0
VERTEX
  8
MACK_GRANITE_265
 10
-109.0238
 20
-28.5151
 30
0
 70
     0
  0
VERTEX
  8
MACK_GRANITE_265
 10
-109.4057
 20
-28.8158
 30
0
 70
     0
  0
VERTEX
  8
MACK_GRANITE_265
 10
-109.8019
 20
-29.0984
 30
0
 70
     0
  0
VERTEX
  8
MACK_GRANITE_265
 10
-110.2117
 20
-29.3622
 30
0
 70
     0
  0
VERTEX
  8
MACK_GRANITE_265
 10
-110.6344
 20
-29.6064
 30
0
 70
     0
  0
VERTEX
  8
MACK_GRANITE_265
 10
-110.8504
 20
-29.721
 30
0
 70
     0
  0
VERTEX
  8
MACK_GRANITE_265
 10
-111.0694
 20
-29.8305
 30
0
 70
     0
  0
VERTEX
  8
MACK_GRANITE_265
 10
-111.2913
 20
-29.9348
 30
0
 70
     0
  0
VERTEX
  8
MACK_GRANITE_265
 10
-111.5161
 20
-30.0338
 30
0
 70
     0
  0
VERTEX
  8
MACK_GRANITE_265
 10
-111.7436
 20
-30.1274
 30
0
 70
     0
  0
VERTEX
  8
MACK_GRANITE_265
 10
-111.9737
 20
-30.2156
 30
0
 70
     0
  0
VERTEX
  8
MACK_GRANITE_265
 10
-112.2064
 20
-30.2983
 30
0
 70
     0
  0
VERTEX
  8
MACK_GRANITE_265
 10
-112.4417
 20
-30.3753
 30
0
 70
     0
  0
VERTEX
  8
MACK_GRANITE_265
 10
-112.6793
 20
-30.4467
 30
0
 70
     0
  0
VERTEX
  8
MACK_GRANITE_265
 10
-112.9193
 20
-30.5123
 30
0
 70
     0
  0
VERTEX
  8
MACK_GRANITE_265
 10
-113.1616
 20
-30.572
 30
0
 70
     0
  0
VERTEX
  8
MACK_GRANITE_265
 10
-113.406
 20
-30.6258
 30
0
 70
     0
  0
VERTEX
  8
MACK_GRANITE_265
 10
-113.6525
 20
-30.6735
 30
0
 70
     0
  0
VERTEX
  8
MACK_GRANITE_265
 10
-113.9011
 20
-30.7152
 30
0
 70
     0
  0
VERTEX
  8
MACK_GRANITE_265
 10
-114.1515
 20
-30.7507
 30
0
 70
     0
  0
VERTEX
  8
MACK_GRANITE_265
 10
-114.4038
 20
-30.7799
 30
0
 70
     0
  0
VERTEX
  8
MACK_GRANITE_265
 10
-114.6579
 20
-30.8027
 30
0
 70
     0
  0
VERTEX
  8
MACK_GRANITE_265
 10
-114.9136
 20
-30.8192
 30
0
 70
     0
  0
VERTEX
  8
MACK_GRANITE_265
 10
-115.171
 20
-30.8291
 30
0
 70
     0
  0
VERTEX
  8
MACK_GRANITE_265
 10
-115.4298
 20
-30.8324
 30
0
 70
     0
  0
VERTEX
  8
MACK_GRANITE_265
 10
-115.4298
 20
-30.8324
 30
0
 70
     0
  0
VERTEX
  8
MACK_GRANITE_265
 10
-115.6887
 20
-30.8291
 30
0
 70
     0
  0
VERTEX
  8
MACK_GRANITE_265
 10
-115.9461
 20
-30.8192
 30
0
 70
     0
  0
VERTEX
  8
MACK_GRANITE_265
 10
-116.2018
 20
-30.8027
 30
0
 70
     0
  0
VERTEX
  8
MACK_GRANITE_265
 10
-116.4559
 20
-30.7799
 30
0
 70
     0
  0
VERTEX
  8
MACK_GRANITE_265
 10
-116.7082
 20
-30.7507
 30
0
 70
     0
  0
VERTEX
  8
MACK_GRANITE_265
 10
-116.9586
 20
-30.7152
 30
0
 70
     0
  0
VERTEX
  8
MACK_GRANITE_265
 10
-117.2072
 20
-30.6735
 30
0
 70
     0
  0
VERTEX
  8
MACK_GRANITE_265
 10
-117.4537
 20
-30.6258
 30
0
 70
     0
  0
VERTEX
  8
MACK_GRANITE_265
 10
-117.6981
 20
-30.572
 30
0
 70
     0
  0
VERTEX
  8
MACK_GRANITE_265
 10
-117.9404
 20
-30.5123
 30
0
 70
     0
  0
VERTEX
  8
MACK_GRANITE_265
 10
-118.1803
 20
-30.4467
 30
0
 70
     0
  0
VERTEX
  8
MACK_GRANITE_265
 10
-118.418
 20
-30.3753
 30
0
 70
     0
  0
VERTEX
  8
MACK_GRANITE_265
 10
-118.6532
 20
-30.2983
 30
0
 70
     0
  0
VERTEX
  8
MACK_GRANITE_265
 10
-118.886
 20
-30.2156
 30
0
 70
     0
  0
VERTEX
  8
MACK_GRANITE_265
 10
-119.1161
 20
-30.1274
 30
0
 70
     0
  0
VERTEX
  8
MACK_GRANITE_265
 10
-119.3436
 20
-30.0338
 30
0
 70
     0
  0
VERTEX
  8
MACK_GRANITE_265
 10
-119.5684
 20
-29.9348
 30
0
 70
     0
  0
VERTEX
  8
MACK_GRANITE_265
 10
-119.7903
 20
-29.8305
 30
0
 70
     0
  0
VERTEX
  8
MACK_GRANITE_265
 10
-120.0093
 20
-29.721
 30
0
 70
     0
  0
VERTEX
  8
MACK_GRANITE_265
 10
-120.2253
 20
-29.6064
 30
0
 70
     0
  0
VERTEX
  8
MACK_GRANITE_265
 10
-120.648
 20
-29.3622
 30
0
 70
     0
  0
VERTEX
  8
MACK_GRANITE_265
 10
-121.0578
 20
-29.0984
 30
0
 70
     0
  0
VERTEX
  8
MACK_GRANITE_265
 10
-121.454
 20
-28.8158
 30
0
 70
     0
  0
VERTEX
  8
MACK_GRANITE_265
 10
-121.8359
 20
-28.5151
 30
0
 70
     0
  0
VERTEX
  8
MACK_GRANITE_265
 10
-122.2029
 20
-28.1967
 30
0
 70
     0
  0
VERTEX
  8
MACK_GRANITE_265
 10
-122.5543
 20
-27.8615
 30
0
 70
     0
  0
VERTEX
  8
MACK_GRANITE_265
 10
-122.8895
 20
-27.5101
 30
0
 70
     0
  0
VERTEX
  8
MACK_GRANITE_265
 10
-123.2078
 20
-27.1431
 30
0
 70
     0
  0
VERTEX
  8
MACK_GRANITE_265
 10
-123.5086
 20
-26.7612
 30
0
 70
     0
  0
VERTEX
  8
MACK_GRANITE_265
 10
-123.7912
 20
-26.3651
 30
0
 70
     0
  0
VERTEX
  8
MACK_GRANITE_265
 10
-124.0549
 20
-25.9553
 30
0
 70
     0
  0
VERTEX
  8
MACK_GRANITE_265
 10
-124.2992
 20
-25.5326
 30
0
 70
     0
  0
VERTEX
  8
MACK_GRANITE_265
 10
-124.4138
 20
-25.3166
 30
0
 70
     0
  0
VERTEX
  8
MACK_GRANITE_265
 10
-124.5233
 20
-25.0975
 30
0
 70
     0
  0
VERTEX
  8
MACK_GRANITE_265
 10
-124.6276
 20
-24.8756
 30
0
 70
     0
  0
VERTEX
  8
MACK_GRANITE_265
 10
-124.7266
 20
-24.6509
 30
0
 70
     0
  0
VERTEX
  8
MACK_GRANITE_265
 10
-124.8202
 20
-24.4234
 30
0
 70
     0
  0
VERTEX
  8
MACK_GRANITE_265
 10
-124.9084
 20
-24.1932
 30
0
 70
     0
  0
VERTEX
  8
MACK_GRANITE_265
 10
-124.991
 20
-23.9605
 30
0
 70
     0
  0
VERTEX
  8
MACK_GRANITE_265
 10
-125.0681
 20
-23.7253
 30
0
 70
     0
  0
VERTEX
  8
MACK_GRANITE_265
 10
-125.1394
 20
-23.4876
 30
0
 70
     0
  0
VERTEX
  8
MACK_GRANITE_265
 10
-125.205
 20
-23.2476
 30
0
 70
     0
  0
VERTEX
  8
MACK_GRANITE_265
 10
-125.2647
 20
-23.0054
 30
0
 70
     0
  0
VERTEX
  8
MACK_GRANITE_265
 10
-125.3185
 20
-22.7609
 30
0
 70
     0
  0
VERTEX
  8
MACK_GRANITE_265
 10
-125.3663
 20
-22.5144
 30
0
 70
     0
  0
VERTEX
  8
MACK_GRANITE_265
 10
-125.4079
 20
-22.2659
 30
0
 70
     0
  0
VERTEX
  8
MACK_GRANITE_265
 10
-125.4434
 20
-22.0154
 30
0
 70
     0
  0
VERTEX
  8
MACK_GRANITE_265
 10
-125.4726
 20
-21.7631
 30
0
 70
     0
  0
VERTEX
  8
MACK_GRANITE_265
 10
-125.4955
 20
-21.5091
 30
0
 70
     0
  0
VERTEX
  8
MACK_GRANITE_265
 10
-125.5119
 20
-21.2533
 30
0
 70
     0
  0
VERTEX
  8
MACK_GRANITE_265
 10
-125.5218
 20
-20.996
 30
0
 70
     0
  0
VERTEX
  8
MACK_GRANITE_265
 10
-125.5251
 20
-20.7371
 30
0
 70
     0
  0
VERTEX
  8
MACK_GRANITE_265
 10
-125.5251
 20
-20.7371
 30
0
 70
     0
  0
VERTEX
  8
MACK_GRANITE_265
 10
-125.5218
 20
-20.4782
 30
0
 70
     0
  0
VERTEX
  8
MACK_GRANITE_265
 10
-125.5119
 20
-20.2209
 30
0
 70
     0
  0
VERTEX
  8
MACK_GRANITE_265
 10
-125.4955
 20
-19.9651
 30
0
 70
     0
  0
VERTEX
  8
MACK_GRANITE_265
 10
-125.4726
 20
-19.7111
 30
0
 70
     0
  0
VERTEX
  8
MACK_GRANITE_265
 10
-125.4434
 20
-19.4588
 30
0
 70
     0
  0
VERTEX
  8
MACK_GRANITE_265
 10
-125.4079
 20
-19.2083
 30
0
 70
     0
  0
VERTEX
  8
MACK_GRANITE_265
 10
-125.3663
 20
-18.9598
 30
0
 70
     0
  0
VERTEX
  8
MACK_GRANITE_265
 10
-125.3185
 20
-18.7133
 30
0
 70
     0
  0
VERTEX
  8
MACK_GRANITE_265
 10
-125.2647
 20
-18.4689
 30
0
 70
     0
  0
VERTEX
  8
MACK_GRANITE_265
 10
-125.205
 20
-18.2266
 30
0
 70
     0
  0
VERTEX
  8
MACK_GRANITE_265
 10
-125.1394
 20
-17.9866
 30
0
 70
     0
  0
VERTEX
  8
MACK_GRANITE_265
 10
-125.0681
 20
-17.7489
 30
0
 70
     0
  0
VERTEX
  8
MACK_GRANITE_265
 10
-124.991
 20
-17.5137
 30
0
 70
     0
  0
VERTEX
  8
MACK_GRANITE_265
 10
-124.9084
 20
-17.281
 30
0
 70
     0
  0
VERTEX
  8
MACK_GRANITE_265
 10
-124.8202
 20
-17.0508
 30
0
 70
     0
  0
VERTEX
  8
MACK_GRANITE_265
 10
-124.7266
 20
-16.8233
 30
0
 70
     0
  0
VERTEX
  8
MACK_GRANITE_265
 10
-124.6276
 20
-16.5986
 30
0
 70
     0
  0
VERTEX
  8
MACK_GRANITE_265
 10
-124.5233
 20
-16.3767
 30
0
 70
     0
  0
VERTEX
  8
MACK_GRANITE_265
 10
-124.4138
 20
-16.1577
 30
0
 70
     0
  0
VERTEX
  8
MACK_GRANITE_265
 10
-124.2992
 20
-15.9416
 30
0
 70
     0
  0
VERTEX
  8
MACK_GRANITE_265
 10
-124.0549
 20
-15.5189
 30
0
 70
     0
  0
VERTEX
  8
MACK_GRANITE_265
 10
-123.7912
 20
-15.1091
 30
0
 70
     0
  0
VERTEX
  8
MACK_GRANITE_265
 10
-123.5086
 20
-14.713
 30
0
 70
     0
  0
VERTEX
  8
MACK_GRANITE_265
 10
-123.2078
 20
-14.3311
 30
0
 70
     0
  0
VERTEX
  8
MACK_GRANITE_265
 10
-122.8895
 20
-13.9641
 30
0
 70
     0
  0
VERTEX
  8
MACK_GRANITE_265
 10
-122.5543
 20
-13.6127
 30
0
 70
     0
  0
VERTEX
  8
MACK_GRANITE_265
 10
-122.2029
 20
-13.2775
 30
0
 70
     0
  0
VERTEX
  8
MACK_GRANITE_265
 10
-121.8359
 20
-12.9591
 30
0
 70
     0
  0
VERTEX
  8
MACK_GRANITE_265
 10
-121.454
 20
-12.6584
 30
0
 70
     0
  0
VERTEX
  8
MACK_GRANITE_265
 10
-121.0578
 20
-12.3758
 30
0
 70
     0
  0
VERTEX
  8
MACK_GRANITE_265
 10
-120.648
 20
-12.112
 30
0
 70
     0
  0
VERTEX
  8
MACK_GRANITE_265
 10
-120.2253
 20
-11.8678
 30
0
 70
     0
  0
VERTEX
  8
MACK_GRANITE_265
 10
-120.0093
 20
-11.7532
 30
0
 70
     0
  0
VERTEX
  8
MACK_GRANITE_265
 10
-119.7903
 20
-11.6437
 30
0
 70
     0
  0
VERTEX
  8
MACK_GRANITE_265
 10
-119.5684
 20
-11.5394
 30
0
 70
     0
  0
VERTEX
  8
MACK_GRANITE_265
 10
-119.3436
 20
-11.4404
 30
0
 70
     0
  0
VERTEX
  8
MACK_GRANITE_265
 10
-119.1161
 20
-11.3468
 30
0
 70
     0
  0
VERTEX
  8
MACK_GRANITE_265
 10
-118.886
 20
-11.2586
 30
0
 70
     0
  0
VERTEX
  8
MACK_GRANITE_265
 10
-118.6532
 20
-11.1759
 30
0
 70
     0
  0
VERTEX
  8
MACK_GRANITE_265
 10
-118.418
 20
-11.0989
 30
0
 70
     0
  0
VERTEX
  8
MACK_GRANITE_265
 10
-118.1803
 20
-11.0275
 30
0
 70
     0
  0
VERTEX
  8
MACK_GRANITE_265
 10
-117.9404
 20
-10.9619
 30
0
 70
     0
  0
VERTEX
  8
MACK_GRANITE_265
 10
-117.6981
 20
-10.9022
 30
0
 70
     0
  0
VERTEX
  8
MACK_GRANITE_265
 10
-117.4537
 20
-10.8484
 30
0
 70
     0
  0
VERTEX
  8
MACK_GRANITE_265
 10
-117.2072
 20
-10.8007
 30
0
 70
     0
  0
VERTEX
  8
MACK_GRANITE_265
 10
-116.9586
 20
-10.759
 30
0
 70
     0
  0
VERTEX
  8
MACK_GRANITE_265
 10
-116.7082
 20
-10.7235
 30
0
 70
     0
  0
VERTEX
  8
MACK_GRANITE_265
 10
-116.4559
 20
-10.6943
 30
0
 70
     0
  0
VERTEX
  8
MACK_GRANITE_265
 10
-116.2018
 20
-10.6715
 30
0
 70
     0
  0
VERTEX
  8
MACK_GRANITE_265
 10
-115.9461
 20
-10.655
 30
0
 70
     0
  0
VERTEX
  8
MACK_GRANITE_265
 10
-115.6887
 20
-10.6451
 30
0
 70
     0
  0
VERTEX
  8
MACK_GRANITE_265
 10
-115.4298
 20
-10.6418
 30
0
 70
     0
  0
VERTEX
  8
MACK_GRANITE_265
 10
-115.4298
 20
-10.6418
 30
0
 70
     0
  0
VERTEX
  8
MACK_GRANITE_265
 10
-115.171
 20
-10.6451
 30
0
 70
     0
  0
VERTEX
  8
MACK_GRANITE_265
 10
-114.9136
 20
-10.655
 30
0
 70
     0
  0
VERTEX
  8
MACK_GRANITE_265
 10
-114.6579
 20
-10.6715
 30
0
 70
     0
  0
VERTEX
  8
MACK_GRANITE_265
 10
-114.4038
 20
-10.6943
 30
0
 70
     0
  0
VERTEX
  8
MACK_GRANITE_265
 10
-114.1515
 20
-10.7235
 30
0
 70
     0
  0
VERTEX
  8
MACK_GRANITE_265
 10
-113.9011
 20
-10.759
 30
0
 70
     0
  0
VERTEX
  8
MACK_GRANITE_265
 10
-113.6525
 20
-10.8007
 30
0
 70
     0
  0
VERTEX
  8
MACK_GRANITE_265
 10
-113.406
 20
-10.8484
 30
0
 70
     0
  0
VERTEX
  8
MACK_GRANITE_265
 10
-113.1616
 20
-10.9022
 30
0
 70
     0
  0
VERTEX
  8
MACK_GRANITE_265
 10
-112.9193
 20
-10.9619
 30
0
 70
     0
  0
VERTEX
  8
MACK_GRANITE_265
 10
-112.6793
 20
-11.0275
 30
0
 70
     0
  0
VERTEX
  8
MACK_GRANITE_265
 10
-112.4417
 20
-11.0989
 30
0
 70
     0
  0
VERTEX
  8
MACK_GRANITE_265
 10
-112.2064
 20
-11.1759
 30
0
 70
     0
  0
VERTEX
  8
MACK_GRANITE_265
 10
-111.9737
 20
-11.2586
 30
0
 70
     0
  0
VERTEX
  8
MACK_GRANITE_265
 10
-111.7436
 20
-11.3468
 30
0
 70
     0
  0
VERTEX
  8
MACK_GRANITE_265
 10
-111.5161
 20
-11.4404
 30
0
 70
     0
  0
VERTEX
  8
MACK_GRANITE_265
 10
-111.2913
 20
-11.5394
 30
0
 70
     0
  0
VERTEX
  8
MACK_GRANITE_265
 10
-111.0694
 20
-11.6437
 30
0
 70
     0
  0
VERTEX
  8
MACK_GRANITE_265
 10
-110.8504
 20
-11.7532
 30
0
 70
     0
  0
VERTEX
  8
MACK_GRANITE_265
 10
-110.6344
 20
-11.8678
 30
0
 70
     0
  0
VERTEX
  8
MACK_GRANITE_265
 10
-110.2117
 20
-12.112
 30
0
 70
     0
  0
VERTEX
  8
MACK_GRANITE_265
 10
-109.8019
 20
-12.3758
 30
0
 70
     0
  0
VERTEX
  8
MACK_GRANITE_265
 10
-109.4057
 20
-12.6584
 30
0
 70
     0
  0
VERTEX
  8
MACK_GRANITE_265
 10
-109.0238
 20
-12.9591
 30
0
 70
     0
  0
VERTEX
  8
MACK_GRANITE_265
 10
-108.6568
 20
-13.2775
 30
0
 70
     0
  0
VERTEX
  8
MACK_GRANITE_265
 10
-108.3054
 20
-13.6127
 30
0
 70
     0
  0
VERTEX
  8
MACK_GRANITE_265
 10
-107.9702
 20
-13.9641
 30
0
 70
     0
  0
VERTEX
  8
MACK_GRANITE_265
 10
-107.6519
 20
-14.3311
 30
0
 70
     0
  0
VERTEX
  8
MACK_GRANITE_265
 10
-107.3511
 20
-14.713
 30
0
 70
     0
  0
VERTEX
  8
MACK_GRANITE_265
 10
-107.0685
 20
-15.1091
 30
0
 70
     0
  0
VERTEX
  8
MACK_GRANITE_265
 10
-106.8048
 20
-15.5189
 30
0
 70
     0
  0
VERTEX
  8
MACK_GRANITE_265
 10
-106.5605
 20
-15.9416
 30
0
 70
     0
  0
VERTEX
  8
MACK_GRANITE_265
 10
-106.4459
 20
-16.1577
 30
0
 70
     0
  0
VERTEX
  8
MACK_GRANITE_265
 10
-106.3364
 20
-16.3767
 30
0
 70
     0
  0
VERTEX
  8
MACK_GRANITE_265
 10
-106.2321
 20
-16.5986
 30
0
 70
     0
  0
VERTEX
  8
MACK_GRANITE_265
 10
-106.1331
 20
-16.8233
 30
0
 70
     0
  0
VERTEX
  8
MACK_GRANITE_265
 10
-106.0395
 20
-17.0508
 30
0
 70
     0
  0
VERTEX
  8
MACK_GRANITE_265
 10
-105.9513
 20
-17.281
 30
0
 70
     0
  0
VERTEX
  8
MACK_GRANITE_265
 10
-105.8687
 20
-17.5137
 30
0
 70
     0
  0
VERTEX
  8
MACK_GRANITE_265
 10
-105.7916
 20
-17.7489
 30
0
 70
     0
  0
VERTEX
  8
MACK_GRANITE_265
 10
-105.7203
 20
-17.9866
 30
0
 70
     0
  0
VERTEX
  8
MACK_GRANITE_265
 10
-105.6547
 20
-18.2266
 30
0
 70
     0
  0
VERTEX
  8
MACK_GRANITE_265
 10
-105.595
 20
-18.4689
 30
0
 70
     0
  0
VERTEX
  8
MACK_GRANITE_265
 10
-105.5412
 20
-18.7133
 30
0
 70
     0
  0
VERTEX
  8
MACK_GRANITE_265
 10
-105.4934
 20
-18.9598
 30
0
 70
     0
  0
VERTEX
  8
MACK_GRANITE_265
 10
-105.4518
 20
-19.2083
 30
0
 70
     0
  0
VERTEX
  8
MACK_GRANITE_265
 10
-105.4163
 20
-19.4588
 30
0
 70
     0
  0
VERTEX
  8
MACK_GRANITE_265
 10
-105.3871
 20
-19.7111
 30
0
 70
     0
  0
VERTEX
  8
MACK_GRANITE_265
 10
-105.3642
 20
-19.9651
 30
0
 70
     0
  0
VERTEX
  8
MACK_GRANITE_265
 10
-105.3478
 20
-20.2209
 30
0
 70
     0
  0
VERTEX
  8
MACK_GRANITE_265
 10
-105.3379
 20
-20.4782
 30
0
 70
     0
  0
VERTEX
  8
MACK_GRANITE_265
 10
-105.3345
 20
-20.7371
 30
0
 70
     0
  0
SEQEND
  0
POLYLINE
  8
MACK_GRANITE_265
  6
CONTINUOUS
 62
     7
 66
     1
 40
0.0139
 41
0.0139
  0
VERTEX
  8
MACK_GRANITE_265
 10
-104.1798
 20
-20.7371
 30
0
 70
     0
  0
VERTEX
  8
MACK_GRANITE_265
 10
-104.1836
 20
-21.0256
 30
0
 70
     0
  0
VERTEX
  8
MACK_GRANITE_265
 10
-104.1946
 20
-21.3124
 30
0
 70
     0
  0
VERTEX
  8
MACK_GRANITE_265
 10
-104.2129
 20
-21.5974
 30
0
 70
     0
  0
VERTEX
  8
MACK_GRANITE_265
 10
-104.2384
 20
-21.8805
 30
0
 70
     0
  0
VERTEX
  8
MACK_GRANITE_265
 10
-104.2709
 20
-22.1616
 30
0
 70
     0
  0
VERTEX
  8
MACK_GRANITE_265
 10
-104.3105
 20
-22.4407
 30
0
 70
     0
  0
VERTEX
  8
MACK_GRANITE_265
 10
-104.3569
 20
-22.7177
 30
0
 70
     0
  0
VERTEX
  8
MACK_GRANITE_265
 10
-104.4101
 20
-22.9924
 30
0
 70
     0
  0
VERTEX
  8
MACK_GRANITE_265
 10
-104.47
 20
-23.2648
 30
0
 70
     0
  0
VERTEX
  8
MACK_GRANITE_265
 10
-104.5366
 20
-23.5348
 30
0
 70
     0
  0
VERTEX
  8
MACK_GRANITE_265
 10
-104.6097
 20
-23.8022
 30
0
 70
     0
  0
VERTEX
  8
MACK_GRANITE_265
 10
-104.6892
 20
-24.067
 30
0
 70
     0
  0
VERTEX
  8
MACK_GRANITE_265
 10
-104.7751
 20
-24.3292
 30
0
 70
     0
  0
VERTEX
  8
MACK_GRANITE_265
 10
-104.8672
 20
-24.5886
 30
0
 70
     0
  0
VERTEX
  8
MACK_GRANITE_265
 10
-104.9654
 20
-24.845
 30
0
 70
     0
  0
VERTEX
  8
MACK_GRANITE_265
 10
-105.0698
 20
-25.0985
 30
0
 70
     0
  0
VERTEX
  8
MACK_GRANITE_265
 10
-105.1801
 20
-25.349
 30
0
 70
     0
  0
VERTEX
  8
MACK_GRANITE_265
 10
-105.2963
 20
-25.5963
 30
0
 70
     0
  0
VERTEX
  8
MACK_GRANITE_265
 10
-105.4183
 20
-25.8404
 30
0
 70
     0
  0
VERTEX
  8
MACK_GRANITE_265
 10
-105.546
 20
-26.0811
 30
0
 70
     0
  0
VERTEX
  8
MACK_GRANITE_265
 10
-105.6794
 20
-26.3184
 30
0
 70
     0
  0
VERTEX
  8
MACK_GRANITE_265
 10
-105.8182
 20
-26.5521
 30
0
 70
     0
  0
VERTEX
  8
MACK_GRANITE_265
 10
-105.9625
 20
-26.7823
 30
0
 70
     0
  0
VERTEX
  8
MACK_GRANITE_265
 10
-106.1121
 20
-27.0088
 30
0
 70
     0
  0
VERTEX
  8
MACK_GRANITE_265
 10
-106.267
 20
-27.2315
 30
0
 70
     0
  0
VERTEX
  8
MACK_GRANITE_265
 10
-106.4271
 20
-27.4503
 30
0
 70
     0
  0
VERTEX
  8
MACK_GRANITE_265
 10
-106.5922
 20
-27.6651
 30
0
 70
     0
  0
VERTEX
  8
MACK_GRANITE_265
 10
-106.7622
 20
-27.8759
 30
0
 70
     0
  0
VERTEX
  8
MACK_GRANITE_265
 10
-107.117
 20
-28.2848
 30
0
 70
     0
  0
VERTEX
  8
MACK_GRANITE_265
 10
-107.4905
 20
-28.6764
 30
0
 70
     0
  0
VERTEX
  8
MACK_GRANITE_265
 10
-107.8821
 20
-29.05
 30
0
 70
     0
  0
VERTEX
  8
MACK_GRANITE_265
 10
-108.2911
 20
-29.4047
 30
0
 70
     0
  0
VERTEX
  8
MACK_GRANITE_265
 10
-108.5019
 20
-29.5748
 30
0
 70
     0
  0
VERTEX
  8
MACK_GRANITE_265
 10
-108.7167
 20
-29.7399
 30
0
 70
     0
  0
VERTEX
  8
MACK_GRANITE_265
 10
-108.9355
 20
-29.8999
 30
0
 70
     0
  0
VERTEX
  8
MACK_GRANITE_265
 10
-109.1582
 20
-30.0548
 30
0
 70
     0
  0
VERTEX
  8
MACK_GRANITE_265
 10
-109.3846
 20
-30.2044
 30
0
 70
     0
  0
VERTEX
  8
MACK_GRANITE_265
 10
-109.6148
 20
-30.3487
 30
0
 70
     0
  0
VERTEX
  8
MACK_GRANITE_265
 10
-109.8486
 20
-30.4876
 30
0
 70
     0
  0
VERTEX
  8
MACK_GRANITE_265
 10
-110.0859
 20
-30.6209
 30
0
 70
     0
  0
VERTEX
  8
MACK_GRANITE_265
 10
-110.3266
 20
-30.7486
 30
0
 70
     0
  0
VERTEX
  8
MACK_GRANITE_265
 10
-110.5707
 20
-30.8706
 30
0
 70
     0
  0
VERTEX
  8
MACK_GRANITE_265
 10
-110.818
 20
-30.9868
 30
0
 70
     0
  0
VERTEX
  8
MACK_GRANITE_265
 10
-111.0684
 20
-31.0972
 30
0
 70
     0
  0
VERTEX
  8
MACK_GRANITE_265
 10
-111.3219
 20
-31.2015
 30
0
 70
     0
  0
VERTEX
  8
MACK_GRANITE_265
 10
-111.5784
 20
-31.2998
 30
0
 70
     0
  0
VERTEX
  8
MACK_GRANITE_265
 10
-111.8378
 20
-31.3919
 30
0
 70
     0
  0
VERTEX
  8
MACK_GRANITE_265
 10
-112.0999
 20
-31.4778
 30
0
 70
     0
  0
VERTEX
  8
MACK_GRANITE_265
 10
-112.3647
 20
-31.5573
 30
0
 70
     0
  0
VERTEX
  8
MACK_GRANITE_265
 10
-112.6322
 20
-31.6304
 30
0
 70
     0
  0
VERTEX
  8
MACK_GRANITE_265
 10
-112.9022
 20
-31.6969
 30
0
 70
     0
  0
VERTEX
  8
MACK_GRANITE_265
 10
-113.1745
 20
-31.7568
 30
0
 70
     0
  0
VERTEX
  8
MACK_GRANITE_265
 10
-113.4492
 20
-31.8101
 30
0
 70
     0
  0
VERTEX
  8
MACK_GRANITE_265
 10
-113.7262
 20
-31.8565
 30
0
 70
     0
  0
VERTEX
  8
MACK_GRANITE_265
 10
-114.0053
 20
-31.896
 30
0
 70
     0
  0
VERTEX
  8
MACK_GRANITE_265
 10
-114.2865
 20
-31.9286
 30
0
 70
     0
  0
VERTEX
  8
MACK_GRANITE_265
 10
-114.5696
 20
-31.954
 30
0
 70
     0
  0
VERTEX
  8
MACK_GRANITE_265
 10
-114.8546
 20
-31.9723
 30
0
 70
     0
  0
VERTEX
  8
MACK_GRANITE_265
 10
-115.1414
 20
-31.9834
 30
0
 70
     0
  0
VERTEX
  8
MACK_GRANITE_265
 10
-115.4298
 20
-31.9871
 30
0
 70
     0
  0
VERTEX
  8
MACK_GRANITE_265
 10
-115.4298
 20
-31.9871
 30
0
 70
     0
  0
VERTEX
  8
MACK_GRANITE_265
 10
-115.7183
 20
-31.9834
 30
0
 70
     0
  0
VERTEX
  8
MACK_GRANITE_265
 10
-116.0051
 20
-31.9723
 30
0
 70
     0
  0
VERTEX
  8
MACK_GRANITE_265
 10
-116.2901
 20
-31.954
 30
0
 70
     0
  0
VERTEX
  8
MACK_GRANITE_265
 10
-116.5732
 20
-31.9286
 30
0
 70
     0
  0
VERTEX
  8
MACK_GRANITE_265
 10
-116.8544
 20
-31.896
 30
0
 70
     0
  0
VERTEX
  8
MACK_GRANITE_265
 10
-117.1335
 20
-31.8565
 30
0
 70
     0
  0
VERTEX
  8
MACK_GRANITE_265
 10
-117.4104
 20
-31.8101
 30
0
 70
     0
  0
VERTEX
  8
MACK_GRANITE_265
 10
-117.6852
 20
-31.7568
 30
0
 70
     0
  0
VERTEX
  8
MACK_GRANITE_265
 10
-117.9575
 20
-31.6969
 30
0
 70
     0
  0
VERTEX
  8
MACK_GRANITE_265
 10
-118.2275
 20
-31.6304
 30
0
 70
     0
  0
VERTEX
  8
MACK_GRANITE_265
 10
-118.4949
 20
-31.5573
 30
0
 70
     0
  0
VERTEX
  8
MACK_GRANITE_265
 10
-118.7598
 20
-31.4778
 30
0
 70
     0
  0
VERTEX
  8
MACK_GRANITE_265
 10
-119.0219
 20
-31.3919
 30
0
 70
     0
  0
VERTEX
  8
MACK_GRANITE_265
 10
-119.2813
 20
-31.2998
 30
0
 70
     0
  0
VERTEX
  8
MACK_GRANITE_265
 10
-119.5378
 20
-31.2015
 30
0
 70
     0
  0
VERTEX
  8
MACK_GRANITE_265
 10
-119.7913
 20
-31.0972
 30
0
 70
     0
  0
VERTEX
  8
MACK_GRANITE_265
 10
-120.0417
 20
-30.9868
 30
0
 70
     0
  0
VERTEX
  8
MACK_GRANITE_265
 10
-120.289
 20
-30.8706
 30
0
 70
     0
  0
VERTEX
  8
MACK_GRANITE_265
 10
-120.5331
 20
-30.7486
 30
0
 70
     0
  0
VERTEX
  8
MACK_GRANITE_265
 10
-120.7738
 20
-30.6209
 30
0
 70
     0
  0
VERTEX
  8
MACK_GRANITE_265
 10
-121.0111
 20
-30.4876
 30
0
 70
     0
  0
VERTEX
  8
MACK_GRANITE_265
 10
-121.2449
 20
-30.3487
 30
0
 70
     0
  0
VERTEX
  8
MACK_GRANITE_265
 10
-121.4751
 20
-30.2044
 30
0
 70
     0
  0
VERTEX
  8
MACK_GRANITE_265
 10
-121.7015
 20
-30.0548
 30
0
 70
     0
  0
VERTEX
  8
MACK_GRANITE_265
 10
-121.9242
 20
-29.8999
 30
0
 70
     0
  0
VERTEX
  8
MACK_GRANITE_265
 10
-122.143
 20
-29.7399
 30
0
 70
     0
  0
VERTEX
  8
MACK_GRANITE_265
 10
-122.3578
 20
-29.5748
 30
0
 70
     0
  0
VERTEX
  8
MACK_GRANITE_265
 10
-122.5686
 20
-29.4047
 30
0
 70
     0
  0
VERTEX
  8
MACK_GRANITE_265
 10
-122.9776
 20
-29.05
 30
0
 70
     0
  0
VERTEX
  8
MACK_GRANITE_265
 10
-123.3692
 20
-28.6764
 30
0
 70
     0
  0
VERTEX
  8
MACK_GRANITE_265
 10
-123.7427
 20
-28.2848
 30
0
 70
     0
  0
VERTEX
  8
MACK_GRANITE_265
 10
-124.0974
 20
-27.8759
 30
0
 70
     0
  0
VERTEX
  8
MACK_GRANITE_265
 10
-124.2675
 20
-27.6651
 30
0
 70
     0
  0
VERTEX
  8
MACK_GRANITE_265
 10
-124.4326
 20
-27.4503
 30
0
 70
     0
  0
VERTEX
  8
MACK_GRANITE_265
 10
-124.5927
 20
-27.2315
 30
0
 70
     0
  0
VERTEX
  8
MACK_GRANITE_265
 10
-124.7475
 20
-27.0088
 30
0
 70
     0
  0
VERTEX
  8
MACK_GRANITE_265
 10
-124.8972
 20
-26.7823
 30
0
 70
     0
  0
VERTEX
  8
MACK_GRANITE_265
 10
-125.0415
 20
-26.5521
 30
0
 70
     0
  0
VERTEX
  8
MACK_GRANITE_265
 10
-125.1803
 20
-26.3184
 30
0
 70
     0
  0
VERTEX
  8
MACK_GRANITE_265
 10
-125.3136
 20
-26.0811
 30
0
 70
     0
  0
VERTEX
  8
MACK_GRANITE_265
 10
-125.4414
 20
-25.8404
 30
0
 70
     0
  0
VERTEX
  8
MACK_GRANITE_265
 10
-125.5634
 20
-25.5963
 30
0
 70
     0
  0
VERTEX
  8
MACK_GRANITE_265
 10
-125.6796
 20
-25.349
 30
0
 70
     0
  0
VERTEX
  8
MACK_GRANITE_265
 10
-125.7899
 20
-25.0985
 30
0
 70
     0
  0
VERTEX
  8
MACK_GRANITE_265
 10
-125.8943
 20
-24.845
 30
0
 70
     0
  0
VERTEX
  8
MACK_GRANITE_265
 10
-125.9925
 20
-24.5886
 30
0
 70
     0
  0
VERTEX
  8
MACK_GRANITE_265
 10
-126.0846
 20
-24.3292
 30
0
 70
     0
  0
VERTEX
  8
MACK_GRANITE_265
 10
-126.1705
 20
-24.067
 30
0
 70
     0
  0
VERTEX
  8
MACK_GRANITE_265
 10
-126.25
 20
-23.8022
 30
0
 70
     0
  0
VERTEX
  8
MACK_GRANITE_265
 10
-126.3231
 20
-23.5348
 30
0
 70
     0
  0
VERTEX
  8
MACK_GRANITE_265
 10
-126.3896
 20
-23.2648
 30
0
 70
     0
  0
VERTEX
  8
MACK_GRANITE_265
 10
-126.4496
 20
-22.9924
 30
0
 70
     0
  0
VERTEX
  8
MACK_GRANITE_265
 10
-126.5028
 20
-22.7177
 30
0
 70
     0
  0
VERTEX
  8
MACK_GRANITE_265
 10
-126.5492
 20
-22.4407
 30
0
 70
     0
  0
VERTEX
  8
MACK_GRANITE_265
 10
-126.5888
 20
-22.1616
 30
0
 70
     0
  0
VERTEX
  8
MACK_GRANITE_265
 10
-126.6213
 20
-21.8805
 30
0
 70
     0
  0
VERTEX
  8
MACK_GRANITE_265
 10
-126.6468
 20
-21.5974
 30
0
 70
     0
  0
VERTEX
  8
MACK_GRANITE_265
 10
-126.6651
 20
-21.3124
 30
0
 70
     0
  0
VERTEX
  8
MACK_GRANITE_265
 10
-126.6761
 20
-21.0256
 30
0
 70
     0
  0
VERTEX
  8
MACK_GRANITE_265
 10
-126.6798
 20
-20.7371
 30
0
 70
     0
  0
VERTEX
  8
MACK_GRANITE_265
 10
-126.6798
 20
-20.7371
 30
0
 70
     0
  0
VERTEX
  8
MACK_GRANITE_265
 10
-126.6761
 20
-20.4486
 30
0
 70
     0
  0
VERTEX
  8
MACK_GRANITE_265
 10
-126.6651
 20
-20.1618
 30
0
 70
     0
  0
VERTEX
  8
MACK_GRANITE_265
 10
-126.6468
 20
-19.8768
 30
0
 70
     0
  0
VERTEX
  8
MACK_GRANITE_265
 10
-126.6213
 20
-19.5937
 30
0
 70
     0
  0
VERTEX
  8
MACK_GRANITE_265
 10
-126.5888
 20
-19.3126
 30
0
 70
     0
  0
VERTEX
  8
MACK_GRANITE_265
 10
-126.5492
 20
-19.0335
 30
0
 70
     0
  0
VERTEX
  8
MACK_GRANITE_265
 10
-126.5028
 20
-18.7565
 30
0
 70
     0
  0
VERTEX
  8
MACK_GRANITE_265
 10
-126.4496
 20
-18.4818
 30
0
 70
     0
  0
VERTEX
  8
MACK_GRANITE_265
 10
-126.3896
 20
-18.2094
 30
0
 70
     0
  0
VERTEX
  8
MACK_GRANITE_265
 10
-126.3231
 20
-17.9394
 30
0
 70
     0
  0
VERTEX
  8
MACK_GRANITE_265
 10
-126.25
 20
-17.672
 30
0
 70
     0
  0
VERTEX
  8
MACK_GRANITE_265
 10
-126.1705
 20
-17.4072
 30
0
 70
     0
  0
VERTEX
  8
MACK_GRANITE_265
 10
-126.0846
 20
-17.145
 30
0
 70
     0
  0
VERTEX
  8
MACK_GRANITE_265
 10
-125.9925
 20
-16.8857
 30
0
 70
     0
  0
VERTEX
  8
MACK_GRANITE_265
 10
-125.8943
 20
-16.6292
 30
0
 70
     0
  0
VERTEX
  8
MACK_GRANITE_265
 10
-125.7899
 20
-16.3757
 30
0
 70
     0
  0
VERTEX
  8
MACK_GRANITE_265
 10
-125.6796
 20
-16.1252
 30
0
 70
     0
  0
VERTEX
  8
MACK_GRANITE_265
 10
-125.5634
 20
-15.8779
 30
0
 70
     0
  0
VERTEX
  8
MACK_GRANITE_265
 10
-125.4414
 20
-15.6339
 30
0
 70
     0
  0
VERTEX
  8
MACK_GRANITE_265
 10
-125.3136
 20
-15.3931
 30
0
 70
     0
  0
VERTEX
  8
MACK_GRANITE_265
 10
-125.1803
 20
-15.1558
 30
0
 70
     0
  0
VERTEX
  8
MACK_GRANITE_265
 10
-125.0415
 20
-14.9221
 30
0
 70
     0
  0
VERTEX
  8
MACK_GRANITE_265
 10
-124.8972
 20
-14.6919
 30
0
 70
     0
  0
VERTEX
  8
MACK_GRANITE_265
 10
-124.7475
 20
-14.4654
 30
0
 70
     0
  0
VERTEX
  8
MACK_GRANITE_265
 10
-124.5927
 20
-14.2427
 30
0
 70
     0
  0
VERTEX
  8
MACK_GRANITE_265
 10
-124.4326
 20
-14.0239
 30
0
 70
     0
  0
VERTEX
  8
MACK_GRANITE_265
 10
-124.2675
 20
-13.8091
 30
0
 70
     0
  0
VERTEX
  8
MACK_GRANITE_265
 10
-124.0974
 20
-13.5983
 30
0
 70
     0
  0
VERTEX
  8
MACK_GRANITE_265
 10
-123.7427
 20
-13.1894
 30
0
 70
     0
  0
VERTEX
  8
MACK_GRANITE_265
 10
-123.3692
 20
-12.7978
 30
0
 70
     0
  0
VERTEX
  8
MACK_GRANITE_265
 10
-122.9776
 20
-12.4242
 30
0
 70
     0
  0
VERTEX
  8
MACK_GRANITE_265
 10
-122.5686
 20
-12.0695
 30
0
 70
     0
  0
VERTEX
  8
MACK_GRANITE_265
 10
-122.3578
 20
-11.8994
 30
0
 70
     0
  0
VERTEX
  8
MACK_GRANITE_265
 10
-122.143
 20
-11.7343
 30
0
 70
     0
  0
VERTEX
  8
MACK_GRANITE_265
 10
-121.9242
 20
-11.5743
 30
0
 70
     0
  0
VERTEX
  8
MACK_GRANITE_265
 10
-121.7015
 20
-11.4194
 30
0
 70
     0
  0
VERTEX
  8
MACK_GRANITE_265
 10
-121.4751
 20
-11.2698
 30
0
 70
     0
  0
VERTEX
  8
MACK_GRANITE_265
 10
-121.2449
 20
-11.1255
 30
0
 70
     0
  0
VERTEX
  8
MACK_GRANITE_265
 10
-121.0111
 20
-10.9866
 30
0
 70
     0
  0
VERTEX
  8
MACK_GRANITE_265
 10
-120.7738
 20
-10.8533
 30
0
 70
     0
  0
VERTEX
  8
MACK_GRANITE_265
 10
-120.5331
 20
-10.7256
 30
0
 70
     0
  0
VERTEX
  8
MACK_GRANITE_265
 10
-120.289
 20
-10.6036
 30
0
 70
     0
  0
VERTEX
  8
MACK_GRANITE_265
 10
-120.0417
 20
-10.4874
 30
0
 70
     0
  0
VERTEX
  8
MACK_GRANITE_265
 10
-119.7913
 20
-10.377
 30
0
 70
     0
  0
VERTEX
  8
MACK_GRANITE_265
 10
-119.5378
 20
-10.2727
 30
0
 70
     0
  0
VERTEX
  8
MACK_GRANITE_265
 10
-119.2813
 20
-10.1744
 30
0
 70
     0
  0
VERTEX
  8
MACK_GRANITE_265
 10
-119.0219
 20
-10.0823
 30
0
 70
     0
  0
VERTEX
  8
MACK_GRANITE_265
 10
-118.7598
 20
-9.9964
 30
0
 70
     0
  0
VERTEX
  8
MACK_GRANITE_265
 10
-118.4949
 20
-9.9169
 30
0
 70
     0
  0
VERTEX
  8
MACK_GRANITE_265
 10
-118.2275
 20
-9.8439
 30
0
 70
     0
  0
VERTEX
  8
MACK_GRANITE_265
 10
-117.9575
 20
-9.7773
 30
0
 70
     0
  0
VERTEX
  8
MACK_GRANITE_265
 10
-117.6852
 20
-9.7174
 30
0
 70
     0
  0
VERTEX
  8
MACK_GRANITE_265
 10
-117.4104
 20
-9.6641
 30
0
 70
     0
  0
VERTEX
  8
MACK_GRANITE_265
 10
-117.1335
 20
-9.6177
 30
0
 70
     0
  0
VERTEX
  8
MACK_GRANITE_265
 10
-116.8544
 20
-9.5782
 30
0
 70
     0
  0
VERTEX
  8
MACK_GRANITE_265
 10
-116.5732
 20
-9.5456
 30
0
 70
     0
  0
VERTEX
  8
MACK_GRANITE_265
 10
-116.2901
 20
-9.5202
 30
0
 70
     0
  0
VERTEX
  8
MACK_GRANITE_265
 10
-116.0051
 20
-9.5019
 30
0
 70
     0
  0
VERTEX
  8
MACK_GRANITE_265
 10
-115.7183
 20
-9.4908
 30
0
 70
     0
  0
VERTEX
  8
MACK_GRANITE_265
 10
-115.4298
 20
-9.4871
 30
0
 70
     0
  0
VERTEX
  8
MACK_GRANITE_265
 10
-115.4298
 20
-9.4871
 30
0
 70
     0
  0
VERTEX
  8
MACK_GRANITE_265
 10
-115.1414
 20
-9.4908
 30
0
 70
     0
  0
VERTEX
  8
MACK_GRANITE_265
 10
-114.8546
 20
-9.5019
 30
0
 70
     0
  0
VERTEX
  8
MACK_GRANITE_265
 10
-114.5696
 20
-9.5202
 30
0
 70
     0
  0
VERTEX
  8
MACK_GRANITE_265
 10
-114.2865
 20
-9.5456
 30
0
 70
     0
  0
VERTEX
  8
MACK_GRANITE_265
 10
-114.0053
 20
-9.5782
 30
0
 70
     0
  0
VERTEX
  8
MACK_GRANITE_265
 10
-113.7262
 20
-9.6177
 30
0
 70
     0
  0
VERTEX
  8
MACK_GRANITE_265
 10
-113.4492
 20
-9.6641
 30
0
 70
     0
  0
VERTEX
  8
MACK_GRANITE_265
 10
-113.1745
 20
-9.7174
 30
0
 70
     0
  0
VERTEX
  8
MACK_GRANITE_265
 10
-112.9022
 20
-9.7773
 30
0
 70
     0
  0
VERTEX
  8
MACK_GRANITE_265
 10
-112.6322
 20
-9.8439
 30
0
 70
     0
  0
VERTEX
  8
MACK_GRANITE_265
 10
-112.3647
 20
-9.9169
 30
0
 70
     0
  0
VERTEX
  8
MACK_GRANITE_265
 10
-112.0999
 20
-9.9964
 30
0
 70
     0
  0
VERTEX
  8
MACK_GRANITE_265
 10
-111.8378
 20
-10.0823
 30
0
 70
     0
  0
VERTEX
  8
MACK_GRANITE_265
 10
-111.5784
 20
-10.1744
 30
0
 70
     0
  0
VERTEX
  8
MACK_GRANITE_265
 10
-111.3219
 20
-10.2727
 30
0
 70
     0
  0
VERTEX
  8
MACK_GRANITE_265
 10
-111.0684
 20
-10.377
 30
0
 70
     0
  0
VERTEX
  8
MACK_GRANITE_265
 10
-110.818
 20
-10.4874
 30
0
 70
     0
  0
VERTEX
  8
MACK_GRANITE_265
 10
-110.5707
 20
-10.6036
 30
0
 70
     0
  0
VERTEX
  8
MACK_GRANITE_265
 10
-110.3266
 20
-10.7256
 30
0
 70
     0
  0
VERTEX
  8
MACK_GRANITE_265
 10
-110.0859
 20
-10.8533
 30
0
 70
     0
  0
VERTEX
  8
MACK_GRANITE_265
 10
-109.8486
 20
-10.9866
 30
0
 70
     0
  0
VERTEX
  8
MACK_GRANITE_265
 10
-109.6148
 20
-11.1255
 30
0
 70
     0
  0
VERTEX
  8
MACK_GRANITE_265
 10
-109.3846
 20
-11.2698
 30
0
 70
     0
  0
VERTEX
  8
MACK_GRANITE_265
 10
-109.1582
 20
-11.4194
 30
0
 70
     0
  0
VERTEX
  8
MACK_GRANITE_265
 10
-108.9355
 20
-11.5743
 30
0
 70
     0
  0
VERTEX
  8
MACK_GRANITE_265
 10
-108.7167
 20
-11.7343
 30
0
 70
     0
  0
VERTEX
  8
MACK_GRANITE_265
 10
-108.5019
 20
-11.8994
 30
0
 70
     0
  0
VERTEX
  8
MACK_GRANITE_265
 10
-108.2911
 20
-12.0695
 30
0
 70
     0
  0
VERTEX
  8
MACK_GRANITE_265
 10
-107.8821
 20
-12.4242
 30
0
 70
     0
  0
VERTEX
  8
MACK_GRANITE_265
 10
-107.4905
 20
-12.7978
 30
0
 70
     0
  0
VERTEX
  8
MACK_GRANITE_265
 10
-107.117
 20
-13.1894
 30
0
 70
     0
  0
VERTEX
  8
MACK_GRANITE_265
 10
-106.7622
 20
-13.5983
 30
0
 70
     0
  0
VERTEX
  8
MACK_GRANITE_265
 10
-106.5922
 20
-13.8091
 30
0
 70
     0
  0
VERTEX
  8
MACK_GRANITE_265
 10
-106.4271
 20
-14.0239
 30
0
 70
     0
  0
VERTEX
  8
MACK_GRANITE_265
 10
-106.267
 20
-14.2427
 30
0
 70
     0
  0
VERTEX
  8
MACK_GRANITE_265
 10
-106.1121
 20
-14.4654
 30
0
 70
     0
  0
VERTEX
  8
MACK_GRANITE_265
 10
-105.9625
 20
-14.6919
 30
0
 70
     0
  0
VERTEX
  8
MACK_GRANITE_265
 10
-105.8182
 20
-14.9221
 30
0
 70
     0
  0
VERTEX
  8
MACK_GRANITE_265
 10
-105.6794
 20
-15.1558
 30
0
 70
     0
  0
VERTEX
  8
MACK_GRANITE_265
 10
-105.546
 20
-15.3931
 30
0
 70
     0
  0
VERTEX
  8
MACK_GRANITE_265
 10
-105.4183
 20
-15.6339
 30
0
 70
     0
  0
VERTEX
  8
MACK_GRANITE_265
 10
-105.2963
 20
-15.8779
 30
0
 70
     0
  0
VERTEX
  8
MACK_GRANITE_265
 10
-105.1801
 20
-16.1252
 30
0
 70
     0
  0
VERTEX
  8
MACK_GRANITE_265
 10
-105.0698
 20
-16.3757
 30
0
 70
     0
  0
VERTEX
  8
MACK_GRANITE_265
 10
-104.9654
 20
-16.6292
 30
0
 70
     0
  0
VERTEX
  8
MACK_GRANITE_265
 10
-104.8672
 20
-16.8857
 30
0
 70
     0
  0
VERTEX
  8
MACK_GRANITE_265
 10
-104.7751
 20
-17.145
 30
0
 70
     0
  0
VERTEX
  8
MACK_GRANITE_265
 10
-104.6892
 20
-17.4072
 30
0
 70
     0
  0
VERTEX
  8
MACK_GRANITE_265
 10
-104.6097
 20
-17.672
 30
0
 70
     0
  0
VERTEX
  8
MACK_GRANITE_265
 10
-104.5366
 20
-17.9394
 30
0
 70
     0
  0
VERTEX
  8
MACK_GRANITE_265
 10
-104.47
 20
-18.2094
 30
0
 70
     0
  0
VERTEX
  8
MACK_GRANITE_265
 10
-104.4101
 20
-18.4818
 30
0
 70
     0
  0
VERTEX
  8
MACK_GRANITE_265
 10
-104.3569
 20
-18.7565
 30
0
 70
     0
  0
VERTEX
  8
MACK_GRANITE_265
 10
-104.3105
 20
-19.0335
 30
0
 70
     0
  0
VERTEX
  8
MACK_GRANITE_265
 10
-104.2709
 20
-19.3126
 30
0
 70
     0
  0
VERTEX
  8
MACK_GRANITE_265
 10
-104.2384
 20
-19.5937
 30
0
 70
     0
  0
VERTEX
  8
MACK_GRANITE_265
 10
-104.2129
 20
-19.8768
 30
0
 70
     0
  0
VERTEX
  8
MACK_GRANITE_265
 10
-104.1946
 20
-20.1618
 30
0
 70
     0
  0
VERTEX
  8
MACK_GRANITE_265
 10
-104.1836
 20
-20.4486
 30
0
 70
     0
  0
VERTEX
  8
MACK_GRANITE_265
 10
-104.1798
 20
-20.7371
 30
0
 70
     0
  0
SEQEND
  0
POLYLINE
  8
MACK_GRANITE_265
  6
CONTINUOUS
 62
     7
 66
     1
 40
0.0139
 41
0.0139
  0
VERTEX
  8
MACK_GRANITE_265
 10
-112.9298
 20
-20.7371
 30
0
 70
     0
  0
VERTEX
  8
MACK_GRANITE_265
 10
-112.9331
 20
-20.8649
 30
0
 70
     0
  0
VERTEX
  8
MACK_GRANITE_265
 10
-112.9429
 20
-20.9912
 30
0
 70
     0
  0
VERTEX
  8
MACK_GRANITE_265
 10
-112.9589
 20
-21.1157
 30
0
 70
     0
  0
VERTEX
  8
MACK_GRANITE_265
 10
-112.981
 20
-21.2383
 30
0
 70
     0
  0
VERTEX
  8
MACK_GRANITE_265
 10
-113.0091
 20
-21.3588
 30
0
 70
     0
  0
VERTEX
  8
MACK_GRANITE_265
 10
-113.043
 20
-21.4771
 30
0
 70
     0
  0
VERTEX
  8
MACK_GRANITE_265
 10
-113.0826
 20
-21.593
 30
0
 70
     0
  0
VERTEX
  8
MACK_GRANITE_265
 10
-113.1276
 20
-21.7063
 30
0
 70
     0
  0
VERTEX
  8
MACK_GRANITE_265
 10
-113.178
 20
-21.8169
 30
0
 70
     0
  0
VERTEX
  8
MACK_GRANITE_265
 10
-113.2334
 20
-21.9247
 30
0
 70
     0
  0
VERTEX
  8
MACK_GRANITE_265
 10
-113.2939
 20
-22.0293
 30
0
 70
     0
  0
VERTEX
  8
MACK_GRANITE_265
 10
-113.3592
 20
-22.1308
 30
0
 70
     0
  0
VERTEX
  8
MACK_GRANITE_265
 10
-113.5037
 20
-22.3235
 30
0
 70
     0
  0
VERTEX
  8
MACK_GRANITE_265
 10
-113.6655
 20
-22.5014
 30
0
 70
     0
  0
VERTEX
  8
MACK_GRANITE_265
 10
-113.8435
 20
-22.6632
 30
0
 70
     0
  0
VERTEX
  8
MACK_GRANITE_265
 10
-114.0361
 20
-22.8077
 30
0
 70
     0
  0
VERTEX
  8
MACK_GRANITE_265
 10
-114.1376
 20
-22.873
 30
0
 70
     0
  0
VERTEX
  8
MACK_GRANITE_265
 10
-114.2423
 20
-22.9335
 30
0
 70
     0
  0
VERTEX
  8
MACK_GRANITE_265
 10
-114.35
 20
-22.989
 30
0
 70
     0
  0
VERTEX
  8
MACK_GRANITE_265
 10
-114.4606
 20
-23.0393
 30
0
 70
     0
  0
VERTEX
  8
MACK_GRANITE_265
 10
-114.574
 20
-23.0844
 30
0
 70
     0
  0
VERTEX
  8
MACK_GRANITE_265
 10
-114.6899
 20
-23.1239
 30
0
 70
     0
  0
VERTEX
  8
MACK_GRANITE_265
 10
-114.8081
 20
-23.1578
 30
0
 70
     0
  0
VERTEX
  8
MACK_GRANITE_265
 10
-114.9287
 20
-23.1859
 30
0
 70
     0
  0
VERTEX
  8
MACK_GRANITE_265
 10
-115.0513
 20
-23.2081
 30
0
 70
     0
  0
VERTEX
  8
MACK_GRANITE_265
 10
-115.1758
 20
-23.2241
 30
0
 70
     0
  0
VERTEX
  8
MACK_GRANITE_265
 10
-115.302
 20
-23.2338
 30
0
 70
     0
  0
VERTEX
  8
MACK_GRANITE_265
 10
-115.4298
 20
-23.2371
 30
0
 70
     0
  0
VERTEX
  8
MACK_GRANITE_265
 10
-115.4298
 20
-23.2371
 30
0
 70
     0
  0
VERTEX
  8
MACK_GRANITE_265
 10
-115.5577
 20
-23.2338
 30
0
 70
     0
  0
VERTEX
  8
MACK_GRANITE_265
 10
-115.6839
 20
-23.2241
 30
0
 70
     0
  0
VERTEX
  8
MACK_GRANITE_265
 10
-115.8084
 20
-23.2081
 30
0
 70
     0
  0
VERTEX
  8
MACK_GRANITE_265
 10
-115.931
 20
-23.1859
 30
0
 70
     0
  0
VERTEX
  8
MACK_GRANITE_265
 10
-116.0515
 20
-23.1578
 30
0
 70
     0
  0
VERTEX
  8
MACK_GRANITE_265
 10
-116.1698
 20
-23.1239
 30
0
 70
     0
  0
VERTEX
  8
MACK_GRANITE_265
 10
-116.2857
 20
-23.0844
 30
0
 70
     0
  0
VERTEX
  8
MACK_GRANITE_265
 10
-116.3991
 20
-23.0393
 30
0
 70
     0
  0
VERTEX
  8
MACK_GRANITE_265
 10
-116.5097
 20
-22.989
 30
0
 70
     0
  0
VERTEX
  8
MACK_GRANITE_265
 10
-116.6174
 20
-22.9335
 30
0
 70
     0
  0
VERTEX
  8
MACK_GRANITE_265
 10
-116.7221
 20
-22.873
 30
0
 70
     0
  0
VERTEX
  8
MACK_GRANITE_265
 10
-116.8236
 20
-22.8077
 30
0
 70
     0
  0
VERTEX
  8
MACK_GRANITE_265
 10
-117.0162
 20
-22.6632
 30
0
 70
     0
  0
VERTEX
  8
MACK_GRANITE_265
 10
-117.1941
 20
-22.5014
 30
0
 70
     0
  0
VERTEX
  8
MACK_GRANITE_265
 10
-117.356
 20
-22.3235
 30
0
 70
     0
  0
VERTEX
  8
MACK_GRANITE_265
 10
-117.5004
 20
-22.1308
 30
0
 70
     0
  0
VERTEX
  8
MACK_GRANITE_265
 10
-117.5658
 20
-22.0293
 30
0
 70
     0
  0
VERTEX
  8
MACK_GRANITE_265
 10
-117.6262
 20
-21.9247
 30
0
 70
     0
  0
VERTEX
  8
MACK_GRANITE_265
 10
-117.6817
 20
-21.8169
 30
0
 70
     0
  0
VERTEX
  8
MACK_GRANITE_265
 10
-117.7321
 20
-21.7063
 30
0
 70
     0
  0
VERTEX
  8
MACK_GRANITE_265
 10
-117.7771
 20
-21.593
 30
0
 70
     0
  0
VERTEX
  8
MACK_GRANITE_265
 10
-117.8167
 20
-21.4771
 30
0
 70
     0
  0
VERTEX
  8
MACK_GRANITE_265
 10
-117.8506
 20
-21.3588
 30
0
 70
     0
  0
VERTEX
  8
MACK_GRANITE_265
 10
-117.8787
 20
-21.2383
 30
0
 70
     0
  0
VERTEX
  8
MACK_GRANITE_265
 10
-117.9008
 20
-21.1157
 30
0
 70
     0
  0
VERTEX
  8
MACK_GRANITE_265
 10
-117.9168
 20
-20.9912
 30
0
 70
     0
  0
VERTEX
  8
MACK_GRANITE_265
 10
-117.9266
 20
-20.8649
 30
0
 70
     0
  0
VERTEX
  8
MACK_GRANITE_265
 10
-117.9298
 20
-20.7371
 30
0
 70
     0
  0
VERTEX
  8
MACK_GRANITE_265
 10
-117.9298
 20
-20.7371
 30
0
 70
     0
  0
VERTEX
  8
MACK_GRANITE_265
 10
-117.9266
 20
-20.6093
 30
0
 70
     0
  0
VERTEX
  8
MACK_GRANITE_265
 10
-117.9168
 20
-20.483
 30
0
 70
     0
  0
VERTEX
  8
MACK_GRANITE_265
 10
-117.9008
 20
-20.3585
 30
0
 70
     0
  0
VERTEX
  8
MACK_GRANITE_265
 10
-117.8787
 20
-20.2359
 30
0
 70
     0
  0
VERTEX
  8
MACK_GRANITE_265
 10
-117.8506
 20
-20.1154
 30
0
 70
     0
  0
VERTEX
  8
MACK_GRANITE_265
 10
-117.8167
 20
-19.9971
 30
0
 70
     0
  0
VERTEX
  8
MACK_GRANITE_265
 10
-117.7771
 20
-19.8812
 30
0
 70
     0
  0
VERTEX
  8
MACK_GRANITE_265
 10
-117.7321
 20
-19.7679
 30
0
 70
     0
  0
VERTEX
  8
MACK_GRANITE_265
 10
-117.6817
 20
-19.6573
 30
0
 70
     0
  0
VERTEX
  8
MACK_GRANITE_265
 10
-117.6262
 20
-19.5496
 30
0
 70
     0
  0
VERTEX
  8
MACK_GRANITE_265
 10
-117.5658
 20
-19.4449
 30
0
 70
     0
  0
VERTEX
  8
MACK_GRANITE_265
 10
-117.5004
 20
-19.3434
 30
0
 70
     0
  0
VERTEX
  8
MACK_GRANITE_265
 10
-117.356
 20
-19.1507
 30
0
 70
     0
  0
VERTEX
  8
MACK_GRANITE_265
 10
-117.1941
 20
-18.9728
 30
0
 70
     0
  0
VERTEX
  8
MACK_GRANITE_265
 10
-117.0162
 20
-18.811
 30
0
 70
     0
  0
VERTEX
  8
MACK_GRANITE_265
 10
-116.8236
 20
-18.6665
 30
0
 70
     0
  0
VERTEX
  8
MACK_GRANITE_265
 10
-116.7221
 20
-18.6012
 30
0
 70
     0
  0
VERTEX
  8
MACK_GRANITE_265
 10
-116.6174
 20
-18.5407
 30
0
 70
     0
  0
VERTEX
  8
MACK_GRANITE_265
 10
-116.5097
 20
-18.4852
 30
0
 70
     0
  0
VERTEX
  8
MACK_GRANITE_265
 10
-116.3991
 20
-18.4349
 30
0
 70
     0
  0
VERTEX
  8
MACK_GRANITE_265
 10
-116.2857
 20
-18.3898
 30
0
 70
     0
  0
VERTEX
  8
MACK_GRANITE_265
 10
-116.1698
 20
-18.3503
 30
0
 70
     0
  0
VERTEX
  8
MACK_GRANITE_265
 10
-116.0515
 20
-18.3164
 30
0
 70
     0
  0
VERTEX
  8
MACK_GRANITE_265
 10
-115.931
 20
-18.2883
 30
0
 70
     0
  0
VERTEX
  8
MACK_GRANITE_265
 10
-115.8084
 20
-18.2661
 30
0
 70
     0
  0
VERTEX
  8
MACK_GRANITE_265
 10
-115.6839
 20
-18.2501
 30
0
 70
     0
  0
VERTEX
  8
MACK_GRANITE_265
 10
-115.5577
 20
-18.2404
 30
0
 70
     0
  0
VERTEX
  8
MACK_GRANITE_265
 10
-115.4298
 20
-18.2371
 30
0
 70
     0
  0
VERTEX
  8
MACK_GRANITE_265
 10
-115.4298
 20
-18.2371
 30
0
 70
     0
  0
VERTEX
  8
MACK_GRANITE_265
 10
-115.302
 20
-18.2404
 30
0
 70
     0
  0
VERTEX
  8
MACK_GRANITE_265
 10
-115.1758
 20
-18.2501
 30
0
 70
     0
  0
VERTEX
  8
MACK_GRANITE_265
 10
-115.0513
 20
-18.2661
 30
0
 70
     0
  0
VERTEX
  8
MACK_GRANITE_265
 10
-114.9287
 20
-18.2883
 30
0
 70
     0
  0
VERTEX
  8
MACK_GRANITE_265
 10
-114.8081
 20
-18.3164
 30
0
 70
     0
  0
VERTEX
  8
MACK_GRANITE_265
 10
-114.6899
 20
-18.3503
 30
0
 70
     0
  0
VERTEX
  8
MACK_GRANITE_265
 10
-114.574
 20
-18.3898
 30
0
 70
     0
  0
VERTEX
  8
MACK_GRANITE_265
 10
-114.4606
 20
-18.4349
 30
0
 70
     0
  0
VERTEX
  8
MACK_GRANITE_265
 10
-114.35
 20
-18.4852
 30
0
 70
     0
  0
VERTEX
  8
MACK_GRANITE_265
 10
-114.2423
 20
-18.5407
 30
0
 70
     0
  0
VERTEX
  8
MACK_GRANITE_265
 10
-114.1376
 20
-18.6012
 30
0
 70
     0
  0
VERTEX
  8
MACK_GRANITE_265
 10
-114.0361
 20
-18.6665
 30
0
 70
     0
  0
VERTEX
  8
MACK_GRANITE_265
 10
-113.8435
 20
-18.811
 30
0
 70
     0
  0
VERTEX
  8
MACK_GRANITE_265
 10
-113.6655
 20
-18.9728
 30
0
 70
     0
  0
VERTEX
  8
MACK_GRANITE_265
 10
-113.5037
 20
-19.1507
 30
0
 70
     0
  0
VERTEX
  8
MACK_GRANITE_265
 10
-113.3592
 20
-19.3434
 30
0
 70
     0
  0
VERTEX
  8
MACK_GRANITE_265
 10
-113.2939
 20
-19.4449
 30
0
 70
     0
  0
VERTEX
  8
MACK_GRANITE_265
 10
-113.2334
 20
-19.5496
 30
0
 70
     0
  0
VERTEX
  8
MACK_GRANITE_265
 10
-113.178
 20
-19.6573
 30
0
 70
     0
  0
VERTEX
  8
MACK_GRANITE_265
 10
-113.1276
 20
-19.7679
 30
0
 70
     0
  0
VERTEX
  8
MACK_GRANITE_265
 10
-113.0826
 20
-19.8812
 30
0
 70
     0
  0
VERTEX
  8
MACK_GRANITE_265
 10
-113.043
 20
-19.9971
 30
0
 70
     0
  0
VERTEX
  8
MACK_GRANITE_265
 10
-113.0091
 20
-20.1154
 30
0
 70
     0
  0
VERTEX
  8
MACK_GRANITE_265
 10
-112.981
 20
-20.2359
 30
0
 70
     0
  0
VERTEX
  8
MACK_GRANITE_265
 10
-112.9589
 20
-20.3585
 30
0
 70
     0
  0
VERTEX
  8
MACK_GRANITE_265
 10
-112.9429
 20
-20.483
 30
0
 70
     0
  0
VERTEX
  8
MACK_GRANITE_265
 10
-112.9331
 20
-20.6093
 30
0
 70
     0
  0
VERTEX
  8
MACK_GRANITE_265
 10
-112.9298
 20
-20.7371
 30
0
 70
     0
  0
SEQEND
  0
POLYLINE
  8
MACK_GRANITE_265
  6
CONTINUOUS
 62
     7
 66
     1
 40
0.0139
 41
0.0139
  0
VERTEX
  8
MACK_GRANITE_265
 10
-92.4693
 20
37.458
 30
0
 70
     0
  0
VERTEX
  8
MACK_GRANITE_265
 10
-94.0362
 20
37.2593
 30
0
 70
     0
  0
VERTEX
  8
MACK_GRANITE_265
 10
-95.6012
 20
37.0482
 30
0
 70
     0
  0
VERTEX
  8
MACK_GRANITE_265
 10
-97.1641
 20
36.8247
 30
0
 70
     0
  0
VERTEX
  8
MACK_GRANITE_265
 10
-98.7248
 20
36.5889
 30
0
 70
     0
  0
VERTEX
  8
MACK_GRANITE_265
 10
-100.2834
 20
36.3407
 30
0
 70
     0
  0
VERTEX
  8
MACK_GRANITE_265
 10
-101.8396
 20
36.0802
 30
0
 70
     0
  0
VERTEX
  8
MACK_GRANITE_265
 10
-103.3935
 20
35.8074
 30
0
 70
     0
  0
VERTEX
  8
MACK_GRANITE_265
 10
-104.945
 20
35.5223
 30
0
 70
     0
  0
VERTEX
  8
MACK_GRANITE_265
 10
-106.494
 20
35.2249
 30
0
 70
     0
  0
VERTEX
  8
MACK_GRANITE_265
 10
-108.0404
 20
34.9153
 30
0
 70
     0
  0
VERTEX
  8
MACK_GRANITE_265
 10
-109.5842
 20
34.5934
 30
0
 70
     0
  0
VERTEX
  8
MACK_GRANITE_265
 10
-111.1253
 20
34.2594
 30
0
 70
     0
  0
VERTEX
  8
MACK_GRANITE_265
 10
-112.6635
 20
33.9131
 30
0
 70
     0
  0
VERTEX
  8
MACK_GRANITE_265
 10
-114.1989
 20
33.5547
 30
0
 70
     0
  0
VERTEX
  8
MACK_GRANITE_265
 10
-115.7314
 20
33.1841
 30
0
 70
     0
  0
VERTEX
  8
MACK_GRANITE_265
 10
-117.2608
 20
32.8013
 30
0
 70
     0
  0
VERTEX
  8
MACK_GRANITE_265
 10
-118.7872
 20
32.4065
 30
0
 70
     0
  0
VERTEX
  8
MACK_GRANITE_265
 10
-120.3104
 20
31.9996
 30
0
 70
     0
  0
VERTEX
  8
MACK_GRANITE_265
 10
-121.8304
 20
31.5805
 30
0
 70
     0
  0
VERTEX
  8
MACK_GRANITE_265
 10
-123.3471
 20
31.1494
 30
0
 70
     0
  0
VERTEX
  8
MACK_GRANITE_265
 10
-124.8604
 20
30.7063
 30
0
 70
     0
  0
VERTEX
  8
MACK_GRANITE_265
 10
-126.3702
 20
30.2511
 30
0
 70
     0
  0
VERTEX
  8
MACK_GRANITE_265
 10
-127.8765
 20
29.784
 30
0
 70
     0
  0
VERTEX
  8
MACK_GRANITE_265
 10
-129.3793
 20
29.3048
 30
0
 70
     0
  0
VERTEX
  8
MACK_GRANITE_265
 10
-130.8783
 20
28.8137
 30
0
 70
     0
  0
VERTEX
  8
MACK_GRANITE_265
 10
-132.3737
 20
28.3106
 30
0
 70
     0
  0
VERTEX
  8
MACK_GRANITE_265
 10
-133.8652
 20
27.7956
 30
0
 70
     0
  0
VERTEX
  8
MACK_GRANITE_265
 10
-135.3528
 20
27.2687
 30
0
 70
     0
  0
VERTEX
  8
MACK_GRANITE_265
 10
-136.8364
 20
26.7299
 30
0
 70
     0
  0
VERTEX
  8
MACK_GRANITE_265
 10
-138.3161
 20
26.1792
 30
0
 70
     0
  0
VERTEX
  8
MACK_GRANITE_265
 10
-139.7916
 20
25.6166
 30
0
 70
     0
  0
VERTEX
  8
MACK_GRANITE_265
 10
-141.2629
 20
25.0422
 30
0
 70
     0
  0
SEQEND
  0
POLYLINE
  8
MACK_GRANITE_265
  6
CONTINUOUS
 62
     7
 66
     1
 40
0.0139
 41
0.0139
  0
VERTEX
  8
MACK_GRANITE_265
 10
-88.8604
 20
36.6067
 30
0
 70
     0
  0
VERTEX
  8
MACK_GRANITE_265
 10
-88.8049
 20
36.5874
 30
0
 70
     0
  0
VERTEX
  8
MACK_GRANITE_265
 10
-88.7522
 20
36.5569
 30
0
 70
     0
  0
VERTEX
  8
MACK_GRANITE_265
 10
-88.7021
 20
36.5153
 30
0
 70
     0
  0
VERTEX
  8
MACK_GRANITE_265
 10
-88.6546
 20
36.4627
 30
0
 70
     0
  0
VERTEX
  8
MACK_GRANITE_265
 10
-88.6097
 20
36.3991
 30
0
 70
     0
  0
VERTEX
  8
MACK_GRANITE_265
 10
-88.5675
 20
36.3244
 30
0
 70
     0
  0
VERTEX
  8
MACK_GRANITE_265
 10
-88.5475
 20
36.2829
 30
0
 70
     0
  0
VERTEX
  8
MACK_GRANITE_265
 10
-88.5281
 20
36.2385
 30
0
 70
     0
  0
VERTEX
  8
MACK_GRANITE_265
 10
-88.5186
 20
36.2153
 30
0
 70
     0
  0
VERTEX
  8
MACK_GRANITE_265
 10
-88.5094
 20
36.1913
 30
0
 70
     0
  0
VERTEX
  8
MACK_GRANITE_265
 10
-88.5003
 20
36.1666
 30
0
 70
     0
  0
VERTEX
  8
MACK_GRANITE_265
 10
-88.4915
 20
36.1413
 30
0
 70
     0
  0
VERTEX
  8
MACK_GRANITE_265
 10
-88.4582
 20
36.0337
 30
0
 70
     0
  0
VERTEX
  8
MACK_GRANITE_265
 10
-88.4283
 20
35.9161
 30
0
 70
     0
  0
VERTEX
  8
MACK_GRANITE_265
 10
-88.4018
 20
35.7886
 30
0
 70
     0
  0
VERTEX
  8
MACK_GRANITE_265
 10
-88.3788
 20
35.6512
 30
0
 70
     0
  0
VERTEX
  8
MACK_GRANITE_265
 10
-88.3594
 20
35.5037
 30
0
 70
     0
  0
VERTEX
  8
MACK_GRANITE_265
 10
-88.3436
 20
35.3459
 30
0
 70
     0
  0
VERTEX
  8
MACK_GRANITE_265
 10
-88.3371
 20
35.2631
 30
0
 70
     0
  0
VERTEX
  8
MACK_GRANITE_265
 10
-88.3316
 20
35.1776
 30
0
 70
     0
  0
VERTEX
  8
MACK_GRANITE_265
 10
-88.3292
 20
35.1338
 30
0
 70
     0
  0
VERTEX
  8
MACK_GRANITE_265
 10
-88.327
 20
35.0895
 30
0
 70
     0
  0
VERTEX
  8
MACK_GRANITE_265
 10
-88.3251
 20
35.0447
 30
0
 70
     0
  0
VERTEX
  8
MACK_GRANITE_265
 10
-88.3235
 20
34.9994
 30
0
 70
     0
  0
SEQEND
  0
POLYLINE
  8
MACK_GRANITE_265
  6
CONTINUOUS
 62
     7
 66
     1
 40
0.0139
 41
0.0139
  0
VERTEX
  8
MACK_GRANITE_265
 10
-66.1798
 20
-17.5371
 30
0
 70
     0
  0
VERTEX
  8
MACK_GRANITE_265
 10
-66.1895
 20
-17.1872
 30
0
 70
     0
  0
VERTEX
  8
MACK_GRANITE_265
 10
-66.2187
 20
-16.8432
 30
0
 70
     0
  0
VERTEX
  8
MACK_GRANITE_265
 10
-66.2668
 20
-16.5055
 30
0
 70
     0
  0
VERTEX
  8
MACK_GRANITE_265
 10
-66.3333
 20
-16.1748
 30
0
 70
     0
  0
VERTEX
  8
MACK_GRANITE_265
 10
-66.4175
 20
-15.8513
 30
0
 70
     0
  0
VERTEX
  8
MACK_GRANITE_265
 10
-66.519
 20
-15.5357
 30
0
 70
     0
  0
VERTEX
  8
MACK_GRANITE_265
 10
-66.6371
 20
-15.2284
 30
0
 70
     0
  0
VERTEX
  8
MACK_GRANITE_265
 10
-66.7712
 20
-14.9298
 30
0
 70
     0
  0
VERTEX
  8
MACK_GRANITE_265
 10
-66.9207
 20
-14.6405
 30
0
 70
     0
  0
VERTEX
  8
MACK_GRANITE_265
 10
-67.0852
 20
-14.361
 30
0
 70
     0
  0
VERTEX
  8
MACK_GRANITE_265
 10
-67.264
 20
-14.0916
 30
0
 70
     0
  0
VERTEX
  8
MACK_GRANITE_265
 10
-67.4565
 20
-13.833
 30
0
 70
     0
  0
VERTEX
  8
MACK_GRANITE_265
 10
-67.6621
 20
-13.5855
 30
0
 70
     0
  0
VERTEX
  8
MACK_GRANITE_265
 10
-67.8803
 20
-13.3496
 30
0
 70
     0
  0
VERTEX
  8
MACK_GRANITE_265
 10
-68.1105
 20
-13.1259
 30
0
 70
     0
  0
VERTEX
  8
MACK_GRANITE_265
 10
-68.3521
 20
-12.9148
 30
0
 70
     0
  0
VERTEX
  8
MACK_GRANITE_265
 10
-68.6046
 20
-12.7167
 30
0
 70
     0
  0
VERTEX
  8
MACK_GRANITE_265
 10
-68.8673
 20
-12.5323
 30
0
 70
     0
  0
VERTEX
  8
MACK_GRANITE_265
 10
-69.1397
 20
-12.3619
 30
0
 70
     0
  0
VERTEX
  8
MACK_GRANITE_265
 10
-69.4212
 20
-12.206
 30
0
 70
     0
  0
VERTEX
  8
MACK_GRANITE_265
 10
-69.7112
 20
-12.0651
 30
0
 70
     0
  0
VERTEX
  8
MACK_GRANITE_265
 10
-70.0092
 20
-11.9396
 30
0
 70
     0
  0
VERTEX
  8
MACK_GRANITE_265
 10
-70.3145
 20
-11.8302
 30
0
 70
     0
  0
VERTEX
  8
MACK_GRANITE_265
 10
-70.6266
 20
-11.7372
 30
0
 70
     0
  0
VERTEX
  8
MACK_GRANITE_265
 10
-70.9449
 20
-11.6611
 30
0
 70
     0
  0
VERTEX
  8
MACK_GRANITE_265
 10
-71.2689
 20
-11.6024
 30
0
 70
     0
  0
VERTEX
  8
MACK_GRANITE_265
 10
-71.5979
 20
-11.5615
 30
0
 70
     0
  0
VERTEX
  8
MACK_GRANITE_265
 10
-71.9314
 20
-11.5391
 30
0
 70
     0
  0
VERTEX
  8
MACK_GRANITE_265
 10
-72.2687
 20
-11.5354
 30
0
 70
     0
  0
VERTEX
  8
MACK_GRANITE_265
 10
-72.6094
 20
-11.5511
 30
0
 70
     0
  0
VERTEX
  8
MACK_GRANITE_265
 10
-72.9528
 20
-11.5866
 30
0
 70
     0
  0
VERTEX
  8
MACK_GRANITE_265
 10
-73.2984
 20
-11.6423
 30
0
 70
     0
  0
VERTEX
  8
MACK_GRANITE_265
 10
-73.2984
 20
-11.6423
 30
0
 70
     0
  0
VERTEX
  8
MACK_GRANITE_265
 10
-73.6404
 20
-11.717
 30
0
 70
     0
  0
VERTEX
  8
MACK_GRANITE_265
 10
-73.9729
 20
-11.8098
 30
0
 70
     0
  0
VERTEX
  8
MACK_GRANITE_265
 10
-74.2957
 20
-11.92
 30
0
 70
     0
  0
VERTEX
  8
MACK_GRANITE_265
 10
-74.6083
 20
-12.047
 30
0
 70
     0
  0
VERTEX
  8
MACK_GRANITE_265
 10
-74.9103
 20
-12.1901
 30
0
 70
     0
  0
VERTEX
  8
MACK_GRANITE_265
 10
-75.2015
 20
-12.3486
 30
0
 70
     0
  0
VERTEX
  8
MACK_GRANITE_265
 10
-75.4814
 20
-12.5219
 30
0
 70
     0
  0
VERTEX
  8
MACK_GRANITE_265
 10
-75.7497
 20
-12.7093
 30
0
 70
     0
  0
VERTEX
  8
MACK_GRANITE_265
 10
-76.0061
 20
-12.9102
 30
0
 70
     0
  0
VERTEX
  8
MACK_GRANITE_265
 10
-76.2501
 20
-13.1239
 30
0
 70
     0
  0
VERTEX
  8
MACK_GRANITE_265
 10
-76.4814
 20
-13.3497
 30
0
 70
     0
  0
VERTEX
  8
MACK_GRANITE_265
 10
-76.6996
 20
-13.5871
 30
0
 70
     0
  0
VERTEX
  8
MACK_GRANITE_265
 10
-76.9045
 20
-13.8353
 30
0
 70
     0
  0
VERTEX
  8
MACK_GRANITE_265
 10
-77.0955
 20
-14.0936
 30
0
 70
     0
  0
VERTEX
  8
MACK_GRANITE_265
 10
-77.2724
 20
-14.3615
 30
0
 70
     0
  0
VERTEX
  8
MACK_GRANITE_265
 10
-77.4347
 20
-14.6382
 30
0
 70
     0
  0
VERTEX
  8
MACK_GRANITE_265
 10
-77.5822
 20
-14.9232
 30
0
 70
     0
  0
VERTEX
  8
MACK_GRANITE_265
 10
-77.7145
 20
-15.2157
 30
0
 70
     0
  0
VERTEX
  8
MACK_GRANITE_265
 10
-77.8311
 20
-15.5151
 30
0
 70
     0
  0
VERTEX
  8
MACK_GRANITE_265
 10
-77.9318
 20
-15.8207
 30
0
 70
     0
  0
VERTEX
  8
MACK_GRANITE_265
 10
-78.0162
 20
-16.1319
 30
0
 70
     0
  0
VERTEX
  8
MACK_GRANITE_265
 10
-78.0838
 20
-16.448
 30
0
 70
     0
  0
VERTEX
  8
MACK_GRANITE_265
 10
-78.1345
 20
-16.7684
 30
0
 70
     0
  0
VERTEX
  8
MACK_GRANITE_265
 10
-78.1677
 20
-17.0924
 30
0
 70
     0
  0
VERTEX
  8
MACK_GRANITE_265
 10
-78.1831
 20
-17.4193
 30
0
 70
     0
  0
VERTEX
  8
MACK_GRANITE_265
 10
-78.1804
 20
-17.7485
 30
0
 70
     0
  0
VERTEX
  8
MACK_GRANITE_265
 10
-78.1591
 20
-18.0794
 30
0
 70
     0
  0
VERTEX
  8
MACK_GRANITE_265
 10
-78.1191
 20
-18.4112
 30
0
 70
     0
  0
VERTEX
  8
MACK_GRANITE_265
 10
-78.0597
 20
-18.7433
 30
0
 70
     0
  0
VERTEX
  8
MACK_GRANITE_265
 10
-77.9808
 20
-19.0751
 30
0
 70
     0
  0
VERTEX
  8
MACK_GRANITE_265
 10
-77.882
 20
-19.4059
 30
0
 70
     0
  0
VERTEX
  8
MACK_GRANITE_265
 10
-77.7628
 20
-19.735
 30
0
 70
     0
  0
SEQEND
  0
POLYLINE
  8
MACK_GRANITE_265
  6
CONTINUOUS
 62
     7
 66
     1
 40
0.0139
 41
0.0139
  0
VERTEX
  8
MACK_GRANITE_265
 10
-76.4663
 20
-21.7355
 30
0
 70
     0
  0
VERTEX
  8
MACK_GRANITE_265
 10
-76.2416
 20
-21.9537
 30
0
 70
     0
  0
VERTEX
  8
MACK_GRANITE_265
 10
-76.0086
 20
-22.1579
 30
0
 70
     0
  0
VERTEX
  8
MACK_GRANITE_265
 10
-75.7679
 20
-22.348
 30
0
 70
     0
  0
VERTEX
  8
MACK_GRANITE_265
 10
-75.5199
 20
-22.524
 30
0
 70
     0
  0
VERTEX
  8
MACK_GRANITE_265
 10
-75.2652
 20
-22.6859
 30
0
 70
     0
  0
VERTEX
  8
MACK_GRANITE_265
 10
-75.0044
 20
-22.8338
 30
0
 70
     0
  0
VERTEX
  8
MACK_GRANITE_265
 10
-74.738
 20
-22.9676
 30
0
 70
     0
  0
VERTEX
  8
MACK_GRANITE_265
 10
-74.4667
 20
-23.0873
 30
0
 70
     0
  0
VERTEX
  8
MACK_GRANITE_265
 10
-74.1908
 20
-23.193
 30
0
 70
     0
  0
VERTEX
  8
MACK_GRANITE_265
 10
-73.9111
 20
-23.2845
 30
0
 70
     0
  0
VERTEX
  8
MACK_GRANITE_265
 10
-73.628
 20
-23.3621
 30
0
 70
     0
  0
VERTEX
  8
MACK_GRANITE_265
 10
-73.3422
 20
-23.4255
 30
0
 70
     0
  0
VERTEX
  8
MACK_GRANITE_265
 10
-73.0541
 20
-23.4749
 30
0
 70
     0
  0
VERTEX
  8
MACK_GRANITE_265
 10
-72.7644
 20
-23.5101
 30
0
 70
     0
  0
VERTEX
  8
MACK_GRANITE_265
 10
-72.4735
 20
-23.5314
 30
0
 70
     0
  0
VERTEX
  8
MACK_GRANITE_265
 10
-72.1821
 20
-23.5385
 30
0
 70
     0
  0
VERTEX
  8
MACK_GRANITE_265
 10
-71.8906
 20
-23.5316
 30
0
 70
     0
  0
VERTEX
  8
MACK_GRANITE_265
 10
-71.5998
 20
-23.5106
 30
0
 70
     0
  0
VERTEX
  8
MACK_GRANITE_265
 10
-71.31
 20
-23.4755
 30
0
 70
     0
  0
VERTEX
  8
MACK_GRANITE_265
 10
-71.0219
 20
-23.4263
 30
0
 70
     0
  0
VERTEX
  8
MACK_GRANITE_265
 10
-70.736
 20
-23.3631
 30
0
 70
     0
  0
VERTEX
  8
MACK_GRANITE_265
 10
-70.4529
 20
-23.2858
 30
0
 70
     0
  0
VERTEX
  8
MACK_GRANITE_265
 10
-70.1731
 20
-23.1945
 30
0
 70
     0
  0
VERTEX
  8
MACK_GRANITE_265
 10
-69.8972
 20
-23.089
 30
0
 70
     0
  0
VERTEX
  8
MACK_GRANITE_265
 10
-69.6257
 20
-22.9695
 30
0
 70
     0
  0
VERTEX
  8
MACK_GRANITE_265
 10
-69.3592
 20
-22.8359
 30
0
 70
     0
  0
VERTEX
  8
MACK_GRANITE_265
 10
-69.0983
 20
-22.6882
 30
0
 70
     0
  0
VERTEX
  8
MACK_GRANITE_265
 10
-68.8435
 20
-22.5265
 30
0
 70
     0
  0
VERTEX
  8
MACK_GRANITE_265
 10
-68.5954
 20
-22.3506
 30
0
 70
     0
  0
VERTEX
  8
MACK_GRANITE_265
 10
-68.3545
 20
-22.1607
 30
0
 70
     0
  0
VERTEX
  8
MACK_GRANITE_265
 10
-68.1214
 20
-21.9567
 30
0
 70
     0
  0
VERTEX
  8
MACK_GRANITE_265
 10
-67.8966
 20
-21.7387
 30
0
 70
     0
  0
SEQEND
  0
POLYLINE
  8
MACK_GRANITE_265
  6
CONTINUOUS
 62
     7
 66
     1
 40
0.0139
 41
0.0139
  0
VERTEX
  8
MACK_GRANITE_265
 10
-66.5986
 20
-19.7392
 30
0
 70
     0
  0
VERTEX
  8
MACK_GRANITE_265
 10
-66.501
 20
-19.4745
 30
0
 70
     0
  0
VERTEX
  8
MACK_GRANITE_265
 10
-66.4162
 20
-19.2059
 30
0
 70
     0
  0
VERTEX
  8
MACK_GRANITE_265
 10
-66.3443
 20
-18.9339
 30
0
 70
     0
  0
VERTEX
  8
MACK_GRANITE_265
 10
-66.2852
 20
-18.659
 30
0
 70
     0
  0
VERTEX
  8
MACK_GRANITE_265
 10
-66.2392
 20
-18.3817
 30
0
 70
     0
  0
VERTEX
  8
MACK_GRANITE_265
 10
-66.2062
 20
-18.1023
 30
0
 70
     0
  0
VERTEX
  8
MACK_GRANITE_265
 10
-66.1864
 20
-17.8213
 30
0
 70
     0
  0
VERTEX
  8
MACK_GRANITE_265
 10
-66.1798
 20
-17.5393
 30
0
 70
     0
  0
SEQEND
  0
INSERT
  8
MACK_GRANITE_265
  2
Group1
 10
0
 20
0
 30
0
  0
ENDSEC
  0
EOF
