  0
SECTION
  2
HEADER
  9
$ACADVER
  1
AC1006
  9
$AXISMODE
 70
     0
  9
$AXISUNIT
 10
0.125
 20
0.125
  9
$CECOLOR
 62
0
  9
$CELTYPE
  6
CONTINUOUS
  9
$CLAYER
  8
MACK_GRANITE_265
  9
$EXTMIN
 10
0
 20
0
  9
$EXTMAX
 10
119.9722
 20
59.9722
  9
$LIMMIN
 10
0
 20
0
  9
$LIMMAX
 10
119.9722
 20
59.9722
  9
$GRIDMODE
 70
     0
  9
$GRIDUNIT
 10
0.125
 20
0.125
  9
$MIRRTEXT
 70
     1
  9
$SNAPMODE
 70
     1
  9
$SNAPUNIT
 10
0.125
 20
0
  9
$SNAPSTYLE
 70
     0
  9
$SPLINESEGS
 70
     8
  9
$SPLINETYPE
 70
     6
  0
ENDSEC
  0
SECTION
  2
TABLES
  0
TABLE
  2
LTYPE
 70
     1
  0
LTYPE
  2
CONTINUOUS
 70
    64
  3
Descriptive Text
 72
    65
 73
     0
 40
0
  0
ENDTAB
  0
TABLE
  2
LAYER
 70
     1
  0
LAYER
  2
MACK_GRANITE_265
 70
     0
 62
     7
  6
CONTINUOUS
  0
ENDTAB
  0
TABLE
  2
STYLE
 70
     2
  0
STYLE
  2
STANDARD
 70
    64
 40
0.0
 41
1.0
 50
0.0
 71
     0
 42
0.2
  3
txt
  4

  0
STYLE
  2
ARIAL
 70
    64
 40
0.0
 41
1.0
 50
0.0
 71
     0
 42
0.2
  3
arial
  4

  0
STYLE
  2
COURIER
 70
    64
 40
0.0
 41
1.0
 50
0.0
 71
     0
 42
0.2
  3
courier
  4

  0
ENDTAB
  0
TABLE
  2
VIEW
 70
     0
  0
ENDTAB
  0
TABLE
  2
USC
 70
     0
  0
ENDTAB
  0
TABLE
  2
DWGMGR
 70
     0
  0
ENDTAB
  0
ENDSEC
  0
SECTION
  2
BLOCKS
  0
ENDSEC
  0
SECTION
  2
ENTITIES
  0
POLYLINE
  8
MACK_GRANITE_265
  6
CONTINUOUS
 62
     7
 66
     1
 40
0.0139
 41
0.0139
  0
VERTEX
  8
MACK_GRANITE_265
 10
-59.9925
 20
-0.0175
 30
0
 70
     0
  0
VERTEX
  8
MACK_GRANITE_265
 10
-59.6563
 20
-0.0267
 30
0
 70
     0
  0
VERTEX
  8
MACK_GRANITE_265
 10
-59.3231
 20
-0.0545
 30
0
 70
     0
  0
VERTEX
  8
MACK_GRANITE_265
 10
-58.9934
 20
-0.1006
 30
0
 70
     0
  0
VERTEX
  8
MACK_GRANITE_265
 10
-58.668
 20
-0.1647
 30
0
 70
     0
  0
VERTEX
  8
MACK_GRANITE_265
 10
-58.3476
 20
-0.2465
 30
0
 70
     0
  0
VERTEX
  8
MACK_GRANITE_265
 10
-58.0328
 20
-0.3456
 30
0
 70
     0
  0
VERTEX
  8
MACK_GRANITE_265
 10
-57.7244
 20
-0.4617
 30
0
 70
     0
  0
VERTEX
  8
MACK_GRANITE_265
 10
-57.423
 20
-0.5944
 30
0
 70
     0
  0
VERTEX
  8
MACK_GRANITE_265
 10
-57.1294
 20
-0.7436
 30
0
 70
     0
  0
VERTEX
  8
MACK_GRANITE_265
 10
-56.8442
 20
-0.9087
 30
0
 70
     0
  0
VERTEX
  8
MACK_GRANITE_265
 10
-56.5682
 20
-1.0895
 30
0
 70
     0
  0
VERTEX
  8
MACK_GRANITE_265
 10
-56.302
 20
-1.2857
 30
0
 70
     0
  0
VERTEX
  8
MACK_GRANITE_265
 10
-56.0463
 20
-1.4969
 30
0
 70
     0
  0
VERTEX
  8
MACK_GRANITE_265
 10
-55.8018
 20
-1.7229
 30
0
 70
     0
  0
VERTEX
  8
MACK_GRANITE_265
 10
-55.5692
 20
-1.9632
 30
0
 70
     0
  0
VERTEX
  8
MACK_GRANITE_265
 10
-55.3492
 20
-2.2175
 30
0
 70
     0
  0
SEQEND
  0
POLYLINE
  8
MACK_GRANITE_265
  6
CONTINUOUS
 62
     7
 66
     1
 40
0.0139
 41
0.0139
  0
VERTEX
  8
MACK_GRANITE_265
 10
-54.2689
 20
-4.2175
 30
0
 70
     0
  0
VERTEX
  8
MACK_GRANITE_265
 10
-54.2042
 20
-4.437
 30
0
 70
     0
  0
VERTEX
  8
MACK_GRANITE_265
 10
-54.1481
 20
-4.6585
 30
0
 70
     0
  0
VERTEX
  8
MACK_GRANITE_265
 10
-54.1006
 20
-4.8819
 30
0
 70
     0
  0
VERTEX
  8
MACK_GRANITE_265
 10
-54.0616
 20
-5.1069
 30
0
 70
     0
  0
VERTEX
  8
MACK_GRANITE_265
 10
-54.0313
 20
-5.3332
 30
0
 70
     0
  0
VERTEX
  8
MACK_GRANITE_265
 10
-54.0096
 20
-5.5606
 30
0
 70
     0
  0
VERTEX
  8
MACK_GRANITE_265
 10
-53.9967
 20
-5.7887
 30
0
 70
     0
  0
VERTEX
  8
MACK_GRANITE_265
 10
-53.9925
 20
-6.0175
 30
0
 70
     0
  0
SEQEND
  0
POLYLINE
  8
MACK_GRANITE_265
  6
CONTINUOUS
 62
     7
 66
     1
 40
0.0139
 41
0.0139
  0
VERTEX
  8
MACK_GRANITE_265
 10
-95.9925
 20
-6.0197
 30
0
 70
     0
  0
VERTEX
  8
MACK_GRANITE_265
 10
-95.985
 20
-5.7109
 30
0
 70
     0
  0
VERTEX
  8
MACK_GRANITE_265
 10
-95.9622
 20
-5.4061
 30
0
 70
     0
  0
VERTEX
  8
MACK_GRANITE_265
 10
-95.9243
 20
-5.1058
 30
0
 70
     0
  0
VERTEX
  8
MACK_GRANITE_265
 10
-95.8718
 20
-4.8102
 30
0
 70
     0
  0
VERTEX
  8
MACK_GRANITE_265
 10
-95.805
 20
-4.5198
 30
0
 70
     0
  0
VERTEX
  8
MACK_GRANITE_265
 10
-95.7243
 20
-4.235
 30
0
 70
     0
  0
VERTEX
  8
MACK_GRANITE_265
 10
-95.6301
 20
-3.9561
 30
0
 70
     0
  0
VERTEX
  8
MACK_GRANITE_265
 10
-95.5228
 20
-3.6834
 30
0
 70
     0
  0
VERTEX
  8
MACK_GRANITE_265
 10
-95.4028
 20
-3.4175
 30
0
 70
     0
  0
VERTEX
  8
MACK_GRANITE_265
 10
-95.2704
 20
-3.1587
 30
0
 70
     0
  0
VERTEX
  8
MACK_GRANITE_265
 10
-95.126
 20
-2.9072
 30
0
 70
     0
  0
VERTEX
  8
MACK_GRANITE_265
 10
-94.9699
 20
-2.6636
 30
0
 70
     0
  0
VERTEX
  8
MACK_GRANITE_265
 10
-94.8027
 20
-2.4282
 30
0
 70
     0
  0
VERTEX
  8
MACK_GRANITE_265
 10
-94.6246
 20
-2.2014
 30
0
 70
     0
  0
VERTEX
  8
MACK_GRANITE_265
 10
-94.436
 20
-1.9836
 30
0
 70
     0
  0
VERTEX
  8
MACK_GRANITE_265
 10
-94.2373
 20
-1.7751
 30
0
 70
     0
  0
VERTEX
  8
MACK_GRANITE_265
 10
-94.0289
 20
-1.5762
 30
0
 70
     0
  0
VERTEX
  8
MACK_GRANITE_265
 10
-93.8111
 20
-1.3875
 30
0
 70
     0
  0
VERTEX
  8
MACK_GRANITE_265
 10
-93.5844
 20
-1.2093
 30
0
 70
     0
  0
VERTEX
  8
MACK_GRANITE_265
 10
-93.3491
 20
-1.0419
 30
0
 70
     0
  0
VERTEX
  8
MACK_GRANITE_265
 10
-93.1056
 20
-0.8858
 30
0
 70
     0
  0
VERTEX
  8
MACK_GRANITE_265
 10
-92.8543
 20
-0.7412
 30
0
 70
     0
  0
VERTEX
  8
MACK_GRANITE_265
 10
-92.5955
 20
-0.6086
 30
0
 70
     0
  0
VERTEX
  8
MACK_GRANITE_265
 10
-92.3296
 20
-0.4884
 30
0
 70
     0
  0
VERTEX
  8
MACK_GRANITE_265
 10
-92.0571
 20
-0.381
 30
0
 70
     0
  0
VERTEX
  8
MACK_GRANITE_265
 10
-91.7782
 20
-0.2867
 30
0
 70
     0
  0
VERTEX
  8
MACK_GRANITE_265
 10
-91.4934
 20
-0.2058
 30
0
 70
     0
  0
VERTEX
  8
MACK_GRANITE_265
 10
-91.203
 20
-0.1389
 30
0
 70
     0
  0
VERTEX
  8
MACK_GRANITE_265
 10
-90.9075
 20
-0.0862
 30
0
 70
     0
  0
VERTEX
  8
MACK_GRANITE_265
 10
-90.6072
 20
-0.0482
 30
0
 70
     0
  0
VERTEX
  8
MACK_GRANITE_265
 10
-90.3024
 20
-0.0251
 30
0
 70
     0
  0
VERTEX
  8
MACK_GRANITE_265
 10
-89.9936
 20
-0.0175
 30
0
 70
     0
  0
SEQEND
  0
POLYLINE
  8
MACK_GRANITE_265
  6
CONTINUOUS
 62
     7
 66
     1
 40
0.0139
 41
0.0139
  0
VERTEX
  8
MACK_GRANITE_265
 10
-53.9925
 20
-18.0175
 30
0
 70
     0
  0
VERTEX
  8
MACK_GRANITE_265
 10
-53.9989
 20
-18.2992
 30
0
 70
     0
  0
VERTEX
  8
MACK_GRANITE_265
 10
-54.0186
 20
-18.5799
 30
0
 70
     0
  0
VERTEX
  8
MACK_GRANITE_265
 10
-54.0514
 20
-18.859
 30
0
 70
     0
  0
VERTEX
  8
MACK_GRANITE_265
 10
-54.0972
 20
-19.1362
 30
0
 70
     0
  0
VERTEX
  8
MACK_GRANITE_265
 10
-54.1561
 20
-19.4108
 30
0
 70
     0
  0
VERTEX
  8
MACK_GRANITE_265
 10
-54.2278
 20
-19.6826
 30
0
 70
     0
  0
VERTEX
  8
MACK_GRANITE_265
 10
-54.3123
 20
-19.9509
 30
0
 70
     0
  0
VERTEX
  8
MACK_GRANITE_265
 10
-54.4096
 20
-20.2154
 30
0
 70
     0
  0
SEQEND
  0
POLYLINE
  8
MACK_GRANITE_265
  6
CONTINUOUS
 62
     7
 66
     1
 40
0.0139
 41
0.0139
  0
VERTEX
  8
MACK_GRANITE_265
 10
-55.7061
 20
-22.2159
 30
0
 70
     0
  0
VERTEX
  8
MACK_GRANITE_265
 10
-55.9222
 20
-22.4261
 30
0
 70
     0
  0
VERTEX
  8
MACK_GRANITE_265
 10
-56.1476
 20
-22.6243
 30
0
 70
     0
  0
VERTEX
  8
MACK_GRANITE_265
 10
-56.3818
 20
-22.8102
 30
0
 70
     0
  0
VERTEX
  8
MACK_GRANITE_265
 10
-56.6243
 20
-22.9838
 30
0
 70
     0
  0
VERTEX
  8
MACK_GRANITE_265
 10
-56.8745
 20
-23.1446
 30
0
 70
     0
  0
VERTEX
  8
MACK_GRANITE_265
 10
-57.1319
 20
-23.2926
 30
0
 70
     0
  0
VERTEX
  8
MACK_GRANITE_265
 10
-57.396
 20
-23.4276
 30
0
 70
     0
  0
VERTEX
  8
MACK_GRANITE_265
 10
-57.6663
 20
-23.5492
 30
0
 70
     0
  0
VERTEX
  8
MACK_GRANITE_265
 10
-57.9423
 20
-23.6573
 30
0
 70
     0
  0
VERTEX
  8
MACK_GRANITE_265
 10
-58.2235
 20
-23.7517
 30
0
 70
     0
  0
VERTEX
  8
MACK_GRANITE_265
 10
-58.5093
 20
-23.8321
 30
0
 70
     0
  0
VERTEX
  8
MACK_GRANITE_265
 10
-58.7993
 20
-23.8984
 30
0
 70
     0
  0
VERTEX
  8
MACK_GRANITE_265
 10
-59.0928
 20
-23.9503
 30
0
 70
     0
  0
VERTEX
  8
MACK_GRANITE_265
 10
-59.3896
 20
-23.9876
 30
0
 70
     0
  0
VERTEX
  8
MACK_GRANITE_265
 10
-59.6889
 20
-24.01
 30
0
 70
     0
  0
VERTEX
  8
MACK_GRANITE_265
 10
-59.9903
 20
-24.0175
 30
0
 70
     0
  0
SEQEND
  0
POLYLINE
  8
MACK_GRANITE_265
  6
CONTINUOUS
 62
     7
 66
     1
 40
0.0139
 41
0.0139
  0
VERTEX
  8
MACK_GRANITE_265
 10
-89.9903
 20
-24.0175
 30
0
 70
     0
  0
VERTEX
  8
MACK_GRANITE_265
 10
-90.299
 20
-24.01
 30
0
 70
     0
  0
VERTEX
  8
MACK_GRANITE_265
 10
-90.6038
 20
-23.9872
 30
0
 70
     0
  0
VERTEX
  8
MACK_GRANITE_265
 10
-90.9041
 20
-23.9493
 30
0
 70
     0
  0
VERTEX
  8
MACK_GRANITE_265
 10
-91.1996
 20
-23.8968
 30
0
 70
     0
  0
VERTEX
  8
MACK_GRANITE_265
 10
-91.49
 20
-23.83
 30
0
 70
     0
  0
VERTEX
  8
MACK_GRANITE_265
 10
-91.7748
 20
-23.7494
 30
0
 70
     0
  0
VERTEX
  8
MACK_GRANITE_265
 10
-92.0537
 20
-23.6552
 30
0
 70
     0
  0
VERTEX
  8
MACK_GRANITE_265
 10
-92.3263
 20
-23.548
 30
0
 70
     0
  0
VERTEX
  8
MACK_GRANITE_265
 10
-92.5922
 20
-23.428
 30
0
 70
     0
  0
VERTEX
  8
MACK_GRANITE_265
 10
-92.851
 20
-23.2956
 30
0
 70
     0
  0
VERTEX
  8
MACK_GRANITE_265
 10
-93.1024
 20
-23.1512
 30
0
 70
     0
  0
VERTEX
  8
MACK_GRANITE_265
 10
-93.346
 20
-22.9952
 30
0
 70
     0
  0
VERTEX
  8
MACK_GRANITE_265
 10
-93.5814
 20
-22.828
 30
0
 70
     0
  0
VERTEX
  8
MACK_GRANITE_265
 10
-93.8082
 20
-22.6499
 30
0
 70
     0
  0
VERTEX
  8
MACK_GRANITE_265
 10
-94.026
 20
-22.4614
 30
0
 70
     0
  0
VERTEX
  8
MACK_GRANITE_265
 10
-94.2345
 20
-22.2627
 30
0
 70
     0
  0
VERTEX
  8
MACK_GRANITE_265
 10
-94.4333
 20
-22.0543
 30
0
 70
     0
  0
VERTEX
  8
MACK_GRANITE_265
 10
-94.6221
 20
-21.8366
 30
0
 70
     0
  0
VERTEX
  8
MACK_GRANITE_265
 10
-94.8003
 20
-21.61
 30
0
 70
     0
  0
VERTEX
  8
MACK_GRANITE_265
 10
-94.9677
 20
-21.3747
 30
0
 70
     0
  0
VERTEX
  8
MACK_GRANITE_265
 10
-95.1239
 20
-21.1312
 30
0
 70
     0
  0
VERTEX
  8
MACK_GRANITE_265
 10
-95.2684
 20
-20.88
 30
0
 70
     0
  0
VERTEX
  8
MACK_GRANITE_265
 10
-95.401
 20
-20.6212
 30
0
 70
     0
  0
VERTEX
  8
MACK_GRANITE_265
 10
-95.5212
 20
-20.3554
 30
0
 70
     0
  0
VERTEX
  8
MACK_GRANITE_265
 10
-95.6287
 20
-20.0829
 30
0
 70
     0
  0
VERTEX
  8
MACK_GRANITE_265
 10
-95.7231
 20
-19.8041
 30
0
 70
     0
  0
VERTEX
  8
MACK_GRANITE_265
 10
-95.8039
 20
-19.5193
 30
0
 70
     0
  0
VERTEX
  8
MACK_GRANITE_265
 10
-95.8709
 20
-19.229
 30
0
 70
     0
  0
VERTEX
  8
MACK_GRANITE_265
 10
-95.9236
 20
-18.9335
 30
0
 70
     0
  0
VERTEX
  8
MACK_GRANITE_265
 10
-95.9617
 20
-18.6332
 30
0
 70
     0
  0
VERTEX
  8
MACK_GRANITE_265
 10
-95.9848
 20
-18.3285
 30
0
 70
     0
  0
VERTEX
  8
MACK_GRANITE_265
 10
-95.9925
 20
-18.0197
 30
0
 70
     0
  0
SEQEND
  0
POLYLINE
  8
MACK_GRANITE_265
  6
CONTINUOUS
 62
     7
 66
     1
 40
0.0139
 41
0.0139
  0
VERTEX
  8
MACK_GRANITE_265
 10
-89.9906
 20
-24.0175
 30
0
 70
     0
  0
VERTEX
  8
MACK_GRANITE_265
 10
-90.2994
 20
-24.01
 30
0
 70
     0
  0
VERTEX
  8
MACK_GRANITE_265
 10
-90.6041
 20
-23.9872
 30
0
 70
     0
  0
VERTEX
  8
MACK_GRANITE_265
 10
-90.9045
 20
-23.9493
 30
0
 70
     0
  0
VERTEX
  8
MACK_GRANITE_265
 10
-91.2
 20
-23.8968
 30
0
 70
     0
  0
VERTEX
  8
MACK_GRANITE_265
 10
-91.4904
 20
-23.83
 30
0
 70
     0
  0
VERTEX
  8
MACK_GRANITE_265
 10
-91.7752
 20
-23.7494
 30
0
 70
     0
  0
VERTEX
  8
MACK_GRANITE_265
 10
-92.0541
 20
-23.6552
 30
0
 70
     0
  0
VERTEX
  8
MACK_GRANITE_265
 10
-92.3266
 20
-23.548
 30
0
 70
     0
  0
VERTEX
  8
MACK_GRANITE_265
 10
-92.5925
 20
-23.428
 30
0
 70
     0
  0
VERTEX
  8
MACK_GRANITE_265
 10
-92.8514
 20
-23.2956
 30
0
 70
     0
  0
VERTEX
  8
MACK_GRANITE_265
 10
-93.1028
 20
-23.1512
 30
0
 70
     0
  0
VERTEX
  8
MACK_GRANITE_265
 10
-93.3464
 20
-22.9952
 30
0
 70
     0
  0
VERTEX
  8
MACK_GRANITE_265
 10
-93.5817
 20
-22.828
 30
0
 70
     0
  0
VERTEX
  8
MACK_GRANITE_265
 10
-93.8085
 20
-22.6499
 30
0
 70
     0
  0
VERTEX
  8
MACK_GRANITE_265
 10
-94.0264
 20
-22.4614
 30
0
 70
     0
  0
VERTEX
  8
MACK_GRANITE_265
 10
-94.2349
 20
-22.2627
 30
0
 70
     0
  0
VERTEX
  8
MACK_GRANITE_265
 10
-94.4337
 20
-22.0543
 30
0
 70
     0
  0
VERTEX
  8
MACK_GRANITE_265
 10
-94.6224
 20
-21.8366
 30
0
 70
     0
  0
VERTEX
  8
MACK_GRANITE_265
 10
-94.8007
 20
-21.61
 30
0
 70
     0
  0
VERTEX
  8
MACK_GRANITE_265
 10
-94.9681
 20
-21.3747
 30
0
 70
     0
  0
VERTEX
  8
MACK_GRANITE_265
 10
-95.1242
 20
-21.1312
 30
0
 70
     0
  0
VERTEX
  8
MACK_GRANITE_265
 10
-95.2688
 20
-20.88
 30
0
 70
     0
  0
VERTEX
  8
MACK_GRANITE_265
 10
-95.4014
 20
-20.6212
 30
0
 70
     0
  0
VERTEX
  8
MACK_GRANITE_265
 10
-95.5216
 20
-20.3554
 30
0
 70
     0
  0
VERTEX
  8
MACK_GRANITE_265
 10
-95.6291
 20
-20.0829
 30
0
 70
     0
  0
VERTEX
  8
MACK_GRANITE_265
 10
-95.7234
 20
-19.8041
 30
0
 70
     0
  0
VERTEX
  8
MACK_GRANITE_265
 10
-95.8043
 20
-19.5193
 30
0
 70
     0
  0
VERTEX
  8
MACK_GRANITE_265
 10
-95.8713
 20
-19.229
 30
0
 70
     0
  0
VERTEX
  8
MACK_GRANITE_265
 10
-95.924
 20
-18.9335
 30
0
 70
     0
  0
VERTEX
  8
MACK_GRANITE_265
 10
-95.9621
 20
-18.6332
 30
0
 70
     0
  0
VERTEX
  8
MACK_GRANITE_265
 10
-95.9852
 20
-18.3285
 30
0
 70
     0
  0
VERTEX
  8
MACK_GRANITE_265
 10
-95.9929
 20
-18.0197
 30
0
 70
     0
  0
SEQEND
  0
POLYLINE
  8
MACK_GRANITE_265
  6
CONTINUOUS
 62
     7
 66
     1
 40
0.0139
 41
0.0139
  0
VERTEX
  8
MACK_GRANITE_265
 10
-32.3879
 20
68.1689
 30
0
 70
     0
  0
VERTEX
  8
MACK_GRANITE_265
 10
-32.1663
 20
68.1265
 30
0
 70
     0
  0
VERTEX
  8
MACK_GRANITE_265
 10
-31.9507
 20
68.0681
 30
0
 70
     0
  0
VERTEX
  8
MACK_GRANITE_265
 10
-31.7418
 20
67.9944
 30
0
 70
     0
  0
VERTEX
  8
MACK_GRANITE_265
 10
-31.5403
 20
67.9059
 30
0
 70
     0
  0
VERTEX
  8
MACK_GRANITE_265
 10
-31.3469
 20
67.8033
 30
0
 70
     0
  0
VERTEX
  8
MACK_GRANITE_265
 10
-31.1622
 20
67.6872
 30
0
 70
     0
  0
VERTEX
  8
MACK_GRANITE_265
 10
-30.9869
 20
67.5582
 30
0
 70
     0
  0
VERTEX
  8
MACK_GRANITE_265
 10
-30.8217
 20
67.4169
 30
0
 70
     0
  0
VERTEX
  8
MACK_GRANITE_265
 10
-30.6672
 20
67.2639
 30
0
 70
     0
  0
VERTEX
  8
MACK_GRANITE_265
 10
-30.5241
 20
67.0999
 30
0
 70
     0
  0
VERTEX
  8
MACK_GRANITE_265
 10
-30.3931
 20
66.9255
 30
0
 70
     0
  0
VERTEX
  8
MACK_GRANITE_265
 10
-30.2748
 20
66.7412
 30
0
 70
     0
  0
VERTEX
  8
MACK_GRANITE_265
 10
-30.17
 20
66.5478
 30
0
 70
     0
  0
VERTEX
  8
MACK_GRANITE_265
 10
-30.0792
 20
66.3457
 30
0
 70
     0
  0
VERTEX
  8
MACK_GRANITE_265
 10
-30.0031
 20
66.1357
 30
0
 70
     0
  0
VERTEX
  8
MACK_GRANITE_265
 10
-29.9425
 20
65.9184
 30
0
 70
     0
  0
SEQEND
  0
POLYLINE
  8
MACK_GRANITE_265
  6
CONTINUOUS
 62
     7
 66
     1
 40
0.0139
 41
0.0139
  0
VERTEX
  8
MACK_GRANITE_265
 10
-19.9929
 20
-21.2175
 30
0
 70
     0
  0
VERTEX
  8
MACK_GRANITE_265
 10
-19.9863
 20
-21.7303
 30
0
 70
     0
  0
VERTEX
  8
MACK_GRANITE_265
 10
-19.9666
 20
-22.2402
 30
0
 70
     0
  0
VERTEX
  8
MACK_GRANITE_265
 10
-19.9341
 20
-22.7469
 30
0
 70
     0
  0
VERTEX
  8
MACK_GRANITE_265
 10
-19.8888
 20
-23.2502
 30
0
 70
     0
  0
VERTEX
  8
MACK_GRANITE_265
 10
-19.8309
 20
-23.75
 30
0
 70
     0
  0
VERTEX
  8
MACK_GRANITE_265
 10
-19.7606
 20
-24.2462
 30
0
 70
     0
  0
VERTEX
  8
MACK_GRANITE_265
 10
-19.6781
 20
-24.7386
 30
0
 70
     0
  0
VERTEX
  8
MACK_GRANITE_265
 10
-19.5835
 20
-25.2269
 30
0
 70
     0
  0
VERTEX
  8
MACK_GRANITE_265
 10
-19.4769
 20
-25.7112
 30
0
 70
     0
  0
VERTEX
  8
MACK_GRANITE_265
 10
-19.3586
 20
-26.1911
 30
0
 70
     0
  0
VERTEX
  8
MACK_GRANITE_265
 10
-19.2287
 20
-26.6666
 30
0
 70
     0
  0
VERTEX
  8
MACK_GRANITE_265
 10
-19.0873
 20
-27.1374
 30
0
 70
     0
  0
VERTEX
  8
MACK_GRANITE_265
 10
-18.9347
 20
-27.6034
 30
0
 70
     0
  0
VERTEX
  8
MACK_GRANITE_265
 10
-18.771
 20
-28.0645
 30
0
 70
     0
  0
VERTEX
  8
MACK_GRANITE_265
 10
-18.5962
 20
-28.5205
 30
0
 70
     0
  0
VERTEX
  8
MACK_GRANITE_265
 10
-18.4107
 20
-28.9712
 30
0
 70
     0
  0
VERTEX
  8
MACK_GRANITE_265
 10
-18.2146
 20
-29.4164
 30
0
 70
     0
  0
VERTEX
  8
MACK_GRANITE_265
 10
-18.008
 20
-29.8561
 30
0
 70
     0
  0
VERTEX
  8
MACK_GRANITE_265
 10
-17.7911
 20
-30.2899
 30
0
 70
     0
  0
VERTEX
  8
MACK_GRANITE_265
 10
-17.5641
 20
-30.7179
 30
0
 70
     0
  0
VERTEX
  8
MACK_GRANITE_265
 10
-17.327
 20
-31.1398
 30
0
 70
     0
  0
VERTEX
  8
MACK_GRANITE_265
 10
-17.0802
 20
-31.5554
 30
0
 70
     0
  0
VERTEX
  8
MACK_GRANITE_265
 10
-16.8237
 20
-31.9645
 30
0
 70
     0
  0
VERTEX
  8
MACK_GRANITE_265
 10
-16.5577
 20
-32.3672
 30
0
 70
     0
  0
VERTEX
  8
MACK_GRANITE_265
 10
-16.2823
 20
-32.763
 30
0
 70
     0
  0
VERTEX
  8
MACK_GRANITE_265
 10
-15.9978
 20
-33.152
 30
0
 70
     0
  0
VERTEX
  8
MACK_GRANITE_265
 10
-15.7043
 20
-33.5339
 30
0
 70
     0
  0
VERTEX
  8
MACK_GRANITE_265
 10
-15.4019
 20
-33.9086
 30
0
 70
     0
  0
VERTEX
  8
MACK_GRANITE_265
 10
-15.0909
 20
-34.2759
 30
0
 70
     0
  0
VERTEX
  8
MACK_GRANITE_265
 10
-14.7713
 20
-34.6357
 30
0
 70
     0
  0
VERTEX
  8
MACK_GRANITE_265
 10
-14.4434
 20
-34.9877
 30
0
 70
     0
  0
VERTEX
  8
MACK_GRANITE_265
 10
-14.1072
 20
-35.3319
 30
0
 70
     0
  0
VERTEX
  8
MACK_GRANITE_265
 10
-13.7631
 20
-35.668
 30
0
 70
     0
  0
VERTEX
  8
MACK_GRANITE_265
 10
-13.411
 20
-35.9959
 30
0
 70
     0
  0
VERTEX
  8
MACK_GRANITE_265
 10
-13.0513
 20
-36.3155
 30
0
 70
     0
  0
VERTEX
  8
MACK_GRANITE_265
 10
-12.684
 20
-36.6266
 30
0
 70
     0
  0
VERTEX
  8
MACK_GRANITE_265
 10
-12.3093
 20
-36.9289
 30
0
 70
     0
  0
VERTEX
  8
MACK_GRANITE_265
 10
-11.9274
 20
-37.2225
 30
0
 70
     0
  0
VERTEX
  8
MACK_GRANITE_265
 10
-11.5384
 20
-37.507
 30
0
 70
     0
  0
VERTEX
  8
MACK_GRANITE_265
 10
-11.1425
 20
-37.7823
 30
0
 70
     0
  0
VERTEX
  8
MACK_GRANITE_265
 10
-10.7399
 20
-38.0483
 30
0
 70
     0
  0
VERTEX
  8
MACK_GRANITE_265
 10
-10.3307
 20
-38.3048
 30
0
 70
     0
  0
VERTEX
  8
MACK_GRANITE_265
 10
-9.9151
 20
-38.5517
 30
0
 70
     0
  0
VERTEX
  8
MACK_GRANITE_265
 10
-9.4932
 20
-38.7887
 30
0
 70
     0
  0
VERTEX
  8
MACK_GRANITE_265
 10
-9.0653
 20
-39.0158
 30
0
 70
     0
  0
VERTEX
  8
MACK_GRANITE_265
 10
-8.6314
 20
-39.2327
 30
0
 70
     0
  0
VERTEX
  8
MACK_GRANITE_265
 10
-8.1918
 20
-39.4393
 30
0
 70
     0
  0
VERTEX
  8
MACK_GRANITE_265
 10
-7.7465
 20
-39.6354
 30
0
 70
     0
  0
VERTEX
  8
MACK_GRANITE_265
 10
-7.2958
 20
-39.8209
 30
0
 70
     0
  0
VERTEX
  8
MACK_GRANITE_265
 10
-6.8399
 20
-39.9956
 30
0
 70
     0
  0
VERTEX
  8
MACK_GRANITE_265
 10
-6.3788
 20
-40.1594
 30
0
 70
     0
  0
VERTEX
  8
MACK_GRANITE_265
 10
-5.9128
 20
-40.312
 30
0
 70
     0
  0
VERTEX
  8
MACK_GRANITE_265
 10
-5.4419
 20
-40.4534
 30
0
 70
     0
  0
VERTEX
  8
MACK_GRANITE_265
 10
-4.9665
 20
-40.5833
 30
0
 70
     0
  0
VERTEX
  8
MACK_GRANITE_265
 10
-4.4865
 20
-40.7016
 30
0
 70
     0
  0
VERTEX
  8
MACK_GRANITE_265
 10
-4.0023
 20
-40.8081
 30
0
 70
     0
  0
VERTEX
  8
MACK_GRANITE_265
 10
-3.5139
 20
-40.9028
 30
0
 70
     0
  0
VERTEX
  8
MACK_GRANITE_265
 10
-3.0216
 20
-40.9853
 30
0
 70
     0
  0
VERTEX
  8
MACK_GRANITE_265
 10
-2.5254
 20
-41.0556
 30
0
 70
     0
  0
VERTEX
  8
MACK_GRANITE_265
 10
-2.0255
 20
-41.1134
 30
0
 70
     0
  0
VERTEX
  8
MACK_GRANITE_265
 10
-1.5222
 20
-41.1587
 30
0
 70
     0
  0
VERTEX
  8
MACK_GRANITE_265
 10
-1.0155
 20
-41.1913
 30
0
 70
     0
  0
VERTEX
  8
MACK_GRANITE_265
 10
-0.5057
 20
-41.2109
 30
0
 70
     0
  0
VERTEX
  8
MACK_GRANITE_265
 10
0.0071
 20
-41.2175
 30
0
 70
     0
  0
VERTEX
  8
MACK_GRANITE_265
 10
0.52
 20
-41.2109
 30
0
 70
     0
  0
VERTEX
  8
MACK_GRANITE_265
 10
1.0298
 20
-41.1913
 30
0
 70
     0
  0
VERTEX
  8
MACK_GRANITE_265
 10
1.5365
 20
-41.1587
 30
0
 70
     0
  0
VERTEX
  8
MACK_GRANITE_265
 10
2.0398
 20
-41.1134
 30
0
 70
     0
  0
VERTEX
  8
MACK_GRANITE_265
 10
2.5397
 20
-41.0556
 30
0
 70
     0
  0
VERTEX
  8
MACK_GRANITE_265
 10
3.0359
 20
-40.9853
 30
0
 70
     0
  0
VERTEX
  8
MACK_GRANITE_265
 10
3.5282
 20
-40.9028
 30
0
 70
     0
  0
VERTEX
  8
MACK_GRANITE_265
 10
4.0166
 20
-40.8081
 30
0
 70
     0
  0
VERTEX
  8
MACK_GRANITE_265
 10
4.5008
 20
-40.7016
 30
0
 70
     0
  0
VERTEX
  8
MACK_GRANITE_265
 10
4.9808
 20
-40.5833
 30
0
 70
     0
  0
VERTEX
  8
MACK_GRANITE_265
 10
5.4562
 20
-40.4534
 30
0
 70
     0
  0
VERTEX
  8
MACK_GRANITE_265
 10
5.927
 20
-40.312
 30
0
 70
     0
  0
VERTEX
  8
MACK_GRANITE_265
 10
6.3931
 20
-40.1594
 30
0
 70
     0
  0
VERTEX
  8
MACK_GRANITE_265
 10
6.8542
 20
-39.9956
 30
0
 70
     0
  0
VERTEX
  8
MACK_GRANITE_265
 10
7.3101
 20
-39.8209
 30
0
 70
     0
  0
VERTEX
  8
MACK_GRANITE_265
 10
7.7608
 20
-39.6354
 30
0
 70
     0
  0
VERTEX
  8
MACK_GRANITE_265
 10
8.2061
 20
-39.4393
 30
0
 70
     0
  0
VERTEX
  8
MACK_GRANITE_265
 10
8.6457
 20
-39.2327
 30
0
 70
     0
  0
VERTEX
  8
MACK_GRANITE_265
 10
9.0796
 20
-39.0158
 30
0
 70
     0
  0
VERTEX
  8
MACK_GRANITE_265
 10
9.5075
 20
-38.7887
 30
0
 70
     0
  0
VERTEX
  8
MACK_GRANITE_265
 10
9.9294
 20
-38.5517
 30
0
 70
     0
  0
VERTEX
  8
MACK_GRANITE_265
 10
10.345
 20
-38.3048
 30
0
 70
     0
  0
VERTEX
  8
MACK_GRANITE_265
 10
10.7542
 20
-38.0483
 30
0
 70
     0
  0
VERTEX
  8
MACK_GRANITE_265
 10
11.1568
 20
-37.7823
 30
0
 70
     0
  0
VERTEX
  8
MACK_GRANITE_265
 10
11.5527
 20
-37.507
 30
0
 70
     0
  0
VERTEX
  8
MACK_GRANITE_265
 10
11.9417
 20
-37.2225
 30
0
 70
     0
  0
VERTEX
  8
MACK_GRANITE_265
 10
12.3236
 20
-36.9289
 30
0
 70
     0
  0
VERTEX
  8
MACK_GRANITE_265
 10
12.6983
 20
-36.6266
 30
0
 70
     0
  0
VERTEX
  8
MACK_GRANITE_265
 10
13.0656
 20
-36.3155
 30
0
 70
     0
  0
VERTEX
  8
MACK_GRANITE_265
 10
13.4253
 20
-35.9959
 30
0
 70
     0
  0
VERTEX
  8
MACK_GRANITE_265
 10
13.7774
 20
-35.668
 30
0
 70
     0
  0
VERTEX
  8
MACK_GRANITE_265
 10
14.1215
 20
-35.3319
 30
0
 70
     0
  0
VERTEX
  8
MACK_GRANITE_265
 10
14.4577
 20
-34.9877
 30
0
 70
     0
  0
VERTEX
  8
MACK_GRANITE_265
 10
14.7856
 20
-34.6357
 30
0
 70
     0
  0
VERTEX
  8
MACK_GRANITE_265
 10
15.1052
 20
-34.2759
 30
0
 70
     0
  0
VERTEX
  8
MACK_GRANITE_265
 10
15.4162
 20
-33.9086
 30
0
 70
     0
  0
VERTEX
  8
MACK_GRANITE_265
 10
15.7186
 20
-33.5339
 30
0
 70
     0
  0
VERTEX
  8
MACK_GRANITE_265
 10
16.0121
 20
-33.152
 30
0
 70
     0
  0
VERTEX
  8
MACK_GRANITE_265
 10
16.2966
 20
-32.763
 30
0
 70
     0
  0
VERTEX
  8
MACK_GRANITE_265
 10
16.5719
 20
-32.3672
 30
0
 70
     0
  0
VERTEX
  8
MACK_GRANITE_265
 10
16.8379
 20
-31.9645
 30
0
 70
     0
  0
VERTEX
  8
MACK_GRANITE_265
 10
17.0945
 20
-31.5554
 30
0
 70
     0
  0
VERTEX
  8
MACK_GRANITE_265
 10
17.3413
 20
-31.1398
 30
0
 70
     0
  0
VERTEX
  8
MACK_GRANITE_265
 10
17.5783
 20
-30.7179
 30
0
 70
     0
  0
VERTEX
  8
MACK_GRANITE_265
 10
17.8054
 20
-30.2899
 30
0
 70
     0
  0
VERTEX
  8
MACK_GRANITE_265
 10
18.0223
 20
-29.8561
 30
0
 70
     0
  0
VERTEX
  8
MACK_GRANITE_265
 10
18.2289
 20
-29.4164
 30
0
 70
     0
  0
VERTEX
  8
MACK_GRANITE_265
 10
18.425
 20
-28.9712
 30
0
 70
     0
  0
VERTEX
  8
MACK_GRANITE_265
 10
18.6105
 20
-28.5205
 30
0
 70
     0
  0
VERTEX
  8
MACK_GRANITE_265
 10
18.7853
 20
-28.0645
 30
0
 70
     0
  0
VERTEX
  8
MACK_GRANITE_265
 10
18.949
 20
-27.6034
 30
0
 70
     0
  0
VERTEX
  8
MACK_GRANITE_265
 10
19.1016
 20
-27.1374
 30
0
 70
     0
  0
VERTEX
  8
MACK_GRANITE_265
 10
19.243
 20
-26.6666
 30
0
 70
     0
  0
VERTEX
  8
MACK_GRANITE_265
 10
19.3729
 20
-26.1911
 30
0
 70
     0
  0
VERTEX
  8
MACK_GRANITE_265
 10
19.4912
 20
-25.7112
 30
0
 70
     0
  0
VERTEX
  8
MACK_GRANITE_265
 10
19.5978
 20
-25.2269
 30
0
 70
     0
  0
VERTEX
  8
MACK_GRANITE_265
 10
19.6924
 20
-24.7386
 30
0
 70
     0
  0
VERTEX
  8
MACK_GRANITE_265
 10
19.7749
 20
-24.2462
 30
0
 70
     0
  0
VERTEX
  8
MACK_GRANITE_265
 10
19.8452
 20
-23.75
 30
0
 70
     0
  0
VERTEX
  8
MACK_GRANITE_265
 10
19.9031
 20
-23.2502
 30
0
 70
     0
  0
VERTEX
  8
MACK_GRANITE_265
 10
19.9484
 20
-22.7469
 30
0
 70
     0
  0
VERTEX
  8
MACK_GRANITE_265
 10
19.9809
 20
-22.2402
 30
0
 70
     0
  0
VERTEX
  8
MACK_GRANITE_265
 10
20.0006
 20
-21.7303
 30
0
 70
     0
  0
VERTEX
  8
MACK_GRANITE_265
 10
20.0071
 20
-21.2175
 30
0
 70
     0
  0
VERTEX
  8
MACK_GRANITE_265
 10
20.0006
 20
-20.7047
 30
0
 70
     0
  0
VERTEX
  8
MACK_GRANITE_265
 10
19.9809
 20
-20.1948
 30
0
 70
     0
  0
VERTEX
  8
MACK_GRANITE_265
 10
19.9484
 20
-19.6882
 30
0
 70
     0
  0
VERTEX
  8
MACK_GRANITE_265
 10
19.9031
 20
-19.1848
 30
0
 70
     0
  0
VERTEX
  8
MACK_GRANITE_265
 10
19.8452
 20
-18.685
 30
0
 70
     0
  0
VERTEX
  8
MACK_GRANITE_265
 10
19.7749
 20
-18.1888
 30
0
 70
     0
  0
VERTEX
  8
MACK_GRANITE_265
 10
19.6924
 20
-17.6964
 30
0
 70
     0
  0
VERTEX
  8
MACK_GRANITE_265
 10
19.5978
 20
-17.2081
 30
0
 70
     0
  0
VERTEX
  8
MACK_GRANITE_265
 10
19.4912
 20
-16.7238
 30
0
 70
     0
  0
VERTEX
  8
MACK_GRANITE_265
 10
19.3729
 20
-16.2439
 30
0
 70
     0
  0
VERTEX
  8
MACK_GRANITE_265
 10
19.243
 20
-15.7684
 30
0
 70
     0
  0
VERTEX
  8
MACK_GRANITE_265
 10
19.1016
 20
-15.2976
 30
0
 70
     0
  0
VERTEX
  8
MACK_GRANITE_265
 10
18.949
 20
-14.8316
 30
0
 70
     0
  0
VERTEX
  8
MACK_GRANITE_265
 10
18.7853
 20
-14.3705
 30
0
 70
     0
  0
VERTEX
  8
MACK_GRANITE_265
 10
18.6105
 20
-13.9145
 30
0
 70
     0
  0
VERTEX
  8
MACK_GRANITE_265
 10
18.425
 20
-13.4638
 30
0
 70
     0
  0
VERTEX
  8
MACK_GRANITE_265
 10
18.2289
 20
-13.0186
 30
0
 70
     0
  0
VERTEX
  8
MACK_GRANITE_265
 10
18.0223
 20
-12.5789
 30
0
 70
     0
  0
VERTEX
  8
MACK_GRANITE_265
 10
17.8054
 20
-12.1451
 30
0
 70
     0
  0
VERTEX
  8
MACK_GRANITE_265
 10
17.5783
 20
-11.7171
 30
0
 70
     0
  0
VERTEX
  8
MACK_GRANITE_265
 10
17.3413
 20
-11.2953
 30
0
 70
     0
  0
VERTEX
  8
MACK_GRANITE_265
 10
17.0945
 20
-10.8796
 30
0
 70
     0
  0
VERTEX
  8
MACK_GRANITE_265
 10
16.8379
 20
-10.4705
 30
0
 70
     0
  0
VERTEX
  8
MACK_GRANITE_265
 10
16.5719
 20
-10.0678
 30
0
 70
     0
  0
VERTEX
  8
MACK_GRANITE_265
 10
16.2966
 20
-9.672
 30
0
 70
     0
  0
VERTEX
  8
MACK_GRANITE_265
 10
16.0121
 20
-9.283
 30
0
 70
     0
  0
VERTEX
  8
MACK_GRANITE_265
 10
15.7186
 20
-8.9011
 30
0
 70
     0
  0
VERTEX
  8
MACK_GRANITE_265
 10
15.4162
 20
-8.5264
 30
0
 70
     0
  0
VERTEX
  8
MACK_GRANITE_265
 10
15.1052
 20
-8.1591
 30
0
 70
     0
  0
VERTEX
  8
MACK_GRANITE_265
 10
14.7856
 20
-7.7993
 30
0
 70
     0
  0
VERTEX
  8
MACK_GRANITE_265
 10
14.4577
 20
-7.4473
 30
0
 70
     0
  0
VERTEX
  8
MACK_GRANITE_265
 10
14.1215
 20
-7.1031
 30
0
 70
     0
  0
VERTEX
  8
MACK_GRANITE_265
 10
13.7774
 20
-6.767
 30
0
 70
     0
  0
VERTEX
  8
MACK_GRANITE_265
 10
13.4253
 20
-6.4391
 30
0
 70
     0
  0
VERTEX
  8
MACK_GRANITE_265
 10
13.0656
 20
-6.1195
 30
0
 70
     0
  0
VERTEX
  8
MACK_GRANITE_265
 10
12.6983
 20
-5.8084
 30
0
 70
     0
  0
VERTEX
  8
MACK_GRANITE_265
 10
12.3236
 20
-5.5061
 30
0
 70
     0
  0
VERTEX
  8
MACK_GRANITE_265
 10
11.9417
 20
-5.2126
 30
0
 70
     0
  0
VERTEX
  8
MACK_GRANITE_265
 10
11.5527
 20
-4.928
 30
0
 70
     0
  0
VERTEX
  8
MACK_GRANITE_265
 10
11.1568
 20
-4.6527
 30
0
 70
     0
  0
VERTEX
  8
MACK_GRANITE_265
 10
10.7542
 20
-4.3867
 30
0
 70
     0
  0
VERTEX
  8
MACK_GRANITE_265
 10
10.345
 20
-4.1302
 30
0
 70
     0
  0
VERTEX
  8
MACK_GRANITE_265
 10
9.9294
 20
-3.8833
 30
0
 70
     0
  0
VERTEX
  8
MACK_GRANITE_265
 10
9.5075
 20
-3.6463
 30
0
 70
     0
  0
VERTEX
  8
MACK_GRANITE_265
 10
9.0796
 20
-3.4193
 30
0
 70
     0
  0
VERTEX
  8
MACK_GRANITE_265
 10
8.6457
 20
-3.2023
 30
0
 70
     0
  0
VERTEX
  8
MACK_GRANITE_265
 10
8.2061
 20
-2.9957
 30
0
 70
     0
  0
VERTEX
  8
MACK_GRANITE_265
 10
7.7608
 20
-2.7996
 30
0
 70
     0
  0
VERTEX
  8
MACK_GRANITE_265
 10
7.3101
 20
-2.6141
 30
0
 70
     0
  0
VERTEX
  8
MACK_GRANITE_265
 10
6.8542
 20
-2.4394
 30
0
 70
     0
  0
VERTEX
  8
MACK_GRANITE_265
 10
6.3931
 20
-2.2756
 30
0
 70
     0
  0
VERTEX
  8
MACK_GRANITE_265
 10
5.927
 20
-2.123
 30
0
 70
     0
  0
VERTEX
  8
MACK_GRANITE_265
 10
5.4562
 20
-1.9816
 30
0
 70
     0
  0
VERTEX
  8
MACK_GRANITE_265
 10
4.9808
 20
-1.8517
 30
0
 70
     0
  0
VERTEX
  8
MACK_GRANITE_265
 10
4.5008
 20
-1.7334
 30
0
 70
     0
  0
VERTEX
  8
MACK_GRANITE_265
 10
4.0166
 20
-1.6269
 30
0
 70
     0
  0
VERTEX
  8
MACK_GRANITE_265
 10
3.5282
 20
-1.5322
 30
0
 70
     0
  0
VERTEX
  8
MACK_GRANITE_265
 10
3.0359
 20
-1.4497
 30
0
 70
     0
  0
VERTEX
  8
MACK_GRANITE_265
 10
2.5397
 20
-1.3794
 30
0
 70
     0
  0
VERTEX
  8
MACK_GRANITE_265
 10
2.0398
 20
-1.3216
 30
0
 70
     0
  0
VERTEX
  8
MACK_GRANITE_265
 10
1.5365
 20
-1.2763
 30
0
 70
     0
  0
VERTEX
  8
MACK_GRANITE_265
 10
1.0298
 20
-1.2437
 30
0
 70
     0
  0
VERTEX
  8
MACK_GRANITE_265
 10
0.52
 20
-1.2241
 30
0
 70
     0
  0
VERTEX
  8
MACK_GRANITE_265
 10
0.0071
 20
-1.2175
 30
0
 70
     0
  0
VERTEX
  8
MACK_GRANITE_265
 10
-0.5057
 20
-1.2241
 30
0
 70
     0
  0
VERTEX
  8
MACK_GRANITE_265
 10
-1.0155
 20
-1.2437
 30
0
 70
     0
  0
VERTEX
  8
MACK_GRANITE_265
 10
-1.5222
 20
-1.2763
 30
0
 70
     0
  0
VERTEX
  8
MACK_GRANITE_265
 10
-2.0255
 20
-1.3216
 30
0
 70
     0
  0
VERTEX
  8
MACK_GRANITE_265
 10
-2.5254
 20
-1.3794
 30
0
 70
     0
  0
VERTEX
  8
MACK_GRANITE_265
 10
-3.0216
 20
-1.4497
 30
0
 70
     0
  0
VERTEX
  8
MACK_GRANITE_265
 10
-3.5139
 20
-1.5322
 30
0
 70
     0
  0
VERTEX
  8
MACK_GRANITE_265
 10
-4.0023
 20
-1.6269
 30
0
 70
     0
  0
VERTEX
  8
MACK_GRANITE_265
 10
-4.4865
 20
-1.7334
 30
0
 70
     0
  0
VERTEX
  8
MACK_GRANITE_265
 10
-4.9665
 20
-1.8517
 30
0
 70
     0
  0
VERTEX
  8
MACK_GRANITE_265
 10
-5.4419
 20
-1.9816
 30
0
 70
     0
  0
VERTEX
  8
MACK_GRANITE_265
 10
-5.9128
 20
-2.123
 30
0
 70
     0
  0
VERTEX
  8
MACK_GRANITE_265
 10
-6.3788
 20
-2.2756
 30
0
 70
     0
  0
VERTEX
  8
MACK_GRANITE_265
 10
-6.8399
 20
-2.4394
 30
0
 70
     0
  0
VERTEX
  8
MACK_GRANITE_265
 10
-7.2958
 20
-2.6141
 30
0
 70
     0
  0
VERTEX
  8
MACK_GRANITE_265
 10
-7.7465
 20
-2.7996
 30
0
 70
     0
  0
VERTEX
  8
MACK_GRANITE_265
 10
-8.1918
 20
-2.9957
 30
0
 70
     0
  0
VERTEX
  8
MACK_GRANITE_265
 10
-8.6314
 20
-3.2023
 30
0
 70
     0
  0
VERTEX
  8
MACK_GRANITE_265
 10
-9.0653
 20
-3.4193
 30
0
 70
     0
  0
VERTEX
  8
MACK_GRANITE_265
 10
-9.4932
 20
-3.6463
 30
0
 70
     0
  0
VERTEX
  8
MACK_GRANITE_265
 10
-9.9151
 20
-3.8833
 30
0
 70
     0
  0
VERTEX
  8
MACK_GRANITE_265
 10
-10.3307
 20
-4.1302
 30
0
 70
     0
  0
VERTEX
  8
MACK_GRANITE_265
 10
-10.7399
 20
-4.3867
 30
0
 70
     0
  0
VERTEX
  8
MACK_GRANITE_265
 10
-11.1425
 20
-4.6527
 30
0
 70
     0
  0
VERTEX
  8
MACK_GRANITE_265
 10
-11.5384
 20
-4.928
 30
0
 70
     0
  0
VERTEX
  8
MACK_GRANITE_265
 10
-11.9274
 20
-5.2126
 30
0
 70
     0
  0
VERTEX
  8
MACK_GRANITE_265
 10
-12.3093
 20
-5.5061
 30
0
 70
     0
  0
VERTEX
  8
MACK_GRANITE_265
 10
-12.684
 20
-5.8084
 30
0
 70
     0
  0
VERTEX
  8
MACK_GRANITE_265
 10
-13.0513
 20
-6.1195
 30
0
 70
     0
  0
VERTEX
  8
MACK_GRANITE_265
 10
-13.411
 20
-6.4391
 30
0
 70
     0
  0
VERTEX
  8
MACK_GRANITE_265
 10
-13.7631
 20
-6.767
 30
0
 70
     0
  0
VERTEX
  8
MACK_GRANITE_265
 10
-14.1072
 20
-7.1031
 30
0
 70
     0
  0
VERTEX
  8
MACK_GRANITE_265
 10
-14.4434
 20
-7.4473
 30
0
 70
     0
  0
VERTEX
  8
MACK_GRANITE_265
 10
-14.7713
 20
-7.7993
 30
0
 70
     0
  0
VERTEX
  8
MACK_GRANITE_265
 10
-15.0909
 20
-8.1591
 30
0
 70
     0
  0
VERTEX
  8
MACK_GRANITE_265
 10
-15.4019
 20
-8.5264
 30
0
 70
     0
  0
VERTEX
  8
MACK_GRANITE_265
 10
-15.7043
 20
-8.9011
 30
0
 70
     0
  0
VERTEX
  8
MACK_GRANITE_265
 10
-15.9978
 20
-9.283
 30
0
 70
     0
  0
VERTEX
  8
MACK_GRANITE_265
 10
-16.2823
 20
-9.672
 30
0
 70
     0
  0
VERTEX
  8
MACK_GRANITE_265
 10
-16.5577
 20
-10.0678
 30
0
 70
     0
  0
VERTEX
  8
MACK_GRANITE_265
 10
-16.8237
 20
-10.4705
 30
0
 70
     0
  0
VERTEX
  8
MACK_GRANITE_265
 10
-17.0802
 20
-10.8796
 30
0
 70
     0
  0
VERTEX
  8
MACK_GRANITE_265
 10
-17.327
 20
-11.2953
 30
0
 70
     0
  0
VERTEX
  8
MACK_GRANITE_265
 10
-17.5641
 20
-11.7171
 30
0
 70
     0
  0
VERTEX
  8
MACK_GRANITE_265
 10
-17.7911
 20
-12.1451
 30
0
 70
     0
  0
VERTEX
  8
MACK_GRANITE_265
 10
-18.008
 20
-12.5789
 30
0
 70
     0
  0
VERTEX
  8
MACK_GRANITE_265
 10
-18.2146
 20
-13.0186
 30
0
 70
     0
  0
VERTEX
  8
MACK_GRANITE_265
 10
-18.4107
 20
-13.4638
 30
0
 70
     0
  0
VERTEX
  8
MACK_GRANITE_265
 10
-18.5962
 20
-13.9145
 30
0
 70
     0
  0
VERTEX
  8
MACK_GRANITE_265
 10
-18.771
 20
-14.3705
 30
0
 70
     0
  0
VERTEX
  8
MACK_GRANITE_265
 10
-18.9347
 20
-14.8316
 30
0
 70
     0
  0
VERTEX
  8
MACK_GRANITE_265
 10
-19.0873
 20
-15.2976
 30
0
 70
     0
  0
VERTEX
  8
MACK_GRANITE_265
 10
-19.2287
 20
-15.7684
 30
0
 70
     0
  0
VERTEX
  8
MACK_GRANITE_265
 10
-19.3586
 20
-16.2439
 30
0
 70
     0
  0
VERTEX
  8
MACK_GRANITE_265
 10
-19.4769
 20
-16.7238
 30
0
 70
     0
  0
VERTEX
  8
MACK_GRANITE_265
 10
-19.5835
 20
-17.2081
 30
0
 70
     0
  0
VERTEX
  8
MACK_GRANITE_265
 10
-19.6781
 20
-17.6964
 30
0
 70
     0
  0
VERTEX
  8
MACK_GRANITE_265
 10
-19.7606
 20
-18.1888
 30
0
 70
     0
  0
VERTEX
  8
MACK_GRANITE_265
 10
-19.8309
 20
-18.685
 30
0
 70
     0
  0
VERTEX
  8
MACK_GRANITE_265
 10
-19.8888
 20
-19.1848
 30
0
 70
     0
  0
VERTEX
  8
MACK_GRANITE_265
 10
-19.9341
 20
-19.6882
 30
0
 70
     0
  0
VERTEX
  8
MACK_GRANITE_265
 10
-19.9666
 20
-20.1948
 30
0
 70
     0
  0
VERTEX
  8
MACK_GRANITE_265
 10
-19.9863
 20
-20.7047
 30
0
 70
     0
  0
VERTEX
  8
MACK_GRANITE_265
 10
-19.9929
 20
-21.2175
 30
0
 70
     0
  0
SEQEND
  0
POLYLINE
  8
MACK_GRANITE_265
  6
CONTINUOUS
 62
     7
 66
     1
 40
0.0139
 41
0.0139
  0
VERTEX
  8
MACK_GRANITE_265
 10
-20.9929
 20
-21.2175
 30
0
 70
     0
  0
VERTEX
  8
MACK_GRANITE_265
 10
-20.9859
 20
-21.756
 30
0
 70
     0
  0
VERTEX
  8
MACK_GRANITE_265
 10
-20.9653
 20
-22.2913
 30
0
 70
     0
  0
VERTEX
  8
MACK_GRANITE_265
 10
-20.9311
 20
-22.8233
 30
0
 70
     0
  0
VERTEX
  8
MACK_GRANITE_265
 10
-20.8836
 20
-23.3518
 30
0
 70
     0
  0
VERTEX
  8
MACK_GRANITE_265
 10
-20.8228
 20
-23.8767
 30
0
 70
     0
  0
VERTEX
  8
MACK_GRANITE_265
 10
-20.749
 20
-24.3976
 30
0
 70
     0
  0
VERTEX
  8
MACK_GRANITE_265
 10
-20.6624
 20
-24.9146
 30
0
 70
     0
  0
VERTEX
  8
MACK_GRANITE_265
 10
-20.563
 20
-25.4274
 30
0
 70
     0
  0
VERTEX
  8
MACK_GRANITE_265
 10
-20.4511
 20
-25.9359
 30
0
 70
     0
  0
VERTEX
  8
MACK_GRANITE_265
 10
-20.3269
 20
-26.4398
 30
0
 70
     0
  0
VERTEX
  8
MACK_GRANITE_265
 10
-20.1905
 20
-26.939
 30
0
 70
     0
  0
VERTEX
  8
MACK_GRANITE_265
 10
-20.0421
 20
-27.4334
 30
0
 70
     0
  0
VERTEX
  8
MACK_GRANITE_265
 10
-19.8818
 20
-27.9227
 30
0
 70
     0
  0
VERTEX
  8
MACK_GRANITE_265
 10
-19.7099
 20
-28.4069
 30
0
 70
     0
  0
VERTEX
  8
MACK_GRANITE_265
 10
-19.5264
 20
-28.8856
 30
0
 70
     0
  0
VERTEX
  8
MACK_GRANITE_265
 10
-19.3316
 20
-29.3589
 30
0
 70
     0
  0
VERTEX
  8
MACK_GRANITE_265
 10
-19.1257
 20
-29.8264
 30
0
 70
     0
  0
VERTEX
  8
MACK_GRANITE_265
 10
-18.9088
 20
-30.288
 30
0
 70
     0
  0
VERTEX
  8
MACK_GRANITE_265
 10
-18.681
 20
-30.7436
 30
0
 70
     0
  0
VERTEX
  8
MACK_GRANITE_265
 10
-18.4426
 20
-31.1929
 30
0
 70
     0
  0
VERTEX
  8
MACK_GRANITE_265
 10
-18.1937
 20
-31.6359
 30
0
 70
     0
  0
VERTEX
  8
MACK_GRANITE_265
 10
-17.9345
 20
-32.0722
 30
0
 70
     0
  0
VERTEX
  8
MACK_GRANITE_265
 10
-17.6652
 20
-32.5019
 30
0
 70
     0
  0
VERTEX
  8
MACK_GRANITE_265
 10
-17.3859
 20
-32.9246
 30
0
 70
     0
  0
VERTEX
  8
MACK_GRANITE_265
 10
-17.0968
 20
-33.3403
 30
0
 70
     0
  0
VERTEX
  8
MACK_GRANITE_265
 10
-16.798
 20
-33.7487
 30
0
 70
     0
  0
VERTEX
  8
MACK_GRANITE_265
 10
-16.4899
 20
-34.1498
 30
0
 70
     0
  0
VERTEX
  8
MACK_GRANITE_265
 10
-16.1724
 20
-34.5432
 30
0
 70
     0
  0
VERTEX
  8
MACK_GRANITE_265
 10
-15.8458
 20
-34.9288
 30
0
 70
     0
  0
VERTEX
  8
MACK_GRANITE_265
 10
-15.5102
 20
-35.3066
 30
0
 70
     0
  0
VERTEX
  8
MACK_GRANITE_265
 10
-15.1659
 20
-35.6762
 30
0
 70
     0
  0
VERTEX
  8
MACK_GRANITE_265
 10
-14.813
 20
-36.0376
 30
0
 70
     0
  0
VERTEX
  8
MACK_GRANITE_265
 10
-14.4516
 20
-36.3905
 30
0
 70
     0
  0
VERTEX
  8
MACK_GRANITE_265
 10
-14.0819
 20
-36.7349
 30
0
 70
     0
  0
VERTEX
  8
MACK_GRANITE_265
 10
-13.7042
 20
-37.0704
 30
0
 70
     0
  0
VERTEX
  8
MACK_GRANITE_265
 10
-13.3185
 20
-37.397
 30
0
 70
     0
  0
VERTEX
  8
MACK_GRANITE_265
 10
-12.9251
 20
-37.7145
 30
0
 70
     0
  0
VERTEX
  8
MACK_GRANITE_265
 10
-12.5241
 20
-38.0227
 30
0
 70
     0
  0
VERTEX
  8
MACK_GRANITE_265
 10
-12.1157
 20
-38.3214
 30
0
 70
     0
  0
VERTEX
  8
MACK_GRANITE_265
 10
-11.7
 20
-38.6105
 30
0
 70
     0
  0
VERTEX
  8
MACK_GRANITE_265
 10
-11.2773
 20
-38.8898
 30
0
 70
     0
  0
VERTEX
  8
MACK_GRANITE_265
 10
-10.8476
 20
-39.1592
 30
0
 70
     0
  0
VERTEX
  8
MACK_GRANITE_265
 10
-10.4112
 20
-39.4184
 30
0
 70
     0
  0
VERTEX
  8
MACK_GRANITE_265
 10
-9.9683
 20
-39.6673
 30
0
 70
     0
  0
VERTEX
  8
MACK_GRANITE_265
 10
-9.5189
 20
-39.9057
 30
0
 70
     0
  0
VERTEX
  8
MACK_GRANITE_265
 10
-9.0633
 20
-40.1334
 30
0
 70
     0
  0
VERTEX
  8
MACK_GRANITE_265
 10
-8.6017
 20
-40.3503
 30
0
 70
     0
  0
VERTEX
  8
MACK_GRANITE_265
 10
-8.1342
 20
-40.5563
 30
0
 70
     0
  0
VERTEX
  8
MACK_GRANITE_265
 10
-7.661
 20
-40.7511
 30
0
 70
     0
  0
VERTEX
  8
MACK_GRANITE_265
 10
-7.1822
 20
-40.9345
 30
0
 70
     0
  0
VERTEX
  8
MACK_GRANITE_265
 10
-6.6981
 20
-41.1065
 30
0
 70
     0
  0
VERTEX
  8
MACK_GRANITE_265
 10
-6.2088
 20
-41.2667
 30
0
 70
     0
  0
VERTEX
  8
MACK_GRANITE_265
 10
-5.7144
 20
-41.4152
 30
0
 70
     0
  0
VERTEX
  8
MACK_GRANITE_265
 10
-5.2151
 20
-41.5516
 30
0
 70
     0
  0
VERTEX
  8
MACK_GRANITE_265
 10
-4.7112
 20
-41.6758
 30
0
 70
     0
  0
VERTEX
  8
MACK_GRANITE_265
 10
-4.2028
 20
-41.7877
 30
0
 70
     0
  0
VERTEX
  8
MACK_GRANITE_265
 10
-3.69
 20
-41.887
 30
0
 70
     0
  0
VERTEX
  8
MACK_GRANITE_265
 10
-3.173
 20
-41.9737
 30
0
 70
     0
  0
VERTEX
  8
MACK_GRANITE_265
 10
-2.652
 20
-42.0475
 30
0
 70
     0
  0
VERTEX
  8
MACK_GRANITE_265
 10
-2.1272
 20
-42.1082
 30
0
 70
     0
  0
VERTEX
  8
MACK_GRANITE_265
 10
-1.5987
 20
-42.1558
 30
0
 70
     0
  0
VERTEX
  8
MACK_GRANITE_265
 10
-1.0667
 20
-42.19
 30
0
 70
     0
  0
VERTEX
  8
MACK_GRANITE_265
 10
-0.5313
 20
-42.2106
 30
0
 70
     0
  0
VERTEX
  8
MACK_GRANITE_265
 10
0.0071
 20
-42.2175
 30
0
 70
     0
  0
VERTEX
  8
MACK_GRANITE_265
 10
0.5456
 20
-42.2106
 30
0
 70
     0
  0
VERTEX
  8
MACK_GRANITE_265
 10
1.081
 20
-42.19
 30
0
 70
     0
  0
VERTEX
  8
MACK_GRANITE_265
 10
1.613
 20
-42.1558
 30
0
 70
     0
  0
VERTEX
  8
MACK_GRANITE_265
 10
2.1415
 20
-42.1082
 30
0
 70
     0
  0
VERTEX
  8
MACK_GRANITE_265
 10
2.6663
 20
-42.0475
 30
0
 70
     0
  0
VERTEX
  8
MACK_GRANITE_265
 10
3.1873
 20
-41.9737
 30
0
 70
     0
  0
VERTEX
  8
MACK_GRANITE_265
 10
3.7043
 20
-41.887
 30
0
 70
     0
  0
VERTEX
  8
MACK_GRANITE_265
 10
4.2171
 20
-41.7877
 30
0
 70
     0
  0
VERTEX
  8
MACK_GRANITE_265
 10
4.7255
 20
-41.6758
 30
0
 70
     0
  0
VERTEX
  8
MACK_GRANITE_265
 10
5.2294
 20
-41.5516
 30
0
 70
     0
  0
VERTEX
  8
MACK_GRANITE_265
 10
5.7287
 20
-41.4152
 30
0
 70
     0
  0
VERTEX
  8
MACK_GRANITE_265
 10
6.223
 20
-41.2667
 30
0
 70
     0
  0
VERTEX
  8
MACK_GRANITE_265
 10
6.7124
 20
-41.1065
 30
0
 70
     0
  0
VERTEX
  8
MACK_GRANITE_265
 10
7.1965
 20
-40.9345
 30
0
 70
     0
  0
VERTEX
  8
MACK_GRANITE_265
 10
7.6753
 20
-40.7511
 30
0
 70
     0
  0
VERTEX
  8
MACK_GRANITE_265
 10
8.1485
 20
-40.5563
 30
0
 70
     0
  0
VERTEX
  8
MACK_GRANITE_265
 10
8.616
 20
-40.3503
 30
0
 70
     0
  0
VERTEX
  8
MACK_GRANITE_265
 10
9.0776
 20
-40.1334
 30
0
 70
     0
  0
VERTEX
  8
MACK_GRANITE_265
 10
9.5332
 20
-39.9057
 30
0
 70
     0
  0
VERTEX
  8
MACK_GRANITE_265
 10
9.9826
 20
-39.6673
 30
0
 70
     0
  0
VERTEX
  8
MACK_GRANITE_265
 10
10.4255
 20
-39.4184
 30
0
 70
     0
  0
VERTEX
  8
MACK_GRANITE_265
 10
10.8619
 20
-39.1592
 30
0
 70
     0
  0
VERTEX
  8
MACK_GRANITE_265
 10
11.2915
 20
-38.8898
 30
0
 70
     0
  0
VERTEX
  8
MACK_GRANITE_265
 10
11.7143
 20
-38.6105
 30
0
 70
     0
  0
VERTEX
  8
MACK_GRANITE_265
 10
12.13
 20
-38.3214
 30
0
 70
     0
  0
VERTEX
  8
MACK_GRANITE_265
 10
12.5384
 20
-38.0227
 30
0
 70
     0
  0
VERTEX
  8
MACK_GRANITE_265
 10
12.9394
 20
-37.7145
 30
0
 70
     0
  0
VERTEX
  8
MACK_GRANITE_265
 10
13.3328
 20
-37.397
 30
0
 70
     0
  0
VERTEX
  8
MACK_GRANITE_265
 10
13.7185
 20
-37.0704
 30
0
 70
     0
  0
VERTEX
  8
MACK_GRANITE_265
 10
14.0962
 20
-36.7349
 30
0
 70
     0
  0
VERTEX
  8
MACK_GRANITE_265
 10
14.4659
 20
-36.3905
 30
0
 70
     0
  0
VERTEX
  8
MACK_GRANITE_265
 10
14.8272
 20
-36.0376
 30
0
 70
     0
  0
VERTEX
  8
MACK_GRANITE_265
 10
15.1802
 20
-35.6762
 30
0
 70
     0
  0
VERTEX
  8
MACK_GRANITE_265
 10
15.5245
 20
-35.3066
 30
0
 70
     0
  0
VERTEX
  8
MACK_GRANITE_265
 10
15.8601
 20
-34.9288
 30
0
 70
     0
  0
VERTEX
  8
MACK_GRANITE_265
 10
16.1867
 20
-34.5432
 30
0
 70
     0
  0
VERTEX
  8
MACK_GRANITE_265
 10
16.5041
 20
-34.1498
 30
0
 70
     0
  0
VERTEX
  8
MACK_GRANITE_265
 10
16.8123
 20
-33.7487
 30
0
 70
     0
  0
VERTEX
  8
MACK_GRANITE_265
 10
17.1111
 20
-33.3403
 30
0
 70
     0
  0
VERTEX
  8
MACK_GRANITE_265
 10
17.4002
 20
-32.9246
 30
0
 70
     0
  0
VERTEX
  8
MACK_GRANITE_265
 10
17.6795
 20
-32.5019
 30
0
 70
     0
  0
VERTEX
  8
MACK_GRANITE_265
 10
17.9488
 20
-32.0722
 30
0
 70
     0
  0
VERTEX
  8
MACK_GRANITE_265
 10
18.208
 20
-31.6359
 30
0
 70
     0
  0
VERTEX
  8
MACK_GRANITE_265
 10
18.4569
 20
-31.1929
 30
0
 70
     0
  0
VERTEX
  8
MACK_GRANITE_265
 10
18.6953
 20
-30.7436
 30
0
 70
     0
  0
VERTEX
  8
MACK_GRANITE_265
 10
18.9231
 20
-30.288
 30
0
 70
     0
  0
VERTEX
  8
MACK_GRANITE_265
 10
19.14
 20
-29.8264
 30
0
 70
     0
  0
VERTEX
  8
MACK_GRANITE_265
 10
19.3459
 20
-29.3589
 30
0
 70
     0
  0
VERTEX
  8
MACK_GRANITE_265
 10
19.5407
 20
-28.8856
 30
0
 70
     0
  0
VERTEX
  8
MACK_GRANITE_265
 10
19.7242
 20
-28.4069
 30
0
 70
     0
  0
VERTEX
  8
MACK_GRANITE_265
 10
19.8961
 20
-27.9227
 30
0
 70
     0
  0
VERTEX
  8
MACK_GRANITE_265
 10
20.0564
 20
-27.4334
 30
0
 70
     0
  0
VERTEX
  8
MACK_GRANITE_265
 10
20.2048
 20
-26.939
 30
0
 70
     0
  0
VERTEX
  8
MACK_GRANITE_265
 10
20.3412
 20
-26.4398
 30
0
 70
     0
  0
VERTEX
  8
MACK_GRANITE_265
 10
20.4654
 20
-25.9359
 30
0
 70
     0
  0
VERTEX
  8
MACK_GRANITE_265
 10
20.5773
 20
-25.4274
 30
0
 70
     0
  0
VERTEX
  8
MACK_GRANITE_265
 10
20.6767
 20
-24.9146
 30
0
 70
     0
  0
VERTEX
  8
MACK_GRANITE_265
 10
20.7633
 20
-24.3976
 30
0
 70
     0
  0
VERTEX
  8
MACK_GRANITE_265
 10
20.8371
 20
-23.8767
 30
0
 70
     0
  0
VERTEX
  8
MACK_GRANITE_265
 10
20.8979
 20
-23.3518
 30
0
 70
     0
  0
VERTEX
  8
MACK_GRANITE_265
 10
20.9454
 20
-22.8233
 30
0
 70
     0
  0
VERTEX
  8
MACK_GRANITE_265
 10
20.9796
 20
-22.2913
 30
0
 70
     0
  0
VERTEX
  8
MACK_GRANITE_265
 10
21.0002
 20
-21.756
 30
0
 70
     0
  0
VERTEX
  8
MACK_GRANITE_265
 10
21.0071
 20
-21.2175
 30
0
 70
     0
  0
VERTEX
  8
MACK_GRANITE_265
 10
21.0002
 20
-20.679
 30
0
 70
     0
  0
VERTEX
  8
MACK_GRANITE_265
 10
20.9796
 20
-20.1437
 30
0
 70
     0
  0
VERTEX
  8
MACK_GRANITE_265
 10
20.9454
 20
-19.6117
 30
0
 70
     0
  0
VERTEX
  8
MACK_GRANITE_265
 10
20.8979
 20
-19.0832
 30
0
 70
     0
  0
VERTEX
  8
MACK_GRANITE_265
 10
20.8371
 20
-18.5584
 30
0
 70
     0
  0
VERTEX
  8
MACK_GRANITE_265
 10
20.7633
 20
-18.0374
 30
0
 70
     0
  0
VERTEX
  8
MACK_GRANITE_265
 10
20.6767
 20
-17.5204
 30
0
 70
     0
  0
VERTEX
  8
MACK_GRANITE_265
 10
20.5773
 20
-17.0076
 30
0
 70
     0
  0
VERTEX
  8
MACK_GRANITE_265
 10
20.4654
 20
-16.4991
 30
0
 70
     0
  0
VERTEX
  8
MACK_GRANITE_265
 10
20.3412
 20
-15.9952
 30
0
 70
     0
  0
VERTEX
  8
MACK_GRANITE_265
 10
20.2048
 20
-15.496
 30
0
 70
     0
  0
VERTEX
  8
MACK_GRANITE_265
 10
20.0564
 20
-15.0016
 30
0
 70
     0
  0
VERTEX
  8
MACK_GRANITE_265
 10
19.8961
 20
-14.5123
 30
0
 70
     0
  0
VERTEX
  8
MACK_GRANITE_265
 10
19.7242
 20
-14.0281
 30
0
 70
     0
  0
VERTEX
  8
MACK_GRANITE_265
 10
19.5407
 20
-13.5494
 30
0
 70
     0
  0
VERTEX
  8
MACK_GRANITE_265
 10
19.3459
 20
-13.0761
 30
0
 70
     0
  0
VERTEX
  8
MACK_GRANITE_265
 10
19.14
 20
-12.6086
 30
0
 70
     0
  0
VERTEX
  8
MACK_GRANITE_265
 10
18.9231
 20
-12.147
 30
0
 70
     0
  0
VERTEX
  8
MACK_GRANITE_265
 10
18.6953
 20
-11.6914
 30
0
 70
     0
  0
VERTEX
  8
MACK_GRANITE_265
 10
18.4569
 20
-11.2421
 30
0
 70
     0
  0
VERTEX
  8
MACK_GRANITE_265
 10
18.208
 20
-10.7991
 30
0
 70
     0
  0
VERTEX
  8
MACK_GRANITE_265
 10
17.9488
 20
-10.3628
 30
0
 70
     0
  0
VERTEX
  8
MACK_GRANITE_265
 10
17.6795
 20
-9.9331
 30
0
 70
     0
  0
VERTEX
  8
MACK_GRANITE_265
 10
17.4002
 20
-9.5104
 30
0
 70
     0
  0
VERTEX
  8
MACK_GRANITE_265
 10
17.1111
 20
-9.0947
 30
0
 70
     0
  0
VERTEX
  8
MACK_GRANITE_265
 10
16.8123
 20
-8.6863
 30
0
 70
     0
  0
VERTEX
  8
MACK_GRANITE_265
 10
16.5041
 20
-8.2853
 30
0
 70
     0
  0
VERTEX
  8
MACK_GRANITE_265
 10
16.1867
 20
-7.8918
 30
0
 70
     0
  0
VERTEX
  8
MACK_GRANITE_265
 10
15.8601
 20
-7.5062
 30
0
 70
     0
  0
VERTEX
  8
MACK_GRANITE_265
 10
15.5245
 20
-7.1284
 30
0
 70
     0
  0
VERTEX
  8
MACK_GRANITE_265
 10
15.1802
 20
-6.7588
 30
0
 70
     0
  0
VERTEX
  8
MACK_GRANITE_265
 10
14.8272
 20
-6.3974
 30
0
 70
     0
  0
VERTEX
  8
MACK_GRANITE_265
 10
14.4659
 20
-6.0445
 30
0
 70
     0
  0
VERTEX
  8
MACK_GRANITE_265
 10
14.0962
 20
-5.7001
 30
0
 70
     0
  0
VERTEX
  8
MACK_GRANITE_265
 10
13.7185
 20
-5.3646
 30
0
 70
     0
  0
VERTEX
  8
MACK_GRANITE_265
 10
13.3328
 20
-5.038
 30
0
 70
     0
  0
VERTEX
  8
MACK_GRANITE_265
 10
12.9394
 20
-4.7205
 30
0
 70
     0
  0
VERTEX
  8
MACK_GRANITE_265
 10
12.5384
 20
-4.4123
 30
0
 70
     0
  0
VERTEX
  8
MACK_GRANITE_265
 10
12.13
 20
-4.1136
 30
0
 70
     0
  0
VERTEX
  8
MACK_GRANITE_265
 10
11.7143
 20
-3.8245
 30
0
 70
     0
  0
VERTEX
  8
MACK_GRANITE_265
 10
11.2915
 20
-3.5452
 30
0
 70
     0
  0
VERTEX
  8
MACK_GRANITE_265
 10
10.8619
 20
-3.2758
 30
0
 70
     0
  0
VERTEX
  8
MACK_GRANITE_265
 10
10.4255
 20
-3.0166
 30
0
 70
     0
  0
VERTEX
  8
MACK_GRANITE_265
 10
9.9826
 20
-2.7677
 30
0
 70
     0
  0
VERTEX
  8
MACK_GRANITE_265
 10
9.5332
 20
-2.5293
 30
0
 70
     0
  0
VERTEX
  8
MACK_GRANITE_265
 10
9.0776
 20
-2.3016
 30
0
 70
     0
  0
VERTEX
  8
MACK_GRANITE_265
 10
8.616
 20
-2.0847
 30
0
 70
     0
  0
VERTEX
  8
MACK_GRANITE_265
 10
8.1485
 20
-1.8787
 30
0
 70
     0
  0
VERTEX
  8
MACK_GRANITE_265
 10
7.6753
 20
-1.6839
 30
0
 70
     0
  0
VERTEX
  8
MACK_GRANITE_265
 10
7.1965
 20
-1.5005
 30
0
 70
     0
  0
VERTEX
  8
MACK_GRANITE_265
 10
6.7124
 20
-1.3286
 30
0
 70
     0
  0
VERTEX
  8
MACK_GRANITE_265
 10
6.223
 20
-1.1683
 30
0
 70
     0
  0
VERTEX
  8
MACK_GRANITE_265
 10
5.7287
 20
-1.0199
 30
0
 70
     0
  0
VERTEX
  8
MACK_GRANITE_265
 10
5.2294
 20
-0.8834
 30
0
 70
     0
  0
VERTEX
  8
MACK_GRANITE_265
 10
4.7255
 20
-0.7592
 30
0
 70
     0
  0
VERTEX
  8
MACK_GRANITE_265
 10
4.2171
 20
-0.6473
 30
0
 70
     0
  0
VERTEX
  8
MACK_GRANITE_265
 10
3.7043
 20
-0.548
 30
0
 70
     0
  0
VERTEX
  8
MACK_GRANITE_265
 10
3.1873
 20
-0.4613
 30
0
 70
     0
  0
VERTEX
  8
MACK_GRANITE_265
 10
2.6663
 20
-0.3875
 30
0
 70
     0
  0
VERTEX
  8
MACK_GRANITE_265
 10
2.1415
 20
-0.3268
 30
0
 70
     0
  0
VERTEX
  8
MACK_GRANITE_265
 10
1.613
 20
-0.2792
 30
0
 70
     0
  0
VERTEX
  8
MACK_GRANITE_265
 10
1.081
 20
-0.245
 30
0
 70
     0
  0
VERTEX
  8
MACK_GRANITE_265
 10
0.5456
 20
-0.2244
 30
0
 70
     0
  0
VERTEX
  8
MACK_GRANITE_265
 10
0.0071
 20
-0.2175
 30
0
 70
     0
  0
VERTEX
  8
MACK_GRANITE_265
 10
-0.5313
 20
-0.2244
 30
0
 70
     0
  0
VERTEX
  8
MACK_GRANITE_265
 10
-1.0667
 20
-0.245
 30
0
 70
     0
  0
VERTEX
  8
MACK_GRANITE_265
 10
-1.5987
 20
-0.2792
 30
0
 70
     0
  0
VERTEX
  8
MACK_GRANITE_265
 10
-2.1272
 20
-0.3268
 30
0
 70
     0
  0
VERTEX
  8
MACK_GRANITE_265
 10
-2.652
 20
-0.3875
 30
0
 70
     0
  0
VERTEX
  8
MACK_GRANITE_265
 10
-3.173
 20
-0.4613
 30
0
 70
     0
  0
VERTEX
  8
MACK_GRANITE_265
 10
-3.69
 20
-0.548
 30
0
 70
     0
  0
VERTEX
  8
MACK_GRANITE_265
 10
-4.2028
 20
-0.6473
 30
0
 70
     0
  0
VERTEX
  8
MACK_GRANITE_265
 10
-4.7112
 20
-0.7592
 30
0
 70
     0
  0
VERTEX
  8
MACK_GRANITE_265
 10
-5.2151
 20
-0.8834
 30
0
 70
     0
  0
VERTEX
  8
MACK_GRANITE_265
 10
-5.7144
 20
-1.0199
 30
0
 70
     0
  0
VERTEX
  8
MACK_GRANITE_265
 10
-6.2088
 20
-1.1683
 30
0
 70
     0
  0
VERTEX
  8
MACK_GRANITE_265
 10
-6.6981
 20
-1.3286
 30
0
 70
     0
  0
VERTEX
  8
MACK_GRANITE_265
 10
-7.1822
 20
-1.5005
 30
0
 70
     0
  0
VERTEX
  8
MACK_GRANITE_265
 10
-7.661
 20
-1.6839
 30
0
 70
     0
  0
VERTEX
  8
MACK_GRANITE_265
 10
-8.1342
 20
-1.8787
 30
0
 70
     0
  0
VERTEX
  8
MACK_GRANITE_265
 10
-8.6017
 20
-2.0847
 30
0
 70
     0
  0
VERTEX
  8
MACK_GRANITE_265
 10
-9.0633
 20
-2.3016
 30
0
 70
     0
  0
VERTEX
  8
MACK_GRANITE_265
 10
-9.5189
 20
-2.5293
 30
0
 70
     0
  0
VERTEX
  8
MACK_GRANITE_265
 10
-9.9683
 20
-2.7677
 30
0
 70
     0
  0
VERTEX
  8
MACK_GRANITE_265
 10
-10.4112
 20
-3.0166
 30
0
 70
     0
  0
VERTEX
  8
MACK_GRANITE_265
 10
-10.8476
 20
-3.2758
 30
0
 70
     0
  0
VERTEX
  8
MACK_GRANITE_265
 10
-11.2773
 20
-3.5452
 30
0
 70
     0
  0
VERTEX
  8
MACK_GRANITE_265
 10
-11.7
 20
-3.8245
 30
0
 70
     0
  0
VERTEX
  8
MACK_GRANITE_265
 10
-12.1157
 20
-4.1136
 30
0
 70
     0
  0
VERTEX
  8
MACK_GRANITE_265
 10
-12.5241
 20
-4.4123
 30
0
 70
     0
  0
VERTEX
  8
MACK_GRANITE_265
 10
-12.9251
 20
-4.7205
 30
0
 70
     0
  0
VERTEX
  8
MACK_GRANITE_265
 10
-13.3185
 20
-5.038
 30
0
 70
     0
  0
VERTEX
  8
MACK_GRANITE_265
 10
-13.7042
 20
-5.3646
 30
0
 70
     0
  0
VERTEX
  8
MACK_GRANITE_265
 10
-14.0819
 20
-5.7001
 30
0
 70
     0
  0
VERTEX
  8
MACK_GRANITE_265
 10
-14.4516
 20
-6.0445
 30
0
 70
     0
  0
VERTEX
  8
MACK_GRANITE_265
 10
-14.813
 20
-6.3974
 30
0
 70
     0
  0
VERTEX
  8
MACK_GRANITE_265
 10
-15.1659
 20
-6.7588
 30
0
 70
     0
  0
VERTEX
  8
MACK_GRANITE_265
 10
-15.5102
 20
-7.1284
 30
0
 70
     0
  0
VERTEX
  8
MACK_GRANITE_265
 10
-15.8458
 20
-7.5062
 30
0
 70
     0
  0
VERTEX
  8
MACK_GRANITE_265
 10
-16.1724
 20
-7.8918
 30
0
 70
     0
  0
VERTEX
  8
MACK_GRANITE_265
 10
-16.4899
 20
-8.2853
 30
0
 70
     0
  0
VERTEX
  8
MACK_GRANITE_265
 10
-16.798
 20
-8.6863
 30
0
 70
     0
  0
VERTEX
  8
MACK_GRANITE_265
 10
-17.0968
 20
-9.0947
 30
0
 70
     0
  0
VERTEX
  8
MACK_GRANITE_265
 10
-17.3859
 20
-9.5104
 30
0
 70
     0
  0
VERTEX
  8
MACK_GRANITE_265
 10
-17.6652
 20
-9.9331
 30
0
 70
     0
  0
VERTEX
  8
MACK_GRANITE_265
 10
-17.9345
 20
-10.3628
 30
0
 70
     0
  0
VERTEX
  8
MACK_GRANITE_265
 10
-18.1937
 20
-10.7991
 30
0
 70
     0
  0
VERTEX
  8
MACK_GRANITE_265
 10
-18.4426
 20
-11.2421
 30
0
 70
     0
  0
VERTEX
  8
MACK_GRANITE_265
 10
-18.681
 20
-11.6914
 30
0
 70
     0
  0
VERTEX
  8
MACK_GRANITE_265
 10
-18.9088
 20
-12.147
 30
0
 70
     0
  0
VERTEX
  8
MACK_GRANITE_265
 10
-19.1257
 20
-12.6086
 30
0
 70
     0
  0
VERTEX
  8
MACK_GRANITE_265
 10
-19.3316
 20
-13.0761
 30
0
 70
     0
  0
VERTEX
  8
MACK_GRANITE_265
 10
-19.5264
 20
-13.5494
 30
0
 70
     0
  0
VERTEX
  8
MACK_GRANITE_265
 10
-19.7099
 20
-14.0281
 30
0
 70
     0
  0
VERTEX
  8
MACK_GRANITE_265
 10
-19.8818
 20
-14.5123
 30
0
 70
     0
  0
VERTEX
  8
MACK_GRANITE_265
 10
-20.0421
 20
-15.0016
 30
0
 70
     0
  0
VERTEX
  8
MACK_GRANITE_265
 10
-20.1905
 20
-15.496
 30
0
 70
     0
  0
VERTEX
  8
MACK_GRANITE_265
 10
-20.3269
 20
-15.9952
 30
0
 70
     0
  0
VERTEX
  8
MACK_GRANITE_265
 10
-20.4511
 20
-16.4991
 30
0
 70
     0
  0
VERTEX
  8
MACK_GRANITE_265
 10
-20.563
 20
-17.0076
 30
0
 70
     0
  0
VERTEX
  8
MACK_GRANITE_265
 10
-20.6624
 20
-17.5204
 30
0
 70
     0
  0
VERTEX
  8
MACK_GRANITE_265
 10
-20.749
 20
-18.0374
 30
0
 70
     0
  0
VERTEX
  8
MACK_GRANITE_265
 10
-20.8228
 20
-18.5584
 30
0
 70
     0
  0
VERTEX
  8
MACK_GRANITE_265
 10
-20.8836
 20
-19.0832
 30
0
 70
     0
  0
VERTEX
  8
MACK_GRANITE_265
 10
-20.9311
 20
-19.6117
 30
0
 70
     0
  0
VERTEX
  8
MACK_GRANITE_265
 10
-20.9653
 20
-20.1437
 30
0
 70
     0
  0
VERTEX
  8
MACK_GRANITE_265
 10
-20.9859
 20
-20.679
 30
0
 70
     0
  0
VERTEX
  8
MACK_GRANITE_265
 10
-20.9929
 20
-21.2175
 30
0
 70
     0
  0
SEQEND
  0
POLYLINE
  8
MACK_GRANITE_265
  6
CONTINUOUS
 62
     7
 66
     1
 40
0.0139
 41
0.0139
  0
VERTEX
  8
MACK_GRANITE_265
 10
-77.9925
 20
65.9857
 30
0
 70
     0
  0
VERTEX
  8
MACK_GRANITE_265
 10
-77.9877
 20
66.1858
 30
0
 70
     0
  0
VERTEX
  8
MACK_GRANITE_265
 10
-77.9732
 20
66.3834
 30
0
 70
     0
  0
VERTEX
  8
MACK_GRANITE_265
 10
-77.9492
 20
66.5783
 30
0
 70
     0
  0
VERTEX
  8
MACK_GRANITE_265
 10
-77.916
 20
66.7703
 30
0
 70
     0
  0
VERTEX
  8
MACK_GRANITE_265
 10
-77.8737
 20
66.959
 30
0
 70
     0
  0
VERTEX
  8
MACK_GRANITE_265
 10
-77.8227
 20
67.1444
 30
0
 70
     0
  0
VERTEX
  8
MACK_GRANITE_265
 10
-77.763
 20
67.326
 30
0
 70
     0
  0
VERTEX
  8
MACK_GRANITE_265
 10
-77.695
 20
67.5038
 30
0
 70
     0
  0
VERTEX
  8
MACK_GRANITE_265
 10
-77.6189
 20
67.6775
 30
0
 70
     0
  0
VERTEX
  8
MACK_GRANITE_265
 10
-77.5349
 20
67.8467
 30
0
 70
     0
  0
VERTEX
  8
MACK_GRANITE_265
 10
-77.4432
 20
68.0114
 30
0
 70
     0
  0
VERTEX
  8
MACK_GRANITE_265
 10
-77.3441
 20
68.1712
 30
0
 70
     0
  0
VERTEX
  8
MACK_GRANITE_265
 10
-77.2378
 20
68.3259
 30
0
 70
     0
  0
VERTEX
  8
MACK_GRANITE_265
 10
-77.1246
 20
68.4753
 30
0
 70
     0
  0
VERTEX
  8
MACK_GRANITE_265
 10
-77.0046
 20
68.6192
 30
0
 70
     0
  0
VERTEX
  8
MACK_GRANITE_265
 10
-76.878
 20
68.7572
 30
0
 70
     0
  0
VERTEX
  8
MACK_GRANITE_265
 10
-76.7452
 20
68.8892
 30
0
 70
     0
  0
VERTEX
  8
MACK_GRANITE_265
 10
-76.6063
 20
69.0149
 30
0
 70
     0
  0
VERTEX
  8
MACK_GRANITE_265
 10
-76.4616
 20
69.1341
 30
0
 70
     0
  0
VERTEX
  8
MACK_GRANITE_265
 10
-76.3113
 20
69.2466
 30
0
 70
     0
  0
VERTEX
  8
MACK_GRANITE_265
 10
-76.1556
 20
69.352
 30
0
 70
     0
  0
VERTEX
  8
MACK_GRANITE_265
 10
-75.9948
 20
69.4502
 30
0
 70
     0
  0
VERTEX
  8
MACK_GRANITE_265
 10
-75.829
 20
69.541
 30
0
 70
     0
  0
VERTEX
  8
MACK_GRANITE_265
 10
-75.6586
 20
69.6241
 30
0
 70
     0
  0
VERTEX
  8
MACK_GRANITE_265
 10
-75.4837
 20
69.6992
 30
0
 70
     0
  0
VERTEX
  8
MACK_GRANITE_265
 10
-75.3046
 20
69.7661
 30
0
 70
     0
  0
VERTEX
  8
MACK_GRANITE_265
 10
-75.1214
 20
69.8246
 30
0
 70
     0
  0
VERTEX
  8
MACK_GRANITE_265
 10
-74.9345
 20
69.8744
 30
0
 70
     0
  0
VERTEX
  8
MACK_GRANITE_265
 10
-74.7441
 20
69.9154
 30
0
 70
     0
  0
VERTEX
  8
MACK_GRANITE_265
 10
-74.5503
 20
69.9472
 30
0
 70
     0
  0
VERTEX
  8
MACK_GRANITE_265
 10
-74.3535
 20
69.9697
 30
0
 70
     0
  0
VERTEX
  8
MACK_GRANITE_265
 10
-74.1538
 20
69.9825
 30
0
 70
     0
  0
SEQEND
  0
POLYLINE
  8
MACK_GRANITE_265
  6
CONTINUOUS
 62
     7
 66
     1
 40
0.0139
 41
0.0139
  0
VERTEX
  8
MACK_GRANITE_265
 10
-74.1538
 20
69.9825
 30
0
 70
     0
  0
VERTEX
  8
MACK_GRANITE_265
 10
-72.9753
 20
70.0282
 30
0
 70
     0
  0
VERTEX
  8
MACK_GRANITE_265
 10
-71.7967
 20
70.0682
 30
0
 70
     0
  0
VERTEX
  8
MACK_GRANITE_265
 10
-70.6179
 20
70.1027
 30
0
 70
     0
  0
VERTEX
  8
MACK_GRANITE_265
 10
-69.4392
 20
70.1315
 30
0
 70
     0
  0
VERTEX
  8
MACK_GRANITE_265
 10
-68.2603
 20
70.1547
 30
0
 70
     0
  0
VERTEX
  8
MACK_GRANITE_265
 10
-67.0815
 20
70.1722
 30
0
 70
     0
  0
VERTEX
  8
MACK_GRANITE_265
 10
-65.9026
 20
70.1842
 30
0
 70
     0
  0
VERTEX
  8
MACK_GRANITE_265
 10
-64.7237
 20
70.1905
 30
0
 70
     0
  0
VERTEX
  8
MACK_GRANITE_265
 10
-63.5449
 20
70.1912
 30
0
 70
     0
  0
VERTEX
  8
MACK_GRANITE_265
 10
-62.3661
 20
70.1864
 30
0
 70
     0
  0
VERTEX
  8
MACK_GRANITE_265
 10
-61.1874
 20
70.1758
 30
0
 70
     0
  0
VERTEX
  8
MACK_GRANITE_265
 10
-60.0088
 20
70.1597
 30
0
 70
     0
  0
VERTEX
  8
MACK_GRANITE_265
 10
-58.8303
 20
70.138
 30
0
 70
     0
  0
VERTEX
  8
MACK_GRANITE_265
 10
-57.652
 20
70.1106
 30
0
 70
     0
  0
VERTEX
  8
MACK_GRANITE_265
 10
-56.4738
 20
70.0776
 30
0
 70
     0
  0
VERTEX
  8
MACK_GRANITE_265
 10
-55.2958
 20
70.0391
 30
0
 70
     0
  0
VERTEX
  8
MACK_GRANITE_265
 10
-54.1179
 20
69.9949
 30
0
 70
     0
  0
VERTEX
  8
MACK_GRANITE_265
 10
-52.9403
 20
69.9451
 30
0
 70
     0
  0
VERTEX
  8
MACK_GRANITE_265
 10
-51.763
 20
69.8896
 30
0
 70
     0
  0
VERTEX
  8
MACK_GRANITE_265
 10
-50.5859
 20
69.8286
 30
0
 70
     0
  0
VERTEX
  8
MACK_GRANITE_265
 10
-49.409
 20
69.762
 30
0
 70
     0
  0
VERTEX
  8
MACK_GRANITE_265
 10
-48.2325
 20
69.6897
 30
0
 70
     0
  0
VERTEX
  8
MACK_GRANITE_265
 10
-47.0563
 20
69.6119
 30
0
 70
     0
  0
VERTEX
  8
MACK_GRANITE_265
 10
-45.8804
 20
69.5284
 30
0
 70
     0
  0
VERTEX
  8
MACK_GRANITE_265
 10
-44.7049
 20
69.4394
 30
0
 70
     0
  0
VERTEX
  8
MACK_GRANITE_265
 10
-43.5298
 20
69.3447
 30
0
 70
     0
  0
VERTEX
  8
MACK_GRANITE_265
 10
-42.3551
 20
69.2444
 30
0
 70
     0
  0
VERTEX
  8
MACK_GRANITE_265
 10
-41.1808
 20
69.1386
 30
0
 70
     0
  0
VERTEX
  8
MACK_GRANITE_265
 10
-40.0069
 20
69.0271
 30
0
 70
     0
  0
VERTEX
  8
MACK_GRANITE_265
 10
-38.8335
 20
68.91
 30
0
 70
     0
  0
VERTEX
  8
MACK_GRANITE_265
 10
-37.6606
 20
68.7873
 30
0
 70
     0
  0
VERTEX
  8
MACK_GRANITE_265
 10
-36.4882
 20
68.659
 30
0
 70
     0
  0
SEQEND
  0
POLYLINE
  8
MACK_GRANITE_265
  6
CONTINUOUS
 62
     7
 66
     1
 40
0.0139
 41
0.0139
  0
VERTEX
  8
MACK_GRANITE_265
 10
19.3497
 20
14.6808
 30
0
 70
     0
  0
VERTEX
  8
MACK_GRANITE_265
 10
19.6014
 20
14.6693
 30
0
 70
     0
  0
VERTEX
  8
MACK_GRANITE_265
 10
19.8513
 20
14.6516
 30
0
 70
     0
  0
VERTEX
  8
MACK_GRANITE_265
 10
20.0995
 20
14.6278
 30
0
 70
     0
  0
VERTEX
  8
MACK_GRANITE_265
 10
20.3459
 20
14.5981
 30
0
 70
     0
  0
VERTEX
  8
MACK_GRANITE_265
 10
20.5903
 20
14.5624
 30
0
 70
     0
  0
VERTEX
  8
MACK_GRANITE_265
 10
20.8327
 20
14.5209
 30
0
 70
     0
  0
VERTEX
  8
MACK_GRANITE_265
 10
21.0731
 20
14.4736
 30
0
 70
     0
  0
VERTEX
  8
MACK_GRANITE_265
 10
21.3113
 20
14.4207
 30
0
 70
     0
  0
VERTEX
  8
MACK_GRANITE_265
 10
21.5474
 20
14.3621
 30
0
 70
     0
  0
VERTEX
  8
MACK_GRANITE_265
 10
21.7811
 20
14.298
 30
0
 70
     0
  0
VERTEX
  8
MACK_GRANITE_265
 10
22.0125
 20
14.2284
 30
0
 70
     0
  0
VERTEX
  8
MACK_GRANITE_265
 10
22.2415
 20
14.1534
 30
0
 70
     0
  0
VERTEX
  8
MACK_GRANITE_265
 10
22.468
 20
14.0731
 30
0
 70
     0
  0
VERTEX
  8
MACK_GRANITE_265
 10
22.6919
 20
13.9876
 30
0
 70
     0
  0
VERTEX
  8
MACK_GRANITE_265
 10
22.9132
 20
13.8969
 30
0
 70
     0
  0
VERTEX
  8
MACK_GRANITE_265
 10
23.1317
 20
13.8011
 30
0
 70
     0
  0
VERTEX
  8
MACK_GRANITE_265
 10
23.5604
 20
13.5945
 30
0
 70
     0
  0
VERTEX
  8
MACK_GRANITE_265
 10
23.9773
 20
13.3685
 30
0
 70
     0
  0
VERTEX
  8
MACK_GRANITE_265
 10
24.3819
 20
13.1236
 30
0
 70
     0
  0
VERTEX
  8
MACK_GRANITE_265
 10
24.7736
 20
12.8605
 30
0
 70
     0
  0
VERTEX
  8
MACK_GRANITE_265
 10
25.1519
 20
12.5796
 30
0
 70
     0
  0
VERTEX
  8
MACK_GRANITE_265
 10
25.5161
 20
12.2818
 30
0
 70
     0
  0
VERTEX
  8
MACK_GRANITE_265
 10
25.8656
 20
11.9674
 30
0
 70
     0
  0
VERTEX
  8
MACK_GRANITE_265
 10
26.2
 20
11.6372
 30
0
 70
     0
  0
VERTEX
  8
MACK_GRANITE_265
 10
26.5185
 20
11.2918
 30
0
 70
     0
  0
VERTEX
  8
MACK_GRANITE_265
 10
26.8207
 20
10.9316
 30
0
 70
     0
  0
VERTEX
  8
MACK_GRANITE_265
 10
27.1059
 20
10.5575
 30
0
 70
     0
  0
VERTEX
  8
MACK_GRANITE_265
 10
27.3736
 20
10.1698
 30
0
 70
     0
  0
VERTEX
  8
MACK_GRANITE_265
 10
27.6232
 20
9.7693
 30
0
 70
     0
  0
VERTEX
  8
MACK_GRANITE_265
 10
27.8541
 20
9.3565
 30
0
 70
     0
  0
VERTEX
  8
MACK_GRANITE_265
 10
28.0657
 20
8.9321
 30
0
 70
     0
  0
VERTEX
  8
MACK_GRANITE_265
 10
28.2575
 20
8.4966
 30
0
 70
     0
  0
VERTEX
  8
MACK_GRANITE_265
 10
28.3457
 20
8.2749
 30
0
 70
     0
  0
VERTEX
  8
MACK_GRANITE_265
 10
28.4288
 20
8.0507
 30
0
 70
     0
  0
VERTEX
  8
MACK_GRANITE_265
 10
28.5066
 20
7.824
 30
0
 70
     0
  0
VERTEX
  8
MACK_GRANITE_265
 10
28.5791
 20
7.5949
 30
0
 70
     0
  0
VERTEX
  8
MACK_GRANITE_265
 10
28.6462
 20
7.3635
 30
0
 70
     0
  0
VERTEX
  8
MACK_GRANITE_265
 10
28.7078
 20
7.1298
 30
0
 70
     0
  0
VERTEX
  8
MACK_GRANITE_265
 10
28.7639
 20
6.894
 30
0
 70
     0
  0
VERTEX
  8
MACK_GRANITE_265
 10
28.8143
 20
6.6561
 30
0
 70
     0
  0
VERTEX
  8
MACK_GRANITE_265
 10
28.8591
 20
6.4162
 30
0
 70
     0
  0
VERTEX
  8
MACK_GRANITE_265
 10
28.8981
 20
6.1744
 30
0
 70
     0
  0
VERTEX
  8
MACK_GRANITE_265
 10
28.9313
 20
5.9306
 30
0
 70
     0
  0
VERTEX
  8
MACK_GRANITE_265
 10
28.9586
 20
5.6851
 30
0
 70
     0
  0
VERTEX
  8
MACK_GRANITE_265
 10
28.9799
 20
5.4379
 30
0
 70
     0
  0
VERTEX
  8
MACK_GRANITE_265
 10
28.9951
 20
5.1891
 30
0
 70
     0
  0
VERTEX
  8
MACK_GRANITE_265
 10
29.0042
 20
4.9386
 30
0
 70
     0
  0
VERTEX
  8
MACK_GRANITE_265
 10
29.0071
 20
4.6867
 30
0
 70
     0
  0
SEQEND
  0
POLYLINE
  8
MACK_GRANITE_265
  6
CONTINUOUS
 62
     7
 66
     1
 40
0.0139
 41
0.0139
  0
VERTEX
  8
MACK_GRANITE_265
 10
-22.2953
 20
8.3089
 30
0
 70
     0
  0
VERTEX
  8
MACK_GRANITE_265
 10
-22.1758
 20
8.7286
 30
0
 70
     0
  0
VERTEX
  8
MACK_GRANITE_265
 10
-22.0393
 20
9.1395
 30
0
 70
     0
  0
VERTEX
  8
MACK_GRANITE_265
 10
-21.8862
 20
9.5415
 30
0
 70
     0
  0
VERTEX
  8
MACK_GRANITE_265
 10
-21.717
 20
9.9341
 30
0
 70
     0
  0
VERTEX
  8
MACK_GRANITE_265
 10
-21.5322
 20
10.317
 30
0
 70
     0
  0
VERTEX
  8
MACK_GRANITE_265
 10
-21.3322
 20
10.6899
 30
0
 70
     0
  0
VERTEX
  8
MACK_GRANITE_265
 10
-21.1174
 20
11.0524
 30
0
 70
     0
  0
VERTEX
  8
MACK_GRANITE_265
 10
-20.8884
 20
11.4043
 30
0
 70
     0
  0
VERTEX
  8
MACK_GRANITE_265
 10
-20.6455
 20
11.7451
 30
0
 70
     0
  0
VERTEX
  8
MACK_GRANITE_265
 10
-20.3892
 20
12.0746
 30
0
 70
     0
  0
VERTEX
  8
MACK_GRANITE_265
 10
-20.12
 20
12.3923
 30
0
 70
     0
  0
VERTEX
  8
MACK_GRANITE_265
 10
-19.8383
 20
12.6981
 30
0
 70
     0
  0
VERTEX
  8
MACK_GRANITE_265
 10
-19.5445
 20
12.9914
 30
0
 70
     0
  0
VERTEX
  8
MACK_GRANITE_265
 10
-19.2392
 20
13.272
 30
0
 70
     0
  0
VERTEX
  8
MACK_GRANITE_265
 10
-18.9228
 20
13.5396
 30
0
 70
     0
  0
VERTEX
  8
MACK_GRANITE_265
 10
-18.5957
 20
13.7938
 30
0
 70
     0
  0
VERTEX
  8
MACK_GRANITE_265
 10
-18.2584
 20
14.0342
 30
0
 70
     0
  0
VERTEX
  8
MACK_GRANITE_265
 10
-17.9113
 20
14.2606
 30
0
 70
     0
  0
VERTEX
  8
MACK_GRANITE_265
 10
-17.5549
 20
14.4726
 30
0
 70
     0
  0
VERTEX
  8
MACK_GRANITE_265
 10
-17.1897
 20
14.6699
 30
0
 70
     0
  0
VERTEX
  8
MACK_GRANITE_265
 10
-16.816
 20
14.8521
 30
0
 70
     0
  0
VERTEX
  8
MACK_GRANITE_265
 10
-16.4344
 20
15.0188
 30
0
 70
     0
  0
VERTEX
  8
MACK_GRANITE_265
 10
-16.0453
 20
15.1699
 30
0
 70
     0
  0
VERTEX
  8
MACK_GRANITE_265
 10
-15.6491
 20
15.3048
 30
0
 70
     0
  0
VERTEX
  8
MACK_GRANITE_265
 10
-15.2463
 20
15.4233
 30
0
 70
     0
  0
VERTEX
  8
MACK_GRANITE_265
 10
-14.8374
 20
15.5251
 30
0
 70
     0
  0
VERTEX
  8
MACK_GRANITE_265
 10
-14.4228
 20
15.6098
 30
0
 70
     0
  0
VERTEX
  8
MACK_GRANITE_265
 10
-14.003
 20
15.677
 30
0
 70
     0
  0
VERTEX
  8
MACK_GRANITE_265
 10
-13.5784
 20
15.7265
 30
0
 70
     0
  0
VERTEX
  8
MACK_GRANITE_265
 10
-13.1494
 20
15.7579
 30
0
 70
     0
  0
VERTEX
  8
MACK_GRANITE_265
 10
-12.7165
 20
15.7708
 30
0
 70
     0
  0
VERTEX
  8
MACK_GRANITE_265
 10
-12.2803
 20
15.7649
 30
0
 70
     0
  0
SEQEND
  0
POLYLINE
  8
MACK_GRANITE_265
  6
CONTINUOUS
 62
     7
 66
     1
 40
0.0139
 41
0.0139
  0
VERTEX
  8
MACK_GRANITE_265
 10
-47.0986
 20
41.2017
 30
0
 70
     0
  0
VERTEX
  8
MACK_GRANITE_265
 10
-47.3207
 20
41.1351
 30
0
 70
     0
  0
VERTEX
  8
MACK_GRANITE_265
 10
-47.5485
 20
41.0727
 30
0
 70
     0
  0
SEQEND
  0
POLYLINE
  8
MACK_GRANITE_265
  6
CONTINUOUS
 62
     7
 66
     1
 40
0.0139
 41
0.0139
  0
VERTEX
  8
MACK_GRANITE_265
 10
-46.9925
 20
41.0628
 30
0
 70
     0
  0
VERTEX
  8
MACK_GRANITE_265
 10
-47.0463
 20
41.1297
 30
0
 70
     0
  0
VERTEX
  8
MACK_GRANITE_265
 10
-47.0986
 20
41.2017
 30
0
 70
     0
  0
SEQEND
  0
POLYLINE
  8
MACK_GRANITE_265
  6
CONTINUOUS
 62
     7
 66
     1
 40
0.0139
 41
0.0139
  0
VERTEX
  8
MACK_GRANITE_265
 10
-47.3405
 20
40.5727
 30
0
 70
     0
  0
VERTEX
  8
MACK_GRANITE_265
 10
-47.3789
 20
40.5811
 30
0
 70
     0
  0
VERTEX
  8
MACK_GRANITE_265
 10
-47.4182
 20
40.6078
 30
0
 70
     0
  0
VERTEX
  8
MACK_GRANITE_265
 10
-47.456
 20
40.6541
 30
0
 70
     0
  0
VERTEX
  8
MACK_GRANITE_265
 10
-47.4898
 20
40.7189
 30
0
 70
     0
  0
VERTEX
  8
MACK_GRANITE_265
 10
-47.5368
 20
40.8881
 30
0
 70
     0
  0
VERTEX
  8
MACK_GRANITE_265
 10
-47.5518
 20
41.0719
 30
0
 70
     0
  0
SEQEND
  0
POLYLINE
  8
MACK_GRANITE_265
  6
CONTINUOUS
 62
     7
 66
     1
 40
0.0139
 41
0.0139
  0
VERTEX
  8
MACK_GRANITE_265
 10
-46.9925
 20
57.5064
 30
0
 70
     0
  0
VERTEX
  8
MACK_GRANITE_265
 10
-46.9417
 20
57.5559
 30
0
 70
     0
  0
VERTEX
  8
MACK_GRANITE_265
 10
-46.8873
 20
57.5727
 30
0
 70
     0
  0
SEQEND
  0
POLYLINE
  8
MACK_GRANITE_265
  6
CONTINUOUS
 62
     7
 66
     1
 40
0.0139
 41
0.0139
  0
VERTEX
  8
MACK_GRANITE_265
 10
-43.929
 20
57.5727
 30
0
 70
     0
  0
VERTEX
  8
MACK_GRANITE_265
 10
-43.8905
 20
57.5644
 30
0
 70
     0
  0
VERTEX
  8
MACK_GRANITE_265
 10
-43.8512
 20
57.5376
 30
0
 70
     0
  0
VERTEX
  8
MACK_GRANITE_265
 10
-43.8134
 20
57.4912
 30
0
 70
     0
  0
VERTEX
  8
MACK_GRANITE_265
 10
-43.7796
 20
57.4263
 30
0
 70
     0
  0
VERTEX
  8
MACK_GRANITE_265
 10
-43.7325
 20
57.2568
 30
0
 70
     0
  0
VERTEX
  8
MACK_GRANITE_265
 10
-43.7177
 20
57.0727
 30
0
 70
     0
  0
SEQEND
  0
POLYLINE
  8
MACK_GRANITE_265
  6
CONTINUOUS
 62
     7
 66
     1
 40
0.0139
 41
0.0139
  0
VERTEX
  8
MACK_GRANITE_265
 10
-43.7177
 20
41.0727
 30
0
 70
     0
  0
VERTEX
  8
MACK_GRANITE_265
 10
-43.7325
 20
40.8887
 30
0
 70
     0
  0
VERTEX
  8
MACK_GRANITE_265
 10
-43.7796
 20
40.7192
 30
0
 70
     0
  0
VERTEX
  8
MACK_GRANITE_265
 10
-43.8134
 20
40.6542
 30
0
 70
     0
  0
VERTEX
  8
MACK_GRANITE_265
 10
-43.8512
 20
40.6078
 30
0
 70
     0
  0
VERTEX
  8
MACK_GRANITE_265
 10
-43.8905
 20
40.5811
 30
0
 70
     0
  0
VERTEX
  8
MACK_GRANITE_265
 10
-43.929
 20
40.5727
 30
0
 70
     0
  0
SEQEND
  0
POLYLINE
  8
MACK_GRANITE_265
  6
CONTINUOUS
 62
     7
 66
     1
 40
0.0139
 41
0.0139
  0
VERTEX
  8
MACK_GRANITE_265
 10
-46.8873
 20
40.5727
 30
0
 70
     0
  0
VERTEX
  8
MACK_GRANITE_265
 10
-46.9258
 20
40.5811
 30
0
 70
     0
  0
VERTEX
  8
MACK_GRANITE_265
 10
-46.9651
 20
40.6078
 30
0
 70
     0
  0
VERTEX
  8
MACK_GRANITE_265
 10
-47.0029
 20
40.6542
 30
0
 70
     0
  0
VERTEX
  8
MACK_GRANITE_265
 10
-47.0367
 20
40.7192
 30
0
 70
     0
  0
VERTEX
  8
MACK_GRANITE_265
 10
-47.0838
 20
40.8887
 30
0
 70
     0
  0
VERTEX
  8
MACK_GRANITE_265
 10
-47.0986
 20
41.0727
 30
0
 70
     0
  0
SEQEND
  0
POLYLINE
  8
MACK_GRANITE_265
  6
CONTINUOUS
 62
     7
 66
     1
 40
0.0139
 41
0.0139
  0
VERTEX
  8
MACK_GRANITE_265
 10
-22.9533
 20
36.9776
 30
0
 70
     0
  0
VERTEX
  8
MACK_GRANITE_265
 10
-22.8493
 20
36.9409
 30
0
 70
     0
  0
VERTEX
  8
MACK_GRANITE_265
 10
-22.7447
 20
36.857
 30
0
 70
     0
  0
VERTEX
  8
MACK_GRANITE_265
 10
-22.6922
 20
36.7976
 30
0
 70
     0
  0
VERTEX
  8
MACK_GRANITE_265
 10
-22.6395
 20
36.7265
 30
0
 70
     0
  0
VERTEX
  8
MACK_GRANITE_265
 10
-22.5867
 20
36.6435
 30
0
 70
     0
  0
VERTEX
  8
MACK_GRANITE_265
 10
-22.5343
 20
36.5494
 30
0
 70
     0
  0
VERTEX
  8
MACK_GRANITE_265
 10
-22.4317
 20
36.3304
 30
0
 70
     0
  0
VERTEX
  8
MACK_GRANITE_265
 10
-22.332
 20
36.0708
 30
0
 70
     0
  0
VERTEX
  8
MACK_GRANITE_265
 10
-22.2832
 20
35.9255
 30
0
 70
     0
  0
VERTEX
  8
MACK_GRANITE_265
 10
-22.2353
 20
35.7704
 30
0
 70
     0
  0
VERTEX
  8
MACK_GRANITE_265
 10
-22.1886
 20
35.6066
 30
0
 70
     0
  0
VERTEX
  8
MACK_GRANITE_265
 10
-22.1434
 20
35.4351
 30
0
 70
     0
  0
VERTEX
  8
MACK_GRANITE_265
 10
-22.0575
 20
35.0696
 30
0
 70
     0
  0
VERTEX
  8
MACK_GRANITE_265
 10
-21.9774
 20
34.6739
 30
0
 70
     0
  0
VERTEX
  8
MACK_GRANITE_265
 10
-21.9397
 20
34.4651
 30
0
 70
     0
  0
VERTEX
  8
MACK_GRANITE_265
 10
-21.9039
 20
34.2508
 30
0
 70
     0
  0
VERTEX
  8
MACK_GRANITE_265
 10
-21.8702
 20
34.0326
 30
0
 70
     0
  0
VERTEX
  8
MACK_GRANITE_265
 10
-21.8386
 20
33.8101
 30
0
 70
     0
  0
VERTEX
  8
MACK_GRANITE_265
 10
-21.809
 20
33.5835
 30
0
 70
     0
  0
VERTEX
  8
MACK_GRANITE_265
 10
-21.7815
 20
33.3527
 30
0
 70
     0
  0
VERTEX
  8
MACK_GRANITE_265
 10
-21.756
 20
33.1175
 30
0
 70
     0
  0
VERTEX
  8
MACK_GRANITE_265
 10
-21.7326
 20
32.8787
 30
0
 70
     0
  0
VERTEX
  8
MACK_GRANITE_265
 10
-21.7116
 20
32.6378
 30
0
 70
     0
  0
VERTEX
  8
MACK_GRANITE_265
 10
-21.6929
 20
32.3956
 30
0
 70
     0
  0
VERTEX
  8
MACK_GRANITE_265
 10
-21.6845
 20
32.2741
 30
0
 70
     0
  0
VERTEX
  8
MACK_GRANITE_265
 10
-21.6766
 20
32.1523
 30
0
 70
     0
  0
VERTEX
  8
MACK_GRANITE_265
 10
-21.6729
 20
32.0913
 30
0
 70
     0
  0
VERTEX
  8
MACK_GRANITE_265
 10
-21.6694
 20
32.0302
 30
0
 70
     0
  0
VERTEX
  8
MACK_GRANITE_265
 10
-21.666
 20
31.9689
 30
0
 70
     0
  0
VERTEX
  8
MACK_GRANITE_265
 10
-21.6627
 20
31.9079
 30
0
 70
     0
  0
SEQEND
  0
POLYLINE
  8
MACK_GRANITE_265
  6
CONTINUOUS
 62
     7
 66
     1
 40
0.0139
 41
0.0139
  0
VERTEX
  8
MACK_GRANITE_265
 10
25.8402
 20
24.5618
 30
0
 70
     0
  0
VERTEX
  8
MACK_GRANITE_265
 10
26.0175
 20
24.4882
 30
0
 70
     0
  0
VERTEX
  8
MACK_GRANITE_265
 10
26.1908
 20
24.4083
 30
0
 70
     0
  0
VERTEX
  8
MACK_GRANITE_265
 10
26.3601
 20
24.3223
 30
0
 70
     0
  0
VERTEX
  8
MACK_GRANITE_265
 10
26.5252
 20
24.2304
 30
0
 70
     0
  0
VERTEX
  8
MACK_GRANITE_265
 10
26.686
 20
24.1327
 30
0
 70
     0
  0
VERTEX
  8
MACK_GRANITE_265
 10
26.8424
 20
24.0294
 30
0
 70
     0
  0
VERTEX
  8
MACK_GRANITE_265
 10
26.9944
 20
23.9207
 30
0
 70
     0
  0
VERTEX
  8
MACK_GRANITE_265
 10
27.1417
 20
23.8067
 30
0
 70
     0
  0
VERTEX
  8
MACK_GRANITE_265
 10
27.4221
 20
23.5636
 30
0
 70
     0
  0
VERTEX
  8
MACK_GRANITE_265
 10
27.6827
 20
23.3012
 30
0
 70
     0
  0
VERTEX
  8
MACK_GRANITE_265
 10
27.8053
 20
23.1633
 30
0
 70
     0
  0
VERTEX
  8
MACK_GRANITE_265
 10
27.9227
 20
23.021
 30
0
 70
     0
  0
VERTEX
  8
MACK_GRANITE_265
 10
28.0346
 20
22.8746
 30
0
 70
     0
  0
VERTEX
  8
MACK_GRANITE_265
 10
28.1411
 20
22.7243
 30
0
 70
     0
  0
VERTEX
  8
MACK_GRANITE_265
 10
28.242
 20
22.5701
 30
0
 70
     0
  0
VERTEX
  8
MACK_GRANITE_265
 10
28.3371
 20
22.4122
 30
0
 70
     0
  0
VERTEX
  8
MACK_GRANITE_265
 10
28.4265
 20
22.2509
 30
0
 70
     0
  0
VERTEX
  8
MACK_GRANITE_265
 10
28.5098
 20
22.0863
 30
0
 70
     0
  0
VERTEX
  8
MACK_GRANITE_265
 10
28.5872
 20
21.9184
 30
0
 70
     0
  0
VERTEX
  8
MACK_GRANITE_265
 10
28.6584
 20
21.7476
 30
0
 70
     0
  0
VERTEX
  8
MACK_GRANITE_265
 10
28.7233
 20
21.5739
 30
0
 70
     0
  0
VERTEX
  8
MACK_GRANITE_265
 10
28.7818
 20
21.3976
 30
0
 70
     0
  0
VERTEX
  8
MACK_GRANITE_265
 10
28.8339
 20
21.2187
 30
0
 70
     0
  0
VERTEX
  8
MACK_GRANITE_265
 10
28.8793
 20
21.0375
 30
0
 70
     0
  0
VERTEX
  8
MACK_GRANITE_265
 10
28.918
 20
20.8541
 30
0
 70
     0
  0
VERTEX
  8
MACK_GRANITE_265
 10
28.9499
 20
20.6687
 30
0
 70
     0
  0
VERTEX
  8
MACK_GRANITE_265
 10
28.9749
 20
20.4814
 30
0
 70
     0
  0
VERTEX
  8
MACK_GRANITE_265
 10
28.9929
 20
20.2924
 30
0
 70
     0
  0
VERTEX
  8
MACK_GRANITE_265
 10
29.0036
 20
20.1019
 30
0
 70
     0
  0
VERTEX
  8
MACK_GRANITE_265
 10
29.0071
 20
19.9099
 30
0
 70
     0
  0
SEQEND
  0
POLYLINE
  8
MACK_GRANITE_265
  6
CONTINUOUS
 62
     7
 66
     1
 40
0.0139
 41
0.0139
  0
VERTEX
  8
MACK_GRANITE_265
 10
-59.9925
 20
-24.0175
 30
0
 70
     0
  0
VERTEX
  8
MACK_GRANITE_265
 10
-89.9925
 20
-24.0175
 30
0
 70
     0
  0
SEQEND
  0
POLYLINE
  8
MACK_GRANITE_265
  6
CONTINUOUS
 62
     7
 66
     1
 40
0.0139
 41
0.0139
  0
VERTEX
  8
MACK_GRANITE_265
 10
-78.4925
 20
63.9825
 30
0
 70
     0
  0
VERTEX
  8
MACK_GRANITE_265
 10
-78.4925
 20
15.9825
 30
0
 70
     0
  0
SEQEND
  0
POLYLINE
  8
MACK_GRANITE_265
  6
CONTINUOUS
 62
     7
 66
     1
 40
0.0139
 41
0.0139
  0
VERTEX
  8
MACK_GRANITE_265
 10
-81.9925
 20
95.9825
 30
0
 70
     0
  0
VERTEX
  8
MACK_GRANITE_265
 10
-81.9925
 20
63.9825
 30
0
 70
     0
  0
SEQEND
  0
POLYLINE
  8
MACK_GRANITE_265
  6
CONTINUOUS
 62
     7
 66
     1
 40
0.0139
 41
0.0139
  0
VERTEX
  8
MACK_GRANITE_265
 10
-87.9925
 20
7.9825
 30
0
 70
     0
  0
VERTEX
  8
MACK_GRANITE_265
 10
-87.9925
 20
15.9825
 30
0
 70
     0
  0
SEQEND
  0
POLYLINE
  8
MACK_GRANITE_265
  6
CONTINUOUS
 62
     7
 66
     1
 40
0.0139
 41
0.0139
  0
VERTEX
  8
MACK_GRANITE_265
 10
-89.9925
 20
-0.0175
 30
0
 70
     0
  0
VERTEX
  8
MACK_GRANITE_265
 10
-59.9925
 20
-0.0175
 30
0
 70
     0
  0
SEQEND
  0
POLYLINE
  8
MACK_GRANITE_265
  6
CONTINUOUS
 62
     7
 66
     1
 40
0.0139
 41
0.0139
  0
VERTEX
  8
MACK_GRANITE_265
 10
-91.4925
 20
15.9825
 30
0
 70
     0
  0
VERTEX
  8
MACK_GRANITE_265
 10
-91.4925
 20
63.9825
 30
0
 70
     0
  0
SEQEND
  0
POLYLINE
  8
MACK_GRANITE_265
  6
CONTINUOUS
 62
     7
 66
     1
 40
0.0139
 41
0.0139
  0
VERTEX
  8
MACK_GRANITE_265
 10
-87.9925
 20
63.9825
 30
0
 70
     0
  0
VERTEX
  8
MACK_GRANITE_265
 10
-87.9925
 20
95.9825
 30
0
 70
     0
  0
SEQEND
  0
POLYLINE
  8
MACK_GRANITE_265
  6
CONTINUOUS
 62
     7
 66
     1
 40
0.0139
 41
0.0139
  0
VERTEX
  8
MACK_GRANITE_265
 10
-89.9925
 20
-24.0175
 30
0
 70
     0
  0
VERTEX
  8
MACK_GRANITE_265
 10
-89.9929
 20
-24.0175
 30
0
 70
     0
  0
SEQEND
  0
POLYLINE
  8
MACK_GRANITE_265
  6
CONTINUOUS
 62
     7
 66
     1
 40
0.0139
 41
0.0139
  0
VERTEX
  8
MACK_GRANITE_265
 10
-29.9344
 20
65.922
 30
0
 70
     0
  0
VERTEX
  8
MACK_GRANITE_265
 10
-22.9929
 20
36.9825
 30
0
 70
     0
  0
SEQEND
  0
POLYLINE
  8
MACK_GRANITE_265
  6
CONTINUOUS
 62
     7
 66
     1
 40
0.0139
 41
0.0139
  0
VERTEX
  8
MACK_GRANITE_265
 10
-173.0914
 20
-0.0175
 30
0
 70
     0
  0
VERTEX
  8
MACK_GRANITE_265
 10
-89.9925
 20
-0.0175
 30
0
 70
     0
  0
SEQEND
  0
POLYLINE
  8
MACK_GRANITE_265
  6
CONTINUOUS
 62
     7
 66
     1
 40
0.0139
 41
0.0139
  0
VERTEX
  8
MACK_GRANITE_265
 10
-59.9925
 20
-0.0175
 30
0
 70
     0
  0
VERTEX
  8
MACK_GRANITE_265
 10
18.9821
 20
-0.0175
 30
0
 70
     0
  0
SEQEND
  0
POLYLINE
  8
MACK_GRANITE_265
  6
CONTINUOUS
 62
     7
 66
     1
 40
0.0139
 41
0.0139
  0
VERTEX
  8
MACK_GRANITE_265
 10
-151.5841
 20
-13.2675
 30
0
 70
     0
  0
VERTEX
  8
MACK_GRANITE_265
 10
-95.9925
 20
-13.2675
 30
0
 70
     0
  0
SEQEND
  0
POLYLINE
  8
MACK_GRANITE_265
  6
CONTINUOUS
 62
     7
 66
     1
 40
0.0139
 41
0.0139
  0
VERTEX
  8
MACK_GRANITE_265
 10
-53.9925
 20
-13.2675
 30
0
 70
     0
  0
VERTEX
  8
MACK_GRANITE_265
 10
-46.9086
 20
-13.2675
 30
0
 70
     0
  0
SEQEND
  0
POLYLINE
  8
MACK_GRANITE_265
  6
CONTINUOUS
 62
     7
 66
     1
 40
0.0139
 41
0.0139
  0
VERTEX
  8
MACK_GRANITE_265
 10
-39.5771
 20
-13.2675
 30
0
 70
     0
  0
VERTEX
  8
MACK_GRANITE_265
 10
-19.4299
 20
-13.2675
 30
0
 70
     0
  0
SEQEND
  0
POLYLINE
  8
MACK_GRANITE_265
  6
CONTINUOUS
 62
     7
 66
     1
 40
0.0139
 41
0.0139
  0
VERTEX
  8
MACK_GRANITE_265
 10
19.4442
 20
-13.2675
 30
0
 70
     0
  0
VERTEX
  8
MACK_GRANITE_265
 10
28.0071
 20
-13.2675
 30
0
 70
     0
  0
SEQEND
  0
POLYLINE
  8
MACK_GRANITE_265
  6
CONTINUOUS
 62
     7
 66
     1
 40
0.0139
 41
0.0139
  0
VERTEX
  8
MACK_GRANITE_265
 10
28.0071
 20
-13.2675
 30
0
 70
     0
  0
VERTEX
  8
MACK_GRANITE_265
 10
28.0071
 20
-6.7175
 30
0
 70
     0
  0
SEQEND
  0
POLYLINE
  8
MACK_GRANITE_265
  6
CONTINUOUS
 62
     7
 66
     1
 40
0.0139
 41
0.0139
  0
VERTEX
  8
MACK_GRANITE_265
 10
-77.9925
 20
0.9825
 30
0
 70
     0
  0
VERTEX
  8
MACK_GRANITE_265
 10
-71.9925
 20
0.9825
 30
0
 70
     0
  0
SEQEND
  0
POLYLINE
  8
MACK_GRANITE_265
  6
CONTINUOUS
 62
     7
 66
     1
 40
0.0139
 41
0.0139
  0
VERTEX
  8
MACK_GRANITE_265
 10
-77.9925
 20
65.9857
 30
0
 70
     0
  0
VERTEX
  8
MACK_GRANITE_265
 10
-77.9925
 20
0.9825
 30
0
 70
     0
  0
SEQEND
  0
POLYLINE
  8
MACK_GRANITE_265
  6
CONTINUOUS
 62
     7
 66
     1
 40
0.0139
 41
0.0139
  0
VERTEX
  8
MACK_GRANITE_265
 10
29.0071
 20
-6.7175
 30
0
 70
     0
  0
VERTEX
  8
MACK_GRANITE_265
 10
29.0071
 20
4.6867
 30
0
 70
     0
  0
SEQEND
  0
POLYLINE
  8
MACK_GRANITE_265
  6
CONTINUOUS
 62
     7
 66
     1
 40
0.0139
 41
0.0139
  0
VERTEX
  8
MACK_GRANITE_265
 10
26.0071
 20
-6.7175
 30
0
 70
     0
  0
VERTEX
  8
MACK_GRANITE_265
 10
29.0071
 20
-6.7175
 30
0
 70
     0
  0
SEQEND
  0
POLYLINE
  8
MACK_GRANITE_265
  6
CONTINUOUS
 62
     7
 66
     1
 40
0.0139
 41
0.0139
  0
VERTEX
  8
MACK_GRANITE_265
 10
-24.2179
 20
0.9825
 30
0
 70
     0
  0
VERTEX
  8
MACK_GRANITE_265
 10
-21.1163
 20
0.9825
 30
0
 70
     0
  0
SEQEND
  0
POLYLINE
  8
MACK_GRANITE_265
  6
CONTINUOUS
 62
     7
 66
     1
 40
0.0139
 41
0.0139
  0
VERTEX
  8
MACK_GRANITE_265
 10
-22.2953
 20
8.3089
 30
0
 70
     0
  0
VERTEX
  8
MACK_GRANITE_265
 10
-24.2179
 20
0.9825
 30
0
 70
     0
  0
SEQEND
  0
POLYLINE
  8
MACK_GRANITE_265
  6
CONTINUOUS
 62
     7
 66
     1
 40
0.0139
 41
0.0139
  0
VERTEX
  8
MACK_GRANITE_265
 10
19.3497
 20
14.6808
 30
0
 70
     0
  0
VERTEX
  8
MACK_GRANITE_265
 10
-12.2803
 20
15.7649
 30
0
 70
     0
  0
SEQEND
  0
POLYLINE
  8
MACK_GRANITE_265
  6
CONTINUOUS
 62
     7
 66
     1
 40
0.0139
 41
0.0139
  0
VERTEX
  8
MACK_GRANITE_265
 10
-95.9929
 20
-13.2675
 30
0
 70
     0
  0
VERTEX
  8
MACK_GRANITE_265
 10
-95.9929
 20
-18.0175
 30
0
 70
     0
  0
SEQEND
  0
POLYLINE
  8
MACK_GRANITE_265
  6
CONTINUOUS
 62
     7
 66
     1
 40
0.0139
 41
0.0139
  0
VERTEX
  8
MACK_GRANITE_265
 10
-53.9925
 20
-6.0175
 30
0
 70
     0
  0
VERTEX
  8
MACK_GRANITE_265
 10
-53.9925
 20
-18.0175
 30
0
 70
     0
  0
SEQEND
  0
POLYLINE
  8
MACK_GRANITE_265
  6
CONTINUOUS
 62
     7
 66
     1
 40
0.0139
 41
0.0139
  0
VERTEX
  8
MACK_GRANITE_265
 10
-95.9925
 20
-18.0175
 30
0
 70
     0
  0
VERTEX
  8
MACK_GRANITE_265
 10
-95.9925
 20
-6.0175
 30
0
 70
     0
  0
SEQEND
  0
POLYLINE
  8
MACK_GRANITE_265
  6
CONTINUOUS
 62
     7
 66
     1
 40
0.0139
 41
0.0139
  0
VERTEX
  8
MACK_GRANITE_265
 10
-81.9925
 20
15.9825
 30
0
 70
     0
  0
VERTEX
  8
MACK_GRANITE_265
 10
-81.9925
 20
7.9825
 30
0
 70
     0
  0
SEQEND
  0
POLYLINE
  8
MACK_GRANITE_265
  6
CONTINUOUS
 62
     7
 66
     1
 40
0.0139
 41
0.0139
  0
VERTEX
  8
MACK_GRANITE_265
 10
-47.5518
 20
41.0719
 30
0
 70
     0
  0
VERTEX
  8
MACK_GRANITE_265
 10
-47.5485
 20
41.0727
 30
0
 70
     0
  0
SEQEND
  0
POLYLINE
  8
MACK_GRANITE_265
  6
CONTINUOUS
 62
     7
 66
     1
 40
0.0139
 41
0.0139
  0
VERTEX
  8
MACK_GRANITE_265
 10
-81.2429
 20
-20.2175
 30
0
 70
     0
  0
VERTEX
  8
MACK_GRANITE_265
 10
-33.2429
 20
-20.2175
 30
0
 70
     0
  0
SEQEND
  0
POLYLINE
  8
MACK_GRANITE_265
  6
CONTINUOUS
 62
     7
 66
     1
 40
0.0139
 41
0.0139
  0
VERTEX
  8
MACK_GRANITE_265
 10
-33.2429
 20
-22.2175
 30
0
 70
     0
  0
VERTEX
  8
MACK_GRANITE_265
 10
-81.2429
 20
-22.2175
 30
0
 70
     0
  0
SEQEND
  0
POLYLINE
  8
MACK_GRANITE_265
  6
CONTINUOUS
 62
     7
 66
     1
 40
0.0139
 41
0.0139
  0
VERTEX
  8
MACK_GRANITE_265
 10
-33.2429
 20
-20.2175
 30
0
 70
     0
  0
VERTEX
  8
MACK_GRANITE_265
 10
-33.2429
 20
-22.2175
 30
0
 70
     0
  0
SEQEND
  0
POLYLINE
  8
MACK_GRANITE_265
  6
CONTINUOUS
 62
     7
 66
     1
 40
0.0139
 41
0.0139
  0
VERTEX
  8
MACK_GRANITE_265
 10
-81.2429
 20
-22.2175
 30
0
 70
     0
  0
VERTEX
  8
MACK_GRANITE_265
 10
-81.2429
 20
-20.2175
 30
0
 70
     0
  0
SEQEND
  0
POLYLINE
  8
MACK_GRANITE_265
  6
CONTINUOUS
 62
     7
 66
     1
 40
0.0139
 41
0.0139
  0
VERTEX
  8
MACK_GRANITE_265
 10
-81.2429
 20
-2.2175
 30
0
 70
     0
  0
VERTEX
  8
MACK_GRANITE_265
 10
-33.2429
 20
-2.2175
 30
0
 70
     0
  0
SEQEND
  0
POLYLINE
  8
MACK_GRANITE_265
  6
CONTINUOUS
 62
     7
 66
     1
 40
0.0139
 41
0.0139
  0
VERTEX
  8
MACK_GRANITE_265
 10
-33.2429
 20
-2.2175
 30
0
 70
     0
  0
VERTEX
  8
MACK_GRANITE_265
 10
-33.2429
 20
-4.2175
 30
0
 70
     0
  0
SEQEND
  0
POLYLINE
  8
MACK_GRANITE_265
  6
CONTINUOUS
 62
     7
 66
     1
 40
0.0139
 41
0.0139
  0
VERTEX
  8
MACK_GRANITE_265
 10
-33.2429
 20
-4.2175
 30
0
 70
     0
  0
VERTEX
  8
MACK_GRANITE_265
 10
-81.2429
 20
-4.2175
 30
0
 70
     0
  0
SEQEND
  0
POLYLINE
  8
MACK_GRANITE_265
  6
CONTINUOUS
 62
     7
 66
     1
 40
0.0139
 41
0.0139
  0
VERTEX
  8
MACK_GRANITE_265
 10
-81.2429
 20
-4.2175
 30
0
 70
     0
  0
VERTEX
  8
MACK_GRANITE_265
 10
-81.2429
 20
-2.2175
 30
0
 70
     0
  0
SEQEND
  0
POLYLINE
  8
MACK_GRANITE_265
  6
CONTINUOUS
 62
     7
 66
     1
 40
0.0139
 41
0.0139
  0
VERTEX
  8
MACK_GRANITE_265
 10
-30.9925
 20
34.9825
 30
0
 70
     0
  0
VERTEX
  8
MACK_GRANITE_265
 10
-30.9925
 20
5.9825
 30
0
 70
     0
  0
SEQEND
  0
POLYLINE
  8
MACK_GRANITE_265
  6
CONTINUOUS
 62
     7
 66
     1
 40
0.0139
 41
0.0139
  0
VERTEX
  8
MACK_GRANITE_265
 10
-30.9925
 20
5.9825
 30
0
 70
     0
  0
VERTEX
  8
MACK_GRANITE_265
 10
-64.9925
 20
5.9825
 30
0
 70
     0
  0
SEQEND
  0
POLYLINE
  8
MACK_GRANITE_265
  6
CONTINUOUS
 62
     7
 66
     1
 40
0.0139
 41
0.0139
  0
VERTEX
  8
MACK_GRANITE_265
 10
-30.3776
 20
5.2325
 30
0
 70
     0
  0
VERTEX
  8
MACK_GRANITE_265
 10
-65.7425
 20
5.2325
 30
0
 70
     0
  0
SEQEND
  0
POLYLINE
  8
MACK_GRANITE_265
  6
CONTINUOUS
 62
     7
 66
     1
 40
0.0139
 41
0.0139
  0
VERTEX
  8
MACK_GRANITE_265
 10
-64.9925
 20
59.9825
 30
0
 70
     0
  0
VERTEX
  8
MACK_GRANITE_265
 10
-47.9925
 20
59.9825
 30
0
 70
     0
  0
SEQEND
  0
POLYLINE
  8
MACK_GRANITE_265
  6
CONTINUOUS
 62
     7
 66
     1
 40
0.0139
 41
0.0139
  0
VERTEX
  8
MACK_GRANITE_265
 10
-46.9925
 20
59.9825
 30
0
 70
     0
  0
VERTEX
  8
MACK_GRANITE_265
 10
-36.9925
 20
59.9825
 30
0
 70
     0
  0
SEQEND
  0
POLYLINE
  8
MACK_GRANITE_265
  6
CONTINUOUS
 62
     7
 66
     1
 40
0.0139
 41
0.0139
  0
VERTEX
  8
MACK_GRANITE_265
 10
-36.9925
 20
59.9825
 30
0
 70
     0
  0
VERTEX
  8
MACK_GRANITE_265
 10
-30.9925
 20
34.9825
 30
0
 70
     0
  0
SEQEND
  0
POLYLINE
  8
MACK_GRANITE_265
  6
CONTINUOUS
 62
     7
 66
     1
 40
0.0139
 41
0.0139
  0
VERTEX
  8
MACK_GRANITE_265
 10
-64.9925
 20
5.9825
 30
0
 70
     0
  0
VERTEX
  8
MACK_GRANITE_265
 10
-64.9925
 20
59.9825
 30
0
 70
     0
  0
SEQEND
  0
POLYLINE
  8
MACK_GRANITE_265
  6
CONTINUOUS
 62
     7
 66
     1
 40
0.0139
 41
0.0139
  0
VERTEX
  8
MACK_GRANITE_265
 10
-36.4012
 20
60.7325
 30
0
 70
     0
  0
VERTEX
  8
MACK_GRANITE_265
 10
-30.3776
 20
35.6341
 30
0
 70
     0
  0
SEQEND
  0
POLYLINE
  8
MACK_GRANITE_265
  6
CONTINUOUS
 62
     7
 66
     1
 40
0.0139
 41
0.0139
  0
VERTEX
  8
MACK_GRANITE_265
 10
-65.7425
 20
60.7325
 30
0
 70
     0
  0
VERTEX
  8
MACK_GRANITE_265
 10
-36.4012
 20
60.7325
 30
0
 70
     0
  0
SEQEND
  0
POLYLINE
  8
MACK_GRANITE_265
  6
CONTINUOUS
 62
     7
 66
     1
 40
0.0139
 41
0.0139
  0
VERTEX
  8
MACK_GRANITE_265
 10
-65.7425
 20
5.2325
 30
0
 70
     0
  0
VERTEX
  8
MACK_GRANITE_265
 10
-65.7425
 20
60.7325
 30
0
 70
     0
  0
SEQEND
  0
POLYLINE
  8
MACK_GRANITE_265
  6
CONTINUOUS
 62
     7
 66
     1
 40
0.0139
 41
0.0139
  0
VERTEX
  8
MACK_GRANITE_265
 10
-62.9925
 20
32.4825
 30
0
 70
     0
  0
VERTEX
  8
MACK_GRANITE_265
 10
-62.9925
 20
57.9825
 30
0
 70
     0
  0
SEQEND
  0
POLYLINE
  8
MACK_GRANITE_265
  6
CONTINUOUS
 62
     7
 66
     1
 40
0.0139
 41
0.0139
  0
VERTEX
  8
MACK_GRANITE_265
 10
-38.5693
 20
57.9825
 30
0
 70
     0
  0
VERTEX
  8
MACK_GRANITE_265
 10
-32.5693
 20
32.9825
 30
0
 70
     0
  0
SEQEND
  0
POLYLINE
  8
MACK_GRANITE_265
  6
CONTINUOUS
 62
     7
 66
     1
 40
0.0139
 41
0.0139
  0
VERTEX
  8
MACK_GRANITE_265
 10
-62.9925
 20
57.9825
 30
0
 70
     0
  0
VERTEX
  8
MACK_GRANITE_265
 10
-47.9925
 20
57.9825
 30
0
 70
     0
  0
SEQEND
  0
POLYLINE
  8
MACK_GRANITE_265
  6
CONTINUOUS
 62
     7
 66
     1
 40
0.0139
 41
0.0139
  0
VERTEX
  8
MACK_GRANITE_265
 10
-46.9925
 20
57.9825
 30
0
 70
     0
  0
VERTEX
  8
MACK_GRANITE_265
 10
-38.5693
 20
57.9825
 30
0
 70
     0
  0
SEQEND
  0
POLYLINE
  8
MACK_GRANITE_265
  6
CONTINUOUS
 62
     7
 66
     1
 40
0.0139
 41
0.0139
  0
VERTEX
  8
MACK_GRANITE_265
 10
-50.9925
 20
32.4825
 30
0
 70
     0
  0
VERTEX
  8
MACK_GRANITE_265
 10
-62.9925
 20
32.4825
 30
0
 70
     0
  0
SEQEND
  0
POLYLINE
  8
MACK_GRANITE_265
  6
CONTINUOUS
 62
     7
 66
     1
 40
0.0139
 41
0.0139
  0
VERTEX
  8
MACK_GRANITE_265
 10
-42.5693
 20
27.4825
 30
0
 70
     0
  0
VERTEX
  8
MACK_GRANITE_265
 10
-46.9925
 20
30.1081
 30
0
 70
     0
  0
SEQEND
  0
POLYLINE
  8
MACK_GRANITE_265
  6
CONTINUOUS
 62
     7
 66
     1
 40
0.0139
 41
0.0139
  0
VERTEX
  8
MACK_GRANITE_265
 10
-47.9925
 20
30.7017
 30
0
 70
     0
  0
VERTEX
  8
MACK_GRANITE_265
 10
-50.9925
 20
32.4825
 30
0
 70
     0
  0
SEQEND
  0
POLYLINE
  8
MACK_GRANITE_265
  6
CONTINUOUS
 62
     7
 66
     1
 40
0.0139
 41
0.0139
  0
VERTEX
  8
MACK_GRANITE_265
 10
-32.5693
 20
27.4825
 30
0
 70
     0
  0
VERTEX
  8
MACK_GRANITE_265
 10
-42.5693
 20
27.4825
 30
0
 70
     0
  0
SEQEND
  0
POLYLINE
  8
MACK_GRANITE_265
  6
CONTINUOUS
 62
     7
 66
     1
 40
0.0139
 41
0.0139
  0
VERTEX
  8
MACK_GRANITE_265
 10
-32.5693
 20
32.9825
 30
0
 70
     0
  0
VERTEX
  8
MACK_GRANITE_265
 10
-32.5693
 20
27.4825
 30
0
 70
     0
  0
SEQEND
  0
POLYLINE
  8
MACK_GRANITE_265
  6
CONTINUOUS
 62
     7
 66
     1
 40
0.0139
 41
0.0139
  0
VERTEX
  8
MACK_GRANITE_265
 10
-65.7425
 20
16.7575
 30
0
 70
     0
  0
VERTEX
  8
MACK_GRANITE_265
 10
-64.9929
 20
16.7575
 30
0
 70
     0
  0
SEQEND
  0
POLYLINE
  8
MACK_GRANITE_265
  6
CONTINUOUS
 62
     7
 66
     1
 40
0.0139
 41
0.0139
  0
VERTEX
  8
MACK_GRANITE_265
 10
-64.9929
 20
13.2575
 30
0
 70
     0
  0
VERTEX
  8
MACK_GRANITE_265
 10
-65.7425
 20
13.2575
 30
0
 70
     0
  0
SEQEND
  0
POLYLINE
  8
MACK_GRANITE_265
  6
CONTINUOUS
 62
     7
 66
     1
 40
0.0139
 41
0.0139
  0
VERTEX
  8
MACK_GRANITE_265
 10
-46.9925
 20
60.1857
 30
0
 70
     0
  0
VERTEX
  8
MACK_GRANITE_265
 10
-47.9925
 20
60.1857
 30
0
 70
     0
  0
SEQEND
  0
POLYLINE
  8
MACK_GRANITE_265
  6
CONTINUOUS
 62
     7
 66
     1
 40
0.0139
 41
0.0139
  0
VERTEX
  8
MACK_GRANITE_265
 10
-46.9925
 20
28.1857
 30
0
 70
     0
  0
VERTEX
  8
MACK_GRANITE_265
 10
-47.9925
 20
28.1857
 30
0
 70
     0
  0
SEQEND
  0
POLYLINE
  8
MACK_GRANITE_265
  6
CONTINUOUS
 62
     7
 66
     1
 40
0.0139
 41
0.0139
  0
VERTEX
  8
MACK_GRANITE_265
 10
-47.4768
 20
40.6908
 30
0
 70
     0
  0
VERTEX
  8
MACK_GRANITE_265
 10
-47.9925
 20
40.6908
 30
0
 70
     0
  0
SEQEND
  0
POLYLINE
  8
MACK_GRANITE_265
  6
CONTINUOUS
 62
     7
 66
     1
 40
0.0139
 41
0.0139
  0
VERTEX
  8
MACK_GRANITE_265
 10
-46.9925
 20
58.6857
 30
0
 70
     0
  0
VERTEX
  8
MACK_GRANITE_265
 10
-46.9925
 20
60.1857
 30
0
 70
     0
  0
SEQEND
  0
POLYLINE
  8
MACK_GRANITE_265
  6
CONTINUOUS
 62
     7
 66
     1
 40
0.0139
 41
0.0139
  0
VERTEX
  8
MACK_GRANITE_265
 10
-46.9925
 20
56.6908
 30
0
 70
     0
  0
VERTEX
  8
MACK_GRANITE_265
 10
-46.9925
 20
58.6857
 30
0
 70
     0
  0
SEQEND
  0
POLYLINE
  8
MACK_GRANITE_265
  6
CONTINUOUS
 62
     7
 66
     1
 40
0.0139
 41
0.0139
  0
VERTEX
  8
MACK_GRANITE_265
 10
-47.9925
 20
56.6908
 30
0
 70
     0
  0
VERTEX
  8
MACK_GRANITE_265
 10
-47.9925
 20
58.6857
 30
0
 70
     0
  0
SEQEND
  0
POLYLINE
  8
MACK_GRANITE_265
  6
CONTINUOUS
 62
     7
 66
     1
 40
0.0139
 41
0.0139
  0
VERTEX
  8
MACK_GRANITE_265
 10
-46.9925
 20
28.1857
 30
0
 70
     0
  0
VERTEX
  8
MACK_GRANITE_265
 10
-46.9925
 20
30.6002
 30
0
 70
     0
  0
SEQEND
  0
POLYLINE
  8
MACK_GRANITE_265
  6
CONTINUOUS
 62
     7
 66
     1
 40
0.0139
 41
0.0139
  0
VERTEX
  8
MACK_GRANITE_265
 10
-46.9925
 20
30.6002
 30
0
 70
     0
  0
VERTEX
  8
MACK_GRANITE_265
 10
-46.9925
 20
38.2763
 30
0
 70
     0
  0
SEQEND
  0
POLYLINE
  8
MACK_GRANITE_265
  6
CONTINUOUS
 62
     7
 66
     1
 40
0.0139
 41
0.0139
  0
VERTEX
  8
MACK_GRANITE_265
 10
-46.9925
 20
38.2763
 30
0
 70
     0
  0
VERTEX
  8
MACK_GRANITE_265
 10
-46.9925
 20
40.5727
 30
0
 70
     0
  0
SEQEND
  0
POLYLINE
  8
MACK_GRANITE_265
  6
CONTINUOUS
 62
     7
 66
     1
 40
0.0139
 41
0.0139
  0
VERTEX
  8
MACK_GRANITE_265
 10
-46.9925
 20
41.0628
 30
0
 70
     0
  0
VERTEX
  8
MACK_GRANITE_265
 10
-46.9925
 20
43.6908
 30
0
 70
     0
  0
SEQEND
  0
POLYLINE
  8
MACK_GRANITE_265
  6
CONTINUOUS
 62
     7
 66
     1
 40
0.0139
 41
0.0139
  0
VERTEX
  8
MACK_GRANITE_265
 10
-46.9925
 20
43.6908
 30
0
 70
     0
  0
VERTEX
  8
MACK_GRANITE_265
 10
-46.9925
 20
56.6908
 30
0
 70
     0
  0
SEQEND
  0
POLYLINE
  8
MACK_GRANITE_265
  6
CONTINUOUS
 62
     7
 66
     1
 40
0.0139
 41
0.0139
  0
VERTEX
  8
MACK_GRANITE_265
 10
-47.9925
 20
58.6857
 30
0
 70
     0
  0
VERTEX
  8
MACK_GRANITE_265
 10
-47.9925
 20
60.1857
 30
0
 70
     0
  0
SEQEND
  0
POLYLINE
  8
MACK_GRANITE_265
  6
CONTINUOUS
 62
     7
 66
     1
 40
0.0139
 41
0.0139
  0
VERTEX
  8
MACK_GRANITE_265
 10
-47.9925
 20
43.6908
 30
0
 70
     0
  0
VERTEX
  8
MACK_GRANITE_265
 10
-47.9925
 20
56.6908
 30
0
 70
     0
  0
SEQEND
  0
POLYLINE
  8
MACK_GRANITE_265
  6
CONTINUOUS
 62
     7
 66
     1
 40
0.0139
 41
0.0139
  0
VERTEX
  8
MACK_GRANITE_265
 10
-47.9925
 20
28.1857
 30
0
 70
     0
  0
VERTEX
  8
MACK_GRANITE_265
 10
-47.9925
 20
30.6002
 30
0
 70
     0
  0
SEQEND
  0
POLYLINE
  8
MACK_GRANITE_265
  6
CONTINUOUS
 62
     7
 66
     1
 40
0.0139
 41
0.0139
  0
VERTEX
  8
MACK_GRANITE_265
 10
-47.9925
 20
30.6002
 30
0
 70
     0
  0
VERTEX
  8
MACK_GRANITE_265
 10
-47.9925
 20
38.2763
 30
0
 70
     0
  0
SEQEND
  0
POLYLINE
  8
MACK_GRANITE_265
  6
CONTINUOUS
 62
     7
 66
     1
 40
0.0139
 41
0.0139
  0
VERTEX
  8
MACK_GRANITE_265
 10
-47.9925
 20
38.2763
 30
0
 70
     0
  0
VERTEX
  8
MACK_GRANITE_265
 10
-47.9925
 20
40.6908
 30
0
 70
     0
  0
SEQEND
  0
POLYLINE
  8
MACK_GRANITE_265
  6
CONTINUOUS
 62
     7
 66
     1
 40
0.0139
 41
0.0139
  0
VERTEX
  8
MACK_GRANITE_265
 10
-47.9925
 20
40.6908
 30
0
 70
     0
  0
VERTEX
  8
MACK_GRANITE_265
 10
-47.9925
 20
43.6908
 30
0
 70
     0
  0
SEQEND
  0
POLYLINE
  8
MACK_GRANITE_265
  6
CONTINUOUS
 62
     7
 66
     1
 40
0.0139
 41
0.0139
  0
VERTEX
  8
MACK_GRANITE_265
 10
-47.3405
 20
40.5727
 30
0
 70
     0
  0
VERTEX
  8
MACK_GRANITE_265
 10
-46.8873
 20
40.5727
 30
0
 70
     0
  0
SEQEND
  0
POLYLINE
  8
MACK_GRANITE_265
  6
CONTINUOUS
 62
     7
 66
     1
 40
0.0139
 41
0.0139
  0
VERTEX
  8
MACK_GRANITE_265
 10
-46.9925
 20
57.5727
 30
0
 70
     0
  0
VERTEX
  8
MACK_GRANITE_265
 10
-46.8873
 20
57.5727
 30
0
 70
     0
  0
SEQEND
  0
POLYLINE
  8
MACK_GRANITE_265
  6
CONTINUOUS
 62
     7
 66
     1
 40
0.0139
 41
0.0139
  0
VERTEX
  8
MACK_GRANITE_265
 10
-43.929
 20
57.5727
 30
0
 70
     0
  0
VERTEX
  8
MACK_GRANITE_265
 10
-46.8873
 20
57.5727
 30
0
 70
     0
  0
SEQEND
  0
POLYLINE
  8
MACK_GRANITE_265
  6
CONTINUOUS
 62
     7
 66
     1
 40
0.0139
 41
0.0139
  0
VERTEX
  8
MACK_GRANITE_265
 10
-47.0986
 20
41.2017
 30
0
 70
     0
  0
VERTEX
  8
MACK_GRANITE_265
 10
-47.0986
 20
41.0727
 30
0
 70
     0
  0
SEQEND
  0
POLYLINE
  8
MACK_GRANITE_265
  6
CONTINUOUS
 62
     7
 66
     1
 40
0.0139
 41
0.0139
  0
VERTEX
  8
MACK_GRANITE_265
 10
-43.7177
 20
41.0727
 30
0
 70
     0
  0
VERTEX
  8
MACK_GRANITE_265
 10
-43.7177
 20
57.0727
 30
0
 70
     0
  0
SEQEND
  0
POLYLINE
  8
MACK_GRANITE_265
  6
CONTINUOUS
 62
     7
 66
     1
 40
0.0139
 41
0.0139
  0
VERTEX
  8
MACK_GRANITE_265
 10
-46.8873
 20
40.5727
 30
0
 70
     0
  0
VERTEX
  8
MACK_GRANITE_265
 10
-43.929
 20
40.5727
 30
0
 70
     0
  0
SEQEND
  0
POLYLINE
  8
MACK_GRANITE_265
  6
CONTINUOUS
 62
     7
 66
     1
 40
0.0139
 41
0.0139
  0
VERTEX
  8
MACK_GRANITE_265
 10
-87.9925
 20
95.9825
 30
0
 70
     0
  0
VERTEX
  8
MACK_GRANITE_265
 10
-81.9925
 20
95.9825
 30
0
 70
     0
  0
SEQEND
  0
POLYLINE
  8
MACK_GRANITE_265
  6
CONTINUOUS
 62
     7
 66
     1
 40
0.0139
 41
0.0139
  0
VERTEX
  8
MACK_GRANITE_265
 10
-91.4925
 20
63.9825
 30
0
 70
     0
  0
VERTEX
  8
MACK_GRANITE_265
 10
-78.4925
 20
63.9825
 30
0
 70
     0
  0
SEQEND
  0
POLYLINE
  8
MACK_GRANITE_265
  6
CONTINUOUS
 62
     7
 66
     1
 40
0.0139
 41
0.0139
  0
VERTEX
  8
MACK_GRANITE_265
 10
-91.4925
 20
15.9825
 30
0
 70
     0
  0
VERTEX
  8
MACK_GRANITE_265
 10
-78.4925
 20
15.9825
 30
0
 70
     0
  0
SEQEND
  0
POLYLINE
  8
MACK_GRANITE_265
  6
CONTINUOUS
 62
     7
 66
     1
 40
0.0139
 41
0.0139
  0
VERTEX
  8
MACK_GRANITE_265
 10
-87.9925
 20
7.9825
 30
0
 70
     0
  0
VERTEX
  8
MACK_GRANITE_265
 10
-81.9925
 20
7.9825
 30
0
 70
     0
  0
SEQEND
  0
POLYLINE
  8
MACK_GRANITE_265
  6
CONTINUOUS
 62
     7
 66
     1
 40
0.0139
 41
0.0139
  0
VERTEX
  8
MACK_GRANITE_265
 10
-51.7429
 20
-11.7175
 30
0
 70
     0
  0
VERTEX
  8
MACK_GRANITE_265
 10
-34.7429
 20
-11.7175
 30
0
 70
     0
  0
SEQEND
  0
POLYLINE
  8
MACK_GRANITE_265
  6
CONTINUOUS
 62
     7
 66
     1
 40
0.0139
 41
0.0139
  0
VERTEX
  8
MACK_GRANITE_265
 10
-34.7429
 20
-11.7175
 30
0
 70
     0
  0
VERTEX
  8
MACK_GRANITE_265
 10
-34.7429
 20
-4.2175
 30
0
 70
     0
  0
SEQEND
  0
POLYLINE
  8
MACK_GRANITE_265
  6
CONTINUOUS
 62
     7
 66
     1
 40
0.0139
 41
0.0139
  0
VERTEX
  8
MACK_GRANITE_265
 10
-34.7429
 20
-2.2175
 30
0
 70
     0
  0
VERTEX
  8
MACK_GRANITE_265
 10
-34.7429
 20
-1.7175
 30
0
 70
     0
  0
SEQEND
  0
POLYLINE
  8
MACK_GRANITE_265
  6
CONTINUOUS
 62
     7
 66
     1
 40
0.0139
 41
0.0139
  0
VERTEX
  8
MACK_GRANITE_265
 10
-51.7429
 20
-1.7175
 30
0
 70
     0
  0
VERTEX
  8
MACK_GRANITE_265
 10
-51.7429
 20
-2.2175
 30
0
 70
     0
  0
SEQEND
  0
POLYLINE
  8
MACK_GRANITE_265
  6
CONTINUOUS
 62
     7
 66
     1
 40
0.0139
 41
0.0139
  0
VERTEX
  8
MACK_GRANITE_265
 10
-51.7429
 20
-4.2175
 30
0
 70
     0
  0
VERTEX
  8
MACK_GRANITE_265
 10
-51.7429
 20
-11.7175
 30
0
 70
     0
  0
SEQEND
  0
POLYLINE
  8
MACK_GRANITE_265
  6
CONTINUOUS
 62
     7
 66
     1
 40
0.0139
 41
0.0139
  0
VERTEX
  8
MACK_GRANITE_265
 10
-34.7429
 20
-1.7175
 30
0
 70
     0
  0
VERTEX
  8
MACK_GRANITE_265
 10
-51.7429
 20
-1.7175
 30
0
 70
     0
  0
SEQEND
  0
POLYLINE
  8
MACK_GRANITE_265
  6
CONTINUOUS
 62
     7
 66
     1
 40
0.0139
 41
0.0139
  0
VERTEX
  8
MACK_GRANITE_265
 10
31.5071
 20
-10.7175
 30
0
 70
     0
  0
VERTEX
  8
MACK_GRANITE_265
 10
29.0071
 20
-10.7175
 30
0
 70
     0
  0
SEQEND
  0
POLYLINE
  8
MACK_GRANITE_265
  6
CONTINUOUS
 62
     7
 66
     1
 40
0.0139
 41
0.0139
  0
VERTEX
  8
MACK_GRANITE_265
 10
31.5071
 20
-21.2175
 30
0
 70
     0
  0
VERTEX
  8
MACK_GRANITE_265
 10
29.0071
 20
-21.2175
 30
0
 70
     0
  0
SEQEND
  0
POLYLINE
  8
MACK_GRANITE_265
  6
CONTINUOUS
 62
     7
 66
     1
 40
0.0139
 41
0.0139
  0
VERTEX
  8
MACK_GRANITE_265
 10
29.0071
 20
-21.2175
 30
0
 70
     0
  0
VERTEX
  8
MACK_GRANITE_265
 10
29.0071
 20
-10.7175
 30
0
 70
     0
  0
SEQEND
  0
POLYLINE
  8
MACK_GRANITE_265
  6
CONTINUOUS
 62
     7
 66
     1
 40
0.0139
 41
0.0139
  0
VERTEX
  8
MACK_GRANITE_265
 10
31.5071
 20
-21.2175
 30
0
 70
     0
  0
VERTEX
  8
MACK_GRANITE_265
 10
35.0071
 20
-21.2175
 30
0
 70
     0
  0
SEQEND
  0
POLYLINE
  8
MACK_GRANITE_265
  6
CONTINUOUS
 62
     7
 66
     1
 40
0.0139
 41
0.0139
  0
VERTEX
  8
MACK_GRANITE_265
 10
31.5071
 20
-10.7175
 30
0
 70
     0
  0
VERTEX
  8
MACK_GRANITE_265
 10
35.0071
 20
-10.7175
 30
0
 70
     0
  0
SEQEND
  0
POLYLINE
  8
MACK_GRANITE_265
  6
CONTINUOUS
 62
     7
 66
     1
 40
0.0139
 41
0.0139
  0
VERTEX
  8
MACK_GRANITE_265
 10
31.5071
 20
-21.2175
 30
0
 70
     0
  0
VERTEX
  8
MACK_GRANITE_265
 10
31.5071
 20
-10.7175
 30
0
 70
     0
  0
SEQEND
  0
POLYLINE
  8
MACK_GRANITE_265
  6
CONTINUOUS
 62
     7
 66
     1
 40
0.0139
 41
0.0139
  0
VERTEX
  8
MACK_GRANITE_265
 10
-29.8233
 20
35.7821
 30
0
 70
     0
  0
VERTEX
  8
MACK_GRANITE_265
 10
-29.8004
 20
35.7828
 30
0
 70
     0
  0
VERTEX
  8
MACK_GRANITE_265
 10
-29.7778
 20
35.7798
 30
0
 70
     0
  0
VERTEX
  8
MACK_GRANITE_265
 10
-29.7666
 20
35.7772
 30
0
 70
     0
  0
VERTEX
  8
MACK_GRANITE_265
 10
-29.7556
 20
35.7738
 30
0
 70
     0
  0
VERTEX
  8
MACK_GRANITE_265
 10
-29.7448
 20
35.7699
 30
0
 70
     0
  0
VERTEX
  8
MACK_GRANITE_265
 10
-29.7343
 20
35.7654
 30
0
 70
     0
  0
VERTEX
  8
MACK_GRANITE_265
 10
-29.7139
 20
35.7551
 30
0
 70
     0
  0
VERTEX
  8
MACK_GRANITE_265
 10
-29.6942
 20
35.7432
 30
0
 70
     0
  0
VERTEX
  8
MACK_GRANITE_265
 10
-29.6753
 20
35.7302
 30
0
 70
     0
  0
VERTEX
  8
MACK_GRANITE_265
 10
-29.6571
 20
35.7163
 30
0
 70
     0
  0
VERTEX
  8
MACK_GRANITE_265
 10
-29.6227
 20
35.6864
 30
0
 70
     0
  0
VERTEX
  8
MACK_GRANITE_265
 10
-29.5903
 20
35.6544
 30
0
 70
     0
  0
VERTEX
  8
MACK_GRANITE_265
 10
-29.5593
 20
35.6207
 30
0
 70
     0
  0
VERTEX
  8
MACK_GRANITE_265
 10
-29.5296
 20
35.5858
 30
0
 70
     0
  0
VERTEX
  8
MACK_GRANITE_265
 10
-29.4735
 20
35.5135
 30
0
 70
     0
  0
VERTEX
  8
MACK_GRANITE_265
 10
-29.421
 20
35.4389
 30
0
 70
     0
  0
VERTEX
  8
MACK_GRANITE_265
 10
-29.371
 20
35.3628
 30
0
 70
     0
  0
VERTEX
  8
MACK_GRANITE_265
 10
-29.3232
 20
35.2853
 30
0
 70
     0
  0
VERTEX
  8
MACK_GRANITE_265
 10
-29.2321
 20
35.1275
 30
0
 70
     0
  0
VERTEX
  8
MACK_GRANITE_265
 10
-29.1458
 20
34.9667
 30
0
 70
     0
  0
VERTEX
  8
MACK_GRANITE_265
 10
-29.0631
 20
34.8037
 30
0
 70
     0
  0
VERTEX
  8
MACK_GRANITE_265
 10
-28.9834
 20
34.6392
 30
0
 70
     0
  0
VERTEX
  8
MACK_GRANITE_265
 10
-28.9061
 20
34.4737
 30
0
 70
     0
  0
VERTEX
  8
MACK_GRANITE_265
 10
-28.8309
 20
34.3074
 30
0
 70
     0
  0
VERTEX
  8
MACK_GRANITE_265
 10
-28.7574
 20
34.1403
 30
0
 70
     0
  0
VERTEX
  8
MACK_GRANITE_265
 10
-28.6854
 20
33.9726
 30
0
 70
     0
  0
VERTEX
  8
MACK_GRANITE_265
 10
-28.5452
 20
33.6356
 30
0
 70
     0
  0
VERTEX
  8
MACK_GRANITE_265
 10
-28.4092
 20
33.2969
 30
0
 70
     0
  0
VERTEX
  8
MACK_GRANITE_265
 10
-28.2766
 20
32.9567
 30
0
 70
     0
  0
VERTEX
  8
MACK_GRANITE_265
 10
-28.1469
 20
32.6154
 30
0
 70
     0
  0
VERTEX
  8
MACK_GRANITE_265
 10
-28.0196
 20
32.2731
 30
0
 70
     0
  0
VERTEX
  8
MACK_GRANITE_265
 10
-27.8944
 20
31.9299
 30
0
 70
     0
  0
VERTEX
  8
MACK_GRANITE_265
 10
-27.6494
 20
31.2414
 30
0
 70
     0
  0
VERTEX
  8
MACK_GRANITE_265
 10
-27.4104
 20
30.5505
 30
0
 70
     0
  0
SEQEND
  0
POLYLINE
  8
MACK_GRANITE_265
  6
CONTINUOUS
 62
     7
 66
     1
 40
0.0139
 41
0.0139
  0
VERTEX
  8
MACK_GRANITE_265
 10
-27.4104
 20
30.5505
 30
0
 70
     0
  0
VERTEX
  8
MACK_GRANITE_265
 10
-27.4523
 20
30.6861
 30
0
 70
     0
  0
VERTEX
  8
MACK_GRANITE_265
 10
-27.4859
 20
30.8229
 30
0
 70
     0
  0
VERTEX
  8
MACK_GRANITE_265
 10
-27.5112
 20
30.9611
 30
0
 70
     0
  0
VERTEX
  8
MACK_GRANITE_265
 10
-27.5286
 20
31.1005
 30
0
 70
     0
  0
VERTEX
  8
MACK_GRANITE_265
 10
-27.5344
 20
31.1706
 30
0
 70
     0
  0
VERTEX
  8
MACK_GRANITE_265
 10
-27.5385
 20
31.241
 30
0
 70
     0
  0
VERTEX
  8
MACK_GRANITE_265
 10
-27.5409
 20
31.3114
 30
0
 70
     0
  0
VERTEX
  8
MACK_GRANITE_265
 10
-27.5416
 20
31.3815
 30
0
 70
     0
  0
VERTEX
  8
MACK_GRANITE_265
 10
-27.5388
 20
31.5203
 30
0
 70
     0
  0
VERTEX
  8
MACK_GRANITE_265
 10
-27.5311
 20
31.6577
 30
0
 70
     0
  0
VERTEX
  8
MACK_GRANITE_265
 10
-27.5193
 20
31.7937
 30
0
 70
     0
  0
VERTEX
  8
MACK_GRANITE_265
 10
-27.5041
 20
31.9284
 30
0
 70
     0
  0
VERTEX
  8
MACK_GRANITE_265
 10
-27.4863
 20
32.062
 30
0
 70
     0
  0
VERTEX
  8
MACK_GRANITE_265
 10
-27.4663
 20
32.1945
 30
0
 70
     0
  0
VERTEX
  8
MACK_GRANITE_265
 10
-27.4556
 20
32.2604
 30
0
 70
     0
  0
VERTEX
  8
MACK_GRANITE_265
 10
-27.4446
 20
32.326
 30
0
 70
     0
  0
VERTEX
  8
MACK_GRANITE_265
 10
-27.4333
 20
32.3912
 30
0
 70
     0
  0
VERTEX
  8
MACK_GRANITE_265
 10
-27.4218
 20
32.4559
 30
0
 70
     0
  0
VERTEX
  8
MACK_GRANITE_265
 10
-27.3983
 20
32.5839
 30
0
 70
     0
  0
VERTEX
  8
MACK_GRANITE_265
 10
-27.3744
 20
32.7103
 30
0
 70
     0
  0
VERTEX
  8
MACK_GRANITE_265
 10
-27.3264
 20
32.9582
 30
0
 70
     0
  0
VERTEX
  8
MACK_GRANITE_265
 10
-27.2795
 20
33.2
 30
0
 70
     0
  0
VERTEX
  8
MACK_GRANITE_265
 10
-27.2353
 20
33.4359
 30
0
 70
     0
  0
VERTEX
  8
MACK_GRANITE_265
 10
-27.1951
 20
33.666
 30
0
 70
     0
  0
VERTEX
  8
MACK_GRANITE_265
 10
-27.1768
 20
33.7788
 30
0
 70
     0
  0
VERTEX
  8
MACK_GRANITE_265
 10
-27.16
 20
33.8902
 30
0
 70
     0
  0
VERTEX
  8
MACK_GRANITE_265
 10
-27.1522
 20
33.9454
 30
0
 70
     0
  0
VERTEX
  8
MACK_GRANITE_265
 10
-27.1448
 20
34.0002
 30
0
 70
     0
  0
VERTEX
  8
MACK_GRANITE_265
 10
-27.1379
 20
34.0545
 30
0
 70
     0
  0
VERTEX
  8
MACK_GRANITE_265
 10
-27.1314
 20
34.1085
 30
0
 70
     0
  0
VERTEX
  8
MACK_GRANITE_265
 10
-27.1107
 20
34.3184
 30
0
 70
     0
  0
VERTEX
  8
MACK_GRANITE_265
 10
-27.0992
 20
34.519
 30
0
 70
     0
  0
SEQEND
  0
POLYLINE
  8
MACK_GRANITE_265
  6
CONTINUOUS
 62
     7
 66
     1
 40
0.0139
 41
0.0139
  0
VERTEX
  8
MACK_GRANITE_265
 10
-36.4882
 20
68.659
 30
0
 70
     0
  0
VERTEX
  8
MACK_GRANITE_265
 10
-34.4779
 20
68.4284
 30
0
 70
     0
  0
VERTEX
  8
MACK_GRANITE_265
 10
-32.4698
 20
68.1799
 30
0
 70
     0
  0
SEQEND
  0
POLYLINE
  8
MACK_GRANITE_265
  6
CONTINUOUS
 62
     7
 66
     1
 40
0.0139
 41
0.0139
  0
VERTEX
  8
MACK_GRANITE_265
 10
-10.0882
 20
-21.2175
 30
0
 70
     0
  0
VERTEX
  8
MACK_GRANITE_265
 10
-10.0848
 20
-21.4764
 30
0
 70
     0
  0
VERTEX
  8
MACK_GRANITE_265
 10
-10.0749
 20
-21.7337
 30
0
 70
     0
  0
VERTEX
  8
MACK_GRANITE_265
 10
-10.0585
 20
-21.9895
 30
0
 70
     0
  0
VERTEX
  8
MACK_GRANITE_265
 10
-10.0356
 20
-22.2435
 30
0
 70
     0
  0
VERTEX
  8
MACK_GRANITE_265
 10
-10.0064
 20
-22.4958
 30
0
 70
     0
  0
VERTEX
  8
MACK_GRANITE_265
 10
-9.9709
 20
-22.7463
 30
0
 70
     0
  0
VERTEX
  8
MACK_GRANITE_265
 10
-9.9293
 20
-22.9948
 30
0
 70
     0
  0
VERTEX
  8
MACK_GRANITE_265
 10
-9.8815
 20
-23.2413
 30
0
 70
     0
  0
VERTEX
  8
MACK_GRANITE_265
 10
-9.8277
 20
-23.4858
 30
0
 70
     0
  0
VERTEX
  8
MACK_GRANITE_265
 10
-9.768
 20
-23.728
 30
0
 70
     0
  0
VERTEX
  8
MACK_GRANITE_265
 10
-9.7024
 20
-23.968
 30
0
 70
     0
  0
VERTEX
  8
MACK_GRANITE_265
 10
-9.6311
 20
-24.2057
 30
0
 70
     0
  0
VERTEX
  8
MACK_GRANITE_265
 10
-9.554
 20
-24.4409
 30
0
 70
     0
  0
VERTEX
  8
MACK_GRANITE_265
 10
-9.4714
 20
-24.6736
 30
0
 70
     0
  0
VERTEX
  8
MACK_GRANITE_265
 10
-9.3832
 20
-24.9038
 30
0
 70
     0
  0
VERTEX
  8
MACK_GRANITE_265
 10
-9.2896
 20
-25.1313
 30
0
 70
     0
  0
VERTEX
  8
MACK_GRANITE_265
 10
-9.1906
 20
-25.356
 30
0
 70
     0
  0
VERTEX
  8
MACK_GRANITE_265
 10
-9.0863
 20
-25.5779
 30
0
 70
     0
  0
VERTEX
  8
MACK_GRANITE_265
 10
-8.9768
 20
-25.797
 30
0
 70
     0
  0
VERTEX
  8
MACK_GRANITE_265
 10
-8.8622
 20
-26.013
 30
0
 70
     0
  0
VERTEX
  8
MACK_GRANITE_265
 10
-8.6179
 20
-26.4357
 30
0
 70
     0
  0
VERTEX
  8
MACK_GRANITE_265
 10
-8.3542
 20
-26.8455
 30
0
 70
     0
  0
VERTEX
  8
MACK_GRANITE_265
 10
-8.0716
 20
-27.2416
 30
0
 70
     0
  0
VERTEX
  8
MACK_GRANITE_265
 10
-7.7708
 20
-27.6235
 30
0
 70
     0
  0
VERTEX
  8
MACK_GRANITE_265
 10
-7.4525
 20
-27.9905
 30
0
 70
     0
  0
VERTEX
  8
MACK_GRANITE_265
 10
-7.1173
 20
-28.3419
 30
0
 70
     0
  0
VERTEX
  8
MACK_GRANITE_265
 10
-6.7659
 20
-28.6771
 30
0
 70
     0
  0
VERTEX
  8
MACK_GRANITE_265
 10
-6.3989
 20
-28.9955
 30
0
 70
     0
  0
VERTEX
  8
MACK_GRANITE_265
 10
-6.017
 20
-29.2962
 30
0
 70
     0
  0
VERTEX
  8
MACK_GRANITE_265
 10
-5.6208
 20
-29.5788
 30
0
 70
     0
  0
VERTEX
  8
MACK_GRANITE_265
 10
-5.211
 20
-29.8426
 30
0
 70
     0
  0
VERTEX
  8
MACK_GRANITE_265
 10
-4.7883
 20
-30.0868
 30
0
 70
     0
  0
VERTEX
  8
MACK_GRANITE_265
 10
-4.5723
 20
-30.2014
 30
0
 70
     0
  0
VERTEX
  8
MACK_GRANITE_265
 10
-4.3533
 20
-30.3109
 30
0
 70
     0
  0
VERTEX
  8
MACK_GRANITE_265
 10
-4.1314
 20
-30.4152
 30
0
 70
     0
  0
VERTEX
  8
MACK_GRANITE_265
 10
-3.9066
 20
-30.5142
 30
0
 70
     0
  0
VERTEX
  8
MACK_GRANITE_265
 10
-3.6791
 20
-30.6078
 30
0
 70
     0
  0
VERTEX
  8
MACK_GRANITE_265
 10
-3.449
 20
-30.696
 30
0
 70
     0
  0
VERTEX
  8
MACK_GRANITE_265
 10
-3.2163
 20
-30.7787
 30
0
 70
     0
  0
VERTEX
  8
MACK_GRANITE_265
 10
-2.981
 20
-30.8557
 30
0
 70
     0
  0
VERTEX
  8
MACK_GRANITE_265
 10
-2.7434
 20
-30.9271
 30
0
 70
     0
  0
VERTEX
  8
MACK_GRANITE_265
 10
-2.5034
 20
-30.9927
 30
0
 70
     0
  0
VERTEX
  8
MACK_GRANITE_265
 10
-2.2611
 20
-31.0524
 30
0
 70
     0
  0
VERTEX
  8
MACK_GRANITE_265
 10
-2.0167
 20
-31.1062
 30
0
 70
     0
  0
VERTEX
  8
MACK_GRANITE_265
 10
-1.7702
 20
-31.1539
 30
0
 70
     0
  0
VERTEX
  8
MACK_GRANITE_265
 10
-1.5216
 20
-31.1956
 30
0
 70
     0
  0
VERTEX
  8
MACK_GRANITE_265
 10
-1.2712
 20
-31.2311
 30
0
 70
     0
  0
VERTEX
  8
MACK_GRANITE_265
 10
-1.0189
 20
-31.2603
 30
0
 70
     0
  0
VERTEX
  8
MACK_GRANITE_265
 10
-0.7648
 20
-31.2831
 30
0
 70
     0
  0
VERTEX
  8
MACK_GRANITE_265
 10
-0.5091
 20
-31.2996
 30
0
 70
     0
  0
VERTEX
  8
MACK_GRANITE_265
 10
-0.2517
 20
-31.3095
 30
0
 70
     0
  0
VERTEX
  8
MACK_GRANITE_265
 10
0.0071
 20
-31.3128
 30
0
 70
     0
  0
VERTEX
  8
MACK_GRANITE_265
 10
0.266
 20
-31.3095
 30
0
 70
     0
  0
VERTEX
  8
MACK_GRANITE_265
 10
0.5234
 20
-31.2996
 30
0
 70
     0
  0
VERTEX
  8
MACK_GRANITE_265
 10
0.7791
 20
-31.2831
 30
0
 70
     0
  0
VERTEX
  8
MACK_GRANITE_265
 10
1.0332
 20
-31.2603
 30
0
 70
     0
  0
VERTEX
  8
MACK_GRANITE_265
 10
1.2855
 20
-31.2311
 30
0
 70
     0
  0
VERTEX
  8
MACK_GRANITE_265
 10
1.5359
 20
-31.1956
 30
0
 70
     0
  0
VERTEX
  8
MACK_GRANITE_265
 10
1.7845
 20
-31.1539
 30
0
 70
     0
  0
VERTEX
  8
MACK_GRANITE_265
 10
2.031
 20
-31.1062
 30
0
 70
     0
  0
VERTEX
  8
MACK_GRANITE_265
 10
2.2754
 20
-31.0524
 30
0
 70
     0
  0
VERTEX
  8
MACK_GRANITE_265
 10
2.5177
 20
-30.9927
 30
0
 70
     0
  0
VERTEX
  8
MACK_GRANITE_265
 10
2.7576
 20
-30.9271
 30
0
 70
     0
  0
VERTEX
  8
MACK_GRANITE_265
 10
2.9953
 20
-30.8557
 30
0
 70
     0
  0
VERTEX
  8
MACK_GRANITE_265
 10
3.2305
 20
-30.7787
 30
0
 70
     0
  0
VERTEX
  8
MACK_GRANITE_265
 10
3.4633
 20
-30.696
 30
0
 70
     0
  0
VERTEX
  8
MACK_GRANITE_265
 10
3.6934
 20
-30.6078
 30
0
 70
     0
  0
VERTEX
  8
MACK_GRANITE_265
 10
3.9209
 20
-30.5142
 30
0
 70
     0
  0
VERTEX
  8
MACK_GRANITE_265
 10
4.1457
 20
-30.4152
 30
0
 70
     0
  0
VERTEX
  8
MACK_GRANITE_265
 10
4.3676
 20
-30.3109
 30
0
 70
     0
  0
VERTEX
  8
MACK_GRANITE_265
 10
4.5866
 20
-30.2014
 30
0
 70
     0
  0
VERTEX
  8
MACK_GRANITE_265
 10
4.8026
 20
-30.0868
 30
0
 70
     0
  0
VERTEX
  8
MACK_GRANITE_265
 10
5.2253
 20
-29.8426
 30
0
 70
     0
  0
VERTEX
  8
MACK_GRANITE_265
 10
5.6351
 20
-29.5788
 30
0
 70
     0
  0
VERTEX
  8
MACK_GRANITE_265
 10
6.0313
 20
-29.2962
 30
0
 70
     0
  0
VERTEX
  8
MACK_GRANITE_265
 10
6.4132
 20
-28.9955
 30
0
 70
     0
  0
VERTEX
  8
MACK_GRANITE_265
 10
6.7802
 20
-28.6771
 30
0
 70
     0
  0
VERTEX
  8
MACK_GRANITE_265
 10
7.1316
 20
-28.3419
 30
0
 70
     0
  0
VERTEX
  8
MACK_GRANITE_265
 10
7.4668
 20
-27.9905
 30
0
 70
     0
  0
VERTEX
  8
MACK_GRANITE_265
 10
7.7851
 20
-27.6235
 30
0
 70
     0
  0
VERTEX
  8
MACK_GRANITE_265
 10
8.0859
 20
-27.2416
 30
0
 70
     0
  0
VERTEX
  8
MACK_GRANITE_265
 10
8.3685
 20
-26.8455
 30
0
 70
     0
  0
VERTEX
  8
MACK_GRANITE_265
 10
8.6322
 20
-26.4357
 30
0
 70
     0
  0
VERTEX
  8
MACK_GRANITE_265
 10
8.8765
 20
-26.013
 30
0
 70
     0
  0
VERTEX
  8
MACK_GRANITE_265
 10
8.9911
 20
-25.797
 30
0
 70
     0
  0
VERTEX
  8
MACK_GRANITE_265
 10
9.1006
 20
-25.5779
 30
0
 70
     0
  0
VERTEX
  8
MACK_GRANITE_265
 10
9.2049
 20
-25.356
 30
0
 70
     0
  0
VERTEX
  8
MACK_GRANITE_265
 10
9.3039
 20
-25.1313
 30
0
 70
     0
  0
VERTEX
  8
MACK_GRANITE_265
 10
9.3975
 20
-24.9038
 30
0
 70
     0
  0
VERTEX
  8
MACK_GRANITE_265
 10
9.4857
 20
-24.6736
 30
0
 70
     0
  0
VERTEX
  8
MACK_GRANITE_265
 10
9.5683
 20
-24.4409
 30
0
 70
     0
  0
VERTEX
  8
MACK_GRANITE_265
 10
9.6454
 20
-24.2057
 30
0
 70
     0
  0
VERTEX
  8
MACK_GRANITE_265
 10
9.7167
 20
-23.968
 30
0
 70
     0
  0
VERTEX
  8
MACK_GRANITE_265
 10
9.7823
 20
-23.728
 30
0
 70
     0
  0
VERTEX
  8
MACK_GRANITE_265
 10
9.842
 20
-23.4858
 30
0
 70
     0
  0
VERTEX
  8
MACK_GRANITE_265
 10
9.8958
 20
-23.2413
 30
0
 70
     0
  0
VERTEX
  8
MACK_GRANITE_265
 10
9.9436
 20
-22.9948
 30
0
 70
     0
  0
VERTEX
  8
MACK_GRANITE_265
 10
9.9852
 20
-22.7463
 30
0
 70
     0
  0
VERTEX
  8
MACK_GRANITE_265
 10
10.0207
 20
-22.4958
 30
0
 70
     0
  0
VERTEX
  8
MACK_GRANITE_265
 10
10.0499
 20
-22.2435
 30
0
 70
     0
  0
VERTEX
  8
MACK_GRANITE_265
 10
10.0728
 20
-21.9895
 30
0
 70
     0
  0
VERTEX
  8
MACK_GRANITE_265
 10
10.0892
 20
-21.7337
 30
0
 70
     0
  0
VERTEX
  8
MACK_GRANITE_265
 10
10.0991
 20
-21.4764
 30
0
 70
     0
  0
VERTEX
  8
MACK_GRANITE_265
 10
10.1024
 20
-21.2175
 30
0
 70
     0
  0
VERTEX
  8
MACK_GRANITE_265
 10
10.0991
 20
-20.9586
 30
0
 70
     0
  0
VERTEX
  8
MACK_GRANITE_265
 10
10.0892
 20
-20.7013
 30
0
 70
     0
  0
VERTEX
  8
MACK_GRANITE_265
 10
10.0728
 20
-20.4455
 30
0
 70
     0
  0
VERTEX
  8
MACK_GRANITE_265
 10
10.0499
 20
-20.1915
 30
0
 70
     0
  0
VERTEX
  8
MACK_GRANITE_265
 10
10.0207
 20
-19.9392
 30
0
 70
     0
  0
VERTEX
  8
MACK_GRANITE_265
 10
9.9852
 20
-19.6887
 30
0
 70
     0
  0
VERTEX
  8
MACK_GRANITE_265
 10
9.9436
 20
-19.4402
 30
0
 70
     0
  0
VERTEX
  8
MACK_GRANITE_265
 10
9.8958
 20
-19.1937
 30
0
 70
     0
  0
VERTEX
  8
MACK_GRANITE_265
 10
9.842
 20
-18.9493
 30
0
 70
     0
  0
VERTEX
  8
MACK_GRANITE_265
 10
9.7823
 20
-18.707
 30
0
 70
     0
  0
VERTEX
  8
MACK_GRANITE_265
 10
9.7167
 20
-18.467
 30
0
 70
     0
  0
VERTEX
  8
MACK_GRANITE_265
 10
9.6454
 20
-18.2293
 30
0
 70
     0
  0
VERTEX
  8
MACK_GRANITE_265
 10
9.5683
 20
-17.9941
 30
0
 70
     0
  0
VERTEX
  8
MACK_GRANITE_265
 10
9.4857
 20
-17.7614
 30
0
 70
     0
  0
VERTEX
  8
MACK_GRANITE_265
 10
9.3975
 20
-17.5312
 30
0
 70
     0
  0
VERTEX
  8
MACK_GRANITE_265
 10
9.3039
 20
-17.3037
 30
0
 70
     0
  0
VERTEX
  8
MACK_GRANITE_265
 10
9.2049
 20
-17.079
 30
0
 70
     0
  0
VERTEX
  8
MACK_GRANITE_265
 10
9.1006
 20
-16.8571
 30
0
 70
     0
  0
VERTEX
  8
MACK_GRANITE_265
 10
8.9911
 20
-16.6381
 30
0
 70
     0
  0
VERTEX
  8
MACK_GRANITE_265
 10
8.8765
 20
-16.422
 30
0
 70
     0
  0
VERTEX
  8
MACK_GRANITE_265
 10
8.6322
 20
-15.9993
 30
0
 70
     0
  0
VERTEX
  8
MACK_GRANITE_265
 10
8.3685
 20
-15.5895
 30
0
 70
     0
  0
VERTEX
  8
MACK_GRANITE_265
 10
8.0859
 20
-15.1934
 30
0
 70
     0
  0
VERTEX
  8
MACK_GRANITE_265
 10
7.7851
 20
-14.8115
 30
0
 70
     0
  0
VERTEX
  8
MACK_GRANITE_265
 10
7.4668
 20
-14.4445
 30
0
 70
     0
  0
VERTEX
  8
MACK_GRANITE_265
 10
7.1316
 20
-14.0931
 30
0
 70
     0
  0
VERTEX
  8
MACK_GRANITE_265
 10
6.7802
 20
-13.7579
 30
0
 70
     0
  0
VERTEX
  8
MACK_GRANITE_265
 10
6.4132
 20
-13.4395
 30
0
 70
     0
  0
VERTEX
  8
MACK_GRANITE_265
 10
6.0313
 20
-13.1388
 30
0
 70
     0
  0
VERTEX
  8
MACK_GRANITE_265
 10
5.6351
 20
-12.8562
 30
0
 70
     0
  0
VERTEX
  8
MACK_GRANITE_265
 10
5.2253
 20
-12.5924
 30
0
 70
     0
  0
VERTEX
  8
MACK_GRANITE_265
 10
4.8026
 20
-12.3482
 30
0
 70
     0
  0
VERTEX
  8
MACK_GRANITE_265
 10
4.5866
 20
-12.2336
 30
0
 70
     0
  0
VERTEX
  8
MACK_GRANITE_265
 10
4.3676
 20
-12.1241
 30
0
 70
     0
  0
VERTEX
  8
MACK_GRANITE_265
 10
4.1457
 20
-12.0198
 30
0
 70
     0
  0
VERTEX
  8
MACK_GRANITE_265
 10
3.9209
 20
-11.9208
 30
0
 70
     0
  0
VERTEX
  8
MACK_GRANITE_265
 10
3.6934
 20
-11.8272
 30
0
 70
     0
  0
VERTEX
  8
MACK_GRANITE_265
 10
3.4633
 20
-11.739
 30
0
 70
     0
  0
VERTEX
  8
MACK_GRANITE_265
 10
3.2305
 20
-11.6563
 30
0
 70
     0
  0
VERTEX
  8
MACK_GRANITE_265
 10
2.9953
 20
-11.5793
 30
0
 70
     0
  0
VERTEX
  8
MACK_GRANITE_265
 10
2.7576
 20
-11.5079
 30
0
 70
     0
  0
VERTEX
  8
MACK_GRANITE_265
 10
2.5177
 20
-11.4423
 30
0
 70
     0
  0
VERTEX
  8
MACK_GRANITE_265
 10
2.2754
 20
-11.3826
 30
0
 70
     0
  0
VERTEX
  8
MACK_GRANITE_265
 10
2.031
 20
-11.3288
 30
0
 70
     0
  0
VERTEX
  8
MACK_GRANITE_265
 10
1.7845
 20
-11.2811
 30
0
 70
     0
  0
VERTEX
  8
MACK_GRANITE_265
 10
1.5359
 20
-11.2394
 30
0
 70
     0
  0
VERTEX
  8
MACK_GRANITE_265
 10
1.2855
 20
-11.2039
 30
0
 70
     0
  0
VERTEX
  8
MACK_GRANITE_265
 10
1.0332
 20
-11.1747
 30
0
 70
     0
  0
VERTEX
  8
MACK_GRANITE_265
 10
0.7791
 20
-11.1519
 30
0
 70
     0
  0
VERTEX
  8
MACK_GRANITE_265
 10
0.5234
 20
-11.1354
 30
0
 70
     0
  0
VERTEX
  8
MACK_GRANITE_265
 10
0.266
 20
-11.1255
 30
0
 70
     0
  0
VERTEX
  8
MACK_GRANITE_265
 10
0.0071
 20
-11.1222
 30
0
 70
     0
  0
VERTEX
  8
MACK_GRANITE_265
 10
-0.2517
 20
-11.1255
 30
0
 70
     0
  0
VERTEX
  8
MACK_GRANITE_265
 10
-0.5091
 20
-11.1354
 30
0
 70
     0
  0
VERTEX
  8
MACK_GRANITE_265
 10
-0.7648
 20
-11.1519
 30
0
 70
     0
  0
VERTEX
  8
MACK_GRANITE_265
 10
-1.0189
 20
-11.1747
 30
0
 70
     0
  0
VERTEX
  8
MACK_GRANITE_265
 10
-1.2712
 20
-11.2039
 30
0
 70
     0
  0
VERTEX
  8
MACK_GRANITE_265
 10
-1.5216
 20
-11.2394
 30
0
 70
     0
  0
VERTEX
  8
MACK_GRANITE_265
 10
-1.7702
 20
-11.2811
 30
0
 70
     0
  0
VERTEX
  8
MACK_GRANITE_265
 10
-2.0167
 20
-11.3288
 30
0
 70
     0
  0
VERTEX
  8
MACK_GRANITE_265
 10
-2.2611
 20
-11.3826
 30
0
 70
     0
  0
VERTEX
  8
MACK_GRANITE_265
 10
-2.5034
 20
-11.4423
 30
0
 70
     0
  0
VERTEX
  8
MACK_GRANITE_265
 10
-2.7434
 20
-11.5079
 30
0
 70
     0
  0
VERTEX
  8
MACK_GRANITE_265
 10
-2.981
 20
-11.5793
 30
0
 70
     0
  0
VERTEX
  8
MACK_GRANITE_265
 10
-3.2163
 20
-11.6563
 30
0
 70
     0
  0
VERTEX
  8
MACK_GRANITE_265
 10
-3.449
 20
-11.739
 30
0
 70
     0
  0
VERTEX
  8
MACK_GRANITE_265
 10
-3.6791
 20
-11.8272
 30
0
 70
     0
  0
VERTEX
  8
MACK_GRANITE_265
 10
-3.9066
 20
-11.9208
 30
0
 70
     0
  0
VERTEX
  8
MACK_GRANITE_265
 10
-4.1314
 20
-12.0198
 30
0
 70
     0
  0
VERTEX
  8
MACK_GRANITE_265
 10
-4.3533
 20
-12.1241
 30
0
 70
     0
  0
VERTEX
  8
MACK_GRANITE_265
 10
-4.5723
 20
-12.2336
 30
0
 70
     0
  0
VERTEX
  8
MACK_GRANITE_265
 10
-4.7883
 20
-12.3482
 30
0
 70
     0
  0
VERTEX
  8
MACK_GRANITE_265
 10
-5.211
 20
-12.5924
 30
0
 70
     0
  0
VERTEX
  8
MACK_GRANITE_265
 10
-5.6208
 20
-12.8562
 30
0
 70
     0
  0
VERTEX
  8
MACK_GRANITE_265
 10
-6.017
 20
-13.1388
 30
0
 70
     0
  0
VERTEX
  8
MACK_GRANITE_265
 10
-6.3989
 20
-13.4395
 30
0
 70
     0
  0
VERTEX
  8
MACK_GRANITE_265
 10
-6.7659
 20
-13.7579
 30
0
 70
     0
  0
VERTEX
  8
MACK_GRANITE_265
 10
-7.1173
 20
-14.0931
 30
0
 70
     0
  0
VERTEX
  8
MACK_GRANITE_265
 10
-7.4525
 20
-14.4445
 30
0
 70
     0
  0
VERTEX
  8
MACK_GRANITE_265
 10
-7.7708
 20
-14.8115
 30
0
 70
     0
  0
VERTEX
  8
MACK_GRANITE_265
 10
-8.0716
 20
-15.1934
 30
0
 70
     0
  0
VERTEX
  8
MACK_GRANITE_265
 10
-8.3542
 20
-15.5895
 30
0
 70
     0
  0
VERTEX
  8
MACK_GRANITE_265
 10
-8.6179
 20
-15.9993
 30
0
 70
     0
  0
VERTEX
  8
MACK_GRANITE_265
 10
-8.8622
 20
-16.422
 30
0
 70
     0
  0
VERTEX
  8
MACK_GRANITE_265
 10
-8.9768
 20
-16.6381
 30
0
 70
     0
  0
VERTEX
  8
MACK_GRANITE_265
 10
-9.0863
 20
-16.8571
 30
0
 70
     0
  0
VERTEX
  8
MACK_GRANITE_265
 10
-9.1906
 20
-17.079
 30
0
 70
     0
  0
VERTEX
  8
MACK_GRANITE_265
 10
-9.2896
 20
-17.3037
 30
0
 70
     0
  0
VERTEX
  8
MACK_GRANITE_265
 10
-9.3832
 20
-17.5312
 30
0
 70
     0
  0
VERTEX
  8
MACK_GRANITE_265
 10
-9.4714
 20
-17.7614
 30
0
 70
     0
  0
VERTEX
  8
MACK_GRANITE_265
 10
-9.554
 20
-17.9941
 30
0
 70
     0
  0
VERTEX
  8
MACK_GRANITE_265
 10
-9.6311
 20
-18.2293
 30
0
 70
     0
  0
VERTEX
  8
MACK_GRANITE_265
 10
-9.7024
 20
-18.467
 30
0
 70
     0
  0
VERTEX
  8
MACK_GRANITE_265
 10
-9.768
 20
-18.707
 30
0
 70
     0
  0
VERTEX
  8
MACK_GRANITE_265
 10
-9.8277
 20
-18.9493
 30
0
 70
     0
  0
VERTEX
  8
MACK_GRANITE_265
 10
-9.8815
 20
-19.1937
 30
0
 70
     0
  0
VERTEX
  8
MACK_GRANITE_265
 10
-9.9293
 20
-19.4402
 30
0
 70
     0
  0
VERTEX
  8
MACK_GRANITE_265
 10
-9.9709
 20
-19.6887
 30
0
 70
     0
  0
VERTEX
  8
MACK_GRANITE_265
 10
-10.0064
 20
-19.9392
 30
0
 70
     0
  0
VERTEX
  8
MACK_GRANITE_265
 10
-10.0356
 20
-20.1915
 30
0
 70
     0
  0
VERTEX
  8
MACK_GRANITE_265
 10
-10.0585
 20
-20.4455
 30
0
 70
     0
  0
VERTEX
  8
MACK_GRANITE_265
 10
-10.0749
 20
-20.7013
 30
0
 70
     0
  0
VERTEX
  8
MACK_GRANITE_265
 10
-10.0848
 20
-20.9586
 30
0
 70
     0
  0
VERTEX
  8
MACK_GRANITE_265
 10
-10.0882
 20
-21.2175
 30
0
 70
     0
  0
SEQEND
  0
POLYLINE
  8
MACK_GRANITE_265
  6
CONTINUOUS
 62
     7
 66
     1
 40
0.0139
 41
0.0139
  0
VERTEX
  8
MACK_GRANITE_265
 10
-11.2429
 20
-21.2175
 30
0
 70
     0
  0
VERTEX
  8
MACK_GRANITE_265
 10
-11.2391
 20
-21.506
 30
0
 70
     0
  0
VERTEX
  8
MACK_GRANITE_265
 10
-11.2281
 20
-21.7928
 30
0
 70
     0
  0
VERTEX
  8
MACK_GRANITE_265
 10
-11.2098
 20
-22.0778
 30
0
 70
     0
  0
VERTEX
  8
MACK_GRANITE_265
 10
-11.1843
 20
-22.3609
 30
0
 70
     0
  0
VERTEX
  8
MACK_GRANITE_265
 10
-11.1518
 20
-22.642
 30
0
 70
     0
  0
VERTEX
  8
MACK_GRANITE_265
 10
-11.1122
 20
-22.9211
 30
0
 70
     0
  0
VERTEX
  8
MACK_GRANITE_265
 10
-11.0658
 20
-23.1981
 30
0
 70
     0
  0
VERTEX
  8
MACK_GRANITE_265
 10
-11.0126
 20
-23.4728
 30
0
 70
     0
  0
VERTEX
  8
MACK_GRANITE_265
 10
-10.9527
 20
-23.7452
 30
0
 70
     0
  0
VERTEX
  8
MACK_GRANITE_265
 10
-10.8861
 20
-24.0152
 30
0
 70
     0
  0
VERTEX
  8
MACK_GRANITE_265
 10
-10.813
 20
-24.2826
 30
0
 70
     0
  0
VERTEX
  8
MACK_GRANITE_265
 10
-10.7335
 20
-24.5474
 30
0
 70
     0
  0
VERTEX
  8
MACK_GRANITE_265
 10
-10.6476
 20
-24.8096
 30
0
 70
     0
  0
VERTEX
  8
MACK_GRANITE_265
 10
-10.5555
 20
-25.069
 30
0
 70
     0
  0
VERTEX
  8
MACK_GRANITE_265
 10
-10.4573
 20
-25.3254
 30
0
 70
     0
  0
VERTEX
  8
MACK_GRANITE_265
 10
-10.3529
 20
-25.5789
 30
0
 70
     0
  0
VERTEX
  8
MACK_GRANITE_265
 10
-10.2426
 20
-25.8294
 30
0
 70
     0
  0
VERTEX
  8
MACK_GRANITE_265
 10
-10.1264
 20
-26.0767
 30
0
 70
     0
  0
VERTEX
  8
MACK_GRANITE_265
 10
-10.0044
 20
-26.3208
 30
0
 70
     0
  0
VERTEX
  8
MACK_GRANITE_265
 10
-9.8767
 20
-26.5615
 30
0
 70
     0
  0
VERTEX
  8
MACK_GRANITE_265
 10
-9.7433
 20
-26.7988
 30
0
 70
     0
  0
VERTEX
  8
MACK_GRANITE_265
 10
-9.6045
 20
-27.0325
 30
0
 70
     0
  0
VERTEX
  8
MACK_GRANITE_265
 10
-9.4602
 20
-27.2627
 30
0
 70
     0
  0
VERTEX
  8
MACK_GRANITE_265
 10
-9.3106
 20
-27.4892
 30
0
 70
     0
  0
VERTEX
  8
MACK_GRANITE_265
 10
-9.1557
 20
-27.7119
 30
0
 70
     0
  0
VERTEX
  8
MACK_GRANITE_265
 10
-8.9956
 20
-27.9307
 30
0
 70
     0
  0
VERTEX
  8
MACK_GRANITE_265
 10
-8.8305
 20
-28.1455
 30
0
 70
     0
  0
VERTEX
  8
MACK_GRANITE_265
 10
-8.6605
 20
-28.3563
 30
0
 70
     0
  0
VERTEX
  8
MACK_GRANITE_265
 10
-8.3057
 20
-28.7652
 30
0
 70
     0
  0
VERTEX
  8
MACK_GRANITE_265
 10
-7.9322
 20
-29.1568
 30
0
 70
     0
  0
VERTEX
  8
MACK_GRANITE_265
 10
-7.5406
 20
-29.5304
 30
0
 70
     0
  0
VERTEX
  8
MACK_GRANITE_265
 10
-7.1316
 20
-29.8851
 30
0
 70
     0
  0
VERTEX
  8
MACK_GRANITE_265
 10
-6.9208
 20
-30.0552
 30
0
 70
     0
  0
VERTEX
  8
MACK_GRANITE_265
 10
-6.706
 20
-30.2203
 30
0
 70
     0
  0
VERTEX
  8
MACK_GRANITE_265
 10
-6.4872
 20
-30.3803
 30
0
 70
     0
  0
VERTEX
  8
MACK_GRANITE_265
 10
-6.2645
 20
-30.5352
 30
0
 70
     0
  0
VERTEX
  8
MACK_GRANITE_265
 10
-6.0381
 20
-30.6848
 30
0
 70
     0
  0
VERTEX
  8
MACK_GRANITE_265
 10
-5.8079
 20
-30.8291
 30
0
 70
     0
  0
VERTEX
  8
MACK_GRANITE_265
 10
-5.5741
 20
-30.968
 30
0
 70
     0
  0
VERTEX
  8
MACK_GRANITE_265
 10
-5.3368
 20
-31.1013
 30
0
 70
     0
  0
VERTEX
  8
MACK_GRANITE_265
 10
-5.0961
 20
-31.229
 30
0
 70
     0
  0
VERTEX
  8
MACK_GRANITE_265
 10
-4.852
 20
-31.351
 30
0
 70
     0
  0
VERTEX
  8
MACK_GRANITE_265
 10
-4.6047
 20
-31.4672
 30
0
 70
     0
  0
VERTEX
  8
MACK_GRANITE_265
 10
-4.3543
 20
-31.5776
 30
0
 70
     0
  0
VERTEX
  8
MACK_GRANITE_265
 10
-4.1008
 20
-31.6819
 30
0
 70
     0
  0
VERTEX
  8
MACK_GRANITE_265
 10
-3.8443
 20
-31.7802
 30
0
 70
     0
  0
VERTEX
  8
MACK_GRANITE_265
 10
-3.5849
 20
-31.8723
 30
0
 70
     0
  0
VERTEX
  8
MACK_GRANITE_265
 10
-3.3228
 20
-31.9582
 30
0
 70
     0
  0
VERTEX
  8
MACK_GRANITE_265
 10
-3.058
 20
-32.0377
 30
0
 70
     0
  0
VERTEX
  8
MACK_GRANITE_265
 10
-2.7905
 20
-32.1108
 30
0
 70
     0
  0
VERTEX
  8
MACK_GRANITE_265
 10
-2.5205
 20
-32.1773
 30
0
 70
     0
  0
VERTEX
  8
MACK_GRANITE_265
 10
-2.2482
 20
-32.2372
 30
0
 70
     0
  0
VERTEX
  8
MACK_GRANITE_265
 10
-1.9735
 20
-32.2905
 30
0
 70
     0
  0
VERTEX
  8
MACK_GRANITE_265
 10
-1.6965
 20
-32.3369
 30
0
 70
     0
  0
VERTEX
  8
MACK_GRANITE_265
 10
-1.4174
 20
-32.3764
 30
0
 70
     0
  0
VERTEX
  8
MACK_GRANITE_265
 10
-1.1362
 20
-32.409
 30
0
 70
     0
  0
VERTEX
  8
MACK_GRANITE_265
 10
-0.8531
 20
-32.4344
 30
0
 70
     0
  0
VERTEX
  8
MACK_GRANITE_265
 10
-0.5681
 20
-32.4527
 30
0
 70
     0
  0
VERTEX
  8
MACK_GRANITE_265
 10
-0.2813
 20
-32.4638
 30
0
 70
     0
  0
VERTEX
  8
MACK_GRANITE_265
 10
0.0071
 20
-32.4675
 30
0
 70
     0
  0
VERTEX
  8
MACK_GRANITE_265
 10
0.2956
 20
-32.4638
 30
0
 70
     0
  0
VERTEX
  8
MACK_GRANITE_265
 10
0.5824
 20
-32.4527
 30
0
 70
     0
  0
VERTEX
  8
MACK_GRANITE_265
 10
0.8674
 20
-32.4344
 30
0
 70
     0
  0
VERTEX
  8
MACK_GRANITE_265
 10
1.1505
 20
-32.409
 30
0
 70
     0
  0
VERTEX
  8
MACK_GRANITE_265
 10
1.4317
 20
-32.3764
 30
0
 70
     0
  0
VERTEX
  8
MACK_GRANITE_265
 10
1.7108
 20
-32.3369
 30
0
 70
     0
  0
VERTEX
  8
MACK_GRANITE_265
 10
1.9877
 20
-32.2905
 30
0
 70
     0
  0
VERTEX
  8
MACK_GRANITE_265
 10
2.2625
 20
-32.2372
 30
0
 70
     0
  0
VERTEX
  8
MACK_GRANITE_265
 10
2.5348
 20
-32.1773
 30
0
 70
     0
  0
VERTEX
  8
MACK_GRANITE_265
 10
2.8048
 20
-32.1108
 30
0
 70
     0
  0
VERTEX
  8
MACK_GRANITE_265
 10
3.0722
 20
-32.0377
 30
0
 70
     0
  0
VERTEX
  8
MACK_GRANITE_265
 10
3.3371
 20
-31.9582
 30
0
 70
     0
  0
VERTEX
  8
MACK_GRANITE_265
 10
3.5992
 20
-31.8723
 30
0
 70
     0
  0
VERTEX
  8
MACK_GRANITE_265
 10
3.8586
 20
-31.7802
 30
0
 70
     0
  0
VERTEX
  8
MACK_GRANITE_265
 10
4.1151
 20
-31.6819
 30
0
 70
     0
  0
VERTEX
  8
MACK_GRANITE_265
 10
4.3686
 20
-31.5776
 30
0
 70
     0
  0
VERTEX
  8
MACK_GRANITE_265
 10
4.619
 20
-31.4672
 30
0
 70
     0
  0
VERTEX
  8
MACK_GRANITE_265
 10
4.8663
 20
-31.351
 30
0
 70
     0
  0
VERTEX
  8
MACK_GRANITE_265
 10
5.1104
 20
-31.229
 30
0
 70
     0
  0
VERTEX
  8
MACK_GRANITE_265
 10
5.3511
 20
-31.1013
 30
0
 70
     0
  0
VERTEX
  8
MACK_GRANITE_265
 10
5.5884
 20
-30.968
 30
0
 70
     0
  0
VERTEX
  8
MACK_GRANITE_265
 10
5.8222
 20
-30.8291
 30
0
 70
     0
  0
VERTEX
  8
MACK_GRANITE_265
 10
6.0524
 20
-30.6848
 30
0
 70
     0
  0
VERTEX
  8
MACK_GRANITE_265
 10
6.2788
 20
-30.5352
 30
0
 70
     0
  0
VERTEX
  8
MACK_GRANITE_265
 10
6.5015
 20
-30.3803
 30
0
 70
     0
  0
VERTEX
  8
MACK_GRANITE_265
 10
6.7203
 20
-30.2203
 30
0
 70
     0
  0
VERTEX
  8
MACK_GRANITE_265
 10
6.9351
 20
-30.0552
 30
0
 70
     0
  0
VERTEX
  8
MACK_GRANITE_265
 10
7.1459
 20
-29.8851
 30
0
 70
     0
  0
VERTEX
  8
MACK_GRANITE_265
 10
7.5549
 20
-29.5304
 30
0
 70
     0
  0
VERTEX
  8
MACK_GRANITE_265
 10
7.9465
 20
-29.1568
 30
0
 70
     0
  0
VERTEX
  8
MACK_GRANITE_265
 10
8.32
 20
-28.7652
 30
0
 70
     0
  0
VERTEX
  8
MACK_GRANITE_265
 10
8.6747
 20
-28.3563
 30
0
 70
     0
  0
VERTEX
  8
MACK_GRANITE_265
 10
8.8448
 20
-28.1455
 30
0
 70
     0
  0
VERTEX
  8
MACK_GRANITE_265
 10
9.0099
 20
-27.9307
 30
0
 70
     0
  0
VERTEX
  8
MACK_GRANITE_265
 10
9.17
 20
-27.7119
 30
0
 70
     0
  0
VERTEX
  8
MACK_GRANITE_265
 10
9.3248
 20
-27.4892
 30
0
 70
     0
  0
VERTEX
  8
MACK_GRANITE_265
 10
9.4745
 20
-27.2627
 30
0
 70
     0
  0
VERTEX
  8
MACK_GRANITE_265
 10
9.6188
 20
-27.0325
 30
0
 70
     0
  0
VERTEX
  8
MACK_GRANITE_265
 10
9.7576
 20
-26.7988
 30
0
 70
     0
  0
VERTEX
  8
MACK_GRANITE_265
 10
9.8909
 20
-26.5615
 30
0
 70
     0
  0
VERTEX
  8
MACK_GRANITE_265
 10
10.0187
 20
-26.3208
 30
0
 70
     0
  0
VERTEX
  8
MACK_GRANITE_265
 10
10.1407
 20
-26.0767
 30
0
 70
     0
  0
VERTEX
  8
MACK_GRANITE_265
 10
10.2569
 20
-25.8294
 30
0
 70
     0
  0
VERTEX
  8
MACK_GRANITE_265
 10
10.3672
 20
-25.5789
 30
0
 70
     0
  0
VERTEX
  8
MACK_GRANITE_265
 10
10.4716
 20
-25.3254
 30
0
 70
     0
  0
VERTEX
  8
MACK_GRANITE_265
 10
10.5698
 20
-25.069
 30
0
 70
     0
  0
VERTEX
  8
MACK_GRANITE_265
 10
10.6619
 20
-24.8096
 30
0
 70
     0
  0
VERTEX
  8
MACK_GRANITE_265
 10
10.7478
 20
-24.5474
 30
0
 70
     0
  0
VERTEX
  8
MACK_GRANITE_265
 10
10.8273
 20
-24.2826
 30
0
 70
     0
  0
VERTEX
  8
MACK_GRANITE_265
 10
10.9004
 20
-24.0152
 30
0
 70
     0
  0
VERTEX
  8
MACK_GRANITE_265
 10
10.9669
 20
-23.7452
 30
0
 70
     0
  0
VERTEX
  8
MACK_GRANITE_265
 10
11.0269
 20
-23.4728
 30
0
 70
     0
  0
VERTEX
  8
MACK_GRANITE_265
 10
11.0801
 20
-23.1981
 30
0
 70
     0
  0
VERTEX
  8
MACK_GRANITE_265
 10
11.1265
 20
-22.9211
 30
0
 70
     0
  0
VERTEX
  8
MACK_GRANITE_265
 10
11.1661
 20
-22.642
 30
0
 70
     0
  0
VERTEX
  8
MACK_GRANITE_265
 10
11.1986
 20
-22.3609
 30
0
 70
     0
  0
VERTEX
  8
MACK_GRANITE_265
 10
11.2241
 20
-22.0778
 30
0
 70
     0
  0
VERTEX
  8
MACK_GRANITE_265
 10
11.2424
 20
-21.7928
 30
0
 70
     0
  0
VERTEX
  8
MACK_GRANITE_265
 10
11.2534
 20
-21.506
 30
0
 70
     0
  0
VERTEX
  8
MACK_GRANITE_265
 10
11.2571
 20
-21.2175
 30
0
 70
     0
  0
VERTEX
  8
MACK_GRANITE_265
 10
11.2534
 20
-20.929
 30
0
 70
     0
  0
VERTEX
  8
MACK_GRANITE_265
 10
11.2424
 20
-20.6422
 30
0
 70
     0
  0
VERTEX
  8
MACK_GRANITE_265
 10
11.2241
 20
-20.3572
 30
0
 70
     0
  0
VERTEX
  8
MACK_GRANITE_265
 10
11.1986
 20
-20.0741
 30
0
 70
     0
  0
VERTEX
  8
MACK_GRANITE_265
 10
11.1661
 20
-19.793
 30
0
 70
     0
  0
VERTEX
  8
MACK_GRANITE_265
 10
11.1265
 20
-19.5139
 30
0
 70
     0
  0
VERTEX
  8
MACK_GRANITE_265
 10
11.0801
 20
-19.2369
 30
0
 70
     0
  0
VERTEX
  8
MACK_GRANITE_265
 10
11.0269
 20
-18.9622
 30
0
 70
     0
  0
VERTEX
  8
MACK_GRANITE_265
 10
10.9669
 20
-18.6898
 30
0
 70
     0
  0
VERTEX
  8
MACK_GRANITE_265
 10
10.9004
 20
-18.4198
 30
0
 70
     0
  0
VERTEX
  8
MACK_GRANITE_265
 10
10.8273
 20
-18.1524
 30
0
 70
     0
  0
VERTEX
  8
MACK_GRANITE_265
 10
10.7478
 20
-17.8876
 30
0
 70
     0
  0
VERTEX
  8
MACK_GRANITE_265
 10
10.6619
 20
-17.6254
 30
0
 70
     0
  0
VERTEX
  8
MACK_GRANITE_265
 10
10.5698
 20
-17.3661
 30
0
 70
     0
  0
VERTEX
  8
MACK_GRANITE_265
 10
10.4716
 20
-17.1096
 30
0
 70
     0
  0
VERTEX
  8
MACK_GRANITE_265
 10
10.3672
 20
-16.8561
 30
0
 70
     0
  0
VERTEX
  8
MACK_GRANITE_265
 10
10.2569
 20
-16.6056
 30
0
 70
     0
  0
VERTEX
  8
MACK_GRANITE_265
 10
10.1407
 20
-16.3583
 30
0
 70
     0
  0
VERTEX
  8
MACK_GRANITE_265
 10
10.0187
 20
-16.1143
 30
0
 70
     0
  0
VERTEX
  8
MACK_GRANITE_265
 10
9.8909
 20
-15.8735
 30
0
 70
     0
  0
VERTEX
  8
MACK_GRANITE_265
 10
9.7576
 20
-15.6362
 30
0
 70
     0
  0
VERTEX
  8
MACK_GRANITE_265
 10
9.6188
 20
-15.4025
 30
0
 70
     0
  0
VERTEX
  8
MACK_GRANITE_265
 10
9.4745
 20
-15.1723
 30
0
 70
     0
  0
VERTEX
  8
MACK_GRANITE_265
 10
9.3248
 20
-14.9458
 30
0
 70
     0
  0
VERTEX
  8
MACK_GRANITE_265
 10
9.17
 20
-14.7231
 30
0
 70
     0
  0
VERTEX
  8
MACK_GRANITE_265
 10
9.0099
 20
-14.5043
 30
0
 70
     0
  0
VERTEX
  8
MACK_GRANITE_265
 10
8.8448
 20
-14.2895
 30
0
 70
     0
  0
VERTEX
  8
MACK_GRANITE_265
 10
8.6747
 20
-14.0787
 30
0
 70
     0
  0
VERTEX
  8
MACK_GRANITE_265
 10
8.32
 20
-13.6698
 30
0
 70
     0
  0
VERTEX
  8
MACK_GRANITE_265
 10
7.9465
 20
-13.2782
 30
0
 70
     0
  0
VERTEX
  8
MACK_GRANITE_265
 10
7.5549
 20
-12.9046
 30
0
 70
     0
  0
VERTEX
  8
MACK_GRANITE_265
 10
7.1459
 20
-12.5499
 30
0
 70
     0
  0
VERTEX
  8
MACK_GRANITE_265
 10
6.9351
 20
-12.3798
 30
0
 70
     0
  0
VERTEX
  8
MACK_GRANITE_265
 10
6.7203
 20
-12.2147
 30
0
 70
     0
  0
VERTEX
  8
MACK_GRANITE_265
 10
6.5015
 20
-12.0547
 30
0
 70
     0
  0
VERTEX
  8
MACK_GRANITE_265
 10
6.2788
 20
-11.8998
 30
0
 70
     0
  0
VERTEX
  8
MACK_GRANITE_265
 10
6.0524
 20
-11.7502
 30
0
 70
     0
  0
VERTEX
  8
MACK_GRANITE_265
 10
5.8222
 20
-11.6059
 30
0
 70
     0
  0
VERTEX
  8
MACK_GRANITE_265
 10
5.5884
 20
-11.467
 30
0
 70
     0
  0
VERTEX
  8
MACK_GRANITE_265
 10
5.3511
 20
-11.3337
 30
0
 70
     0
  0
VERTEX
  8
MACK_GRANITE_265
 10
5.1104
 20
-11.206
 30
0
 70
     0
  0
VERTEX
  8
MACK_GRANITE_265
 10
4.8663
 20
-11.084
 30
0
 70
     0
  0
VERTEX
  8
MACK_GRANITE_265
 10
4.619
 20
-10.9678
 30
0
 70
     0
  0
VERTEX
  8
MACK_GRANITE_265
 10
4.3686
 20
-10.8574
 30
0
 70
     0
  0
VERTEX
  8
MACK_GRANITE_265
 10
4.1151
 20
-10.7531
 30
0
 70
     0
  0
VERTEX
  8
MACK_GRANITE_265
 10
3.8586
 20
-10.6548
 30
0
 70
     0
  0
VERTEX
  8
MACK_GRANITE_265
 10
3.5992
 20
-10.5627
 30
0
 70
     0
  0
VERTEX
  8
MACK_GRANITE_265
 10
3.3371
 20
-10.4768
 30
0
 70
     0
  0
VERTEX
  8
MACK_GRANITE_265
 10
3.0722
 20
-10.3973
 30
0
 70
     0
  0
VERTEX
  8
MACK_GRANITE_265
 10
2.8048
 20
-10.3243
 30
0
 70
     0
  0
VERTEX
  8
MACK_GRANITE_265
 10
2.5348
 20
-10.2577
 30
0
 70
     0
  0
VERTEX
  8
MACK_GRANITE_265
 10
2.2625
 20
-10.1978
 30
0
 70
     0
  0
VERTEX
  8
MACK_GRANITE_265
 10
1.9877
 20
-10.1445
 30
0
 70
     0
  0
VERTEX
  8
MACK_GRANITE_265
 10
1.7108
 20
-10.0981
 30
0
 70
     0
  0
VERTEX
  8
MACK_GRANITE_265
 10
1.4317
 20
-10.0586
 30
0
 70
     0
  0
VERTEX
  8
MACK_GRANITE_265
 10
1.1505
 20
-10.026
 30
0
 70
     0
  0
VERTEX
  8
MACK_GRANITE_265
 10
0.8674
 20
-10.0006
 30
0
 70
     0
  0
VERTEX
  8
MACK_GRANITE_265
 10
0.5824
 20
-9.9823
 30
0
 70
     0
  0
VERTEX
  8
MACK_GRANITE_265
 10
0.2956
 20
-9.9712
 30
0
 70
     0
  0
VERTEX
  8
MACK_GRANITE_265
 10
0.0071
 20
-9.9675
 30
0
 70
     0
  0
VERTEX
  8
MACK_GRANITE_265
 10
-0.2813
 20
-9.9712
 30
0
 70
     0
  0
VERTEX
  8
MACK_GRANITE_265
 10
-0.5681
 20
-9.9823
 30
0
 70
     0
  0
VERTEX
  8
MACK_GRANITE_265
 10
-0.8531
 20
-10.0006
 30
0
 70
     0
  0
VERTEX
  8
MACK_GRANITE_265
 10
-1.1362
 20
-10.026
 30
0
 70
     0
  0
VERTEX
  8
MACK_GRANITE_265
 10
-1.4174
 20
-10.0586
 30
0
 70
     0
  0
VERTEX
  8
MACK_GRANITE_265
 10
-1.6965
 20
-10.0981
 30
0
 70
     0
  0
VERTEX
  8
MACK_GRANITE_265
 10
-1.9735
 20
-10.1445
 30
0
 70
     0
  0
VERTEX
  8
MACK_GRANITE_265
 10
-2.2482
 20
-10.1978
 30
0
 70
     0
  0
VERTEX
  8
MACK_GRANITE_265
 10
-2.5205
 20
-10.2577
 30
0
 70
     0
  0
VERTEX
  8
MACK_GRANITE_265
 10
-2.7905
 20
-10.3243
 30
0
 70
     0
  0
VERTEX
  8
MACK_GRANITE_265
 10
-3.058
 20
-10.3973
 30
0
 70
     0
  0
VERTEX
  8
MACK_GRANITE_265
 10
-3.3228
 20
-10.4768
 30
0
 70
     0
  0
VERTEX
  8
MACK_GRANITE_265
 10
-3.5849
 20
-10.5627
 30
0
 70
     0
  0
VERTEX
  8
MACK_GRANITE_265
 10
-3.8443
 20
-10.6548
 30
0
 70
     0
  0
VERTEX
  8
MACK_GRANITE_265
 10
-4.1008
 20
-10.7531
 30
0
 70
     0
  0
VERTEX
  8
MACK_GRANITE_265
 10
-4.3543
 20
-10.8574
 30
0
 70
     0
  0
VERTEX
  8
MACK_GRANITE_265
 10
-4.6047
 20
-10.9678
 30
0
 70
     0
  0
VERTEX
  8
MACK_GRANITE_265
 10
-4.852
 20
-11.084
 30
0
 70
     0
  0
VERTEX
  8
MACK_GRANITE_265
 10
-5.0961
 20
-11.206
 30
0
 70
     0
  0
VERTEX
  8
MACK_GRANITE_265
 10
-5.3368
 20
-11.3337
 30
0
 70
     0
  0
VERTEX
  8
MACK_GRANITE_265
 10
-5.5741
 20
-11.467
 30
0
 70
     0
  0
VERTEX
  8
MACK_GRANITE_265
 10
-5.8079
 20
-11.6059
 30
0
 70
     0
  0
VERTEX
  8
MACK_GRANITE_265
 10
-6.0381
 20
-11.7502
 30
0
 70
     0
  0
VERTEX
  8
MACK_GRANITE_265
 10
-6.2645
 20
-11.8998
 30
0
 70
     0
  0
VERTEX
  8
MACK_GRANITE_265
 10
-6.4872
 20
-12.0547
 30
0
 70
     0
  0
VERTEX
  8
MACK_GRANITE_265
 10
-6.706
 20
-12.2147
 30
0
 70
     0
  0
VERTEX
  8
MACK_GRANITE_265
 10
-6.9208
 20
-12.3798
 30
0
 70
     0
  0
VERTEX
  8
MACK_GRANITE_265
 10
-7.1316
 20
-12.5499
 30
0
 70
     0
  0
VERTEX
  8
MACK_GRANITE_265
 10
-7.5406
 20
-12.9046
 30
0
 70
     0
  0
VERTEX
  8
MACK_GRANITE_265
 10
-7.9322
 20
-13.2782
 30
0
 70
     0
  0
VERTEX
  8
MACK_GRANITE_265
 10
-8.3057
 20
-13.6698
 30
0
 70
     0
  0
VERTEX
  8
MACK_GRANITE_265
 10
-8.6605
 20
-14.0787
 30
0
 70
     0
  0
VERTEX
  8
MACK_GRANITE_265
 10
-8.8305
 20
-14.2895
 30
0
 70
     0
  0
VERTEX
  8
MACK_GRANITE_265
 10
-8.9956
 20
-14.5043
 30
0
 70
     0
  0
VERTEX
  8
MACK_GRANITE_265
 10
-9.1557
 20
-14.7231
 30
0
 70
     0
  0
VERTEX
  8
MACK_GRANITE_265
 10
-9.3106
 20
-14.9458
 30
0
 70
     0
  0
VERTEX
  8
MACK_GRANITE_265
 10
-9.4602
 20
-15.1723
 30
0
 70
     0
  0
VERTEX
  8
MACK_GRANITE_265
 10
-9.6045
 20
-15.4025
 30
0
 70
     0
  0
VERTEX
  8
MACK_GRANITE_265
 10
-9.7433
 20
-15.6362
 30
0
 70
     0
  0
VERTEX
  8
MACK_GRANITE_265
 10
-9.8767
 20
-15.8735
 30
0
 70
     0
  0
VERTEX
  8
MACK_GRANITE_265
 10
-10.0044
 20
-16.1143
 30
0
 70
     0
  0
VERTEX
  8
MACK_GRANITE_265
 10
-10.1264
 20
-16.3583
 30
0
 70
     0
  0
VERTEX
  8
MACK_GRANITE_265
 10
-10.2426
 20
-16.6056
 30
0
 70
     0
  0
VERTEX
  8
MACK_GRANITE_265
 10
-10.3529
 20
-16.8561
 30
0
 70
     0
  0
VERTEX
  8
MACK_GRANITE_265
 10
-10.4573
 20
-17.1096
 30
0
 70
     0
  0
VERTEX
  8
MACK_GRANITE_265
 10
-10.5555
 20
-17.3661
 30
0
 70
     0
  0
VERTEX
  8
MACK_GRANITE_265
 10
-10.6476
 20
-17.6254
 30
0
 70
     0
  0
VERTEX
  8
MACK_GRANITE_265
 10
-10.7335
 20
-17.8876
 30
0
 70
     0
  0
VERTEX
  8
MACK_GRANITE_265
 10
-10.813
 20
-18.1524
 30
0
 70
     0
  0
VERTEX
  8
MACK_GRANITE_265
 10
-10.8861
 20
-18.4198
 30
0
 70
     0
  0
VERTEX
  8
MACK_GRANITE_265
 10
-10.9527
 20
-18.6898
 30
0
 70
     0
  0
VERTEX
  8
MACK_GRANITE_265
 10
-11.0126
 20
-18.9622
 30
0
 70
     0
  0
VERTEX
  8
MACK_GRANITE_265
 10
-11.0658
 20
-19.2369
 30
0
 70
     0
  0
VERTEX
  8
MACK_GRANITE_265
 10
-11.1122
 20
-19.5139
 30
0
 70
     0
  0
VERTEX
  8
MACK_GRANITE_265
 10
-11.1518
 20
-19.793
 30
0
 70
     0
  0
VERTEX
  8
MACK_GRANITE_265
 10
-11.1843
 20
-20.0741
 30
0
 70
     0
  0
VERTEX
  8
MACK_GRANITE_265
 10
-11.2098
 20
-20.3572
 30
0
 70
     0
  0
VERTEX
  8
MACK_GRANITE_265
 10
-11.2281
 20
-20.6422
 30
0
 70
     0
  0
VERTEX
  8
MACK_GRANITE_265
 10
-11.2391
 20
-20.929
 30
0
 70
     0
  0
VERTEX
  8
MACK_GRANITE_265
 10
-11.2429
 20
-21.2175
 30
0
 70
     0
  0
SEQEND
  0
POLYLINE
  8
MACK_GRANITE_265
  6
CONTINUOUS
 62
     7
 66
     1
 40
0.0139
 41
0.0139
  0
VERTEX
  8
MACK_GRANITE_265
 10
-2.4929
 20
-21.2175
 30
0
 70
     0
  0
VERTEX
  8
MACK_GRANITE_265
 10
-2.4896
 20
-21.3453
 30
0
 70
     0
  0
VERTEX
  8
MACK_GRANITE_265
 10
-2.4798
 20
-21.4716
 30
0
 70
     0
  0
VERTEX
  8
MACK_GRANITE_265
 10
-2.4638
 20
-21.5961
 30
0
 70
     0
  0
VERTEX
  8
MACK_GRANITE_265
 10
-2.4417
 20
-21.7187
 30
0
 70
     0
  0
VERTEX
  8
MACK_GRANITE_265
 10
-2.4136
 20
-21.8392
 30
0
 70
     0
  0
VERTEX
  8
MACK_GRANITE_265
 10
-2.3797
 20
-21.9575
 30
0
 70
     0
  0
VERTEX
  8
MACK_GRANITE_265
 10
-2.3401
 20
-22.0734
 30
0
 70
     0
  0
VERTEX
  8
MACK_GRANITE_265
 10
-2.2951
 20
-22.1867
 30
0
 70
     0
  0
VERTEX
  8
MACK_GRANITE_265
 10
-2.2447
 20
-22.2973
 30
0
 70
     0
  0
VERTEX
  8
MACK_GRANITE_265
 10
-2.1893
 20
-22.4051
 30
0
 70
     0
  0
VERTEX
  8
MACK_GRANITE_265
 10
-2.1288
 20
-22.5097
 30
0
 70
     0
  0
VERTEX
  8
MACK_GRANITE_265
 10
-2.0635
 20
-22.6112
 30
0
 70
     0
  0
VERTEX
  8
MACK_GRANITE_265
 10
-1.919
 20
-22.8039
 30
0
 70
     0
  0
VERTEX
  8
MACK_GRANITE_265
 10
-1.7572
 20
-22.9818
 30
0
 70
     0
  0
VERTEX
  8
MACK_GRANITE_265
 10
-1.5792
 20
-23.1436
 30
0
 70
     0
  0
VERTEX
  8
MACK_GRANITE_265
 10
-1.3866
 20
-23.2881
 30
0
 70
     0
  0
VERTEX
  8
MACK_GRANITE_265
 10
-1.2851
 20
-23.3534
 30
0
 70
     0
  0
VERTEX
  8
MACK_GRANITE_265
 10
-1.1804
 20
-23.4139
 30
0
 70
     0
  0
VERTEX
  8
MACK_GRANITE_265
 10
-1.0727
 20
-23.4694
 30
0
 70
     0
  0
VERTEX
  8
MACK_GRANITE_265
 10
-0.9621
 20
-23.5197
 30
0
 70
     0
  0
VERTEX
  8
MACK_GRANITE_265
 10
-0.8487
 20
-23.5648
 30
0
 70
     0
  0
VERTEX
  8
MACK_GRANITE_265
 10
-0.7328
 20
-23.6043
 30
0
 70
     0
  0
VERTEX
  8
MACK_GRANITE_265
 10
-0.6146
 20
-23.6382
 30
0
 70
     0
  0
VERTEX
  8
MACK_GRANITE_265
 10
-0.494
 20
-23.6663
 30
0
 70
     0
  0
VERTEX
  8
MACK_GRANITE_265
 10
-0.3714
 20
-23.6885
 30
0
 70
     0
  0
VERTEX
  8
MACK_GRANITE_265
 10
-0.2469
 20
-23.7045
 30
0
 70
     0
  0
VERTEX
  8
MACK_GRANITE_265
 10
-0.1207
 20
-23.7142
 30
0
 70
     0
  0
VERTEX
  8
MACK_GRANITE_265
 10
0.0071
 20
-23.7175
 30
0
 70
     0
  0
VERTEX
  8
MACK_GRANITE_265
 10
0.135
 20
-23.7142
 30
0
 70
     0
  0
VERTEX
  8
MACK_GRANITE_265
 10
0.2612
 20
-23.7045
 30
0
 70
     0
  0
VERTEX
  8
MACK_GRANITE_265
 10
0.3857
 20
-23.6885
 30
0
 70
     0
  0
VERTEX
  8
MACK_GRANITE_265
 10
0.5083
 20
-23.6663
 30
0
 70
     0
  0
VERTEX
  8
MACK_GRANITE_265
 10
0.6288
 20
-23.6382
 30
0
 70
     0
  0
VERTEX
  8
MACK_GRANITE_265
 10
0.7471
 20
-23.6043
 30
0
 70
     0
  0
VERTEX
  8
MACK_GRANITE_265
 10
0.863
 20
-23.5648
 30
0
 70
     0
  0
VERTEX
  8
MACK_GRANITE_265
 10
0.9764
 20
-23.5197
 30
0
 70
     0
  0
VERTEX
  8
MACK_GRANITE_265
 10
1.087
 20
-23.4694
 30
0
 70
     0
  0
VERTEX
  8
MACK_GRANITE_265
 10
1.1947
 20
-23.4139
 30
0
 70
     0
  0
VERTEX
  8
MACK_GRANITE_265
 10
1.2994
 20
-23.3534
 30
0
 70
     0
  0
VERTEX
  8
MACK_GRANITE_265
 10
1.4009
 20
-23.2881
 30
0
 70
     0
  0
VERTEX
  8
MACK_GRANITE_265
 10
1.5935
 20
-23.1436
 30
0
 70
     0
  0
VERTEX
  8
MACK_GRANITE_265
 10
1.7714
 20
-22.9818
 30
0
 70
     0
  0
VERTEX
  8
MACK_GRANITE_265
 10
1.9333
 20
-22.8039
 30
0
 70
     0
  0
VERTEX
  8
MACK_GRANITE_265
 10
2.0777
 20
-22.6112
 30
0
 70
     0
  0
VERTEX
  8
MACK_GRANITE_265
 10
2.1431
 20
-22.5097
 30
0
 70
     0
  0
VERTEX
  8
MACK_GRANITE_265
 10
2.2035
 20
-22.4051
 30
0
 70
     0
  0
VERTEX
  8
MACK_GRANITE_265
 10
2.259
 20
-22.2973
 30
0
 70
     0
  0
VERTEX
  8
MACK_GRANITE_265
 10
2.3094
 20
-22.1867
 30
0
 70
     0
  0
VERTEX
  8
MACK_GRANITE_265
 10
2.3544
 20
-22.0734
 30
0
 70
     0
  0
VERTEX
  8
MACK_GRANITE_265
 10
2.394
 20
-21.9575
 30
0
 70
     0
  0
VERTEX
  8
MACK_GRANITE_265
 10
2.4279
 20
-21.8392
 30
0
 70
     0
  0
VERTEX
  8
MACK_GRANITE_265
 10
2.456
 20
-21.7187
 30
0
 70
     0
  0
VERTEX
  8
MACK_GRANITE_265
 10
2.4781
 20
-21.5961
 30
0
 70
     0
  0
VERTEX
  8
MACK_GRANITE_265
 10
2.4941
 20
-21.4716
 30
0
 70
     0
  0
VERTEX
  8
MACK_GRANITE_265
 10
2.5039
 20
-21.3453
 30
0
 70
     0
  0
VERTEX
  8
MACK_GRANITE_265
 10
2.5071
 20
-21.2175
 30
0
 70
     0
  0
VERTEX
  8
MACK_GRANITE_265
 10
2.5039
 20
-21.0897
 30
0
 70
     0
  0
VERTEX
  8
MACK_GRANITE_265
 10
2.4941
 20
-20.9634
 30
0
 70
     0
  0
VERTEX
  8
MACK_GRANITE_265
 10
2.4781
 20
-20.8389
 30
0
 70
     0
  0
VERTEX
  8
MACK_GRANITE_265
 10
2.456
 20
-20.7163
 30
0
 70
     0
  0
VERTEX
  8
MACK_GRANITE_265
 10
2.4279
 20
-20.5958
 30
0
 70
     0
  0
VERTEX
  8
MACK_GRANITE_265
 10
2.394
 20
-20.4775
 30
0
 70
     0
  0
VERTEX
  8
MACK_GRANITE_265
 10
2.3544
 20
-20.3616
 30
0
 70
     0
  0
VERTEX
  8
MACK_GRANITE_265
 10
2.3094
 20
-20.2483
 30
0
 70
     0
  0
VERTEX
  8
MACK_GRANITE_265
 10
2.259
 20
-20.1377
 30
0
 70
     0
  0
VERTEX
  8
MACK_GRANITE_265
 10
2.2035
 20
-20.03
 30
0
 70
     0
  0
VERTEX
  8
MACK_GRANITE_265
 10
2.1431
 20
-19.9253
 30
0
 70
     0
  0
VERTEX
  8
MACK_GRANITE_265
 10
2.0777
 20
-19.8238
 30
0
 70
     0
  0
VERTEX
  8
MACK_GRANITE_265
 10
1.9333
 20
-19.6311
 30
0
 70
     0
  0
VERTEX
  8
MACK_GRANITE_265
 10
1.7714
 20
-19.4532
 30
0
 70
     0
  0
VERTEX
  8
MACK_GRANITE_265
 10
1.5935
 20
-19.2914
 30
0
 70
     0
  0
VERTEX
  8
MACK_GRANITE_265
 10
1.4009
 20
-19.1469
 30
0
 70
     0
  0
VERTEX
  8
MACK_GRANITE_265
 10
1.2994
 20
-19.0816
 30
0
 70
     0
  0
VERTEX
  8
MACK_GRANITE_265
 10
1.1947
 20
-19.0211
 30
0
 70
     0
  0
VERTEX
  8
MACK_GRANITE_265
 10
1.087
 20
-18.9656
 30
0
 70
     0
  0
VERTEX
  8
MACK_GRANITE_265
 10
0.9764
 20
-18.9153
 30
0
 70
     0
  0
VERTEX
  8
MACK_GRANITE_265
 10
0.863
 20
-18.8702
 30
0
 70
     0
  0
VERTEX
  8
MACK_GRANITE_265
 10
0.7471
 20
-18.8307
 30
0
 70
     0
  0
VERTEX
  8
MACK_GRANITE_265
 10
0.6288
 20
-18.7968
 30
0
 70
     0
  0
VERTEX
  8
MACK_GRANITE_265
 10
0.5083
 20
-18.7687
 30
0
 70
     0
  0
VERTEX
  8
MACK_GRANITE_265
 10
0.3857
 20
-18.7465
 30
0
 70
     0
  0
VERTEX
  8
MACK_GRANITE_265
 10
0.2612
 20
-18.7305
 30
0
 70
     0
  0
VERTEX
  8
MACK_GRANITE_265
 10
0.135
 20
-18.7208
 30
0
 70
     0
  0
VERTEX
  8
MACK_GRANITE_265
 10
0.0071
 20
-18.7175
 30
0
 70
     0
  0
VERTEX
  8
MACK_GRANITE_265
 10
-0.1207
 20
-18.7208
 30
0
 70
     0
  0
VERTEX
  8
MACK_GRANITE_265
 10
-0.2469
 20
-18.7305
 30
0
 70
     0
  0
VERTEX
  8
MACK_GRANITE_265
 10
-0.3714
 20
-18.7465
 30
0
 70
     0
  0
VERTEX
  8
MACK_GRANITE_265
 10
-0.494
 20
-18.7687
 30
0
 70
     0
  0
VERTEX
  8
MACK_GRANITE_265
 10
-0.6146
 20
-18.7968
 30
0
 70
     0
  0
VERTEX
  8
MACK_GRANITE_265
 10
-0.7328
 20
-18.8307
 30
0
 70
     0
  0
VERTEX
  8
MACK_GRANITE_265
 10
-0.8487
 20
-18.8702
 30
0
 70
     0
  0
VERTEX
  8
MACK_GRANITE_265
 10
-0.9621
 20
-18.9153
 30
0
 70
     0
  0
VERTEX
  8
MACK_GRANITE_265
 10
-1.0727
 20
-18.9656
 30
0
 70
     0
  0
VERTEX
  8
MACK_GRANITE_265
 10
-1.1804
 20
-19.0211
 30
0
 70
     0
  0
VERTEX
  8
MACK_GRANITE_265
 10
-1.2851
 20
-19.0816
 30
0
 70
     0
  0
VERTEX
  8
MACK_GRANITE_265
 10
-1.3866
 20
-19.1469
 30
0
 70
     0
  0
VERTEX
  8
MACK_GRANITE_265
 10
-1.5792
 20
-19.2914
 30
0
 70
     0
  0
VERTEX
  8
MACK_GRANITE_265
 10
-1.7572
 20
-19.4532
 30
0
 70
     0
  0
VERTEX
  8
MACK_GRANITE_265
 10
-1.919
 20
-19.6311
 30
0
 70
     0
  0
VERTEX
  8
MACK_GRANITE_265
 10
-2.0635
 20
-19.8238
 30
0
 70
     0
  0
VERTEX
  8
MACK_GRANITE_265
 10
-2.1288
 20
-19.9253
 30
0
 70
     0
  0
VERTEX
  8
MACK_GRANITE_265
 10
-2.1893
 20
-20.03
 30
0
 70
     0
  0
VERTEX
  8
MACK_GRANITE_265
 10
-2.2447
 20
-20.1377
 30
0
 70
     0
  0
VERTEX
  8
MACK_GRANITE_265
 10
-2.2951
 20
-20.2483
 30
0
 70
     0
  0
VERTEX
  8
MACK_GRANITE_265
 10
-2.3401
 20
-20.3616
 30
0
 70
     0
  0
VERTEX
  8
MACK_GRANITE_265
 10
-2.3797
 20
-20.4775
 30
0
 70
     0
  0
VERTEX
  8
MACK_GRANITE_265
 10
-2.4136
 20
-20.5958
 30
0
 70
     0
  0
VERTEX
  8
MACK_GRANITE_265
 10
-2.4417
 20
-20.7163
 30
0
 70
     0
  0
VERTEX
  8
MACK_GRANITE_265
 10
-2.4638
 20
-20.8389
 30
0
 70
     0
  0
VERTEX
  8
MACK_GRANITE_265
 10
-2.4798
 20
-20.9634
 30
0
 70
     0
  0
VERTEX
  8
MACK_GRANITE_265
 10
-2.4896
 20
-21.0897
 30
0
 70
     0
  0
VERTEX
  8
MACK_GRANITE_265
 10
-2.4929
 20
-21.2175
 30
0
 70
     0
  0
SEQEND
  0
POLYLINE
  8
MACK_GRANITE_265
  6
CONTINUOUS
 62
     7
 66
     1
 40
0.0139
 41
0.0139
  0
VERTEX
  8
MACK_GRANITE_265
 10
-22.9534
 20
36.9776
 30
0
 70
     0
  0
VERTEX
  8
MACK_GRANITE_265
 10
-21.3865
 20
36.7789
 30
0
 70
     0
  0
VERTEX
  8
MACK_GRANITE_265
 10
-19.8215
 20
36.5678
 30
0
 70
     0
  0
VERTEX
  8
MACK_GRANITE_265
 10
-18.2586
 20
36.3443
 30
0
 70
     0
  0
VERTEX
  8
MACK_GRANITE_265
 10
-16.6979
 20
36.1085
 30
0
 70
     0
  0
VERTEX
  8
MACK_GRANITE_265
 10
-15.1393
 20
35.8603
 30
0
 70
     0
  0
VERTEX
  8
MACK_GRANITE_265
 10
-13.5831
 20
35.5998
 30
0
 70
     0
  0
VERTEX
  8
MACK_GRANITE_265
 10
-12.0292
 20
35.327
 30
0
 70
     0
  0
VERTEX
  8
MACK_GRANITE_265
 10
-10.4777
 20
35.0419
 30
0
 70
     0
  0
VERTEX
  8
MACK_GRANITE_265
 10
-8.9287
 20
34.7445
 30
0
 70
     0
  0
VERTEX
  8
MACK_GRANITE_265
 10
-7.3823
 20
34.4349
 30
0
 70
     0
  0
VERTEX
  8
MACK_GRANITE_265
 10
-5.8385
 20
34.113
 30
0
 70
     0
  0
VERTEX
  8
MACK_GRANITE_265
 10
-4.2974
 20
33.779
 30
0
 70
     0
  0
VERTEX
  8
MACK_GRANITE_265
 10
-2.7592
 20
33.4327
 30
0
 70
     0
  0
VERTEX
  8
MACK_GRANITE_265
 10
-1.2238
 20
33.0743
 30
0
 70
     0
  0
VERTEX
  8
MACK_GRANITE_265
 10
0.3087
 20
32.7037
 30
0
 70
     0
  0
VERTEX
  8
MACK_GRANITE_265
 10
1.8381
 20
32.3209
 30
0
 70
     0
  0
VERTEX
  8
MACK_GRANITE_265
 10
3.3645
 20
31.9261
 30
0
 70
     0
  0
VERTEX
  8
MACK_GRANITE_265
 10
4.8877
 20
31.5192
 30
0
 70
     0
  0
VERTEX
  8
MACK_GRANITE_265
 10
6.4077
 20
31.1001
 30
0
 70
     0
  0
VERTEX
  8
MACK_GRANITE_265
 10
7.9244
 20
30.669
 30
0
 70
     0
  0
VERTEX
  8
MACK_GRANITE_265
 10
9.4377
 20
30.2259
 30
0
 70
     0
  0
VERTEX
  8
MACK_GRANITE_265
 10
10.9475
 20
29.7707
 30
0
 70
     0
  0
VERTEX
  8
MACK_GRANITE_265
 10
12.4538
 20
29.3036
 30
0
 70
     0
  0
VERTEX
  8
MACK_GRANITE_265
 10
13.9566
 20
28.8244
 30
0
 70
     0
  0
VERTEX
  8
MACK_GRANITE_265
 10
15.4556
 20
28.3333
 30
0
 70
     0
  0
VERTEX
  8
MACK_GRANITE_265
 10
16.951
 20
27.8302
 30
0
 70
     0
  0
VERTEX
  8
MACK_GRANITE_265
 10
18.4425
 20
27.3152
 30
0
 70
     0
  0
VERTEX
  8
MACK_GRANITE_265
 10
19.9301
 20
26.7883
 30
0
 70
     0
  0
VERTEX
  8
MACK_GRANITE_265
 10
21.4137
 20
26.2495
 30
0
 70
     0
  0
VERTEX
  8
MACK_GRANITE_265
 10
22.8934
 20
25.6988
 30
0
 70
     0
  0
VERTEX
  8
MACK_GRANITE_265
 10
24.3689
 20
25.1362
 30
0
 70
     0
  0
VERTEX
  8
MACK_GRANITE_265
 10
25.8402
 20
24.5618
 30
0
 70
     0
  0
SEQEND
  0
POLYLINE
  8
MACK_GRANITE_265
  6
CONTINUOUS
 62
     7
 66
     1
 40
0.0139
 41
0.0139
  0
VERTEX
  8
MACK_GRANITE_265
 10
-26.5623
 20
36.1263
 30
0
 70
     0
  0
VERTEX
  8
MACK_GRANITE_265
 10
-26.6178
 20
36.107
 30
0
 70
     0
  0
VERTEX
  8
MACK_GRANITE_265
 10
-26.6705
 20
36.0765
 30
0
 70
     0
  0
VERTEX
  8
MACK_GRANITE_265
 10
-26.7206
 20
36.0349
 30
0
 70
     0
  0
VERTEX
  8
MACK_GRANITE_265
 10
-26.7681
 20
35.9823
 30
0
 70
     0
  0
VERTEX
  8
MACK_GRANITE_265
 10
-26.813
 20
35.9187
 30
0
 70
     0
  0
VERTEX
  8
MACK_GRANITE_265
 10
-26.8552
 20
35.844
 30
0
 70
     0
  0
VERTEX
  8
MACK_GRANITE_265
 10
-26.8752
 20
35.8025
 30
0
 70
     0
  0
VERTEX
  8
MACK_GRANITE_265
 10
-26.8946
 20
35.7581
 30
0
 70
     0
  0
VERTEX
  8
MACK_GRANITE_265
 10
-26.9041
 20
35.7349
 30
0
 70
     0
  0
VERTEX
  8
MACK_GRANITE_265
 10
-26.9133
 20
35.7109
 30
0
 70
     0
  0
VERTEX
  8
MACK_GRANITE_265
 10
-26.9224
 20
35.6862
 30
0
 70
     0
  0
VERTEX
  8
MACK_GRANITE_265
 10
-26.9312
 20
35.6609
 30
0
 70
     0
  0
VERTEX
  8
MACK_GRANITE_265
 10
-26.9645
 20
35.5533
 30
0
 70
     0
  0
VERTEX
  8
MACK_GRANITE_265
 10
-26.9944
 20
35.4357
 30
0
 70
     0
  0
VERTEX
  8
MACK_GRANITE_265
 10
-27.0209
 20
35.3082
 30
0
 70
     0
  0
VERTEX
  8
MACK_GRANITE_265
 10
-27.0439
 20
35.1708
 30
0
 70
     0
  0
VERTEX
  8
MACK_GRANITE_265
 10
-27.0633
 20
35.0233
 30
0
 70
     0
  0
VERTEX
  8
MACK_GRANITE_265
 10
-27.0791
 20
34.8655
 30
0
 70
     0
  0
VERTEX
  8
MACK_GRANITE_265
 10
-27.0856
 20
34.7827
 30
0
 70
     0
  0
VERTEX
  8
MACK_GRANITE_265
 10
-27.0911
 20
34.6972
 30
0
 70
     0
  0
VERTEX
  8
MACK_GRANITE_265
 10
-27.0935
 20
34.6534
 30
0
 70
     0
  0
VERTEX
  8
MACK_GRANITE_265
 10
-27.0957
 20
34.6091
 30
0
 70
     0
  0
VERTEX
  8
MACK_GRANITE_265
 10
-27.0976
 20
34.5643
 30
0
 70
     0
  0
VERTEX
  8
MACK_GRANITE_265
 10
-27.0992
 20
34.519
 30
0
 70
     0
  0
SEQEND
  0
POLYLINE
  8
MACK_GRANITE_265
  6
CONTINUOUS
 62
     7
 66
     1
 40
0.0139
 41
0.0139
  0
VERTEX
  8
MACK_GRANITE_265
 10
-49.2429
 20
-18.0175
 30
0
 70
     0
  0
VERTEX
  8
MACK_GRANITE_265
 10
-49.2332
 20
-17.6676
 30
0
 70
     0
  0
VERTEX
  8
MACK_GRANITE_265
 10
-49.204
 20
-17.3236
 30
0
 70
     0
  0
VERTEX
  8
MACK_GRANITE_265
 10
-49.1559
 20
-16.9859
 30
0
 70
     0
  0
VERTEX
  8
MACK_GRANITE_265
 10
-49.0894
 20
-16.6552
 30
0
 70
     0
  0
VERTEX
  8
MACK_GRANITE_265
 10
-49.0052
 20
-16.3317
 30
0
 70
     0
  0
VERTEX
  8
MACK_GRANITE_265
 10
-48.9037
 20
-16.0161
 30
0
 70
     0
  0
VERTEX
  8
MACK_GRANITE_265
 10
-48.7856
 20
-15.7088
 30
0
 70
     0
  0
VERTEX
  8
MACK_GRANITE_265
 10
-48.6515
 20
-15.4102
 30
0
 70
     0
  0
VERTEX
  8
MACK_GRANITE_265
 10
-48.502
 20
-15.1209
 30
0
 70
     0
  0
VERTEX
  8
MACK_GRANITE_265
 10
-48.3375
 20
-14.8414
 30
0
 70
     0
  0
VERTEX
  8
MACK_GRANITE_265
 10
-48.1587
 20
-14.572
 30
0
 70
     0
  0
VERTEX
  8
MACK_GRANITE_265
 10
-47.9662
 20
-14.3134
 30
0
 70
     0
  0
VERTEX
  8
MACK_GRANITE_265
 10
-47.7606
 20
-14.0659
 30
0
 70
     0
  0
VERTEX
  8
MACK_GRANITE_265
 10
-47.5424
 20
-13.83
 30
0
 70
     0
  0
VERTEX
  8
MACK_GRANITE_265
 10
-47.3122
 20
-13.6063
 30
0
 70
     0
  0
VERTEX
  8
MACK_GRANITE_265
 10
-47.0706
 20
-13.3952
 30
0
 70
     0
  0
VERTEX
  8
MACK_GRANITE_265
 10
-46.8181
 20
-13.1971
 30
0
 70
     0
  0
VERTEX
  8
MACK_GRANITE_265
 10
-46.5554
 20
-13.0127
 30
0
 70
     0
  0
VERTEX
  8
MACK_GRANITE_265
 10
-46.283
 20
-12.8423
 30
0
 70
     0
  0
VERTEX
  8
MACK_GRANITE_265
 10
-46.0015
 20
-12.6864
 30
0
 70
     0
  0
VERTEX
  8
MACK_GRANITE_265
 10
-45.7115
 20
-12.5455
 30
0
 70
     0
  0
VERTEX
  8
MACK_GRANITE_265
 10
-45.4135
 20
-12.42
 30
0
 70
     0
  0
VERTEX
  8
MACK_GRANITE_265
 10
-45.1082
 20
-12.3106
 30
0
 70
     0
  0
VERTEX
  8
MACK_GRANITE_265
 10
-44.7961
 20
-12.2176
 30
0
 70
     0
  0
VERTEX
  8
MACK_GRANITE_265
 10
-44.4778
 20
-12.1415
 30
0
 70
     0
  0
VERTEX
  8
MACK_GRANITE_265
 10
-44.1538
 20
-12.0828
 30
0
 70
     0
  0
VERTEX
  8
MACK_GRANITE_265
 10
-43.8248
 20
-12.0419
 30
0
 70
     0
  0
VERTEX
  8
MACK_GRANITE_265
 10
-43.4913
 20
-12.0195
 30
0
 70
     0
  0
VERTEX
  8
MACK_GRANITE_265
 10
-43.154
 20
-12.0158
 30
0
 70
     0
  0
VERTEX
  8
MACK_GRANITE_265
 10
-42.8133
 20
-12.0315
 30
0
 70
     0
  0
VERTEX
  8
MACK_GRANITE_265
 10
-42.4699
 20
-12.067
 30
0
 70
     0
  0
VERTEX
  8
MACK_GRANITE_265
 10
-42.1243
 20
-12.1227
 30
0
 70
     0
  0
VERTEX
  8
MACK_GRANITE_265
 10
-42.1243
 20
-12.1227
 30
0
 70
     0
  0
VERTEX
  8
MACK_GRANITE_265
 10
-41.7823
 20
-12.1974
 30
0
 70
     0
  0
VERTEX
  8
MACK_GRANITE_265
 10
-41.4498
 20
-12.2902
 30
0
 70
     0
  0
VERTEX
  8
MACK_GRANITE_265
 10
-41.127
 20
-12.4004
 30
0
 70
     0
  0
VERTEX
  8
MACK_GRANITE_265
 10
-40.8144
 20
-12.5274
 30
0
 70
     0
  0
VERTEX
  8
MACK_GRANITE_265
 10
-40.5124
 20
-12.6705
 30
0
 70
     0
  0
VERTEX
  8
MACK_GRANITE_265
 10
-40.2212
 20
-12.829
 30
0
 70
     0
  0
VERTEX
  8
MACK_GRANITE_265
 10
-39.9413
 20
-13.0023
 30
0
 70
     0
  0
VERTEX
  8
MACK_GRANITE_265
 10
-39.673
 20
-13.1897
 30
0
 70
     0
  0
VERTEX
  8
MACK_GRANITE_265
 10
-39.4166
 20
-13.3906
 30
0
 70
     0
  0
VERTEX
  8
MACK_GRANITE_265
 10
-39.1726
 20
-13.6043
 30
0
 70
     0
  0
VERTEX
  8
MACK_GRANITE_265
 10
-38.9413
 20
-13.8301
 30
0
 70
     0
  0
VERTEX
  8
MACK_GRANITE_265
 10
-38.7231
 20
-14.0675
 30
0
 70
     0
  0
VERTEX
  8
MACK_GRANITE_265
 10
-38.5182
 20
-14.3157
 30
0
 70
     0
  0
VERTEX
  8
MACK_GRANITE_265
 10
-38.3272
 20
-14.574
 30
0
 70
     0
  0
VERTEX
  8
MACK_GRANITE_265
 10
-38.1503
 20
-14.8419
 30
0
 70
     0
  0
VERTEX
  8
MACK_GRANITE_265
 10
-37.988
 20
-15.1186
 30
0
 70
     0
  0
VERTEX
  8
MACK_GRANITE_265
 10
-37.8405
 20
-15.4036
 30
0
 70
     0
  0
VERTEX
  8
MACK_GRANITE_265
 10
-37.7082
 20
-15.6961
 30
0
 70
     0
  0
VERTEX
  8
MACK_GRANITE_265
 10
-37.5916
 20
-15.9955
 30
0
 70
     0
  0
VERTEX
  8
MACK_GRANITE_265
 10
-37.4909
 20
-16.3011
 30
0
 70
     0
  0
VERTEX
  8
MACK_GRANITE_265
 10
-37.4065
 20
-16.6123
 30
0
 70
     0
  0
VERTEX
  8
MACK_GRANITE_265
 10
-37.3389
 20
-16.9284
 30
0
 70
     0
  0
VERTEX
  8
MACK_GRANITE_265
 10
-37.2882
 20
-17.2488
 30
0
 70
     0
  0
VERTEX
  8
MACK_GRANITE_265
 10
-37.255
 20
-17.5728
 30
0
 70
     0
  0
VERTEX
  8
MACK_GRANITE_265
 10
-37.2396
 20
-17.8997
 30
0
 70
     0
  0
VERTEX
  8
MACK_GRANITE_265
 10
-37.2423
 20
-18.2289
 30
0
 70
     0
  0
VERTEX
  8
MACK_GRANITE_265
 10
-37.2636
 20
-18.5598
 30
0
 70
     0
  0
VERTEX
  8
MACK_GRANITE_265
 10
-37.3036
 20
-18.8916
 30
0
 70
     0
  0
VERTEX
  8
MACK_GRANITE_265
 10
-37.363
 20
-19.2237
 30
0
 70
     0
  0
VERTEX
  8
MACK_GRANITE_265
 10
-37.4419
 20
-19.5555
 30
0
 70
     0
  0
VERTEX
  8
MACK_GRANITE_265
 10
-37.5407
 20
-19.8863
 30
0
 70
     0
  0
VERTEX
  8
MACK_GRANITE_265
 10
-37.6599
 20
-20.2154
 30
0
 70
     0
  0
SEQEND
  0
POLYLINE
  8
MACK_GRANITE_265
  6
CONTINUOUS
 62
     7
 66
     1
 40
0.0139
 41
0.0139
  0
VERTEX
  8
MACK_GRANITE_265
 10
-38.9564
 20
-22.2159
 30
0
 70
     0
  0
VERTEX
  8
MACK_GRANITE_265
 10
-39.1811
 20
-22.4341
 30
0
 70
     0
  0
VERTEX
  8
MACK_GRANITE_265
 10
-39.4141
 20
-22.6383
 30
0
 70
     0
  0
VERTEX
  8
MACK_GRANITE_265
 10
-39.6548
 20
-22.8284
 30
0
 70
     0
  0
VERTEX
  8
MACK_GRANITE_265
 10
-39.9028
 20
-23.0044
 30
0
 70
     0
  0
VERTEX
  8
MACK_GRANITE_265
 10
-40.1575
 20
-23.1663
 30
0
 70
     0
  0
VERTEX
  8
MACK_GRANITE_265
 10
-40.4183
 20
-23.3142
 30
0
 70
     0
  0
VERTEX
  8
MACK_GRANITE_265
 10
-40.6847
 20
-23.448
 30
0
 70
     0
  0
VERTEX
  8
MACK_GRANITE_265
 10
-40.956
 20
-23.5677
 30
0
 70
     0
  0
VERTEX
  8
MACK_GRANITE_265
 10
-41.2319
 20
-23.6734
 30
0
 70
     0
  0
VERTEX
  8
MACK_GRANITE_265
 10
-41.5116
 20
-23.7649
 30
0
 70
     0
  0
VERTEX
  8
MACK_GRANITE_265
 10
-41.7947
 20
-23.8425
 30
0
 70
     0
  0
VERTEX
  8
MACK_GRANITE_265
 10
-42.0805
 20
-23.9059
 30
0
 70
     0
  0
VERTEX
  8
MACK_GRANITE_265
 10
-42.3686
 20
-23.9553
 30
0
 70
     0
  0
VERTEX
  8
MACK_GRANITE_265
 10
-42.6583
 20
-23.9905
 30
0
 70
     0
  0
VERTEX
  8
MACK_GRANITE_265
 10
-42.9492
 20
-24.0118
 30
0
 70
     0
  0
VERTEX
  8
MACK_GRANITE_265
 10
-43.2406
 20
-24.0189
 30
0
 70
     0
  0
VERTEX
  8
MACK_GRANITE_265
 10
-43.5321
 20
-24.012
 30
0
 70
     0
  0
VERTEX
  8
MACK_GRANITE_265
 10
-43.8229
 20
-23.991
 30
0
 70
     0
  0
VERTEX
  8
MACK_GRANITE_265
 10
-44.1127
 20
-23.9559
 30
0
 70
     0
  0
VERTEX
  8
MACK_GRANITE_265
 10
-44.4008
 20
-23.9067
 30
0
 70
     0
  0
VERTEX
  8
MACK_GRANITE_265
 10
-44.6867
 20
-23.8435
 30
0
 70
     0
  0
VERTEX
  8
MACK_GRANITE_265
 10
-44.9698
 20
-23.7662
 30
0
 70
     0
  0
VERTEX
  8
MACK_GRANITE_265
 10
-45.2496
 20
-23.6749
 30
0
 70
     0
  0
VERTEX
  8
MACK_GRANITE_265
 10
-45.5255
 20
-23.5694
 30
0
 70
     0
  0
VERTEX
  8
MACK_GRANITE_265
 10
-45.797
 20
-23.4499
 30
0
 70
     0
  0
VERTEX
  8
MACK_GRANITE_265
 10
-46.0635
 20
-23.3163
 30
0
 70
     0
  0
VERTEX
  8
MACK_GRANITE_265
 10
-46.3244
 20
-23.1686
 30
0
 70
     0
  0
VERTEX
  8
MACK_GRANITE_265
 10
-46.5792
 20
-23.0069
 30
0
 70
     0
  0
VERTEX
  8
MACK_GRANITE_265
 10
-46.8273
 20
-22.831
 30
0
 70
     0
  0
VERTEX
  8
MACK_GRANITE_265
 10
-47.0682
 20
-22.6411
 30
0
 70
     0
  0
VERTEX
  8
MACK_GRANITE_265
 10
-47.3013
 20
-22.4371
 30
0
 70
     0
  0
VERTEX
  8
MACK_GRANITE_265
 10
-47.5261
 20
-22.2191
 30
0
 70
     0
  0
SEQEND
  0
POLYLINE
  8
MACK_GRANITE_265
  6
CONTINUOUS
 62
     7
 66
     1
 40
0.0139
 41
0.0139
  0
VERTEX
  8
MACK_GRANITE_265
 10
-48.8241
 20
-20.2196
 30
0
 70
     0
  0
VERTEX
  8
MACK_GRANITE_265
 10
-48.9217
 20
-19.9549
 30
0
 70
     0
  0
VERTEX
  8
MACK_GRANITE_265
 10
-49.0065
 20
-19.6863
 30
0
 70
     0
  0
VERTEX
  8
MACK_GRANITE_265
 10
-49.0784
 20
-19.4143
 30
0
 70
     0
  0
VERTEX
  8
MACK_GRANITE_265
 10
-49.1375
 20
-19.1394
 30
0
 70
     0
  0
VERTEX
  8
MACK_GRANITE_265
 10
-49.1835
 20
-18.8621
 30
0
 70
     0
  0
VERTEX
  8
MACK_GRANITE_265
 10
-49.2165
 20
-18.5827
 30
0
 70
     0
  0
VERTEX
  8
MACK_GRANITE_265
 10
-49.2363
 20
-18.3017
 30
0
 70
     0
  0
VERTEX
  8
MACK_GRANITE_265
 10
-49.2429
 20
-18.0197
 30
0
 70
     0
  0
SEQEND
  0
POLYLINE
  8
MACK_GRANITE_265
  6
CONTINUOUS
 62
     7
 66
     1
 40
0.0139
 41
0.0139
  0
VERTEX
  8
MACK_GRANITE_265
 10
-30.3776
 20
0.9825
 30
0
 70
     0
  0
VERTEX
  8
MACK_GRANITE_265
 10
-29.8233
 20
0.9825
 30
0
 70
     0
  0
SEQEND
  0
POLYLINE
  8
MACK_GRANITE_265
  6
CONTINUOUS
 62
     7
 66
     1
 40
0.0139
 41
0.0139
  0
VERTEX
  8
MACK_GRANITE_265
 10
-30.2425
 20
5.2325
 30
0
 70
     0
  0
VERTEX
  8
MACK_GRANITE_265
 10
-30.3776
 20
5.2325
 30
0
 70
     0
  0
SEQEND
  0
POLYLINE
  8
MACK_GRANITE_265
  6
CONTINUOUS
 62
     7
 66
     1
 40
0.0139
 41
0.0139
  0
VERTEX
  8
MACK_GRANITE_265
 10
-30.2425
 20
35.0712
 30
0
 70
     0
  0
VERTEX
  8
MACK_GRANITE_265
 10
-30.2425
 20
5.2325
 30
0
 70
     0
  0
SEQEND
  0
POLYLINE
  8
MACK_GRANITE_265
  6
CONTINUOUS
 62
     7
 66
     1
 40
0.0139
 41
0.0139
  0
VERTEX
  8
MACK_GRANITE_265
 10
-30.3776
 20
35.6341
 30
0
 70
     0
  0
VERTEX
  8
MACK_GRANITE_265
 10
-30.2425
 20
35.0712
 30
0
 70
     0
  0
SEQEND
  0
POLYLINE
  8
MACK_GRANITE_265
  6
CONTINUOUS
 62
     7
 66
     1
 40
0.0139
 41
0.0139
  0
VERTEX
  8
MACK_GRANITE_265
 10
-30.3776
 20
35.7165
 30
0
 70
     0
  0
VERTEX
  8
MACK_GRANITE_265
 10
-29.8233
 20
35.7821
 30
0
 70
     0
  0
SEQEND
  0
POLYLINE
  8
MACK_GRANITE_265
  6
CONTINUOUS
 62
     7
 66
     1
 40
0.0139
 41
0.0139
  0
VERTEX
  8
MACK_GRANITE_265
 10
-71.9925
 20
0.9825
 30
0
 70
     0
  0
VERTEX
  8
MACK_GRANITE_265
 10
-30.3776
 20
0.9825
 30
0
 70
     0
  0
SEQEND
  0
POLYLINE
  8
MACK_GRANITE_265
  6
CONTINUOUS
 62
     7
 66
     1
 40
0.0139
 41
0.0139
  0
VERTEX
  8
MACK_GRANITE_265
 10
-24.2179
 20
0.9825
 30
0
 70
     0
  0
VERTEX
  8
MACK_GRANITE_265
 10
-29.8233
 20
0.9825
 30
0
 70
     0
  0
SEQEND
  0
POLYLINE
  8
MACK_GRANITE_265
  6
CONTINUOUS
 62
     7
 66
     1
 40
0.0139
 41
0.0139
  0
VERTEX
  8
MACK_GRANITE_265
 10
29.0071
 20
19.4007
 30
0
 70
     0
  0
VERTEX
  8
MACK_GRANITE_265
 10
29.0071
 20
19.9099
 30
0
 70
     0
  0
SEQEND
  0
POLYLINE
  8
MACK_GRANITE_265
  6
CONTINUOUS
 62
     7
 66
     1
 40
0.0139
 41
0.0139
  0
VERTEX
  8
MACK_GRANITE_265
 10
-22.9533
 20
36.9776
 30
0
 70
     0
  0
VERTEX
  8
MACK_GRANITE_265
 10
-22.9929
 20
36.9825
 30
0
 70
     0
  0
SEQEND
  0
POLYLINE
  8
MACK_GRANITE_265
  6
CONTINUOUS
 62
     7
 66
     1
 40
0.0139
 41
0.0139
  0
VERTEX
  8
MACK_GRANITE_265
 10
29.0071
 20
4.6867
 30
0
 70
     0
  0
VERTEX
  8
MACK_GRANITE_265
 10
29.0071
 20
19.4007
 30
0
 70
     0
  0
SEQEND
  0
POLYLINE
  8
MACK_GRANITE_265
  6
CONTINUOUS
 62
     7
 66
     1
 40
0.0139
 41
0.0139
  0
VERTEX
  8
MACK_GRANITE_265
 10
-14.9929
 20
5.2825
 30
0
 70
     0
  0
VERTEX
  8
MACK_GRANITE_265
 10
-18.2179
 20
0.9825
 30
0
 70
     0
  0
SEQEND
  0
POLYLINE
  8
MACK_GRANITE_265
  6
CONTINUOUS
 62
     7
 66
     1
 40
0.0139
 41
0.0139
  0
VERTEX
  8
MACK_GRANITE_265
 10
-18.2179
 20
0.9825
 30
0
 70
     0
  0
VERTEX
  8
MACK_GRANITE_265
 10
-21.1163
 20
0.9825
 30
0
 70
     0
  0
SEQEND
  0
POLYLINE
  8
MACK_GRANITE_265
  6
CONTINUOUS
 62
     7
 66
     1
 40
0.0139
 41
0.0139
  0
VERTEX
  8
MACK_GRANITE_265
 10
26.0071
 20
-6.7175
 30
0
 70
     0
  0
VERTEX
  8
MACK_GRANITE_265
 10
24.0071
 20
-6.7175
 30
0
 70
     0
  0
SEQEND
  0
POLYLINE
  8
MACK_GRANITE_265
  6
CONTINUOUS
 62
     7
 66
     1
 40
0.0139
 41
0.0139
  0
VERTEX
  8
MACK_GRANITE_265
 10
24.0071
 20
-6.7175
 30
0
 70
     0
  0
VERTEX
  8
MACK_GRANITE_265
 10
15.0071
 20
5.2825
 30
0
 70
     0
  0
SEQEND
  0
POLYLINE
  8
MACK_GRANITE_265
  6
CONTINUOUS
 62
     7
 66
     1
 40
0.0139
 41
0.0139
  0
VERTEX
  8
MACK_GRANITE_265
 10
15.0071
 20
5.2825
 30
0
 70
     0
  0
VERTEX
  8
MACK_GRANITE_265
 10
-14.9929
 20
5.2825
 30
0
 70
     0
  0
SEQEND
  0
POLYLINE
  8
MACK_GRANITE_265
  6
CONTINUOUS
 62
     7
 66
     1
 40
0.0139
 41
0.0139
  0
VERTEX
  8
MACK_GRANITE_265
 10
-22.9929
 20
36.9825
 30
0
 70
     0
  0
VERTEX
  8
MACK_GRANITE_265
 10
-26.5623
 20
36.1263
 30
0
 70
     0
  0
SEQEND
  0
POLYLINE
  8
MACK_GRANITE_265
  6
CONTINUOUS
 62
     7
 66
     1
 40
0.0139
 41
0.0139
  0
VERTEX
  8
MACK_GRANITE_265
 10
35.0071
 20
-10.7175
 30
0
 70
     0
  0
VERTEX
  8
MACK_GRANITE_265
 10
35.0071
 20
-21.2175
 30
0
 70
     0
  0
SEQEND
  0
POLYLINE
  8
MACK_GRANITE_265
  6
CONTINUOUS
 62
     7
 66
     1
 40
0.0139
 41
0.0139
  0
VERTEX
  8
MACK_GRANITE_265
 10
-65.7425
 20
13.1325
 30
0
 70
     0
  0
VERTEX
  8
MACK_GRANITE_265
 10
-64.9925
 20
13.1325
 30
0
 70
     0
  0
SEQEND
  0
POLYLINE
  8
MACK_GRANITE_265
  6
CONTINUOUS
 62
     7
 66
     1
 40
0.0139
 41
0.0139
  0
VERTEX
  8
MACK_GRANITE_265
 10
-64.9925
 20
17.1325
 30
0
 70
     0
  0
VERTEX
  8
MACK_GRANITE_265
 10
-65.7425
 20
17.1325
 30
0
 70
     0
  0
SEQEND
  0
POLYLINE
  8
MACK_GRANITE_265
  6
CONTINUOUS
 62
    90
 66
     1
 40
0.0139
 41
0.0139
  0
VERTEX
  8
MACK_GRANITE_265
 10
-77.9821
 20
2.0735
 30
0
 70
     0
  0
VERTEX
  8
MACK_GRANITE_265
 10
-77.9821
 20
-1.2761
 30
0
 70
     0
  0
SEQEND
  0
ENDSEC
  0
EOF
