  0
SECTION
  2
HEADER
  9
$ACADVER
  1
AC1006
  9
$AXISMODE
 70
     0
  9
$AXISUNIT
 10
0.125
 20
0.125
  9
$CECOLOR
 62
0
  9
$CELTYPE
  6
CONTINUOUS
  9
$CLAYER
  8
MACK_GRANITE_265
  9
$EXTMIN
 10
0
 20
0
  9
$EXTMAX
 10
119.9722
 20
59.9722
  9
$LIMMIN
 10
0
 20
0
  9
$LIMMAX
 10
119.9722
 20
59.9722
  9
$GRIDMODE
 70
     0
  9
$GRIDUNIT
 10
0.125
 20
0.125
  9
$MIRRTEXT
 70
     1
  9
$SNAPMODE
 70
     1
  9
$SNAPUNIT
 10
0.125
 20
0
  9
$SNAPSTYLE
 70
     0
  9
$SPLINESEGS
 70
     8
  9
$SPLINETYPE
 70
     6
  0
ENDSEC
  0
SECTION
  2
TABLES
  0
TABLE
  2
LTYPE
 70
     1
  0
LTYPE
  2
CONTINUOUS
 70
    64
  3
Descriptive Text
 72
    65
 73
     0
 40
0
  0
ENDTAB
  0
TABLE
  2
LAYER
 70
     1
  0
LAYER
  2
MACK_GRANITE_265
 70
     0
 62
     7
  6
CONTINUOUS
  0
ENDTAB
  0
TABLE
  2
STYLE
 70
     2
  0
STYLE
  2
STANDARD
 70
    64
 40
0.0
 41
1.0
 50
0.0
 71
     0
 42
0.2
  3
txt
  4

  0
STYLE
  2
ARIAL
 70
    64
 40
0.0
 41
1.0
 50
0.0
 71
     0
 42
0.2
  3
arial
  4

  0
STYLE
  2
COURIER
 70
    64
 40
0.0
 41
1.0
 50
0.0
 71
     0
 42
0.2
  3
courier
  4

  0
ENDTAB
  0
TABLE
  2
VIEW
 70
     0
  0
ENDTAB
  0
TABLE
  2
USC
 70
     0
  0
ENDTAB
  0
TABLE
  2
DWGMGR
 70
     0
  0
ENDTAB
  0
ENDSEC
  0
SECTION
  2
BLOCKS
  0
ENDSEC
  0
SECTION
  2
ENTITIES
  0
POLYLINE
  8
MACK_GRANITE_265
  6
CONTINUOUS
 62
     7
 66
     1
 40
0.0139
 41
0.0139
  0
VERTEX
  8
MACK_GRANITE_265
 10
59.9727
 20
0.0105
 30
0
 70
     0
  0
VERTEX
  8
MACK_GRANITE_265
 10
59.6365
 20
0.0013
 30
0
 70
     0
  0
VERTEX
  8
MACK_GRANITE_265
 10
59.3033
 20
-0.0265
 30
0
 70
     0
  0
VERTEX
  8
MACK_GRANITE_265
 10
58.9736
 20
-0.0726
 30
0
 70
     0
  0
VERTEX
  8
MACK_GRANITE_265
 10
58.6482
 20
-0.1367
 30
0
 70
     0
  0
VERTEX
  8
MACK_GRANITE_265
 10
58.3278
 20
-0.2185
 30
0
 70
     0
  0
VERTEX
  8
MACK_GRANITE_265
 10
58.013
 20
-0.3176
 30
0
 70
     0
  0
VERTEX
  8
MACK_GRANITE_265
 10
57.7046
 20
-0.4337
 30
0
 70
     0
  0
VERTEX
  8
MACK_GRANITE_265
 10
57.4032
 20
-0.5664
 30
0
 70
     0
  0
VERTEX
  8
MACK_GRANITE_265
 10
57.1096
 20
-0.7156
 30
0
 70
     0
  0
VERTEX
  8
MACK_GRANITE_265
 10
56.8244
 20
-0.8807
 30
0
 70
     0
  0
VERTEX
  8
MACK_GRANITE_265
 10
56.5484
 20
-1.0615
 30
0
 70
     0
  0
VERTEX
  8
MACK_GRANITE_265
 10
56.2822
 20
-1.2577
 30
0
 70
     0
  0
VERTEX
  8
MACK_GRANITE_265
 10
56.0265
 20
-1.4689
 30
0
 70
     0
  0
VERTEX
  8
MACK_GRANITE_265
 10
55.782
 20
-1.6949
 30
0
 70
     0
  0
VERTEX
  8
MACK_GRANITE_265
 10
55.5494
 20
-1.9352
 30
0
 70
     0
  0
VERTEX
  8
MACK_GRANITE_265
 10
55.3294
 20
-2.1895
 30
0
 70
     0
  0
SEQEND
  0
POLYLINE
  8
MACK_GRANITE_265
  6
CONTINUOUS
 62
     7
 66
     1
 40
0.0139
 41
0.0139
  0
VERTEX
  8
MACK_GRANITE_265
 10
54.2491
 20
-4.1895
 30
0
 70
     0
  0
VERTEX
  8
MACK_GRANITE_265
 10
54.1844
 20
-4.409
 30
0
 70
     0
  0
VERTEX
  8
MACK_GRANITE_265
 10
54.1283
 20
-4.6305
 30
0
 70
     0
  0
VERTEX
  8
MACK_GRANITE_265
 10
54.0808
 20
-4.8539
 30
0
 70
     0
  0
VERTEX
  8
MACK_GRANITE_265
 10
54.0418
 20
-5.0789
 30
0
 70
     0
  0
VERTEX
  8
MACK_GRANITE_265
 10
54.0115
 20
-5.3052
 30
0
 70
     0
  0
VERTEX
  8
MACK_GRANITE_265
 10
53.9898
 20
-5.5326
 30
0
 70
     0
  0
VERTEX
  8
MACK_GRANITE_265
 10
53.9769
 20
-5.7607
 30
0
 70
     0
  0
VERTEX
  8
MACK_GRANITE_265
 10
53.9727
 20
-5.9895
 30
0
 70
     0
  0
SEQEND
  0
POLYLINE
  8
MACK_GRANITE_265
  6
CONTINUOUS
 62
     7
 66
     1
 40
0.0139
 41
0.0139
  0
VERTEX
  8
MACK_GRANITE_265
 10
95.9727
 20
-5.9917
 30
0
 70
     0
  0
VERTEX
  8
MACK_GRANITE_265
 10
95.9652
 20
-5.6829
 30
0
 70
     0
  0
VERTEX
  8
MACK_GRANITE_265
 10
95.9424
 20
-5.3781
 30
0
 70
     0
  0
VERTEX
  8
MACK_GRANITE_265
 10
95.9045
 20
-5.0778
 30
0
 70
     0
  0
VERTEX
  8
MACK_GRANITE_265
 10
95.852
 20
-4.7822
 30
0
 70
     0
  0
VERTEX
  8
MACK_GRANITE_265
 10
95.7852
 20
-4.4918
 30
0
 70
     0
  0
VERTEX
  8
MACK_GRANITE_265
 10
95.7045
 20
-4.207
 30
0
 70
     0
  0
VERTEX
  8
MACK_GRANITE_265
 10
95.6103
 20
-3.9281
 30
0
 70
     0
  0
VERTEX
  8
MACK_GRANITE_265
 10
95.503
 20
-3.6554
 30
0
 70
     0
  0
VERTEX
  8
MACK_GRANITE_265
 10
95.383
 20
-3.3895
 30
0
 70
     0
  0
VERTEX
  8
MACK_GRANITE_265
 10
95.2506
 20
-3.1307
 30
0
 70
     0
  0
VERTEX
  8
MACK_GRANITE_265
 10
95.1062
 20
-2.8792
 30
0
 70
     0
  0
VERTEX
  8
MACK_GRANITE_265
 10
94.9501
 20
-2.6356
 30
0
 70
     0
  0
VERTEX
  8
MACK_GRANITE_265
 10
94.7829
 20
-2.4002
 30
0
 70
     0
  0
VERTEX
  8
MACK_GRANITE_265
 10
94.6048
 20
-2.1734
 30
0
 70
     0
  0
VERTEX
  8
MACK_GRANITE_265
 10
94.4162
 20
-1.9556
 30
0
 70
     0
  0
VERTEX
  8
MACK_GRANITE_265
 10
94.2175
 20
-1.7471
 30
0
 70
     0
  0
VERTEX
  8
MACK_GRANITE_265
 10
94.0091
 20
-1.5482
 30
0
 70
     0
  0
VERTEX
  8
MACK_GRANITE_265
 10
93.7913
 20
-1.3595
 30
0
 70
     0
  0
VERTEX
  8
MACK_GRANITE_265
 10
93.5646
 20
-1.1813
 30
0
 70
     0
  0
VERTEX
  8
MACK_GRANITE_265
 10
93.3293
 20
-1.0139
 30
0
 70
     0
  0
VERTEX
  8
MACK_GRANITE_265
 10
93.0858
 20
-0.8578
 30
0
 70
     0
  0
VERTEX
  8
MACK_GRANITE_265
 10
92.8345
 20
-0.7132
 30
0
 70
     0
  0
VERTEX
  8
MACK_GRANITE_265
 10
92.5757
 20
-0.5806
 30
0
 70
     0
  0
VERTEX
  8
MACK_GRANITE_265
 10
92.3098
 20
-0.4604
 30
0
 70
     0
  0
VERTEX
  8
MACK_GRANITE_265
 10
92.0373
 20
-0.353
 30
0
 70
     0
  0
VERTEX
  8
MACK_GRANITE_265
 10
91.7584
 20
-0.2587
 30
0
 70
     0
  0
VERTEX
  8
MACK_GRANITE_265
 10
91.4736
 20
-0.1778
 30
0
 70
     0
  0
VERTEX
  8
MACK_GRANITE_265
 10
91.1832
 20
-0.1109
 30
0
 70
     0
  0
VERTEX
  8
MACK_GRANITE_265
 10
90.8877
 20
-0.0582
 30
0
 70
     0
  0
VERTEX
  8
MACK_GRANITE_265
 10
90.5874
 20
-0.0202
 30
0
 70
     0
  0
VERTEX
  8
MACK_GRANITE_265
 10
90.2826
 20
0.0029
 30
0
 70
     0
  0
VERTEX
  8
MACK_GRANITE_265
 10
89.9738
 20
0.0105
 30
0
 70
     0
  0
SEQEND
  0
POLYLINE
  8
MACK_GRANITE_265
  6
CONTINUOUS
 62
     7
 66
     1
 40
0.0139
 41
0.0139
  0
VERTEX
  8
MACK_GRANITE_265
 10
53.9727
 20
-17.9895
 30
0
 70
     0
  0
VERTEX
  8
MACK_GRANITE_265
 10
53.9791
 20
-18.2712
 30
0
 70
     0
  0
VERTEX
  8
MACK_GRANITE_265
 10
53.9988
 20
-18.5519
 30
0
 70
     0
  0
VERTEX
  8
MACK_GRANITE_265
 10
54.0316
 20
-18.831
 30
0
 70
     0
  0
VERTEX
  8
MACK_GRANITE_265
 10
54.0774
 20
-19.1082
 30
0
 70
     0
  0
VERTEX
  8
MACK_GRANITE_265
 10
54.1363
 20
-19.3828
 30
0
 70
     0
  0
VERTEX
  8
MACK_GRANITE_265
 10
54.208
 20
-19.6546
 30
0
 70
     0
  0
VERTEX
  8
MACK_GRANITE_265
 10
54.2925
 20
-19.9229
 30
0
 70
     0
  0
VERTEX
  8
MACK_GRANITE_265
 10
54.3898
 20
-20.1874
 30
0
 70
     0
  0
SEQEND
  0
POLYLINE
  8
MACK_GRANITE_265
  6
CONTINUOUS
 62
     7
 66
     1
 40
0.0139
 41
0.0139
  0
VERTEX
  8
MACK_GRANITE_265
 10
55.6863
 20
-22.1879
 30
0
 70
     0
  0
VERTEX
  8
MACK_GRANITE_265
 10
55.9024
 20
-22.3981
 30
0
 70
     0
  0
VERTEX
  8
MACK_GRANITE_265
 10
56.1278
 20
-22.5963
 30
0
 70
     0
  0
VERTEX
  8
MACK_GRANITE_265
 10
56.362
 20
-22.7822
 30
0
 70
     0
  0
VERTEX
  8
MACK_GRANITE_265
 10
56.6045
 20
-22.9558
 30
0
 70
     0
  0
VERTEX
  8
MACK_GRANITE_265
 10
56.8547
 20
-23.1166
 30
0
 70
     0
  0
VERTEX
  8
MACK_GRANITE_265
 10
57.1121
 20
-23.2646
 30
0
 70
     0
  0
VERTEX
  8
MACK_GRANITE_265
 10
57.3762
 20
-23.3996
 30
0
 70
     0
  0
VERTEX
  8
MACK_GRANITE_265
 10
57.6465
 20
-23.5212
 30
0
 70
     0
  0
VERTEX
  8
MACK_GRANITE_265
 10
57.9225
 20
-23.6293
 30
0
 70
     0
  0
VERTEX
  8
MACK_GRANITE_265
 10
58.2037
 20
-23.7237
 30
0
 70
     0
  0
VERTEX
  8
MACK_GRANITE_265
 10
58.4895
 20
-23.8041
 30
0
 70
     0
  0
VERTEX
  8
MACK_GRANITE_265
 10
58.7795
 20
-23.8704
 30
0
 70
     0
  0
VERTEX
  8
MACK_GRANITE_265
 10
59.073
 20
-23.9223
 30
0
 70
     0
  0
VERTEX
  8
MACK_GRANITE_265
 10
59.3698
 20
-23.9596
 30
0
 70
     0
  0
VERTEX
  8
MACK_GRANITE_265
 10
59.6691
 20
-23.982
 30
0
 70
     0
  0
VERTEX
  8
MACK_GRANITE_265
 10
59.9705
 20
-23.9895
 30
0
 70
     0
  0
SEQEND
  0
POLYLINE
  8
MACK_GRANITE_265
  6
CONTINUOUS
 62
     7
 66
     1
 40
0.0139
 41
0.0139
  0
VERTEX
  8
MACK_GRANITE_265
 10
89.9705
 20
-23.9895
 30
0
 70
     0
  0
VERTEX
  8
MACK_GRANITE_265
 10
90.2792
 20
-23.982
 30
0
 70
     0
  0
VERTEX
  8
MACK_GRANITE_265
 10
90.584
 20
-23.9592
 30
0
 70
     0
  0
VERTEX
  8
MACK_GRANITE_265
 10
90.8843
 20
-23.9213
 30
0
 70
     0
  0
VERTEX
  8
MACK_GRANITE_265
 10
91.1798
 20
-23.8688
 30
0
 70
     0
  0
VERTEX
  8
MACK_GRANITE_265
 10
91.4702
 20
-23.802
 30
0
 70
     0
  0
VERTEX
  8
MACK_GRANITE_265
 10
91.755
 20
-23.7214
 30
0
 70
     0
  0
VERTEX
  8
MACK_GRANITE_265
 10
92.0339
 20
-23.6272
 30
0
 70
     0
  0
VERTEX
  8
MACK_GRANITE_265
 10
92.3065
 20
-23.52
 30
0
 70
     0
  0
VERTEX
  8
MACK_GRANITE_265
 10
92.5724
 20
-23.4
 30
0
 70
     0
  0
VERTEX
  8
MACK_GRANITE_265
 10
92.8312
 20
-23.2676
 30
0
 70
     0
  0
VERTEX
  8
MACK_GRANITE_265
 10
93.0826
 20
-23.1232
 30
0
 70
     0
  0
VERTEX
  8
MACK_GRANITE_265
 10
93.3262
 20
-22.9672
 30
0
 70
     0
  0
VERTEX
  8
MACK_GRANITE_265
 10
93.5616
 20
-22.8
 30
0
 70
     0
  0
VERTEX
  8
MACK_GRANITE_265
 10
93.7884
 20
-22.6219
 30
0
 70
     0
  0
VERTEX
  8
MACK_GRANITE_265
 10
94.0062
 20
-22.4334
 30
0
 70
     0
  0
VERTEX
  8
MACK_GRANITE_265
 10
94.2147
 20
-22.2347
 30
0
 70
     0
  0
VERTEX
  8
MACK_GRANITE_265
 10
94.4135
 20
-22.0263
 30
0
 70
     0
  0
VERTEX
  8
MACK_GRANITE_265
 10
94.6023
 20
-21.8086
 30
0
 70
     0
  0
VERTEX
  8
MACK_GRANITE_265
 10
94.7805
 20
-21.582
 30
0
 70
     0
  0
VERTEX
  8
MACK_GRANITE_265
 10
94.9479
 20
-21.3467
 30
0
 70
     0
  0
VERTEX
  8
MACK_GRANITE_265
 10
95.1041
 20
-21.1032
 30
0
 70
     0
  0
VERTEX
  8
MACK_GRANITE_265
 10
95.2486
 20
-20.852
 30
0
 70
     0
  0
VERTEX
  8
MACK_GRANITE_265
 10
95.3812
 20
-20.5932
 30
0
 70
     0
  0
VERTEX
  8
MACK_GRANITE_265
 10
95.5014
 20
-20.3274
 30
0
 70
     0
  0
VERTEX
  8
MACK_GRANITE_265
 10
95.6089
 20
-20.0549
 30
0
 70
     0
  0
VERTEX
  8
MACK_GRANITE_265
 10
95.7033
 20
-19.7761
 30
0
 70
     0
  0
VERTEX
  8
MACK_GRANITE_265
 10
95.7841
 20
-19.4913
 30
0
 70
     0
  0
VERTEX
  8
MACK_GRANITE_265
 10
95.8511
 20
-19.201
 30
0
 70
     0
  0
VERTEX
  8
MACK_GRANITE_265
 10
95.9038
 20
-18.9055
 30
0
 70
     0
  0
VERTEX
  8
MACK_GRANITE_265
 10
95.9419
 20
-18.6052
 30
0
 70
     0
  0
VERTEX
  8
MACK_GRANITE_265
 10
95.965
 20
-18.3005
 30
0
 70
     0
  0
VERTEX
  8
MACK_GRANITE_265
 10
95.9727
 20
-17.9917
 30
0
 70
     0
  0
SEQEND
  0
POLYLINE
  8
MACK_GRANITE_265
  6
CONTINUOUS
 62
     7
 66
     1
 40
0.0139
 41
0.0139
  0
VERTEX
  8
MACK_GRANITE_265
 10
89.9708
 20
-23.9895
 30
0
 70
     0
  0
VERTEX
  8
MACK_GRANITE_265
 10
90.2796
 20
-23.982
 30
0
 70
     0
  0
VERTEX
  8
MACK_GRANITE_265
 10
90.5843
 20
-23.9592
 30
0
 70
     0
  0
VERTEX
  8
MACK_GRANITE_265
 10
90.8847
 20
-23.9213
 30
0
 70
     0
  0
VERTEX
  8
MACK_GRANITE_265
 10
91.1802
 20
-23.8688
 30
0
 70
     0
  0
VERTEX
  8
MACK_GRANITE_265
 10
91.4706
 20
-23.802
 30
0
 70
     0
  0
VERTEX
  8
MACK_GRANITE_265
 10
91.7554
 20
-23.7214
 30
0
 70
     0
  0
VERTEX
  8
MACK_GRANITE_265
 10
92.0343
 20
-23.6272
 30
0
 70
     0
  0
VERTEX
  8
MACK_GRANITE_265
 10
92.3068
 20
-23.52
 30
0
 70
     0
  0
VERTEX
  8
MACK_GRANITE_265
 10
92.5727
 20
-23.4
 30
0
 70
     0
  0
VERTEX
  8
MACK_GRANITE_265
 10
92.8316
 20
-23.2676
 30
0
 70
     0
  0
VERTEX
  8
MACK_GRANITE_265
 10
93.083
 20
-23.1232
 30
0
 70
     0
  0
VERTEX
  8
MACK_GRANITE_265
 10
93.3266
 20
-22.9672
 30
0
 70
     0
  0
VERTEX
  8
MACK_GRANITE_265
 10
93.5619
 20
-22.8
 30
0
 70
     0
  0
VERTEX
  8
MACK_GRANITE_265
 10
93.7887
 20
-22.6219
 30
0
 70
     0
  0
VERTEX
  8
MACK_GRANITE_265
 10
94.0066
 20
-22.4334
 30
0
 70
     0
  0
VERTEX
  8
MACK_GRANITE_265
 10
94.2151
 20
-22.2347
 30
0
 70
     0
  0
VERTEX
  8
MACK_GRANITE_265
 10
94.4139
 20
-22.0263
 30
0
 70
     0
  0
VERTEX
  8
MACK_GRANITE_265
 10
94.6026
 20
-21.8086
 30
0
 70
     0
  0
VERTEX
  8
MACK_GRANITE_265
 10
94.7809
 20
-21.582
 30
0
 70
     0
  0
VERTEX
  8
MACK_GRANITE_265
 10
94.9483
 20
-21.3467
 30
0
 70
     0
  0
VERTEX
  8
MACK_GRANITE_265
 10
95.1044
 20
-21.1032
 30
0
 70
     0
  0
VERTEX
  8
MACK_GRANITE_265
 10
95.249
 20
-20.852
 30
0
 70
     0
  0
VERTEX
  8
MACK_GRANITE_265
 10
95.3816
 20
-20.5932
 30
0
 70
     0
  0
VERTEX
  8
MACK_GRANITE_265
 10
95.5018
 20
-20.3274
 30
0
 70
     0
  0
VERTEX
  8
MACK_GRANITE_265
 10
95.6093
 20
-20.0549
 30
0
 70
     0
  0
VERTEX
  8
MACK_GRANITE_265
 10
95.7036
 20
-19.7761
 30
0
 70
     0
  0
VERTEX
  8
MACK_GRANITE_265
 10
95.7845
 20
-19.4913
 30
0
 70
     0
  0
VERTEX
  8
MACK_GRANITE_265
 10
95.8515
 20
-19.201
 30
0
 70
     0
  0
VERTEX
  8
MACK_GRANITE_265
 10
95.9042
 20
-18.9055
 30
0
 70
     0
  0
VERTEX
  8
MACK_GRANITE_265
 10
95.9423
 20
-18.6052
 30
0
 70
     0
  0
VERTEX
  8
MACK_GRANITE_265
 10
95.9654
 20
-18.3005
 30
0
 70
     0
  0
VERTEX
  8
MACK_GRANITE_265
 10
95.9731
 20
-17.9917
 30
0
 70
     0
  0
SEQEND
  0
POLYLINE
  8
MACK_GRANITE_265
  6
CONTINUOUS
 62
     7
 66
     1
 40
0.0139
 41
0.0139
  0
VERTEX
  8
MACK_GRANITE_265
 10
32.3681
 20
68.1969
 30
0
 70
     0
  0
VERTEX
  8
MACK_GRANITE_265
 10
32.1465
 20
68.1545
 30
0
 70
     0
  0
VERTEX
  8
MACK_GRANITE_265
 10
31.9309
 20
68.0961
 30
0
 70
     0
  0
VERTEX
  8
MACK_GRANITE_265
 10
31.722
 20
68.0224
 30
0
 70
     0
  0
VERTEX
  8
MACK_GRANITE_265
 10
31.5205
 20
67.9339
 30
0
 70
     0
  0
VERTEX
  8
MACK_GRANITE_265
 10
31.3271
 20
67.8313
 30
0
 70
     0
  0
VERTEX
  8
MACK_GRANITE_265
 10
31.1424
 20
67.7152
 30
0
 70
     0
  0
VERTEX
  8
MACK_GRANITE_265
 10
30.9671
 20
67.5862
 30
0
 70
     0
  0
VERTEX
  8
MACK_GRANITE_265
 10
30.8019
 20
67.4449
 30
0
 70
     0
  0
VERTEX
  8
MACK_GRANITE_265
 10
30.6474
 20
67.2919
 30
0
 70
     0
  0
VERTEX
  8
MACK_GRANITE_265
 10
30.5043
 20
67.1279
 30
0
 70
     0
  0
VERTEX
  8
MACK_GRANITE_265
 10
30.3733
 20
66.9535
 30
0
 70
     0
  0
VERTEX
  8
MACK_GRANITE_265
 10
30.255
 20
66.7692
 30
0
 70
     0
  0
VERTEX
  8
MACK_GRANITE_265
 10
30.1502
 20
66.5758
 30
0
 70
     0
  0
VERTEX
  8
MACK_GRANITE_265
 10
30.0594
 20
66.3737
 30
0
 70
     0
  0
VERTEX
  8
MACK_GRANITE_265
 10
29.9833
 20
66.1637
 30
0
 70
     0
  0
VERTEX
  8
MACK_GRANITE_265
 10
29.9227
 20
65.9464
 30
0
 70
     0
  0
SEQEND
  0
POLYLINE
  8
MACK_GRANITE_265
  6
CONTINUOUS
 62
     7
 66
     1
 40
0.0139
 41
0.0139
  0
VERTEX
  8
MACK_GRANITE_265
 10
19.9731
 20
-21.1895
 30
0
 70
     0
  0
VERTEX
  8
MACK_GRANITE_265
 10
19.9665
 20
-21.7023
 30
0
 70
     0
  0
VERTEX
  8
MACK_GRANITE_265
 10
19.9468
 20
-22.2122
 30
0
 70
     0
  0
VERTEX
  8
MACK_GRANITE_265
 10
19.9143
 20
-22.7189
 30
0
 70
     0
  0
VERTEX
  8
MACK_GRANITE_265
 10
19.869
 20
-23.2222
 30
0
 70
     0
  0
VERTEX
  8
MACK_GRANITE_265
 10
19.8111
 20
-23.722
 30
0
 70
     0
  0
VERTEX
  8
MACK_GRANITE_265
 10
19.7408
 20
-24.2182
 30
0
 70
     0
  0
VERTEX
  8
MACK_GRANITE_265
 10
19.6583
 20
-24.7106
 30
0
 70
     0
  0
VERTEX
  8
MACK_GRANITE_265
 10
19.5637
 20
-25.1989
 30
0
 70
     0
  0
VERTEX
  8
MACK_GRANITE_265
 10
19.4571
 20
-25.6832
 30
0
 70
     0
  0
VERTEX
  8
MACK_GRANITE_265
 10
19.3388
 20
-26.1631
 30
0
 70
     0
  0
VERTEX
  8
MACK_GRANITE_265
 10
19.2089
 20
-26.6386
 30
0
 70
     0
  0
VERTEX
  8
MACK_GRANITE_265
 10
19.0675
 20
-27.1094
 30
0
 70
     0
  0
VERTEX
  8
MACK_GRANITE_265
 10
18.9149
 20
-27.5754
 30
0
 70
     0
  0
VERTEX
  8
MACK_GRANITE_265
 10
18.7512
 20
-28.0365
 30
0
 70
     0
  0
VERTEX
  8
MACK_GRANITE_265
 10
18.5764
 20
-28.4925
 30
0
 70
     0
  0
VERTEX
  8
MACK_GRANITE_265
 10
18.3909
 20
-28.9432
 30
0
 70
     0
  0
VERTEX
  8
MACK_GRANITE_265
 10
18.1948
 20
-29.3884
 30
0
 70
     0
  0
VERTEX
  8
MACK_GRANITE_265
 10
17.9882
 20
-29.8281
 30
0
 70
     0
  0
VERTEX
  8
MACK_GRANITE_265
 10
17.7713
 20
-30.2619
 30
0
 70
     0
  0
VERTEX
  8
MACK_GRANITE_265
 10
17.5443
 20
-30.6899
 30
0
 70
     0
  0
VERTEX
  8
MACK_GRANITE_265
 10
17.3072
 20
-31.1118
 30
0
 70
     0
  0
VERTEX
  8
MACK_GRANITE_265
 10
17.0604
 20
-31.5274
 30
0
 70
     0
  0
VERTEX
  8
MACK_GRANITE_265
 10
16.8039
 20
-31.9365
 30
0
 70
     0
  0
VERTEX
  8
MACK_GRANITE_265
 10
16.5379
 20
-32.3392
 30
0
 70
     0
  0
VERTEX
  8
MACK_GRANITE_265
 10
16.2625
 20
-32.735
 30
0
 70
     0
  0
VERTEX
  8
MACK_GRANITE_265
 10
15.978
 20
-33.124
 30
0
 70
     0
  0
VERTEX
  8
MACK_GRANITE_265
 10
15.6845
 20
-33.5059
 30
0
 70
     0
  0
VERTEX
  8
MACK_GRANITE_265
 10
15.3821
 20
-33.8806
 30
0
 70
     0
  0
VERTEX
  8
MACK_GRANITE_265
 10
15.0711
 20
-34.2479
 30
0
 70
     0
  0
VERTEX
  8
MACK_GRANITE_265
 10
14.7515
 20
-34.6077
 30
0
 70
     0
  0
VERTEX
  8
MACK_GRANITE_265
 10
14.4236
 20
-34.9597
 30
0
 70
     0
  0
VERTEX
  8
MACK_GRANITE_265
 10
14.0874
 20
-35.3039
 30
0
 70
     0
  0
VERTEX
  8
MACK_GRANITE_265
 10
13.7433
 20
-35.64
 30
0
 70
     0
  0
VERTEX
  8
MACK_GRANITE_265
 10
13.3912
 20
-35.9679
 30
0
 70
     0
  0
VERTEX
  8
MACK_GRANITE_265
 10
13.0315
 20
-36.2875
 30
0
 70
     0
  0
VERTEX
  8
MACK_GRANITE_265
 10
12.6642
 20
-36.5986
 30
0
 70
     0
  0
VERTEX
  8
MACK_GRANITE_265
 10
12.2895
 20
-36.9009
 30
0
 70
     0
  0
VERTEX
  8
MACK_GRANITE_265
 10
11.9076
 20
-37.1945
 30
0
 70
     0
  0
VERTEX
  8
MACK_GRANITE_265
 10
11.5186
 20
-37.479
 30
0
 70
     0
  0
VERTEX
  8
MACK_GRANITE_265
 10
11.1227
 20
-37.7543
 30
0
 70
     0
  0
VERTEX
  8
MACK_GRANITE_265
 10
10.7201
 20
-38.0203
 30
0
 70
     0
  0
VERTEX
  8
MACK_GRANITE_265
 10
10.3109
 20
-38.2768
 30
0
 70
     0
  0
VERTEX
  8
MACK_GRANITE_265
 10
9.8953
 20
-38.5237
 30
0
 70
     0
  0
VERTEX
  8
MACK_GRANITE_265
 10
9.4734
 20
-38.7607
 30
0
 70
     0
  0
VERTEX
  8
MACK_GRANITE_265
 10
9.0455
 20
-38.9878
 30
0
 70
     0
  0
VERTEX
  8
MACK_GRANITE_265
 10
8.6116
 20
-39.2047
 30
0
 70
     0
  0
VERTEX
  8
MACK_GRANITE_265
 10
8.172
 20
-39.4113
 30
0
 70
     0
  0
VERTEX
  8
MACK_GRANITE_265
 10
7.7267
 20
-39.6074
 30
0
 70
     0
  0
VERTEX
  8
MACK_GRANITE_265
 10
7.276
 20
-39.7929
 30
0
 70
     0
  0
VERTEX
  8
MACK_GRANITE_265
 10
6.8201
 20
-39.9676
 30
0
 70
     0
  0
VERTEX
  8
MACK_GRANITE_265
 10
6.359
 20
-40.1314
 30
0
 70
     0
  0
VERTEX
  8
MACK_GRANITE_265
 10
5.893
 20
-40.284
 30
0
 70
     0
  0
VERTEX
  8
MACK_GRANITE_265
 10
5.4221
 20
-40.4254
 30
0
 70
     0
  0
VERTEX
  8
MACK_GRANITE_265
 10
4.9467
 20
-40.5553
 30
0
 70
     0
  0
VERTEX
  8
MACK_GRANITE_265
 10
4.4667
 20
-40.6736
 30
0
 70
     0
  0
VERTEX
  8
MACK_GRANITE_265
 10
3.9825
 20
-40.7801
 30
0
 70
     0
  0
VERTEX
  8
MACK_GRANITE_265
 10
3.4941
 20
-40.8748
 30
0
 70
     0
  0
VERTEX
  8
MACK_GRANITE_265
 10
3.0018
 20
-40.9573
 30
0
 70
     0
  0
VERTEX
  8
MACK_GRANITE_265
 10
2.5056
 20
-41.0276
 30
0
 70
     0
  0
VERTEX
  8
MACK_GRANITE_265
 10
2.0057
 20
-41.0854
 30
0
 70
     0
  0
VERTEX
  8
MACK_GRANITE_265
 10
1.5024
 20
-41.1307
 30
0
 70
     0
  0
VERTEX
  8
MACK_GRANITE_265
 10
0.9957
 20
-41.1633
 30
0
 70
     0
  0
VERTEX
  8
MACK_GRANITE_265
 10
0.4859
 20
-41.1829
 30
0
 70
     0
  0
VERTEX
  8
MACK_GRANITE_265
 10
-0.0269
 20
-41.1895
 30
0
 70
     0
  0
VERTEX
  8
MACK_GRANITE_265
 10
-0.5398
 20
-41.1829
 30
0
 70
     0
  0
VERTEX
  8
MACK_GRANITE_265
 10
-1.0496
 20
-41.1633
 30
0
 70
     0
  0
VERTEX
  8
MACK_GRANITE_265
 10
-1.5563
 20
-41.1307
 30
0
 70
     0
  0
VERTEX
  8
MACK_GRANITE_265
 10
-2.0596
 20
-41.0854
 30
0
 70
     0
  0
VERTEX
  8
MACK_GRANITE_265
 10
-2.5595
 20
-41.0276
 30
0
 70
     0
  0
VERTEX
  8
MACK_GRANITE_265
 10
-3.0557
 20
-40.9573
 30
0
 70
     0
  0
VERTEX
  8
MACK_GRANITE_265
 10
-3.548
 20
-40.8748
 30
0
 70
     0
  0
VERTEX
  8
MACK_GRANITE_265
 10
-4.0364
 20
-40.7801
 30
0
 70
     0
  0
VERTEX
  8
MACK_GRANITE_265
 10
-4.5206
 20
-40.6736
 30
0
 70
     0
  0
VERTEX
  8
MACK_GRANITE_265
 10
-5.0006
 20
-40.5553
 30
0
 70
     0
  0
VERTEX
  8
MACK_GRANITE_265
 10
-5.476
 20
-40.4254
 30
0
 70
     0
  0
VERTEX
  8
MACK_GRANITE_265
 10
-5.9468
 20
-40.284
 30
0
 70
     0
  0
VERTEX
  8
MACK_GRANITE_265
 10
-6.4129
 20
-40.1314
 30
0
 70
     0
  0
VERTEX
  8
MACK_GRANITE_265
 10
-6.874
 20
-39.9676
 30
0
 70
     0
  0
VERTEX
  8
MACK_GRANITE_265
 10
-7.3299
 20
-39.7929
 30
0
 70
     0
  0
VERTEX
  8
MACK_GRANITE_265
 10
-7.7806
 20
-39.6074
 30
0
 70
     0
  0
VERTEX
  8
MACK_GRANITE_265
 10
-8.2259
 20
-39.4113
 30
0
 70
     0
  0
VERTEX
  8
MACK_GRANITE_265
 10
-8.6655
 20
-39.2047
 30
0
 70
     0
  0
VERTEX
  8
MACK_GRANITE_265
 10
-9.0994
 20
-38.9878
 30
0
 70
     0
  0
VERTEX
  8
MACK_GRANITE_265
 10
-9.5273
 20
-38.7607
 30
0
 70
     0
  0
VERTEX
  8
MACK_GRANITE_265
 10
-9.9492
 20
-38.5237
 30
0
 70
     0
  0
VERTEX
  8
MACK_GRANITE_265
 10
-10.3648
 20
-38.2768
 30
0
 70
     0
  0
VERTEX
  8
MACK_GRANITE_265
 10
-10.774
 20
-38.0203
 30
0
 70
     0
  0
VERTEX
  8
MACK_GRANITE_265
 10
-11.1766
 20
-37.7543
 30
0
 70
     0
  0
VERTEX
  8
MACK_GRANITE_265
 10
-11.5725
 20
-37.479
 30
0
 70
     0
  0
VERTEX
  8
MACK_GRANITE_265
 10
-11.9615
 20
-37.1945
 30
0
 70
     0
  0
VERTEX
  8
MACK_GRANITE_265
 10
-12.3434
 20
-36.9009
 30
0
 70
     0
  0
VERTEX
  8
MACK_GRANITE_265
 10
-12.7181
 20
-36.5986
 30
0
 70
     0
  0
VERTEX
  8
MACK_GRANITE_265
 10
-13.0854
 20
-36.2875
 30
0
 70
     0
  0
VERTEX
  8
MACK_GRANITE_265
 10
-13.4451
 20
-35.9679
 30
0
 70
     0
  0
VERTEX
  8
MACK_GRANITE_265
 10
-13.7972
 20
-35.64
 30
0
 70
     0
  0
VERTEX
  8
MACK_GRANITE_265
 10
-14.1413
 20
-35.3039
 30
0
 70
     0
  0
VERTEX
  8
MACK_GRANITE_265
 10
-14.4775
 20
-34.9597
 30
0
 70
     0
  0
VERTEX
  8
MACK_GRANITE_265
 10
-14.8054
 20
-34.6077
 30
0
 70
     0
  0
VERTEX
  8
MACK_GRANITE_265
 10
-15.125
 20
-34.2479
 30
0
 70
     0
  0
VERTEX
  8
MACK_GRANITE_265
 10
-15.436
 20
-33.8806
 30
0
 70
     0
  0
VERTEX
  8
MACK_GRANITE_265
 10
-15.7384
 20
-33.5059
 30
0
 70
     0
  0
VERTEX
  8
MACK_GRANITE_265
 10
-16.0319
 20
-33.124
 30
0
 70
     0
  0
VERTEX
  8
MACK_GRANITE_265
 10
-16.3164
 20
-32.735
 30
0
 70
     0
  0
VERTEX
  8
MACK_GRANITE_265
 10
-16.5917
 20
-32.3392
 30
0
 70
     0
  0
VERTEX
  8
MACK_GRANITE_265
 10
-16.8577
 20
-31.9365
 30
0
 70
     0
  0
VERTEX
  8
MACK_GRANITE_265
 10
-17.1143
 20
-31.5274
 30
0
 70
     0
  0
VERTEX
  8
MACK_GRANITE_265
 10
-17.3611
 20
-31.1118
 30
0
 70
     0
  0
VERTEX
  8
MACK_GRANITE_265
 10
-17.5981
 20
-30.6899
 30
0
 70
     0
  0
VERTEX
  8
MACK_GRANITE_265
 10
-17.8252
 20
-30.2619
 30
0
 70
     0
  0
VERTEX
  8
MACK_GRANITE_265
 10
-18.0421
 20
-29.8281
 30
0
 70
     0
  0
VERTEX
  8
MACK_GRANITE_265
 10
-18.2487
 20
-29.3884
 30
0
 70
     0
  0
VERTEX
  8
MACK_GRANITE_265
 10
-18.4448
 20
-28.9432
 30
0
 70
     0
  0
VERTEX
  8
MACK_GRANITE_265
 10
-18.6303
 20
-28.4925
 30
0
 70
     0
  0
VERTEX
  8
MACK_GRANITE_265
 10
-18.8051
 20
-28.0365
 30
0
 70
     0
  0
VERTEX
  8
MACK_GRANITE_265
 10
-18.9688
 20
-27.5754
 30
0
 70
     0
  0
VERTEX
  8
MACK_GRANITE_265
 10
-19.1214
 20
-27.1094
 30
0
 70
     0
  0
VERTEX
  8
MACK_GRANITE_265
 10
-19.2628
 20
-26.6386
 30
0
 70
     0
  0
VERTEX
  8
MACK_GRANITE_265
 10
-19.3927
 20
-26.1631
 30
0
 70
     0
  0
VERTEX
  8
MACK_GRANITE_265
 10
-19.511
 20
-25.6832
 30
0
 70
     0
  0
VERTEX
  8
MACK_GRANITE_265
 10
-19.6176
 20
-25.1989
 30
0
 70
     0
  0
VERTEX
  8
MACK_GRANITE_265
 10
-19.7122
 20
-24.7106
 30
0
 70
     0
  0
VERTEX
  8
MACK_GRANITE_265
 10
-19.7947
 20
-24.2182
 30
0
 70
     0
  0
VERTEX
  8
MACK_GRANITE_265
 10
-19.865
 20
-23.722
 30
0
 70
     0
  0
VERTEX
  8
MACK_GRANITE_265
 10
-19.9229
 20
-23.2222
 30
0
 70
     0
  0
VERTEX
  8
MACK_GRANITE_265
 10
-19.9682
 20
-22.7189
 30
0
 70
     0
  0
VERTEX
  8
MACK_GRANITE_265
 10
-20.0007
 20
-22.2122
 30
0
 70
     0
  0
VERTEX
  8
MACK_GRANITE_265
 10
-20.0204
 20
-21.7023
 30
0
 70
     0
  0
VERTEX
  8
MACK_GRANITE_265
 10
-20.0269
 20
-21.1895
 30
0
 70
     0
  0
VERTEX
  8
MACK_GRANITE_265
 10
-20.0204
 20
-20.6767
 30
0
 70
     0
  0
VERTEX
  8
MACK_GRANITE_265
 10
-20.0007
 20
-20.1668
 30
0
 70
     0
  0
VERTEX
  8
MACK_GRANITE_265
 10
-19.9682
 20
-19.6602
 30
0
 70
     0
  0
VERTEX
  8
MACK_GRANITE_265
 10
-19.9229
 20
-19.1568
 30
0
 70
     0
  0
VERTEX
  8
MACK_GRANITE_265
 10
-19.865
 20
-18.657
 30
0
 70
     0
  0
VERTEX
  8
MACK_GRANITE_265
 10
-19.7947
 20
-18.1608
 30
0
 70
     0
  0
VERTEX
  8
MACK_GRANITE_265
 10
-19.7122
 20
-17.6684
 30
0
 70
     0
  0
VERTEX
  8
MACK_GRANITE_265
 10
-19.6176
 20
-17.1801
 30
0
 70
     0
  0
VERTEX
  8
MACK_GRANITE_265
 10
-19.511
 20
-16.6958
 30
0
 70
     0
  0
VERTEX
  8
MACK_GRANITE_265
 10
-19.3927
 20
-16.2159
 30
0
 70
     0
  0
VERTEX
  8
MACK_GRANITE_265
 10
-19.2628
 20
-15.7404
 30
0
 70
     0
  0
VERTEX
  8
MACK_GRANITE_265
 10
-19.1214
 20
-15.2696
 30
0
 70
     0
  0
VERTEX
  8
MACK_GRANITE_265
 10
-18.9688
 20
-14.8036
 30
0
 70
     0
  0
VERTEX
  8
MACK_GRANITE_265
 10
-18.8051
 20
-14.3425
 30
0
 70
     0
  0
VERTEX
  8
MACK_GRANITE_265
 10
-18.6303
 20
-13.8865
 30
0
 70
     0
  0
VERTEX
  8
MACK_GRANITE_265
 10
-18.4448
 20
-13.4358
 30
0
 70
     0
  0
VERTEX
  8
MACK_GRANITE_265
 10
-18.2487
 20
-12.9906
 30
0
 70
     0
  0
VERTEX
  8
MACK_GRANITE_265
 10
-18.0421
 20
-12.5509
 30
0
 70
     0
  0
VERTEX
  8
MACK_GRANITE_265
 10
-17.8252
 20
-12.1171
 30
0
 70
     0
  0
VERTEX
  8
MACK_GRANITE_265
 10
-17.5981
 20
-11.6891
 30
0
 70
     0
  0
VERTEX
  8
MACK_GRANITE_265
 10
-17.3611
 20
-11.2673
 30
0
 70
     0
  0
VERTEX
  8
MACK_GRANITE_265
 10
-17.1143
 20
-10.8516
 30
0
 70
     0
  0
VERTEX
  8
MACK_GRANITE_265
 10
-16.8577
 20
-10.4425
 30
0
 70
     0
  0
VERTEX
  8
MACK_GRANITE_265
 10
-16.5917
 20
-10.0398
 30
0
 70
     0
  0
VERTEX
  8
MACK_GRANITE_265
 10
-16.3164
 20
-9.644
 30
0
 70
     0
  0
VERTEX
  8
MACK_GRANITE_265
 10
-16.0319
 20
-9.255
 30
0
 70
     0
  0
VERTEX
  8
MACK_GRANITE_265
 10
-15.7384
 20
-8.8731
 30
0
 70
     0
  0
VERTEX
  8
MACK_GRANITE_265
 10
-15.436
 20
-8.4984
 30
0
 70
     0
  0
VERTEX
  8
MACK_GRANITE_265
 10
-15.125
 20
-8.1311
 30
0
 70
     0
  0
VERTEX
  8
MACK_GRANITE_265
 10
-14.8054
 20
-7.7713
 30
0
 70
     0
  0
VERTEX
  8
MACK_GRANITE_265
 10
-14.4775
 20
-7.4193
 30
0
 70
     0
  0
VERTEX
  8
MACK_GRANITE_265
 10
-14.1413
 20
-7.0751
 30
0
 70
     0
  0
VERTEX
  8
MACK_GRANITE_265
 10
-13.7972
 20
-6.739
 30
0
 70
     0
  0
VERTEX
  8
MACK_GRANITE_265
 10
-13.4451
 20
-6.4111
 30
0
 70
     0
  0
VERTEX
  8
MACK_GRANITE_265
 10
-13.0854
 20
-6.0915
 30
0
 70
     0
  0
VERTEX
  8
MACK_GRANITE_265
 10
-12.7181
 20
-5.7804
 30
0
 70
     0
  0
VERTEX
  8
MACK_GRANITE_265
 10
-12.3434
 20
-5.4781
 30
0
 70
     0
  0
VERTEX
  8
MACK_GRANITE_265
 10
-11.9615
 20
-5.1846
 30
0
 70
     0
  0
VERTEX
  8
MACK_GRANITE_265
 10
-11.5725
 20
-4.9
 30
0
 70
     0
  0
VERTEX
  8
MACK_GRANITE_265
 10
-11.1766
 20
-4.6247
 30
0
 70
     0
  0
VERTEX
  8
MACK_GRANITE_265
 10
-10.774
 20
-4.3587
 30
0
 70
     0
  0
VERTEX
  8
MACK_GRANITE_265
 10
-10.3648
 20
-4.1022
 30
0
 70
     0
  0
VERTEX
  8
MACK_GRANITE_265
 10
-9.9492
 20
-3.8553
 30
0
 70
     0
  0
VERTEX
  8
MACK_GRANITE_265
 10
-9.5273
 20
-3.6183
 30
0
 70
     0
  0
VERTEX
  8
MACK_GRANITE_265
 10
-9.0994
 20
-3.3913
 30
0
 70
     0
  0
VERTEX
  8
MACK_GRANITE_265
 10
-8.6655
 20
-3.1743
 30
0
 70
     0
  0
VERTEX
  8
MACK_GRANITE_265
 10
-8.2259
 20
-2.9677
 30
0
 70
     0
  0
VERTEX
  8
MACK_GRANITE_265
 10
-7.7806
 20
-2.7716
 30
0
 70
     0
  0
VERTEX
  8
MACK_GRANITE_265
 10
-7.3299
 20
-2.5861
 30
0
 70
     0
  0
VERTEX
  8
MACK_GRANITE_265
 10
-6.874
 20
-2.4114
 30
0
 70
     0
  0
VERTEX
  8
MACK_GRANITE_265
 10
-6.4129
 20
-2.2476
 30
0
 70
     0
  0
VERTEX
  8
MACK_GRANITE_265
 10
-5.9468
 20
-2.095
 30
0
 70
     0
  0
VERTEX
  8
MACK_GRANITE_265
 10
-5.476
 20
-1.9536
 30
0
 70
     0
  0
VERTEX
  8
MACK_GRANITE_265
 10
-5.0006
 20
-1.8237
 30
0
 70
     0
  0
VERTEX
  8
MACK_GRANITE_265
 10
-4.5206
 20
-1.7054
 30
0
 70
     0
  0
VERTEX
  8
MACK_GRANITE_265
 10
-4.0364
 20
-1.5989
 30
0
 70
     0
  0
VERTEX
  8
MACK_GRANITE_265
 10
-3.548
 20
-1.5042
 30
0
 70
     0
  0
VERTEX
  8
MACK_GRANITE_265
 10
-3.0557
 20
-1.4217
 30
0
 70
     0
  0
VERTEX
  8
MACK_GRANITE_265
 10
-2.5595
 20
-1.3514
 30
0
 70
     0
  0
VERTEX
  8
MACK_GRANITE_265
 10
-2.0596
 20
-1.2936
 30
0
 70
     0
  0
VERTEX
  8
MACK_GRANITE_265
 10
-1.5563
 20
-1.2483
 30
0
 70
     0
  0
VERTEX
  8
MACK_GRANITE_265
 10
-1.0496
 20
-1.2157
 30
0
 70
     0
  0
VERTEX
  8
MACK_GRANITE_265
 10
-0.5398
 20
-1.1961
 30
0
 70
     0
  0
VERTEX
  8
MACK_GRANITE_265
 10
-0.0269
 20
-1.1895
 30
0
 70
     0
  0
VERTEX
  8
MACK_GRANITE_265
 10
0.4859
 20
-1.1961
 30
0
 70
     0
  0
VERTEX
  8
MACK_GRANITE_265
 10
0.9957
 20
-1.2157
 30
0
 70
     0
  0
VERTEX
  8
MACK_GRANITE_265
 10
1.5024
 20
-1.2483
 30
0
 70
     0
  0
VERTEX
  8
MACK_GRANITE_265
 10
2.0057
 20
-1.2936
 30
0
 70
     0
  0
VERTEX
  8
MACK_GRANITE_265
 10
2.5056
 20
-1.3514
 30
0
 70
     0
  0
VERTEX
  8
MACK_GRANITE_265
 10
3.0018
 20
-1.4217
 30
0
 70
     0
  0
VERTEX
  8
MACK_GRANITE_265
 10
3.4941
 20
-1.5042
 30
0
 70
     0
  0
VERTEX
  8
MACK_GRANITE_265
 10
3.9825
 20
-1.5989
 30
0
 70
     0
  0
VERTEX
  8
MACK_GRANITE_265
 10
4.4667
 20
-1.7054
 30
0
 70
     0
  0
VERTEX
  8
MACK_GRANITE_265
 10
4.9467
 20
-1.8237
 30
0
 70
     0
  0
VERTEX
  8
MACK_GRANITE_265
 10
5.4221
 20
-1.9536
 30
0
 70
     0
  0
VERTEX
  8
MACK_GRANITE_265
 10
5.893
 20
-2.095
 30
0
 70
     0
  0
VERTEX
  8
MACK_GRANITE_265
 10
6.359
 20
-2.2476
 30
0
 70
     0
  0
VERTEX
  8
MACK_GRANITE_265
 10
6.8201
 20
-2.4114
 30
0
 70
     0
  0
VERTEX
  8
MACK_GRANITE_265
 10
7.276
 20
-2.5861
 30
0
 70
     0
  0
VERTEX
  8
MACK_GRANITE_265
 10
7.7267
 20
-2.7716
 30
0
 70
     0
  0
VERTEX
  8
MACK_GRANITE_265
 10
8.172
 20
-2.9677
 30
0
 70
     0
  0
VERTEX
  8
MACK_GRANITE_265
 10
8.6116
 20
-3.1743
 30
0
 70
     0
  0
VERTEX
  8
MACK_GRANITE_265
 10
9.0455
 20
-3.3913
 30
0
 70
     0
  0
VERTEX
  8
MACK_GRANITE_265
 10
9.4734
 20
-3.6183
 30
0
 70
     0
  0
VERTEX
  8
MACK_GRANITE_265
 10
9.8953
 20
-3.8553
 30
0
 70
     0
  0
VERTEX
  8
MACK_GRANITE_265
 10
10.3109
 20
-4.1022
 30
0
 70
     0
  0
VERTEX
  8
MACK_GRANITE_265
 10
10.7201
 20
-4.3587
 30
0
 70
     0
  0
VERTEX
  8
MACK_GRANITE_265
 10
11.1227
 20
-4.6247
 30
0
 70
     0
  0
VERTEX
  8
MACK_GRANITE_265
 10
11.5186
 20
-4.9
 30
0
 70
     0
  0
VERTEX
  8
MACK_GRANITE_265
 10
11.9076
 20
-5.1846
 30
0
 70
     0
  0
VERTEX
  8
MACK_GRANITE_265
 10
12.2895
 20
-5.4781
 30
0
 70
     0
  0
VERTEX
  8
MACK_GRANITE_265
 10
12.6642
 20
-5.7804
 30
0
 70
     0
  0
VERTEX
  8
MACK_GRANITE_265
 10
13.0315
 20
-6.0915
 30
0
 70
     0
  0
VERTEX
  8
MACK_GRANITE_265
 10
13.3912
 20
-6.4111
 30
0
 70
     0
  0
VERTEX
  8
MACK_GRANITE_265
 10
13.7433
 20
-6.739
 30
0
 70
     0
  0
VERTEX
  8
MACK_GRANITE_265
 10
14.0874
 20
-7.0751
 30
0
 70
     0
  0
VERTEX
  8
MACK_GRANITE_265
 10
14.4236
 20
-7.4193
 30
0
 70
     0
  0
VERTEX
  8
MACK_GRANITE_265
 10
14.7515
 20
-7.7713
 30
0
 70
     0
  0
VERTEX
  8
MACK_GRANITE_265
 10
15.0711
 20
-8.1311
 30
0
 70
     0
  0
VERTEX
  8
MACK_GRANITE_265
 10
15.3821
 20
-8.4984
 30
0
 70
     0
  0
VERTEX
  8
MACK_GRANITE_265
 10
15.6845
 20
-8.8731
 30
0
 70
     0
  0
VERTEX
  8
MACK_GRANITE_265
 10
15.978
 20
-9.255
 30
0
 70
     0
  0
VERTEX
  8
MACK_GRANITE_265
 10
16.2625
 20
-9.644
 30
0
 70
     0
  0
VERTEX
  8
MACK_GRANITE_265
 10
16.5379
 20
-10.0398
 30
0
 70
     0
  0
VERTEX
  8
MACK_GRANITE_265
 10
16.8039
 20
-10.4425
 30
0
 70
     0
  0
VERTEX
  8
MACK_GRANITE_265
 10
17.0604
 20
-10.8516
 30
0
 70
     0
  0
VERTEX
  8
MACK_GRANITE_265
 10
17.3072
 20
-11.2673
 30
0
 70
     0
  0
VERTEX
  8
MACK_GRANITE_265
 10
17.5443
 20
-11.6891
 30
0
 70
     0
  0
VERTEX
  8
MACK_GRANITE_265
 10
17.7713
 20
-12.1171
 30
0
 70
     0
  0
VERTEX
  8
MACK_GRANITE_265
 10
17.9882
 20
-12.5509
 30
0
 70
     0
  0
VERTEX
  8
MACK_GRANITE_265
 10
18.1948
 20
-12.9906
 30
0
 70
     0
  0
VERTEX
  8
MACK_GRANITE_265
 10
18.3909
 20
-13.4358
 30
0
 70
     0
  0
VERTEX
  8
MACK_GRANITE_265
 10
18.5764
 20
-13.8865
 30
0
 70
     0
  0
VERTEX
  8
MACK_GRANITE_265
 10
18.7512
 20
-14.3425
 30
0
 70
     0
  0
VERTEX
  8
MACK_GRANITE_265
 10
18.9149
 20
-14.8036
 30
0
 70
     0
  0
VERTEX
  8
MACK_GRANITE_265
 10
19.0675
 20
-15.2696
 30
0
 70
     0
  0
VERTEX
  8
MACK_GRANITE_265
 10
19.2089
 20
-15.7404
 30
0
 70
     0
  0
VERTEX
  8
MACK_GRANITE_265
 10
19.3388
 20
-16.2159
 30
0
 70
     0
  0
VERTEX
  8
MACK_GRANITE_265
 10
19.4571
 20
-16.6958
 30
0
 70
     0
  0
VERTEX
  8
MACK_GRANITE_265
 10
19.5637
 20
-17.1801
 30
0
 70
     0
  0
VERTEX
  8
MACK_GRANITE_265
 10
19.6583
 20
-17.6684
 30
0
 70
     0
  0
VERTEX
  8
MACK_GRANITE_265
 10
19.7408
 20
-18.1608
 30
0
 70
     0
  0
VERTEX
  8
MACK_GRANITE_265
 10
19.8111
 20
-18.657
 30
0
 70
     0
  0
VERTEX
  8
MACK_GRANITE_265
 10
19.869
 20
-19.1568
 30
0
 70
     0
  0
VERTEX
  8
MACK_GRANITE_265
 10
19.9143
 20
-19.6602
 30
0
 70
     0
  0
VERTEX
  8
MACK_GRANITE_265
 10
19.9468
 20
-20.1668
 30
0
 70
     0
  0
VERTEX
  8
MACK_GRANITE_265
 10
19.9665
 20
-20.6767
 30
0
 70
     0
  0
VERTEX
  8
MACK_GRANITE_265
 10
19.9731
 20
-21.1895
 30
0
 70
     0
  0
SEQEND
  0
POLYLINE
  8
MACK_GRANITE_265
  6
CONTINUOUS
 62
     7
 66
     1
 40
0.0139
 41
0.0139
  0
VERTEX
  8
MACK_GRANITE_265
 10
20.9731
 20
-21.1895
 30
0
 70
     0
  0
VERTEX
  8
MACK_GRANITE_265
 10
20.9661
 20
-21.728
 30
0
 70
     0
  0
VERTEX
  8
MACK_GRANITE_265
 10
20.9455
 20
-22.2633
 30
0
 70
     0
  0
VERTEX
  8
MACK_GRANITE_265
 10
20.9113
 20
-22.7953
 30
0
 70
     0
  0
VERTEX
  8
MACK_GRANITE_265
 10
20.8638
 20
-23.3238
 30
0
 70
     0
  0
VERTEX
  8
MACK_GRANITE_265
 10
20.803
 20
-23.8487
 30
0
 70
     0
  0
VERTEX
  8
MACK_GRANITE_265
 10
20.7292
 20
-24.3696
 30
0
 70
     0
  0
VERTEX
  8
MACK_GRANITE_265
 10
20.6426
 20
-24.8866
 30
0
 70
     0
  0
VERTEX
  8
MACK_GRANITE_265
 10
20.5432
 20
-25.3994
 30
0
 70
     0
  0
VERTEX
  8
MACK_GRANITE_265
 10
20.4313
 20
-25.9079
 30
0
 70
     0
  0
VERTEX
  8
MACK_GRANITE_265
 10
20.3071
 20
-26.4118
 30
0
 70
     0
  0
VERTEX
  8
MACK_GRANITE_265
 10
20.1707
 20
-26.911
 30
0
 70
     0
  0
VERTEX
  8
MACK_GRANITE_265
 10
20.0223
 20
-27.4054
 30
0
 70
     0
  0
VERTEX
  8
MACK_GRANITE_265
 10
19.862
 20
-27.8947
 30
0
 70
     0
  0
VERTEX
  8
MACK_GRANITE_265
 10
19.6901
 20
-28.3789
 30
0
 70
     0
  0
VERTEX
  8
MACK_GRANITE_265
 10
19.5066
 20
-28.8576
 30
0
 70
     0
  0
VERTEX
  8
MACK_GRANITE_265
 10
19.3118
 20
-29.3309
 30
0
 70
     0
  0
VERTEX
  8
MACK_GRANITE_265
 10
19.1059
 20
-29.7984
 30
0
 70
     0
  0
VERTEX
  8
MACK_GRANITE_265
 10
18.889
 20
-30.26
 30
0
 70
     0
  0
VERTEX
  8
MACK_GRANITE_265
 10
18.6612
 20
-30.7156
 30
0
 70
     0
  0
VERTEX
  8
MACK_GRANITE_265
 10
18.4228
 20
-31.1649
 30
0
 70
     0
  0
VERTEX
  8
MACK_GRANITE_265
 10
18.1739
 20
-31.6079
 30
0
 70
     0
  0
VERTEX
  8
MACK_GRANITE_265
 10
17.9147
 20
-32.0442
 30
0
 70
     0
  0
VERTEX
  8
MACK_GRANITE_265
 10
17.6454
 20
-32.4739
 30
0
 70
     0
  0
VERTEX
  8
MACK_GRANITE_265
 10
17.3661
 20
-32.8966
 30
0
 70
     0
  0
VERTEX
  8
MACK_GRANITE_265
 10
17.077
 20
-33.3123
 30
0
 70
     0
  0
VERTEX
  8
MACK_GRANITE_265
 10
16.7782
 20
-33.7207
 30
0
 70
     0
  0
VERTEX
  8
MACK_GRANITE_265
 10
16.4701
 20
-34.1218
 30
0
 70
     0
  0
VERTEX
  8
MACK_GRANITE_265
 10
16.1526
 20
-34.5152
 30
0
 70
     0
  0
VERTEX
  8
MACK_GRANITE_265
 10
15.826
 20
-34.9008
 30
0
 70
     0
  0
VERTEX
  8
MACK_GRANITE_265
 10
15.4904
 20
-35.2786
 30
0
 70
     0
  0
VERTEX
  8
MACK_GRANITE_265
 10
15.1461
 20
-35.6482
 30
0
 70
     0
  0
VERTEX
  8
MACK_GRANITE_265
 10
14.7932
 20
-36.0096
 30
0
 70
     0
  0
VERTEX
  8
MACK_GRANITE_265
 10
14.4318
 20
-36.3625
 30
0
 70
     0
  0
VERTEX
  8
MACK_GRANITE_265
 10
14.0621
 20
-36.7069
 30
0
 70
     0
  0
VERTEX
  8
MACK_GRANITE_265
 10
13.6844
 20
-37.0424
 30
0
 70
     0
  0
VERTEX
  8
MACK_GRANITE_265
 10
13.2987
 20
-37.369
 30
0
 70
     0
  0
VERTEX
  8
MACK_GRANITE_265
 10
12.9053
 20
-37.6865
 30
0
 70
     0
  0
VERTEX
  8
MACK_GRANITE_265
 10
12.5043
 20
-37.9947
 30
0
 70
     0
  0
VERTEX
  8
MACK_GRANITE_265
 10
12.0959
 20
-38.2934
 30
0
 70
     0
  0
VERTEX
  8
MACK_GRANITE_265
 10
11.6802
 20
-38.5825
 30
0
 70
     0
  0
VERTEX
  8
MACK_GRANITE_265
 10
11.2575
 20
-38.8618
 30
0
 70
     0
  0
VERTEX
  8
MACK_GRANITE_265
 10
10.8278
 20
-39.1312
 30
0
 70
     0
  0
VERTEX
  8
MACK_GRANITE_265
 10
10.3914
 20
-39.3904
 30
0
 70
     0
  0
VERTEX
  8
MACK_GRANITE_265
 10
9.9485
 20
-39.6393
 30
0
 70
     0
  0
VERTEX
  8
MACK_GRANITE_265
 10
9.4991
 20
-39.8777
 30
0
 70
     0
  0
VERTEX
  8
MACK_GRANITE_265
 10
9.0435
 20
-40.1054
 30
0
 70
     0
  0
VERTEX
  8
MACK_GRANITE_265
 10
8.5819
 20
-40.3223
 30
0
 70
     0
  0
VERTEX
  8
MACK_GRANITE_265
 10
8.1144
 20
-40.5283
 30
0
 70
     0
  0
VERTEX
  8
MACK_GRANITE_265
 10
7.6412
 20
-40.7231
 30
0
 70
     0
  0
VERTEX
  8
MACK_GRANITE_265
 10
7.1624
 20
-40.9065
 30
0
 70
     0
  0
VERTEX
  8
MACK_GRANITE_265
 10
6.6783
 20
-41.0785
 30
0
 70
     0
  0
VERTEX
  8
MACK_GRANITE_265
 10
6.189
 20
-41.2387
 30
0
 70
     0
  0
VERTEX
  8
MACK_GRANITE_265
 10
5.6946
 20
-41.3872
 30
0
 70
     0
  0
VERTEX
  8
MACK_GRANITE_265
 10
5.1953
 20
-41.5236
 30
0
 70
     0
  0
VERTEX
  8
MACK_GRANITE_265
 10
4.6914
 20
-41.6478
 30
0
 70
     0
  0
VERTEX
  8
MACK_GRANITE_265
 10
4.183
 20
-41.7597
 30
0
 70
     0
  0
VERTEX
  8
MACK_GRANITE_265
 10
3.6702
 20
-41.859
 30
0
 70
     0
  0
VERTEX
  8
MACK_GRANITE_265
 10
3.1532
 20
-41.9457
 30
0
 70
     0
  0
VERTEX
  8
MACK_GRANITE_265
 10
2.6322
 20
-42.0195
 30
0
 70
     0
  0
VERTEX
  8
MACK_GRANITE_265
 10
2.1074
 20
-42.0802
 30
0
 70
     0
  0
VERTEX
  8
MACK_GRANITE_265
 10
1.5789
 20
-42.1278
 30
0
 70
     0
  0
VERTEX
  8
MACK_GRANITE_265
 10
1.0469
 20
-42.162
 30
0
 70
     0
  0
VERTEX
  8
MACK_GRANITE_265
 10
0.5115
 20
-42.1826
 30
0
 70
     0
  0
VERTEX
  8
MACK_GRANITE_265
 10
-0.0269
 20
-42.1895
 30
0
 70
     0
  0
VERTEX
  8
MACK_GRANITE_265
 10
-0.5654
 20
-42.1826
 30
0
 70
     0
  0
VERTEX
  8
MACK_GRANITE_265
 10
-1.1008
 20
-42.162
 30
0
 70
     0
  0
VERTEX
  8
MACK_GRANITE_265
 10
-1.6328
 20
-42.1278
 30
0
 70
     0
  0
VERTEX
  8
MACK_GRANITE_265
 10
-2.1613
 20
-42.0802
 30
0
 70
     0
  0
VERTEX
  8
MACK_GRANITE_265
 10
-2.6861
 20
-42.0195
 30
0
 70
     0
  0
VERTEX
  8
MACK_GRANITE_265
 10
-3.2071
 20
-41.9457
 30
0
 70
     0
  0
VERTEX
  8
MACK_GRANITE_265
 10
-3.7241
 20
-41.859
 30
0
 70
     0
  0
VERTEX
  8
MACK_GRANITE_265
 10
-4.2369
 20
-41.7597
 30
0
 70
     0
  0
VERTEX
  8
MACK_GRANITE_265
 10
-4.7453
 20
-41.6478
 30
0
 70
     0
  0
VERTEX
  8
MACK_GRANITE_265
 10
-5.2492
 20
-41.5236
 30
0
 70
     0
  0
VERTEX
  8
MACK_GRANITE_265
 10
-5.7485
 20
-41.3872
 30
0
 70
     0
  0
VERTEX
  8
MACK_GRANITE_265
 10
-6.2428
 20
-41.2387
 30
0
 70
     0
  0
VERTEX
  8
MACK_GRANITE_265
 10
-6.7322
 20
-41.0785
 30
0
 70
     0
  0
VERTEX
  8
MACK_GRANITE_265
 10
-7.2163
 20
-40.9065
 30
0
 70
     0
  0
VERTEX
  8
MACK_GRANITE_265
 10
-7.6951
 20
-40.7231
 30
0
 70
     0
  0
VERTEX
  8
MACK_GRANITE_265
 10
-8.1683
 20
-40.5283
 30
0
 70
     0
  0
VERTEX
  8
MACK_GRANITE_265
 10
-8.6358
 20
-40.3223
 30
0
 70
     0
  0
VERTEX
  8
MACK_GRANITE_265
 10
-9.0974
 20
-40.1054
 30
0
 70
     0
  0
VERTEX
  8
MACK_GRANITE_265
 10
-9.553
 20
-39.8777
 30
0
 70
     0
  0
VERTEX
  8
MACK_GRANITE_265
 10
-10.0024
 20
-39.6393
 30
0
 70
     0
  0
VERTEX
  8
MACK_GRANITE_265
 10
-10.4453
 20
-39.3904
 30
0
 70
     0
  0
VERTEX
  8
MACK_GRANITE_265
 10
-10.8817
 20
-39.1312
 30
0
 70
     0
  0
VERTEX
  8
MACK_GRANITE_265
 10
-11.3113
 20
-38.8618
 30
0
 70
     0
  0
VERTEX
  8
MACK_GRANITE_265
 10
-11.7341
 20
-38.5825
 30
0
 70
     0
  0
VERTEX
  8
MACK_GRANITE_265
 10
-12.1498
 20
-38.2934
 30
0
 70
     0
  0
VERTEX
  8
MACK_GRANITE_265
 10
-12.5582
 20
-37.9947
 30
0
 70
     0
  0
VERTEX
  8
MACK_GRANITE_265
 10
-12.9592
 20
-37.6865
 30
0
 70
     0
  0
VERTEX
  8
MACK_GRANITE_265
 10
-13.3526
 20
-37.369
 30
0
 70
     0
  0
VERTEX
  8
MACK_GRANITE_265
 10
-13.7383
 20
-37.0424
 30
0
 70
     0
  0
VERTEX
  8
MACK_GRANITE_265
 10
-14.116
 20
-36.7069
 30
0
 70
     0
  0
VERTEX
  8
MACK_GRANITE_265
 10
-14.4857
 20
-36.3625
 30
0
 70
     0
  0
VERTEX
  8
MACK_GRANITE_265
 10
-14.847
 20
-36.0096
 30
0
 70
     0
  0
VERTEX
  8
MACK_GRANITE_265
 10
-15.2
 20
-35.6482
 30
0
 70
     0
  0
VERTEX
  8
MACK_GRANITE_265
 10
-15.5443
 20
-35.2786
 30
0
 70
     0
  0
VERTEX
  8
MACK_GRANITE_265
 10
-15.8799
 20
-34.9008
 30
0
 70
     0
  0
VERTEX
  8
MACK_GRANITE_265
 10
-16.2065
 20
-34.5152
 30
0
 70
     0
  0
VERTEX
  8
MACK_GRANITE_265
 10
-16.5239
 20
-34.1218
 30
0
 70
     0
  0
VERTEX
  8
MACK_GRANITE_265
 10
-16.8321
 20
-33.7207
 30
0
 70
     0
  0
VERTEX
  8
MACK_GRANITE_265
 10
-17.1309
 20
-33.3123
 30
0
 70
     0
  0
VERTEX
  8
MACK_GRANITE_265
 10
-17.42
 20
-32.8966
 30
0
 70
     0
  0
VERTEX
  8
MACK_GRANITE_265
 10
-17.6993
 20
-32.4739
 30
0
 70
     0
  0
VERTEX
  8
MACK_GRANITE_265
 10
-17.9686
 20
-32.0442
 30
0
 70
     0
  0
VERTEX
  8
MACK_GRANITE_265
 10
-18.2278
 20
-31.6079
 30
0
 70
     0
  0
VERTEX
  8
MACK_GRANITE_265
 10
-18.4767
 20
-31.1649
 30
0
 70
     0
  0
VERTEX
  8
MACK_GRANITE_265
 10
-18.7151
 20
-30.7156
 30
0
 70
     0
  0
VERTEX
  8
MACK_GRANITE_265
 10
-18.9429
 20
-30.26
 30
0
 70
     0
  0
VERTEX
  8
MACK_GRANITE_265
 10
-19.1598
 20
-29.7984
 30
0
 70
     0
  0
VERTEX
  8
MACK_GRANITE_265
 10
-19.3657
 20
-29.3309
 30
0
 70
     0
  0
VERTEX
  8
MACK_GRANITE_265
 10
-19.5605
 20
-28.8576
 30
0
 70
     0
  0
VERTEX
  8
MACK_GRANITE_265
 10
-19.744
 20
-28.3789
 30
0
 70
     0
  0
VERTEX
  8
MACK_GRANITE_265
 10
-19.9159
 20
-27.8947
 30
0
 70
     0
  0
VERTEX
  8
MACK_GRANITE_265
 10
-20.0762
 20
-27.4054
 30
0
 70
     0
  0
VERTEX
  8
MACK_GRANITE_265
 10
-20.2246
 20
-26.911
 30
0
 70
     0
  0
VERTEX
  8
MACK_GRANITE_265
 10
-20.361
 20
-26.4118
 30
0
 70
     0
  0
VERTEX
  8
MACK_GRANITE_265
 10
-20.4852
 20
-25.9079
 30
0
 70
     0
  0
VERTEX
  8
MACK_GRANITE_265
 10
-20.5971
 20
-25.3994
 30
0
 70
     0
  0
VERTEX
  8
MACK_GRANITE_265
 10
-20.6965
 20
-24.8866
 30
0
 70
     0
  0
VERTEX
  8
MACK_GRANITE_265
 10
-20.7831
 20
-24.3696
 30
0
 70
     0
  0
VERTEX
  8
MACK_GRANITE_265
 10
-20.8569
 20
-23.8487
 30
0
 70
     0
  0
VERTEX
  8
MACK_GRANITE_265
 10
-20.9177
 20
-23.3238
 30
0
 70
     0
  0
VERTEX
  8
MACK_GRANITE_265
 10
-20.9652
 20
-22.7953
 30
0
 70
     0
  0
VERTEX
  8
MACK_GRANITE_265
 10
-20.9994
 20
-22.2633
 30
0
 70
     0
  0
VERTEX
  8
MACK_GRANITE_265
 10
-21.02
 20
-21.728
 30
0
 70
     0
  0
VERTEX
  8
MACK_GRANITE_265
 10
-21.0269
 20
-21.1895
 30
0
 70
     0
  0
VERTEX
  8
MACK_GRANITE_265
 10
-21.02
 20
-20.651
 30
0
 70
     0
  0
VERTEX
  8
MACK_GRANITE_265
 10
-20.9994
 20
-20.1157
 30
0
 70
     0
  0
VERTEX
  8
MACK_GRANITE_265
 10
-20.9652
 20
-19.5837
 30
0
 70
     0
  0
VERTEX
  8
MACK_GRANITE_265
 10
-20.9177
 20
-19.0552
 30
0
 70
     0
  0
VERTEX
  8
MACK_GRANITE_265
 10
-20.8569
 20
-18.5304
 30
0
 70
     0
  0
VERTEX
  8
MACK_GRANITE_265
 10
-20.7831
 20
-18.0094
 30
0
 70
     0
  0
VERTEX
  8
MACK_GRANITE_265
 10
-20.6965
 20
-17.4924
 30
0
 70
     0
  0
VERTEX
  8
MACK_GRANITE_265
 10
-20.5971
 20
-16.9796
 30
0
 70
     0
  0
VERTEX
  8
MACK_GRANITE_265
 10
-20.4852
 20
-16.4711
 30
0
 70
     0
  0
VERTEX
  8
MACK_GRANITE_265
 10
-20.361
 20
-15.9672
 30
0
 70
     0
  0
VERTEX
  8
MACK_GRANITE_265
 10
-20.2246
 20
-15.468
 30
0
 70
     0
  0
VERTEX
  8
MACK_GRANITE_265
 10
-20.0762
 20
-14.9736
 30
0
 70
     0
  0
VERTEX
  8
MACK_GRANITE_265
 10
-19.9159
 20
-14.4843
 30
0
 70
     0
  0
VERTEX
  8
MACK_GRANITE_265
 10
-19.744
 20
-14.0001
 30
0
 70
     0
  0
VERTEX
  8
MACK_GRANITE_265
 10
-19.5605
 20
-13.5214
 30
0
 70
     0
  0
VERTEX
  8
MACK_GRANITE_265
 10
-19.3657
 20
-13.0481
 30
0
 70
     0
  0
VERTEX
  8
MACK_GRANITE_265
 10
-19.1598
 20
-12.5806
 30
0
 70
     0
  0
VERTEX
  8
MACK_GRANITE_265
 10
-18.9429
 20
-12.119
 30
0
 70
     0
  0
VERTEX
  8
MACK_GRANITE_265
 10
-18.7151
 20
-11.6634
 30
0
 70
     0
  0
VERTEX
  8
MACK_GRANITE_265
 10
-18.4767
 20
-11.2141
 30
0
 70
     0
  0
VERTEX
  8
MACK_GRANITE_265
 10
-18.2278
 20
-10.7711
 30
0
 70
     0
  0
VERTEX
  8
MACK_GRANITE_265
 10
-17.9686
 20
-10.3348
 30
0
 70
     0
  0
VERTEX
  8
MACK_GRANITE_265
 10
-17.6993
 20
-9.9051
 30
0
 70
     0
  0
VERTEX
  8
MACK_GRANITE_265
 10
-17.42
 20
-9.4824
 30
0
 70
     0
  0
VERTEX
  8
MACK_GRANITE_265
 10
-17.1309
 20
-9.0667
 30
0
 70
     0
  0
VERTEX
  8
MACK_GRANITE_265
 10
-16.8321
 20
-8.6583
 30
0
 70
     0
  0
VERTEX
  8
MACK_GRANITE_265
 10
-16.5239
 20
-8.2573
 30
0
 70
     0
  0
VERTEX
  8
MACK_GRANITE_265
 10
-16.2065
 20
-7.8638
 30
0
 70
     0
  0
VERTEX
  8
MACK_GRANITE_265
 10
-15.8799
 20
-7.4782
 30
0
 70
     0
  0
VERTEX
  8
MACK_GRANITE_265
 10
-15.5443
 20
-7.1004
 30
0
 70
     0
  0
VERTEX
  8
MACK_GRANITE_265
 10
-15.2
 20
-6.7308
 30
0
 70
     0
  0
VERTEX
  8
MACK_GRANITE_265
 10
-14.847
 20
-6.3694
 30
0
 70
     0
  0
VERTEX
  8
MACK_GRANITE_265
 10
-14.4857
 20
-6.0165
 30
0
 70
     0
  0
VERTEX
  8
MACK_GRANITE_265
 10
-14.116
 20
-5.6721
 30
0
 70
     0
  0
VERTEX
  8
MACK_GRANITE_265
 10
-13.7383
 20
-5.3366
 30
0
 70
     0
  0
VERTEX
  8
MACK_GRANITE_265
 10
-13.3526
 20
-5.01
 30
0
 70
     0
  0
VERTEX
  8
MACK_GRANITE_265
 10
-12.9592
 20
-4.6925
 30
0
 70
     0
  0
VERTEX
  8
MACK_GRANITE_265
 10
-12.5582
 20
-4.3843
 30
0
 70
     0
  0
VERTEX
  8
MACK_GRANITE_265
 10
-12.1498
 20
-4.0856
 30
0
 70
     0
  0
VERTEX
  8
MACK_GRANITE_265
 10
-11.7341
 20
-3.7965
 30
0
 70
     0
  0
VERTEX
  8
MACK_GRANITE_265
 10
-11.3113
 20
-3.5172
 30
0
 70
     0
  0
VERTEX
  8
MACK_GRANITE_265
 10
-10.8817
 20
-3.2478
 30
0
 70
     0
  0
VERTEX
  8
MACK_GRANITE_265
 10
-10.4453
 20
-2.9886
 30
0
 70
     0
  0
VERTEX
  8
MACK_GRANITE_265
 10
-10.0024
 20
-2.7397
 30
0
 70
     0
  0
VERTEX
  8
MACK_GRANITE_265
 10
-9.553
 20
-2.5013
 30
0
 70
     0
  0
VERTEX
  8
MACK_GRANITE_265
 10
-9.0974
 20
-2.2736
 30
0
 70
     0
  0
VERTEX
  8
MACK_GRANITE_265
 10
-8.6358
 20
-2.0567
 30
0
 70
     0
  0
VERTEX
  8
MACK_GRANITE_265
 10
-8.1683
 20
-1.8507
 30
0
 70
     0
  0
VERTEX
  8
MACK_GRANITE_265
 10
-7.6951
 20
-1.6559
 30
0
 70
     0
  0
VERTEX
  8
MACK_GRANITE_265
 10
-7.2163
 20
-1.4725
 30
0
 70
     0
  0
VERTEX
  8
MACK_GRANITE_265
 10
-6.7322
 20
-1.3006
 30
0
 70
     0
  0
VERTEX
  8
MACK_GRANITE_265
 10
-6.2428
 20
-1.1403
 30
0
 70
     0
  0
VERTEX
  8
MACK_GRANITE_265
 10
-5.7485
 20
-0.9919
 30
0
 70
     0
  0
VERTEX
  8
MACK_GRANITE_265
 10
-5.2492
 20
-0.8554
 30
0
 70
     0
  0
VERTEX
  8
MACK_GRANITE_265
 10
-4.7453
 20
-0.7312
 30
0
 70
     0
  0
VERTEX
  8
MACK_GRANITE_265
 10
-4.2369
 20
-0.6193
 30
0
 70
     0
  0
VERTEX
  8
MACK_GRANITE_265
 10
-3.7241
 20
-0.52
 30
0
 70
     0
  0
VERTEX
  8
MACK_GRANITE_265
 10
-3.2071
 20
-0.4333
 30
0
 70
     0
  0
VERTEX
  8
MACK_GRANITE_265
 10
-2.6861
 20
-0.3595
 30
0
 70
     0
  0
VERTEX
  8
MACK_GRANITE_265
 10
-2.1613
 20
-0.2988
 30
0
 70
     0
  0
VERTEX
  8
MACK_GRANITE_265
 10
-1.6328
 20
-0.2512
 30
0
 70
     0
  0
VERTEX
  8
MACK_GRANITE_265
 10
-1.1008
 20
-0.217
 30
0
 70
     0
  0
VERTEX
  8
MACK_GRANITE_265
 10
-0.5654
 20
-0.1964
 30
0
 70
     0
  0
VERTEX
  8
MACK_GRANITE_265
 10
-0.0269
 20
-0.1895
 30
0
 70
     0
  0
VERTEX
  8
MACK_GRANITE_265
 10
0.5115
 20
-0.1964
 30
0
 70
     0
  0
VERTEX
  8
MACK_GRANITE_265
 10
1.0469
 20
-0.217
 30
0
 70
     0
  0
VERTEX
  8
MACK_GRANITE_265
 10
1.5789
 20
-0.2512
 30
0
 70
     0
  0
VERTEX
  8
MACK_GRANITE_265
 10
2.1074
 20
-0.2988
 30
0
 70
     0
  0
VERTEX
  8
MACK_GRANITE_265
 10
2.6322
 20
-0.3595
 30
0
 70
     0
  0
VERTEX
  8
MACK_GRANITE_265
 10
3.1532
 20
-0.4333
 30
0
 70
     0
  0
VERTEX
  8
MACK_GRANITE_265
 10
3.6702
 20
-0.52
 30
0
 70
     0
  0
VERTEX
  8
MACK_GRANITE_265
 10
4.183
 20
-0.6193
 30
0
 70
     0
  0
VERTEX
  8
MACK_GRANITE_265
 10
4.6914
 20
-0.7312
 30
0
 70
     0
  0
VERTEX
  8
MACK_GRANITE_265
 10
5.1953
 20
-0.8554
 30
0
 70
     0
  0
VERTEX
  8
MACK_GRANITE_265
 10
5.6946
 20
-0.9919
 30
0
 70
     0
  0
VERTEX
  8
MACK_GRANITE_265
 10
6.189
 20
-1.1403
 30
0
 70
     0
  0
VERTEX
  8
MACK_GRANITE_265
 10
6.6783
 20
-1.3006
 30
0
 70
     0
  0
VERTEX
  8
MACK_GRANITE_265
 10
7.1624
 20
-1.4725
 30
0
 70
     0
  0
VERTEX
  8
MACK_GRANITE_265
 10
7.6412
 20
-1.6559
 30
0
 70
     0
  0
VERTEX
  8
MACK_GRANITE_265
 10
8.1144
 20
-1.8507
 30
0
 70
     0
  0
VERTEX
  8
MACK_GRANITE_265
 10
8.5819
 20
-2.0567
 30
0
 70
     0
  0
VERTEX
  8
MACK_GRANITE_265
 10
9.0435
 20
-2.2736
 30
0
 70
     0
  0
VERTEX
  8
MACK_GRANITE_265
 10
9.4991
 20
-2.5013
 30
0
 70
     0
  0
VERTEX
  8
MACK_GRANITE_265
 10
9.9485
 20
-2.7397
 30
0
 70
     0
  0
VERTEX
  8
MACK_GRANITE_265
 10
10.3914
 20
-2.9886
 30
0
 70
     0
  0
VERTEX
  8
MACK_GRANITE_265
 10
10.8278
 20
-3.2478
 30
0
 70
     0
  0
VERTEX
  8
MACK_GRANITE_265
 10
11.2575
 20
-3.5172
 30
0
 70
     0
  0
VERTEX
  8
MACK_GRANITE_265
 10
11.6802
 20
-3.7965
 30
0
 70
     0
  0
VERTEX
  8
MACK_GRANITE_265
 10
12.0959
 20
-4.0856
 30
0
 70
     0
  0
VERTEX
  8
MACK_GRANITE_265
 10
12.5043
 20
-4.3843
 30
0
 70
     0
  0
VERTEX
  8
MACK_GRANITE_265
 10
12.9053
 20
-4.6925
 30
0
 70
     0
  0
VERTEX
  8
MACK_GRANITE_265
 10
13.2987
 20
-5.01
 30
0
 70
     0
  0
VERTEX
  8
MACK_GRANITE_265
 10
13.6844
 20
-5.3366
 30
0
 70
     0
  0
VERTEX
  8
MACK_GRANITE_265
 10
14.0621
 20
-5.6721
 30
0
 70
     0
  0
VERTEX
  8
MACK_GRANITE_265
 10
14.4318
 20
-6.0165
 30
0
 70
     0
  0
VERTEX
  8
MACK_GRANITE_265
 10
14.7932
 20
-6.3694
 30
0
 70
     0
  0
VERTEX
  8
MACK_GRANITE_265
 10
15.1461
 20
-6.7308
 30
0
 70
     0
  0
VERTEX
  8
MACK_GRANITE_265
 10
15.4904
 20
-7.1004
 30
0
 70
     0
  0
VERTEX
  8
MACK_GRANITE_265
 10
15.826
 20
-7.4782
 30
0
 70
     0
  0
VERTEX
  8
MACK_GRANITE_265
 10
16.1526
 20
-7.8638
 30
0
 70
     0
  0
VERTEX
  8
MACK_GRANITE_265
 10
16.4701
 20
-8.2573
 30
0
 70
     0
  0
VERTEX
  8
MACK_GRANITE_265
 10
16.7782
 20
-8.6583
 30
0
 70
     0
  0
VERTEX
  8
MACK_GRANITE_265
 10
17.077
 20
-9.0667
 30
0
 70
     0
  0
VERTEX
  8
MACK_GRANITE_265
 10
17.3661
 20
-9.4824
 30
0
 70
     0
  0
VERTEX
  8
MACK_GRANITE_265
 10
17.6454
 20
-9.9051
 30
0
 70
     0
  0
VERTEX
  8
MACK_GRANITE_265
 10
17.9147
 20
-10.3348
 30
0
 70
     0
  0
VERTEX
  8
MACK_GRANITE_265
 10
18.1739
 20
-10.7711
 30
0
 70
     0
  0
VERTEX
  8
MACK_GRANITE_265
 10
18.4228
 20
-11.2141
 30
0
 70
     0
  0
VERTEX
  8
MACK_GRANITE_265
 10
18.6612
 20
-11.6634
 30
0
 70
     0
  0
VERTEX
  8
MACK_GRANITE_265
 10
18.889
 20
-12.119
 30
0
 70
     0
  0
VERTEX
  8
MACK_GRANITE_265
 10
19.1059
 20
-12.5806
 30
0
 70
     0
  0
VERTEX
  8
MACK_GRANITE_265
 10
19.3118
 20
-13.0481
 30
0
 70
     0
  0
VERTEX
  8
MACK_GRANITE_265
 10
19.5066
 20
-13.5214
 30
0
 70
     0
  0
VERTEX
  8
MACK_GRANITE_265
 10
19.6901
 20
-14.0001
 30
0
 70
     0
  0
VERTEX
  8
MACK_GRANITE_265
 10
19.862
 20
-14.4843
 30
0
 70
     0
  0
VERTEX
  8
MACK_GRANITE_265
 10
20.0223
 20
-14.9736
 30
0
 70
     0
  0
VERTEX
  8
MACK_GRANITE_265
 10
20.1707
 20
-15.468
 30
0
 70
     0
  0
VERTEX
  8
MACK_GRANITE_265
 10
20.3071
 20
-15.9672
 30
0
 70
     0
  0
VERTEX
  8
MACK_GRANITE_265
 10
20.4313
 20
-16.4711
 30
0
 70
     0
  0
VERTEX
  8
MACK_GRANITE_265
 10
20.5432
 20
-16.9796
 30
0
 70
     0
  0
VERTEX
  8
MACK_GRANITE_265
 10
20.6426
 20
-17.4924
 30
0
 70
     0
  0
VERTEX
  8
MACK_GRANITE_265
 10
20.7292
 20
-18.0094
 30
0
 70
     0
  0
VERTEX
  8
MACK_GRANITE_265
 10
20.803
 20
-18.5304
 30
0
 70
     0
  0
VERTEX
  8
MACK_GRANITE_265
 10
20.8638
 20
-19.0552
 30
0
 70
     0
  0
VERTEX
  8
MACK_GRANITE_265
 10
20.9113
 20
-19.5837
 30
0
 70
     0
  0
VERTEX
  8
MACK_GRANITE_265
 10
20.9455
 20
-20.1157
 30
0
 70
     0
  0
VERTEX
  8
MACK_GRANITE_265
 10
20.9661
 20
-20.651
 30
0
 70
     0
  0
VERTEX
  8
MACK_GRANITE_265
 10
20.9731
 20
-21.1895
 30
0
 70
     0
  0
SEQEND
  0
POLYLINE
  8
MACK_GRANITE_265
  6
CONTINUOUS
 62
     7
 66
     1
 40
0.0139
 41
0.0139
  0
VERTEX
  8
MACK_GRANITE_265
 10
77.9727
 20
66.0137
 30
0
 70
     0
  0
VERTEX
  8
MACK_GRANITE_265
 10
77.9679
 20
66.2138
 30
0
 70
     0
  0
VERTEX
  8
MACK_GRANITE_265
 10
77.9534
 20
66.4114
 30
0
 70
     0
  0
VERTEX
  8
MACK_GRANITE_265
 10
77.9294
 20
66.6063
 30
0
 70
     0
  0
VERTEX
  8
MACK_GRANITE_265
 10
77.8962
 20
66.7983
 30
0
 70
     0
  0
VERTEX
  8
MACK_GRANITE_265
 10
77.8539
 20
66.987
 30
0
 70
     0
  0
VERTEX
  8
MACK_GRANITE_265
 10
77.8029
 20
67.1724
 30
0
 70
     0
  0
VERTEX
  8
MACK_GRANITE_265
 10
77.7432
 20
67.354
 30
0
 70
     0
  0
VERTEX
  8
MACK_GRANITE_265
 10
77.6752
 20
67.5318
 30
0
 70
     0
  0
VERTEX
  8
MACK_GRANITE_265
 10
77.5991
 20
67.7055
 30
0
 70
     0
  0
VERTEX
  8
MACK_GRANITE_265
 10
77.5151
 20
67.8747
 30
0
 70
     0
  0
VERTEX
  8
MACK_GRANITE_265
 10
77.4234
 20
68.0394
 30
0
 70
     0
  0
VERTEX
  8
MACK_GRANITE_265
 10
77.3243
 20
68.1992
 30
0
 70
     0
  0
VERTEX
  8
MACK_GRANITE_265
 10
77.218
 20
68.3539
 30
0
 70
     0
  0
VERTEX
  8
MACK_GRANITE_265
 10
77.1048
 20
68.5033
 30
0
 70
     0
  0
VERTEX
  8
MACK_GRANITE_265
 10
76.9848
 20
68.6472
 30
0
 70
     0
  0
VERTEX
  8
MACK_GRANITE_265
 10
76.8582
 20
68.7852
 30
0
 70
     0
  0
VERTEX
  8
MACK_GRANITE_265
 10
76.7254
 20
68.9172
 30
0
 70
     0
  0
VERTEX
  8
MACK_GRANITE_265
 10
76.5865
 20
69.0429
 30
0
 70
     0
  0
VERTEX
  8
MACK_GRANITE_265
 10
76.4418
 20
69.1621
 30
0
 70
     0
  0
VERTEX
  8
MACK_GRANITE_265
 10
76.2915
 20
69.2746
 30
0
 70
     0
  0
VERTEX
  8
MACK_GRANITE_265
 10
76.1358
 20
69.38
 30
0
 70
     0
  0
VERTEX
  8
MACK_GRANITE_265
 10
75.975
 20
69.4782
 30
0
 70
     0
  0
VERTEX
  8
MACK_GRANITE_265
 10
75.8092
 20
69.569
 30
0
 70
     0
  0
VERTEX
  8
MACK_GRANITE_265
 10
75.6388
 20
69.6521
 30
0
 70
     0
  0
VERTEX
  8
MACK_GRANITE_265
 10
75.4639
 20
69.7272
 30
0
 70
     0
  0
VERTEX
  8
MACK_GRANITE_265
 10
75.2848
 20
69.7941
 30
0
 70
     0
  0
VERTEX
  8
MACK_GRANITE_265
 10
75.1016
 20
69.8526
 30
0
 70
     0
  0
VERTEX
  8
MACK_GRANITE_265
 10
74.9147
 20
69.9024
 30
0
 70
     0
  0
VERTEX
  8
MACK_GRANITE_265
 10
74.7243
 20
69.9434
 30
0
 70
     0
  0
VERTEX
  8
MACK_GRANITE_265
 10
74.5305
 20
69.9752
 30
0
 70
     0
  0
VERTEX
  8
MACK_GRANITE_265
 10
74.3337
 20
69.9977
 30
0
 70
     0
  0
VERTEX
  8
MACK_GRANITE_265
 10
74.134
 20
70.0105
 30
0
 70
     0
  0
SEQEND
  0
POLYLINE
  8
MACK_GRANITE_265
  6
CONTINUOUS
 62
     7
 66
     1
 40
0.0139
 41
0.0139
  0
VERTEX
  8
MACK_GRANITE_265
 10
74.134
 20
70.0105
 30
0
 70
     0
  0
VERTEX
  8
MACK_GRANITE_265
 10
72.9555
 20
70.0562
 30
0
 70
     0
  0
VERTEX
  8
MACK_GRANITE_265
 10
71.7769
 20
70.0962
 30
0
 70
     0
  0
VERTEX
  8
MACK_GRANITE_265
 10
70.5981
 20
70.1307
 30
0
 70
     0
  0
VERTEX
  8
MACK_GRANITE_265
 10
69.4194
 20
70.1595
 30
0
 70
     0
  0
VERTEX
  8
MACK_GRANITE_265
 10
68.2405
 20
70.1827
 30
0
 70
     0
  0
VERTEX
  8
MACK_GRANITE_265
 10
67.0617
 20
70.2002
 30
0
 70
     0
  0
VERTEX
  8
MACK_GRANITE_265
 10
65.8828
 20
70.2122
 30
0
 70
     0
  0
VERTEX
  8
MACK_GRANITE_265
 10
64.7039
 20
70.2185
 30
0
 70
     0
  0
VERTEX
  8
MACK_GRANITE_265
 10
63.5251
 20
70.2192
 30
0
 70
     0
  0
VERTEX
  8
MACK_GRANITE_265
 10
62.3463
 20
70.2144
 30
0
 70
     0
  0
VERTEX
  8
MACK_GRANITE_265
 10
61.1676
 20
70.2038
 30
0
 70
     0
  0
VERTEX
  8
MACK_GRANITE_265
 10
59.989
 20
70.1877
 30
0
 70
     0
  0
VERTEX
  8
MACK_GRANITE_265
 10
58.8105
 20
70.166
 30
0
 70
     0
  0
VERTEX
  8
MACK_GRANITE_265
 10
57.6322
 20
70.1386
 30
0
 70
     0
  0
VERTEX
  8
MACK_GRANITE_265
 10
56.454
 20
70.1056
 30
0
 70
     0
  0
VERTEX
  8
MACK_GRANITE_265
 10
55.276
 20
70.0671
 30
0
 70
     0
  0
VERTEX
  8
MACK_GRANITE_265
 10
54.0981
 20
70.0229
 30
0
 70
     0
  0
VERTEX
  8
MACK_GRANITE_265
 10
52.9205
 20
69.9731
 30
0
 70
     0
  0
VERTEX
  8
MACK_GRANITE_265
 10
51.7432
 20
69.9176
 30
0
 70
     0
  0
VERTEX
  8
MACK_GRANITE_265
 10
50.5661
 20
69.8566
 30
0
 70
     0
  0
VERTEX
  8
MACK_GRANITE_265
 10
49.3892
 20
69.79
 30
0
 70
     0
  0
VERTEX
  8
MACK_GRANITE_265
 10
48.2127
 20
69.7177
 30
0
 70
     0
  0
VERTEX
  8
MACK_GRANITE_265
 10
47.0365
 20
69.6399
 30
0
 70
     0
  0
VERTEX
  8
MACK_GRANITE_265
 10
45.8606
 20
69.5564
 30
0
 70
     0
  0
VERTEX
  8
MACK_GRANITE_265
 10
44.6851
 20
69.4674
 30
0
 70
     0
  0
VERTEX
  8
MACK_GRANITE_265
 10
43.51
 20
69.3727
 30
0
 70
     0
  0
VERTEX
  8
MACK_GRANITE_265
 10
42.3353
 20
69.2724
 30
0
 70
     0
  0
VERTEX
  8
MACK_GRANITE_265
 10
41.161
 20
69.1666
 30
0
 70
     0
  0
VERTEX
  8
MACK_GRANITE_265
 10
39.9871
 20
69.0551
 30
0
 70
     0
  0
VERTEX
  8
MACK_GRANITE_265
 10
38.8137
 20
68.938
 30
0
 70
     0
  0
VERTEX
  8
MACK_GRANITE_265
 10
37.6408
 20
68.8153
 30
0
 70
     0
  0
VERTEX
  8
MACK_GRANITE_265
 10
36.4684
 20
68.687
 30
0
 70
     0
  0
SEQEND
  0
POLYLINE
  8
MACK_GRANITE_265
  6
CONTINUOUS
 62
     7
 66
     1
 40
0.0139
 41
0.0139
  0
VERTEX
  8
MACK_GRANITE_265
 10
-19.3695
 20
14.7088
 30
0
 70
     0
  0
VERTEX
  8
MACK_GRANITE_265
 10
-19.6212
 20
14.6973
 30
0
 70
     0
  0
VERTEX
  8
MACK_GRANITE_265
 10
-19.8711
 20
14.6796
 30
0
 70
     0
  0
VERTEX
  8
MACK_GRANITE_265
 10
-20.1193
 20
14.6558
 30
0
 70
     0
  0
VERTEX
  8
MACK_GRANITE_265
 10
-20.3657
 20
14.6261
 30
0
 70
     0
  0
VERTEX
  8
MACK_GRANITE_265
 10
-20.6101
 20
14.5904
 30
0
 70
     0
  0
VERTEX
  8
MACK_GRANITE_265
 10
-20.8525
 20
14.5489
 30
0
 70
     0
  0
VERTEX
  8
MACK_GRANITE_265
 10
-21.0929
 20
14.5016
 30
0
 70
     0
  0
VERTEX
  8
MACK_GRANITE_265
 10
-21.3311
 20
14.4487
 30
0
 70
     0
  0
VERTEX
  8
MACK_GRANITE_265
 10
-21.5672
 20
14.3901
 30
0
 70
     0
  0
VERTEX
  8
MACK_GRANITE_265
 10
-21.8009
 20
14.326
 30
0
 70
     0
  0
VERTEX
  8
MACK_GRANITE_265
 10
-22.0323
 20
14.2564
 30
0
 70
     0
  0
VERTEX
  8
MACK_GRANITE_265
 10
-22.2613
 20
14.1814
 30
0
 70
     0
  0
VERTEX
  8
MACK_GRANITE_265
 10
-22.4878
 20
14.1011
 30
0
 70
     0
  0
VERTEX
  8
MACK_GRANITE_265
 10
-22.7117
 20
14.0156
 30
0
 70
     0
  0
VERTEX
  8
MACK_GRANITE_265
 10
-22.933
 20
13.9249
 30
0
 70
     0
  0
VERTEX
  8
MACK_GRANITE_265
 10
-23.1515
 20
13.8291
 30
0
 70
     0
  0
VERTEX
  8
MACK_GRANITE_265
 10
-23.5802
 20
13.6225
 30
0
 70
     0
  0
VERTEX
  8
MACK_GRANITE_265
 10
-23.9971
 20
13.3965
 30
0
 70
     0
  0
VERTEX
  8
MACK_GRANITE_265
 10
-24.4017
 20
13.1516
 30
0
 70
     0
  0
VERTEX
  8
MACK_GRANITE_265
 10
-24.7934
 20
12.8885
 30
0
 70
     0
  0
VERTEX
  8
MACK_GRANITE_265
 10
-25.1717
 20
12.6076
 30
0
 70
     0
  0
VERTEX
  8
MACK_GRANITE_265
 10
-25.5359
 20
12.3098
 30
0
 70
     0
  0
VERTEX
  8
MACK_GRANITE_265
 10
-25.8854
 20
11.9954
 30
0
 70
     0
  0
VERTEX
  8
MACK_GRANITE_265
 10
-26.2198
 20
11.6652
 30
0
 70
     0
  0
VERTEX
  8
MACK_GRANITE_265
 10
-26.5383
 20
11.3198
 30
0
 70
     0
  0
VERTEX
  8
MACK_GRANITE_265
 10
-26.8405
 20
10.9596
 30
0
 70
     0
  0
VERTEX
  8
MACK_GRANITE_265
 10
-27.1257
 20
10.5855
 30
0
 70
     0
  0
VERTEX
  8
MACK_GRANITE_265
 10
-27.3934
 20
10.1978
 30
0
 70
     0
  0
VERTEX
  8
MACK_GRANITE_265
 10
-27.643
 20
9.7973
 30
0
 70
     0
  0
VERTEX
  8
MACK_GRANITE_265
 10
-27.8739
 20
9.3845
 30
0
 70
     0
  0
VERTEX
  8
MACK_GRANITE_265
 10
-28.0855
 20
8.9601
 30
0
 70
     0
  0
VERTEX
  8
MACK_GRANITE_265
 10
-28.2773
 20
8.5246
 30
0
 70
     0
  0
VERTEX
  8
MACK_GRANITE_265
 10
-28.3655
 20
8.3029
 30
0
 70
     0
  0
VERTEX
  8
MACK_GRANITE_265
 10
-28.4486
 20
8.0787
 30
0
 70
     0
  0
VERTEX
  8
MACK_GRANITE_265
 10
-28.5264
 20
7.852
 30
0
 70
     0
  0
VERTEX
  8
MACK_GRANITE_265
 10
-28.5989
 20
7.6229
 30
0
 70
     0
  0
VERTEX
  8
MACK_GRANITE_265
 10
-28.666
 20
7.3915
 30
0
 70
     0
  0
VERTEX
  8
MACK_GRANITE_265
 10
-28.7276
 20
7.1578
 30
0
 70
     0
  0
VERTEX
  8
MACK_GRANITE_265
 10
-28.7837
 20
6.922
 30
0
 70
     0
  0
VERTEX
  8
MACK_GRANITE_265
 10
-28.8341
 20
6.6841
 30
0
 70
     0
  0
VERTEX
  8
MACK_GRANITE_265
 10
-28.8789
 20
6.4442
 30
0
 70
     0
  0
VERTEX
  8
MACK_GRANITE_265
 10
-28.9179
 20
6.2024
 30
0
 70
     0
  0
VERTEX
  8
MACK_GRANITE_265
 10
-28.9511
 20
5.9586
 30
0
 70
     0
  0
VERTEX
  8
MACK_GRANITE_265
 10
-28.9784
 20
5.7131
 30
0
 70
     0
  0
VERTEX
  8
MACK_GRANITE_265
 10
-28.9997
 20
5.4659
 30
0
 70
     0
  0
VERTEX
  8
MACK_GRANITE_265
 10
-29.0149
 20
5.2171
 30
0
 70
     0
  0
VERTEX
  8
MACK_GRANITE_265
 10
-29.024
 20
4.9666
 30
0
 70
     0
  0
VERTEX
  8
MACK_GRANITE_265
 10
-29.0269
 20
4.7147
 30
0
 70
     0
  0
SEQEND
  0
POLYLINE
  8
MACK_GRANITE_265
  6
CONTINUOUS
 62
     7
 66
     1
 40
0.0139
 41
0.0139
  0
VERTEX
  8
MACK_GRANITE_265
 10
22.2755
 20
8.3369
 30
0
 70
     0
  0
VERTEX
  8
MACK_GRANITE_265
 10
22.156
 20
8.7566
 30
0
 70
     0
  0
VERTEX
  8
MACK_GRANITE_265
 10
22.0195
 20
9.1675
 30
0
 70
     0
  0
VERTEX
  8
MACK_GRANITE_265
 10
21.8664
 20
9.5695
 30
0
 70
     0
  0
VERTEX
  8
MACK_GRANITE_265
 10
21.6972
 20
9.9621
 30
0
 70
     0
  0
VERTEX
  8
MACK_GRANITE_265
 10
21.5124
 20
10.345
 30
0
 70
     0
  0
VERTEX
  8
MACK_GRANITE_265
 10
21.3124
 20
10.7179
 30
0
 70
     0
  0
VERTEX
  8
MACK_GRANITE_265
 10
21.0976
 20
11.0804
 30
0
 70
     0
  0
VERTEX
  8
MACK_GRANITE_265
 10
20.8686
 20
11.4323
 30
0
 70
     0
  0
VERTEX
  8
MACK_GRANITE_265
 10
20.6257
 20
11.7731
 30
0
 70
     0
  0
VERTEX
  8
MACK_GRANITE_265
 10
20.3694
 20
12.1026
 30
0
 70
     0
  0
VERTEX
  8
MACK_GRANITE_265
 10
20.1002
 20
12.4203
 30
0
 70
     0
  0
VERTEX
  8
MACK_GRANITE_265
 10
19.8185
 20
12.7261
 30
0
 70
     0
  0
VERTEX
  8
MACK_GRANITE_265
 10
19.5247
 20
13.0194
 30
0
 70
     0
  0
VERTEX
  8
MACK_GRANITE_265
 10
19.2194
 20
13.3
 30
0
 70
     0
  0
VERTEX
  8
MACK_GRANITE_265
 10
18.903
 20
13.5676
 30
0
 70
     0
  0
VERTEX
  8
MACK_GRANITE_265
 10
18.5759
 20
13.8218
 30
0
 70
     0
  0
VERTEX
  8
MACK_GRANITE_265
 10
18.2386
 20
14.0622
 30
0
 70
     0
  0
VERTEX
  8
MACK_GRANITE_265
 10
17.8915
 20
14.2886
 30
0
 70
     0
  0
VERTEX
  8
MACK_GRANITE_265
 10
17.5351
 20
14.5006
 30
0
 70
     0
  0
VERTEX
  8
MACK_GRANITE_265
 10
17.1699
 20
14.6979
 30
0
 70
     0
  0
VERTEX
  8
MACK_GRANITE_265
 10
16.7962
 20
14.8801
 30
0
 70
     0
  0
VERTEX
  8
MACK_GRANITE_265
 10
16.4146
 20
15.0468
 30
0
 70
     0
  0
VERTEX
  8
MACK_GRANITE_265
 10
16.0255
 20
15.1979
 30
0
 70
     0
  0
VERTEX
  8
MACK_GRANITE_265
 10
15.6293
 20
15.3328
 30
0
 70
     0
  0
VERTEX
  8
MACK_GRANITE_265
 10
15.2265
 20
15.4513
 30
0
 70
     0
  0
VERTEX
  8
MACK_GRANITE_265
 10
14.8176
 20
15.5531
 30
0
 70
     0
  0
VERTEX
  8
MACK_GRANITE_265
 10
14.403
 20
15.6378
 30
0
 70
     0
  0
VERTEX
  8
MACK_GRANITE_265
 10
13.9832
 20
15.705
 30
0
 70
     0
  0
VERTEX
  8
MACK_GRANITE_265
 10
13.5586
 20
15.7545
 30
0
 70
     0
  0
VERTEX
  8
MACK_GRANITE_265
 10
13.1296
 20
15.7859
 30
0
 70
     0
  0
VERTEX
  8
MACK_GRANITE_265
 10
12.6967
 20
15.7988
 30
0
 70
     0
  0
VERTEX
  8
MACK_GRANITE_265
 10
12.2605
 20
15.7929
 30
0
 70
     0
  0
SEQEND
  0
POLYLINE
  8
MACK_GRANITE_265
  6
CONTINUOUS
 62
     7
 66
     1
 40
0.0139
 41
0.0139
  0
VERTEX
  8
MACK_GRANITE_265
 10
47.0788
 20
41.2297
 30
0
 70
     0
  0
VERTEX
  8
MACK_GRANITE_265
 10
47.3009
 20
41.1631
 30
0
 70
     0
  0
VERTEX
  8
MACK_GRANITE_265
 10
47.5287
 20
41.1007
 30
0
 70
     0
  0
SEQEND
  0
POLYLINE
  8
MACK_GRANITE_265
  6
CONTINUOUS
 62
     7
 66
     1
 40
0.0139
 41
0.0139
  0
VERTEX
  8
MACK_GRANITE_265
 10
46.9727
 20
41.0908
 30
0
 70
     0
  0
VERTEX
  8
MACK_GRANITE_265
 10
47.0265
 20
41.1577
 30
0
 70
     0
  0
VERTEX
  8
MACK_GRANITE_265
 10
47.0788
 20
41.2297
 30
0
 70
     0
  0
SEQEND
  0
POLYLINE
  8
MACK_GRANITE_265
  6
CONTINUOUS
 62
     7
 66
     1
 40
0.0139
 41
0.0139
  0
VERTEX
  8
MACK_GRANITE_265
 10
47.3207
 20
40.6007
 30
0
 70
     0
  0
VERTEX
  8
MACK_GRANITE_265
 10
47.3591
 20
40.6091
 30
0
 70
     0
  0
VERTEX
  8
MACK_GRANITE_265
 10
47.3984
 20
40.6358
 30
0
 70
     0
  0
VERTEX
  8
MACK_GRANITE_265
 10
47.4362
 20
40.6821
 30
0
 70
     0
  0
VERTEX
  8
MACK_GRANITE_265
 10
47.47
 20
40.7469
 30
0
 70
     0
  0
VERTEX
  8
MACK_GRANITE_265
 10
47.517
 20
40.9161
 30
0
 70
     0
  0
VERTEX
  8
MACK_GRANITE_265
 10
47.532
 20
41.0999
 30
0
 70
     0
  0
SEQEND
  0
POLYLINE
  8
MACK_GRANITE_265
  6
CONTINUOUS
 62
     7
 66
     1
 40
0.0139
 41
0.0139
  0
VERTEX
  8
MACK_GRANITE_265
 10
46.9727
 20
57.5344
 30
0
 70
     0
  0
VERTEX
  8
MACK_GRANITE_265
 10
46.9219
 20
57.5839
 30
0
 70
     0
  0
VERTEX
  8
MACK_GRANITE_265
 10
46.8675
 20
57.6007
 30
0
 70
     0
  0
SEQEND
  0
POLYLINE
  8
MACK_GRANITE_265
  6
CONTINUOUS
 62
     7
 66
     1
 40
0.0139
 41
0.0139
  0
VERTEX
  8
MACK_GRANITE_265
 10
43.9092
 20
57.6007
 30
0
 70
     0
  0
VERTEX
  8
MACK_GRANITE_265
 10
43.8707
 20
57.5924
 30
0
 70
     0
  0
VERTEX
  8
MACK_GRANITE_265
 10
43.8314
 20
57.5656
 30
0
 70
     0
  0
VERTEX
  8
MACK_GRANITE_265
 10
43.7936
 20
57.5192
 30
0
 70
     0
  0
VERTEX
  8
MACK_GRANITE_265
 10
43.7598
 20
57.4543
 30
0
 70
     0
  0
VERTEX
  8
MACK_GRANITE_265
 10
43.7127
 20
57.2848
 30
0
 70
     0
  0
VERTEX
  8
MACK_GRANITE_265
 10
43.6979
 20
57.1007
 30
0
 70
     0
  0
SEQEND
  0
POLYLINE
  8
MACK_GRANITE_265
  6
CONTINUOUS
 62
     7
 66
     1
 40
0.0139
 41
0.0139
  0
VERTEX
  8
MACK_GRANITE_265
 10
43.6979
 20
41.1007
 30
0
 70
     0
  0
VERTEX
  8
MACK_GRANITE_265
 10
43.7127
 20
40.9167
 30
0
 70
     0
  0
VERTEX
  8
MACK_GRANITE_265
 10
43.7598
 20
40.7472
 30
0
 70
     0
  0
VERTEX
  8
MACK_GRANITE_265
 10
43.7936
 20
40.6822
 30
0
 70
     0
  0
VERTEX
  8
MACK_GRANITE_265
 10
43.8314
 20
40.6358
 30
0
 70
     0
  0
VERTEX
  8
MACK_GRANITE_265
 10
43.8707
 20
40.6091
 30
0
 70
     0
  0
VERTEX
  8
MACK_GRANITE_265
 10
43.9092
 20
40.6007
 30
0
 70
     0
  0
SEQEND
  0
POLYLINE
  8
MACK_GRANITE_265
  6
CONTINUOUS
 62
     7
 66
     1
 40
0.0139
 41
0.0139
  0
VERTEX
  8
MACK_GRANITE_265
 10
46.8675
 20
40.6007
 30
0
 70
     0
  0
VERTEX
  8
MACK_GRANITE_265
 10
46.906
 20
40.6091
 30
0
 70
     0
  0
VERTEX
  8
MACK_GRANITE_265
 10
46.9453
 20
40.6358
 30
0
 70
     0
  0
VERTEX
  8
MACK_GRANITE_265
 10
46.9831
 20
40.6822
 30
0
 70
     0
  0
VERTEX
  8
MACK_GRANITE_265
 10
47.0169
 20
40.7472
 30
0
 70
     0
  0
VERTEX
  8
MACK_GRANITE_265
 10
47.064
 20
40.9167
 30
0
 70
     0
  0
VERTEX
  8
MACK_GRANITE_265
 10
47.0788
 20
41.1007
 30
0
 70
     0
  0
SEQEND
  0
POLYLINE
  8
MACK_GRANITE_265
  6
CONTINUOUS
 62
     7
 66
     1
 40
0.0139
 41
0.0139
  0
VERTEX
  8
MACK_GRANITE_265
 10
22.9335
 20
37.0056
 30
0
 70
     0
  0
VERTEX
  8
MACK_GRANITE_265
 10
22.8295
 20
36.9689
 30
0
 70
     0
  0
VERTEX
  8
MACK_GRANITE_265
 10
22.7249
 20
36.885
 30
0
 70
     0
  0
VERTEX
  8
MACK_GRANITE_265
 10
22.6724
 20
36.8256
 30
0
 70
     0
  0
VERTEX
  8
MACK_GRANITE_265
 10
22.6197
 20
36.7545
 30
0
 70
     0
  0
VERTEX
  8
MACK_GRANITE_265
 10
22.5669
 20
36.6715
 30
0
 70
     0
  0
VERTEX
  8
MACK_GRANITE_265
 10
22.5145
 20
36.5774
 30
0
 70
     0
  0
VERTEX
  8
MACK_GRANITE_265
 10
22.4119
 20
36.3584
 30
0
 70
     0
  0
VERTEX
  8
MACK_GRANITE_265
 10
22.3122
 20
36.0988
 30
0
 70
     0
  0
VERTEX
  8
MACK_GRANITE_265
 10
22.2634
 20
35.9535
 30
0
 70
     0
  0
VERTEX
  8
MACK_GRANITE_265
 10
22.2155
 20
35.7984
 30
0
 70
     0
  0
VERTEX
  8
MACK_GRANITE_265
 10
22.1688
 20
35.6346
 30
0
 70
     0
  0
VERTEX
  8
MACK_GRANITE_265
 10
22.1236
 20
35.4631
 30
0
 70
     0
  0
VERTEX
  8
MACK_GRANITE_265
 10
22.0377
 20
35.0976
 30
0
 70
     0
  0
VERTEX
  8
MACK_GRANITE_265
 10
21.9576
 20
34.7019
 30
0
 70
     0
  0
VERTEX
  8
MACK_GRANITE_265
 10
21.9199
 20
34.4931
 30
0
 70
     0
  0
VERTEX
  8
MACK_GRANITE_265
 10
21.8841
 20
34.2788
 30
0
 70
     0
  0
VERTEX
  8
MACK_GRANITE_265
 10
21.8504
 20
34.0606
 30
0
 70
     0
  0
VERTEX
  8
MACK_GRANITE_265
 10
21.8188
 20
33.8381
 30
0
 70
     0
  0
VERTEX
  8
MACK_GRANITE_265
 10
21.7892
 20
33.6115
 30
0
 70
     0
  0
VERTEX
  8
MACK_GRANITE_265
 10
21.7617
 20
33.3807
 30
0
 70
     0
  0
VERTEX
  8
MACK_GRANITE_265
 10
21.7362
 20
33.1455
 30
0
 70
     0
  0
VERTEX
  8
MACK_GRANITE_265
 10
21.7128
 20
32.9067
 30
0
 70
     0
  0
VERTEX
  8
MACK_GRANITE_265
 10
21.6918
 20
32.6658
 30
0
 70
     0
  0
VERTEX
  8
MACK_GRANITE_265
 10
21.6731
 20
32.4236
 30
0
 70
     0
  0
VERTEX
  8
MACK_GRANITE_265
 10
21.6647
 20
32.3021
 30
0
 70
     0
  0
VERTEX
  8
MACK_GRANITE_265
 10
21.6568
 20
32.1803
 30
0
 70
     0
  0
VERTEX
  8
MACK_GRANITE_265
 10
21.6531
 20
32.1193
 30
0
 70
     0
  0
VERTEX
  8
MACK_GRANITE_265
 10
21.6496
 20
32.0582
 30
0
 70
     0
  0
VERTEX
  8
MACK_GRANITE_265
 10
21.6462
 20
31.9969
 30
0
 70
     0
  0
VERTEX
  8
MACK_GRANITE_265
 10
21.6429
 20
31.9359
 30
0
 70
     0
  0
SEQEND
  0
POLYLINE
  8
MACK_GRANITE_265
  6
CONTINUOUS
 62
     7
 66
     1
 40
0.0139
 41
0.0139
  0
VERTEX
  8
MACK_GRANITE_265
 10
-25.86
 20
24.5898
 30
0
 70
     0
  0
VERTEX
  8
MACK_GRANITE_265
 10
-26.0373
 20
24.5162
 30
0
 70
     0
  0
VERTEX
  8
MACK_GRANITE_265
 10
-26.2106
 20
24.4363
 30
0
 70
     0
  0
VERTEX
  8
MACK_GRANITE_265
 10
-26.3799
 20
24.3503
 30
0
 70
     0
  0
VERTEX
  8
MACK_GRANITE_265
 10
-26.545
 20
24.2584
 30
0
 70
     0
  0
VERTEX
  8
MACK_GRANITE_265
 10
-26.7058
 20
24.1607
 30
0
 70
     0
  0
VERTEX
  8
MACK_GRANITE_265
 10
-26.8622
 20
24.0574
 30
0
 70
     0
  0
VERTEX
  8
MACK_GRANITE_265
 10
-27.0142
 20
23.9487
 30
0
 70
     0
  0
VERTEX
  8
MACK_GRANITE_265
 10
-27.1615
 20
23.8347
 30
0
 70
     0
  0
VERTEX
  8
MACK_GRANITE_265
 10
-27.4419
 20
23.5916
 30
0
 70
     0
  0
VERTEX
  8
MACK_GRANITE_265
 10
-27.7025
 20
23.3292
 30
0
 70
     0
  0
VERTEX
  8
MACK_GRANITE_265
 10
-27.8251
 20
23.1913
 30
0
 70
     0
  0
VERTEX
  8
MACK_GRANITE_265
 10
-27.9425
 20
23.049
 30
0
 70
     0
  0
VERTEX
  8
MACK_GRANITE_265
 10
-28.0544
 20
22.9026
 30
0
 70
     0
  0
VERTEX
  8
MACK_GRANITE_265
 10
-28.1609
 20
22.7523
 30
0
 70
     0
  0
VERTEX
  8
MACK_GRANITE_265
 10
-28.2618
 20
22.5981
 30
0
 70
     0
  0
VERTEX
  8
MACK_GRANITE_265
 10
-28.3569
 20
22.4402
 30
0
 70
     0
  0
VERTEX
  8
MACK_GRANITE_265
 10
-28.4463
 20
22.2789
 30
0
 70
     0
  0
VERTEX
  8
MACK_GRANITE_265
 10
-28.5296
 20
22.1143
 30
0
 70
     0
  0
VERTEX
  8
MACK_GRANITE_265
 10
-28.607
 20
21.9464
 30
0
 70
     0
  0
VERTEX
  8
MACK_GRANITE_265
 10
-28.6782
 20
21.7756
 30
0
 70
     0
  0
VERTEX
  8
MACK_GRANITE_265
 10
-28.7431
 20
21.6019
 30
0
 70
     0
  0
VERTEX
  8
MACK_GRANITE_265
 10
-28.8016
 20
21.4256
 30
0
 70
     0
  0
VERTEX
  8
MACK_GRANITE_265
 10
-28.8537
 20
21.2467
 30
0
 70
     0
  0
VERTEX
  8
MACK_GRANITE_265
 10
-28.8991
 20
21.0655
 30
0
 70
     0
  0
VERTEX
  8
MACK_GRANITE_265
 10
-28.9378
 20
20.8821
 30
0
 70
     0
  0
VERTEX
  8
MACK_GRANITE_265
 10
-28.9697
 20
20.6967
 30
0
 70
     0
  0
VERTEX
  8
MACK_GRANITE_265
 10
-28.9947
 20
20.5094
 30
0
 70
     0
  0
VERTEX
  8
MACK_GRANITE_265
 10
-29.0127
 20
20.3204
 30
0
 70
     0
  0
VERTEX
  8
MACK_GRANITE_265
 10
-29.0234
 20
20.1299
 30
0
 70
     0
  0
VERTEX
  8
MACK_GRANITE_265
 10
-29.0269
 20
19.9379
 30
0
 70
     0
  0
SEQEND
  0
POLYLINE
  8
MACK_GRANITE_265
  6
CONTINUOUS
 62
     7
 66
     1
 40
0.0139
 41
0.0139
  0
VERTEX
  8
MACK_GRANITE_265
 10
59.9727
 20
-23.9895
 30
0
 70
     0
  0
VERTEX
  8
MACK_GRANITE_265
 10
89.9727
 20
-23.9895
 30
0
 70
     0
  0
SEQEND
  0
POLYLINE
  8
MACK_GRANITE_265
  6
CONTINUOUS
 62
     7
 66
     1
 40
0.0139
 41
0.0139
  0
VERTEX
  8
MACK_GRANITE_265
 10
78.4727
 20
64.0105
 30
0
 70
     0
  0
VERTEX
  8
MACK_GRANITE_265
 10
78.4727
 20
16.0105
 30
0
 70
     0
  0
SEQEND
  0
POLYLINE
  8
MACK_GRANITE_265
  6
CONTINUOUS
 62
     7
 66
     1
 40
0.0139
 41
0.0139
  0
VERTEX
  8
MACK_GRANITE_265
 10
81.9727
 20
96.0105
 30
0
 70
     0
  0
VERTEX
  8
MACK_GRANITE_265
 10
81.9727
 20
64.0105
 30
0
 70
     0
  0
SEQEND
  0
POLYLINE
  8
MACK_GRANITE_265
  6
CONTINUOUS
 62
     7
 66
     1
 40
0.0139
 41
0.0139
  0
VERTEX
  8
MACK_GRANITE_265
 10
87.9727
 20
8.0105
 30
0
 70
     0
  0
VERTEX
  8
MACK_GRANITE_265
 10
87.9727
 20
16.0105
 30
0
 70
     0
  0
SEQEND
  0
POLYLINE
  8
MACK_GRANITE_265
  6
CONTINUOUS
 62
     7
 66
     1
 40
0.0139
 41
0.0139
  0
VERTEX
  8
MACK_GRANITE_265
 10
89.9727
 20
0.0105
 30
0
 70
     0
  0
VERTEX
  8
MACK_GRANITE_265
 10
59.9727
 20
0.0105
 30
0
 70
     0
  0
SEQEND
  0
POLYLINE
  8
MACK_GRANITE_265
  6
CONTINUOUS
 62
     7
 66
     1
 40
0.0139
 41
0.0139
  0
VERTEX
  8
MACK_GRANITE_265
 10
91.4727
 20
16.0105
 30
0
 70
     0
  0
VERTEX
  8
MACK_GRANITE_265
 10
91.4727
 20
64.0105
 30
0
 70
     0
  0
SEQEND
  0
POLYLINE
  8
MACK_GRANITE_265
  6
CONTINUOUS
 62
     7
 66
     1
 40
0.0139
 41
0.0139
  0
VERTEX
  8
MACK_GRANITE_265
 10
87.9727
 20
64.0105
 30
0
 70
     0
  0
VERTEX
  8
MACK_GRANITE_265
 10
87.9727
 20
96.0105
 30
0
 70
     0
  0
SEQEND
  0
POLYLINE
  8
MACK_GRANITE_265
  6
CONTINUOUS
 62
     7
 66
     1
 40
0.0139
 41
0.0139
  0
VERTEX
  8
MACK_GRANITE_265
 10
89.9727
 20
-23.9895
 30
0
 70
     0
  0
VERTEX
  8
MACK_GRANITE_265
 10
89.9731
 20
-23.9895
 30
0
 70
     0
  0
SEQEND
  0
POLYLINE
  8
MACK_GRANITE_265
  6
CONTINUOUS
 62
     7
 66
     1
 40
0.0139
 41
0.0139
  0
VERTEX
  8
MACK_GRANITE_265
 10
29.9146
 20
65.95
 30
0
 70
     0
  0
VERTEX
  8
MACK_GRANITE_265
 10
22.9731
 20
37.0105
 30
0
 70
     0
  0
SEQEND
  0
POLYLINE
  8
MACK_GRANITE_265
  6
CONTINUOUS
 62
     7
 66
     1
 40
0.0139
 41
0.0139
  0
VERTEX
  8
MACK_GRANITE_265
 10
173.0716
 20
0.0105
 30
0
 70
     0
  0
VERTEX
  8
MACK_GRANITE_265
 10
89.9727
 20
0.0105
 30
0
 70
     0
  0
SEQEND
  0
POLYLINE
  8
MACK_GRANITE_265
  6
CONTINUOUS
 62
     7
 66
     1
 40
0.0139
 41
0.0139
  0
VERTEX
  8
MACK_GRANITE_265
 10
59.9727
 20
0.0105
 30
0
 70
     0
  0
VERTEX
  8
MACK_GRANITE_265
 10
-19.0019
 20
0.0105
 30
0
 70
     0
  0
SEQEND
  0
POLYLINE
  8
MACK_GRANITE_265
  6
CONTINUOUS
 62
     7
 66
     1
 40
0.0139
 41
0.0139
  0
VERTEX
  8
MACK_GRANITE_265
 10
151.5643
 20
-13.2395
 30
0
 70
     0
  0
VERTEX
  8
MACK_GRANITE_265
 10
95.9727
 20
-13.2395
 30
0
 70
     0
  0
SEQEND
  0
POLYLINE
  8
MACK_GRANITE_265
  6
CONTINUOUS
 62
     7
 66
     1
 40
0.0139
 41
0.0139
  0
VERTEX
  8
MACK_GRANITE_265
 10
53.9727
 20
-13.2395
 30
0
 70
     0
  0
VERTEX
  8
MACK_GRANITE_265
 10
46.8888
 20
-13.2395
 30
0
 70
     0
  0
SEQEND
  0
POLYLINE
  8
MACK_GRANITE_265
  6
CONTINUOUS
 62
     7
 66
     1
 40
0.0139
 41
0.0139
  0
VERTEX
  8
MACK_GRANITE_265
 10
39.5573
 20
-13.2395
 30
0
 70
     0
  0
VERTEX
  8
MACK_GRANITE_265
 10
19.4101
 20
-13.2395
 30
0
 70
     0
  0
SEQEND
  0
POLYLINE
  8
MACK_GRANITE_265
  6
CONTINUOUS
 62
     7
 66
     1
 40
0.0139
 41
0.0139
  0
VERTEX
  8
MACK_GRANITE_265
 10
-19.464
 20
-13.2395
 30
0
 70
     0
  0
VERTEX
  8
MACK_GRANITE_265
 10
-28.0269
 20
-13.2395
 30
0
 70
     0
  0
SEQEND
  0
POLYLINE
  8
MACK_GRANITE_265
  6
CONTINUOUS
 62
     7
 66
     1
 40
0.0139
 41
0.0139
  0
VERTEX
  8
MACK_GRANITE_265
 10
-28.0269
 20
-13.2395
 30
0
 70
     0
  0
VERTEX
  8
MACK_GRANITE_265
 10
-28.0269
 20
-6.6895
 30
0
 70
     0
  0
SEQEND
  0
POLYLINE
  8
MACK_GRANITE_265
  6
CONTINUOUS
 62
     7
 66
     1
 40
0.0139
 41
0.0139
  0
VERTEX
  8
MACK_GRANITE_265
 10
77.9727
 20
1.0105
 30
0
 70
     0
  0
VERTEX
  8
MACK_GRANITE_265
 10
71.9727
 20
1.0105
 30
0
 70
     0
  0
SEQEND
  0
POLYLINE
  8
MACK_GRANITE_265
  6
CONTINUOUS
 62
     7
 66
     1
 40
0.0139
 41
0.0139
  0
VERTEX
  8
MACK_GRANITE_265
 10
77.9727
 20
66.0137
 30
0
 70
     0
  0
VERTEX
  8
MACK_GRANITE_265
 10
77.9727
 20
1.0105
 30
0
 70
     0
  0
SEQEND
  0
POLYLINE
  8
MACK_GRANITE_265
  6
CONTINUOUS
 62
     7
 66
     1
 40
0.0139
 41
0.0139
  0
VERTEX
  8
MACK_GRANITE_265
 10
-29.0269
 20
-6.6895
 30
0
 70
     0
  0
VERTEX
  8
MACK_GRANITE_265
 10
-29.0269
 20
4.7147
 30
0
 70
     0
  0
SEQEND
  0
POLYLINE
  8
MACK_GRANITE_265
  6
CONTINUOUS
 62
     7
 66
     1
 40
0.0139
 41
0.0139
  0
VERTEX
  8
MACK_GRANITE_265
 10
-26.0269
 20
-6.6895
 30
0
 70
     0
  0
VERTEX
  8
MACK_GRANITE_265
 10
-29.0269
 20
-6.6895
 30
0
 70
     0
  0
SEQEND
  0
POLYLINE
  8
MACK_GRANITE_265
  6
CONTINUOUS
 62
     7
 66
     1
 40
0.0139
 41
0.0139
  0
VERTEX
  8
MACK_GRANITE_265
 10
24.1981
 20
1.0105
 30
0
 70
     0
  0
VERTEX
  8
MACK_GRANITE_265
 10
21.0965
 20
1.0105
 30
0
 70
     0
  0
SEQEND
  0
POLYLINE
  8
MACK_GRANITE_265
  6
CONTINUOUS
 62
     7
 66
     1
 40
0.0139
 41
0.0139
  0
VERTEX
  8
MACK_GRANITE_265
 10
22.2755
 20
8.3369
 30
0
 70
     0
  0
VERTEX
  8
MACK_GRANITE_265
 10
24.1981
 20
1.0105
 30
0
 70
     0
  0
SEQEND
  0
POLYLINE
  8
MACK_GRANITE_265
  6
CONTINUOUS
 62
     7
 66
     1
 40
0.0139
 41
0.0139
  0
VERTEX
  8
MACK_GRANITE_265
 10
-19.3695
 20
14.7088
 30
0
 70
     0
  0
VERTEX
  8
MACK_GRANITE_265
 10
12.2605
 20
15.7929
 30
0
 70
     0
  0
SEQEND
  0
POLYLINE
  8
MACK_GRANITE_265
  6
CONTINUOUS
 62
     7
 66
     1
 40
0.0139
 41
0.0139
  0
VERTEX
  8
MACK_GRANITE_265
 10
95.9731
 20
-13.2395
 30
0
 70
     0
  0
VERTEX
  8
MACK_GRANITE_265
 10
95.9731
 20
-17.9895
 30
0
 70
     0
  0
SEQEND
  0
POLYLINE
  8
MACK_GRANITE_265
  6
CONTINUOUS
 62
     7
 66
     1
 40
0.0139
 41
0.0139
  0
VERTEX
  8
MACK_GRANITE_265
 10
53.9727
 20
-5.9895
 30
0
 70
     0
  0
VERTEX
  8
MACK_GRANITE_265
 10
53.9727
 20
-17.9895
 30
0
 70
     0
  0
SEQEND
  0
POLYLINE
  8
MACK_GRANITE_265
  6
CONTINUOUS
 62
     7
 66
     1
 40
0.0139
 41
0.0139
  0
VERTEX
  8
MACK_GRANITE_265
 10
95.9727
 20
-17.9895
 30
0
 70
     0
  0
VERTEX
  8
MACK_GRANITE_265
 10
95.9727
 20
-5.9895
 30
0
 70
     0
  0
SEQEND
  0
POLYLINE
  8
MACK_GRANITE_265
  6
CONTINUOUS
 62
     7
 66
     1
 40
0.0139
 41
0.0139
  0
VERTEX
  8
MACK_GRANITE_265
 10
81.9727
 20
16.0105
 30
0
 70
     0
  0
VERTEX
  8
MACK_GRANITE_265
 10
81.9727
 20
8.0105
 30
0
 70
     0
  0
SEQEND
  0
POLYLINE
  8
MACK_GRANITE_265
  6
CONTINUOUS
 62
     7
 66
     1
 40
0.0139
 41
0.0139
  0
VERTEX
  8
MACK_GRANITE_265
 10
47.532
 20
41.0999
 30
0
 70
     0
  0
VERTEX
  8
MACK_GRANITE_265
 10
47.5287
 20
41.1007
 30
0
 70
     0
  0
SEQEND
  0
POLYLINE
  8
MACK_GRANITE_265
  6
CONTINUOUS
 62
     7
 66
     1
 40
0.0139
 41
0.0139
  0
VERTEX
  8
MACK_GRANITE_265
 10
81.2231
 20
-20.1895
 30
0
 70
     0
  0
VERTEX
  8
MACK_GRANITE_265
 10
33.2231
 20
-20.1895
 30
0
 70
     0
  0
SEQEND
  0
POLYLINE
  8
MACK_GRANITE_265
  6
CONTINUOUS
 62
     7
 66
     1
 40
0.0139
 41
0.0139
  0
VERTEX
  8
MACK_GRANITE_265
 10
33.2231
 20
-22.1895
 30
0
 70
     0
  0
VERTEX
  8
MACK_GRANITE_265
 10
81.2231
 20
-22.1895
 30
0
 70
     0
  0
SEQEND
  0
POLYLINE
  8
MACK_GRANITE_265
  6
CONTINUOUS
 62
     7
 66
     1
 40
0.0139
 41
0.0139
  0
VERTEX
  8
MACK_GRANITE_265
 10
33.2231
 20
-20.1895
 30
0
 70
     0
  0
VERTEX
  8
MACK_GRANITE_265
 10
33.2231
 20
-22.1895
 30
0
 70
     0
  0
SEQEND
  0
POLYLINE
  8
MACK_GRANITE_265
  6
CONTINUOUS
 62
     7
 66
     1
 40
0.0139
 41
0.0139
  0
VERTEX
  8
MACK_GRANITE_265
 10
81.2231
 20
-22.1895
 30
0
 70
     0
  0
VERTEX
  8
MACK_GRANITE_265
 10
81.2231
 20
-20.1895
 30
0
 70
     0
  0
SEQEND
  0
POLYLINE
  8
MACK_GRANITE_265
  6
CONTINUOUS
 62
     7
 66
     1
 40
0.0139
 41
0.0139
  0
VERTEX
  8
MACK_GRANITE_265
 10
81.2231
 20
-2.1895
 30
0
 70
     0
  0
VERTEX
  8
MACK_GRANITE_265
 10
33.2231
 20
-2.1895
 30
0
 70
     0
  0
SEQEND
  0
POLYLINE
  8
MACK_GRANITE_265
  6
CONTINUOUS
 62
     7
 66
     1
 40
0.0139
 41
0.0139
  0
VERTEX
  8
MACK_GRANITE_265
 10
33.2231
 20
-2.1895
 30
0
 70
     0
  0
VERTEX
  8
MACK_GRANITE_265
 10
33.2231
 20
-4.1895
 30
0
 70
     0
  0
SEQEND
  0
POLYLINE
  8
MACK_GRANITE_265
  6
CONTINUOUS
 62
     7
 66
     1
 40
0.0139
 41
0.0139
  0
VERTEX
  8
MACK_GRANITE_265
 10
33.2231
 20
-4.1895
 30
0
 70
     0
  0
VERTEX
  8
MACK_GRANITE_265
 10
81.2231
 20
-4.1895
 30
0
 70
     0
  0
SEQEND
  0
POLYLINE
  8
MACK_GRANITE_265
  6
CONTINUOUS
 62
     7
 66
     1
 40
0.0139
 41
0.0139
  0
VERTEX
  8
MACK_GRANITE_265
 10
81.2231
 20
-4.1895
 30
0
 70
     0
  0
VERTEX
  8
MACK_GRANITE_265
 10
81.2231
 20
-2.1895
 30
0
 70
     0
  0
SEQEND
  0
POLYLINE
  8
MACK_GRANITE_265
  6
CONTINUOUS
 62
     7
 66
     1
 40
0.0139
 41
0.0139
  0
VERTEX
  8
MACK_GRANITE_265
 10
30.9727
 20
35.0105
 30
0
 70
     0
  0
VERTEX
  8
MACK_GRANITE_265
 10
30.9727
 20
6.0105
 30
0
 70
     0
  0
SEQEND
  0
POLYLINE
  8
MACK_GRANITE_265
  6
CONTINUOUS
 62
     7
 66
     1
 40
0.0139
 41
0.0139
  0
VERTEX
  8
MACK_GRANITE_265
 10
30.9727
 20
6.0105
 30
0
 70
     0
  0
VERTEX
  8
MACK_GRANITE_265
 10
64.9727
 20
6.0105
 30
0
 70
     0
  0
SEQEND
  0
POLYLINE
  8
MACK_GRANITE_265
  6
CONTINUOUS
 62
     7
 66
     1
 40
0.0139
 41
0.0139
  0
VERTEX
  8
MACK_GRANITE_265
 10
30.3578
 20
5.2605
 30
0
 70
     0
  0
VERTEX
  8
MACK_GRANITE_265
 10
65.7227
 20
5.2605
 30
0
 70
     0
  0
SEQEND
  0
POLYLINE
  8
MACK_GRANITE_265
  6
CONTINUOUS
 62
     7
 66
     1
 40
0.0139
 41
0.0139
  0
VERTEX
  8
MACK_GRANITE_265
 10
64.9727
 20
60.0105
 30
0
 70
     0
  0
VERTEX
  8
MACK_GRANITE_265
 10
47.9727
 20
60.0105
 30
0
 70
     0
  0
SEQEND
  0
POLYLINE
  8
MACK_GRANITE_265
  6
CONTINUOUS
 62
     7
 66
     1
 40
0.0139
 41
0.0139
  0
VERTEX
  8
MACK_GRANITE_265
 10
46.9727
 20
60.0105
 30
0
 70
     0
  0
VERTEX
  8
MACK_GRANITE_265
 10
36.9727
 20
60.0105
 30
0
 70
     0
  0
SEQEND
  0
POLYLINE
  8
MACK_GRANITE_265
  6
CONTINUOUS
 62
     7
 66
     1
 40
0.0139
 41
0.0139
  0
VERTEX
  8
MACK_GRANITE_265
 10
36.9727
 20
60.0105
 30
0
 70
     0
  0
VERTEX
  8
MACK_GRANITE_265
 10
30.9727
 20
35.0105
 30
0
 70
     0
  0
SEQEND
  0
POLYLINE
  8
MACK_GRANITE_265
  6
CONTINUOUS
 62
     7
 66
     1
 40
0.0139
 41
0.0139
  0
VERTEX
  8
MACK_GRANITE_265
 10
64.9727
 20
6.0105
 30
0
 70
     0
  0
VERTEX
  8
MACK_GRANITE_265
 10
64.9727
 20
60.0105
 30
0
 70
     0
  0
SEQEND
  0
POLYLINE
  8
MACK_GRANITE_265
  6
CONTINUOUS
 62
     7
 66
     1
 40
0.0139
 41
0.0139
  0
VERTEX
  8
MACK_GRANITE_265
 10
36.3814
 20
60.7605
 30
0
 70
     0
  0
VERTEX
  8
MACK_GRANITE_265
 10
30.3578
 20
35.6621
 30
0
 70
     0
  0
SEQEND
  0
POLYLINE
  8
MACK_GRANITE_265
  6
CONTINUOUS
 62
     7
 66
     1
 40
0.0139
 41
0.0139
  0
VERTEX
  8
MACK_GRANITE_265
 10
65.7227
 20
60.7605
 30
0
 70
     0
  0
VERTEX
  8
MACK_GRANITE_265
 10
36.3814
 20
60.7605
 30
0
 70
     0
  0
SEQEND
  0
POLYLINE
  8
MACK_GRANITE_265
  6
CONTINUOUS
 62
     7
 66
     1
 40
0.0139
 41
0.0139
  0
VERTEX
  8
MACK_GRANITE_265
 10
65.7227
 20
5.2605
 30
0
 70
     0
  0
VERTEX
  8
MACK_GRANITE_265
 10
65.7227
 20
60.7605
 30
0
 70
     0
  0
SEQEND
  0
POLYLINE
  8
MACK_GRANITE_265
  6
CONTINUOUS
 62
     7
 66
     1
 40
0.0139
 41
0.0139
  0
VERTEX
  8
MACK_GRANITE_265
 10
62.9727
 20
32.5105
 30
0
 70
     0
  0
VERTEX
  8
MACK_GRANITE_265
 10
62.9727
 20
58.0105
 30
0
 70
     0
  0
SEQEND
  0
POLYLINE
  8
MACK_GRANITE_265
  6
CONTINUOUS
 62
     7
 66
     1
 40
0.0139
 41
0.0139
  0
VERTEX
  8
MACK_GRANITE_265
 10
38.5495
 20
58.0105
 30
0
 70
     0
  0
VERTEX
  8
MACK_GRANITE_265
 10
32.5495
 20
33.0105
 30
0
 70
     0
  0
SEQEND
  0
POLYLINE
  8
MACK_GRANITE_265
  6
CONTINUOUS
 62
     7
 66
     1
 40
0.0139
 41
0.0139
  0
VERTEX
  8
MACK_GRANITE_265
 10
62.9727
 20
58.0105
 30
0
 70
     0
  0
VERTEX
  8
MACK_GRANITE_265
 10
47.9727
 20
58.0105
 30
0
 70
     0
  0
SEQEND
  0
POLYLINE
  8
MACK_GRANITE_265
  6
CONTINUOUS
 62
     7
 66
     1
 40
0.0139
 41
0.0139
  0
VERTEX
  8
MACK_GRANITE_265
 10
46.9727
 20
58.0105
 30
0
 70
     0
  0
VERTEX
  8
MACK_GRANITE_265
 10
38.5495
 20
58.0105
 30
0
 70
     0
  0
SEQEND
  0
POLYLINE
  8
MACK_GRANITE_265
  6
CONTINUOUS
 62
     7
 66
     1
 40
0.0139
 41
0.0139
  0
VERTEX
  8
MACK_GRANITE_265
 10
50.9727
 20
32.5105
 30
0
 70
     0
  0
VERTEX
  8
MACK_GRANITE_265
 10
62.9727
 20
32.5105
 30
0
 70
     0
  0
SEQEND
  0
POLYLINE
  8
MACK_GRANITE_265
  6
CONTINUOUS
 62
     7
 66
     1
 40
0.0139
 41
0.0139
  0
VERTEX
  8
MACK_GRANITE_265
 10
42.5495
 20
27.5105
 30
0
 70
     0
  0
VERTEX
  8
MACK_GRANITE_265
 10
46.9727
 20
30.1361
 30
0
 70
     0
  0
SEQEND
  0
POLYLINE
  8
MACK_GRANITE_265
  6
CONTINUOUS
 62
     7
 66
     1
 40
0.0139
 41
0.0139
  0
VERTEX
  8
MACK_GRANITE_265
 10
47.9727
 20
30.7297
 30
0
 70
     0
  0
VERTEX
  8
MACK_GRANITE_265
 10
50.9727
 20
32.5105
 30
0
 70
     0
  0
SEQEND
  0
POLYLINE
  8
MACK_GRANITE_265
  6
CONTINUOUS
 62
     7
 66
     1
 40
0.0139
 41
0.0139
  0
VERTEX
  8
MACK_GRANITE_265
 10
32.5495
 20
27.5105
 30
0
 70
     0
  0
VERTEX
  8
MACK_GRANITE_265
 10
42.5495
 20
27.5105
 30
0
 70
     0
  0
SEQEND
  0
POLYLINE
  8
MACK_GRANITE_265
  6
CONTINUOUS
 62
     7
 66
     1
 40
0.0139
 41
0.0139
  0
VERTEX
  8
MACK_GRANITE_265
 10
32.5495
 20
33.0105
 30
0
 70
     0
  0
VERTEX
  8
MACK_GRANITE_265
 10
32.5495
 20
27.5105
 30
0
 70
     0
  0
SEQEND
  0
POLYLINE
  8
MACK_GRANITE_265
  6
CONTINUOUS
 62
     7
 66
     1
 40
0.0139
 41
0.0139
  0
VERTEX
  8
MACK_GRANITE_265
 10
65.7227
 20
16.7855
 30
0
 70
     0
  0
VERTEX
  8
MACK_GRANITE_265
 10
64.9731
 20
16.7855
 30
0
 70
     0
  0
SEQEND
  0
POLYLINE
  8
MACK_GRANITE_265
  6
CONTINUOUS
 62
     7
 66
     1
 40
0.0139
 41
0.0139
  0
VERTEX
  8
MACK_GRANITE_265
 10
64.9731
 20
13.2855
 30
0
 70
     0
  0
VERTEX
  8
MACK_GRANITE_265
 10
65.7227
 20
13.2855
 30
0
 70
     0
  0
SEQEND
  0
POLYLINE
  8
MACK_GRANITE_265
  6
CONTINUOUS
 62
     7
 66
     1
 40
0.0139
 41
0.0139
  0
VERTEX
  8
MACK_GRANITE_265
 10
46.9727
 20
60.2137
 30
0
 70
     0
  0
VERTEX
  8
MACK_GRANITE_265
 10
47.9727
 20
60.2137
 30
0
 70
     0
  0
SEQEND
  0
POLYLINE
  8
MACK_GRANITE_265
  6
CONTINUOUS
 62
     7
 66
     1
 40
0.0139
 41
0.0139
  0
VERTEX
  8
MACK_GRANITE_265
 10
46.9727
 20
28.2137
 30
0
 70
     0
  0
VERTEX
  8
MACK_GRANITE_265
 10
47.9727
 20
28.2137
 30
0
 70
     0
  0
SEQEND
  0
POLYLINE
  8
MACK_GRANITE_265
  6
CONTINUOUS
 62
     7
 66
     1
 40
0.0139
 41
0.0139
  0
VERTEX
  8
MACK_GRANITE_265
 10
47.457
 20
40.7188
 30
0
 70
     0
  0
VERTEX
  8
MACK_GRANITE_265
 10
47.9727
 20
40.7188
 30
0
 70
     0
  0
SEQEND
  0
POLYLINE
  8
MACK_GRANITE_265
  6
CONTINUOUS
 62
     7
 66
     1
 40
0.0139
 41
0.0139
  0
VERTEX
  8
MACK_GRANITE_265
 10
46.9727
 20
58.7137
 30
0
 70
     0
  0
VERTEX
  8
MACK_GRANITE_265
 10
46.9727
 20
60.2137
 30
0
 70
     0
  0
SEQEND
  0
POLYLINE
  8
MACK_GRANITE_265
  6
CONTINUOUS
 62
     7
 66
     1
 40
0.0139
 41
0.0139
  0
VERTEX
  8
MACK_GRANITE_265
 10
46.9727
 20
56.7188
 30
0
 70
     0
  0
VERTEX
  8
MACK_GRANITE_265
 10
46.9727
 20
58.7137
 30
0
 70
     0
  0
SEQEND
  0
POLYLINE
  8
MACK_GRANITE_265
  6
CONTINUOUS
 62
     7
 66
     1
 40
0.0139
 41
0.0139
  0
VERTEX
  8
MACK_GRANITE_265
 10
47.9727
 20
56.7188
 30
0
 70
     0
  0
VERTEX
  8
MACK_GRANITE_265
 10
47.9727
 20
58.7137
 30
0
 70
     0
  0
SEQEND
  0
POLYLINE
  8
MACK_GRANITE_265
  6
CONTINUOUS
 62
     7
 66
     1
 40
0.0139
 41
0.0139
  0
VERTEX
  8
MACK_GRANITE_265
 10
46.9727
 20
28.2137
 30
0
 70
     0
  0
VERTEX
  8
MACK_GRANITE_265
 10
46.9727
 20
30.6282
 30
0
 70
     0
  0
SEQEND
  0
POLYLINE
  8
MACK_GRANITE_265
  6
CONTINUOUS
 62
     7
 66
     1
 40
0.0139
 41
0.0139
  0
VERTEX
  8
MACK_GRANITE_265
 10
46.9727
 20
30.6282
 30
0
 70
     0
  0
VERTEX
  8
MACK_GRANITE_265
 10
46.9727
 20
38.3043
 30
0
 70
     0
  0
SEQEND
  0
POLYLINE
  8
MACK_GRANITE_265
  6
CONTINUOUS
 62
     7
 66
     1
 40
0.0139
 41
0.0139
  0
VERTEX
  8
MACK_GRANITE_265
 10
46.9727
 20
38.3043
 30
0
 70
     0
  0
VERTEX
  8
MACK_GRANITE_265
 10
46.9727
 20
40.6007
 30
0
 70
     0
  0
SEQEND
  0
POLYLINE
  8
MACK_GRANITE_265
  6
CONTINUOUS
 62
     7
 66
     1
 40
0.0139
 41
0.0139
  0
VERTEX
  8
MACK_GRANITE_265
 10
46.9727
 20
41.0908
 30
0
 70
     0
  0
VERTEX
  8
MACK_GRANITE_265
 10
46.9727
 20
43.7188
 30
0
 70
     0
  0
SEQEND
  0
POLYLINE
  8
MACK_GRANITE_265
  6
CONTINUOUS
 62
     7
 66
     1
 40
0.0139
 41
0.0139
  0
VERTEX
  8
MACK_GRANITE_265
 10
46.9727
 20
43.7188
 30
0
 70
     0
  0
VERTEX
  8
MACK_GRANITE_265
 10
46.9727
 20
56.7188
 30
0
 70
     0
  0
SEQEND
  0
POLYLINE
  8
MACK_GRANITE_265
  6
CONTINUOUS
 62
     7
 66
     1
 40
0.0139
 41
0.0139
  0
VERTEX
  8
MACK_GRANITE_265
 10
47.9727
 20
58.7137
 30
0
 70
     0
  0
VERTEX
  8
MACK_GRANITE_265
 10
47.9727
 20
60.2137
 30
0
 70
     0
  0
SEQEND
  0
POLYLINE
  8
MACK_GRANITE_265
  6
CONTINUOUS
 62
     7
 66
     1
 40
0.0139
 41
0.0139
  0
VERTEX
  8
MACK_GRANITE_265
 10
47.9727
 20
43.7188
 30
0
 70
     0
  0
VERTEX
  8
MACK_GRANITE_265
 10
47.9727
 20
56.7188
 30
0
 70
     0
  0
SEQEND
  0
POLYLINE
  8
MACK_GRANITE_265
  6
CONTINUOUS
 62
     7
 66
     1
 40
0.0139
 41
0.0139
  0
VERTEX
  8
MACK_GRANITE_265
 10
47.9727
 20
28.2137
 30
0
 70
     0
  0
VERTEX
  8
MACK_GRANITE_265
 10
47.9727
 20
30.6282
 30
0
 70
     0
  0
SEQEND
  0
POLYLINE
  8
MACK_GRANITE_265
  6
CONTINUOUS
 62
     7
 66
     1
 40
0.0139
 41
0.0139
  0
VERTEX
  8
MACK_GRANITE_265
 10
47.9727
 20
30.6282
 30
0
 70
     0
  0
VERTEX
  8
MACK_GRANITE_265
 10
47.9727
 20
38.3043
 30
0
 70
     0
  0
SEQEND
  0
POLYLINE
  8
MACK_GRANITE_265
  6
CONTINUOUS
 62
     7
 66
     1
 40
0.0139
 41
0.0139
  0
VERTEX
  8
MACK_GRANITE_265
 10
47.9727
 20
38.3043
 30
0
 70
     0
  0
VERTEX
  8
MACK_GRANITE_265
 10
47.9727
 20
40.7188
 30
0
 70
     0
  0
SEQEND
  0
POLYLINE
  8
MACK_GRANITE_265
  6
CONTINUOUS
 62
     7
 66
     1
 40
0.0139
 41
0.0139
  0
VERTEX
  8
MACK_GRANITE_265
 10
47.9727
 20
40.7188
 30
0
 70
     0
  0
VERTEX
  8
MACK_GRANITE_265
 10
47.9727
 20
43.7188
 30
0
 70
     0
  0
SEQEND
  0
POLYLINE
  8
MACK_GRANITE_265
  6
CONTINUOUS
 62
     7
 66
     1
 40
0.0139
 41
0.0139
  0
VERTEX
  8
MACK_GRANITE_265
 10
47.3207
 20
40.6007
 30
0
 70
     0
  0
VERTEX
  8
MACK_GRANITE_265
 10
46.8675
 20
40.6007
 30
0
 70
     0
  0
SEQEND
  0
POLYLINE
  8
MACK_GRANITE_265
  6
CONTINUOUS
 62
     7
 66
     1
 40
0.0139
 41
0.0139
  0
VERTEX
  8
MACK_GRANITE_265
 10
46.9727
 20
57.6007
 30
0
 70
     0
  0
VERTEX
  8
MACK_GRANITE_265
 10
46.8675
 20
57.6007
 30
0
 70
     0
  0
SEQEND
  0
POLYLINE
  8
MACK_GRANITE_265
  6
CONTINUOUS
 62
     7
 66
     1
 40
0.0139
 41
0.0139
  0
VERTEX
  8
MACK_GRANITE_265
 10
43.9092
 20
57.6007
 30
0
 70
     0
  0
VERTEX
  8
MACK_GRANITE_265
 10
46.8675
 20
57.6007
 30
0
 70
     0
  0
SEQEND
  0
POLYLINE
  8
MACK_GRANITE_265
  6
CONTINUOUS
 62
     7
 66
     1
 40
0.0139
 41
0.0139
  0
VERTEX
  8
MACK_GRANITE_265
 10
47.0788
 20
41.2297
 30
0
 70
     0
  0
VERTEX
  8
MACK_GRANITE_265
 10
47.0788
 20
41.1007
 30
0
 70
     0
  0
SEQEND
  0
POLYLINE
  8
MACK_GRANITE_265
  6
CONTINUOUS
 62
     7
 66
     1
 40
0.0139
 41
0.0139
  0
VERTEX
  8
MACK_GRANITE_265
 10
43.6979
 20
41.1007
 30
0
 70
     0
  0
VERTEX
  8
MACK_GRANITE_265
 10
43.6979
 20
57.1007
 30
0
 70
     0
  0
SEQEND
  0
POLYLINE
  8
MACK_GRANITE_265
  6
CONTINUOUS
 62
     7
 66
     1
 40
0.0139
 41
0.0139
  0
VERTEX
  8
MACK_GRANITE_265
 10
46.8675
 20
40.6007
 30
0
 70
     0
  0
VERTEX
  8
MACK_GRANITE_265
 10
43.9092
 20
40.6007
 30
0
 70
     0
  0
SEQEND
  0
POLYLINE
  8
MACK_GRANITE_265
  6
CONTINUOUS
 62
     7
 66
     1
 40
0.0139
 41
0.0139
  0
VERTEX
  8
MACK_GRANITE_265
 10
87.9727
 20
96.0105
 30
0
 70
     0
  0
VERTEX
  8
MACK_GRANITE_265
 10
81.9727
 20
96.0105
 30
0
 70
     0
  0
SEQEND
  0
POLYLINE
  8
MACK_GRANITE_265
  6
CONTINUOUS
 62
     7
 66
     1
 40
0.0139
 41
0.0139
  0
VERTEX
  8
MACK_GRANITE_265
 10
91.4727
 20
64.0105
 30
0
 70
     0
  0
VERTEX
  8
MACK_GRANITE_265
 10
78.4727
 20
64.0105
 30
0
 70
     0
  0
SEQEND
  0
POLYLINE
  8
MACK_GRANITE_265
  6
CONTINUOUS
 62
     7
 66
     1
 40
0.0139
 41
0.0139
  0
VERTEX
  8
MACK_GRANITE_265
 10
91.4727
 20
16.0105
 30
0
 70
     0
  0
VERTEX
  8
MACK_GRANITE_265
 10
78.4727
 20
16.0105
 30
0
 70
     0
  0
SEQEND
  0
POLYLINE
  8
MACK_GRANITE_265
  6
CONTINUOUS
 62
     7
 66
     1
 40
0.0139
 41
0.0139
  0
VERTEX
  8
MACK_GRANITE_265
 10
87.9727
 20
8.0105
 30
0
 70
     0
  0
VERTEX
  8
MACK_GRANITE_265
 10
81.9727
 20
8.0105
 30
0
 70
     0
  0
SEQEND
  0
POLYLINE
  8
MACK_GRANITE_265
  6
CONTINUOUS
 62
     7
 66
     1
 40
0.0139
 41
0.0139
  0
VERTEX
  8
MACK_GRANITE_265
 10
51.7231
 20
-11.6895
 30
0
 70
     0
  0
VERTEX
  8
MACK_GRANITE_265
 10
34.7231
 20
-11.6895
 30
0
 70
     0
  0
SEQEND
  0
POLYLINE
  8
MACK_GRANITE_265
  6
CONTINUOUS
 62
     7
 66
     1
 40
0.0139
 41
0.0139
  0
VERTEX
  8
MACK_GRANITE_265
 10
34.7231
 20
-11.6895
 30
0
 70
     0
  0
VERTEX
  8
MACK_GRANITE_265
 10
34.7231
 20
-4.1895
 30
0
 70
     0
  0
SEQEND
  0
POLYLINE
  8
MACK_GRANITE_265
  6
CONTINUOUS
 62
     7
 66
     1
 40
0.0139
 41
0.0139
  0
VERTEX
  8
MACK_GRANITE_265
 10
34.7231
 20
-2.1895
 30
0
 70
     0
  0
VERTEX
  8
MACK_GRANITE_265
 10
34.7231
 20
-1.6895
 30
0
 70
     0
  0
SEQEND
  0
POLYLINE
  8
MACK_GRANITE_265
  6
CONTINUOUS
 62
     7
 66
     1
 40
0.0139
 41
0.0139
  0
VERTEX
  8
MACK_GRANITE_265
 10
51.7231
 20
-1.6895
 30
0
 70
     0
  0
VERTEX
  8
MACK_GRANITE_265
 10
51.7231
 20
-2.1895
 30
0
 70
     0
  0
SEQEND
  0
POLYLINE
  8
MACK_GRANITE_265
  6
CONTINUOUS
 62
     7
 66
     1
 40
0.0139
 41
0.0139
  0
VERTEX
  8
MACK_GRANITE_265
 10
51.7231
 20
-4.1895
 30
0
 70
     0
  0
VERTEX
  8
MACK_GRANITE_265
 10
51.7231
 20
-11.6895
 30
0
 70
     0
  0
SEQEND
  0
POLYLINE
  8
MACK_GRANITE_265
  6
CONTINUOUS
 62
     7
 66
     1
 40
0.0139
 41
0.0139
  0
VERTEX
  8
MACK_GRANITE_265
 10
34.7231
 20
-1.6895
 30
0
 70
     0
  0
VERTEX
  8
MACK_GRANITE_265
 10
51.7231
 20
-1.6895
 30
0
 70
     0
  0
SEQEND
  0
POLYLINE
  8
MACK_GRANITE_265
  6
CONTINUOUS
 62
     7
 66
     1
 40
0.0139
 41
0.0139
  0
VERTEX
  8
MACK_GRANITE_265
 10
-31.5269
 20
-10.6895
 30
0
 70
     0
  0
VERTEX
  8
MACK_GRANITE_265
 10
-29.0269
 20
-10.6895
 30
0
 70
     0
  0
SEQEND
  0
POLYLINE
  8
MACK_GRANITE_265
  6
CONTINUOUS
 62
     7
 66
     1
 40
0.0139
 41
0.0139
  0
VERTEX
  8
MACK_GRANITE_265
 10
-31.5269
 20
-21.1895
 30
0
 70
     0
  0
VERTEX
  8
MACK_GRANITE_265
 10
-29.0269
 20
-21.1895
 30
0
 70
     0
  0
SEQEND
  0
POLYLINE
  8
MACK_GRANITE_265
  6
CONTINUOUS
 62
     7
 66
     1
 40
0.0139
 41
0.0139
  0
VERTEX
  8
MACK_GRANITE_265
 10
-29.0269
 20
-21.1895
 30
0
 70
     0
  0
VERTEX
  8
MACK_GRANITE_265
 10
-29.0269
 20
-10.6895
 30
0
 70
     0
  0
SEQEND
  0
POLYLINE
  8
MACK_GRANITE_265
  6
CONTINUOUS
 62
     7
 66
     1
 40
0.0139
 41
0.0139
  0
VERTEX
  8
MACK_GRANITE_265
 10
-31.5269
 20
-21.1895
 30
0
 70
     0
  0
VERTEX
  8
MACK_GRANITE_265
 10
-35.0269
 20
-21.1895
 30
0
 70
     0
  0
SEQEND
  0
POLYLINE
  8
MACK_GRANITE_265
  6
CONTINUOUS
 62
     7
 66
     1
 40
0.0139
 41
0.0139
  0
VERTEX
  8
MACK_GRANITE_265
 10
-31.5269
 20
-10.6895
 30
0
 70
     0
  0
VERTEX
  8
MACK_GRANITE_265
 10
-35.0269
 20
-10.6895
 30
0
 70
     0
  0
SEQEND
  0
POLYLINE
  8
MACK_GRANITE_265
  6
CONTINUOUS
 62
     7
 66
     1
 40
0.0139
 41
0.0139
  0
VERTEX
  8
MACK_GRANITE_265
 10
-31.5269
 20
-21.1895
 30
0
 70
     0
  0
VERTEX
  8
MACK_GRANITE_265
 10
-31.5269
 20
-10.6895
 30
0
 70
     0
  0
SEQEND
  0
POLYLINE
  8
MACK_GRANITE_265
  6
CONTINUOUS
 62
     7
 66
     1
 40
0.0139
 41
0.0139
  0
VERTEX
  8
MACK_GRANITE_265
 10
29.8035
 20
35.8101
 30
0
 70
     0
  0
VERTEX
  8
MACK_GRANITE_265
 10
29.7806
 20
35.8108
 30
0
 70
     0
  0
VERTEX
  8
MACK_GRANITE_265
 10
29.758
 20
35.8078
 30
0
 70
     0
  0
VERTEX
  8
MACK_GRANITE_265
 10
29.7468
 20
35.8052
 30
0
 70
     0
  0
VERTEX
  8
MACK_GRANITE_265
 10
29.7358
 20
35.8018
 30
0
 70
     0
  0
VERTEX
  8
MACK_GRANITE_265
 10
29.725
 20
35.7979
 30
0
 70
     0
  0
VERTEX
  8
MACK_GRANITE_265
 10
29.7145
 20
35.7934
 30
0
 70
     0
  0
VERTEX
  8
MACK_GRANITE_265
 10
29.6941
 20
35.7831
 30
0
 70
     0
  0
VERTEX
  8
MACK_GRANITE_265
 10
29.6744
 20
35.7712
 30
0
 70
     0
  0
VERTEX
  8
MACK_GRANITE_265
 10
29.6555
 20
35.7582
 30
0
 70
     0
  0
VERTEX
  8
MACK_GRANITE_265
 10
29.6373
 20
35.7443
 30
0
 70
     0
  0
VERTEX
  8
MACK_GRANITE_265
 10
29.6029
 20
35.7144
 30
0
 70
     0
  0
VERTEX
  8
MACK_GRANITE_265
 10
29.5705
 20
35.6824
 30
0
 70
     0
  0
VERTEX
  8
MACK_GRANITE_265
 10
29.5395
 20
35.6487
 30
0
 70
     0
  0
VERTEX
  8
MACK_GRANITE_265
 10
29.5098
 20
35.6138
 30
0
 70
     0
  0
VERTEX
  8
MACK_GRANITE_265
 10
29.4537
 20
35.5415
 30
0
 70
     0
  0
VERTEX
  8
MACK_GRANITE_265
 10
29.4012
 20
35.4669
 30
0
 70
     0
  0
VERTEX
  8
MACK_GRANITE_265
 10
29.3512
 20
35.3908
 30
0
 70
     0
  0
VERTEX
  8
MACK_GRANITE_265
 10
29.3034
 20
35.3133
 30
0
 70
     0
  0
VERTEX
  8
MACK_GRANITE_265
 10
29.2123
 20
35.1555
 30
0
 70
     0
  0
VERTEX
  8
MACK_GRANITE_265
 10
29.126
 20
34.9947
 30
0
 70
     0
  0
VERTEX
  8
MACK_GRANITE_265
 10
29.0433
 20
34.8317
 30
0
 70
     0
  0
VERTEX
  8
MACK_GRANITE_265
 10
28.9636
 20
34.6672
 30
0
 70
     0
  0
VERTEX
  8
MACK_GRANITE_265
 10
28.8863
 20
34.5017
 30
0
 70
     0
  0
VERTEX
  8
MACK_GRANITE_265
 10
28.8111
 20
34.3354
 30
0
 70
     0
  0
VERTEX
  8
MACK_GRANITE_265
 10
28.7376
 20
34.1683
 30
0
 70
     0
  0
VERTEX
  8
MACK_GRANITE_265
 10
28.6656
 20
34.0006
 30
0
 70
     0
  0
VERTEX
  8
MACK_GRANITE_265
 10
28.5254
 20
33.6636
 30
0
 70
     0
  0
VERTEX
  8
MACK_GRANITE_265
 10
28.3894
 20
33.3249
 30
0
 70
     0
  0
VERTEX
  8
MACK_GRANITE_265
 10
28.2568
 20
32.9847
 30
0
 70
     0
  0
VERTEX
  8
MACK_GRANITE_265
 10
28.1271
 20
32.6434
 30
0
 70
     0
  0
VERTEX
  8
MACK_GRANITE_265
 10
27.9998
 20
32.3011
 30
0
 70
     0
  0
VERTEX
  8
MACK_GRANITE_265
 10
27.8746
 20
31.9579
 30
0
 70
     0
  0
VERTEX
  8
MACK_GRANITE_265
 10
27.6296
 20
31.2694
 30
0
 70
     0
  0
VERTEX
  8
MACK_GRANITE_265
 10
27.3906
 20
30.5785
 30
0
 70
     0
  0
SEQEND
  0
POLYLINE
  8
MACK_GRANITE_265
  6
CONTINUOUS
 62
     7
 66
     1
 40
0.0139
 41
0.0139
  0
VERTEX
  8
MACK_GRANITE_265
 10
27.3906
 20
30.5785
 30
0
 70
     0
  0
VERTEX
  8
MACK_GRANITE_265
 10
27.4325
 20
30.7141
 30
0
 70
     0
  0
VERTEX
  8
MACK_GRANITE_265
 10
27.4661
 20
30.8509
 30
0
 70
     0
  0
VERTEX
  8
MACK_GRANITE_265
 10
27.4914
 20
30.9891
 30
0
 70
     0
  0
VERTEX
  8
MACK_GRANITE_265
 10
27.5088
 20
31.1285
 30
0
 70
     0
  0
VERTEX
  8
MACK_GRANITE_265
 10
27.5146
 20
31.1986
 30
0
 70
     0
  0
VERTEX
  8
MACK_GRANITE_265
 10
27.5187
 20
31.269
 30
0
 70
     0
  0
VERTEX
  8
MACK_GRANITE_265
 10
27.5211
 20
31.3394
 30
0
 70
     0
  0
VERTEX
  8
MACK_GRANITE_265
 10
27.5218
 20
31.4095
 30
0
 70
     0
  0
VERTEX
  8
MACK_GRANITE_265
 10
27.519
 20
31.5483
 30
0
 70
     0
  0
VERTEX
  8
MACK_GRANITE_265
 10
27.5113
 20
31.6857
 30
0
 70
     0
  0
VERTEX
  8
MACK_GRANITE_265
 10
27.4995
 20
31.8217
 30
0
 70
     0
  0
VERTEX
  8
MACK_GRANITE_265
 10
27.4843
 20
31.9564
 30
0
 70
     0
  0
VERTEX
  8
MACK_GRANITE_265
 10
27.4665
 20
32.09
 30
0
 70
     0
  0
VERTEX
  8
MACK_GRANITE_265
 10
27.4465
 20
32.2225
 30
0
 70
     0
  0
VERTEX
  8
MACK_GRANITE_265
 10
27.4358
 20
32.2884
 30
0
 70
     0
  0
VERTEX
  8
MACK_GRANITE_265
 10
27.4248
 20
32.354
 30
0
 70
     0
  0
VERTEX
  8
MACK_GRANITE_265
 10
27.4135
 20
32.4192
 30
0
 70
     0
  0
VERTEX
  8
MACK_GRANITE_265
 10
27.402
 20
32.4839
 30
0
 70
     0
  0
VERTEX
  8
MACK_GRANITE_265
 10
27.3785
 20
32.6119
 30
0
 70
     0
  0
VERTEX
  8
MACK_GRANITE_265
 10
27.3546
 20
32.7383
 30
0
 70
     0
  0
VERTEX
  8
MACK_GRANITE_265
 10
27.3066
 20
32.9862
 30
0
 70
     0
  0
VERTEX
  8
MACK_GRANITE_265
 10
27.2597
 20
33.228
 30
0
 70
     0
  0
VERTEX
  8
MACK_GRANITE_265
 10
27.2155
 20
33.4639
 30
0
 70
     0
  0
VERTEX
  8
MACK_GRANITE_265
 10
27.1753
 20
33.694
 30
0
 70
     0
  0
VERTEX
  8
MACK_GRANITE_265
 10
27.157
 20
33.8068
 30
0
 70
     0
  0
VERTEX
  8
MACK_GRANITE_265
 10
27.1402
 20
33.9182
 30
0
 70
     0
  0
VERTEX
  8
MACK_GRANITE_265
 10
27.1324
 20
33.9734
 30
0
 70
     0
  0
VERTEX
  8
MACK_GRANITE_265
 10
27.125
 20
34.0282
 30
0
 70
     0
  0
VERTEX
  8
MACK_GRANITE_265
 10
27.1181
 20
34.0825
 30
0
 70
     0
  0
VERTEX
  8
MACK_GRANITE_265
 10
27.1116
 20
34.1365
 30
0
 70
     0
  0
VERTEX
  8
MACK_GRANITE_265
 10
27.0909
 20
34.3464
 30
0
 70
     0
  0
VERTEX
  8
MACK_GRANITE_265
 10
27.0794
 20
34.547
 30
0
 70
     0
  0
SEQEND
  0
POLYLINE
  8
MACK_GRANITE_265
  6
CONTINUOUS
 62
     7
 66
     1
 40
0.0139
 41
0.0139
  0
VERTEX
  8
MACK_GRANITE_265
 10
36.4684
 20
68.687
 30
0
 70
     0
  0
VERTEX
  8
MACK_GRANITE_265
 10
34.4581
 20
68.4564
 30
0
 70
     0
  0
VERTEX
  8
MACK_GRANITE_265
 10
32.45
 20
68.2079
 30
0
 70
     0
  0
SEQEND
  0
POLYLINE
  8
MACK_GRANITE_265
  6
CONTINUOUS
 62
     7
 66
     1
 40
0.0139
 41
0.0139
  0
VERTEX
  8
MACK_GRANITE_265
 10
10.0684
 20
-21.1895
 30
0
 70
     0
  0
VERTEX
  8
MACK_GRANITE_265
 10
10.065
 20
-21.4484
 30
0
 70
     0
  0
VERTEX
  8
MACK_GRANITE_265
 10
10.0551
 20
-21.7057
 30
0
 70
     0
  0
VERTEX
  8
MACK_GRANITE_265
 10
10.0387
 20
-21.9615
 30
0
 70
     0
  0
VERTEX
  8
MACK_GRANITE_265
 10
10.0158
 20
-22.2155
 30
0
 70
     0
  0
VERTEX
  8
MACK_GRANITE_265
 10
9.9866
 20
-22.4678
 30
0
 70
     0
  0
VERTEX
  8
MACK_GRANITE_265
 10
9.9511
 20
-22.7183
 30
0
 70
     0
  0
VERTEX
  8
MACK_GRANITE_265
 10
9.9095
 20
-22.9668
 30
0
 70
     0
  0
VERTEX
  8
MACK_GRANITE_265
 10
9.8617
 20
-23.2133
 30
0
 70
     0
  0
VERTEX
  8
MACK_GRANITE_265
 10
9.8079
 20
-23.4578
 30
0
 70
     0
  0
VERTEX
  8
MACK_GRANITE_265
 10
9.7482
 20
-23.7
 30
0
 70
     0
  0
VERTEX
  8
MACK_GRANITE_265
 10
9.6826
 20
-23.94
 30
0
 70
     0
  0
VERTEX
  8
MACK_GRANITE_265
 10
9.6113
 20
-24.1777
 30
0
 70
     0
  0
VERTEX
  8
MACK_GRANITE_265
 10
9.5342
 20
-24.4129
 30
0
 70
     0
  0
VERTEX
  8
MACK_GRANITE_265
 10
9.4516
 20
-24.6456
 30
0
 70
     0
  0
VERTEX
  8
MACK_GRANITE_265
 10
9.3634
 20
-24.8758
 30
0
 70
     0
  0
VERTEX
  8
MACK_GRANITE_265
 10
9.2698
 20
-25.1033
 30
0
 70
     0
  0
VERTEX
  8
MACK_GRANITE_265
 10
9.1708
 20
-25.328
 30
0
 70
     0
  0
VERTEX
  8
MACK_GRANITE_265
 10
9.0665
 20
-25.5499
 30
0
 70
     0
  0
VERTEX
  8
MACK_GRANITE_265
 10
8.957
 20
-25.769
 30
0
 70
     0
  0
VERTEX
  8
MACK_GRANITE_265
 10
8.8424
 20
-25.985
 30
0
 70
     0
  0
VERTEX
  8
MACK_GRANITE_265
 10
8.5981
 20
-26.4077
 30
0
 70
     0
  0
VERTEX
  8
MACK_GRANITE_265
 10
8.3344
 20
-26.8175
 30
0
 70
     0
  0
VERTEX
  8
MACK_GRANITE_265
 10
8.0518
 20
-27.2136
 30
0
 70
     0
  0
VERTEX
  8
MACK_GRANITE_265
 10
7.751
 20
-27.5955
 30
0
 70
     0
  0
VERTEX
  8
MACK_GRANITE_265
 10
7.4327
 20
-27.9625
 30
0
 70
     0
  0
VERTEX
  8
MACK_GRANITE_265
 10
7.0975
 20
-28.3139
 30
0
 70
     0
  0
VERTEX
  8
MACK_GRANITE_265
 10
6.7461
 20
-28.6491
 30
0
 70
     0
  0
VERTEX
  8
MACK_GRANITE_265
 10
6.3791
 20
-28.9675
 30
0
 70
     0
  0
VERTEX
  8
MACK_GRANITE_265
 10
5.9972
 20
-29.2682
 30
0
 70
     0
  0
VERTEX
  8
MACK_GRANITE_265
 10
5.601
 20
-29.5508
 30
0
 70
     0
  0
VERTEX
  8
MACK_GRANITE_265
 10
5.1912
 20
-29.8146
 30
0
 70
     0
  0
VERTEX
  8
MACK_GRANITE_265
 10
4.7685
 20
-30.0588
 30
0
 70
     0
  0
VERTEX
  8
MACK_GRANITE_265
 10
4.5525
 20
-30.1734
 30
0
 70
     0
  0
VERTEX
  8
MACK_GRANITE_265
 10
4.3335
 20
-30.2829
 30
0
 70
     0
  0
VERTEX
  8
MACK_GRANITE_265
 10
4.1116
 20
-30.3872
 30
0
 70
     0
  0
VERTEX
  8
MACK_GRANITE_265
 10
3.8868
 20
-30.4862
 30
0
 70
     0
  0
VERTEX
  8
MACK_GRANITE_265
 10
3.6593
 20
-30.5798
 30
0
 70
     0
  0
VERTEX
  8
MACK_GRANITE_265
 10
3.4292
 20
-30.668
 30
0
 70
     0
  0
VERTEX
  8
MACK_GRANITE_265
 10
3.1965
 20
-30.7507
 30
0
 70
     0
  0
VERTEX
  8
MACK_GRANITE_265
 10
2.9612
 20
-30.8277
 30
0
 70
     0
  0
VERTEX
  8
MACK_GRANITE_265
 10
2.7236
 20
-30.8991
 30
0
 70
     0
  0
VERTEX
  8
MACK_GRANITE_265
 10
2.4836
 20
-30.9647
 30
0
 70
     0
  0
VERTEX
  8
MACK_GRANITE_265
 10
2.2413
 20
-31.0244
 30
0
 70
     0
  0
VERTEX
  8
MACK_GRANITE_265
 10
1.9969
 20
-31.0782
 30
0
 70
     0
  0
VERTEX
  8
MACK_GRANITE_265
 10
1.7504
 20
-31.1259
 30
0
 70
     0
  0
VERTEX
  8
MACK_GRANITE_265
 10
1.5018
 20
-31.1676
 30
0
 70
     0
  0
VERTEX
  8
MACK_GRANITE_265
 10
1.2514
 20
-31.2031
 30
0
 70
     0
  0
VERTEX
  8
MACK_GRANITE_265
 10
0.9991
 20
-31.2323
 30
0
 70
     0
  0
VERTEX
  8
MACK_GRANITE_265
 10
0.745
 20
-31.2551
 30
0
 70
     0
  0
VERTEX
  8
MACK_GRANITE_265
 10
0.4893
 20
-31.2716
 30
0
 70
     0
  0
VERTEX
  8
MACK_GRANITE_265
 10
0.2319
 20
-31.2815
 30
0
 70
     0
  0
VERTEX
  8
MACK_GRANITE_265
 10
-0.0269
 20
-31.2848
 30
0
 70
     0
  0
VERTEX
  8
MACK_GRANITE_265
 10
-0.2858
 20
-31.2815
 30
0
 70
     0
  0
VERTEX
  8
MACK_GRANITE_265
 10
-0.5432
 20
-31.2716
 30
0
 70
     0
  0
VERTEX
  8
MACK_GRANITE_265
 10
-0.7989
 20
-31.2551
 30
0
 70
     0
  0
VERTEX
  8
MACK_GRANITE_265
 10
-1.053
 20
-31.2323
 30
0
 70
     0
  0
VERTEX
  8
MACK_GRANITE_265
 10
-1.3053
 20
-31.2031
 30
0
 70
     0
  0
VERTEX
  8
MACK_GRANITE_265
 10
-1.5557
 20
-31.1676
 30
0
 70
     0
  0
VERTEX
  8
MACK_GRANITE_265
 10
-1.8043
 20
-31.1259
 30
0
 70
     0
  0
VERTEX
  8
MACK_GRANITE_265
 10
-2.0508
 20
-31.0782
 30
0
 70
     0
  0
VERTEX
  8
MACK_GRANITE_265
 10
-2.2952
 20
-31.0244
 30
0
 70
     0
  0
VERTEX
  8
MACK_GRANITE_265
 10
-2.5375
 20
-30.9647
 30
0
 70
     0
  0
VERTEX
  8
MACK_GRANITE_265
 10
-2.7774
 20
-30.8991
 30
0
 70
     0
  0
VERTEX
  8
MACK_GRANITE_265
 10
-3.0151
 20
-30.8277
 30
0
 70
     0
  0
VERTEX
  8
MACK_GRANITE_265
 10
-3.2503
 20
-30.7507
 30
0
 70
     0
  0
VERTEX
  8
MACK_GRANITE_265
 10
-3.4831
 20
-30.668
 30
0
 70
     0
  0
VERTEX
  8
MACK_GRANITE_265
 10
-3.7132
 20
-30.5798
 30
0
 70
     0
  0
VERTEX
  8
MACK_GRANITE_265
 10
-3.9407
 20
-30.4862
 30
0
 70
     0
  0
VERTEX
  8
MACK_GRANITE_265
 10
-4.1655
 20
-30.3872
 30
0
 70
     0
  0
VERTEX
  8
MACK_GRANITE_265
 10
-4.3874
 20
-30.2829
 30
0
 70
     0
  0
VERTEX
  8
MACK_GRANITE_265
 10
-4.6064
 20
-30.1734
 30
0
 70
     0
  0
VERTEX
  8
MACK_GRANITE_265
 10
-4.8224
 20
-30.0588
 30
0
 70
     0
  0
VERTEX
  8
MACK_GRANITE_265
 10
-5.2451
 20
-29.8146
 30
0
 70
     0
  0
VERTEX
  8
MACK_GRANITE_265
 10
-5.6549
 20
-29.5508
 30
0
 70
     0
  0
VERTEX
  8
MACK_GRANITE_265
 10
-6.0511
 20
-29.2682
 30
0
 70
     0
  0
VERTEX
  8
MACK_GRANITE_265
 10
-6.433
 20
-28.9675
 30
0
 70
     0
  0
VERTEX
  8
MACK_GRANITE_265
 10
-6.8
 20
-28.6491
 30
0
 70
     0
  0
VERTEX
  8
MACK_GRANITE_265
 10
-7.1514
 20
-28.3139
 30
0
 70
     0
  0
VERTEX
  8
MACK_GRANITE_265
 10
-7.4866
 20
-27.9625
 30
0
 70
     0
  0
VERTEX
  8
MACK_GRANITE_265
 10
-7.8049
 20
-27.5955
 30
0
 70
     0
  0
VERTEX
  8
MACK_GRANITE_265
 10
-8.1057
 20
-27.2136
 30
0
 70
     0
  0
VERTEX
  8
MACK_GRANITE_265
 10
-8.3883
 20
-26.8175
 30
0
 70
     0
  0
VERTEX
  8
MACK_GRANITE_265
 10
-8.652
 20
-26.4077
 30
0
 70
     0
  0
VERTEX
  8
MACK_GRANITE_265
 10
-8.8963
 20
-25.985
 30
0
 70
     0
  0
VERTEX
  8
MACK_GRANITE_265
 10
-9.0109
 20
-25.769
 30
0
 70
     0
  0
VERTEX
  8
MACK_GRANITE_265
 10
-9.1204
 20
-25.5499
 30
0
 70
     0
  0
VERTEX
  8
MACK_GRANITE_265
 10
-9.2247
 20
-25.328
 30
0
 70
     0
  0
VERTEX
  8
MACK_GRANITE_265
 10
-9.3237
 20
-25.1033
 30
0
 70
     0
  0
VERTEX
  8
MACK_GRANITE_265
 10
-9.4173
 20
-24.8758
 30
0
 70
     0
  0
VERTEX
  8
MACK_GRANITE_265
 10
-9.5055
 20
-24.6456
 30
0
 70
     0
  0
VERTEX
  8
MACK_GRANITE_265
 10
-9.5881
 20
-24.4129
 30
0
 70
     0
  0
VERTEX
  8
MACK_GRANITE_265
 10
-9.6652
 20
-24.1777
 30
0
 70
     0
  0
VERTEX
  8
MACK_GRANITE_265
 10
-9.7365
 20
-23.94
 30
0
 70
     0
  0
VERTEX
  8
MACK_GRANITE_265
 10
-9.8021
 20
-23.7
 30
0
 70
     0
  0
VERTEX
  8
MACK_GRANITE_265
 10
-9.8618
 20
-23.4578
 30
0
 70
     0
  0
VERTEX
  8
MACK_GRANITE_265
 10
-9.9156
 20
-23.2133
 30
0
 70
     0
  0
VERTEX
  8
MACK_GRANITE_265
 10
-9.9634
 20
-22.9668
 30
0
 70
     0
  0
VERTEX
  8
MACK_GRANITE_265
 10
-10.005
 20
-22.7183
 30
0
 70
     0
  0
VERTEX
  8
MACK_GRANITE_265
 10
-10.0405
 20
-22.4678
 30
0
 70
     0
  0
VERTEX
  8
MACK_GRANITE_265
 10
-10.0697
 20
-22.2155
 30
0
 70
     0
  0
VERTEX
  8
MACK_GRANITE_265
 10
-10.0926
 20
-21.9615
 30
0
 70
     0
  0
VERTEX
  8
MACK_GRANITE_265
 10
-10.109
 20
-21.7057
 30
0
 70
     0
  0
VERTEX
  8
MACK_GRANITE_265
 10
-10.1189
 20
-21.4484
 30
0
 70
     0
  0
VERTEX
  8
MACK_GRANITE_265
 10
-10.1222
 20
-21.1895
 30
0
 70
     0
  0
VERTEX
  8
MACK_GRANITE_265
 10
-10.1189
 20
-20.9306
 30
0
 70
     0
  0
VERTEX
  8
MACK_GRANITE_265
 10
-10.109
 20
-20.6733
 30
0
 70
     0
  0
VERTEX
  8
MACK_GRANITE_265
 10
-10.0926
 20
-20.4175
 30
0
 70
     0
  0
VERTEX
  8
MACK_GRANITE_265
 10
-10.0697
 20
-20.1635
 30
0
 70
     0
  0
VERTEX
  8
MACK_GRANITE_265
 10
-10.0405
 20
-19.9112
 30
0
 70
     0
  0
VERTEX
  8
MACK_GRANITE_265
 10
-10.005
 20
-19.6607
 30
0
 70
     0
  0
VERTEX
  8
MACK_GRANITE_265
 10
-9.9634
 20
-19.4122
 30
0
 70
     0
  0
VERTEX
  8
MACK_GRANITE_265
 10
-9.9156
 20
-19.1657
 30
0
 70
     0
  0
VERTEX
  8
MACK_GRANITE_265
 10
-9.8618
 20
-18.9213
 30
0
 70
     0
  0
VERTEX
  8
MACK_GRANITE_265
 10
-9.8021
 20
-18.679
 30
0
 70
     0
  0
VERTEX
  8
MACK_GRANITE_265
 10
-9.7365
 20
-18.439
 30
0
 70
     0
  0
VERTEX
  8
MACK_GRANITE_265
 10
-9.6652
 20
-18.2013
 30
0
 70
     0
  0
VERTEX
  8
MACK_GRANITE_265
 10
-9.5881
 20
-17.9661
 30
0
 70
     0
  0
VERTEX
  8
MACK_GRANITE_265
 10
-9.5055
 20
-17.7334
 30
0
 70
     0
  0
VERTEX
  8
MACK_GRANITE_265
 10
-9.4173
 20
-17.5032
 30
0
 70
     0
  0
VERTEX
  8
MACK_GRANITE_265
 10
-9.3237
 20
-17.2757
 30
0
 70
     0
  0
VERTEX
  8
MACK_GRANITE_265
 10
-9.2247
 20
-17.051
 30
0
 70
     0
  0
VERTEX
  8
MACK_GRANITE_265
 10
-9.1204
 20
-16.8291
 30
0
 70
     0
  0
VERTEX
  8
MACK_GRANITE_265
 10
-9.0109
 20
-16.6101
 30
0
 70
     0
  0
VERTEX
  8
MACK_GRANITE_265
 10
-8.8963
 20
-16.394
 30
0
 70
     0
  0
VERTEX
  8
MACK_GRANITE_265
 10
-8.652
 20
-15.9713
 30
0
 70
     0
  0
VERTEX
  8
MACK_GRANITE_265
 10
-8.3883
 20
-15.5615
 30
0
 70
     0
  0
VERTEX
  8
MACK_GRANITE_265
 10
-8.1057
 20
-15.1654
 30
0
 70
     0
  0
VERTEX
  8
MACK_GRANITE_265
 10
-7.8049
 20
-14.7835
 30
0
 70
     0
  0
VERTEX
  8
MACK_GRANITE_265
 10
-7.4866
 20
-14.4165
 30
0
 70
     0
  0
VERTEX
  8
MACK_GRANITE_265
 10
-7.1514
 20
-14.0651
 30
0
 70
     0
  0
VERTEX
  8
MACK_GRANITE_265
 10
-6.8
 20
-13.7299
 30
0
 70
     0
  0
VERTEX
  8
MACK_GRANITE_265
 10
-6.433
 20
-13.4115
 30
0
 70
     0
  0
VERTEX
  8
MACK_GRANITE_265
 10
-6.0511
 20
-13.1108
 30
0
 70
     0
  0
VERTEX
  8
MACK_GRANITE_265
 10
-5.6549
 20
-12.8282
 30
0
 70
     0
  0
VERTEX
  8
MACK_GRANITE_265
 10
-5.2451
 20
-12.5644
 30
0
 70
     0
  0
VERTEX
  8
MACK_GRANITE_265
 10
-4.8224
 20
-12.3202
 30
0
 70
     0
  0
VERTEX
  8
MACK_GRANITE_265
 10
-4.6064
 20
-12.2056
 30
0
 70
     0
  0
VERTEX
  8
MACK_GRANITE_265
 10
-4.3874
 20
-12.0961
 30
0
 70
     0
  0
VERTEX
  8
MACK_GRANITE_265
 10
-4.1655
 20
-11.9918
 30
0
 70
     0
  0
VERTEX
  8
MACK_GRANITE_265
 10
-3.9407
 20
-11.8928
 30
0
 70
     0
  0
VERTEX
  8
MACK_GRANITE_265
 10
-3.7132
 20
-11.7992
 30
0
 70
     0
  0
VERTEX
  8
MACK_GRANITE_265
 10
-3.4831
 20
-11.711
 30
0
 70
     0
  0
VERTEX
  8
MACK_GRANITE_265
 10
-3.2503
 20
-11.6283
 30
0
 70
     0
  0
VERTEX
  8
MACK_GRANITE_265
 10
-3.0151
 20
-11.5513
 30
0
 70
     0
  0
VERTEX
  8
MACK_GRANITE_265
 10
-2.7774
 20
-11.4799
 30
0
 70
     0
  0
VERTEX
  8
MACK_GRANITE_265
 10
-2.5375
 20
-11.4143
 30
0
 70
     0
  0
VERTEX
  8
MACK_GRANITE_265
 10
-2.2952
 20
-11.3546
 30
0
 70
     0
  0
VERTEX
  8
MACK_GRANITE_265
 10
-2.0508
 20
-11.3008
 30
0
 70
     0
  0
VERTEX
  8
MACK_GRANITE_265
 10
-1.8043
 20
-11.2531
 30
0
 70
     0
  0
VERTEX
  8
MACK_GRANITE_265
 10
-1.5557
 20
-11.2114
 30
0
 70
     0
  0
VERTEX
  8
MACK_GRANITE_265
 10
-1.3053
 20
-11.1759
 30
0
 70
     0
  0
VERTEX
  8
MACK_GRANITE_265
 10
-1.053
 20
-11.1467
 30
0
 70
     0
  0
VERTEX
  8
MACK_GRANITE_265
 10
-0.7989
 20
-11.1239
 30
0
 70
     0
  0
VERTEX
  8
MACK_GRANITE_265
 10
-0.5432
 20
-11.1074
 30
0
 70
     0
  0
VERTEX
  8
MACK_GRANITE_265
 10
-0.2858
 20
-11.0975
 30
0
 70
     0
  0
VERTEX
  8
MACK_GRANITE_265
 10
-0.0269
 20
-11.0942
 30
0
 70
     0
  0
VERTEX
  8
MACK_GRANITE_265
 10
0.2319
 20
-11.0975
 30
0
 70
     0
  0
VERTEX
  8
MACK_GRANITE_265
 10
0.4893
 20
-11.1074
 30
0
 70
     0
  0
VERTEX
  8
MACK_GRANITE_265
 10
0.745
 20
-11.1239
 30
0
 70
     0
  0
VERTEX
  8
MACK_GRANITE_265
 10
0.9991
 20
-11.1467
 30
0
 70
     0
  0
VERTEX
  8
MACK_GRANITE_265
 10
1.2514
 20
-11.1759
 30
0
 70
     0
  0
VERTEX
  8
MACK_GRANITE_265
 10
1.5018
 20
-11.2114
 30
0
 70
     0
  0
VERTEX
  8
MACK_GRANITE_265
 10
1.7504
 20
-11.2531
 30
0
 70
     0
  0
VERTEX
  8
MACK_GRANITE_265
 10
1.9969
 20
-11.3008
 30
0
 70
     0
  0
VERTEX
  8
MACK_GRANITE_265
 10
2.2413
 20
-11.3546
 30
0
 70
     0
  0
VERTEX
  8
MACK_GRANITE_265
 10
2.4836
 20
-11.4143
 30
0
 70
     0
  0
VERTEX
  8
MACK_GRANITE_265
 10
2.7236
 20
-11.4799
 30
0
 70
     0
  0
VERTEX
  8
MACK_GRANITE_265
 10
2.9612
 20
-11.5513
 30
0
 70
     0
  0
VERTEX
  8
MACK_GRANITE_265
 10
3.1965
 20
-11.6283
 30
0
 70
     0
  0
VERTEX
  8
MACK_GRANITE_265
 10
3.4292
 20
-11.711
 30
0
 70
     0
  0
VERTEX
  8
MACK_GRANITE_265
 10
3.6593
 20
-11.7992
 30
0
 70
     0
  0
VERTEX
  8
MACK_GRANITE_265
 10
3.8868
 20
-11.8928
 30
0
 70
     0
  0
VERTEX
  8
MACK_GRANITE_265
 10
4.1116
 20
-11.9918
 30
0
 70
     0
  0
VERTEX
  8
MACK_GRANITE_265
 10
4.3335
 20
-12.0961
 30
0
 70
     0
  0
VERTEX
  8
MACK_GRANITE_265
 10
4.5525
 20
-12.2056
 30
0
 70
     0
  0
VERTEX
  8
MACK_GRANITE_265
 10
4.7685
 20
-12.3202
 30
0
 70
     0
  0
VERTEX
  8
MACK_GRANITE_265
 10
5.1912
 20
-12.5644
 30
0
 70
     0
  0
VERTEX
  8
MACK_GRANITE_265
 10
5.601
 20
-12.8282
 30
0
 70
     0
  0
VERTEX
  8
MACK_GRANITE_265
 10
5.9972
 20
-13.1108
 30
0
 70
     0
  0
VERTEX
  8
MACK_GRANITE_265
 10
6.3791
 20
-13.4115
 30
0
 70
     0
  0
VERTEX
  8
MACK_GRANITE_265
 10
6.7461
 20
-13.7299
 30
0
 70
     0
  0
VERTEX
  8
MACK_GRANITE_265
 10
7.0975
 20
-14.0651
 30
0
 70
     0
  0
VERTEX
  8
MACK_GRANITE_265
 10
7.4327
 20
-14.4165
 30
0
 70
     0
  0
VERTEX
  8
MACK_GRANITE_265
 10
7.751
 20
-14.7835
 30
0
 70
     0
  0
VERTEX
  8
MACK_GRANITE_265
 10
8.0518
 20
-15.1654
 30
0
 70
     0
  0
VERTEX
  8
MACK_GRANITE_265
 10
8.3344
 20
-15.5615
 30
0
 70
     0
  0
VERTEX
  8
MACK_GRANITE_265
 10
8.5981
 20
-15.9713
 30
0
 70
     0
  0
VERTEX
  8
MACK_GRANITE_265
 10
8.8424
 20
-16.394
 30
0
 70
     0
  0
VERTEX
  8
MACK_GRANITE_265
 10
8.957
 20
-16.6101
 30
0
 70
     0
  0
VERTEX
  8
MACK_GRANITE_265
 10
9.0665
 20
-16.8291
 30
0
 70
     0
  0
VERTEX
  8
MACK_GRANITE_265
 10
9.1708
 20
-17.051
 30
0
 70
     0
  0
VERTEX
  8
MACK_GRANITE_265
 10
9.2698
 20
-17.2757
 30
0
 70
     0
  0
VERTEX
  8
MACK_GRANITE_265
 10
9.3634
 20
-17.5032
 30
0
 70
     0
  0
VERTEX
  8
MACK_GRANITE_265
 10
9.4516
 20
-17.7334
 30
0
 70
     0
  0
VERTEX
  8
MACK_GRANITE_265
 10
9.5342
 20
-17.9661
 30
0
 70
     0
  0
VERTEX
  8
MACK_GRANITE_265
 10
9.6113
 20
-18.2013
 30
0
 70
     0
  0
VERTEX
  8
MACK_GRANITE_265
 10
9.6826
 20
-18.439
 30
0
 70
     0
  0
VERTEX
  8
MACK_GRANITE_265
 10
9.7482
 20
-18.679
 30
0
 70
     0
  0
VERTEX
  8
MACK_GRANITE_265
 10
9.8079
 20
-18.9213
 30
0
 70
     0
  0
VERTEX
  8
MACK_GRANITE_265
 10
9.8617
 20
-19.1657
 30
0
 70
     0
  0
VERTEX
  8
MACK_GRANITE_265
 10
9.9095
 20
-19.4122
 30
0
 70
     0
  0
VERTEX
  8
MACK_GRANITE_265
 10
9.9511
 20
-19.6607
 30
0
 70
     0
  0
VERTEX
  8
MACK_GRANITE_265
 10
9.9866
 20
-19.9112
 30
0
 70
     0
  0
VERTEX
  8
MACK_GRANITE_265
 10
10.0158
 20
-20.1635
 30
0
 70
     0
  0
VERTEX
  8
MACK_GRANITE_265
 10
10.0387
 20
-20.4175
 30
0
 70
     0
  0
VERTEX
  8
MACK_GRANITE_265
 10
10.0551
 20
-20.6733
 30
0
 70
     0
  0
VERTEX
  8
MACK_GRANITE_265
 10
10.065
 20
-20.9306
 30
0
 70
     0
  0
VERTEX
  8
MACK_GRANITE_265
 10
10.0684
 20
-21.1895
 30
0
 70
     0
  0
SEQEND
  0
POLYLINE
  8
MACK_GRANITE_265
  6
CONTINUOUS
 62
     7
 66
     1
 40
0.0139
 41
0.0139
  0
VERTEX
  8
MACK_GRANITE_265
 10
11.2231
 20
-21.1895
 30
0
 70
     0
  0
VERTEX
  8
MACK_GRANITE_265
 10
11.2193
 20
-21.478
 30
0
 70
     0
  0
VERTEX
  8
MACK_GRANITE_265
 10
11.2083
 20
-21.7648
 30
0
 70
     0
  0
VERTEX
  8
MACK_GRANITE_265
 10
11.19
 20
-22.0498
 30
0
 70
     0
  0
VERTEX
  8
MACK_GRANITE_265
 10
11.1645
 20
-22.3329
 30
0
 70
     0
  0
VERTEX
  8
MACK_GRANITE_265
 10
11.132
 20
-22.614
 30
0
 70
     0
  0
VERTEX
  8
MACK_GRANITE_265
 10
11.0924
 20
-22.8931
 30
0
 70
     0
  0
VERTEX
  8
MACK_GRANITE_265
 10
11.046
 20
-23.1701
 30
0
 70
     0
  0
VERTEX
  8
MACK_GRANITE_265
 10
10.9928
 20
-23.4448
 30
0
 70
     0
  0
VERTEX
  8
MACK_GRANITE_265
 10
10.9329
 20
-23.7172
 30
0
 70
     0
  0
VERTEX
  8
MACK_GRANITE_265
 10
10.8663
 20
-23.9872
 30
0
 70
     0
  0
VERTEX
  8
MACK_GRANITE_265
 10
10.7932
 20
-24.2546
 30
0
 70
     0
  0
VERTEX
  8
MACK_GRANITE_265
 10
10.7137
 20
-24.5194
 30
0
 70
     0
  0
VERTEX
  8
MACK_GRANITE_265
 10
10.6278
 20
-24.7816
 30
0
 70
     0
  0
VERTEX
  8
MACK_GRANITE_265
 10
10.5357
 20
-25.041
 30
0
 70
     0
  0
VERTEX
  8
MACK_GRANITE_265
 10
10.4375
 20
-25.2974
 30
0
 70
     0
  0
VERTEX
  8
MACK_GRANITE_265
 10
10.3331
 20
-25.5509
 30
0
 70
     0
  0
VERTEX
  8
MACK_GRANITE_265
 10
10.2228
 20
-25.8014
 30
0
 70
     0
  0
VERTEX
  8
MACK_GRANITE_265
 10
10.1066
 20
-26.0487
 30
0
 70
     0
  0
VERTEX
  8
MACK_GRANITE_265
 10
9.9846
 20
-26.2928
 30
0
 70
     0
  0
VERTEX
  8
MACK_GRANITE_265
 10
9.8569
 20
-26.5335
 30
0
 70
     0
  0
VERTEX
  8
MACK_GRANITE_265
 10
9.7235
 20
-26.7708
 30
0
 70
     0
  0
VERTEX
  8
MACK_GRANITE_265
 10
9.5847
 20
-27.0045
 30
0
 70
     0
  0
VERTEX
  8
MACK_GRANITE_265
 10
9.4404
 20
-27.2347
 30
0
 70
     0
  0
VERTEX
  8
MACK_GRANITE_265
 10
9.2908
 20
-27.4612
 30
0
 70
     0
  0
VERTEX
  8
MACK_GRANITE_265
 10
9.1359
 20
-27.6839
 30
0
 70
     0
  0
VERTEX
  8
MACK_GRANITE_265
 10
8.9758
 20
-27.9027
 30
0
 70
     0
  0
VERTEX
  8
MACK_GRANITE_265
 10
8.8107
 20
-28.1175
 30
0
 70
     0
  0
VERTEX
  8
MACK_GRANITE_265
 10
8.6407
 20
-28.3283
 30
0
 70
     0
  0
VERTEX
  8
MACK_GRANITE_265
 10
8.2859
 20
-28.7372
 30
0
 70
     0
  0
VERTEX
  8
MACK_GRANITE_265
 10
7.9124
 20
-29.1288
 30
0
 70
     0
  0
VERTEX
  8
MACK_GRANITE_265
 10
7.5208
 20
-29.5024
 30
0
 70
     0
  0
VERTEX
  8
MACK_GRANITE_265
 10
7.1118
 20
-29.8571
 30
0
 70
     0
  0
VERTEX
  8
MACK_GRANITE_265
 10
6.901
 20
-30.0272
 30
0
 70
     0
  0
VERTEX
  8
MACK_GRANITE_265
 10
6.6862
 20
-30.1923
 30
0
 70
     0
  0
VERTEX
  8
MACK_GRANITE_265
 10
6.4674
 20
-30.3523
 30
0
 70
     0
  0
VERTEX
  8
MACK_GRANITE_265
 10
6.2447
 20
-30.5072
 30
0
 70
     0
  0
VERTEX
  8
MACK_GRANITE_265
 10
6.0183
 20
-30.6568
 30
0
 70
     0
  0
VERTEX
  8
MACK_GRANITE_265
 10
5.7881
 20
-30.8011
 30
0
 70
     0
  0
VERTEX
  8
MACK_GRANITE_265
 10
5.5543
 20
-30.94
 30
0
 70
     0
  0
VERTEX
  8
MACK_GRANITE_265
 10
5.317
 20
-31.0733
 30
0
 70
     0
  0
VERTEX
  8
MACK_GRANITE_265
 10
5.0763
 20
-31.201
 30
0
 70
     0
  0
VERTEX
  8
MACK_GRANITE_265
 10
4.8322
 20
-31.323
 30
0
 70
     0
  0
VERTEX
  8
MACK_GRANITE_265
 10
4.5849
 20
-31.4392
 30
0
 70
     0
  0
VERTEX
  8
MACK_GRANITE_265
 10
4.3345
 20
-31.5496
 30
0
 70
     0
  0
VERTEX
  8
MACK_GRANITE_265
 10
4.081
 20
-31.6539
 30
0
 70
     0
  0
VERTEX
  8
MACK_GRANITE_265
 10
3.8245
 20
-31.7522
 30
0
 70
     0
  0
VERTEX
  8
MACK_GRANITE_265
 10
3.5651
 20
-31.8443
 30
0
 70
     0
  0
VERTEX
  8
MACK_GRANITE_265
 10
3.303
 20
-31.9302
 30
0
 70
     0
  0
VERTEX
  8
MACK_GRANITE_265
 10
3.0382
 20
-32.0097
 30
0
 70
     0
  0
VERTEX
  8
MACK_GRANITE_265
 10
2.7707
 20
-32.0828
 30
0
 70
     0
  0
VERTEX
  8
MACK_GRANITE_265
 10
2.5007
 20
-32.1493
 30
0
 70
     0
  0
VERTEX
  8
MACK_GRANITE_265
 10
2.2284
 20
-32.2092
 30
0
 70
     0
  0
VERTEX
  8
MACK_GRANITE_265
 10
1.9537
 20
-32.2625
 30
0
 70
     0
  0
VERTEX
  8
MACK_GRANITE_265
 10
1.6767
 20
-32.3089
 30
0
 70
     0
  0
VERTEX
  8
MACK_GRANITE_265
 10
1.3976
 20
-32.3484
 30
0
 70
     0
  0
VERTEX
  8
MACK_GRANITE_265
 10
1.1164
 20
-32.381
 30
0
 70
     0
  0
VERTEX
  8
MACK_GRANITE_265
 10
0.8333
 20
-32.4064
 30
0
 70
     0
  0
VERTEX
  8
MACK_GRANITE_265
 10
0.5483
 20
-32.4247
 30
0
 70
     0
  0
VERTEX
  8
MACK_GRANITE_265
 10
0.2615
 20
-32.4358
 30
0
 70
     0
  0
VERTEX
  8
MACK_GRANITE_265
 10
-0.0269
 20
-32.4395
 30
0
 70
     0
  0
VERTEX
  8
MACK_GRANITE_265
 10
-0.3154
 20
-32.4358
 30
0
 70
     0
  0
VERTEX
  8
MACK_GRANITE_265
 10
-0.6022
 20
-32.4247
 30
0
 70
     0
  0
VERTEX
  8
MACK_GRANITE_265
 10
-0.8872
 20
-32.4064
 30
0
 70
     0
  0
VERTEX
  8
MACK_GRANITE_265
 10
-1.1703
 20
-32.381
 30
0
 70
     0
  0
VERTEX
  8
MACK_GRANITE_265
 10
-1.4515
 20
-32.3484
 30
0
 70
     0
  0
VERTEX
  8
MACK_GRANITE_265
 10
-1.7306
 20
-32.3089
 30
0
 70
     0
  0
VERTEX
  8
MACK_GRANITE_265
 10
-2.0075
 20
-32.2625
 30
0
 70
     0
  0
VERTEX
  8
MACK_GRANITE_265
 10
-2.2823
 20
-32.2092
 30
0
 70
     0
  0
VERTEX
  8
MACK_GRANITE_265
 10
-2.5546
 20
-32.1493
 30
0
 70
     0
  0
VERTEX
  8
MACK_GRANITE_265
 10
-2.8246
 20
-32.0828
 30
0
 70
     0
  0
VERTEX
  8
MACK_GRANITE_265
 10
-3.092
 20
-32.0097
 30
0
 70
     0
  0
VERTEX
  8
MACK_GRANITE_265
 10
-3.3569
 20
-31.9302
 30
0
 70
     0
  0
VERTEX
  8
MACK_GRANITE_265
 10
-3.619
 20
-31.8443
 30
0
 70
     0
  0
VERTEX
  8
MACK_GRANITE_265
 10
-3.8784
 20
-31.7522
 30
0
 70
     0
  0
VERTEX
  8
MACK_GRANITE_265
 10
-4.1349
 20
-31.6539
 30
0
 70
     0
  0
VERTEX
  8
MACK_GRANITE_265
 10
-4.3884
 20
-31.5496
 30
0
 70
     0
  0
VERTEX
  8
MACK_GRANITE_265
 10
-4.6388
 20
-31.4392
 30
0
 70
     0
  0
VERTEX
  8
MACK_GRANITE_265
 10
-4.8861
 20
-31.323
 30
0
 70
     0
  0
VERTEX
  8
MACK_GRANITE_265
 10
-5.1302
 20
-31.201
 30
0
 70
     0
  0
VERTEX
  8
MACK_GRANITE_265
 10
-5.3709
 20
-31.0733
 30
0
 70
     0
  0
VERTEX
  8
MACK_GRANITE_265
 10
-5.6082
 20
-30.94
 30
0
 70
     0
  0
VERTEX
  8
MACK_GRANITE_265
 10
-5.842
 20
-30.8011
 30
0
 70
     0
  0
VERTEX
  8
MACK_GRANITE_265
 10
-6.0722
 20
-30.6568
 30
0
 70
     0
  0
VERTEX
  8
MACK_GRANITE_265
 10
-6.2986
 20
-30.5072
 30
0
 70
     0
  0
VERTEX
  8
MACK_GRANITE_265
 10
-6.5213
 20
-30.3523
 30
0
 70
     0
  0
VERTEX
  8
MACK_GRANITE_265
 10
-6.7401
 20
-30.1923
 30
0
 70
     0
  0
VERTEX
  8
MACK_GRANITE_265
 10
-6.9549
 20
-30.0272
 30
0
 70
     0
  0
VERTEX
  8
MACK_GRANITE_265
 10
-7.1657
 20
-29.8571
 30
0
 70
     0
  0
VERTEX
  8
MACK_GRANITE_265
 10
-7.5747
 20
-29.5024
 30
0
 70
     0
  0
VERTEX
  8
MACK_GRANITE_265
 10
-7.9663
 20
-29.1288
 30
0
 70
     0
  0
VERTEX
  8
MACK_GRANITE_265
 10
-8.3398
 20
-28.7372
 30
0
 70
     0
  0
VERTEX
  8
MACK_GRANITE_265
 10
-8.6945
 20
-28.3283
 30
0
 70
     0
  0
VERTEX
  8
MACK_GRANITE_265
 10
-8.8646
 20
-28.1175
 30
0
 70
     0
  0
VERTEX
  8
MACK_GRANITE_265
 10
-9.0297
 20
-27.9027
 30
0
 70
     0
  0
VERTEX
  8
MACK_GRANITE_265
 10
-9.1898
 20
-27.6839
 30
0
 70
     0
  0
VERTEX
  8
MACK_GRANITE_265
 10
-9.3446
 20
-27.4612
 30
0
 70
     0
  0
VERTEX
  8
MACK_GRANITE_265
 10
-9.4943
 20
-27.2347
 30
0
 70
     0
  0
VERTEX
  8
MACK_GRANITE_265
 10
-9.6386
 20
-27.0045
 30
0
 70
     0
  0
VERTEX
  8
MACK_GRANITE_265
 10
-9.7774
 20
-26.7708
 30
0
 70
     0
  0
VERTEX
  8
MACK_GRANITE_265
 10
-9.9107
 20
-26.5335
 30
0
 70
     0
  0
VERTEX
  8
MACK_GRANITE_265
 10
-10.0385
 20
-26.2928
 30
0
 70
     0
  0
VERTEX
  8
MACK_GRANITE_265
 10
-10.1605
 20
-26.0487
 30
0
 70
     0
  0
VERTEX
  8
MACK_GRANITE_265
 10
-10.2767
 20
-25.8014
 30
0
 70
     0
  0
VERTEX
  8
MACK_GRANITE_265
 10
-10.387
 20
-25.5509
 30
0
 70
     0
  0
VERTEX
  8
MACK_GRANITE_265
 10
-10.4914
 20
-25.2974
 30
0
 70
     0
  0
VERTEX
  8
MACK_GRANITE_265
 10
-10.5896
 20
-25.041
 30
0
 70
     0
  0
VERTEX
  8
MACK_GRANITE_265
 10
-10.6817
 20
-24.7816
 30
0
 70
     0
  0
VERTEX
  8
MACK_GRANITE_265
 10
-10.7676
 20
-24.5194
 30
0
 70
     0
  0
VERTEX
  8
MACK_GRANITE_265
 10
-10.8471
 20
-24.2546
 30
0
 70
     0
  0
VERTEX
  8
MACK_GRANITE_265
 10
-10.9202
 20
-23.9872
 30
0
 70
     0
  0
VERTEX
  8
MACK_GRANITE_265
 10
-10.9867
 20
-23.7172
 30
0
 70
     0
  0
VERTEX
  8
MACK_GRANITE_265
 10
-11.0467
 20
-23.4448
 30
0
 70
     0
  0
VERTEX
  8
MACK_GRANITE_265
 10
-11.0999
 20
-23.1701
 30
0
 70
     0
  0
VERTEX
  8
MACK_GRANITE_265
 10
-11.1463
 20
-22.8931
 30
0
 70
     0
  0
VERTEX
  8
MACK_GRANITE_265
 10
-11.1859
 20
-22.614
 30
0
 70
     0
  0
VERTEX
  8
MACK_GRANITE_265
 10
-11.2184
 20
-22.3329
 30
0
 70
     0
  0
VERTEX
  8
MACK_GRANITE_265
 10
-11.2439
 20
-22.0498
 30
0
 70
     0
  0
VERTEX
  8
MACK_GRANITE_265
 10
-11.2622
 20
-21.7648
 30
0
 70
     0
  0
VERTEX
  8
MACK_GRANITE_265
 10
-11.2732
 20
-21.478
 30
0
 70
     0
  0
VERTEX
  8
MACK_GRANITE_265
 10
-11.2769
 20
-21.1895
 30
0
 70
     0
  0
VERTEX
  8
MACK_GRANITE_265
 10
-11.2732
 20
-20.901
 30
0
 70
     0
  0
VERTEX
  8
MACK_GRANITE_265
 10
-11.2622
 20
-20.6142
 30
0
 70
     0
  0
VERTEX
  8
MACK_GRANITE_265
 10
-11.2439
 20
-20.3292
 30
0
 70
     0
  0
VERTEX
  8
MACK_GRANITE_265
 10
-11.2184
 20
-20.0461
 30
0
 70
     0
  0
VERTEX
  8
MACK_GRANITE_265
 10
-11.1859
 20
-19.765
 30
0
 70
     0
  0
VERTEX
  8
MACK_GRANITE_265
 10
-11.1463
 20
-19.4859
 30
0
 70
     0
  0
VERTEX
  8
MACK_GRANITE_265
 10
-11.0999
 20
-19.2089
 30
0
 70
     0
  0
VERTEX
  8
MACK_GRANITE_265
 10
-11.0467
 20
-18.9342
 30
0
 70
     0
  0
VERTEX
  8
MACK_GRANITE_265
 10
-10.9867
 20
-18.6618
 30
0
 70
     0
  0
VERTEX
  8
MACK_GRANITE_265
 10
-10.9202
 20
-18.3918
 30
0
 70
     0
  0
VERTEX
  8
MACK_GRANITE_265
 10
-10.8471
 20
-18.1244
 30
0
 70
     0
  0
VERTEX
  8
MACK_GRANITE_265
 10
-10.7676
 20
-17.8596
 30
0
 70
     0
  0
VERTEX
  8
MACK_GRANITE_265
 10
-10.6817
 20
-17.5974
 30
0
 70
     0
  0
VERTEX
  8
MACK_GRANITE_265
 10
-10.5896
 20
-17.3381
 30
0
 70
     0
  0
VERTEX
  8
MACK_GRANITE_265
 10
-10.4914
 20
-17.0816
 30
0
 70
     0
  0
VERTEX
  8
MACK_GRANITE_265
 10
-10.387
 20
-16.8281
 30
0
 70
     0
  0
VERTEX
  8
MACK_GRANITE_265
 10
-10.2767
 20
-16.5776
 30
0
 70
     0
  0
VERTEX
  8
MACK_GRANITE_265
 10
-10.1605
 20
-16.3303
 30
0
 70
     0
  0
VERTEX
  8
MACK_GRANITE_265
 10
-10.0385
 20
-16.0863
 30
0
 70
     0
  0
VERTEX
  8
MACK_GRANITE_265
 10
-9.9107
 20
-15.8455
 30
0
 70
     0
  0
VERTEX
  8
MACK_GRANITE_265
 10
-9.7774
 20
-15.6082
 30
0
 70
     0
  0
VERTEX
  8
MACK_GRANITE_265
 10
-9.6386
 20
-15.3745
 30
0
 70
     0
  0
VERTEX
  8
MACK_GRANITE_265
 10
-9.4943
 20
-15.1443
 30
0
 70
     0
  0
VERTEX
  8
MACK_GRANITE_265
 10
-9.3446
 20
-14.9178
 30
0
 70
     0
  0
VERTEX
  8
MACK_GRANITE_265
 10
-9.1898
 20
-14.6951
 30
0
 70
     0
  0
VERTEX
  8
MACK_GRANITE_265
 10
-9.0297
 20
-14.4763
 30
0
 70
     0
  0
VERTEX
  8
MACK_GRANITE_265
 10
-8.8646
 20
-14.2615
 30
0
 70
     0
  0
VERTEX
  8
MACK_GRANITE_265
 10
-8.6945
 20
-14.0507
 30
0
 70
     0
  0
VERTEX
  8
MACK_GRANITE_265
 10
-8.3398
 20
-13.6418
 30
0
 70
     0
  0
VERTEX
  8
MACK_GRANITE_265
 10
-7.9663
 20
-13.2502
 30
0
 70
     0
  0
VERTEX
  8
MACK_GRANITE_265
 10
-7.5747
 20
-12.8766
 30
0
 70
     0
  0
VERTEX
  8
MACK_GRANITE_265
 10
-7.1657
 20
-12.5219
 30
0
 70
     0
  0
VERTEX
  8
MACK_GRANITE_265
 10
-6.9549
 20
-12.3518
 30
0
 70
     0
  0
VERTEX
  8
MACK_GRANITE_265
 10
-6.7401
 20
-12.1867
 30
0
 70
     0
  0
VERTEX
  8
MACK_GRANITE_265
 10
-6.5213
 20
-12.0267
 30
0
 70
     0
  0
VERTEX
  8
MACK_GRANITE_265
 10
-6.2986
 20
-11.8718
 30
0
 70
     0
  0
VERTEX
  8
MACK_GRANITE_265
 10
-6.0722
 20
-11.7222
 30
0
 70
     0
  0
VERTEX
  8
MACK_GRANITE_265
 10
-5.842
 20
-11.5779
 30
0
 70
     0
  0
VERTEX
  8
MACK_GRANITE_265
 10
-5.6082
 20
-11.439
 30
0
 70
     0
  0
VERTEX
  8
MACK_GRANITE_265
 10
-5.3709
 20
-11.3057
 30
0
 70
     0
  0
VERTEX
  8
MACK_GRANITE_265
 10
-5.1302
 20
-11.178
 30
0
 70
     0
  0
VERTEX
  8
MACK_GRANITE_265
 10
-4.8861
 20
-11.056
 30
0
 70
     0
  0
VERTEX
  8
MACK_GRANITE_265
 10
-4.6388
 20
-10.9398
 30
0
 70
     0
  0
VERTEX
  8
MACK_GRANITE_265
 10
-4.3884
 20
-10.8294
 30
0
 70
     0
  0
VERTEX
  8
MACK_GRANITE_265
 10
-4.1349
 20
-10.7251
 30
0
 70
     0
  0
VERTEX
  8
MACK_GRANITE_265
 10
-3.8784
 20
-10.6268
 30
0
 70
     0
  0
VERTEX
  8
MACK_GRANITE_265
 10
-3.619
 20
-10.5347
 30
0
 70
     0
  0
VERTEX
  8
MACK_GRANITE_265
 10
-3.3569
 20
-10.4488
 30
0
 70
     0
  0
VERTEX
  8
MACK_GRANITE_265
 10
-3.092
 20
-10.3693
 30
0
 70
     0
  0
VERTEX
  8
MACK_GRANITE_265
 10
-2.8246
 20
-10.2963
 30
0
 70
     0
  0
VERTEX
  8
MACK_GRANITE_265
 10
-2.5546
 20
-10.2297
 30
0
 70
     0
  0
VERTEX
  8
MACK_GRANITE_265
 10
-2.2823
 20
-10.1698
 30
0
 70
     0
  0
VERTEX
  8
MACK_GRANITE_265
 10
-2.0075
 20
-10.1165
 30
0
 70
     0
  0
VERTEX
  8
MACK_GRANITE_265
 10
-1.7306
 20
-10.0701
 30
0
 70
     0
  0
VERTEX
  8
MACK_GRANITE_265
 10
-1.4515
 20
-10.0306
 30
0
 70
     0
  0
VERTEX
  8
MACK_GRANITE_265
 10
-1.1703
 20
-9.998
 30
0
 70
     0
  0
VERTEX
  8
MACK_GRANITE_265
 10
-0.8872
 20
-9.9726
 30
0
 70
     0
  0
VERTEX
  8
MACK_GRANITE_265
 10
-0.6022
 20
-9.9543
 30
0
 70
     0
  0
VERTEX
  8
MACK_GRANITE_265
 10
-0.3154
 20
-9.9432
 30
0
 70
     0
  0
VERTEX
  8
MACK_GRANITE_265
 10
-0.0269
 20
-9.9395
 30
0
 70
     0
  0
VERTEX
  8
MACK_GRANITE_265
 10
0.2615
 20
-9.9432
 30
0
 70
     0
  0
VERTEX
  8
MACK_GRANITE_265
 10
0.5483
 20
-9.9543
 30
0
 70
     0
  0
VERTEX
  8
MACK_GRANITE_265
 10
0.8333
 20
-9.9726
 30
0
 70
     0
  0
VERTEX
  8
MACK_GRANITE_265
 10
1.1164
 20
-9.998
 30
0
 70
     0
  0
VERTEX
  8
MACK_GRANITE_265
 10
1.3976
 20
-10.0306
 30
0
 70
     0
  0
VERTEX
  8
MACK_GRANITE_265
 10
1.6767
 20
-10.0701
 30
0
 70
     0
  0
VERTEX
  8
MACK_GRANITE_265
 10
1.9537
 20
-10.1165
 30
0
 70
     0
  0
VERTEX
  8
MACK_GRANITE_265
 10
2.2284
 20
-10.1698
 30
0
 70
     0
  0
VERTEX
  8
MACK_GRANITE_265
 10
2.5007
 20
-10.2297
 30
0
 70
     0
  0
VERTEX
  8
MACK_GRANITE_265
 10
2.7707
 20
-10.2963
 30
0
 70
     0
  0
VERTEX
  8
MACK_GRANITE_265
 10
3.0382
 20
-10.3693
 30
0
 70
     0
  0
VERTEX
  8
MACK_GRANITE_265
 10
3.303
 20
-10.4488
 30
0
 70
     0
  0
VERTEX
  8
MACK_GRANITE_265
 10
3.5651
 20
-10.5347
 30
0
 70
     0
  0
VERTEX
  8
MACK_GRANITE_265
 10
3.8245
 20
-10.6268
 30
0
 70
     0
  0
VERTEX
  8
MACK_GRANITE_265
 10
4.081
 20
-10.7251
 30
0
 70
     0
  0
VERTEX
  8
MACK_GRANITE_265
 10
4.3345
 20
-10.8294
 30
0
 70
     0
  0
VERTEX
  8
MACK_GRANITE_265
 10
4.5849
 20
-10.9398
 30
0
 70
     0
  0
VERTEX
  8
MACK_GRANITE_265
 10
4.8322
 20
-11.056
 30
0
 70
     0
  0
VERTEX
  8
MACK_GRANITE_265
 10
5.0763
 20
-11.178
 30
0
 70
     0
  0
VERTEX
  8
MACK_GRANITE_265
 10
5.317
 20
-11.3057
 30
0
 70
     0
  0
VERTEX
  8
MACK_GRANITE_265
 10
5.5543
 20
-11.439
 30
0
 70
     0
  0
VERTEX
  8
MACK_GRANITE_265
 10
5.7881
 20
-11.5779
 30
0
 70
     0
  0
VERTEX
  8
MACK_GRANITE_265
 10
6.0183
 20
-11.7222
 30
0
 70
     0
  0
VERTEX
  8
MACK_GRANITE_265
 10
6.2447
 20
-11.8718
 30
0
 70
     0
  0
VERTEX
  8
MACK_GRANITE_265
 10
6.4674
 20
-12.0267
 30
0
 70
     0
  0
VERTEX
  8
MACK_GRANITE_265
 10
6.6862
 20
-12.1867
 30
0
 70
     0
  0
VERTEX
  8
MACK_GRANITE_265
 10
6.901
 20
-12.3518
 30
0
 70
     0
  0
VERTEX
  8
MACK_GRANITE_265
 10
7.1118
 20
-12.5219
 30
0
 70
     0
  0
VERTEX
  8
MACK_GRANITE_265
 10
7.5208
 20
-12.8766
 30
0
 70
     0
  0
VERTEX
  8
MACK_GRANITE_265
 10
7.9124
 20
-13.2502
 30
0
 70
     0
  0
VERTEX
  8
MACK_GRANITE_265
 10
8.2859
 20
-13.6418
 30
0
 70
     0
  0
VERTEX
  8
MACK_GRANITE_265
 10
8.6407
 20
-14.0507
 30
0
 70
     0
  0
VERTEX
  8
MACK_GRANITE_265
 10
8.8107
 20
-14.2615
 30
0
 70
     0
  0
VERTEX
  8
MACK_GRANITE_265
 10
8.9758
 20
-14.4763
 30
0
 70
     0
  0
VERTEX
  8
MACK_GRANITE_265
 10
9.1359
 20
-14.6951
 30
0
 70
     0
  0
VERTEX
  8
MACK_GRANITE_265
 10
9.2908
 20
-14.9178
 30
0
 70
     0
  0
VERTEX
  8
MACK_GRANITE_265
 10
9.4404
 20
-15.1443
 30
0
 70
     0
  0
VERTEX
  8
MACK_GRANITE_265
 10
9.5847
 20
-15.3745
 30
0
 70
     0
  0
VERTEX
  8
MACK_GRANITE_265
 10
9.7235
 20
-15.6082
 30
0
 70
     0
  0
VERTEX
  8
MACK_GRANITE_265
 10
9.8569
 20
-15.8455
 30
0
 70
     0
  0
VERTEX
  8
MACK_GRANITE_265
 10
9.9846
 20
-16.0863
 30
0
 70
     0
  0
VERTEX
  8
MACK_GRANITE_265
 10
10.1066
 20
-16.3303
 30
0
 70
     0
  0
VERTEX
  8
MACK_GRANITE_265
 10
10.2228
 20
-16.5776
 30
0
 70
     0
  0
VERTEX
  8
MACK_GRANITE_265
 10
10.3331
 20
-16.8281
 30
0
 70
     0
  0
VERTEX
  8
MACK_GRANITE_265
 10
10.4375
 20
-17.0816
 30
0
 70
     0
  0
VERTEX
  8
MACK_GRANITE_265
 10
10.5357
 20
-17.3381
 30
0
 70
     0
  0
VERTEX
  8
MACK_GRANITE_265
 10
10.6278
 20
-17.5974
 30
0
 70
     0
  0
VERTEX
  8
MACK_GRANITE_265
 10
10.7137
 20
-17.8596
 30
0
 70
     0
  0
VERTEX
  8
MACK_GRANITE_265
 10
10.7932
 20
-18.1244
 30
0
 70
     0
  0
VERTEX
  8
MACK_GRANITE_265
 10
10.8663
 20
-18.3918
 30
0
 70
     0
  0
VERTEX
  8
MACK_GRANITE_265
 10
10.9329
 20
-18.6618
 30
0
 70
     0
  0
VERTEX
  8
MACK_GRANITE_265
 10
10.9928
 20
-18.9342
 30
0
 70
     0
  0
VERTEX
  8
MACK_GRANITE_265
 10
11.046
 20
-19.2089
 30
0
 70
     0
  0
VERTEX
  8
MACK_GRANITE_265
 10
11.0924
 20
-19.4859
 30
0
 70
     0
  0
VERTEX
  8
MACK_GRANITE_265
 10
11.132
 20
-19.765
 30
0
 70
     0
  0
VERTEX
  8
MACK_GRANITE_265
 10
11.1645
 20
-20.0461
 30
0
 70
     0
  0
VERTEX
  8
MACK_GRANITE_265
 10
11.19
 20
-20.3292
 30
0
 70
     0
  0
VERTEX
  8
MACK_GRANITE_265
 10
11.2083
 20
-20.6142
 30
0
 70
     0
  0
VERTEX
  8
MACK_GRANITE_265
 10
11.2193
 20
-20.901
 30
0
 70
     0
  0
VERTEX
  8
MACK_GRANITE_265
 10
11.2231
 20
-21.1895
 30
0
 70
     0
  0
SEQEND
  0
POLYLINE
  8
MACK_GRANITE_265
  6
CONTINUOUS
 62
     7
 66
     1
 40
0.0139
 41
0.0139
  0
VERTEX
  8
MACK_GRANITE_265
 10
2.4731
 20
-21.1895
 30
0
 70
     0
  0
VERTEX
  8
MACK_GRANITE_265
 10
2.4698
 20
-21.3173
 30
0
 70
     0
  0
VERTEX
  8
MACK_GRANITE_265
 10
2.46
 20
-21.4436
 30
0
 70
     0
  0
VERTEX
  8
MACK_GRANITE_265
 10
2.444
 20
-21.5681
 30
0
 70
     0
  0
VERTEX
  8
MACK_GRANITE_265
 10
2.4219
 20
-21.6907
 30
0
 70
     0
  0
VERTEX
  8
MACK_GRANITE_265
 10
2.3938
 20
-21.8112
 30
0
 70
     0
  0
VERTEX
  8
MACK_GRANITE_265
 10
2.3599
 20
-21.9295
 30
0
 70
     0
  0
VERTEX
  8
MACK_GRANITE_265
 10
2.3203
 20
-22.0454
 30
0
 70
     0
  0
VERTEX
  8
MACK_GRANITE_265
 10
2.2753
 20
-22.1587
 30
0
 70
     0
  0
VERTEX
  8
MACK_GRANITE_265
 10
2.2249
 20
-22.2693
 30
0
 70
     0
  0
VERTEX
  8
MACK_GRANITE_265
 10
2.1695
 20
-22.3771
 30
0
 70
     0
  0
VERTEX
  8
MACK_GRANITE_265
 10
2.109
 20
-22.4817
 30
0
 70
     0
  0
VERTEX
  8
MACK_GRANITE_265
 10
2.0437
 20
-22.5832
 30
0
 70
     0
  0
VERTEX
  8
MACK_GRANITE_265
 10
1.8992
 20
-22.7759
 30
0
 70
     0
  0
VERTEX
  8
MACK_GRANITE_265
 10
1.7374
 20
-22.9538
 30
0
 70
     0
  0
VERTEX
  8
MACK_GRANITE_265
 10
1.5594
 20
-23.1156
 30
0
 70
     0
  0
VERTEX
  8
MACK_GRANITE_265
 10
1.3668
 20
-23.2601
 30
0
 70
     0
  0
VERTEX
  8
MACK_GRANITE_265
 10
1.2653
 20
-23.3254
 30
0
 70
     0
  0
VERTEX
  8
MACK_GRANITE_265
 10
1.1606
 20
-23.3859
 30
0
 70
     0
  0
VERTEX
  8
MACK_GRANITE_265
 10
1.0529
 20
-23.4414
 30
0
 70
     0
  0
VERTEX
  8
MACK_GRANITE_265
 10
0.9423
 20
-23.4917
 30
0
 70
     0
  0
VERTEX
  8
MACK_GRANITE_265
 10
0.8289
 20
-23.5368
 30
0
 70
     0
  0
VERTEX
  8
MACK_GRANITE_265
 10
0.713
 20
-23.5763
 30
0
 70
     0
  0
VERTEX
  8
MACK_GRANITE_265
 10
0.5948
 20
-23.6102
 30
0
 70
     0
  0
VERTEX
  8
MACK_GRANITE_265
 10
0.4742
 20
-23.6383
 30
0
 70
     0
  0
VERTEX
  8
MACK_GRANITE_265
 10
0.3516
 20
-23.6605
 30
0
 70
     0
  0
VERTEX
  8
MACK_GRANITE_265
 10
0.2271
 20
-23.6765
 30
0
 70
     0
  0
VERTEX
  8
MACK_GRANITE_265
 10
0.1009
 20
-23.6862
 30
0
 70
     0
  0
VERTEX
  8
MACK_GRANITE_265
 10
-0.0269
 20
-23.6895
 30
0
 70
     0
  0
VERTEX
  8
MACK_GRANITE_265
 10
-0.1548
 20
-23.6862
 30
0
 70
     0
  0
VERTEX
  8
MACK_GRANITE_265
 10
-0.281
 20
-23.6765
 30
0
 70
     0
  0
VERTEX
  8
MACK_GRANITE_265
 10
-0.4055
 20
-23.6605
 30
0
 70
     0
  0
VERTEX
  8
MACK_GRANITE_265
 10
-0.5281
 20
-23.6383
 30
0
 70
     0
  0
VERTEX
  8
MACK_GRANITE_265
 10
-0.6486
 20
-23.6102
 30
0
 70
     0
  0
VERTEX
  8
MACK_GRANITE_265
 10
-0.7669
 20
-23.5763
 30
0
 70
     0
  0
VERTEX
  8
MACK_GRANITE_265
 10
-0.8828
 20
-23.5368
 30
0
 70
     0
  0
VERTEX
  8
MACK_GRANITE_265
 10
-0.9962
 20
-23.4917
 30
0
 70
     0
  0
VERTEX
  8
MACK_GRANITE_265
 10
-1.1068
 20
-23.4414
 30
0
 70
     0
  0
VERTEX
  8
MACK_GRANITE_265
 10
-1.2145
 20
-23.3859
 30
0
 70
     0
  0
VERTEX
  8
MACK_GRANITE_265
 10
-1.3192
 20
-23.3254
 30
0
 70
     0
  0
VERTEX
  8
MACK_GRANITE_265
 10
-1.4207
 20
-23.2601
 30
0
 70
     0
  0
VERTEX
  8
MACK_GRANITE_265
 10
-1.6133
 20
-23.1156
 30
0
 70
     0
  0
VERTEX
  8
MACK_GRANITE_265
 10
-1.7912
 20
-22.9538
 30
0
 70
     0
  0
VERTEX
  8
MACK_GRANITE_265
 10
-1.9531
 20
-22.7759
 30
0
 70
     0
  0
VERTEX
  8
MACK_GRANITE_265
 10
-2.0975
 20
-22.5832
 30
0
 70
     0
  0
VERTEX
  8
MACK_GRANITE_265
 10
-2.1629
 20
-22.4817
 30
0
 70
     0
  0
VERTEX
  8
MACK_GRANITE_265
 10
-2.2233
 20
-22.3771
 30
0
 70
     0
  0
VERTEX
  8
MACK_GRANITE_265
 10
-2.2788
 20
-22.2693
 30
0
 70
     0
  0
VERTEX
  8
MACK_GRANITE_265
 10
-2.3292
 20
-22.1587
 30
0
 70
     0
  0
VERTEX
  8
MACK_GRANITE_265
 10
-2.3742
 20
-22.0454
 30
0
 70
     0
  0
VERTEX
  8
MACK_GRANITE_265
 10
-2.4138
 20
-21.9295
 30
0
 70
     0
  0
VERTEX
  8
MACK_GRANITE_265
 10
-2.4477
 20
-21.8112
 30
0
 70
     0
  0
VERTEX
  8
MACK_GRANITE_265
 10
-2.4758
 20
-21.6907
 30
0
 70
     0
  0
VERTEX
  8
MACK_GRANITE_265
 10
-2.4979
 20
-21.5681
 30
0
 70
     0
  0
VERTEX
  8
MACK_GRANITE_265
 10
-2.5139
 20
-21.4436
 30
0
 70
     0
  0
VERTEX
  8
MACK_GRANITE_265
 10
-2.5237
 20
-21.3173
 30
0
 70
     0
  0
VERTEX
  8
MACK_GRANITE_265
 10
-2.5269
 20
-21.1895
 30
0
 70
     0
  0
VERTEX
  8
MACK_GRANITE_265
 10
-2.5237
 20
-21.0617
 30
0
 70
     0
  0
VERTEX
  8
MACK_GRANITE_265
 10
-2.5139
 20
-20.9354
 30
0
 70
     0
  0
VERTEX
  8
MACK_GRANITE_265
 10
-2.4979
 20
-20.8109
 30
0
 70
     0
  0
VERTEX
  8
MACK_GRANITE_265
 10
-2.4758
 20
-20.6883
 30
0
 70
     0
  0
VERTEX
  8
MACK_GRANITE_265
 10
-2.4477
 20
-20.5678
 30
0
 70
     0
  0
VERTEX
  8
MACK_GRANITE_265
 10
-2.4138
 20
-20.4495
 30
0
 70
     0
  0
VERTEX
  8
MACK_GRANITE_265
 10
-2.3742
 20
-20.3336
 30
0
 70
     0
  0
VERTEX
  8
MACK_GRANITE_265
 10
-2.3292
 20
-20.2203
 30
0
 70
     0
  0
VERTEX
  8
MACK_GRANITE_265
 10
-2.2788
 20
-20.1097
 30
0
 70
     0
  0
VERTEX
  8
MACK_GRANITE_265
 10
-2.2233
 20
-20.002
 30
0
 70
     0
  0
VERTEX
  8
MACK_GRANITE_265
 10
-2.1629
 20
-19.8973
 30
0
 70
     0
  0
VERTEX
  8
MACK_GRANITE_265
 10
-2.0975
 20
-19.7958
 30
0
 70
     0
  0
VERTEX
  8
MACK_GRANITE_265
 10
-1.9531
 20
-19.6031
 30
0
 70
     0
  0
VERTEX
  8
MACK_GRANITE_265
 10
-1.7912
 20
-19.4252
 30
0
 70
     0
  0
VERTEX
  8
MACK_GRANITE_265
 10
-1.6133
 20
-19.2634
 30
0
 70
     0
  0
VERTEX
  8
MACK_GRANITE_265
 10
-1.4207
 20
-19.1189
 30
0
 70
     0
  0
VERTEX
  8
MACK_GRANITE_265
 10
-1.3192
 20
-19.0536
 30
0
 70
     0
  0
VERTEX
  8
MACK_GRANITE_265
 10
-1.2145
 20
-18.9931
 30
0
 70
     0
  0
VERTEX
  8
MACK_GRANITE_265
 10
-1.1068
 20
-18.9376
 30
0
 70
     0
  0
VERTEX
  8
MACK_GRANITE_265
 10
-0.9962
 20
-18.8873
 30
0
 70
     0
  0
VERTEX
  8
MACK_GRANITE_265
 10
-0.8828
 20
-18.8422
 30
0
 70
     0
  0
VERTEX
  8
MACK_GRANITE_265
 10
-0.7669
 20
-18.8027
 30
0
 70
     0
  0
VERTEX
  8
MACK_GRANITE_265
 10
-0.6486
 20
-18.7688
 30
0
 70
     0
  0
VERTEX
  8
MACK_GRANITE_265
 10
-0.5281
 20
-18.7407
 30
0
 70
     0
  0
VERTEX
  8
MACK_GRANITE_265
 10
-0.4055
 20
-18.7185
 30
0
 70
     0
  0
VERTEX
  8
MACK_GRANITE_265
 10
-0.281
 20
-18.7025
 30
0
 70
     0
  0
VERTEX
  8
MACK_GRANITE_265
 10
-0.1548
 20
-18.6928
 30
0
 70
     0
  0
VERTEX
  8
MACK_GRANITE_265
 10
-0.0269
 20
-18.6895
 30
0
 70
     0
  0
VERTEX
  8
MACK_GRANITE_265
 10
0.1009
 20
-18.6928
 30
0
 70
     0
  0
VERTEX
  8
MACK_GRANITE_265
 10
0.2271
 20
-18.7025
 30
0
 70
     0
  0
VERTEX
  8
MACK_GRANITE_265
 10
0.3516
 20
-18.7185
 30
0
 70
     0
  0
VERTEX
  8
MACK_GRANITE_265
 10
0.4742
 20
-18.7407
 30
0
 70
     0
  0
VERTEX
  8
MACK_GRANITE_265
 10
0.5948
 20
-18.7688
 30
0
 70
     0
  0
VERTEX
  8
MACK_GRANITE_265
 10
0.713
 20
-18.8027
 30
0
 70
     0
  0
VERTEX
  8
MACK_GRANITE_265
 10
0.8289
 20
-18.8422
 30
0
 70
     0
  0
VERTEX
  8
MACK_GRANITE_265
 10
0.9423
 20
-18.8873
 30
0
 70
     0
  0
VERTEX
  8
MACK_GRANITE_265
 10
1.0529
 20
-18.9376
 30
0
 70
     0
  0
VERTEX
  8
MACK_GRANITE_265
 10
1.1606
 20
-18.9931
 30
0
 70
     0
  0
VERTEX
  8
MACK_GRANITE_265
 10
1.2653
 20
-19.0536
 30
0
 70
     0
  0
VERTEX
  8
MACK_GRANITE_265
 10
1.3668
 20
-19.1189
 30
0
 70
     0
  0
VERTEX
  8
MACK_GRANITE_265
 10
1.5594
 20
-19.2634
 30
0
 70
     0
  0
VERTEX
  8
MACK_GRANITE_265
 10
1.7374
 20
-19.4252
 30
0
 70
     0
  0
VERTEX
  8
MACK_GRANITE_265
 10
1.8992
 20
-19.6031
 30
0
 70
     0
  0
VERTEX
  8
MACK_GRANITE_265
 10
2.0437
 20
-19.7958
 30
0
 70
     0
  0
VERTEX
  8
MACK_GRANITE_265
 10
2.109
 20
-19.8973
 30
0
 70
     0
  0
VERTEX
  8
MACK_GRANITE_265
 10
2.1695
 20
-20.002
 30
0
 70
     0
  0
VERTEX
  8
MACK_GRANITE_265
 10
2.2249
 20
-20.1097
 30
0
 70
     0
  0
VERTEX
  8
MACK_GRANITE_265
 10
2.2753
 20
-20.2203
 30
0
 70
     0
  0
VERTEX
  8
MACK_GRANITE_265
 10
2.3203
 20
-20.3336
 30
0
 70
     0
  0
VERTEX
  8
MACK_GRANITE_265
 10
2.3599
 20
-20.4495
 30
0
 70
     0
  0
VERTEX
  8
MACK_GRANITE_265
 10
2.3938
 20
-20.5678
 30
0
 70
     0
  0
VERTEX
  8
MACK_GRANITE_265
 10
2.4219
 20
-20.6883
 30
0
 70
     0
  0
VERTEX
  8
MACK_GRANITE_265
 10
2.444
 20
-20.8109
 30
0
 70
     0
  0
VERTEX
  8
MACK_GRANITE_265
 10
2.46
 20
-20.9354
 30
0
 70
     0
  0
VERTEX
  8
MACK_GRANITE_265
 10
2.4698
 20
-21.0617
 30
0
 70
     0
  0
VERTEX
  8
MACK_GRANITE_265
 10
2.4731
 20
-21.1895
 30
0
 70
     0
  0
SEQEND
  0
POLYLINE
  8
MACK_GRANITE_265
  6
CONTINUOUS
 62
     7
 66
     1
 40
0.0139
 41
0.0139
  0
VERTEX
  8
MACK_GRANITE_265
 10
22.9336
 20
37.0056
 30
0
 70
     0
  0
VERTEX
  8
MACK_GRANITE_265
 10
21.3667
 20
36.8069
 30
0
 70
     0
  0
VERTEX
  8
MACK_GRANITE_265
 10
19.8017
 20
36.5958
 30
0
 70
     0
  0
VERTEX
  8
MACK_GRANITE_265
 10
18.2388
 20
36.3723
 30
0
 70
     0
  0
VERTEX
  8
MACK_GRANITE_265
 10
16.6781
 20
36.1365
 30
0
 70
     0
  0
VERTEX
  8
MACK_GRANITE_265
 10
15.1195
 20
35.8883
 30
0
 70
     0
  0
VERTEX
  8
MACK_GRANITE_265
 10
13.5633
 20
35.6278
 30
0
 70
     0
  0
VERTEX
  8
MACK_GRANITE_265
 10
12.0094
 20
35.355
 30
0
 70
     0
  0
VERTEX
  8
MACK_GRANITE_265
 10
10.4579
 20
35.0699
 30
0
 70
     0
  0
VERTEX
  8
MACK_GRANITE_265
 10
8.9089
 20
34.7725
 30
0
 70
     0
  0
VERTEX
  8
MACK_GRANITE_265
 10
7.3625
 20
34.4629
 30
0
 70
     0
  0
VERTEX
  8
MACK_GRANITE_265
 10
5.8187
 20
34.141
 30
0
 70
     0
  0
VERTEX
  8
MACK_GRANITE_265
 10
4.2776
 20
33.807
 30
0
 70
     0
  0
VERTEX
  8
MACK_GRANITE_265
 10
2.7394
 20
33.4607
 30
0
 70
     0
  0
VERTEX
  8
MACK_GRANITE_265
 10
1.204
 20
33.1023
 30
0
 70
     0
  0
VERTEX
  8
MACK_GRANITE_265
 10
-0.3285
 20
32.7317
 30
0
 70
     0
  0
VERTEX
  8
MACK_GRANITE_265
 10
-1.8579
 20
32.3489
 30
0
 70
     0
  0
VERTEX
  8
MACK_GRANITE_265
 10
-3.3843
 20
31.9541
 30
0
 70
     0
  0
VERTEX
  8
MACK_GRANITE_265
 10
-4.9075
 20
31.5472
 30
0
 70
     0
  0
VERTEX
  8
MACK_GRANITE_265
 10
-6.4275
 20
31.1281
 30
0
 70
     0
  0
VERTEX
  8
MACK_GRANITE_265
 10
-7.9442
 20
30.697
 30
0
 70
     0
  0
VERTEX
  8
MACK_GRANITE_265
 10
-9.4575
 20
30.2539
 30
0
 70
     0
  0
VERTEX
  8
MACK_GRANITE_265
 10
-10.9673
 20
29.7987
 30
0
 70
     0
  0
VERTEX
  8
MACK_GRANITE_265
 10
-12.4736
 20
29.3316
 30
0
 70
     0
  0
VERTEX
  8
MACK_GRANITE_265
 10
-13.9764
 20
28.8524
 30
0
 70
     0
  0
VERTEX
  8
MACK_GRANITE_265
 10
-15.4754
 20
28.3613
 30
0
 70
     0
  0
VERTEX
  8
MACK_GRANITE_265
 10
-16.9708
 20
27.8582
 30
0
 70
     0
  0
VERTEX
  8
MACK_GRANITE_265
 10
-18.4623
 20
27.3432
 30
0
 70
     0
  0
VERTEX
  8
MACK_GRANITE_265
 10
-19.9499
 20
26.8163
 30
0
 70
     0
  0
VERTEX
  8
MACK_GRANITE_265
 10
-21.4335
 20
26.2775
 30
0
 70
     0
  0
VERTEX
  8
MACK_GRANITE_265
 10
-22.9132
 20
25.7268
 30
0
 70
     0
  0
VERTEX
  8
MACK_GRANITE_265
 10
-24.3887
 20
25.1642
 30
0
 70
     0
  0
VERTEX
  8
MACK_GRANITE_265
 10
-25.86
 20
24.5898
 30
0
 70
     0
  0
SEQEND
  0
POLYLINE
  8
MACK_GRANITE_265
  6
CONTINUOUS
 62
     7
 66
     1
 40
0.0139
 41
0.0139
  0
VERTEX
  8
MACK_GRANITE_265
 10
26.5425
 20
36.1543
 30
0
 70
     0
  0
VERTEX
  8
MACK_GRANITE_265
 10
26.598
 20
36.135
 30
0
 70
     0
  0
VERTEX
  8
MACK_GRANITE_265
 10
26.6507
 20
36.1045
 30
0
 70
     0
  0
VERTEX
  8
MACK_GRANITE_265
 10
26.7008
 20
36.0629
 30
0
 70
     0
  0
VERTEX
  8
MACK_GRANITE_265
 10
26.7483
 20
36.0103
 30
0
 70
     0
  0
VERTEX
  8
MACK_GRANITE_265
 10
26.7932
 20
35.9467
 30
0
 70
     0
  0
VERTEX
  8
MACK_GRANITE_265
 10
26.8354
 20
35.872
 30
0
 70
     0
  0
VERTEX
  8
MACK_GRANITE_265
 10
26.8554
 20
35.8305
 30
0
 70
     0
  0
VERTEX
  8
MACK_GRANITE_265
 10
26.8748
 20
35.7861
 30
0
 70
     0
  0
VERTEX
  8
MACK_GRANITE_265
 10
26.8843
 20
35.7629
 30
0
 70
     0
  0
VERTEX
  8
MACK_GRANITE_265
 10
26.8935
 20
35.7389
 30
0
 70
     0
  0
VERTEX
  8
MACK_GRANITE_265
 10
26.9026
 20
35.7142
 30
0
 70
     0
  0
VERTEX
  8
MACK_GRANITE_265
 10
26.9114
 20
35.6889
 30
0
 70
     0
  0
VERTEX
  8
MACK_GRANITE_265
 10
26.9447
 20
35.5813
 30
0
 70
     0
  0
VERTEX
  8
MACK_GRANITE_265
 10
26.9746
 20
35.4637
 30
0
 70
     0
  0
VERTEX
  8
MACK_GRANITE_265
 10
27.0011
 20
35.3362
 30
0
 70
     0
  0
VERTEX
  8
MACK_GRANITE_265
 10
27.0241
 20
35.1988
 30
0
 70
     0
  0
VERTEX
  8
MACK_GRANITE_265
 10
27.0435
 20
35.0513
 30
0
 70
     0
  0
VERTEX
  8
MACK_GRANITE_265
 10
27.0593
 20
34.8935
 30
0
 70
     0
  0
VERTEX
  8
MACK_GRANITE_265
 10
27.0658
 20
34.8107
 30
0
 70
     0
  0
VERTEX
  8
MACK_GRANITE_265
 10
27.0713
 20
34.7252
 30
0
 70
     0
  0
VERTEX
  8
MACK_GRANITE_265
 10
27.0737
 20
34.6814
 30
0
 70
     0
  0
VERTEX
  8
MACK_GRANITE_265
 10
27.0759
 20
34.6371
 30
0
 70
     0
  0
VERTEX
  8
MACK_GRANITE_265
 10
27.0778
 20
34.5923
 30
0
 70
     0
  0
VERTEX
  8
MACK_GRANITE_265
 10
27.0794
 20
34.547
 30
0
 70
     0
  0
SEQEND
  0
POLYLINE
  8
MACK_GRANITE_265
  6
CONTINUOUS
 62
     7
 66
     1
 40
0.0139
 41
0.0139
  0
VERTEX
  8
MACK_GRANITE_265
 10
49.2231
 20
-17.9895
 30
0
 70
     0
  0
VERTEX
  8
MACK_GRANITE_265
 10
49.2134
 20
-17.6396
 30
0
 70
     0
  0
VERTEX
  8
MACK_GRANITE_265
 10
49.1842
 20
-17.2956
 30
0
 70
     0
  0
VERTEX
  8
MACK_GRANITE_265
 10
49.1361
 20
-16.9579
 30
0
 70
     0
  0
VERTEX
  8
MACK_GRANITE_265
 10
49.0696
 20
-16.6272
 30
0
 70
     0
  0
VERTEX
  8
MACK_GRANITE_265
 10
48.9854
 20
-16.3037
 30
0
 70
     0
  0
VERTEX
  8
MACK_GRANITE_265
 10
48.8839
 20
-15.9881
 30
0
 70
     0
  0
VERTEX
  8
MACK_GRANITE_265
 10
48.7658
 20
-15.6808
 30
0
 70
     0
  0
VERTEX
  8
MACK_GRANITE_265
 10
48.6317
 20
-15.3822
 30
0
 70
     0
  0
VERTEX
  8
MACK_GRANITE_265
 10
48.4822
 20
-15.0929
 30
0
 70
     0
  0
VERTEX
  8
MACK_GRANITE_265
 10
48.3177
 20
-14.8134
 30
0
 70
     0
  0
VERTEX
  8
MACK_GRANITE_265
 10
48.1389
 20
-14.544
 30
0
 70
     0
  0
VERTEX
  8
MACK_GRANITE_265
 10
47.9464
 20
-14.2854
 30
0
 70
     0
  0
VERTEX
  8
MACK_GRANITE_265
 10
47.7408
 20
-14.0379
 30
0
 70
     0
  0
VERTEX
  8
MACK_GRANITE_265
 10
47.5226
 20
-13.802
 30
0
 70
     0
  0
VERTEX
  8
MACK_GRANITE_265
 10
47.2924
 20
-13.5783
 30
0
 70
     0
  0
VERTEX
  8
MACK_GRANITE_265
 10
47.0508
 20
-13.3672
 30
0
 70
     0
  0
VERTEX
  8
MACK_GRANITE_265
 10
46.7983
 20
-13.1691
 30
0
 70
     0
  0
VERTEX
  8
MACK_GRANITE_265
 10
46.5356
 20
-12.9847
 30
0
 70
     0
  0
VERTEX
  8
MACK_GRANITE_265
 10
46.2632
 20
-12.8143
 30
0
 70
     0
  0
VERTEX
  8
MACK_GRANITE_265
 10
45.9817
 20
-12.6584
 30
0
 70
     0
  0
VERTEX
  8
MACK_GRANITE_265
 10
45.6917
 20
-12.5175
 30
0
 70
     0
  0
VERTEX
  8
MACK_GRANITE_265
 10
45.3937
 20
-12.392
 30
0
 70
     0
  0
VERTEX
  8
MACK_GRANITE_265
 10
45.0884
 20
-12.2826
 30
0
 70
     0
  0
VERTEX
  8
MACK_GRANITE_265
 10
44.7763
 20
-12.1896
 30
0
 70
     0
  0
VERTEX
  8
MACK_GRANITE_265
 10
44.458
 20
-12.1135
 30
0
 70
     0
  0
VERTEX
  8
MACK_GRANITE_265
 10
44.134
 20
-12.0548
 30
0
 70
     0
  0
VERTEX
  8
MACK_GRANITE_265
 10
43.805
 20
-12.0139
 30
0
 70
     0
  0
VERTEX
  8
MACK_GRANITE_265
 10
43.4715
 20
-11.9915
 30
0
 70
     0
  0
VERTEX
  8
MACK_GRANITE_265
 10
43.1342
 20
-11.9878
 30
0
 70
     0
  0
VERTEX
  8
MACK_GRANITE_265
 10
42.7935
 20
-12.0035
 30
0
 70
     0
  0
VERTEX
  8
MACK_GRANITE_265
 10
42.4501
 20
-12.039
 30
0
 70
     0
  0
VERTEX
  8
MACK_GRANITE_265
 10
42.1045
 20
-12.0947
 30
0
 70
     0
  0
VERTEX
  8
MACK_GRANITE_265
 10
42.1045
 20
-12.0947
 30
0
 70
     0
  0
VERTEX
  8
MACK_GRANITE_265
 10
41.7625
 20
-12.1694
 30
0
 70
     0
  0
VERTEX
  8
MACK_GRANITE_265
 10
41.43
 20
-12.2622
 30
0
 70
     0
  0
VERTEX
  8
MACK_GRANITE_265
 10
41.1072
 20
-12.3724
 30
0
 70
     0
  0
VERTEX
  8
MACK_GRANITE_265
 10
40.7946
 20
-12.4994
 30
0
 70
     0
  0
VERTEX
  8
MACK_GRANITE_265
 10
40.4926
 20
-12.6425
 30
0
 70
     0
  0
VERTEX
  8
MACK_GRANITE_265
 10
40.2014
 20
-12.801
 30
0
 70
     0
  0
VERTEX
  8
MACK_GRANITE_265
 10
39.9215
 20
-12.9743
 30
0
 70
     0
  0
VERTEX
  8
MACK_GRANITE_265
 10
39.6532
 20
-13.1617
 30
0
 70
     0
  0
VERTEX
  8
MACK_GRANITE_265
 10
39.3968
 20
-13.3626
 30
0
 70
     0
  0
VERTEX
  8
MACK_GRANITE_265
 10
39.1528
 20
-13.5763
 30
0
 70
     0
  0
VERTEX
  8
MACK_GRANITE_265
 10
38.9215
 20
-13.8021
 30
0
 70
     0
  0
VERTEX
  8
MACK_GRANITE_265
 10
38.7033
 20
-14.0395
 30
0
 70
     0
  0
VERTEX
  8
MACK_GRANITE_265
 10
38.4984
 20
-14.2877
 30
0
 70
     0
  0
VERTEX
  8
MACK_GRANITE_265
 10
38.3074
 20
-14.546
 30
0
 70
     0
  0
VERTEX
  8
MACK_GRANITE_265
 10
38.1305
 20
-14.8139
 30
0
 70
     0
  0
VERTEX
  8
MACK_GRANITE_265
 10
37.9682
 20
-15.0906
 30
0
 70
     0
  0
VERTEX
  8
MACK_GRANITE_265
 10
37.8207
 20
-15.3756
 30
0
 70
     0
  0
VERTEX
  8
MACK_GRANITE_265
 10
37.6884
 20
-15.6681
 30
0
 70
     0
  0
VERTEX
  8
MACK_GRANITE_265
 10
37.5718
 20
-15.9675
 30
0
 70
     0
  0
VERTEX
  8
MACK_GRANITE_265
 10
37.4711
 20
-16.2731
 30
0
 70
     0
  0
VERTEX
  8
MACK_GRANITE_265
 10
37.3867
 20
-16.5843
 30
0
 70
     0
  0
VERTEX
  8
MACK_GRANITE_265
 10
37.3191
 20
-16.9004
 30
0
 70
     0
  0
VERTEX
  8
MACK_GRANITE_265
 10
37.2684
 20
-17.2208
 30
0
 70
     0
  0
VERTEX
  8
MACK_GRANITE_265
 10
37.2352
 20
-17.5448
 30
0
 70
     0
  0
VERTEX
  8
MACK_GRANITE_265
 10
37.2198
 20
-17.8717
 30
0
 70
     0
  0
VERTEX
  8
MACK_GRANITE_265
 10
37.2225
 20
-18.2009
 30
0
 70
     0
  0
VERTEX
  8
MACK_GRANITE_265
 10
37.2438
 20
-18.5318
 30
0
 70
     0
  0
VERTEX
  8
MACK_GRANITE_265
 10
37.2838
 20
-18.8636
 30
0
 70
     0
  0
VERTEX
  8
MACK_GRANITE_265
 10
37.3432
 20
-19.1957
 30
0
 70
     0
  0
VERTEX
  8
MACK_GRANITE_265
 10
37.4221
 20
-19.5275
 30
0
 70
     0
  0
VERTEX
  8
MACK_GRANITE_265
 10
37.5209
 20
-19.8583
 30
0
 70
     0
  0
VERTEX
  8
MACK_GRANITE_265
 10
37.6401
 20
-20.1874
 30
0
 70
     0
  0
SEQEND
  0
POLYLINE
  8
MACK_GRANITE_265
  6
CONTINUOUS
 62
     7
 66
     1
 40
0.0139
 41
0.0139
  0
VERTEX
  8
MACK_GRANITE_265
 10
38.9366
 20
-22.1879
 30
0
 70
     0
  0
VERTEX
  8
MACK_GRANITE_265
 10
39.1613
 20
-22.4061
 30
0
 70
     0
  0
VERTEX
  8
MACK_GRANITE_265
 10
39.3943
 20
-22.6103
 30
0
 70
     0
  0
VERTEX
  8
MACK_GRANITE_265
 10
39.635
 20
-22.8004
 30
0
 70
     0
  0
VERTEX
  8
MACK_GRANITE_265
 10
39.883
 20
-22.9764
 30
0
 70
     0
  0
VERTEX
  8
MACK_GRANITE_265
 10
40.1377
 20
-23.1383
 30
0
 70
     0
  0
VERTEX
  8
MACK_GRANITE_265
 10
40.3985
 20
-23.2862
 30
0
 70
     0
  0
VERTEX
  8
MACK_GRANITE_265
 10
40.6649
 20
-23.42
 30
0
 70
     0
  0
VERTEX
  8
MACK_GRANITE_265
 10
40.9362
 20
-23.5397
 30
0
 70
     0
  0
VERTEX
  8
MACK_GRANITE_265
 10
41.2121
 20
-23.6454
 30
0
 70
     0
  0
VERTEX
  8
MACK_GRANITE_265
 10
41.4918
 20
-23.7369
 30
0
 70
     0
  0
VERTEX
  8
MACK_GRANITE_265
 10
41.7749
 20
-23.8145
 30
0
 70
     0
  0
VERTEX
  8
MACK_GRANITE_265
 10
42.0607
 20
-23.8779
 30
0
 70
     0
  0
VERTEX
  8
MACK_GRANITE_265
 10
42.3488
 20
-23.9273
 30
0
 70
     0
  0
VERTEX
  8
MACK_GRANITE_265
 10
42.6385
 20
-23.9625
 30
0
 70
     0
  0
VERTEX
  8
MACK_GRANITE_265
 10
42.9294
 20
-23.9838
 30
0
 70
     0
  0
VERTEX
  8
MACK_GRANITE_265
 10
43.2208
 20
-23.9909
 30
0
 70
     0
  0
VERTEX
  8
MACK_GRANITE_265
 10
43.5123
 20
-23.984
 30
0
 70
     0
  0
VERTEX
  8
MACK_GRANITE_265
 10
43.8031
 20
-23.963
 30
0
 70
     0
  0
VERTEX
  8
MACK_GRANITE_265
 10
44.0929
 20
-23.9279
 30
0
 70
     0
  0
VERTEX
  8
MACK_GRANITE_265
 10
44.381
 20
-23.8787
 30
0
 70
     0
  0
VERTEX
  8
MACK_GRANITE_265
 10
44.6669
 20
-23.8155
 30
0
 70
     0
  0
VERTEX
  8
MACK_GRANITE_265
 10
44.95
 20
-23.7382
 30
0
 70
     0
  0
VERTEX
  8
MACK_GRANITE_265
 10
45.2298
 20
-23.6469
 30
0
 70
     0
  0
VERTEX
  8
MACK_GRANITE_265
 10
45.5057
 20
-23.5414
 30
0
 70
     0
  0
VERTEX
  8
MACK_GRANITE_265
 10
45.7772
 20
-23.4219
 30
0
 70
     0
  0
VERTEX
  8
MACK_GRANITE_265
 10
46.0437
 20
-23.2883
 30
0
 70
     0
  0
VERTEX
  8
MACK_GRANITE_265
 10
46.3046
 20
-23.1406
 30
0
 70
     0
  0
VERTEX
  8
MACK_GRANITE_265
 10
46.5594
 20
-22.9789
 30
0
 70
     0
  0
VERTEX
  8
MACK_GRANITE_265
 10
46.8075
 20
-22.803
 30
0
 70
     0
  0
VERTEX
  8
MACK_GRANITE_265
 10
47.0484
 20
-22.6131
 30
0
 70
     0
  0
VERTEX
  8
MACK_GRANITE_265
 10
47.2815
 20
-22.4091
 30
0
 70
     0
  0
VERTEX
  8
MACK_GRANITE_265
 10
47.5063
 20
-22.1911
 30
0
 70
     0
  0
SEQEND
  0
POLYLINE
  8
MACK_GRANITE_265
  6
CONTINUOUS
 62
     7
 66
     1
 40
0.0139
 41
0.0139
  0
VERTEX
  8
MACK_GRANITE_265
 10
48.8043
 20
-20.1916
 30
0
 70
     0
  0
VERTEX
  8
MACK_GRANITE_265
 10
48.9019
 20
-19.9269
 30
0
 70
     0
  0
VERTEX
  8
MACK_GRANITE_265
 10
48.9867
 20
-19.6583
 30
0
 70
     0
  0
VERTEX
  8
MACK_GRANITE_265
 10
49.0586
 20
-19.3863
 30
0
 70
     0
  0
VERTEX
  8
MACK_GRANITE_265
 10
49.1177
 20
-19.1114
 30
0
 70
     0
  0
VERTEX
  8
MACK_GRANITE_265
 10
49.1637
 20
-18.8341
 30
0
 70
     0
  0
VERTEX
  8
MACK_GRANITE_265
 10
49.1967
 20
-18.5547
 30
0
 70
     0
  0
VERTEX
  8
MACK_GRANITE_265
 10
49.2165
 20
-18.2737
 30
0
 70
     0
  0
VERTEX
  8
MACK_GRANITE_265
 10
49.2231
 20
-17.9917
 30
0
 70
     0
  0
SEQEND
  0
POLYLINE
  8
MACK_GRANITE_265
  6
CONTINUOUS
 62
     7
 66
     1
 40
0.0139
 41
0.0139
  0
VERTEX
  8
MACK_GRANITE_265
 10
30.3578
 20
1.0105
 30
0
 70
     0
  0
VERTEX
  8
MACK_GRANITE_265
 10
29.8035
 20
1.0105
 30
0
 70
     0
  0
SEQEND
  0
POLYLINE
  8
MACK_GRANITE_265
  6
CONTINUOUS
 62
     7
 66
     1
 40
0.0139
 41
0.0139
  0
VERTEX
  8
MACK_GRANITE_265
 10
30.2227
 20
5.2605
 30
0
 70
     0
  0
VERTEX
  8
MACK_GRANITE_265
 10
30.3578
 20
5.2605
 30
0
 70
     0
  0
SEQEND
  0
POLYLINE
  8
MACK_GRANITE_265
  6
CONTINUOUS
 62
     7
 66
     1
 40
0.0139
 41
0.0139
  0
VERTEX
  8
MACK_GRANITE_265
 10
30.2227
 20
35.0992
 30
0
 70
     0
  0
VERTEX
  8
MACK_GRANITE_265
 10
30.2227
 20
5.2605
 30
0
 70
     0
  0
SEQEND
  0
POLYLINE
  8
MACK_GRANITE_265
  6
CONTINUOUS
 62
     7
 66
     1
 40
0.0139
 41
0.0139
  0
VERTEX
  8
MACK_GRANITE_265
 10
30.3578
 20
35.6621
 30
0
 70
     0
  0
VERTEX
  8
MACK_GRANITE_265
 10
30.2227
 20
35.0992
 30
0
 70
     0
  0
SEQEND
  0
POLYLINE
  8
MACK_GRANITE_265
  6
CONTINUOUS
 62
     7
 66
     1
 40
0.0139
 41
0.0139
  0
VERTEX
  8
MACK_GRANITE_265
 10
30.3578
 20
35.7445
 30
0
 70
     0
  0
VERTEX
  8
MACK_GRANITE_265
 10
29.8035
 20
35.8101
 30
0
 70
     0
  0
SEQEND
  0
POLYLINE
  8
MACK_GRANITE_265
  6
CONTINUOUS
 62
     7
 66
     1
 40
0.0139
 41
0.0139
  0
VERTEX
  8
MACK_GRANITE_265
 10
71.9727
 20
1.0105
 30
0
 70
     0
  0
VERTEX
  8
MACK_GRANITE_265
 10
30.3578
 20
1.0105
 30
0
 70
     0
  0
SEQEND
  0
POLYLINE
  8
MACK_GRANITE_265
  6
CONTINUOUS
 62
     7
 66
     1
 40
0.0139
 41
0.0139
  0
VERTEX
  8
MACK_GRANITE_265
 10
24.1981
 20
1.0105
 30
0
 70
     0
  0
VERTEX
  8
MACK_GRANITE_265
 10
29.8035
 20
1.0105
 30
0
 70
     0
  0
SEQEND
  0
POLYLINE
  8
MACK_GRANITE_265
  6
CONTINUOUS
 62
     7
 66
     1
 40
0.0139
 41
0.0139
  0
VERTEX
  8
MACK_GRANITE_265
 10
-29.0269
 20
19.4287
 30
0
 70
     0
  0
VERTEX
  8
MACK_GRANITE_265
 10
-29.0269
 20
19.9379
 30
0
 70
     0
  0
SEQEND
  0
POLYLINE
  8
MACK_GRANITE_265
  6
CONTINUOUS
 62
     7
 66
     1
 40
0.0139
 41
0.0139
  0
VERTEX
  8
MACK_GRANITE_265
 10
22.9335
 20
37.0056
 30
0
 70
     0
  0
VERTEX
  8
MACK_GRANITE_265
 10
22.9731
 20
37.0105
 30
0
 70
     0
  0
SEQEND
  0
POLYLINE
  8
MACK_GRANITE_265
  6
CONTINUOUS
 62
     7
 66
     1
 40
0.0139
 41
0.0139
  0
VERTEX
  8
MACK_GRANITE_265
 10
-29.0269
 20
4.7147
 30
0
 70
     0
  0
VERTEX
  8
MACK_GRANITE_265
 10
-29.0269
 20
19.4287
 30
0
 70
     0
  0
SEQEND
  0
POLYLINE
  8
MACK_GRANITE_265
  6
CONTINUOUS
 62
     7
 66
     1
 40
0.0139
 41
0.0139
  0
VERTEX
  8
MACK_GRANITE_265
 10
14.9731
 20
5.3105
 30
0
 70
     0
  0
VERTEX
  8
MACK_GRANITE_265
 10
18.1981
 20
1.0105
 30
0
 70
     0
  0
SEQEND
  0
POLYLINE
  8
MACK_GRANITE_265
  6
CONTINUOUS
 62
     7
 66
     1
 40
0.0139
 41
0.0139
  0
VERTEX
  8
MACK_GRANITE_265
 10
18.1981
 20
1.0105
 30
0
 70
     0
  0
VERTEX
  8
MACK_GRANITE_265
 10
21.0965
 20
1.0105
 30
0
 70
     0
  0
SEQEND
  0
POLYLINE
  8
MACK_GRANITE_265
  6
CONTINUOUS
 62
     7
 66
     1
 40
0.0139
 41
0.0139
  0
VERTEX
  8
MACK_GRANITE_265
 10
-26.0269
 20
-6.6895
 30
0
 70
     0
  0
VERTEX
  8
MACK_GRANITE_265
 10
-24.0269
 20
-6.6895
 30
0
 70
     0
  0
SEQEND
  0
POLYLINE
  8
MACK_GRANITE_265
  6
CONTINUOUS
 62
     7
 66
     1
 40
0.0139
 41
0.0139
  0
VERTEX
  8
MACK_GRANITE_265
 10
-24.0269
 20
-6.6895
 30
0
 70
     0
  0
VERTEX
  8
MACK_GRANITE_265
 10
-15.0269
 20
5.3105
 30
0
 70
     0
  0
SEQEND
  0
POLYLINE
  8
MACK_GRANITE_265
  6
CONTINUOUS
 62
     7
 66
     1
 40
0.0139
 41
0.0139
  0
VERTEX
  8
MACK_GRANITE_265
 10
-15.0269
 20
5.3105
 30
0
 70
     0
  0
VERTEX
  8
MACK_GRANITE_265
 10
14.9731
 20
5.3105
 30
0
 70
     0
  0
SEQEND
  0
POLYLINE
  8
MACK_GRANITE_265
  6
CONTINUOUS
 62
     7
 66
     1
 40
0.0139
 41
0.0139
  0
VERTEX
  8
MACK_GRANITE_265
 10
22.9731
 20
37.0105
 30
0
 70
     0
  0
VERTEX
  8
MACK_GRANITE_265
 10
26.5425
 20
36.1543
 30
0
 70
     0
  0
SEQEND
  0
POLYLINE
  8
MACK_GRANITE_265
  6
CONTINUOUS
 62
     7
 66
     1
 40
0.0139
 41
0.0139
  0
VERTEX
  8
MACK_GRANITE_265
 10
-35.0269
 20
-10.6895
 30
0
 70
     0
  0
VERTEX
  8
MACK_GRANITE_265
 10
-35.0269
 20
-21.1895
 30
0
 70
     0
  0
SEQEND
  0
POLYLINE
  8
MACK_GRANITE_265
  6
CONTINUOUS
 62
     7
 66
     1
 40
0.0139
 41
0.0139
  0
VERTEX
  8
MACK_GRANITE_265
 10
65.7227
 20
13.1605
 30
0
 70
     0
  0
VERTEX
  8
MACK_GRANITE_265
 10
64.9727
 20
13.1605
 30
0
 70
     0
  0
SEQEND
  0
POLYLINE
  8
MACK_GRANITE_265
  6
CONTINUOUS
 62
     7
 66
     1
 40
0.0139
 41
0.0139
  0
VERTEX
  8
MACK_GRANITE_265
 10
64.9727
 20
17.1605
 30
0
 70
     0
  0
VERTEX
  8
MACK_GRANITE_265
 10
65.7227
 20
17.1605
 30
0
 70
     0
  0
SEQEND
  0
POLYLINE
  8
MACK_GRANITE_265
  6
CONTINUOUS
 62
    90
 66
     1
 40
0.0139
 41
0.0139
  0
VERTEX
  8
MACK_GRANITE_265
 10
77.9623
 20
2.1015
 30
0
 70
     0
  0
VERTEX
  8
MACK_GRANITE_265
 10
77.9623
 20
-1.2481
 30
0
 70
     0
  0
SEQEND
  0
ENDSEC
  0
EOF
