  0
SECTION
  2
HEADER
  9
$ACADVER
  1
AC1006
  9
$AXISMODE
 70
     1
  9
$AXISUNIT
 10
0.125
 20
0.125
  9
$CECOLOR
 62
0
  9
$CELTYPE
  6
CONTINUOUS
  9
$CLAYER
  8
LAYER1
  9
$EXTMIN
 10
0
 20
0
  9
$EXTMAX
 10
100
 20
100
  9
$LIMMIN
 10
0
 20
0
  9
$LIMMAX
 10
100
 20
100
  9
$GRIDMODE
 70
     0
  9
$GRIDUNIT
 10
0.125
 20
0.125
  9
$MIRRTEXT
 70
     1
  9
$SNAPMODE
 70
     1
  9
$SNAPUNIT
 10
0.125
 20
0
  9
$SNAPSTYLE
 70
     0
  9
$SPLINESEGS
 70
     8
  9
$SPLINETYPE
 70
     6
  0
ENDSEC
  0
SECTION
  2
TABLES
  0
TABLE
  2
LTYPE
 70
     1
  0
LTYPE
  2
CONTINUOUS
 70
    64
  3
Descriptive Text
 72
    65
 73
     0
 40
0
  0
ENDTAB
  0
TABLE
  2
LAYER
 70
     1
  0
LAYER
  2
LAYER1
 70
     0
 62
     7
  6
CONTINUOUS
  0
ENDTAB
  0
TABLE
  2
STYLE
 70
     2
  0
STYLE
  2
STANDARD
 70
    64
 40
0.0
 41
1.0
 50
0.0
 71
     0
 42
0.2
  3
txt
  4

  0
STYLE
  2
ARIAL
 70
    64
 40
0.0
 41
1.0
 50
0.0
 71
     0
 42
0.2
  3
arial
  4

  0
STYLE
  2
COURIER
 70
    64
 40
0.0
 41
1.0
 50
0.0
 71
     0
 42
0.2
  3
courier
  4

  0
ENDTAB
  0
TABLE
  2
VIEW
 70
     0
  0
ENDTAB
  0
TABLE
  2
USC
 70
     0
  0
ENDTAB
  0
TABLE
  2
DWGMGR
 70
     0
  0
ENDTAB
  0
ENDSEC
  0
SECTION
  2
BLOCKS
  0
ENDSEC
  0
SECTION
  2
ENTITIES
  0
POLYLINE
  8
LAYER1
  6
CONTINUOUS
 62
     5
 66
     1
 40
0.013
 41
0.013
  0
VERTEX
  8
LAYER1
 10
-3.2283
 20
-23.7868
 30
0
 70
     0
  0
VERTEX
  8
LAYER1
 10
-12.121
 20
-20.6965
 30
0
 70
     0
  0
SEQEND
  0
POLYLINE
  8
LAYER1
  6
CONTINUOUS
 62
     5
 66
     1
 40
0.013
 41
0.013
  0
VERTEX
  8
LAYER1
 10
-1.9907
 20
-19.7274
 30
0
 70
     0
  0
VERTEX
  8
LAYER1
 10
-10.6822
 20
-16.707
 30
0
 70
     0
  0
SEQEND
  0
POLYLINE
  8
LAYER1
  6
CONTINUOUS
 62
     5
 66
     1
 40
0.013
 41
0.013
  0
VERTEX
  8
LAYER1
 10
0.0093
 20
-26.3016
 30
0
 70
     0
  0
VERTEX
  8
LAYER1
 10
-5.0303
 20
-33.7175
 30
0
 70
     0
  0
SEQEND
  0
POLYLINE
  8
LAYER1
  6
CONTINUOUS
 62
     5
 66
     1
 40
0.013
 41
0.013
  0
VERTEX
  8
LAYER1
 10
-3.2283
 20
-23.7868
 30
0
 70
     0
  0
VERTEX
  8
LAYER1
 10
-8.268
 20
-31.2027
 30
0
 70
     0
  0
SEQEND
  0
POLYLINE
  8
LAYER1
  6
CONTINUOUS
 62
     5
 66
     1
 40
0.013
 41
0.013
  0
VERTEX
  8
LAYER1
 10
3.247
 20
-23.7868
 30
0
 70
     0
  0
VERTEX
  8
LAYER1
 10
8.4359
 20
-31.4224
 30
0
 70
     0
  0
SEQEND
  0
POLYLINE
  8
LAYER1
  6
CONTINUOUS
 62
     5
 66
     1
 40
0.013
 41
0.013
  0
VERTEX
  8
LAYER1
 10
0.0093
 20
-26.3016
 30
0
 70
     0
  0
VERTEX
  8
LAYER1
 10
5.0489
 20
-33.7175
 30
0
 70
     0
  0
SEQEND
  0
POLYLINE
  8
LAYER1
  6
CONTINUOUS
 62
     5
 66
     1
 40
0.013
 41
0.013
  0
VERTEX
  8
LAYER1
 10
2.0093
 20
-19.7274
 30
0
 70
     0
  0
VERTEX
  8
LAYER1
 10
10.524
 20
-16.7684
 30
0
 70
     0
  0
SEQEND
  0
POLYLINE
  8
LAYER1
  6
CONTINUOUS
 62
     5
 66
     1
 40
0.013
 41
0.013
  0
VERTEX
  8
LAYER1
 10
3.247
 20
-23.7868
 30
0
 70
     0
  0
VERTEX
  8
LAYER1
 10
12.0212
 20
-20.7377
 30
0
 70
     0
  0
SEQEND
  0
POLYLINE
  8
LAYER1
  6
CONTINUOUS
 62
     5
 66
     1
 40
0.013
 41
0.013
  0
VERTEX
  8
LAYER1
 10
2.0093
 20
-19.7274
 30
0
 70
     0
  0
VERTEX
  8
LAYER1
 10
2.0093
 20
-10.559
 30
0
 70
     0
  0
SEQEND
  0
POLYLINE
  8
LAYER1
  6
CONTINUOUS
 62
     5
 66
     1
 40
0.013
 41
0.013
  0
VERTEX
  8
LAYER1
 10
-1.9907
 20
-19.7274
 30
0
 70
     0
  0
VERTEX
  8
LAYER1
 10
-1.9907
 20
-10.559
 30
0
 70
     0
  0
SEQEND
  0
POLYLINE
  8
LAYER1
  6
CONTINUOUS
 62
     5
 66
     1
 40
0.013
 41
0.013
  0
VERTEX
  8
LAYER1
 10
105.6963
 20
-11.361
 30
0
 70
     0
  0
VERTEX
  8
LAYER1
 10
66.9404
 20
-11.361
 30
0
 70
     0
  0
SEQEND
  0
POLYLINE
  8
LAYER1
  6
CONTINUOUS
 62
     5
 66
     1
 40
0.013
 41
0.013
  0
VERTEX
  8
LAYER1
 10
50.0096
 20
67.3622
 30
0
 70
     0
  0
VERTEX
  8
LAYER1
 10
16.3163
 20
67.3622
 30
0
 70
     0
  0
SEQEND
  0
POLYLINE
  8
LAYER1
  6
CONTINUOUS
 62
     5
 66
     1
 40
0.013
 41
0.013
  0
VERTEX
  8
LAYER1
 10
65.0097
 20
16.0451
 30
0
 70
     0
  0
VERTEX
  8
LAYER1
 10
65.0097
 20
51.3324
 30
0
 70
     0
  0
SEQEND
  0
POLYLINE
  8
LAYER1
  6
CONTINUOUS
 62
     5
 66
     1
 40
0.013
 41
0.013
  0
VERTEX
  8
LAYER1
 10
65.0097
 20
51.3324
 30
0
 70
     0
  0
VERTEX
  8
LAYER1
 10
64.9997
 20
51.6988
 30
0
 70
     0
  0
SEQEND
  0
POLYLINE
  8
LAYER1
  6
CONTINUOUS
 62
     5
 66
     1
 40
0.013
 41
0.013
  0
VERTEX
  8
LAYER1
 10
64.9997
 20
51.6988
 30
0
 70
     0
  0
VERTEX
  8
LAYER1
 10
64.9898
 20
52.0651
 30
0
 70
     0
  0
SEQEND
  0
POLYLINE
  8
LAYER1
  6
CONTINUOUS
 62
     5
 66
     1
 40
0.013
 41
0.013
  0
VERTEX
  8
LAYER1
 10
64.9898
 20
52.0651
 30
0
 70
     0
  0
VERTEX
  8
LAYER1
 10
64.97
 20
52.4413
 30
0
 70
     0
  0
SEQEND
  0
POLYLINE
  8
LAYER1
  6
CONTINUOUS
 62
     5
 66
     1
 40
0.013
 41
0.013
  0
VERTEX
  8
LAYER1
 10
64.97
 20
52.4413
 30
0
 70
     0
  0
VERTEX
  8
LAYER1
 10
64.9403
 20
52.8077
 30
0
 70
     0
  0
SEQEND
  0
POLYLINE
  8
LAYER1
  6
CONTINUOUS
 62
     5
 66
     1
 40
0.013
 41
0.013
  0
VERTEX
  8
LAYER1
 10
64.9403
 20
52.8077
 30
0
 70
     0
  0
VERTEX
  8
LAYER1
 10
64.9106
 20
53.174
 30
0
 70
     0
  0
SEQEND
  0
POLYLINE
  8
LAYER1
  6
CONTINUOUS
 62
     5
 66
     1
 40
0.013
 41
0.013
  0
VERTEX
  8
LAYER1
 10
64.9106
 20
53.174
 30
0
 70
     0
  0
VERTEX
  8
LAYER1
 10
64.8611
 20
53.5404
 30
0
 70
     0
  0
SEQEND
  0
POLYLINE
  8
LAYER1
  6
CONTINUOUS
 62
     5
 66
     1
 40
0.013
 41
0.013
  0
VERTEX
  8
LAYER1
 10
64.8611
 20
53.5404
 30
0
 70
     0
  0
VERTEX
  8
LAYER1
 10
64.8116
 20
53.9067
 30
0
 70
     0
  0
SEQEND
  0
POLYLINE
  8
LAYER1
  6
CONTINUOUS
 62
     5
 66
     1
 40
0.013
 41
0.013
  0
VERTEX
  8
LAYER1
 10
64.8116
 20
53.9067
 30
0
 70
     0
  0
VERTEX
  8
LAYER1
 10
64.7522
 20
54.273
 30
0
 70
     0
  0
SEQEND
  0
POLYLINE
  8
LAYER1
  6
CONTINUOUS
 62
     5
 66
     1
 40
0.013
 41
0.013
  0
VERTEX
  8
LAYER1
 10
64.7522
 20
54.273
 30
0
 70
     0
  0
VERTEX
  8
LAYER1
 10
64.6829
 20
54.6394
 30
0
 70
     0
  0
SEQEND
  0
POLYLINE
  8
LAYER1
  6
CONTINUOUS
 62
     5
 66
     1
 40
0.013
 41
0.013
  0
VERTEX
  8
LAYER1
 10
64.6829
 20
54.6394
 30
0
 70
     0
  0
VERTEX
  8
LAYER1
 10
64.6037
 20
54.9958
 30
0
 70
     0
  0
SEQEND
  0
POLYLINE
  8
LAYER1
  6
CONTINUOUS
 62
     5
 66
     1
 40
0.013
 41
0.013
  0
VERTEX
  8
LAYER1
 10
64.6037
 20
54.9958
 30
0
 70
     0
  0
VERTEX
  8
LAYER1
 10
64.5245
 20
55.3621
 30
0
 70
     0
  0
SEQEND
  0
POLYLINE
  8
LAYER1
  6
CONTINUOUS
 62
     5
 66
     1
 40
0.013
 41
0.013
  0
VERTEX
  8
LAYER1
 10
64.5245
 20
55.3621
 30
0
 70
     0
  0
VERTEX
  8
LAYER1
 10
64.4354
 20
55.7186
 30
0
 70
     0
  0
SEQEND
  0
POLYLINE
  8
LAYER1
  6
CONTINUOUS
 62
     5
 66
     1
 40
0.013
 41
0.013
  0
VERTEX
  8
LAYER1
 10
64.4354
 20
55.7186
 30
0
 70
     0
  0
VERTEX
  8
LAYER1
 10
64.3364
 20
56.075
 30
0
 70
     0
  0
SEQEND
  0
POLYLINE
  8
LAYER1
  6
CONTINUOUS
 62
     5
 66
     1
 40
0.013
 41
0.013
  0
VERTEX
  8
LAYER1
 10
64.3364
 20
56.075
 30
0
 70
     0
  0
VERTEX
  8
LAYER1
 10
64.2275
 20
56.4216
 30
0
 70
     0
  0
SEQEND
  0
POLYLINE
  8
LAYER1
  6
CONTINUOUS
 62
     5
 66
     1
 40
0.013
 41
0.013
  0
VERTEX
  8
LAYER1
 10
64.2275
 20
56.4216
 30
0
 70
     0
  0
VERTEX
  8
LAYER1
 10
64.1186
 20
56.778
 30
0
 70
     0
  0
SEQEND
  0
POLYLINE
  8
LAYER1
  6
CONTINUOUS
 62
     5
 66
     1
 40
0.013
 41
0.013
  0
VERTEX
  8
LAYER1
 10
64.1186
 20
56.778
 30
0
 70
     0
  0
VERTEX
  8
LAYER1
 10
63.9898
 20
57.1245
 30
0
 70
     0
  0
SEQEND
  0
POLYLINE
  8
LAYER1
  6
CONTINUOUS
 62
     5
 66
     1
 40
0.013
 41
0.013
  0
VERTEX
  8
LAYER1
 10
63.9898
 20
57.1245
 30
0
 70
     0
  0
VERTEX
  8
LAYER1
 10
63.8611
 20
57.4612
 30
0
 70
     0
  0
SEQEND
  0
POLYLINE
  8
LAYER1
  6
CONTINUOUS
 62
     5
 66
     1
 40
0.013
 41
0.013
  0
VERTEX
  8
LAYER1
 10
63.8611
 20
57.4612
 30
0
 70
     0
  0
VERTEX
  8
LAYER1
 10
63.7324
 20
57.8077
 30
0
 70
     0
  0
SEQEND
  0
POLYLINE
  8
LAYER1
  6
CONTINUOUS
 62
     5
 66
     1
 40
0.013
 41
0.013
  0
VERTEX
  8
LAYER1
 10
63.7324
 20
57.8077
 30
0
 70
     0
  0
VERTEX
  8
LAYER1
 10
63.5839
 20
58.1443
 30
0
 70
     0
  0
SEQEND
  0
POLYLINE
  8
LAYER1
  6
CONTINUOUS
 62
     5
 66
     1
 40
0.013
 41
0.013
  0
VERTEX
  8
LAYER1
 10
63.5839
 20
58.1443
 30
0
 70
     0
  0
VERTEX
  8
LAYER1
 10
63.4354
 20
58.481
 30
0
 70
     0
  0
SEQEND
  0
POLYLINE
  8
LAYER1
  6
CONTINUOUS
 62
     5
 66
     1
 40
0.013
 41
0.013
  0
VERTEX
  8
LAYER1
 10
63.4354
 20
58.481
 30
0
 70
     0
  0
VERTEX
  8
LAYER1
 10
63.277
 20
58.8077
 30
0
 70
     0
  0
SEQEND
  0
POLYLINE
  8
LAYER1
  6
CONTINUOUS
 62
     5
 66
     1
 40
0.013
 41
0.013
  0
VERTEX
  8
LAYER1
 10
63.277
 20
58.8077
 30
0
 70
     0
  0
VERTEX
  8
LAYER1
 10
63.1087
 20
59.1344
 30
0
 70
     0
  0
SEQEND
  0
POLYLINE
  8
LAYER1
  6
CONTINUOUS
 62
     5
 66
     1
 40
0.013
 41
0.013
  0
VERTEX
  8
LAYER1
 10
63.1087
 20
59.1344
 30
0
 70
     0
  0
VERTEX
  8
LAYER1
 10
62.9403
 20
59.4513
 30
0
 70
     0
  0
SEQEND
  0
POLYLINE
  8
LAYER1
  6
CONTINUOUS
 62
     5
 66
     1
 40
0.013
 41
0.013
  0
VERTEX
  8
LAYER1
 10
62.9403
 20
59.4513
 30
0
 70
     0
  0
VERTEX
  8
LAYER1
 10
62.7621
 20
59.7681
 30
0
 70
     0
  0
SEQEND
  0
POLYLINE
  8
LAYER1
  6
CONTINUOUS
 62
     5
 66
     1
 40
0.013
 41
0.013
  0
VERTEX
  8
LAYER1
 10
62.7621
 20
59.7681
 30
0
 70
     0
  0
VERTEX
  8
LAYER1
 10
62.574
 20
60.0849
 30
0
 70
     0
  0
SEQEND
  0
POLYLINE
  8
LAYER1
  6
CONTINUOUS
 62
     5
 66
     1
 40
0.013
 41
0.013
  0
VERTEX
  8
LAYER1
 10
62.574
 20
60.0849
 30
0
 70
     0
  0
VERTEX
  8
LAYER1
 10
62.3859
 20
60.3919
 30
0
 70
     0
  0
SEQEND
  0
POLYLINE
  8
LAYER1
  6
CONTINUOUS
 62
     5
 66
     1
 40
0.013
 41
0.013
  0
VERTEX
  8
LAYER1
 10
62.3859
 20
60.3919
 30
0
 70
     0
  0
VERTEX
  8
LAYER1
 10
62.178
 20
60.6988
 30
0
 70
     0
  0
SEQEND
  0
POLYLINE
  8
LAYER1
  6
CONTINUOUS
 62
     5
 66
     1
 40
0.013
 41
0.013
  0
VERTEX
  8
LAYER1
 10
62.178
 20
60.6988
 30
0
 70
     0
  0
VERTEX
  8
LAYER1
 10
61.9799
 20
60.9958
 30
0
 70
     0
  0
SEQEND
  0
POLYLINE
  8
LAYER1
  6
CONTINUOUS
 62
     5
 66
     1
 40
0.013
 41
0.013
  0
VERTEX
  8
LAYER1
 10
61.9799
 20
60.9958
 30
0
 70
     0
  0
VERTEX
  8
LAYER1
 10
61.7621
 20
61.283
 30
0
 70
     0
  0
SEQEND
  0
POLYLINE
  8
LAYER1
  6
CONTINUOUS
 62
     5
 66
     1
 40
0.013
 41
0.013
  0
VERTEX
  8
LAYER1
 10
61.7621
 20
61.283
 30
0
 70
     0
  0
VERTEX
  8
LAYER1
 10
61.5443
 20
61.5701
 30
0
 70
     0
  0
SEQEND
  0
POLYLINE
  8
LAYER1
  6
CONTINUOUS
 62
     5
 66
     1
 40
0.013
 41
0.013
  0
VERTEX
  8
LAYER1
 10
61.5443
 20
61.5701
 30
0
 70
     0
  0
VERTEX
  8
LAYER1
 10
61.3265
 20
61.8572
 30
0
 70
     0
  0
SEQEND
  0
POLYLINE
  8
LAYER1
  6
CONTINUOUS
 62
     5
 66
     1
 40
0.013
 41
0.013
  0
VERTEX
  8
LAYER1
 10
61.3265
 20
61.8572
 30
0
 70
     0
  0
VERTEX
  8
LAYER1
 10
61.0888
 20
62.1345
 30
0
 70
     0
  0
SEQEND
  0
POLYLINE
  8
LAYER1
  6
CONTINUOUS
 62
     5
 66
     1
 40
0.013
 41
0.013
  0
VERTEX
  8
LAYER1
 10
61.0888
 20
62.1345
 30
0
 70
     0
  0
VERTEX
  8
LAYER1
 10
60.8512
 20
62.4018
 30
0
 70
     0
  0
SEQEND
  0
POLYLINE
  8
LAYER1
  6
CONTINUOUS
 62
     5
 66
     1
 40
0.013
 41
0.013
  0
VERTEX
  8
LAYER1
 10
60.8512
 20
62.4018
 30
0
 70
     0
  0
VERTEX
  8
LAYER1
 10
60.6136
 20
62.6691
 30
0
 70
     0
  0
SEQEND
  0
POLYLINE
  8
LAYER1
  6
CONTINUOUS
 62
     5
 66
     1
 40
0.013
 41
0.013
  0
VERTEX
  8
LAYER1
 10
60.6136
 20
62.6691
 30
0
 70
     0
  0
VERTEX
  8
LAYER1
 10
60.3661
 20
62.9265
 30
0
 70
     0
  0
SEQEND
  0
POLYLINE
  8
LAYER1
  6
CONTINUOUS
 62
     5
 66
     1
 40
0.013
 41
0.013
  0
VERTEX
  8
LAYER1
 10
60.3661
 20
62.9265
 30
0
 70
     0
  0
VERTEX
  8
LAYER1
 10
60.1086
 20
63.184
 30
0
 70
     0
  0
SEQEND
  0
POLYLINE
  8
LAYER1
  6
CONTINUOUS
 62
     5
 66
     1
 40
0.013
 41
0.013
  0
VERTEX
  8
LAYER1
 10
60.1086
 20
63.184
 30
0
 70
     0
  0
VERTEX
  8
LAYER1
 10
59.8512
 20
63.4315
 30
0
 70
     0
  0
SEQEND
  0
POLYLINE
  8
LAYER1
  6
CONTINUOUS
 62
     5
 66
     1
 40
0.013
 41
0.013
  0
VERTEX
  8
LAYER1
 10
59.8512
 20
63.4315
 30
0
 70
     0
  0
VERTEX
  8
LAYER1
 10
59.5938
 20
63.6691
 30
0
 70
     0
  0
SEQEND
  0
POLYLINE
  8
LAYER1
  6
CONTINUOUS
 62
     5
 66
     1
 40
0.013
 41
0.013
  0
VERTEX
  8
LAYER1
 10
59.5938
 20
63.6691
 30
0
 70
     0
  0
VERTEX
  8
LAYER1
 10
59.3166
 20
63.8968
 30
0
 70
     0
  0
SEQEND
  0
POLYLINE
  8
LAYER1
  6
CONTINUOUS
 62
     5
 66
     1
 40
0.013
 41
0.013
  0
VERTEX
  8
LAYER1
 10
59.3166
 20
63.8968
 30
0
 70
     0
  0
VERTEX
  8
LAYER1
 10
59.0492
 20
64.1246
 30
0
 70
     0
  0
SEQEND
  0
POLYLINE
  8
LAYER1
  6
CONTINUOUS
 62
     5
 66
     1
 40
0.013
 41
0.013
  0
VERTEX
  8
LAYER1
 10
59.0492
 20
64.1246
 30
0
 70
     0
  0
VERTEX
  8
LAYER1
 10
58.772
 20
64.3424
 30
0
 70
     0
  0
SEQEND
  0
POLYLINE
  8
LAYER1
  6
CONTINUOUS
 62
     5
 66
     1
 40
0.013
 41
0.013
  0
VERTEX
  8
LAYER1
 10
58.772
 20
64.3424
 30
0
 70
     0
  0
VERTEX
  8
LAYER1
 10
58.4849
 20
64.5602
 30
0
 70
     0
  0
SEQEND
  0
POLYLINE
  8
LAYER1
  6
CONTINUOUS
 62
     5
 66
     1
 40
0.013
 41
0.013
  0
VERTEX
  8
LAYER1
 10
58.4849
 20
64.5602
 30
0
 70
     0
  0
VERTEX
  8
LAYER1
 10
58.1977
 20
64.7681
 30
0
 70
     0
  0
SEQEND
  0
POLYLINE
  8
LAYER1
  6
CONTINUOUS
 62
     5
 66
     1
 40
0.013
 41
0.013
  0
VERTEX
  8
LAYER1
 10
58.1977
 20
64.7681
 30
0
 70
     0
  0
VERTEX
  8
LAYER1
 10
57.9007
 20
64.9662
 30
0
 70
     0
  0
SEQEND
  0
POLYLINE
  8
LAYER1
  6
CONTINUOUS
 62
     5
 66
     1
 40
0.013
 41
0.013
  0
VERTEX
  8
LAYER1
 10
57.9007
 20
64.9662
 30
0
 70
     0
  0
VERTEX
  8
LAYER1
 10
57.6037
 20
65.1543
 30
0
 70
     0
  0
SEQEND
  0
POLYLINE
  8
LAYER1
  6
CONTINUOUS
 62
     5
 66
     1
 40
0.013
 41
0.013
  0
VERTEX
  8
LAYER1
 10
57.6037
 20
65.1543
 30
0
 70
     0
  0
VERTEX
  8
LAYER1
 10
57.3066
 20
65.3424
 30
0
 70
     0
  0
SEQEND
  0
POLYLINE
  8
LAYER1
  6
CONTINUOUS
 62
     5
 66
     1
 40
0.013
 41
0.013
  0
VERTEX
  8
LAYER1
 10
57.3066
 20
65.3424
 30
0
 70
     0
  0
VERTEX
  8
LAYER1
 10
56.9997
 20
65.5206
 30
0
 70
     0
  0
SEQEND
  0
POLYLINE
  8
LAYER1
  6
CONTINUOUS
 62
     5
 66
     1
 40
0.013
 41
0.013
  0
VERTEX
  8
LAYER1
 10
56.9997
 20
65.5206
 30
0
 70
     0
  0
VERTEX
  8
LAYER1
 10
56.6928
 20
65.6889
 30
0
 70
     0
  0
SEQEND
  0
POLYLINE
  8
LAYER1
  6
CONTINUOUS
 62
     5
 66
     1
 40
0.013
 41
0.013
  0
VERTEX
  8
LAYER1
 10
56.6928
 20
65.6889
 30
0
 70
     0
  0
VERTEX
  8
LAYER1
 10
56.3858
 20
65.8473
 30
0
 70
     0
  0
SEQEND
  0
POLYLINE
  8
LAYER1
  6
CONTINUOUS
 62
     5
 66
     1
 40
0.013
 41
0.013
  0
VERTEX
  8
LAYER1
 10
56.3858
 20
65.8473
 30
0
 70
     0
  0
VERTEX
  8
LAYER1
 10
56.069
 20
65.9959
 30
0
 70
     0
  0
SEQEND
  0
POLYLINE
  8
LAYER1
  6
CONTINUOUS
 62
     5
 66
     1
 40
0.013
 41
0.013
  0
VERTEX
  8
LAYER1
 10
56.069
 20
65.9959
 30
0
 70
     0
  0
VERTEX
  8
LAYER1
 10
55.7423
 20
66.1444
 30
0
 70
     0
  0
SEQEND
  0
POLYLINE
  8
LAYER1
  6
CONTINUOUS
 62
     5
 66
     1
 40
0.013
 41
0.013
  0
VERTEX
  8
LAYER1
 10
55.7423
 20
66.1444
 30
0
 70
     0
  0
VERTEX
  8
LAYER1
 10
55.4254
 20
66.283
 30
0
 70
     0
  0
SEQEND
  0
POLYLINE
  8
LAYER1
  6
CONTINUOUS
 62
     5
 66
     1
 40
0.013
 41
0.013
  0
VERTEX
  8
LAYER1
 10
55.4254
 20
66.283
 30
0
 70
     0
  0
VERTEX
  8
LAYER1
 10
55.0987
 20
66.4117
 30
0
 70
     0
  0
SEQEND
  0
POLYLINE
  8
LAYER1
  6
CONTINUOUS
 62
     5
 66
     1
 40
0.013
 41
0.013
  0
VERTEX
  8
LAYER1
 10
55.0987
 20
66.4117
 30
0
 70
     0
  0
VERTEX
  8
LAYER1
 10
54.772
 20
66.5305
 30
0
 70
     0
  0
SEQEND
  0
POLYLINE
  8
LAYER1
  6
CONTINUOUS
 62
     5
 66
     1
 40
0.013
 41
0.013
  0
VERTEX
  8
LAYER1
 10
54.772
 20
66.5305
 30
0
 70
     0
  0
VERTEX
  8
LAYER1
 10
54.4452
 20
66.6493
 30
0
 70
     0
  0
SEQEND
  0
POLYLINE
  8
LAYER1
  6
CONTINUOUS
 62
     5
 66
     1
 40
0.013
 41
0.013
  0
VERTEX
  8
LAYER1
 10
54.4452
 20
66.6493
 30
0
 70
     0
  0
VERTEX
  8
LAYER1
 10
54.1086
 20
66.7582
 30
0
 70
     0
  0
SEQEND
  0
POLYLINE
  8
LAYER1
  6
CONTINUOUS
 62
     5
 66
     1
 40
0.013
 41
0.013
  0
VERTEX
  8
LAYER1
 10
54.1086
 20
66.7582
 30
0
 70
     0
  0
VERTEX
  8
LAYER1
 10
53.7819
 20
66.8474
 30
0
 70
     0
  0
SEQEND
  0
POLYLINE
  8
LAYER1
  6
CONTINUOUS
 62
     5
 66
     1
 40
0.013
 41
0.013
  0
VERTEX
  8
LAYER1
 10
53.7819
 20
66.8474
 30
0
 70
     0
  0
VERTEX
  8
LAYER1
 10
53.4452
 20
66.9365
 30
0
 70
     0
  0
SEQEND
  0
POLYLINE
  8
LAYER1
  6
CONTINUOUS
 62
     5
 66
     1
 40
0.013
 41
0.013
  0
VERTEX
  8
LAYER1
 10
53.4452
 20
66.9365
 30
0
 70
     0
  0
VERTEX
  8
LAYER1
 10
53.0987
 20
67.0256
 30
0
 70
     0
  0
SEQEND
  0
POLYLINE
  8
LAYER1
  6
CONTINUOUS
 62
     5
 66
     1
 40
0.013
 41
0.013
  0
VERTEX
  8
LAYER1
 10
53.0987
 20
67.0256
 30
0
 70
     0
  0
VERTEX
  8
LAYER1
 10
52.7621
 20
67.0949
 30
0
 70
     0
  0
SEQEND
  0
POLYLINE
  8
LAYER1
  6
CONTINUOUS
 62
     5
 66
     1
 40
0.013
 41
0.013
  0
VERTEX
  8
LAYER1
 10
52.7621
 20
67.0949
 30
0
 70
     0
  0
VERTEX
  8
LAYER1
 10
52.4254
 20
67.1543
 30
0
 70
     0
  0
SEQEND
  0
POLYLINE
  8
LAYER1
  6
CONTINUOUS
 62
     5
 66
     1
 40
0.013
 41
0.013
  0
VERTEX
  8
LAYER1
 10
52.4254
 20
67.1543
 30
0
 70
     0
  0
VERTEX
  8
LAYER1
 10
52.0789
 20
67.2137
 30
0
 70
     0
  0
SEQEND
  0
POLYLINE
  8
LAYER1
  6
CONTINUOUS
 62
     5
 66
     1
 40
0.013
 41
0.013
  0
VERTEX
  8
LAYER1
 10
52.0789
 20
67.2137
 30
0
 70
     0
  0
VERTEX
  8
LAYER1
 10
51.7324
 20
67.2632
 30
0
 70
     0
  0
SEQEND
  0
POLYLINE
  8
LAYER1
  6
CONTINUOUS
 62
     5
 66
     1
 40
0.013
 41
0.013
  0
VERTEX
  8
LAYER1
 10
51.7324
 20
67.2632
 30
0
 70
     0
  0
VERTEX
  8
LAYER1
 10
51.3957
 20
67.3028
 30
0
 70
     0
  0
SEQEND
  0
POLYLINE
  8
LAYER1
  6
CONTINUOUS
 62
     5
 66
     1
 40
0.013
 41
0.013
  0
VERTEX
  8
LAYER1
 10
51.3957
 20
67.3028
 30
0
 70
     0
  0
VERTEX
  8
LAYER1
 10
51.0492
 20
67.3325
 30
0
 70
     0
  0
SEQEND
  0
POLYLINE
  8
LAYER1
  6
CONTINUOUS
 62
     5
 66
     1
 40
0.013
 41
0.013
  0
VERTEX
  8
LAYER1
 10
51.0492
 20
67.3325
 30
0
 70
     0
  0
VERTEX
  8
LAYER1
 10
50.7026
 20
67.3523
 30
0
 70
     0
  0
SEQEND
  0
POLYLINE
  8
LAYER1
  6
CONTINUOUS
 62
     5
 66
     1
 40
0.013
 41
0.013
  0
VERTEX
  8
LAYER1
 10
50.7026
 20
67.3523
 30
0
 70
     0
  0
VERTEX
  8
LAYER1
 10
50.3561
 20
67.3622
 30
0
 70
     0
  0
SEQEND
  0
POLYLINE
  8
LAYER1
  6
CONTINUOUS
 62
     5
 66
     1
 40
0.013
 41
0.013
  0
VERTEX
  8
LAYER1
 10
50.3561
 20
67.3622
 30
0
 70
     0
  0
VERTEX
  8
LAYER1
 10
50.0096
 20
67.3622
 30
0
 70
     0
  0
SEQEND
  0
POLYLINE
  8
LAYER1
  6
CONTINUOUS
 62
     5
 66
     1
 40
0.013
 41
0.013
  0
VERTEX
  8
LAYER1
 10
50.0096
 20
0.0054
 30
0
 70
     0
  0
VERTEX
  8
LAYER1
 10
50.3561
 20
0.0054
 30
0
 70
     0
  0
SEQEND
  0
POLYLINE
  8
LAYER1
  6
CONTINUOUS
 62
     5
 66
     1
 40
0.013
 41
0.013
  0
VERTEX
  8
LAYER1
 10
50.3561
 20
0.0054
 30
0
 70
     0
  0
VERTEX
  8
LAYER1
 10
50.7026
 20
0.0153
 30
0
 70
     0
  0
SEQEND
  0
POLYLINE
  8
LAYER1
  6
CONTINUOUS
 62
     5
 66
     1
 40
0.013
 41
0.013
  0
VERTEX
  8
LAYER1
 10
50.7026
 20
0.0153
 30
0
 70
     0
  0
VERTEX
  8
LAYER1
 10
51.0492
 20
0.045
 30
0
 70
     0
  0
SEQEND
  0
POLYLINE
  8
LAYER1
  6
CONTINUOUS
 62
     5
 66
     1
 40
0.013
 41
0.013
  0
VERTEX
  8
LAYER1
 10
51.0492
 20
0.045
 30
0
 70
     0
  0
VERTEX
  8
LAYER1
 10
51.3957
 20
0.0747
 30
0
 70
     0
  0
SEQEND
  0
POLYLINE
  8
LAYER1
  6
CONTINUOUS
 62
     5
 66
     1
 40
0.013
 41
0.013
  0
VERTEX
  8
LAYER1
 10
51.3957
 20
0.0747
 30
0
 70
     0
  0
VERTEX
  8
LAYER1
 10
51.7324
 20
0.1044
 30
0
 70
     0
  0
SEQEND
  0
POLYLINE
  8
LAYER1
  6
CONTINUOUS
 62
     5
 66
     1
 40
0.013
 41
0.013
  0
VERTEX
  8
LAYER1
 10
51.7324
 20
0.1044
 30
0
 70
     0
  0
VERTEX
  8
LAYER1
 10
52.0789
 20
0.1539
 30
0
 70
     0
  0
SEQEND
  0
POLYLINE
  8
LAYER1
  6
CONTINUOUS
 62
     5
 66
     1
 40
0.013
 41
0.013
  0
VERTEX
  8
LAYER1
 10
52.0789
 20
0.1539
 30
0
 70
     0
  0
VERTEX
  8
LAYER1
 10
52.4254
 20
0.2133
 30
0
 70
     0
  0
SEQEND
  0
POLYLINE
  8
LAYER1
  6
CONTINUOUS
 62
     5
 66
     1
 40
0.013
 41
0.013
  0
VERTEX
  8
LAYER1
 10
52.4254
 20
0.2133
 30
0
 70
     0
  0
VERTEX
  8
LAYER1
 10
52.7621
 20
0.2728
 30
0
 70
     0
  0
SEQEND
  0
POLYLINE
  8
LAYER1
  6
CONTINUOUS
 62
     5
 66
     1
 40
0.013
 41
0.013
  0
VERTEX
  8
LAYER1
 10
52.7621
 20
0.2728
 30
0
 70
     0
  0
VERTEX
  8
LAYER1
 10
53.0987
 20
0.352
 30
0
 70
     0
  0
SEQEND
  0
POLYLINE
  8
LAYER1
  6
CONTINUOUS
 62
     5
 66
     1
 40
0.013
 41
0.013
  0
VERTEX
  8
LAYER1
 10
53.0987
 20
0.352
 30
0
 70
     0
  0
VERTEX
  8
LAYER1
 10
53.4452
 20
0.4312
 30
0
 70
     0
  0
SEQEND
  0
POLYLINE
  8
LAYER1
  6
CONTINUOUS
 62
     5
 66
     1
 40
0.013
 41
0.013
  0
VERTEX
  8
LAYER1
 10
53.4452
 20
0.4312
 30
0
 70
     0
  0
VERTEX
  8
LAYER1
 10
53.7819
 20
0.5203
 30
0
 70
     0
  0
SEQEND
  0
POLYLINE
  8
LAYER1
  6
CONTINUOUS
 62
     5
 66
     1
 40
0.013
 41
0.013
  0
VERTEX
  8
LAYER1
 10
53.7819
 20
0.5203
 30
0
 70
     0
  0
VERTEX
  8
LAYER1
 10
54.1086
 20
0.6193
 30
0
 70
     0
  0
SEQEND
  0
POLYLINE
  8
LAYER1
  6
CONTINUOUS
 62
     5
 66
     1
 40
0.013
 41
0.013
  0
VERTEX
  8
LAYER1
 10
54.1086
 20
0.6193
 30
0
 70
     0
  0
VERTEX
  8
LAYER1
 10
54.4452
 20
0.7183
 30
0
 70
     0
  0
SEQEND
  0
POLYLINE
  8
LAYER1
  6
CONTINUOUS
 62
     5
 66
     1
 40
0.013
 41
0.013
  0
VERTEX
  8
LAYER1
 10
54.4452
 20
0.7183
 30
0
 70
     0
  0
VERTEX
  8
LAYER1
 10
54.772
 20
0.8371
 30
0
 70
     0
  0
SEQEND
  0
POLYLINE
  8
LAYER1
  6
CONTINUOUS
 62
     5
 66
     1
 40
0.013
 41
0.013
  0
VERTEX
  8
LAYER1
 10
54.772
 20
0.8371
 30
0
 70
     0
  0
VERTEX
  8
LAYER1
 10
55.0987
 20
0.9559
 30
0
 70
     0
  0
SEQEND
  0
POLYLINE
  8
LAYER1
  6
CONTINUOUS
 62
     5
 66
     1
 40
0.013
 41
0.013
  0
VERTEX
  8
LAYER1
 10
55.0987
 20
0.9559
 30
0
 70
     0
  0
VERTEX
  8
LAYER1
 10
55.4254
 20
1.0846
 30
0
 70
     0
  0
SEQEND
  0
POLYLINE
  8
LAYER1
  6
CONTINUOUS
 62
     5
 66
     1
 40
0.013
 41
0.013
  0
VERTEX
  8
LAYER1
 10
55.4254
 20
1.0846
 30
0
 70
     0
  0
VERTEX
  8
LAYER1
 10
55.7423
 20
1.2233
 30
0
 70
     0
  0
SEQEND
  0
POLYLINE
  8
LAYER1
  6
CONTINUOUS
 62
     5
 66
     1
 40
0.013
 41
0.013
  0
VERTEX
  8
LAYER1
 10
55.7423
 20
1.2233
 30
0
 70
     0
  0
VERTEX
  8
LAYER1
 10
56.069
 20
1.3718
 30
0
 70
     0
  0
SEQEND
  0
POLYLINE
  8
LAYER1
  6
CONTINUOUS
 62
     5
 66
     1
 40
0.013
 41
0.013
  0
VERTEX
  8
LAYER1
 10
56.069
 20
1.3718
 30
0
 70
     0
  0
VERTEX
  8
LAYER1
 10
56.3858
 20
1.5203
 30
0
 70
     0
  0
SEQEND
  0
POLYLINE
  8
LAYER1
  6
CONTINUOUS
 62
     5
 66
     1
 40
0.013
 41
0.013
  0
VERTEX
  8
LAYER1
 10
56.3858
 20
1.5203
 30
0
 70
     0
  0
VERTEX
  8
LAYER1
 10
56.6928
 20
1.6787
 30
0
 70
     0
  0
SEQEND
  0
POLYLINE
  8
LAYER1
  6
CONTINUOUS
 62
     5
 66
     1
 40
0.013
 41
0.013
  0
VERTEX
  8
LAYER1
 10
56.6928
 20
1.6787
 30
0
 70
     0
  0
VERTEX
  8
LAYER1
 10
56.9997
 20
1.8569
 30
0
 70
     0
  0
SEQEND
  0
POLYLINE
  8
LAYER1
  6
CONTINUOUS
 62
     5
 66
     1
 40
0.013
 41
0.013
  0
VERTEX
  8
LAYER1
 10
56.9997
 20
1.8569
 30
0
 70
     0
  0
VERTEX
  8
LAYER1
 10
57.3066
 20
2.0252
 30
0
 70
     0
  0
SEQEND
  0
POLYLINE
  8
LAYER1
  6
CONTINUOUS
 62
     5
 66
     1
 40
0.013
 41
0.013
  0
VERTEX
  8
LAYER1
 10
57.3066
 20
2.0252
 30
0
 70
     0
  0
VERTEX
  8
LAYER1
 10
57.6037
 20
2.2134
 30
0
 70
     0
  0
SEQEND
  0
POLYLINE
  8
LAYER1
  6
CONTINUOUS
 62
     5
 66
     1
 40
0.013
 41
0.013
  0
VERTEX
  8
LAYER1
 10
57.6037
 20
2.2134
 30
0
 70
     0
  0
VERTEX
  8
LAYER1
 10
57.9007
 20
2.4015
 30
0
 70
     0
  0
SEQEND
  0
POLYLINE
  8
LAYER1
  6
CONTINUOUS
 62
     5
 66
     1
 40
0.013
 41
0.013
  0
VERTEX
  8
LAYER1
 10
57.9007
 20
2.4015
 30
0
 70
     0
  0
VERTEX
  8
LAYER1
 10
58.1977
 20
2.5995
 30
0
 70
     0
  0
SEQEND
  0
POLYLINE
  8
LAYER1
  6
CONTINUOUS
 62
     5
 66
     1
 40
0.013
 41
0.013
  0
VERTEX
  8
LAYER1
 10
58.1977
 20
2.5995
 30
0
 70
     0
  0
VERTEX
  8
LAYER1
 10
58.4849
 20
2.8074
 30
0
 70
     0
  0
SEQEND
  0
POLYLINE
  8
LAYER1
  6
CONTINUOUS
 62
     5
 66
     1
 40
0.013
 41
0.013
  0
VERTEX
  8
LAYER1
 10
58.4849
 20
2.8074
 30
0
 70
     0
  0
VERTEX
  8
LAYER1
 10
58.772
 20
3.0252
 30
0
 70
     0
  0
SEQEND
  0
POLYLINE
  8
LAYER1
  6
CONTINUOUS
 62
     5
 66
     1
 40
0.013
 41
0.013
  0
VERTEX
  8
LAYER1
 10
58.772
 20
3.0252
 30
0
 70
     0
  0
VERTEX
  8
LAYER1
 10
59.0492
 20
3.2431
 30
0
 70
     0
  0
SEQEND
  0
POLYLINE
  8
LAYER1
  6
CONTINUOUS
 62
     5
 66
     1
 40
0.013
 41
0.013
  0
VERTEX
  8
LAYER1
 10
59.0492
 20
3.2431
 30
0
 70
     0
  0
VERTEX
  8
LAYER1
 10
59.3166
 20
3.4708
 30
0
 70
     0
  0
SEQEND
  0
POLYLINE
  8
LAYER1
  6
CONTINUOUS
 62
     5
 66
     1
 40
0.013
 41
0.013
  0
VERTEX
  8
LAYER1
 10
59.3166
 20
3.4708
 30
0
 70
     0
  0
VERTEX
  8
LAYER1
 10
59.5938
 20
3.6985
 30
0
 70
     0
  0
SEQEND
  0
POLYLINE
  8
LAYER1
  6
CONTINUOUS
 62
     5
 66
     1
 40
0.013
 41
0.013
  0
VERTEX
  8
LAYER1
 10
59.5938
 20
3.6985
 30
0
 70
     0
  0
VERTEX
  8
LAYER1
 10
59.8512
 20
3.946
 30
0
 70
     0
  0
SEQEND
  0
POLYLINE
  8
LAYER1
  6
CONTINUOUS
 62
     5
 66
     1
 40
0.013
 41
0.013
  0
VERTEX
  8
LAYER1
 10
59.8512
 20
3.946
 30
0
 70
     0
  0
VERTEX
  8
LAYER1
 10
60.1086
 20
4.1837
 30
0
 70
     0
  0
SEQEND
  0
POLYLINE
  8
LAYER1
  6
CONTINUOUS
 62
     5
 66
     1
 40
0.013
 41
0.013
  0
VERTEX
  8
LAYER1
 10
60.1086
 20
4.1837
 30
0
 70
     0
  0
VERTEX
  8
LAYER1
 10
60.3661
 20
4.4411
 30
0
 70
     0
  0
SEQEND
  0
POLYLINE
  8
LAYER1
  6
CONTINUOUS
 62
     5
 66
     1
 40
0.013
 41
0.013
  0
VERTEX
  8
LAYER1
 10
60.3661
 20
4.4411
 30
0
 70
     0
  0
VERTEX
  8
LAYER1
 10
60.6136
 20
4.6985
 30
0
 70
     0
  0
SEQEND
  0
POLYLINE
  8
LAYER1
  6
CONTINUOUS
 62
     5
 66
     1
 40
0.013
 41
0.013
  0
VERTEX
  8
LAYER1
 10
60.6136
 20
4.6985
 30
0
 70
     0
  0
VERTEX
  8
LAYER1
 10
60.8512
 20
4.9658
 30
0
 70
     0
  0
SEQEND
  0
POLYLINE
  8
LAYER1
  6
CONTINUOUS
 62
     5
 66
     1
 40
0.013
 41
0.013
  0
VERTEX
  8
LAYER1
 10
60.8512
 20
4.9658
 30
0
 70
     0
  0
VERTEX
  8
LAYER1
 10
61.0888
 20
5.2332
 30
0
 70
     0
  0
SEQEND
  0
POLYLINE
  8
LAYER1
  6
CONTINUOUS
 62
     5
 66
     1
 40
0.013
 41
0.013
  0
VERTEX
  8
LAYER1
 10
61.0888
 20
5.2332
 30
0
 70
     0
  0
VERTEX
  8
LAYER1
 10
61.3265
 20
5.5104
 30
0
 70
     0
  0
SEQEND
  0
POLYLINE
  8
LAYER1
  6
CONTINUOUS
 62
     5
 66
     1
 40
0.013
 41
0.013
  0
VERTEX
  8
LAYER1
 10
61.3265
 20
5.5104
 30
0
 70
     0
  0
VERTEX
  8
LAYER1
 10
61.5443
 20
5.7975
 30
0
 70
     0
  0
SEQEND
  0
POLYLINE
  8
LAYER1
  6
CONTINUOUS
 62
     5
 66
     1
 40
0.013
 41
0.013
  0
VERTEX
  8
LAYER1
 10
61.5443
 20
5.7975
 30
0
 70
     0
  0
VERTEX
  8
LAYER1
 10
61.7621
 20
6.0847
 30
0
 70
     0
  0
SEQEND
  0
POLYLINE
  8
LAYER1
  6
CONTINUOUS
 62
     5
 66
     1
 40
0.013
 41
0.013
  0
VERTEX
  8
LAYER1
 10
61.7621
 20
6.0847
 30
0
 70
     0
  0
VERTEX
  8
LAYER1
 10
61.9799
 20
6.3718
 30
0
 70
     0
  0
SEQEND
  0
POLYLINE
  8
LAYER1
  6
CONTINUOUS
 62
     5
 66
     1
 40
0.013
 41
0.013
  0
VERTEX
  8
LAYER1
 10
61.9799
 20
6.3718
 30
0
 70
     0
  0
VERTEX
  8
LAYER1
 10
62.178
 20
6.6688
 30
0
 70
     0
  0
SEQEND
  0
POLYLINE
  8
LAYER1
  6
CONTINUOUS
 62
     5
 66
     1
 40
0.013
 41
0.013
  0
VERTEX
  8
LAYER1
 10
62.178
 20
6.6688
 30
0
 70
     0
  0
VERTEX
  8
LAYER1
 10
62.3859
 20
6.9758
 30
0
 70
     0
  0
SEQEND
  0
POLYLINE
  8
LAYER1
  6
CONTINUOUS
 62
     5
 66
     1
 40
0.013
 41
0.013
  0
VERTEX
  8
LAYER1
 10
62.3859
 20
6.9758
 30
0
 70
     0
  0
VERTEX
  8
LAYER1
 10
62.574
 20
7.2827
 30
0
 70
     0
  0
SEQEND
  0
POLYLINE
  8
LAYER1
  6
CONTINUOUS
 62
     5
 66
     1
 40
0.013
 41
0.013
  0
VERTEX
  8
LAYER1
 10
62.574
 20
7.2827
 30
0
 70
     0
  0
VERTEX
  8
LAYER1
 10
62.7621
 20
7.5995
 30
0
 70
     0
  0
SEQEND
  0
POLYLINE
  8
LAYER1
  6
CONTINUOUS
 62
     5
 66
     1
 40
0.013
 41
0.013
  0
VERTEX
  8
LAYER1
 10
62.7621
 20
7.5995
 30
0
 70
     0
  0
VERTEX
  8
LAYER1
 10
62.9403
 20
7.9164
 30
0
 70
     0
  0
SEQEND
  0
POLYLINE
  8
LAYER1
  6
CONTINUOUS
 62
     5
 66
     1
 40
0.013
 41
0.013
  0
VERTEX
  8
LAYER1
 10
62.9403
 20
7.9164
 30
0
 70
     0
  0
VERTEX
  8
LAYER1
 10
63.1087
 20
8.2332
 30
0
 70
     0
  0
SEQEND
  0
POLYLINE
  8
LAYER1
  6
CONTINUOUS
 62
     5
 66
     1
 40
0.013
 41
0.013
  0
VERTEX
  8
LAYER1
 10
63.1087
 20
8.2332
 30
0
 70
     0
  0
VERTEX
  8
LAYER1
 10
63.277
 20
8.5599
 30
0
 70
     0
  0
SEQEND
  0
POLYLINE
  8
LAYER1
  6
CONTINUOUS
 62
     5
 66
     1
 40
0.013
 41
0.013
  0
VERTEX
  8
LAYER1
 10
63.277
 20
8.5599
 30
0
 70
     0
  0
VERTEX
  8
LAYER1
 10
63.4354
 20
8.8966
 30
0
 70
     0
  0
SEQEND
  0
POLYLINE
  8
LAYER1
  6
CONTINUOUS
 62
     5
 66
     1
 40
0.013
 41
0.013
  0
VERTEX
  8
LAYER1
 10
63.4354
 20
8.8966
 30
0
 70
     0
  0
VERTEX
  8
LAYER1
 10
63.5839
 20
9.2233
 30
0
 70
     0
  0
SEQEND
  0
POLYLINE
  8
LAYER1
  6
CONTINUOUS
 62
     5
 66
     1
 40
0.013
 41
0.013
  0
VERTEX
  8
LAYER1
 10
63.5839
 20
9.2233
 30
0
 70
     0
  0
VERTEX
  8
LAYER1
 10
63.7324
 20
9.5599
 30
0
 70
     0
  0
SEQEND
  0
POLYLINE
  8
LAYER1
  6
CONTINUOUS
 62
     5
 66
     1
 40
0.013
 41
0.013
  0
VERTEX
  8
LAYER1
 10
63.7324
 20
9.5599
 30
0
 70
     0
  0
VERTEX
  8
LAYER1
 10
63.8611
 20
9.9065
 30
0
 70
     0
  0
SEQEND
  0
POLYLINE
  8
LAYER1
  6
CONTINUOUS
 62
     5
 66
     1
 40
0.013
 41
0.013
  0
VERTEX
  8
LAYER1
 10
63.8611
 20
9.9065
 30
0
 70
     0
  0
VERTEX
  8
LAYER1
 10
63.9898
 20
10.2431
 30
0
 70
     0
  0
SEQEND
  0
POLYLINE
  8
LAYER1
  6
CONTINUOUS
 62
     5
 66
     1
 40
0.013
 41
0.013
  0
VERTEX
  8
LAYER1
 10
63.9898
 20
10.2431
 30
0
 70
     0
  0
VERTEX
  8
LAYER1
 10
64.1186
 20
10.5896
 30
0
 70
     0
  0
SEQEND
  0
POLYLINE
  8
LAYER1
  6
CONTINUOUS
 62
     5
 66
     1
 40
0.013
 41
0.013
  0
VERTEX
  8
LAYER1
 10
64.1186
 20
10.5896
 30
0
 70
     0
  0
VERTEX
  8
LAYER1
 10
64.2275
 20
10.9461
 30
0
 70
     0
  0
SEQEND
  0
POLYLINE
  8
LAYER1
  6
CONTINUOUS
 62
     5
 66
     1
 40
0.013
 41
0.013
  0
VERTEX
  8
LAYER1
 10
64.2275
 20
10.9461
 30
0
 70
     0
  0
VERTEX
  8
LAYER1
 10
64.3364
 20
11.2926
 30
0
 70
     0
  0
SEQEND
  0
POLYLINE
  8
LAYER1
  6
CONTINUOUS
 62
     5
 66
     1
 40
0.013
 41
0.013
  0
VERTEX
  8
LAYER1
 10
64.3364
 20
11.2926
 30
0
 70
     0
  0
VERTEX
  8
LAYER1
 10
64.4354
 20
11.649
 30
0
 70
     0
  0
SEQEND
  0
POLYLINE
  8
LAYER1
  6
CONTINUOUS
 62
     5
 66
     1
 40
0.013
 41
0.013
  0
VERTEX
  8
LAYER1
 10
64.4354
 20
11.649
 30
0
 70
     0
  0
VERTEX
  8
LAYER1
 10
64.5245
 20
12.0055
 30
0
 70
     0
  0
SEQEND
  0
POLYLINE
  8
LAYER1
  6
CONTINUOUS
 62
     5
 66
     1
 40
0.013
 41
0.013
  0
VERTEX
  8
LAYER1
 10
64.5245
 20
12.0055
 30
0
 70
     0
  0
VERTEX
  8
LAYER1
 10
64.6037
 20
12.3718
 30
0
 70
     0
  0
SEQEND
  0
POLYLINE
  8
LAYER1
  6
CONTINUOUS
 62
     5
 66
     1
 40
0.013
 41
0.013
  0
VERTEX
  8
LAYER1
 10
64.6037
 20
12.3718
 30
0
 70
     0
  0
VERTEX
  8
LAYER1
 10
64.6829
 20
12.7283
 30
0
 70
     0
  0
SEQEND
  0
POLYLINE
  8
LAYER1
  6
CONTINUOUS
 62
     5
 66
     1
 40
0.013
 41
0.013
  0
VERTEX
  8
LAYER1
 10
64.6829
 20
12.7283
 30
0
 70
     0
  0
VERTEX
  8
LAYER1
 10
64.7522
 20
13.0946
 30
0
 70
     0
  0
SEQEND
  0
POLYLINE
  8
LAYER1
  6
CONTINUOUS
 62
     5
 66
     1
 40
0.013
 41
0.013
  0
VERTEX
  8
LAYER1
 10
64.7522
 20
13.0946
 30
0
 70
     0
  0
VERTEX
  8
LAYER1
 10
64.8116
 20
13.4609
 30
0
 70
     0
  0
SEQEND
  0
POLYLINE
  8
LAYER1
  6
CONTINUOUS
 62
     5
 66
     1
 40
0.013
 41
0.013
  0
VERTEX
  8
LAYER1
 10
64.8116
 20
13.4609
 30
0
 70
     0
  0
VERTEX
  8
LAYER1
 10
64.8611
 20
13.8273
 30
0
 70
     0
  0
SEQEND
  0
POLYLINE
  8
LAYER1
  6
CONTINUOUS
 62
     5
 66
     1
 40
0.013
 41
0.013
  0
VERTEX
  8
LAYER1
 10
64.8611
 20
13.8273
 30
0
 70
     0
  0
VERTEX
  8
LAYER1
 10
64.9106
 20
14.1936
 30
0
 70
     0
  0
SEQEND
  0
POLYLINE
  8
LAYER1
  6
CONTINUOUS
 62
     5
 66
     1
 40
0.013
 41
0.013
  0
VERTEX
  8
LAYER1
 10
64.9106
 20
14.1936
 30
0
 70
     0
  0
VERTEX
  8
LAYER1
 10
64.9403
 20
14.56
 30
0
 70
     0
  0
SEQEND
  0
POLYLINE
  8
LAYER1
  6
CONTINUOUS
 62
     5
 66
     1
 40
0.013
 41
0.013
  0
VERTEX
  8
LAYER1
 10
64.9403
 20
14.56
 30
0
 70
     0
  0
VERTEX
  8
LAYER1
 10
64.97
 20
14.9263
 30
0
 70
     0
  0
SEQEND
  0
POLYLINE
  8
LAYER1
  6
CONTINUOUS
 62
     5
 66
     1
 40
0.013
 41
0.013
  0
VERTEX
  8
LAYER1
 10
64.97
 20
14.9263
 30
0
 70
     0
  0
VERTEX
  8
LAYER1
 10
64.9898
 20
15.3025
 30
0
 70
     0
  0
SEQEND
  0
POLYLINE
  8
LAYER1
  6
CONTINUOUS
 62
     5
 66
     1
 40
0.013
 41
0.013
  0
VERTEX
  8
LAYER1
 10
64.9898
 20
15.3025
 30
0
 70
     0
  0
VERTEX
  8
LAYER1
 10
64.9997
 20
15.6689
 30
0
 70
     0
  0
SEQEND
  0
POLYLINE
  8
LAYER1
  6
CONTINUOUS
 62
     5
 66
     1
 40
0.013
 41
0.013
  0
VERTEX
  8
LAYER1
 10
64.9997
 20
15.6689
 30
0
 70
     0
  0
VERTEX
  8
LAYER1
 10
65.0097
 20
16.0451
 30
0
 70
     0
  0
SEQEND
  0
POLYLINE
  8
LAYER1
  6
CONTINUOUS
 62
     5
 66
     1
 40
0.013
 41
0.013
  0
VERTEX
  8
LAYER1
 10
23.0094
 20
6.8965
 30
0
 70
     0
  0
VERTEX
  8
LAYER1
 10
23.0094
 20
62.8671
 30
0
 70
     0
  0
SEQEND
  0
POLYLINE
  8
LAYER1
  6
CONTINUOUS
 62
     5
 66
     1
 40
0.013
 41
0.013
  0
VERTEX
  8
LAYER1
 10
54.0096
 20
6.8965
 30
0
 70
     0
  0
VERTEX
  8
LAYER1
 10
54.0096
 20
62.8671
 30
0
 70
     0
  0
SEQEND
  0
POLYLINE
  8
LAYER1
  6
CONTINUOUS
 62
     5
 66
     1
 40
0.013
 41
0.013
  0
VERTEX
  8
LAYER1
 10
49.0096
 20
1.55
 30
0
 70
     0
  0
VERTEX
  8
LAYER1
 10
28.0095
 20
1.55
 30
0
 70
     0
  0
SEQEND
  0
POLYLINE
  8
LAYER1
  6
CONTINUOUS
 62
     5
 66
     1
 40
0.013
 41
0.013
  0
VERTEX
  8
LAYER1
 10
49.0096
 20
1.55
 30
0
 70
     0
  0
VERTEX
  8
LAYER1
 10
49.2076
 20
1.55
 30
0
 70
     0
  0
SEQEND
  0
POLYLINE
  8
LAYER1
  6
CONTINUOUS
 62
     5
 66
     1
 40
0.013
 41
0.013
  0
VERTEX
  8
LAYER1
 10
49.2076
 20
1.55
 30
0
 70
     0
  0
VERTEX
  8
LAYER1
 10
49.4056
 20
1.5698
 30
0
 70
     0
  0
SEQEND
  0
POLYLINE
  8
LAYER1
  6
CONTINUOUS
 62
     5
 66
     1
 40
0.013
 41
0.013
  0
VERTEX
  8
LAYER1
 10
49.4056
 20
1.5698
 30
0
 70
     0
  0
VERTEX
  8
LAYER1
 10
49.6135
 20
1.5896
 30
0
 70
     0
  0
SEQEND
  0
POLYLINE
  8
LAYER1
  6
CONTINUOUS
 62
     5
 66
     1
 40
0.013
 41
0.013
  0
VERTEX
  8
LAYER1
 10
49.6135
 20
1.5896
 30
0
 70
     0
  0
VERTEX
  8
LAYER1
 10
49.8116
 20
1.6193
 30
0
 70
     0
  0
SEQEND
  0
POLYLINE
  8
LAYER1
  6
CONTINUOUS
 62
     5
 66
     1
 40
0.013
 41
0.013
  0
VERTEX
  8
LAYER1
 10
49.8116
 20
1.6193
 30
0
 70
     0
  0
VERTEX
  8
LAYER1
 10
50.0096
 20
1.6589
 30
0
 70
     0
  0
SEQEND
  0
POLYLINE
  8
LAYER1
  6
CONTINUOUS
 62
     5
 66
     1
 40
0.013
 41
0.013
  0
VERTEX
  8
LAYER1
 10
50.0096
 20
1.6589
 30
0
 70
     0
  0
VERTEX
  8
LAYER1
 10
50.2076
 20
1.7084
 30
0
 70
     0
  0
SEQEND
  0
POLYLINE
  8
LAYER1
  6
CONTINUOUS
 62
     5
 66
     1
 40
0.013
 41
0.013
  0
VERTEX
  8
LAYER1
 10
50.2076
 20
1.7084
 30
0
 70
     0
  0
VERTEX
  8
LAYER1
 10
50.3957
 20
1.7579
 30
0
 70
     0
  0
SEQEND
  0
POLYLINE
  8
LAYER1
  6
CONTINUOUS
 62
     5
 66
     1
 40
0.013
 41
0.013
  0
VERTEX
  8
LAYER1
 10
50.3957
 20
1.7579
 30
0
 70
     0
  0
VERTEX
  8
LAYER1
 10
50.5937
 20
1.8272
 30
0
 70
     0
  0
SEQEND
  0
POLYLINE
  8
LAYER1
  6
CONTINUOUS
 62
     5
 66
     1
 40
0.013
 41
0.013
  0
VERTEX
  8
LAYER1
 10
50.5937
 20
1.8272
 30
0
 70
     0
  0
VERTEX
  8
LAYER1
 10
50.7819
 20
1.8965
 30
0
 70
     0
  0
SEQEND
  0
POLYLINE
  8
LAYER1
  6
CONTINUOUS
 62
     5
 66
     1
 40
0.013
 41
0.013
  0
VERTEX
  8
LAYER1
 10
50.7819
 20
1.8965
 30
0
 70
     0
  0
VERTEX
  8
LAYER1
 10
50.97
 20
1.9757
 30
0
 70
     0
  0
SEQEND
  0
POLYLINE
  8
LAYER1
  6
CONTINUOUS
 62
     5
 66
     1
 40
0.013
 41
0.013
  0
VERTEX
  8
LAYER1
 10
50.97
 20
1.9757
 30
0
 70
     0
  0
VERTEX
  8
LAYER1
 10
51.1482
 20
2.0648
 30
0
 70
     0
  0
SEQEND
  0
POLYLINE
  8
LAYER1
  6
CONTINUOUS
 62
     5
 66
     1
 40
0.013
 41
0.013
  0
VERTEX
  8
LAYER1
 10
51.1482
 20
2.0648
 30
0
 70
     0
  0
VERTEX
  8
LAYER1
 10
51.3264
 20
2.1638
 30
0
 70
     0
  0
SEQEND
  0
POLYLINE
  8
LAYER1
  6
CONTINUOUS
 62
     5
 66
     1
 40
0.013
 41
0.013
  0
VERTEX
  8
LAYER1
 10
51.3264
 20
2.1638
 30
0
 70
     0
  0
VERTEX
  8
LAYER1
 10
51.5046
 20
2.2629
 30
0
 70
     0
  0
SEQEND
  0
POLYLINE
  8
LAYER1
  6
CONTINUOUS
 62
     5
 66
     1
 40
0.013
 41
0.013
  0
VERTEX
  8
LAYER1
 10
51.5046
 20
2.2629
 30
0
 70
     0
  0
VERTEX
  8
LAYER1
 10
51.6828
 20
2.3817
 30
0
 70
     0
  0
SEQEND
  0
POLYLINE
  8
LAYER1
  6
CONTINUOUS
 62
     5
 66
     1
 40
0.013
 41
0.013
  0
VERTEX
  8
LAYER1
 10
51.6828
 20
2.3817
 30
0
 70
     0
  0
VERTEX
  8
LAYER1
 10
51.8512
 20
2.5005
 30
0
 70
     0
  0
SEQEND
  0
POLYLINE
  8
LAYER1
  6
CONTINUOUS
 62
     5
 66
     1
 40
0.013
 41
0.013
  0
VERTEX
  8
LAYER1
 10
51.8512
 20
2.5005
 30
0
 70
     0
  0
VERTEX
  8
LAYER1
 10
52.0096
 20
2.6193
 30
0
 70
     0
  0
SEQEND
  0
POLYLINE
  8
LAYER1
  6
CONTINUOUS
 62
     5
 66
     1
 40
0.013
 41
0.013
  0
VERTEX
  8
LAYER1
 10
52.0096
 20
2.6193
 30
0
 70
     0
  0
VERTEX
  8
LAYER1
 10
52.168
 20
2.7579
 30
0
 70
     0
  0
SEQEND
  0
POLYLINE
  8
LAYER1
  6
CONTINUOUS
 62
     5
 66
     1
 40
0.013
 41
0.013
  0
VERTEX
  8
LAYER1
 10
52.168
 20
2.7579
 30
0
 70
     0
  0
VERTEX
  8
LAYER1
 10
52.3264
 20
2.8965
 30
0
 70
     0
  0
SEQEND
  0
POLYLINE
  8
LAYER1
  6
CONTINUOUS
 62
     5
 66
     1
 40
0.013
 41
0.013
  0
VERTEX
  8
LAYER1
 10
52.3264
 20
2.8965
 30
0
 70
     0
  0
VERTEX
  8
LAYER1
 10
52.4749
 20
3.045
 30
0
 70
     0
  0
SEQEND
  0
POLYLINE
  8
LAYER1
  6
CONTINUOUS
 62
     5
 66
     1
 40
0.013
 41
0.013
  0
VERTEX
  8
LAYER1
 10
52.4749
 20
3.045
 30
0
 70
     0
  0
VERTEX
  8
LAYER1
 10
52.6135
 20
3.1936
 30
0
 70
     0
  0
SEQEND
  0
POLYLINE
  8
LAYER1
  6
CONTINUOUS
 62
     5
 66
     1
 40
0.013
 41
0.013
  0
VERTEX
  8
LAYER1
 10
52.6135
 20
3.1936
 30
0
 70
     0
  0
VERTEX
  8
LAYER1
 10
52.7522
 20
3.352
 30
0
 70
     0
  0
SEQEND
  0
POLYLINE
  8
LAYER1
  6
CONTINUOUS
 62
     5
 66
     1
 40
0.013
 41
0.013
  0
VERTEX
  8
LAYER1
 10
52.7522
 20
3.352
 30
0
 70
     0
  0
VERTEX
  8
LAYER1
 10
52.8809
 20
3.5104
 30
0
 70
     0
  0
SEQEND
  0
POLYLINE
  8
LAYER1
  6
CONTINUOUS
 62
     5
 66
     1
 40
0.013
 41
0.013
  0
VERTEX
  8
LAYER1
 10
52.8809
 20
3.5104
 30
0
 70
     0
  0
VERTEX
  8
LAYER1
 10
52.9997
 20
3.6886
 30
0
 70
     0
  0
SEQEND
  0
POLYLINE
  8
LAYER1
  6
CONTINUOUS
 62
     5
 66
     1
 40
0.013
 41
0.013
  0
VERTEX
  8
LAYER1
 10
52.9997
 20
3.6886
 30
0
 70
     0
  0
VERTEX
  8
LAYER1
 10
53.1185
 20
3.8569
 30
0
 70
     0
  0
SEQEND
  0
POLYLINE
  8
LAYER1
  6
CONTINUOUS
 62
     5
 66
     1
 40
0.013
 41
0.013
  0
VERTEX
  8
LAYER1
 10
53.1185
 20
3.8569
 30
0
 70
     0
  0
VERTEX
  8
LAYER1
 10
53.2373
 20
4.0351
 30
0
 70
     0
  0
SEQEND
  0
POLYLINE
  8
LAYER1
  6
CONTINUOUS
 62
     5
 66
     1
 40
0.013
 41
0.013
  0
VERTEX
  8
LAYER1
 10
53.2373
 20
4.0351
 30
0
 70
     0
  0
VERTEX
  8
LAYER1
 10
53.3363
 20
4.2233
 30
0
 70
     0
  0
SEQEND
  0
POLYLINE
  8
LAYER1
  6
CONTINUOUS
 62
     5
 66
     1
 40
0.013
 41
0.013
  0
VERTEX
  8
LAYER1
 10
53.3363
 20
4.2233
 30
0
 70
     0
  0
VERTEX
  8
LAYER1
 10
53.4353
 20
4.4114
 30
0
 70
     0
  0
SEQEND
  0
POLYLINE
  8
LAYER1
  6
CONTINUOUS
 62
     5
 66
     1
 40
0.013
 41
0.013
  0
VERTEX
  8
LAYER1
 10
53.4353
 20
4.4114
 30
0
 70
     0
  0
VERTEX
  8
LAYER1
 10
53.5244
 20
4.5995
 30
0
 70
     0
  0
SEQEND
  0
POLYLINE
  8
LAYER1
  6
CONTINUOUS
 62
     5
 66
     1
 40
0.013
 41
0.013
  0
VERTEX
  8
LAYER1
 10
53.5244
 20
4.5995
 30
0
 70
     0
  0
VERTEX
  8
LAYER1
 10
53.6037
 20
4.7975
 30
0
 70
     0
  0
SEQEND
  0
POLYLINE
  8
LAYER1
  6
CONTINUOUS
 62
     5
 66
     1
 40
0.013
 41
0.013
  0
VERTEX
  8
LAYER1
 10
53.6037
 20
4.7975
 30
0
 70
     0
  0
VERTEX
  8
LAYER1
 10
53.6829
 20
4.9955
 30
0
 70
     0
  0
SEQEND
  0
POLYLINE
  8
LAYER1
  6
CONTINUOUS
 62
     5
 66
     1
 40
0.013
 41
0.013
  0
VERTEX
  8
LAYER1
 10
53.6829
 20
4.9955
 30
0
 70
     0
  0
VERTEX
  8
LAYER1
 10
53.7522
 20
5.2035
 30
0
 70
     0
  0
SEQEND
  0
POLYLINE
  8
LAYER1
  6
CONTINUOUS
 62
     5
 66
     1
 40
0.013
 41
0.013
  0
VERTEX
  8
LAYER1
 10
53.7522
 20
5.2035
 30
0
 70
     0
  0
VERTEX
  8
LAYER1
 10
53.8116
 20
5.4114
 30
0
 70
     0
  0
SEQEND
  0
POLYLINE
  8
LAYER1
  6
CONTINUOUS
 62
     5
 66
     1
 40
0.013
 41
0.013
  0
VERTEX
  8
LAYER1
 10
53.8116
 20
5.4114
 30
0
 70
     0
  0
VERTEX
  8
LAYER1
 10
53.8611
 20
5.6193
 30
0
 70
     0
  0
SEQEND
  0
POLYLINE
  8
LAYER1
  6
CONTINUOUS
 62
     5
 66
     1
 40
0.013
 41
0.013
  0
VERTEX
  8
LAYER1
 10
53.8611
 20
5.6193
 30
0
 70
     0
  0
VERTEX
  8
LAYER1
 10
53.9106
 20
5.8272
 30
0
 70
     0
  0
SEQEND
  0
POLYLINE
  8
LAYER1
  6
CONTINUOUS
 62
     5
 66
     1
 40
0.013
 41
0.013
  0
VERTEX
  8
LAYER1
 10
53.9106
 20
5.8272
 30
0
 70
     0
  0
VERTEX
  8
LAYER1
 10
53.9403
 20
6.0352
 30
0
 70
     0
  0
SEQEND
  0
POLYLINE
  8
LAYER1
  6
CONTINUOUS
 62
     5
 66
     1
 40
0.013
 41
0.013
  0
VERTEX
  8
LAYER1
 10
53.9403
 20
6.0352
 30
0
 70
     0
  0
VERTEX
  8
LAYER1
 10
53.97
 20
6.253
 30
0
 70
     0
  0
SEQEND
  0
POLYLINE
  8
LAYER1
  6
CONTINUOUS
 62
     5
 66
     1
 40
0.013
 41
0.013
  0
VERTEX
  8
LAYER1
 10
53.97
 20
6.253
 30
0
 70
     0
  0
VERTEX
  8
LAYER1
 10
53.9898
 20
6.4708
 30
0
 70
     0
  0
SEQEND
  0
POLYLINE
  8
LAYER1
  6
CONTINUOUS
 62
     5
 66
     1
 40
0.013
 41
0.013
  0
VERTEX
  8
LAYER1
 10
53.9898
 20
6.4708
 30
0
 70
     0
  0
VERTEX
  8
LAYER1
 10
53.9997
 20
6.6787
 30
0
 70
     0
  0
SEQEND
  0
POLYLINE
  8
LAYER1
  6
CONTINUOUS
 62
     5
 66
     1
 40
0.013
 41
0.013
  0
VERTEX
  8
LAYER1
 10
53.9997
 20
6.6787
 30
0
 70
     0
  0
VERTEX
  8
LAYER1
 10
54.0096
 20
6.8965
 30
0
 70
     0
  0
SEQEND
  0
POLYLINE
  8
LAYER1
  6
CONTINUOUS
 62
     5
 66
     1
 40
0.013
 41
0.013
  0
VERTEX
  8
LAYER1
 10
23.0094
 20
6.8965
 30
0
 70
     0
  0
VERTEX
  8
LAYER1
 10
23.0094
 20
6.6787
 30
0
 70
     0
  0
SEQEND
  0
POLYLINE
  8
LAYER1
  6
CONTINUOUS
 62
     5
 66
     1
 40
0.013
 41
0.013
  0
VERTEX
  8
LAYER1
 10
23.0094
 20
6.6787
 30
0
 70
     0
  0
VERTEX
  8
LAYER1
 10
23.0193
 20
6.4708
 30
0
 70
     0
  0
SEQEND
  0
POLYLINE
  8
LAYER1
  6
CONTINUOUS
 62
     5
 66
     1
 40
0.013
 41
0.013
  0
VERTEX
  8
LAYER1
 10
23.0193
 20
6.4708
 30
0
 70
     0
  0
VERTEX
  8
LAYER1
 10
23.049
 20
6.253
 30
0
 70
     0
  0
SEQEND
  0
POLYLINE
  8
LAYER1
  6
CONTINUOUS
 62
     5
 66
     1
 40
0.013
 41
0.013
  0
VERTEX
  8
LAYER1
 10
23.049
 20
6.253
 30
0
 70
     0
  0
VERTEX
  8
LAYER1
 10
23.0688
 20
6.0352
 30
0
 70
     0
  0
SEQEND
  0
POLYLINE
  8
LAYER1
  6
CONTINUOUS
 62
     5
 66
     1
 40
0.013
 41
0.013
  0
VERTEX
  8
LAYER1
 10
23.0688
 20
6.0352
 30
0
 70
     0
  0
VERTEX
  8
LAYER1
 10
23.1084
 20
5.8272
 30
0
 70
     0
  0
SEQEND
  0
POLYLINE
  8
LAYER1
  6
CONTINUOUS
 62
     5
 66
     1
 40
0.013
 41
0.013
  0
VERTEX
  8
LAYER1
 10
23.1084
 20
5.8272
 30
0
 70
     0
  0
VERTEX
  8
LAYER1
 10
23.1579
 20
5.6193
 30
0
 70
     0
  0
SEQEND
  0
POLYLINE
  8
LAYER1
  6
CONTINUOUS
 62
     5
 66
     1
 40
0.013
 41
0.013
  0
VERTEX
  8
LAYER1
 10
23.1579
 20
5.6193
 30
0
 70
     0
  0
VERTEX
  8
LAYER1
 10
23.2075
 20
5.4114
 30
0
 70
     0
  0
SEQEND
  0
POLYLINE
  8
LAYER1
  6
CONTINUOUS
 62
     5
 66
     1
 40
0.013
 41
0.013
  0
VERTEX
  8
LAYER1
 10
23.2075
 20
5.4114
 30
0
 70
     0
  0
VERTEX
  8
LAYER1
 10
23.2669
 20
5.2035
 30
0
 70
     0
  0
SEQEND
  0
POLYLINE
  8
LAYER1
  6
CONTINUOUS
 62
     5
 66
     1
 40
0.013
 41
0.013
  0
VERTEX
  8
LAYER1
 10
23.2669
 20
5.2035
 30
0
 70
     0
  0
VERTEX
  8
LAYER1
 10
23.3362
 20
4.9955
 30
0
 70
     0
  0
SEQEND
  0
POLYLINE
  8
LAYER1
  6
CONTINUOUS
 62
     5
 66
     1
 40
0.013
 41
0.013
  0
VERTEX
  8
LAYER1
 10
23.3362
 20
4.9955
 30
0
 70
     0
  0
VERTEX
  8
LAYER1
 10
23.4055
 20
4.7975
 30
0
 70
     0
  0
SEQEND
  0
POLYLINE
  8
LAYER1
  6
CONTINUOUS
 62
     5
 66
     1
 40
0.013
 41
0.013
  0
VERTEX
  8
LAYER1
 10
23.4055
 20
4.7975
 30
0
 70
     0
  0
VERTEX
  8
LAYER1
 10
23.4946
 20
4.5995
 30
0
 70
     0
  0
SEQEND
  0
POLYLINE
  8
LAYER1
  6
CONTINUOUS
 62
     5
 66
     1
 40
0.013
 41
0.013
  0
VERTEX
  8
LAYER1
 10
23.4946
 20
4.5995
 30
0
 70
     0
  0
VERTEX
  8
LAYER1
 10
23.5837
 20
4.4114
 30
0
 70
     0
  0
SEQEND
  0
POLYLINE
  8
LAYER1
  6
CONTINUOUS
 62
     5
 66
     1
 40
0.013
 41
0.013
  0
VERTEX
  8
LAYER1
 10
23.5837
 20
4.4114
 30
0
 70
     0
  0
VERTEX
  8
LAYER1
 10
23.6728
 20
4.2233
 30
0
 70
     0
  0
SEQEND
  0
POLYLINE
  8
LAYER1
  6
CONTINUOUS
 62
     5
 66
     1
 40
0.013
 41
0.013
  0
VERTEX
  8
LAYER1
 10
23.6728
 20
4.2233
 30
0
 70
     0
  0
VERTEX
  8
LAYER1
 10
23.7817
 20
4.0351
 30
0
 70
     0
  0
SEQEND
  0
POLYLINE
  8
LAYER1
  6
CONTINUOUS
 62
     5
 66
     1
 40
0.013
 41
0.013
  0
VERTEX
  8
LAYER1
 10
23.7817
 20
4.0351
 30
0
 70
     0
  0
VERTEX
  8
LAYER1
 10
23.8906
 20
3.8569
 30
0
 70
     0
  0
SEQEND
  0
POLYLINE
  8
LAYER1
  6
CONTINUOUS
 62
     5
 66
     1
 40
0.013
 41
0.013
  0
VERTEX
  8
LAYER1
 10
23.8906
 20
3.8569
 30
0
 70
     0
  0
VERTEX
  8
LAYER1
 10
24.0094
 20
3.6886
 30
0
 70
     0
  0
SEQEND
  0
POLYLINE
  8
LAYER1
  6
CONTINUOUS
 62
     5
 66
     1
 40
0.013
 41
0.013
  0
VERTEX
  8
LAYER1
 10
24.0094
 20
3.6886
 30
0
 70
     0
  0
VERTEX
  8
LAYER1
 10
24.1382
 20
3.5104
 30
0
 70
     0
  0
SEQEND
  0
POLYLINE
  8
LAYER1
  6
CONTINUOUS
 62
     5
 66
     1
 40
0.013
 41
0.013
  0
VERTEX
  8
LAYER1
 10
24.1382
 20
3.5104
 30
0
 70
     0
  0
VERTEX
  8
LAYER1
 10
24.2669
 20
3.352
 30
0
 70
     0
  0
SEQEND
  0
POLYLINE
  8
LAYER1
  6
CONTINUOUS
 62
     5
 66
     1
 40
0.013
 41
0.013
  0
VERTEX
  8
LAYER1
 10
24.2669
 20
3.352
 30
0
 70
     0
  0
VERTEX
  8
LAYER1
 10
24.4055
 20
3.1936
 30
0
 70
     0
  0
SEQEND
  0
POLYLINE
  8
LAYER1
  6
CONTINUOUS
 62
     5
 66
     1
 40
0.013
 41
0.013
  0
VERTEX
  8
LAYER1
 10
24.4055
 20
3.1936
 30
0
 70
     0
  0
VERTEX
  8
LAYER1
 10
24.5441
 20
3.045
 30
0
 70
     0
  0
SEQEND
  0
POLYLINE
  8
LAYER1
  6
CONTINUOUS
 62
     5
 66
     1
 40
0.013
 41
0.013
  0
VERTEX
  8
LAYER1
 10
24.5441
 20
3.045
 30
0
 70
     0
  0
VERTEX
  8
LAYER1
 10
24.6926
 20
2.8965
 30
0
 70
     0
  0
SEQEND
  0
POLYLINE
  8
LAYER1
  6
CONTINUOUS
 62
     5
 66
     1
 40
0.013
 41
0.013
  0
VERTEX
  8
LAYER1
 10
24.6926
 20
2.8965
 30
0
 70
     0
  0
VERTEX
  8
LAYER1
 10
24.8411
 20
2.7579
 30
0
 70
     0
  0
SEQEND
  0
POLYLINE
  8
LAYER1
  6
CONTINUOUS
 62
     5
 66
     1
 40
0.013
 41
0.013
  0
VERTEX
  8
LAYER1
 10
24.8411
 20
2.7579
 30
0
 70
     0
  0
VERTEX
  8
LAYER1
 10
24.9995
 20
2.6193
 30
0
 70
     0
  0
SEQEND
  0
POLYLINE
  8
LAYER1
  6
CONTINUOUS
 62
     5
 66
     1
 40
0.013
 41
0.013
  0
VERTEX
  8
LAYER1
 10
24.9995
 20
2.6193
 30
0
 70
     0
  0
VERTEX
  8
LAYER1
 10
25.1679
 20
2.5005
 30
0
 70
     0
  0
SEQEND
  0
POLYLINE
  8
LAYER1
  6
CONTINUOUS
 62
     5
 66
     1
 40
0.013
 41
0.013
  0
VERTEX
  8
LAYER1
 10
25.1679
 20
2.5005
 30
0
 70
     0
  0
VERTEX
  8
LAYER1
 10
25.3362
 20
2.3817
 30
0
 70
     0
  0
SEQEND
  0
POLYLINE
  8
LAYER1
  6
CONTINUOUS
 62
     5
 66
     1
 40
0.013
 41
0.013
  0
VERTEX
  8
LAYER1
 10
25.3362
 20
2.3817
 30
0
 70
     0
  0
VERTEX
  8
LAYER1
 10
25.5045
 20
2.2629
 30
0
 70
     0
  0
SEQEND
  0
POLYLINE
  8
LAYER1
  6
CONTINUOUS
 62
     5
 66
     1
 40
0.013
 41
0.013
  0
VERTEX
  8
LAYER1
 10
25.5045
 20
2.2629
 30
0
 70
     0
  0
VERTEX
  8
LAYER1
 10
25.6827
 20
2.1638
 30
0
 70
     0
  0
SEQEND
  0
POLYLINE
  8
LAYER1
  6
CONTINUOUS
 62
     5
 66
     1
 40
0.013
 41
0.013
  0
VERTEX
  8
LAYER1
 10
25.6827
 20
2.1638
 30
0
 70
     0
  0
VERTEX
  8
LAYER1
 10
25.8609
 20
2.0648
 30
0
 70
     0
  0
SEQEND
  0
POLYLINE
  8
LAYER1
  6
CONTINUOUS
 62
     5
 66
     1
 40
0.013
 41
0.013
  0
VERTEX
  8
LAYER1
 10
25.8609
 20
2.0648
 30
0
 70
     0
  0
VERTEX
  8
LAYER1
 10
26.0491
 20
1.9757
 30
0
 70
     0
  0
SEQEND
  0
POLYLINE
  8
LAYER1
  6
CONTINUOUS
 62
     5
 66
     1
 40
0.013
 41
0.013
  0
VERTEX
  8
LAYER1
 10
26.0491
 20
1.9757
 30
0
 70
     0
  0
VERTEX
  8
LAYER1
 10
26.2372
 20
1.8965
 30
0
 70
     0
  0
SEQEND
  0
POLYLINE
  8
LAYER1
  6
CONTINUOUS
 62
     5
 66
     1
 40
0.013
 41
0.013
  0
VERTEX
  8
LAYER1
 10
26.2372
 20
1.8965
 30
0
 70
     0
  0
VERTEX
  8
LAYER1
 10
26.4253
 20
1.8272
 30
0
 70
     0
  0
SEQEND
  0
POLYLINE
  8
LAYER1
  6
CONTINUOUS
 62
     5
 66
     1
 40
0.013
 41
0.013
  0
VERTEX
  8
LAYER1
 10
26.4253
 20
1.8272
 30
0
 70
     0
  0
VERTEX
  8
LAYER1
 10
26.6134
 20
1.7579
 30
0
 70
     0
  0
SEQEND
  0
POLYLINE
  8
LAYER1
  6
CONTINUOUS
 62
     5
 66
     1
 40
0.013
 41
0.013
  0
VERTEX
  8
LAYER1
 10
26.6134
 20
1.7579
 30
0
 70
     0
  0
VERTEX
  8
LAYER1
 10
26.8114
 20
1.7084
 30
0
 70
     0
  0
SEQEND
  0
POLYLINE
  8
LAYER1
  6
CONTINUOUS
 62
     5
 66
     1
 40
0.013
 41
0.013
  0
VERTEX
  8
LAYER1
 10
26.8114
 20
1.7084
 30
0
 70
     0
  0
VERTEX
  8
LAYER1
 10
27.0095
 20
1.6589
 30
0
 70
     0
  0
SEQEND
  0
POLYLINE
  8
LAYER1
  6
CONTINUOUS
 62
     5
 66
     1
 40
0.013
 41
0.013
  0
VERTEX
  8
LAYER1
 10
27.0095
 20
1.6589
 30
0
 70
     0
  0
VERTEX
  8
LAYER1
 10
27.2075
 20
1.6193
 30
0
 70
     0
  0
SEQEND
  0
POLYLINE
  8
LAYER1
  6
CONTINUOUS
 62
     5
 66
     1
 40
0.013
 41
0.013
  0
VERTEX
  8
LAYER1
 10
27.2075
 20
1.6193
 30
0
 70
     0
  0
VERTEX
  8
LAYER1
 10
27.4055
 20
1.5896
 30
0
 70
     0
  0
SEQEND
  0
POLYLINE
  8
LAYER1
  6
CONTINUOUS
 62
     5
 66
     1
 40
0.013
 41
0.013
  0
VERTEX
  8
LAYER1
 10
27.4055
 20
1.5896
 30
0
 70
     0
  0
VERTEX
  8
LAYER1
 10
27.6035
 20
1.5698
 30
0
 70
     0
  0
SEQEND
  0
POLYLINE
  8
LAYER1
  6
CONTINUOUS
 62
     5
 66
     1
 40
0.013
 41
0.013
  0
VERTEX
  8
LAYER1
 10
27.6035
 20
1.5698
 30
0
 70
     0
  0
VERTEX
  8
LAYER1
 10
27.8015
 20
1.55
 30
0
 70
     0
  0
SEQEND
  0
POLYLINE
  8
LAYER1
  6
CONTINUOUS
 62
     5
 66
     1
 40
0.013
 41
0.013
  0
VERTEX
  8
LAYER1
 10
27.8015
 20
1.55
 30
0
 70
     0
  0
VERTEX
  8
LAYER1
 10
28.0095
 20
1.55
 30
0
 70
     0
  0
SEQEND
  0
POLYLINE
  8
LAYER1
  6
CONTINUOUS
 62
     5
 66
     1
 40
0.013
 41
0.013
  0
VERTEX
  8
LAYER1
 10
60.4255
 20
62.8671
 30
0
 70
     0
  0
VERTEX
  8
LAYER1
 10
13.3163
 20
62.8671
 30
0
 70
     0
  0
SEQEND
  0
POLYLINE
  8
LAYER1
  6
CONTINUOUS
 62
     5
 66
     1
 40
0.013
 41
0.013
  0
VERTEX
  8
LAYER1
 10
51.0096
 20
40.1244
 30
0
 70
     0
  0
VERTEX
  8
LAYER1
 10
26.0094
 20
40.1244
 30
0
 70
     0
  0
SEQEND
  0
POLYLINE
  8
LAYER1
  6
CONTINUOUS
 62
     5
 66
     1
 40
0.013
 41
0.013
  0
VERTEX
  8
LAYER1
 10
24.5045
 20
41.7284
 30
0
 70
     0
  0
VERTEX
  8
LAYER1
 10
24.5045
 20
59.6592
 30
0
 70
     0
  0
SEQEND
  0
POLYLINE
  8
LAYER1
  6
CONTINUOUS
 62
     5
 66
     1
 40
0.013
 41
0.013
  0
VERTEX
  8
LAYER1
 10
52.5046
 20
41.7284
 30
0
 70
     0
  0
VERTEX
  8
LAYER1
 10
52.5046
 20
59.6592
 30
0
 70
     0
  0
SEQEND
  0
POLYLINE
  8
LAYER1
  6
CONTINUOUS
 62
     5
 66
     1
 40
0.013
 41
0.013
  0
VERTEX
  8
LAYER1
 10
51.0096
 20
61.2632
 30
0
 70
     0
  0
VERTEX
  8
LAYER1
 10
26.0094
 20
61.2632
 30
0
 70
     0
  0
SEQEND
  0
POLYLINE
  8
LAYER1
  6
CONTINUOUS
 62
     5
 66
     1
 40
0.013
 41
0.013
  0
VERTEX
  8
LAYER1
 10
51.0096
 20
40.1244
 30
0
 70
     0
  0
VERTEX
  8
LAYER1
 10
51.1185
 20
40.1343
 30
0
 70
     0
  0
SEQEND
  0
POLYLINE
  8
LAYER1
  6
CONTINUOUS
 62
     5
 66
     1
 40
0.013
 41
0.013
  0
VERTEX
  8
LAYER1
 10
51.1185
 20
40.1343
 30
0
 70
     0
  0
VERTEX
  8
LAYER1
 10
51.2274
 20
40.1442
 30
0
 70
     0
  0
SEQEND
  0
POLYLINE
  8
LAYER1
  6
CONTINUOUS
 62
     5
 66
     1
 40
0.013
 41
0.013
  0
VERTEX
  8
LAYER1
 10
51.2274
 20
40.1442
 30
0
 70
     0
  0
VERTEX
  8
LAYER1
 10
51.3363
 20
40.164
 30
0
 70
     0
  0
SEQEND
  0
POLYLINE
  8
LAYER1
  6
CONTINUOUS
 62
     5
 66
     1
 40
0.013
 41
0.013
  0
VERTEX
  8
LAYER1
 10
51.3363
 20
40.164
 30
0
 70
     0
  0
VERTEX
  8
LAYER1
 10
51.4452
 20
40.2037
 30
0
 70
     0
  0
SEQEND
  0
POLYLINE
  8
LAYER1
  6
CONTINUOUS
 62
     5
 66
     1
 40
0.013
 41
0.013
  0
VERTEX
  8
LAYER1
 10
51.4452
 20
40.2037
 30
0
 70
     0
  0
VERTEX
  8
LAYER1
 10
51.5541
 20
40.2433
 30
0
 70
     0
  0
SEQEND
  0
POLYLINE
  8
LAYER1
  6
CONTINUOUS
 62
     5
 66
     1
 40
0.013
 41
0.013
  0
VERTEX
  8
LAYER1
 10
51.5541
 20
40.2433
 30
0
 70
     0
  0
VERTEX
  8
LAYER1
 10
51.6531
 20
40.2829
 30
0
 70
     0
  0
SEQEND
  0
POLYLINE
  8
LAYER1
  6
CONTINUOUS
 62
     5
 66
     1
 40
0.013
 41
0.013
  0
VERTEX
  8
LAYER1
 10
51.6531
 20
40.2829
 30
0
 70
     0
  0
VERTEX
  8
LAYER1
 10
51.7522
 20
40.3423
 30
0
 70
     0
  0
SEQEND
  0
POLYLINE
  8
LAYER1
  6
CONTINUOUS
 62
     5
 66
     1
 40
0.013
 41
0.013
  0
VERTEX
  8
LAYER1
 10
51.7522
 20
40.3423
 30
0
 70
     0
  0
VERTEX
  8
LAYER1
 10
51.8512
 20
40.4017
 30
0
 70
     0
  0
SEQEND
  0
POLYLINE
  8
LAYER1
  6
CONTINUOUS
 62
     5
 66
     1
 40
0.013
 41
0.013
  0
VERTEX
  8
LAYER1
 10
51.8512
 20
40.4017
 30
0
 70
     0
  0
VERTEX
  8
LAYER1
 10
51.9403
 20
40.4809
 30
0
 70
     0
  0
SEQEND
  0
POLYLINE
  8
LAYER1
  6
CONTINUOUS
 62
     5
 66
     1
 40
0.013
 41
0.013
  0
VERTEX
  8
LAYER1
 10
51.9403
 20
40.4809
 30
0
 70
     0
  0
VERTEX
  8
LAYER1
 10
52.0294
 20
40.5601
 30
0
 70
     0
  0
SEQEND
  0
POLYLINE
  8
LAYER1
  6
CONTINUOUS
 62
     5
 66
     1
 40
0.013
 41
0.013
  0
VERTEX
  8
LAYER1
 10
52.0294
 20
40.5601
 30
0
 70
     0
  0
VERTEX
  8
LAYER1
 10
52.1086
 20
40.6393
 30
0
 70
     0
  0
SEQEND
  0
POLYLINE
  8
LAYER1
  6
CONTINUOUS
 62
     5
 66
     1
 40
0.013
 41
0.013
  0
VERTEX
  8
LAYER1
 10
52.1086
 20
40.6393
 30
0
 70
     0
  0
VERTEX
  8
LAYER1
 10
52.1779
 20
40.7284
 30
0
 70
     0
  0
SEQEND
  0
POLYLINE
  8
LAYER1
  6
CONTINUOUS
 62
     5
 66
     1
 40
0.013
 41
0.013
  0
VERTEX
  8
LAYER1
 10
52.1779
 20
40.7284
 30
0
 70
     0
  0
VERTEX
  8
LAYER1
 10
52.2472
 20
40.8274
 30
0
 70
     0
  0
SEQEND
  0
POLYLINE
  8
LAYER1
  6
CONTINUOUS
 62
     5
 66
     1
 40
0.013
 41
0.013
  0
VERTEX
  8
LAYER1
 10
52.2472
 20
40.8274
 30
0
 70
     0
  0
VERTEX
  8
LAYER1
 10
52.3066
 20
40.9264
 30
0
 70
     0
  0
SEQEND
  0
POLYLINE
  8
LAYER1
  6
CONTINUOUS
 62
     5
 66
     1
 40
0.013
 41
0.013
  0
VERTEX
  8
LAYER1
 10
52.3066
 20
40.9264
 30
0
 70
     0
  0
VERTEX
  8
LAYER1
 10
52.3561
 20
41.0353
 30
0
 70
     0
  0
SEQEND
  0
POLYLINE
  8
LAYER1
  6
CONTINUOUS
 62
     5
 66
     1
 40
0.013
 41
0.013
  0
VERTEX
  8
LAYER1
 10
52.3561
 20
41.0353
 30
0
 70
     0
  0
VERTEX
  8
LAYER1
 10
52.4056
 20
41.1443
 30
0
 70
     0
  0
SEQEND
  0
POLYLINE
  8
LAYER1
  6
CONTINUOUS
 62
     5
 66
     1
 40
0.013
 41
0.013
  0
VERTEX
  8
LAYER1
 10
52.4056
 20
41.1443
 30
0
 70
     0
  0
VERTEX
  8
LAYER1
 10
52.4452
 20
41.2631
 30
0
 70
     0
  0
SEQEND
  0
POLYLINE
  8
LAYER1
  6
CONTINUOUS
 62
     5
 66
     1
 40
0.013
 41
0.013
  0
VERTEX
  8
LAYER1
 10
52.4452
 20
41.2631
 30
0
 70
     0
  0
VERTEX
  8
LAYER1
 10
52.465
 20
41.372
 30
0
 70
     0
  0
SEQEND
  0
POLYLINE
  8
LAYER1
  6
CONTINUOUS
 62
     5
 66
     1
 40
0.013
 41
0.013
  0
VERTEX
  8
LAYER1
 10
52.465
 20
41.372
 30
0
 70
     0
  0
VERTEX
  8
LAYER1
 10
52.4947
 20
41.4908
 30
0
 70
     0
  0
SEQEND
  0
POLYLINE
  8
LAYER1
  6
CONTINUOUS
 62
     5
 66
     1
 40
0.013
 41
0.013
  0
VERTEX
  8
LAYER1
 10
52.4947
 20
41.4908
 30
0
 70
     0
  0
VERTEX
  8
LAYER1
 10
52.5046
 20
41.6096
 30
0
 70
     0
  0
SEQEND
  0
POLYLINE
  8
LAYER1
  6
CONTINUOUS
 62
     5
 66
     1
 40
0.013
 41
0.013
  0
VERTEX
  8
LAYER1
 10
52.5046
 20
41.6096
 30
0
 70
     0
  0
VERTEX
  8
LAYER1
 10
52.5046
 20
41.7284
 30
0
 70
     0
  0
SEQEND
  0
POLYLINE
  8
LAYER1
  6
CONTINUOUS
 62
     5
 66
     1
 40
0.013
 41
0.013
  0
VERTEX
  8
LAYER1
 10
24.5045
 20
41.7284
 30
0
 70
     0
  0
VERTEX
  8
LAYER1
 10
24.5144
 20
41.6096
 30
0
 70
     0
  0
SEQEND
  0
POLYLINE
  8
LAYER1
  6
CONTINUOUS
 62
     5
 66
     1
 40
0.013
 41
0.013
  0
VERTEX
  8
LAYER1
 10
24.5144
 20
41.6096
 30
0
 70
     0
  0
VERTEX
  8
LAYER1
 10
24.5243
 20
41.4908
 30
0
 70
     0
  0
SEQEND
  0
POLYLINE
  8
LAYER1
  6
CONTINUOUS
 62
     5
 66
     1
 40
0.013
 41
0.013
  0
VERTEX
  8
LAYER1
 10
24.5243
 20
41.4908
 30
0
 70
     0
  0
VERTEX
  8
LAYER1
 10
24.5441
 20
41.372
 30
0
 70
     0
  0
SEQEND
  0
POLYLINE
  8
LAYER1
  6
CONTINUOUS
 62
     5
 66
     1
 40
0.013
 41
0.013
  0
VERTEX
  8
LAYER1
 10
24.5441
 20
41.372
 30
0
 70
     0
  0
VERTEX
  8
LAYER1
 10
24.5738
 20
41.2631
 30
0
 70
     0
  0
SEQEND
  0
POLYLINE
  8
LAYER1
  6
CONTINUOUS
 62
     5
 66
     1
 40
0.013
 41
0.013
  0
VERTEX
  8
LAYER1
 10
24.5738
 20
41.2631
 30
0
 70
     0
  0
VERTEX
  8
LAYER1
 10
24.6134
 20
41.1443
 30
0
 70
     0
  0
SEQEND
  0
POLYLINE
  8
LAYER1
  6
CONTINUOUS
 62
     5
 66
     1
 40
0.013
 41
0.013
  0
VERTEX
  8
LAYER1
 10
24.6134
 20
41.1443
 30
0
 70
     0
  0
VERTEX
  8
LAYER1
 10
24.653
 20
41.0353
 30
0
 70
     0
  0
SEQEND
  0
POLYLINE
  8
LAYER1
  6
CONTINUOUS
 62
     5
 66
     1
 40
0.013
 41
0.013
  0
VERTEX
  8
LAYER1
 10
24.653
 20
41.0353
 30
0
 70
     0
  0
VERTEX
  8
LAYER1
 10
24.7124
 20
40.9264
 30
0
 70
     0
  0
SEQEND
  0
POLYLINE
  8
LAYER1
  6
CONTINUOUS
 62
     5
 66
     1
 40
0.013
 41
0.013
  0
VERTEX
  8
LAYER1
 10
24.7124
 20
40.9264
 30
0
 70
     0
  0
VERTEX
  8
LAYER1
 10
24.7718
 20
40.8274
 30
0
 70
     0
  0
SEQEND
  0
POLYLINE
  8
LAYER1
  6
CONTINUOUS
 62
     5
 66
     1
 40
0.013
 41
0.013
  0
VERTEX
  8
LAYER1
 10
24.7718
 20
40.8274
 30
0
 70
     0
  0
VERTEX
  8
LAYER1
 10
24.8312
 20
40.7284
 30
0
 70
     0
  0
SEQEND
  0
POLYLINE
  8
LAYER1
  6
CONTINUOUS
 62
     5
 66
     1
 40
0.013
 41
0.013
  0
VERTEX
  8
LAYER1
 10
24.8312
 20
40.7284
 30
0
 70
     0
  0
VERTEX
  8
LAYER1
 10
24.9104
 20
40.6393
 30
0
 70
     0
  0
SEQEND
  0
POLYLINE
  8
LAYER1
  6
CONTINUOUS
 62
     5
 66
     1
 40
0.013
 41
0.013
  0
VERTEX
  8
LAYER1
 10
24.9104
 20
40.6393
 30
0
 70
     0
  0
VERTEX
  8
LAYER1
 10
24.9896
 20
40.5601
 30
0
 70
     0
  0
SEQEND
  0
POLYLINE
  8
LAYER1
  6
CONTINUOUS
 62
     5
 66
     1
 40
0.013
 41
0.013
  0
VERTEX
  8
LAYER1
 10
24.9896
 20
40.5601
 30
0
 70
     0
  0
VERTEX
  8
LAYER1
 10
25.0688
 20
40.4809
 30
0
 70
     0
  0
SEQEND
  0
POLYLINE
  8
LAYER1
  6
CONTINUOUS
 62
     5
 66
     1
 40
0.013
 41
0.013
  0
VERTEX
  8
LAYER1
 10
25.0688
 20
40.4809
 30
0
 70
     0
  0
VERTEX
  8
LAYER1
 10
25.158
 20
40.4017
 30
0
 70
     0
  0
SEQEND
  0
POLYLINE
  8
LAYER1
  6
CONTINUOUS
 62
     5
 66
     1
 40
0.013
 41
0.013
  0
VERTEX
  8
LAYER1
 10
25.158
 20
40.4017
 30
0
 70
     0
  0
VERTEX
  8
LAYER1
 10
25.257
 20
40.3423
 30
0
 70
     0
  0
SEQEND
  0
POLYLINE
  8
LAYER1
  6
CONTINUOUS
 62
     5
 66
     1
 40
0.013
 41
0.013
  0
VERTEX
  8
LAYER1
 10
25.257
 20
40.3423
 30
0
 70
     0
  0
VERTEX
  8
LAYER1
 10
25.356
 20
40.2829
 30
0
 70
     0
  0
SEQEND
  0
POLYLINE
  8
LAYER1
  6
CONTINUOUS
 62
     5
 66
     1
 40
0.013
 41
0.013
  0
VERTEX
  8
LAYER1
 10
25.356
 20
40.2829
 30
0
 70
     0
  0
VERTEX
  8
LAYER1
 10
25.455
 20
40.2433
 30
0
 70
     0
  0
SEQEND
  0
POLYLINE
  8
LAYER1
  6
CONTINUOUS
 62
     5
 66
     1
 40
0.013
 41
0.013
  0
VERTEX
  8
LAYER1
 10
25.455
 20
40.2433
 30
0
 70
     0
  0
VERTEX
  8
LAYER1
 10
25.5639
 20
40.2037
 30
0
 70
     0
  0
SEQEND
  0
POLYLINE
  8
LAYER1
  6
CONTINUOUS
 62
     5
 66
     1
 40
0.013
 41
0.013
  0
VERTEX
  8
LAYER1
 10
25.5639
 20
40.2037
 30
0
 70
     0
  0
VERTEX
  8
LAYER1
 10
25.6728
 20
40.164
 30
0
 70
     0
  0
SEQEND
  0
POLYLINE
  8
LAYER1
  6
CONTINUOUS
 62
     5
 66
     1
 40
0.013
 41
0.013
  0
VERTEX
  8
LAYER1
 10
25.6728
 20
40.164
 30
0
 70
     0
  0
VERTEX
  8
LAYER1
 10
25.7817
 20
40.1442
 30
0
 70
     0
  0
SEQEND
  0
POLYLINE
  8
LAYER1
  6
CONTINUOUS
 62
     5
 66
     1
 40
0.013
 41
0.013
  0
VERTEX
  8
LAYER1
 10
25.7817
 20
40.1442
 30
0
 70
     0
  0
VERTEX
  8
LAYER1
 10
25.8906
 20
40.1343
 30
0
 70
     0
  0
SEQEND
  0
POLYLINE
  8
LAYER1
  6
CONTINUOUS
 62
     5
 66
     1
 40
0.013
 41
0.013
  0
VERTEX
  8
LAYER1
 10
25.8906
 20
40.1343
 30
0
 70
     0
  0
VERTEX
  8
LAYER1
 10
26.0094
 20
40.1244
 30
0
 70
     0
  0
SEQEND
  0
POLYLINE
  8
LAYER1
  6
CONTINUOUS
 62
     5
 66
     1
 40
0.013
 41
0.013
  0
VERTEX
  8
LAYER1
 10
26.0094
 20
61.2632
 30
0
 70
     0
  0
VERTEX
  8
LAYER1
 10
25.8906
 20
61.2632
 30
0
 70
     0
  0
SEQEND
  0
POLYLINE
  8
LAYER1
  6
CONTINUOUS
 62
     5
 66
     1
 40
0.013
 41
0.013
  0
VERTEX
  8
LAYER1
 10
25.8906
 20
61.2632
 30
0
 70
     0
  0
VERTEX
  8
LAYER1
 10
25.7817
 20
61.2533
 30
0
 70
     0
  0
SEQEND
  0
POLYLINE
  8
LAYER1
  6
CONTINUOUS
 62
     5
 66
     1
 40
0.013
 41
0.013
  0
VERTEX
  8
LAYER1
 10
25.7817
 20
61.2533
 30
0
 70
     0
  0
VERTEX
  8
LAYER1
 10
25.6728
 20
61.2236
 30
0
 70
     0
  0
SEQEND
  0
POLYLINE
  8
LAYER1
  6
CONTINUOUS
 62
     5
 66
     1
 40
0.013
 41
0.013
  0
VERTEX
  8
LAYER1
 10
25.6728
 20
61.2236
 30
0
 70
     0
  0
VERTEX
  8
LAYER1
 10
25.5639
 20
61.1939
 30
0
 70
     0
  0
SEQEND
  0
POLYLINE
  8
LAYER1
  6
CONTINUOUS
 62
     5
 66
     1
 40
0.013
 41
0.013
  0
VERTEX
  8
LAYER1
 10
25.5639
 20
61.1939
 30
0
 70
     0
  0
VERTEX
  8
LAYER1
 10
25.455
 20
61.1543
 30
0
 70
     0
  0
SEQEND
  0
POLYLINE
  8
LAYER1
  6
CONTINUOUS
 62
     5
 66
     1
 40
0.013
 41
0.013
  0
VERTEX
  8
LAYER1
 10
25.455
 20
61.1543
 30
0
 70
     0
  0
VERTEX
  8
LAYER1
 10
25.356
 20
61.1048
 30
0
 70
     0
  0
SEQEND
  0
POLYLINE
  8
LAYER1
  6
CONTINUOUS
 62
     5
 66
     1
 40
0.013
 41
0.013
  0
VERTEX
  8
LAYER1
 10
25.356
 20
61.1048
 30
0
 70
     0
  0
VERTEX
  8
LAYER1
 10
25.257
 20
61.0552
 30
0
 70
     0
  0
SEQEND
  0
POLYLINE
  8
LAYER1
  6
CONTINUOUS
 62
     5
 66
     1
 40
0.013
 41
0.013
  0
VERTEX
  8
LAYER1
 10
25.257
 20
61.0552
 30
0
 70
     0
  0
VERTEX
  8
LAYER1
 10
25.158
 20
60.9859
 30
0
 70
     0
  0
SEQEND
  0
POLYLINE
  8
LAYER1
  6
CONTINUOUS
 62
     5
 66
     1
 40
0.013
 41
0.013
  0
VERTEX
  8
LAYER1
 10
25.158
 20
60.9859
 30
0
 70
     0
  0
VERTEX
  8
LAYER1
 10
25.0688
 20
60.9166
 30
0
 70
     0
  0
SEQEND
  0
POLYLINE
  8
LAYER1
  6
CONTINUOUS
 62
     5
 66
     1
 40
0.013
 41
0.013
  0
VERTEX
  8
LAYER1
 10
25.0688
 20
60.9166
 30
0
 70
     0
  0
VERTEX
  8
LAYER1
 10
24.9896
 20
60.8374
 30
0
 70
     0
  0
SEQEND
  0
POLYLINE
  8
LAYER1
  6
CONTINUOUS
 62
     5
 66
     1
 40
0.013
 41
0.013
  0
VERTEX
  8
LAYER1
 10
24.9896
 20
60.8374
 30
0
 70
     0
  0
VERTEX
  8
LAYER1
 10
24.9104
 20
60.7582
 30
0
 70
     0
  0
SEQEND
  0
POLYLINE
  8
LAYER1
  6
CONTINUOUS
 62
     5
 66
     1
 40
0.013
 41
0.013
  0
VERTEX
  8
LAYER1
 10
24.9104
 20
60.7582
 30
0
 70
     0
  0
VERTEX
  8
LAYER1
 10
24.8312
 20
60.6592
 30
0
 70
     0
  0
SEQEND
  0
POLYLINE
  8
LAYER1
  6
CONTINUOUS
 62
     5
 66
     1
 40
0.013
 41
0.013
  0
VERTEX
  8
LAYER1
 10
24.8312
 20
60.6592
 30
0
 70
     0
  0
VERTEX
  8
LAYER1
 10
24.7718
 20
60.5701
 30
0
 70
     0
  0
SEQEND
  0
POLYLINE
  8
LAYER1
  6
CONTINUOUS
 62
     5
 66
     1
 40
0.013
 41
0.013
  0
VERTEX
  8
LAYER1
 10
24.7718
 20
60.5701
 30
0
 70
     0
  0
VERTEX
  8
LAYER1
 10
24.7124
 20
60.4612
 30
0
 70
     0
  0
SEQEND
  0
POLYLINE
  8
LAYER1
  6
CONTINUOUS
 62
     5
 66
     1
 40
0.013
 41
0.013
  0
VERTEX
  8
LAYER1
 10
24.7124
 20
60.4612
 30
0
 70
     0
  0
VERTEX
  8
LAYER1
 10
24.653
 20
60.3622
 30
0
 70
     0
  0
SEQEND
  0
POLYLINE
  8
LAYER1
  6
CONTINUOUS
 62
     5
 66
     1
 40
0.013
 41
0.013
  0
VERTEX
  8
LAYER1
 10
24.653
 20
60.3622
 30
0
 70
     0
  0
VERTEX
  8
LAYER1
 10
24.6134
 20
60.2533
 30
0
 70
     0
  0
SEQEND
  0
POLYLINE
  8
LAYER1
  6
CONTINUOUS
 62
     5
 66
     1
 40
0.013
 41
0.013
  0
VERTEX
  8
LAYER1
 10
24.6134
 20
60.2533
 30
0
 70
     0
  0
VERTEX
  8
LAYER1
 10
24.5738
 20
60.1344
 30
0
 70
     0
  0
SEQEND
  0
POLYLINE
  8
LAYER1
  6
CONTINUOUS
 62
     5
 66
     1
 40
0.013
 41
0.013
  0
VERTEX
  8
LAYER1
 10
24.5738
 20
60.1344
 30
0
 70
     0
  0
VERTEX
  8
LAYER1
 10
24.5441
 20
60.0156
 30
0
 70
     0
  0
SEQEND
  0
POLYLINE
  8
LAYER1
  6
CONTINUOUS
 62
     5
 66
     1
 40
0.013
 41
0.013
  0
VERTEX
  8
LAYER1
 10
24.5441
 20
60.0156
 30
0
 70
     0
  0
VERTEX
  8
LAYER1
 10
24.5243
 20
59.9067
 30
0
 70
     0
  0
SEQEND
  0
POLYLINE
  8
LAYER1
  6
CONTINUOUS
 62
     5
 66
     1
 40
0.013
 41
0.013
  0
VERTEX
  8
LAYER1
 10
24.5243
 20
59.9067
 30
0
 70
     0
  0
VERTEX
  8
LAYER1
 10
24.5144
 20
59.7879
 30
0
 70
     0
  0
SEQEND
  0
POLYLINE
  8
LAYER1
  6
CONTINUOUS
 62
     5
 66
     1
 40
0.013
 41
0.013
  0
VERTEX
  8
LAYER1
 10
24.5144
 20
59.7879
 30
0
 70
     0
  0
VERTEX
  8
LAYER1
 10
24.5045
 20
59.6592
 30
0
 70
     0
  0
SEQEND
  0
POLYLINE
  8
LAYER1
  6
CONTINUOUS
 62
     5
 66
     1
 40
0.013
 41
0.013
  0
VERTEX
  8
LAYER1
 10
52.5046
 20
59.6592
 30
0
 70
     0
  0
VERTEX
  8
LAYER1
 10
52.5046
 20
59.7879
 30
0
 70
     0
  0
SEQEND
  0
POLYLINE
  8
LAYER1
  6
CONTINUOUS
 62
     5
 66
     1
 40
0.013
 41
0.013
  0
VERTEX
  8
LAYER1
 10
52.5046
 20
59.7879
 30
0
 70
     0
  0
VERTEX
  8
LAYER1
 10
52.4947
 20
59.9067
 30
0
 70
     0
  0
SEQEND
  0
POLYLINE
  8
LAYER1
  6
CONTINUOUS
 62
     5
 66
     1
 40
0.013
 41
0.013
  0
VERTEX
  8
LAYER1
 10
52.4947
 20
59.9067
 30
0
 70
     0
  0
VERTEX
  8
LAYER1
 10
52.465
 20
60.0156
 30
0
 70
     0
  0
SEQEND
  0
POLYLINE
  8
LAYER1
  6
CONTINUOUS
 62
     5
 66
     1
 40
0.013
 41
0.013
  0
VERTEX
  8
LAYER1
 10
52.465
 20
60.0156
 30
0
 70
     0
  0
VERTEX
  8
LAYER1
 10
52.4452
 20
60.1344
 30
0
 70
     0
  0
SEQEND
  0
POLYLINE
  8
LAYER1
  6
CONTINUOUS
 62
     5
 66
     1
 40
0.013
 41
0.013
  0
VERTEX
  8
LAYER1
 10
52.4452
 20
60.1344
 30
0
 70
     0
  0
VERTEX
  8
LAYER1
 10
52.4056
 20
60.2533
 30
0
 70
     0
  0
SEQEND
  0
POLYLINE
  8
LAYER1
  6
CONTINUOUS
 62
     5
 66
     1
 40
0.013
 41
0.013
  0
VERTEX
  8
LAYER1
 10
52.4056
 20
60.2533
 30
0
 70
     0
  0
VERTEX
  8
LAYER1
 10
52.3561
 20
60.3622
 30
0
 70
     0
  0
SEQEND
  0
POLYLINE
  8
LAYER1
  6
CONTINUOUS
 62
     5
 66
     1
 40
0.013
 41
0.013
  0
VERTEX
  8
LAYER1
 10
52.3561
 20
60.3622
 30
0
 70
     0
  0
VERTEX
  8
LAYER1
 10
52.3066
 20
60.4612
 30
0
 70
     0
  0
SEQEND
  0
POLYLINE
  8
LAYER1
  6
CONTINUOUS
 62
     5
 66
     1
 40
0.013
 41
0.013
  0
VERTEX
  8
LAYER1
 10
52.3066
 20
60.4612
 30
0
 70
     0
  0
VERTEX
  8
LAYER1
 10
52.2472
 20
60.5701
 30
0
 70
     0
  0
SEQEND
  0
POLYLINE
  8
LAYER1
  6
CONTINUOUS
 62
     5
 66
     1
 40
0.013
 41
0.013
  0
VERTEX
  8
LAYER1
 10
52.2472
 20
60.5701
 30
0
 70
     0
  0
VERTEX
  8
LAYER1
 10
52.1779
 20
60.6592
 30
0
 70
     0
  0
SEQEND
  0
POLYLINE
  8
LAYER1
  6
CONTINUOUS
 62
     5
 66
     1
 40
0.013
 41
0.013
  0
VERTEX
  8
LAYER1
 10
52.1779
 20
60.6592
 30
0
 70
     0
  0
VERTEX
  8
LAYER1
 10
52.1086
 20
60.7582
 30
0
 70
     0
  0
SEQEND
  0
POLYLINE
  8
LAYER1
  6
CONTINUOUS
 62
     5
 66
     1
 40
0.013
 41
0.013
  0
VERTEX
  8
LAYER1
 10
52.1086
 20
60.7582
 30
0
 70
     0
  0
VERTEX
  8
LAYER1
 10
52.0294
 20
60.8374
 30
0
 70
     0
  0
SEQEND
  0
POLYLINE
  8
LAYER1
  6
CONTINUOUS
 62
     5
 66
     1
 40
0.013
 41
0.013
  0
VERTEX
  8
LAYER1
 10
52.0294
 20
60.8374
 30
0
 70
     0
  0
VERTEX
  8
LAYER1
 10
51.9403
 20
60.9166
 30
0
 70
     0
  0
SEQEND
  0
POLYLINE
  8
LAYER1
  6
CONTINUOUS
 62
     5
 66
     1
 40
0.013
 41
0.013
  0
VERTEX
  8
LAYER1
 10
51.9403
 20
60.9166
 30
0
 70
     0
  0
VERTEX
  8
LAYER1
 10
51.8512
 20
60.9859
 30
0
 70
     0
  0
SEQEND
  0
POLYLINE
  8
LAYER1
  6
CONTINUOUS
 62
     5
 66
     1
 40
0.013
 41
0.013
  0
VERTEX
  8
LAYER1
 10
51.8512
 20
60.9859
 30
0
 70
     0
  0
VERTEX
  8
LAYER1
 10
51.7522
 20
61.0552
 30
0
 70
     0
  0
SEQEND
  0
POLYLINE
  8
LAYER1
  6
CONTINUOUS
 62
     5
 66
     1
 40
0.013
 41
0.013
  0
VERTEX
  8
LAYER1
 10
51.7522
 20
61.0552
 30
0
 70
     0
  0
VERTEX
  8
LAYER1
 10
51.6531
 20
61.1048
 30
0
 70
     0
  0
SEQEND
  0
POLYLINE
  8
LAYER1
  6
CONTINUOUS
 62
     5
 66
     1
 40
0.013
 41
0.013
  0
VERTEX
  8
LAYER1
 10
51.6531
 20
61.1048
 30
0
 70
     0
  0
VERTEX
  8
LAYER1
 10
51.5541
 20
61.1543
 30
0
 70
     0
  0
SEQEND
  0
POLYLINE
  8
LAYER1
  6
CONTINUOUS
 62
     5
 66
     1
 40
0.013
 41
0.013
  0
VERTEX
  8
LAYER1
 10
51.5541
 20
61.1543
 30
0
 70
     0
  0
VERTEX
  8
LAYER1
 10
51.4452
 20
61.1939
 30
0
 70
     0
  0
SEQEND
  0
POLYLINE
  8
LAYER1
  6
CONTINUOUS
 62
     5
 66
     1
 40
0.013
 41
0.013
  0
VERTEX
  8
LAYER1
 10
51.4452
 20
61.1939
 30
0
 70
     0
  0
VERTEX
  8
LAYER1
 10
51.3363
 20
61.2236
 30
0
 70
     0
  0
SEQEND
  0
POLYLINE
  8
LAYER1
  6
CONTINUOUS
 62
     5
 66
     1
 40
0.013
 41
0.013
  0
VERTEX
  8
LAYER1
 10
51.3363
 20
61.2236
 30
0
 70
     0
  0
VERTEX
  8
LAYER1
 10
51.2274
 20
61.2533
 30
0
 70
     0
  0
SEQEND
  0
POLYLINE
  8
LAYER1
  6
CONTINUOUS
 62
     5
 66
     1
 40
0.013
 41
0.013
  0
VERTEX
  8
LAYER1
 10
51.2274
 20
61.2533
 30
0
 70
     0
  0
VERTEX
  8
LAYER1
 10
51.1185
 20
61.2632
 30
0
 70
     0
  0
SEQEND
  0
POLYLINE
  8
LAYER1
  6
CONTINUOUS
 62
     5
 66
     1
 40
0.013
 41
0.013
  0
VERTEX
  8
LAYER1
 10
51.1185
 20
61.2632
 30
0
 70
     0
  0
VERTEX
  8
LAYER1
 10
51.0096
 20
61.2632
 30
0
 70
     0
  0
SEQEND
  0
POLYLINE
  8
LAYER1
  6
CONTINUOUS
 62
     5
 66
     1
 40
0.013
 41
0.013
  0
VERTEX
  8
LAYER1
 10
19.554
 20
41.8571
 30
0
 70
     0
  0
VERTEX
  8
LAYER1
 10
8.0094
 20
41.8571
 30
0
 70
     0
  0
SEQEND
  0
POLYLINE
  8
LAYER1
  6
CONTINUOUS
 62
     5
 66
     1
 40
0.013
 41
0.013
  0
VERTEX
  8
LAYER1
 10
21.0589
 20
43.4611
 30
0
 70
     0
  0
VERTEX
  8
LAYER1
 10
21.0589
 20
61.2632
 30
0
 70
     0
  0
SEQEND
  0
POLYLINE
  8
LAYER1
  6
CONTINUOUS
 62
     5
 66
     1
 40
0.013
 41
0.013
  0
VERTEX
  8
LAYER1
 10
11.0094
 20
41.8571
 30
0
 70
     0
  0
VERTEX
  8
LAYER1
 10
14.7025
 20
62.8671
 30
0
 70
     0
  0
SEQEND
  0
POLYLINE
  8
LAYER1
  6
CONTINUOUS
 62
     5
 66
     1
 40
0.013
 41
0.013
  0
VERTEX
  8
LAYER1
 10
19.554
 20
41.8571
 30
0
 70
     0
  0
VERTEX
  8
LAYER1
 10
19.6629
 20
41.8571
 30
0
 70
     0
  0
SEQEND
  0
POLYLINE
  8
LAYER1
  6
CONTINUOUS
 62
     5
 66
     1
 40
0.013
 41
0.013
  0
VERTEX
  8
LAYER1
 10
19.6629
 20
41.8571
 30
0
 70
     0
  0
VERTEX
  8
LAYER1
 10
19.7817
 20
41.8769
 30
0
 70
     0
  0
SEQEND
  0
POLYLINE
  8
LAYER1
  6
CONTINUOUS
 62
     5
 66
     1
 40
0.013
 41
0.013
  0
VERTEX
  8
LAYER1
 10
19.7817
 20
41.8769
 30
0
 70
     0
  0
VERTEX
  8
LAYER1
 10
19.8906
 20
41.8967
 30
0
 70
     0
  0
SEQEND
  0
POLYLINE
  8
LAYER1
  6
CONTINUOUS
 62
     5
 66
     1
 40
0.013
 41
0.013
  0
VERTEX
  8
LAYER1
 10
19.8906
 20
41.8967
 30
0
 70
     0
  0
VERTEX
  8
LAYER1
 10
19.9995
 20
41.9264
 30
0
 70
     0
  0
SEQEND
  0
POLYLINE
  8
LAYER1
  6
CONTINUOUS
 62
     5
 66
     1
 40
0.013
 41
0.013
  0
VERTEX
  8
LAYER1
 10
19.9995
 20
41.9264
 30
0
 70
     0
  0
VERTEX
  8
LAYER1
 10
20.0985
 20
41.966
 30
0
 70
     0
  0
SEQEND
  0
POLYLINE
  8
LAYER1
  6
CONTINUOUS
 62
     5
 66
     1
 40
0.013
 41
0.013
  0
VERTEX
  8
LAYER1
 10
20.0985
 20
41.966
 30
0
 70
     0
  0
VERTEX
  8
LAYER1
 10
20.2074
 20
42.0155
 30
0
 70
     0
  0
SEQEND
  0
POLYLINE
  8
LAYER1
  6
CONTINUOUS
 62
     5
 66
     1
 40
0.013
 41
0.013
  0
VERTEX
  8
LAYER1
 10
20.2074
 20
42.0155
 30
0
 70
     0
  0
VERTEX
  8
LAYER1
 10
20.3064
 20
42.065
 30
0
 70
     0
  0
SEQEND
  0
POLYLINE
  8
LAYER1
  6
CONTINUOUS
 62
     5
 66
     1
 40
0.013
 41
0.013
  0
VERTEX
  8
LAYER1
 10
20.3064
 20
42.065
 30
0
 70
     0
  0
VERTEX
  8
LAYER1
 10
20.3956
 20
42.1344
 30
0
 70
     0
  0
SEQEND
  0
POLYLINE
  8
LAYER1
  6
CONTINUOUS
 62
     5
 66
     1
 40
0.013
 41
0.013
  0
VERTEX
  8
LAYER1
 10
20.3956
 20
42.1344
 30
0
 70
     0
  0
VERTEX
  8
LAYER1
 10
20.4946
 20
42.2037
 30
0
 70
     0
  0
SEQEND
  0
POLYLINE
  8
LAYER1
  6
CONTINUOUS
 62
     5
 66
     1
 40
0.013
 41
0.013
  0
VERTEX
  8
LAYER1
 10
20.4946
 20
42.2037
 30
0
 70
     0
  0
VERTEX
  8
LAYER1
 10
20.5738
 20
42.2829
 30
0
 70
     0
  0
SEQEND
  0
POLYLINE
  8
LAYER1
  6
CONTINUOUS
 62
     5
 66
     1
 40
0.013
 41
0.013
  0
VERTEX
  8
LAYER1
 10
20.5738
 20
42.2829
 30
0
 70
     0
  0
VERTEX
  8
LAYER1
 10
20.653
 20
42.372
 30
0
 70
     0
  0
SEQEND
  0
POLYLINE
  8
LAYER1
  6
CONTINUOUS
 62
     5
 66
     1
 40
0.013
 41
0.013
  0
VERTEX
  8
LAYER1
 10
20.653
 20
42.372
 30
0
 70
     0
  0
VERTEX
  8
LAYER1
 10
20.7322
 20
42.4611
 30
0
 70
     0
  0
SEQEND
  0
POLYLINE
  8
LAYER1
  6
CONTINUOUS
 62
     5
 66
     1
 40
0.013
 41
0.013
  0
VERTEX
  8
LAYER1
 10
20.7322
 20
42.4611
 30
0
 70
     0
  0
VERTEX
  8
LAYER1
 10
20.7916
 20
42.5601
 30
0
 70
     0
  0
SEQEND
  0
POLYLINE
  8
LAYER1
  6
CONTINUOUS
 62
     5
 66
     1
 40
0.013
 41
0.013
  0
VERTEX
  8
LAYER1
 10
20.7916
 20
42.5601
 30
0
 70
     0
  0
VERTEX
  8
LAYER1
 10
20.851
 20
42.6591
 30
0
 70
     0
  0
SEQEND
  0
POLYLINE
  8
LAYER1
  6
CONTINUOUS
 62
     5
 66
     1
 40
0.013
 41
0.013
  0
VERTEX
  8
LAYER1
 10
20.851
 20
42.6591
 30
0
 70
     0
  0
VERTEX
  8
LAYER1
 10
20.9104
 20
42.7581
 30
0
 70
     0
  0
SEQEND
  0
POLYLINE
  8
LAYER1
  6
CONTINUOUS
 62
     5
 66
     1
 40
0.013
 41
0.013
  0
VERTEX
  8
LAYER1
 10
20.9104
 20
42.7581
 30
0
 70
     0
  0
VERTEX
  8
LAYER1
 10
20.95
 20
42.8769
 30
0
 70
     0
  0
SEQEND
  0
POLYLINE
  8
LAYER1
  6
CONTINUOUS
 62
     5
 66
     1
 40
0.013
 41
0.013
  0
VERTEX
  8
LAYER1
 10
20.95
 20
42.8769
 30
0
 70
     0
  0
VERTEX
  8
LAYER1
 10
20.9896
 20
42.9858
 30
0
 70
     0
  0
SEQEND
  0
POLYLINE
  8
LAYER1
  6
CONTINUOUS
 62
     5
 66
     1
 40
0.013
 41
0.013
  0
VERTEX
  8
LAYER1
 10
20.9896
 20
42.9858
 30
0
 70
     0
  0
VERTEX
  8
LAYER1
 10
21.0193
 20
43.1047
 30
0
 70
     0
  0
SEQEND
  0
POLYLINE
  8
LAYER1
  6
CONTINUOUS
 62
     5
 66
     1
 40
0.013
 41
0.013
  0
VERTEX
  8
LAYER1
 10
21.0193
 20
43.1047
 30
0
 70
     0
  0
VERTEX
  8
LAYER1
 10
21.0391
 20
43.2235
 30
0
 70
     0
  0
SEQEND
  0
POLYLINE
  8
LAYER1
  6
CONTINUOUS
 62
     5
 66
     1
 40
0.013
 41
0.013
  0
VERTEX
  8
LAYER1
 10
21.0391
 20
43.2235
 30
0
 70
     0
  0
VERTEX
  8
LAYER1
 10
21.049
 20
43.3423
 30
0
 70
     0
  0
SEQEND
  0
POLYLINE
  8
LAYER1
  6
CONTINUOUS
 62
     5
 66
     1
 40
0.013
 41
0.013
  0
VERTEX
  8
LAYER1
 10
21.049
 20
43.3423
 30
0
 70
     0
  0
VERTEX
  8
LAYER1
 10
21.0589
 20
43.4611
 30
0
 70
     0
  0
SEQEND
  0
POLYLINE
  8
LAYER1
  6
CONTINUOUS
 62
     5
 66
     1
 40
0.013
 41
0.013
  0
VERTEX
  8
LAYER1
 10
21.0589
 20
61.2632
 30
0
 70
     0
  0
VERTEX
  8
LAYER1
 10
21.049
 20
61.3919
 30
0
 70
     0
  0
SEQEND
  0
POLYLINE
  8
LAYER1
  6
CONTINUOUS
 62
     5
 66
     1
 40
0.013
 41
0.013
  0
VERTEX
  8
LAYER1
 10
21.049
 20
61.3919
 30
0
 70
     0
  0
VERTEX
  8
LAYER1
 10
21.0391
 20
61.5107
 30
0
 70
     0
  0
SEQEND
  0
POLYLINE
  8
LAYER1
  6
CONTINUOUS
 62
     5
 66
     1
 40
0.013
 41
0.013
  0
VERTEX
  8
LAYER1
 10
21.0391
 20
61.5107
 30
0
 70
     0
  0
VERTEX
  8
LAYER1
 10
21.0193
 20
61.6196
 30
0
 70
     0
  0
SEQEND
  0
POLYLINE
  8
LAYER1
  6
CONTINUOUS
 62
     5
 66
     1
 40
0.013
 41
0.013
  0
VERTEX
  8
LAYER1
 10
21.0193
 20
61.6196
 30
0
 70
     0
  0
VERTEX
  8
LAYER1
 10
20.9896
 20
61.7384
 30
0
 70
     0
  0
SEQEND
  0
POLYLINE
  8
LAYER1
  6
CONTINUOUS
 62
     5
 66
     1
 40
0.013
 41
0.013
  0
VERTEX
  8
LAYER1
 10
20.9896
 20
61.7384
 30
0
 70
     0
  0
VERTEX
  8
LAYER1
 10
20.95
 20
61.8572
 30
0
 70
     0
  0
SEQEND
  0
POLYLINE
  8
LAYER1
  6
CONTINUOUS
 62
     5
 66
     1
 40
0.013
 41
0.013
  0
VERTEX
  8
LAYER1
 10
20.95
 20
61.8572
 30
0
 70
     0
  0
VERTEX
  8
LAYER1
 10
20.9104
 20
61.9661
 30
0
 70
     0
  0
SEQEND
  0
POLYLINE
  8
LAYER1
  6
CONTINUOUS
 62
     5
 66
     1
 40
0.013
 41
0.013
  0
VERTEX
  8
LAYER1
 10
20.9104
 20
61.9661
 30
0
 70
     0
  0
VERTEX
  8
LAYER1
 10
20.851
 20
62.0652
 30
0
 70
     0
  0
SEQEND
  0
POLYLINE
  8
LAYER1
  6
CONTINUOUS
 62
     5
 66
     1
 40
0.013
 41
0.013
  0
VERTEX
  8
LAYER1
 10
20.851
 20
62.0652
 30
0
 70
     0
  0
VERTEX
  8
LAYER1
 10
20.7916
 20
62.1741
 30
0
 70
     0
  0
SEQEND
  0
POLYLINE
  8
LAYER1
  6
CONTINUOUS
 62
     5
 66
     1
 40
0.013
 41
0.013
  0
VERTEX
  8
LAYER1
 10
20.7916
 20
62.1741
 30
0
 70
     0
  0
VERTEX
  8
LAYER1
 10
20.7322
 20
62.2632
 30
0
 70
     0
  0
SEQEND
  0
POLYLINE
  8
LAYER1
  6
CONTINUOUS
 62
     5
 66
     1
 40
0.013
 41
0.013
  0
VERTEX
  8
LAYER1
 10
20.7322
 20
62.2632
 30
0
 70
     0
  0
VERTEX
  8
LAYER1
 10
20.653
 20
62.3622
 30
0
 70
     0
  0
SEQEND
  0
POLYLINE
  8
LAYER1
  6
CONTINUOUS
 62
     5
 66
     1
 40
0.013
 41
0.013
  0
VERTEX
  8
LAYER1
 10
20.653
 20
62.3622
 30
0
 70
     0
  0
VERTEX
  8
LAYER1
 10
20.5738
 20
62.4414
 30
0
 70
     0
  0
SEQEND
  0
POLYLINE
  8
LAYER1
  6
CONTINUOUS
 62
     5
 66
     1
 40
0.013
 41
0.013
  0
VERTEX
  8
LAYER1
 10
20.5738
 20
62.4414
 30
0
 70
     0
  0
VERTEX
  8
LAYER1
 10
20.4946
 20
62.5206
 30
0
 70
     0
  0
SEQEND
  0
POLYLINE
  8
LAYER1
  6
CONTINUOUS
 62
     5
 66
     1
 40
0.013
 41
0.013
  0
VERTEX
  8
LAYER1
 10
20.4946
 20
62.5206
 30
0
 70
     0
  0
VERTEX
  8
LAYER1
 10
20.3956
 20
62.5899
 30
0
 70
     0
  0
SEQEND
  0
POLYLINE
  8
LAYER1
  6
CONTINUOUS
 62
     5
 66
     1
 40
0.013
 41
0.013
  0
VERTEX
  8
LAYER1
 10
20.3956
 20
62.5899
 30
0
 70
     0
  0
VERTEX
  8
LAYER1
 10
20.3064
 20
62.6592
 30
0
 70
     0
  0
SEQEND
  0
POLYLINE
  8
LAYER1
  6
CONTINUOUS
 62
     5
 66
     1
 40
0.013
 41
0.013
  0
VERTEX
  8
LAYER1
 10
20.3064
 20
62.6592
 30
0
 70
     0
  0
VERTEX
  8
LAYER1
 10
20.2074
 20
62.7087
 30
0
 70
     0
  0
SEQEND
  0
POLYLINE
  8
LAYER1
  6
CONTINUOUS
 62
     5
 66
     1
 40
0.013
 41
0.013
  0
VERTEX
  8
LAYER1
 10
20.2074
 20
62.7087
 30
0
 70
     0
  0
VERTEX
  8
LAYER1
 10
20.0985
 20
62.7582
 30
0
 70
     0
  0
SEQEND
  0
POLYLINE
  8
LAYER1
  6
CONTINUOUS
 62
     5
 66
     1
 40
0.013
 41
0.013
  0
VERTEX
  8
LAYER1
 10
20.0985
 20
62.7582
 30
0
 70
     0
  0
VERTEX
  8
LAYER1
 10
19.9995
 20
62.7978
 30
0
 70
     0
  0
SEQEND
  0
POLYLINE
  8
LAYER1
  6
CONTINUOUS
 62
     5
 66
     1
 40
0.013
 41
0.013
  0
VERTEX
  8
LAYER1
 10
19.9995
 20
62.7978
 30
0
 70
     0
  0
VERTEX
  8
LAYER1
 10
19.8906
 20
62.8275
 30
0
 70
     0
  0
SEQEND
  0
POLYLINE
  8
LAYER1
  6
CONTINUOUS
 62
     5
 66
     1
 40
0.013
 41
0.013
  0
VERTEX
  8
LAYER1
 10
19.8906
 20
62.8275
 30
0
 70
     0
  0
VERTEX
  8
LAYER1
 10
19.7817
 20
62.8572
 30
0
 70
     0
  0
SEQEND
  0
POLYLINE
  8
LAYER1
  6
CONTINUOUS
 62
     5
 66
     1
 40
0.013
 41
0.013
  0
VERTEX
  8
LAYER1
 10
19.7817
 20
62.8572
 30
0
 70
     0
  0
VERTEX
  8
LAYER1
 10
19.6629
 20
62.8671
 30
0
 70
     0
  0
SEQEND
  0
POLYLINE
  8
LAYER1
  6
CONTINUOUS
 62
     5
 66
     1
 40
0.013
 41
0.013
  0
VERTEX
  8
LAYER1
 10
19.6629
 20
62.8671
 30
0
 70
     0
  0
VERTEX
  8
LAYER1
 10
19.554
 20
62.8671
 30
0
 70
     0
  0
SEQEND
  0
POLYLINE
  8
LAYER1
  6
CONTINUOUS
 62
     5
 66
     1
 40
0.013
 41
0.013
  0
VERTEX
  8
LAYER1
 10
13.3163
 20
62.8671
 30
0
 70
     0
  0
VERTEX
  8
LAYER1
 10
13.3163
 20
64.1543
 30
0
 70
     0
  0
SEQEND
  0
POLYLINE
  8
LAYER1
  6
CONTINUOUS
 62
     5
 66
     1
 40
0.013
 41
0.013
  0
VERTEX
  8
LAYER1
 10
16.3163
 20
67.3622
 30
0
 70
     0
  0
VERTEX
  8
LAYER1
 10
16.1579
 20
67.3622
 30
0
 70
     0
  0
SEQEND
  0
POLYLINE
  8
LAYER1
  6
CONTINUOUS
 62
     5
 66
     1
 40
0.013
 41
0.013
  0
VERTEX
  8
LAYER1
 10
16.1579
 20
67.3622
 30
0
 70
     0
  0
VERTEX
  8
LAYER1
 10
16.0094
 20
67.3523
 30
0
 70
     0
  0
SEQEND
  0
POLYLINE
  8
LAYER1
  6
CONTINUOUS
 62
     5
 66
     1
 40
0.013
 41
0.013
  0
VERTEX
  8
LAYER1
 10
16.0094
 20
67.3523
 30
0
 70
     0
  0
VERTEX
  8
LAYER1
 10
15.851
 20
67.3226
 30
0
 70
     0
  0
SEQEND
  0
POLYLINE
  8
LAYER1
  6
CONTINUOUS
 62
     5
 66
     1
 40
0.013
 41
0.013
  0
VERTEX
  8
LAYER1
 10
15.851
 20
67.3226
 30
0
 70
     0
  0
VERTEX
  8
LAYER1
 10
15.6926
 20
67.2929
 30
0
 70
     0
  0
SEQEND
  0
POLYLINE
  8
LAYER1
  6
CONTINUOUS
 62
     5
 66
     1
 40
0.013
 41
0.013
  0
VERTEX
  8
LAYER1
 10
15.6926
 20
67.2929
 30
0
 70
     0
  0
VERTEX
  8
LAYER1
 10
15.544
 20
67.2533
 30
0
 70
     0
  0
SEQEND
  0
POLYLINE
  8
LAYER1
  6
CONTINUOUS
 62
     5
 66
     1
 40
0.013
 41
0.013
  0
VERTEX
  8
LAYER1
 10
15.544
 20
67.2533
 30
0
 70
     0
  0
VERTEX
  8
LAYER1
 10
15.3955
 20
67.2137
 30
0
 70
     0
  0
SEQEND
  0
POLYLINE
  8
LAYER1
  6
CONTINUOUS
 62
     5
 66
     1
 40
0.013
 41
0.013
  0
VERTEX
  8
LAYER1
 10
15.3955
 20
67.2137
 30
0
 70
     0
  0
VERTEX
  8
LAYER1
 10
15.247
 20
67.1543
 30
0
 70
     0
  0
SEQEND
  0
POLYLINE
  8
LAYER1
  6
CONTINUOUS
 62
     5
 66
     1
 40
0.013
 41
0.013
  0
VERTEX
  8
LAYER1
 10
15.247
 20
67.1543
 30
0
 70
     0
  0
VERTEX
  8
LAYER1
 10
15.0985
 20
67.085
 30
0
 70
     0
  0
SEQEND
  0
POLYLINE
  8
LAYER1
  6
CONTINUOUS
 62
     5
 66
     1
 40
0.013
 41
0.013
  0
VERTEX
  8
LAYER1
 10
15.0985
 20
67.085
 30
0
 70
     0
  0
VERTEX
  8
LAYER1
 10
14.9599
 20
67.0157
 30
0
 70
     0
  0
SEQEND
  0
POLYLINE
  8
LAYER1
  6
CONTINUOUS
 62
     5
 66
     1
 40
0.013
 41
0.013
  0
VERTEX
  8
LAYER1
 10
14.9599
 20
67.0157
 30
0
 70
     0
  0
VERTEX
  8
LAYER1
 10
14.8213
 20
66.9365
 30
0
 70
     0
  0
SEQEND
  0
POLYLINE
  8
LAYER1
  6
CONTINUOUS
 62
     5
 66
     1
 40
0.013
 41
0.013
  0
VERTEX
  8
LAYER1
 10
14.8213
 20
66.9365
 30
0
 70
     0
  0
VERTEX
  8
LAYER1
 10
14.6827
 20
66.8474
 30
0
 70
     0
  0
SEQEND
  0
POLYLINE
  8
LAYER1
  6
CONTINUOUS
 62
     5
 66
     1
 40
0.013
 41
0.013
  0
VERTEX
  8
LAYER1
 10
14.6827
 20
66.8474
 30
0
 70
     0
  0
VERTEX
  8
LAYER1
 10
14.5539
 20
66.7582
 30
0
 70
     0
  0
SEQEND
  0
POLYLINE
  8
LAYER1
  6
CONTINUOUS
 62
     5
 66
     1
 40
0.013
 41
0.013
  0
VERTEX
  8
LAYER1
 10
14.5539
 20
66.7582
 30
0
 70
     0
  0
VERTEX
  8
LAYER1
 10
14.4351
 20
66.6493
 30
0
 70
     0
  0
SEQEND
  0
POLYLINE
  8
LAYER1
  6
CONTINUOUS
 62
     5
 66
     1
 40
0.013
 41
0.013
  0
VERTEX
  8
LAYER1
 10
14.4351
 20
66.6493
 30
0
 70
     0
  0
VERTEX
  8
LAYER1
 10
14.3064
 20
66.5404
 30
0
 70
     0
  0
SEQEND
  0
POLYLINE
  8
LAYER1
  6
CONTINUOUS
 62
     5
 66
     1
 40
0.013
 41
0.013
  0
VERTEX
  8
LAYER1
 10
14.3064
 20
66.5404
 30
0
 70
     0
  0
VERTEX
  8
LAYER1
 10
14.1975
 20
66.4315
 30
0
 70
     0
  0
SEQEND
  0
POLYLINE
  8
LAYER1
  6
CONTINUOUS
 62
     5
 66
     1
 40
0.013
 41
0.013
  0
VERTEX
  8
LAYER1
 10
14.1975
 20
66.4315
 30
0
 70
     0
  0
VERTEX
  8
LAYER1
 10
14.0886
 20
66.3028
 30
0
 70
     0
  0
SEQEND
  0
POLYLINE
  8
LAYER1
  6
CONTINUOUS
 62
     5
 66
     1
 40
0.013
 41
0.013
  0
VERTEX
  8
LAYER1
 10
14.0886
 20
66.3028
 30
0
 70
     0
  0
VERTEX
  8
LAYER1
 10
13.9896
 20
66.1741
 30
0
 70
     0
  0
SEQEND
  0
POLYLINE
  8
LAYER1
  6
CONTINUOUS
 62
     5
 66
     1
 40
0.013
 41
0.013
  0
VERTEX
  8
LAYER1
 10
13.9896
 20
66.1741
 30
0
 70
     0
  0
VERTEX
  8
LAYER1
 10
13.8906
 20
66.0454
 30
0
 70
     0
  0
SEQEND
  0
POLYLINE
  8
LAYER1
  6
CONTINUOUS
 62
     5
 66
     1
 40
0.013
 41
0.013
  0
VERTEX
  8
LAYER1
 10
13.8906
 20
66.0454
 30
0
 70
     0
  0
VERTEX
  8
LAYER1
 10
13.8015
 20
65.9068
 30
0
 70
     0
  0
SEQEND
  0
POLYLINE
  8
LAYER1
  6
CONTINUOUS
 62
     5
 66
     1
 40
0.013
 41
0.013
  0
VERTEX
  8
LAYER1
 10
13.8015
 20
65.9068
 30
0
 70
     0
  0
VERTEX
  8
LAYER1
 10
13.7223
 20
65.7582
 30
0
 70
     0
  0
SEQEND
  0
POLYLINE
  8
LAYER1
  6
CONTINUOUS
 62
     5
 66
     1
 40
0.013
 41
0.013
  0
VERTEX
  8
LAYER1
 10
13.7223
 20
65.7582
 30
0
 70
     0
  0
VERTEX
  8
LAYER1
 10
13.643
 20
65.6196
 30
0
 70
     0
  0
SEQEND
  0
POLYLINE
  8
LAYER1
  6
CONTINUOUS
 62
     5
 66
     1
 40
0.013
 41
0.013
  0
VERTEX
  8
LAYER1
 10
13.643
 20
65.6196
 30
0
 70
     0
  0
VERTEX
  8
LAYER1
 10
13.5737
 20
65.4612
 30
0
 70
     0
  0
SEQEND
  0
POLYLINE
  8
LAYER1
  6
CONTINUOUS
 62
     5
 66
     1
 40
0.013
 41
0.013
  0
VERTEX
  8
LAYER1
 10
13.5737
 20
65.4612
 30
0
 70
     0
  0
VERTEX
  8
LAYER1
 10
13.5143
 20
65.3127
 30
0
 70
     0
  0
SEQEND
  0
POLYLINE
  8
LAYER1
  6
CONTINUOUS
 62
     5
 66
     1
 40
0.013
 41
0.013
  0
VERTEX
  8
LAYER1
 10
13.5143
 20
65.3127
 30
0
 70
     0
  0
VERTEX
  8
LAYER1
 10
13.4648
 20
65.1543
 30
0
 70
     0
  0
SEQEND
  0
POLYLINE
  8
LAYER1
  6
CONTINUOUS
 62
     5
 66
     1
 40
0.013
 41
0.013
  0
VERTEX
  8
LAYER1
 10
13.4648
 20
65.1543
 30
0
 70
     0
  0
VERTEX
  8
LAYER1
 10
13.4252
 20
64.986
 30
0
 70
     0
  0
SEQEND
  0
POLYLINE
  8
LAYER1
  6
CONTINUOUS
 62
     5
 66
     1
 40
0.013
 41
0.013
  0
VERTEX
  8
LAYER1
 10
13.4252
 20
64.986
 30
0
 70
     0
  0
VERTEX
  8
LAYER1
 10
13.3856
 20
64.8275
 30
0
 70
     0
  0
SEQEND
  0
POLYLINE
  8
LAYER1
  6
CONTINUOUS
 62
     5
 66
     1
 40
0.013
 41
0.013
  0
VERTEX
  8
LAYER1
 10
13.3856
 20
64.8275
 30
0
 70
     0
  0
VERTEX
  8
LAYER1
 10
13.3559
 20
64.6592
 30
0
 70
     0
  0
SEQEND
  0
POLYLINE
  8
LAYER1
  6
CONTINUOUS
 62
     5
 66
     1
 40
0.013
 41
0.013
  0
VERTEX
  8
LAYER1
 10
13.3559
 20
64.6592
 30
0
 70
     0
  0
VERTEX
  8
LAYER1
 10
13.3361
 20
64.4909
 30
0
 70
     0
  0
SEQEND
  0
POLYLINE
  8
LAYER1
  6
CONTINUOUS
 62
     5
 66
     1
 40
0.013
 41
0.013
  0
VERTEX
  8
LAYER1
 10
13.3361
 20
64.4909
 30
0
 70
     0
  0
VERTEX
  8
LAYER1
 10
13.3262
 20
64.3226
 30
0
 70
     0
  0
SEQEND
  0
POLYLINE
  8
LAYER1
  6
CONTINUOUS
 62
     5
 66
     1
 40
0.013
 41
0.013
  0
VERTEX
  8
LAYER1
 10
13.3262
 20
64.3226
 30
0
 70
     0
  0
VERTEX
  8
LAYER1
 10
13.3163
 20
64.1543
 30
0
 70
     0
  0
SEQEND
  0
POLYLINE
  8
LAYER1
  6
CONTINUOUS
 62
     5
 66
     1
 40
0.013
 41
0.013
  0
VERTEX
  8
LAYER1
 10
58.3562
 20
11.9164
 30
0
 70
     0
  0
VERTEX
  8
LAYER1
 10
58.3562
 20
56.5404
 30
0
 70
     0
  0
SEQEND
  0
POLYLINE
  8
LAYER1
  6
CONTINUOUS
 62
     5
 66
     1
 40
0.013
 41
0.013
  0
VERTEX
  8
LAYER1
 10
57.2571
 20
11.9164
 30
0
 70
     0
  0
VERTEX
  8
LAYER1
 10
57.2571
 20
56.5404
 30
0
 70
     0
  0
SEQEND
  0
POLYLINE
  8
LAYER1
  6
CONTINUOUS
 62
     5
 66
     1
 40
0.013
 41
0.013
  0
VERTEX
  8
LAYER1
 10
58.3562
 20
11.9164
 30
0
 70
     0
  0
VERTEX
  8
LAYER1
 10
57.2571
 20
11.9164
 30
0
 70
     0
  0
SEQEND
  0
POLYLINE
  8
LAYER1
  6
CONTINUOUS
 62
     5
 66
     1
 40
0.013
 41
0.013
  0
VERTEX
  8
LAYER1
 10
58.3562
 20
56.5404
 30
0
 70
     0
  0
VERTEX
  8
LAYER1
 10
57.2571
 20
56.5404
 30
0
 70
     0
  0
SEQEND
  0
POLYLINE
  8
LAYER1
  6
CONTINUOUS
 62
     5
 66
     1
 40
0.013
 41
0.013
  0
VERTEX
  8
LAYER1
 10
46.5838
 20
3.7579
 30
0
 70
     0
  0
VERTEX
  8
LAYER1
 10
46.5838
 20
9.0946
 30
0
 70
     0
  0
SEQEND
  0
POLYLINE
  8
LAYER1
  6
CONTINUOUS
 62
     5
 66
     1
 40
0.013
 41
0.013
  0
VERTEX
  8
LAYER1
 10
51.0492
 20
3.7579
 30
0
 70
     0
  0
VERTEX
  8
LAYER1
 10
51.0492
 20
9.0946
 30
0
 70
     0
  0
SEQEND
  0
POLYLINE
  8
LAYER1
  6
CONTINUOUS
 62
     5
 66
     1
 40
0.013
 41
0.013
  0
VERTEX
  8
LAYER1
 10
51.0492
 20
9.0946
 30
0
 70
     0
  0
VERTEX
  8
LAYER1
 10
46.5838
 20
9.0946
 30
0
 70
     0
  0
SEQEND
  0
POLYLINE
  8
LAYER1
  6
CONTINUOUS
 62
     5
 66
     1
 40
0.013
 41
0.013
  0
VERTEX
  8
LAYER1
 10
51.0492
 20
3.7579
 30
0
 70
     0
  0
VERTEX
  8
LAYER1
 10
46.5838
 20
3.7579
 30
0
 70
     0
  0
SEQEND
  0
POLYLINE
  8
LAYER1
  6
CONTINUOUS
 62
     5
 66
     1
 40
0.013
 41
0.013
  0
VERTEX
  8
LAYER1
 10
49.4254
 20
4.3916
 30
0
 70
     0
  0
VERTEX
  8
LAYER1
 10
49.4254
 20
8.4807
 30
0
 70
     0
  0
SEQEND
  0
POLYLINE
  8
LAYER1
  6
CONTINUOUS
 62
     5
 66
     1
 40
0.013
 41
0.013
  0
VERTEX
  8
LAYER1
 10
49.4254
 20
8.4807
 30
0
 70
     0
  0
VERTEX
  8
LAYER1
 10
46.5838
 20
8.4807
 30
0
 70
     0
  0
SEQEND
  0
POLYLINE
  8
LAYER1
  6
CONTINUOUS
 62
     5
 66
     1
 40
0.013
 41
0.013
  0
VERTEX
  8
LAYER1
 10
49.4254
 20
4.3916
 30
0
 70
     0
  0
VERTEX
  8
LAYER1
 10
46.5838
 20
4.3916
 30
0
 70
     0
  0
SEQEND
  0
POLYLINE
  8
LAYER1
  6
CONTINUOUS
 62
     5
 66
     1
 40
0.013
 41
0.013
  0
VERTEX
  8
LAYER1
 10
65.0097
 20
-27.262
 30
0
 70
     0
  0
VERTEX
  8
LAYER1
 10
65.0097
 20
0.0054
 30
0
 70
     0
  0
SEQEND
  0
POLYLINE
  8
LAYER1
  6
CONTINUOUS
 62
     5
 66
     1
 40
0.013
 41
0.013
  0
VERTEX
  8
LAYER1
 10
30.1778
 20
-27.262
 30
0
 70
     0
  0
VERTEX
  8
LAYER1
 10
30.1778
 20
0.0054
 30
0
 70
     0
  0
SEQEND
  0
POLYLINE
  8
LAYER1
  6
CONTINUOUS
 62
     5
 66
     1
 40
0.013
 41
0.013
  0
VERTEX
  8
LAYER1
 10
65.0097
 20
-27.262
 30
0
 70
     0
  0
VERTEX
  8
LAYER1
 10
30.1778
 20
-27.262
 30
0
 70
     0
  0
SEQEND
  0
POLYLINE
  8
LAYER1
  6
CONTINUOUS
 62
     5
 66
     1
 40
0.013
 41
0.013
  0
VERTEX
  8
LAYER1
 10
30.1778
 20
-11.361
 30
0
 70
     0
  0
VERTEX
  8
LAYER1
 10
19.2283
 20
-11.361
 30
0
 70
     0
  0
SEQEND
  0
POLYLINE
  8
LAYER1
  6
CONTINUOUS
 62
     5
 66
     1
 40
0.013
 41
0.013
  0
VERTEX
  8
LAYER1
 10
55.9304
 20
-5.1035
 30
0
 70
     0
  0
VERTEX
  8
LAYER1
 10
39.3858
 20
-5.1035
 30
0
 70
     0
  0
SEQEND
  0
POLYLINE
  8
LAYER1
  6
CONTINUOUS
 62
     5
 66
     1
 40
0.013
 41
0.013
  0
VERTEX
  8
LAYER1
 10
55.9304
 20
-16.5095
 30
0
 70
     0
  0
VERTEX
  8
LAYER1
 10
39.3858
 20
-16.5095
 30
0
 70
     0
  0
SEQEND
  0
POLYLINE
  8
LAYER1
  6
CONTINUOUS
 62
     5
 66
     1
 40
0.013
 41
0.013
  0
VERTEX
  8
LAYER1
 10
39.3858
 20
-16.5095
 30
0
 70
     0
  0
VERTEX
  8
LAYER1
 10
39.3858
 20
-5.1035
 30
0
 70
     0
  0
SEQEND
  0
POLYLINE
  8
LAYER1
  6
CONTINUOUS
 62
     5
 66
     1
 40
0.013
 41
0.013
  0
VERTEX
  8
LAYER1
 10
55.9304
 20
-16.5095
 30
0
 70
     0
  0
VERTEX
  8
LAYER1
 10
55.9304
 20
-5.1035
 30
0
 70
     0
  0
SEQEND
  0
POLYLINE
  8
LAYER1
  6
CONTINUOUS
 62
     5
 66
     1
 40
0.013
 41
0.013
  0
VERTEX
  8
LAYER1
 10
65.0097
 20
-27.262
 30
0
 70
     0
  0
VERTEX
  8
LAYER1
 10
65.178
 20
-26.6581
 30
0
 70
     0
  0
SEQEND
  0
POLYLINE
  8
LAYER1
  6
CONTINUOUS
 62
     5
 66
     1
 40
0.013
 41
0.013
  0
VERTEX
  8
LAYER1
 10
65.178
 20
-26.6581
 30
0
 70
     0
  0
VERTEX
  8
LAYER1
 10
65.3463
 20
-26.0541
 30
0
 70
     0
  0
SEQEND
  0
POLYLINE
  8
LAYER1
  6
CONTINUOUS
 62
     5
 66
     1
 40
0.013
 41
0.013
  0
VERTEX
  8
LAYER1
 10
65.3463
 20
-26.0541
 30
0
 70
     0
  0
VERTEX
  8
LAYER1
 10
65.5047
 20
-25.4502
 30
0
 70
     0
  0
SEQEND
  0
POLYLINE
  8
LAYER1
  6
CONTINUOUS
 62
     5
 66
     1
 40
0.013
 41
0.013
  0
VERTEX
  8
LAYER1
 10
65.5047
 20
-25.4502
 30
0
 70
     0
  0
VERTEX
  8
LAYER1
 10
65.6631
 20
-24.8462
 30
0
 70
     0
  0
SEQEND
  0
POLYLINE
  8
LAYER1
  6
CONTINUOUS
 62
     5
 66
     1
 40
0.013
 41
0.013
  0
VERTEX
  8
LAYER1
 10
65.6631
 20
-24.8462
 30
0
 70
     0
  0
VERTEX
  8
LAYER1
 10
65.8017
 20
-24.2323
 30
0
 70
     0
  0
SEQEND
  0
POLYLINE
  8
LAYER1
  6
CONTINUOUS
 62
     5
 66
     1
 40
0.013
 41
0.013
  0
VERTEX
  8
LAYER1
 10
65.8017
 20
-24.2323
 30
0
 70
     0
  0
VERTEX
  8
LAYER1
 10
65.9403
 20
-23.6185
 30
0
 70
     0
  0
SEQEND
  0
POLYLINE
  8
LAYER1
  6
CONTINUOUS
 62
     5
 66
     1
 40
0.013
 41
0.013
  0
VERTEX
  8
LAYER1
 10
65.9403
 20
-23.6185
 30
0
 70
     0
  0
VERTEX
  8
LAYER1
 10
66.0691
 20
-23.0046
 30
0
 70
     0
  0
SEQEND
  0
POLYLINE
  8
LAYER1
  6
CONTINUOUS
 62
     5
 66
     1
 40
0.013
 41
0.013
  0
VERTEX
  8
LAYER1
 10
66.0691
 20
-23.0046
 30
0
 70
     0
  0
VERTEX
  8
LAYER1
 10
66.1879
 20
-22.3907
 30
0
 70
     0
  0
SEQEND
  0
POLYLINE
  8
LAYER1
  6
CONTINUOUS
 62
     5
 66
     1
 40
0.013
 41
0.013
  0
VERTEX
  8
LAYER1
 10
66.1879
 20
-22.3907
 30
0
 70
     0
  0
VERTEX
  8
LAYER1
 10
66.2968
 20
-21.767
 30
0
 70
     0
  0
SEQEND
  0
POLYLINE
  8
LAYER1
  6
CONTINUOUS
 62
     5
 66
     1
 40
0.013
 41
0.013
  0
VERTEX
  8
LAYER1
 10
66.2968
 20
-21.767
 30
0
 70
     0
  0
VERTEX
  8
LAYER1
 10
66.4057
 20
-21.1531
 30
0
 70
     0
  0
SEQEND
  0
POLYLINE
  8
LAYER1
  6
CONTINUOUS
 62
     5
 66
     1
 40
0.013
 41
0.013
  0
VERTEX
  8
LAYER1
 10
66.4057
 20
-21.1531
 30
0
 70
     0
  0
VERTEX
  8
LAYER1
 10
66.4948
 20
-20.5293
 30
0
 70
     0
  0
SEQEND
  0
POLYLINE
  8
LAYER1
  6
CONTINUOUS
 62
     5
 66
     1
 40
0.013
 41
0.013
  0
VERTEX
  8
LAYER1
 10
66.4948
 20
-20.5293
 30
0
 70
     0
  0
VERTEX
  8
LAYER1
 10
66.5839
 20
-19.9056
 30
0
 70
     0
  0
SEQEND
  0
POLYLINE
  8
LAYER1
  6
CONTINUOUS
 62
     5
 66
     1
 40
0.013
 41
0.013
  0
VERTEX
  8
LAYER1
 10
66.5839
 20
-19.9056
 30
0
 70
     0
  0
VERTEX
  8
LAYER1
 10
66.6631
 20
-19.2818
 30
0
 70
     0
  0
SEQEND
  0
POLYLINE
  8
LAYER1
  6
CONTINUOUS
 62
     5
 66
     1
 40
0.013
 41
0.013
  0
VERTEX
  8
LAYER1
 10
66.6631
 20
-19.2818
 30
0
 70
     0
  0
VERTEX
  8
LAYER1
 10
66.7324
 20
-18.658
 30
0
 70
     0
  0
SEQEND
  0
POLYLINE
  8
LAYER1
  6
CONTINUOUS
 62
     5
 66
     1
 40
0.013
 41
0.013
  0
VERTEX
  8
LAYER1
 10
66.7324
 20
-18.658
 30
0
 70
     0
  0
VERTEX
  8
LAYER1
 10
66.7918
 20
-18.0343
 30
0
 70
     0
  0
SEQEND
  0
POLYLINE
  8
LAYER1
  6
CONTINUOUS
 62
     5
 66
     1
 40
0.013
 41
0.013
  0
VERTEX
  8
LAYER1
 10
66.7918
 20
-18.0343
 30
0
 70
     0
  0
VERTEX
  8
LAYER1
 10
66.8512
 20
-17.4006
 30
0
 70
     0
  0
SEQEND
  0
POLYLINE
  8
LAYER1
  6
CONTINUOUS
 62
     5
 66
     1
 40
0.013
 41
0.013
  0
VERTEX
  8
LAYER1
 10
66.8512
 20
-17.4006
 30
0
 70
     0
  0
VERTEX
  8
LAYER1
 10
66.8908
 20
-16.7768
 30
0
 70
     0
  0
SEQEND
  0
POLYLINE
  8
LAYER1
  6
CONTINUOUS
 62
     5
 66
     1
 40
0.013
 41
0.013
  0
VERTEX
  8
LAYER1
 10
66.8908
 20
-16.7768
 30
0
 70
     0
  0
VERTEX
  8
LAYER1
 10
66.9305
 20
-16.1432
 30
0
 70
     0
  0
SEQEND
  0
POLYLINE
  8
LAYER1
  6
CONTINUOUS
 62
     5
 66
     1
 40
0.013
 41
0.013
  0
VERTEX
  8
LAYER1
 10
66.9305
 20
-16.1432
 30
0
 70
     0
  0
VERTEX
  8
LAYER1
 10
66.9602
 20
-15.5194
 30
0
 70
     0
  0
SEQEND
  0
POLYLINE
  8
LAYER1
  6
CONTINUOUS
 62
     5
 66
     1
 40
0.013
 41
0.013
  0
VERTEX
  8
LAYER1
 10
66.9602
 20
-15.5194
 30
0
 70
     0
  0
VERTEX
  8
LAYER1
 10
66.98
 20
-14.8857
 30
0
 70
     0
  0
SEQEND
  0
POLYLINE
  8
LAYER1
  6
CONTINUOUS
 62
     5
 66
     1
 40
0.013
 41
0.013
  0
VERTEX
  8
LAYER1
 10
66.98
 20
-14.8857
 30
0
 70
     0
  0
VERTEX
  8
LAYER1
 10
66.9899
 20
-14.262
 30
0
 70
     0
  0
SEQEND
  0
POLYLINE
  8
LAYER1
  6
CONTINUOUS
 62
     5
 66
     1
 40
0.013
 41
0.013
  0
VERTEX
  8
LAYER1
 10
66.9899
 20
-14.262
 30
0
 70
     0
  0
VERTEX
  8
LAYER1
 10
66.9998
 20
-13.6283
 30
0
 70
     0
  0
SEQEND
  0
POLYLINE
  8
LAYER1
  6
CONTINUOUS
 62
     5
 66
     1
 40
0.013
 41
0.013
  0
VERTEX
  8
LAYER1
 10
66.9998
 20
-13.6283
 30
0
 70
     0
  0
VERTEX
  8
LAYER1
 10
66.9899
 20
-13.0045
 30
0
 70
     0
  0
SEQEND
  0
POLYLINE
  8
LAYER1
  6
CONTINUOUS
 62
     5
 66
     1
 40
0.013
 41
0.013
  0
VERTEX
  8
LAYER1
 10
66.9899
 20
-13.0045
 30
0
 70
     0
  0
VERTEX
  8
LAYER1
 10
66.98
 20
-12.3709
 30
0
 70
     0
  0
SEQEND
  0
POLYLINE
  8
LAYER1
  6
CONTINUOUS
 62
     5
 66
     1
 40
0.013
 41
0.013
  0
VERTEX
  8
LAYER1
 10
66.98
 20
-12.3709
 30
0
 70
     0
  0
VERTEX
  8
LAYER1
 10
66.9602
 20
-11.7372
 30
0
 70
     0
  0
SEQEND
  0
POLYLINE
  8
LAYER1
  6
CONTINUOUS
 62
     5
 66
     1
 40
0.013
 41
0.013
  0
VERTEX
  8
LAYER1
 10
66.9602
 20
-11.7372
 30
0
 70
     0
  0
VERTEX
  8
LAYER1
 10
66.9305
 20
-11.1134
 30
0
 70
     0
  0
SEQEND
  0
POLYLINE
  8
LAYER1
  6
CONTINUOUS
 62
     5
 66
     1
 40
0.013
 41
0.013
  0
VERTEX
  8
LAYER1
 10
66.9305
 20
-11.1134
 30
0
 70
     0
  0
VERTEX
  8
LAYER1
 10
66.8908
 20
-10.4798
 30
0
 70
     0
  0
SEQEND
  0
POLYLINE
  8
LAYER1
  6
CONTINUOUS
 62
     5
 66
     1
 40
0.013
 41
0.013
  0
VERTEX
  8
LAYER1
 10
66.8908
 20
-10.4798
 30
0
 70
     0
  0
VERTEX
  8
LAYER1
 10
66.8512
 20
-9.856
 30
0
 70
     0
  0
SEQEND
  0
POLYLINE
  8
LAYER1
  6
CONTINUOUS
 62
     5
 66
     1
 40
0.013
 41
0.013
  0
VERTEX
  8
LAYER1
 10
66.8512
 20
-9.856
 30
0
 70
     0
  0
VERTEX
  8
LAYER1
 10
66.7918
 20
-9.2322
 30
0
 70
     0
  0
SEQEND
  0
POLYLINE
  8
LAYER1
  6
CONTINUOUS
 62
     5
 66
     1
 40
0.013
 41
0.013
  0
VERTEX
  8
LAYER1
 10
66.7918
 20
-9.2322
 30
0
 70
     0
  0
VERTEX
  8
LAYER1
 10
66.7324
 20
-8.6085
 30
0
 70
     0
  0
SEQEND
  0
POLYLINE
  8
LAYER1
  6
CONTINUOUS
 62
     5
 66
     1
 40
0.013
 41
0.013
  0
VERTEX
  8
LAYER1
 10
66.7324
 20
-8.6085
 30
0
 70
     0
  0
VERTEX
  8
LAYER1
 10
66.6631
 20
-7.9748
 30
0
 70
     0
  0
SEQEND
  0
POLYLINE
  8
LAYER1
  6
CONTINUOUS
 62
     5
 66
     1
 40
0.013
 41
0.013
  0
VERTEX
  8
LAYER1
 10
66.6631
 20
-7.9748
 30
0
 70
     0
  0
VERTEX
  8
LAYER1
 10
66.5839
 20
-7.3511
 30
0
 70
     0
  0
SEQEND
  0
POLYLINE
  8
LAYER1
  6
CONTINUOUS
 62
     5
 66
     1
 40
0.013
 41
0.013
  0
VERTEX
  8
LAYER1
 10
66.5839
 20
-7.3511
 30
0
 70
     0
  0
VERTEX
  8
LAYER1
 10
66.4948
 20
-6.7273
 30
0
 70
     0
  0
SEQEND
  0
POLYLINE
  8
LAYER1
  6
CONTINUOUS
 62
     5
 66
     1
 40
0.013
 41
0.013
  0
VERTEX
  8
LAYER1
 10
66.4948
 20
-6.7273
 30
0
 70
     0
  0
VERTEX
  8
LAYER1
 10
66.4057
 20
-6.1134
 30
0
 70
     0
  0
SEQEND
  0
POLYLINE
  8
LAYER1
  6
CONTINUOUS
 62
     5
 66
     1
 40
0.013
 41
0.013
  0
VERTEX
  8
LAYER1
 10
66.4057
 20
-6.1134
 30
0
 70
     0
  0
VERTEX
  8
LAYER1
 10
66.2968
 20
-5.4897
 30
0
 70
     0
  0
SEQEND
  0
POLYLINE
  8
LAYER1
  6
CONTINUOUS
 62
     5
 66
     1
 40
0.013
 41
0.013
  0
VERTEX
  8
LAYER1
 10
66.2968
 20
-5.4897
 30
0
 70
     0
  0
VERTEX
  8
LAYER1
 10
66.1879
 20
-4.8758
 30
0
 70
     0
  0
SEQEND
  0
POLYLINE
  8
LAYER1
  6
CONTINUOUS
 62
     5
 66
     1
 40
0.013
 41
0.013
  0
VERTEX
  8
LAYER1
 10
66.1879
 20
-4.8758
 30
0
 70
     0
  0
VERTEX
  8
LAYER1
 10
66.0691
 20
-4.252
 30
0
 70
     0
  0
SEQEND
  0
POLYLINE
  8
LAYER1
  6
CONTINUOUS
 62
     5
 66
     1
 40
0.013
 41
0.013
  0
VERTEX
  8
LAYER1
 10
66.0691
 20
-4.252
 30
0
 70
     0
  0
VERTEX
  8
LAYER1
 10
65.9403
 20
-3.6382
 30
0
 70
     0
  0
SEQEND
  0
POLYLINE
  8
LAYER1
  6
CONTINUOUS
 62
     5
 66
     1
 40
0.013
 41
0.013
  0
VERTEX
  8
LAYER1
 10
65.9403
 20
-3.6382
 30
0
 70
     0
  0
VERTEX
  8
LAYER1
 10
65.8017
 20
-3.0243
 30
0
 70
     0
  0
SEQEND
  0
POLYLINE
  8
LAYER1
  6
CONTINUOUS
 62
     5
 66
     1
 40
0.013
 41
0.013
  0
VERTEX
  8
LAYER1
 10
65.8017
 20
-3.0243
 30
0
 70
     0
  0
VERTEX
  8
LAYER1
 10
65.6631
 20
-2.4203
 30
0
 70
     0
  0
SEQEND
  0
POLYLINE
  8
LAYER1
  6
CONTINUOUS
 62
     5
 66
     1
 40
0.013
 41
0.013
  0
VERTEX
  8
LAYER1
 10
65.6631
 20
-2.4203
 30
0
 70
     0
  0
VERTEX
  8
LAYER1
 10
65.5047
 20
-1.8065
 30
0
 70
     0
  0
SEQEND
  0
POLYLINE
  8
LAYER1
  6
CONTINUOUS
 62
     5
 66
     1
 40
0.013
 41
0.013
  0
VERTEX
  8
LAYER1
 10
65.5047
 20
-1.8065
 30
0
 70
     0
  0
VERTEX
  8
LAYER1
 10
65.3463
 20
-1.2025
 30
0
 70
     0
  0
SEQEND
  0
POLYLINE
  8
LAYER1
  6
CONTINUOUS
 62
     5
 66
     1
 40
0.013
 41
0.013
  0
VERTEX
  8
LAYER1
 10
65.3463
 20
-1.2025
 30
0
 70
     0
  0
VERTEX
  8
LAYER1
 10
65.178
 20
-0.5985
 30
0
 70
     0
  0
SEQEND
  0
POLYLINE
  8
LAYER1
  6
CONTINUOUS
 62
     5
 66
     1
 40
0.013
 41
0.013
  0
VERTEX
  8
LAYER1
 10
65.178
 20
-0.5985
 30
0
 70
     0
  0
VERTEX
  8
LAYER1
 10
65.0097
 20
0.0054
 30
0
 70
     0
  0
SEQEND
  0
POLYLINE
  8
LAYER1
  6
CONTINUOUS
 62
     5
 66
     1
 40
0.013
 41
0.013
  0
VERTEX
  8
LAYER1
 10
90.6236
 20
-11.361
 30
0
 70
     0
  0
VERTEX
  8
LAYER1
 10
80.2177
 20
-11.361
 30
0
 70
     0
  0
SEQEND
  0
POLYLINE
  8
LAYER1
  6
CONTINUOUS
 62
     5
 66
     1
 40
0.013
 41
0.013
  0
VERTEX
  8
LAYER1
 10
132.797
 20
0.0054
 30
0
 70
     0
  0
VERTEX
  8
LAYER1
 10
21.3659
 20
0.0054
 30
0
 70
     0
  0
SEQEND
  0
POLYLINE
  8
LAYER1
  6
CONTINUOUS
 62
     5
 66
     1
 40
0.013
 41
0.013
  0
VERTEX
  8
LAYER1
 10
73.5443
 20
58.6295
 30
0
 70
     0
  0
VERTEX
  8
LAYER1
 10
63.3661
 20
58.6295
 30
0
 70
     0
  0
SEQEND
  0
POLYLINE
  8
LAYER1
  6
CONTINUOUS
 62
     5
 66
     1
 40
0.013
 41
0.013
  0
VERTEX
  8
LAYER1
 10
71.8909
 20
58.6295
 30
0
 70
     0
  0
VERTEX
  8
LAYER1
 10
71.8909
 20
81.0256
 30
0
 70
     0
  0
SEQEND
  0
POLYLINE
  8
LAYER1
  6
CONTINUOUS
 62
     5
 66
     1
 40
0.013
 41
0.013
  0
VERTEX
  8
LAYER1
 10
71.8909
 20
81.0256
 30
0
 70
     0
  0
VERTEX
  8
LAYER1
 10
65.277
 20
81.0256
 30
0
 70
     0
  0
SEQEND
  0
POLYLINE
  8
LAYER1
  6
CONTINUOUS
 62
     5
 66
     1
 40
0.013
 41
0.013
  0
VERTEX
  8
LAYER1
 10
65.277
 20
58.6295
 30
0
 70
     0
  0
VERTEX
  8
LAYER1
 10
65.277
 20
81.0256
 30
0
 70
     0
  0
SEQEND
  0
POLYLINE
  8
LAYER1
  6
CONTINUOUS
 62
     5
 66
     1
 40
0.013
 41
0.013
  0
VERTEX
  8
LAYER1
 10
73.5443
 20
0.0054
 30
0
 70
     0
  0
VERTEX
  8
LAYER1
 10
73.5443
 20
58.6295
 30
0
 70
     0
  0
SEQEND
  0
POLYLINE
  8
LAYER1
  6
CONTINUOUS
 62
     5
 66
     1
 40
0.013
 41
0.013
  0
VERTEX
  8
LAYER1
 10
7.8588
 20
-1.4841
 30
0
 70
     0
  0
VERTEX
  8
LAYER1
 10
21.049
 20
-0.0342
 30
0
 70
     0
  0
SEQEND
  0
POLYLINE
  8
LAYER1
  6
CONTINUOUS
 62
     5
 66
     1
 40
0.013
 41
0.013
  0
VERTEX
  8
LAYER1
 10
8.0094
 20
9.8669
 30
0
 70
     0
  0
VERTEX
  8
LAYER1
 10
8.0094
 20
41.8571
 30
0
 70
     0
  0
SEQEND
  0
POLYLINE
  8
LAYER1
  6
CONTINUOUS
 62
     5
 66
     1
 40
0.013
 41
0.013
  0
VERTEX
  8
LAYER1
 10
12.4846
 20
6.2035
 30
0
 70
     0
  0
VERTEX
  8
LAYER1
 10
18.2272
 20
-0.6579
 30
0
 70
     0
  0
SEQEND
  0
POLYLINE
  8
LAYER1
  6
CONTINUOUS
 62
     5
 66
     1
 40
0.013
 41
0.013
  0
VERTEX
  8
LAYER1
 10
12.4846
 20
6.2035
 30
0
 70
     0
  0
VERTEX
  8
LAYER1
 10
12.247
 20
6.4807
 30
0
 70
     0
  0
SEQEND
  0
POLYLINE
  8
LAYER1
  6
CONTINUOUS
 62
     5
 66
     1
 40
0.013
 41
0.013
  0
VERTEX
  8
LAYER1
 10
12.247
 20
6.4807
 30
0
 70
     0
  0
VERTEX
  8
LAYER1
 10
11.9995
 20
6.7579
 30
0
 70
     0
  0
SEQEND
  0
POLYLINE
  8
LAYER1
  6
CONTINUOUS
 62
     5
 66
     1
 40
0.013
 41
0.013
  0
VERTEX
  8
LAYER1
 10
11.9995
 20
6.7579
 30
0
 70
     0
  0
VERTEX
  8
LAYER1
 10
11.7519
 20
7.0154
 30
0
 70
     0
  0
SEQEND
  0
POLYLINE
  8
LAYER1
  6
CONTINUOUS
 62
     5
 66
     1
 40
0.013
 41
0.013
  0
VERTEX
  8
LAYER1
 10
11.7519
 20
7.0154
 30
0
 70
     0
  0
VERTEX
  8
LAYER1
 10
11.4945
 20
7.2728
 30
0
 70
     0
  0
SEQEND
  0
POLYLINE
  8
LAYER1
  6
CONTINUOUS
 62
     5
 66
     1
 40
0.013
 41
0.013
  0
VERTEX
  8
LAYER1
 10
11.4945
 20
7.2728
 30
0
 70
     0
  0
VERTEX
  8
LAYER1
 10
11.2371
 20
7.5302
 30
0
 70
     0
  0
SEQEND
  0
POLYLINE
  8
LAYER1
  6
CONTINUOUS
 62
     5
 66
     1
 40
0.013
 41
0.013
  0
VERTEX
  8
LAYER1
 10
11.2371
 20
7.5302
 30
0
 70
     0
  0
VERTEX
  8
LAYER1
 10
10.9698
 20
7.7777
 30
0
 70
     0
  0
SEQEND
  0
POLYLINE
  8
LAYER1
  6
CONTINUOUS
 62
     5
 66
     1
 40
0.013
 41
0.013
  0
VERTEX
  8
LAYER1
 10
10.9698
 20
7.7777
 30
0
 70
     0
  0
VERTEX
  8
LAYER1
 10
10.7024
 20
8.0154
 30
0
 70
     0
  0
SEQEND
  0
POLYLINE
  8
LAYER1
  6
CONTINUOUS
 62
     5
 66
     1
 40
0.013
 41
0.013
  0
VERTEX
  8
LAYER1
 10
10.7024
 20
8.0154
 30
0
 70
     0
  0
VERTEX
  8
LAYER1
 10
10.4252
 20
8.2431
 30
0
 70
     0
  0
SEQEND
  0
POLYLINE
  8
LAYER1
  6
CONTINUOUS
 62
     5
 66
     1
 40
0.013
 41
0.013
  0
VERTEX
  8
LAYER1
 10
10.4252
 20
8.2431
 30
0
 70
     0
  0
VERTEX
  8
LAYER1
 10
10.148
 20
8.4708
 30
0
 70
     0
  0
SEQEND
  0
POLYLINE
  8
LAYER1
  6
CONTINUOUS
 62
     5
 66
     1
 40
0.013
 41
0.013
  0
VERTEX
  8
LAYER1
 10
10.148
 20
8.4708
 30
0
 70
     0
  0
VERTEX
  8
LAYER1
 10
9.8608
 20
8.6886
 30
0
 70
     0
  0
SEQEND
  0
POLYLINE
  8
LAYER1
  6
CONTINUOUS
 62
     5
 66
     1
 40
0.013
 41
0.013
  0
VERTEX
  8
LAYER1
 10
9.8608
 20
8.6886
 30
0
 70
     0
  0
VERTEX
  8
LAYER1
 10
9.5737
 20
8.8966
 30
0
 70
     0
  0
SEQEND
  0
POLYLINE
  8
LAYER1
  6
CONTINUOUS
 62
     5
 66
     1
 40
0.013
 41
0.013
  0
VERTEX
  8
LAYER1
 10
9.5737
 20
8.8966
 30
0
 70
     0
  0
VERTEX
  8
LAYER1
 10
9.2767
 20
9.1045
 30
0
 70
     0
  0
SEQEND
  0
POLYLINE
  8
LAYER1
  6
CONTINUOUS
 62
     5
 66
     1
 40
0.013
 41
0.013
  0
VERTEX
  8
LAYER1
 10
9.2767
 20
9.1045
 30
0
 70
     0
  0
VERTEX
  8
LAYER1
 10
8.9797
 20
9.2926
 30
0
 70
     0
  0
SEQEND
  0
POLYLINE
  8
LAYER1
  6
CONTINUOUS
 62
     5
 66
     1
 40
0.013
 41
0.013
  0
VERTEX
  8
LAYER1
 10
8.9797
 20
9.2926
 30
0
 70
     0
  0
VERTEX
  8
LAYER1
 10
8.6727
 20
9.4807
 30
0
 70
     0
  0
SEQEND
  0
POLYLINE
  8
LAYER1
  6
CONTINUOUS
 62
     5
 66
     1
 40
0.013
 41
0.013
  0
VERTEX
  8
LAYER1
 10
8.6727
 20
9.4807
 30
0
 70
     0
  0
VERTEX
  8
LAYER1
 10
8.3658
 20
9.6688
 30
0
 70
     0
  0
SEQEND
  0
POLYLINE
  8
LAYER1
  6
CONTINUOUS
 62
     5
 66
     1
 40
0.013
 41
0.013
  0
VERTEX
  8
LAYER1
 10
8.3658
 20
9.6688
 30
0
 70
     0
  0
VERTEX
  8
LAYER1
 10
8.0589
 20
9.8372
 30
0
 70
     0
  0
SEQEND
  0
POLYLINE
  8
LAYER1
  6
CONTINUOUS
 62
     5
 66
     1
 40
0.013
 41
0.013
  0
VERTEX
  8
LAYER1
 10
8.0589
 20
9.8372
 30
0
 70
     0
  0
VERTEX
  8
LAYER1
 10
7.742
 20
10.0055
 30
0
 70
     0
  0
SEQEND
  0
POLYLINE
  8
LAYER1
  6
CONTINUOUS
 62
     5
 66
     1
 40
0.013
 41
0.013
  0
VERTEX
  8
LAYER1
 10
7.742
 20
10.0055
 30
0
 70
     0
  0
VERTEX
  8
LAYER1
 10
7.4252
 20
10.154
 30
0
 70
     0
  0
SEQEND
  0
POLYLINE
  8
LAYER1
  6
CONTINUOUS
 62
     5
 66
     1
 40
0.013
 41
0.013
  0
VERTEX
  8
LAYER1
 10
7.4252
 20
10.154
 30
0
 70
     0
  0
VERTEX
  8
LAYER1
 10
7.0985
 20
10.3124
 30
0
 70
     0
  0
SEQEND
  0
POLYLINE
  8
LAYER1
  6
CONTINUOUS
 62
     5
 66
     1
 40
0.013
 41
0.013
  0
VERTEX
  8
LAYER1
 10
7.0985
 20
10.3124
 30
0
 70
     0
  0
VERTEX
  8
LAYER1
 10
6.7717
 20
10.451
 30
0
 70
     0
  0
SEQEND
  0
POLYLINE
  8
LAYER1
  6
CONTINUOUS
 62
     5
 66
     1
 40
0.013
 41
0.013
  0
VERTEX
  8
LAYER1
 10
6.7717
 20
10.451
 30
0
 70
     0
  0
VERTEX
  8
LAYER1
 10
6.445
 20
10.5797
 30
0
 70
     0
  0
SEQEND
  0
POLYLINE
  8
LAYER1
  6
CONTINUOUS
 62
     5
 66
     1
 40
0.013
 41
0.013
  0
VERTEX
  8
LAYER1
 10
6.445
 20
10.5797
 30
0
 70
     0
  0
VERTEX
  8
LAYER1
 10
6.1183
 20
10.7084
 30
0
 70
     0
  0
SEQEND
  0
POLYLINE
  8
LAYER1
  6
CONTINUOUS
 62
     5
 66
     1
 40
0.013
 41
0.013
  0
VERTEX
  8
LAYER1
 10
6.1183
 20
10.7084
 30
0
 70
     0
  0
VERTEX
  8
LAYER1
 10
5.7816
 20
10.8273
 30
0
 70
     0
  0
SEQEND
  0
POLYLINE
  8
LAYER1
  6
CONTINUOUS
 62
     5
 66
     1
 40
0.013
 41
0.013
  0
VERTEX
  8
LAYER1
 10
5.7816
 20
10.8273
 30
0
 70
     0
  0
VERTEX
  8
LAYER1
 10
5.445
 20
10.9263
 30
0
 70
     0
  0
SEQEND
  0
POLYLINE
  8
LAYER1
  6
CONTINUOUS
 62
     5
 66
     1
 40
0.013
 41
0.013
  0
VERTEX
  8
LAYER1
 10
5.445
 20
10.9263
 30
0
 70
     0
  0
VERTEX
  8
LAYER1
 10
5.1083
 20
11.0253
 30
0
 70
     0
  0
SEQEND
  0
POLYLINE
  8
LAYER1
  6
CONTINUOUS
 62
     5
 66
     1
 40
0.013
 41
0.013
  0
VERTEX
  8
LAYER1
 10
5.1083
 20
11.0253
 30
0
 70
     0
  0
VERTEX
  8
LAYER1
 10
4.7717
 20
11.1243
 30
0
 70
     0
  0
SEQEND
  0
POLYLINE
  8
LAYER1
  6
CONTINUOUS
 62
     5
 66
     1
 40
0.013
 41
0.013
  0
VERTEX
  8
LAYER1
 10
4.7717
 20
11.1243
 30
0
 70
     0
  0
VERTEX
  8
LAYER1
 10
4.4252
 20
11.2035
 30
0
 70
     0
  0
SEQEND
  0
POLYLINE
  8
LAYER1
  6
CONTINUOUS
 62
     5
 66
     1
 40
0.013
 41
0.013
  0
VERTEX
  8
LAYER1
 10
4.4252
 20
11.2035
 30
0
 70
     0
  0
VERTEX
  8
LAYER1
 10
4.0885
 20
11.2728
 30
0
 70
     0
  0
SEQEND
  0
POLYLINE
  8
LAYER1
  6
CONTINUOUS
 62
     5
 66
     1
 40
0.013
 41
0.013
  0
VERTEX
  8
LAYER1
 10
4.0885
 20
11.2728
 30
0
 70
     0
  0
VERTEX
  8
LAYER1
 10
3.742
 20
11.3421
 30
0
 70
     0
  0
SEQEND
  0
POLYLINE
  8
LAYER1
  6
CONTINUOUS
 62
     5
 66
     1
 40
0.013
 41
0.013
  0
VERTEX
  8
LAYER1
 10
3.742
 20
11.3421
 30
0
 70
     0
  0
VERTEX
  8
LAYER1
 10
3.3955
 20
11.4015
 30
0
 70
     0
  0
SEQEND
  0
POLYLINE
  8
LAYER1
  6
CONTINUOUS
 62
     5
 66
     1
 40
0.013
 41
0.013
  0
VERTEX
  8
LAYER1
 10
3.3955
 20
11.4015
 30
0
 70
     0
  0
VERTEX
  8
LAYER1
 10
3.0489
 20
11.451
 30
0
 70
     0
  0
SEQEND
  0
POLYLINE
  8
LAYER1
  6
CONTINUOUS
 62
     5
 66
     1
 40
0.013
 41
0.013
  0
VERTEX
  8
LAYER1
 10
3.0489
 20
11.451
 30
0
 70
     0
  0
VERTEX
  8
LAYER1
 10
2.7024
 20
11.4906
 30
0
 70
     0
  0
SEQEND
  0
POLYLINE
  8
LAYER1
  6
CONTINUOUS
 62
     5
 66
     1
 40
0.013
 41
0.013
  0
VERTEX
  8
LAYER1
 10
2.7024
 20
11.4906
 30
0
 70
     0
  0
VERTEX
  8
LAYER1
 10
2.346
 20
11.5203
 30
0
 70
     0
  0
SEQEND
  0
POLYLINE
  8
LAYER1
  6
CONTINUOUS
 62
     5
 66
     1
 40
0.013
 41
0.013
  0
VERTEX
  8
LAYER1
 10
2.346
 20
11.5203
 30
0
 70
     0
  0
VERTEX
  8
LAYER1
 10
1.9994
 20
11.5401
 30
0
 70
     0
  0
SEQEND
  0
POLYLINE
  8
LAYER1
  6
CONTINUOUS
 62
     5
 66
     1
 40
0.013
 41
0.013
  0
VERTEX
  8
LAYER1
 10
1.9994
 20
11.5401
 30
0
 70
     0
  0
VERTEX
  8
LAYER1
 10
1.6529
 20
11.55
 30
0
 70
     0
  0
SEQEND
  0
POLYLINE
  8
LAYER1
  6
CONTINUOUS
 62
     5
 66
     1
 40
0.013
 41
0.013
  0
VERTEX
  8
LAYER1
 10
1.6529
 20
11.55
 30
0
 70
     0
  0
VERTEX
  8
LAYER1
 10
1.2964
 20
11.5599
 30
0
 70
     0
  0
SEQEND
  0
POLYLINE
  8
LAYER1
  6
CONTINUOUS
 62
     5
 66
     1
 40
0.013
 41
0.013
  0
VERTEX
  8
LAYER1
 10
8.0094
 20
21.2531
 30
0
 70
     0
  0
VERTEX
  8
LAYER1
 10
-9.3076
 20
21.2531
 30
0
 70
     0
  0
SEQEND
  0
POLYLINE
  8
LAYER1
  6
CONTINUOUS
 62
     5
 66
     1
 40
0.013
 41
0.013
  0
VERTEX
  8
LAYER1
 10
-15.7333
 20
24.7184
 30
0
 70
     0
  0
VERTEX
  8
LAYER1
 10
-15.5749
 20
24.5006
 30
0
 70
     0
  0
SEQEND
  0
POLYLINE
  8
LAYER1
  6
CONTINUOUS
 62
     5
 66
     1
 40
0.013
 41
0.013
  0
VERTEX
  8
LAYER1
 10
-15.5749
 20
24.5006
 30
0
 70
     0
  0
VERTEX
  8
LAYER1
 10
-15.4165
 20
24.2828
 30
0
 70
     0
  0
SEQEND
  0
POLYLINE
  8
LAYER1
  6
CONTINUOUS
 62
     5
 66
     1
 40
0.013
 41
0.013
  0
VERTEX
  8
LAYER1
 10
-15.4165
 20
24.2828
 30
0
 70
     0
  0
VERTEX
  8
LAYER1
 10
-15.2482
 20
24.0749
 30
0
 70
     0
  0
SEQEND
  0
POLYLINE
  8
LAYER1
  6
CONTINUOUS
 62
     5
 66
     1
 40
0.013
 41
0.013
  0
VERTEX
  8
LAYER1
 10
-15.2482
 20
24.0749
 30
0
 70
     0
  0
VERTEX
  8
LAYER1
 10
-15.07
 20
23.8768
 30
0
 70
     0
  0
SEQEND
  0
POLYLINE
  8
LAYER1
  6
CONTINUOUS
 62
     5
 66
     1
 40
0.013
 41
0.013
  0
VERTEX
  8
LAYER1
 10
-15.07
 20
23.8768
 30
0
 70
     0
  0
VERTEX
  8
LAYER1
 10
-14.8918
 20
23.6788
 30
0
 70
     0
  0
SEQEND
  0
POLYLINE
  8
LAYER1
  6
CONTINUOUS
 62
     5
 66
     1
 40
0.013
 41
0.013
  0
VERTEX
  8
LAYER1
 10
-14.8918
 20
23.6788
 30
0
 70
     0
  0
VERTEX
  8
LAYER1
 10
-14.7036
 20
23.4907
 30
0
 70
     0
  0
SEQEND
  0
POLYLINE
  8
LAYER1
  6
CONTINUOUS
 62
     5
 66
     1
 40
0.013
 41
0.013
  0
VERTEX
  8
LAYER1
 10
-14.7036
 20
23.4907
 30
0
 70
     0
  0
VERTEX
  8
LAYER1
 10
-14.5056
 20
23.3125
 30
0
 70
     0
  0
SEQEND
  0
POLYLINE
  8
LAYER1
  6
CONTINUOUS
 62
     5
 66
     1
 40
0.013
 41
0.013
  0
VERTEX
  8
LAYER1
 10
-14.5056
 20
23.3125
 30
0
 70
     0
  0
VERTEX
  8
LAYER1
 10
-14.3076
 20
23.1343
 30
0
 70
     0
  0
SEQEND
  0
POLYLINE
  8
LAYER1
  6
CONTINUOUS
 62
     5
 66
     1
 40
0.013
 41
0.013
  0
VERTEX
  8
LAYER1
 10
-14.3076
 20
23.1343
 30
0
 70
     0
  0
VERTEX
  8
LAYER1
 10
-14.1096
 20
22.9659
 30
0
 70
     0
  0
SEQEND
  0
POLYLINE
  8
LAYER1
  6
CONTINUOUS
 62
     5
 66
     1
 40
0.013
 41
0.013
  0
VERTEX
  8
LAYER1
 10
-14.1096
 20
22.9659
 30
0
 70
     0
  0
VERTEX
  8
LAYER1
 10
-13.9017
 20
22.8075
 30
0
 70
     0
  0
SEQEND
  0
POLYLINE
  8
LAYER1
  6
CONTINUOUS
 62
     5
 66
     1
 40
0.013
 41
0.013
  0
VERTEX
  8
LAYER1
 10
-13.9017
 20
22.8075
 30
0
 70
     0
  0
VERTEX
  8
LAYER1
 10
-13.6838
 20
22.6491
 30
0
 70
     0
  0
SEQEND
  0
POLYLINE
  8
LAYER1
  6
CONTINUOUS
 62
     5
 66
     1
 40
0.013
 41
0.013
  0
VERTEX
  8
LAYER1
 10
-13.6838
 20
22.6491
 30
0
 70
     0
  0
VERTEX
  8
LAYER1
 10
-13.466
 20
22.5006
 30
0
 70
     0
  0
SEQEND
  0
POLYLINE
  8
LAYER1
  6
CONTINUOUS
 62
     5
 66
     1
 40
0.013
 41
0.013
  0
VERTEX
  8
LAYER1
 10
-13.466
 20
22.5006
 30
0
 70
     0
  0
VERTEX
  8
LAYER1
 10
-13.2482
 20
22.362
 30
0
 70
     0
  0
SEQEND
  0
POLYLINE
  8
LAYER1
  6
CONTINUOUS
 62
     5
 66
     1
 40
0.013
 41
0.013
  0
VERTEX
  8
LAYER1
 10
-13.2482
 20
22.362
 30
0
 70
     0
  0
VERTEX
  8
LAYER1
 10
-13.0205
 20
22.2333
 30
0
 70
     0
  0
SEQEND
  0
POLYLINE
  8
LAYER1
  6
CONTINUOUS
 62
     5
 66
     1
 40
0.013
 41
0.013
  0
VERTEX
  8
LAYER1
 10
-13.0205
 20
22.2333
 30
0
 70
     0
  0
VERTEX
  8
LAYER1
 10
-12.7927
 20
22.1144
 30
0
 70
     0
  0
SEQEND
  0
POLYLINE
  8
LAYER1
  6
CONTINUOUS
 62
     5
 66
     1
 40
0.013
 41
0.013
  0
VERTEX
  8
LAYER1
 10
-12.7927
 20
22.1144
 30
0
 70
     0
  0
VERTEX
  8
LAYER1
 10
-12.5551
 20
21.9956
 30
0
 70
     0
  0
SEQEND
  0
POLYLINE
  8
LAYER1
  6
CONTINUOUS
 62
     5
 66
     1
 40
0.013
 41
0.013
  0
VERTEX
  8
LAYER1
 10
-12.5551
 20
21.9956
 30
0
 70
     0
  0
VERTEX
  8
LAYER1
 10
-12.3175
 20
21.8867
 30
0
 70
     0
  0
SEQEND
  0
POLYLINE
  8
LAYER1
  6
CONTINUOUS
 62
     5
 66
     1
 40
0.013
 41
0.013
  0
VERTEX
  8
LAYER1
 10
-12.3175
 20
21.8867
 30
0
 70
     0
  0
VERTEX
  8
LAYER1
 10
-12.0799
 20
21.7877
 30
0
 70
     0
  0
SEQEND
  0
POLYLINE
  8
LAYER1
  6
CONTINUOUS
 62
     5
 66
     1
 40
0.013
 41
0.013
  0
VERTEX
  8
LAYER1
 10
-12.0799
 20
21.7877
 30
0
 70
     0
  0
VERTEX
  8
LAYER1
 10
-11.8323
 20
21.6986
 30
0
 70
     0
  0
SEQEND
  0
POLYLINE
  8
LAYER1
  6
CONTINUOUS
 62
     5
 66
     1
 40
0.013
 41
0.013
  0
VERTEX
  8
LAYER1
 10
-11.8323
 20
21.6986
 30
0
 70
     0
  0
VERTEX
  8
LAYER1
 10
-11.5947
 20
21.6095
 30
0
 70
     0
  0
SEQEND
  0
POLYLINE
  8
LAYER1
  6
CONTINUOUS
 62
     5
 66
     1
 40
0.013
 41
0.013
  0
VERTEX
  8
LAYER1
 10
-11.5947
 20
21.6095
 30
0
 70
     0
  0
VERTEX
  8
LAYER1
 10
-11.3472
 20
21.5402
 30
0
 70
     0
  0
SEQEND
  0
POLYLINE
  8
LAYER1
  6
CONTINUOUS
 62
     5
 66
     1
 40
0.013
 41
0.013
  0
VERTEX
  8
LAYER1
 10
-11.3472
 20
21.5402
 30
0
 70
     0
  0
VERTEX
  8
LAYER1
 10
-11.0898
 20
21.4709
 30
0
 70
     0
  0
SEQEND
  0
POLYLINE
  8
LAYER1
  6
CONTINUOUS
 62
     5
 66
     1
 40
0.013
 41
0.013
  0
VERTEX
  8
LAYER1
 10
-11.0898
 20
21.4709
 30
0
 70
     0
  0
VERTEX
  8
LAYER1
 10
-10.8422
 20
21.4214
 30
0
 70
     0
  0
SEQEND
  0
POLYLINE
  8
LAYER1
  6
CONTINUOUS
 62
     5
 66
     1
 40
0.013
 41
0.013
  0
VERTEX
  8
LAYER1
 10
-10.8422
 20
21.4214
 30
0
 70
     0
  0
VERTEX
  8
LAYER1
 10
-10.5848
 20
21.3719
 30
0
 70
     0
  0
SEQEND
  0
POLYLINE
  8
LAYER1
  6
CONTINUOUS
 62
     5
 66
     1
 40
0.013
 41
0.013
  0
VERTEX
  8
LAYER1
 10
-10.5848
 20
21.3719
 30
0
 70
     0
  0
VERTEX
  8
LAYER1
 10
-10.3373
 20
21.3323
 30
0
 70
     0
  0
SEQEND
  0
POLYLINE
  8
LAYER1
  6
CONTINUOUS
 62
     5
 66
     1
 40
0.013
 41
0.013
  0
VERTEX
  8
LAYER1
 10
-10.3373
 20
21.3323
 30
0
 70
     0
  0
VERTEX
  8
LAYER1
 10
-10.0798
 20
21.2927
 30
0
 70
     0
  0
SEQEND
  0
POLYLINE
  8
LAYER1
  6
CONTINUOUS
 62
     5
 66
     1
 40
0.013
 41
0.013
  0
VERTEX
  8
LAYER1
 10
-10.0798
 20
21.2927
 30
0
 70
     0
  0
VERTEX
  8
LAYER1
 10
-9.8224
 20
21.2729
 30
0
 70
     0
  0
SEQEND
  0
POLYLINE
  8
LAYER1
  6
CONTINUOUS
 62
     5
 66
     1
 40
0.013
 41
0.013
  0
VERTEX
  8
LAYER1
 10
-9.8224
 20
21.2729
 30
0
 70
     0
  0
VERTEX
  8
LAYER1
 10
-9.565
 20
21.263
 30
0
 70
     0
  0
SEQEND
  0
POLYLINE
  8
LAYER1
  6
CONTINUOUS
 62
     5
 66
     1
 40
0.013
 41
0.013
  0
VERTEX
  8
LAYER1
 10
-9.565
 20
21.263
 30
0
 70
     0
  0
VERTEX
  8
LAYER1
 10
-9.3076
 20
21.2531
 30
0
 70
     0
  0
SEQEND
  0
POLYLINE
  8
LAYER1
  6
CONTINUOUS
 62
     5
 66
     1
 40
0.013
 41
0.013
  0
VERTEX
  8
LAYER1
 10
-43.9909
 20
-19.2917
 30
0
 70
     0
  0
VERTEX
  8
LAYER1
 10
-43.9909
 20
-10.1035
 30
0
 70
     0
  0
SEQEND
  0
POLYLINE
  8
LAYER1
  6
CONTINUOUS
 62
     5
 66
     1
 40
0.013
 41
0.013
  0
VERTEX
  8
LAYER1
 10
-37.9909
 20
-19.2917
 30
0
 70
     0
  0
VERTEX
  8
LAYER1
 10
-37.9909
 20
-10.1035
 30
0
 70
     0
  0
SEQEND
  0
POLYLINE
  8
LAYER1
  6
CONTINUOUS
 62
     5
 66
     1
 40
0.013
 41
0.013
  0
VERTEX
  8
LAYER1
 10
-37.9909
 20
-19.2917
 30
0
 70
     0
  0
VERTEX
  8
LAYER1
 10
-43.9909
 20
-19.2917
 30
0
 70
     0
  0
SEQEND
  0
POLYLINE
  8
LAYER1
  6
CONTINUOUS
 62
     5
 66
     1
 40
0.013
 41
0.013
  0
VERTEX
  8
LAYER1
 10
-37.9909
 20
-10.1035
 30
0
 70
     0
  0
VERTEX
  8
LAYER1
 10
-43.9909
 20
-10.1035
 30
0
 70
     0
  0
SEQEND
  0
POLYLINE
  8
LAYER1
  6
CONTINUOUS
 62
     5
 66
     1
 40
0.013
 41
0.013
  0
VERTEX
  8
LAYER1
 10
-37.3275
 20
-18.4798
 30
0
 70
     0
  0
VERTEX
  8
LAYER1
 10
-37.3275
 20
31.7878
 30
0
 70
     0
  0
SEQEND
  0
POLYLINE
  8
LAYER1
  6
CONTINUOUS
 62
     5
 66
     1
 40
0.013
 41
0.013
  0
VERTEX
  8
LAYER1
 10
-37.9909
 20
-10.1035
 30
0
 70
     0
  0
VERTEX
  8
LAYER1
 10
-37.3275
 20
-9.5689
 30
0
 70
     0
  0
SEQEND
  0
POLYLINE
  8
LAYER1
  6
CONTINUOUS
 62
     5
 66
     1
 40
0.013
 41
0.013
  0
VERTEX
  8
LAYER1
 10
-37.4463
 20
-6.7174
 30
0
 70
     0
  0
VERTEX
  8
LAYER1
 10
-31.2879
 20
-6.1332
 30
0
 70
     0
  0
SEQEND
  0
POLYLINE
  8
LAYER1
  6
CONTINUOUS
 62
     5
 66
     1
 40
0.013
 41
0.013
  0
VERTEX
  8
LAYER1
 10
-31.2879
 20
-6.1332
 30
0
 70
     0
  0
VERTEX
  8
LAYER1
 10
-26.5057
 20
3.2233
 30
0
 70
     0
  0
SEQEND
  0
POLYLINE
  8
LAYER1
  6
CONTINUOUS
 62
     5
 66
     1
 40
0.013
 41
0.013
  0
VERTEX
  8
LAYER1
 10
-37.3275
 20
19.3323
 30
0
 70
     0
  0
VERTEX
  8
LAYER1
 10
-37.3275
 20
24.1937
 30
0
 70
     0
  0
SEQEND
  0
POLYLINE
  8
LAYER1
  6
CONTINUOUS
 62
     5
 66
     1
 40
0.013
 41
0.013
  0
VERTEX
  8
LAYER1
 10
-34.6245
 20
34.9759
 30
0
 70
     0
  0
VERTEX
  8
LAYER1
 10
-34.7829
 20
34.9561
 30
0
 70
     0
  0
SEQEND
  0
POLYLINE
  8
LAYER1
  6
CONTINUOUS
 62
     5
 66
     1
 40
0.013
 41
0.013
  0
VERTEX
  8
LAYER1
 10
-34.7829
 20
34.9561
 30
0
 70
     0
  0
VERTEX
  8
LAYER1
 10
-34.9414
 20
34.9264
 30
0
 70
     0
  0
SEQEND
  0
POLYLINE
  8
LAYER1
  6
CONTINUOUS
 62
     5
 66
     1
 40
0.013
 41
0.013
  0
VERTEX
  8
LAYER1
 10
-34.9414
 20
34.9264
 30
0
 70
     0
  0
VERTEX
  8
LAYER1
 10
-35.0899
 20
34.8868
 30
0
 70
     0
  0
SEQEND
  0
POLYLINE
  8
LAYER1
  6
CONTINUOUS
 62
     5
 66
     1
 40
0.013
 41
0.013
  0
VERTEX
  8
LAYER1
 10
-35.0899
 20
34.8868
 30
0
 70
     0
  0
VERTEX
  8
LAYER1
 10
-35.2384
 20
34.8373
 30
0
 70
     0
  0
SEQEND
  0
POLYLINE
  8
LAYER1
  6
CONTINUOUS
 62
     5
 66
     1
 40
0.013
 41
0.013
  0
VERTEX
  8
LAYER1
 10
-35.2384
 20
34.8373
 30
0
 70
     0
  0
VERTEX
  8
LAYER1
 10
-35.3869
 20
34.7878
 30
0
 70
     0
  0
SEQEND
  0
POLYLINE
  8
LAYER1
  6
CONTINUOUS
 62
     5
 66
     1
 40
0.013
 41
0.013
  0
VERTEX
  8
LAYER1
 10
-35.3869
 20
34.7878
 30
0
 70
     0
  0
VERTEX
  8
LAYER1
 10
-35.5354
 20
34.7185
 30
0
 70
     0
  0
SEQEND
  0
POLYLINE
  8
LAYER1
  6
CONTINUOUS
 62
     5
 66
     1
 40
0.013
 41
0.013
  0
VERTEX
  8
LAYER1
 10
-35.5354
 20
34.7185
 30
0
 70
     0
  0
VERTEX
  8
LAYER1
 10
-35.6839
 20
34.6492
 30
0
 70
     0
  0
SEQEND
  0
POLYLINE
  8
LAYER1
  6
CONTINUOUS
 62
     5
 66
     1
 40
0.013
 41
0.013
  0
VERTEX
  8
LAYER1
 10
-35.6839
 20
34.6492
 30
0
 70
     0
  0
VERTEX
  8
LAYER1
 10
-35.8226
 20
34.57
 30
0
 70
     0
  0
SEQEND
  0
POLYLINE
  8
LAYER1
  6
CONTINUOUS
 62
     5
 66
     1
 40
0.013
 41
0.013
  0
VERTEX
  8
LAYER1
 10
-35.8226
 20
34.57
 30
0
 70
     0
  0
VERTEX
  8
LAYER1
 10
-35.9513
 20
34.4808
 30
0
 70
     0
  0
SEQEND
  0
POLYLINE
  8
LAYER1
  6
CONTINUOUS
 62
     5
 66
     1
 40
0.013
 41
0.013
  0
VERTEX
  8
LAYER1
 10
-35.9513
 20
34.4808
 30
0
 70
     0
  0
VERTEX
  8
LAYER1
 10
-36.08
 20
34.3818
 30
0
 70
     0
  0
SEQEND
  0
POLYLINE
  8
LAYER1
  6
CONTINUOUS
 62
     5
 66
     1
 40
0.013
 41
0.013
  0
VERTEX
  8
LAYER1
 10
-36.08
 20
34.3818
 30
0
 70
     0
  0
VERTEX
  8
LAYER1
 10
-36.2087
 20
34.2828
 30
0
 70
     0
  0
SEQEND
  0
POLYLINE
  8
LAYER1
  6
CONTINUOUS
 62
     5
 66
     1
 40
0.013
 41
0.013
  0
VERTEX
  8
LAYER1
 10
-36.2087
 20
34.2828
 30
0
 70
     0
  0
VERTEX
  8
LAYER1
 10
-36.3275
 20
34.1739
 30
0
 70
     0
  0
SEQEND
  0
POLYLINE
  8
LAYER1
  6
CONTINUOUS
 62
     5
 66
     1
 40
0.013
 41
0.013
  0
VERTEX
  8
LAYER1
 10
-36.3275
 20
34.1739
 30
0
 70
     0
  0
VERTEX
  8
LAYER1
 10
-36.4463
 20
34.0551
 30
0
 70
     0
  0
SEQEND
  0
POLYLINE
  8
LAYER1
  6
CONTINUOUS
 62
     5
 66
     1
 40
0.013
 41
0.013
  0
VERTEX
  8
LAYER1
 10
-36.4463
 20
34.0551
 30
0
 70
     0
  0
VERTEX
  8
LAYER1
 10
-36.5552
 20
33.9363
 30
0
 70
     0
  0
SEQEND
  0
POLYLINE
  8
LAYER1
  6
CONTINUOUS
 62
     5
 66
     1
 40
0.013
 41
0.013
  0
VERTEX
  8
LAYER1
 10
-36.5552
 20
33.9363
 30
0
 70
     0
  0
VERTEX
  8
LAYER1
 10
-36.6542
 20
33.8076
 30
0
 70
     0
  0
SEQEND
  0
POLYLINE
  8
LAYER1
  6
CONTINUOUS
 62
     5
 66
     1
 40
0.013
 41
0.013
  0
VERTEX
  8
LAYER1
 10
-36.6542
 20
33.8076
 30
0
 70
     0
  0
VERTEX
  8
LAYER1
 10
-36.7533
 20
33.6789
 30
0
 70
     0
  0
SEQEND
  0
POLYLINE
  8
LAYER1
  6
CONTINUOUS
 62
     5
 66
     1
 40
0.013
 41
0.013
  0
VERTEX
  8
LAYER1
 10
-36.7533
 20
33.6789
 30
0
 70
     0
  0
VERTEX
  8
LAYER1
 10
-36.8424
 20
33.5403
 30
0
 70
     0
  0
SEQEND
  0
POLYLINE
  8
LAYER1
  6
CONTINUOUS
 62
     5
 66
     1
 40
0.013
 41
0.013
  0
VERTEX
  8
LAYER1
 10
-36.8424
 20
33.5403
 30
0
 70
     0
  0
VERTEX
  8
LAYER1
 10
-36.9216
 20
33.3917
 30
0
 70
     0
  0
SEQEND
  0
POLYLINE
  8
LAYER1
  6
CONTINUOUS
 62
     5
 66
     1
 40
0.013
 41
0.013
  0
VERTEX
  8
LAYER1
 10
-36.9216
 20
33.3917
 30
0
 70
     0
  0
VERTEX
  8
LAYER1
 10
-37.0008
 20
33.2432
 30
0
 70
     0
  0
SEQEND
  0
POLYLINE
  8
LAYER1
  6
CONTINUOUS
 62
     5
 66
     1
 40
0.013
 41
0.013
  0
VERTEX
  8
LAYER1
 10
-37.0008
 20
33.2432
 30
0
 70
     0
  0
VERTEX
  8
LAYER1
 10
-37.0701
 20
33.0947
 30
0
 70
     0
  0
SEQEND
  0
POLYLINE
  8
LAYER1
  6
CONTINUOUS
 62
     5
 66
     1
 40
0.013
 41
0.013
  0
VERTEX
  8
LAYER1
 10
-37.0701
 20
33.0947
 30
0
 70
     0
  0
VERTEX
  8
LAYER1
 10
-37.1295
 20
32.9363
 30
0
 70
     0
  0
SEQEND
  0
POLYLINE
  8
LAYER1
  6
CONTINUOUS
 62
     5
 66
     1
 40
0.013
 41
0.013
  0
VERTEX
  8
LAYER1
 10
-37.1295
 20
32.9363
 30
0
 70
     0
  0
VERTEX
  8
LAYER1
 10
-37.179
 20
32.7779
 30
0
 70
     0
  0
SEQEND
  0
POLYLINE
  8
LAYER1
  6
CONTINUOUS
 62
     5
 66
     1
 40
0.013
 41
0.013
  0
VERTEX
  8
LAYER1
 10
-37.179
 20
32.7779
 30
0
 70
     0
  0
VERTEX
  8
LAYER1
 10
-37.2285
 20
32.6195
 30
0
 70
     0
  0
SEQEND
  0
POLYLINE
  8
LAYER1
  6
CONTINUOUS
 62
     5
 66
     1
 40
0.013
 41
0.013
  0
VERTEX
  8
LAYER1
 10
-37.2285
 20
32.6195
 30
0
 70
     0
  0
VERTEX
  8
LAYER1
 10
-37.2582
 20
32.4511
 30
0
 70
     0
  0
SEQEND
  0
POLYLINE
  8
LAYER1
  6
CONTINUOUS
 62
     5
 66
     1
 40
0.013
 41
0.013
  0
VERTEX
  8
LAYER1
 10
-37.2582
 20
32.4511
 30
0
 70
     0
  0
VERTEX
  8
LAYER1
 10
-37.2879
 20
32.2927
 30
0
 70
     0
  0
SEQEND
  0
POLYLINE
  8
LAYER1
  6
CONTINUOUS
 62
     5
 66
     1
 40
0.013
 41
0.013
  0
VERTEX
  8
LAYER1
 10
-37.2879
 20
32.2927
 30
0
 70
     0
  0
VERTEX
  8
LAYER1
 10
-37.3077
 20
32.1244
 30
0
 70
     0
  0
SEQEND
  0
POLYLINE
  8
LAYER1
  6
CONTINUOUS
 62
     5
 66
     1
 40
0.013
 41
0.013
  0
VERTEX
  8
LAYER1
 10
-37.3077
 20
32.1244
 30
0
 70
     0
  0
VERTEX
  8
LAYER1
 10
-37.3275
 20
31.9561
 30
0
 70
     0
  0
SEQEND
  0
POLYLINE
  8
LAYER1
  6
CONTINUOUS
 62
     5
 66
     1
 40
0.013
 41
0.013
  0
VERTEX
  8
LAYER1
 10
-37.3275
 20
31.9561
 30
0
 70
     0
  0
VERTEX
  8
LAYER1
 10
-37.3275
 20
31.7878
 30
0
 70
     0
  0
SEQEND
  0
POLYLINE
  8
LAYER1
  6
CONTINUOUS
 62
     5
 66
     1
 40
0.013
 41
0.013
  0
VERTEX
  8
LAYER1
 10
-34.6245
 20
34.9759
 30
0
 70
     0
  0
VERTEX
  8
LAYER1
 10
8.0094
 20
41.8571
 30
0
 70
     0
  0
SEQEND
  0
POLYLINE
  8
LAYER1
  6
CONTINUOUS
 62
     5
 66
     1
 40
0.013
 41
0.013
  0
VERTEX
  8
LAYER1
 10
-30.7136
 20
-5.0738
 30
0
 70
     0
  0
VERTEX
  8
LAYER1
 10
-12.2114
 20
-3.6584
 30
0
 70
     0
  0
SEQEND
  0
POLYLINE
  8
LAYER1
  6
CONTINUOUS
 62
     5
 66
     1
 40
0.013
 41
0.013
  0
VERTEX
  8
LAYER1
 10
8.0094
 20
19.5303
 30
0
 70
     0
  0
VERTEX
  8
LAYER1
 10
-37.3275
 20
19.5303
 30
0
 70
     0
  0
SEQEND
  0
POLYLINE
  8
LAYER1
  6
CONTINUOUS
 62
     5
 66
     1
 40
0.013
 41
0.013
  0
VERTEX
  8
LAYER1
 10
-29.5057
 20
35.9363
 30
0
 70
     0
  0
VERTEX
  8
LAYER1
 10
-15.7333
 20
24.7184
 30
0
 70
     0
  0
SEQEND
  0
POLYLINE
  8
LAYER1
  6
CONTINUOUS
 62
     5
 66
     1
 40
0.013
 41
0.013
  0
VERTEX
  8
LAYER1
 10
1.2964
 20
11.5599
 30
0
 70
     0
  0
VERTEX
  8
LAYER1
 10
-13.3472
 20
11.5599
 30
0
 70
     0
  0
SEQEND
  0
POLYLINE
  8
LAYER1
  6
CONTINUOUS
 62
     5
 66
     1
 40
0.013
 41
0.013
  0
VERTEX
  8
LAYER1
 10
-13.3472
 20
11.5599
 30
0
 70
     0
  0
VERTEX
  8
LAYER1
 10
-13.6937
 20
11.55
 30
0
 70
     0
  0
SEQEND
  0
POLYLINE
  8
LAYER1
  6
CONTINUOUS
 62
     5
 66
     1
 40
0.013
 41
0.013
  0
VERTEX
  8
LAYER1
 10
-13.6937
 20
11.55
 30
0
 70
     0
  0
VERTEX
  8
LAYER1
 10
-14.0403
 20
11.5401
 30
0
 70
     0
  0
SEQEND
  0
POLYLINE
  8
LAYER1
  6
CONTINUOUS
 62
     5
 66
     1
 40
0.013
 41
0.013
  0
VERTEX
  8
LAYER1
 10
-14.0403
 20
11.5401
 30
0
 70
     0
  0
VERTEX
  8
LAYER1
 10
-14.3868
 20
11.5203
 30
0
 70
     0
  0
SEQEND
  0
POLYLINE
  8
LAYER1
  6
CONTINUOUS
 62
     5
 66
     1
 40
0.013
 41
0.013
  0
VERTEX
  8
LAYER1
 10
-14.3868
 20
11.5203
 30
0
 70
     0
  0
VERTEX
  8
LAYER1
 10
-14.7333
 20
11.4906
 30
0
 70
     0
  0
SEQEND
  0
POLYLINE
  8
LAYER1
  6
CONTINUOUS
 62
     5
 66
     1
 40
0.013
 41
0.013
  0
VERTEX
  8
LAYER1
 10
-14.7333
 20
11.4906
 30
0
 70
     0
  0
VERTEX
  8
LAYER1
 10
-15.0799
 20
11.451
 30
0
 70
     0
  0
SEQEND
  0
POLYLINE
  8
LAYER1
  6
CONTINUOUS
 62
     5
 66
     1
 40
0.013
 41
0.013
  0
VERTEX
  8
LAYER1
 10
-15.0799
 20
11.451
 30
0
 70
     0
  0
VERTEX
  8
LAYER1
 10
-15.4264
 20
11.4015
 30
0
 70
     0
  0
SEQEND
  0
POLYLINE
  8
LAYER1
  6
CONTINUOUS
 62
     5
 66
     1
 40
0.013
 41
0.013
  0
VERTEX
  8
LAYER1
 10
-15.4264
 20
11.4015
 30
0
 70
     0
  0
VERTEX
  8
LAYER1
 10
-15.7729
 20
11.3421
 30
0
 70
     0
  0
SEQEND
  0
POLYLINE
  8
LAYER1
  6
CONTINUOUS
 62
     5
 66
     1
 40
0.013
 41
0.013
  0
VERTEX
  8
LAYER1
 10
-15.7729
 20
11.3421
 30
0
 70
     0
  0
VERTEX
  8
LAYER1
 10
-16.1195
 20
11.2827
 30
0
 70
     0
  0
SEQEND
  0
POLYLINE
  8
LAYER1
  6
CONTINUOUS
 62
     5
 66
     1
 40
0.013
 41
0.013
  0
VERTEX
  8
LAYER1
 10
-16.1195
 20
11.2827
 30
0
 70
     0
  0
VERTEX
  8
LAYER1
 10
-16.4561
 20
11.2035
 30
0
 70
     0
  0
SEQEND
  0
POLYLINE
  8
LAYER1
  6
CONTINUOUS
 62
     5
 66
     1
 40
0.013
 41
0.013
  0
VERTEX
  8
LAYER1
 10
-16.4561
 20
11.2035
 30
0
 70
     0
  0
VERTEX
  8
LAYER1
 10
-16.8027
 20
11.1243
 30
0
 70
     0
  0
SEQEND
  0
POLYLINE
  8
LAYER1
  6
CONTINUOUS
 62
     5
 66
     1
 40
0.013
 41
0.013
  0
VERTEX
  8
LAYER1
 10
-16.8027
 20
11.1243
 30
0
 70
     0
  0
VERTEX
  8
LAYER1
 10
-17.1393
 20
11.0352
 30
0
 70
     0
  0
SEQEND
  0
POLYLINE
  8
LAYER1
  6
CONTINUOUS
 62
     5
 66
     1
 40
0.013
 41
0.013
  0
VERTEX
  8
LAYER1
 10
-17.1393
 20
11.0352
 30
0
 70
     0
  0
VERTEX
  8
LAYER1
 10
-17.4759
 20
10.9362
 30
0
 70
     0
  0
SEQEND
  0
POLYLINE
  8
LAYER1
  6
CONTINUOUS
 62
     5
 66
     1
 40
0.013
 41
0.013
  0
VERTEX
  8
LAYER1
 10
-17.4759
 20
10.9362
 30
0
 70
     0
  0
VERTEX
  8
LAYER1
 10
-17.8126
 20
10.8273
 30
0
 70
     0
  0
SEQEND
  0
POLYLINE
  8
LAYER1
  6
CONTINUOUS
 62
     5
 66
     1
 40
0.013
 41
0.013
  0
VERTEX
  8
LAYER1
 10
-17.8126
 20
10.8273
 30
0
 70
     0
  0
VERTEX
  8
LAYER1
 10
-18.1393
 20
10.7183
 30
0
 70
     0
  0
SEQEND
  0
POLYLINE
  8
LAYER1
  6
CONTINUOUS
 62
     5
 66
     1
 40
0.013
 41
0.013
  0
VERTEX
  8
LAYER1
 10
-18.1393
 20
10.7183
 30
0
 70
     0
  0
VERTEX
  8
LAYER1
 10
-18.4759
 20
10.5896
 30
0
 70
     0
  0
SEQEND
  0
POLYLINE
  8
LAYER1
  6
CONTINUOUS
 62
     5
 66
     1
 40
0.013
 41
0.013
  0
VERTEX
  8
LAYER1
 10
-18.4759
 20
10.5896
 30
0
 70
     0
  0
VERTEX
  8
LAYER1
 10
-18.8027
 20
10.4609
 30
0
 70
     0
  0
SEQEND
  0
POLYLINE
  8
LAYER1
  6
CONTINUOUS
 62
     5
 66
     1
 40
0.013
 41
0.013
  0
VERTEX
  8
LAYER1
 10
-18.8027
 20
10.4609
 30
0
 70
     0
  0
VERTEX
  8
LAYER1
 10
-19.1195
 20
10.3223
 30
0
 70
     0
  0
SEQEND
  0
POLYLINE
  8
LAYER1
  6
CONTINUOUS
 62
     5
 66
     1
 40
0.013
 41
0.013
  0
VERTEX
  8
LAYER1
 10
-19.1195
 20
10.3223
 30
0
 70
     0
  0
VERTEX
  8
LAYER1
 10
-19.4462
 20
10.1738
 30
0
 70
     0
  0
SEQEND
  0
POLYLINE
  8
LAYER1
  6
CONTINUOUS
 62
     5
 66
     1
 40
0.013
 41
0.013
  0
VERTEX
  8
LAYER1
 10
-19.4462
 20
10.1738
 30
0
 70
     0
  0
VERTEX
  8
LAYER1
 10
-19.7631
 20
10.0154
 30
0
 70
     0
  0
SEQEND
  0
POLYLINE
  8
LAYER1
  6
CONTINUOUS
 62
     5
 66
     1
 40
0.013
 41
0.013
  0
VERTEX
  8
LAYER1
 10
-19.7631
 20
10.0154
 30
0
 70
     0
  0
VERTEX
  8
LAYER1
 10
-20.07
 20
9.857
 30
0
 70
     0
  0
SEQEND
  0
POLYLINE
  8
LAYER1
  6
CONTINUOUS
 62
     5
 66
     1
 40
0.013
 41
0.013
  0
VERTEX
  8
LAYER1
 10
-20.07
 20
9.857
 30
0
 70
     0
  0
VERTEX
  8
LAYER1
 10
-20.3868
 20
9.6787
 30
0
 70
     0
  0
SEQEND
  0
POLYLINE
  8
LAYER1
  6
CONTINUOUS
 62
     5
 66
     1
 40
0.013
 41
0.013
  0
VERTEX
  8
LAYER1
 10
-20.3868
 20
9.6787
 30
0
 70
     0
  0
VERTEX
  8
LAYER1
 10
-20.6938
 20
9.5005
 30
0
 70
     0
  0
SEQEND
  0
POLYLINE
  8
LAYER1
  6
CONTINUOUS
 62
     5
 66
     1
 40
0.013
 41
0.013
  0
VERTEX
  8
LAYER1
 10
-20.6938
 20
9.5005
 30
0
 70
     0
  0
VERTEX
  8
LAYER1
 10
-20.9908
 20
9.3124
 30
0
 70
     0
  0
SEQEND
  0
POLYLINE
  8
LAYER1
  6
CONTINUOUS
 62
     5
 66
     1
 40
0.013
 41
0.013
  0
VERTEX
  8
LAYER1
 10
-20.9908
 20
9.3124
 30
0
 70
     0
  0
VERTEX
  8
LAYER1
 10
-21.2878
 20
9.1243
 30
0
 70
     0
  0
SEQEND
  0
POLYLINE
  8
LAYER1
  6
CONTINUOUS
 62
     5
 66
     1
 40
0.013
 41
0.013
  0
VERTEX
  8
LAYER1
 10
-21.2878
 20
9.1243
 30
0
 70
     0
  0
VERTEX
  8
LAYER1
 10
-21.5849
 20
8.9164
 30
0
 70
     0
  0
SEQEND
  0
POLYLINE
  8
LAYER1
  6
CONTINUOUS
 62
     5
 66
     1
 40
0.013
 41
0.013
  0
VERTEX
  8
LAYER1
 10
-21.5849
 20
8.9164
 30
0
 70
     0
  0
VERTEX
  8
LAYER1
 10
-21.872
 20
8.7084
 30
0
 70
     0
  0
SEQEND
  0
POLYLINE
  8
LAYER1
  6
CONTINUOUS
 62
     5
 66
     1
 40
0.013
 41
0.013
  0
VERTEX
  8
LAYER1
 10
-21.872
 20
8.7084
 30
0
 70
     0
  0
VERTEX
  8
LAYER1
 10
-22.1591
 20
8.5005
 30
0
 70
     0
  0
SEQEND
  0
POLYLINE
  8
LAYER1
  6
CONTINUOUS
 62
     5
 66
     1
 40
0.013
 41
0.013
  0
VERTEX
  8
LAYER1
 10
-22.1591
 20
8.5005
 30
0
 70
     0
  0
VERTEX
  8
LAYER1
 10
-22.4363
 20
8.2728
 30
0
 70
     0
  0
SEQEND
  0
POLYLINE
  8
LAYER1
  6
CONTINUOUS
 62
     5
 66
     1
 40
0.013
 41
0.013
  0
VERTEX
  8
LAYER1
 10
-22.4363
 20
8.2728
 30
0
 70
     0
  0
VERTEX
  8
LAYER1
 10
-22.7136
 20
8.0451
 30
0
 70
     0
  0
SEQEND
  0
POLYLINE
  8
LAYER1
  6
CONTINUOUS
 62
     5
 66
     1
 40
0.013
 41
0.013
  0
VERTEX
  8
LAYER1
 10
-22.7136
 20
8.0451
 30
0
 70
     0
  0
VERTEX
  8
LAYER1
 10
-22.9809
 20
7.8074
 30
0
 70
     0
  0
SEQEND
  0
POLYLINE
  8
LAYER1
  6
CONTINUOUS
 62
     5
 66
     1
 40
0.013
 41
0.013
  0
VERTEX
  8
LAYER1
 10
-22.9809
 20
7.8074
 30
0
 70
     0
  0
VERTEX
  8
LAYER1
 10
-23.2482
 20
7.5698
 30
0
 70
     0
  0
SEQEND
  0
POLYLINE
  8
LAYER1
  6
CONTINUOUS
 62
     5
 66
     1
 40
0.013
 41
0.013
  0
VERTEX
  8
LAYER1
 10
-23.2482
 20
7.5698
 30
0
 70
     0
  0
VERTEX
  8
LAYER1
 10
-23.5057
 20
7.3124
 30
0
 70
     0
  0
SEQEND
  0
POLYLINE
  8
LAYER1
  6
CONTINUOUS
 62
     5
 66
     1
 40
0.013
 41
0.013
  0
VERTEX
  8
LAYER1
 10
-23.5057
 20
7.3124
 30
0
 70
     0
  0
VERTEX
  8
LAYER1
 10
-23.7631
 20
7.055
 30
0
 70
     0
  0
SEQEND
  0
POLYLINE
  8
LAYER1
  6
CONTINUOUS
 62
     5
 66
     1
 40
0.013
 41
0.013
  0
VERTEX
  8
LAYER1
 10
-23.7631
 20
7.055
 30
0
 70
     0
  0
VERTEX
  8
LAYER1
 10
-24.0106
 20
6.7975
 30
0
 70
     0
  0
SEQEND
  0
POLYLINE
  8
LAYER1
  6
CONTINUOUS
 62
     5
 66
     1
 40
0.013
 41
0.013
  0
VERTEX
  8
LAYER1
 10
-24.0106
 20
6.7975
 30
0
 70
     0
  0
VERTEX
  8
LAYER1
 10
-24.2482
 20
6.5302
 30
0
 70
     0
  0
SEQEND
  0
POLYLINE
  8
LAYER1
  6
CONTINUOUS
 62
     5
 66
     1
 40
0.013
 41
0.013
  0
VERTEX
  8
LAYER1
 10
-24.2482
 20
6.5302
 30
0
 70
     0
  0
VERTEX
  8
LAYER1
 10
-24.4859
 20
6.253
 30
0
 70
     0
  0
SEQEND
  0
POLYLINE
  8
LAYER1
  6
CONTINUOUS
 62
     5
 66
     1
 40
0.013
 41
0.013
  0
VERTEX
  8
LAYER1
 10
-24.4859
 20
6.253
 30
0
 70
     0
  0
VERTEX
  8
LAYER1
 10
-24.7136
 20
5.9758
 30
0
 70
     0
  0
SEQEND
  0
POLYLINE
  8
LAYER1
  6
CONTINUOUS
 62
     5
 66
     1
 40
0.013
 41
0.013
  0
VERTEX
  8
LAYER1
 10
-24.7136
 20
5.9758
 30
0
 70
     0
  0
VERTEX
  8
LAYER1
 10
-24.9413
 20
5.6886
 30
0
 70
     0
  0
SEQEND
  0
POLYLINE
  8
LAYER1
  6
CONTINUOUS
 62
     5
 66
     1
 40
0.013
 41
0.013
  0
VERTEX
  8
LAYER1
 10
-24.9413
 20
5.6886
 30
0
 70
     0
  0
VERTEX
  8
LAYER1
 10
-25.1591
 20
5.4015
 30
0
 70
     0
  0
SEQEND
  0
POLYLINE
  8
LAYER1
  6
CONTINUOUS
 62
     5
 66
     1
 40
0.013
 41
0.013
  0
VERTEX
  8
LAYER1
 10
-25.1591
 20
5.4015
 30
0
 70
     0
  0
VERTEX
  8
LAYER1
 10
-25.3671
 20
5.1045
 30
0
 70
     0
  0
SEQEND
  0
POLYLINE
  8
LAYER1
  6
CONTINUOUS
 62
     5
 66
     1
 40
0.013
 41
0.013
  0
VERTEX
  8
LAYER1
 10
-25.3671
 20
5.1045
 30
0
 70
     0
  0
VERTEX
  8
LAYER1
 10
-25.575
 20
4.7975
 30
0
 70
     0
  0
SEQEND
  0
POLYLINE
  8
LAYER1
  6
CONTINUOUS
 62
     5
 66
     1
 40
0.013
 41
0.013
  0
VERTEX
  8
LAYER1
 10
-25.575
 20
4.7975
 30
0
 70
     0
  0
VERTEX
  8
LAYER1
 10
-25.773
 20
4.4906
 30
0
 70
     0
  0
SEQEND
  0
POLYLINE
  8
LAYER1
  6
CONTINUOUS
 62
     5
 66
     1
 40
0.013
 41
0.013
  0
VERTEX
  8
LAYER1
 10
-25.773
 20
4.4906
 30
0
 70
     0
  0
VERTEX
  8
LAYER1
 10
-25.971
 20
4.1837
 30
0
 70
     0
  0
SEQEND
  0
POLYLINE
  8
LAYER1
  6
CONTINUOUS
 62
     5
 66
     1
 40
0.013
 41
0.013
  0
VERTEX
  8
LAYER1
 10
-25.971
 20
4.1837
 30
0
 70
     0
  0
VERTEX
  8
LAYER1
 10
-26.1492
 20
3.8668
 30
0
 70
     0
  0
SEQEND
  0
POLYLINE
  8
LAYER1
  6
CONTINUOUS
 62
     5
 66
     1
 40
0.013
 41
0.013
  0
VERTEX
  8
LAYER1
 10
-26.1492
 20
3.8668
 30
0
 70
     0
  0
VERTEX
  8
LAYER1
 10
-26.3275
 20
3.5401
 30
0
 70
     0
  0
SEQEND
  0
POLYLINE
  8
LAYER1
  6
CONTINUOUS
 62
     5
 66
     1
 40
0.013
 41
0.013
  0
VERTEX
  8
LAYER1
 10
-26.3275
 20
3.5401
 30
0
 70
     0
  0
VERTEX
  8
LAYER1
 10
-26.5057
 20
3.2233
 30
0
 70
     0
  0
SEQEND
  0
POLYLINE
  8
LAYER1
  6
CONTINUOUS
 62
     5
 66
     1
 40
0.013
 41
0.013
  0
VERTEX
  8
LAYER1
 10
-22.0881
 20
-18.4798
 30
0
 70
     0
  0
VERTEX
  8
LAYER1
 10
-37.9909
 20
-18.4798
 30
0
 70
     0
  0
SEQEND
  0
POLYLINE
  8
LAYER1
  6
CONTINUOUS
 62
     2
 66
     1
 40
0.013
 41
0.013
  0
VERTEX
  8
LAYER1
 10
64.9304
 20
0.0054
 30
0
 70
     0
  0
VERTEX
  8
LAYER1
 10
65.079
 20
0.0054
 30
0
 70
     0
  0
SEQEND
  0
POLYLINE
  8
LAYER1
  6
CONTINUOUS
 62
     2
 66
     1
 40
0.013
 41
0.013
  0
VERTEX
  8
LAYER1
 10
65.0097
 20
-0.0738
 30
0
 70
     0
  0
VERTEX
  8
LAYER1
 10
65.0097
 20
0.0846
 30
0
 70
     0
  0
SEQEND
  0
POLYLINE
  8
LAYER1
  6
CONTINUOUS
 62
     3
 66
     1
 40
0.013
 41
0.013
  0
VERTEX
  8
LAYER1
 10
-44.0701
 20
-19.2917
 30
0
 70
     0
  0
VERTEX
  8
LAYER1
 10
-43.9117
 20
-19.2917
 30
0
 70
     0
  0
SEQEND
  0
POLYLINE
  8
LAYER1
  6
CONTINUOUS
 62
     3
 66
     1
 40
0.013
 41
0.013
  0
VERTEX
  8
LAYER1
 10
-43.9909
 20
-19.3709
 30
0
 70
     0
  0
VERTEX
  8
LAYER1
 10
-43.9909
 20
-19.2026
 30
0
 70
     0
  0
SEQEND
  0
POLYLINE
  8
LAYER1
  6
CONTINUOUS
 62
     3
 66
     1
 40
0.013
 41
0.013
  0
VERTEX
  8
LAYER1
 10
65.0097
 20
-2.708
 30
0
 70
     0
  0
VERTEX
  8
LAYER1
 10
65.0097
 20
2.6166
 30
0
 70
     0
  0
SEQEND
  0
TEXT
  8
LAYER1
 62
     7
 10
-44.0766
 20
80.9447
 30
0
 40
0.0833
  1
u
 50
0
  7
ARIAL
999
Arial
  0
POLYLINE
  8
LAYER1
  6
CONTINUOUS
 62
     5
 66
     1
 40
0.0139
 41
0.0139
  0
VERTEX
  8
LAYER1
 10
22.4152
 20
-22.5497
 30
0
 70
     0
  0
VERTEX
  8
LAYER1
 10
22.4078
 20
-23.1263
 30
0
 70
     0
  0
VERTEX
  8
LAYER1
 10
22.3857
 20
-23.6996
 30
0
 70
     0
  0
VERTEX
  8
LAYER1
 10
22.3491
 20
-24.2693
 30
0
 70
     0
  0
VERTEX
  8
LAYER1
 10
22.2981
 20
-24.8352
 30
0
 70
     0
  0
VERTEX
  8
LAYER1
 10
22.2331
 20
-25.3972
 30
0
 70
     0
  0
VERTEX
  8
LAYER1
 10
22.1541
 20
-25.9551
 30
0
 70
     0
  0
VERTEX
  8
LAYER1
 10
22.0613
 20
-26.5087
 30
0
 70
     0
  0
VERTEX
  8
LAYER1
 10
21.9549
 20
-27.0578
 30
0
 70
     0
  0
VERTEX
  8
LAYER1
 10
21.8351
 20
-27.6023
 30
0
 70
     0
  0
VERTEX
  8
LAYER1
 10
21.702
 20
-28.1419
 30
0
 70
     0
  0
VERTEX
  8
LAYER1
 10
21.556
 20
-28.6765
 30
0
 70
     0
  0
VERTEX
  8
LAYER1
 10
21.397
 20
-29.2059
 30
0
 70
     0
  0
VERTEX
  8
LAYER1
 10
21.2254
 20
-29.7299
 30
0
 70
     0
  0
VERTEX
  8
LAYER1
 10
21.0413
 20
-30.2484
 30
0
 70
     0
  0
VERTEX
  8
LAYER1
 10
20.8448
 20
-30.761
 30
0
 70
     0
  0
VERTEX
  8
LAYER1
 10
20.6363
 20
-31.2678
 30
0
 70
     0
  0
VERTEX
  8
LAYER1
 10
20.4157
 20
-31.7684
 30
0
 70
     0
  0
VERTEX
  8
LAYER1
 10
20.1834
 20
-32.2627
 30
0
 70
     0
  0
VERTEX
  8
LAYER1
 10
19.9396
 20
-32.7506
 30
0
 70
     0
  0
VERTEX
  8
LAYER1
 10
19.6843
 20
-33.2318
 30
0
 70
     0
  0
VERTEX
  8
LAYER1
 10
19.4177
 20
-33.7061
 30
0
 70
     0
  0
VERTEX
  8
LAYER1
 10
19.1402
 20
-34.1734
 30
0
 70
     0
  0
VERTEX
  8
LAYER1
 10
18.8518
 20
-34.6335
 30
0
 70
     0
  0
VERTEX
  8
LAYER1
 10
18.5527
 20
-35.0862
 30
0
 70
     0
  0
VERTEX
  8
LAYER1
 10
18.2431
 20
-35.5313
 30
0
 70
     0
  0
VERTEX
  8
LAYER1
 10
17.9232
 20
-35.9687
 30
0
 70
     0
  0
VERTEX
  8
LAYER1
 10
17.5932
 20
-36.3981
 30
0
 70
     0
  0
VERTEX
  8
LAYER1
 10
17.2532
 20
-36.8194
 30
0
 70
     0
  0
VERTEX
  8
LAYER1
 10
16.9034
 20
-37.2324
 30
0
 70
     0
  0
VERTEX
  8
LAYER1
 10
16.5441
 20
-37.6369
 30
0
 70
     0
  0
VERTEX
  8
LAYER1
 10
16.1754
 20
-38.0327
 30
0
 70
     0
  0
VERTEX
  8
LAYER1
 10
15.7975
 20
-38.4197
 30
0
 70
     0
  0
VERTEX
  8
LAYER1
 10
15.4105
 20
-38.7976
 30
0
 70
     0
  0
VERTEX
  8
LAYER1
 10
15.0147
 20
-39.1663
 30
0
 70
     0
  0
VERTEX
  8
LAYER1
 10
14.6102
 20
-39.5256
 30
0
 70
     0
  0
VERTEX
  8
LAYER1
 10
14.1972
 20
-39.8754
 30
0
 70
     0
  0
VERTEX
  8
LAYER1
 10
13.7759
 20
-40.2154
 30
0
 70
     0
  0
VERTEX
  8
LAYER1
 10
13.3465
 20
-40.5454
 30
0
 70
     0
  0
VERTEX
  8
LAYER1
 10
12.9091
 20
-40.8653
 30
0
 70
     0
  0
VERTEX
  8
LAYER1
 10
12.464
 20
-41.1749
 30
0
 70
     0
  0
VERTEX
  8
LAYER1
 10
12.0113
 20
-41.474
 30
0
 70
     0
  0
VERTEX
  8
LAYER1
 10
11.5512
 20
-41.7624
 30
0
 70
     0
  0
VERTEX
  8
LAYER1
 10
11.0839
 20
-42.0399
 30
0
 70
     0
  0
VERTEX
  8
LAYER1
 10
10.6096
 20
-42.3065
 30
0
 70
     0
  0
VERTEX
  8
LAYER1
 10
10.1284
 20
-42.5617
 30
0
 70
     0
  0
VERTEX
  8
LAYER1
 10
9.6405
 20
-42.8056
 30
0
 70
     0
  0
VERTEX
  8
LAYER1
 10
9.1462
 20
-43.0379
 30
0
 70
     0
  0
VERTEX
  8
LAYER1
 10
8.6456
 20
-43.2585
 30
0
 70
     0
  0
VERTEX
  8
LAYER1
 10
8.1388
 20
-43.467
 30
0
 70
     0
  0
VERTEX
  8
LAYER1
 10
7.6262
 20
-43.6635
 30
0
 70
     0
  0
VERTEX
  8
LAYER1
 10
7.1077
 20
-43.8476
 30
0
 70
     0
  0
VERTEX
  8
LAYER1
 10
6.5837
 20
-44.0192
 30
0
 70
     0
  0
VERTEX
  8
LAYER1
 10
6.0543
 20
-44.1782
 30
0
 70
     0
  0
VERTEX
  8
LAYER1
 10
5.5197
 20
-44.3242
 30
0
 70
     0
  0
VERTEX
  8
LAYER1
 10
4.9801
 20
-44.4573
 30
0
 70
     0
  0
VERTEX
  8
LAYER1
 10
4.4356
 20
-44.5771
 30
0
 70
     0
  0
VERTEX
  8
LAYER1
 10
3.8865
 20
-44.6835
 30
0
 70
     0
  0
VERTEX
  8
LAYER1
 10
3.3329
 20
-44.7763
 30
0
 70
     0
  0
VERTEX
  8
LAYER1
 10
2.775
 20
-44.8553
 30
0
 70
     0
  0
VERTEX
  8
LAYER1
 10
2.213
 20
-44.9203
 30
0
 70
     0
  0
VERTEX
  8
LAYER1
 10
1.6471
 20
-44.9713
 30
0
 70
     0
  0
VERTEX
  8
LAYER1
 10
1.0774
 20
-45.0079
 30
0
 70
     0
  0
VERTEX
  8
LAYER1
 10
0.5041
 20
-45.0299
 30
0
 70
     0
  0
VERTEX
  8
LAYER1
 10
-0.0725
 20
-45.0374
 30
0
 70
     0
  0
VERTEX
  8
LAYER1
 10
-0.0725
 20
-45.0374
 30
0
 70
     0
  0
VERTEX
  8
LAYER1
 10
-0.6491
 20
-45.0299
 30
0
 70
     0
  0
VERTEX
  8
LAYER1
 10
-1.2224
 20
-45.0079
 30
0
 70
     0
  0
VERTEX
  8
LAYER1
 10
-1.7921
 20
-44.9713
 30
0
 70
     0
  0
VERTEX
  8
LAYER1
 10
-2.358
 20
-44.9203
 30
0
 70
     0
  0
VERTEX
  8
LAYER1
 10
-2.92
 20
-44.8553
 30
0
 70
     0
  0
VERTEX
  8
LAYER1
 10
-3.4779
 20
-44.7763
 30
0
 70
     0
  0
VERTEX
  8
LAYER1
 10
-4.0315
 20
-44.6835
 30
0
 70
     0
  0
VERTEX
  8
LAYER1
 10
-4.5807
 20
-44.5771
 30
0
 70
     0
  0
VERTEX
  8
LAYER1
 10
-5.1251
 20
-44.4573
 30
0
 70
     0
  0
VERTEX
  8
LAYER1
 10
-5.6648
 20
-44.3242
 30
0
 70
     0
  0
VERTEX
  8
LAYER1
 10
-6.1994
 20
-44.1782
 30
0
 70
     0
  0
VERTEX
  8
LAYER1
 10
-6.7288
 20
-44.0192
 30
0
 70
     0
  0
VERTEX
  8
LAYER1
 10
-7.2528
 20
-43.8476
 30
0
 70
     0
  0
VERTEX
  8
LAYER1
 10
-7.7712
 20
-43.6635
 30
0
 70
     0
  0
VERTEX
  8
LAYER1
 10
-8.2839
 20
-43.467
 30
0
 70
     0
  0
VERTEX
  8
LAYER1
 10
-8.7906
 20
-43.2585
 30
0
 70
     0
  0
VERTEX
  8
LAYER1
 10
-9.2912
 20
-43.0379
 30
0
 70
     0
  0
VERTEX
  8
LAYER1
 10
-9.7856
 20
-42.8056
 30
0
 70
     0
  0
VERTEX
  8
LAYER1
 10
-10.2734
 20
-42.5617
 30
0
 70
     0
  0
VERTEX
  8
LAYER1
 10
-10.7546
 20
-42.3065
 30
0
 70
     0
  0
VERTEX
  8
LAYER1
 10
-11.2289
 20
-42.0399
 30
0
 70
     0
  0
VERTEX
  8
LAYER1
 10
-11.6962
 20
-41.7624
 30
0
 70
     0
  0
VERTEX
  8
LAYER1
 10
-12.1563
 20
-41.474
 30
0
 70
     0
  0
VERTEX
  8
LAYER1
 10
-12.609
 20
-41.1749
 30
0
 70
     0
  0
VERTEX
  8
LAYER1
 10
-13.0541
 20
-40.8653
 30
0
 70
     0
  0
VERTEX
  8
LAYER1
 10
-13.4915
 20
-40.5454
 30
0
 70
     0
  0
VERTEX
  8
LAYER1
 10
-13.9209
 20
-40.2154
 30
0
 70
     0
  0
VERTEX
  8
LAYER1
 10
-14.3422
 20
-39.8754
 30
0
 70
     0
  0
VERTEX
  8
LAYER1
 10
-14.7552
 20
-39.5256
 30
0
 70
     0
  0
VERTEX
  8
LAYER1
 10
-15.1597
 20
-39.1663
 30
0
 70
     0
  0
VERTEX
  8
LAYER1
 10
-15.5555
 20
-38.7976
 30
0
 70
     0
  0
VERTEX
  8
LAYER1
 10
-15.9425
 20
-38.4197
 30
0
 70
     0
  0
VERTEX
  8
LAYER1
 10
-16.3204
 20
-38.0327
 30
0
 70
     0
  0
VERTEX
  8
LAYER1
 10
-16.6891
 20
-37.6369
 30
0
 70
     0
  0
VERTEX
  8
LAYER1
 10
-17.0485
 20
-37.2324
 30
0
 70
     0
  0
VERTEX
  8
LAYER1
 10
-17.3982
 20
-36.8194
 30
0
 70
     0
  0
VERTEX
  8
LAYER1
 10
-17.7382
 20
-36.3981
 30
0
 70
     0
  0
VERTEX
  8
LAYER1
 10
-18.0682
 20
-35.9687
 30
0
 70
     0
  0
VERTEX
  8
LAYER1
 10
-18.3881
 20
-35.5313
 30
0
 70
     0
  0
VERTEX
  8
LAYER1
 10
-18.6977
 20
-35.0862
 30
0
 70
     0
  0
VERTEX
  8
LAYER1
 10
-18.9968
 20
-34.6335
 30
0
 70
     0
  0
VERTEX
  8
LAYER1
 10
-19.2852
 20
-34.1734
 30
0
 70
     0
  0
VERTEX
  8
LAYER1
 10
-19.5628
 20
-33.7061
 30
0
 70
     0
  0
VERTEX
  8
LAYER1
 10
-19.8293
 20
-33.2318
 30
0
 70
     0
  0
VERTEX
  8
LAYER1
 10
-20.0846
 20
-32.7506
 30
0
 70
     0
  0
VERTEX
  8
LAYER1
 10
-20.3285
 20
-32.2627
 30
0
 70
     0
  0
VERTEX
  8
LAYER1
 10
-20.5608
 20
-31.7684
 30
0
 70
     0
  0
VERTEX
  8
LAYER1
 10
-20.7813
 20
-31.2678
 30
0
 70
     0
  0
VERTEX
  8
LAYER1
 10
-20.9899
 20
-30.761
 30
0
 70
     0
  0
VERTEX
  8
LAYER1
 10
-21.1863
 20
-30.2484
 30
0
 70
     0
  0
VERTEX
  8
LAYER1
 10
-21.3704
 20
-29.7299
 30
0
 70
     0
  0
VERTEX
  8
LAYER1
 10
-21.5421
 20
-29.2059
 30
0
 70
     0
  0
VERTEX
  8
LAYER1
 10
-21.701
 20
-28.6765
 30
0
 70
     0
  0
VERTEX
  8
LAYER1
 10
-21.8471
 20
-28.1419
 30
0
 70
     0
  0
VERTEX
  8
LAYER1
 10
-21.9801
 20
-27.6023
 30
0
 70
     0
  0
VERTEX
  8
LAYER1
 10
-22.0999
 20
-27.0578
 30
0
 70
     0
  0
VERTEX
  8
LAYER1
 10
-22.2063
 20
-26.5087
 30
0
 70
     0
  0
VERTEX
  8
LAYER1
 10
-22.2991
 20
-25.9551
 30
0
 70
     0
  0
VERTEX
  8
LAYER1
 10
-22.3781
 20
-25.3972
 30
0
 70
     0
  0
VERTEX
  8
LAYER1
 10
-22.4432
 20
-24.8352
 30
0
 70
     0
  0
VERTEX
  8
LAYER1
 10
-22.4941
 20
-24.2693
 30
0
 70
     0
  0
VERTEX
  8
LAYER1
 10
-22.5307
 20
-23.6996
 30
0
 70
     0
  0
VERTEX
  8
LAYER1
 10
-22.5528
 20
-23.1263
 30
0
 70
     0
  0
VERTEX
  8
LAYER1
 10
-22.5602
 20
-22.5497
 30
0
 70
     0
  0
VERTEX
  8
LAYER1
 10
-22.5602
 20
-22.5497
 30
0
 70
     0
  0
VERTEX
  8
LAYER1
 10
-22.5528
 20
-21.973
 30
0
 70
     0
  0
VERTEX
  8
LAYER1
 10
-22.5307
 20
-21.3998
 30
0
 70
     0
  0
VERTEX
  8
LAYER1
 10
-22.4941
 20
-20.8301
 30
0
 70
     0
  0
VERTEX
  8
LAYER1
 10
-22.4432
 20
-20.2642
 30
0
 70
     0
  0
VERTEX
  8
LAYER1
 10
-22.3781
 20
-19.7022
 30
0
 70
     0
  0
VERTEX
  8
LAYER1
 10
-22.2991
 20
-19.1443
 30
0
 70
     0
  0
VERTEX
  8
LAYER1
 10
-22.2063
 20
-18.5907
 30
0
 70
     0
  0
VERTEX
  8
LAYER1
 10
-22.0999
 20
-18.0415
 30
0
 70
     0
  0
VERTEX
  8
LAYER1
 10
-21.9801
 20
-17.4971
 30
0
 70
     0
  0
VERTEX
  8
LAYER1
 10
-21.8471
 20
-16.9574
 30
0
 70
     0
  0
VERTEX
  8
LAYER1
 10
-21.701
 20
-16.4228
 30
0
 70
     0
  0
VERTEX
  8
LAYER1
 10
-21.5421
 20
-15.8934
 30
0
 70
     0
  0
VERTEX
  8
LAYER1
 10
-21.3704
 20
-15.3694
 30
0
 70
     0
  0
VERTEX
  8
LAYER1
 10
-21.1863
 20
-14.851
 30
0
 70
     0
  0
VERTEX
  8
LAYER1
 10
-20.9899
 20
-14.3383
 30
0
 70
     0
  0
VERTEX
  8
LAYER1
 10
-20.7813
 20
-13.8316
 30
0
 70
     0
  0
VERTEX
  8
LAYER1
 10
-20.5608
 20
-13.3309
 30
0
 70
     0
  0
VERTEX
  8
LAYER1
 10
-20.3285
 20
-12.8366
 30
0
 70
     0
  0
VERTEX
  8
LAYER1
 10
-20.0846
 20
-12.3488
 30
0
 70
     0
  0
VERTEX
  8
LAYER1
 10
-19.8293
 20
-11.8676
 30
0
 70
     0
  0
VERTEX
  8
LAYER1
 10
-19.5628
 20
-11.3933
 30
0
 70
     0
  0
VERTEX
  8
LAYER1
 10
-19.2852
 20
-10.926
 30
0
 70
     0
  0
VERTEX
  8
LAYER1
 10
-18.9968
 20
-10.4659
 30
0
 70
     0
  0
VERTEX
  8
LAYER1
 10
-18.6977
 20
-10.0132
 30
0
 70
     0
  0
VERTEX
  8
LAYER1
 10
-18.3881
 20
-9.5681
 30
0
 70
     0
  0
VERTEX
  8
LAYER1
 10
-18.0682
 20
-9.1307
 30
0
 70
     0
  0
VERTEX
  8
LAYER1
 10
-17.7382
 20
-8.7013
 30
0
 70
     0
  0
VERTEX
  8
LAYER1
 10
-17.3982
 20
-8.28
 30
0
 70
     0
  0
VERTEX
  8
LAYER1
 10
-17.0485
 20
-7.867
 30
0
 70
     0
  0
VERTEX
  8
LAYER1
 10
-16.6891
 20
-7.4625
 30
0
 70
     0
  0
VERTEX
  8
LAYER1
 10
-16.3204
 20
-7.0667
 30
0
 70
     0
  0
VERTEX
  8
LAYER1
 10
-15.9425
 20
-6.6797
 30
0
 70
     0
  0
VERTEX
  8
LAYER1
 10
-15.5555
 20
-6.3018
 30
0
 70
     0
  0
VERTEX
  8
LAYER1
 10
-15.1597
 20
-5.933
 30
0
 70
     0
  0
VERTEX
  8
LAYER1
 10
-14.7552
 20
-5.5737
 30
0
 70
     0
  0
VERTEX
  8
LAYER1
 10
-14.3422
 20
-5.224
 30
0
 70
     0
  0
VERTEX
  8
LAYER1
 10
-13.9209
 20
-4.884
 30
0
 70
     0
  0
VERTEX
  8
LAYER1
 10
-13.4915
 20
-4.554
 30
0
 70
     0
  0
VERTEX
  8
LAYER1
 10
-13.0541
 20
-4.2341
 30
0
 70
     0
  0
VERTEX
  8
LAYER1
 10
-12.609
 20
-3.9245
 30
0
 70
     0
  0
VERTEX
  8
LAYER1
 10
-12.1563
 20
-3.6254
 30
0
 70
     0
  0
VERTEX
  8
LAYER1
 10
-11.6962
 20
-3.337
 30
0
 70
     0
  0
VERTEX
  8
LAYER1
 10
-11.2289
 20
-3.0594
 30
0
 70
     0
  0
VERTEX
  8
LAYER1
 10
-10.7546
 20
-2.7929
 30
0
 70
     0
  0
VERTEX
  8
LAYER1
 10
-10.2734
 20
-2.5376
 30
0
 70
     0
  0
VERTEX
  8
LAYER1
 10
-9.7856
 20
-2.2937
 30
0
 70
     0
  0
VERTEX
  8
LAYER1
 10
-9.2912
 20
-2.0614
 30
0
 70
     0
  0
VERTEX
  8
LAYER1
 10
-8.7906
 20
-1.8409
 30
0
 70
     0
  0
VERTEX
  8
LAYER1
 10
-8.2839
 20
-1.6323
 30
0
 70
     0
  0
VERTEX
  8
LAYER1
 10
-7.7712
 20
-1.4359
 30
0
 70
     0
  0
VERTEX
  8
LAYER1
 10
-7.2528
 20
-1.2518
 30
0
 70
     0
  0
VERTEX
  8
LAYER1
 10
-6.7288
 20
-1.0801
 30
0
 70
     0
  0
VERTEX
  8
LAYER1
 10
-6.1994
 20
-0.9212
 30
0
 70
     0
  0
VERTEX
  8
LAYER1
 10
-5.6648
 20
-0.7751
 30
0
 70
     0
  0
VERTEX
  8
LAYER1
 10
-5.1251
 20
-0.6421
 30
0
 70
     0
  0
VERTEX
  8
LAYER1
 10
-4.5807
 20
-0.5223
 30
0
 70
     0
  0
VERTEX
  8
LAYER1
 10
-4.0315
 20
-0.4159
 30
0
 70
     0
  0
VERTEX
  8
LAYER1
 10
-3.4779
 20
-0.3231
 30
0
 70
     0
  0
VERTEX
  8
LAYER1
 10
-2.92
 20
-0.2441
 30
0
 70
     0
  0
VERTEX
  8
LAYER1
 10
-2.358
 20
-0.179
 30
0
 70
     0
  0
VERTEX
  8
LAYER1
 10
-1.7921
 20
-0.1281
 30
0
 70
     0
  0
VERTEX
  8
LAYER1
 10
-1.2224
 20
-0.0915
 30
0
 70
     0
  0
VERTEX
  8
LAYER1
 10
-0.6491
 20
-0.0694
 30
0
 70
     0
  0
VERTEX
  8
LAYER1
 10
-0.0725
 20
-0.062
 30
0
 70
     0
  0
VERTEX
  8
LAYER1
 10
-0.0725
 20
-0.062
 30
0
 70
     0
  0
VERTEX
  8
LAYER1
 10
0.5041
 20
-0.0694
 30
0
 70
     0
  0
VERTEX
  8
LAYER1
 10
1.0774
 20
-0.0915
 30
0
 70
     0
  0
VERTEX
  8
LAYER1
 10
1.6471
 20
-0.1281
 30
0
 70
     0
  0
VERTEX
  8
LAYER1
 10
2.213
 20
-0.179
 30
0
 70
     0
  0
VERTEX
  8
LAYER1
 10
2.775
 20
-0.2441
 30
0
 70
     0
  0
VERTEX
  8
LAYER1
 10
3.3329
 20
-0.3231
 30
0
 70
     0
  0
VERTEX
  8
LAYER1
 10
3.8865
 20
-0.4159
 30
0
 70
     0
  0
VERTEX
  8
LAYER1
 10
4.4356
 20
-0.5223
 30
0
 70
     0
  0
VERTEX
  8
LAYER1
 10
4.9801
 20
-0.6421
 30
0
 70
     0
  0
VERTEX
  8
LAYER1
 10
5.5197
 20
-0.7751
 30
0
 70
     0
  0
VERTEX
  8
LAYER1
 10
6.0543
 20
-0.9212
 30
0
 70
     0
  0
VERTEX
  8
LAYER1
 10
6.5837
 20
-1.0801
 30
0
 70
     0
  0
VERTEX
  8
LAYER1
 10
7.1077
 20
-1.2518
 30
0
 70
     0
  0
VERTEX
  8
LAYER1
 10
7.6262
 20
-1.4359
 30
0
 70
     0
  0
VERTEX
  8
LAYER1
 10
8.1388
 20
-1.6323
 30
0
 70
     0
  0
VERTEX
  8
LAYER1
 10
8.6456
 20
-1.8409
 30
0
 70
     0
  0
VERTEX
  8
LAYER1
 10
9.1462
 20
-2.0614
 30
0
 70
     0
  0
VERTEX
  8
LAYER1
 10
9.6405
 20
-2.2937
 30
0
 70
     0
  0
VERTEX
  8
LAYER1
 10
10.1284
 20
-2.5376
 30
0
 70
     0
  0
VERTEX
  8
LAYER1
 10
10.6096
 20
-2.7929
 30
0
 70
     0
  0
VERTEX
  8
LAYER1
 10
11.0839
 20
-3.0594
 30
0
 70
     0
  0
VERTEX
  8
LAYER1
 10
11.5512
 20
-3.337
 30
0
 70
     0
  0
VERTEX
  8
LAYER1
 10
12.0113
 20
-3.6254
 30
0
 70
     0
  0
VERTEX
  8
LAYER1
 10
12.464
 20
-3.9245
 30
0
 70
     0
  0
VERTEX
  8
LAYER1
 10
12.9091
 20
-4.2341
 30
0
 70
     0
  0
VERTEX
  8
LAYER1
 10
13.3465
 20
-4.554
 30
0
 70
     0
  0
VERTEX
  8
LAYER1
 10
13.7759
 20
-4.884
 30
0
 70
     0
  0
VERTEX
  8
LAYER1
 10
14.1972
 20
-5.224
 30
0
 70
     0
  0
VERTEX
  8
LAYER1
 10
14.6102
 20
-5.5737
 30
0
 70
     0
  0
VERTEX
  8
LAYER1
 10
15.0147
 20
-5.933
 30
0
 70
     0
  0
VERTEX
  8
LAYER1
 10
15.4105
 20
-6.3018
 30
0
 70
     0
  0
VERTEX
  8
LAYER1
 10
15.7975
 20
-6.6797
 30
0
 70
     0
  0
VERTEX
  8
LAYER1
 10
16.1754
 20
-7.0667
 30
0
 70
     0
  0
VERTEX
  8
LAYER1
 10
16.5441
 20
-7.4625
 30
0
 70
     0
  0
VERTEX
  8
LAYER1
 10
16.9034
 20
-7.867
 30
0
 70
     0
  0
VERTEX
  8
LAYER1
 10
17.2532
 20
-8.28
 30
0
 70
     0
  0
VERTEX
  8
LAYER1
 10
17.5932
 20
-8.7013
 30
0
 70
     0
  0
VERTEX
  8
LAYER1
 10
17.9232
 20
-9.1307
 30
0
 70
     0
  0
VERTEX
  8
LAYER1
 10
18.2431
 20
-9.5681
 30
0
 70
     0
  0
VERTEX
  8
LAYER1
 10
18.5527
 20
-10.0132
 30
0
 70
     0
  0
VERTEX
  8
LAYER1
 10
18.8518
 20
-10.4659
 30
0
 70
     0
  0
VERTEX
  8
LAYER1
 10
19.1402
 20
-10.926
 30
0
 70
     0
  0
VERTEX
  8
LAYER1
 10
19.4177
 20
-11.3933
 30
0
 70
     0
  0
VERTEX
  8
LAYER1
 10
19.6843
 20
-11.8676
 30
0
 70
     0
  0
VERTEX
  8
LAYER1
 10
19.9396
 20
-12.3488
 30
0
 70
     0
  0
VERTEX
  8
LAYER1
 10
20.1834
 20
-12.8366
 30
0
 70
     0
  0
VERTEX
  8
LAYER1
 10
20.4157
 20
-13.3309
 30
0
 70
     0
  0
VERTEX
  8
LAYER1
 10
20.6363
 20
-13.8316
 30
0
 70
     0
  0
VERTEX
  8
LAYER1
 10
20.8448
 20
-14.3383
 30
0
 70
     0
  0
VERTEX
  8
LAYER1
 10
21.0413
 20
-14.851
 30
0
 70
     0
  0
VERTEX
  8
LAYER1
 10
21.2254
 20
-15.3694
 30
0
 70
     0
  0
VERTEX
  8
LAYER1
 10
21.397
 20
-15.8934
 30
0
 70
     0
  0
VERTEX
  8
LAYER1
 10
21.556
 20
-16.4228
 30
0
 70
     0
  0
VERTEX
  8
LAYER1
 10
21.702
 20
-16.9574
 30
0
 70
     0
  0
VERTEX
  8
LAYER1
 10
21.8351
 20
-17.4971
 30
0
 70
     0
  0
VERTEX
  8
LAYER1
 10
21.9549
 20
-18.0415
 30
0
 70
     0
  0
VERTEX
  8
LAYER1
 10
22.0613
 20
-18.5907
 30
0
 70
     0
  0
VERTEX
  8
LAYER1
 10
22.1541
 20
-19.1443
 30
0
 70
     0
  0
VERTEX
  8
LAYER1
 10
22.2331
 20
-19.7022
 30
0
 70
     0
  0
VERTEX
  8
LAYER1
 10
22.2981
 20
-20.2642
 30
0
 70
     0
  0
VERTEX
  8
LAYER1
 10
22.3491
 20
-20.8301
 30
0
 70
     0
  0
VERTEX
  8
LAYER1
 10
22.3857
 20
-21.3998
 30
0
 70
     0
  0
VERTEX
  8
LAYER1
 10
22.4078
 20
-21.973
 30
0
 70
     0
  0
VERTEX
  8
LAYER1
 10
22.4152
 20
-22.5497
 30
0
 70
     0
  0
SEQEND
  0
POLYLINE
  8
LAYER1
  6
CONTINUOUS
 62
     5
 66
     1
 40
0.0139
 41
0.0139
  0
VERTEX
  8
LAYER1
 10
12.2986
 20
-22.6911
 30
0
 70
     0
  0
VERTEX
  8
LAYER1
 10
12.2946
 20
-23.0064
 30
0
 70
     0
  0
VERTEX
  8
LAYER1
 10
12.2825
 20
-23.3199
 30
0
 70
     0
  0
VERTEX
  8
LAYER1
 10
12.2625
 20
-23.6315
 30
0
 70
     0
  0
VERTEX
  8
LAYER1
 10
12.2347
 20
-23.941
 30
0
 70
     0
  0
VERTEX
  8
LAYER1
 10
12.1991
 20
-24.2483
 30
0
 70
     0
  0
VERTEX
  8
LAYER1
 10
12.1559
 20
-24.5534
 30
0
 70
     0
  0
VERTEX
  8
LAYER1
 10
12.1051
 20
-24.8561
 30
0
 70
     0
  0
VERTEX
  8
LAYER1
 10
12.0469
 20
-25.1564
 30
0
 70
     0
  0
VERTEX
  8
LAYER1
 10
11.9814
 20
-25.4542
 30
0
 70
     0
  0
VERTEX
  8
LAYER1
 10
11.9087
 20
-25.7493
 30
0
 70
     0
  0
VERTEX
  8
LAYER1
 10
11.8288
 20
-26.0417
 30
0
 70
     0
  0
VERTEX
  8
LAYER1
 10
11.7419
 20
-26.3312
 30
0
 70
     0
  0
VERTEX
  8
LAYER1
 10
11.648
 20
-26.6177
 30
0
 70
     0
  0
VERTEX
  8
LAYER1
 10
11.5473
 20
-26.9012
 30
0
 70
     0
  0
VERTEX
  8
LAYER1
 10
11.4399
 20
-27.1816
 30
0
 70
     0
  0
VERTEX
  8
LAYER1
 10
11.3258
 20
-27.4587
 30
0
 70
     0
  0
VERTEX
  8
LAYER1
 10
11.2052
 20
-27.7325
 30
0
 70
     0
  0
VERTEX
  8
LAYER1
 10
11.0782
 20
-28.0028
 30
0
 70
     0
  0
VERTEX
  8
LAYER1
 10
10.9448
 20
-28.2696
 30
0
 70
     0
  0
VERTEX
  8
LAYER1
 10
10.8052
 20
-28.5328
 30
0
 70
     0
  0
VERTEX
  8
LAYER1
 10
10.6595
 20
-28.7922
 30
0
 70
     0
  0
VERTEX
  8
LAYER1
 10
10.5077
 20
-29.0477
 30
0
 70
     0
  0
VERTEX
  8
LAYER1
 10
10.3499
 20
-29.2993
 30
0
 70
     0
  0
VERTEX
  8
LAYER1
 10
10.1864
 20
-29.5469
 30
0
 70
     0
  0
VERTEX
  8
LAYER1
 10
10.0171
 20
-29.7903
 30
0
 70
     0
  0
VERTEX
  8
LAYER1
 10
9.8421
 20
-30.0295
 30
0
 70
     0
  0
VERTEX
  8
LAYER1
 10
9.6616
 20
-30.2643
 30
0
 70
     0
  0
VERTEX
  8
LAYER1
 10
9.4757
 20
-30.4947
 30
0
 70
     0
  0
VERTEX
  8
LAYER1
 10
9.2845
 20
-30.7206
 30
0
 70
     0
  0
VERTEX
  8
LAYER1
 10
9.088
 20
-30.9418
 30
0
 70
     0
  0
VERTEX
  8
LAYER1
 10
8.8863
 20
-31.1582
 30
0
 70
     0
  0
VERTEX
  8
LAYER1
 10
8.6796
 20
-31.3699
 30
0
 70
     0
  0
VERTEX
  8
LAYER1
 10
8.468
 20
-31.5766
 30
0
 70
     0
  0
VERTEX
  8
LAYER1
 10
8.2515
 20
-31.7782
 30
0
 70
     0
  0
VERTEX
  8
LAYER1
 10
8.0303
 20
-31.9747
 30
0
 70
     0
  0
VERTEX
  8
LAYER1
 10
7.8045
 20
-32.166
 30
0
 70
     0
  0
VERTEX
  8
LAYER1
 10
7.5741
 20
-32.3519
 30
0
 70
     0
  0
VERTEX
  8
LAYER1
 10
7.3393
 20
-32.5324
 30
0
 70
     0
  0
VERTEX
  8
LAYER1
 10
7.1001
 20
-32.7073
 30
0
 70
     0
  0
VERTEX
  8
LAYER1
 10
6.8567
 20
-32.8766
 30
0
 70
     0
  0
VERTEX
  8
LAYER1
 10
6.6091
 20
-33.0402
 30
0
 70
     0
  0
VERTEX
  8
LAYER1
 10
6.3575
 20
-33.1979
 30
0
 70
     0
  0
VERTEX
  8
LAYER1
 10
6.1019
 20
-33.3497
 30
0
 70
     0
  0
VERTEX
  8
LAYER1
 10
5.8425
 20
-33.4954
 30
0
 70
     0
  0
VERTEX
  8
LAYER1
 10
5.5794
 20
-33.635
 30
0
 70
     0
  0
VERTEX
  8
LAYER1
 10
5.3126
 20
-33.7684
 30
0
 70
     0
  0
VERTEX
  8
LAYER1
 10
5.0423
 20
-33.8955
 30
0
 70
     0
  0
VERTEX
  8
LAYER1
 10
4.7685
 20
-34.0161
 30
0
 70
     0
  0
VERTEX
  8
LAYER1
 10
4.4914
 20
-34.1301
 30
0
 70
     0
  0
VERTEX
  8
LAYER1
 10
4.211
 20
-34.2376
 30
0
 70
     0
  0
VERTEX
  8
LAYER1
 10
3.9275
 20
-34.3382
 30
0
 70
     0
  0
VERTEX
  8
LAYER1
 10
3.6409
 20
-34.4321
 30
0
 70
     0
  0
VERTEX
  8
LAYER1
 10
3.3514
 20
-34.519
 30
0
 70
     0
  0
VERTEX
  8
LAYER1
 10
3.0591
 20
-34.5989
 30
0
 70
     0
  0
VERTEX
  8
LAYER1
 10
2.764
 20
-34.6717
 30
0
 70
     0
  0
VERTEX
  8
LAYER1
 10
2.4662
 20
-34.7372
 30
0
 70
     0
  0
VERTEX
  8
LAYER1
 10
2.1659
 20
-34.7953
 30
0
 70
     0
  0
VERTEX
  8
LAYER1
 10
1.8632
 20
-34.8461
 30
0
 70
     0
  0
VERTEX
  8
LAYER1
 10
1.5581
 20
-34.8893
 30
0
 70
     0
  0
VERTEX
  8
LAYER1
 10
1.2507
 20
-34.9249
 30
0
 70
     0
  0
VERTEX
  8
LAYER1
 10
0.9412
 20
-34.9527
 30
0
 70
     0
  0
VERTEX
  8
LAYER1
 10
0.6297
 20
-34.9728
 30
0
 70
     0
  0
VERTEX
  8
LAYER1
 10
0.3162
 20
-34.9848
 30
0
 70
     0
  0
VERTEX
  8
LAYER1
 10
0.0008
 20
-34.9889
 30
0
 70
     0
  0
VERTEX
  8
LAYER1
 10
0.0008
 20
-34.9889
 30
0
 70
     0
  0
VERTEX
  8
LAYER1
 10
-0.3145
 20
-34.9848
 30
0
 70
     0
  0
VERTEX
  8
LAYER1
 10
-0.628
 20
-34.9728
 30
0
 70
     0
  0
VERTEX
  8
LAYER1
 10
-0.9395
 20
-34.9527
 30
0
 70
     0
  0
VERTEX
  8
LAYER1
 10
-1.249
 20
-34.9249
 30
0
 70
     0
  0
VERTEX
  8
LAYER1
 10
-1.5564
 20
-34.8893
 30
0
 70
     0
  0
VERTEX
  8
LAYER1
 10
-1.8615
 20
-34.8461
 30
0
 70
     0
  0
VERTEX
  8
LAYER1
 10
-2.1642
 20
-34.7953
 30
0
 70
     0
  0
VERTEX
  8
LAYER1
 10
-2.4645
 20
-34.7372
 30
0
 70
     0
  0
VERTEX
  8
LAYER1
 10
-2.7623
 20
-34.6717
 30
0
 70
     0
  0
VERTEX
  8
LAYER1
 10
-3.0574
 20
-34.5989
 30
0
 70
     0
  0
VERTEX
  8
LAYER1
 10
-3.3497
 20
-34.519
 30
0
 70
     0
  0
VERTEX
  8
LAYER1
 10
-3.6393
 20
-34.4321
 30
0
 70
     0
  0
VERTEX
  8
LAYER1
 10
-3.9258
 20
-34.3382
 30
0
 70
     0
  0
VERTEX
  8
LAYER1
 10
-4.2093
 20
-34.2376
 30
0
 70
     0
  0
VERTEX
  8
LAYER1
 10
-4.4897
 20
-34.1301
 30
0
 70
     0
  0
VERTEX
  8
LAYER1
 10
-4.7668
 20
-34.0161
 30
0
 70
     0
  0
VERTEX
  8
LAYER1
 10
-5.0406
 20
-33.8955
 30
0
 70
     0
  0
VERTEX
  8
LAYER1
 10
-5.3109
 20
-33.7684
 30
0
 70
     0
  0
VERTEX
  8
LAYER1
 10
-5.5777
 20
-33.635
 30
0
 70
     0
  0
VERTEX
  8
LAYER1
 10
-5.8409
 20
-33.4954
 30
0
 70
     0
  0
VERTEX
  8
LAYER1
 10
-6.1003
 20
-33.3497
 30
0
 70
     0
  0
VERTEX
  8
LAYER1
 10
-6.3558
 20
-33.1979
 30
0
 70
     0
  0
VERTEX
  8
LAYER1
 10
-6.6074
 20
-33.0402
 30
0
 70
     0
  0
VERTEX
  8
LAYER1
 10
-6.855
 20
-32.8766
 30
0
 70
     0
  0
VERTEX
  8
LAYER1
 10
-7.0984
 20
-32.7073
 30
0
 70
     0
  0
VERTEX
  8
LAYER1
 10
-7.3376
 20
-32.5324
 30
0
 70
     0
  0
VERTEX
  8
LAYER1
 10
-7.5724
 20
-32.3519
 30
0
 70
     0
  0
VERTEX
  8
LAYER1
 10
-7.8028
 20
-32.166
 30
0
 70
     0
  0
VERTEX
  8
LAYER1
 10
-8.0287
 20
-31.9747
 30
0
 70
     0
  0
VERTEX
  8
LAYER1
 10
-8.2499
 20
-31.7782
 30
0
 70
     0
  0
VERTEX
  8
LAYER1
 10
-8.4663
 20
-31.5766
 30
0
 70
     0
  0
VERTEX
  8
LAYER1
 10
-8.678
 20
-31.3699
 30
0
 70
     0
  0
VERTEX
  8
LAYER1
 10
-8.8846
 20
-31.1582
 30
0
 70
     0
  0
VERTEX
  8
LAYER1
 10
-9.0863
 20
-30.9418
 30
0
 70
     0
  0
VERTEX
  8
LAYER1
 10
-9.2828
 20
-30.7206
 30
0
 70
     0
  0
VERTEX
  8
LAYER1
 10
-9.474
 20
-30.4947
 30
0
 70
     0
  0
VERTEX
  8
LAYER1
 10
-9.66
 20
-30.2643
 30
0
 70
     0
  0
VERTEX
  8
LAYER1
 10
-9.8404
 20
-30.0295
 30
0
 70
     0
  0
VERTEX
  8
LAYER1
 10
-10.0154
 20
-29.7903
 30
0
 70
     0
  0
VERTEX
  8
LAYER1
 10
-10.1847
 20
-29.5469
 30
0
 70
     0
  0
VERTEX
  8
LAYER1
 10
-10.3483
 20
-29.2993
 30
0
 70
     0
  0
VERTEX
  8
LAYER1
 10
-10.506
 20
-29.0477
 30
0
 70
     0
  0
VERTEX
  8
LAYER1
 10
-10.6578
 20
-28.7922
 30
0
 70
     0
  0
VERTEX
  8
LAYER1
 10
-10.8035
 20
-28.5328
 30
0
 70
     0
  0
VERTEX
  8
LAYER1
 10
-10.9431
 20
-28.2696
 30
0
 70
     0
  0
VERTEX
  8
LAYER1
 10
-11.0765
 20
-28.0028
 30
0
 70
     0
  0
VERTEX
  8
LAYER1
 10
-11.2035
 20
-27.7325
 30
0
 70
     0
  0
VERTEX
  8
LAYER1
 10
-11.3241
 20
-27.4587
 30
0
 70
     0
  0
VERTEX
  8
LAYER1
 10
-11.4382
 20
-27.1816
 30
0
 70
     0
  0
VERTEX
  8
LAYER1
 10
-11.5456
 20
-26.9012
 30
0
 70
     0
  0
VERTEX
  8
LAYER1
 10
-11.6463
 20
-26.6177
 30
0
 70
     0
  0
VERTEX
  8
LAYER1
 10
-11.7402
 20
-26.3312
 30
0
 70
     0
  0
VERTEX
  8
LAYER1
 10
-11.8271
 20
-26.0417
 30
0
 70
     0
  0
VERTEX
  8
LAYER1
 10
-11.907
 20
-25.7493
 30
0
 70
     0
  0
VERTEX
  8
LAYER1
 10
-11.9797
 20
-25.4542
 30
0
 70
     0
  0
VERTEX
  8
LAYER1
 10
-12.0453
 20
-25.1564
 30
0
 70
     0
  0
VERTEX
  8
LAYER1
 10
-12.1034
 20
-24.8561
 30
0
 70
     0
  0
VERTEX
  8
LAYER1
 10
-12.1542
 20
-24.5534
 30
0
 70
     0
  0
VERTEX
  8
LAYER1
 10
-12.1974
 20
-24.2483
 30
0
 70
     0
  0
VERTEX
  8
LAYER1
 10
-12.233
 20
-23.941
 30
0
 70
     0
  0
VERTEX
  8
LAYER1
 10
-12.2608
 20
-23.6315
 30
0
 70
     0
  0
VERTEX
  8
LAYER1
 10
-12.2808
 20
-23.3199
 30
0
 70
     0
  0
VERTEX
  8
LAYER1
 10
-12.2929
 20
-23.0064
 30
0
 70
     0
  0
VERTEX
  8
LAYER1
 10
-12.297
 20
-22.6911
 30
0
 70
     0
  0
VERTEX
  8
LAYER1
 10
-12.297
 20
-22.6911
 30
0
 70
     0
  0
VERTEX
  8
LAYER1
 10
-12.2929
 20
-22.3757
 30
0
 70
     0
  0
VERTEX
  8
LAYER1
 10
-12.2808
 20
-22.0622
 30
0
 70
     0
  0
VERTEX
  8
LAYER1
 10
-12.2608
 20
-21.7507
 30
0
 70
     0
  0
VERTEX
  8
LAYER1
 10
-12.233
 20
-21.4412
 30
0
 70
     0
  0
VERTEX
  8
LAYER1
 10
-12.1974
 20
-21.1339
 30
0
 70
     0
  0
VERTEX
  8
LAYER1
 10
-12.1542
 20
-20.8288
 30
0
 70
     0
  0
VERTEX
  8
LAYER1
 10
-12.1034
 20
-20.526
 30
0
 70
     0
  0
VERTEX
  8
LAYER1
 10
-12.0453
 20
-20.2257
 30
0
 70
     0
  0
VERTEX
  8
LAYER1
 10
-11.9797
 20
-19.928
 30
0
 70
     0
  0
VERTEX
  8
LAYER1
 10
-11.907
 20
-19.6329
 30
0
 70
     0
  0
VERTEX
  8
LAYER1
 10
-11.8271
 20
-19.3405
 30
0
 70
     0
  0
VERTEX
  8
LAYER1
 10
-11.7402
 20
-19.051
 30
0
 70
     0
  0
VERTEX
  8
LAYER1
 10
-11.6463
 20
-18.7644
 30
0
 70
     0
  0
VERTEX
  8
LAYER1
 10
-11.5456
 20
-18.4809
 30
0
 70
     0
  0
VERTEX
  8
LAYER1
 10
-11.4382
 20
-18.2005
 30
0
 70
     0
  0
VERTEX
  8
LAYER1
 10
-11.3241
 20
-17.9234
 30
0
 70
     0
  0
VERTEX
  8
LAYER1
 10
-11.2035
 20
-17.6496
 30
0
 70
     0
  0
VERTEX
  8
LAYER1
 10
-11.0765
 20
-17.3793
 30
0
 70
     0
  0
VERTEX
  8
LAYER1
 10
-10.9431
 20
-17.1125
 30
0
 70
     0
  0
VERTEX
  8
LAYER1
 10
-10.8035
 20
-16.8494
 30
0
 70
     0
  0
VERTEX
  8
LAYER1
 10
-10.6578
 20
-16.59
 30
0
 70
     0
  0
VERTEX
  8
LAYER1
 10
-10.506
 20
-16.3344
 30
0
 70
     0
  0
VERTEX
  8
LAYER1
 10
-10.3483
 20
-16.0828
 30
0
 70
     0
  0
VERTEX
  8
LAYER1
 10
-10.1847
 20
-15.8353
 30
0
 70
     0
  0
VERTEX
  8
LAYER1
 10
-10.0154
 20
-15.5918
 30
0
 70
     0
  0
VERTEX
  8
LAYER1
 10
-9.8404
 20
-15.3527
 30
0
 70
     0
  0
VERTEX
  8
LAYER1
 10
-9.66
 20
-15.1178
 30
0
 70
     0
  0
VERTEX
  8
LAYER1
 10
-9.474
 20
-14.8874
 30
0
 70
     0
  0
VERTEX
  8
LAYER1
 10
-9.2828
 20
-14.6616
 30
0
 70
     0
  0
VERTEX
  8
LAYER1
 10
-9.0863
 20
-14.4404
 30
0
 70
     0
  0
VERTEX
  8
LAYER1
 10
-8.8846
 20
-14.2239
 30
0
 70
     0
  0
VERTEX
  8
LAYER1
 10
-8.678
 20
-14.0123
 30
0
 70
     0
  0
VERTEX
  8
LAYER1
 10
-8.4663
 20
-13.8056
 30
0
 70
     0
  0
VERTEX
  8
LAYER1
 10
-8.2499
 20
-13.604
 30
0
 70
     0
  0
VERTEX
  8
LAYER1
 10
-8.0287
 20
-13.4075
 30
0
 70
     0
  0
VERTEX
  8
LAYER1
 10
-7.8028
 20
-13.2162
 30
0
 70
     0
  0
VERTEX
  8
LAYER1
 10
-7.5724
 20
-13.0303
 30
0
 70
     0
  0
VERTEX
  8
LAYER1
 10
-7.3376
 20
-12.8498
 30
0
 70
     0
  0
VERTEX
  8
LAYER1
 10
-7.0984
 20
-12.6748
 30
0
 70
     0
  0
VERTEX
  8
LAYER1
 10
-6.855
 20
-12.5055
 30
0
 70
     0
  0
VERTEX
  8
LAYER1
 10
-6.6074
 20
-12.342
 30
0
 70
     0
  0
VERTEX
  8
LAYER1
 10
-6.3558
 20
-12.1843
 30
0
 70
     0
  0
VERTEX
  8
LAYER1
 10
-6.1003
 20
-12.0325
 30
0
 70
     0
  0
VERTEX
  8
LAYER1
 10
-5.8409
 20
-11.8867
 30
0
 70
     0
  0
VERTEX
  8
LAYER1
 10
-5.5777
 20
-11.7471
 30
0
 70
     0
  0
VERTEX
  8
LAYER1
 10
-5.3109
 20
-11.6137
 30
0
 70
     0
  0
VERTEX
  8
LAYER1
 10
-5.0406
 20
-11.4867
 30
0
 70
     0
  0
VERTEX
  8
LAYER1
 10
-4.7668
 20
-11.3661
 30
0
 70
     0
  0
VERTEX
  8
LAYER1
 10
-4.4897
 20
-11.252
 30
0
 70
     0
  0
VERTEX
  8
LAYER1
 10
-4.2093
 20
-11.1446
 30
0
 70
     0
  0
VERTEX
  8
LAYER1
 10
-3.9258
 20
-11.0439
 30
0
 70
     0
  0
VERTEX
  8
LAYER1
 10
-3.6393
 20
-10.9501
 30
0
 70
     0
  0
VERTEX
  8
LAYER1
 10
-3.3497
 20
-10.8631
 30
0
 70
     0
  0
VERTEX
  8
LAYER1
 10
-3.0574
 20
-10.7832
 30
0
 70
     0
  0
VERTEX
  8
LAYER1
 10
-2.7623
 20
-10.7105
 30
0
 70
     0
  0
VERTEX
  8
LAYER1
 10
-2.4645
 20
-10.645
 30
0
 70
     0
  0
VERTEX
  8
LAYER1
 10
-2.1642
 20
-10.5868
 30
0
 70
     0
  0
VERTEX
  8
LAYER1
 10
-1.8615
 20
-10.5361
 30
0
 70
     0
  0
VERTEX
  8
LAYER1
 10
-1.5564
 20
-10.4928
 30
0
 70
     0
  0
VERTEX
  8
LAYER1
 10
-1.249
 20
-10.4573
 30
0
 70
     0
  0
VERTEX
  8
LAYER1
 10
-0.9395
 20
-10.4294
 30
0
 70
     0
  0
VERTEX
  8
LAYER1
 10
-0.628
 20
-10.4094
 30
0
 70
     0
  0
VERTEX
  8
LAYER1
 10
-0.3145
 20
-10.3973
 30
0
 70
     0
  0
VERTEX
  8
LAYER1
 10
0.0008
 20
-10.3933
 30
0
 70
     0
  0
VERTEX
  8
LAYER1
 10
0.0008
 20
-10.3933
 30
0
 70
     0
  0
VERTEX
  8
LAYER1
 10
0.3162
 20
-10.3973
 30
0
 70
     0
  0
VERTEX
  8
LAYER1
 10
0.6297
 20
-10.4094
 30
0
 70
     0
  0
VERTEX
  8
LAYER1
 10
0.9412
 20
-10.4294
 30
0
 70
     0
  0
VERTEX
  8
LAYER1
 10
1.2507
 20
-10.4573
 30
0
 70
     0
  0
VERTEX
  8
LAYER1
 10
1.5581
 20
-10.4928
 30
0
 70
     0
  0
VERTEX
  8
LAYER1
 10
1.8632
 20
-10.5361
 30
0
 70
     0
  0
VERTEX
  8
LAYER1
 10
2.1659
 20
-10.5868
 30
0
 70
     0
  0
VERTEX
  8
LAYER1
 10
2.4662
 20
-10.645
 30
0
 70
     0
  0
VERTEX
  8
LAYER1
 10
2.764
 20
-10.7105
 30
0
 70
     0
  0
VERTEX
  8
LAYER1
 10
3.0591
 20
-10.7832
 30
0
 70
     0
  0
VERTEX
  8
LAYER1
 10
3.3514
 20
-10.8631
 30
0
 70
     0
  0
VERTEX
  8
LAYER1
 10
3.6409
 20
-10.9501
 30
0
 70
     0
  0
VERTEX
  8
LAYER1
 10
3.9275
 20
-11.0439
 30
0
 70
     0
  0
VERTEX
  8
LAYER1
 10
4.211
 20
-11.1446
 30
0
 70
     0
  0
VERTEX
  8
LAYER1
 10
4.4914
 20
-11.252
 30
0
 70
     0
  0
VERTEX
  8
LAYER1
 10
4.7685
 20
-11.3661
 30
0
 70
     0
  0
VERTEX
  8
LAYER1
 10
5.0423
 20
-11.4867
 30
0
 70
     0
  0
VERTEX
  8
LAYER1
 10
5.3126
 20
-11.6137
 30
0
 70
     0
  0
VERTEX
  8
LAYER1
 10
5.5794
 20
-11.7471
 30
0
 70
     0
  0
VERTEX
  8
LAYER1
 10
5.8425
 20
-11.8867
 30
0
 70
     0
  0
VERTEX
  8
LAYER1
 10
6.1019
 20
-12.0325
 30
0
 70
     0
  0
VERTEX
  8
LAYER1
 10
6.3575
 20
-12.1843
 30
0
 70
     0
  0
VERTEX
  8
LAYER1
 10
6.6091
 20
-12.342
 30
0
 70
     0
  0
VERTEX
  8
LAYER1
 10
6.8567
 20
-12.5055
 30
0
 70
     0
  0
VERTEX
  8
LAYER1
 10
7.1001
 20
-12.6748
 30
0
 70
     0
  0
VERTEX
  8
LAYER1
 10
7.3393
 20
-12.8498
 30
0
 70
     0
  0
VERTEX
  8
LAYER1
 10
7.5741
 20
-13.0303
 30
0
 70
     0
  0
VERTEX
  8
LAYER1
 10
7.8045
 20
-13.2162
 30
0
 70
     0
  0
VERTEX
  8
LAYER1
 10
8.0303
 20
-13.4075
 30
0
 70
     0
  0
VERTEX
  8
LAYER1
 10
8.2515
 20
-13.604
 30
0
 70
     0
  0
VERTEX
  8
LAYER1
 10
8.468
 20
-13.8056
 30
0
 70
     0
  0
VERTEX
  8
LAYER1
 10
8.6796
 20
-14.0123
 30
0
 70
     0
  0
VERTEX
  8
LAYER1
 10
8.8863
 20
-14.2239
 30
0
 70
     0
  0
VERTEX
  8
LAYER1
 10
9.088
 20
-14.4404
 30
0
 70
     0
  0
VERTEX
  8
LAYER1
 10
9.2845
 20
-14.6616
 30
0
 70
     0
  0
VERTEX
  8
LAYER1
 10
9.4757
 20
-14.8874
 30
0
 70
     0
  0
VERTEX
  8
LAYER1
 10
9.6616
 20
-15.1178
 30
0
 70
     0
  0
VERTEX
  8
LAYER1
 10
9.8421
 20
-15.3527
 30
0
 70
     0
  0
VERTEX
  8
LAYER1
 10
10.0171
 20
-15.5918
 30
0
 70
     0
  0
VERTEX
  8
LAYER1
 10
10.1864
 20
-15.8353
 30
0
 70
     0
  0
VERTEX
  8
LAYER1
 10
10.3499
 20
-16.0828
 30
0
 70
     0
  0
VERTEX
  8
LAYER1
 10
10.5077
 20
-16.3344
 30
0
 70
     0
  0
VERTEX
  8
LAYER1
 10
10.6595
 20
-16.59
 30
0
 70
     0
  0
VERTEX
  8
LAYER1
 10
10.8052
 20
-16.8494
 30
0
 70
     0
  0
VERTEX
  8
LAYER1
 10
10.9448
 20
-17.1125
 30
0
 70
     0
  0
VERTEX
  8
LAYER1
 10
11.0782
 20
-17.3793
 30
0
 70
     0
  0
VERTEX
  8
LAYER1
 10
11.2052
 20
-17.6496
 30
0
 70
     0
  0
VERTEX
  8
LAYER1
 10
11.3258
 20
-17.9234
 30
0
 70
     0
  0
VERTEX
  8
LAYER1
 10
11.4399
 20
-18.2005
 30
0
 70
     0
  0
VERTEX
  8
LAYER1
 10
11.5473
 20
-18.4809
 30
0
 70
     0
  0
VERTEX
  8
LAYER1
 10
11.648
 20
-18.7644
 30
0
 70
     0
  0
VERTEX
  8
LAYER1
 10
11.7419
 20
-19.051
 30
0
 70
     0
  0
VERTEX
  8
LAYER1
 10
11.8288
 20
-19.3405
 30
0
 70
     0
  0
VERTEX
  8
LAYER1
 10
11.9087
 20
-19.6329
 30
0
 70
     0
  0
VERTEX
  8
LAYER1
 10
11.9814
 20
-19.928
 30
0
 70
     0
  0
VERTEX
  8
LAYER1
 10
12.0469
 20
-20.2257
 30
0
 70
     0
  0
VERTEX
  8
LAYER1
 10
12.1051
 20
-20.526
 30
0
 70
     0
  0
VERTEX
  8
LAYER1
 10
12.1559
 20
-20.8288
 30
0
 70
     0
  0
VERTEX
  8
LAYER1
 10
12.1991
 20
-21.1339
 30
0
 70
     0
  0
VERTEX
  8
LAYER1
 10
12.2347
 20
-21.4412
 30
0
 70
     0
  0
VERTEX
  8
LAYER1
 10
12.2625
 20
-21.7507
 30
0
 70
     0
  0
VERTEX
  8
LAYER1
 10
12.2825
 20
-22.0622
 30
0
 70
     0
  0
VERTEX
  8
LAYER1
 10
12.2946
 20
-22.3757
 30
0
 70
     0
  0
VERTEX
  8
LAYER1
 10
12.2986
 20
-22.6911
 30
0
 70
     0
  0
SEQEND
  0
POLYLINE
  8
LAYER1
  6
CONTINUOUS
 62
     5
 66
     1
 40
0.0139
 41
0.0139
  0
VERTEX
  8
LAYER1
 10
3.2032
 20
-22.6564
 30
0
 70
     0
  0
VERTEX
  8
LAYER1
 10
3.199
 20
-22.8203
 30
0
 70
     0
  0
VERTEX
  8
LAYER1
 10
3.1865
 20
-22.9821
 30
0
 70
     0
  0
VERTEX
  8
LAYER1
 10
3.166
 20
-23.1417
 30
0
 70
     0
  0
VERTEX
  8
LAYER1
 10
3.1376
 20
-23.2988
 30
0
 70
     0
  0
VERTEX
  8
LAYER1
 10
3.1016
 20
-23.4533
 30
0
 70
     0
  0
VERTEX
  8
LAYER1
 10
3.0581
 20
-23.6049
 30
0
 70
     0
  0
VERTEX
  8
LAYER1
 10
3.0074
 20
-23.7535
 30
0
 70
     0
  0
VERTEX
  8
LAYER1
 10
2.9497
 20
-23.8987
 30
0
 70
     0
  0
VERTEX
  8
LAYER1
 10
2.8852
 20
-24.0405
 30
0
 70
     0
  0
VERTEX
  8
LAYER1
 10
2.814
 20
-24.1786
 30
0
 70
     0
  0
VERTEX
  8
LAYER1
 10
2.7365
 20
-24.3128
 30
0
 70
     0
  0
VERTEX
  8
LAYER1
 10
2.6528
 20
-24.4428
 30
0
 70
     0
  0
VERTEX
  8
LAYER1
 10
2.5631
 20
-24.5686
 30
0
 70
     0
  0
VERTEX
  8
LAYER1
 10
2.4676
 20
-24.6898
 30
0
 70
     0
  0
VERTEX
  8
LAYER1
 10
2.3666
 20
-24.8063
 30
0
 70
     0
  0
VERTEX
  8
LAYER1
 10
2.2602
 20
-24.9179
 30
0
 70
     0
  0
VERTEX
  8
LAYER1
 10
2.1486
 20
-25.0243
 30
0
 70
     0
  0
VERTEX
  8
LAYER1
 10
2.0322
 20
-25.1253
 30
0
 70
     0
  0
VERTEX
  8
LAYER1
 10
1.9109
 20
-25.2208
 30
0
 70
     0
  0
VERTEX
  8
LAYER1
 10
1.7852
 20
-25.3105
 30
0
 70
     0
  0
VERTEX
  8
LAYER1
 10
1.6551
 20
-25.3942
 30
0
 70
     0
  0
VERTEX
  8
LAYER1
 10
1.5209
 20
-25.4717
 30
0
 70
     0
  0
VERTEX
  8
LAYER1
 10
1.3828
 20
-25.5428
 30
0
 70
     0
  0
VERTEX
  8
LAYER1
 10
1.2411
 20
-25.6074
 30
0
 70
     0
  0
VERTEX
  8
LAYER1
 10
1.0958
 20
-25.6651
 30
0
 70
     0
  0
VERTEX
  8
LAYER1
 10
0.9473
 20
-25.7158
 30
0
 70
     0
  0
VERTEX
  8
LAYER1
 10
0.7956
 20
-25.7592
 30
0
 70
     0
  0
VERTEX
  8
LAYER1
 10
0.6412
 20
-25.7953
 30
0
 70
     0
  0
VERTEX
  8
LAYER1
 10
0.484
 20
-25.8237
 30
0
 70
     0
  0
VERTEX
  8
LAYER1
 10
0.3244
 20
-25.8442
 30
0
 70
     0
  0
VERTEX
  8
LAYER1
 10
0.1626
 20
-25.8567
 30
0
 70
     0
  0
VERTEX
  8
LAYER1
 10
-0.0012
 20
-25.8609
 30
0
 70
     0
  0
VERTEX
  8
LAYER1
 10
-0.0012
 20
-25.8609
 30
0
 70
     0
  0
VERTEX
  8
LAYER1
 10
-0.1651
 20
-25.8567
 30
0
 70
     0
  0
VERTEX
  8
LAYER1
 10
-0.3269
 20
-25.8442
 30
0
 70
     0
  0
VERTEX
  8
LAYER1
 10
-0.4865
 20
-25.8237
 30
0
 70
     0
  0
VERTEX
  8
LAYER1
 10
-0.6436
 20
-25.7953
 30
0
 70
     0
  0
VERTEX
  8
LAYER1
 10
-0.7981
 20
-25.7592
 30
0
 70
     0
  0
VERTEX
  8
LAYER1
 10
-0.9497
 20
-25.7158
 30
0
 70
     0
  0
VERTEX
  8
LAYER1
 10
-1.0983
 20
-25.6651
 30
0
 70
     0
  0
VERTEX
  8
LAYER1
 10
-1.2435
 20
-25.6074
 30
0
 70
     0
  0
VERTEX
  8
LAYER1
 10
-1.3853
 20
-25.5428
 30
0
 70
     0
  0
VERTEX
  8
LAYER1
 10
-1.5234
 20
-25.4717
 30
0
 70
     0
  0
VERTEX
  8
LAYER1
 10
-1.6576
 20
-25.3942
 30
0
 70
     0
  0
VERTEX
  8
LAYER1
 10
-1.7877
 20
-25.3105
 30
0
 70
     0
  0
VERTEX
  8
LAYER1
 10
-1.9134
 20
-25.2208
 30
0
 70
     0
  0
VERTEX
  8
LAYER1
 10
-2.0346
 20
-25.1253
 30
0
 70
     0
  0
VERTEX
  8
LAYER1
 10
-2.1511
 20
-25.0243
 30
0
 70
     0
  0
VERTEX
  8
LAYER1
 10
-2.2627
 20
-24.9179
 30
0
 70
     0
  0
VERTEX
  8
LAYER1
 10
-2.3691
 20
-24.8063
 30
0
 70
     0
  0
VERTEX
  8
LAYER1
 10
-2.4701
 20
-24.6898
 30
0
 70
     0
  0
VERTEX
  8
LAYER1
 10
-2.5656
 20
-24.5686
 30
0
 70
     0
  0
VERTEX
  8
LAYER1
 10
-2.6553
 20
-24.4428
 30
0
 70
     0
  0
VERTEX
  8
LAYER1
 10
-2.739
 20
-24.3128
 30
0
 70
     0
  0
VERTEX
  8
LAYER1
 10
-2.8165
 20
-24.1786
 30
0
 70
     0
  0
VERTEX
  8
LAYER1
 10
-2.8876
 20
-24.0405
 30
0
 70
     0
  0
VERTEX
  8
LAYER1
 10
-2.9522
 20
-23.8987
 30
0
 70
     0
  0
VERTEX
  8
LAYER1
 10
-3.0099
 20
-23.7535
 30
0
 70
     0
  0
VERTEX
  8
LAYER1
 10
-3.0606
 20
-23.6049
 30
0
 70
     0
  0
VERTEX
  8
LAYER1
 10
-3.104
 20
-23.4533
 30
0
 70
     0
  0
VERTEX
  8
LAYER1
 10
-3.1401
 20
-23.2988
 30
0
 70
     0
  0
VERTEX
  8
LAYER1
 10
-3.1685
 20
-23.1417
 30
0
 70
     0
  0
VERTEX
  8
LAYER1
 10
-3.189
 20
-22.9821
 30
0
 70
     0
  0
VERTEX
  8
LAYER1
 10
-3.2015
 20
-22.8203
 30
0
 70
     0
  0
VERTEX
  8
LAYER1
 10
-3.2057
 20
-22.6564
 30
0
 70
     0
  0
VERTEX
  8
LAYER1
 10
-3.2057
 20
-22.6564
 30
0
 70
     0
  0
VERTEX
  8
LAYER1
 10
-3.2015
 20
-22.4926
 30
0
 70
     0
  0
VERTEX
  8
LAYER1
 10
-3.189
 20
-22.3308
 30
0
 70
     0
  0
VERTEX
  8
LAYER1
 10
-3.1685
 20
-22.1712
 30
0
 70
     0
  0
VERTEX
  8
LAYER1
 10
-3.1401
 20
-22.014
 30
0
 70
     0
  0
VERTEX
  8
LAYER1
 10
-3.104
 20
-21.8596
 30
0
 70
     0
  0
VERTEX
  8
LAYER1
 10
-3.0606
 20
-21.7079
 30
0
 70
     0
  0
VERTEX
  8
LAYER1
 10
-3.0099
 20
-21.5594
 30
0
 70
     0
  0
VERTEX
  8
LAYER1
 10
-2.9522
 20
-21.4141
 30
0
 70
     0
  0
VERTEX
  8
LAYER1
 10
-2.8876
 20
-21.2724
 30
0
 70
     0
  0
VERTEX
  8
LAYER1
 10
-2.8165
 20
-21.1343
 30
0
 70
     0
  0
VERTEX
  8
LAYER1
 10
-2.739
 20
-21.0001
 30
0
 70
     0
  0
VERTEX
  8
LAYER1
 10
-2.6553
 20
-20.87
 30
0
 70
     0
  0
VERTEX
  8
LAYER1
 10
-2.5656
 20
-20.7443
 30
0
 70
     0
  0
VERTEX
  8
LAYER1
 10
-2.4701
 20
-20.623
 30
0
 70
     0
  0
VERTEX
  8
LAYER1
 10
-2.3691
 20
-20.5066
 30
0
 70
     0
  0
VERTEX
  8
LAYER1
 10
-2.2627
 20
-20.395
 30
0
 70
     0
  0
VERTEX
  8
LAYER1
 10
-2.1511
 20
-20.2886
 30
0
 70
     0
  0
VERTEX
  8
LAYER1
 10
-2.0346
 20
-20.1876
 30
0
 70
     0
  0
VERTEX
  8
LAYER1
 10
-1.9134
 20
-20.0921
 30
0
 70
     0
  0
VERTEX
  8
LAYER1
 10
-1.7877
 20
-20.0024
 30
0
 70
     0
  0
VERTEX
  8
LAYER1
 10
-1.6576
 20
-19.9187
 30
0
 70
     0
  0
VERTEX
  8
LAYER1
 10
-1.5234
 20
-19.8412
 30
0
 70
     0
  0
VERTEX
  8
LAYER1
 10
-1.3853
 20
-19.77
 30
0
 70
     0
  0
VERTEX
  8
LAYER1
 10
-1.2435
 20
-19.7055
 30
0
 70
     0
  0
VERTEX
  8
LAYER1
 10
-1.0983
 20
-19.6478
 30
0
 70
     0
  0
VERTEX
  8
LAYER1
 10
-0.9497
 20
-19.5971
 30
0
 70
     0
  0
VERTEX
  8
LAYER1
 10
-0.7981
 20
-19.5536
 30
0
 70
     0
  0
VERTEX
  8
LAYER1
 10
-0.6436
 20
-19.5176
 30
0
 70
     0
  0
VERTEX
  8
LAYER1
 10
-0.4865
 20
-19.4892
 30
0
 70
     0
  0
VERTEX
  8
LAYER1
 10
-0.3269
 20
-19.4687
 30
0
 70
     0
  0
VERTEX
  8
LAYER1
 10
-0.1651
 20
-19.4562
 30
0
 70
     0
  0
VERTEX
  8
LAYER1
 10
-0.0012
 20
-19.452
 30
0
 70
     0
  0
VERTEX
  8
LAYER1
 10
-0.0012
 20
-19.452
 30
0
 70
     0
  0
VERTEX
  8
LAYER1
 10
0.1626
 20
-19.4562
 30
0
 70
     0
  0
VERTEX
  8
LAYER1
 10
0.3244
 20
-19.4687
 30
0
 70
     0
  0
VERTEX
  8
LAYER1
 10
0.484
 20
-19.4892
 30
0
 70
     0
  0
VERTEX
  8
LAYER1
 10
0.6412
 20
-19.5176
 30
0
 70
     0
  0
VERTEX
  8
LAYER1
 10
0.7956
 20
-19.5536
 30
0
 70
     0
  0
VERTEX
  8
LAYER1
 10
0.9473
 20
-19.5971
 30
0
 70
     0
  0
VERTEX
  8
LAYER1
 10
1.0958
 20
-19.6478
 30
0
 70
     0
  0
VERTEX
  8
LAYER1
 10
1.2411
 20
-19.7055
 30
0
 70
     0
  0
VERTEX
  8
LAYER1
 10
1.3828
 20
-19.77
 30
0
 70
     0
  0
VERTEX
  8
LAYER1
 10
1.5209
 20
-19.8412
 30
0
 70
     0
  0
VERTEX
  8
LAYER1
 10
1.6551
 20
-19.9187
 30
0
 70
     0
  0
VERTEX
  8
LAYER1
 10
1.7852
 20
-20.0024
 30
0
 70
     0
  0
VERTEX
  8
LAYER1
 10
1.9109
 20
-20.0921
 30
0
 70
     0
  0
VERTEX
  8
LAYER1
 10
2.0322
 20
-20.1876
 30
0
 70
     0
  0
VERTEX
  8
LAYER1
 10
2.1486
 20
-20.2886
 30
0
 70
     0
  0
VERTEX
  8
LAYER1
 10
2.2602
 20
-20.395
 30
0
 70
     0
  0
VERTEX
  8
LAYER1
 10
2.3666
 20
-20.5066
 30
0
 70
     0
  0
VERTEX
  8
LAYER1
 10
2.4676
 20
-20.623
 30
0
 70
     0
  0
VERTEX
  8
LAYER1
 10
2.5631
 20
-20.7443
 30
0
 70
     0
  0
VERTEX
  8
LAYER1
 10
2.6528
 20
-20.87
 30
0
 70
     0
  0
VERTEX
  8
LAYER1
 10
2.7365
 20
-21.0001
 30
0
 70
     0
  0
VERTEX
  8
LAYER1
 10
2.814
 20
-21.1343
 30
0
 70
     0
  0
VERTEX
  8
LAYER1
 10
2.8852
 20
-21.2724
 30
0
 70
     0
  0
VERTEX
  8
LAYER1
 10
2.9497
 20
-21.4141
 30
0
 70
     0
  0
VERTEX
  8
LAYER1
 10
3.0074
 20
-21.5594
 30
0
 70
     0
  0
VERTEX
  8
LAYER1
 10
3.0581
 20
-21.7079
 30
0
 70
     0
  0
VERTEX
  8
LAYER1
 10
3.1016
 20
-21.8596
 30
0
 70
     0
  0
VERTEX
  8
LAYER1
 10
3.1376
 20
-22.014
 30
0
 70
     0
  0
VERTEX
  8
LAYER1
 10
3.166
 20
-22.1712
 30
0
 70
     0
  0
VERTEX
  8
LAYER1
 10
3.1865
 20
-22.3308
 30
0
 70
     0
  0
VERTEX
  8
LAYER1
 10
3.199
 20
-22.4926
 30
0
 70
     0
  0
VERTEX
  8
LAYER1
 10
3.2032
 20
-22.6564
 30
0
 70
     0
  0
SEQEND
  0
ENDSEC
  0
EOF
