  0
SECTION
  2
HEADER
  9
$ACADVER
  1
AC1006
  9
$AXISMODE
 70
     0
  9
$AXISUNIT
 10
0.125
 20
0.125
  9
$CECOLOR
 62
0
  9
$CELTYPE
  6
CONTINUOUS
  9
$CLAYER
  8
0
  9
$EXTMIN
 10
0
 20
0
  9
$EXTMAX
 10
34.6667
 20
22.4306
  9
$LIMMIN
 10
0
 20
0
  9
$LIMMAX
 10
34.6667
 20
22.4306
  9
$GRIDMODE
 70
     0
  9
$GRIDUNIT
 10
0.125
 20
0.125
  9
$MIRRTEXT
 70
     1
  9
$SNAPMODE
 70
     1
  9
$SNAPUNIT
 10
0.125
 20
0
  9
$SNAPSTYLE
 70
     0
  9
$SPLINESEGS
 70
     8
  9
$SPLINETYPE
 70
     6
  0
ENDSEC
  0
SECTION
  2
TABLES
  0
TABLE
  2
LTYPE
 70
     1
  0
LTYPE
  2
CONTINUOUS
 70
    64
  3
Descriptive Text
 72
    65
 73
     0
 40
0
  0
ENDTAB
  0
TABLE
  2
LAYER
 70
     2
  0
LAYER
  2
0
 70
     0
 62
     7
  6
CONTINUOUS
  0
LAYER
  2
SCANIA_P114_CB_6
 70
     0
 62
     7
  6
CONTINUOUS
  0
ENDTAB
  0
TABLE
  2
STYLE
 70
     1
  0
STYLE
  2
STANDARD
 70
    64
 40
0.0
 41
1.0
 50
0.0
 71
     0
 42
0.2
  3
txt
  4

  0
STYLE
  2
ARIAL
 70
    64
 40
0.0
 41
1.0
 50
0.0
 71
     0
 42
0.2
  3
arial
  4

  0
ENDTAB
  0
TABLE
  2
VIEW
 70
     0
  0
ENDTAB
  0
TABLE
  2
USC
 70
     0
  0
ENDTAB
  0
TABLE
  2
DWGMGR
 70
     0
  0
ENDTAB
  0
ENDSEC
  0
SECTION
  2
BLOCKS
  0
ENDSEC
  0
SECTION
  2
ENTITIES
  0
POLYLINE
  8
SCANIA_P114_CB_6
  6
CONTINUOUS
 62
     7
 66
     1
 40
0.0139
 41
0.0139
  0
VERTEX
  8
SCANIA_P114_CB_6
 10
-0.0379
 20
-0.0127
 30
0
 70
     0
  0
VERTEX
  8
SCANIA_P114_CB_6
 10
-0.0379
 20
-2.0285
 30
0
 70
     0
  0
SEQEND
  0
POLYLINE
  8
SCANIA_P114_CB_6
  6
CONTINUOUS
 62
     7
 66
     1
 40
0.0139
 41
0.0139
  0
VERTEX
  8
SCANIA_P114_CB_6
 10
-111.2242
 20
-10.6426
 30
0
 70
     0
  0
VERTEX
  8
SCANIA_P114_CB_6
 10
-24.505
 20
-10.6426
 30
0
 70
     0
  0
SEQEND
  0
POLYLINE
  8
SCANIA_P114_CB_6
  6
CONTINUOUS
 62
     7
 66
     1
 40
0.0139
 41
0.0139
  0
VERTEX
  8
SCANIA_P114_CB_6
 10
-34.782
 20
5.8928
 30
0
 70
     0
  0
VERTEX
  8
SCANIA_P114_CB_6
 10
-34.7851
 20
5.7662
 30
0
 70
     0
  0
VERTEX
  8
SCANIA_P114_CB_6
 10
-34.7945
 20
5.6412
 30
0
 70
     0
  0
VERTEX
  8
SCANIA_P114_CB_6
 10
-34.8101
 20
5.5181
 30
0
 70
     0
  0
VERTEX
  8
SCANIA_P114_CB_6
 10
-34.8317
 20
5.3969
 30
0
 70
     0
  0
VERTEX
  8
SCANIA_P114_CB_6
 10
-34.8591
 20
5.2778
 30
0
 70
     0
  0
VERTEX
  8
SCANIA_P114_CB_6
 10
-34.8922
 20
5.161
 30
0
 70
     0
  0
VERTEX
  8
SCANIA_P114_CB_6
 10
-34.9309
 20
5.0467
 30
0
 70
     0
  0
VERTEX
  8
SCANIA_P114_CB_6
 10
-34.9749
 20
4.9349
 30
0
 70
     0
  0
VERTEX
  8
SCANIA_P114_CB_6
 10
-35.0242
 20
4.8259
 30
0
 70
     0
  0
VERTEX
  8
SCANIA_P114_CB_6
 10
-35.0785
 20
4.7198
 30
0
 70
     0
  0
VERTEX
  8
SCANIA_P114_CB_6
 10
-35.1377
 20
4.6167
 30
0
 70
     0
  0
VERTEX
  8
SCANIA_P114_CB_6
 10
-35.2017
 20
4.5168
 30
0
 70
     0
  0
VERTEX
  8
SCANIA_P114_CB_6
 10
-35.3434
 20
4.3274
 30
0
 70
     0
  0
VERTEX
  8
SCANIA_P114_CB_6
 10
-35.5022
 20
4.1526
 30
0
 70
     0
  0
VERTEX
  8
SCANIA_P114_CB_6
 10
-35.677
 20
3.9937
 30
0
 70
     0
  0
VERTEX
  8
SCANIA_P114_CB_6
 10
-35.8665
 20
3.852
 30
0
 70
     0
  0
VERTEX
  8
SCANIA_P114_CB_6
 10
-35.9663
 20
3.788
 30
0
 70
     0
  0
VERTEX
  8
SCANIA_P114_CB_6
 10
-36.0694
 20
3.7288
 30
0
 70
     0
  0
VERTEX
  8
SCANIA_P114_CB_6
 10
-36.1755
 20
3.6744
 30
0
 70
     0
  0
VERTEX
  8
SCANIA_P114_CB_6
 10
-36.2845
 20
3.6252
 30
0
 70
     0
  0
VERTEX
  8
SCANIA_P114_CB_6
 10
-36.3963
 20
3.5811
 30
0
 70
     0
  0
VERTEX
  8
SCANIA_P114_CB_6
 10
-36.5107
 20
3.5425
 30
0
 70
     0
  0
VERTEX
  8
SCANIA_P114_CB_6
 10
-36.6274
 20
3.5093
 30
0
 70
     0
  0
VERTEX
  8
SCANIA_P114_CB_6
 10
-36.7465
 20
3.4819
 30
0
 70
     0
  0
VERTEX
  8
SCANIA_P114_CB_6
 10
-36.8677
 20
3.4603
 30
0
 70
     0
  0
VERTEX
  8
SCANIA_P114_CB_6
 10
-36.9908
 20
3.4447
 30
0
 70
     0
  0
VERTEX
  8
SCANIA_P114_CB_6
 10
-37.1158
 20
3.4353
 30
0
 70
     0
  0
VERTEX
  8
SCANIA_P114_CB_6
 10
-37.2424
 20
3.4322
 30
0
 70
     0
  0
VERTEX
  8
SCANIA_P114_CB_6
 10
-37.2424
 20
3.4322
 30
0
 70
     0
  0
VERTEX
  8
SCANIA_P114_CB_6
 10
-37.369
 20
3.4353
 30
0
 70
     0
  0
VERTEX
  8
SCANIA_P114_CB_6
 10
-37.494
 20
3.4447
 30
0
 70
     0
  0
VERTEX
  8
SCANIA_P114_CB_6
 10
-37.6171
 20
3.4602
 30
0
 70
     0
  0
VERTEX
  8
SCANIA_P114_CB_6
 10
-37.7383
 20
3.4818
 30
0
 70
     0
  0
VERTEX
  8
SCANIA_P114_CB_6
 10
-37.8574
 20
3.5092
 30
0
 70
     0
  0
VERTEX
  8
SCANIA_P114_CB_6
 10
-37.9742
 20
3.5423
 30
0
 70
     0
  0
VERTEX
  8
SCANIA_P114_CB_6
 10
-38.0885
 20
3.581
 30
0
 70
     0
  0
VERTEX
  8
SCANIA_P114_CB_6
 10
-38.2003
 20
3.625
 30
0
 70
     0
  0
VERTEX
  8
SCANIA_P114_CB_6
 10
-38.3093
 20
3.6742
 30
0
 70
     0
  0
VERTEX
  8
SCANIA_P114_CB_6
 10
-38.4155
 20
3.7285
 30
0
 70
     0
  0
VERTEX
  8
SCANIA_P114_CB_6
 10
-38.5186
 20
3.7878
 30
0
 70
     0
  0
VERTEX
  8
SCANIA_P114_CB_6
 10
-38.6184
 20
3.8518
 30
0
 70
     0
  0
VERTEX
  8
SCANIA_P114_CB_6
 10
-38.8079
 20
3.9934
 30
0
 70
     0
  0
VERTEX
  8
SCANIA_P114_CB_6
 10
-38.9827
 20
4.1522
 30
0
 70
     0
  0
VERTEX
  8
SCANIA_P114_CB_6
 10
-39.1416
 20
4.327
 30
0
 70
     0
  0
VERTEX
  8
SCANIA_P114_CB_6
 10
-39.2833
 20
4.5165
 30
0
 70
     0
  0
VERTEX
  8
SCANIA_P114_CB_6
 10
-39.3473
 20
4.6163
 30
0
 70
     0
  0
VERTEX
  8
SCANIA_P114_CB_6
 10
-39.4066
 20
4.7194
 30
0
 70
     0
  0
VERTEX
  8
SCANIA_P114_CB_6
 10
-39.4609
 20
4.8255
 30
0
 70
     0
  0
VERTEX
  8
SCANIA_P114_CB_6
 10
-39.5102
 20
4.9345
 30
0
 70
     0
  0
VERTEX
  8
SCANIA_P114_CB_6
 10
-39.5543
 20
5.0463
 30
0
 70
     0
  0
VERTEX
  8
SCANIA_P114_CB_6
 10
-39.5929
 20
5.1606
 30
0
 70
     0
  0
VERTEX
  8
SCANIA_P114_CB_6
 10
-39.6261
 20
5.2774
 30
0
 70
     0
  0
VERTEX
  8
SCANIA_P114_CB_6
 10
-39.6535
 20
5.3964
 30
0
 70
     0
  0
VERTEX
  8
SCANIA_P114_CB_6
 10
-39.6751
 20
5.5176
 30
0
 70
     0
  0
VERTEX
  8
SCANIA_P114_CB_6
 10
-39.6907
 20
5.6408
 30
0
 70
     0
  0
VERTEX
  8
SCANIA_P114_CB_6
 10
-39.7001
 20
5.7657
 30
0
 70
     0
  0
VERTEX
  8
SCANIA_P114_CB_6
 10
-39.7033
 20
5.8924
 30
0
 70
     0
  0
SEQEND
  0
POLYLINE
  8
SCANIA_P114_CB_6
  6
CONTINUOUS
 62
     7
 66
     1
 40
0.0139
 41
0.0139
  0
VERTEX
  8
SCANIA_P114_CB_6
 10
-39.7033
 20
9.8298
 30
0
 70
     0
  0
VERTEX
  8
SCANIA_P114_CB_6
 10
-39.7033
 20
14.7373
 30
0
 70
     0
  0
SEQEND
  0
POLYLINE
  8
SCANIA_P114_CB_6
  6
CONTINUOUS
 62
     7
 66
     1
 40
0.0139
 41
0.0139
  0
VERTEX
  8
SCANIA_P114_CB_6
 10
-39.7033
 20
63.7373
 30
0
 70
     0
  0
VERTEX
  8
SCANIA_P114_CB_6
 10
-39.7033
 20
84.633
 30
0
 70
     0
  0
SEQEND
  0
POLYLINE
  8
SCANIA_P114_CB_6
  6
CONTINUOUS
 62
     7
 66
     1
 40
0.0139
 41
0.0139
  0
VERTEX
  8
SCANIA_P114_CB_6
 10
-39.7033
 20
-0.0127
 30
0
 70
     0
  0
VERTEX
  8
SCANIA_P114_CB_6
 10
-39.7033
 20
1.9558
 30
0
 70
     0
  0
SEQEND
  0
POLYLINE
  8
SCANIA_P114_CB_6
  6
CONTINUOUS
 62
     7
 66
     1
 40
0.0139
 41
0.0139
  0
VERTEX
  8
SCANIA_P114_CB_6
 10
-21.525
 20
-10.6426
 30
0
 70
     0
  0
VERTEX
  8
SCANIA_P114_CB_6
 10
-16.9571
 20
-10.6426
 30
0
 70
     0
  0
SEQEND
  0
POLYLINE
  8
SCANIA_P114_CB_6
  6
CONTINUOUS
 62
     7
 66
     1
 40
0.0139
 41
0.0139
  0
VERTEX
  8
SCANIA_P114_CB_6
 10
-34.782
 20
84.633
 30
0
 70
     0
  0
VERTEX
  8
SCANIA_P114_CB_6
 10
-34.782
 20
63.7373
 30
0
 70
     0
  0
SEQEND
  0
POLYLINE
  8
SCANIA_P114_CB_6
  6
CONTINUOUS
 62
     7
 66
     1
 40
0.0139
 41
0.0139
  0
VERTEX
  8
SCANIA_P114_CB_6
 10
-34.782
 20
14.7373
 30
0
 70
     0
  0
VERTEX
  8
SCANIA_P114_CB_6
 10
-34.782
 20
9.8298
 30
0
 70
     0
  0
SEQEND
  0
POLYLINE
  8
SCANIA_P114_CB_6
  6
CONTINUOUS
 62
     7
 66
     1
 40
0.0139
 41
0.0139
  0
VERTEX
  8
SCANIA_P114_CB_6
 10
-34.782
 20
1.9558
 30
0
 70
     0
  0
VERTEX
  8
SCANIA_P114_CB_6
 10
-34.782
 20
-0.0127
 30
0
 70
     0
  0
SEQEND
  0
POLYLINE
  8
SCANIA_P114_CB_6
  6
CONTINUOUS
 62
     7
 66
     1
 40
0.0139
 41
0.0139
  0
VERTEX
  8
SCANIA_P114_CB_6
 10
47.9936
 20
28.8794
 30
0
 70
     0
  0
VERTEX
  8
SCANIA_P114_CB_6
 10
47.7876
 20
28.8062
 30
0
 70
     0
  0
SEQEND
  0
POLYLINE
  8
SCANIA_P114_CB_6
  6
CONTINUOUS
 62
     7
 66
     1
 40
0.0139
 41
0.0139
  0
VERTEX
  8
SCANIA_P114_CB_6
 10
49.9621
 20
59.7117
 30
0
 70
     0
  0
VERTEX
  8
SCANIA_P114_CB_6
 10
40.1196
 20
59.7117
 30
0
 70
     0
  0
SEQEND
  0
POLYLINE
  8
SCANIA_P114_CB_6
  6
CONTINUOUS
 62
     7
 66
     1
 40
0.0139
 41
0.0139
  0
VERTEX
  8
SCANIA_P114_CB_6
 10
53.8991
 20
59.7117
 30
0
 70
     0
  0
VERTEX
  8
SCANIA_P114_CB_6
 10
49.9621
 20
59.7117
 30
0
 70
     0
  0
SEQEND
  0
POLYLINE
  8
SCANIA_P114_CB_6
  6
CONTINUOUS
 62
     7
 66
     1
 40
0.0139
 41
0.0139
  0
VERTEX
  8
SCANIA_P114_CB_6
 10
40.1196
 20
59.7117
 30
0
 70
     0
  0
VERTEX
  8
SCANIA_P114_CB_6
 10
40.1196
 20
58.9243
 30
0
 70
     0
  0
SEQEND
  0
POLYLINE
  8
SCANIA_P114_CB_6
  6
CONTINUOUS
 62
     7
 66
     1
 40
0.0139
 41
0.0139
  0
VERTEX
  8
SCANIA_P114_CB_6
 10
55.493
 20
10.8942
 30
0
 70
     0
  0
VERTEX
  8
SCANIA_P114_CB_6
 10
56.0768
 20
10.9044
 30
0
 70
     0
  0
SEQEND
  0
POLYLINE
  8
SCANIA_P114_CB_6
  6
CONTINUOUS
 62
     7
 66
     1
 40
0.0139
 41
0.0139
  0
VERTEX
  8
SCANIA_P114_CB_6
 10
56.0149
 20
14.4477
 30
0
 70
     0
  0
VERTEX
  8
SCANIA_P114_CB_6
 10
56.0699
 20
11.298
 30
0
 70
     0
  0
SEQEND
  0
POLYLINE
  8
SCANIA_P114_CB_6
  6
CONTINUOUS
 62
     7
 66
     1
 40
0.0139
 41
0.0139
  0
VERTEX
  8
SCANIA_P114_CB_6
 10
56.0699
 20
11.298
 30
0
 70
     0
  0
VERTEX
  8
SCANIA_P114_CB_6
 10
55.4862
 20
11.2878
 30
0
 70
     0
  0
SEQEND
  0
POLYLINE
  8
SCANIA_P114_CB_6
  6
CONTINUOUS
 62
     7
 66
     1
 40
0.0139
 41
0.0139
  0
VERTEX
  8
SCANIA_P114_CB_6
 10
56.0081
 20
14.8414
 30
0
 70
     0
  0
VERTEX
  8
SCANIA_P114_CB_6
 10
56.0875
 20
14.8348
 30
0
 70
     0
  0
VERTEX
  8
SCANIA_P114_CB_6
 10
56.1619
 20
14.8132
 30
0
 70
     0
  0
VERTEX
  8
SCANIA_P114_CB_6
 10
56.2294
 20
14.7781
 30
0
 70
     0
  0
VERTEX
  8
SCANIA_P114_CB_6
 10
56.2885
 20
14.731
 30
0
 70
     0
  0
VERTEX
  8
SCANIA_P114_CB_6
 10
56.3376
 20
14.6736
 30
0
 70
     0
  0
VERTEX
  8
SCANIA_P114_CB_6
 10
56.375
 20
14.6073
 30
0
 70
     0
  0
VERTEX
  8
SCANIA_P114_CB_6
 10
56.3992
 20
14.5338
 30
0
 70
     0
  0
VERTEX
  8
SCANIA_P114_CB_6
 10
56.4086
 20
14.4546
 30
0
 70
     0
  0
SEQEND
  0
POLYLINE
  8
SCANIA_P114_CB_6
  6
CONTINUOUS
 62
     7
 66
     1
 40
0.0139
 41
0.0139
  0
VERTEX
  8
SCANIA_P114_CB_6
 10
55.4312
 20
14.4375
 30
0
 70
     0
  0
VERTEX
  8
SCANIA_P114_CB_6
 10
56.0149
 20
14.4477
 30
0
 70
     0
  0
SEQEND
  0
POLYLINE
  8
SCANIA_P114_CB_6
  6
CONTINUOUS
 62
     7
 66
     1
 40
0.0139
 41
0.0139
  0
VERTEX
  8
SCANIA_P114_CB_6
 10
56.0081
 20
14.8414
 30
0
 70
     0
  0
VERTEX
  8
SCANIA_P114_CB_6
 10
55.4243
 20
14.8312
 30
0
 70
     0
  0
SEQEND
  0
POLYLINE
  8
SCANIA_P114_CB_6
  6
CONTINUOUS
 62
     7
 66
     1
 40
0.0139
 41
0.0139
  0
VERTEX
  8
SCANIA_P114_CB_6
 10
56.4636
 20
11.3049
 30
0
 70
     0
  0
VERTEX
  8
SCANIA_P114_CB_6
 10
56.4086
 20
14.4546
 30
0
 70
     0
  0
SEQEND
  0
POLYLINE
  8
SCANIA_P114_CB_6
  6
CONTINUOUS
 62
     7
 66
     1
 40
0.0139
 41
0.0139
  0
VERTEX
  8
SCANIA_P114_CB_6
 10
56.4636
 20
11.3049
 30
0
 70
     0
  0
VERTEX
  8
SCANIA_P114_CB_6
 10
56.457
 20
11.2254
 30
0
 70
     0
  0
VERTEX
  8
SCANIA_P114_CB_6
 10
56.4354
 20
11.1511
 30
0
 70
     0
  0
VERTEX
  8
SCANIA_P114_CB_6
 10
56.4003
 20
11.0836
 30
0
 70
     0
  0
VERTEX
  8
SCANIA_P114_CB_6
 10
56.3532
 20
11.0245
 30
0
 70
     0
  0
VERTEX
  8
SCANIA_P114_CB_6
 10
56.2958
 20
10.9754
 30
0
 70
     0
  0
VERTEX
  8
SCANIA_P114_CB_6
 10
56.2296
 20
10.9379
 30
0
 70
     0
  0
VERTEX
  8
SCANIA_P114_CB_6
 10
56.1561
 20
10.9137
 30
0
 70
     0
  0
VERTEX
  8
SCANIA_P114_CB_6
 10
56.0769
 20
10.9044
 30
0
 70
     0
  0
SEQEND
  0
POLYLINE
  8
SCANIA_P114_CB_6
  6
CONTINUOUS
 62
     7
 66
     1
 40
0.0139
 41
0.0139
  0
VERTEX
  8
SCANIA_P114_CB_6
 10
56.3754
 20
-6.2057
 30
0
 70
     0
  0
VERTEX
  8
SCANIA_P114_CB_6
 10
55.7917
 20
-6.2159
 30
0
 70
     0
  0
SEQEND
  0
POLYLINE
  8
SCANIA_P114_CB_6
  6
CONTINUOUS
 62
     7
 66
     1
 40
0.0139
 41
0.0139
  0
VERTEX
  8
SCANIA_P114_CB_6
 10
56.3205
 20
-3.056
 30
0
 70
     0
  0
VERTEX
  8
SCANIA_P114_CB_6
 10
56.3754
 20
-6.2057
 30
0
 70
     0
  0
SEQEND
  0
POLYLINE
  8
SCANIA_P114_CB_6
  6
CONTINUOUS
 62
     7
 66
     1
 40
0.0139
 41
0.0139
  0
VERTEX
  8
SCANIA_P114_CB_6
 10
55.7367
 20
-3.0662
 30
0
 70
     0
  0
VERTEX
  8
SCANIA_P114_CB_6
 10
56.3205
 20
-3.056
 30
0
 70
     0
  0
SEQEND
  0
POLYLINE
  8
SCANIA_P114_CB_6
  6
CONTINUOUS
 62
     7
 66
     1
 40
0.0139
 41
0.0139
  0
VERTEX
  8
SCANIA_P114_CB_6
 10
56.3136
 20
-2.6624
 30
0
 70
     0
  0
VERTEX
  8
SCANIA_P114_CB_6
 10
55.7299
 20
-2.6726
 30
0
 70
     0
  0
SEQEND
  0
POLYLINE
  8
SCANIA_P114_CB_6
  6
CONTINUOUS
 62
     7
 66
     1
 40
0.0139
 41
0.0139
  0
VERTEX
  8
SCANIA_P114_CB_6
 10
56.214
 20
3.0411
 30
0
 70
     0
  0
VERTEX
  8
SCANIA_P114_CB_6
 10
55.6303
 20
3.031
 30
0
 70
     0
  0
SEQEND
  0
POLYLINE
  8
SCANIA_P114_CB_6
  6
CONTINUOUS
 62
     7
 66
     1
 40
0.0139
 41
0.0139
  0
VERTEX
  8
SCANIA_P114_CB_6
 10
55.7986
 20
-6.6096
 30
0
 70
     0
  0
VERTEX
  8
SCANIA_P114_CB_6
 10
56.3823
 20
-6.5994
 30
0
 70
     0
  0
SEQEND
  0
POLYLINE
  8
SCANIA_P114_CB_6
  6
CONTINUOUS
 62
     7
 66
     1
 40
0.0139
 41
0.0139
  0
VERTEX
  8
SCANIA_P114_CB_6
 10
56.7691
 20
-6.1989
 30
0
 70
     0
  0
VERTEX
  8
SCANIA_P114_CB_6
 10
56.7625
 20
-6.2783
 30
0
 70
     0
  0
VERTEX
  8
SCANIA_P114_CB_6
 10
56.7409
 20
-6.3526
 30
0
 70
     0
  0
VERTEX
  8
SCANIA_P114_CB_6
 10
56.7058
 20
-6.4201
 30
0
 70
     0
  0
VERTEX
  8
SCANIA_P114_CB_6
 10
56.6588
 20
-6.4792
 30
0
 70
     0
  0
VERTEX
  8
SCANIA_P114_CB_6
 10
56.6014
 20
-6.5283
 30
0
 70
     0
  0
VERTEX
  8
SCANIA_P114_CB_6
 10
56.5351
 20
-6.5658
 30
0
 70
     0
  0
VERTEX
  8
SCANIA_P114_CB_6
 10
56.4616
 20
-6.59
 30
0
 70
     0
  0
VERTEX
  8
SCANIA_P114_CB_6
 10
56.3825
 20
-6.5994
 30
0
 70
     0
  0
SEQEND
  0
POLYLINE
  8
SCANIA_P114_CB_6
  6
CONTINUOUS
 62
     7
 66
     1
 40
0.0139
 41
0.0139
  0
VERTEX
  8
SCANIA_P114_CB_6
 10
56.3136
 20
-2.6624
 30
0
 70
     0
  0
VERTEX
  8
SCANIA_P114_CB_6
 10
56.3931
 20
-2.6689
 30
0
 70
     0
  0
VERTEX
  8
SCANIA_P114_CB_6
 10
56.4674
 20
-2.6906
 30
0
 70
     0
  0
VERTEX
  8
SCANIA_P114_CB_6
 10
56.5349
 20
-2.7257
 30
0
 70
     0
  0
VERTEX
  8
SCANIA_P114_CB_6
 10
56.594
 20
-2.7728
 30
0
 70
     0
  0
VERTEX
  8
SCANIA_P114_CB_6
 10
56.6431
 20
-2.8302
 30
0
 70
     0
  0
VERTEX
  8
SCANIA_P114_CB_6
 10
56.6806
 20
-2.8964
 30
0
 70
     0
  0
VERTEX
  8
SCANIA_P114_CB_6
 10
56.7048
 20
-2.9699
 30
0
 70
     0
  0
VERTEX
  8
SCANIA_P114_CB_6
 10
56.7141
 20
-3.0492
 30
0
 70
     0
  0
SEQEND
  0
POLYLINE
  8
SCANIA_P114_CB_6
  6
CONTINUOUS
 62
     7
 66
     1
 40
0.0139
 41
0.0139
  0
VERTEX
  8
SCANIA_P114_CB_6
 10
56.7691
 20
-6.1989
 30
0
 70
     0
  0
VERTEX
  8
SCANIA_P114_CB_6
 10
56.7141
 20
-3.0492
 30
0
 70
     0
  0
SEQEND
  0
POLYLINE
  8
SCANIA_P114_CB_6
  6
CONTINUOUS
 62
     7
 66
     1
 40
0.0139
 41
0.0139
  0
VERTEX
  8
SCANIA_P114_CB_6
 10
56.2759
 20
-0.5022
 30
0
 70
     0
  0
VERTEX
  8
SCANIA_P114_CB_6
 10
55.6921
 20
-0.5124
 30
0
 70
     0
  0
SEQEND
  0
POLYLINE
  8
SCANIA_P114_CB_6
  6
CONTINUOUS
 62
     7
 66
     1
 40
0.0139
 41
0.0139
  0
VERTEX
  8
SCANIA_P114_CB_6
 10
55.6372
 20
2.6373
 30
0
 70
     0
  0
VERTEX
  8
SCANIA_P114_CB_6
 10
56.2209
 20
2.6475
 30
0
 70
     0
  0
SEQEND
  0
POLYLINE
  8
SCANIA_P114_CB_6
  6
CONTINUOUS
 62
     7
 66
     1
 40
0.0139
 41
0.0139
  0
VERTEX
  8
SCANIA_P114_CB_6
 10
56.214
 20
3.0411
 30
0
 70
     0
  0
VERTEX
  8
SCANIA_P114_CB_6
 10
56.2935
 20
3.0346
 30
0
 70
     0
  0
VERTEX
  8
SCANIA_P114_CB_6
 10
56.3678
 20
3.013
 30
0
 70
     0
  0
VERTEX
  8
SCANIA_P114_CB_6
 10
56.4353
 20
2.9778
 30
0
 70
     0
  0
VERTEX
  8
SCANIA_P114_CB_6
 10
56.4945
 20
2.9308
 30
0
 70
     0
  0
VERTEX
  8
SCANIA_P114_CB_6
 10
56.5436
 20
2.8733
 30
0
 70
     0
  0
VERTEX
  8
SCANIA_P114_CB_6
 10
56.581
 20
2.8071
 30
0
 70
     0
  0
VERTEX
  8
SCANIA_P114_CB_6
 10
56.6052
 20
2.7336
 30
0
 70
     0
  0
VERTEX
  8
SCANIA_P114_CB_6
 10
56.6146
 20
2.6544
 30
0
 70
     0
  0
SEQEND
  0
POLYLINE
  8
SCANIA_P114_CB_6
  6
CONTINUOUS
 62
     7
 66
     1
 40
0.0139
 41
0.0139
  0
VERTEX
  8
SCANIA_P114_CB_6
 10
56.6695
 20
-0.4954
 30
0
 70
     0
  0
VERTEX
  8
SCANIA_P114_CB_6
 10
56.6146
 20
2.6544
 30
0
 70
     0
  0
SEQEND
  0
POLYLINE
  8
SCANIA_P114_CB_6
  6
CONTINUOUS
 62
     7
 66
     1
 40
0.0139
 41
0.0139
  0
VERTEX
  8
SCANIA_P114_CB_6
 10
56.2209
 20
2.6475
 30
0
 70
     0
  0
VERTEX
  8
SCANIA_P114_CB_6
 10
56.2759
 20
-0.5022
 30
0
 70
     0
  0
SEQEND
  0
POLYLINE
  8
SCANIA_P114_CB_6
  6
CONTINUOUS
 62
     7
 66
     1
 40
0.0139
 41
0.0139
  0
VERTEX
  8
SCANIA_P114_CB_6
 10
55.699
 20
-0.9061
 30
0
 70
     0
  0
VERTEX
  8
SCANIA_P114_CB_6
 10
56.2828
 20
-0.8959
 30
0
 70
     0
  0
SEQEND
  0
POLYLINE
  8
SCANIA_P114_CB_6
  6
CONTINUOUS
 62
     7
 66
     1
 40
0.0139
 41
0.0139
  0
VERTEX
  8
SCANIA_P114_CB_6
 10
56.6695
 20
-0.4954
 30
0
 70
     0
  0
VERTEX
  8
SCANIA_P114_CB_6
 10
56.663
 20
-0.5748
 30
0
 70
     0
  0
VERTEX
  8
SCANIA_P114_CB_6
 10
56.6414
 20
-0.6491
 30
0
 70
     0
  0
VERTEX
  8
SCANIA_P114_CB_6
 10
56.6063
 20
-0.7166
 30
0
 70
     0
  0
VERTEX
  8
SCANIA_P114_CB_6
 10
56.5592
 20
-0.7757
 30
0
 70
     0
  0
VERTEX
  8
SCANIA_P114_CB_6
 10
56.5018
 20
-0.8248
 30
0
 70
     0
  0
VERTEX
  8
SCANIA_P114_CB_6
 10
56.4356
 20
-0.8623
 30
0
 70
     0
  0
VERTEX
  8
SCANIA_P114_CB_6
 10
56.3621
 20
-0.8865
 30
0
 70
     0
  0
VERTEX
  8
SCANIA_P114_CB_6
 10
56.2829
 20
-0.8959
 30
0
 70
     0
  0
SEQEND
  0
POLYLINE
  8
SCANIA_P114_CB_6
  6
CONTINUOUS
 62
     7
 66
     1
 40
0.0139
 41
0.0139
  0
VERTEX
  8
SCANIA_P114_CB_6
 10
56.5652
 20
5.479
 30
0
 70
     0
  0
VERTEX
  8
SCANIA_P114_CB_6
 10
56.5103
 20
8.6287
 30
0
 70
     0
  0
SEQEND
  0
POLYLINE
  8
SCANIA_P114_CB_6
  6
CONTINUOUS
 62
     7
 66
     1
 40
0.0139
 41
0.0139
  0
VERTEX
  8
SCANIA_P114_CB_6
 10
55.5947
 20
5.0683
 30
0
 70
     0
  0
VERTEX
  8
SCANIA_P114_CB_6
 10
56.1785
 20
5.0785
 30
0
 70
     0
  0
SEQEND
  0
POLYLINE
  8
SCANIA_P114_CB_6
  6
CONTINUOUS
 62
     7
 66
     1
 40
0.0139
 41
0.0139
  0
VERTEX
  8
SCANIA_P114_CB_6
 10
56.1098
 20
9.0155
 30
0
 70
     0
  0
VERTEX
  8
SCANIA_P114_CB_6
 10
56.1892
 20
9.0089
 30
0
 70
     0
  0
VERTEX
  8
SCANIA_P114_CB_6
 10
56.2635
 20
8.9873
 30
0
 70
     0
  0
VERTEX
  8
SCANIA_P114_CB_6
 10
56.3311
 20
8.9522
 30
0
 70
     0
  0
VERTEX
  8
SCANIA_P114_CB_6
 10
56.3902
 20
8.9051
 30
0
 70
     0
  0
VERTEX
  8
SCANIA_P114_CB_6
 10
56.4393
 20
8.8477
 30
0
 70
     0
  0
VERTEX
  8
SCANIA_P114_CB_6
 10
56.4767
 20
8.7814
 30
0
 70
     0
  0
VERTEX
  8
SCANIA_P114_CB_6
 10
56.5009
 20
8.7079
 30
0
 70
     0
  0
VERTEX
  8
SCANIA_P114_CB_6
 10
56.5103
 20
8.6287
 30
0
 70
     0
  0
SEQEND
  0
POLYLINE
  8
SCANIA_P114_CB_6
  6
CONTINUOUS
 62
     7
 66
     1
 40
0.0139
 41
0.0139
  0
VERTEX
  8
SCANIA_P114_CB_6
 10
56.1098
 20
9.0155
 30
0
 70
     0
  0
VERTEX
  8
SCANIA_P114_CB_6
 10
55.526
 20
9.0053
 30
0
 70
     0
  0
SEQEND
  0
POLYLINE
  8
SCANIA_P114_CB_6
  6
CONTINUOUS
 62
     7
 66
     1
 40
0.0139
 41
0.0139
  0
VERTEX
  8
SCANIA_P114_CB_6
 10
56.5652
 20
5.479
 30
0
 70
     0
  0
VERTEX
  8
SCANIA_P114_CB_6
 10
56.5587
 20
5.3995
 30
0
 70
     0
  0
VERTEX
  8
SCANIA_P114_CB_6
 10
56.5371
 20
5.3252
 30
0
 70
     0
  0
VERTEX
  8
SCANIA_P114_CB_6
 10
56.502
 20
5.2577
 30
0
 70
     0
  0
VERTEX
  8
SCANIA_P114_CB_6
 10
56.4549
 20
5.1986
 30
0
 70
     0
  0
VERTEX
  8
SCANIA_P114_CB_6
 10
56.3975
 20
5.1495
 30
0
 70
     0
  0
VERTEX
  8
SCANIA_P114_CB_6
 10
56.3313
 20
5.1121
 30
0
 70
     0
  0
VERTEX
  8
SCANIA_P114_CB_6
 10
56.2578
 20
5.0878
 30
0
 70
     0
  0
VERTEX
  8
SCANIA_P114_CB_6
 10
56.1786
 20
5.0785
 30
0
 70
     0
  0
SEQEND
  0
POLYLINE
  8
SCANIA_P114_CB_6
  6
CONTINUOUS
 62
     7
 66
     1
 40
0.0139
 41
0.0139
  0
VERTEX
  8
SCANIA_P114_CB_6
 10
55.5329
 20
8.6117
 30
0
 70
     0
  0
VERTEX
  8
SCANIA_P114_CB_6
 10
56.1166
 20
8.6219
 30
0
 70
     0
  0
SEQEND
  0
POLYLINE
  8
SCANIA_P114_CB_6
  6
CONTINUOUS
 62
     7
 66
     1
 40
0.0139
 41
0.0139
  0
VERTEX
  8
SCANIA_P114_CB_6
 10
56.1166
 20
8.6219
 30
0
 70
     0
  0
VERTEX
  8
SCANIA_P114_CB_6
 10
56.1716
 20
5.4721
 30
0
 70
     0
  0
SEQEND
  0
POLYLINE
  8
SCANIA_P114_CB_6
  6
CONTINUOUS
 62
     7
 66
     1
 40
0.0139
 41
0.0139
  0
VERTEX
  8
SCANIA_P114_CB_6
 10
56.1716
 20
5.4721
 30
0
 70
     0
  0
VERTEX
  8
SCANIA_P114_CB_6
 10
55.5879
 20
5.4619
 30
0
 70
     0
  0
SEQEND
  0
POLYLINE
  8
SCANIA_P114_CB_6
  6
CONTINUOUS
 62
     7
 66
     1
 40
0.0139
 41
0.0139
  0
VERTEX
  8
SCANIA_P114_CB_6
 10
56.214
 20
3.0411
 30
0
 70
     0
  0
VERTEX
  8
SCANIA_P114_CB_6
 10
56.2209
 20
2.6475
 30
0
 70
     0
  0
SEQEND
  0
POLYLINE
  8
SCANIA_P114_CB_6
  6
CONTINUOUS
 62
     7
 66
     1
 40
0.0139
 41
0.0139
  0
VERTEX
  8
SCANIA_P114_CB_6
 10
56.5103
 20
8.6287
 30
0
 70
     0
  0
VERTEX
  8
SCANIA_P114_CB_6
 10
56.1166
 20
8.6219
 30
0
 70
     0
  0
SEQEND
  0
POLYLINE
  8
SCANIA_P114_CB_6
  6
CONTINUOUS
 62
     7
 66
     1
 40
0.0139
 41
0.0139
  0
VERTEX
  8
SCANIA_P114_CB_6
 10
56.1098
 20
9.0155
 30
0
 70
     0
  0
VERTEX
  8
SCANIA_P114_CB_6
 10
56.1166
 20
8.6219
 30
0
 70
     0
  0
SEQEND
  0
POLYLINE
  8
SCANIA_P114_CB_6
  6
CONTINUOUS
 62
     7
 66
     1
 40
0.0139
 41
0.0139
  0
VERTEX
  8
SCANIA_P114_CB_6
 10
56.1785
 20
5.0785
 30
0
 70
     0
  0
VERTEX
  8
SCANIA_P114_CB_6
 10
56.1716
 20
5.4721
 30
0
 70
     0
  0
SEQEND
  0
POLYLINE
  8
SCANIA_P114_CB_6
  6
CONTINUOUS
 62
     7
 66
     1
 40
0.0139
 41
0.0139
  0
VERTEX
  8
SCANIA_P114_CB_6
 10
56.5652
 20
5.479
 30
0
 70
     0
  0
VERTEX
  8
SCANIA_P114_CB_6
 10
56.1716
 20
5.4721
 30
0
 70
     0
  0
SEQEND
  0
POLYLINE
  8
SCANIA_P114_CB_6
  6
CONTINUOUS
 62
     7
 66
     1
 40
0.0139
 41
0.0139
  0
VERTEX
  8
SCANIA_P114_CB_6
 10
56.6146
 20
2.6544
 30
0
 70
     0
  0
VERTEX
  8
SCANIA_P114_CB_6
 10
56.2209
 20
2.6475
 30
0
 70
     0
  0
SEQEND
  0
POLYLINE
  8
SCANIA_P114_CB_6
  6
CONTINUOUS
 62
     7
 66
     1
 40
0.0139
 41
0.0139
  0
VERTEX
  8
SCANIA_P114_CB_6
 10
56.2828
 20
-0.8959
 30
0
 70
     0
  0
VERTEX
  8
SCANIA_P114_CB_6
 10
56.2759
 20
-0.5022
 30
0
 70
     0
  0
SEQEND
  0
POLYLINE
  8
SCANIA_P114_CB_6
  6
CONTINUOUS
 62
     7
 66
     1
 40
0.0139
 41
0.0139
  0
VERTEX
  8
SCANIA_P114_CB_6
 10
56.6695
 20
-0.4954
 30
0
 70
     0
  0
VERTEX
  8
SCANIA_P114_CB_6
 10
56.2759
 20
-0.5022
 30
0
 70
     0
  0
SEQEND
  0
POLYLINE
  8
SCANIA_P114_CB_6
  6
CONTINUOUS
 62
     7
 66
     1
 40
0.0139
 41
0.0139
  0
VERTEX
  8
SCANIA_P114_CB_6
 10
56.3823
 20
-6.5994
 30
0
 70
     0
  0
VERTEX
  8
SCANIA_P114_CB_6
 10
56.3754
 20
-6.2057
 30
0
 70
     0
  0
SEQEND
  0
POLYLINE
  8
SCANIA_P114_CB_6
  6
CONTINUOUS
 62
     7
 66
     1
 40
0.0139
 41
0.0139
  0
VERTEX
  8
SCANIA_P114_CB_6
 10
56.7141
 20
-3.0492
 30
0
 70
     0
  0
VERTEX
  8
SCANIA_P114_CB_6
 10
56.3205
 20
-3.056
 30
0
 70
     0
  0
SEQEND
  0
POLYLINE
  8
SCANIA_P114_CB_6
  6
CONTINUOUS
 62
     7
 66
     1
 40
0.0139
 41
0.0139
  0
VERTEX
  8
SCANIA_P114_CB_6
 10
56.7691
 20
-6.1989
 30
0
 70
     0
  0
VERTEX
  8
SCANIA_P114_CB_6
 10
56.3754
 20
-6.2057
 30
0
 70
     0
  0
SEQEND
  0
POLYLINE
  8
SCANIA_P114_CB_6
  6
CONTINUOUS
 62
     7
 66
     1
 40
0.0139
 41
0.0139
  0
VERTEX
  8
SCANIA_P114_CB_6
 10
56.3136
 20
-2.6624
 30
0
 70
     0
  0
VERTEX
  8
SCANIA_P114_CB_6
 10
56.3205
 20
-3.056
 30
0
 70
     0
  0
SEQEND
  0
POLYLINE
  8
SCANIA_P114_CB_6
  6
CONTINUOUS
 62
     7
 66
     1
 40
0.0139
 41
0.0139
  0
VERTEX
  8
SCANIA_P114_CB_6
 10
56.0768
 20
10.9044
 30
0
 70
     0
  0
VERTEX
  8
SCANIA_P114_CB_6
 10
56.0699
 20
11.298
 30
0
 70
     0
  0
SEQEND
  0
POLYLINE
  8
SCANIA_P114_CB_6
  6
CONTINUOUS
 62
     7
 66
     1
 40
0.0139
 41
0.0139
  0
VERTEX
  8
SCANIA_P114_CB_6
 10
56.4636
 20
11.3049
 30
0
 70
     0
  0
VERTEX
  8
SCANIA_P114_CB_6
 10
56.0699
 20
11.298
 30
0
 70
     0
  0
SEQEND
  0
POLYLINE
  8
SCANIA_P114_CB_6
  6
CONTINUOUS
 62
     7
 66
     1
 40
0.0139
 41
0.0139
  0
VERTEX
  8
SCANIA_P114_CB_6
 10
56.4086
 20
14.4546
 30
0
 70
     0
  0
VERTEX
  8
SCANIA_P114_CB_6
 10
56.0149
 20
14.4477
 30
0
 70
     0
  0
SEQEND
  0
POLYLINE
  8
SCANIA_P114_CB_6
  6
CONTINUOUS
 62
     7
 66
     1
 40
0.0139
 41
0.0139
  0
VERTEX
  8
SCANIA_P114_CB_6
 10
56.0081
 20
14.8414
 30
0
 70
     0
  0
VERTEX
  8
SCANIA_P114_CB_6
 10
56.0149
 20
14.4477
 30
0
 70
     0
  0
SEQEND
  0
POLYLINE
  8
SCANIA_P114_CB_6
  6
CONTINUOUS
 62
     7
 66
     1
 40
0.0139
 41
0.0139
  0
VERTEX
  8
SCANIA_P114_CB_6
 10
47.9936
 20
26.6058
 30
0
 70
     0
  0
VERTEX
  8
SCANIA_P114_CB_6
 10
47.9936
 20
-12.5324
 30
0
 70
     0
  0
SEQEND
  0
POLYLINE
  8
SCANIA_P114_CB_6
  6
CONTINUOUS
 62
     7
 66
     1
 40
0.0139
 41
0.0139
  0
VERTEX
  8
SCANIA_P114_CB_6
 10
-16.0422
 20
63.8436
 30
0
 70
     0
  0
VERTEX
  8
SCANIA_P114_CB_6
 10
-16.023
 20
65.8127
 30
0
 70
     0
  0
VERTEX
  8
SCANIA_P114_CB_6
 10
-15.9957
 20
67.7818
 30
0
 70
     0
  0
VERTEX
  8
SCANIA_P114_CB_6
 10
-15.9601
 20
69.7508
 30
0
 70
     0
  0
VERTEX
  8
SCANIA_P114_CB_6
 10
-15.9164
 20
71.7196
 30
0
 70
     0
  0
SEQEND
  0
POLYLINE
  8
SCANIA_P114_CB_6
  6
CONTINUOUS
 62
     7
 66
     1
 40
0.0139
 41
0.0139
  0
VERTEX
  8
SCANIA_P114_CB_6
 10
44.6388
 20
69.0757
 30
0
 70
     0
  0
VERTEX
  8
SCANIA_P114_CB_6
 10
44.9138
 20
69.0544
 30
0
 70
     0
  0
VERTEX
  8
SCANIA_P114_CB_6
 10
45.1844
 20
69.0145
 30
0
 70
     0
  0
VERTEX
  8
SCANIA_P114_CB_6
 10
45.4498
 20
68.9566
 30
0
 70
     0
  0
VERTEX
  8
SCANIA_P114_CB_6
 10
45.7092
 20
68.8811
 30
0
 70
     0
  0
VERTEX
  8
SCANIA_P114_CB_6
 10
45.9618
 20
68.7887
 30
0
 70
     0
  0
VERTEX
  8
SCANIA_P114_CB_6
 10
46.2069
 20
68.6798
 30
0
 70
     0
  0
VERTEX
  8
SCANIA_P114_CB_6
 10
46.4436
 20
68.5549
 30
0
 70
     0
  0
VERTEX
  8
SCANIA_P114_CB_6
 10
46.6711
 20
68.4146
 30
0
 70
     0
  0
VERTEX
  8
SCANIA_P114_CB_6
 10
46.8888
 20
68.2593
 30
0
 70
     0
  0
VERTEX
  8
SCANIA_P114_CB_6
 10
47.0958
 20
68.0897
 30
0
 70
     0
  0
VERTEX
  8
SCANIA_P114_CB_6
 10
47.2913
 20
67.9062
 30
0
 70
     0
  0
VERTEX
  8
SCANIA_P114_CB_6
 10
47.4746
 20
67.7092
 30
0
 70
     0
  0
VERTEX
  8
SCANIA_P114_CB_6
 10
47.6448
 20
67.4995
 30
0
 70
     0
  0
VERTEX
  8
SCANIA_P114_CB_6
 10
47.8012
 20
67.2774
 30
0
 70
     0
  0
VERTEX
  8
SCANIA_P114_CB_6
 10
47.943
 20
67.0435
 30
0
 70
     0
  0
VERTEX
  8
SCANIA_P114_CB_6
 10
48.0695
 20
66.7983
 30
0
 70
     0
  0
SEQEND
  0
POLYLINE
  8
SCANIA_P114_CB_6
  6
CONTINUOUS
 62
     7
 66
     1
 40
0.0139
 41
0.0139
  0
VERTEX
  8
SCANIA_P114_CB_6
 10
49.5525
 20
58.9243
 30
0
 70
     0
  0
VERTEX
  8
SCANIA_P114_CB_6
 10
49.8306
 20
57.0781
 30
0
 70
     0
  0
VERTEX
  8
SCANIA_P114_CB_6
 10
50.0939
 20
55.23
 30
0
 70
     0
  0
VERTEX
  8
SCANIA_P114_CB_6
 10
50.3424
 20
53.38
 30
0
 70
     0
  0
VERTEX
  8
SCANIA_P114_CB_6
 10
50.5761
 20
51.5282
 30
0
 70
     0
  0
VERTEX
  8
SCANIA_P114_CB_6
 10
50.795
 20
49.6747
 30
0
 70
     0
  0
VERTEX
  8
SCANIA_P114_CB_6
 10
50.999
 20
47.8195
 30
0
 70
     0
  0
VERTEX
  8
SCANIA_P114_CB_6
 10
51.1881
 20
45.9629
 30
0
 70
     0
  0
VERTEX
  8
SCANIA_P114_CB_6
 10
51.3624
 20
44.1048
 30
0
 70
     0
  0
VERTEX
  8
SCANIA_P114_CB_6
 10
51.5218
 20
42.2454
 30
0
 70
     0
  0
VERTEX
  8
SCANIA_P114_CB_6
 10
51.6664
 20
40.3848
 30
0
 70
     0
  0
VERTEX
  8
SCANIA_P114_CB_6
 10
51.796
 20
38.523
 30
0
 70
     0
  0
VERTEX
  8
SCANIA_P114_CB_6
 10
51.9108
 20
36.6601
 30
0
 70
     0
  0
VERTEX
  8
SCANIA_P114_CB_6
 10
52.0107
 20
34.7963
 30
0
 70
     0
  0
VERTEX
  8
SCANIA_P114_CB_6
 10
52.0956
 20
32.9316
 30
0
 70
     0
  0
VERTEX
  8
SCANIA_P114_CB_6
 10
52.1657
 20
31.0661
 30
0
 70
     0
  0
VERTEX
  8
SCANIA_P114_CB_6
 10
52.2208
 20
29.1999
 30
0
 70
     0
  0
SEQEND
  0
POLYLINE
  8
SCANIA_P114_CB_6
  6
CONTINUOUS
 62
     7
 66
     1
 40
0.0139
 41
0.0139
  0
VERTEX
  8
SCANIA_P114_CB_6
 10
-27.6825
 20
60.938
 30
0
 70
     0
  0
VERTEX
  8
SCANIA_P114_CB_6
 10
-31.7308
 20
14.665
 30
0
 70
     0
  0
SEQEND
  0
POLYLINE
  8
SCANIA_P114_CB_6
  6
CONTINUOUS
 62
     7
 66
     1
 40
0.0139
 41
0.0139
  0
VERTEX
  8
SCANIA_P114_CB_6
 10
44.6388
 20
69.0757
 30
0
 70
     0
  0
VERTEX
  8
SCANIA_P114_CB_6
 10
-15.9164
 20
71.7196
 30
0
 70
     0
  0
SEQEND
  0
POLYLINE
  8
SCANIA_P114_CB_6
  6
CONTINUOUS
 62
     7
 66
     1
 40
0.0139
 41
0.0139
  0
VERTEX
  8
SCANIA_P114_CB_6
 10
-31.7308
 20
14.665
 30
0
 70
     0
  0
VERTEX
  8
SCANIA_P114_CB_6
 10
-24.4626
 20
7.3968
 30
0
 70
     0
  0
SEQEND
  0
POLYLINE
  8
SCANIA_P114_CB_6
  6
CONTINUOUS
 62
     7
 66
     1
 40
0.0139
 41
0.0139
  0
VERTEX
  8
SCANIA_P114_CB_6
 10
-27.6825
 20
60.938
 30
0
 70
     0
  0
VERTEX
  8
SCANIA_P114_CB_6
 10
-27.6543
 20
61.2229
 30
0
 70
     0
  0
VERTEX
  8
SCANIA_P114_CB_6
 10
-27.6196
 20
61.5057
 30
0
 70
     0
  0
VERTEX
  8
SCANIA_P114_CB_6
 10
-27.5782
 20
61.7863
 30
0
 70
     0
  0
VERTEX
  8
SCANIA_P114_CB_6
 10
-27.5304
 20
62.0645
 30
0
 70
     0
  0
VERTEX
  8
SCANIA_P114_CB_6
 10
-27.4763
 20
62.3404
 30
0
 70
     0
  0
VERTEX
  8
SCANIA_P114_CB_6
 10
-27.4158
 20
62.6139
 30
0
 70
     0
  0
VERTEX
  8
SCANIA_P114_CB_6
 10
-27.3491
 20
62.8848
 30
0
 70
     0
  0
VERTEX
  8
SCANIA_P114_CB_6
 10
-27.2762
 20
63.1531
 30
0
 70
     0
  0
VERTEX
  8
SCANIA_P114_CB_6
 10
-27.1973
 20
63.4188
 30
0
 70
     0
  0
VERTEX
  8
SCANIA_P114_CB_6
 10
-27.1124
 20
63.6817
 30
0
 70
     0
  0
VERTEX
  8
SCANIA_P114_CB_6
 10
-27.0216
 20
63.9418
 30
0
 70
     0
  0
VERTEX
  8
SCANIA_P114_CB_6
 10
-26.925
 20
64.199
 30
0
 70
     0
  0
VERTEX
  8
SCANIA_P114_CB_6
 10
-26.8227
 20
64.4532
 30
0
 70
     0
  0
VERTEX
  8
SCANIA_P114_CB_6
 10
-26.7147
 20
64.7043
 30
0
 70
     0
  0
VERTEX
  8
SCANIA_P114_CB_6
 10
-26.6011
 20
64.9524
 30
0
 70
     0
  0
VERTEX
  8
SCANIA_P114_CB_6
 10
-26.4821
 20
65.1972
 30
0
 70
     0
  0
VERTEX
  8
SCANIA_P114_CB_6
 10
-26.3576
 20
65.4388
 30
0
 70
     0
  0
VERTEX
  8
SCANIA_P114_CB_6
 10
-26.2279
 20
65.677
 30
0
 70
     0
  0
VERTEX
  8
SCANIA_P114_CB_6
 10
-26.0928
 20
65.9118
 30
0
 70
     0
  0
VERTEX
  8
SCANIA_P114_CB_6
 10
-25.9526
 20
66.1431
 30
0
 70
     0
  0
VERTEX
  8
SCANIA_P114_CB_6
 10
-25.6571
 20
66.5949
 30
0
 70
     0
  0
VERTEX
  8
SCANIA_P114_CB_6
 10
-25.3419
 20
67.0318
 30
0
 70
     0
  0
VERTEX
  8
SCANIA_P114_CB_6
 10
-25.0077
 20
67.4532
 30
0
 70
     0
  0
VERTEX
  8
SCANIA_P114_CB_6
 10
-24.6552
 20
67.8586
 30
0
 70
     0
  0
VERTEX
  8
SCANIA_P114_CB_6
 10
-24.2849
 20
68.2472
 30
0
 70
     0
  0
VERTEX
  8
SCANIA_P114_CB_6
 10
-23.8976
 20
68.6185
 30
0
 70
     0
  0
VERTEX
  8
SCANIA_P114_CB_6
 10
-23.4939
 20
68.972
 30
0
 70
     0
  0
VERTEX
  8
SCANIA_P114_CB_6
 10
-23.0745
 20
69.307
 30
0
 70
     0
  0
VERTEX
  8
SCANIA_P114_CB_6
 10
-22.64
 20
69.6229
 30
0
 70
     0
  0
VERTEX
  8
SCANIA_P114_CB_6
 10
-22.191
 20
69.9191
 30
0
 70
     0
  0
VERTEX
  8
SCANIA_P114_CB_6
 10
-21.9614
 20
70.0596
 30
0
 70
     0
  0
VERTEX
  8
SCANIA_P114_CB_6
 10
-21.7283
 20
70.195
 30
0
 70
     0
  0
VERTEX
  8
SCANIA_P114_CB_6
 10
-21.492
 20
70.3251
 30
0
 70
     0
  0
VERTEX
  8
SCANIA_P114_CB_6
 10
-21.2525
 20
70.45
 30
0
 70
     0
  0
VERTEX
  8
SCANIA_P114_CB_6
 10
-21.0098
 20
70.5695
 30
0
 70
     0
  0
VERTEX
  8
SCANIA_P114_CB_6
 10
-20.7642
 20
70.6835
 30
0
 70
     0
  0
VERTEX
  8
SCANIA_P114_CB_6
 10
-20.5155
 20
70.7921
 30
0
 70
     0
  0
VERTEX
  8
SCANIA_P114_CB_6
 10
-20.2641
 20
70.895
 30
0
 70
     0
  0
VERTEX
  8
SCANIA_P114_CB_6
 10
-20.0098
 20
70.9922
 30
0
 70
     0
  0
VERTEX
  8
SCANIA_P114_CB_6
 10
-19.7528
 20
71.0838
 30
0
 70
     0
  0
VERTEX
  8
SCANIA_P114_CB_6
 10
-19.4932
 20
71.1694
 30
0
 70
     0
  0
VERTEX
  8
SCANIA_P114_CB_6
 10
-19.231
 20
71.2492
 30
0
 70
     0
  0
VERTEX
  8
SCANIA_P114_CB_6
 10
-18.9664
 20
71.3231
 30
0
 70
     0
  0
VERTEX
  8
SCANIA_P114_CB_6
 10
-18.6994
 20
71.3908
 30
0
 70
     0
  0
VERTEX
  8
SCANIA_P114_CB_6
 10
-18.4301
 20
71.4525
 30
0
 70
     0
  0
VERTEX
  8
SCANIA_P114_CB_6
 10
-18.1585
 20
71.508
 30
0
 70
     0
  0
VERTEX
  8
SCANIA_P114_CB_6
 10
-17.8849
 20
71.5571
 30
0
 70
     0
  0
VERTEX
  8
SCANIA_P114_CB_6
 10
-17.6092
 20
71.6
 30
0
 70
     0
  0
VERTEX
  8
SCANIA_P114_CB_6
 10
-17.3315
 20
71.6364
 30
0
 70
     0
  0
VERTEX
  8
SCANIA_P114_CB_6
 10
-17.0519
 20
71.6663
 30
0
 70
     0
  0
VERTEX
  8
SCANIA_P114_CB_6
 10
-16.7706
 20
71.6897
 30
0
 70
     0
  0
VERTEX
  8
SCANIA_P114_CB_6
 10
-16.4874
 20
71.7064
 30
0
 70
     0
  0
VERTEX
  8
SCANIA_P114_CB_6
 10
-16.2027
 20
71.7164
 30
0
 70
     0
  0
VERTEX
  8
SCANIA_P114_CB_6
 10
-15.9164
 20
71.7196
 30
0
 70
     0
  0
SEQEND
  0
POLYLINE
  8
SCANIA_P114_CB_6
  6
CONTINUOUS
 62
     7
 66
     1
 40
0.0139
 41
0.0139
  0
VERTEX
  8
SCANIA_P114_CB_6
 10
40.1196
 20
62.8613
 30
0
 70
     0
  0
VERTEX
  8
SCANIA_P114_CB_6
 10
40.1196
 20
59.7117
 30
0
 70
     0
  0
SEQEND
  0
POLYLINE
  8
SCANIA_P114_CB_6
  6
CONTINUOUS
 62
     7
 66
     1
 40
0.0139
 41
0.0139
  0
VERTEX
  8
SCANIA_P114_CB_6
 10
24.4084
 20
-10.4851
 30
0
 70
     0
  0
VERTEX
  8
SCANIA_P114_CB_6
 10
26.5891
 20
-27.0491
 30
0
 70
     0
  0
SEQEND
  0
POLYLINE
  8
SCANIA_P114_CB_6
  6
CONTINUOUS
 62
     7
 66
     1
 40
0.0139
 41
0.0139
  0
VERTEX
  8
SCANIA_P114_CB_6
 10
5.8676
 20
2.8219
 30
0
 70
     0
  0
VERTEX
  8
SCANIA_P114_CB_6
 10
6.2371
 20
2.818
 30
0
 70
     0
  0
VERTEX
  8
SCANIA_P114_CB_6
 10
6.6048
 20
2.8055
 30
0
 70
     0
  0
VERTEX
  8
SCANIA_P114_CB_6
 10
6.9705
 20
2.7845
 30
0
 70
     0
  0
VERTEX
  8
SCANIA_P114_CB_6
 10
7.334
 20
2.7553
 30
0
 70
     0
  0
VERTEX
  8
SCANIA_P114_CB_6
 10
7.6954
 20
2.7178
 30
0
 70
     0
  0
VERTEX
  8
SCANIA_P114_CB_6
 10
8.0545
 20
2.6722
 30
0
 70
     0
  0
VERTEX
  8
SCANIA_P114_CB_6
 10
8.4112
 20
2.6185
 30
0
 70
     0
  0
VERTEX
  8
SCANIA_P114_CB_6
 10
8.7654
 20
2.5568
 30
0
 70
     0
  0
VERTEX
  8
SCANIA_P114_CB_6
 10
9.117
 20
2.4872
 30
0
 70
     0
  0
VERTEX
  8
SCANIA_P114_CB_6
 10
9.4659
 20
2.4099
 30
0
 70
     0
  0
VERTEX
  8
SCANIA_P114_CB_6
 10
9.812
 20
2.3248
 30
0
 70
     0
  0
VERTEX
  8
SCANIA_P114_CB_6
 10
10.1552
 20
2.2322
 30
0
 70
     0
  0
VERTEX
  8
SCANIA_P114_CB_6
 10
10.4954
 20
2.132
 30
0
 70
     0
  0
VERTEX
  8
SCANIA_P114_CB_6
 10
10.8325
 20
2.0243
 30
0
 70
     0
  0
VERTEX
  8
SCANIA_P114_CB_6
 10
11.1664
 20
1.9093
 30
0
 70
     0
  0
VERTEX
  8
SCANIA_P114_CB_6
 10
11.497
 20
1.7871
 30
0
 70
     0
  0
VERTEX
  8
SCANIA_P114_CB_6
 10
11.8242
 20
1.6577
 30
0
 70
     0
  0
VERTEX
  8
SCANIA_P114_CB_6
 10
12.1478
 20
1.5212
 30
0
 70
     0
  0
VERTEX
  8
SCANIA_P114_CB_6
 10
12.4679
 20
1.3777
 30
0
 70
     0
  0
VERTEX
  8
SCANIA_P114_CB_6
 10
12.7842
 20
1.2273
 30
0
 70
     0
  0
VERTEX
  8
SCANIA_P114_CB_6
 10
13.0967
 20
1.0701
 30
0
 70
     0
  0
VERTEX
  8
SCANIA_P114_CB_6
 10
13.4053
 20
0.9062
 30
0
 70
     0
  0
VERTEX
  8
SCANIA_P114_CB_6
 10
13.7099
 20
0.7356
 30
0
 70
     0
  0
VERTEX
  8
SCANIA_P114_CB_6
 10
14.0103
 20
0.5585
 30
0
 70
     0
  0
VERTEX
  8
SCANIA_P114_CB_6
 10
14.3066
 20
0.3749
 30
0
 70
     0
  0
VERTEX
  8
SCANIA_P114_CB_6
 10
14.5985
 20
0.185
 30
0
 70
     0
  0
VERTEX
  8
SCANIA_P114_CB_6
 10
14.8859
 20
-0.0113
 30
0
 70
     0
  0
VERTEX
  8
SCANIA_P114_CB_6
 10
15.1689
 20
-0.2137
 30
0
 70
     0
  0
VERTEX
  8
SCANIA_P114_CB_6
 10
15.4472
 20
-0.4222
 30
0
 70
     0
  0
VERTEX
  8
SCANIA_P114_CB_6
 10
15.7208
 20
-0.6367
 30
0
 70
     0
  0
VERTEX
  8
SCANIA_P114_CB_6
 10
15.9895
 20
-0.8571
 30
0
 70
     0
  0
VERTEX
  8
SCANIA_P114_CB_6
 10
16.2533
 20
-1.0834
 30
0
 70
     0
  0
VERTEX
  8
SCANIA_P114_CB_6
 10
16.5121
 20
-1.3154
 30
0
 70
     0
  0
VERTEX
  8
SCANIA_P114_CB_6
 10
16.7657
 20
-1.5531
 30
0
 70
     0
  0
VERTEX
  8
SCANIA_P114_CB_6
 10
17.0141
 20
-1.7964
 30
0
 70
     0
  0
VERTEX
  8
SCANIA_P114_CB_6
 10
17.2572
 20
-2.0451
 30
0
 70
     0
  0
VERTEX
  8
SCANIA_P114_CB_6
 10
17.4948
 20
-2.2992
 30
0
 70
     0
  0
VERTEX
  8
SCANIA_P114_CB_6
 10
17.7269
 20
-2.5586
 30
0
 70
     0
  0
VERTEX
  8
SCANIA_P114_CB_6
 10
17.9533
 20
-2.8232
 30
0
 70
     0
  0
VERTEX
  8
SCANIA_P114_CB_6
 10
18.1739
 20
-3.0929
 30
0
 70
     0
  0
VERTEX
  8
SCANIA_P114_CB_6
 10
18.3888
 20
-3.3677
 30
0
 70
     0
  0
VERTEX
  8
SCANIA_P114_CB_6
 10
18.5976
 20
-3.6474
 30
0
 70
     0
  0
VERTEX
  8
SCANIA_P114_CB_6
 10
18.8004
 20
-3.9319
 30
0
 70
     0
  0
VERTEX
  8
SCANIA_P114_CB_6
 10
18.9971
 20
-4.2213
 30
0
 70
     0
  0
VERTEX
  8
SCANIA_P114_CB_6
 10
19.1875
 20
-4.5152
 30
0
 70
     0
  0
VERTEX
  8
SCANIA_P114_CB_6
 10
19.3715
 20
-4.8138
 30
0
 70
     0
  0
VERTEX
  8
SCANIA_P114_CB_6
 10
19.5491
 20
-5.1169
 30
0
 70
     0
  0
VERTEX
  8
SCANIA_P114_CB_6
 10
19.7201
 20
-5.4244
 30
0
 70
     0
  0
VERTEX
  8
SCANIA_P114_CB_6
 10
19.8845
 20
-5.7362
 30
0
 70
     0
  0
VERTEX
  8
SCANIA_P114_CB_6
 10
20.0421
 20
-6.0522
 30
0
 70
     0
  0
VERTEX
  8
SCANIA_P114_CB_6
 10
20.1928
 20
-6.3724
 30
0
 70
     0
  0
VERTEX
  8
SCANIA_P114_CB_6
 10
20.3365
 20
-6.6966
 30
0
 70
     0
  0
VERTEX
  8
SCANIA_P114_CB_6
 10
20.4732
 20
-7.0247
 30
0
 70
     0
  0
VERTEX
  8
SCANIA_P114_CB_6
 10
20.6027
 20
-7.3568
 30
0
 70
     0
  0
VERTEX
  8
SCANIA_P114_CB_6
 10
20.7249
 20
-7.6926
 30
0
 70
     0
  0
VERTEX
  8
SCANIA_P114_CB_6
 10
20.8398
 20
-8.0321
 30
0
 70
     0
  0
VERTEX
  8
SCANIA_P114_CB_6
 10
20.9472
 20
-8.3753
 30
0
 70
     0
  0
VERTEX
  8
SCANIA_P114_CB_6
 10
21.047
 20
-8.7219
 30
0
 70
     0
  0
VERTEX
  8
SCANIA_P114_CB_6
 10
21.1391
 20
-9.072
 30
0
 70
     0
  0
VERTEX
  8
SCANIA_P114_CB_6
 10
21.2234
 20
-9.4254
 30
0
 70
     0
  0
VERTEX
  8
SCANIA_P114_CB_6
 10
21.2999
 20
-9.782
 30
0
 70
     0
  0
VERTEX
  8
SCANIA_P114_CB_6
 10
21.3683
 20
-10.1418
 30
0
 70
     0
  0
VERTEX
  8
SCANIA_P114_CB_6
 10
21.4287
 20
-10.5047
 30
0
 70
     0
  0
VERTEX
  8
SCANIA_P114_CB_6
 10
21.4809
 20
-10.8706
 30
0
 70
     0
  0
SEQEND
  0
POLYLINE
  8
SCANIA_P114_CB_6
  6
CONTINUOUS
 62
     7
 66
     1
 40
0.0139
 41
0.0139
  0
VERTEX
  8
SCANIA_P114_CB_6
 10
-23.7543
 20
-27.5624
 30
0
 70
     0
  0
VERTEX
  8
SCANIA_P114_CB_6
 10
-26.6649
 20
-27.0491
 30
0
 70
     0
  0
SEQEND
  0
POLYLINE
  8
SCANIA_P114_CB_6
  6
CONTINUOUS
 62
     7
 66
     1
 40
0.0139
 41
0.0139
  0
VERTEX
  8
SCANIA_P114_CB_6
 10
-26.6649
 20
-27.0491
 30
0
 70
     0
  0
VERTEX
  8
SCANIA_P114_CB_6
 10
-24.4842
 20
-10.4851
 30
0
 70
     0
  0
SEQEND
  0
POLYLINE
  8
SCANIA_P114_CB_6
  6
CONTINUOUS
 62
     7
 66
     1
 40
0.0139
 41
0.0139
  0
VERTEX
  8
SCANIA_P114_CB_6
 10
5.8676
 20
2.8219
 30
0
 70
     0
  0
VERTEX
  8
SCANIA_P114_CB_6
 10
-5.9434
 20
2.8219
 30
0
 70
     0
  0
SEQEND
  0
POLYLINE
  8
SCANIA_P114_CB_6
  6
CONTINUOUS
 62
     7
 66
     1
 40
0.0139
 41
0.0139
  0
VERTEX
  8
SCANIA_P114_CB_6
 10
-21.5567
 20
-10.8706
 30
0
 70
     0
  0
VERTEX
  8
SCANIA_P114_CB_6
 10
-21.5045
 20
-10.5047
 30
0
 70
     0
  0
VERTEX
  8
SCANIA_P114_CB_6
 10
-21.4442
 20
-10.1418
 30
0
 70
     0
  0
VERTEX
  8
SCANIA_P114_CB_6
 10
-21.3757
 20
-9.782
 30
0
 70
     0
  0
VERTEX
  8
SCANIA_P114_CB_6
 10
-21.2992
 20
-9.4254
 30
0
 70
     0
  0
VERTEX
  8
SCANIA_P114_CB_6
 10
-21.2149
 20
-9.072
 30
0
 70
     0
  0
VERTEX
  8
SCANIA_P114_CB_6
 10
-21.1228
 20
-8.7219
 30
0
 70
     0
  0
VERTEX
  8
SCANIA_P114_CB_6
 10
-21.023
 20
-8.3753
 30
0
 70
     0
  0
VERTEX
  8
SCANIA_P114_CB_6
 10
-20.9156
 20
-8.0321
 30
0
 70
     0
  0
VERTEX
  8
SCANIA_P114_CB_6
 10
-20.8008
 20
-7.6926
 30
0
 70
     0
  0
VERTEX
  8
SCANIA_P114_CB_6
 10
-20.6785
 20
-7.3568
 30
0
 70
     0
  0
VERTEX
  8
SCANIA_P114_CB_6
 10
-20.549
 20
-7.0247
 30
0
 70
     0
  0
VERTEX
  8
SCANIA_P114_CB_6
 10
-20.4123
 20
-6.6966
 30
0
 70
     0
  0
VERTEX
  8
SCANIA_P114_CB_6
 10
-20.2686
 20
-6.3724
 30
0
 70
     0
  0
VERTEX
  8
SCANIA_P114_CB_6
 10
-20.1179
 20
-6.0522
 30
0
 70
     0
  0
VERTEX
  8
SCANIA_P114_CB_6
 10
-19.9603
 20
-5.7362
 30
0
 70
     0
  0
VERTEX
  8
SCANIA_P114_CB_6
 10
-19.7959
 20
-5.4244
 30
0
 70
     0
  0
VERTEX
  8
SCANIA_P114_CB_6
 10
-19.6249
 20
-5.1169
 30
0
 70
     0
  0
VERTEX
  8
SCANIA_P114_CB_6
 10
-19.4474
 20
-4.8138
 30
0
 70
     0
  0
VERTEX
  8
SCANIA_P114_CB_6
 10
-19.2633
 20
-4.5152
 30
0
 70
     0
  0
VERTEX
  8
SCANIA_P114_CB_6
 10
-19.0729
 20
-4.2213
 30
0
 70
     0
  0
VERTEX
  8
SCANIA_P114_CB_6
 10
-18.8763
 20
-3.9319
 30
0
 70
     0
  0
VERTEX
  8
SCANIA_P114_CB_6
 10
-18.6735
 20
-3.6474
 30
0
 70
     0
  0
VERTEX
  8
SCANIA_P114_CB_6
 10
-18.4646
 20
-3.3677
 30
0
 70
     0
  0
VERTEX
  8
SCANIA_P114_CB_6
 10
-18.2498
 20
-3.0929
 30
0
 70
     0
  0
VERTEX
  8
SCANIA_P114_CB_6
 10
-18.0291
 20
-2.8232
 30
0
 70
     0
  0
VERTEX
  8
SCANIA_P114_CB_6
 10
-17.8027
 20
-2.5586
 30
0
 70
     0
  0
VERTEX
  8
SCANIA_P114_CB_6
 10
-17.5706
 20
-2.2992
 30
0
 70
     0
  0
VERTEX
  8
SCANIA_P114_CB_6
 10
-17.333
 20
-2.0451
 30
0
 70
     0
  0
VERTEX
  8
SCANIA_P114_CB_6
 10
-17.09
 20
-1.7964
 30
0
 70
     0
  0
VERTEX
  8
SCANIA_P114_CB_6
 10
-16.8416
 20
-1.5531
 30
0
 70
     0
  0
VERTEX
  8
SCANIA_P114_CB_6
 10
-16.5879
 20
-1.3154
 30
0
 70
     0
  0
VERTEX
  8
SCANIA_P114_CB_6
 10
-16.3292
 20
-1.0834
 30
0
 70
     0
  0
VERTEX
  8
SCANIA_P114_CB_6
 10
-16.0654
 20
-0.8571
 30
0
 70
     0
  0
VERTEX
  8
SCANIA_P114_CB_6
 10
-15.7966
 20
-0.6367
 30
0
 70
     0
  0
VERTEX
  8
SCANIA_P114_CB_6
 10
-15.523
 20
-0.4222
 30
0
 70
     0
  0
VERTEX
  8
SCANIA_P114_CB_6
 10
-15.2447
 20
-0.2137
 30
0
 70
     0
  0
VERTEX
  8
SCANIA_P114_CB_6
 10
-14.9618
 20
-0.0113
 30
0
 70
     0
  0
VERTEX
  8
SCANIA_P114_CB_6
 10
-14.6743
 20
0.185
 30
0
 70
     0
  0
VERTEX
  8
SCANIA_P114_CB_6
 10
-14.3824
 20
0.3749
 30
0
 70
     0
  0
VERTEX
  8
SCANIA_P114_CB_6
 10
-14.0862
 20
0.5585
 30
0
 70
     0
  0
VERTEX
  8
SCANIA_P114_CB_6
 10
-13.7857
 20
0.7356
 30
0
 70
     0
  0
VERTEX
  8
SCANIA_P114_CB_6
 10
-13.4811
 20
0.9062
 30
0
 70
     0
  0
VERTEX
  8
SCANIA_P114_CB_6
 10
-13.1726
 20
1.0701
 30
0
 70
     0
  0
VERTEX
  8
SCANIA_P114_CB_6
 10
-12.86
 20
1.2273
 30
0
 70
     0
  0
VERTEX
  8
SCANIA_P114_CB_6
 10
-12.5437
 20
1.3777
 30
0
 70
     0
  0
VERTEX
  8
SCANIA_P114_CB_6
 10
-12.2237
 20
1.5212
 30
0
 70
     0
  0
VERTEX
  8
SCANIA_P114_CB_6
 10
-11.9
 20
1.6577
 30
0
 70
     0
  0
VERTEX
  8
SCANIA_P114_CB_6
 10
-11.5728
 20
1.7871
 30
0
 70
     0
  0
VERTEX
  8
SCANIA_P114_CB_6
 10
-11.2423
 20
1.9093
 30
0
 70
     0
  0
VERTEX
  8
SCANIA_P114_CB_6
 10
-10.9084
 20
2.0243
 30
0
 70
     0
  0
VERTEX
  8
SCANIA_P114_CB_6
 10
-10.5713
 20
2.132
 30
0
 70
     0
  0
VERTEX
  8
SCANIA_P114_CB_6
 10
-10.2311
 20
2.2322
 30
0
 70
     0
  0
VERTEX
  8
SCANIA_P114_CB_6
 10
-9.8879
 20
2.3248
 30
0
 70
     0
  0
VERTEX
  8
SCANIA_P114_CB_6
 10
-9.5418
 20
2.4099
 30
0
 70
     0
  0
VERTEX
  8
SCANIA_P114_CB_6
 10
-9.1928
 20
2.4872
 30
0
 70
     0
  0
VERTEX
  8
SCANIA_P114_CB_6
 10
-8.8412
 20
2.5568
 30
0
 70
     0
  0
VERTEX
  8
SCANIA_P114_CB_6
 10
-8.487
 20
2.6185
 30
0
 70
     0
  0
VERTEX
  8
SCANIA_P114_CB_6
 10
-8.1303
 20
2.6722
 30
0
 70
     0
  0
VERTEX
  8
SCANIA_P114_CB_6
 10
-7.7712
 20
2.7178
 30
0
 70
     0
  0
VERTEX
  8
SCANIA_P114_CB_6
 10
-7.4099
 20
2.7553
 30
0
 70
     0
  0
VERTEX
  8
SCANIA_P114_CB_6
 10
-7.0463
 20
2.7845
 30
0
 70
     0
  0
VERTEX
  8
SCANIA_P114_CB_6
 10
-6.6806
 20
2.8055
 30
0
 70
     0
  0
VERTEX
  8
SCANIA_P114_CB_6
 10
-6.313
 20
2.818
 30
0
 70
     0
  0
VERTEX
  8
SCANIA_P114_CB_6
 10
-5.9434
 20
2.8219
 30
0
 70
     0
  0
SEQEND
  0
POLYLINE
  8
SCANIA_P114_CB_6
  6
CONTINUOUS
 62
     7
 66
     1
 40
0.0139
 41
0.0139
  0
VERTEX
  8
SCANIA_P114_CB_6
 10
26.5891
 20
-27.0491
 30
0
 70
     0
  0
VERTEX
  8
SCANIA_P114_CB_6
 10
23.6784
 20
-27.5624
 30
0
 70
     0
  0
SEQEND
  0
POLYLINE
  8
SCANIA_P114_CB_6
  6
CONTINUOUS
 62
     7
 66
     1
 40
0.0139
 41
0.0139
  0
VERTEX
  8
SCANIA_P114_CB_6
 10
23.6784
 20
-27.5624
 30
0
 70
     0
  0
VERTEX
  8
SCANIA_P114_CB_6
 10
21.4809
 20
-10.8706
 30
0
 70
     0
  0
SEQEND
  0
POLYLINE
  8
SCANIA_P114_CB_6
  6
CONTINUOUS
 62
     7
 66
     1
 40
0.0139
 41
0.0139
  0
VERTEX
  8
SCANIA_P114_CB_6
 10
-21.5567
 20
-10.8706
 30
0
 70
     0
  0
VERTEX
  8
SCANIA_P114_CB_6
 10
-23.7543
 20
-27.5624
 30
0
 70
     0
  0
SEQEND
  0
POLYLINE
  8
SCANIA_P114_CB_6
  6
CONTINUOUS
 62
     7
 66
     1
 40
0.0139
 41
0.0139
  0
VERTEX
  8
SCANIA_P114_CB_6
 10
5.8676
 20
5.7747
 30
0
 70
     0
  0
VERTEX
  8
SCANIA_P114_CB_6
 10
6.3064
 20
5.77
 30
0
 70
     0
  0
VERTEX
  8
SCANIA_P114_CB_6
 10
6.743
 20
5.7551
 30
0
 70
     0
  0
VERTEX
  8
SCANIA_P114_CB_6
 10
7.1772
 20
5.7303
 30
0
 70
     0
  0
VERTEX
  8
SCANIA_P114_CB_6
 10
7.609
 20
5.6956
 30
0
 70
     0
  0
VERTEX
  8
SCANIA_P114_CB_6
 10
8.0381
 20
5.651
 30
0
 70
     0
  0
VERTEX
  8
SCANIA_P114_CB_6
 10
8.4646
 20
5.5969
 30
0
 70
     0
  0
VERTEX
  8
SCANIA_P114_CB_6
 10
8.8881
 20
5.5331
 30
0
 70
     0
  0
VERTEX
  8
SCANIA_P114_CB_6
 10
9.3088
 20
5.4598
 30
0
 70
     0
  0
VERTEX
  8
SCANIA_P114_CB_6
 10
9.7263
 20
5.3772
 30
0
 70
     0
  0
VERTEX
  8
SCANIA_P114_CB_6
 10
10.1406
 20
5.2854
 30
0
 70
     0
  0
VERTEX
  8
SCANIA_P114_CB_6
 10
10.5516
 20
5.1844
 30
0
 70
     0
  0
VERTEX
  8
SCANIA_P114_CB_6
 10
10.9592
 20
5.0743
 30
0
 70
     0
  0
VERTEX
  8
SCANIA_P114_CB_6
 10
11.3632
 20
4.9554
 30
0
 70
     0
  0
VERTEX
  8
SCANIA_P114_CB_6
 10
11.7635
 20
4.8275
 30
0
 70
     0
  0
VERTEX
  8
SCANIA_P114_CB_6
 10
12.16
 20
4.691
 30
0
 70
     0
  0
VERTEX
  8
SCANIA_P114_CB_6
 10
12.5525
 20
4.5458
 30
0
 70
     0
  0
VERTEX
  8
SCANIA_P114_CB_6
 10
12.941
 20
4.3921
 30
0
 70
     0
  0
VERTEX
  8
SCANIA_P114_CB_6
 10
13.3254
 20
4.23
 30
0
 70
     0
  0
VERTEX
  8
SCANIA_P114_CB_6
 10
13.7054
 20
4.0596
 30
0
 70
     0
  0
VERTEX
  8
SCANIA_P114_CB_6
 10
14.0811
 20
3.8811
 30
0
 70
     0
  0
VERTEX
  8
SCANIA_P114_CB_6
 10
14.4522
 20
3.6944
 30
0
 70
     0
  0
VERTEX
  8
SCANIA_P114_CB_6
 10
14.8186
 20
3.4997
 30
0
 70
     0
  0
VERTEX
  8
SCANIA_P114_CB_6
 10
15.1803
 20
3.2971
 30
0
 70
     0
  0
VERTEX
  8
SCANIA_P114_CB_6
 10
15.5371
 20
3.0868
 30
0
 70
     0
  0
VERTEX
  8
SCANIA_P114_CB_6
 10
15.8889
 20
2.8688
 30
0
 70
     0
  0
VERTEX
  8
SCANIA_P114_CB_6
 10
16.2355
 20
2.6433
 30
0
 70
     0
  0
VERTEX
  8
SCANIA_P114_CB_6
 10
16.5769
 20
2.4103
 30
0
 70
     0
  0
VERTEX
  8
SCANIA_P114_CB_6
 10
16.9129
 20
2.1699
 30
0
 70
     0
  0
VERTEX
  8
SCANIA_P114_CB_6
 10
17.2434
 20
1.9223
 30
0
 70
     0
  0
VERTEX
  8
SCANIA_P114_CB_6
 10
17.5682
 20
1.6676
 30
0
 70
     0
  0
VERTEX
  8
SCANIA_P114_CB_6
 10
17.8874
 20
1.4058
 30
0
 70
     0
  0
VERTEX
  8
SCANIA_P114_CB_6
 10
18.2007
 20
1.1371
 30
0
 70
     0
  0
VERTEX
  8
SCANIA_P114_CB_6
 10
18.508
 20
0.8616
 30
0
 70
     0
  0
VERTEX
  8
SCANIA_P114_CB_6
 10
18.8091
 20
0.5793
 30
0
 70
     0
  0
VERTEX
  8
SCANIA_P114_CB_6
 10
19.1041
 20
0.2905
 30
0
 70
     0
  0
VERTEX
  8
SCANIA_P114_CB_6
 10
19.3927
 20
-0.0049
 30
0
 70
     0
  0
VERTEX
  8
SCANIA_P114_CB_6
 10
19.6749
 20
-0.3066
 30
0
 70
     0
  0
VERTEX
  8
SCANIA_P114_CB_6
 10
19.9505
 20
-0.6147
 30
0
 70
     0
  0
VERTEX
  8
SCANIA_P114_CB_6
 10
20.2193
 20
-0.9289
 30
0
 70
     0
  0
VERTEX
  8
SCANIA_P114_CB_6
 10
20.4814
 20
-1.2492
 30
0
 70
     0
  0
VERTEX
  8
SCANIA_P114_CB_6
 10
20.7365
 20
-1.5755
 30
0
 70
     0
  0
VERTEX
  8
SCANIA_P114_CB_6
 10
20.9845
 20
-1.9076
 30
0
 70
     0
  0
VERTEX
  8
SCANIA_P114_CB_6
 10
21.2253
 20
-2.2455
 30
0
 70
     0
  0
VERTEX
  8
SCANIA_P114_CB_6
 10
21.4589
 20
-2.5891
 30
0
 70
     0
  0
VERTEX
  8
SCANIA_P114_CB_6
 10
21.685
 20
-2.9382
 30
0
 70
     0
  0
VERTEX
  8
SCANIA_P114_CB_6
 10
21.9035
 20
-3.2928
 30
0
 70
     0
  0
VERTEX
  8
SCANIA_P114_CB_6
 10
22.1144
 20
-3.6527
 30
0
 70
     0
  0
VERTEX
  8
SCANIA_P114_CB_6
 10
22.3175
 20
-4.0178
 30
0
 70
     0
  0
VERTEX
  8
SCANIA_P114_CB_6
 10
22.5126
 20
-4.3881
 30
0
 70
     0
  0
VERTEX
  8
SCANIA_P114_CB_6
 10
22.6998
 20
-4.7633
 30
0
 70
     0
  0
VERTEX
  8
SCANIA_P114_CB_6
 10
22.8787
 20
-5.1435
 30
0
 70
     0
  0
VERTEX
  8
SCANIA_P114_CB_6
 10
23.0494
 20
-5.5285
 30
0
 70
     0
  0
VERTEX
  8
SCANIA_P114_CB_6
 10
23.2117
 20
-5.9182
 30
0
 70
     0
  0
VERTEX
  8
SCANIA_P114_CB_6
 10
23.3655
 20
-6.3126
 30
0
 70
     0
  0
VERTEX
  8
SCANIA_P114_CB_6
 10
23.5107
 20
-6.7113
 30
0
 70
     0
  0
VERTEX
  8
SCANIA_P114_CB_6
 10
23.6471
 20
-7.1145
 30
0
 70
     0
  0
VERTEX
  8
SCANIA_P114_CB_6
 10
23.7746
 20
-7.522
 30
0
 70
     0
  0
VERTEX
  8
SCANIA_P114_CB_6
 10
23.8931
 20
-7.9336
 30
0
 70
     0
  0
VERTEX
  8
SCANIA_P114_CB_6
 10
24.0025
 20
-8.3493
 30
0
 70
     0
  0
VERTEX
  8
SCANIA_P114_CB_6
 10
24.1026
 20
-8.769
 30
0
 70
     0
  0
VERTEX
  8
SCANIA_P114_CB_6
 10
24.1934
 20
-9.1925
 30
0
 70
     0
  0
VERTEX
  8
SCANIA_P114_CB_6
 10
24.2747
 20
-9.6198
 30
0
 70
     0
  0
VERTEX
  8
SCANIA_P114_CB_6
 10
24.3464
 20
-10.0507
 30
0
 70
     0
  0
VERTEX
  8
SCANIA_P114_CB_6
 10
24.4084
 20
-10.4851
 30
0
 70
     0
  0
SEQEND
  0
POLYLINE
  8
SCANIA_P114_CB_6
  6
CONTINUOUS
 62
     7
 66
     1
 40
0.0139
 41
0.0139
  0
VERTEX
  8
SCANIA_P114_CB_6
 10
-24.4842
 20
-10.4851
 30
0
 70
     0
  0
VERTEX
  8
SCANIA_P114_CB_6
 10
-24.4223
 20
-10.0507
 30
0
 70
     0
  0
VERTEX
  8
SCANIA_P114_CB_6
 10
-24.3506
 20
-9.6198
 30
0
 70
     0
  0
VERTEX
  8
SCANIA_P114_CB_6
 10
-24.2692
 20
-9.1925
 30
0
 70
     0
  0
VERTEX
  8
SCANIA_P114_CB_6
 10
-24.1785
 20
-8.769
 30
0
 70
     0
  0
VERTEX
  8
SCANIA_P114_CB_6
 10
-24.0783
 20
-8.3493
 30
0
 70
     0
  0
VERTEX
  8
SCANIA_P114_CB_6
 10
-23.9689
 20
-7.9336
 30
0
 70
     0
  0
VERTEX
  8
SCANIA_P114_CB_6
 10
-23.8504
 20
-7.522
 30
0
 70
     0
  0
VERTEX
  8
SCANIA_P114_CB_6
 10
-23.7229
 20
-7.1145
 30
0
 70
     0
  0
VERTEX
  8
SCANIA_P114_CB_6
 10
-23.5865
 20
-6.7113
 30
0
 70
     0
  0
VERTEX
  8
SCANIA_P114_CB_6
 10
-23.4414
 20
-6.3126
 30
0
 70
     0
  0
VERTEX
  8
SCANIA_P114_CB_6
 10
-23.2876
 20
-5.9182
 30
0
 70
     0
  0
VERTEX
  8
SCANIA_P114_CB_6
 10
-23.1253
 20
-5.5285
 30
0
 70
     0
  0
VERTEX
  8
SCANIA_P114_CB_6
 10
-22.9546
 20
-5.1435
 30
0
 70
     0
  0
VERTEX
  8
SCANIA_P114_CB_6
 10
-22.7756
 20
-4.7633
 30
0
 70
     0
  0
VERTEX
  8
SCANIA_P114_CB_6
 10
-22.5885
 20
-4.3881
 30
0
 70
     0
  0
VERTEX
  8
SCANIA_P114_CB_6
 10
-22.3933
 20
-4.0178
 30
0
 70
     0
  0
VERTEX
  8
SCANIA_P114_CB_6
 10
-22.1902
 20
-3.6527
 30
0
 70
     0
  0
VERTEX
  8
SCANIA_P114_CB_6
 10
-21.9793
 20
-3.2928
 30
0
 70
     0
  0
VERTEX
  8
SCANIA_P114_CB_6
 10
-21.7608
 20
-2.9382
 30
0
 70
     0
  0
VERTEX
  8
SCANIA_P114_CB_6
 10
-21.5347
 20
-2.5891
 30
0
 70
     0
  0
VERTEX
  8
SCANIA_P114_CB_6
 10
-21.3012
 20
-2.2455
 30
0
 70
     0
  0
VERTEX
  8
SCANIA_P114_CB_6
 10
-21.0603
 20
-1.9076
 30
0
 70
     0
  0
VERTEX
  8
SCANIA_P114_CB_6
 10
-20.8123
 20
-1.5755
 30
0
 70
     0
  0
VERTEX
  8
SCANIA_P114_CB_6
 10
-20.5572
 20
-1.2492
 30
0
 70
     0
  0
VERTEX
  8
SCANIA_P114_CB_6
 10
-20.2952
 20
-0.9289
 30
0
 70
     0
  0
VERTEX
  8
SCANIA_P114_CB_6
 10
-20.0263
 20
-0.6147
 30
0
 70
     0
  0
VERTEX
  8
SCANIA_P114_CB_6
 10
-19.7507
 20
-0.3066
 30
0
 70
     0
  0
VERTEX
  8
SCANIA_P114_CB_6
 10
-19.4686
 20
-0.0049
 30
0
 70
     0
  0
VERTEX
  8
SCANIA_P114_CB_6
 10
-19.1799
 20
0.2905
 30
0
 70
     0
  0
VERTEX
  8
SCANIA_P114_CB_6
 10
-18.885
 20
0.5793
 30
0
 70
     0
  0
VERTEX
  8
SCANIA_P114_CB_6
 10
-18.5838
 20
0.8616
 30
0
 70
     0
  0
VERTEX
  8
SCANIA_P114_CB_6
 10
-18.2765
 20
1.1371
 30
0
 70
     0
  0
VERTEX
  8
SCANIA_P114_CB_6
 10
-17.9632
 20
1.4058
 30
0
 70
     0
  0
VERTEX
  8
SCANIA_P114_CB_6
 10
-17.6441
 20
1.6676
 30
0
 70
     0
  0
VERTEX
  8
SCANIA_P114_CB_6
 10
-17.3192
 20
1.9223
 30
0
 70
     0
  0
VERTEX
  8
SCANIA_P114_CB_6
 10
-16.9887
 20
2.1699
 30
0
 70
     0
  0
VERTEX
  8
SCANIA_P114_CB_6
 10
-16.6527
 20
2.4103
 30
0
 70
     0
  0
VERTEX
  8
SCANIA_P114_CB_6
 10
-16.3113
 20
2.6433
 30
0
 70
     0
  0
VERTEX
  8
SCANIA_P114_CB_6
 10
-15.9647
 20
2.8688
 30
0
 70
     0
  0
VERTEX
  8
SCANIA_P114_CB_6
 10
-15.6129
 20
3.0868
 30
0
 70
     0
  0
VERTEX
  8
SCANIA_P114_CB_6
 10
-15.2561
 20
3.2971
 30
0
 70
     0
  0
VERTEX
  8
SCANIA_P114_CB_6
 10
-14.8945
 20
3.4997
 30
0
 70
     0
  0
VERTEX
  8
SCANIA_P114_CB_6
 10
-14.528
 20
3.6944
 30
0
 70
     0
  0
VERTEX
  8
SCANIA_P114_CB_6
 10
-14.1569
 20
3.8811
 30
0
 70
     0
  0
VERTEX
  8
SCANIA_P114_CB_6
 10
-13.7813
 20
4.0596
 30
0
 70
     0
  0
VERTEX
  8
SCANIA_P114_CB_6
 10
-13.4012
 20
4.23
 30
0
 70
     0
  0
VERTEX
  8
SCANIA_P114_CB_6
 10
-13.0169
 20
4.3921
 30
0
 70
     0
  0
VERTEX
  8
SCANIA_P114_CB_6
 10
-12.6284
 20
4.5458
 30
0
 70
     0
  0
VERTEX
  8
SCANIA_P114_CB_6
 10
-12.2358
 20
4.691
 30
0
 70
     0
  0
VERTEX
  8
SCANIA_P114_CB_6
 10
-11.8393
 20
4.8275
 30
0
 70
     0
  0
VERTEX
  8
SCANIA_P114_CB_6
 10
-11.439
 20
4.9554
 30
0
 70
     0
  0
VERTEX
  8
SCANIA_P114_CB_6
 10
-11.035
 20
5.0743
 30
0
 70
     0
  0
VERTEX
  8
SCANIA_P114_CB_6
 10
-10.6274
 20
5.1844
 30
0
 70
     0
  0
VERTEX
  8
SCANIA_P114_CB_6
 10
-10.2164
 20
5.2854
 30
0
 70
     0
  0
VERTEX
  8
SCANIA_P114_CB_6
 10
-9.8021
 20
5.3772
 30
0
 70
     0
  0
VERTEX
  8
SCANIA_P114_CB_6
 10
-9.3846
 20
5.4598
 30
0
 70
     0
  0
VERTEX
  8
SCANIA_P114_CB_6
 10
-8.964
 20
5.5331
 30
0
 70
     0
  0
VERTEX
  8
SCANIA_P114_CB_6
 10
-8.5404
 20
5.5969
 30
0
 70
     0
  0
VERTEX
  8
SCANIA_P114_CB_6
 10
-8.114
 20
5.651
 30
0
 70
     0
  0
VERTEX
  8
SCANIA_P114_CB_6
 10
-7.6848
 20
5.6956
 30
0
 70
     0
  0
VERTEX
  8
SCANIA_P114_CB_6
 10
-7.2531
 20
5.7303
 30
0
 70
     0
  0
VERTEX
  8
SCANIA_P114_CB_6
 10
-6.8188
 20
5.7551
 30
0
 70
     0
  0
VERTEX
  8
SCANIA_P114_CB_6
 10
-6.3823
 20
5.77
 30
0
 70
     0
  0
VERTEX
  8
SCANIA_P114_CB_6
 10
-5.9434
 20
5.7747
 30
0
 70
     0
  0
SEQEND
  0
POLYLINE
  8
SCANIA_P114_CB_6
  6
CONTINUOUS
 62
     7
 66
     1
 40
0.0139
 41
0.0139
  0
VERTEX
  8
SCANIA_P114_CB_6
 10
-5.9434
 20
5.7747
 30
0
 70
     0
  0
VERTEX
  8
SCANIA_P114_CB_6
 10
5.8676
 20
5.7747
 30
0
 70
     0
  0
SEQEND
  0
POLYLINE
  8
SCANIA_P114_CB_6
  6
CONTINUOUS
 62
     7
 66
     1
 40
0.0139
 41
0.0139
  0
VERTEX
  8
SCANIA_P114_CB_6
 10
2.9542
 20
-23.0284
 30
0
 70
     0
  0
VERTEX
  8
SCANIA_P114_CB_6
 10
2.9503
 20
-22.8775
 30
0
 70
     0
  0
VERTEX
  8
SCANIA_P114_CB_6
 10
2.9388
 20
-22.7283
 30
0
 70
     0
  0
VERTEX
  8
SCANIA_P114_CB_6
 10
2.9199
 20
-22.5813
 30
0
 70
     0
  0
VERTEX
  8
SCANIA_P114_CB_6
 10
2.8938
 20
-22.4365
 30
0
 70
     0
  0
VERTEX
  8
SCANIA_P114_CB_6
 10
2.8606
 20
-22.2942
 30
0
 70
     0
  0
VERTEX
  8
SCANIA_P114_CB_6
 10
2.8205
 20
-22.1544
 30
0
 70
     0
  0
VERTEX
  8
SCANIA_P114_CB_6
 10
2.7738
 20
-22.0176
 30
0
 70
     0
  0
VERTEX
  8
SCANIA_P114_CB_6
 10
2.7206
 20
-21.8837
 30
0
 70
     0
  0
VERTEX
  8
SCANIA_P114_CB_6
 10
2.6612
 20
-21.7531
 30
0
 70
     0
  0
VERTEX
  8
SCANIA_P114_CB_6
 10
2.5956
 20
-21.6258
 30
0
 70
     0
  0
VERTEX
  8
SCANIA_P114_CB_6
 10
2.5242
 20
-21.5022
 30
0
 70
     0
  0
VERTEX
  8
SCANIA_P114_CB_6
 10
2.447
 20
-21.3823
 30
0
 70
     0
  0
VERTEX
  8
SCANIA_P114_CB_6
 10
2.3644
 20
-21.2665
 30
0
 70
     0
  0
VERTEX
  8
SCANIA_P114_CB_6
 10
2.2764
 20
-21.1548
 30
0
 70
     0
  0
VERTEX
  8
SCANIA_P114_CB_6
 10
2.1833
 20
-21.0474
 30
0
 70
     0
  0
VERTEX
  8
SCANIA_P114_CB_6
 10
2.0853
 20
-20.9446
 30
0
 70
     0
  0
VERTEX
  8
SCANIA_P114_CB_6
 10
1.9825
 20
-20.8466
 30
0
 70
     0
  0
VERTEX
  8
SCANIA_P114_CB_6
 10
1.8751
 20
-20.7535
 30
0
 70
     0
  0
VERTEX
  8
SCANIA_P114_CB_6
 10
1.7634
 20
-20.6655
 30
0
 70
     0
  0
VERTEX
  8
SCANIA_P114_CB_6
 10
1.6476
 20
-20.5829
 30
0
 70
     0
  0
VERTEX
  8
SCANIA_P114_CB_6
 10
1.5277
 20
-20.5057
 30
0
 70
     0
  0
VERTEX
  8
SCANIA_P114_CB_6
 10
1.4041
 20
-20.4343
 30
0
 70
     0
  0
VERTEX
  8
SCANIA_P114_CB_6
 10
1.2768
 20
-20.3687
 30
0
 70
     0
  0
VERTEX
  8
SCANIA_P114_CB_6
 10
1.1462
 20
-20.3093
 30
0
 70
     0
  0
VERTEX
  8
SCANIA_P114_CB_6
 10
1.0123
 20
-20.2561
 30
0
 70
     0
  0
VERTEX
  8
SCANIA_P114_CB_6
 10
0.8755
 20
-20.2094
 30
0
 70
     0
  0
VERTEX
  8
SCANIA_P114_CB_6
 10
0.7357
 20
-20.1693
 30
0
 70
     0
  0
VERTEX
  8
SCANIA_P114_CB_6
 10
0.5934
 20
-20.1361
 30
0
 70
     0
  0
VERTEX
  8
SCANIA_P114_CB_6
 10
0.4486
 20
-20.11
 30
0
 70
     0
  0
VERTEX
  8
SCANIA_P114_CB_6
 10
0.3016
 20
-20.0911
 30
0
 70
     0
  0
VERTEX
  8
SCANIA_P114_CB_6
 10
0.1524
 20
-20.0796
 30
0
 70
     0
  0
VERTEX
  8
SCANIA_P114_CB_6
 10
0.0015
 20
-20.0757
 30
0
 70
     0
  0
VERTEX
  8
SCANIA_P114_CB_6
 10
0.0015
 20
-20.0757
 30
0
 70
     0
  0
VERTEX
  8
SCANIA_P114_CB_6
 10
-0.1495
 20
-20.0796
 30
0
 70
     0
  0
VERTEX
  8
SCANIA_P114_CB_6
 10
-0.2986
 20
-20.0911
 30
0
 70
     0
  0
VERTEX
  8
SCANIA_P114_CB_6
 10
-0.4457
 20
-20.11
 30
0
 70
     0
  0
VERTEX
  8
SCANIA_P114_CB_6
 10
-0.5905
 20
-20.1361
 30
0
 70
     0
  0
VERTEX
  8
SCANIA_P114_CB_6
 10
-0.7328
 20
-20.1693
 30
0
 70
     0
  0
VERTEX
  8
SCANIA_P114_CB_6
 10
-0.8725
 20
-20.2094
 30
0
 70
     0
  0
VERTEX
  8
SCANIA_P114_CB_6
 10
-1.0094
 20
-20.2561
 30
0
 70
     0
  0
VERTEX
  8
SCANIA_P114_CB_6
 10
-1.1433
 20
-20.3093
 30
0
 70
     0
  0
VERTEX
  8
SCANIA_P114_CB_6
 10
-1.2739
 20
-20.3687
 30
0
 70
     0
  0
VERTEX
  8
SCANIA_P114_CB_6
 10
-1.4012
 20
-20.4343
 30
0
 70
     0
  0
VERTEX
  8
SCANIA_P114_CB_6
 10
-1.5248
 20
-20.5057
 30
0
 70
     0
  0
VERTEX
  8
SCANIA_P114_CB_6
 10
-1.6447
 20
-20.5829
 30
0
 70
     0
  0
VERTEX
  8
SCANIA_P114_CB_6
 10
-1.7605
 20
-20.6655
 30
0
 70
     0
  0
VERTEX
  8
SCANIA_P114_CB_6
 10
-1.8722
 20
-20.7535
 30
0
 70
     0
  0
VERTEX
  8
SCANIA_P114_CB_6
 10
-1.9796
 20
-20.8466
 30
0
 70
     0
  0
VERTEX
  8
SCANIA_P114_CB_6
 10
-2.0824
 20
-20.9446
 30
0
 70
     0
  0
VERTEX
  8
SCANIA_P114_CB_6
 10
-2.1804
 20
-21.0474
 30
0
 70
     0
  0
VERTEX
  8
SCANIA_P114_CB_6
 10
-2.2735
 20
-21.1548
 30
0
 70
     0
  0
VERTEX
  8
SCANIA_P114_CB_6
 10
-2.3615
 20
-21.2665
 30
0
 70
     0
  0
VERTEX
  8
SCANIA_P114_CB_6
 10
-2.4441
 20
-21.3823
 30
0
 70
     0
  0
VERTEX
  8
SCANIA_P114_CB_6
 10
-2.5213
 20
-21.5022
 30
0
 70
     0
  0
VERTEX
  8
SCANIA_P114_CB_6
 10
-2.5927
 20
-21.6258
 30
0
 70
     0
  0
VERTEX
  8
SCANIA_P114_CB_6
 10
-2.6583
 20
-21.7531
 30
0
 70
     0
  0
VERTEX
  8
SCANIA_P114_CB_6
 10
-2.7177
 20
-21.8837
 30
0
 70
     0
  0
VERTEX
  8
SCANIA_P114_CB_6
 10
-2.7709
 20
-22.0176
 30
0
 70
     0
  0
VERTEX
  8
SCANIA_P114_CB_6
 10
-2.8176
 20
-22.1544
 30
0
 70
     0
  0
VERTEX
  8
SCANIA_P114_CB_6
 10
-2.8577
 20
-22.2942
 30
0
 70
     0
  0
VERTEX
  8
SCANIA_P114_CB_6
 10
-2.8909
 20
-22.4365
 30
0
 70
     0
  0
VERTEX
  8
SCANIA_P114_CB_6
 10
-2.917
 20
-22.5813
 30
0
 70
     0
  0
VERTEX
  8
SCANIA_P114_CB_6
 10
-2.9359
 20
-22.7283
 30
0
 70
     0
  0
VERTEX
  8
SCANIA_P114_CB_6
 10
-2.9474
 20
-22.8775
 30
0
 70
     0
  0
VERTEX
  8
SCANIA_P114_CB_6
 10
-2.9513
 20
-23.0284
 30
0
 70
     0
  0
VERTEX
  8
SCANIA_P114_CB_6
 10
-2.9513
 20
-23.0284
 30
0
 70
     0
  0
VERTEX
  8
SCANIA_P114_CB_6
 10
-2.9474
 20
-23.1794
 30
0
 70
     0
  0
VERTEX
  8
SCANIA_P114_CB_6
 10
-2.9359
 20
-23.3285
 30
0
 70
     0
  0
VERTEX
  8
SCANIA_P114_CB_6
 10
-2.917
 20
-23.4756
 30
0
 70
     0
  0
VERTEX
  8
SCANIA_P114_CB_6
 10
-2.8909
 20
-23.6204
 30
0
 70
     0
  0
VERTEX
  8
SCANIA_P114_CB_6
 10
-2.8577
 20
-23.7627
 30
0
 70
     0
  0
VERTEX
  8
SCANIA_P114_CB_6
 10
-2.8176
 20
-23.9024
 30
0
 70
     0
  0
VERTEX
  8
SCANIA_P114_CB_6
 10
-2.7709
 20
-24.0393
 30
0
 70
     0
  0
VERTEX
  8
SCANIA_P114_CB_6
 10
-2.7177
 20
-24.1732
 30
0
 70
     0
  0
VERTEX
  8
SCANIA_P114_CB_6
 10
-2.6583
 20
-24.3038
 30
0
 70
     0
  0
VERTEX
  8
SCANIA_P114_CB_6
 10
-2.5927
 20
-24.4311
 30
0
 70
     0
  0
VERTEX
  8
SCANIA_P114_CB_6
 10
-2.5213
 20
-24.5547
 30
0
 70
     0
  0
VERTEX
  8
SCANIA_P114_CB_6
 10
-2.4441
 20
-24.6746
 30
0
 70
     0
  0
VERTEX
  8
SCANIA_P114_CB_6
 10
-2.3615
 20
-24.7904
 30
0
 70
     0
  0
VERTEX
  8
SCANIA_P114_CB_6
 10
-2.2735
 20
-24.9021
 30
0
 70
     0
  0
VERTEX
  8
SCANIA_P114_CB_6
 10
-2.1804
 20
-25.0095
 30
0
 70
     0
  0
VERTEX
  8
SCANIA_P114_CB_6
 10
-2.0824
 20
-25.1123
 30
0
 70
     0
  0
VERTEX
  8
SCANIA_P114_CB_6
 10
-1.9796
 20
-25.2103
 30
0
 70
     0
  0
VERTEX
  8
SCANIA_P114_CB_6
 10
-1.8722
 20
-25.3034
 30
0
 70
     0
  0
VERTEX
  8
SCANIA_P114_CB_6
 10
-1.7605
 20
-25.3914
 30
0
 70
     0
  0
VERTEX
  8
SCANIA_P114_CB_6
 10
-1.6447
 20
-25.474
 30
0
 70
     0
  0
VERTEX
  8
SCANIA_P114_CB_6
 10
-1.5248
 20
-25.5512
 30
0
 70
     0
  0
VERTEX
  8
SCANIA_P114_CB_6
 10
-1.4012
 20
-25.6226
 30
0
 70
     0
  0
VERTEX
  8
SCANIA_P114_CB_6
 10
-1.2739
 20
-25.6882
 30
0
 70
     0
  0
VERTEX
  8
SCANIA_P114_CB_6
 10
-1.1433
 20
-25.7476
 30
0
 70
     0
  0
VERTEX
  8
SCANIA_P114_CB_6
 10
-1.0094
 20
-25.8008
 30
0
 70
     0
  0
VERTEX
  8
SCANIA_P114_CB_6
 10
-0.8725
 20
-25.8475
 30
0
 70
     0
  0
VERTEX
  8
SCANIA_P114_CB_6
 10
-0.7328
 20
-25.8876
 30
0
 70
     0
  0
VERTEX
  8
SCANIA_P114_CB_6
 10
-0.5905
 20
-25.9208
 30
0
 70
     0
  0
VERTEX
  8
SCANIA_P114_CB_6
 10
-0.4457
 20
-25.9469
 30
0
 70
     0
  0
VERTEX
  8
SCANIA_P114_CB_6
 10
-0.2986
 20
-25.9658
 30
0
 70
     0
  0
VERTEX
  8
SCANIA_P114_CB_6
 10
-0.1495
 20
-25.9773
 30
0
 70
     0
  0
VERTEX
  8
SCANIA_P114_CB_6
 10
0.0015
 20
-25.9812
 30
0
 70
     0
  0
VERTEX
  8
SCANIA_P114_CB_6
 10
0.0015
 20
-25.9812
 30
0
 70
     0
  0
VERTEX
  8
SCANIA_P114_CB_6
 10
0.1524
 20
-25.9773
 30
0
 70
     0
  0
VERTEX
  8
SCANIA_P114_CB_6
 10
0.3016
 20
-25.9658
 30
0
 70
     0
  0
VERTEX
  8
SCANIA_P114_CB_6
 10
0.4486
 20
-25.9469
 30
0
 70
     0
  0
VERTEX
  8
SCANIA_P114_CB_6
 10
0.5934
 20
-25.9208
 30
0
 70
     0
  0
VERTEX
  8
SCANIA_P114_CB_6
 10
0.7357
 20
-25.8876
 30
0
 70
     0
  0
VERTEX
  8
SCANIA_P114_CB_6
 10
0.8755
 20
-25.8475
 30
0
 70
     0
  0
VERTEX
  8
SCANIA_P114_CB_6
 10
1.0123
 20
-25.8008
 30
0
 70
     0
  0
VERTEX
  8
SCANIA_P114_CB_6
 10
1.1462
 20
-25.7476
 30
0
 70
     0
  0
VERTEX
  8
SCANIA_P114_CB_6
 10
1.2768
 20
-25.6882
 30
0
 70
     0
  0
VERTEX
  8
SCANIA_P114_CB_6
 10
1.4041
 20
-25.6226
 30
0
 70
     0
  0
VERTEX
  8
SCANIA_P114_CB_6
 10
1.5277
 20
-25.5512
 30
0
 70
     0
  0
VERTEX
  8
SCANIA_P114_CB_6
 10
1.6476
 20
-25.474
 30
0
 70
     0
  0
VERTEX
  8
SCANIA_P114_CB_6
 10
1.7634
 20
-25.3914
 30
0
 70
     0
  0
VERTEX
  8
SCANIA_P114_CB_6
 10
1.8751
 20
-25.3034
 30
0
 70
     0
  0
VERTEX
  8
SCANIA_P114_CB_6
 10
1.9825
 20
-25.2103
 30
0
 70
     0
  0
VERTEX
  8
SCANIA_P114_CB_6
 10
2.0853
 20
-25.1123
 30
0
 70
     0
  0
VERTEX
  8
SCANIA_P114_CB_6
 10
2.1833
 20
-25.0095
 30
0
 70
     0
  0
VERTEX
  8
SCANIA_P114_CB_6
 10
2.2764
 20
-24.9021
 30
0
 70
     0
  0
VERTEX
  8
SCANIA_P114_CB_6
 10
2.3644
 20
-24.7904
 30
0
 70
     0
  0
VERTEX
  8
SCANIA_P114_CB_6
 10
2.447
 20
-24.6746
 30
0
 70
     0
  0
VERTEX
  8
SCANIA_P114_CB_6
 10
2.5242
 20
-24.5547
 30
0
 70
     0
  0
VERTEX
  8
SCANIA_P114_CB_6
 10
2.5956
 20
-24.4311
 30
0
 70
     0
  0
VERTEX
  8
SCANIA_P114_CB_6
 10
2.6612
 20
-24.3038
 30
0
 70
     0
  0
VERTEX
  8
SCANIA_P114_CB_6
 10
2.7206
 20
-24.1732
 30
0
 70
     0
  0
VERTEX
  8
SCANIA_P114_CB_6
 10
2.7738
 20
-24.0393
 30
0
 70
     0
  0
VERTEX
  8
SCANIA_P114_CB_6
 10
2.8205
 20
-23.9024
 30
0
 70
     0
  0
VERTEX
  8
SCANIA_P114_CB_6
 10
2.8606
 20
-23.7627
 30
0
 70
     0
  0
VERTEX
  8
SCANIA_P114_CB_6
 10
2.8938
 20
-23.6204
 30
0
 70
     0
  0
VERTEX
  8
SCANIA_P114_CB_6
 10
2.9199
 20
-23.4756
 30
0
 70
     0
  0
VERTEX
  8
SCANIA_P114_CB_6
 10
2.9388
 20
-23.3285
 30
0
 70
     0
  0
VERTEX
  8
SCANIA_P114_CB_6
 10
2.9503
 20
-23.1794
 30
0
 70
     0
  0
VERTEX
  8
SCANIA_P114_CB_6
 10
2.9542
 20
-23.0284
 30
0
 70
     0
  0
SEQEND
  0
POLYLINE
  8
SCANIA_P114_CB_6
  6
CONTINUOUS
 62
     7
 66
     1
 40
0.0139
 41
0.0139
  0
VERTEX
  8
SCANIA_P114_CB_6
 10
9.3518
 20
-23.0284
 30
0
 70
     0
  0
VERTEX
  8
SCANIA_P114_CB_6
 10
9.3488
 20
-22.7887
 30
0
 70
     0
  0
VERTEX
  8
SCANIA_P114_CB_6
 10
9.3396
 20
-22.5503
 30
0
 70
     0
  0
VERTEX
  8
SCANIA_P114_CB_6
 10
9.3244
 20
-22.3134
 30
0
 70
     0
  0
VERTEX
  8
SCANIA_P114_CB_6
 10
9.3032
 20
-22.0781
 30
0
 70
     0
  0
VERTEX
  8
SCANIA_P114_CB_6
 10
9.2761
 20
-21.8444
 30
0
 70
     0
  0
VERTEX
  8
SCANIA_P114_CB_6
 10
9.2433
 20
-21.6125
 30
0
 70
     0
  0
VERTEX
  8
SCANIA_P114_CB_6
 10
9.2047
 20
-21.3823
 30
0
 70
     0
  0
VERTEX
  8
SCANIA_P114_CB_6
 10
9.1605
 20
-21.154
 30
0
 70
     0
  0
VERTEX
  8
SCANIA_P114_CB_6
 10
9.1106
 20
-20.9276
 30
0
 70
     0
  0
VERTEX
  8
SCANIA_P114_CB_6
 10
9.0553
 20
-20.7032
 30
0
 70
     0
  0
VERTEX
  8
SCANIA_P114_CB_6
 10
8.9946
 20
-20.4809
 30
0
 70
     0
  0
VERTEX
  8
SCANIA_P114_CB_6
 10
8.9285
 20
-20.2608
 30
0
 70
     0
  0
VERTEX
  8
SCANIA_P114_CB_6
 10
8.8571
 20
-20.0429
 30
0
 70
     0
  0
VERTEX
  8
SCANIA_P114_CB_6
 10
8.7806
 20
-19.8273
 30
0
 70
     0
  0
VERTEX
  8
SCANIA_P114_CB_6
 10
8.6989
 20
-19.6142
 30
0
 70
     0
  0
VERTEX
  8
SCANIA_P114_CB_6
 10
8.6122
 20
-19.4035
 30
0
 70
     0
  0
VERTEX
  8
SCANIA_P114_CB_6
 10
8.4239
 20
-18.9897
 30
0
 70
     0
  0
VERTEX
  8
SCANIA_P114_CB_6
 10
8.2163
 20
-18.5868
 30
0
 70
     0
  0
VERTEX
  8
SCANIA_P114_CB_6
 10
7.9901
 20
-18.1953
 30
0
 70
     0
  0
VERTEX
  8
SCANIA_P114_CB_6
 10
7.7458
 20
-17.8158
 30
0
 70
     0
  0
VERTEX
  8
SCANIA_P114_CB_6
 10
7.4841
 20
-17.4488
 30
0
 70
     0
  0
VERTEX
  8
SCANIA_P114_CB_6
 10
7.2055
 20
-17.0951
 30
0
 70
     0
  0
VERTEX
  8
SCANIA_P114_CB_6
 10
6.9107
 20
-16.7552
 30
0
 70
     0
  0
VERTEX
  8
SCANIA_P114_CB_6
 10
6.6002
 20
-16.4297
 30
0
 70
     0
  0
VERTEX
  8
SCANIA_P114_CB_6
 10
6.2747
 20
-16.1192
 30
0
 70
     0
  0
VERTEX
  8
SCANIA_P114_CB_6
 10
5.9348
 20
-15.8244
 30
0
 70
     0
  0
VERTEX
  8
SCANIA_P114_CB_6
 10
5.5811
 20
-15.5458
 30
0
 70
     0
  0
VERTEX
  8
SCANIA_P114_CB_6
 10
5.2141
 20
-15.2841
 30
0
 70
     0
  0
VERTEX
  8
SCANIA_P114_CB_6
 10
4.8346
 20
-15.0398
 30
0
 70
     0
  0
VERTEX
  8
SCANIA_P114_CB_6
 10
4.4431
 20
-14.8136
 30
0
 70
     0
  0
VERTEX
  8
SCANIA_P114_CB_6
 10
4.0402
 20
-14.606
 30
0
 70
     0
  0
VERTEX
  8
SCANIA_P114_CB_6
 10
3.6265
 20
-14.4177
 30
0
 70
     0
  0
VERTEX
  8
SCANIA_P114_CB_6
 10
3.4157
 20
-14.331
 30
0
 70
     0
  0
VERTEX
  8
SCANIA_P114_CB_6
 10
3.2026
 20
-14.2493
 30
0
 70
     0
  0
VERTEX
  8
SCANIA_P114_CB_6
 10
2.987
 20
-14.1728
 30
0
 70
     0
  0
VERTEX
  8
SCANIA_P114_CB_6
 10
2.7691
 20
-14.1014
 30
0
 70
     0
  0
VERTEX
  8
SCANIA_P114_CB_6
 10
2.549
 20
-14.0353
 30
0
 70
     0
  0
VERTEX
  8
SCANIA_P114_CB_6
 10
2.3267
 20
-13.9746
 30
0
 70
     0
  0
VERTEX
  8
SCANIA_P114_CB_6
 10
2.1023
 20
-13.9193
 30
0
 70
     0
  0
VERTEX
  8
SCANIA_P114_CB_6
 10
1.876
 20
-13.8694
 30
0
 70
     0
  0
VERTEX
  8
SCANIA_P114_CB_6
 10
1.6476
 20
-13.8252
 30
0
 70
     0
  0
VERTEX
  8
SCANIA_P114_CB_6
 10
1.4174
 20
-13.7866
 30
0
 70
     0
  0
VERTEX
  8
SCANIA_P114_CB_6
 10
1.1855
 20
-13.7538
 30
0
 70
     0
  0
VERTEX
  8
SCANIA_P114_CB_6
 10
0.9518
 20
-13.7267
 30
0
 70
     0
  0
VERTEX
  8
SCANIA_P114_CB_6
 10
0.7165
 20
-13.7055
 30
0
 70
     0
  0
VERTEX
  8
SCANIA_P114_CB_6
 10
0.4796
 20
-13.6903
 30
0
 70
     0
  0
VERTEX
  8
SCANIA_P114_CB_6
 10
0.2412
 20
-13.6811
 30
0
 70
     0
  0
VERTEX
  8
SCANIA_P114_CB_6
 10
0.0015
 20
-13.6781
 30
0
 70
     0
  0
VERTEX
  8
SCANIA_P114_CB_6
 10
0.0015
 20
-13.6781
 30
0
 70
     0
  0
VERTEX
  8
SCANIA_P114_CB_6
 10
-0.2383
 20
-13.6811
 30
0
 70
     0
  0
VERTEX
  8
SCANIA_P114_CB_6
 10
-0.4767
 20
-13.6903
 30
0
 70
     0
  0
VERTEX
  8
SCANIA_P114_CB_6
 10
-0.7135
 20
-13.7055
 30
0
 70
     0
  0
VERTEX
  8
SCANIA_P114_CB_6
 10
-0.9489
 20
-13.7267
 30
0
 70
     0
  0
VERTEX
  8
SCANIA_P114_CB_6
 10
-1.1825
 20
-13.7538
 30
0
 70
     0
  0
VERTEX
  8
SCANIA_P114_CB_6
 10
-1.4145
 20
-13.7866
 30
0
 70
     0
  0
VERTEX
  8
SCANIA_P114_CB_6
 10
-1.6447
 20
-13.8252
 30
0
 70
     0
  0
VERTEX
  8
SCANIA_P114_CB_6
 10
-1.873
 20
-13.8694
 30
0
 70
     0
  0
VERTEX
  8
SCANIA_P114_CB_6
 10
-2.0994
 20
-13.9193
 30
0
 70
     0
  0
VERTEX
  8
SCANIA_P114_CB_6
 10
-2.3238
 20
-13.9746
 30
0
 70
     0
  0
VERTEX
  8
SCANIA_P114_CB_6
 10
-2.5461
 20
-14.0353
 30
0
 70
     0
  0
VERTEX
  8
SCANIA_P114_CB_6
 10
-2.7662
 20
-14.1014
 30
0
 70
     0
  0
VERTEX
  8
SCANIA_P114_CB_6
 10
-2.9841
 20
-14.1728
 30
0
 70
     0
  0
VERTEX
  8
SCANIA_P114_CB_6
 10
-3.1997
 20
-14.2493
 30
0
 70
     0
  0
VERTEX
  8
SCANIA_P114_CB_6
 10
-3.4128
 20
-14.331
 30
0
 70
     0
  0
VERTEX
  8
SCANIA_P114_CB_6
 10
-3.6235
 20
-14.4177
 30
0
 70
     0
  0
VERTEX
  8
SCANIA_P114_CB_6
 10
-4.0372
 20
-14.606
 30
0
 70
     0
  0
VERTEX
  8
SCANIA_P114_CB_6
 10
-4.4402
 20
-14.8136
 30
0
 70
     0
  0
VERTEX
  8
SCANIA_P114_CB_6
 10
-4.8317
 20
-15.0398
 30
0
 70
     0
  0
VERTEX
  8
SCANIA_P114_CB_6
 10
-5.2112
 20
-15.2841
 30
0
 70
     0
  0
VERTEX
  8
SCANIA_P114_CB_6
 10
-5.5782
 20
-15.5458
 30
0
 70
     0
  0
VERTEX
  8
SCANIA_P114_CB_6
 10
-5.9319
 20
-15.8244
 30
0
 70
     0
  0
VERTEX
  8
SCANIA_P114_CB_6
 10
-6.2718
 20
-16.1192
 30
0
 70
     0
  0
VERTEX
  8
SCANIA_P114_CB_6
 10
-6.5973
 20
-16.4297
 30
0
 70
     0
  0
VERTEX
  8
SCANIA_P114_CB_6
 10
-6.9078
 20
-16.7552
 30
0
 70
     0
  0
VERTEX
  8
SCANIA_P114_CB_6
 10
-7.2026
 20
-17.0951
 30
0
 70
     0
  0
VERTEX
  8
SCANIA_P114_CB_6
 10
-7.4812
 20
-17.4488
 30
0
 70
     0
  0
VERTEX
  8
SCANIA_P114_CB_6
 10
-7.7429
 20
-17.8158
 30
0
 70
     0
  0
VERTEX
  8
SCANIA_P114_CB_6
 10
-7.9872
 20
-18.1953
 30
0
 70
     0
  0
VERTEX
  8
SCANIA_P114_CB_6
 10
-8.2134
 20
-18.5868
 30
0
 70
     0
  0
VERTEX
  8
SCANIA_P114_CB_6
 10
-8.421
 20
-18.9897
 30
0
 70
     0
  0
VERTEX
  8
SCANIA_P114_CB_6
 10
-8.6093
 20
-19.4035
 30
0
 70
     0
  0
VERTEX
  8
SCANIA_P114_CB_6
 10
-8.696
 20
-19.6142
 30
0
 70
     0
  0
VERTEX
  8
SCANIA_P114_CB_6
 10
-8.7777
 20
-19.8273
 30
0
 70
     0
  0
VERTEX
  8
SCANIA_P114_CB_6
 10
-8.8542
 20
-20.0429
 30
0
 70
     0
  0
VERTEX
  8
SCANIA_P114_CB_6
 10
-8.9256
 20
-20.2608
 30
0
 70
     0
  0
VERTEX
  8
SCANIA_P114_CB_6
 10
-8.9917
 20
-20.4809
 30
0
 70
     0
  0
VERTEX
  8
SCANIA_P114_CB_6
 10
-9.0524
 20
-20.7032
 30
0
 70
     0
  0
VERTEX
  8
SCANIA_P114_CB_6
 10
-9.1077
 20
-20.9276
 30
0
 70
     0
  0
VERTEX
  8
SCANIA_P114_CB_6
 10
-9.1576
 20
-21.154
 30
0
 70
     0
  0
VERTEX
  8
SCANIA_P114_CB_6
 10
-9.2018
 20
-21.3823
 30
0
 70
     0
  0
VERTEX
  8
SCANIA_P114_CB_6
 10
-9.2404
 20
-21.6125
 30
0
 70
     0
  0
VERTEX
  8
SCANIA_P114_CB_6
 10
-9.2732
 20
-21.8444
 30
0
 70
     0
  0
VERTEX
  8
SCANIA_P114_CB_6
 10
-9.3003
 20
-22.0781
 30
0
 70
     0
  0
VERTEX
  8
SCANIA_P114_CB_6
 10
-9.3215
 20
-22.3134
 30
0
 70
     0
  0
VERTEX
  8
SCANIA_P114_CB_6
 10
-9.3367
 20
-22.5503
 30
0
 70
     0
  0
VERTEX
  8
SCANIA_P114_CB_6
 10
-9.3459
 20
-22.7887
 30
0
 70
     0
  0
VERTEX
  8
SCANIA_P114_CB_6
 10
-9.3489
 20
-23.0284
 30
0
 70
     0
  0
VERTEX
  8
SCANIA_P114_CB_6
 10
-9.3489
 20
-23.0284
 30
0
 70
     0
  0
VERTEX
  8
SCANIA_P114_CB_6
 10
-9.3459
 20
-23.2682
 30
0
 70
     0
  0
VERTEX
  8
SCANIA_P114_CB_6
 10
-9.3367
 20
-23.5066
 30
0
 70
     0
  0
VERTEX
  8
SCANIA_P114_CB_6
 10
-9.3215
 20
-23.7434
 30
0
 70
     0
  0
VERTEX
  8
SCANIA_P114_CB_6
 10
-9.3003
 20
-23.9788
 30
0
 70
     0
  0
VERTEX
  8
SCANIA_P114_CB_6
 10
-9.2732
 20
-24.2125
 30
0
 70
     0
  0
VERTEX
  8
SCANIA_P114_CB_6
 10
-9.2404
 20
-24.4444
 30
0
 70
     0
  0
VERTEX
  8
SCANIA_P114_CB_6
 10
-9.2018
 20
-24.6746
 30
0
 70
     0
  0
VERTEX
  8
SCANIA_P114_CB_6
 10
-9.1576
 20
-24.9029
 30
0
 70
     0
  0
VERTEX
  8
SCANIA_P114_CB_6
 10
-9.1077
 20
-25.1293
 30
0
 70
     0
  0
VERTEX
  8
SCANIA_P114_CB_6
 10
-9.0524
 20
-25.3537
 30
0
 70
     0
  0
VERTEX
  8
SCANIA_P114_CB_6
 10
-8.9917
 20
-25.576
 30
0
 70
     0
  0
VERTEX
  8
SCANIA_P114_CB_6
 10
-8.9256
 20
-25.7961
 30
0
 70
     0
  0
VERTEX
  8
SCANIA_P114_CB_6
 10
-8.8542
 20
-26.014
 30
0
 70
     0
  0
VERTEX
  8
SCANIA_P114_CB_6
 10
-8.7777
 20
-26.2296
 30
0
 70
     0
  0
VERTEX
  8
SCANIA_P114_CB_6
 10
-8.696
 20
-26.4427
 30
0
 70
     0
  0
VERTEX
  8
SCANIA_P114_CB_6
 10
-8.6093
 20
-26.6534
 30
0
 70
     0
  0
VERTEX
  8
SCANIA_P114_CB_6
 10
-8.421
 20
-27.0671
 30
0
 70
     0
  0
VERTEX
  8
SCANIA_P114_CB_6
 10
-8.2134
 20
-27.4701
 30
0
 70
     0
  0
VERTEX
  8
SCANIA_P114_CB_6
 10
-7.9872
 20
-27.8616
 30
0
 70
     0
  0
VERTEX
  8
SCANIA_P114_CB_6
 10
-7.7429
 20
-28.2411
 30
0
 70
     0
  0
VERTEX
  8
SCANIA_P114_CB_6
 10
-7.4812
 20
-28.6081
 30
0
 70
     0
  0
VERTEX
  8
SCANIA_P114_CB_6
 10
-7.2026
 20
-28.9618
 30
0
 70
     0
  0
VERTEX
  8
SCANIA_P114_CB_6
 10
-6.9078
 20
-29.3017
 30
0
 70
     0
  0
VERTEX
  8
SCANIA_P114_CB_6
 10
-6.5973
 20
-29.6272
 30
0
 70
     0
  0
VERTEX
  8
SCANIA_P114_CB_6
 10
-6.2718
 20
-29.9377
 30
0
 70
     0
  0
VERTEX
  8
SCANIA_P114_CB_6
 10
-5.9319
 20
-30.2325
 30
0
 70
     0
  0
VERTEX
  8
SCANIA_P114_CB_6
 10
-5.5782
 20
-30.5111
 30
0
 70
     0
  0
VERTEX
  8
SCANIA_P114_CB_6
 10
-5.2112
 20
-30.7728
 30
0
 70
     0
  0
VERTEX
  8
SCANIA_P114_CB_6
 10
-4.8317
 20
-31.0171
 30
0
 70
     0
  0
VERTEX
  8
SCANIA_P114_CB_6
 10
-4.4402
 20
-31.2433
 30
0
 70
     0
  0
VERTEX
  8
SCANIA_P114_CB_6
 10
-4.0372
 20
-31.4509
 30
0
 70
     0
  0
VERTEX
  8
SCANIA_P114_CB_6
 10
-3.6235
 20
-31.6392
 30
0
 70
     0
  0
VERTEX
  8
SCANIA_P114_CB_6
 10
-3.4128
 20
-31.7259
 30
0
 70
     0
  0
VERTEX
  8
SCANIA_P114_CB_6
 10
-3.1997
 20
-31.8076
 30
0
 70
     0
  0
VERTEX
  8
SCANIA_P114_CB_6
 10
-2.9841
 20
-31.8841
 30
0
 70
     0
  0
VERTEX
  8
SCANIA_P114_CB_6
 10
-2.7662
 20
-31.9555
 30
0
 70
     0
  0
VERTEX
  8
SCANIA_P114_CB_6
 10
-2.5461
 20
-32.0216
 30
0
 70
     0
  0
VERTEX
  8
SCANIA_P114_CB_6
 10
-2.3238
 20
-32.0823
 30
0
 70
     0
  0
VERTEX
  8
SCANIA_P114_CB_6
 10
-2.0994
 20
-32.1376
 30
0
 70
     0
  0
VERTEX
  8
SCANIA_P114_CB_6
 10
-1.873
 20
-32.1875
 30
0
 70
     0
  0
VERTEX
  8
SCANIA_P114_CB_6
 10
-1.6447
 20
-32.2317
 30
0
 70
     0
  0
VERTEX
  8
SCANIA_P114_CB_6
 10
-1.4145
 20
-32.2703
 30
0
 70
     0
  0
VERTEX
  8
SCANIA_P114_CB_6
 10
-1.1825
 20
-32.3031
 30
0
 70
     0
  0
VERTEX
  8
SCANIA_P114_CB_6
 10
-0.9489
 20
-32.3302
 30
0
 70
     0
  0
VERTEX
  8
SCANIA_P114_CB_6
 10
-0.7135
 20
-32.3514
 30
0
 70
     0
  0
VERTEX
  8
SCANIA_P114_CB_6
 10
-0.4767
 20
-32.3666
 30
0
 70
     0
  0
VERTEX
  8
SCANIA_P114_CB_6
 10
-0.2383
 20
-32.3758
 30
0
 70
     0
  0
VERTEX
  8
SCANIA_P114_CB_6
 10
0.0015
 20
-32.3788
 30
0
 70
     0
  0
VERTEX
  8
SCANIA_P114_CB_6
 10
0.0015
 20
-32.3788
 30
0
 70
     0
  0
VERTEX
  8
SCANIA_P114_CB_6
 10
0.2412
 20
-32.3758
 30
0
 70
     0
  0
VERTEX
  8
SCANIA_P114_CB_6
 10
0.4796
 20
-32.3666
 30
0
 70
     0
  0
VERTEX
  8
SCANIA_P114_CB_6
 10
0.7165
 20
-32.3514
 30
0
 70
     0
  0
VERTEX
  8
SCANIA_P114_CB_6
 10
0.9518
 20
-32.3302
 30
0
 70
     0
  0
VERTEX
  8
SCANIA_P114_CB_6
 10
1.1855
 20
-32.3031
 30
0
 70
     0
  0
VERTEX
  8
SCANIA_P114_CB_6
 10
1.4174
 20
-32.2703
 30
0
 70
     0
  0
VERTEX
  8
SCANIA_P114_CB_6
 10
1.6476
 20
-32.2317
 30
0
 70
     0
  0
VERTEX
  8
SCANIA_P114_CB_6
 10
1.876
 20
-32.1875
 30
0
 70
     0
  0
VERTEX
  8
SCANIA_P114_CB_6
 10
2.1023
 20
-32.1376
 30
0
 70
     0
  0
VERTEX
  8
SCANIA_P114_CB_6
 10
2.3267
 20
-32.0823
 30
0
 70
     0
  0
VERTEX
  8
SCANIA_P114_CB_6
 10
2.549
 20
-32.0216
 30
0
 70
     0
  0
VERTEX
  8
SCANIA_P114_CB_6
 10
2.7691
 20
-31.9555
 30
0
 70
     0
  0
VERTEX
  8
SCANIA_P114_CB_6
 10
2.987
 20
-31.8841
 30
0
 70
     0
  0
VERTEX
  8
SCANIA_P114_CB_6
 10
3.2026
 20
-31.8076
 30
0
 70
     0
  0
VERTEX
  8
SCANIA_P114_CB_6
 10
3.4157
 20
-31.7259
 30
0
 70
     0
  0
VERTEX
  8
SCANIA_P114_CB_6
 10
3.6265
 20
-31.6392
 30
0
 70
     0
  0
VERTEX
  8
SCANIA_P114_CB_6
 10
4.0402
 20
-31.4509
 30
0
 70
     0
  0
VERTEX
  8
SCANIA_P114_CB_6
 10
4.4431
 20
-31.2433
 30
0
 70
     0
  0
VERTEX
  8
SCANIA_P114_CB_6
 10
4.8346
 20
-31.0171
 30
0
 70
     0
  0
VERTEX
  8
SCANIA_P114_CB_6
 10
5.2141
 20
-30.7728
 30
0
 70
     0
  0
VERTEX
  8
SCANIA_P114_CB_6
 10
5.5811
 20
-30.5111
 30
0
 70
     0
  0
VERTEX
  8
SCANIA_P114_CB_6
 10
5.9348
 20
-30.2325
 30
0
 70
     0
  0
VERTEX
  8
SCANIA_P114_CB_6
 10
6.2747
 20
-29.9377
 30
0
 70
     0
  0
VERTEX
  8
SCANIA_P114_CB_6
 10
6.6002
 20
-29.6272
 30
0
 70
     0
  0
VERTEX
  8
SCANIA_P114_CB_6
 10
6.9107
 20
-29.3017
 30
0
 70
     0
  0
VERTEX
  8
SCANIA_P114_CB_6
 10
7.2055
 20
-28.9618
 30
0
 70
     0
  0
VERTEX
  8
SCANIA_P114_CB_6
 10
7.4841
 20
-28.6081
 30
0
 70
     0
  0
VERTEX
  8
SCANIA_P114_CB_6
 10
7.7458
 20
-28.2411
 30
0
 70
     0
  0
VERTEX
  8
SCANIA_P114_CB_6
 10
7.9901
 20
-27.8616
 30
0
 70
     0
  0
VERTEX
  8
SCANIA_P114_CB_6
 10
8.2163
 20
-27.4701
 30
0
 70
     0
  0
VERTEX
  8
SCANIA_P114_CB_6
 10
8.4239
 20
-27.0671
 30
0
 70
     0
  0
VERTEX
  8
SCANIA_P114_CB_6
 10
8.6122
 20
-26.6534
 30
0
 70
     0
  0
VERTEX
  8
SCANIA_P114_CB_6
 10
8.6989
 20
-26.4427
 30
0
 70
     0
  0
VERTEX
  8
SCANIA_P114_CB_6
 10
8.7806
 20
-26.2296
 30
0
 70
     0
  0
VERTEX
  8
SCANIA_P114_CB_6
 10
8.8571
 20
-26.014
 30
0
 70
     0
  0
VERTEX
  8
SCANIA_P114_CB_6
 10
8.9285
 20
-25.7961
 30
0
 70
     0
  0
VERTEX
  8
SCANIA_P114_CB_6
 10
8.9946
 20
-25.576
 30
0
 70
     0
  0
VERTEX
  8
SCANIA_P114_CB_6
 10
9.0553
 20
-25.3537
 30
0
 70
     0
  0
VERTEX
  8
SCANIA_P114_CB_6
 10
9.1106
 20
-25.1293
 30
0
 70
     0
  0
VERTEX
  8
SCANIA_P114_CB_6
 10
9.1605
 20
-24.9029
 30
0
 70
     0
  0
VERTEX
  8
SCANIA_P114_CB_6
 10
9.2047
 20
-24.6746
 30
0
 70
     0
  0
VERTEX
  8
SCANIA_P114_CB_6
 10
9.2433
 20
-24.4444
 30
0
 70
     0
  0
VERTEX
  8
SCANIA_P114_CB_6
 10
9.2761
 20
-24.2125
 30
0
 70
     0
  0
VERTEX
  8
SCANIA_P114_CB_6
 10
9.3032
 20
-23.9788
 30
0
 70
     0
  0
VERTEX
  8
SCANIA_P114_CB_6
 10
9.3244
 20
-23.7434
 30
0
 70
     0
  0
VERTEX
  8
SCANIA_P114_CB_6
 10
9.3396
 20
-23.5066
 30
0
 70
     0
  0
VERTEX
  8
SCANIA_P114_CB_6
 10
9.3488
 20
-23.2682
 30
0
 70
     0
  0
VERTEX
  8
SCANIA_P114_CB_6
 10
9.3518
 20
-23.0284
 30
0
 70
     0
  0
SEQEND
  0
POLYLINE
  8
SCANIA_P114_CB_6
  6
CONTINUOUS
 62
     7
 66
     1
 40
0.0139
 41
0.0139
  0
VERTEX
  8
SCANIA_P114_CB_6
 10
11.2515
 20
-23.0284
 30
0
 70
     0
  0
VERTEX
  8
SCANIA_P114_CB_6
 10
11.2478
 20
-22.74
 30
0
 70
     0
  0
VERTEX
  8
SCANIA_P114_CB_6
 10
11.2367
 20
-22.4532
 30
0
 70
     0
  0
VERTEX
  8
SCANIA_P114_CB_6
 10
11.2184
 20
-22.1682
 30
0
 70
     0
  0
VERTEX
  8
SCANIA_P114_CB_6
 10
11.1929
 20
-21.8851
 30
0
 70
     0
  0
VERTEX
  8
SCANIA_P114_CB_6
 10
11.1604
 20
-21.6039
 30
0
 70
     0
  0
VERTEX
  8
SCANIA_P114_CB_6
 10
11.1208
 20
-21.3248
 30
0
 70
     0
  0
VERTEX
  8
SCANIA_P114_CB_6
 10
11.0744
 20
-21.0478
 30
0
 70
     0
  0
VERTEX
  8
SCANIA_P114_CB_6
 10
11.0212
 20
-20.7731
 30
0
 70
     0
  0
VERTEX
  8
SCANIA_P114_CB_6
 10
10.9613
 20
-20.5008
 30
0
 70
     0
  0
VERTEX
  8
SCANIA_P114_CB_6
 10
10.8947
 20
-20.2308
 30
0
 70
     0
  0
VERTEX
  8
SCANIA_P114_CB_6
 10
10.8216
 20
-19.9633
 30
0
 70
     0
  0
VERTEX
  8
SCANIA_P114_CB_6
 10
10.7421
 20
-19.6985
 30
0
 70
     0
  0
VERTEX
  8
SCANIA_P114_CB_6
 10
10.6563
 20
-19.4364
 30
0
 70
     0
  0
VERTEX
  8
SCANIA_P114_CB_6
 10
10.5641
 20
-19.177
 30
0
 70
     0
  0
VERTEX
  8
SCANIA_P114_CB_6
 10
10.4659
 20
-18.9205
 30
0
 70
     0
  0
VERTEX
  8
SCANIA_P114_CB_6
 10
10.3615
 20
-18.667
 30
0
 70
     0
  0
VERTEX
  8
SCANIA_P114_CB_6
 10
10.2512
 20
-18.4166
 30
0
 70
     0
  0
VERTEX
  8
SCANIA_P114_CB_6
 10
10.135
 20
-18.1693
 30
0
 70
     0
  0
VERTEX
  8
SCANIA_P114_CB_6
 10
10.013
 20
-17.9252
 30
0
 70
     0
  0
VERTEX
  8
SCANIA_P114_CB_6
 10
9.8853
 20
-17.6845
 30
0
 70
     0
  0
VERTEX
  8
SCANIA_P114_CB_6
 10
9.7519
 20
-17.4472
 30
0
 70
     0
  0
VERTEX
  8
SCANIA_P114_CB_6
 10
9.6131
 20
-17.2134
 30
0
 70
     0
  0
VERTEX
  8
SCANIA_P114_CB_6
 10
9.4688
 20
-16.9832
 30
0
 70
     0
  0
VERTEX
  8
SCANIA_P114_CB_6
 10
9.3192
 20
-16.7568
 30
0
 70
     0
  0
VERTEX
  8
SCANIA_P114_CB_6
 10
9.1643
 20
-16.5341
 30
0
 70
     0
  0
VERTEX
  8
SCANIA_P114_CB_6
 10
9.0042
 20
-16.3153
 30
0
 70
     0
  0
VERTEX
  8
SCANIA_P114_CB_6
 10
8.8391
 20
-16.1005
 30
0
 70
     0
  0
VERTEX
  8
SCANIA_P114_CB_6
 10
8.6691
 20
-15.8897
 30
0
 70
     0
  0
VERTEX
  8
SCANIA_P114_CB_6
 10
8.3143
 20
-15.4807
 30
0
 70
     0
  0
VERTEX
  8
SCANIA_P114_CB_6
 10
7.9408
 20
-15.0891
 30
0
 70
     0
  0
VERTEX
  8
SCANIA_P114_CB_6
 10
7.5492
 20
-14.7156
 30
0
 70
     0
  0
VERTEX
  8
SCANIA_P114_CB_6
 10
7.1402
 20
-14.3608
 30
0
 70
     0
  0
VERTEX
  8
SCANIA_P114_CB_6
 10
6.9294
 20
-14.1908
 30
0
 70
     0
  0
VERTEX
  8
SCANIA_P114_CB_6
 10
6.7146
 20
-14.0257
 30
0
 70
     0
  0
VERTEX
  8
SCANIA_P114_CB_6
 10
6.4958
 20
-13.8656
 30
0
 70
     0
  0
VERTEX
  8
SCANIA_P114_CB_6
 10
6.2731
 20
-13.7107
 30
0
 70
     0
  0
VERTEX
  8
SCANIA_P114_CB_6
 10
6.0467
 20
-13.5611
 30
0
 70
     0
  0
VERTEX
  8
SCANIA_P114_CB_6
 10
5.8165
 20
-13.4168
 30
0
 70
     0
  0
VERTEX
  8
SCANIA_P114_CB_6
 10
5.5827
 20
-13.278
 30
0
 70
     0
  0
VERTEX
  8
SCANIA_P114_CB_6
 10
5.3454
 20
-13.1446
 30
0
 70
     0
  0
VERTEX
  8
SCANIA_P114_CB_6
 10
5.1047
 20
-13.0169
 30
0
 70
     0
  0
VERTEX
  8
SCANIA_P114_CB_6
 10
4.8606
 20
-12.8949
 30
0
 70
     0
  0
VERTEX
  8
SCANIA_P114_CB_6
 10
4.6133
 20
-12.7787
 30
0
 70
     0
  0
VERTEX
  8
SCANIA_P114_CB_6
 10
4.3629
 20
-12.6684
 30
0
 70
     0
  0
VERTEX
  8
SCANIA_P114_CB_6
 10
4.1094
 20
-12.564
 30
0
 70
     0
  0
VERTEX
  8
SCANIA_P114_CB_6
 10
3.8529
 20
-12.4658
 30
0
 70
     0
  0
VERTEX
  8
SCANIA_P114_CB_6
 10
3.5935
 20
-12.3737
 30
0
 70
     0
  0
VERTEX
  8
SCANIA_P114_CB_6
 10
3.3314
 20
-12.2878
 30
0
 70
     0
  0
VERTEX
  8
SCANIA_P114_CB_6
 10
3.0666
 20
-12.2083
 30
0
 70
     0
  0
VERTEX
  8
SCANIA_P114_CB_6
 10
2.7991
 20
-12.1352
 30
0
 70
     0
  0
VERTEX
  8
SCANIA_P114_CB_6
 10
2.5292
 20
-12.0686
 30
0
 70
     0
  0
VERTEX
  8
SCANIA_P114_CB_6
 10
2.2568
 20
-12.0087
 30
0
 70
     0
  0
VERTEX
  8
SCANIA_P114_CB_6
 10
1.9821
 20
-11.9555
 30
0
 70
     0
  0
VERTEX
  8
SCANIA_P114_CB_6
 10
1.7051
 20
-11.9091
 30
0
 70
     0
  0
VERTEX
  8
SCANIA_P114_CB_6
 10
1.426
 20
-11.8695
 30
0
 70
     0
  0
VERTEX
  8
SCANIA_P114_CB_6
 10
1.1448
 20
-11.837
 30
0
 70
     0
  0
VERTEX
  8
SCANIA_P114_CB_6
 10
0.8617
 20
-11.8115
 30
0
 70
     0
  0
VERTEX
  8
SCANIA_P114_CB_6
 10
0.5767
 20
-11.7932
 30
0
 70
     0
  0
VERTEX
  8
SCANIA_P114_CB_6
 10
0.2899
 20
-11.7822
 30
0
 70
     0
  0
VERTEX
  8
SCANIA_P114_CB_6
 10
0.0015
 20
-11.7784
 30
0
 70
     0
  0
VERTEX
  8
SCANIA_P114_CB_6
 10
0.0015
 20
-11.7784
 30
0
 70
     0
  0
VERTEX
  8
SCANIA_P114_CB_6
 10
-0.287
 20
-11.7822
 30
0
 70
     0
  0
VERTEX
  8
SCANIA_P114_CB_6
 10
-0.5738
 20
-11.7932
 30
0
 70
     0
  0
VERTEX
  8
SCANIA_P114_CB_6
 10
-0.8588
 20
-11.8115
 30
0
 70
     0
  0
VERTEX
  8
SCANIA_P114_CB_6
 10
-1.1419
 20
-11.837
 30
0
 70
     0
  0
VERTEX
  8
SCANIA_P114_CB_6
 10
-1.4231
 20
-11.8695
 30
0
 70
     0
  0
VERTEX
  8
SCANIA_P114_CB_6
 10
-1.7022
 20
-11.9091
 30
0
 70
     0
  0
VERTEX
  8
SCANIA_P114_CB_6
 10
-1.9791
 20
-11.9555
 30
0
 70
     0
  0
VERTEX
  8
SCANIA_P114_CB_6
 10
-2.2539
 20
-12.0087
 30
0
 70
     0
  0
VERTEX
  8
SCANIA_P114_CB_6
 10
-2.5262
 20
-12.0686
 30
0
 70
     0
  0
VERTEX
  8
SCANIA_P114_CB_6
 10
-2.7962
 20
-12.1352
 30
0
 70
     0
  0
VERTEX
  8
SCANIA_P114_CB_6
 10
-3.0636
 20
-12.2083
 30
0
 70
     0
  0
VERTEX
  8
SCANIA_P114_CB_6
 10
-3.3285
 20
-12.2878
 30
0
 70
     0
  0
VERTEX
  8
SCANIA_P114_CB_6
 10
-3.5906
 20
-12.3737
 30
0
 70
     0
  0
VERTEX
  8
SCANIA_P114_CB_6
 10
-3.85
 20
-12.4658
 30
0
 70
     0
  0
VERTEX
  8
SCANIA_P114_CB_6
 10
-4.1065
 20
-12.564
 30
0
 70
     0
  0
VERTEX
  8
SCANIA_P114_CB_6
 10
-4.36
 20
-12.6684
 30
0
 70
     0
  0
VERTEX
  8
SCANIA_P114_CB_6
 10
-4.6104
 20
-12.7787
 30
0
 70
     0
  0
VERTEX
  8
SCANIA_P114_CB_6
 10
-4.8577
 20
-12.8949
 30
0
 70
     0
  0
VERTEX
  8
SCANIA_P114_CB_6
 10
-5.1018
 20
-13.0169
 30
0
 70
     0
  0
VERTEX
  8
SCANIA_P114_CB_6
 10
-5.3425
 20
-13.1446
 30
0
 70
     0
  0
VERTEX
  8
SCANIA_P114_CB_6
 10
-5.5798
 20
-13.278
 30
0
 70
     0
  0
VERTEX
  8
SCANIA_P114_CB_6
 10
-5.8136
 20
-13.4168
 30
0
 70
     0
  0
VERTEX
  8
SCANIA_P114_CB_6
 10
-6.0438
 20
-13.5611
 30
0
 70
     0
  0
VERTEX
  8
SCANIA_P114_CB_6
 10
-6.2702
 20
-13.7107
 30
0
 70
     0
  0
VERTEX
  8
SCANIA_P114_CB_6
 10
-6.4929
 20
-13.8656
 30
0
 70
     0
  0
VERTEX
  8
SCANIA_P114_CB_6
 10
-6.7117
 20
-14.0257
 30
0
 70
     0
  0
VERTEX
  8
SCANIA_P114_CB_6
 10
-6.9265
 20
-14.1908
 30
0
 70
     0
  0
VERTEX
  8
SCANIA_P114_CB_6
 10
-7.1373
 20
-14.3608
 30
0
 70
     0
  0
VERTEX
  8
SCANIA_P114_CB_6
 10
-7.5463
 20
-14.7156
 30
0
 70
     0
  0
VERTEX
  8
SCANIA_P114_CB_6
 10
-7.9379
 20
-15.0891
 30
0
 70
     0
  0
VERTEX
  8
SCANIA_P114_CB_6
 10
-8.3114
 20
-15.4807
 30
0
 70
     0
  0
VERTEX
  8
SCANIA_P114_CB_6
 10
-8.6661
 20
-15.8897
 30
0
 70
     0
  0
VERTEX
  8
SCANIA_P114_CB_6
 10
-8.8362
 20
-16.1005
 30
0
 70
     0
  0
VERTEX
  8
SCANIA_P114_CB_6
 10
-9.0013
 20
-16.3153
 30
0
 70
     0
  0
VERTEX
  8
SCANIA_P114_CB_6
 10
-9.1614
 20
-16.5341
 30
0
 70
     0
  0
VERTEX
  8
SCANIA_P114_CB_6
 10
-9.3162
 20
-16.7568
 30
0
 70
     0
  0
VERTEX
  8
SCANIA_P114_CB_6
 10
-9.4659
 20
-16.9832
 30
0
 70
     0
  0
VERTEX
  8
SCANIA_P114_CB_6
 10
-9.6102
 20
-17.2134
 30
0
 70
     0
  0
VERTEX
  8
SCANIA_P114_CB_6
 10
-9.749
 20
-17.4472
 30
0
 70
     0
  0
VERTEX
  8
SCANIA_P114_CB_6
 10
-9.8823
 20
-17.6845
 30
0
 70
     0
  0
VERTEX
  8
SCANIA_P114_CB_6
 10
-10.0101
 20
-17.9252
 30
0
 70
     0
  0
VERTEX
  8
SCANIA_P114_CB_6
 10
-10.1321
 20
-18.1693
 30
0
 70
     0
  0
VERTEX
  8
SCANIA_P114_CB_6
 10
-10.2483
 20
-18.4166
 30
0
 70
     0
  0
VERTEX
  8
SCANIA_P114_CB_6
 10
-10.3586
 20
-18.667
 30
0
 70
     0
  0
VERTEX
  8
SCANIA_P114_CB_6
 10
-10.463
 20
-18.9205
 30
0
 70
     0
  0
VERTEX
  8
SCANIA_P114_CB_6
 10
-10.5612
 20
-19.177
 30
0
 70
     0
  0
VERTEX
  8
SCANIA_P114_CB_6
 10
-10.6533
 20
-19.4364
 30
0
 70
     0
  0
VERTEX
  8
SCANIA_P114_CB_6
 10
-10.7392
 20
-19.6985
 30
0
 70
     0
  0
VERTEX
  8
SCANIA_P114_CB_6
 10
-10.8187
 20
-19.9633
 30
0
 70
     0
  0
VERTEX
  8
SCANIA_P114_CB_6
 10
-10.8918
 20
-20.2308
 30
0
 70
     0
  0
VERTEX
  8
SCANIA_P114_CB_6
 10
-10.9583
 20
-20.5008
 30
0
 70
     0
  0
VERTEX
  8
SCANIA_P114_CB_6
 10
-11.0183
 20
-20.7731
 30
0
 70
     0
  0
VERTEX
  8
SCANIA_P114_CB_6
 10
-11.0715
 20
-21.0478
 30
0
 70
     0
  0
VERTEX
  8
SCANIA_P114_CB_6
 10
-11.1179
 20
-21.3248
 30
0
 70
     0
  0
VERTEX
  8
SCANIA_P114_CB_6
 10
-11.1575
 20
-21.6039
 30
0
 70
     0
  0
VERTEX
  8
SCANIA_P114_CB_6
 10
-11.19
 20
-21.8851
 30
0
 70
     0
  0
VERTEX
  8
SCANIA_P114_CB_6
 10
-11.2155
 20
-22.1682
 30
0
 70
     0
  0
VERTEX
  8
SCANIA_P114_CB_6
 10
-11.2338
 20
-22.4532
 30
0
 70
     0
  0
VERTEX
  8
SCANIA_P114_CB_6
 10
-11.2448
 20
-22.74
 30
0
 70
     0
  0
VERTEX
  8
SCANIA_P114_CB_6
 10
-11.2485
 20
-23.0284
 30
0
 70
     0
  0
VERTEX
  8
SCANIA_P114_CB_6
 10
-11.2485
 20
-23.0284
 30
0
 70
     0
  0
VERTEX
  8
SCANIA_P114_CB_6
 10
-11.2448
 20
-23.3169
 30
0
 70
     0
  0
VERTEX
  8
SCANIA_P114_CB_6
 10
-11.2338
 20
-23.6037
 30
0
 70
     0
  0
VERTEX
  8
SCANIA_P114_CB_6
 10
-11.2155
 20
-23.8887
 30
0
 70
     0
  0
VERTEX
  8
SCANIA_P114_CB_6
 10
-11.19
 20
-24.1718
 30
0
 70
     0
  0
VERTEX
  8
SCANIA_P114_CB_6
 10
-11.1575
 20
-24.453
 30
0
 70
     0
  0
VERTEX
  8
SCANIA_P114_CB_6
 10
-11.1179
 20
-24.7321
 30
0
 70
     0
  0
VERTEX
  8
SCANIA_P114_CB_6
 10
-11.0715
 20
-25.009
 30
0
 70
     0
  0
VERTEX
  8
SCANIA_P114_CB_6
 10
-11.0183
 20
-25.2838
 30
0
 70
     0
  0
VERTEX
  8
SCANIA_P114_CB_6
 10
-10.9583
 20
-25.5561
 30
0
 70
     0
  0
VERTEX
  8
SCANIA_P114_CB_6
 10
-10.8918
 20
-25.8261
 30
0
 70
     0
  0
VERTEX
  8
SCANIA_P114_CB_6
 10
-10.8187
 20
-26.0936
 30
0
 70
     0
  0
VERTEX
  8
SCANIA_P114_CB_6
 10
-10.7392
 20
-26.3584
 30
0
 70
     0
  0
VERTEX
  8
SCANIA_P114_CB_6
 10
-10.6533
 20
-26.6205
 30
0
 70
     0
  0
VERTEX
  8
SCANIA_P114_CB_6
 10
-10.5612
 20
-26.8799
 30
0
 70
     0
  0
VERTEX
  8
SCANIA_P114_CB_6
 10
-10.463
 20
-27.1364
 30
0
 70
     0
  0
VERTEX
  8
SCANIA_P114_CB_6
 10
-10.3586
 20
-27.3899
 30
0
 70
     0
  0
VERTEX
  8
SCANIA_P114_CB_6
 10
-10.2483
 20
-27.6403
 30
0
 70
     0
  0
VERTEX
  8
SCANIA_P114_CB_6
 10
-10.1321
 20
-27.8876
 30
0
 70
     0
  0
VERTEX
  8
SCANIA_P114_CB_6
 10
-10.0101
 20
-28.1317
 30
0
 70
     0
  0
VERTEX
  8
SCANIA_P114_CB_6
 10
-9.8823
 20
-28.3724
 30
0
 70
     0
  0
VERTEX
  8
SCANIA_P114_CB_6
 10
-9.749
 20
-28.6097
 30
0
 70
     0
  0
VERTEX
  8
SCANIA_P114_CB_6
 10
-9.6102
 20
-28.8435
 30
0
 70
     0
  0
VERTEX
  8
SCANIA_P114_CB_6
 10
-9.4659
 20
-29.0737
 30
0
 70
     0
  0
VERTEX
  8
SCANIA_P114_CB_6
 10
-9.3162
 20
-29.3001
 30
0
 70
     0
  0
VERTEX
  8
SCANIA_P114_CB_6
 10
-9.1614
 20
-29.5228
 30
0
 70
     0
  0
VERTEX
  8
SCANIA_P114_CB_6
 10
-9.0013
 20
-29.7416
 30
0
 70
     0
  0
VERTEX
  8
SCANIA_P114_CB_6
 10
-8.8362
 20
-29.9564
 30
0
 70
     0
  0
VERTEX
  8
SCANIA_P114_CB_6
 10
-8.6661
 20
-30.1672
 30
0
 70
     0
  0
VERTEX
  8
SCANIA_P114_CB_6
 10
-8.3114
 20
-30.5762
 30
0
 70
     0
  0
VERTEX
  8
SCANIA_P114_CB_6
 10
-7.9379
 20
-30.9678
 30
0
 70
     0
  0
VERTEX
  8
SCANIA_P114_CB_6
 10
-7.5463
 20
-31.3413
 30
0
 70
     0
  0
VERTEX
  8
SCANIA_P114_CB_6
 10
-7.1373
 20
-31.696
 30
0
 70
     0
  0
VERTEX
  8
SCANIA_P114_CB_6
 10
-6.9265
 20
-31.8661
 30
0
 70
     0
  0
VERTEX
  8
SCANIA_P114_CB_6
 10
-6.7117
 20
-32.0312
 30
0
 70
     0
  0
VERTEX
  8
SCANIA_P114_CB_6
 10
-6.4929
 20
-32.1913
 30
0
 70
     0
  0
VERTEX
  8
SCANIA_P114_CB_6
 10
-6.2702
 20
-32.3461
 30
0
 70
     0
  0
VERTEX
  8
SCANIA_P114_CB_6
 10
-6.0438
 20
-32.4958
 30
0
 70
     0
  0
VERTEX
  8
SCANIA_P114_CB_6
 10
-5.8136
 20
-32.6401
 30
0
 70
     0
  0
VERTEX
  8
SCANIA_P114_CB_6
 10
-5.5798
 20
-32.7789
 30
0
 70
     0
  0
VERTEX
  8
SCANIA_P114_CB_6
 10
-5.3425
 20
-32.9122
 30
0
 70
     0
  0
VERTEX
  8
SCANIA_P114_CB_6
 10
-5.1018
 20
-33.04
 30
0
 70
     0
  0
VERTEX
  8
SCANIA_P114_CB_6
 10
-4.8577
 20
-33.162
 30
0
 70
     0
  0
VERTEX
  8
SCANIA_P114_CB_6
 10
-4.6104
 20
-33.2782
 30
0
 70
     0
  0
VERTEX
  8
SCANIA_P114_CB_6
 10
-4.36
 20
-33.3885
 30
0
 70
     0
  0
VERTEX
  8
SCANIA_P114_CB_6
 10
-4.1065
 20
-33.4929
 30
0
 70
     0
  0
VERTEX
  8
SCANIA_P114_CB_6
 10
-3.85
 20
-33.5911
 30
0
 70
     0
  0
VERTEX
  8
SCANIA_P114_CB_6
 10
-3.5906
 20
-33.6832
 30
0
 70
     0
  0
VERTEX
  8
SCANIA_P114_CB_6
 10
-3.3285
 20
-33.7691
 30
0
 70
     0
  0
VERTEX
  8
SCANIA_P114_CB_6
 10
-3.0636
 20
-33.8486
 30
0
 70
     0
  0
VERTEX
  8
SCANIA_P114_CB_6
 10
-2.7962
 20
-33.9217
 30
0
 70
     0
  0
VERTEX
  8
SCANIA_P114_CB_6
 10
-2.5262
 20
-33.9882
 30
0
 70
     0
  0
VERTEX
  8
SCANIA_P114_CB_6
 10
-2.2539
 20
-34.0482
 30
0
 70
     0
  0
VERTEX
  8
SCANIA_P114_CB_6
 10
-1.9791
 20
-34.1014
 30
0
 70
     0
  0
VERTEX
  8
SCANIA_P114_CB_6
 10
-1.7022
 20
-34.1478
 30
0
 70
     0
  0
VERTEX
  8
SCANIA_P114_CB_6
 10
-1.4231
 20
-34.1874
 30
0
 70
     0
  0
VERTEX
  8
SCANIA_P114_CB_6
 10
-1.1419
 20
-34.2199
 30
0
 70
     0
  0
VERTEX
  8
SCANIA_P114_CB_6
 10
-0.8588
 20
-34.2454
 30
0
 70
     0
  0
VERTEX
  8
SCANIA_P114_CB_6
 10
-0.5738
 20
-34.2637
 30
0
 70
     0
  0
VERTEX
  8
SCANIA_P114_CB_6
 10
-0.287
 20
-34.2747
 30
0
 70
     0
  0
VERTEX
  8
SCANIA_P114_CB_6
 10
0.0015
 20
-34.2784
 30
0
 70
     0
  0
VERTEX
  8
SCANIA_P114_CB_6
 10
0.0015
 20
-34.2784
 30
0
 70
     0
  0
VERTEX
  8
SCANIA_P114_CB_6
 10
0.2899
 20
-34.2747
 30
0
 70
     0
  0
VERTEX
  8
SCANIA_P114_CB_6
 10
0.5767
 20
-34.2637
 30
0
 70
     0
  0
VERTEX
  8
SCANIA_P114_CB_6
 10
0.8617
 20
-34.2454
 30
0
 70
     0
  0
VERTEX
  8
SCANIA_P114_CB_6
 10
1.1448
 20
-34.2199
 30
0
 70
     0
  0
VERTEX
  8
SCANIA_P114_CB_6
 10
1.426
 20
-34.1874
 30
0
 70
     0
  0
VERTEX
  8
SCANIA_P114_CB_6
 10
1.7051
 20
-34.1478
 30
0
 70
     0
  0
VERTEX
  8
SCANIA_P114_CB_6
 10
1.9821
 20
-34.1014
 30
0
 70
     0
  0
VERTEX
  8
SCANIA_P114_CB_6
 10
2.2568
 20
-34.0482
 30
0
 70
     0
  0
VERTEX
  8
SCANIA_P114_CB_6
 10
2.5292
 20
-33.9882
 30
0
 70
     0
  0
VERTEX
  8
SCANIA_P114_CB_6
 10
2.7991
 20
-33.9217
 30
0
 70
     0
  0
VERTEX
  8
SCANIA_P114_CB_6
 10
3.0666
 20
-33.8486
 30
0
 70
     0
  0
VERTEX
  8
SCANIA_P114_CB_6
 10
3.3314
 20
-33.7691
 30
0
 70
     0
  0
VERTEX
  8
SCANIA_P114_CB_6
 10
3.5935
 20
-33.6832
 30
0
 70
     0
  0
VERTEX
  8
SCANIA_P114_CB_6
 10
3.8529
 20
-33.5911
 30
0
 70
     0
  0
VERTEX
  8
SCANIA_P114_CB_6
 10
4.1094
 20
-33.4929
 30
0
 70
     0
  0
VERTEX
  8
SCANIA_P114_CB_6
 10
4.3629
 20
-33.3885
 30
0
 70
     0
  0
VERTEX
  8
SCANIA_P114_CB_6
 10
4.6133
 20
-33.2782
 30
0
 70
     0
  0
VERTEX
  8
SCANIA_P114_CB_6
 10
4.8606
 20
-33.162
 30
0
 70
     0
  0
VERTEX
  8
SCANIA_P114_CB_6
 10
5.1047
 20
-33.04
 30
0
 70
     0
  0
VERTEX
  8
SCANIA_P114_CB_6
 10
5.3454
 20
-32.9122
 30
0
 70
     0
  0
VERTEX
  8
SCANIA_P114_CB_6
 10
5.5827
 20
-32.7789
 30
0
 70
     0
  0
VERTEX
  8
SCANIA_P114_CB_6
 10
5.8165
 20
-32.6401
 30
0
 70
     0
  0
VERTEX
  8
SCANIA_P114_CB_6
 10
6.0467
 20
-32.4958
 30
0
 70
     0
  0
VERTEX
  8
SCANIA_P114_CB_6
 10
6.2731
 20
-32.3461
 30
0
 70
     0
  0
VERTEX
  8
SCANIA_P114_CB_6
 10
6.4958
 20
-32.1913
 30
0
 70
     0
  0
VERTEX
  8
SCANIA_P114_CB_6
 10
6.7146
 20
-32.0312
 30
0
 70
     0
  0
VERTEX
  8
SCANIA_P114_CB_6
 10
6.9294
 20
-31.8661
 30
0
 70
     0
  0
VERTEX
  8
SCANIA_P114_CB_6
 10
7.1402
 20
-31.696
 30
0
 70
     0
  0
VERTEX
  8
SCANIA_P114_CB_6
 10
7.5492
 20
-31.3413
 30
0
 70
     0
  0
VERTEX
  8
SCANIA_P114_CB_6
 10
7.9408
 20
-30.9678
 30
0
 70
     0
  0
VERTEX
  8
SCANIA_P114_CB_6
 10
8.3143
 20
-30.5762
 30
0
 70
     0
  0
VERTEX
  8
SCANIA_P114_CB_6
 10
8.6691
 20
-30.1672
 30
0
 70
     0
  0
VERTEX
  8
SCANIA_P114_CB_6
 10
8.8391
 20
-29.9564
 30
0
 70
     0
  0
VERTEX
  8
SCANIA_P114_CB_6
 10
9.0042
 20
-29.7416
 30
0
 70
     0
  0
VERTEX
  8
SCANIA_P114_CB_6
 10
9.1643
 20
-29.5228
 30
0
 70
     0
  0
VERTEX
  8
SCANIA_P114_CB_6
 10
9.3192
 20
-29.3001
 30
0
 70
     0
  0
VERTEX
  8
SCANIA_P114_CB_6
 10
9.4688
 20
-29.0737
 30
0
 70
     0
  0
VERTEX
  8
SCANIA_P114_CB_6
 10
9.6131
 20
-28.8435
 30
0
 70
     0
  0
VERTEX
  8
SCANIA_P114_CB_6
 10
9.7519
 20
-28.6097
 30
0
 70
     0
  0
VERTEX
  8
SCANIA_P114_CB_6
 10
9.8853
 20
-28.3724
 30
0
 70
     0
  0
VERTEX
  8
SCANIA_P114_CB_6
 10
10.013
 20
-28.1317
 30
0
 70
     0
  0
VERTEX
  8
SCANIA_P114_CB_6
 10
10.135
 20
-27.8876
 30
0
 70
     0
  0
VERTEX
  8
SCANIA_P114_CB_6
 10
10.2512
 20
-27.6403
 30
0
 70
     0
  0
VERTEX
  8
SCANIA_P114_CB_6
 10
10.3615
 20
-27.3899
 30
0
 70
     0
  0
VERTEX
  8
SCANIA_P114_CB_6
 10
10.4659
 20
-27.1364
 30
0
 70
     0
  0
VERTEX
  8
SCANIA_P114_CB_6
 10
10.5641
 20
-26.8799
 30
0
 70
     0
  0
VERTEX
  8
SCANIA_P114_CB_6
 10
10.6563
 20
-26.6205
 30
0
 70
     0
  0
VERTEX
  8
SCANIA_P114_CB_6
 10
10.7421
 20
-26.3584
 30
0
 70
     0
  0
VERTEX
  8
SCANIA_P114_CB_6
 10
10.8216
 20
-26.0936
 30
0
 70
     0
  0
VERTEX
  8
SCANIA_P114_CB_6
 10
10.8947
 20
-25.8261
 30
0
 70
     0
  0
VERTEX
  8
SCANIA_P114_CB_6
 10
10.9613
 20
-25.5561
 30
0
 70
     0
  0
VERTEX
  8
SCANIA_P114_CB_6
 10
11.0212
 20
-25.2838
 30
0
 70
     0
  0
VERTEX
  8
SCANIA_P114_CB_6
 10
11.0744
 20
-25.009
 30
0
 70
     0
  0
VERTEX
  8
SCANIA_P114_CB_6
 10
11.1208
 20
-24.7321
 30
0
 70
     0
  0
VERTEX
  8
SCANIA_P114_CB_6
 10
11.1604
 20
-24.453
 30
0
 70
     0
  0
VERTEX
  8
SCANIA_P114_CB_6
 10
11.1929
 20
-24.1718
 30
0
 70
     0
  0
VERTEX
  8
SCANIA_P114_CB_6
 10
11.2184
 20
-23.8887
 30
0
 70
     0
  0
VERTEX
  8
SCANIA_P114_CB_6
 10
11.2367
 20
-23.6037
 30
0
 70
     0
  0
VERTEX
  8
SCANIA_P114_CB_6
 10
11.2478
 20
-23.3169
 30
0
 70
     0
  0
VERTEX
  8
SCANIA_P114_CB_6
 10
11.2515
 20
-23.0284
 30
0
 70
     0
  0
SEQEND
  0
POLYLINE
  8
SCANIA_P114_CB_6
  6
CONTINUOUS
 62
     7
 66
     1
 40
0.0139
 41
0.0139
  0
VERTEX
  8
SCANIA_P114_CB_6
 10
-153.5106
 20
-0.0127
 30
0
 70
     0
  0
VERTEX
  8
SCANIA_P114_CB_6
 10
-19.4698
 20
-0.0127
 30
0
 70
     0
  0
SEQEND
  0
POLYLINE
  8
SCANIA_P114_CB_6
  6
CONTINUOUS
 62
     7
 66
     1
 40
0.0139
 41
0.0139
  0
VERTEX
  8
SCANIA_P114_CB_6
 10
19.033
 20
-23.0284
 30
0
 70
     0
  0
VERTEX
  8
SCANIA_P114_CB_6
 10
19.0267
 20
-22.5404
 30
0
 70
     0
  0
VERTEX
  8
SCANIA_P114_CB_6
 10
19.008
 20
-22.0553
 30
0
 70
     0
  0
VERTEX
  8
SCANIA_P114_CB_6
 10
18.977
 20
-21.5732
 30
0
 70
     0
  0
VERTEX
  8
SCANIA_P114_CB_6
 10
18.9339
 20
-21.0942
 30
0
 70
     0
  0
VERTEX
  8
SCANIA_P114_CB_6
 10
18.8789
 20
-20.6186
 30
0
 70
     0
  0
VERTEX
  8
SCANIA_P114_CB_6
 10
18.812
 20
-20.1464
 30
0
 70
     0
  0
VERTEX
  8
SCANIA_P114_CB_6
 10
18.7334
 20
-19.6779
 30
0
 70
     0
  0
VERTEX
  8
SCANIA_P114_CB_6
 10
18.6434
 20
-19.2132
 30
0
 70
     0
  0
VERTEX
  8
SCANIA_P114_CB_6
 10
18.542
 20
-18.7524
 30
0
 70
     0
  0
VERTEX
  8
SCANIA_P114_CB_6
 10
18.4294
 20
-18.2957
 30
0
 70
     0
  0
VERTEX
  8
SCANIA_P114_CB_6
 10
18.3058
 20
-17.8432
 30
0
 70
     0
  0
VERTEX
  8
SCANIA_P114_CB_6
 10
18.1713
 20
-17.3952
 30
0
 70
     0
  0
VERTEX
  8
SCANIA_P114_CB_6
 10
18.0261
 20
-16.9517
 30
0
 70
     0
  0
VERTEX
  8
SCANIA_P114_CB_6
 10
17.8702
 20
-16.513
 30
0
 70
     0
  0
VERTEX
  8
SCANIA_P114_CB_6
 10
17.704
 20
-16.0791
 30
0
 70
     0
  0
VERTEX
  8
SCANIA_P114_CB_6
 10
17.5275
 20
-15.6502
 30
0
 70
     0
  0
VERTEX
  8
SCANIA_P114_CB_6
 10
17.3408
 20
-15.2266
 30
0
 70
     0
  0
VERTEX
  8
SCANIA_P114_CB_6
 10
17.1442
 20
-14.8082
 30
0
 70
     0
  0
VERTEX
  8
SCANIA_P114_CB_6
 10
16.9378
 20
-14.3953
 30
0
 70
     0
  0
VERTEX
  8
SCANIA_P114_CB_6
 10
16.7218
 20
-13.9881
 30
0
 70
     0
  0
VERTEX
  8
SCANIA_P114_CB_6
 10
16.4962
 20
-13.5867
 30
0
 70
     0
  0
VERTEX
  8
SCANIA_P114_CB_6
 10
16.2613
 20
-13.1912
 30
0
 70
     0
  0
VERTEX
  8
SCANIA_P114_CB_6
 10
16.0172
 20
-12.8018
 30
0
 70
     0
  0
VERTEX
  8
SCANIA_P114_CB_6
 10
15.7641
 20
-12.4187
 30
0
 70
     0
  0
VERTEX
  8
SCANIA_P114_CB_6
 10
15.5021
 20
-12.042
 30
0
 70
     0
  0
VERTEX
  8
SCANIA_P114_CB_6
 10
15.2314
 20
-11.6719
 30
0
 70
     0
  0
VERTEX
  8
SCANIA_P114_CB_6
 10
14.9521
 20
-11.3084
 30
0
 70
     0
  0
VERTEX
  8
SCANIA_P114_CB_6
 10
14.6643
 20
-10.9519
 30
0
 70
     0
  0
VERTEX
  8
SCANIA_P114_CB_6
 10
14.3683
 20
-10.6024
 30
0
 70
     0
  0
VERTEX
  8
SCANIA_P114_CB_6
 10
14.0642
 20
-10.2601
 30
0
 70
     0
  0
VERTEX
  8
SCANIA_P114_CB_6
 10
13.7522
 20
-9.9251
 30
0
 70
     0
  0
VERTEX
  8
SCANIA_P114_CB_6
 10
13.4323
 20
-9.5976
 30
0
 70
     0
  0
VERTEX
  8
SCANIA_P114_CB_6
 10
13.1048
 20
-9.2777
 30
0
 70
     0
  0
VERTEX
  8
SCANIA_P114_CB_6
 10
12.7698
 20
-8.9657
 30
0
 70
     0
  0
VERTEX
  8
SCANIA_P114_CB_6
 10
12.4275
 20
-8.6616
 30
0
 70
     0
  0
VERTEX
  8
SCANIA_P114_CB_6
 10
12.078
 20
-8.3656
 30
0
 70
     0
  0
VERTEX
  8
SCANIA_P114_CB_6
 10
11.7215
 20
-8.0778
 30
0
 70
     0
  0
VERTEX
  8
SCANIA_P114_CB_6
 10
11.358
 20
-7.7985
 30
0
 70
     0
  0
VERTEX
  8
SCANIA_P114_CB_6
 10
10.9879
 20
-7.5278
 30
0
 70
     0
  0
VERTEX
  8
SCANIA_P114_CB_6
 10
10.6112
 20
-7.2658
 30
0
 70
     0
  0
VERTEX
  8
SCANIA_P114_CB_6
 10
10.2281
 20
-7.0127
 30
0
 70
     0
  0
VERTEX
  8
SCANIA_P114_CB_6
 10
9.8387
 20
-6.7686
 30
0
 70
     0
  0
VERTEX
  8
SCANIA_P114_CB_6
 10
9.4432
 20
-6.5337
 30
0
 70
     0
  0
VERTEX
  8
SCANIA_P114_CB_6
 10
9.0418
 20
-6.3081
 30
0
 70
     0
  0
VERTEX
  8
SCANIA_P114_CB_6
 10
8.6346
 20
-6.0921
 30
0
 70
     0
  0
VERTEX
  8
SCANIA_P114_CB_6
 10
8.2217
 20
-5.8857
 30
0
 70
     0
  0
VERTEX
  8
SCANIA_P114_CB_6
 10
7.8033
 20
-5.6891
 30
0
 70
     0
  0
VERTEX
  8
SCANIA_P114_CB_6
 10
7.3797
 20
-5.5024
 30
0
 70
     0
  0
VERTEX
  8
SCANIA_P114_CB_6
 10
6.9508
 20
-5.3259
 30
0
 70
     0
  0
VERTEX
  8
SCANIA_P114_CB_6
 10
6.5169
 20
-5.1597
 30
0
 70
     0
  0
VERTEX
  8
SCANIA_P114_CB_6
 10
6.0782
 20
-5.0039
 30
0
 70
     0
  0
VERTEX
  8
SCANIA_P114_CB_6
 10
5.6347
 20
-4.8586
 30
0
 70
     0
  0
VERTEX
  8
SCANIA_P114_CB_6
 10
5.1867
 20
-4.7241
 30
0
 70
     0
  0
VERTEX
  8
SCANIA_P114_CB_6
 10
4.7342
 20
-4.6005
 30
0
 70
     0
  0
VERTEX
  8
SCANIA_P114_CB_6
 10
4.2775
 20
-4.4879
 30
0
 70
     0
  0
VERTEX
  8
SCANIA_P114_CB_6
 10
3.8167
 20
-4.3865
 30
0
 70
     0
  0
VERTEX
  8
SCANIA_P114_CB_6
 10
3.352
 20
-4.2965
 30
0
 70
     0
  0
VERTEX
  8
SCANIA_P114_CB_6
 10
2.8835
 20
-4.2179
 30
0
 70
     0
  0
VERTEX
  8
SCANIA_P114_CB_6
 10
2.4113
 20
-4.151
 30
0
 70
     0
  0
VERTEX
  8
SCANIA_P114_CB_6
 10
1.9357
 20
-4.096
 30
0
 70
     0
  0
VERTEX
  8
SCANIA_P114_CB_6
 10
1.4567
 20
-4.0529
 30
0
 70
     0
  0
VERTEX
  8
SCANIA_P114_CB_6
 10
0.9746
 20
-4.0219
 30
0
 70
     0
  0
VERTEX
  8
SCANIA_P114_CB_6
 10
0.4895
 20
-4.0032
 30
0
 70
     0
  0
VERTEX
  8
SCANIA_P114_CB_6
 10
0.0015
 20
-3.997
 30
0
 70
     0
  0
VERTEX
  8
SCANIA_P114_CB_6
 10
0.0015
 20
-3.997
 30
0
 70
     0
  0
VERTEX
  8
SCANIA_P114_CB_6
 10
-0.4866
 20
-4.0032
 30
0
 70
     0
  0
VERTEX
  8
SCANIA_P114_CB_6
 10
-0.9717
 20
-4.0219
 30
0
 70
     0
  0
VERTEX
  8
SCANIA_P114_CB_6
 10
-1.4538
 20
-4.0529
 30
0
 70
     0
  0
VERTEX
  8
SCANIA_P114_CB_6
 10
-1.9328
 20
-4.096
 30
0
 70
     0
  0
VERTEX
  8
SCANIA_P114_CB_6
 10
-2.4084
 20
-4.151
 30
0
 70
     0
  0
VERTEX
  8
SCANIA_P114_CB_6
 10
-2.8806
 20
-4.2179
 30
0
 70
     0
  0
VERTEX
  8
SCANIA_P114_CB_6
 10
-3.3491
 20
-4.2965
 30
0
 70
     0
  0
VERTEX
  8
SCANIA_P114_CB_6
 10
-3.8138
 20
-4.3865
 30
0
 70
     0
  0
VERTEX
  8
SCANIA_P114_CB_6
 10
-4.2746
 20
-4.4879
 30
0
 70
     0
  0
VERTEX
  8
SCANIA_P114_CB_6
 10
-4.7313
 20
-4.6005
 30
0
 70
     0
  0
VERTEX
  8
SCANIA_P114_CB_6
 10
-5.1837
 20
-4.7241
 30
0
 70
     0
  0
VERTEX
  8
SCANIA_P114_CB_6
 10
-5.6318
 20
-4.8586
 30
0
 70
     0
  0
VERTEX
  8
SCANIA_P114_CB_6
 10
-6.0752
 20
-5.0039
 30
0
 70
     0
  0
VERTEX
  8
SCANIA_P114_CB_6
 10
-6.514
 20
-5.1597
 30
0
 70
     0
  0
VERTEX
  8
SCANIA_P114_CB_6
 10
-6.9479
 20
-5.3259
 30
0
 70
     0
  0
VERTEX
  8
SCANIA_P114_CB_6
 10
-7.3767
 20
-5.5024
 30
0
 70
     0
  0
VERTEX
  8
SCANIA_P114_CB_6
 10
-7.8004
 20
-5.6891
 30
0
 70
     0
  0
VERTEX
  8
SCANIA_P114_CB_6
 10
-8.2188
 20
-5.8857
 30
0
 70
     0
  0
VERTEX
  8
SCANIA_P114_CB_6
 10
-8.6316
 20
-6.0921
 30
0
 70
     0
  0
VERTEX
  8
SCANIA_P114_CB_6
 10
-9.0389
 20
-6.3081
 30
0
 70
     0
  0
VERTEX
  8
SCANIA_P114_CB_6
 10
-9.4403
 20
-6.5337
 30
0
 70
     0
  0
VERTEX
  8
SCANIA_P114_CB_6
 10
-9.8358
 20
-6.7686
 30
0
 70
     0
  0
VERTEX
  8
SCANIA_P114_CB_6
 10
-10.2252
 20
-7.0127
 30
0
 70
     0
  0
VERTEX
  8
SCANIA_P114_CB_6
 10
-10.6083
 20
-7.2658
 30
0
 70
     0
  0
VERTEX
  8
SCANIA_P114_CB_6
 10
-10.985
 20
-7.5278
 30
0
 70
     0
  0
VERTEX
  8
SCANIA_P114_CB_6
 10
-11.3551
 20
-7.7985
 30
0
 70
     0
  0
VERTEX
  8
SCANIA_P114_CB_6
 10
-11.7185
 20
-8.0778
 30
0
 70
     0
  0
VERTEX
  8
SCANIA_P114_CB_6
 10
-12.0751
 20
-8.3656
 30
0
 70
     0
  0
VERTEX
  8
SCANIA_P114_CB_6
 10
-12.4246
 20
-8.6616
 30
0
 70
     0
  0
VERTEX
  8
SCANIA_P114_CB_6
 10
-12.7669
 20
-8.9657
 30
0
 70
     0
  0
VERTEX
  8
SCANIA_P114_CB_6
 10
-13.1019
 20
-9.2777
 30
0
 70
     0
  0
VERTEX
  8
SCANIA_P114_CB_6
 10
-13.4294
 20
-9.5976
 30
0
 70
     0
  0
VERTEX
  8
SCANIA_P114_CB_6
 10
-13.7493
 20
-9.9251
 30
0
 70
     0
  0
VERTEX
  8
SCANIA_P114_CB_6
 10
-14.0613
 20
-10.2601
 30
0
 70
     0
  0
VERTEX
  8
SCANIA_P114_CB_6
 10
-14.3654
 20
-10.6024
 30
0
 70
     0
  0
VERTEX
  8
SCANIA_P114_CB_6
 10
-14.6614
 20
-10.9519
 30
0
 70
     0
  0
VERTEX
  8
SCANIA_P114_CB_6
 10
-14.9491
 20
-11.3084
 30
0
 70
     0
  0
VERTEX
  8
SCANIA_P114_CB_6
 10
-15.2285
 20
-11.6719
 30
0
 70
     0
  0
VERTEX
  8
SCANIA_P114_CB_6
 10
-15.4992
 20
-12.042
 30
0
 70
     0
  0
VERTEX
  8
SCANIA_P114_CB_6
 10
-15.7612
 20
-12.4187
 30
0
 70
     0
  0
VERTEX
  8
SCANIA_P114_CB_6
 10
-16.0143
 20
-12.8018
 30
0
 70
     0
  0
VERTEX
  8
SCANIA_P114_CB_6
 10
-16.2584
 20
-13.1912
 30
0
 70
     0
  0
VERTEX
  8
SCANIA_P114_CB_6
 10
-16.4933
 20
-13.5867
 30
0
 70
     0
  0
VERTEX
  8
SCANIA_P114_CB_6
 10
-16.7189
 20
-13.9881
 30
0
 70
     0
  0
VERTEX
  8
SCANIA_P114_CB_6
 10
-16.9349
 20
-14.3953
 30
0
 70
     0
  0
VERTEX
  8
SCANIA_P114_CB_6
 10
-17.1413
 20
-14.8082
 30
0
 70
     0
  0
VERTEX
  8
SCANIA_P114_CB_6
 10
-17.3379
 20
-15.2266
 30
0
 70
     0
  0
VERTEX
  8
SCANIA_P114_CB_6
 10
-17.5245
 20
-15.6502
 30
0
 70
     0
  0
VERTEX
  8
SCANIA_P114_CB_6
 10
-17.7011
 20
-16.0791
 30
0
 70
     0
  0
VERTEX
  8
SCANIA_P114_CB_6
 10
-17.8673
 20
-16.513
 30
0
 70
     0
  0
VERTEX
  8
SCANIA_P114_CB_6
 10
-18.0231
 20
-16.9517
 30
0
 70
     0
  0
VERTEX
  8
SCANIA_P114_CB_6
 10
-18.1684
 20
-17.3952
 30
0
 70
     0
  0
VERTEX
  8
SCANIA_P114_CB_6
 10
-18.3029
 20
-17.8432
 30
0
 70
     0
  0
VERTEX
  8
SCANIA_P114_CB_6
 10
-18.4265
 20
-18.2957
 30
0
 70
     0
  0
VERTEX
  8
SCANIA_P114_CB_6
 10
-18.5391
 20
-18.7524
 30
0
 70
     0
  0
VERTEX
  8
SCANIA_P114_CB_6
 10
-18.6405
 20
-19.2132
 30
0
 70
     0
  0
VERTEX
  8
SCANIA_P114_CB_6
 10
-18.7305
 20
-19.6779
 30
0
 70
     0
  0
VERTEX
  8
SCANIA_P114_CB_6
 10
-18.8091
 20
-20.1464
 30
0
 70
     0
  0
VERTEX
  8
SCANIA_P114_CB_6
 10
-18.8759
 20
-20.6186
 30
0
 70
     0
  0
VERTEX
  8
SCANIA_P114_CB_6
 10
-18.931
 20
-21.0942
 30
0
 70
     0
  0
VERTEX
  8
SCANIA_P114_CB_6
 10
-18.9741
 20
-21.5732
 30
0
 70
     0
  0
VERTEX
  8
SCANIA_P114_CB_6
 10
-19.0051
 20
-22.0553
 30
0
 70
     0
  0
VERTEX
  8
SCANIA_P114_CB_6
 10
-19.0238
 20
-22.5404
 30
0
 70
     0
  0
VERTEX
  8
SCANIA_P114_CB_6
 10
-19.03
 20
-23.0284
 30
0
 70
     0
  0
VERTEX
  8
SCANIA_P114_CB_6
 10
-19.03
 20
-23.0284
 30
0
 70
     0
  0
VERTEX
  8
SCANIA_P114_CB_6
 10
-19.0238
 20
-23.5165
 30
0
 70
     0
  0
VERTEX
  8
SCANIA_P114_CB_6
 10
-19.0051
 20
-24.0016
 30
0
 70
     0
  0
VERTEX
  8
SCANIA_P114_CB_6
 10
-18.9741
 20
-24.4837
 30
0
 70
     0
  0
VERTEX
  8
SCANIA_P114_CB_6
 10
-18.931
 20
-24.9627
 30
0
 70
     0
  0
VERTEX
  8
SCANIA_P114_CB_6
 10
-18.8759
 20
-25.4383
 30
0
 70
     0
  0
VERTEX
  8
SCANIA_P114_CB_6
 10
-18.8091
 20
-25.9105
 30
0
 70
     0
  0
VERTEX
  8
SCANIA_P114_CB_6
 10
-18.7305
 20
-26.379
 30
0
 70
     0
  0
VERTEX
  8
SCANIA_P114_CB_6
 10
-18.6405
 20
-26.8437
 30
0
 70
     0
  0
VERTEX
  8
SCANIA_P114_CB_6
 10
-18.5391
 20
-27.3045
 30
0
 70
     0
  0
VERTEX
  8
SCANIA_P114_CB_6
 10
-18.4265
 20
-27.7612
 30
0
 70
     0
  0
VERTEX
  8
SCANIA_P114_CB_6
 10
-18.3029
 20
-28.2136
 30
0
 70
     0
  0
VERTEX
  8
SCANIA_P114_CB_6
 10
-18.1684
 20
-28.6617
 30
0
 70
     0
  0
VERTEX
  8
SCANIA_P114_CB_6
 10
-18.0231
 20
-29.1051
 30
0
 70
     0
  0
VERTEX
  8
SCANIA_P114_CB_6
 10
-17.8673
 20
-29.5439
 30
0
 70
     0
  0
VERTEX
  8
SCANIA_P114_CB_6
 10
-17.7011
 20
-29.9778
 30
0
 70
     0
  0
VERTEX
  8
SCANIA_P114_CB_6
 10
-17.5245
 20
-30.4066
 30
0
 70
     0
  0
VERTEX
  8
SCANIA_P114_CB_6
 10
-17.3379
 20
-30.8303
 30
0
 70
     0
  0
VERTEX
  8
SCANIA_P114_CB_6
 10
-17.1413
 20
-31.2487
 30
0
 70
     0
  0
VERTEX
  8
SCANIA_P114_CB_6
 10
-16.9349
 20
-31.6616
 30
0
 70
     0
  0
VERTEX
  8
SCANIA_P114_CB_6
 10
-16.7189
 20
-32.0688
 30
0
 70
     0
  0
VERTEX
  8
SCANIA_P114_CB_6
 10
-16.4933
 20
-32.4702
 30
0
 70
     0
  0
VERTEX
  8
SCANIA_P114_CB_6
 10
-16.2584
 20
-32.8657
 30
0
 70
     0
  0
VERTEX
  8
SCANIA_P114_CB_6
 10
-16.0143
 20
-33.2551
 30
0
 70
     0
  0
VERTEX
  8
SCANIA_P114_CB_6
 10
-15.7612
 20
-33.6382
 30
0
 70
     0
  0
VERTEX
  8
SCANIA_P114_CB_6
 10
-15.4992
 20
-34.0149
 30
0
 70
     0
  0
VERTEX
  8
SCANIA_P114_CB_6
 10
-15.2285
 20
-34.385
 30
0
 70
     0
  0
VERTEX
  8
SCANIA_P114_CB_6
 10
-14.9491
 20
-34.7485
 30
0
 70
     0
  0
VERTEX
  8
SCANIA_P114_CB_6
 10
-14.6614
 20
-35.105
 30
0
 70
     0
  0
VERTEX
  8
SCANIA_P114_CB_6
 10
-14.3654
 20
-35.4545
 30
0
 70
     0
  0
VERTEX
  8
SCANIA_P114_CB_6
 10
-14.0613
 20
-35.7968
 30
0
 70
     0
  0
VERTEX
  8
SCANIA_P114_CB_6
 10
-13.7493
 20
-36.1318
 30
0
 70
     0
  0
VERTEX
  8
SCANIA_P114_CB_6
 10
-13.4294
 20
-36.4593
 30
0
 70
     0
  0
VERTEX
  8
SCANIA_P114_CB_6
 10
-13.1019
 20
-36.7792
 30
0
 70
     0
  0
VERTEX
  8
SCANIA_P114_CB_6
 10
-12.7669
 20
-37.0912
 30
0
 70
     0
  0
VERTEX
  8
SCANIA_P114_CB_6
 10
-12.4246
 20
-37.3953
 30
0
 70
     0
  0
VERTEX
  8
SCANIA_P114_CB_6
 10
-12.0751
 20
-37.6913
 30
0
 70
     0
  0
VERTEX
  8
SCANIA_P114_CB_6
 10
-11.7185
 20
-37.979
 30
0
 70
     0
  0
VERTEX
  8
SCANIA_P114_CB_6
 10
-11.3551
 20
-38.2584
 30
0
 70
     0
  0
VERTEX
  8
SCANIA_P114_CB_6
 10
-10.985
 20
-38.5291
 30
0
 70
     0
  0
VERTEX
  8
SCANIA_P114_CB_6
 10
-10.6083
 20
-38.7911
 30
0
 70
     0
  0
VERTEX
  8
SCANIA_P114_CB_6
 10
-10.2252
 20
-39.0442
 30
0
 70
     0
  0
VERTEX
  8
SCANIA_P114_CB_6
 10
-9.8358
 20
-39.2883
 30
0
 70
     0
  0
VERTEX
  8
SCANIA_P114_CB_6
 10
-9.4403
 20
-39.5232
 30
0
 70
     0
  0
VERTEX
  8
SCANIA_P114_CB_6
 10
-9.0389
 20
-39.7488
 30
0
 70
     0
  0
VERTEX
  8
SCANIA_P114_CB_6
 10
-8.6316
 20
-39.9648
 30
0
 70
     0
  0
VERTEX
  8
SCANIA_P114_CB_6
 10
-8.2188
 20
-40.1712
 30
0
 70
     0
  0
VERTEX
  8
SCANIA_P114_CB_6
 10
-7.8004
 20
-40.3678
 30
0
 70
     0
  0
VERTEX
  8
SCANIA_P114_CB_6
 10
-7.3767
 20
-40.5544
 30
0
 70
     0
  0
VERTEX
  8
SCANIA_P114_CB_6
 10
-6.9479
 20
-40.731
 30
0
 70
     0
  0
VERTEX
  8
SCANIA_P114_CB_6
 10
-6.514
 20
-40.8972
 30
0
 70
     0
  0
VERTEX
  8
SCANIA_P114_CB_6
 10
-6.0752
 20
-41.053
 30
0
 70
     0
  0
VERTEX
  8
SCANIA_P114_CB_6
 10
-5.6318
 20
-41.1983
 30
0
 70
     0
  0
VERTEX
  8
SCANIA_P114_CB_6
 10
-5.1837
 20
-41.3328
 30
0
 70
     0
  0
VERTEX
  8
SCANIA_P114_CB_6
 10
-4.7313
 20
-41.4564
 30
0
 70
     0
  0
VERTEX
  8
SCANIA_P114_CB_6
 10
-4.2746
 20
-41.569
 30
0
 70
     0
  0
VERTEX
  8
SCANIA_P114_CB_6
 10
-3.8138
 20
-41.6704
 30
0
 70
     0
  0
VERTEX
  8
SCANIA_P114_CB_6
 10
-3.3491
 20
-41.7604
 30
0
 70
     0
  0
VERTEX
  8
SCANIA_P114_CB_6
 10
-2.8806
 20
-41.839
 30
0
 70
     0
  0
VERTEX
  8
SCANIA_P114_CB_6
 10
-2.4084
 20
-41.9059
 30
0
 70
     0
  0
VERTEX
  8
SCANIA_P114_CB_6
 10
-1.9328
 20
-41.9609
 30
0
 70
     0
  0
VERTEX
  8
SCANIA_P114_CB_6
 10
-1.4538
 20
-42.004
 30
0
 70
     0
  0
VERTEX
  8
SCANIA_P114_CB_6
 10
-0.9717
 20
-42.035
 30
0
 70
     0
  0
VERTEX
  8
SCANIA_P114_CB_6
 10
-0.4866
 20
-42.0537
 30
0
 70
     0
  0
VERTEX
  8
SCANIA_P114_CB_6
 10
0.0015
 20
-42.0599
 30
0
 70
     0
  0
VERTEX
  8
SCANIA_P114_CB_6
 10
0.0015
 20
-42.0599
 30
0
 70
     0
  0
VERTEX
  8
SCANIA_P114_CB_6
 10
0.4895
 20
-42.0537
 30
0
 70
     0
  0
VERTEX
  8
SCANIA_P114_CB_6
 10
0.9746
 20
-42.035
 30
0
 70
     0
  0
VERTEX
  8
SCANIA_P114_CB_6
 10
1.4567
 20
-42.004
 30
0
 70
     0
  0
VERTEX
  8
SCANIA_P114_CB_6
 10
1.9357
 20
-41.9609
 30
0
 70
     0
  0
VERTEX
  8
SCANIA_P114_CB_6
 10
2.4113
 20
-41.9059
 30
0
 70
     0
  0
VERTEX
  8
SCANIA_P114_CB_6
 10
2.8835
 20
-41.839
 30
0
 70
     0
  0
VERTEX
  8
SCANIA_P114_CB_6
 10
3.352
 20
-41.7604
 30
0
 70
     0
  0
VERTEX
  8
SCANIA_P114_CB_6
 10
3.8167
 20
-41.6704
 30
0
 70
     0
  0
VERTEX
  8
SCANIA_P114_CB_6
 10
4.2775
 20
-41.569
 30
0
 70
     0
  0
VERTEX
  8
SCANIA_P114_CB_6
 10
4.7342
 20
-41.4564
 30
0
 70
     0
  0
VERTEX
  8
SCANIA_P114_CB_6
 10
5.1867
 20
-41.3328
 30
0
 70
     0
  0
VERTEX
  8
SCANIA_P114_CB_6
 10
5.6347
 20
-41.1983
 30
0
 70
     0
  0
VERTEX
  8
SCANIA_P114_CB_6
 10
6.0782
 20
-41.053
 30
0
 70
     0
  0
VERTEX
  8
SCANIA_P114_CB_6
 10
6.5169
 20
-40.8972
 30
0
 70
     0
  0
VERTEX
  8
SCANIA_P114_CB_6
 10
6.9508
 20
-40.731
 30
0
 70
     0
  0
VERTEX
  8
SCANIA_P114_CB_6
 10
7.3797
 20
-40.5544
 30
0
 70
     0
  0
VERTEX
  8
SCANIA_P114_CB_6
 10
7.8033
 20
-40.3678
 30
0
 70
     0
  0
VERTEX
  8
SCANIA_P114_CB_6
 10
8.2217
 20
-40.1712
 30
0
 70
     0
  0
VERTEX
  8
SCANIA_P114_CB_6
 10
8.6346
 20
-39.9648
 30
0
 70
     0
  0
VERTEX
  8
SCANIA_P114_CB_6
 10
9.0418
 20
-39.7488
 30
0
 70
     0
  0
VERTEX
  8
SCANIA_P114_CB_6
 10
9.4432
 20
-39.5232
 30
0
 70
     0
  0
VERTEX
  8
SCANIA_P114_CB_6
 10
9.8387
 20
-39.2883
 30
0
 70
     0
  0
VERTEX
  8
SCANIA_P114_CB_6
 10
10.2281
 20
-39.0442
 30
0
 70
     0
  0
VERTEX
  8
SCANIA_P114_CB_6
 10
10.6112
 20
-38.7911
 30
0
 70
     0
  0
VERTEX
  8
SCANIA_P114_CB_6
 10
10.9879
 20
-38.5291
 30
0
 70
     0
  0
VERTEX
  8
SCANIA_P114_CB_6
 10
11.358
 20
-38.2584
 30
0
 70
     0
  0
VERTEX
  8
SCANIA_P114_CB_6
 10
11.7215
 20
-37.979
 30
0
 70
     0
  0
VERTEX
  8
SCANIA_P114_CB_6
 10
12.078
 20
-37.6913
 30
0
 70
     0
  0
VERTEX
  8
SCANIA_P114_CB_6
 10
12.4275
 20
-37.3953
 30
0
 70
     0
  0
VERTEX
  8
SCANIA_P114_CB_6
 10
12.7698
 20
-37.0912
 30
0
 70
     0
  0
VERTEX
  8
SCANIA_P114_CB_6
 10
13.1048
 20
-36.7792
 30
0
 70
     0
  0
VERTEX
  8
SCANIA_P114_CB_6
 10
13.4323
 20
-36.4593
 30
0
 70
     0
  0
VERTEX
  8
SCANIA_P114_CB_6
 10
13.7522
 20
-36.1318
 30
0
 70
     0
  0
VERTEX
  8
SCANIA_P114_CB_6
 10
14.0642
 20
-35.7968
 30
0
 70
     0
  0
VERTEX
  8
SCANIA_P114_CB_6
 10
14.3683
 20
-35.4545
 30
0
 70
     0
  0
VERTEX
  8
SCANIA_P114_CB_6
 10
14.6643
 20
-35.105
 30
0
 70
     0
  0
VERTEX
  8
SCANIA_P114_CB_6
 10
14.9521
 20
-34.7485
 30
0
 70
     0
  0
VERTEX
  8
SCANIA_P114_CB_6
 10
15.2314
 20
-34.385
 30
0
 70
     0
  0
VERTEX
  8
SCANIA_P114_CB_6
 10
15.5021
 20
-34.0149
 30
0
 70
     0
  0
VERTEX
  8
SCANIA_P114_CB_6
 10
15.7641
 20
-33.6382
 30
0
 70
     0
  0
VERTEX
  8
SCANIA_P114_CB_6
 10
16.0172
 20
-33.2551
 30
0
 70
     0
  0
VERTEX
  8
SCANIA_P114_CB_6
 10
16.2613
 20
-32.8657
 30
0
 70
     0
  0
VERTEX
  8
SCANIA_P114_CB_6
 10
16.4962
 20
-32.4702
 30
0
 70
     0
  0
VERTEX
  8
SCANIA_P114_CB_6
 10
16.7218
 20
-32.0688
 30
0
 70
     0
  0
VERTEX
  8
SCANIA_P114_CB_6
 10
16.9378
 20
-31.6616
 30
0
 70
     0
  0
VERTEX
  8
SCANIA_P114_CB_6
 10
17.1442
 20
-31.2487
 30
0
 70
     0
  0
VERTEX
  8
SCANIA_P114_CB_6
 10
17.3408
 20
-30.8303
 30
0
 70
     0
  0
VERTEX
  8
SCANIA_P114_CB_6
 10
17.5275
 20
-30.4066
 30
0
 70
     0
  0
VERTEX
  8
SCANIA_P114_CB_6
 10
17.704
 20
-29.9778
 30
0
 70
     0
  0
VERTEX
  8
SCANIA_P114_CB_6
 10
17.8702
 20
-29.5439
 30
0
 70
     0
  0
VERTEX
  8
SCANIA_P114_CB_6
 10
18.0261
 20
-29.1051
 30
0
 70
     0
  0
VERTEX
  8
SCANIA_P114_CB_6
 10
18.1713
 20
-28.6617
 30
0
 70
     0
  0
VERTEX
  8
SCANIA_P114_CB_6
 10
18.3058
 20
-28.2136
 30
0
 70
     0
  0
VERTEX
  8
SCANIA_P114_CB_6
 10
18.4294
 20
-27.7612
 30
0
 70
     0
  0
VERTEX
  8
SCANIA_P114_CB_6
 10
18.542
 20
-27.3045
 30
0
 70
     0
  0
VERTEX
  8
SCANIA_P114_CB_6
 10
18.6434
 20
-26.8437
 30
0
 70
     0
  0
VERTEX
  8
SCANIA_P114_CB_6
 10
18.7334
 20
-26.379
 30
0
 70
     0
  0
VERTEX
  8
SCANIA_P114_CB_6
 10
18.812
 20
-25.9105
 30
0
 70
     0
  0
VERTEX
  8
SCANIA_P114_CB_6
 10
18.8789
 20
-25.4383
 30
0
 70
     0
  0
VERTEX
  8
SCANIA_P114_CB_6
 10
18.9339
 20
-24.9627
 30
0
 70
     0
  0
VERTEX
  8
SCANIA_P114_CB_6
 10
18.977
 20
-24.4837
 30
0
 70
     0
  0
VERTEX
  8
SCANIA_P114_CB_6
 10
19.008
 20
-24.0016
 30
0
 70
     0
  0
VERTEX
  8
SCANIA_P114_CB_6
 10
19.0267
 20
-23.5165
 30
0
 70
     0
  0
VERTEX
  8
SCANIA_P114_CB_6
 10
19.033
 20
-23.0284
 30
0
 70
     0
  0
SEQEND
  0
POLYLINE
  8
SCANIA_P114_CB_6
  6
CONTINUOUS
 62
     7
 66
     1
 40
0.0139
 41
0.0139
  0
VERTEX
  8
SCANIA_P114_CB_6
 10
21.0015
 20
-23.0284
 30
0
 70
     0
  0
VERTEX
  8
SCANIA_P114_CB_6
 10
20.9945
 20
-22.49
 30
0
 70
     0
  0
VERTEX
  8
SCANIA_P114_CB_6
 10
20.9739
 20
-21.9546
 30
0
 70
     0
  0
VERTEX
  8
SCANIA_P114_CB_6
 10
20.9397
 20
-21.4226
 30
0
 70
     0
  0
VERTEX
  8
SCANIA_P114_CB_6
 10
20.8922
 20
-20.8941
 30
0
 70
     0
  0
VERTEX
  8
SCANIA_P114_CB_6
 10
20.8314
 20
-20.3693
 30
0
 70
     0
  0
VERTEX
  8
SCANIA_P114_CB_6
 10
20.7576
 20
-19.8483
 30
0
 70
     0
  0
VERTEX
  8
SCANIA_P114_CB_6
 10
20.671
 20
-19.3313
 30
0
 70
     0
  0
VERTEX
  8
SCANIA_P114_CB_6
 10
20.5716
 20
-18.8185
 30
0
 70
     0
  0
VERTEX
  8
SCANIA_P114_CB_6
 10
20.4597
 20
-18.3101
 30
0
 70
     0
  0
VERTEX
  8
SCANIA_P114_CB_6
 10
20.3355
 20
-17.8062
 30
0
 70
     0
  0
VERTEX
  8
SCANIA_P114_CB_6
 10
20.1991
 20
-17.3069
 30
0
 70
     0
  0
VERTEX
  8
SCANIA_P114_CB_6
 10
20.0507
 20
-16.8126
 30
0
 70
     0
  0
VERTEX
  8
SCANIA_P114_CB_6
 10
19.8904
 20
-16.3232
 30
0
 70
     0
  0
VERTEX
  8
SCANIA_P114_CB_6
 10
19.7185
 20
-15.8391
 30
0
 70
     0
  0
VERTEX
  8
SCANIA_P114_CB_6
 10
19.535
 20
-15.3603
 30
0
 70
     0
  0
VERTEX
  8
SCANIA_P114_CB_6
 10
19.3402
 20
-14.8871
 30
0
 70
     0
  0
VERTEX
  8
SCANIA_P114_CB_6
 10
19.1343
 20
-14.4196
 30
0
 70
     0
  0
VERTEX
  8
SCANIA_P114_CB_6
 10
18.9174
 20
-13.958
 30
0
 70
     0
  0
VERTEX
  8
SCANIA_P114_CB_6
 10
18.6896
 20
-13.5024
 30
0
 70
     0
  0
VERTEX
  8
SCANIA_P114_CB_6
 10
18.4512
 20
-13.053
 30
0
 70
     0
  0
VERTEX
  8
SCANIA_P114_CB_6
 10
18.2023
 20
-12.6101
 30
0
 70
     0
  0
VERTEX
  8
SCANIA_P114_CB_6
 10
17.9431
 20
-12.1737
 30
0
 70
     0
  0
VERTEX
  8
SCANIA_P114_CB_6
 10
17.6738
 20
-11.744
 30
0
 70
     0
  0
VERTEX
  8
SCANIA_P114_CB_6
 10
17.3945
 20
-11.3213
 30
0
 70
     0
  0
VERTEX
  8
SCANIA_P114_CB_6
 10
17.1054
 20
-10.9056
 30
0
 70
     0
  0
VERTEX
  8
SCANIA_P114_CB_6
 10
16.8067
 20
-10.4972
 30
0
 70
     0
  0
VERTEX
  8
SCANIA_P114_CB_6
 10
16.4985
 20
-10.0962
 30
0
 70
     0
  0
VERTEX
  8
SCANIA_P114_CB_6
 10
16.181
 20
-9.7028
 30
0
 70
     0
  0
VERTEX
  8
SCANIA_P114_CB_6
 10
15.8544
 20
-9.3171
 30
0
 70
     0
  0
VERTEX
  8
SCANIA_P114_CB_6
 10
15.5188
 20
-8.9394
 30
0
 70
     0
  0
VERTEX
  8
SCANIA_P114_CB_6
 10
15.1745
 20
-8.5697
 30
0
 70
     0
  0
VERTEX
  8
SCANIA_P114_CB_6
 10
14.8216
 20
-8.2084
 30
0
 70
     0
  0
VERTEX
  8
SCANIA_P114_CB_6
 10
14.4602
 20
-7.8554
 30
0
 70
     0
  0
VERTEX
  8
SCANIA_P114_CB_6
 10
14.0905
 20
-7.5111
 30
0
 70
     0
  0
VERTEX
  8
SCANIA_P114_CB_6
 10
13.7128
 20
-7.1755
 30
0
 70
     0
  0
VERTEX
  8
SCANIA_P114_CB_6
 10
13.3271
 20
-6.8489
 30
0
 70
     0
  0
VERTEX
  8
SCANIA_P114_CB_6
 10
12.9337
 20
-6.5314
 30
0
 70
     0
  0
VERTEX
  8
SCANIA_P114_CB_6
 10
12.5327
 20
-6.2233
 30
0
 70
     0
  0
VERTEX
  8
SCANIA_P114_CB_6
 10
12.1243
 20
-5.9245
 30
0
 70
     0
  0
VERTEX
  8
SCANIA_P114_CB_6
 10
11.7086
 20
-5.6354
 30
0
 70
     0
  0
VERTEX
  8
SCANIA_P114_CB_6
 10
11.2859
 20
-5.3561
 30
0
 70
     0
  0
VERTEX
  8
SCANIA_P114_CB_6
 10
10.8562
 20
-5.0868
 30
0
 70
     0
  0
VERTEX
  8
SCANIA_P114_CB_6
 10
10.4198
 20
-4.8276
 30
0
 70
     0
  0
VERTEX
  8
SCANIA_P114_CB_6
 10
9.9769
 20
-4.5787
 30
0
 70
     0
  0
VERTEX
  8
SCANIA_P114_CB_6
 10
9.5275
 20
-4.3403
 30
0
 70
     0
  0
VERTEX
  8
SCANIA_P114_CB_6
 10
9.0719
 20
-4.1125
 30
0
 70
     0
  0
VERTEX
  8
SCANIA_P114_CB_6
 10
8.6103
 20
-3.8956
 30
0
 70
     0
  0
VERTEX
  8
SCANIA_P114_CB_6
 10
8.1428
 20
-3.6897
 30
0
 70
     0
  0
VERTEX
  8
SCANIA_P114_CB_6
 10
7.6696
 20
-3.4949
 30
0
 70
     0
  0
VERTEX
  8
SCANIA_P114_CB_6
 10
7.1908
 20
-3.3114
 30
0
 70
     0
  0
VERTEX
  8
SCANIA_P114_CB_6
 10
6.7067
 20
-3.1395
 30
0
 70
     0
  0
VERTEX
  8
SCANIA_P114_CB_6
 10
6.2174
 20
-2.9792
 30
0
 70
     0
  0
VERTEX
  8
SCANIA_P114_CB_6
 10
5.723
 20
-2.8308
 30
0
 70
     0
  0
VERTEX
  8
SCANIA_P114_CB_6
 10
5.2237
 20
-2.6944
 30
0
 70
     0
  0
VERTEX
  8
SCANIA_P114_CB_6
 10
4.7198
 20
-2.5702
 30
0
 70
     0
  0
VERTEX
  8
SCANIA_P114_CB_6
 10
4.2114
 20
-2.4583
 30
0
 70
     0
  0
VERTEX
  8
SCANIA_P114_CB_6
 10
3.6986
 20
-2.3589
 30
0
 70
     0
  0
VERTEX
  8
SCANIA_P114_CB_6
 10
3.1816
 20
-2.2723
 30
0
 70
     0
  0
VERTEX
  8
SCANIA_P114_CB_6
 10
2.6606
 20
-2.1985
 30
0
 70
     0
  0
VERTEX
  8
SCANIA_P114_CB_6
 10
2.1358
 20
-2.1377
 30
0
 70
     0
  0
VERTEX
  8
SCANIA_P114_CB_6
 10
1.6073
 20
-2.0902
 30
0
 70
     0
  0
VERTEX
  8
SCANIA_P114_CB_6
 10
1.0753
 20
-2.056
 30
0
 70
     0
  0
VERTEX
  8
SCANIA_P114_CB_6
 10
0.5399
 20
-2.0354
 30
0
 70
     0
  0
VERTEX
  8
SCANIA_P114_CB_6
 10
0.0015
 20
-2.0284
 30
0
 70
     0
  0
VERTEX
  8
SCANIA_P114_CB_6
 10
0.0015
 20
-2.0284
 30
0
 70
     0
  0
VERTEX
  8
SCANIA_P114_CB_6
 10
-0.537
 20
-2.0354
 30
0
 70
     0
  0
VERTEX
  8
SCANIA_P114_CB_6
 10
-1.0724
 20
-2.056
 30
0
 70
     0
  0
VERTEX
  8
SCANIA_P114_CB_6
 10
-1.6044
 20
-2.0902
 30
0
 70
     0
  0
VERTEX
  8
SCANIA_P114_CB_6
 10
-2.1329
 20
-2.1377
 30
0
 70
     0
  0
VERTEX
  8
SCANIA_P114_CB_6
 10
-2.6577
 20
-2.1985
 30
0
 70
     0
  0
VERTEX
  8
SCANIA_P114_CB_6
 10
-3.1787
 20
-2.2723
 30
0
 70
     0
  0
VERTEX
  8
SCANIA_P114_CB_6
 10
-3.6957
 20
-2.3589
 30
0
 70
     0
  0
VERTEX
  8
SCANIA_P114_CB_6
 10
-4.2085
 20
-2.4583
 30
0
 70
     0
  0
VERTEX
  8
SCANIA_P114_CB_6
 10
-4.7169
 20
-2.5702
 30
0
 70
     0
  0
VERTEX
  8
SCANIA_P114_CB_6
 10
-5.2208
 20
-2.6944
 30
0
 70
     0
  0
VERTEX
  8
SCANIA_P114_CB_6
 10
-5.7201
 20
-2.8308
 30
0
 70
     0
  0
VERTEX
  8
SCANIA_P114_CB_6
 10
-6.2144
 20
-2.9792
 30
0
 70
     0
  0
VERTEX
  8
SCANIA_P114_CB_6
 10
-6.7038
 20
-3.1395
 30
0
 70
     0
  0
VERTEX
  8
SCANIA_P114_CB_6
 10
-7.1879
 20
-3.3114
 30
0
 70
     0
  0
VERTEX
  8
SCANIA_P114_CB_6
 10
-7.6667
 20
-3.4949
 30
0
 70
     0
  0
VERTEX
  8
SCANIA_P114_CB_6
 10
-8.1399
 20
-3.6897
 30
0
 70
     0
  0
VERTEX
  8
SCANIA_P114_CB_6
 10
-8.6074
 20
-3.8956
 30
0
 70
     0
  0
VERTEX
  8
SCANIA_P114_CB_6
 10
-9.069
 20
-4.1125
 30
0
 70
     0
  0
VERTEX
  8
SCANIA_P114_CB_6
 10
-9.5246
 20
-4.3403
 30
0
 70
     0
  0
VERTEX
  8
SCANIA_P114_CB_6
 10
-9.974
 20
-4.5787
 30
0
 70
     0
  0
VERTEX
  8
SCANIA_P114_CB_6
 10
-10.4169
 20
-4.8276
 30
0
 70
     0
  0
VERTEX
  8
SCANIA_P114_CB_6
 10
-10.8533
 20
-5.0868
 30
0
 70
     0
  0
VERTEX
  8
SCANIA_P114_CB_6
 10
-11.2829
 20
-5.3561
 30
0
 70
     0
  0
VERTEX
  8
SCANIA_P114_CB_6
 10
-11.7057
 20
-5.6354
 30
0
 70
     0
  0
VERTEX
  8
SCANIA_P114_CB_6
 10
-12.1214
 20
-5.9245
 30
0
 70
     0
  0
VERTEX
  8
SCANIA_P114_CB_6
 10
-12.5298
 20
-6.2233
 30
0
 70
     0
  0
VERTEX
  8
SCANIA_P114_CB_6
 10
-12.9308
 20
-6.5314
 30
0
 70
     0
  0
VERTEX
  8
SCANIA_P114_CB_6
 10
-13.3242
 20
-6.8489
 30
0
 70
     0
  0
VERTEX
  8
SCANIA_P114_CB_6
 10
-13.7099
 20
-7.1755
 30
0
 70
     0
  0
VERTEX
  8
SCANIA_P114_CB_6
 10
-14.0876
 20
-7.5111
 30
0
 70
     0
  0
VERTEX
  8
SCANIA_P114_CB_6
 10
-14.4573
 20
-7.8554
 30
0
 70
     0
  0
VERTEX
  8
SCANIA_P114_CB_6
 10
-14.8186
 20
-8.2084
 30
0
 70
     0
  0
VERTEX
  8
SCANIA_P114_CB_6
 10
-15.1716
 20
-8.5697
 30
0
 70
     0
  0
VERTEX
  8
SCANIA_P114_CB_6
 10
-15.5159
 20
-8.9394
 30
0
 70
     0
  0
VERTEX
  8
SCANIA_P114_CB_6
 10
-15.8515
 20
-9.3171
 30
0
 70
     0
  0
VERTEX
  8
SCANIA_P114_CB_6
 10
-16.1781
 20
-9.7028
 30
0
 70
     0
  0
VERTEX
  8
SCANIA_P114_CB_6
 10
-16.4955
 20
-10.0962
 30
0
 70
     0
  0
VERTEX
  8
SCANIA_P114_CB_6
 10
-16.8037
 20
-10.4972
 30
0
 70
     0
  0
VERTEX
  8
SCANIA_P114_CB_6
 10
-17.1025
 20
-10.9056
 30
0
 70
     0
  0
VERTEX
  8
SCANIA_P114_CB_6
 10
-17.3916
 20
-11.3213
 30
0
 70
     0
  0
VERTEX
  8
SCANIA_P114_CB_6
 10
-17.6709
 20
-11.744
 30
0
 70
     0
  0
VERTEX
  8
SCANIA_P114_CB_6
 10
-17.9402
 20
-12.1737
 30
0
 70
     0
  0
VERTEX
  8
SCANIA_P114_CB_6
 10
-18.1994
 20
-12.6101
 30
0
 70
     0
  0
VERTEX
  8
SCANIA_P114_CB_6
 10
-18.4483
 20
-13.053
 30
0
 70
     0
  0
VERTEX
  8
SCANIA_P114_CB_6
 10
-18.6867
 20
-13.5024
 30
0
 70
     0
  0
VERTEX
  8
SCANIA_P114_CB_6
 10
-18.9145
 20
-13.958
 30
0
 70
     0
  0
VERTEX
  8
SCANIA_P114_CB_6
 10
-19.1314
 20
-14.4196
 30
0
 70
     0
  0
VERTEX
  8
SCANIA_P114_CB_6
 10
-19.3373
 20
-14.8871
 30
0
 70
     0
  0
VERTEX
  8
SCANIA_P114_CB_6
 10
-19.5321
 20
-15.3603
 30
0
 70
     0
  0
VERTEX
  8
SCANIA_P114_CB_6
 10
-19.7156
 20
-15.8391
 30
0
 70
     0
  0
VERTEX
  8
SCANIA_P114_CB_6
 10
-19.8875
 20
-16.3232
 30
0
 70
     0
  0
VERTEX
  8
SCANIA_P114_CB_6
 10
-20.0478
 20
-16.8126
 30
0
 70
     0
  0
VERTEX
  8
SCANIA_P114_CB_6
 10
-20.1962
 20
-17.3069
 30
0
 70
     0
  0
VERTEX
  8
SCANIA_P114_CB_6
 10
-20.3326
 20
-17.8062
 30
0
 70
     0
  0
VERTEX
  8
SCANIA_P114_CB_6
 10
-20.4568
 20
-18.3101
 30
0
 70
     0
  0
VERTEX
  8
SCANIA_P114_CB_6
 10
-20.5687
 20
-18.8185
 30
0
 70
     0
  0
VERTEX
  8
SCANIA_P114_CB_6
 10
-20.6681
 20
-19.3313
 30
0
 70
     0
  0
VERTEX
  8
SCANIA_P114_CB_6
 10
-20.7547
 20
-19.8483
 30
0
 70
     0
  0
VERTEX
  8
SCANIA_P114_CB_6
 10
-20.8285
 20
-20.3693
 30
0
 70
     0
  0
VERTEX
  8
SCANIA_P114_CB_6
 10
-20.8893
 20
-20.8941
 30
0
 70
     0
  0
VERTEX
  8
SCANIA_P114_CB_6
 10
-20.9368
 20
-21.4226
 30
0
 70
     0
  0
VERTEX
  8
SCANIA_P114_CB_6
 10
-20.971
 20
-21.9546
 30
0
 70
     0
  0
VERTEX
  8
SCANIA_P114_CB_6
 10
-20.9916
 20
-22.49
 30
0
 70
     0
  0
VERTEX
  8
SCANIA_P114_CB_6
 10
-20.9985
 20
-23.0284
 30
0
 70
     0
  0
VERTEX
  8
SCANIA_P114_CB_6
 10
-20.9985
 20
-23.0284
 30
0
 70
     0
  0
VERTEX
  8
SCANIA_P114_CB_6
 10
-20.9916
 20
-23.5669
 30
0
 70
     0
  0
VERTEX
  8
SCANIA_P114_CB_6
 10
-20.971
 20
-24.1023
 30
0
 70
     0
  0
VERTEX
  8
SCANIA_P114_CB_6
 10
-20.9368
 20
-24.6343
 30
0
 70
     0
  0
VERTEX
  8
SCANIA_P114_CB_6
 10
-20.8893
 20
-25.1628
 30
0
 70
     0
  0
VERTEX
  8
SCANIA_P114_CB_6
 10
-20.8285
 20
-25.6876
 30
0
 70
     0
  0
VERTEX
  8
SCANIA_P114_CB_6
 10
-20.7547
 20
-26.2086
 30
0
 70
     0
  0
VERTEX
  8
SCANIA_P114_CB_6
 10
-20.6681
 20
-26.7256
 30
0
 70
     0
  0
VERTEX
  8
SCANIA_P114_CB_6
 10
-20.5687
 20
-27.2384
 30
0
 70
     0
  0
VERTEX
  8
SCANIA_P114_CB_6
 10
-20.4568
 20
-27.7468
 30
0
 70
     0
  0
VERTEX
  8
SCANIA_P114_CB_6
 10
-20.3326
 20
-28.2507
 30
0
 70
     0
  0
VERTEX
  8
SCANIA_P114_CB_6
 10
-20.1962
 20
-28.75
 30
0
 70
     0
  0
VERTEX
  8
SCANIA_P114_CB_6
 10
-20.0478
 20
-29.2443
 30
0
 70
     0
  0
VERTEX
  8
SCANIA_P114_CB_6
 10
-19.8875
 20
-29.7337
 30
0
 70
     0
  0
VERTEX
  8
SCANIA_P114_CB_6
 10
-19.7156
 20
-30.2178
 30
0
 70
     0
  0
VERTEX
  8
SCANIA_P114_CB_6
 10
-19.5321
 20
-30.6966
 30
0
 70
     0
  0
VERTEX
  8
SCANIA_P114_CB_6
 10
-19.3373
 20
-31.1698
 30
0
 70
     0
  0
VERTEX
  8
SCANIA_P114_CB_6
 10
-19.1314
 20
-31.6373
 30
0
 70
     0
  0
VERTEX
  8
SCANIA_P114_CB_6
 10
-18.9145
 20
-32.0989
 30
0
 70
     0
  0
VERTEX
  8
SCANIA_P114_CB_6
 10
-18.6867
 20
-32.5545
 30
0
 70
     0
  0
VERTEX
  8
SCANIA_P114_CB_6
 10
-18.4483
 20
-33.0039
 30
0
 70
     0
  0
VERTEX
  8
SCANIA_P114_CB_6
 10
-18.1994
 20
-33.4468
 30
0
 70
     0
  0
VERTEX
  8
SCANIA_P114_CB_6
 10
-17.9402
 20
-33.8832
 30
0
 70
     0
  0
VERTEX
  8
SCANIA_P114_CB_6
 10
-17.6709
 20
-34.3128
 30
0
 70
     0
  0
VERTEX
  8
SCANIA_P114_CB_6
 10
-17.3916
 20
-34.7356
 30
0
 70
     0
  0
VERTEX
  8
SCANIA_P114_CB_6
 10
-17.1025
 20
-35.1513
 30
0
 70
     0
  0
VERTEX
  8
SCANIA_P114_CB_6
 10
-16.8037
 20
-35.5597
 30
0
 70
     0
  0
VERTEX
  8
SCANIA_P114_CB_6
 10
-16.4955
 20
-35.9607
 30
0
 70
     0
  0
VERTEX
  8
SCANIA_P114_CB_6
 10
-16.1781
 20
-36.3541
 30
0
 70
     0
  0
VERTEX
  8
SCANIA_P114_CB_6
 10
-15.8515
 20
-36.7398
 30
0
 70
     0
  0
VERTEX
  8
SCANIA_P114_CB_6
 10
-15.5159
 20
-37.1175
 30
0
 70
     0
  0
VERTEX
  8
SCANIA_P114_CB_6
 10
-15.1716
 20
-37.4872
 30
0
 70
     0
  0
VERTEX
  8
SCANIA_P114_CB_6
 10
-14.8186
 20
-37.8485
 30
0
 70
     0
  0
VERTEX
  8
SCANIA_P114_CB_6
 10
-14.4573
 20
-38.2015
 30
0
 70
     0
  0
VERTEX
  8
SCANIA_P114_CB_6
 10
-14.0876
 20
-38.5458
 30
0
 70
     0
  0
VERTEX
  8
SCANIA_P114_CB_6
 10
-13.7099
 20
-38.8814
 30
0
 70
     0
  0
VERTEX
  8
SCANIA_P114_CB_6
 10
-13.3242
 20
-39.208
 30
0
 70
     0
  0
VERTEX
  8
SCANIA_P114_CB_6
 10
-12.9308
 20
-39.5254
 30
0
 70
     0
  0
VERTEX
  8
SCANIA_P114_CB_6
 10
-12.5298
 20
-39.8336
 30
0
 70
     0
  0
VERTEX
  8
SCANIA_P114_CB_6
 10
-12.1214
 20
-40.1324
 30
0
 70
     0
  0
VERTEX
  8
SCANIA_P114_CB_6
 10
-11.7057
 20
-40.4215
 30
0
 70
     0
  0
VERTEX
  8
SCANIA_P114_CB_6
 10
-11.2829
 20
-40.7008
 30
0
 70
     0
  0
VERTEX
  8
SCANIA_P114_CB_6
 10
-10.8533
 20
-40.9701
 30
0
 70
     0
  0
VERTEX
  8
SCANIA_P114_CB_6
 10
-10.4169
 20
-41.2293
 30
0
 70
     0
  0
VERTEX
  8
SCANIA_P114_CB_6
 10
-9.974
 20
-41.4782
 30
0
 70
     0
  0
VERTEX
  8
SCANIA_P114_CB_6
 10
-9.5246
 20
-41.7166
 30
0
 70
     0
  0
VERTEX
  8
SCANIA_P114_CB_6
 10
-9.069
 20
-41.9444
 30
0
 70
     0
  0
VERTEX
  8
SCANIA_P114_CB_6
 10
-8.6074
 20
-42.1613
 30
0
 70
     0
  0
VERTEX
  8
SCANIA_P114_CB_6
 10
-8.1399
 20
-42.3672
 30
0
 70
     0
  0
VERTEX
  8
SCANIA_P114_CB_6
 10
-7.6667
 20
-42.562
 30
0
 70
     0
  0
VERTEX
  8
SCANIA_P114_CB_6
 10
-7.1879
 20
-42.7455
 30
0
 70
     0
  0
VERTEX
  8
SCANIA_P114_CB_6
 10
-6.7038
 20
-42.9174
 30
0
 70
     0
  0
VERTEX
  8
SCANIA_P114_CB_6
 10
-6.2144
 20
-43.0777
 30
0
 70
     0
  0
VERTEX
  8
SCANIA_P114_CB_6
 10
-5.7201
 20
-43.2261
 30
0
 70
     0
  0
VERTEX
  8
SCANIA_P114_CB_6
 10
-5.2208
 20
-43.3625
 30
0
 70
     0
  0
VERTEX
  8
SCANIA_P114_CB_6
 10
-4.7169
 20
-43.4867
 30
0
 70
     0
  0
VERTEX
  8
SCANIA_P114_CB_6
 10
-4.2085
 20
-43.5986
 30
0
 70
     0
  0
VERTEX
  8
SCANIA_P114_CB_6
 10
-3.6957
 20
-43.698
 30
0
 70
     0
  0
VERTEX
  8
SCANIA_P114_CB_6
 10
-3.1787
 20
-43.7846
 30
0
 70
     0
  0
VERTEX
  8
SCANIA_P114_CB_6
 10
-2.6577
 20
-43.8584
 30
0
 70
     0
  0
VERTEX
  8
SCANIA_P114_CB_6
 10
-2.1329
 20
-43.9192
 30
0
 70
     0
  0
VERTEX
  8
SCANIA_P114_CB_6
 10
-1.6044
 20
-43.9667
 30
0
 70
     0
  0
VERTEX
  8
SCANIA_P114_CB_6
 10
-1.0724
 20
-44.0009
 30
0
 70
     0
  0
VERTEX
  8
SCANIA_P114_CB_6
 10
-0.537
 20
-44.0215
 30
0
 70
     0
  0
VERTEX
  8
SCANIA_P114_CB_6
 10
0.0015
 20
-44.0284
 30
0
 70
     0
  0
VERTEX
  8
SCANIA_P114_CB_6
 10
0.0015
 20
-44.0284
 30
0
 70
     0
  0
VERTEX
  8
SCANIA_P114_CB_6
 10
0.5399
 20
-44.0215
 30
0
 70
     0
  0
VERTEX
  8
SCANIA_P114_CB_6
 10
1.0753
 20
-44.0009
 30
0
 70
     0
  0
VERTEX
  8
SCANIA_P114_CB_6
 10
1.6073
 20
-43.9667
 30
0
 70
     0
  0
VERTEX
  8
SCANIA_P114_CB_6
 10
2.1358
 20
-43.9192
 30
0
 70
     0
  0
VERTEX
  8
SCANIA_P114_CB_6
 10
2.6606
 20
-43.8584
 30
0
 70
     0
  0
VERTEX
  8
SCANIA_P114_CB_6
 10
3.1816
 20
-43.7846
 30
0
 70
     0
  0
VERTEX
  8
SCANIA_P114_CB_6
 10
3.6986
 20
-43.698
 30
0
 70
     0
  0
VERTEX
  8
SCANIA_P114_CB_6
 10
4.2114
 20
-43.5986
 30
0
 70
     0
  0
VERTEX
  8
SCANIA_P114_CB_6
 10
4.7198
 20
-43.4867
 30
0
 70
     0
  0
VERTEX
  8
SCANIA_P114_CB_6
 10
5.2237
 20
-43.3625
 30
0
 70
     0
  0
VERTEX
  8
SCANIA_P114_CB_6
 10
5.723
 20
-43.2261
 30
0
 70
     0
  0
VERTEX
  8
SCANIA_P114_CB_6
 10
6.2174
 20
-43.0777
 30
0
 70
     0
  0
VERTEX
  8
SCANIA_P114_CB_6
 10
6.7067
 20
-42.9174
 30
0
 70
     0
  0
VERTEX
  8
SCANIA_P114_CB_6
 10
7.1908
 20
-42.7455
 30
0
 70
     0
  0
VERTEX
  8
SCANIA_P114_CB_6
 10
7.6696
 20
-42.562
 30
0
 70
     0
  0
VERTEX
  8
SCANIA_P114_CB_6
 10
8.1428
 20
-42.3672
 30
0
 70
     0
  0
VERTEX
  8
SCANIA_P114_CB_6
 10
8.6103
 20
-42.1613
 30
0
 70
     0
  0
VERTEX
  8
SCANIA_P114_CB_6
 10
9.0719
 20
-41.9444
 30
0
 70
     0
  0
VERTEX
  8
SCANIA_P114_CB_6
 10
9.5275
 20
-41.7166
 30
0
 70
     0
  0
VERTEX
  8
SCANIA_P114_CB_6
 10
9.9769
 20
-41.4782
 30
0
 70
     0
  0
VERTEX
  8
SCANIA_P114_CB_6
 10
10.4198
 20
-41.2293
 30
0
 70
     0
  0
VERTEX
  8
SCANIA_P114_CB_6
 10
10.8562
 20
-40.9701
 30
0
 70
     0
  0
VERTEX
  8
SCANIA_P114_CB_6
 10
11.2859
 20
-40.7008
 30
0
 70
     0
  0
VERTEX
  8
SCANIA_P114_CB_6
 10
11.7086
 20
-40.4215
 30
0
 70
     0
  0
VERTEX
  8
SCANIA_P114_CB_6
 10
12.1243
 20
-40.1324
 30
0
 70
     0
  0
VERTEX
  8
SCANIA_P114_CB_6
 10
12.5327
 20
-39.8336
 30
0
 70
     0
  0
VERTEX
  8
SCANIA_P114_CB_6
 10
12.9337
 20
-39.5254
 30
0
 70
     0
  0
VERTEX
  8
SCANIA_P114_CB_6
 10
13.3271
 20
-39.208
 30
0
 70
     0
  0
VERTEX
  8
SCANIA_P114_CB_6
 10
13.7128
 20
-38.8814
 30
0
 70
     0
  0
VERTEX
  8
SCANIA_P114_CB_6
 10
14.0905
 20
-38.5458
 30
0
 70
     0
  0
VERTEX
  8
SCANIA_P114_CB_6
 10
14.4602
 20
-38.2015
 30
0
 70
     0
  0
VERTEX
  8
SCANIA_P114_CB_6
 10
14.8216
 20
-37.8485
 30
0
 70
     0
  0
VERTEX
  8
SCANIA_P114_CB_6
 10
15.1745
 20
-37.4872
 30
0
 70
     0
  0
VERTEX
  8
SCANIA_P114_CB_6
 10
15.5188
 20
-37.1175
 30
0
 70
     0
  0
VERTEX
  8
SCANIA_P114_CB_6
 10
15.8544
 20
-36.7398
 30
0
 70
     0
  0
VERTEX
  8
SCANIA_P114_CB_6
 10
16.181
 20
-36.3541
 30
0
 70
     0
  0
VERTEX
  8
SCANIA_P114_CB_6
 10
16.4985
 20
-35.9607
 30
0
 70
     0
  0
VERTEX
  8
SCANIA_P114_CB_6
 10
16.8067
 20
-35.5597
 30
0
 70
     0
  0
VERTEX
  8
SCANIA_P114_CB_6
 10
17.1054
 20
-35.1513
 30
0
 70
     0
  0
VERTEX
  8
SCANIA_P114_CB_6
 10
17.3945
 20
-34.7356
 30
0
 70
     0
  0
VERTEX
  8
SCANIA_P114_CB_6
 10
17.6738
 20
-34.3128
 30
0
 70
     0
  0
VERTEX
  8
SCANIA_P114_CB_6
 10
17.9431
 20
-33.8832
 30
0
 70
     0
  0
VERTEX
  8
SCANIA_P114_CB_6
 10
18.2023
 20
-33.4468
 30
0
 70
     0
  0
VERTEX
  8
SCANIA_P114_CB_6
 10
18.4512
 20
-33.0039
 30
0
 70
     0
  0
VERTEX
  8
SCANIA_P114_CB_6
 10
18.6896
 20
-32.5545
 30
0
 70
     0
  0
VERTEX
  8
SCANIA_P114_CB_6
 10
18.9174
 20
-32.0989
 30
0
 70
     0
  0
VERTEX
  8
SCANIA_P114_CB_6
 10
19.1343
 20
-31.6373
 30
0
 70
     0
  0
VERTEX
  8
SCANIA_P114_CB_6
 10
19.3402
 20
-31.1698
 30
0
 70
     0
  0
VERTEX
  8
SCANIA_P114_CB_6
 10
19.535
 20
-30.6966
 30
0
 70
     0
  0
VERTEX
  8
SCANIA_P114_CB_6
 10
19.7185
 20
-30.2178
 30
0
 70
     0
  0
VERTEX
  8
SCANIA_P114_CB_6
 10
19.8904
 20
-29.7337
 30
0
 70
     0
  0
VERTEX
  8
SCANIA_P114_CB_6
 10
20.0507
 20
-29.2443
 30
0
 70
     0
  0
VERTEX
  8
SCANIA_P114_CB_6
 10
20.1991
 20
-28.75
 30
0
 70
     0
  0
VERTEX
  8
SCANIA_P114_CB_6
 10
20.3355
 20
-28.2507
 30
0
 70
     0
  0
VERTEX
  8
SCANIA_P114_CB_6
 10
20.4597
 20
-27.7468
 30
0
 70
     0
  0
VERTEX
  8
SCANIA_P114_CB_6
 10
20.5716
 20
-27.2384
 30
0
 70
     0
  0
VERTEX
  8
SCANIA_P114_CB_6
 10
20.671
 20
-26.7256
 30
0
 70
     0
  0
VERTEX
  8
SCANIA_P114_CB_6
 10
20.7576
 20
-26.2086
 30
0
 70
     0
  0
VERTEX
  8
SCANIA_P114_CB_6
 10
20.8314
 20
-25.6876
 30
0
 70
     0
  0
VERTEX
  8
SCANIA_P114_CB_6
 10
20.8922
 20
-25.1628
 30
0
 70
     0
  0
VERTEX
  8
SCANIA_P114_CB_6
 10
20.9397
 20
-24.6343
 30
0
 70
     0
  0
VERTEX
  8
SCANIA_P114_CB_6
 10
20.9739
 20
-24.1023
 30
0
 70
     0
  0
VERTEX
  8
SCANIA_P114_CB_6
 10
20.9945
 20
-23.5669
 30
0
 70
     0
  0
VERTEX
  8
SCANIA_P114_CB_6
 10
21.0015
 20
-23.0284
 30
0
 70
     0
  0
SEQEND
  0
POLYLINE
  8
SCANIA_P114_CB_6
  6
CONTINUOUS
 62
     7
 66
     1
 40
0.0139
 41
0.0139
  0
VERTEX
  8
SCANIA_P114_CB_6
 10
55.867
 20
-10.5295
 30
0
 70
     0
  0
VERTEX
  8
SCANIA_P114_CB_6
 10
55.8672
 20
-10.5467
 30
0
 70
     0
  0
VERTEX
  8
SCANIA_P114_CB_6
 10
55.8672
 20
-10.5639
 30
0
 70
     0
  0
SEQEND
  0
POLYLINE
  8
SCANIA_P114_CB_6
  6
CONTINUOUS
 62
     7
 66
     1
 40
0.0139
 41
0.0139
  0
VERTEX
  8
SCANIA_P114_CB_6
 10
-24.4626
 20
7.3968
 30
0
 70
     0
  0
VERTEX
  8
SCANIA_P114_CB_6
 10
-19.8384
 20
60.2517
 30
0
 70
     0
  0
SEQEND
  0
POLYLINE
  8
SCANIA_P114_CB_6
  6
CONTINUOUS
 62
     7
 66
     1
 40
0.0139
 41
0.0139
  0
VERTEX
  8
SCANIA_P114_CB_6
 10
-16.0422
 20
63.8436
 30
0
 70
     0
  0
VERTEX
  8
SCANIA_P114_CB_6
 10
40.1196
 20
61.3915
 30
0
 70
     0
  0
SEQEND
  0
POLYLINE
  8
SCANIA_P114_CB_6
  6
CONTINUOUS
 62
     7
 66
     1
 40
0.0139
 41
0.0139
  0
VERTEX
  8
SCANIA_P114_CB_6
 10
-19.8384
 20
60.2517
 30
0
 70
     0
  0
VERTEX
  8
SCANIA_P114_CB_6
 10
-19.818
 20
60.4365
 30
0
 70
     0
  0
VERTEX
  8
SCANIA_P114_CB_6
 10
-19.7893
 20
60.6186
 30
0
 70
     0
  0
VERTEX
  8
SCANIA_P114_CB_6
 10
-19.7524
 20
60.7977
 30
0
 70
     0
  0
VERTEX
  8
SCANIA_P114_CB_6
 10
-19.7076
 20
60.9736
 30
0
 70
     0
  0
VERTEX
  8
SCANIA_P114_CB_6
 10
-19.655
 20
61.1462
 30
0
 70
     0
  0
VERTEX
  8
SCANIA_P114_CB_6
 10
-19.5949
 20
61.3152
 30
0
 70
     0
  0
VERTEX
  8
SCANIA_P114_CB_6
 10
-19.5274
 20
61.4806
 30
0
 70
     0
  0
VERTEX
  8
SCANIA_P114_CB_6
 10
-19.4528
 20
61.6419
 30
0
 70
     0
  0
VERTEX
  8
SCANIA_P114_CB_6
 10
-19.3712
 20
61.7992
 30
0
 70
     0
  0
VERTEX
  8
SCANIA_P114_CB_6
 10
-19.2829
 20
61.9522
 30
0
 70
     0
  0
VERTEX
  8
SCANIA_P114_CB_6
 10
-19.1881
 20
62.1007
 30
0
 70
     0
  0
VERTEX
  8
SCANIA_P114_CB_6
 10
-19.0869
 20
62.2445
 30
0
 70
     0
  0
VERTEX
  8
SCANIA_P114_CB_6
 10
-18.9796
 20
62.3834
 30
0
 70
     0
  0
VERTEX
  8
SCANIA_P114_CB_6
 10
-18.8663
 20
62.5172
 30
0
 70
     0
  0
VERTEX
  8
SCANIA_P114_CB_6
 10
-18.7474
 20
62.6459
 30
0
 70
     0
  0
VERTEX
  8
SCANIA_P114_CB_6
 10
-18.6228
 20
62.769
 30
0
 70
     0
  0
VERTEX
  8
SCANIA_P114_CB_6
 10
-18.493
 20
62.8865
 30
0
 70
     0
  0
VERTEX
  8
SCANIA_P114_CB_6
 10
-18.358
 20
62.9982
 30
0
 70
     0
  0
VERTEX
  8
SCANIA_P114_CB_6
 10
-18.2181
 20
63.1039
 30
0
 70
     0
  0
VERTEX
  8
SCANIA_P114_CB_6
 10
-18.0734
 20
63.2034
 30
0
 70
     0
  0
VERTEX
  8
SCANIA_P114_CB_6
 10
-17.9243
 20
63.2965
 30
0
 70
     0
  0
VERTEX
  8
SCANIA_P114_CB_6
 10
-17.7708
 20
63.3829
 30
0
 70
     0
  0
VERTEX
  8
SCANIA_P114_CB_6
 10
-17.6132
 20
63.4626
 30
0
 70
     0
  0
VERTEX
  8
SCANIA_P114_CB_6
 10
-17.4516
 20
63.5354
 30
0
 70
     0
  0
VERTEX
  8
SCANIA_P114_CB_6
 10
-17.2863
 20
63.601
 30
0
 70
     0
  0
VERTEX
  8
SCANIA_P114_CB_6
 10
-17.1176
 20
63.6592
 30
0
 70
     0
  0
VERTEX
  8
SCANIA_P114_CB_6
 10
-16.9454
 20
63.7099
 30
0
 70
     0
  0
VERTEX
  8
SCANIA_P114_CB_6
 10
-16.7702
 20
63.7528
 30
0
 70
     0
  0
VERTEX
  8
SCANIA_P114_CB_6
 10
-16.5921
 20
63.7879
 30
0
 70
     0
  0
VERTEX
  8
SCANIA_P114_CB_6
 10
-16.4112
 20
63.8148
 30
0
 70
     0
  0
VERTEX
  8
SCANIA_P114_CB_6
 10
-16.2279
 20
63.8334
 30
0
 70
     0
  0
VERTEX
  8
SCANIA_P114_CB_6
 10
-16.0422
 20
63.8436
 30
0
 70
     0
  0
SEQEND
  0
POLYLINE
  8
SCANIA_P114_CB_6
  6
CONTINUOUS
 62
     7
 66
     1
 40
0.0139
 41
0.0139
  0
VERTEX
  8
SCANIA_P114_CB_6
 10
55.0101
 20
26.2643
 30
0
 70
     0
  0
VERTEX
  8
SCANIA_P114_CB_6
 10
55.17
 20
26.282
 30
0
 70
     0
  0
VERTEX
  8
SCANIA_P114_CB_6
 10
55.2242
 20
26.2987
 30
0
 70
     0
  0
SEQEND
  0
POLYLINE
  8
SCANIA_P114_CB_6
  6
CONTINUOUS
 62
     7
 66
     1
 40
0.0139
 41
0.0139
  0
VERTEX
  8
SCANIA_P114_CB_6
 10
47.9936
 20
28.8062
 30
0
 70
     0
  0
VERTEX
  8
SCANIA_P114_CB_6
 10
47.9936
 20
28.8794
 30
0
 70
     0
  0
SEQEND
  0
POLYLINE
  8
SCANIA_P114_CB_6
  6
CONTINUOUS
 62
     7
 66
     1
 40
0.0139
 41
0.0139
  0
VERTEX
  8
SCANIA_P114_CB_6
 10
53.6979
 20
27.2314
 30
0
 70
     0
  0
VERTEX
  8
SCANIA_P114_CB_6
 10
53.6741
 20
27.5896
 30
0
 70
     0
  0
VERTEX
  8
SCANIA_P114_CB_6
 10
53.6429
 20
27.773
 30
0
 70
     0
  0
VERTEX
  8
SCANIA_P114_CB_6
 10
53.5978
 20
27.956
 30
0
 70
     0
  0
VERTEX
  8
SCANIA_P114_CB_6
 10
53.5386
 20
28.1355
 30
0
 70
     0
  0
VERTEX
  8
SCANIA_P114_CB_6
 10
53.4655
 20
28.3086
 30
0
 70
     0
  0
VERTEX
  8
SCANIA_P114_CB_6
 10
53.379
 20
28.4721
 30
0
 70
     0
  0
VERTEX
  8
SCANIA_P114_CB_6
 10
53.2803
 20
28.6233
 30
0
 70
     0
  0
VERTEX
  8
SCANIA_P114_CB_6
 10
53.1707
 20
28.7596
 30
0
 70
     0
  0
VERTEX
  8
SCANIA_P114_CB_6
 10
53.0522
 20
28.879
 30
0
 70
     0
  0
VERTEX
  8
SCANIA_P114_CB_6
 10
52.9268
 20
28.98
 30
0
 70
     0
  0
VERTEX
  8
SCANIA_P114_CB_6
 10
52.7968
 20
29.0617
 30
0
 70
     0
  0
VERTEX
  8
SCANIA_P114_CB_6
 10
52.6643
 20
29.1239
 30
0
 70
     0
  0
VERTEX
  8
SCANIA_P114_CB_6
 10
52.5313
 20
29.167
 30
0
 70
     0
  0
VERTEX
  8
SCANIA_P114_CB_6
 10
52.4
 20
29.1919
 30
0
 70
     0
  0
VERTEX
  8
SCANIA_P114_CB_6
 10
52.2719
 20
29.1999
 30
0
 70
     0
  0
SEQEND
  0
POLYLINE
  8
SCANIA_P114_CB_6
  6
CONTINUOUS
 62
     7
 66
     1
 40
0.0139
 41
0.0139
  0
VERTEX
  8
SCANIA_P114_CB_6
 10
53.2018
 20
-10.5639
 30
0
 70
     0
  0
VERTEX
  8
SCANIA_P114_CB_6
 10
53.0567
 20
-10.5678
 30
0
 70
     0
  0
VERTEX
  8
SCANIA_P114_CB_6
 10
52.9098
 20
-10.5792
 30
0
 70
     0
  0
VERTEX
  8
SCANIA_P114_CB_6
 10
52.7609
 20
-10.5973
 30
0
 70
     0
  0
VERTEX
  8
SCANIA_P114_CB_6
 10
52.6101
 20
-10.6216
 30
0
 70
     0
  0
VERTEX
  8
SCANIA_P114_CB_6
 10
52.3025
 20
-10.6868
 30
0
 70
     0
  0
VERTEX
  8
SCANIA_P114_CB_6
 10
51.9869
 20
-10.7719
 30
0
 70
     0
  0
VERTEX
  8
SCANIA_P114_CB_6
 10
51.8267
 20
-10.8209
 30
0
 70
     0
  0
VERTEX
  8
SCANIA_P114_CB_6
 10
51.6661
 20
-10.8734
 30
0
 70
     0
  0
VERTEX
  8
SCANIA_P114_CB_6
 10
51.5049
 20
-10.9292
 30
0
 70
     0
  0
VERTEX
  8
SCANIA_P114_CB_6
 10
51.3431
 20
-10.988
 30
0
 70
     0
  0
VERTEX
  8
SCANIA_P114_CB_6
 10
51.0177
 20
-11.1136
 30
0
 70
     0
  0
VERTEX
  8
SCANIA_P114_CB_6
 10
50.6895
 20
-11.249
 30
0
 70
     0
  0
VERTEX
  8
SCANIA_P114_CB_6
 10
50.3582
 20
-11.3927
 30
0
 70
     0
  0
VERTEX
  8
SCANIA_P114_CB_6
 10
50.0237
 20
-11.5439
 30
0
 70
     0
  0
VERTEX
  8
SCANIA_P114_CB_6
 10
49.9395
 20
-11.5827
 30
0
 70
     0
  0
VERTEX
  8
SCANIA_P114_CB_6
 10
49.8552
 20
-11.6219
 30
0
 70
     0
  0
VERTEX
  8
SCANIA_P114_CB_6
 10
49.7708
 20
-11.6614
 30
0
 70
     0
  0
VERTEX
  8
SCANIA_P114_CB_6
 10
49.6865
 20
-11.7011
 30
0
 70
     0
  0
VERTEX
  8
SCANIA_P114_CB_6
 10
49.5179
 20
-11.7812
 30
0
 70
     0
  0
VERTEX
  8
SCANIA_P114_CB_6
 10
49.3492
 20
-11.8623
 30
0
 70
     0
  0
VERTEX
  8
SCANIA_P114_CB_6
 10
49.0115
 20
-12.0267
 30
0
 70
     0
  0
VERTEX
  8
SCANIA_P114_CB_6
 10
48.6732
 20
-12.1935
 30
0
 70
     0
  0
VERTEX
  8
SCANIA_P114_CB_6
 10
48.5037
 20
-12.2777
 30
0
 70
     0
  0
VERTEX
  8
SCANIA_P114_CB_6
 10
48.334
 20
-12.3623
 30
0
 70
     0
  0
VERTEX
  8
SCANIA_P114_CB_6
 10
48.249
 20
-12.4047
 30
0
 70
     0
  0
VERTEX
  8
SCANIA_P114_CB_6
 10
48.1639
 20
-12.4472
 30
0
 70
     0
  0
VERTEX
  8
SCANIA_P114_CB_6
 10
48.1214
 20
-12.4685
 30
0
 70
     0
  0
VERTEX
  8
SCANIA_P114_CB_6
 10
48.0788
 20
-12.4898
 30
0
 70
     0
  0
VERTEX
  8
SCANIA_P114_CB_6
 10
48.0575
 20
-12.5004
 30
0
 70
     0
  0
VERTEX
  8
SCANIA_P114_CB_6
 10
48.0362
 20
-12.5111
 30
0
 70
     0
  0
VERTEX
  8
SCANIA_P114_CB_6
 10
48.0148
 20
-12.5218
 30
0
 70
     0
  0
VERTEX
  8
SCANIA_P114_CB_6
 10
47.9936
 20
-12.5324
 30
0
 70
     0
  0
SEQEND
  0
POLYLINE
  8
SCANIA_P114_CB_6
  6
CONTINUOUS
 62
     7
 66
     1
 40
0.0139
 41
0.0139
  0
VERTEX
  8
SCANIA_P114_CB_6
 10
58.8204
 20
-16.8631
 30
0
 70
     0
  0
VERTEX
  8
SCANIA_P114_CB_6
 10
58.8204
 20
-13.4655
 30
0
 70
     0
  0
SEQEND
  0
POLYLINE
  8
SCANIA_P114_CB_6
  6
CONTINUOUS
 62
     7
 66
     1
 40
0.0139
 41
0.0139
  0
VERTEX
  8
SCANIA_P114_CB_6
 10
25.7664
 20
-20.8001
 30
0
 70
     0
  0
VERTEX
  8
SCANIA_P114_CB_6
 10
54.8833
 20
-20.8001
 30
0
 70
     0
  0
SEQEND
  0
POLYLINE
  8
SCANIA_P114_CB_6
  6
CONTINUOUS
 62
     7
 66
     1
 40
0.0139
 41
0.0139
  0
VERTEX
  8
SCANIA_P114_CB_6
 10
58.8204
 20
-16.8631
 30
0
 70
     0
  0
VERTEX
  8
SCANIA_P114_CB_6
 10
58.8154
 20
-17.0656
 30
0
 70
     0
  0
VERTEX
  8
SCANIA_P114_CB_6
 10
58.8003
 20
-17.2655
 30
0
 70
     0
  0
VERTEX
  8
SCANIA_P114_CB_6
 10
58.7754
 20
-17.4626
 30
0
 70
     0
  0
VERTEX
  8
SCANIA_P114_CB_6
 10
58.7409
 20
-17.6564
 30
0
 70
     0
  0
VERTEX
  8
SCANIA_P114_CB_6
 10
58.697
 20
-17.8469
 30
0
 70
     0
  0
VERTEX
  8
SCANIA_P114_CB_6
 10
58.6441
 20
-18.0337
 30
0
 70
     0
  0
VERTEX
  8
SCANIA_P114_CB_6
 10
58.5823
 20
-18.2166
 30
0
 70
     0
  0
VERTEX
  8
SCANIA_P114_CB_6
 10
58.5118
 20
-18.3954
 30
0
 70
     0
  0
VERTEX
  8
SCANIA_P114_CB_6
 10
58.4331
 20
-18.5699
 30
0
 70
     0
  0
VERTEX
  8
SCANIA_P114_CB_6
 10
58.3462
 20
-18.7396
 30
0
 70
     0
  0
VERTEX
  8
SCANIA_P114_CB_6
 10
58.2514
 20
-18.9045
 30
0
 70
     0
  0
VERTEX
  8
SCANIA_P114_CB_6
 10
58.149
 20
-19.0643
 30
0
 70
     0
  0
VERTEX
  8
SCANIA_P114_CB_6
 10
58.0393
 20
-19.2187
 30
0
 70
     0
  0
VERTEX
  8
SCANIA_P114_CB_6
 10
57.9225
 20
-19.3675
 30
0
 70
     0
  0
VERTEX
  8
SCANIA_P114_CB_6
 10
57.7987
 20
-19.5103
 30
0
 70
     0
  0
VERTEX
  8
SCANIA_P114_CB_6
 10
57.6684
 20
-19.6471
 30
0
 70
     0
  0
VERTEX
  8
SCANIA_P114_CB_6
 10
57.5317
 20
-19.7775
 30
0
 70
     0
  0
VERTEX
  8
SCANIA_P114_CB_6
 10
57.3888
 20
-19.9013
 30
0
 70
     0
  0
VERTEX
  8
SCANIA_P114_CB_6
 10
57.2401
 20
-20.0182
 30
0
 70
     0
  0
VERTEX
  8
SCANIA_P114_CB_6
 10
57.0858
 20
-20.128
 30
0
 70
     0
  0
VERTEX
  8
SCANIA_P114_CB_6
 10
56.926
 20
-20.2304
 30
0
 70
     0
  0
VERTEX
  8
SCANIA_P114_CB_6
 10
56.7612
 20
-20.3252
 30
0
 70
     0
  0
VERTEX
  8
SCANIA_P114_CB_6
 10
56.5914
 20
-20.4122
 30
0
 70
     0
  0
VERTEX
  8
SCANIA_P114_CB_6
 10
56.417
 20
-20.491
 30
0
 70
     0
  0
VERTEX
  8
SCANIA_P114_CB_6
 10
56.2383
 20
-20.5615
 30
0
 70
     0
  0
VERTEX
  8
SCANIA_P114_CB_6
 10
56.0554
 20
-20.6234
 30
0
 70
     0
  0
VERTEX
  8
SCANIA_P114_CB_6
 10
55.8685
 20
-20.6764
 30
0
 70
     0
  0
VERTEX
  8
SCANIA_P114_CB_6
 10
55.6781
 20
-20.7204
 30
0
 70
     0
  0
VERTEX
  8
SCANIA_P114_CB_6
 10
55.4842
 20
-20.7549
 30
0
 70
     0
  0
VERTEX
  8
SCANIA_P114_CB_6
 10
55.2872
 20
-20.7799
 30
0
 70
     0
  0
VERTEX
  8
SCANIA_P114_CB_6
 10
55.0874
 20
-20.7951
 30
0
 70
     0
  0
VERTEX
  8
SCANIA_P114_CB_6
 10
54.8848
 20
-20.8001
 30
0
 70
     0
  0
SEQEND
  0
POLYLINE
  8
SCANIA_P114_CB_6
  6
CONTINUOUS
 62
     7
 66
     1
 40
0.0139
 41
0.0139
  0
VERTEX
  8
SCANIA_P114_CB_6
 10
55.9689
 20
-10.5639
 30
0
 70
     0
  0
VERTEX
  8
SCANIA_P114_CB_6
 10
53.2018
 20
-10.5639
 30
0
 70
     0
  0
SEQEND
  0
POLYLINE
  8
SCANIA_P114_CB_6
  6
CONTINUOUS
 62
     7
 66
     1
 40
0.0139
 41
0.0139
  0
VERTEX
  8
SCANIA_P114_CB_6
 10
55.9689
 20
-10.5639
 30
0
 70
     0
  0
VERTEX
  8
SCANIA_P114_CB_6
 10
56.1163
 20
-10.57
 30
0
 70
     0
  0
VERTEX
  8
SCANIA_P114_CB_6
 10
56.2618
 20
-10.5834
 30
0
 70
     0
  0
VERTEX
  8
SCANIA_P114_CB_6
 10
56.405
 20
-10.6039
 30
0
 70
     0
  0
VERTEX
  8
SCANIA_P114_CB_6
 10
56.5459
 20
-10.6312
 30
0
 70
     0
  0
VERTEX
  8
SCANIA_P114_CB_6
 10
56.6843
 20
-10.6652
 30
0
 70
     0
  0
VERTEX
  8
SCANIA_P114_CB_6
 10
56.8199
 20
-10.7058
 30
0
 70
     0
  0
VERTEX
  8
SCANIA_P114_CB_6
 10
56.9527
 20
-10.7527
 30
0
 70
     0
  0
VERTEX
  8
SCANIA_P114_CB_6
 10
57.0824
 20
-10.8058
 30
0
 70
     0
  0
VERTEX
  8
SCANIA_P114_CB_6
 10
57.2088
 20
-10.8648
 30
0
 70
     0
  0
VERTEX
  8
SCANIA_P114_CB_6
 10
57.3319
 20
-10.9297
 30
0
 70
     0
  0
VERTEX
  8
SCANIA_P114_CB_6
 10
57.4513
 20
-11.0002
 30
0
 70
     0
  0
VERTEX
  8
SCANIA_P114_CB_6
 10
57.567
 20
-11.0762
 30
0
 70
     0
  0
VERTEX
  8
SCANIA_P114_CB_6
 10
57.6788
 20
-11.1574
 30
0
 70
     0
  0
VERTEX
  8
SCANIA_P114_CB_6
 10
57.7864
 20
-11.2437
 30
0
 70
     0
  0
VERTEX
  8
SCANIA_P114_CB_6
 10
57.8898
 20
-11.335
 30
0
 70
     0
  0
VERTEX
  8
SCANIA_P114_CB_6
 10
57.9887
 20
-11.431
 30
0
 70
     0
  0
VERTEX
  8
SCANIA_P114_CB_6
 10
58.0829
 20
-11.5315
 30
0
 70
     0
  0
VERTEX
  8
SCANIA_P114_CB_6
 10
58.1723
 20
-11.6364
 30
0
 70
     0
  0
VERTEX
  8
SCANIA_P114_CB_6
 10
58.2568
 20
-11.7456
 30
0
 70
     0
  0
VERTEX
  8
SCANIA_P114_CB_6
 10
58.336
 20
-11.8587
 30
0
 70
     0
  0
VERTEX
  8
SCANIA_P114_CB_6
 10
58.41
 20
-11.9757
 30
0
 70
     0
  0
VERTEX
  8
SCANIA_P114_CB_6
 10
58.4784
 20
-12.0964
 30
0
 70
     0
  0
VERTEX
  8
SCANIA_P114_CB_6
 10
58.5411
 20
-12.2206
 30
0
 70
     0
  0
VERTEX
  8
SCANIA_P114_CB_6
 10
58.5979
 20
-12.348
 30
0
 70
     0
  0
VERTEX
  8
SCANIA_P114_CB_6
 10
58.6487
 20
-12.4786
 30
0
 70
     0
  0
VERTEX
  8
SCANIA_P114_CB_6
 10
58.6933
 20
-12.6122
 30
0
 70
     0
  0
VERTEX
  8
SCANIA_P114_CB_6
 10
58.7315
 20
-12.7485
 30
0
 70
     0
  0
VERTEX
  8
SCANIA_P114_CB_6
 10
58.7631
 20
-12.8874
 30
0
 70
     0
  0
VERTEX
  8
SCANIA_P114_CB_6
 10
58.788
 20
-13.0288
 30
0
 70
     0
  0
VERTEX
  8
SCANIA_P114_CB_6
 10
58.8059
 20
-13.1724
 30
0
 70
     0
  0
VERTEX
  8
SCANIA_P114_CB_6
 10
58.8168
 20
-13.318
 30
0
 70
     0
  0
VERTEX
  8
SCANIA_P114_CB_6
 10
58.8204
 20
-13.4655
 30
0
 70
     0
  0
SEQEND
  0
POLYLINE
  8
SCANIA_P114_CB_6
  6
CONTINUOUS
 62
     7
 66
     1
 40
0.0139
 41
0.0139
  0
VERTEX
  8
SCANIA_P114_CB_6
 10
56.8518
 20
-13.4655
 30
0
 70
     0
  0
VERTEX
  8
SCANIA_P114_CB_6
 10
56.8518
 20
-16.8631
 30
0
 70
     0
  0
SEQEND
  0
POLYLINE
  8
SCANIA_P114_CB_6
  6
CONTINUOUS
 62
     7
 66
     1
 40
0.0139
 41
0.0139
  0
VERTEX
  8
SCANIA_P114_CB_6
 10
54.8833
 20
-18.8316
 30
0
 70
     0
  0
VERTEX
  8
SCANIA_P114_CB_6
 10
25.5072
 20
-18.8316
 30
0
 70
     0
  0
SEQEND
  0
POLYLINE
  8
SCANIA_P114_CB_6
  6
CONTINUOUS
 62
     7
 66
     1
 40
0.0139
 41
0.0139
  0
VERTEX
  8
SCANIA_P114_CB_6
 10
56.8518
 20
-16.8631
 30
0
 70
     0
  0
VERTEX
  8
SCANIA_P114_CB_6
 10
56.8418
 20
-17.0643
 30
0
 70
     0
  0
VERTEX
  8
SCANIA_P114_CB_6
 10
56.8121
 20
-17.2598
 30
0
 70
     0
  0
VERTEX
  8
SCANIA_P114_CB_6
 10
56.7637
 20
-17.4484
 30
0
 70
     0
  0
VERTEX
  8
SCANIA_P114_CB_6
 10
56.6976
 20
-17.6293
 30
0
 70
     0
  0
VERTEX
  8
SCANIA_P114_CB_6
 10
56.6148
 20
-17.8014
 30
0
 70
     0
  0
VERTEX
  8
SCANIA_P114_CB_6
 10
56.5162
 20
-17.9637
 30
0
 70
     0
  0
VERTEX
  8
SCANIA_P114_CB_6
 10
56.4029
 20
-18.1153
 30
0
 70
     0
  0
VERTEX
  8
SCANIA_P114_CB_6
 10
56.2759
 20
-18.2551
 30
0
 70
     0
  0
VERTEX
  8
SCANIA_P114_CB_6
 10
56.1361
 20
-18.3822
 30
0
 70
     0
  0
VERTEX
  8
SCANIA_P114_CB_6
 10
55.9846
 20
-18.4955
 30
0
 70
     0
  0
VERTEX
  8
SCANIA_P114_CB_6
 10
55.8223
 20
-18.5942
 30
0
 70
     0
  0
VERTEX
  8
SCANIA_P114_CB_6
 10
55.6502
 20
-18.6771
 30
0
 70
     0
  0
VERTEX
  8
SCANIA_P114_CB_6
 10
55.4693
 20
-18.7432
 30
0
 70
     0
  0
VERTEX
  8
SCANIA_P114_CB_6
 10
55.2807
 20
-18.7917
 30
0
 70
     0
  0
VERTEX
  8
SCANIA_P114_CB_6
 10
55.0853
 20
-18.8215
 30
0
 70
     0
  0
VERTEX
  8
SCANIA_P114_CB_6
 10
54.8841
 20
-18.8316
 30
0
 70
     0
  0
SEQEND
  0
POLYLINE
  8
SCANIA_P114_CB_6
  6
CONTINUOUS
 62
     7
 66
     1
 40
0.0139
 41
0.0139
  0
VERTEX
  8
SCANIA_P114_CB_6
 10
47.9936
 20
-12.5324
 30
0
 70
     0
  0
VERTEX
  8
SCANIA_P114_CB_6
 10
55.947
 20
-12.5324
 30
0
 70
     0
  0
SEQEND
  0
POLYLINE
  8
SCANIA_P114_CB_6
  6
CONTINUOUS
 62
     7
 66
     1
 40
0.0139
 41
0.0139
  0
VERTEX
  8
SCANIA_P114_CB_6
 10
55.947
 20
-12.5324
 30
0
 70
     0
  0
VERTEX
  8
SCANIA_P114_CB_6
 10
56.0402
 20
-12.5398
 30
0
 70
     0
  0
VERTEX
  8
SCANIA_P114_CB_6
 10
56.1306
 20
-12.5561
 30
0
 70
     0
  0
VERTEX
  8
SCANIA_P114_CB_6
 10
56.2177
 20
-12.5809
 30
0
 70
     0
  0
VERTEX
  8
SCANIA_P114_CB_6
 10
56.3011
 20
-12.6136
 30
0
 70
     0
  0
VERTEX
  8
SCANIA_P114_CB_6
 10
56.3803
 20
-12.6539
 30
0
 70
     0
  0
VERTEX
  8
SCANIA_P114_CB_6
 10
56.4549
 20
-12.7012
 30
0
 70
     0
  0
VERTEX
  8
SCANIA_P114_CB_6
 10
56.5245
 20
-12.7552
 30
0
 70
     0
  0
VERTEX
  8
SCANIA_P114_CB_6
 10
56.5886
 20
-12.8154
 30
0
 70
     0
  0
VERTEX
  8
SCANIA_P114_CB_6
 10
56.6468
 20
-12.8813
 30
0
 70
     0
  0
VERTEX
  8
SCANIA_P114_CB_6
 10
56.6986
 20
-12.9525
 30
0
 70
     0
  0
VERTEX
  8
SCANIA_P114_CB_6
 10
56.7437
 20
-13.0285
 30
0
 70
     0
  0
VERTEX
  8
SCANIA_P114_CB_6
 10
56.7815
 20
-13.1089
 30
0
 70
     0
  0
VERTEX
  8
SCANIA_P114_CB_6
 10
56.8117
 20
-13.1933
 30
0
 70
     0
  0
VERTEX
  8
SCANIA_P114_CB_6
 10
56.8337
 20
-13.2811
 30
0
 70
     0
  0
VERTEX
  8
SCANIA_P114_CB_6
 10
56.8473
 20
-13.3719
 30
0
 70
     0
  0
VERTEX
  8
SCANIA_P114_CB_6
 10
56.8518
 20
-13.4654
 30
0
 70
     0
  0
SEQEND
  0
POLYLINE
  8
SCANIA_P114_CB_6
  6
CONTINUOUS
 62
     7
 66
     1
 40
0.0139
 41
0.0139
  0
VERTEX
  8
SCANIA_P114_CB_6
 10
40.1196
 20
58.9243
 30
0
 70
     0
  0
VERTEX
  8
SCANIA_P114_CB_6
 10
-5.9041
 20
58.9243
 30
0
 70
     0
  0
SEQEND
  0
POLYLINE
  8
SCANIA_P114_CB_6
  6
CONTINUOUS
 62
     7
 66
     1
 40
0.0139
 41
0.0139
  0
VERTEX
  8
SCANIA_P114_CB_6
 10
-7.2505
 20
36.1935
 30
0
 70
     0
  0
VERTEX
  8
SCANIA_P114_CB_6
 10
47.9936
 20
26.6058
 30
0
 70
     0
  0
SEQEND
  0
POLYLINE
  8
SCANIA_P114_CB_6
  6
CONTINUOUS
 62
     7
 66
     1
 40
0.0139
 41
0.0139
  0
VERTEX
  8
SCANIA_P114_CB_6
 10
-13.7781
 20
51.0474
 30
0
 70
     0
  0
VERTEX
  8
SCANIA_P114_CB_6
 10
-13.7683
 20
51.4526
 30
0
 70
     0
  0
VERTEX
  8
SCANIA_P114_CB_6
 10
-13.7383
 20
51.8526
 30
0
 70
     0
  0
VERTEX
  8
SCANIA_P114_CB_6
 10
-13.6886
 20
52.2468
 30
0
 70
     0
  0
VERTEX
  8
SCANIA_P114_CB_6
 10
-13.6196
 20
52.6347
 30
0
 70
     0
  0
VERTEX
  8
SCANIA_P114_CB_6
 10
-13.532
 20
53.0158
 30
0
 70
     0
  0
VERTEX
  8
SCANIA_P114_CB_6
 10
-13.4261
 20
53.3896
 30
0
 70
     0
  0
VERTEX
  8
SCANIA_P114_CB_6
 10
-13.3026
 20
53.7556
 30
0
 70
     0
  0
VERTEX
  8
SCANIA_P114_CB_6
 10
-13.1617
 20
54.1134
 30
0
 70
     0
  0
VERTEX
  8
SCANIA_P114_CB_6
 10
-13.0042
 20
54.4623
 30
0
 70
     0
  0
VERTEX
  8
SCANIA_P114_CB_6
 10
-12.8304
 20
54.8021
 30
0
 70
     0
  0
VERTEX
  8
SCANIA_P114_CB_6
 10
-12.6409
 20
55.132
 30
0
 70
     0
  0
VERTEX
  8
SCANIA_P114_CB_6
 10
-12.4362
 20
55.4517
 30
0
 70
     0
  0
VERTEX
  8
SCANIA_P114_CB_6
 10
-12.2167
 20
55.7606
 30
0
 70
     0
  0
VERTEX
  8
SCANIA_P114_CB_6
 10
-11.9829
 20
56.0583
 30
0
 70
     0
  0
VERTEX
  8
SCANIA_P114_CB_6
 10
-11.7354
 20
56.3442
 30
0
 70
     0
  0
VERTEX
  8
SCANIA_P114_CB_6
 10
-11.4747
 20
56.6178
 30
0
 70
     0
  0
VERTEX
  8
SCANIA_P114_CB_6
 10
-11.2012
 20
56.8787
 30
0
 70
     0
  0
VERTEX
  8
SCANIA_P114_CB_6
 10
-10.9154
 20
57.1264
 30
0
 70
     0
  0
VERTEX
  8
SCANIA_P114_CB_6
 10
-10.6179
 20
57.3603
 30
0
 70
     0
  0
VERTEX
  8
SCANIA_P114_CB_6
 10
-10.3091
 20
57.5799
 30
0
 70
     0
  0
VERTEX
  8
SCANIA_P114_CB_6
 10
-9.9895
 20
57.7849
 30
0
 70
     0
  0
VERTEX
  8
SCANIA_P114_CB_6
 10
-9.6597
 20
57.9746
 30
0
 70
     0
  0
VERTEX
  8
SCANIA_P114_CB_6
 10
-9.3201
 20
58.1485
 30
0
 70
     0
  0
VERTEX
  8
SCANIA_P114_CB_6
 10
-8.9712
 20
58.3063
 30
0
 70
     0
  0
VERTEX
  8
SCANIA_P114_CB_6
 10
-8.6135
 20
58.4473
 30
0
 70
     0
  0
VERTEX
  8
SCANIA_P114_CB_6
 10
-8.2475
 20
58.5711
 30
0
 70
     0
  0
VERTEX
  8
SCANIA_P114_CB_6
 10
-7.8738
 20
58.6771
 30
0
 70
     0
  0
VERTEX
  8
SCANIA_P114_CB_6
 10
-7.4927
 20
58.765
 30
0
 70
     0
  0
VERTEX
  8
SCANIA_P114_CB_6
 10
-7.1049
 20
58.8341
 30
0
 70
     0
  0
VERTEX
  8
SCANIA_P114_CB_6
 10
-6.7107
 20
58.8841
 30
0
 70
     0
  0
VERTEX
  8
SCANIA_P114_CB_6
 10
-6.3108
 20
58.9143
 30
0
 70
     0
  0
VERTEX
  8
SCANIA_P114_CB_6
 10
-5.9055
 20
58.9243
 30
0
 70
     0
  0
SEQEND
  0
POLYLINE
  8
SCANIA_P114_CB_6
  6
CONTINUOUS
 62
     7
 66
     1
 40
0.0139
 41
0.0139
  0
VERTEX
  8
SCANIA_P114_CB_6
 10
-13.7781
 20
51.0503
 30
0
 70
     0
  0
VERTEX
  8
SCANIA_P114_CB_6
 10
-13.7781
 20
43.9515
 30
0
 70
     0
  0
SEQEND
  0
POLYLINE
  8
SCANIA_P114_CB_6
  6
CONTINUOUS
 62
     7
 66
     1
 40
0.0139
 41
0.0139
  0
VERTEX
  8
SCANIA_P114_CB_6
 10
-7.2476
 20
36.193
 30
0
 70
     0
  0
VERTEX
  8
SCANIA_P114_CB_6
 10
-7.5984
 20
36.2616
 30
0
 70
     0
  0
VERTEX
  8
SCANIA_P114_CB_6
 10
-7.9429
 20
36.3452
 30
0
 70
     0
  0
VERTEX
  8
SCANIA_P114_CB_6
 10
-8.2809
 20
36.4435
 30
0
 70
     0
  0
VERTEX
  8
SCANIA_P114_CB_6
 10
-8.6119
 20
36.556
 30
0
 70
     0
  0
VERTEX
  8
SCANIA_P114_CB_6
 10
-8.9357
 20
36.6823
 30
0
 70
     0
  0
VERTEX
  8
SCANIA_P114_CB_6
 10
-9.2519
 20
36.8222
 30
0
 70
     0
  0
VERTEX
  8
SCANIA_P114_CB_6
 10
-9.5603
 20
36.9752
 30
0
 70
     0
  0
VERTEX
  8
SCANIA_P114_CB_6
 10
-9.8605
 20
37.1409
 30
0
 70
     0
  0
VERTEX
  8
SCANIA_P114_CB_6
 10
-10.1522
 20
37.3189
 30
0
 70
     0
  0
VERTEX
  8
SCANIA_P114_CB_6
 10
-10.4351
 20
37.509
 30
0
 70
     0
  0
VERTEX
  8
SCANIA_P114_CB_6
 10
-10.7088
 20
37.7106
 30
0
 70
     0
  0
VERTEX
  8
SCANIA_P114_CB_6
 10
-10.973
 20
37.9234
 30
0
 70
     0
  0
VERTEX
  8
SCANIA_P114_CB_6
 10
-11.2275
 20
38.1471
 30
0
 70
     0
  0
VERTEX
  8
SCANIA_P114_CB_6
 10
-11.4719
 20
38.3812
 30
0
 70
     0
  0
VERTEX
  8
SCANIA_P114_CB_6
 10
-11.7058
 20
38.6254
 30
0
 70
     0
  0
VERTEX
  8
SCANIA_P114_CB_6
 10
-11.929
 20
38.8793
 30
0
 70
     0
  0
VERTEX
  8
SCANIA_P114_CB_6
 10
-12.1411
 20
39.1425
 30
0
 70
     0
  0
VERTEX
  8
SCANIA_P114_CB_6
 10
-12.3419
 20
39.4146
 30
0
 70
     0
  0
VERTEX
  8
SCANIA_P114_CB_6
 10
-12.5309
 20
39.6953
 30
0
 70
     0
  0
VERTEX
  8
SCANIA_P114_CB_6
 10
-12.7079
 20
39.9842
 30
0
 70
     0
  0
VERTEX
  8
SCANIA_P114_CB_6
 10
-12.8726
 20
40.2808
 30
0
 70
     0
  0
VERTEX
  8
SCANIA_P114_CB_6
 10
-13.0246
 20
40.5849
 30
0
 70
     0
  0
VERTEX
  8
SCANIA_P114_CB_6
 10
-13.1637
 20
40.896
 30
0
 70
     0
  0
VERTEX
  8
SCANIA_P114_CB_6
 10
-13.2894
 20
41.2138
 30
0
 70
     0
  0
VERTEX
  8
SCANIA_P114_CB_6
 10
-13.4015
 20
41.5379
 30
0
 70
     0
  0
VERTEX
  8
SCANIA_P114_CB_6
 10
-13.4997
 20
41.8678
 30
0
 70
     0
  0
VERTEX
  8
SCANIA_P114_CB_6
 10
-13.5836
 20
42.2033
 30
0
 70
     0
  0
VERTEX
  8
SCANIA_P114_CB_6
 10
-13.6529
 20
42.5439
 30
0
 70
     0
  0
VERTEX
  8
SCANIA_P114_CB_6
 10
-13.7074
 20
42.8892
 30
0
 70
     0
  0
VERTEX
  8
SCANIA_P114_CB_6
 10
-13.7466
 20
43.239
 30
0
 70
     0
  0
VERTEX
  8
SCANIA_P114_CB_6
 10
-13.7703
 20
43.5927
 30
0
 70
     0
  0
VERTEX
  8
SCANIA_P114_CB_6
 10
-13.7781
 20
43.9501
 30
0
 70
     0
  0
SEQEND
  0
POLYLINE
  8
SCANIA_P114_CB_6
  6
CONTINUOUS
 62
     7
 66
     1
 40
0.0139
 41
0.0139
  0
VERTEX
  8
SCANIA_P114_CB_6
 10
51.4258
 20
27.2314
 30
0
 70
     0
  0
VERTEX
  8
SCANIA_P114_CB_6
 10
51.4234
 20
27.2958
 30
0
 70
     0
  0
VERTEX
  8
SCANIA_P114_CB_6
 10
51.4161
 20
27.3599
 30
0
 70
     0
  0
VERTEX
  8
SCANIA_P114_CB_6
 10
51.4107
 20
27.3918
 30
0
 70
     0
  0
VERTEX
  8
SCANIA_P114_CB_6
 10
51.4042
 20
27.4236
 30
0
 70
     0
  0
VERTEX
  8
SCANIA_P114_CB_6
 10
51.3964
 20
27.4553
 30
0
 70
     0
  0
VERTEX
  8
SCANIA_P114_CB_6
 10
51.3875
 20
27.4867
 30
0
 70
     0
  0
VERTEX
  8
SCANIA_P114_CB_6
 10
51.3417
 20
27.6078
 30
0
 70
     0
  0
VERTEX
  8
SCANIA_P114_CB_6
 10
51.2806
 20
27.7223
 30
0
 70
     0
  0
VERTEX
  8
SCANIA_P114_CB_6
 10
51.207
 20
27.829
 30
0
 70
     0
  0
VERTEX
  8
SCANIA_P114_CB_6
 10
51.1235
 20
27.927
 30
0
 70
     0
  0
VERTEX
  8
SCANIA_P114_CB_6
 10
51.0785
 20
27.9731
 30
0
 70
     0
  0
VERTEX
  8
SCANIA_P114_CB_6
 10
51.0314
 20
28.0174
 30
0
 70
     0
  0
VERTEX
  8
SCANIA_P114_CB_6
 10
50.9824
 20
28.06
 30
0
 70
     0
  0
VERTEX
  8
SCANIA_P114_CB_6
 10
50.9318
 20
28.1009
 30
0
 70
     0
  0
VERTEX
  8
SCANIA_P114_CB_6
 10
50.8799
 20
28.1398
 30
0
 70
     0
  0
VERTEX
  8
SCANIA_P114_CB_6
 10
50.8268
 20
28.1771
 30
0
 70
     0
  0
VERTEX
  8
SCANIA_P114_CB_6
 10
50.7725
 20
28.2127
 30
0
 70
     0
  0
VERTEX
  8
SCANIA_P114_CB_6
 10
50.7173
 20
28.2467
 30
0
 70
     0
  0
VERTEX
  8
SCANIA_P114_CB_6
 10
50.605
 20
28.3097
 30
0
 70
     0
  0
VERTEX
  8
SCANIA_P114_CB_6
 10
50.4903
 20
28.3668
 30
0
 70
     0
  0
VERTEX
  8
SCANIA_P114_CB_6
 10
50.3735
 20
28.4188
 30
0
 70
     0
  0
VERTEX
  8
SCANIA_P114_CB_6
 10
50.2549
 20
28.4661
 30
0
 70
     0
  0
VERTEX
  8
SCANIA_P114_CB_6
 10
50.1345
 20
28.5092
 30
0
 70
     0
  0
VERTEX
  8
SCANIA_P114_CB_6
 10
50.0125
 20
28.5484
 30
0
 70
     0
  0
VERTEX
  8
SCANIA_P114_CB_6
 10
49.951
 20
28.5666
 30
0
 70
     0
  0
VERTEX
  8
SCANIA_P114_CB_6
 10
49.8891
 20
28.584
 30
0
 70
     0
  0
VERTEX
  8
SCANIA_P114_CB_6
 10
49.8269
 20
28.6005
 30
0
 70
     0
  0
VERTEX
  8
SCANIA_P114_CB_6
 10
49.7645
 20
28.6162
 30
0
 70
     0
  0
VERTEX
  8
SCANIA_P114_CB_6
 10
49.6394
 20
28.6452
 30
0
 70
     0
  0
VERTEX
  8
SCANIA_P114_CB_6
 10
49.5141
 20
28.6712
 30
0
 70
     0
  0
VERTEX
  8
SCANIA_P114_CB_6
 10
49.2627
 20
28.715
 30
0
 70
     0
  0
VERTEX
  8
SCANIA_P114_CB_6
 10
49.0103
 20
28.7491
 30
0
 70
     0
  0
VERTEX
  8
SCANIA_P114_CB_6
 10
48.7572
 20
28.7746
 30
0
 70
     0
  0
VERTEX
  8
SCANIA_P114_CB_6
 10
48.5033
 20
28.7923
 30
0
 70
     0
  0
VERTEX
  8
SCANIA_P114_CB_6
 10
48.2488
 20
28.8028
 30
0
 70
     0
  0
VERTEX
  8
SCANIA_P114_CB_6
 10
47.9936
 20
28.8062
 30
0
 70
     0
  0
SEQEND
  0
POLYLINE
  8
SCANIA_P114_CB_6
  6
CONTINUOUS
 62
     7
 66
     1
 40
0.0139
 41
0.0139
  0
VERTEX
  8
SCANIA_P114_CB_6
 10
50.9533
 20
66.8216
 30
0
 70
     0
  0
VERTEX
  8
SCANIA_P114_CB_6
 10
50.6472
 20
65.8292
 30
0
 70
     0
  0
VERTEX
  8
SCANIA_P114_CB_6
 10
50.3251
 20
64.8421
 30
0
 70
     0
  0
VERTEX
  8
SCANIA_P114_CB_6
 10
49.9869
 20
63.8603
 30
0
 70
     0
  0
VERTEX
  8
SCANIA_P114_CB_6
 10
49.6328
 20
62.8841
 30
0
 70
     0
  0
SEQEND
  0
POLYLINE
  8
SCANIA_P114_CB_6
  6
CONTINUOUS
 62
     7
 66
     1
 40
0.0139
 41
0.0139
  0
VERTEX
  8
SCANIA_P114_CB_6
 10
52.5415
 20
65.8963
 30
0
 70
     0
  0
VERTEX
  8
SCANIA_P114_CB_6
 10
52.2094
 20
65.4882
 30
0
 70
     0
  0
VERTEX
  8
SCANIA_P114_CB_6
 10
51.8679
 20
65.0881
 30
0
 70
     0
  0
VERTEX
  8
SCANIA_P114_CB_6
 10
51.5172
 20
64.6963
 30
0
 70
     0
  0
VERTEX
  8
SCANIA_P114_CB_6
 10
51.1575
 20
64.3129
 30
0
 70
     0
  0
VERTEX
  8
SCANIA_P114_CB_6
 10
50.7888
 20
63.9381
 30
0
 70
     0
  0
VERTEX
  8
SCANIA_P114_CB_6
 10
50.4113
 20
63.5721
 30
0
 70
     0
  0
VERTEX
  8
SCANIA_P114_CB_6
 10
50.0252
 20
63.2149
 30
0
 70
     0
  0
VERTEX
  8
SCANIA_P114_CB_6
 10
49.6307
 20
62.8668
 30
0
 70
     0
  0
SEQEND
  0
POLYLINE
  8
SCANIA_P114_CB_6
  6
CONTINUOUS
 62
     7
 66
     1
 40
0.0139
 41
0.0139
  0
VERTEX
  8
SCANIA_P114_CB_6
 10
53.8991
 20
59.7117
 30
0
 70
     0
  0
VERTEX
  8
SCANIA_P114_CB_6
 10
53.8991
 20
60.8928
 30
0
 70
     0
  0
SEQEND
  0
POLYLINE
  8
SCANIA_P114_CB_6
  6
CONTINUOUS
 62
     7
 66
     1
 40
0.0139
 41
0.0139
  0
VERTEX
  8
SCANIA_P114_CB_6
 10
49.9621
 20
60.8928
 30
0
 70
     0
  0
VERTEX
  8
SCANIA_P114_CB_6
 10
49.9621
 20
59.7117
 30
0
 70
     0
  0
SEQEND
  0
POLYLINE
  8
SCANIA_P114_CB_6
  6
CONTINUOUS
 62
     7
 66
     1
 40
0.0139
 41
0.0139
  0
VERTEX
  8
SCANIA_P114_CB_6
 10
40.1196
 20
62.8613
 30
0
 70
     0
  0
VERTEX
  8
SCANIA_P114_CB_6
 10
49.6243
 20
62.8613
 30
0
 70
     0
  0
SEQEND
  0
POLYLINE
  8
SCANIA_P114_CB_6
  6
CONTINUOUS
 62
     7
 66
     1
 40
0.0139
 41
0.0139
  0
VERTEX
  8
SCANIA_P114_CB_6
 10
52.5363
 20
65.8898
 30
0
 70
     0
  0
VERTEX
  8
SCANIA_P114_CB_6
 10
52.6988
 20
65.6037
 30
0
 70
     0
  0
VERTEX
  8
SCANIA_P114_CB_6
 10
52.8513
 20
65.3128
 30
0
 70
     0
  0
VERTEX
  8
SCANIA_P114_CB_6
 10
52.9938
 20
65.0176
 30
0
 70
     0
  0
VERTEX
  8
SCANIA_P114_CB_6
 10
53.1262
 20
64.7181
 30
0
 70
     0
  0
VERTEX
  8
SCANIA_P114_CB_6
 10
53.2483
 20
64.4147
 30
0
 70
     0
  0
VERTEX
  8
SCANIA_P114_CB_6
 10
53.3603
 20
64.1077
 30
0
 70
     0
  0
VERTEX
  8
SCANIA_P114_CB_6
 10
53.4618
 20
63.7973
 30
0
 70
     0
  0
VERTEX
  8
SCANIA_P114_CB_6
 10
53.553
 20
63.4837
 30
0
 70
     0
  0
VERTEX
  8
SCANIA_P114_CB_6
 10
53.6337
 20
63.1673
 30
0
 70
     0
  0
VERTEX
  8
SCANIA_P114_CB_6
 10
53.7039
 20
62.8483
 30
0
 70
     0
  0
VERTEX
  8
SCANIA_P114_CB_6
 10
53.7634
 20
62.5269
 30
0
 70
     0
  0
VERTEX
  8
SCANIA_P114_CB_6
 10
53.8122
 20
62.2035
 30
0
 70
     0
  0
VERTEX
  8
SCANIA_P114_CB_6
 10
53.8503
 20
61.8784
 30
0
 70
     0
  0
VERTEX
  8
SCANIA_P114_CB_6
 10
53.8775
 20
61.5516
 30
0
 70
     0
  0
VERTEX
  8
SCANIA_P114_CB_6
 10
53.8938
 20
61.2236
 30
0
 70
     0
  0
VERTEX
  8
SCANIA_P114_CB_6
 10
53.8991
 20
60.8946
 30
0
 70
     0
  0
SEQEND
  0
POLYLINE
  8
SCANIA_P114_CB_6
  6
CONTINUOUS
 62
     7
 66
     1
 40
0.0139
 41
0.0139
  0
VERTEX
  8
SCANIA_P114_CB_6
 10
49.6243
 20
62.8613
 30
0
 70
     0
  0
VERTEX
  8
SCANIA_P114_CB_6
 10
49.7032
 20
62.6228
 30
0
 70
     0
  0
VERTEX
  8
SCANIA_P114_CB_6
 10
49.7717
 20
62.3814
 30
0
 70
     0
  0
VERTEX
  8
SCANIA_P114_CB_6
 10
49.8298
 20
62.1375
 30
0
 70
     0
  0
VERTEX
  8
SCANIA_P114_CB_6
 10
49.8774
 20
61.8915
 30
0
 70
     0
  0
VERTEX
  8
SCANIA_P114_CB_6
 10
49.9145
 20
61.6437
 30
0
 70
     0
  0
VERTEX
  8
SCANIA_P114_CB_6
 10
49.941
 20
61.3944
 30
0
 70
     0
  0
VERTEX
  8
SCANIA_P114_CB_6
 10
49.9569
 20
61.144
 30
0
 70
     0
  0
VERTEX
  8
SCANIA_P114_CB_6
 10
49.9621
 20
60.8928
 30
0
 70
     0
  0
SEQEND
  0
POLYLINE
  8
SCANIA_P114_CB_6
  6
CONTINUOUS
 62
     7
 66
     1
 40
0.0139
 41
0.0139
  0
VERTEX
  8
SCANIA_P114_CB_6
 10
49.9621
 20
58.9243
 30
0
 70
     0
  0
VERTEX
  8
SCANIA_P114_CB_6
 10
53.1117
 20
58.9243
 30
0
 70
     0
  0
SEQEND
  0
POLYLINE
  8
SCANIA_P114_CB_6
  6
CONTINUOUS
 62
     7
 66
     1
 40
0.0139
 41
0.0139
  0
VERTEX
  8
SCANIA_P114_CB_6
 10
40.1196
 20
65.2723
 30
0
 70
     0
  0
VERTEX
  8
SCANIA_P114_CB_6
 10
40.1196
 20
62.8613
 30
0
 70
     0
  0
SEQEND
  0
POLYLINE
  8
SCANIA_P114_CB_6
  6
CONTINUOUS
 62
     7
 66
     1
 40
0.0139
 41
0.0139
  0
VERTEX
  8
SCANIA_P114_CB_6
 10
40.1196
 20
65.2717
 30
0
 70
     0
  0
VERTEX
  8
SCANIA_P114_CB_6
 10
40.1273
 20
65.4278
 30
0
 70
     0
  0
VERTEX
  8
SCANIA_P114_CB_6
 10
40.1503
 20
65.5794
 30
0
 70
     0
  0
VERTEX
  8
SCANIA_P114_CB_6
 10
40.1878
 20
65.7257
 30
0
 70
     0
  0
VERTEX
  8
SCANIA_P114_CB_6
 10
40.239
 20
65.8659
 30
0
 70
     0
  0
VERTEX
  8
SCANIA_P114_CB_6
 10
40.3032
 20
65.9994
 30
0
 70
     0
  0
VERTEX
  8
SCANIA_P114_CB_6
 10
40.3796
 20
66.1253
 30
0
 70
     0
  0
VERTEX
  8
SCANIA_P114_CB_6
 10
40.4675
 20
66.2429
 30
0
 70
     0
  0
VERTEX
  8
SCANIA_P114_CB_6
 10
40.566
 20
66.3513
 30
0
 70
     0
  0
VERTEX
  8
SCANIA_P114_CB_6
 10
40.6744
 20
66.4499
 30
0
 70
     0
  0
VERTEX
  8
SCANIA_P114_CB_6
 10
40.7919
 20
66.5378
 30
0
 70
     0
  0
VERTEX
  8
SCANIA_P114_CB_6
 10
40.9177
 20
66.6143
 30
0
 70
     0
  0
VERTEX
  8
SCANIA_P114_CB_6
 10
41.0512
 20
66.6785
 30
0
 70
     0
  0
VERTEX
  8
SCANIA_P114_CB_6
 10
41.1914
 20
66.7299
 30
0
 70
     0
  0
VERTEX
  8
SCANIA_P114_CB_6
 10
41.3377
 20
66.7674
 30
0
 70
     0
  0
VERTEX
  8
SCANIA_P114_CB_6
 10
41.4892
 20
66.7905
 30
0
 70
     0
  0
VERTEX
  8
SCANIA_P114_CB_6
 10
41.6453
 20
66.7983
 30
0
 70
     0
  0
SEQEND
  0
POLYLINE
  8
SCANIA_P114_CB_6
  6
CONTINUOUS
 62
     7
 66
     1
 40
0.0139
 41
0.0139
  0
VERTEX
  8
SCANIA_P114_CB_6
 10
50.9463
 20
66.7983
 30
0
 70
     0
  0
VERTEX
  8
SCANIA_P114_CB_6
 10
41.6456
 20
66.7983
 30
0
 70
     0
  0
SEQEND
  0
POLYLINE
  8
SCANIA_P114_CB_6
  6
CONTINUOUS
 62
     7
 66
     1
 40
0.0139
 41
0.0139
  0
VERTEX
  8
SCANIA_P114_CB_6
 10
50.9463
 20
66.7983
 30
0
 70
     0
  0
VERTEX
  8
SCANIA_P114_CB_6
 10
51.0682
 20
66.7944
 30
0
 70
     0
  0
VERTEX
  8
SCANIA_P114_CB_6
 10
51.1887
 20
66.7825
 30
0
 70
     0
  0
VERTEX
  8
SCANIA_P114_CB_6
 10
51.3073
 20
66.7629
 30
0
 70
     0
  0
VERTEX
  8
SCANIA_P114_CB_6
 10
51.4239
 20
66.7358
 30
0
 70
     0
  0
VERTEX
  8
SCANIA_P114_CB_6
 10
51.5379
 20
66.7013
 30
0
 70
     0
  0
VERTEX
  8
SCANIA_P114_CB_6
 10
51.6492
 20
66.6596
 30
0
 70
     0
  0
VERTEX
  8
SCANIA_P114_CB_6
 10
51.7574
 20
66.6109
 30
0
 70
     0
  0
VERTEX
  8
SCANIA_P114_CB_6
 10
51.8621
 20
66.5555
 30
0
 70
     0
  0
VERTEX
  8
SCANIA_P114_CB_6
 10
51.9631
 20
66.4934
 30
0
 70
     0
  0
VERTEX
  8
SCANIA_P114_CB_6
 10
52.0599
 20
66.4249
 30
0
 70
     0
  0
VERTEX
  8
SCANIA_P114_CB_6
 10
52.1523
 20
66.3502
 30
0
 70
     0
  0
VERTEX
  8
SCANIA_P114_CB_6
 10
52.24
 20
66.2694
 30
0
 70
     0
  0
VERTEX
  8
SCANIA_P114_CB_6
 10
52.3225
 20
66.1828
 30
0
 70
     0
  0
VERTEX
  8
SCANIA_P114_CB_6
 10
52.3996
 20
66.0906
 30
0
 70
     0
  0
VERTEX
  8
SCANIA_P114_CB_6
 10
52.471
 20
65.9928
 30
0
 70
     0
  0
VERTEX
  8
SCANIA_P114_CB_6
 10
52.5363
 20
65.8898
 30
0
 70
     0
  0
SEQEND
  0
POLYLINE
  8
SCANIA_P114_CB_6
  6
CONTINUOUS
 62
     7
 66
     1
 40
0.0139
 41
0.0139
  0
VERTEX
  8
SCANIA_P114_CB_6
 10
53.8991
 20
59.7119
 30
0
 70
     0
  0
VERTEX
  8
SCANIA_P114_CB_6
 10
53.8951
 20
59.6314
 30
0
 70
     0
  0
VERTEX
  8
SCANIA_P114_CB_6
 10
53.8832
 20
59.5532
 30
0
 70
     0
  0
VERTEX
  8
SCANIA_P114_CB_6
 10
53.8639
 20
59.4777
 30
0
 70
     0
  0
VERTEX
  8
SCANIA_P114_CB_6
 10
53.8374
 20
59.4053
 30
0
 70
     0
  0
VERTEX
  8
SCANIA_P114_CB_6
 10
53.8043
 20
59.3365
 30
0
 70
     0
  0
VERTEX
  8
SCANIA_P114_CB_6
 10
53.7649
 20
59.2715
 30
0
 70
     0
  0
VERTEX
  8
SCANIA_P114_CB_6
 10
53.7196
 20
59.2109
 30
0
 70
     0
  0
VERTEX
  8
SCANIA_P114_CB_6
 10
53.6688
 20
59.155
 30
0
 70
     0
  0
VERTEX
  8
SCANIA_P114_CB_6
 10
53.6128
 20
59.1041
 30
0
 70
     0
  0
VERTEX
  8
SCANIA_P114_CB_6
 10
53.5522
 20
59.0588
 30
0
 70
     0
  0
VERTEX
  8
SCANIA_P114_CB_6
 10
53.4873
 20
59.0193
 30
0
 70
     0
  0
VERTEX
  8
SCANIA_P114_CB_6
 10
53.4185
 20
58.9861
 30
0
 70
     0
  0
VERTEX
  8
SCANIA_P114_CB_6
 10
53.3461
 20
58.9597
 30
0
 70
     0
  0
VERTEX
  8
SCANIA_P114_CB_6
 10
53.2707
 20
58.9403
 30
0
 70
     0
  0
VERTEX
  8
SCANIA_P114_CB_6
 10
53.1925
 20
58.9283
 30
0
 70
     0
  0
VERTEX
  8
SCANIA_P114_CB_6
 10
53.112
 20
58.9243
 30
0
 70
     0
  0
SEQEND
  0
POLYLINE
  8
SCANIA_P114_CB_6
  6
CONTINUOUS
 62
     7
 66
     1
 40
0.0139
 41
0.0139
  0
VERTEX
  8
SCANIA_P114_CB_6
 10
49.9621
 20
58.9243
 30
0
 70
     0
  0
VERTEX
  8
SCANIA_P114_CB_6
 10
49.9621
 20
59.7117
 30
0
 70
     0
  0
SEQEND
  0
POLYLINE
  8
SCANIA_P114_CB_6
  6
CONTINUOUS
 62
     7
 66
     1
 40
0.0139
 41
0.0139
  0
VERTEX
  8
SCANIA_P114_CB_6
 10
40.1196
 20
58.9243
 30
0
 70
     0
  0
VERTEX
  8
SCANIA_P114_CB_6
 10
49.9621
 20
58.9243
 30
0
 70
     0
  0
SEQEND
  0
POLYLINE
  8
SCANIA_P114_CB_6
  6
CONTINUOUS
 62
     7
 66
     1
 40
0.0139
 41
0.0139
  0
VERTEX
  8
SCANIA_P114_CB_6
 10
-34.782
 20
84.633
 30
0
 70
     0
  0
VERTEX
  8
SCANIA_P114_CB_6
 10
-39.7033
 20
84.633
 30
0
 70
     0
  0
SEQEND
  0
POLYLINE
  8
SCANIA_P114_CB_6
  6
CONTINUOUS
 62
     7
 66
     1
 40
0.0139
 41
0.0139
  0
VERTEX
  8
SCANIA_P114_CB_6
 10
-34.782
 20
9.8298
 30
0
 70
     0
  0
VERTEX
  8
SCANIA_P114_CB_6
 10
-39.7033
 20
9.8298
 30
0
 70
     0
  0
SEQEND
  0
POLYLINE
  8
SCANIA_P114_CB_6
  6
CONTINUOUS
 62
     7
 66
     1
 40
0.0139
 41
0.0139
  0
VERTEX
  8
SCANIA_P114_CB_6
 10
-32.3214
 20
63.7373
 30
0
 70
     0
  0
VERTEX
  8
SCANIA_P114_CB_6
 10
-42.1639
 20
63.7373
 30
0
 70
     0
  0
SEQEND
  0
POLYLINE
  8
SCANIA_P114_CB_6
  6
CONTINUOUS
 62
     7
 66
     1
 40
0.0139
 41
0.0139
  0
VERTEX
  8
SCANIA_P114_CB_6
 10
-32.3214
 20
14.7373
 30
0
 70
     0
  0
VERTEX
  8
SCANIA_P114_CB_6
 10
-42.1639
 20
14.7373
 30
0
 70
     0
  0
SEQEND
  0
POLYLINE
  8
SCANIA_P114_CB_6
  6
CONTINUOUS
 62
     7
 66
     1
 40
0.0139
 41
0.0139
  0
VERTEX
  8
SCANIA_P114_CB_6
 10
-39.7033
 20
1.9558
 30
0
 70
     0
  0
VERTEX
  8
SCANIA_P114_CB_6
 10
-34.782
 20
1.9558
 30
0
 70
     0
  0
SEQEND
  0
POLYLINE
  8
SCANIA_P114_CB_6
  6
CONTINUOUS
 62
     7
 66
     1
 40
0.0139
 41
0.0139
  0
VERTEX
  8
SCANIA_P114_CB_6
 10
47.9936
 20
26.6058
 30
0
 70
     0
  0
VERTEX
  8
SCANIA_P114_CB_6
 10
51.4258
 20
26.0102
 30
0
 70
     0
  0
SEQEND
  0
POLYLINE
  8
SCANIA_P114_CB_6
  6
CONTINUOUS
 62
     7
 66
     1
 40
0.0139
 41
0.0139
  0
VERTEX
  8
SCANIA_P114_CB_6
 10
-39.7033
 20
1.9558
 30
0
 70
     0
  0
VERTEX
  8
SCANIA_P114_CB_6
 10
-39.7033
 20
5.8928
 30
0
 70
     0
  0
SEQEND
  0
POLYLINE
  8
SCANIA_P114_CB_6
  6
CONTINUOUS
 62
     7
 66
     1
 40
0.0139
 41
0.0139
  0
VERTEX
  8
SCANIA_P114_CB_6
 10
47.9936
 20
28.8062
 30
0
 70
     0
  0
VERTEX
  8
SCANIA_P114_CB_6
 10
47.7876
 20
28.8062
 30
0
 70
     0
  0
SEQEND
  0
POLYLINE
  8
SCANIA_P114_CB_6
  6
CONTINUOUS
 62
     7
 66
     1
 40
0.0139
 41
0.0139
  0
VERTEX
  8
SCANIA_P114_CB_6
 10
45.0573
 20
58.9243
 30
0
 70
     0
  0
VERTEX
  8
SCANIA_P114_CB_6
 10
45.3444
 20
57.0542
 30
0
 70
     0
  0
VERTEX
  8
SCANIA_P114_CB_6
 10
45.6161
 20
55.182
 30
0
 70
     0
  0
VERTEX
  8
SCANIA_P114_CB_6
 10
45.8722
 20
53.3079
 30
0
 70
     0
  0
VERTEX
  8
SCANIA_P114_CB_6
 10
46.1129
 20
51.4318
 30
0
 70
     0
  0
VERTEX
  8
SCANIA_P114_CB_6
 10
46.338
 20
49.5539
 30
0
 70
     0
  0
VERTEX
  8
SCANIA_P114_CB_6
 10
46.5476
 20
47.6743
 30
0
 70
     0
  0
VERTEX
  8
SCANIA_P114_CB_6
 10
46.7417
 20
45.7931
 30
0
 70
     0
  0
VERTEX
  8
SCANIA_P114_CB_6
 10
46.9202
 20
43.9104
 30
0
 70
     0
  0
VERTEX
  8
SCANIA_P114_CB_6
 10
47.0831
 20
42.0263
 30
0
 70
     0
  0
VERTEX
  8
SCANIA_P114_CB_6
 10
47.2305
 20
40.1408
 30
0
 70
     0
  0
VERTEX
  8
SCANIA_P114_CB_6
 10
47.3624
 20
38.2542
 30
0
 70
     0
  0
VERTEX
  8
SCANIA_P114_CB_6
 10
47.4786
 20
36.3664
 30
0
 70
     0
  0
VERTEX
  8
SCANIA_P114_CB_6
 10
47.5793
 20
34.4776
 30
0
 70
     0
  0
VERTEX
  8
SCANIA_P114_CB_6
 10
47.6643
 20
32.5879
 30
0
 70
     0
  0
VERTEX
  8
SCANIA_P114_CB_6
 10
47.7338
 20
30.6974
 30
0
 70
     0
  0
VERTEX
  8
SCANIA_P114_CB_6
 10
47.7876
 20
28.8062
 30
0
 70
     0
  0
SEQEND
  0
POLYLINE
  8
SCANIA_P114_CB_6
  6
CONTINUOUS
 62
     7
 66
     1
 40
0.0139
 41
0.0139
  0
VERTEX
  8
SCANIA_P114_CB_6
 10
51.4258
 20
26.0102
 30
0
 70
     0
  0
VERTEX
  8
SCANIA_P114_CB_6
 10
51.4258
 20
27.2314
 30
0
 70
     0
  0
SEQEND
  0
POLYLINE
  8
SCANIA_P114_CB_6
  6
CONTINUOUS
 62
     7
 66
     1
 40
0.0139
 41
0.0139
  0
VERTEX
  8
SCANIA_P114_CB_6
 10
-34.782
 20
9.8298
 30
0
 70
     0
  0
VERTEX
  8
SCANIA_P114_CB_6
 10
-34.782
 20
5.8928
 30
0
 70
     0
  0
SEQEND
  0
POLYLINE
  8
SCANIA_P114_CB_6
  6
CONTINUOUS
 62
     7
 66
     1
 40
0.0139
 41
0.0139
  0
VERTEX
  8
SCANIA_P114_CB_6
 10
55.8676
 20
-10.5639
 30
0
 70
     0
  0
VERTEX
  8
SCANIA_P114_CB_6
 10
55.867
 20
-10.5295
 30
0
 70
     0
  0
SEQEND
  0
POLYLINE
  8
SCANIA_P114_CB_6
  6
CONTINUOUS
 62
     7
 66
     1
 40
0.0139
 41
0.0139
  0
VERTEX
  8
SCANIA_P114_CB_6
 10
55.867
 20
-10.5295
 30
0
 70
     0
  0
VERTEX
  8
SCANIA_P114_CB_6
 10
55.2242
 20
26.2987
 30
0
 70
     0
  0
SEQEND
  0
POLYLINE
  8
SCANIA_P114_CB_6
  6
CONTINUOUS
 62
     7
 66
     1
 40
0.0139
 41
0.0139
  0
VERTEX
  8
SCANIA_P114_CB_6
 10
52.2719
 20
29.1999
 30
0
 70
     0
  0
VERTEX
  8
SCANIA_P114_CB_6
 10
52.422
 20
29.1963
 30
0
 70
     0
  0
VERTEX
  8
SCANIA_P114_CB_6
 10
52.5701
 20
29.1852
 30
0
 70
     0
  0
VERTEX
  8
SCANIA_P114_CB_6
 10
52.7162
 20
29.167
 30
0
 70
     0
  0
VERTEX
  8
SCANIA_P114_CB_6
 10
52.86
 20
29.1417
 30
0
 70
     0
  0
VERTEX
  8
SCANIA_P114_CB_6
 10
53.0014
 20
29.1095
 30
0
 70
     0
  0
VERTEX
  8
SCANIA_P114_CB_6
 10
53.1401
 20
29.0706
 30
0
 70
     0
  0
VERTEX
  8
SCANIA_P114_CB_6
 10
53.276
 20
29.0253
 30
0
 70
     0
  0
VERTEX
  8
SCANIA_P114_CB_6
 10
53.4089
 20
28.9736
 30
0
 70
     0
  0
VERTEX
  8
SCANIA_P114_CB_6
 10
53.5386
 20
28.9158
 30
0
 70
     0
  0
VERTEX
  8
SCANIA_P114_CB_6
 10
53.6649
 20
28.8519
 30
0
 70
     0
  0
VERTEX
  8
SCANIA_P114_CB_6
 10
53.7877
 20
28.7823
 30
0
 70
     0
  0
VERTEX
  8
SCANIA_P114_CB_6
 10
53.9067
 20
28.7071
 30
0
 70
     0
  0
VERTEX
  8
SCANIA_P114_CB_6
 10
54.0219
 20
28.6265
 30
0
 70
     0
  0
VERTEX
  8
SCANIA_P114_CB_6
 10
54.1329
 20
28.5406
 30
0
 70
     0
  0
VERTEX
  8
SCANIA_P114_CB_6
 10
54.2396
 20
28.4496
 30
0
 70
     0
  0
VERTEX
  8
SCANIA_P114_CB_6
 10
54.3419
 20
28.3537
 30
0
 70
     0
  0
VERTEX
  8
SCANIA_P114_CB_6
 10
54.4396
 20
28.2531
 30
0
 70
     0
  0
VERTEX
  8
SCANIA_P114_CB_6
 10
54.5324
 20
28.1479
 30
0
 70
     0
  0
VERTEX
  8
SCANIA_P114_CB_6
 10
54.6203
 20
28.0384
 30
0
 70
     0
  0
VERTEX
  8
SCANIA_P114_CB_6
 10
54.7029
 20
27.9247
 30
0
 70
     0
  0
VERTEX
  8
SCANIA_P114_CB_6
 10
54.7802
 20
27.807
 30
0
 70
     0
  0
VERTEX
  8
SCANIA_P114_CB_6
 10
54.8519
 20
27.6854
 30
0
 70
     0
  0
VERTEX
  8
SCANIA_P114_CB_6
 10
54.918
 20
27.5602
 30
0
 70
     0
  0
VERTEX
  8
SCANIA_P114_CB_6
 10
54.978
 20
27.4316
 30
0
 70
     0
  0
VERTEX
  8
SCANIA_P114_CB_6
 10
55.032
 20
27.2996
 30
0
 70
     0
  0
VERTEX
  8
SCANIA_P114_CB_6
 10
55.0798
 20
27.1645
 30
0
 70
     0
  0
VERTEX
  8
SCANIA_P114_CB_6
 10
55.121
 20
27.0265
 30
0
 70
     0
  0
VERTEX
  8
SCANIA_P114_CB_6
 10
55.1557
 20
26.8858
 30
0
 70
     0
  0
VERTEX
  8
SCANIA_P114_CB_6
 10
55.1835
 20
26.7424
 30
0
 70
     0
  0
VERTEX
  8
SCANIA_P114_CB_6
 10
55.2043
 20
26.5967
 30
0
 70
     0
  0
VERTEX
  8
SCANIA_P114_CB_6
 10
55.2179
 20
26.4487
 30
0
 70
     0
  0
VERTEX
  8
SCANIA_P114_CB_6
 10
55.2242
 20
26.2987
 30
0
 70
     0
  0
SEQEND
  0
POLYLINE
  8
SCANIA_P114_CB_6
  6
CONTINUOUS
 62
     7
 66
     1
 40
0.0139
 41
0.0139
  0
VERTEX
  8
SCANIA_P114_CB_6
 10
52.2719
 20
29.1999
 30
0
 70
     0
  0
VERTEX
  8
SCANIA_P114_CB_6
 10
49.8879
 20
29.1999
 30
0
 70
     0
  0
SEQEND
  0
POLYLINE
  8
SCANIA_P114_CB_6
  6
CONTINUOUS
 62
     7
 66
     1
 40
0.0139
 41
0.0139
  0
VERTEX
  8
SCANIA_P114_CB_6
 10
47.9936
 20
28.8794
 30
0
 70
     0
  0
VERTEX
  8
SCANIA_P114_CB_6
 10
48.2236
 20
28.9531
 30
0
 70
     0
  0
VERTEX
  8
SCANIA_P114_CB_6
 10
48.4562
 20
29.0173
 30
0
 70
     0
  0
VERTEX
  8
SCANIA_P114_CB_6
 10
48.6909
 20
29.0719
 30
0
 70
     0
  0
VERTEX
  8
SCANIA_P114_CB_6
 10
48.9277
 20
29.1169
 30
0
 70
     0
  0
VERTEX
  8
SCANIA_P114_CB_6
 10
49.166
 20
29.1523
 30
0
 70
     0
  0
VERTEX
  8
SCANIA_P114_CB_6
 10
49.4057
 20
29.1779
 30
0
 70
     0
  0
VERTEX
  8
SCANIA_P114_CB_6
 10
49.6464
 20
29.1938
 30
0
 70
     0
  0
VERTEX
  8
SCANIA_P114_CB_6
 10
49.8879
 20
29.1999
 30
0
 70
     0
  0
SEQEND
  0
POLYLINE
  8
SCANIA_P114_CB_6
  6
CONTINUOUS
 62
     7
 66
     1
 40
0.0139
 41
0.0139
  0
VERTEX
  8
SCANIA_P114_CB_6
 10
53.6979
 20
27.2314
 30
0
 70
     0
  0
VERTEX
  8
SCANIA_P114_CB_6
 10
53.8097
 20
27.2278
 30
0
 70
     0
  0
VERTEX
  8
SCANIA_P114_CB_6
 10
53.9181
 20
27.2174
 30
0
 70
     0
  0
VERTEX
  8
SCANIA_P114_CB_6
 10
54.0233
 20
27.2007
 30
0
 70
     0
  0
VERTEX
  8
SCANIA_P114_CB_6
 10
54.1254
 20
27.1777
 30
0
 70
     0
  0
VERTEX
  8
SCANIA_P114_CB_6
 10
54.2243
 20
27.1488
 30
0
 70
     0
  0
VERTEX
  8
SCANIA_P114_CB_6
 10
54.3202
 20
27.1137
 30
0
 70
     0
  0
VERTEX
  8
SCANIA_P114_CB_6
 10
54.3671
 20
27.0939
 30
0
 70
     0
  0
VERTEX
  8
SCANIA_P114_CB_6
 10
54.4131
 20
27.0724
 30
0
 70
     0
  0
VERTEX
  8
SCANIA_P114_CB_6
 10
54.4584
 20
27.0493
 30
0
 70
     0
  0
VERTEX
  8
SCANIA_P114_CB_6
 10
54.5028
 20
27.0246
 30
0
 70
     0
  0
VERTEX
  8
SCANIA_P114_CB_6
 10
54.5886
 20
26.97
 30
0
 70
     0
  0
VERTEX
  8
SCANIA_P114_CB_6
 10
54.6704
 20
26.908
 30
0
 70
     0
  0
VERTEX
  8
SCANIA_P114_CB_6
 10
54.7098
 20
26.8739
 30
0
 70
     0
  0
VERTEX
  8
SCANIA_P114_CB_6
 10
54.7478
 20
26.8377
 30
0
 70
     0
  0
VERTEX
  8
SCANIA_P114_CB_6
 10
54.7846
 20
26.799
 30
0
 70
     0
  0
VERTEX
  8
SCANIA_P114_CB_6
 10
54.82
 20
26.7576
 30
0
 70
     0
  0
VERTEX
  8
SCANIA_P114_CB_6
 10
54.8539
 20
26.7131
 30
0
 70
     0
  0
VERTEX
  8
SCANIA_P114_CB_6
 10
54.8863
 20
26.6648
 30
0
 70
     0
  0
VERTEX
  8
SCANIA_P114_CB_6
 10
54.9018
 20
26.639
 30
0
 70
     0
  0
VERTEX
  8
SCANIA_P114_CB_6
 10
54.9167
 20
26.6121
 30
0
 70
     0
  0
VERTEX
  8
SCANIA_P114_CB_6
 10
54.931
 20
26.584
 30
0
 70
     0
  0
VERTEX
  8
SCANIA_P114_CB_6
 10
54.9446
 20
26.5546
 30
0
 70
     0
  0
VERTEX
  8
SCANIA_P114_CB_6
 10
54.9511
 20
26.5394
 30
0
 70
     0
  0
VERTEX
  8
SCANIA_P114_CB_6
 10
54.9574
 20
26.5238
 30
0
 70
     0
  0
VERTEX
  8
SCANIA_P114_CB_6
 10
54.9635
 20
26.5077
 30
0
 70
     0
  0
VERTEX
  8
SCANIA_P114_CB_6
 10
54.9693
 20
26.4913
 30
0
 70
     0
  0
VERTEX
  8
SCANIA_P114_CB_6
 10
54.98
 20
26.4573
 30
0
 70
     0
  0
VERTEX
  8
SCANIA_P114_CB_6
 10
54.9894
 20
26.4219
 30
0
 70
     0
  0
VERTEX
  8
SCANIA_P114_CB_6
 10
54.9936
 20
26.4035
 30
0
 70
     0
  0
VERTEX
  8
SCANIA_P114_CB_6
 10
54.9974
 20
26.3846
 30
0
 70
     0
  0
VERTEX
  8
SCANIA_P114_CB_6
 10
55.0008
 20
26.3652
 30
0
 70
     0
  0
VERTEX
  8
SCANIA_P114_CB_6
 10
55.0037
 20
26.3455
 30
0
 70
     0
  0
VERTEX
  8
SCANIA_P114_CB_6
 10
55.008
 20
26.3054
 30
0
 70
     0
  0
VERTEX
  8
SCANIA_P114_CB_6
 10
55.0101
 20
26.2643
 30
0
 70
     0
  0
SEQEND
  0
POLYLINE
  8
SCANIA_P114_CB_6
  6
CONTINUOUS
 62
     7
 66
     1
 40
0.0139
 41
0.0139
  0
VERTEX
  8
SCANIA_P114_CB_6
 10
55.0101
 20
26.2643
 30
0
 70
     0
  0
VERTEX
  8
SCANIA_P114_CB_6
 10
55.8672
 20
-10.5639
 30
0
 70
     0
  0
SEQEND
  0
POLYLINE
  8
SCANIA_P114_CB_6
  6
CONTINUOUS
 62
     7
 66
     1
 40
0.0139
 41
0.0139
  0
VERTEX
  8
SCANIA_P114_CB_6
 10
51.4258
 20
27.2314
 30
0
 70
     0
  0
VERTEX
  8
SCANIA_P114_CB_6
 10
53.6979
 20
27.2314
 30
0
 70
     0
  0
SEQEND
  0
POLYLINE
  8
SCANIA_P114_CB_6
  6
CONTINUOUS
 62
     7
 66
     1
 40
0.0139
 41
0.0139
  0
VERTEX
  8
SCANIA_P114_CB_6
 10
55.947
 20
-12.5324
 30
0
 70
     0
  0
VERTEX
  8
SCANIA_P114_CB_6
 10
55.9473
 20
-12.5082
 30
0
 70
     0
  0
VERTEX
  8
SCANIA_P114_CB_6
 10
55.9477
 20
-12.4838
 30
0
 70
     0
  0
VERTEX
  8
SCANIA_P114_CB_6
 10
55.9481
 20
-12.4595
 30
0
 70
     0
  0
VERTEX
  8
SCANIA_P114_CB_6
 10
55.9484
 20
-12.4353
 30
0
 70
     0
  0
VERTEX
  8
SCANIA_P114_CB_6
 10
55.9491
 20
-12.3869
 30
0
 70
     0
  0
VERTEX
  8
SCANIA_P114_CB_6
 10
55.9498
 20
-12.3386
 30
0
 70
     0
  0
VERTEX
  8
SCANIA_P114_CB_6
 10
55.9511
 20
-12.2424
 30
0
 70
     0
  0
VERTEX
  8
SCANIA_P114_CB_6
 10
55.9524
 20
-12.1467
 30
0
 70
     0
  0
VERTEX
  8
SCANIA_P114_CB_6
 10
55.953
 20
-12.0991
 30
0
 70
     0
  0
VERTEX
  8
SCANIA_P114_CB_6
 10
55.9536
 20
-12.0518
 30
0
 70
     0
  0
VERTEX
  8
SCANIA_P114_CB_6
 10
55.9542
 20
-12.005
 30
0
 70
     0
  0
VERTEX
  8
SCANIA_P114_CB_6
 10
55.9547
 20
-11.9586
 30
0
 70
     0
  0
VERTEX
  8
SCANIA_P114_CB_6
 10
55.9558
 20
-11.8672
 30
0
 70
     0
  0
VERTEX
  8
SCANIA_P114_CB_6
 10
55.9569
 20
-11.7775
 30
0
 70
     0
  0
VERTEX
  8
SCANIA_P114_CB_6
 10
55.9579
 20
-11.6897
 30
0
 70
     0
  0
VERTEX
  8
SCANIA_P114_CB_6
 10
55.9588
 20
-11.6036
 30
0
 70
     0
  0
VERTEX
  8
SCANIA_P114_CB_6
 10
55.9593
 20
-11.5612
 30
0
 70
     0
  0
VERTEX
  8
SCANIA_P114_CB_6
 10
55.9597
 20
-11.5193
 30
0
 70
     0
  0
VERTEX
  8
SCANIA_P114_CB_6
 10
55.9602
 20
-11.4779
 30
0
 70
     0
  0
VERTEX
  8
SCANIA_P114_CB_6
 10
55.9606
 20
-11.4372
 30
0
 70
     0
  0
VERTEX
  8
SCANIA_P114_CB_6
 10
55.9622
 20
-11.2823
 30
0
 70
     0
  0
VERTEX
  8
SCANIA_P114_CB_6
 10
55.9636
 20
-11.14
 30
0
 70
     0
  0
VERTEX
  8
SCANIA_P114_CB_6
 10
55.9642
 20
-11.0735
 30
0
 70
     0
  0
VERTEX
  8
SCANIA_P114_CB_6
 10
55.9648
 20
-11.0102
 30
0
 70
     0
  0
VERTEX
  8
SCANIA_P114_CB_6
 10
55.9651
 20
-10.9798
 30
0
 70
     0
  0
VERTEX
  8
SCANIA_P114_CB_6
 10
55.9654
 20
-10.9504
 30
0
 70
     0
  0
VERTEX
  8
SCANIA_P114_CB_6
 10
55.9657
 20
-10.9221
 30
0
 70
     0
  0
VERTEX
  8
SCANIA_P114_CB_6
 10
55.9659
 20
-10.8948
 30
0
 70
     0
  0
VERTEX
  8
SCANIA_P114_CB_6
 10
55.9668
 20
-10.796
 30
0
 70
     0
  0
VERTEX
  8
SCANIA_P114_CB_6
 10
55.9676
 20
-10.7137
 30
0
 70
     0
  0
VERTEX
  8
SCANIA_P114_CB_6
 10
55.9677
 20
-10.6957
 30
0
 70
     0
  0
VERTEX
  8
SCANIA_P114_CB_6
 10
55.9679
 20
-10.6788
 30
0
 70
     0
  0
VERTEX
  8
SCANIA_P114_CB_6
 10
55.968
 20
-10.663
 30
0
 70
     0
  0
VERTEX
  8
SCANIA_P114_CB_6
 10
55.9682
 20
-10.6484
 30
0
 70
     0
  0
VERTEX
  8
SCANIA_P114_CB_6
 10
55.9684
 20
-10.6226
 30
0
 70
     0
  0
VERTEX
  8
SCANIA_P114_CB_6
 10
55.9686
 20
-10.6016
 30
0
 70
     0
  0
VERTEX
  8
SCANIA_P114_CB_6
 10
55.9688
 20
-10.5734
 30
0
 70
     0
  0
VERTEX
  8
SCANIA_P114_CB_6
 10
55.9689
 20
-10.5639
 30
0
 70
     0
  0
SEQEND
  0
POLYLINE
  8
SCANIA_P114_CB_6
  6
CONTINUOUS
 62
     7
 66
     1
 40
0.0139
 41
0.0139
  0
VERTEX
  8
SCANIA_P114_CB_6
 10
56.8518
 20
-16.8631
 30
0
 70
     0
  0
VERTEX
  8
SCANIA_P114_CB_6
 10
58.8204
 20
-16.8631
 30
0
 70
     0
  0
SEQEND
  0
POLYLINE
  8
SCANIA_P114_CB_6
  6
CONTINUOUS
 62
     7
 66
     1
 40
0.0139
 41
0.0139
  0
VERTEX
  8
SCANIA_P114_CB_6
 10
54.8833
 20
-18.8316
 30
0
 70
     0
  0
VERTEX
  8
SCANIA_P114_CB_6
 10
54.8833
 20
-20.8001
 30
0
 70
     0
  0
SEQEND
  0
POLYLINE
  8
SCANIA_P114_CB_6
  6
CONTINUOUS
 62
     7
 66
     1
 40
0.0139
 41
0.0139
  0
VERTEX
  8
SCANIA_P114_CB_6
 10
56.8518
 20
-13.4655
 30
0
 70
     0
  0
VERTEX
  8
SCANIA_P114_CB_6
 10
58.8204
 20
-13.4655
 30
0
 70
     0
  0
SEQEND
  0
POLYLINE
  8
SCANIA_P114_CB_6
  6
CONTINUOUS
 62
     7
 66
     1
 40
0.0139
 41
0.0139
  0
VERTEX
  8
SCANIA_P114_CB_6
 10
-18.2343
 20
1.1684
 30
0
 70
     0
  0
VERTEX
  8
SCANIA_P114_CB_6
 10
-24.4626
 20
7.3968
 30
0
 70
     0
  0
SEQEND
  0
POLYLINE
  8
SCANIA_P114_CB_6
  6
CONTINUOUS
 62
     7
 66
     1
 40
0.0139
 41
0.0139
  0
VERTEX
  8
SCANIA_P114_CB_6
 10
-42.1639
 20
14.7373
 30
0
 70
     0
  0
VERTEX
  8
SCANIA_P114_CB_6
 10
-42.1639
 20
63.7373
 30
0
 70
     0
  0
SEQEND
  0
POLYLINE
  8
SCANIA_P114_CB_6
  6
CONTINUOUS
 62
     7
 66
     1
 40
0.0139
 41
0.0139
  0
VERTEX
  8
SCANIA_P114_CB_6
 10
-14.957
 20
-0.0127
 30
0
 70
     0
  0
VERTEX
  8
SCANIA_P114_CB_6
 10
-0.0379
 20
-0.0127
 30
0
 70
     0
  0
SEQEND
  0
POLYLINE
  8
SCANIA_P114_CB_6
  6
CONTINUOUS
 62
     7
 66
     1
 40
0.0139
 41
0.0139
  0
VERTEX
  8
SCANIA_P114_CB_6
 10
43.6254
 20
66.7983
 30
0
 70
     0
  0
VERTEX
  8
SCANIA_P114_CB_6
 10
43.7398
 20
67.055
 30
0
 70
     0
  0
VERTEX
  8
SCANIA_P114_CB_6
 10
43.8489
 20
67.2999
 30
0
 70
     0
  0
VERTEX
  8
SCANIA_P114_CB_6
 10
43.9014
 20
67.4178
 30
0
 70
     0
  0
VERTEX
  8
SCANIA_P114_CB_6
 10
43.9526
 20
67.5328
 30
0
 70
     0
  0
VERTEX
  8
SCANIA_P114_CB_6
 10
43.9777
 20
67.5891
 30
0
 70
     0
  0
VERTEX
  8
SCANIA_P114_CB_6
 10
44.0023
 20
67.6445
 30
0
 70
     0
  0
VERTEX
  8
SCANIA_P114_CB_6
 10
44.0266
 20
67.6989
 30
0
 70
     0
  0
VERTEX
  8
SCANIA_P114_CB_6
 10
44.0503
 20
67.7522
 30
0
 70
     0
  0
VERTEX
  8
SCANIA_P114_CB_6
 10
44.1409
 20
67.9559
 30
0
 70
     0
  0
VERTEX
  8
SCANIA_P114_CB_6
 10
44.2245
 20
68.1436
 30
0
 70
     0
  0
VERTEX
  8
SCANIA_P114_CB_6
 10
44.3009
 20
68.3155
 30
0
 70
     0
  0
VERTEX
  8
SCANIA_P114_CB_6
 10
44.3702
 20
68.4713
 30
0
 70
     0
  0
VERTEX
  8
SCANIA_P114_CB_6
 10
44.4021
 20
68.5432
 30
0
 70
     0
  0
VERTEX
  8
SCANIA_P114_CB_6
 10
44.4322
 20
68.6109
 30
0
 70
     0
  0
VERTEX
  8
SCANIA_P114_CB_6
 10
44.4466
 20
68.6432
 30
0
 70
     0
  0
VERTEX
  8
SCANIA_P114_CB_6
 10
44.4605
 20
68.6744
 30
0
 70
     0
  0
VERTEX
  8
SCANIA_P114_CB_6
 10
44.4739
 20
68.7046
 30
0
 70
     0
  0
VERTEX
  8
SCANIA_P114_CB_6
 10
44.4868
 20
68.7335
 30
0
 70
     0
  0
VERTEX
  8
SCANIA_P114_CB_6
 10
44.533
 20
68.8375
 30
0
 70
     0
  0
VERTEX
  8
SCANIA_P114_CB_6
 10
44.5708
 20
68.9227
 30
0
 70
     0
  0
VERTEX
  8
SCANIA_P114_CB_6
 10
44.6004
 20
68.9892
 30
0
 70
     0
  0
VERTEX
  8
SCANIA_P114_CB_6
 10
44.6216
 20
69.037
 30
0
 70
     0
  0
VERTEX
  8
SCANIA_P114_CB_6
 10
44.6345
 20
69.066
 30
0
 70
     0
  0
VERTEX
  8
SCANIA_P114_CB_6
 10
44.6388
 20
69.0757
 30
0
 70
     0
  0
SEQEND
  0
POLYLINE
  8
SCANIA_P114_CB_6
  6
CONTINUOUS
 62
     7
 66
     1
 40
0.0139
 41
0.0139
  0
VERTEX
  8
SCANIA_P114_CB_6
 10
-19.8384
 20
60.2517
 30
0
 70
     0
  0
VERTEX
  8
SCANIA_P114_CB_6
 10
-27.6825
 20
60.938
 30
0
 70
     0
  0
SEQEND
  0
POLYLINE
  8
SCANIA_P114_CB_6
  6
CONTINUOUS
 62
     7
 66
     1
 40
0.0139
 41
0.0139
  0
VERTEX
  8
SCANIA_P114_CB_6
 10
49.9621
 20
60.8928
 30
0
 70
     0
  0
VERTEX
  8
SCANIA_P114_CB_6
 10
53.8991
 20
60.8928
 30
0
 70
     0
  0
SEQEND
  0
POLYLINE
  8
SCANIA_P114_CB_6
  6
CONTINUOUS
 62
     7
 66
     1
 40
0.0139
 41
0.0139
  0
VERTEX
  8
SCANIA_P114_CB_6
 10
-34.782
 20
5.8928
 30
0
 70
     0
  0
VERTEX
  8
SCANIA_P114_CB_6
 10
-34.782
 20
1.9558
 30
0
 70
     0
  0
SEQEND
  0
POLYLINE
  8
SCANIA_P114_CB_6
  6
CONTINUOUS
 62
     7
 66
     1
 40
0.0139
 41
0.0139
  0
VERTEX
  8
SCANIA_P114_CB_6
 10
-39.7033
 20
5.8928
 30
0
 70
     0
  0
VERTEX
  8
SCANIA_P114_CB_6
 10
-39.7033
 20
9.8298
 30
0
 70
     0
  0
SEQEND
  0
POLYLINE
  8
SCANIA_P114_CB_6
  6
CONTINUOUS
 62
     7
 66
     1
 40
0.0139
 41
0.0139
  0
VERTEX
  8
SCANIA_P114_CB_6
 10
-32.3214
 20
63.7373
 30
0
 70
     0
  0
VERTEX
  8
SCANIA_P114_CB_6
 10
-32.3214
 20
14.7373
 30
0
 70
     0
  0
SEQEND
  0
ENDSEC
  0
EOF
