  0
SECTION
  2
HEADER
  9
$ACADVER
  1
AC1006
  9
$AXISMODE
 70
     0
  9
$AXISUNIT
 10
0.125
 20
0.125
  9
$CECOLOR
 62
0
  9
$CELTYPE
  6
CONTINUOUS
  9
$CLAYER
  8
0
  9
$EXTMIN
 10
0
 20
0
  9
$EXTMAX
 10
34.6667
 20
22.4306
  9
$LIMMIN
 10
0
 20
0
  9
$LIMMAX
 10
34.6667
 20
22.4306
  9
$GRIDMODE
 70
     0
  9
$GRIDUNIT
 10
0.125
 20
0.125
  9
$MIRRTEXT
 70
     1
  9
$SNAPMODE
 70
     1
  9
$SNAPUNIT
 10
0.125
 20
0
  9
$SNAPSTYLE
 70
     0
  9
$SPLINESEGS
 70
     8
  9
$SPLINETYPE
 70
     6
  0
ENDSEC
  0
SECTION
  2
TABLES
  0
TABLE
  2
LTYPE
 70
     1
  0
LTYPE
  2
CONTINUOUS
 70
    64
  3
Descriptive Text
 72
    65
 73
     0
 40
0
  0
ENDTAB
  0
TABLE
  2
LAYER
 70
     2
  0
LAYER
  2
0
 70
     0
 62
     7
  6
CONTINUOUS
  0
LAYER
  2
VOLVO_FM10__WB_3
 70
     0
 62
     7
  6
CONTINUOUS
  0
ENDTAB
  0
TABLE
  2
STYLE
 70
     1
  0
STYLE
  2
STANDARD
 70
    64
 40
0.0
 41
1.0
 50
0.0
 71
     0
 42
0.2
  3
txt
  4

  0
STYLE
  2
ARIAL
 70
    64
 40
0.0
 41
1.0
 50
0.0
 71
     0
 42
0.2
  3
arial
  4

  0
ENDTAB
  0
TABLE
  2
VIEW
 70
     0
  0
ENDTAB
  0
TABLE
  2
USC
 70
     0
  0
ENDTAB
  0
TABLE
  2
DWGMGR
 70
     0
  0
ENDTAB
  0
ENDSEC
  0
SECTION
  2
BLOCKS
  0
ENDSEC
  0
SECTION
  2
ENTITIES
  0
POLYLINE
  8
VOLVO_FM10__WB_3
  6
CONTINUOUS
 62
     7
 66
     1
 40
0.0139
 41
0.0139
  0
VERTEX
  8
VOLVO_FM10__WB_3
 10
-29.7595
 20
25.6184
 30
0
 70
     0
  0
VERTEX
  8
VOLVO_FM10__WB_3
 10
-4.0861
 20
29.286
 30
0
 70
     0
  0
SEQEND
  0
POLYLINE
  8
VOLVO_FM10__WB_3
  6
CONTINUOUS
 62
     7
 66
     1
 40
0.0139
 41
0.0139
  0
VERTEX
  8
VOLVO_FM10__WB_3
 10
-24.3275
 20
49.3726
 30
0
 70
     0
  0
VERTEX
  8
VOLVO_FM10__WB_3
 10
-29.6829
 20
37.2449
 30
0
 70
     0
  0
SEQEND
  0
POLYLINE
  8
VOLVO_FM10__WB_3
  6
CONTINUOUS
 62
     7
 66
     1
 40
0.0139
 41
0.0139
  0
VERTEX
  8
VOLVO_FM10__WB_3
 10
115.5011
 20
-11.8163
 30
0
 70
     0
  0
VERTEX
  8
VOLVO_FM10__WB_3
 10
21.6741
 20
-11.8163
 30
0
 70
     0
  0
SEQEND
  0
POLYLINE
  8
VOLVO_FM10__WB_3
  6
CONTINUOUS
 62
     7
 66
     1
 40
0.0139
 41
0.0139
  0
VERTEX
  8
VOLVO_FM10__WB_3
 10
20.5418
 20
-11.8163
 30
0
 70
     0
  0
VERTEX
  8
VOLVO_FM10__WB_3
 10
17.7167
 20
-11.8163
 30
0
 70
     0
  0
SEQEND
  0
POLYLINE
  8
VOLVO_FM10__WB_3
  6
CONTINUOUS
 62
     7
 66
     1
 40
0.0139
 41
0.0139
  0
VERTEX
  8
VOLVO_FM10__WB_3
 10
165.321
 20
-0.0053
 30
0
 70
     0
  0
VERTEX
  8
VOLVO_FM10__WB_3
 10
17.2891
 20
-0.0053
 30
0
 70
     0
  0
SEQEND
  0
POLYLINE
  8
VOLVO_FM10__WB_3
  6
CONTINUOUS
 62
     7
 66
     1
 40
0.0139
 41
0.0139
  0
VERTEX
  8
VOLVO_FM10__WB_3
 10
-36.5962
 20
33.9894
 30
0
 70
     0
  0
VERTEX
  8
VOLVO_FM10__WB_3
 10
-33.9741
 20
40.0084
 30
0
 70
     0
  0
SEQEND
  0
POLYLINE
  8
VOLVO_FM10__WB_3
  6
CONTINUOUS
 62
     7
 66
     1
 40
0.0139
 41
0.0139
  0
VERTEX
  8
VOLVO_FM10__WB_3
 10
-31.2703
 20
46.2152
 30
0
 70
     0
  0
VERTEX
  8
VOLVO_FM10__WB_3
 10
-29.4529
 20
50.3872
 30
0
 70
     0
  0
SEQEND
  0
POLYLINE
  8
VOLVO_FM10__WB_3
  6
CONTINUOUS
 62
     7
 66
     1
 40
0.0139
 41
0.0139
  0
VERTEX
  8
VOLVO_FM10__WB_3
 10
11.3835
 20
-2.2975
 30
0
 70
     0
  0
VERTEX
  8
VOLVO_FM10__WB_3
 10
11.3835
 20
-5.4492
 30
0
 70
     0
  0
SEQEND
  0
POLYLINE
  8
VOLVO_FM10__WB_3
  6
CONTINUOUS
 62
     7
 66
     1
 40
0.0139
 41
0.0139
  0
VERTEX
  8
VOLVO_FM10__WB_3
 10
3.5095
 20
0.9522
 30
0
 70
     0
  0
VERTEX
  8
VOLVO_FM10__WB_3
 10
3.5234
 20
0.9539
 30
0
 70
     0
  0
VERTEX
  8
VOLVO_FM10__WB_3
 10
3.5374
 20
0.9556
 30
0
 70
     0
  0
VERTEX
  8
VOLVO_FM10__WB_3
 10
3.5514
 20
0.9573
 30
0
 70
     0
  0
VERTEX
  8
VOLVO_FM10__WB_3
 10
3.5653
 20
0.959
 30
0
 70
     0
  0
VERTEX
  8
VOLVO_FM10__WB_3
 10
3.5932
 20
0.9624
 30
0
 70
     0
  0
VERTEX
  8
VOLVO_FM10__WB_3
 10
3.621
 20
0.9657
 30
0
 70
     0
  0
VERTEX
  8
VOLVO_FM10__WB_3
 10
3.6767
 20
0.9723
 30
0
 70
     0
  0
VERTEX
  8
VOLVO_FM10__WB_3
 10
3.7324
 20
0.9787
 30
0
 70
     0
  0
VERTEX
  8
VOLVO_FM10__WB_3
 10
3.8436
 20
0.9912
 30
0
 70
     0
  0
VERTEX
  8
VOLVO_FM10__WB_3
 10
3.9546
 20
1.003
 30
0
 70
     0
  0
VERTEX
  8
VOLVO_FM10__WB_3
 10
4.1761
 20
1.0246
 30
0
 70
     0
  0
VERTEX
  8
VOLVO_FM10__WB_3
 10
4.3969
 20
1.0431
 30
0
 70
     0
  0
VERTEX
  8
VOLVO_FM10__WB_3
 10
4.8365
 20
1.0695
 30
0
 70
     0
  0
VERTEX
  8
VOLVO_FM10__WB_3
 10
5.2737
 20
1.0784
 30
0
 70
     0
  0
VERTEX
  8
VOLVO_FM10__WB_3
 10
5.3826
 20
1.0775
 30
0
 70
     0
  0
VERTEX
  8
VOLVO_FM10__WB_3
 10
5.4914
 20
1.0751
 30
0
 70
     0
  0
VERTEX
  8
VOLVO_FM10__WB_3
 10
5.6001
 20
1.0712
 30
0
 70
     0
  0
VERTEX
  8
VOLVO_FM10__WB_3
 10
5.7084
 20
1.0657
 30
0
 70
     0
  0
VERTEX
  8
VOLVO_FM10__WB_3
 10
5.9225
 20
1.0497
 30
0
 70
     0
  0
VERTEX
  8
VOLVO_FM10__WB_3
 10
6.1333
 20
1.0266
 30
0
 70
     0
  0
VERTEX
  8
VOLVO_FM10__WB_3
 10
6.3407
 20
0.9956
 30
0
 70
     0
  0
VERTEX
  8
VOLVO_FM10__WB_3
 10
6.5446
 20
0.9559
 30
0
 70
     0
  0
VERTEX
  8
VOLVO_FM10__WB_3
 10
6.745
 20
0.9065
 30
0
 70
     0
  0
VERTEX
  8
VOLVO_FM10__WB_3
 10
6.9417
 20
0.8464
 30
0
 70
     0
  0
SEQEND
  0
POLYLINE
  8
VOLVO_FM10__WB_3
  6
CONTINUOUS
 62
     7
 66
     1
 40
0.0139
 41
0.0139
  0
VERTEX
  8
VOLVO_FM10__WB_3
 10
23.7537
 20
-26.0525
 30
0
 70
     0
  0
VERTEX
  8
VOLVO_FM10__WB_3
 10
23.481
 20
-26.0525
 30
0
 70
     0
  0
SEQEND
  0
POLYLINE
  8
VOLVO_FM10__WB_3
  6
CONTINUOUS
 62
     7
 66
     1
 40
0.0139
 41
0.0139
  0
VERTEX
  8
VOLVO_FM10__WB_3
 10
24.5295
 20
-22.0639
 30
0
 70
     0
  0
VERTEX
  8
VOLVO_FM10__WB_3
 10
24.493
 20
-21.5731
 30
0
 70
     0
  0
VERTEX
  8
VOLVO_FM10__WB_3
 10
24.4473
 20
-21.0846
 30
0
 70
     0
  0
VERTEX
  8
VOLVO_FM10__WB_3
 10
24.3927
 20
-20.5985
 30
0
 70
     0
  0
VERTEX
  8
VOLVO_FM10__WB_3
 10
24.3291
 20
-20.1147
 30
0
 70
     0
  0
VERTEX
  8
VOLVO_FM10__WB_3
 10
24.2566
 20
-19.6334
 30
0
 70
     0
  0
VERTEX
  8
VOLVO_FM10__WB_3
 10
24.1753
 20
-19.1547
 30
0
 70
     0
  0
VERTEX
  8
VOLVO_FM10__WB_3
 10
24.0852
 20
-18.6787
 30
0
 70
     0
  0
VERTEX
  8
VOLVO_FM10__WB_3
 10
23.9866
 20
-18.2055
 30
0
 70
     0
  0
VERTEX
  8
VOLVO_FM10__WB_3
 10
23.8793
 20
-17.7351
 30
0
 70
     0
  0
VERTEX
  8
VOLVO_FM10__WB_3
 10
23.7635
 20
-17.2678
 30
0
 70
     0
  0
VERTEX
  8
VOLVO_FM10__WB_3
 10
23.6393
 20
-16.8035
 30
0
 70
     0
  0
VERTEX
  8
VOLVO_FM10__WB_3
 10
23.5067
 20
-16.3425
 30
0
 70
     0
  0
VERTEX
  8
VOLVO_FM10__WB_3
 10
23.3659
 20
-15.8847
 30
0
 70
     0
  0
VERTEX
  8
VOLVO_FM10__WB_3
 10
23.2168
 20
-15.4302
 30
0
 70
     0
  0
VERTEX
  8
VOLVO_FM10__WB_3
 10
23.0596
 20
-14.9793
 30
0
 70
     0
  0
VERTEX
  8
VOLVO_FM10__WB_3
 10
22.8944
 20
-14.5319
 30
0
 70
     0
  0
VERTEX
  8
VOLVO_FM10__WB_3
 10
22.7211
 20
-14.0882
 30
0
 70
     0
  0
VERTEX
  8
VOLVO_FM10__WB_3
 10
22.5399
 20
-13.6482
 30
0
 70
     0
  0
VERTEX
  8
VOLVO_FM10__WB_3
 10
22.3509
 20
-13.2121
 30
0
 70
     0
  0
VERTEX
  8
VOLVO_FM10__WB_3
 10
22.1542
 20
-12.7799
 30
0
 70
     0
  0
VERTEX
  8
VOLVO_FM10__WB_3
 10
21.9497
 20
-12.3518
 30
0
 70
     0
  0
VERTEX
  8
VOLVO_FM10__WB_3
 10
21.7377
 20
-11.9279
 30
0
 70
     0
  0
VERTEX
  8
VOLVO_FM10__WB_3
 10
21.5181
 20
-11.5082
 30
0
 70
     0
  0
VERTEX
  8
VOLVO_FM10__WB_3
 10
21.291
 20
-11.0928
 30
0
 70
     0
  0
VERTEX
  8
VOLVO_FM10__WB_3
 10
21.0565
 20
-10.6819
 30
0
 70
     0
  0
VERTEX
  8
VOLVO_FM10__WB_3
 10
20.8148
 20
-10.2755
 30
0
 70
     0
  0
VERTEX
  8
VOLVO_FM10__WB_3
 10
20.5658
 20
-9.8738
 30
0
 70
     0
  0
VERTEX
  8
VOLVO_FM10__WB_3
 10
20.3096
 20
-9.4768
 30
0
 70
     0
  0
VERTEX
  8
VOLVO_FM10__WB_3
 10
20.0463
 20
-9.0846
 30
0
 70
     0
  0
VERTEX
  8
VOLVO_FM10__WB_3
 10
19.776
 20
-8.6973
 30
0
 70
     0
  0
VERTEX
  8
VOLVO_FM10__WB_3
 10
19.4988
 20
-8.3151
 30
0
 70
     0
  0
VERTEX
  8
VOLVO_FM10__WB_3
 10
19.2146
 20
-7.938
 30
0
 70
     0
  0
VERTEX
  8
VOLVO_FM10__WB_3
 10
18.9237
 20
-7.5661
 30
0
 70
     0
  0
VERTEX
  8
VOLVO_FM10__WB_3
 10
18.6261
 20
-7.1995
 30
0
 70
     0
  0
VERTEX
  8
VOLVO_FM10__WB_3
 10
18.3218
 20
-6.8383
 30
0
 70
     0
  0
VERTEX
  8
VOLVO_FM10__WB_3
 10
18.011
 20
-6.4826
 30
0
 70
     0
  0
VERTEX
  8
VOLVO_FM10__WB_3
 10
17.6937
 20
-6.1325
 30
0
 70
     0
  0
VERTEX
  8
VOLVO_FM10__WB_3
 10
17.3699
 20
-5.7882
 30
0
 70
     0
  0
VERTEX
  8
VOLVO_FM10__WB_3
 10
17.0398
 20
-5.4496
 30
0
 70
     0
  0
VERTEX
  8
VOLVO_FM10__WB_3
 10
16.7034
 20
-5.1169
 30
0
 70
     0
  0
VERTEX
  8
VOLVO_FM10__WB_3
 10
16.3608
 20
-4.7902
 30
0
 70
     0
  0
VERTEX
  8
VOLVO_FM10__WB_3
 10
16.0121
 20
-4.4697
 30
0
 70
     0
  0
VERTEX
  8
VOLVO_FM10__WB_3
 10
15.6574
 20
-4.1553
 30
0
 70
     0
  0
VERTEX
  8
VOLVO_FM10__WB_3
 10
15.2966
 20
-3.8471
 30
0
 70
     0
  0
VERTEX
  8
VOLVO_FM10__WB_3
 10
14.93
 20
-3.5454
 30
0
 70
     0
  0
VERTEX
  8
VOLVO_FM10__WB_3
 10
14.5575
 20
-3.2501
 30
0
 70
     0
  0
VERTEX
  8
VOLVO_FM10__WB_3
 10
14.1793
 20
-2.9614
 30
0
 70
     0
  0
VERTEX
  8
VOLVO_FM10__WB_3
 10
13.7954
 20
-2.6794
 30
0
 70
     0
  0
VERTEX
  8
VOLVO_FM10__WB_3
 10
13.4059
 20
-2.4042
 30
0
 70
     0
  0
VERTEX
  8
VOLVO_FM10__WB_3
 10
13.0109
 20
-2.1358
 30
0
 70
     0
  0
VERTEX
  8
VOLVO_FM10__WB_3
 10
12.6104
 20
-1.8744
 30
0
 70
     0
  0
VERTEX
  8
VOLVO_FM10__WB_3
 10
12.2046
 20
-1.62
 30
0
 70
     0
  0
VERTEX
  8
VOLVO_FM10__WB_3
 10
11.7934
 20
-1.3728
 30
0
 70
     0
  0
VERTEX
  8
VOLVO_FM10__WB_3
 10
11.377
 20
-1.1329
 30
0
 70
     0
  0
VERTEX
  8
VOLVO_FM10__WB_3
 10
10.9555
 20
-0.9003
 30
0
 70
     0
  0
VERTEX
  8
VOLVO_FM10__WB_3
 10
10.5288
 20
-0.6751
 30
0
 70
     0
  0
VERTEX
  8
VOLVO_FM10__WB_3
 10
10.0972
 20
-0.4575
 30
0
 70
     0
  0
VERTEX
  8
VOLVO_FM10__WB_3
 10
9.6606
 20
-0.2475
 30
0
 70
     0
  0
VERTEX
  8
VOLVO_FM10__WB_3
 10
9.2192
 20
-0.0453
 30
0
 70
     0
  0
VERTEX
  8
VOLVO_FM10__WB_3
 10
8.773
 20
0.1491
 30
0
 70
     0
  0
VERTEX
  8
VOLVO_FM10__WB_3
 10
8.322
 20
0.3356
 30
0
 70
     0
  0
VERTEX
  8
VOLVO_FM10__WB_3
 10
7.8665
 20
0.514
 30
0
 70
     0
  0
VERTEX
  8
VOLVO_FM10__WB_3
 10
7.4063
 20
0.6843
 30
0
 70
     0
  0
VERTEX
  8
VOLVO_FM10__WB_3
 10
6.9417
 20
0.8464
 30
0
 70
     0
  0
SEQEND
  0
POLYLINE
  8
VOLVO_FM10__WB_3
  6
CONTINUOUS
 62
     7
 66
     1
 40
0.0139
 41
0.0139
  0
VERTEX
  8
VOLVO_FM10__WB_3
 10
23.4802
 20
-26.0618
 30
0
 70
     0
  0
VERTEX
  8
VOLVO_FM10__WB_3
 10
23.5209
 20
-25.57
 30
0
 70
     0
  0
VERTEX
  8
VOLVO_FM10__WB_3
 10
23.5519
 20
-25.0778
 30
0
 70
     0
  0
VERTEX
  8
VOLVO_FM10__WB_3
 10
23.573
 20
-24.585
 30
0
 70
     0
  0
VERTEX
  8
VOLVO_FM10__WB_3
 10
23.5842
 20
-24.092
 30
0
 70
     0
  0
VERTEX
  8
VOLVO_FM10__WB_3
 10
23.5857
 20
-23.5989
 30
0
 70
     0
  0
VERTEX
  8
VOLVO_FM10__WB_3
 10
23.5773
 20
-23.1058
 30
0
 70
     0
  0
VERTEX
  8
VOLVO_FM10__WB_3
 10
23.5591
 20
-22.6129
 30
0
 70
     0
  0
VERTEX
  8
VOLVO_FM10__WB_3
 10
23.531
 20
-22.1203
 30
0
 70
     0
  0
SEQEND
  0
POLYLINE
  8
VOLVO_FM10__WB_3
  6
CONTINUOUS
 62
     7
 66
     1
 40
0.0139
 41
0.0139
  0
VERTEX
  8
VOLVO_FM10__WB_3
 10
24.5392
 20
-25.3215
 30
0
 70
     0
  0
VERTEX
  8
VOLVO_FM10__WB_3
 10
24.5606
 20
-24.9151
 30
0
 70
     0
  0
VERTEX
  8
VOLVO_FM10__WB_3
 10
24.5755
 20
-24.5085
 30
0
 70
     0
  0
VERTEX
  8
VOLVO_FM10__WB_3
 10
24.584
 20
-24.1018
 30
0
 70
     0
  0
VERTEX
  8
VOLVO_FM10__WB_3
 10
24.5861
 20
-23.695
 30
0
 70
     0
  0
VERTEX
  8
VOLVO_FM10__WB_3
 10
24.5817
 20
-23.2882
 30
0
 70
     0
  0
VERTEX
  8
VOLVO_FM10__WB_3
 10
24.5708
 20
-22.8815
 30
0
 70
     0
  0
VERTEX
  8
VOLVO_FM10__WB_3
 10
24.5535
 20
-22.475
 30
0
 70
     0
  0
VERTEX
  8
VOLVO_FM10__WB_3
 10
24.5298
 20
-22.0688
 30
0
 70
     0
  0
SEQEND
  0
POLYLINE
  8
VOLVO_FM10__WB_3
  6
CONTINUOUS
 62
     7
 66
     1
 40
0.0139
 41
0.0139
  0
VERTEX
  8
VOLVO_FM10__WB_3
 10
25.9505
 20
55.1128
 30
0
 70
     0
  0
VERTEX
  8
VOLVO_FM10__WB_3
 10
25.9505
 20
85.8215
 30
0
 70
     0
  0
SEQEND
  0
POLYLINE
  8
VOLVO_FM10__WB_3
  6
CONTINUOUS
 62
     7
 66
     1
 40
0.0139
 41
0.0139
  0
VERTEX
  8
VOLVO_FM10__WB_3
 10
19.4544
 20
55.1128
 30
0
 70
     0
  0
VERTEX
  8
VOLVO_FM10__WB_3
 10
19.4544
 20
-0.0053
 30
0
 70
     0
  0
SEQEND
  0
POLYLINE
  8
VOLVO_FM10__WB_3
  6
CONTINUOUS
 62
     7
 66
     1
 40
0.0139
 41
0.0139
  0
VERTEX
  8
VOLVO_FM10__WB_3
 10
-17.0856
 20
61.9732
 30
0
 70
     0
  0
VERTEX
  8
VOLVO_FM10__WB_3
 10
-17.0832
 20
61.8513
 30
0
 70
     0
  0
VERTEX
  8
VOLVO_FM10__WB_3
 10
-17.0746
 20
61.731
 30
0
 70
     0
  0
VERTEX
  8
VOLVO_FM10__WB_3
 10
-17.06
 20
61.6124
 30
0
 70
     0
  0
VERTEX
  8
VOLVO_FM10__WB_3
 10
-17.0397
 20
61.4957
 30
0
 70
     0
  0
VERTEX
  8
VOLVO_FM10__WB_3
 10
-17.0137
 20
61.381
 30
0
 70
     0
  0
VERTEX
  8
VOLVO_FM10__WB_3
 10
-16.9823
 20
61.2685
 30
0
 70
     0
  0
VERTEX
  8
VOLVO_FM10__WB_3
 10
-16.9455
 20
61.1583
 30
0
 70
     0
  0
VERTEX
  8
VOLVO_FM10__WB_3
 10
-16.9034
 20
61.0506
 30
0
 70
     0
  0
VERTEX
  8
VOLVO_FM10__WB_3
 10
-16.8044
 20
60.8433
 30
0
 70
     0
  0
VERTEX
  8
VOLVO_FM10__WB_3
 10
-16.6863
 20
60.6476
 30
0
 70
     0
  0
VERTEX
  8
VOLVO_FM10__WB_3
 10
-16.5505
 20
60.4649
 30
0
 70
     0
  0
VERTEX
  8
VOLVO_FM10__WB_3
 10
-16.398
 20
60.2964
 30
0
 70
     0
  0
VERTEX
  8
VOLVO_FM10__WB_3
 10
-16.2302
 20
60.1431
 30
0
 70
     0
  0
VERTEX
  8
VOLVO_FM10__WB_3
 10
-16.0481
 20
60.0064
 30
0
 70
     0
  0
VERTEX
  8
VOLVO_FM10__WB_3
 10
-15.853
 20
59.8875
 30
0
 70
     0
  0
VERTEX
  8
VOLVO_FM10__WB_3
 10
-15.6461
 20
59.7875
 30
0
 70
     0
  0
VERTEX
  8
VOLVO_FM10__WB_3
 10
-15.5386
 20
59.745
 30
0
 70
     0
  0
VERTEX
  8
VOLVO_FM10__WB_3
 10
-15.4286
 20
59.7076
 30
0
 70
     0
  0
VERTEX
  8
VOLVO_FM10__WB_3
 10
-15.3162
 20
59.6756
 30
0
 70
     0
  0
VERTEX
  8
VOLVO_FM10__WB_3
 10
-15.2017
 20
59.6491
 30
0
 70
     0
  0
VERTEX
  8
VOLVO_FM10__WB_3
 10
-15.085
 20
59.6283
 30
0
 70
     0
  0
VERTEX
  8
VOLVO_FM10__WB_3
 10
-14.9665
 20
59.6132
 30
0
 70
     0
  0
VERTEX
  8
VOLVO_FM10__WB_3
 10
-14.8462
 20
59.604
 30
0
 70
     0
  0
VERTEX
  8
VOLVO_FM10__WB_3
 10
-14.7243
 20
59.601
 30
0
 70
     0
  0
SEQEND
  0
POLYLINE
  8
VOLVO_FM10__WB_3
  6
CONTINUOUS
 62
     7
 66
     1
 40
0.0139
 41
0.0139
  0
VERTEX
  8
VOLVO_FM10__WB_3
 10
-14.7235
 20
59.601
 30
0
 70
     0
  0
VERTEX
  8
VOLVO_FM10__WB_3
 10
5.9682
 20
59.601
 30
0
 70
     0
  0
SEQEND
  0
POLYLINE
  8
VOLVO_FM10__WB_3
  6
CONTINUOUS
 62
     7
 66
     1
 40
0.0139
 41
0.0139
  0
VERTEX
  8
VOLVO_FM10__WB_3
 10
11.3835
 20
52.1207
 30
0
 70
     0
  0
VERTEX
  8
VOLVO_FM10__WB_3
 10
11.3774
 20
52.4384
 30
0
 70
     0
  0
VERTEX
  8
VOLVO_FM10__WB_3
 10
11.3587
 20
52.7536
 30
0
 70
     0
  0
VERTEX
  8
VOLVO_FM10__WB_3
 10
11.3275
 20
53.066
 30
0
 70
     0
  0
VERTEX
  8
VOLVO_FM10__WB_3
 10
11.2842
 20
53.3752
 30
0
 70
     0
  0
VERTEX
  8
VOLVO_FM10__WB_3
 10
11.2289
 20
53.6811
 30
0
 70
     0
  0
VERTEX
  8
VOLVO_FM10__WB_3
 10
11.1618
 20
53.9833
 30
0
 70
     0
  0
VERTEX
  8
VOLVO_FM10__WB_3
 10
11.0831
 20
54.2815
 30
0
 70
     0
  0
VERTEX
  8
VOLVO_FM10__WB_3
 10
10.9931
 20
54.5754
 30
0
 70
     0
  0
VERTEX
  8
VOLVO_FM10__WB_3
 10
10.8919
 20
54.8649
 30
0
 70
     0
  0
VERTEX
  8
VOLVO_FM10__WB_3
 10
10.7797
 20
55.1494
 30
0
 70
     0
  0
VERTEX
  8
VOLVO_FM10__WB_3
 10
10.6569
 20
55.4289
 30
0
 70
     0
  0
VERTEX
  8
VOLVO_FM10__WB_3
 10
10.5235
 20
55.7029
 30
0
 70
     0
  0
VERTEX
  8
VOLVO_FM10__WB_3
 10
10.3798
 20
55.9712
 30
0
 70
     0
  0
VERTEX
  8
VOLVO_FM10__WB_3
 10
10.226
 20
56.2335
 30
0
 70
     0
  0
VERTEX
  8
VOLVO_FM10__WB_3
 10
10.0623
 20
56.4896
 30
0
 70
     0
  0
VERTEX
  8
VOLVO_FM10__WB_3
 10
9.8889
 20
56.739
 30
0
 70
     0
  0
VERTEX
  8
VOLVO_FM10__WB_3
 10
9.7061
 20
56.9817
 30
0
 70
     0
  0
VERTEX
  8
VOLVO_FM10__WB_3
 10
9.5139
 20
57.2171
 30
0
 70
     0
  0
VERTEX
  8
VOLVO_FM10__WB_3
 10
9.3128
 20
57.4451
 30
0
 70
     0
  0
VERTEX
  8
VOLVO_FM10__WB_3
 10
9.1027
 20
57.6654
 30
0
 70
     0
  0
VERTEX
  8
VOLVO_FM10__WB_3
 10
8.8841
 20
57.8777
 30
0
 70
     0
  0
VERTEX
  8
VOLVO_FM10__WB_3
 10
8.6569
 20
58.0817
 30
0
 70
     0
  0
VERTEX
  8
VOLVO_FM10__WB_3
 10
8.4216
 20
58.2771
 30
0
 70
     0
  0
VERTEX
  8
VOLVO_FM10__WB_3
 10
8.1783
 20
58.4635
 30
0
 70
     0
  0
VERTEX
  8
VOLVO_FM10__WB_3
 10
7.9271
 20
58.6409
 30
0
 70
     0
  0
VERTEX
  8
VOLVO_FM10__WB_3
 10
7.6684
 20
58.8087
 30
0
 70
     0
  0
VERTEX
  8
VOLVO_FM10__WB_3
 10
7.4023
 20
58.9668
 30
0
 70
     0
  0
VERTEX
  8
VOLVO_FM10__WB_3
 10
7.129
 20
59.1149
 30
0
 70
     0
  0
VERTEX
  8
VOLVO_FM10__WB_3
 10
6.8487
 20
59.2526
 30
0
 70
     0
  0
VERTEX
  8
VOLVO_FM10__WB_3
 10
6.5617
 20
59.3798
 30
0
 70
     0
  0
VERTEX
  8
VOLVO_FM10__WB_3
 10
6.2681
 20
59.496
 30
0
 70
     0
  0
VERTEX
  8
VOLVO_FM10__WB_3
 10
5.9682
 20
59.601
 30
0
 70
     0
  0
SEQEND
  0
POLYLINE
  8
VOLVO_FM10__WB_3
  6
CONTINUOUS
 62
     7
 66
     1
 40
0.0139
 41
0.0139
  0
VERTEX
  8
VOLVO_FM10__WB_3
 10
11.3835
 20
52.1207
 30
0
 70
     0
  0
VERTEX
  8
VOLVO_FM10__WB_3
 10
11.3835
 20
-0.0053
 30
0
 70
     0
  0
SEQEND
  0
POLYLINE
  8
VOLVO_FM10__WB_3
  6
CONTINUOUS
 62
     7
 66
     1
 40
0.0139
 41
0.0139
  0
VERTEX
  8
VOLVO_FM10__WB_3
 10
15.3206
 20
35.3834
 30
0
 70
     0
  0
VERTEX
  8
VOLVO_FM10__WB_3
 10
17.2891
 20
35.4278
 30
0
 70
     0
  0
SEQEND
  0
POLYLINE
  8
VOLVO_FM10__WB_3
  6
CONTINUOUS
 62
     7
 66
     1
 40
0.0139
 41
0.0139
  0
VERTEX
  8
VOLVO_FM10__WB_3
 10
11.3835
 20
-0.0053
 30
0
 70
     0
  0
VERTEX
  8
VOLVO_FM10__WB_3
 10
15.3206
 20
-0.0053
 30
0
 70
     0
  0
SEQEND
  0
POLYLINE
  8
VOLVO_FM10__WB_3
  6
CONTINUOUS
 62
     7
 66
     1
 40
0.0139
 41
0.0139
  0
VERTEX
  8
VOLVO_FM10__WB_3
 10
25.9505
 20
85.8215
 30
0
 70
     0
  0
VERTEX
  8
VOLVO_FM10__WB_3
 10
22.0135
 20
85.8215
 30
0
 70
     0
  0
SEQEND
  0
POLYLINE
  8
VOLVO_FM10__WB_3
  6
CONTINUOUS
 62
     7
 66
     1
 40
0.0139
 41
0.0139
  0
VERTEX
  8
VOLVO_FM10__WB_3
 10
28.5095
 20
55.1128
 30
0
 70
     0
  0
VERTEX
  8
VOLVO_FM10__WB_3
 10
19.4544
 20
55.1128
 30
0
 70
     0
  0
SEQEND
  0
POLYLINE
  8
VOLVO_FM10__WB_3
  6
CONTINUOUS
 62
     7
 66
     1
 40
0.0139
 41
0.0139
  0
VERTEX
  8
VOLVO_FM10__WB_3
 10
-33.1086
 20
33.0051
 30
0
 70
     0
  0
VERTEX
  8
VOLVO_FM10__WB_3
 10
-32.6276
 20
33.0051
 30
0
 70
     0
  0
SEQEND
  0
POLYLINE
  8
VOLVO_FM10__WB_3
  6
CONTINUOUS
 62
     7
 66
     1
 40
0.0139
 41
0.0139
  0
VERTEX
  8
VOLVO_FM10__WB_3
 10
-32.6276
 20
33.9894
 30
0
 70
     0
  0
VERTEX
  8
VOLVO_FM10__WB_3
 10
-33.1086
 20
33.9894
 30
0
 70
     0
  0
SEQEND
  0
POLYLINE
  8
VOLVO_FM10__WB_3
  6
CONTINUOUS
 62
     7
 66
     1
 40
0.0139
 41
0.0139
  0
VERTEX
  8
VOLVO_FM10__WB_3
 10
-37.3835
 20
33.9894
 30
0
 70
     0
  0
VERTEX
  8
VOLVO_FM10__WB_3
 10
-33.1086
 20
33.9894
 30
0
 70
     0
  0
SEQEND
  0
POLYLINE
  8
VOLVO_FM10__WB_3
  6
CONTINUOUS
 62
     7
 66
     1
 40
0.0139
 41
0.0139
  0
VERTEX
  8
VOLVO_FM10__WB_3
 10
-33.1086
 20
33.9894
 30
0
 70
     0
  0
VERTEX
  8
VOLVO_FM10__WB_3
 10
-33.1893
 20
33.9815
 30
0
 70
     0
  0
VERTEX
  8
VOLVO_FM10__WB_3
 10
-33.272
 20
33.9562
 30
0
 70
     0
  0
VERTEX
  8
VOLVO_FM10__WB_3
 10
-33.3515
 20
33.9124
 30
0
 70
     0
  0
VERTEX
  8
VOLVO_FM10__WB_3
 10
-33.4225
 20
33.851
 30
0
 70
     0
  0
VERTEX
  8
VOLVO_FM10__WB_3
 10
-33.4801
 20
33.7755
 30
0
 70
     0
  0
VERTEX
  8
VOLVO_FM10__WB_3
 10
-33.5213
 20
33.6909
 30
0
 70
     0
  0
VERTEX
  8
VOLVO_FM10__WB_3
 10
-33.5451
 20
33.6029
 30
0
 70
     0
  0
VERTEX
  8
VOLVO_FM10__WB_3
 10
-33.5525
 20
33.5169
 30
0
 70
     0
  0
SEQEND
  0
POLYLINE
  8
VOLVO_FM10__WB_3
  6
CONTINUOUS
 62
     7
 66
     1
 40
0.0139
 41
0.0139
  0
VERTEX
  8
VOLVO_FM10__WB_3
 10
-33.5525
 20
33.4776
 30
0
 70
     0
  0
VERTEX
  8
VOLVO_FM10__WB_3
 10
-33.5451
 20
33.3916
 30
0
 70
     0
  0
VERTEX
  8
VOLVO_FM10__WB_3
 10
-33.5213
 20
33.3037
 30
0
 70
     0
  0
VERTEX
  8
VOLVO_FM10__WB_3
 10
-33.4801
 20
33.2191
 30
0
 70
     0
  0
VERTEX
  8
VOLVO_FM10__WB_3
 10
-33.4225
 20
33.1435
 30
0
 70
     0
  0
VERTEX
  8
VOLVO_FM10__WB_3
 10
-33.3515
 20
33.0821
 30
0
 70
     0
  0
VERTEX
  8
VOLVO_FM10__WB_3
 10
-33.272
 20
33.0383
 30
0
 70
     0
  0
VERTEX
  8
VOLVO_FM10__WB_3
 10
-33.1893
 20
33.013
 30
0
 70
     0
  0
VERTEX
  8
VOLVO_FM10__WB_3
 10
-33.1086
 20
33.0051
 30
0
 70
     0
  0
SEQEND
  0
POLYLINE
  8
VOLVO_FM10__WB_3
  6
CONTINUOUS
 62
     7
 66
     1
 40
0.0139
 41
0.0139
  0
VERTEX
  8
VOLVO_FM10__WB_3
 10
-33.5525
 20
33.5169
 30
0
 70
     0
  0
VERTEX
  8
VOLVO_FM10__WB_3
 10
-33.5525
 20
33.4776
 30
0
 70
     0
  0
SEQEND
  0
POLYLINE
  8
VOLVO_FM10__WB_3
  6
CONTINUOUS
 62
     7
 66
     1
 40
0.0139
 41
0.0139
  0
VERTEX
  8
VOLVO_FM10__WB_3
 10
-32.6276
 20
33.0051
 30
0
 70
     0
  0
VERTEX
  8
VOLVO_FM10__WB_3
 10
-32.6276
 20
33.9894
 30
0
 70
     0
  0
SEQEND
  0
POLYLINE
  8
VOLVO_FM10__WB_3
  6
CONTINUOUS
 62
     7
 66
     1
 40
0.0139
 41
0.0139
  0
VERTEX
  8
VOLVO_FM10__WB_3
 10
-37.381
 20
33.0051
 30
0
 70
     0
  0
VERTEX
  8
VOLVO_FM10__WB_3
 10
-33.1086
 20
33.0051
 30
0
 70
     0
  0
SEQEND
  0
POLYLINE
  8
VOLVO_FM10__WB_3
  6
CONTINUOUS
 62
     7
 66
     1
 40
0.0139
 41
0.0139
  0
VERTEX
  8
VOLVO_FM10__WB_3
 10
-37.381
 20
33.0051
 30
0
 70
     0
  0
VERTEX
  8
VOLVO_FM10__WB_3
 10
-37.4167
 20
33.0063
 30
0
 70
     0
  0
VERTEX
  8
VOLVO_FM10__WB_3
 10
-37.4523
 20
33.0099
 30
0
 70
     0
  0
SEQEND
  0
POLYLINE
  8
VOLVO_FM10__WB_3
  6
CONTINUOUS
 62
     7
 66
     1
 40
0.0139
 41
0.0139
  0
VERTEX
  8
VOLVO_FM10__WB_3
 10
-33.1086
 20
28.0042
 30
0
 70
     0
  0
VERTEX
  8
VOLVO_FM10__WB_3
 10
-32.6276
 20
28.0042
 30
0
 70
     0
  0
SEQEND
  0
POLYLINE
  8
VOLVO_FM10__WB_3
  6
CONTINUOUS
 62
     7
 66
     1
 40
0.0139
 41
0.0139
  0
VERTEX
  8
VOLVO_FM10__WB_3
 10
-32.6276
 20
28.9884
 30
0
 70
     0
  0
VERTEX
  8
VOLVO_FM10__WB_3
 10
-33.1086
 20
28.9884
 30
0
 70
     0
  0
SEQEND
  0
POLYLINE
  8
VOLVO_FM10__WB_3
  6
CONTINUOUS
 62
     7
 66
     1
 40
0.0139
 41
0.0139
  0
VERTEX
  8
VOLVO_FM10__WB_3
 10
-33.1086
 20
28.9884
 30
0
 70
     0
  0
VERTEX
  8
VOLVO_FM10__WB_3
 10
-33.1893
 20
28.9805
 30
0
 70
     0
  0
VERTEX
  8
VOLVO_FM10__WB_3
 10
-33.272
 20
28.9553
 30
0
 70
     0
  0
VERTEX
  8
VOLVO_FM10__WB_3
 10
-33.3515
 20
28.9114
 30
0
 70
     0
  0
VERTEX
  8
VOLVO_FM10__WB_3
 10
-33.4225
 20
28.8501
 30
0
 70
     0
  0
VERTEX
  8
VOLVO_FM10__WB_3
 10
-33.4801
 20
28.7745
 30
0
 70
     0
  0
VERTEX
  8
VOLVO_FM10__WB_3
 10
-33.5213
 20
28.6899
 30
0
 70
     0
  0
VERTEX
  8
VOLVO_FM10__WB_3
 10
-33.5451
 20
28.602
 30
0
 70
     0
  0
VERTEX
  8
VOLVO_FM10__WB_3
 10
-33.5525
 20
28.516
 30
0
 70
     0
  0
SEQEND
  0
POLYLINE
  8
VOLVO_FM10__WB_3
  6
CONTINUOUS
 62
     7
 66
     1
 40
0.0139
 41
0.0139
  0
VERTEX
  8
VOLVO_FM10__WB_3
 10
-32.6276
 20
28.0042
 30
0
 70
     0
  0
VERTEX
  8
VOLVO_FM10__WB_3
 10
-32.6276
 20
28.9884
 30
0
 70
     0
  0
SEQEND
  0
POLYLINE
  8
VOLVO_FM10__WB_3
  6
CONTINUOUS
 62
     7
 66
     1
 40
0.0139
 41
0.0139
  0
VERTEX
  8
VOLVO_FM10__WB_3
 10
-37.4526
 20
28.9884
 30
0
 70
     0
  0
VERTEX
  8
VOLVO_FM10__WB_3
 10
-33.1086
 20
28.9884
 30
0
 70
     0
  0
SEQEND
  0
POLYLINE
  8
VOLVO_FM10__WB_3
  6
CONTINUOUS
 62
     7
 66
     1
 40
0.0139
 41
0.0139
  0
VERTEX
  8
VOLVO_FM10__WB_3
 10
-37.4526
 20
28.0042
 30
0
 70
     0
  0
VERTEX
  8
VOLVO_FM10__WB_3
 10
-33.1086
 20
28.0042
 30
0
 70
     0
  0
SEQEND
  0
POLYLINE
  8
VOLVO_FM10__WB_3
  6
CONTINUOUS
 62
     7
 66
     1
 40
0.0139
 41
0.0139
  0
VERTEX
  8
VOLVO_FM10__WB_3
 10
-33.5525
 20
28.4766
 30
0
 70
     0
  0
VERTEX
  8
VOLVO_FM10__WB_3
 10
-33.5451
 20
28.3907
 30
0
 70
     0
  0
VERTEX
  8
VOLVO_FM10__WB_3
 10
-33.5213
 20
28.3027
 30
0
 70
     0
  0
VERTEX
  8
VOLVO_FM10__WB_3
 10
-33.4801
 20
28.2181
 30
0
 70
     0
  0
VERTEX
  8
VOLVO_FM10__WB_3
 10
-33.4225
 20
28.1426
 30
0
 70
     0
  0
VERTEX
  8
VOLVO_FM10__WB_3
 10
-33.3515
 20
28.0812
 30
0
 70
     0
  0
VERTEX
  8
VOLVO_FM10__WB_3
 10
-33.272
 20
28.0374
 30
0
 70
     0
  0
VERTEX
  8
VOLVO_FM10__WB_3
 10
-33.1893
 20
28.0121
 30
0
 70
     0
  0
VERTEX
  8
VOLVO_FM10__WB_3
 10
-33.1086
 20
28.0042
 30
0
 70
     0
  0
SEQEND
  0
POLYLINE
  8
VOLVO_FM10__WB_3
  6
CONTINUOUS
 62
     7
 66
     1
 40
0.0139
 41
0.0139
  0
VERTEX
  8
VOLVO_FM10__WB_3
 10
-33.5525
 20
28.516
 30
0
 70
     0
  0
VERTEX
  8
VOLVO_FM10__WB_3
 10
-33.5525
 20
28.4766
 30
0
 70
     0
  0
SEQEND
  0
POLYLINE
  8
VOLVO_FM10__WB_3
  6
CONTINUOUS
 62
     7
 66
     1
 40
0.0139
 41
0.0139
  0
VERTEX
  8
VOLVO_FM10__WB_3
 10
-30.3562
 20
24.5616
 30
0
 70
     0
  0
VERTEX
  8
VOLVO_FM10__WB_3
 10
-30.2957
 20
24.5696
 30
0
 70
     0
  0
VERTEX
  8
VOLVO_FM10__WB_3
 10
-30.2337
 20
24.5945
 30
0
 70
     0
  0
VERTEX
  8
VOLVO_FM10__WB_3
 10
-30.1709
 20
24.6376
 30
0
 70
     0
  0
VERTEX
  8
VOLVO_FM10__WB_3
 10
-30.1084
 20
24.6998
 30
0
 70
     0
  0
VERTEX
  8
VOLVO_FM10__WB_3
 10
-29.9878
 20
24.8825
 30
0
 70
     0
  0
VERTEX
  8
VOLVO_FM10__WB_3
 10
-29.8801
 20
25.1382
 30
0
 70
     0
  0
VERTEX
  8
VOLVO_FM10__WB_3
 10
-29.7927
 20
25.453
 30
0
 70
     0
  0
VERTEX
  8
VOLVO_FM10__WB_3
 10
-29.7302
 20
25.8055
 30
0
 70
     0
  0
VERTEX
  8
VOLVO_FM10__WB_3
 10
-29.6942
 20
26.1719
 30
0
 70
     0
  0
VERTEX
  8
VOLVO_FM10__WB_3
 10
-29.6829
 20
26.5301
 30
0
 70
     0
  0
SEQEND
  0
POLYLINE
  8
VOLVO_FM10__WB_3
  6
CONTINUOUS
 62
     7
 66
     1
 40
0.0139
 41
0.0139
  0
VERTEX
  8
VOLVO_FM10__WB_3
 10
-29.6829
 20
26.5301
 30
0
 70
     0
  0
VERTEX
  8
VOLVO_FM10__WB_3
 10
-29.6829
 20
44.2467
 30
0
 70
     0
  0
SEQEND
  0
POLYLINE
  8
VOLVO_FM10__WB_3
  6
CONTINUOUS
 62
     7
 66
     1
 40
0.0139
 41
0.0139
  0
VERTEX
  8
VOLVO_FM10__WB_3
 10
-33.9741
 20
26.5301
 30
0
 70
     0
  0
VERTEX
  8
VOLVO_FM10__WB_3
 10
-33.9629
 20
26.1719
 30
0
 70
     0
  0
VERTEX
  8
VOLVO_FM10__WB_3
 10
-33.9269
 20
25.8055
 30
0
 70
     0
  0
VERTEX
  8
VOLVO_FM10__WB_3
 10
-33.8644
 20
25.453
 30
0
 70
     0
  0
VERTEX
  8
VOLVO_FM10__WB_3
 10
-33.777
 20
25.1382
 30
0
 70
     0
  0
VERTEX
  8
VOLVO_FM10__WB_3
 10
-33.6693
 20
24.8825
 30
0
 70
     0
  0
VERTEX
  8
VOLVO_FM10__WB_3
 10
-33.5487
 20
24.6998
 30
0
 70
     0
  0
VERTEX
  8
VOLVO_FM10__WB_3
 10
-33.4861
 20
24.6376
 30
0
 70
     0
  0
VERTEX
  8
VOLVO_FM10__WB_3
 10
-33.4234
 20
24.5945
 30
0
 70
     0
  0
VERTEX
  8
VOLVO_FM10__WB_3
 10
-33.3614
 20
24.5696
 30
0
 70
     0
  0
VERTEX
  8
VOLVO_FM10__WB_3
 10
-33.3009
 20
24.5616
 30
0
 70
     0
  0
SEQEND
  0
POLYLINE
  8
VOLVO_FM10__WB_3
  6
CONTINUOUS
 62
     7
 66
     1
 40
0.0139
 41
0.0139
  0
VERTEX
  8
VOLVO_FM10__WB_3
 10
-33.3009
 20
24.5616
 30
0
 70
     0
  0
VERTEX
  8
VOLVO_FM10__WB_3
 10
-31.2811
 20
24.5616
 30
0
 70
     0
  0
SEQEND
  0
POLYLINE
  8
VOLVO_FM10__WB_3
  6
CONTINUOUS
 62
     7
 66
     1
 40
0.0139
 41
0.0139
  0
VERTEX
  8
VOLVO_FM10__WB_3
 10
-31.2811
 20
24.5616
 30
0
 70
     0
  0
VERTEX
  8
VOLVO_FM10__WB_3
 10
-31.2206
 20
24.5696
 30
0
 70
     0
  0
VERTEX
  8
VOLVO_FM10__WB_3
 10
-31.1586
 20
24.5945
 30
0
 70
     0
  0
VERTEX
  8
VOLVO_FM10__WB_3
 10
-31.0958
 20
24.6376
 30
0
 70
     0
  0
VERTEX
  8
VOLVO_FM10__WB_3
 10
-31.0332
 20
24.6998
 30
0
 70
     0
  0
VERTEX
  8
VOLVO_FM10__WB_3
 10
-30.9127
 20
24.8825
 30
0
 70
     0
  0
VERTEX
  8
VOLVO_FM10__WB_3
 10
-30.805
 20
25.1382
 30
0
 70
     0
  0
VERTEX
  8
VOLVO_FM10__WB_3
 10
-30.7176
 20
25.453
 30
0
 70
     0
  0
VERTEX
  8
VOLVO_FM10__WB_3
 10
-30.6551
 20
25.8055
 30
0
 70
     0
  0
VERTEX
  8
VOLVO_FM10__WB_3
 10
-30.619
 20
26.1719
 30
0
 70
     0
  0
VERTEX
  8
VOLVO_FM10__WB_3
 10
-30.6078
 20
26.5301
 30
0
 70
     0
  0
SEQEND
  0
POLYLINE
  8
VOLVO_FM10__WB_3
  6
CONTINUOUS
 62
     7
 66
     1
 40
0.0139
 41
0.0139
  0
VERTEX
  8
VOLVO_FM10__WB_3
 10
-33.9741
 20
44.2467
 30
0
 70
     0
  0
VERTEX
  8
VOLVO_FM10__WB_3
 10
-33.9741
 20
33.9894
 30
0
 70
     0
  0
SEQEND
  0
POLYLINE
  8
VOLVO_FM10__WB_3
  6
CONTINUOUS
 62
     7
 66
     1
 40
0.0139
 41
0.0139
  0
VERTEX
  8
VOLVO_FM10__WB_3
 10
-30.6078
 20
26.5301
 30
0
 70
     0
  0
VERTEX
  8
VOLVO_FM10__WB_3
 10
-30.6078
 20
44.2467
 30
0
 70
     0
  0
SEQEND
  0
POLYLINE
  8
VOLVO_FM10__WB_3
  6
CONTINUOUS
 62
     7
 66
     1
 40
0.0139
 41
0.0139
  0
VERTEX
  8
VOLVO_FM10__WB_3
 10
-29.6829
 20
44.2467
 30
0
 70
     0
  0
VERTEX
  8
VOLVO_FM10__WB_3
 10
-29.6942
 20
44.6049
 30
0
 70
     0
  0
VERTEX
  8
VOLVO_FM10__WB_3
 10
-29.7302
 20
44.9713
 30
0
 70
     0
  0
VERTEX
  8
VOLVO_FM10__WB_3
 10
-29.7927
 20
45.3239
 30
0
 70
     0
  0
VERTEX
  8
VOLVO_FM10__WB_3
 10
-29.8801
 20
45.6386
 30
0
 70
     0
  0
VERTEX
  8
VOLVO_FM10__WB_3
 10
-29.9878
 20
45.8943
 30
0
 70
     0
  0
VERTEX
  8
VOLVO_FM10__WB_3
 10
-30.1084
 20
46.077
 30
0
 70
     0
  0
VERTEX
  8
VOLVO_FM10__WB_3
 10
-30.1709
 20
46.1392
 30
0
 70
     0
  0
VERTEX
  8
VOLVO_FM10__WB_3
 10
-30.2337
 20
46.1823
 30
0
 70
     0
  0
VERTEX
  8
VOLVO_FM10__WB_3
 10
-30.2957
 20
46.2072
 30
0
 70
     0
  0
VERTEX
  8
VOLVO_FM10__WB_3
 10
-30.3562
 20
46.2152
 30
0
 70
     0
  0
SEQEND
  0
POLYLINE
  8
VOLVO_FM10__WB_3
  6
CONTINUOUS
 62
     7
 66
     1
 40
0.0139
 41
0.0139
  0
VERTEX
  8
VOLVO_FM10__WB_3
 10
-31.2811
 20
24.5616
 30
0
 70
     0
  0
VERTEX
  8
VOLVO_FM10__WB_3
 10
-30.3562
 20
24.5616
 30
0
 70
     0
  0
SEQEND
  0
POLYLINE
  8
VOLVO_FM10__WB_3
  6
CONTINUOUS
 62
     7
 66
     1
 40
0.0139
 41
0.0139
  0
VERTEX
  8
VOLVO_FM10__WB_3
 10
-31.2811
 20
46.2152
 30
0
 70
     0
  0
VERTEX
  8
VOLVO_FM10__WB_3
 10
-33.3009
 20
46.2152
 30
0
 70
     0
  0
SEQEND
  0
POLYLINE
  8
VOLVO_FM10__WB_3
  6
CONTINUOUS
 62
     7
 66
     1
 40
0.0139
 41
0.0139
  0
VERTEX
  8
VOLVO_FM10__WB_3
 10
-33.3009
 20
46.2152
 30
0
 70
     0
  0
VERTEX
  8
VOLVO_FM10__WB_3
 10
-33.3614
 20
46.2072
 30
0
 70
     0
  0
VERTEX
  8
VOLVO_FM10__WB_3
 10
-33.4234
 20
46.1823
 30
0
 70
     0
  0
VERTEX
  8
VOLVO_FM10__WB_3
 10
-33.4861
 20
46.1392
 30
0
 70
     0
  0
VERTEX
  8
VOLVO_FM10__WB_3
 10
-33.5487
 20
46.077
 30
0
 70
     0
  0
VERTEX
  8
VOLVO_FM10__WB_3
 10
-33.6693
 20
45.8943
 30
0
 70
     0
  0
VERTEX
  8
VOLVO_FM10__WB_3
 10
-33.777
 20
45.6386
 30
0
 70
     0
  0
VERTEX
  8
VOLVO_FM10__WB_3
 10
-33.8644
 20
45.3239
 30
0
 70
     0
  0
VERTEX
  8
VOLVO_FM10__WB_3
 10
-33.9269
 20
44.9713
 30
0
 70
     0
  0
VERTEX
  8
VOLVO_FM10__WB_3
 10
-33.9629
 20
44.6049
 30
0
 70
     0
  0
VERTEX
  8
VOLVO_FM10__WB_3
 10
-33.9741
 20
44.2467
 30
0
 70
     0
  0
SEQEND
  0
POLYLINE
  8
VOLVO_FM10__WB_3
  6
CONTINUOUS
 62
     7
 66
     1
 40
0.0139
 41
0.0139
  0
VERTEX
  8
VOLVO_FM10__WB_3
 10
-31.2811
 20
46.2152
 30
0
 70
     0
  0
VERTEX
  8
VOLVO_FM10__WB_3
 10
-30.3562
 20
46.2152
 30
0
 70
     0
  0
SEQEND
  0
POLYLINE
  8
VOLVO_FM10__WB_3
  6
CONTINUOUS
 62
     7
 66
     1
 40
0.0139
 41
0.0139
  0
VERTEX
  8
VOLVO_FM10__WB_3
 10
-30.6078
 20
44.2467
 30
0
 70
     0
  0
VERTEX
  8
VOLVO_FM10__WB_3
 10
-30.619
 20
44.6049
 30
0
 70
     0
  0
VERTEX
  8
VOLVO_FM10__WB_3
 10
-30.6551
 20
44.9713
 30
0
 70
     0
  0
VERTEX
  8
VOLVO_FM10__WB_3
 10
-30.7176
 20
45.3239
 30
0
 70
     0
  0
VERTEX
  8
VOLVO_FM10__WB_3
 10
-30.805
 20
45.6386
 30
0
 70
     0
  0
VERTEX
  8
VOLVO_FM10__WB_3
 10
-30.9127
 20
45.8943
 30
0
 70
     0
  0
VERTEX
  8
VOLVO_FM10__WB_3
 10
-31.0332
 20
46.077
 30
0
 70
     0
  0
VERTEX
  8
VOLVO_FM10__WB_3
 10
-31.0958
 20
46.1392
 30
0
 70
     0
  0
VERTEX
  8
VOLVO_FM10__WB_3
 10
-31.1586
 20
46.1823
 30
0
 70
     0
  0
VERTEX
  8
VOLVO_FM10__WB_3
 10
-31.2206
 20
46.2072
 30
0
 70
     0
  0
VERTEX
  8
VOLVO_FM10__WB_3
 10
-31.2811
 20
46.2152
 30
0
 70
     0
  0
SEQEND
  0
POLYLINE
  8
VOLVO_FM10__WB_3
  6
CONTINUOUS
 62
     7
 66
     1
 40
0.0139
 41
0.0139
  0
VERTEX
  8
VOLVO_FM10__WB_3
 10
-2.7897
 20
10.8215
 30
0
 70
     0
  0
VERTEX
  8
VOLVO_FM10__WB_3
 10
-8.6952
 20
10.8215
 30
0
 70
     0
  0
SEQEND
  0
POLYLINE
  8
VOLVO_FM10__WB_3
  6
CONTINUOUS
 62
     7
 66
     1
 40
0.0139
 41
0.0139
  0
VERTEX
  8
VOLVO_FM10__WB_3
 10
-2.7897
 20
12.3963
 30
0
 70
     0
  0
VERTEX
  8
VOLVO_FM10__WB_3
 10
-2.7897
 20
10.8215
 30
0
 70
     0
  0
SEQEND
  0
POLYLINE
  8
VOLVO_FM10__WB_3
  6
CONTINUOUS
 62
     7
 66
     1
 40
0.0139
 41
0.0139
  0
VERTEX
  8
VOLVO_FM10__WB_3
 10
-8.6952
 20
9.2467
 30
0
 70
     0
  0
VERTEX
  8
VOLVO_FM10__WB_3
 10
-0.8212
 20
9.2467
 30
0
 70
     0
  0
SEQEND
  0
POLYLINE
  8
VOLVO_FM10__WB_3
  6
CONTINUOUS
 62
     7
 66
     1
 40
0.0139
 41
0.0139
  0
VERTEX
  8
VOLVO_FM10__WB_3
 10
-8.6952
 20
12.3963
 30
0
 70
     0
  0
VERTEX
  8
VOLVO_FM10__WB_3
 10
-8.6952
 20
9.2467
 30
0
 70
     0
  0
SEQEND
  0
POLYLINE
  8
VOLVO_FM10__WB_3
  6
CONTINUOUS
 62
     7
 66
     1
 40
0.0139
 41
0.0139
  0
VERTEX
  8
VOLVO_FM10__WB_3
 10
-0.8212
 20
12.3963
 30
0
 70
     0
  0
VERTEX
  8
VOLVO_FM10__WB_3
 10
-8.6952
 20
12.3963
 30
0
 70
     0
  0
SEQEND
  0
POLYLINE
  8
VOLVO_FM10__WB_3
  6
CONTINUOUS
 62
     7
 66
     1
 40
0.0139
 41
0.0139
  0
VERTEX
  8
VOLVO_FM10__WB_3
 10
-0.8212
 20
9.2467
 30
0
 70
     0
  0
VERTEX
  8
VOLVO_FM10__WB_3
 10
-0.8212
 20
12.3963
 30
0
 70
     0
  0
SEQEND
  0
POLYLINE
  8
VOLVO_FM10__WB_3
  6
CONTINUOUS
 62
     7
 66
     1
 40
0.0139
 41
0.0139
  0
VERTEX
  8
VOLVO_FM10__WB_3
 10
-4.3645
 20
50.5459
 30
0
 70
     0
  0
VERTEX
  8
VOLVO_FM10__WB_3
 10
-22.5268
 20
50.5459
 30
0
 70
     0
  0
SEQEND
  0
POLYLINE
  8
VOLVO_FM10__WB_3
  6
CONTINUOUS
 62
     7
 66
     1
 40
0.0139
 41
0.0139
  0
VERTEX
  8
VOLVO_FM10__WB_3
 10
-2.396
 20
48.5774
 30
0
 70
     0
  0
VERTEX
  8
VOLVO_FM10__WB_3
 10
-2.406
 20
48.7787
 30
0
 70
     0
  0
VERTEX
  8
VOLVO_FM10__WB_3
 10
-2.4357
 20
48.9741
 30
0
 70
     0
  0
VERTEX
  8
VOLVO_FM10__WB_3
 10
-2.4842
 20
49.1628
 30
0
 70
     0
  0
VERTEX
  8
VOLVO_FM10__WB_3
 10
-2.5503
 20
49.3437
 30
0
 70
     0
  0
VERTEX
  8
VOLVO_FM10__WB_3
 10
-2.6332
 20
49.5159
 30
0
 70
     0
  0
VERTEX
  8
VOLVO_FM10__WB_3
 10
-2.7318
 20
49.6782
 30
0
 70
     0
  0
VERTEX
  8
VOLVO_FM10__WB_3
 10
-2.8451
 20
49.8298
 30
0
 70
     0
  0
VERTEX
  8
VOLVO_FM10__WB_3
 10
-2.9722
 20
49.9696
 30
0
 70
     0
  0
VERTEX
  8
VOLVO_FM10__WB_3
 10
-3.1121
 20
50.0967
 30
0
 70
     0
  0
VERTEX
  8
VOLVO_FM10__WB_3
 10
-3.2637
 20
50.2101
 30
0
 70
     0
  0
VERTEX
  8
VOLVO_FM10__WB_3
 10
-3.426
 20
50.3087
 30
0
 70
     0
  0
VERTEX
  8
VOLVO_FM10__WB_3
 10
-3.5981
 20
50.3916
 30
0
 70
     0
  0
VERTEX
  8
VOLVO_FM10__WB_3
 10
-3.779
 20
50.4577
 30
0
 70
     0
  0
VERTEX
  8
VOLVO_FM10__WB_3
 10
-3.9677
 20
50.5061
 30
0
 70
     0
  0
VERTEX
  8
VOLVO_FM10__WB_3
 10
-4.1632
 20
50.5359
 30
0
 70
     0
  0
VERTEX
  8
VOLVO_FM10__WB_3
 10
-4.3645
 20
50.5459
 30
0
 70
     0
  0
SEQEND
  0
POLYLINE
  8
VOLVO_FM10__WB_3
  6
CONTINUOUS
 62
     7
 66
     1
 40
0.0139
 41
0.0139
  0
VERTEX
  8
VOLVO_FM10__WB_3
 10
-2.396
 20
31.2348
 30
0
 70
     0
  0
VERTEX
  8
VOLVO_FM10__WB_3
 10
-2.396
 20
48.5774
 30
0
 70
     0
  0
SEQEND
  0
POLYLINE
  8
VOLVO_FM10__WB_3
  6
CONTINUOUS
 62
     7
 66
     1
 40
0.0139
 41
0.0139
  0
VERTEX
  8
VOLVO_FM10__WB_3
 10
-4.0868
 20
29.2859
 30
0
 70
     0
  0
VERTEX
  8
VOLVO_FM10__WB_3
 10
-3.908
 20
29.3197
 30
0
 70
     0
  0
VERTEX
  8
VOLVO_FM10__WB_3
 10
-3.7356
 20
29.3689
 30
0
 70
     0
  0
VERTEX
  8
VOLVO_FM10__WB_3
 10
-3.5705
 20
29.4328
 30
0
 70
     0
  0
VERTEX
  8
VOLVO_FM10__WB_3
 10
-3.4133
 20
29.5106
 30
0
 70
     0
  0
VERTEX
  8
VOLVO_FM10__WB_3
 10
-3.2647
 20
29.6014
 30
0
 70
     0
  0
VERTEX
  8
VOLVO_FM10__WB_3
 10
-3.1254
 20
29.7045
 30
0
 70
     0
  0
VERTEX
  8
VOLVO_FM10__WB_3
 10
-2.996
 20
29.8191
 30
0
 70
     0
  0
VERTEX
  8
VOLVO_FM10__WB_3
 10
-2.8774
 20
29.9443
 30
0
 70
     0
  0
VERTEX
  8
VOLVO_FM10__WB_3
 10
-2.7701
 20
30.0794
 30
0
 70
     0
  0
VERTEX
  8
VOLVO_FM10__WB_3
 10
-2.6749
 20
30.2236
 30
0
 70
     0
  0
VERTEX
  8
VOLVO_FM10__WB_3
 10
-2.5925
 20
30.376
 30
0
 70
     0
  0
VERTEX
  8
VOLVO_FM10__WB_3
 10
-2.5235
 20
30.5359
 30
0
 70
     0
  0
VERTEX
  8
VOLVO_FM10__WB_3
 10
-2.4687
 20
30.7025
 30
0
 70
     0
  0
VERTEX
  8
VOLVO_FM10__WB_3
 10
-2.4287
 20
30.875
 30
0
 70
     0
  0
VERTEX
  8
VOLVO_FM10__WB_3
 10
-2.4042
 20
31.0526
 30
0
 70
     0
  0
VERTEX
  8
VOLVO_FM10__WB_3
 10
-2.396
 20
31.2344
 30
0
 70
     0
  0
SEQEND
  0
POLYLINE
  8
VOLVO_FM10__WB_3
  6
CONTINUOUS
 62
     7
 66
     1
 40
0.0139
 41
0.0139
  0
VERTEX
  8
VOLVO_FM10__WB_3
 10
-22.5268
 20
50.5459
 30
0
 70
     0
  0
VERTEX
  8
VOLVO_FM10__WB_3
 10
-22.672
 20
50.5406
 30
0
 70
     0
  0
VERTEX
  8
VOLVO_FM10__WB_3
 10
-22.8151
 20
50.5249
 30
0
 70
     0
  0
VERTEX
  8
VOLVO_FM10__WB_3
 10
-22.9556
 20
50.499
 30
0
 70
     0
  0
VERTEX
  8
VOLVO_FM10__WB_3
 10
-23.0929
 20
50.4631
 30
0
 70
     0
  0
VERTEX
  8
VOLVO_FM10__WB_3
 10
-23.2266
 20
50.4177
 30
0
 70
     0
  0
VERTEX
  8
VOLVO_FM10__WB_3
 10
-23.3563
 20
50.363
 30
0
 70
     0
  0
VERTEX
  8
VOLVO_FM10__WB_3
 10
-23.4815
 20
50.2994
 30
0
 70
     0
  0
VERTEX
  8
VOLVO_FM10__WB_3
 10
-23.6016
 20
50.227
 30
0
 70
     0
  0
VERTEX
  8
VOLVO_FM10__WB_3
 10
-23.7164
 20
50.1463
 30
0
 70
     0
  0
VERTEX
  8
VOLVO_FM10__WB_3
 10
-23.8252
 20
50.0575
 30
0
 70
     0
  0
VERTEX
  8
VOLVO_FM10__WB_3
 10
-23.9276
 20
49.961
 30
0
 70
     0
  0
VERTEX
  8
VOLVO_FM10__WB_3
 10
-24.0232
 20
49.857
 30
0
 70
     0
  0
VERTEX
  8
VOLVO_FM10__WB_3
 10
-24.1114
 20
49.7458
 30
0
 70
     0
  0
VERTEX
  8
VOLVO_FM10__WB_3
 10
-24.1919
 20
49.6278
 30
0
 70
     0
  0
VERTEX
  8
VOLVO_FM10__WB_3
 10
-24.2641
 20
49.5033
 30
0
 70
     0
  0
VERTEX
  8
VOLVO_FM10__WB_3
 10
-24.3275
 20
49.3726
 30
0
 70
     0
  0
SEQEND
  0
POLYLINE
  8
VOLVO_FM10__WB_3
  6
CONTINUOUS
 62
     7
 66
     1
 40
0.0139
 41
0.0139
  0
VERTEX
  8
VOLVO_FM10__WB_3
 10
-27.6482
 20
51.5695
 30
0
 70
     0
  0
VERTEX
  8
VOLVO_FM10__WB_3
 10
-27.7941
 20
51.5642
 30
0
 70
     0
  0
VERTEX
  8
VOLVO_FM10__WB_3
 10
-27.9378
 20
51.5483
 30
0
 70
     0
  0
VERTEX
  8
VOLVO_FM10__WB_3
 10
-28.0788
 20
51.5222
 30
0
 70
     0
  0
VERTEX
  8
VOLVO_FM10__WB_3
 10
-28.2167
 20
51.486
 30
0
 70
     0
  0
VERTEX
  8
VOLVO_FM10__WB_3
 10
-28.3509
 20
51.4402
 30
0
 70
     0
  0
VERTEX
  8
VOLVO_FM10__WB_3
 10
-28.4811
 20
51.3851
 30
0
 70
     0
  0
VERTEX
  8
VOLVO_FM10__WB_3
 10
-28.6066
 20
51.3209
 30
0
 70
     0
  0
VERTEX
  8
VOLVO_FM10__WB_3
 10
-28.7272
 20
51.2479
 30
0
 70
     0
  0
VERTEX
  8
VOLVO_FM10__WB_3
 10
-28.8422
 20
51.1666
 30
0
 70
     0
  0
VERTEX
  8
VOLVO_FM10__WB_3
 10
-28.9512
 20
51.0771
 30
0
 70
     0
  0
VERTEX
  8
VOLVO_FM10__WB_3
 10
-29.0537
 20
50.9798
 30
0
 70
     0
  0
VERTEX
  8
VOLVO_FM10__WB_3
 10
-29.1493
 20
50.875
 30
0
 70
     0
  0
VERTEX
  8
VOLVO_FM10__WB_3
 10
-29.2375
 20
50.7631
 30
0
 70
     0
  0
VERTEX
  8
VOLVO_FM10__WB_3
 10
-29.3178
 20
50.6442
 30
0
 70
     0
  0
VERTEX
  8
VOLVO_FM10__WB_3
 10
-29.3898
 20
50.5188
 30
0
 70
     0
  0
VERTEX
  8
VOLVO_FM10__WB_3
 10
-29.4529
 20
50.3872
 30
0
 70
     0
  0
SEQEND
  0
POLYLINE
  8
VOLVO_FM10__WB_3
  6
CONTINUOUS
 62
     7
 66
     1
 40
0.0139
 41
0.0139
  0
VERTEX
  8
VOLVO_FM10__WB_3
 10
-27.6482
 20
51.5695
 30
0
 70
     0
  0
VERTEX
  8
VOLVO_FM10__WB_3
 10
-0.8212
 20
51.5695
 30
0
 70
     0
  0
SEQEND
  0
POLYLINE
  8
VOLVO_FM10__WB_3
  6
CONTINUOUS
 62
     7
 66
     1
 40
0.0139
 41
0.0139
  0
VERTEX
  8
VOLVO_FM10__WB_3
 10
1.1473
 20
49.601
 30
0
 70
     0
  0
VERTEX
  8
VOLVO_FM10__WB_3
 10
1.1473
 20
4.3254
 30
0
 70
     0
  0
SEQEND
  0
POLYLINE
  8
VOLVO_FM10__WB_3
  6
CONTINUOUS
 62
     7
 66
     1
 40
0.0139
 41
0.0139
  0
VERTEX
  8
VOLVO_FM10__WB_3
 10
1.1473
 20
4.3254
 30
0
 70
     0
  0
VERTEX
  8
VOLVO_FM10__WB_3
 10
0.4876
 20
4.3802
 30
0
 70
     0
  0
VERTEX
  8
VOLVO_FM10__WB_3
 10
-0.1692
 20
4.4173
 30
0
 70
     0
  0
VERTEX
  8
VOLVO_FM10__WB_3
 10
-0.8231
 20
4.4369
 30
0
 70
     0
  0
VERTEX
  8
VOLVO_FM10__WB_3
 10
-1.4736
 20
4.4394
 30
0
 70
     0
  0
VERTEX
  8
VOLVO_FM10__WB_3
 10
-2.1206
 20
4.4248
 30
0
 70
     0
  0
VERTEX
  8
VOLVO_FM10__WB_3
 10
-2.7639
 20
4.3934
 30
0
 70
     0
  0
VERTEX
  8
VOLVO_FM10__WB_3
 10
-3.4032
 20
4.3453
 30
0
 70
     0
  0
VERTEX
  8
VOLVO_FM10__WB_3
 10
-4.0384
 20
4.2809
 30
0
 70
     0
  0
VERTEX
  8
VOLVO_FM10__WB_3
 10
-4.6691
 20
4.2002
 30
0
 70
     0
  0
VERTEX
  8
VOLVO_FM10__WB_3
 10
-5.2951
 20
4.1035
 30
0
 70
     0
  0
VERTEX
  8
VOLVO_FM10__WB_3
 10
-5.9162
 20
3.991
 30
0
 70
     0
  0
VERTEX
  8
VOLVO_FM10__WB_3
 10
-6.5322
 20
3.8628
 30
0
 70
     0
  0
VERTEX
  8
VOLVO_FM10__WB_3
 10
-7.1429
 20
3.7193
 30
0
 70
     0
  0
VERTEX
  8
VOLVO_FM10__WB_3
 10
-7.748
 20
3.5605
 30
0
 70
     0
  0
VERTEX
  8
VOLVO_FM10__WB_3
 10
-8.3472
 20
3.3868
 30
0
 70
     0
  0
VERTEX
  8
VOLVO_FM10__WB_3
 10
-8.9404
 20
3.1982
 30
0
 70
     0
  0
VERTEX
  8
VOLVO_FM10__WB_3
 10
-9.5274
 20
2.995
 30
0
 70
     0
  0
VERTEX
  8
VOLVO_FM10__WB_3
 10
-10.1078
 20
2.7774
 30
0
 70
     0
  0
VERTEX
  8
VOLVO_FM10__WB_3
 10
-10.6815
 20
2.5457
 30
0
 70
     0
  0
VERTEX
  8
VOLVO_FM10__WB_3
 10
-11.2482
 20
2.2999
 30
0
 70
     0
  0
VERTEX
  8
VOLVO_FM10__WB_3
 10
-11.8077
 20
2.0404
 30
0
 70
     0
  0
VERTEX
  8
VOLVO_FM10__WB_3
 10
-12.3598
 20
1.7672
 30
0
 70
     0
  0
VERTEX
  8
VOLVO_FM10__WB_3
 10
-12.9042
 20
1.4807
 30
0
 70
     0
  0
VERTEX
  8
VOLVO_FM10__WB_3
 10
-13.4407
 20
1.181
 30
0
 70
     0
  0
VERTEX
  8
VOLVO_FM10__WB_3
 10
-13.9691
 20
0.8683
 30
0
 70
     0
  0
VERTEX
  8
VOLVO_FM10__WB_3
 10
-14.4892
 20
0.5428
 30
0
 70
     0
  0
VERTEX
  8
VOLVO_FM10__WB_3
 10
-15.0006
 20
0.2047
 30
0
 70
     0
  0
VERTEX
  8
VOLVO_FM10__WB_3
 10
-15.5033
 20
-0.1457
 30
0
 70
     0
  0
VERTEX
  8
VOLVO_FM10__WB_3
 10
-15.9969
 20
-0.5083
 30
0
 70
     0
  0
VERTEX
  8
VOLVO_FM10__WB_3
 10
-16.4812
 20
-0.8829
 30
0
 70
     0
  0
VERTEX
  8
VOLVO_FM10__WB_3
 10
-16.9561
 20
-1.2692
 30
0
 70
     0
  0
VERTEX
  8
VOLVO_FM10__WB_3
 10
-17.4211
 20
-1.6672
 30
0
 70
     0
  0
VERTEX
  8
VOLVO_FM10__WB_3
 10
-17.8763
 20
-2.0764
 30
0
 70
     0
  0
VERTEX
  8
VOLVO_FM10__WB_3
 10
-18.3212
 20
-2.4969
 30
0
 70
     0
  0
VERTEX
  8
VOLVO_FM10__WB_3
 10
-18.7557
 20
-2.9283
 30
0
 70
     0
  0
VERTEX
  8
VOLVO_FM10__WB_3
 10
-19.1795
 20
-3.3704
 30
0
 70
     0
  0
VERTEX
  8
VOLVO_FM10__WB_3
 10
-19.5924
 20
-3.8232
 30
0
 70
     0
  0
VERTEX
  8
VOLVO_FM10__WB_3
 10
-19.9942
 20
-4.2862
 30
0
 70
     0
  0
VERTEX
  8
VOLVO_FM10__WB_3
 10
-20.3847
 20
-4.7594
 30
0
 70
     0
  0
VERTEX
  8
VOLVO_FM10__WB_3
 10
-20.7636
 20
-5.2426
 30
0
 70
     0
  0
VERTEX
  8
VOLVO_FM10__WB_3
 10
-21.1307
 20
-5.7355
 30
0
 70
     0
  0
VERTEX
  8
VOLVO_FM10__WB_3
 10
-21.4857
 20
-6.238
 30
0
 70
     0
  0
VERTEX
  8
VOLVO_FM10__WB_3
 10
-21.8284
 20
-6.7497
 30
0
 70
     0
  0
VERTEX
  8
VOLVO_FM10__WB_3
 10
-22.1587
 20
-7.2707
 30
0
 70
     0
  0
VERTEX
  8
VOLVO_FM10__WB_3
 10
-22.4762
 20
-7.8005
 30
0
 70
     0
  0
VERTEX
  8
VOLVO_FM10__WB_3
 10
-22.7807
 20
-8.3391
 30
0
 70
     0
  0
VERTEX
  8
VOLVO_FM10__WB_3
 10
-23.072
 20
-8.8863
 30
0
 70
     0
  0
VERTEX
  8
VOLVO_FM10__WB_3
 10
-23.3499
 20
-9.4417
 30
0
 70
     0
  0
VERTEX
  8
VOLVO_FM10__WB_3
 10
-23.6142
 20
-10.0053
 30
0
 70
     0
  0
VERTEX
  8
VOLVO_FM10__WB_3
 10
-23.8645
 20
-10.5768
 30
0
 70
     0
  0
VERTEX
  8
VOLVO_FM10__WB_3
 10
-24.1008
 20
-11.1561
 30
0
 70
     0
  0
VERTEX
  8
VOLVO_FM10__WB_3
 10
-24.3226
 20
-11.7428
 30
0
 70
     0
  0
VERTEX
  8
VOLVO_FM10__WB_3
 10
-24.5299
 20
-12.3369
 30
0
 70
     0
  0
VERTEX
  8
VOLVO_FM10__WB_3
 10
-24.7224
 20
-12.938
 30
0
 70
     0
  0
VERTEX
  8
VOLVO_FM10__WB_3
 10
-24.8999
 20
-13.5461
 30
0
 70
     0
  0
VERTEX
  8
VOLVO_FM10__WB_3
 10
-25.062
 20
-14.1609
 30
0
 70
     0
  0
VERTEX
  8
VOLVO_FM10__WB_3
 10
-25.2087
 20
-14.7823
 30
0
 70
     0
  0
VERTEX
  8
VOLVO_FM10__WB_3
 10
-25.3396
 20
-15.4099
 30
0
 70
     0
  0
VERTEX
  8
VOLVO_FM10__WB_3
 10
-25.4546
 20
-16.0436
 30
0
 70
     0
  0
VERTEX
  8
VOLVO_FM10__WB_3
 10
-25.5533
 20
-16.6832
 30
0
 70
     0
  0
VERTEX
  8
VOLVO_FM10__WB_3
 10
-25.6357
 20
-17.3285
 30
0
 70
     0
  0
VERTEX
  8
VOLVO_FM10__WB_3
 10
-25.7014
 20
-17.9793
 30
0
 70
     0
  0
VERTEX
  8
VOLVO_FM10__WB_3
 10
-25.7501
 20
-18.6354
 30
0
 70
     0
  0
VERTEX
  8
VOLVO_FM10__WB_3
 10
-25.7818
 20
-19.2966
 30
0
 70
     0
  0
SEQEND
  0
POLYLINE
  8
VOLVO_FM10__WB_3
  6
CONTINUOUS
 62
     7
 66
     1
 40
0.0139
 41
0.0139
  0
VERTEX
  8
VOLVO_FM10__WB_3
 10
-41.5298
 20
-19.2966
 30
0
 70
     0
  0
VERTEX
  8
VOLVO_FM10__WB_3
 10
-42.1598
 20
-19.2966
 30
0
 70
     0
  0
SEQEND
  0
POLYLINE
  8
VOLVO_FM10__WB_3
  6
CONTINUOUS
 62
     7
 66
     1
 40
0.0139
 41
0.0139
  0
VERTEX
  8
VOLVO_FM10__WB_3
 10
-42.1598
 20
-19.2966
 30
0
 70
     0
  0
VERTEX
  8
VOLVO_FM10__WB_3
 10
-42.1598
 20
20.8078
 30
0
 70
     0
  0
SEQEND
  0
POLYLINE
  8
VOLVO_FM10__WB_3
  6
CONTINUOUS
 62
     7
 66
     1
 40
0.0139
 41
0.0139
  0
VERTEX
  8
VOLVO_FM10__WB_3
 10
-41.996
 20
21.594
 30
0
 70
     0
  0
VERTEX
  8
VOLVO_FM10__WB_3
 10
-42.0672
 20
21.4046
 30
0
 70
     0
  0
VERTEX
  8
VOLVO_FM10__WB_3
 10
-42.1185
 20
21.2094
 30
0
 70
     0
  0
VERTEX
  8
VOLVO_FM10__WB_3
 10
-42.1366
 20
21.1101
 30
0
 70
     0
  0
VERTEX
  8
VOLVO_FM10__WB_3
 10
-42.1495
 20
21.0099
 30
0
 70
     0
  0
VERTEX
  8
VOLVO_FM10__WB_3
 10
-42.1572
 20
20.9091
 30
0
 70
     0
  0
VERTEX
  8
VOLVO_FM10__WB_3
 10
-42.1598
 20
20.8078
 30
0
 70
     0
  0
SEQEND
  0
POLYLINE
  8
VOLVO_FM10__WB_3
  6
CONTINUOUS
 62
     7
 66
     1
 40
0.0139
 41
0.0139
  0
VERTEX
  8
VOLVO_FM10__WB_3
 10
-41.996
 20
21.594
 30
0
 70
     0
  0
VERTEX
  8
VOLVO_FM10__WB_3
 10
-37.025
 20
33.0051
 30
0
 70
     0
  0
SEQEND
  0
POLYLINE
  8
VOLVO_FM10__WB_3
  6
CONTINUOUS
 62
     7
 66
     1
 40
0.0139
 41
0.0139
  0
VERTEX
  8
VOLVO_FM10__WB_3
 10
-25.7818
 20
-19.2966
 30
0
 70
     0
  0
VERTEX
  8
VOLVO_FM10__WB_3
 10
-41.5298
 20
-19.2966
 30
0
 70
     0
  0
SEQEND
  0
POLYLINE
  8
VOLVO_FM10__WB_3
  6
CONTINUOUS
 62
     7
 66
     1
 40
0.0139
 41
0.0139
  0
VERTEX
  8
VOLVO_FM10__WB_3
 10
1.1473
 20
49.601
 30
0
 70
     0
  0
VERTEX
  8
VOLVO_FM10__WB_3
 10
1.1373
 20
49.8023
 30
0
 70
     0
  0
VERTEX
  8
VOLVO_FM10__WB_3
 10
1.1076
 20
49.9978
 30
0
 70
     0
  0
VERTEX
  8
VOLVO_FM10__WB_3
 10
1.0591
 20
50.1865
 30
0
 70
     0
  0
VERTEX
  8
VOLVO_FM10__WB_3
 10
0.993
 20
50.3674
 30
0
 70
     0
  0
VERTEX
  8
VOLVO_FM10__WB_3
 10
0.9101
 20
50.5395
 30
0
 70
     0
  0
VERTEX
  8
VOLVO_FM10__WB_3
 10
0.8115
 20
50.7018
 30
0
 70
     0
  0
VERTEX
  8
VOLVO_FM10__WB_3
 10
0.6982
 20
50.8534
 30
0
 70
     0
  0
VERTEX
  8
VOLVO_FM10__WB_3
 10
0.5711
 20
50.9933
 30
0
 70
     0
  0
VERTEX
  8
VOLVO_FM10__WB_3
 10
0.4312
 20
51.1204
 30
0
 70
     0
  0
VERTEX
  8
VOLVO_FM10__WB_3
 10
0.2797
 20
51.2337
 30
0
 70
     0
  0
VERTEX
  8
VOLVO_FM10__WB_3
 10
0.1173
 20
51.3323
 30
0
 70
     0
  0
VERTEX
  8
VOLVO_FM10__WB_3
 10
-0.0548
 20
51.4152
 30
0
 70
     0
  0
VERTEX
  8
VOLVO_FM10__WB_3
 10
-0.2357
 20
51.4813
 30
0
 70
     0
  0
VERTEX
  8
VOLVO_FM10__WB_3
 10
-0.4244
 20
51.5298
 30
0
 70
     0
  0
VERTEX
  8
VOLVO_FM10__WB_3
 10
-0.6199
 20
51.5595
 30
0
 70
     0
  0
VERTEX
  8
VOLVO_FM10__WB_3
 10
-0.8212
 20
51.5695
 30
0
 70
     0
  0
SEQEND
  0
POLYLINE
  8
VOLVO_FM10__WB_3
  6
CONTINUOUS
 62
     7
 66
     1
 40
0.0139
 41
0.0139
  0
VERTEX
  8
VOLVO_FM10__WB_3
 10
-25.7818
 20
-30.3203
 30
0
 70
     0
  0
VERTEX
  8
VOLVO_FM10__WB_3
 10
-25.7818
 20
-19.2966
 30
0
 70
     0
  0
SEQEND
  0
POLYLINE
  8
VOLVO_FM10__WB_3
  6
CONTINUOUS
 62
     7
 66
     1
 40
0.0139
 41
0.0139
  0
VERTEX
  8
VOLVO_FM10__WB_3
 10
-41.5298
 20
-30.3203
 30
0
 70
     0
  0
VERTEX
  8
VOLVO_FM10__WB_3
 10
-25.7818
 20
-30.3203
 30
0
 70
     0
  0
SEQEND
  0
POLYLINE
  8
VOLVO_FM10__WB_3
  6
CONTINUOUS
 62
     7
 66
     1
 40
0.0139
 41
0.0139
  0
VERTEX
  8
VOLVO_FM10__WB_3
 10
-41.5298
 20
-19.2966
 30
0
 70
     0
  0
VERTEX
  8
VOLVO_FM10__WB_3
 10
-41.5298
 20
-30.3203
 30
0
 70
     0
  0
SEQEND
  0
POLYLINE
  8
VOLVO_FM10__WB_3
  6
CONTINUOUS
 62
     7
 66
     1
 40
0.0139
 41
0.0139
  0
VERTEX
  8
VOLVO_FM10__WB_3
 10
-51.7661
 20
-22.8399
 30
0
 70
     0
  0
VERTEX
  8
VOLVO_FM10__WB_3
 10
-51.8667
 20
-22.845
 30
0
 70
     0
  0
VERTEX
  8
VOLVO_FM10__WB_3
 10
-51.9644
 20
-22.8598
 30
0
 70
     0
  0
VERTEX
  8
VOLVO_FM10__WB_3
 10
-52.0588
 20
-22.884
 30
0
 70
     0
  0
VERTEX
  8
VOLVO_FM10__WB_3
 10
-52.1492
 20
-22.9171
 30
0
 70
     0
  0
VERTEX
  8
VOLVO_FM10__WB_3
 10
-52.2353
 20
-22.9585
 30
0
 70
     0
  0
VERTEX
  8
VOLVO_FM10__WB_3
 10
-52.3165
 20
-23.0078
 30
0
 70
     0
  0
VERTEX
  8
VOLVO_FM10__WB_3
 10
-52.3923
 20
-23.0645
 30
0
 70
     0
  0
VERTEX
  8
VOLVO_FM10__WB_3
 10
-52.4622
 20
-23.1281
 30
0
 70
     0
  0
VERTEX
  8
VOLVO_FM10__WB_3
 10
-52.5257
 20
-23.198
 30
0
 70
     0
  0
VERTEX
  8
VOLVO_FM10__WB_3
 10
-52.5824
 20
-23.2738
 30
0
 70
     0
  0
VERTEX
  8
VOLVO_FM10__WB_3
 10
-52.6317
 20
-23.355
 30
0
 70
     0
  0
VERTEX
  8
VOLVO_FM10__WB_3
 10
-52.6732
 20
-23.441
 30
0
 70
     0
  0
VERTEX
  8
VOLVO_FM10__WB_3
 10
-52.7062
 20
-23.5315
 30
0
 70
     0
  0
VERTEX
  8
VOLVO_FM10__WB_3
 10
-52.7304
 20
-23.6258
 30
0
 70
     0
  0
VERTEX
  8
VOLVO_FM10__WB_3
 10
-52.7453
 20
-23.7236
 30
0
 70
     0
  0
VERTEX
  8
VOLVO_FM10__WB_3
 10
-52.7503
 20
-23.8242
 30
0
 70
     0
  0
SEQEND
  0
POLYLINE
  8
VOLVO_FM10__WB_3
  6
CONTINUOUS
 62
     7
 66
     1
 40
0.0139
 41
0.0139
  0
VERTEX
  8
VOLVO_FM10__WB_3
 10
-52.7503
 20
-27.761
 30
0
 70
     0
  0
VERTEX
  8
VOLVO_FM10__WB_3
 10
-52.7453
 20
-27.8616
 30
0
 70
     0
  0
VERTEX
  8
VOLVO_FM10__WB_3
 10
-52.7305
 20
-27.9594
 30
0
 70
     0
  0
VERTEX
  8
VOLVO_FM10__WB_3
 10
-52.7063
 20
-28.0537
 30
0
 70
     0
  0
VERTEX
  8
VOLVO_FM10__WB_3
 10
-52.6732
 20
-28.1442
 30
0
 70
     0
  0
VERTEX
  8
VOLVO_FM10__WB_3
 10
-52.6318
 20
-28.2302
 30
0
 70
     0
  0
VERTEX
  8
VOLVO_FM10__WB_3
 10
-52.5826
 20
-28.3114
 30
0
 70
     0
  0
VERTEX
  8
VOLVO_FM10__WB_3
 10
-52.5259
 20
-28.3872
 30
0
 70
     0
  0
VERTEX
  8
VOLVO_FM10__WB_3
 10
-52.4624
 20
-28.4571
 30
0
 70
     0
  0
VERTEX
  8
VOLVO_FM10__WB_3
 10
-52.3925
 20
-28.5207
 30
0
 70
     0
  0
VERTEX
  8
VOLVO_FM10__WB_3
 10
-52.3167
 20
-28.5774
 30
0
 70
     0
  0
VERTEX
  8
VOLVO_FM10__WB_3
 10
-52.2356
 20
-28.6267
 30
0
 70
     0
  0
VERTEX
  8
VOLVO_FM10__WB_3
 10
-52.1495
 20
-28.6682
 30
0
 70
     0
  0
VERTEX
  8
VOLVO_FM10__WB_3
 10
-52.0591
 20
-28.7013
 30
0
 70
     0
  0
VERTEX
  8
VOLVO_FM10__WB_3
 10
-51.9648
 20
-28.7255
 30
0
 70
     0
  0
VERTEX
  8
VOLVO_FM10__WB_3
 10
-51.8671
 20
-28.7404
 30
0
 70
     0
  0
VERTEX
  8
VOLVO_FM10__WB_3
 10
-51.7664
 20
-28.7455
 30
0
 70
     0
  0
SEQEND
  0
POLYLINE
  8
VOLVO_FM10__WB_3
  6
CONTINUOUS
 62
     7
 66
     1
 40
0.0139
 41
0.0139
  0
VERTEX
  8
VOLVO_FM10__WB_3
 10
-51.7661
 20
-22.8399
 30
0
 70
     0
  0
VERTEX
  8
VOLVO_FM10__WB_3
 10
-50.7818
 20
-22.8399
 30
0
 70
     0
  0
SEQEND
  0
POLYLINE
  8
VOLVO_FM10__WB_3
  6
CONTINUOUS
 62
     7
 66
     1
 40
0.0139
 41
0.0139
  0
VERTEX
  8
VOLVO_FM10__WB_3
 10
-52.7503
 20
-14.0799
 30
0
 70
     0
  0
VERTEX
  8
VOLVO_FM10__WB_3
 10
-52.7453
 20
-14.1805
 30
0
 70
     0
  0
VERTEX
  8
VOLVO_FM10__WB_3
 10
-52.7305
 20
-14.2783
 30
0
 70
     0
  0
VERTEX
  8
VOLVO_FM10__WB_3
 10
-52.7063
 20
-14.3726
 30
0
 70
     0
  0
VERTEX
  8
VOLVO_FM10__WB_3
 10
-52.6732
 20
-14.4631
 30
0
 70
     0
  0
VERTEX
  8
VOLVO_FM10__WB_3
 10
-52.6318
 20
-14.5491
 30
0
 70
     0
  0
VERTEX
  8
VOLVO_FM10__WB_3
 10
-52.5826
 20
-14.6303
 30
0
 70
     0
  0
VERTEX
  8
VOLVO_FM10__WB_3
 10
-52.5259
 20
-14.7061
 30
0
 70
     0
  0
VERTEX
  8
VOLVO_FM10__WB_3
 10
-52.4624
 20
-14.776
 30
0
 70
     0
  0
VERTEX
  8
VOLVO_FM10__WB_3
 10
-52.3925
 20
-14.8396
 30
0
 70
     0
  0
VERTEX
  8
VOLVO_FM10__WB_3
 10
-52.3167
 20
-14.8963
 30
0
 70
     0
  0
VERTEX
  8
VOLVO_FM10__WB_3
 10
-52.2356
 20
-14.9456
 30
0
 70
     0
  0
VERTEX
  8
VOLVO_FM10__WB_3
 10
-52.1495
 20
-14.9871
 30
0
 70
     0
  0
VERTEX
  8
VOLVO_FM10__WB_3
 10
-52.0591
 20
-15.0202
 30
0
 70
     0
  0
VERTEX
  8
VOLVO_FM10__WB_3
 10
-51.9648
 20
-15.0444
 30
0
 70
     0
  0
VERTEX
  8
VOLVO_FM10__WB_3
 10
-51.8671
 20
-15.0593
 30
0
 70
     0
  0
VERTEX
  8
VOLVO_FM10__WB_3
 10
-51.7664
 20
-15.0644
 30
0
 70
     0
  0
SEQEND
  0
POLYLINE
  8
VOLVO_FM10__WB_3
  6
CONTINUOUS
 62
     7
 66
     1
 40
0.0139
 41
0.0139
  0
VERTEX
  8
VOLVO_FM10__WB_3
 10
-51.7661
 20
-7.1903
 30
0
 70
     0
  0
VERTEX
  8
VOLVO_FM10__WB_3
 10
-51.8667
 20
-7.1953
 30
0
 70
     0
  0
VERTEX
  8
VOLVO_FM10__WB_3
 10
-51.9644
 20
-7.2102
 30
0
 70
     0
  0
VERTEX
  8
VOLVO_FM10__WB_3
 10
-52.0588
 20
-7.2344
 30
0
 70
     0
  0
VERTEX
  8
VOLVO_FM10__WB_3
 10
-52.1492
 20
-7.2675
 30
0
 70
     0
  0
VERTEX
  8
VOLVO_FM10__WB_3
 10
-52.2353
 20
-7.3089
 30
0
 70
     0
  0
VERTEX
  8
VOLVO_FM10__WB_3
 10
-52.3165
 20
-7.3582
 30
0
 70
     0
  0
VERTEX
  8
VOLVO_FM10__WB_3
 10
-52.3923
 20
-7.4149
 30
0
 70
     0
  0
VERTEX
  8
VOLVO_FM10__WB_3
 10
-52.4622
 20
-7.4785
 30
0
 70
     0
  0
VERTEX
  8
VOLVO_FM10__WB_3
 10
-52.5257
 20
-7.5484
 30
0
 70
     0
  0
VERTEX
  8
VOLVO_FM10__WB_3
 10
-52.5824
 20
-7.6242
 30
0
 70
     0
  0
VERTEX
  8
VOLVO_FM10__WB_3
 10
-52.6317
 20
-7.7053
 30
0
 70
     0
  0
VERTEX
  8
VOLVO_FM10__WB_3
 10
-52.6732
 20
-7.7914
 30
0
 70
     0
  0
VERTEX
  8
VOLVO_FM10__WB_3
 10
-52.7062
 20
-7.8819
 30
0
 70
     0
  0
VERTEX
  8
VOLVO_FM10__WB_3
 10
-52.7304
 20
-7.9762
 30
0
 70
     0
  0
VERTEX
  8
VOLVO_FM10__WB_3
 10
-52.7453
 20
-8.0739
 30
0
 70
     0
  0
VERTEX
  8
VOLVO_FM10__WB_3
 10
-52.7503
 20
-8.1746
 30
0
 70
     0
  0
SEQEND
  0
POLYLINE
  8
VOLVO_FM10__WB_3
  6
CONTINUOUS
 62
     7
 66
     1
 40
0.0139
 41
0.0139
  0
VERTEX
  8
VOLVO_FM10__WB_3
 10
-51.7661
 20
-28.7455
 30
0
 70
     0
  0
VERTEX
  8
VOLVO_FM10__WB_3
 10
-50.7818
 20
-28.7455
 30
0
 70
     0
  0
SEQEND
  0
POLYLINE
  8
VOLVO_FM10__WB_3
  6
CONTINUOUS
 62
     7
 66
     1
 40
0.0139
 41
0.0139
  0
VERTEX
  8
VOLVO_FM10__WB_3
 10
-51.7661
 20
-7.1903
 30
0
 70
     0
  0
VERTEX
  8
VOLVO_FM10__WB_3
 10
-49.7976
 20
-7.1903
 30
0
 70
     0
  0
SEQEND
  0
POLYLINE
  8
VOLVO_FM10__WB_3
  6
CONTINUOUS
 62
     7
 66
     1
 40
0.0139
 41
0.0139
  0
VERTEX
  8
VOLVO_FM10__WB_3
 10
-53.7346
 20
-23.8242
 30
0
 70
     0
  0
VERTEX
  8
VOLVO_FM10__WB_3
 10
-53.7346
 20
-27.7612
 30
0
 70
     0
  0
SEQEND
  0
POLYLINE
  8
VOLVO_FM10__WB_3
  6
CONTINUOUS
 62
     7
 66
     1
 40
0.0139
 41
0.0139
  0
VERTEX
  8
VOLVO_FM10__WB_3
 10
-51.7661
 20
-15.0644
 30
0
 70
     0
  0
VERTEX
  8
VOLVO_FM10__WB_3
 10
-49.7976
 20
-15.0644
 30
0
 70
     0
  0
SEQEND
  0
POLYLINE
  8
VOLVO_FM10__WB_3
  6
CONTINUOUS
 62
     7
 66
     1
 40
0.0139
 41
0.0139
  0
VERTEX
  8
VOLVO_FM10__WB_3
 10
-53.9314
 20
-7.1903
 30
0
 70
     0
  0
VERTEX
  8
VOLVO_FM10__WB_3
 10
-53.9314
 20
-6.2061
 30
0
 70
     0
  0
SEQEND
  0
POLYLINE
  8
VOLVO_FM10__WB_3
  6
CONTINUOUS
 62
     7
 66
     1
 40
0.0139
 41
0.0139
  0
VERTEX
  8
VOLVO_FM10__WB_3
 10
-53.7346
 20
-8.1746
 30
0
 70
     0
  0
VERTEX
  8
VOLVO_FM10__WB_3
 10
-53.7346
 20
-14.0801
 30
0
 70
     0
  0
SEQEND
  0
POLYLINE
  8
VOLVO_FM10__WB_3
  6
CONTINUOUS
 62
     7
 66
     1
 40
0.0139
 41
0.0139
  0
VERTEX
  8
VOLVO_FM10__WB_3
 10
-53.7346
 20
-7.1903
 30
0
 70
     0
  0
VERTEX
  8
VOLVO_FM10__WB_3
 10
-53.9314
 20
-7.1903
 30
0
 70
     0
  0
SEQEND
  0
POLYLINE
  8
VOLVO_FM10__WB_3
  6
CONTINUOUS
 62
     7
 66
     1
 40
0.0139
 41
0.0139
  0
VERTEX
  8
VOLVO_FM10__WB_3
 10
-53.7346
 20
-6.2061
 30
0
 70
     0
  0
VERTEX
  8
VOLVO_FM10__WB_3
 10
-53.9314
 20
-6.2061
 30
0
 70
     0
  0
SEQEND
  0
POLYLINE
  8
VOLVO_FM10__WB_3
  6
CONTINUOUS
 62
     7
 66
     1
 40
0.0139
 41
0.0139
  0
VERTEX
  8
VOLVO_FM10__WB_3
 10
-53.9314
 20
-16.0486
 30
0
 70
     0
  0
VERTEX
  8
VOLVO_FM10__WB_3
 10
-53.9314
 20
-15.0644
 30
0
 70
     0
  0
SEQEND
  0
POLYLINE
  8
VOLVO_FM10__WB_3
  6
CONTINUOUS
 62
     7
 66
     1
 40
0.0139
 41
0.0139
  0
VERTEX
  8
VOLVO_FM10__WB_3
 10
-53.7346
 20
-15.0644
 30
0
 70
     0
  0
VERTEX
  8
VOLVO_FM10__WB_3
 10
-53.9314
 20
-15.0644
 30
0
 70
     0
  0
SEQEND
  0
POLYLINE
  8
VOLVO_FM10__WB_3
  6
CONTINUOUS
 62
     7
 66
     1
 40
0.0139
 41
0.0139
  0
VERTEX
  8
VOLVO_FM10__WB_3
 10
-53.7346
 20
-16.0486
 30
0
 70
     0
  0
VERTEX
  8
VOLVO_FM10__WB_3
 10
-53.9314
 20
-16.0486
 30
0
 70
     0
  0
SEQEND
  0
POLYLINE
  8
VOLVO_FM10__WB_3
  6
CONTINUOUS
 62
     7
 66
     1
 40
0.0139
 41
0.0139
  0
VERTEX
  8
VOLVO_FM10__WB_3
 10
-53.7346
 20
-12.1116
 30
0
 70
     0
  0
VERTEX
  8
VOLVO_FM10__WB_3
 10
-53.9314
 20
-12.1116
 30
0
 70
     0
  0
SEQEND
  0
POLYLINE
  8
VOLVO_FM10__WB_3
  6
CONTINUOUS
 62
     7
 66
     1
 40
0.0139
 41
0.0139
  0
VERTEX
  8
VOLVO_FM10__WB_3
 10
-53.9314
 20
-13.0958
 30
0
 70
     0
  0
VERTEX
  8
VOLVO_FM10__WB_3
 10
-53.9314
 20
-12.1116
 30
0
 70
     0
  0
SEQEND
  0
POLYLINE
  8
VOLVO_FM10__WB_3
  6
CONTINUOUS
 62
     7
 66
     1
 40
0.0139
 41
0.0139
  0
VERTEX
  8
VOLVO_FM10__WB_3
 10
-53.7346
 20
-13.0958
 30
0
 70
     0
  0
VERTEX
  8
VOLVO_FM10__WB_3
 10
-53.9314
 20
-13.0958
 30
0
 70
     0
  0
SEQEND
  0
POLYLINE
  8
VOLVO_FM10__WB_3
  6
CONTINUOUS
 62
     7
 66
     1
 40
0.0139
 41
0.0139
  0
VERTEX
  8
VOLVO_FM10__WB_3
 10
-53.9314
 20
-10.1431
 30
0
 70
     0
  0
VERTEX
  8
VOLVO_FM10__WB_3
 10
-53.9314
 20
-9.1588
 30
0
 70
     0
  0
SEQEND
  0
POLYLINE
  8
VOLVO_FM10__WB_3
  6
CONTINUOUS
 62
     7
 66
     1
 40
0.0139
 41
0.0139
  0
VERTEX
  8
VOLVO_FM10__WB_3
 10
-53.7346
 20
-9.1588
 30
0
 70
     0
  0
VERTEX
  8
VOLVO_FM10__WB_3
 10
-53.9314
 20
-9.1588
 30
0
 70
     0
  0
SEQEND
  0
POLYLINE
  8
VOLVO_FM10__WB_3
  6
CONTINUOUS
 62
     7
 66
     1
 40
0.0139
 41
0.0139
  0
VERTEX
  8
VOLVO_FM10__WB_3
 10
-53.7346
 20
-10.1431
 30
0
 70
     0
  0
VERTEX
  8
VOLVO_FM10__WB_3
 10
-53.9314
 20
-10.1431
 30
0
 70
     0
  0
SEQEND
  0
POLYLINE
  8
VOLVO_FM10__WB_3
  6
CONTINUOUS
 62
     7
 66
     1
 40
0.0139
 41
0.0139
  0
VERTEX
  8
VOLVO_FM10__WB_3
 10
-52.2369
 20
-3.4101
 30
0
 70
     0
  0
VERTEX
  8
VOLVO_FM10__WB_3
 10
-52.0653
 20
-5.3711
 30
0
 70
     0
  0
SEQEND
  0
POLYLINE
  8
VOLVO_FM10__WB_3
  6
CONTINUOUS
 62
     7
 66
     1
 40
0.0139
 41
0.0139
  0
VERTEX
  8
VOLVO_FM10__WB_3
 10
-48.2057
 20
-3.0574
 30
0
 70
     0
  0
VERTEX
  8
VOLVO_FM10__WB_3
 10
-48.0342
 20
-5.0184
 30
0
 70
     0
  0
SEQEND
  0
POLYLINE
  8
VOLVO_FM10__WB_3
  6
CONTINUOUS
 62
     7
 66
     1
 40
0.0139
 41
0.0139
  0
VERTEX
  8
VOLVO_FM10__WB_3
 10
-43.8403
 20
-2.6754
 30
0
 70
     0
  0
VERTEX
  8
VOLVO_FM10__WB_3
 10
-43.6687
 20
-4.6365
 30
0
 70
     0
  0
SEQEND
  0
POLYLINE
  8
VOLVO_FM10__WB_3
  6
CONTINUOUS
 62
     7
 66
     1
 40
0.0139
 41
0.0139
  0
VERTEX
  8
VOLVO_FM10__WB_3
 10
-45.8606
 20
-2.8522
 30
0
 70
     0
  0
VERTEX
  8
VOLVO_FM10__WB_3
 10
-53.7346
 20
-3.5411
 30
0
 70
     0
  0
SEQEND
  0
POLYLINE
  8
VOLVO_FM10__WB_3
  6
CONTINUOUS
 62
     7
 66
     1
 40
0.0139
 41
0.0139
  0
VERTEX
  8
VOLVO_FM10__WB_3
 10
-45.8606
 20
-4.8282
 30
0
 70
     0
  0
VERTEX
  8
VOLVO_FM10__WB_3
 10
-53.7346
 20
-5.5171
 30
0
 70
     0
  0
SEQEND
  0
POLYLINE
  8
VOLVO_FM10__WB_3
  6
CONTINUOUS
 62
     7
 66
     1
 40
0.0139
 41
0.0139
  0
VERTEX
  8
VOLVO_FM10__WB_3
 10
-45.8606
 20
-4.8282
 30
0
 70
     0
  0
VERTEX
  8
VOLVO_FM10__WB_3
 10
-43.6687
 20
-4.6365
 30
0
 70
     0
  0
SEQEND
  0
POLYLINE
  8
VOLVO_FM10__WB_3
  6
CONTINUOUS
 62
     7
 66
     1
 40
0.0139
 41
0.0139
  0
VERTEX
  8
VOLVO_FM10__WB_3
 10
-45.8606
 20
-2.8522
 30
0
 70
     0
  0
VERTEX
  8
VOLVO_FM10__WB_3
 10
-43.8403
 20
-2.6754
 30
0
 70
     0
  0
SEQEND
  0
POLYLINE
  8
VOLVO_FM10__WB_3
  6
CONTINUOUS
 62
     7
 66
     1
 40
0.0139
 41
0.0139
  0
VERTEX
  8
VOLVO_FM10__WB_3
 10
-52.7503
 20
-16.7376
 30
0
 70
     0
  0
VERTEX
  8
VOLVO_FM10__WB_3
 10
-52.7503
 20
-20.084
 30
0
 70
     0
  0
SEQEND
  0
POLYLINE
  8
VOLVO_FM10__WB_3
  6
CONTINUOUS
 62
     7
 66
     1
 40
0.0139
 41
0.0139
  0
VERTEX
  8
VOLVO_FM10__WB_3
 10
-42.3172
 20
-16.7376
 30
0
 70
     0
  0
VERTEX
  8
VOLVO_FM10__WB_3
 10
-42.3172
 20
-20.084
 30
0
 70
     0
  0
SEQEND
  0
POLYLINE
  8
VOLVO_FM10__WB_3
  6
CONTINUOUS
 62
     7
 66
     1
 40
0.0139
 41
0.0139
  0
VERTEX
  8
VOLVO_FM10__WB_3
 10
-53.7346
 20
-20.084
 30
0
 70
     0
  0
VERTEX
  8
VOLVO_FM10__WB_3
 10
-45.8606
 20
-20.084
 30
0
 70
     0
  0
SEQEND
  0
POLYLINE
  8
VOLVO_FM10__WB_3
  6
CONTINUOUS
 62
     7
 66
     1
 40
0.0139
 41
0.0139
  0
VERTEX
  8
VOLVO_FM10__WB_3
 10
-53.7346
 20
-16.7376
 30
0
 70
     0
  0
VERTEX
  8
VOLVO_FM10__WB_3
 10
-45.8606
 20
-16.7376
 30
0
 70
     0
  0
SEQEND
  0
POLYLINE
  8
VOLVO_FM10__WB_3
  6
CONTINUOUS
 62
     7
 66
     1
 40
0.0139
 41
0.0139
  0
VERTEX
  8
VOLVO_FM10__WB_3
 10
-42.3172
 20
-16.7376
 30
0
 70
     0
  0
VERTEX
  8
VOLVO_FM10__WB_3
 10
-45.8606
 20
-16.7376
 30
0
 70
     0
  0
SEQEND
  0
POLYLINE
  8
VOLVO_FM10__WB_3
  6
CONTINUOUS
 62
     7
 66
     1
 40
0.0139
 41
0.0139
  0
VERTEX
  8
VOLVO_FM10__WB_3
 10
-42.3172
 20
-20.084
 30
0
 70
     0
  0
VERTEX
  8
VOLVO_FM10__WB_3
 10
-45.8606
 20
-20.084
 30
0
 70
     0
  0
SEQEND
  0
POLYLINE
  8
VOLVO_FM10__WB_3
  6
CONTINUOUS
 62
     7
 66
     1
 40
0.0139
 41
0.0139
  0
VERTEX
  8
VOLVO_FM10__WB_3
 10
-53.0793
 20
16.8531
 30
0
 70
     0
  0
VERTEX
  8
VOLVO_FM10__WB_3
 10
-53.2318
 20
16.4776
 30
0
 70
     0
  0
VERTEX
  8
VOLVO_FM10__WB_3
 10
-53.3645
 20
16.0956
 30
0
 70
     0
  0
VERTEX
  8
VOLVO_FM10__WB_3
 10
-53.4772
 20
15.7076
 30
0
 70
     0
  0
VERTEX
  8
VOLVO_FM10__WB_3
 10
-53.5696
 20
15.3147
 30
0
 70
     0
  0
VERTEX
  8
VOLVO_FM10__WB_3
 10
-53.6418
 20
14.9175
 30
0
 70
     0
  0
VERTEX
  8
VOLVO_FM10__WB_3
 10
-53.6934
 20
14.5168
 30
0
 70
     0
  0
VERTEX
  8
VOLVO_FM10__WB_3
 10
-53.7115
 20
14.3155
 30
0
 70
     0
  0
VERTEX
  8
VOLVO_FM10__WB_3
 10
-53.7244
 20
14.1136
 30
0
 70
     0
  0
VERTEX
  8
VOLVO_FM10__WB_3
 10
-53.7321
 20
13.9112
 30
0
 70
     0
  0
VERTEX
  8
VOLVO_FM10__WB_3
 10
-53.7346
 20
13.7084
 30
0
 70
     0
  0
SEQEND
  0
POLYLINE
  8
VOLVO_FM10__WB_3
  6
CONTINUOUS
 62
     7
 66
     1
 40
0.0139
 41
0.0139
  0
VERTEX
  8
VOLVO_FM10__WB_3
 10
-29.1272
 20
59.9947
 30
0
 70
     0
  0
VERTEX
  8
VOLVO_FM10__WB_3
 10
-29.42
 20
59.9895
 30
0
 70
     0
  0
VERTEX
  8
VOLVO_FM10__WB_3
 10
-29.7108
 20
59.9736
 30
0
 70
     0
  0
VERTEX
  8
VOLVO_FM10__WB_3
 10
-29.9994
 20
59.947
 30
0
 70
     0
  0
VERTEX
  8
VOLVO_FM10__WB_3
 10
-30.2856
 20
59.9101
 30
0
 70
     0
  0
VERTEX
  8
VOLVO_FM10__WB_3
 10
-30.5691
 20
59.8628
 30
0
 70
     0
  0
VERTEX
  8
VOLVO_FM10__WB_3
 10
-30.8497
 20
59.8054
 30
0
 70
     0
  0
VERTEX
  8
VOLVO_FM10__WB_3
 10
-31.1271
 20
59.738
 30
0
 70
     0
  0
VERTEX
  8
VOLVO_FM10__WB_3
 10
-31.4011
 20
59.6608
 30
0
 70
     0
  0
VERTEX
  8
VOLVO_FM10__WB_3
 10
-31.6716
 20
59.574
 30
0
 70
     0
  0
VERTEX
  8
VOLVO_FM10__WB_3
 10
-31.9381
 20
59.4776
 30
0
 70
     0
  0
VERTEX
  8
VOLVO_FM10__WB_3
 10
-32.2006
 20
59.3719
 30
0
 70
     0
  0
VERTEX
  8
VOLVO_FM10__WB_3
 10
-32.4587
 20
59.257
 30
0
 70
     0
  0
VERTEX
  8
VOLVO_FM10__WB_3
 10
-32.7122
 20
59.133
 30
0
 70
     0
  0
VERTEX
  8
VOLVO_FM10__WB_3
 10
-32.961
 20
59.0002
 30
0
 70
     0
  0
VERTEX
  8
VOLVO_FM10__WB_3
 10
-33.2046
 20
58.8586
 30
0
 70
     0
  0
VERTEX
  8
VOLVO_FM10__WB_3
 10
-33.443
 20
58.7084
 30
0
 70
     0
  0
VERTEX
  8
VOLVO_FM10__WB_3
 10
-33.6759
 20
58.5498
 30
0
 70
     0
  0
VERTEX
  8
VOLVO_FM10__WB_3
 10
-33.9031
 20
58.3829
 30
0
 70
     0
  0
VERTEX
  8
VOLVO_FM10__WB_3
 10
-34.1242
 20
58.208
 30
0
 70
     0
  0
VERTEX
  8
VOLVO_FM10__WB_3
 10
-34.3391
 20
58.025
 30
0
 70
     0
  0
VERTEX
  8
VOLVO_FM10__WB_3
 10
-34.5475
 20
57.8343
 30
0
 70
     0
  0
VERTEX
  8
VOLVO_FM10__WB_3
 10
-34.7493
 20
57.6359
 30
0
 70
     0
  0
VERTEX
  8
VOLVO_FM10__WB_3
 10
-34.9441
 20
57.43
 30
0
 70
     0
  0
VERTEX
  8
VOLVO_FM10__WB_3
 10
-35.1317
 20
57.2168
 30
0
 70
     0
  0
VERTEX
  8
VOLVO_FM10__WB_3
 10
-35.3119
 20
56.9964
 30
0
 70
     0
  0
VERTEX
  8
VOLVO_FM10__WB_3
 10
-35.4845
 20
56.7689
 30
0
 70
     0
  0
VERTEX
  8
VOLVO_FM10__WB_3
 10
-35.6492
 20
56.5346
 30
0
 70
     0
  0
VERTEX
  8
VOLVO_FM10__WB_3
 10
-35.8057
 20
56.2936
 30
0
 70
     0
  0
VERTEX
  8
VOLVO_FM10__WB_3
 10
-35.9539
 20
56.046
 30
0
 70
     0
  0
VERTEX
  8
VOLVO_FM10__WB_3
 10
-36.0935
 20
55.792
 30
0
 70
     0
  0
VERTEX
  8
VOLVO_FM10__WB_3
 10
-36.2243
 20
55.5317
 30
0
 70
     0
  0
VERTEX
  8
VOLVO_FM10__WB_3
 10
-36.346
 20
55.2654
 30
0
 70
     0
  0
SEQEND
  0
POLYLINE
  8
VOLVO_FM10__WB_3
  6
CONTINUOUS
 62
     7
 66
     1
 40
0.0139
 41
0.0139
  0
VERTEX
  8
VOLVO_FM10__WB_3
 10
-45.8606
 20
-31.5014
 30
0
 70
     0
  0
VERTEX
  8
VOLVO_FM10__WB_3
 10
-23.8133
 20
-31.5014
 30
0
 70
     0
  0
SEQEND
  0
POLYLINE
  8
VOLVO_FM10__WB_3
  6
CONTINUOUS
 62
     7
 66
     1
 40
0.0139
 41
0.0139
  0
VERTEX
  8
VOLVO_FM10__WB_3
 10
-23.8133
 20
-31.5014
 30
0
 70
     0
  0
VERTEX
  8
VOLVO_FM10__WB_3
 10
-23.8133
 20
-17.7218
 30
0
 70
     0
  0
SEQEND
  0
POLYLINE
  8
VOLVO_FM10__WB_3
  6
CONTINUOUS
 62
     7
 66
     1
 40
0.0139
 41
0.0139
  0
VERTEX
  8
VOLVO_FM10__WB_3
 10
3.5095
 20
0.7354
 30
0
 70
     0
  0
VERTEX
  8
VOLVO_FM10__WB_3
 10
2.9245
 20
0.8113
 30
0
 70
     0
  0
VERTEX
  8
VOLVO_FM10__WB_3
 10
2.3407
 20
0.8731
 30
0
 70
     0
  0
VERTEX
  8
VOLVO_FM10__WB_3
 10
1.7583
 20
0.9208
 30
0
 70
     0
  0
VERTEX
  8
VOLVO_FM10__WB_3
 10
1.1774
 20
0.9547
 30
0
 70
     0
  0
VERTEX
  8
VOLVO_FM10__WB_3
 10
0.5982
 20
0.9747
 30
0
 70
     0
  0
VERTEX
  8
VOLVO_FM10__WB_3
 10
0.021
 20
0.9811
 30
0
 70
     0
  0
VERTEX
  8
VOLVO_FM10__WB_3
 10
-0.5542
 20
0.974
 30
0
 70
     0
  0
VERTEX
  8
VOLVO_FM10__WB_3
 10
-1.127
 20
0.9534
 30
0
 70
     0
  0
VERTEX
  8
VOLVO_FM10__WB_3
 10
-1.6973
 20
0.9196
 30
0
 70
     0
  0
VERTEX
  8
VOLVO_FM10__WB_3
 10
-2.265
 20
0.8726
 30
0
 70
     0
  0
VERTEX
  8
VOLVO_FM10__WB_3
 10
-2.8299
 20
0.8126
 30
0
 70
     0
  0
VERTEX
  8
VOLVO_FM10__WB_3
 10
-3.3917
 20
0.7397
 30
0
 70
     0
  0
VERTEX
  8
VOLVO_FM10__WB_3
 10
-3.9502
 20
0.654
 30
0
 70
     0
  0
VERTEX
  8
VOLVO_FM10__WB_3
 10
-4.5054
 20
0.5557
 30
0
 70
     0
  0
VERTEX
  8
VOLVO_FM10__WB_3
 10
-5.057
 20
0.4448
 30
0
 70
     0
  0
VERTEX
  8
VOLVO_FM10__WB_3
 10
-5.6048
 20
0.3215
 30
0
 70
     0
  0
VERTEX
  8
VOLVO_FM10__WB_3
 10
-6.1486
 20
0.186
 30
0
 70
     0
  0
VERTEX
  8
VOLVO_FM10__WB_3
 10
-6.6883
 20
0.0383
 30
0
 70
     0
  0
VERTEX
  8
VOLVO_FM10__WB_3
 10
-7.2236
 20
-0.1215
 30
0
 70
     0
  0
VERTEX
  8
VOLVO_FM10__WB_3
 10
-7.7544
 20
-0.2931
 30
0
 70
     0
  0
VERTEX
  8
VOLVO_FM10__WB_3
 10
-8.2805
 20
-0.4765
 30
0
 70
     0
  0
VERTEX
  8
VOLVO_FM10__WB_3
 10
-8.8017
 20
-0.6715
 30
0
 70
     0
  0
VERTEX
  8
VOLVO_FM10__WB_3
 10
-9.3179
 20
-0.8781
 30
0
 70
     0
  0
VERTEX
  8
VOLVO_FM10__WB_3
 10
-9.8287
 20
-1.0961
 30
0
 70
     0
  0
VERTEX
  8
VOLVO_FM10__WB_3
 10
-10.3342
 20
-1.3253
 30
0
 70
     0
  0
VERTEX
  8
VOLVO_FM10__WB_3
 10
-10.8339
 20
-1.5657
 30
0
 70
     0
  0
VERTEX
  8
VOLVO_FM10__WB_3
 10
-11.3279
 20
-1.8172
 30
0
 70
     0
  0
VERTEX
  8
VOLVO_FM10__WB_3
 10
-11.8158
 20
-2.0795
 30
0
 70
     0
  0
VERTEX
  8
VOLVO_FM10__WB_3
 10
-12.2976
 20
-2.3526
 30
0
 70
     0
  0
VERTEX
  8
VOLVO_FM10__WB_3
 10
-12.7729
 20
-2.6363
 30
0
 70
     0
  0
VERTEX
  8
VOLVO_FM10__WB_3
 10
-13.2418
 20
-2.9306
 30
0
 70
     0
  0
VERTEX
  8
VOLVO_FM10__WB_3
 10
-13.7038
 20
-3.2352
 30
0
 70
     0
  0
VERTEX
  8
VOLVO_FM10__WB_3
 10
-14.1589
 20
-3.5501
 30
0
 70
     0
  0
VERTEX
  8
VOLVO_FM10__WB_3
 10
-14.6069
 20
-3.8752
 30
0
 70
     0
  0
VERTEX
  8
VOLVO_FM10__WB_3
 10
-15.0476
 20
-4.2103
 30
0
 70
     0
  0
VERTEX
  8
VOLVO_FM10__WB_3
 10
-15.4808
 20
-4.5552
 30
0
 70
     0
  0
VERTEX
  8
VOLVO_FM10__WB_3
 10
-15.9063
 20
-4.91
 30
0
 70
     0
  0
VERTEX
  8
VOLVO_FM10__WB_3
 10
-16.3239
 20
-5.2744
 30
0
 70
     0
  0
VERTEX
  8
VOLVO_FM10__WB_3
 10
-16.7335
 20
-5.6483
 30
0
 70
     0
  0
VERTEX
  8
VOLVO_FM10__WB_3
 10
-17.1349
 20
-6.0316
 30
0
 70
     0
  0
VERTEX
  8
VOLVO_FM10__WB_3
 10
-17.5278
 20
-6.4241
 30
0
 70
     0
  0
VERTEX
  8
VOLVO_FM10__WB_3
 10
-17.9121
 20
-6.8258
 30
0
 70
     0
  0
VERTEX
  8
VOLVO_FM10__WB_3
 10
-18.2877
 20
-7.2365
 30
0
 70
     0
  0
VERTEX
  8
VOLVO_FM10__WB_3
 10
-18.6542
 20
-7.6561
 30
0
 70
     0
  0
VERTEX
  8
VOLVO_FM10__WB_3
 10
-19.0116
 20
-8.0845
 30
0
 70
     0
  0
VERTEX
  8
VOLVO_FM10__WB_3
 10
-19.3596
 20
-8.5215
 30
0
 70
     0
  0
VERTEX
  8
VOLVO_FM10__WB_3
 10
-19.6981
 20
-8.967
 30
0
 70
     0
  0
VERTEX
  8
VOLVO_FM10__WB_3
 10
-20.0269
 20
-9.4209
 30
0
 70
     0
  0
VERTEX
  8
VOLVO_FM10__WB_3
 10
-20.3457
 20
-9.8831
 30
0
 70
     0
  0
VERTEX
  8
VOLVO_FM10__WB_3
 10
-20.6545
 20
-10.3534
 30
0
 70
     0
  0
VERTEX
  8
VOLVO_FM10__WB_3
 10
-20.953
 20
-10.8317
 30
0
 70
     0
  0
VERTEX
  8
VOLVO_FM10__WB_3
 10
-21.241
 20
-11.3179
 30
0
 70
     0
  0
VERTEX
  8
VOLVO_FM10__WB_3
 10
-21.5184
 20
-11.8119
 30
0
 70
     0
  0
VERTEX
  8
VOLVO_FM10__WB_3
 10
-21.7849
 20
-12.3135
 30
0
 70
     0
  0
VERTEX
  8
VOLVO_FM10__WB_3
 10
-22.0404
 20
-12.8226
 30
0
 70
     0
  0
VERTEX
  8
VOLVO_FM10__WB_3
 10
-22.2847
 20
-13.3391
 30
0
 70
     0
  0
VERTEX
  8
VOLVO_FM10__WB_3
 10
-22.5176
 20
-13.8629
 30
0
 70
     0
  0
VERTEX
  8
VOLVO_FM10__WB_3
 10
-22.7389
 20
-14.3937
 30
0
 70
     0
  0
VERTEX
  8
VOLVO_FM10__WB_3
 10
-22.9485
 20
-14.9316
 30
0
 70
     0
  0
VERTEX
  8
VOLVO_FM10__WB_3
 10
-23.1461
 20
-15.4764
 30
0
 70
     0
  0
VERTEX
  8
VOLVO_FM10__WB_3
 10
-23.3316
 20
-16.0279
 30
0
 70
     0
  0
VERTEX
  8
VOLVO_FM10__WB_3
 10
-23.5047
 20
-16.5861
 30
0
 70
     0
  0
VERTEX
  8
VOLVO_FM10__WB_3
 10
-23.6654
 20
-17.1508
 30
0
 70
     0
  0
VERTEX
  8
VOLVO_FM10__WB_3
 10
-23.8133
 20
-17.7218
 30
0
 70
     0
  0
SEQEND
  0
POLYLINE
  8
VOLVO_FM10__WB_3
  6
CONTINUOUS
 62
     7
 66
     1
 40
0.0139
 41
0.0139
  0
VERTEX
  8
VOLVO_FM10__WB_3
 10
-2.9472
 20
-23.0998
 30
0
 70
     0
  0
VERTEX
  8
VOLVO_FM10__WB_3
 10
-2.9433
 20
-22.9488
 30
0
 70
     0
  0
VERTEX
  8
VOLVO_FM10__WB_3
 10
-2.9318
 20
-22.7997
 30
0
 70
     0
  0
VERTEX
  8
VOLVO_FM10__WB_3
 10
-2.9129
 20
-22.6526
 30
0
 70
     0
  0
VERTEX
  8
VOLVO_FM10__WB_3
 10
-2.8867
 20
-22.5078
 30
0
 70
     0
  0
VERTEX
  8
VOLVO_FM10__WB_3
 10
-2.8535
 20
-22.3655
 30
0
 70
     0
  0
VERTEX
  8
VOLVO_FM10__WB_3
 10
-2.8135
 20
-22.2258
 30
0
 70
     0
  0
VERTEX
  8
VOLVO_FM10__WB_3
 10
-2.7668
 20
-22.0889
 30
0
 70
     0
  0
VERTEX
  8
VOLVO_FM10__WB_3
 10
-2.7136
 20
-21.955
 30
0
 70
     0
  0
VERTEX
  8
VOLVO_FM10__WB_3
 10
-2.6541
 20
-21.8244
 30
0
 70
     0
  0
VERTEX
  8
VOLVO_FM10__WB_3
 10
-2.5886
 20
-21.6972
 30
0
 70
     0
  0
VERTEX
  8
VOLVO_FM10__WB_3
 10
-2.5171
 20
-21.5735
 30
0
 70
     0
  0
VERTEX
  8
VOLVO_FM10__WB_3
 10
-2.44
 20
-21.4537
 30
0
 70
     0
  0
VERTEX
  8
VOLVO_FM10__WB_3
 10
-2.3573
 20
-21.3378
 30
0
 70
     0
  0
VERTEX
  8
VOLVO_FM10__WB_3
 10
-2.2694
 20
-21.2261
 30
0
 70
     0
  0
VERTEX
  8
VOLVO_FM10__WB_3
 10
-2.1763
 20
-21.1188
 30
0
 70
     0
  0
VERTEX
  8
VOLVO_FM10__WB_3
 10
-2.0782
 20
-21.016
 30
0
 70
     0
  0
VERTEX
  8
VOLVO_FM10__WB_3
 10
-1.9754
 20
-20.9179
 30
0
 70
     0
  0
VERTEX
  8
VOLVO_FM10__WB_3
 10
-1.8681
 20
-20.8248
 30
0
 70
     0
  0
VERTEX
  8
VOLVO_FM10__WB_3
 10
-1.7564
 20
-20.7368
 30
0
 70
     0
  0
VERTEX
  8
VOLVO_FM10__WB_3
 10
-1.6405
 20
-20.6542
 30
0
 70
     0
  0
VERTEX
  8
VOLVO_FM10__WB_3
 10
-1.5207
 20
-20.577
 30
0
 70
     0
  0
VERTEX
  8
VOLVO_FM10__WB_3
 10
-1.397
 20
-20.5056
 30
0
 70
     0
  0
VERTEX
  8
VOLVO_FM10__WB_3
 10
-1.2698
 20
-20.4401
 30
0
 70
     0
  0
VERTEX
  8
VOLVO_FM10__WB_3
 10
-1.1391
 20
-20.3806
 30
0
 70
     0
  0
VERTEX
  8
VOLVO_FM10__WB_3
 10
-1.0053
 20
-20.3274
 30
0
 70
     0
  0
VERTEX
  8
VOLVO_FM10__WB_3
 10
-0.8684
 20
-20.2807
 30
0
 70
     0
  0
VERTEX
  8
VOLVO_FM10__WB_3
 10
-0.7287
 20
-20.2407
 30
0
 70
     0
  0
VERTEX
  8
VOLVO_FM10__WB_3
 10
-0.5864
 20
-20.2075
 30
0
 70
     0
  0
VERTEX
  8
VOLVO_FM10__WB_3
 10
-0.4416
 20
-20.1813
 30
0
 70
     0
  0
VERTEX
  8
VOLVO_FM10__WB_3
 10
-0.2945
 20
-20.1624
 30
0
 70
     0
  0
VERTEX
  8
VOLVO_FM10__WB_3
 10
-0.1454
 20
-20.1509
 30
0
 70
     0
  0
VERTEX
  8
VOLVO_FM10__WB_3
 10
0.0056
 20
-20.147
 30
0
 70
     0
  0
VERTEX
  8
VOLVO_FM10__WB_3
 10
0.0056
 20
-20.147
 30
0
 70
     0
  0
VERTEX
  8
VOLVO_FM10__WB_3
 10
0.1566
 20
-20.1509
 30
0
 70
     0
  0
VERTEX
  8
VOLVO_FM10__WB_3
 10
0.3057
 20
-20.1624
 30
0
 70
     0
  0
VERTEX
  8
VOLVO_FM10__WB_3
 10
0.4527
 20
-20.1813
 30
0
 70
     0
  0
VERTEX
  8
VOLVO_FM10__WB_3
 10
0.5975
 20
-20.2075
 30
0
 70
     0
  0
VERTEX
  8
VOLVO_FM10__WB_3
 10
0.7399
 20
-20.2407
 30
0
 70
     0
  0
VERTEX
  8
VOLVO_FM10__WB_3
 10
0.8796
 20
-20.2807
 30
0
 70
     0
  0
VERTEX
  8
VOLVO_FM10__WB_3
 10
1.0165
 20
-20.3274
 30
0
 70
     0
  0
VERTEX
  8
VOLVO_FM10__WB_3
 10
1.1503
 20
-20.3806
 30
0
 70
     0
  0
VERTEX
  8
VOLVO_FM10__WB_3
 10
1.281
 20
-20.4401
 30
0
 70
     0
  0
VERTEX
  8
VOLVO_FM10__WB_3
 10
1.4082
 20
-20.5056
 30
0
 70
     0
  0
VERTEX
  8
VOLVO_FM10__WB_3
 10
1.5318
 20
-20.577
 30
0
 70
     0
  0
VERTEX
  8
VOLVO_FM10__WB_3
 10
1.6517
 20
-20.6542
 30
0
 70
     0
  0
VERTEX
  8
VOLVO_FM10__WB_3
 10
1.7676
 20
-20.7368
 30
0
 70
     0
  0
VERTEX
  8
VOLVO_FM10__WB_3
 10
1.8793
 20
-20.8248
 30
0
 70
     0
  0
VERTEX
  8
VOLVO_FM10__WB_3
 10
1.9866
 20
-20.9179
 30
0
 70
     0
  0
VERTEX
  8
VOLVO_FM10__WB_3
 10
2.0894
 20
-21.016
 30
0
 70
     0
  0
VERTEX
  8
VOLVO_FM10__WB_3
 10
2.1874
 20
-21.1188
 30
0
 70
     0
  0
VERTEX
  8
VOLVO_FM10__WB_3
 10
2.2805
 20
-21.2261
 30
0
 70
     0
  0
VERTEX
  8
VOLVO_FM10__WB_3
 10
2.3685
 20
-21.3378
 30
0
 70
     0
  0
VERTEX
  8
VOLVO_FM10__WB_3
 10
2.4512
 20
-21.4537
 30
0
 70
     0
  0
VERTEX
  8
VOLVO_FM10__WB_3
 10
2.5283
 20
-21.5735
 30
0
 70
     0
  0
VERTEX
  8
VOLVO_FM10__WB_3
 10
2.5998
 20
-21.6972
 30
0
 70
     0
  0
VERTEX
  8
VOLVO_FM10__WB_3
 10
2.6653
 20
-21.8244
 30
0
 70
     0
  0
VERTEX
  8
VOLVO_FM10__WB_3
 10
2.7248
 20
-21.955
 30
0
 70
     0
  0
VERTEX
  8
VOLVO_FM10__WB_3
 10
2.7779
 20
-22.0889
 30
0
 70
     0
  0
VERTEX
  8
VOLVO_FM10__WB_3
 10
2.8247
 20
-22.2258
 30
0
 70
     0
  0
VERTEX
  8
VOLVO_FM10__WB_3
 10
2.8647
 20
-22.3655
 30
0
 70
     0
  0
VERTEX
  8
VOLVO_FM10__WB_3
 10
2.8979
 20
-22.5078
 30
0
 70
     0
  0
VERTEX
  8
VOLVO_FM10__WB_3
 10
2.9241
 20
-22.6526
 30
0
 70
     0
  0
VERTEX
  8
VOLVO_FM10__WB_3
 10
2.943
 20
-22.7997
 30
0
 70
     0
  0
VERTEX
  8
VOLVO_FM10__WB_3
 10
2.9545
 20
-22.9488
 30
0
 70
     0
  0
VERTEX
  8
VOLVO_FM10__WB_3
 10
2.9583
 20
-23.0998
 30
0
 70
     0
  0
VERTEX
  8
VOLVO_FM10__WB_3
 10
2.9583
 20
-23.0998
 30
0
 70
     0
  0
VERTEX
  8
VOLVO_FM10__WB_3
 10
2.9545
 20
-23.2508
 30
0
 70
     0
  0
VERTEX
  8
VOLVO_FM10__WB_3
 10
2.943
 20
-23.3999
 30
0
 70
     0
  0
VERTEX
  8
VOLVO_FM10__WB_3
 10
2.9241
 20
-23.5469
 30
0
 70
     0
  0
VERTEX
  8
VOLVO_FM10__WB_3
 10
2.8979
 20
-23.6917
 30
0
 70
     0
  0
VERTEX
  8
VOLVO_FM10__WB_3
 10
2.8647
 20
-23.8341
 30
0
 70
     0
  0
VERTEX
  8
VOLVO_FM10__WB_3
 10
2.8247
 20
-23.9738
 30
0
 70
     0
  0
VERTEX
  8
VOLVO_FM10__WB_3
 10
2.7779
 20
-24.1107
 30
0
 70
     0
  0
VERTEX
  8
VOLVO_FM10__WB_3
 10
2.7248
 20
-24.2445
 30
0
 70
     0
  0
VERTEX
  8
VOLVO_FM10__WB_3
 10
2.6653
 20
-24.3752
 30
0
 70
     0
  0
VERTEX
  8
VOLVO_FM10__WB_3
 10
2.5998
 20
-24.5024
 30
0
 70
     0
  0
VERTEX
  8
VOLVO_FM10__WB_3
 10
2.5283
 20
-24.626
 30
0
 70
     0
  0
VERTEX
  8
VOLVO_FM10__WB_3
 10
2.4512
 20
-24.7459
 30
0
 70
     0
  0
VERTEX
  8
VOLVO_FM10__WB_3
 10
2.3685
 20
-24.8618
 30
0
 70
     0
  0
VERTEX
  8
VOLVO_FM10__WB_3
 10
2.2805
 20
-24.9735
 30
0
 70
     0
  0
VERTEX
  8
VOLVO_FM10__WB_3
 10
2.1874
 20
-25.0808
 30
0
 70
     0
  0
VERTEX
  8
VOLVO_FM10__WB_3
 10
2.0894
 20
-25.1836
 30
0
 70
     0
  0
VERTEX
  8
VOLVO_FM10__WB_3
 10
1.9866
 20
-25.2816
 30
0
 70
     0
  0
VERTEX
  8
VOLVO_FM10__WB_3
 10
1.8793
 20
-25.3747
 30
0
 70
     0
  0
VERTEX
  8
VOLVO_FM10__WB_3
 10
1.7676
 20
-25.4627
 30
0
 70
     0
  0
VERTEX
  8
VOLVO_FM10__WB_3
 10
1.6517
 20
-25.5454
 30
0
 70
     0
  0
VERTEX
  8
VOLVO_FM10__WB_3
 10
1.5318
 20
-25.6225
 30
0
 70
     0
  0
VERTEX
  8
VOLVO_FM10__WB_3
 10
1.4082
 20
-25.694
 30
0
 70
     0
  0
VERTEX
  8
VOLVO_FM10__WB_3
 10
1.281
 20
-25.7595
 30
0
 70
     0
  0
VERTEX
  8
VOLVO_FM10__WB_3
 10
1.1503
 20
-25.819
 30
0
 70
     0
  0
VERTEX
  8
VOLVO_FM10__WB_3
 10
1.0165
 20
-25.8721
 30
0
 70
     0
  0
VERTEX
  8
VOLVO_FM10__WB_3
 10
0.8796
 20
-25.9189
 30
0
 70
     0
  0
VERTEX
  8
VOLVO_FM10__WB_3
 10
0.7399
 20
-25.9589
 30
0
 70
     0
  0
VERTEX
  8
VOLVO_FM10__WB_3
 10
0.5975
 20
-25.9921
 30
0
 70
     0
  0
VERTEX
  8
VOLVO_FM10__WB_3
 10
0.4527
 20
-26.0183
 30
0
 70
     0
  0
VERTEX
  8
VOLVO_FM10__WB_3
 10
0.3057
 20
-26.0372
 30
0
 70
     0
  0
VERTEX
  8
VOLVO_FM10__WB_3
 10
0.1566
 20
-26.0487
 30
0
 70
     0
  0
VERTEX
  8
VOLVO_FM10__WB_3
 10
0.0056
 20
-26.0525
 30
0
 70
     0
  0
VERTEX
  8
VOLVO_FM10__WB_3
 10
0.0056
 20
-26.0525
 30
0
 70
     0
  0
VERTEX
  8
VOLVO_FM10__WB_3
 10
-0.1454
 20
-26.0487
 30
0
 70
     0
  0
VERTEX
  8
VOLVO_FM10__WB_3
 10
-0.2945
 20
-26.0372
 30
0
 70
     0
  0
VERTEX
  8
VOLVO_FM10__WB_3
 10
-0.4416
 20
-26.0183
 30
0
 70
     0
  0
VERTEX
  8
VOLVO_FM10__WB_3
 10
-0.5864
 20
-25.9921
 30
0
 70
     0
  0
VERTEX
  8
VOLVO_FM10__WB_3
 10
-0.7287
 20
-25.9589
 30
0
 70
     0
  0
VERTEX
  8
VOLVO_FM10__WB_3
 10
-0.8684
 20
-25.9189
 30
0
 70
     0
  0
VERTEX
  8
VOLVO_FM10__WB_3
 10
-1.0053
 20
-25.8721
 30
0
 70
     0
  0
VERTEX
  8
VOLVO_FM10__WB_3
 10
-1.1391
 20
-25.819
 30
0
 70
     0
  0
VERTEX
  8
VOLVO_FM10__WB_3
 10
-1.2698
 20
-25.7595
 30
0
 70
     0
  0
VERTEX
  8
VOLVO_FM10__WB_3
 10
-1.397
 20
-25.694
 30
0
 70
     0
  0
VERTEX
  8
VOLVO_FM10__WB_3
 10
-1.5207
 20
-25.6225
 30
0
 70
     0
  0
VERTEX
  8
VOLVO_FM10__WB_3
 10
-1.6405
 20
-25.5454
 30
0
 70
     0
  0
VERTEX
  8
VOLVO_FM10__WB_3
 10
-1.7564
 20
-25.4627
 30
0
 70
     0
  0
VERTEX
  8
VOLVO_FM10__WB_3
 10
-1.8681
 20
-25.3747
 30
0
 70
     0
  0
VERTEX
  8
VOLVO_FM10__WB_3
 10
-1.9754
 20
-25.2816
 30
0
 70
     0
  0
VERTEX
  8
VOLVO_FM10__WB_3
 10
-2.0782
 20
-25.1836
 30
0
 70
     0
  0
VERTEX
  8
VOLVO_FM10__WB_3
 10
-2.1763
 20
-25.0808
 30
0
 70
     0
  0
VERTEX
  8
VOLVO_FM10__WB_3
 10
-2.2694
 20
-24.9735
 30
0
 70
     0
  0
VERTEX
  8
VOLVO_FM10__WB_3
 10
-2.3573
 20
-24.8618
 30
0
 70
     0
  0
VERTEX
  8
VOLVO_FM10__WB_3
 10
-2.44
 20
-24.7459
 30
0
 70
     0
  0
VERTEX
  8
VOLVO_FM10__WB_3
 10
-2.5171
 20
-24.626
 30
0
 70
     0
  0
VERTEX
  8
VOLVO_FM10__WB_3
 10
-2.5886
 20
-24.5024
 30
0
 70
     0
  0
VERTEX
  8
VOLVO_FM10__WB_3
 10
-2.6541
 20
-24.3752
 30
0
 70
     0
  0
VERTEX
  8
VOLVO_FM10__WB_3
 10
-2.7136
 20
-24.2445
 30
0
 70
     0
  0
VERTEX
  8
VOLVO_FM10__WB_3
 10
-2.7668
 20
-24.1107
 30
0
 70
     0
  0
VERTEX
  8
VOLVO_FM10__WB_3
 10
-2.8135
 20
-23.9738
 30
0
 70
     0
  0
VERTEX
  8
VOLVO_FM10__WB_3
 10
-2.8535
 20
-23.8341
 30
0
 70
     0
  0
VERTEX
  8
VOLVO_FM10__WB_3
 10
-2.8867
 20
-23.6917
 30
0
 70
     0
  0
VERTEX
  8
VOLVO_FM10__WB_3
 10
-2.9129
 20
-23.5469
 30
0
 70
     0
  0
VERTEX
  8
VOLVO_FM10__WB_3
 10
-2.9318
 20
-23.3999
 30
0
 70
     0
  0
VERTEX
  8
VOLVO_FM10__WB_3
 10
-2.9433
 20
-23.2508
 30
0
 70
     0
  0
VERTEX
  8
VOLVO_FM10__WB_3
 10
-2.9472
 20
-23.0998
 30
0
 70
     0
  0
SEQEND
  0
POLYLINE
  8
VOLVO_FM10__WB_3
  6
CONTINUOUS
 62
     7
 66
     1
 40
0.0139
 41
0.0139
  0
VERTEX
  8
VOLVO_FM10__WB_3
 10
-9.3448
 20
-23.0998
 30
0
 70
     0
  0
VERTEX
  8
VOLVO_FM10__WB_3
 10
-9.3417
 20
-22.86
 30
0
 70
     0
  0
VERTEX
  8
VOLVO_FM10__WB_3
 10
-9.3325
 20
-22.6217
 30
0
 70
     0
  0
VERTEX
  8
VOLVO_FM10__WB_3
 10
-9.3173
 20
-22.3848
 30
0
 70
     0
  0
VERTEX
  8
VOLVO_FM10__WB_3
 10
-9.2961
 20
-22.1495
 30
0
 70
     0
  0
VERTEX
  8
VOLVO_FM10__WB_3
 10
-9.2691
 20
-21.9158
 30
0
 70
     0
  0
VERTEX
  8
VOLVO_FM10__WB_3
 10
-9.2362
 20
-21.6838
 30
0
 70
     0
  0
VERTEX
  8
VOLVO_FM10__WB_3
 10
-9.1977
 20
-21.4536
 30
0
 70
     0
  0
VERTEX
  8
VOLVO_FM10__WB_3
 10
-9.1534
 20
-21.2253
 30
0
 70
     0
  0
VERTEX
  8
VOLVO_FM10__WB_3
 10
-9.1036
 20
-20.9989
 30
0
 70
     0
  0
VERTEX
  8
VOLVO_FM10__WB_3
 10
-9.0483
 20
-20.7745
 30
0
 70
     0
  0
VERTEX
  8
VOLVO_FM10__WB_3
 10
-8.9876
 20
-20.5522
 30
0
 70
     0
  0
VERTEX
  8
VOLVO_FM10__WB_3
 10
-8.9215
 20
-20.3321
 30
0
 70
     0
  0
VERTEX
  8
VOLVO_FM10__WB_3
 10
-8.8501
 20
-20.1142
 30
0
 70
     0
  0
VERTEX
  8
VOLVO_FM10__WB_3
 10
-8.7735
 20
-19.8987
 30
0
 70
     0
  0
VERTEX
  8
VOLVO_FM10__WB_3
 10
-8.6919
 20
-19.6855
 30
0
 70
     0
  0
VERTEX
  8
VOLVO_FM10__WB_3
 10
-8.6051
 20
-19.4748
 30
0
 70
     0
  0
VERTEX
  8
VOLVO_FM10__WB_3
 10
-8.4169
 20
-19.0611
 30
0
 70
     0
  0
VERTEX
  8
VOLVO_FM10__WB_3
 10
-8.2093
 20
-18.6582
 30
0
 70
     0
  0
VERTEX
  8
VOLVO_FM10__WB_3
 10
-7.9831
 20
-18.2666
 30
0
 70
     0
  0
VERTEX
  8
VOLVO_FM10__WB_3
 10
-7.7388
 20
-17.8871
 30
0
 70
     0
  0
VERTEX
  8
VOLVO_FM10__WB_3
 10
-7.477
 20
-17.5202
 30
0
 70
     0
  0
VERTEX
  8
VOLVO_FM10__WB_3
 10
-7.1985
 20
-17.1664
 30
0
 70
     0
  0
VERTEX
  8
VOLVO_FM10__WB_3
 10
-6.9036
 20
-16.8265
 30
0
 70
     0
  0
VERTEX
  8
VOLVO_FM10__WB_3
 10
-6.5932
 20
-16.501
 30
0
 70
     0
  0
VERTEX
  8
VOLVO_FM10__WB_3
 10
-6.2677
 20
-16.1906
 30
0
 70
     0
  0
VERTEX
  8
VOLVO_FM10__WB_3
 10
-5.9278
 20
-15.8957
 30
0
 70
     0
  0
VERTEX
  8
VOLVO_FM10__WB_3
 10
-5.574
 20
-15.6172
 30
0
 70
     0
  0
VERTEX
  8
VOLVO_FM10__WB_3
 10
-5.2071
 20
-15.3554
 30
0
 70
     0
  0
VERTEX
  8
VOLVO_FM10__WB_3
 10
-4.8276
 20
-15.1111
 30
0
 70
     0
  0
VERTEX
  8
VOLVO_FM10__WB_3
 10
-4.436
 20
-14.8849
 30
0
 70
     0
  0
VERTEX
  8
VOLVO_FM10__WB_3
 10
-4.0331
 20
-14.6773
 30
0
 70
     0
  0
VERTEX
  8
VOLVO_FM10__WB_3
 10
-3.6194
 20
-14.4891
 30
0
 70
     0
  0
VERTEX
  8
VOLVO_FM10__WB_3
 10
-3.4087
 20
-14.4023
 30
0
 70
     0
  0
VERTEX
  8
VOLVO_FM10__WB_3
 10
-3.1955
 20
-14.3207
 30
0
 70
     0
  0
VERTEX
  8
VOLVO_FM10__WB_3
 10
-2.98
 20
-14.2441
 30
0
 70
     0
  0
VERTEX
  8
VOLVO_FM10__WB_3
 10
-2.7621
 20
-14.1727
 30
0
 70
     0
  0
VERTEX
  8
VOLVO_FM10__WB_3
 10
-2.542
 20
-14.1066
 30
0
 70
     0
  0
VERTEX
  8
VOLVO_FM10__WB_3
 10
-2.3197
 20
-14.0459
 30
0
 70
     0
  0
VERTEX
  8
VOLVO_FM10__WB_3
 10
-2.0953
 20
-13.9906
 30
0
 70
     0
  0
VERTEX
  8
VOLVO_FM10__WB_3
 10
-1.8689
 20
-13.9408
 30
0
 70
     0
  0
VERTEX
  8
VOLVO_FM10__WB_3
 10
-1.6406
 20
-13.8965
 30
0
 70
     0
  0
VERTEX
  8
VOLVO_FM10__WB_3
 10
-1.4104
 20
-13.858
 30
0
 70
     0
  0
VERTEX
  8
VOLVO_FM10__WB_3
 10
-1.1784
 20
-13.8251
 30
0
 70
     0
  0
VERTEX
  8
VOLVO_FM10__WB_3
 10
-0.9447
 20
-13.798
 30
0
 70
     0
  0
VERTEX
  8
VOLVO_FM10__WB_3
 10
-0.7094
 20
-13.7769
 30
0
 70
     0
  0
VERTEX
  8
VOLVO_FM10__WB_3
 10
-0.4725
 20
-13.7617
 30
0
 70
     0
  0
VERTEX
  8
VOLVO_FM10__WB_3
 10
-0.2342
 20
-13.7525
 30
0
 70
     0
  0
VERTEX
  8
VOLVO_FM10__WB_3
 10
0.0056
 20
-13.7494
 30
0
 70
     0
  0
VERTEX
  8
VOLVO_FM10__WB_3
 10
0.0056
 20
-13.7494
 30
0
 70
     0
  0
VERTEX
  8
VOLVO_FM10__WB_3
 10
0.2454
 20
-13.7525
 30
0
 70
     0
  0
VERTEX
  8
VOLVO_FM10__WB_3
 10
0.4837
 20
-13.7617
 30
0
 70
     0
  0
VERTEX
  8
VOLVO_FM10__WB_3
 10
0.7206
 20
-13.7769
 30
0
 70
     0
  0
VERTEX
  8
VOLVO_FM10__WB_3
 10
0.9559
 20
-13.798
 30
0
 70
     0
  0
VERTEX
  8
VOLVO_FM10__WB_3
 10
1.1896
 20
-13.8251
 30
0
 70
     0
  0
VERTEX
  8
VOLVO_FM10__WB_3
 10
1.4216
 20
-13.858
 30
0
 70
     0
  0
VERTEX
  8
VOLVO_FM10__WB_3
 10
1.6518
 20
-13.8965
 30
0
 70
     0
  0
VERTEX
  8
VOLVO_FM10__WB_3
 10
1.8801
 20
-13.9408
 30
0
 70
     0
  0
VERTEX
  8
VOLVO_FM10__WB_3
 10
2.1065
 20
-13.9906
 30
0
 70
     0
  0
VERTEX
  8
VOLVO_FM10__WB_3
 10
2.3309
 20
-14.0459
 30
0
 70
     0
  0
VERTEX
  8
VOLVO_FM10__WB_3
 10
2.5531
 20
-14.1066
 30
0
 70
     0
  0
VERTEX
  8
VOLVO_FM10__WB_3
 10
2.7733
 20
-14.1727
 30
0
 70
     0
  0
VERTEX
  8
VOLVO_FM10__WB_3
 10
2.9911
 20
-14.2441
 30
0
 70
     0
  0
VERTEX
  8
VOLVO_FM10__WB_3
 10
3.2067
 20
-14.3207
 30
0
 70
     0
  0
VERTEX
  8
VOLVO_FM10__WB_3
 10
3.4199
 20
-14.4023
 30
0
 70
     0
  0
VERTEX
  8
VOLVO_FM10__WB_3
 10
3.6306
 20
-14.4891
 30
0
 70
     0
  0
VERTEX
  8
VOLVO_FM10__WB_3
 10
4.0443
 20
-14.6773
 30
0
 70
     0
  0
VERTEX
  8
VOLVO_FM10__WB_3
 10
4.4472
 20
-14.8849
 30
0
 70
     0
  0
VERTEX
  8
VOLVO_FM10__WB_3
 10
4.8387
 20
-15.1111
 30
0
 70
     0
  0
VERTEX
  8
VOLVO_FM10__WB_3
 10
5.2183
 20
-15.3554
 30
0
 70
     0
  0
VERTEX
  8
VOLVO_FM10__WB_3
 10
5.5852
 20
-15.6172
 30
0
 70
     0
  0
VERTEX
  8
VOLVO_FM10__WB_3
 10
5.9389
 20
-15.8957
 30
0
 70
     0
  0
VERTEX
  8
VOLVO_FM10__WB_3
 10
6.2788
 20
-16.1906
 30
0
 70
     0
  0
VERTEX
  8
VOLVO_FM10__WB_3
 10
6.6043
 20
-16.501
 30
0
 70
     0
  0
VERTEX
  8
VOLVO_FM10__WB_3
 10
6.9148
 20
-16.8265
 30
0
 70
     0
  0
VERTEX
  8
VOLVO_FM10__WB_3
 10
7.2096
 20
-17.1664
 30
0
 70
     0
  0
VERTEX
  8
VOLVO_FM10__WB_3
 10
7.4882
 20
-17.5202
 30
0
 70
     0
  0
VERTEX
  8
VOLVO_FM10__WB_3
 10
7.75
 20
-17.8871
 30
0
 70
     0
  0
VERTEX
  8
VOLVO_FM10__WB_3
 10
7.9942
 20
-18.2666
 30
0
 70
     0
  0
VERTEX
  8
VOLVO_FM10__WB_3
 10
8.2205
 20
-18.6582
 30
0
 70
     0
  0
VERTEX
  8
VOLVO_FM10__WB_3
 10
8.428
 20
-19.0611
 30
0
 70
     0
  0
VERTEX
  8
VOLVO_FM10__WB_3
 10
8.6163
 20
-19.4748
 30
0
 70
     0
  0
VERTEX
  8
VOLVO_FM10__WB_3
 10
8.703
 20
-19.6855
 30
0
 70
     0
  0
VERTEX
  8
VOLVO_FM10__WB_3
 10
8.7847
 20
-19.8987
 30
0
 70
     0
  0
VERTEX
  8
VOLVO_FM10__WB_3
 10
8.8613
 20
-20.1142
 30
0
 70
     0
  0
VERTEX
  8
VOLVO_FM10__WB_3
 10
8.9326
 20
-20.3321
 30
0
 70
     0
  0
VERTEX
  8
VOLVO_FM10__WB_3
 10
8.9987
 20
-20.5522
 30
0
 70
     0
  0
VERTEX
  8
VOLVO_FM10__WB_3
 10
9.0595
 20
-20.7745
 30
0
 70
     0
  0
VERTEX
  8
VOLVO_FM10__WB_3
 10
9.1148
 20
-20.9989
 30
0
 70
     0
  0
VERTEX
  8
VOLVO_FM10__WB_3
 10
9.1646
 20
-21.2253
 30
0
 70
     0
  0
VERTEX
  8
VOLVO_FM10__WB_3
 10
9.2088
 20
-21.4536
 30
0
 70
     0
  0
VERTEX
  8
VOLVO_FM10__WB_3
 10
9.2474
 20
-21.6838
 30
0
 70
     0
  0
VERTEX
  8
VOLVO_FM10__WB_3
 10
9.2803
 20
-21.9158
 30
0
 70
     0
  0
VERTEX
  8
VOLVO_FM10__WB_3
 10
9.3073
 20
-22.1495
 30
0
 70
     0
  0
VERTEX
  8
VOLVO_FM10__WB_3
 10
9.3285
 20
-22.3848
 30
0
 70
     0
  0
VERTEX
  8
VOLVO_FM10__WB_3
 10
9.3437
 20
-22.6217
 30
0
 70
     0
  0
VERTEX
  8
VOLVO_FM10__WB_3
 10
9.3529
 20
-22.86
 30
0
 70
     0
  0
VERTEX
  8
VOLVO_FM10__WB_3
 10
9.356
 20
-23.0998
 30
0
 70
     0
  0
VERTEX
  8
VOLVO_FM10__WB_3
 10
9.356
 20
-23.0998
 30
0
 70
     0
  0
VERTEX
  8
VOLVO_FM10__WB_3
 10
9.3529
 20
-23.3395
 30
0
 70
     0
  0
VERTEX
  8
VOLVO_FM10__WB_3
 10
9.3437
 20
-23.5779
 30
0
 70
     0
  0
VERTEX
  8
VOLVO_FM10__WB_3
 10
9.3285
 20
-23.8148
 30
0
 70
     0
  0
VERTEX
  8
VOLVO_FM10__WB_3
 10
9.3073
 20
-24.0501
 30
0
 70
     0
  0
VERTEX
  8
VOLVO_FM10__WB_3
 10
9.2803
 20
-24.2838
 30
0
 70
     0
  0
VERTEX
  8
VOLVO_FM10__WB_3
 10
9.2474
 20
-24.5158
 30
0
 70
     0
  0
VERTEX
  8
VOLVO_FM10__WB_3
 10
9.2088
 20
-24.746
 30
0
 70
     0
  0
VERTEX
  8
VOLVO_FM10__WB_3
 10
9.1646
 20
-24.9743
 30
0
 70
     0
  0
VERTEX
  8
VOLVO_FM10__WB_3
 10
9.1148
 20
-25.2007
 30
0
 70
     0
  0
VERTEX
  8
VOLVO_FM10__WB_3
 10
9.0595
 20
-25.425
 30
0
 70
     0
  0
VERTEX
  8
VOLVO_FM10__WB_3
 10
8.9987
 20
-25.6473
 30
0
 70
     0
  0
VERTEX
  8
VOLVO_FM10__WB_3
 10
8.9326
 20
-25.8675
 30
0
 70
     0
  0
VERTEX
  8
VOLVO_FM10__WB_3
 10
8.8613
 20
-26.0853
 30
0
 70
     0
  0
VERTEX
  8
VOLVO_FM10__WB_3
 10
8.7847
 20
-26.3009
 30
0
 70
     0
  0
VERTEX
  8
VOLVO_FM10__WB_3
 10
8.703
 20
-26.5141
 30
0
 70
     0
  0
VERTEX
  8
VOLVO_FM10__WB_3
 10
8.6163
 20
-26.7248
 30
0
 70
     0
  0
VERTEX
  8
VOLVO_FM10__WB_3
 10
8.428
 20
-27.1385
 30
0
 70
     0
  0
VERTEX
  8
VOLVO_FM10__WB_3
 10
8.2205
 20
-27.5414
 30
0
 70
     0
  0
VERTEX
  8
VOLVO_FM10__WB_3
 10
7.9942
 20
-27.9329
 30
0
 70
     0
  0
VERTEX
  8
VOLVO_FM10__WB_3
 10
7.75
 20
-28.3125
 30
0
 70
     0
  0
VERTEX
  8
VOLVO_FM10__WB_3
 10
7.4882
 20
-28.6794
 30
0
 70
     0
  0
VERTEX
  8
VOLVO_FM10__WB_3
 10
7.2096
 20
-29.0331
 30
0
 70
     0
  0
VERTEX
  8
VOLVO_FM10__WB_3
 10
6.9148
 20
-29.373
 30
0
 70
     0
  0
VERTEX
  8
VOLVO_FM10__WB_3
 10
6.6043
 20
-29.6985
 30
0
 70
     0
  0
VERTEX
  8
VOLVO_FM10__WB_3
 10
6.2788
 20
-30.009
 30
0
 70
     0
  0
VERTEX
  8
VOLVO_FM10__WB_3
 10
5.9389
 20
-30.3038
 30
0
 70
     0
  0
VERTEX
  8
VOLVO_FM10__WB_3
 10
5.5852
 20
-30.5824
 30
0
 70
     0
  0
VERTEX
  8
VOLVO_FM10__WB_3
 10
5.2183
 20
-30.8442
 30
0
 70
     0
  0
VERTEX
  8
VOLVO_FM10__WB_3
 10
4.8387
 20
-31.0884
 30
0
 70
     0
  0
VERTEX
  8
VOLVO_FM10__WB_3
 10
4.4472
 20
-31.3147
 30
0
 70
     0
  0
VERTEX
  8
VOLVO_FM10__WB_3
 10
4.0443
 20
-31.5222
 30
0
 70
     0
  0
VERTEX
  8
VOLVO_FM10__WB_3
 10
3.6306
 20
-31.7105
 30
0
 70
     0
  0
VERTEX
  8
VOLVO_FM10__WB_3
 10
3.4199
 20
-31.7972
 30
0
 70
     0
  0
VERTEX
  8
VOLVO_FM10__WB_3
 10
3.2067
 20
-31.8789
 30
0
 70
     0
  0
VERTEX
  8
VOLVO_FM10__WB_3
 10
2.9911
 20
-31.9555
 30
0
 70
     0
  0
VERTEX
  8
VOLVO_FM10__WB_3
 10
2.7733
 20
-32.0268
 30
0
 70
     0
  0
VERTEX
  8
VOLVO_FM10__WB_3
 10
2.5531
 20
-32.0929
 30
0
 70
     0
  0
VERTEX
  8
VOLVO_FM10__WB_3
 10
2.3309
 20
-32.1537
 30
0
 70
     0
  0
VERTEX
  8
VOLVO_FM10__WB_3
 10
2.1065
 20
-32.209
 30
0
 70
     0
  0
VERTEX
  8
VOLVO_FM10__WB_3
 10
1.8801
 20
-32.2588
 30
0
 70
     0
  0
VERTEX
  8
VOLVO_FM10__WB_3
 10
1.6518
 20
-32.303
 30
0
 70
     0
  0
VERTEX
  8
VOLVO_FM10__WB_3
 10
1.4216
 20
-32.3416
 30
0
 70
     0
  0
VERTEX
  8
VOLVO_FM10__WB_3
 10
1.1896
 20
-32.3745
 30
0
 70
     0
  0
VERTEX
  8
VOLVO_FM10__WB_3
 10
0.9559
 20
-32.4015
 30
0
 70
     0
  0
VERTEX
  8
VOLVO_FM10__WB_3
 10
0.7206
 20
-32.4227
 30
0
 70
     0
  0
VERTEX
  8
VOLVO_FM10__WB_3
 10
0.4837
 20
-32.4379
 30
0
 70
     0
  0
VERTEX
  8
VOLVO_FM10__WB_3
 10
0.2454
 20
-32.4471
 30
0
 70
     0
  0
VERTEX
  8
VOLVO_FM10__WB_3
 10
0.0056
 20
-32.4502
 30
0
 70
     0
  0
VERTEX
  8
VOLVO_FM10__WB_3
 10
0.0056
 20
-32.4502
 30
0
 70
     0
  0
VERTEX
  8
VOLVO_FM10__WB_3
 10
-0.2342
 20
-32.4471
 30
0
 70
     0
  0
VERTEX
  8
VOLVO_FM10__WB_3
 10
-0.4725
 20
-32.4379
 30
0
 70
     0
  0
VERTEX
  8
VOLVO_FM10__WB_3
 10
-0.7094
 20
-32.4227
 30
0
 70
     0
  0
VERTEX
  8
VOLVO_FM10__WB_3
 10
-0.9447
 20
-32.4015
 30
0
 70
     0
  0
VERTEX
  8
VOLVO_FM10__WB_3
 10
-1.1784
 20
-32.3745
 30
0
 70
     0
  0
VERTEX
  8
VOLVO_FM10__WB_3
 10
-1.4104
 20
-32.3416
 30
0
 70
     0
  0
VERTEX
  8
VOLVO_FM10__WB_3
 10
-1.6406
 20
-32.303
 30
0
 70
     0
  0
VERTEX
  8
VOLVO_FM10__WB_3
 10
-1.8689
 20
-32.2588
 30
0
 70
     0
  0
VERTEX
  8
VOLVO_FM10__WB_3
 10
-2.0953
 20
-32.209
 30
0
 70
     0
  0
VERTEX
  8
VOLVO_FM10__WB_3
 10
-2.3197
 20
-32.1537
 30
0
 70
     0
  0
VERTEX
  8
VOLVO_FM10__WB_3
 10
-2.542
 20
-32.0929
 30
0
 70
     0
  0
VERTEX
  8
VOLVO_FM10__WB_3
 10
-2.7621
 20
-32.0268
 30
0
 70
     0
  0
VERTEX
  8
VOLVO_FM10__WB_3
 10
-2.98
 20
-31.9555
 30
0
 70
     0
  0
VERTEX
  8
VOLVO_FM10__WB_3
 10
-3.1955
 20
-31.8789
 30
0
 70
     0
  0
VERTEX
  8
VOLVO_FM10__WB_3
 10
-3.4087
 20
-31.7972
 30
0
 70
     0
  0
VERTEX
  8
VOLVO_FM10__WB_3
 10
-3.6194
 20
-31.7105
 30
0
 70
     0
  0
VERTEX
  8
VOLVO_FM10__WB_3
 10
-4.0331
 20
-31.5222
 30
0
 70
     0
  0
VERTEX
  8
VOLVO_FM10__WB_3
 10
-4.436
 20
-31.3147
 30
0
 70
     0
  0
VERTEX
  8
VOLVO_FM10__WB_3
 10
-4.8276
 20
-31.0884
 30
0
 70
     0
  0
VERTEX
  8
VOLVO_FM10__WB_3
 10
-5.2071
 20
-30.8442
 30
0
 70
     0
  0
VERTEX
  8
VOLVO_FM10__WB_3
 10
-5.574
 20
-30.5824
 30
0
 70
     0
  0
VERTEX
  8
VOLVO_FM10__WB_3
 10
-5.9278
 20
-30.3038
 30
0
 70
     0
  0
VERTEX
  8
VOLVO_FM10__WB_3
 10
-6.2677
 20
-30.009
 30
0
 70
     0
  0
VERTEX
  8
VOLVO_FM10__WB_3
 10
-6.5932
 20
-29.6985
 30
0
 70
     0
  0
VERTEX
  8
VOLVO_FM10__WB_3
 10
-6.9036
 20
-29.373
 30
0
 70
     0
  0
VERTEX
  8
VOLVO_FM10__WB_3
 10
-7.1985
 20
-29.0331
 30
0
 70
     0
  0
VERTEX
  8
VOLVO_FM10__WB_3
 10
-7.477
 20
-28.6794
 30
0
 70
     0
  0
VERTEX
  8
VOLVO_FM10__WB_3
 10
-7.7388
 20
-28.3125
 30
0
 70
     0
  0
VERTEX
  8
VOLVO_FM10__WB_3
 10
-7.9831
 20
-27.9329
 30
0
 70
     0
  0
VERTEX
  8
VOLVO_FM10__WB_3
 10
-8.2093
 20
-27.5414
 30
0
 70
     0
  0
VERTEX
  8
VOLVO_FM10__WB_3
 10
-8.4169
 20
-27.1385
 30
0
 70
     0
  0
VERTEX
  8
VOLVO_FM10__WB_3
 10
-8.6051
 20
-26.7248
 30
0
 70
     0
  0
VERTEX
  8
VOLVO_FM10__WB_3
 10
-8.6919
 20
-26.5141
 30
0
 70
     0
  0
VERTEX
  8
VOLVO_FM10__WB_3
 10
-8.7735
 20
-26.3009
 30
0
 70
     0
  0
VERTEX
  8
VOLVO_FM10__WB_3
 10
-8.8501
 20
-26.0853
 30
0
 70
     0
  0
VERTEX
  8
VOLVO_FM10__WB_3
 10
-8.9215
 20
-25.8675
 30
0
 70
     0
  0
VERTEX
  8
VOLVO_FM10__WB_3
 10
-8.9876
 20
-25.6473
 30
0
 70
     0
  0
VERTEX
  8
VOLVO_FM10__WB_3
 10
-9.0483
 20
-25.425
 30
0
 70
     0
  0
VERTEX
  8
VOLVO_FM10__WB_3
 10
-9.1036
 20
-25.2007
 30
0
 70
     0
  0
VERTEX
  8
VOLVO_FM10__WB_3
 10
-9.1534
 20
-24.9743
 30
0
 70
     0
  0
VERTEX
  8
VOLVO_FM10__WB_3
 10
-9.1977
 20
-24.746
 30
0
 70
     0
  0
VERTEX
  8
VOLVO_FM10__WB_3
 10
-9.2362
 20
-24.5158
 30
0
 70
     0
  0
VERTEX
  8
VOLVO_FM10__WB_3
 10
-9.2691
 20
-24.2838
 30
0
 70
     0
  0
VERTEX
  8
VOLVO_FM10__WB_3
 10
-9.2961
 20
-24.0501
 30
0
 70
     0
  0
VERTEX
  8
VOLVO_FM10__WB_3
 10
-9.3173
 20
-23.8148
 30
0
 70
     0
  0
VERTEX
  8
VOLVO_FM10__WB_3
 10
-9.3325
 20
-23.5779
 30
0
 70
     0
  0
VERTEX
  8
VOLVO_FM10__WB_3
 10
-9.3417
 20
-23.3395
 30
0
 70
     0
  0
VERTEX
  8
VOLVO_FM10__WB_3
 10
-9.3448
 20
-23.0998
 30
0
 70
     0
  0
SEQEND
  0
POLYLINE
  8
VOLVO_FM10__WB_3
  6
CONTINUOUS
 62
     7
 66
     1
 40
0.0139
 41
0.0139
  0
VERTEX
  8
VOLVO_FM10__WB_3
 10
-11.2444
 20
-23.0998
 30
0
 70
     0
  0
VERTEX
  8
VOLVO_FM10__WB_3
 10
-11.2407
 20
-22.8113
 30
0
 70
     0
  0
VERTEX
  8
VOLVO_FM10__WB_3
 10
-11.2297
 20
-22.5245
 30
0
 70
     0
  0
VERTEX
  8
VOLVO_FM10__WB_3
 10
-11.2113
 20
-22.2395
 30
0
 70
     0
  0
VERTEX
  8
VOLVO_FM10__WB_3
 10
-11.1859
 20
-21.9564
 30
0
 70
     0
  0
VERTEX
  8
VOLVO_FM10__WB_3
 10
-11.1533
 20
-21.6752
 30
0
 70
     0
  0
VERTEX
  8
VOLVO_FM10__WB_3
 10
-11.1138
 20
-21.3961
 30
0
 70
     0
  0
VERTEX
  8
VOLVO_FM10__WB_3
 10
-11.0674
 20
-21.1192
 30
0
 70
     0
  0
VERTEX
  8
VOLVO_FM10__WB_3
 10
-11.0141
 20
-20.8445
 30
0
 70
     0
  0
VERTEX
  8
VOLVO_FM10__WB_3
 10
-10.9542
 20
-20.5721
 30
0
 70
     0
  0
VERTEX
  8
VOLVO_FM10__WB_3
 10
-10.8877
 20
-20.3021
 30
0
 70
     0
  0
VERTEX
  8
VOLVO_FM10__WB_3
 10
-10.8146
 20
-20.0347
 30
0
 70
     0
  0
VERTEX
  8
VOLVO_FM10__WB_3
 10
-10.7351
 20
-19.7698
 30
0
 70
     0
  0
VERTEX
  8
VOLVO_FM10__WB_3
 10
-10.6492
 20
-19.5077
 30
0
 70
     0
  0
VERTEX
  8
VOLVO_FM10__WB_3
 10
-10.5571
 20
-19.2483
 30
0
 70
     0
  0
VERTEX
  8
VOLVO_FM10__WB_3
 10
-10.4588
 20
-18.9919
 30
0
 70
     0
  0
VERTEX
  8
VOLVO_FM10__WB_3
 10
-10.3545
 20
-18.7383
 30
0
 70
     0
  0
VERTEX
  8
VOLVO_FM10__WB_3
 10
-10.2441
 20
-18.4879
 30
0
 70
     0
  0
VERTEX
  8
VOLVO_FM10__WB_3
 10
-10.1279
 20
-18.2406
 30
0
 70
     0
  0
VERTEX
  8
VOLVO_FM10__WB_3
 10
-10.0059
 20
-17.9965
 30
0
 70
     0
  0
VERTEX
  8
VOLVO_FM10__WB_3
 10
-9.8782
 20
-17.7558
 30
0
 70
     0
  0
VERTEX
  8
VOLVO_FM10__WB_3
 10
-9.7449
 20
-17.5185
 30
0
 70
     0
  0
VERTEX
  8
VOLVO_FM10__WB_3
 10
-9.606
 20
-17.2847
 30
0
 70
     0
  0
VERTEX
  8
VOLVO_FM10__WB_3
 10
-9.4617
 20
-17.0546
 30
0
 70
     0
  0
VERTEX
  8
VOLVO_FM10__WB_3
 10
-9.3121
 20
-16.8281
 30
0
 70
     0
  0
VERTEX
  8
VOLVO_FM10__WB_3
 10
-9.1572
 20
-16.6054
 30
0
 70
     0
  0
VERTEX
  8
VOLVO_FM10__WB_3
 10
-8.9972
 20
-16.3866
 30
0
 70
     0
  0
VERTEX
  8
VOLVO_FM10__WB_3
 10
-8.8321
 20
-16.1718
 30
0
 70
     0
  0
VERTEX
  8
VOLVO_FM10__WB_3
 10
-8.662
 20
-15.961
 30
0
 70
     0
  0
VERTEX
  8
VOLVO_FM10__WB_3
 10
-8.3073
 20
-15.5521
 30
0
 70
     0
  0
VERTEX
  8
VOLVO_FM10__WB_3
 10
-7.9337
 20
-15.1604
 30
0
 70
     0
  0
VERTEX
  8
VOLVO_FM10__WB_3
 10
-7.5421
 20
-14.7869
 30
0
 70
     0
  0
VERTEX
  8
VOLVO_FM10__WB_3
 10
-7.1332
 20
-14.4322
 30
0
 70
     0
  0
VERTEX
  8
VOLVO_FM10__WB_3
 10
-6.9224
 20
-14.2621
 30
0
 70
     0
  0
VERTEX
  8
VOLVO_FM10__WB_3
 10
-6.7076
 20
-14.097
 30
0
 70
     0
  0
VERTEX
  8
VOLVO_FM10__WB_3
 10
-6.4888
 20
-13.937
 30
0
 70
     0
  0
VERTEX
  8
VOLVO_FM10__WB_3
 10
-6.2661
 20
-13.7821
 30
0
 70
     0
  0
VERTEX
  8
VOLVO_FM10__WB_3
 10
-6.0396
 20
-13.6325
 30
0
 70
     0
  0
VERTEX
  8
VOLVO_FM10__WB_3
 10
-5.8095
 20
-13.4882
 30
0
 70
     0
  0
VERTEX
  8
VOLVO_FM10__WB_3
 10
-5.5757
 20
-13.3493
 30
0
 70
     0
  0
VERTEX
  8
VOLVO_FM10__WB_3
 10
-5.3384
 20
-13.216
 30
0
 70
     0
  0
VERTEX
  8
VOLVO_FM10__WB_3
 10
-5.0977
 20
-13.0883
 30
0
 70
     0
  0
VERTEX
  8
VOLVO_FM10__WB_3
 10
-4.8536
 20
-12.9663
 30
0
 70
     0
  0
VERTEX
  8
VOLVO_FM10__WB_3
 10
-4.6063
 20
-12.85
 30
0
 70
     0
  0
VERTEX
  8
VOLVO_FM10__WB_3
 10
-4.3559
 20
-12.7397
 30
0
 70
     0
  0
VERTEX
  8
VOLVO_FM10__WB_3
 10
-4.1023
 20
-12.6354
 30
0
 70
     0
  0
VERTEX
  8
VOLVO_FM10__WB_3
 10
-3.8459
 20
-12.5371
 30
0
 70
     0
  0
VERTEX
  8
VOLVO_FM10__WB_3
 10
-3.5865
 20
-12.445
 30
0
 70
     0
  0
VERTEX
  8
VOLVO_FM10__WB_3
 10
-3.3244
 20
-12.3591
 30
0
 70
     0
  0
VERTEX
  8
VOLVO_FM10__WB_3
 10
-3.0595
 20
-12.2796
 30
0
 70
     0
  0
VERTEX
  8
VOLVO_FM10__WB_3
 10
-2.7921
 20
-12.2065
 30
0
 70
     0
  0
VERTEX
  8
VOLVO_FM10__WB_3
 10
-2.5221
 20
-12.14
 30
0
 70
     0
  0
VERTEX
  8
VOLVO_FM10__WB_3
 10
-2.2497
 20
-12.0801
 30
0
 70
     0
  0
VERTEX
  8
VOLVO_FM10__WB_3
 10
-1.975
 20
-12.0268
 30
0
 70
     0
  0
VERTEX
  8
VOLVO_FM10__WB_3
 10
-1.6981
 20
-11.9804
 30
0
 70
     0
  0
VERTEX
  8
VOLVO_FM10__WB_3
 10
-1.419
 20
-11.9409
 30
0
 70
     0
  0
VERTEX
  8
VOLVO_FM10__WB_3
 10
-1.1378
 20
-11.9083
 30
0
 70
     0
  0
VERTEX
  8
VOLVO_FM10__WB_3
 10
-0.8547
 20
-11.8828
 30
0
 70
     0
  0
VERTEX
  8
VOLVO_FM10__WB_3
 10
-0.5697
 20
-11.8645
 30
0
 70
     0
  0
VERTEX
  8
VOLVO_FM10__WB_3
 10
-0.2829
 20
-11.8535
 30
0
 70
     0
  0
VERTEX
  8
VOLVO_FM10__WB_3
 10
0.0056
 20
-11.8498
 30
0
 70
     0
  0
VERTEX
  8
VOLVO_FM10__WB_3
 10
0.0056
 20
-11.8498
 30
0
 70
     0
  0
VERTEX
  8
VOLVO_FM10__WB_3
 10
0.2941
 20
-11.8535
 30
0
 70
     0
  0
VERTEX
  8
VOLVO_FM10__WB_3
 10
0.5808
 20
-11.8645
 30
0
 70
     0
  0
VERTEX
  8
VOLVO_FM10__WB_3
 10
0.8659
 20
-11.8828
 30
0
 70
     0
  0
VERTEX
  8
VOLVO_FM10__WB_3
 10
1.149
 20
-11.9083
 30
0
 70
     0
  0
VERTEX
  8
VOLVO_FM10__WB_3
 10
1.4301
 20
-11.9409
 30
0
 70
     0
  0
VERTEX
  8
VOLVO_FM10__WB_3
 10
1.7092
 20
-11.9804
 30
0
 70
     0
  0
VERTEX
  8
VOLVO_FM10__WB_3
 10
1.9862
 20
-12.0268
 30
0
 70
     0
  0
VERTEX
  8
VOLVO_FM10__WB_3
 10
2.2609
 20
-12.0801
 30
0
 70
     0
  0
VERTEX
  8
VOLVO_FM10__WB_3
 10
2.5333
 20
-12.14
 30
0
 70
     0
  0
VERTEX
  8
VOLVO_FM10__WB_3
 10
2.8032
 20
-12.2065
 30
0
 70
     0
  0
VERTEX
  8
VOLVO_FM10__WB_3
 10
3.0707
 20
-12.2796
 30
0
 70
     0
  0
VERTEX
  8
VOLVO_FM10__WB_3
 10
3.3355
 20
-12.3591
 30
0
 70
     0
  0
VERTEX
  8
VOLVO_FM10__WB_3
 10
3.5977
 20
-12.445
 30
0
 70
     0
  0
VERTEX
  8
VOLVO_FM10__WB_3
 10
3.857
 20
-12.5371
 30
0
 70
     0
  0
VERTEX
  8
VOLVO_FM10__WB_3
 10
4.1135
 20
-12.6354
 30
0
 70
     0
  0
VERTEX
  8
VOLVO_FM10__WB_3
 10
4.367
 20
-12.7397
 30
0
 70
     0
  0
VERTEX
  8
VOLVO_FM10__WB_3
 10
4.6175
 20
-12.85
 30
0
 70
     0
  0
VERTEX
  8
VOLVO_FM10__WB_3
 10
4.8648
 20
-12.9663
 30
0
 70
     0
  0
VERTEX
  8
VOLVO_FM10__WB_3
 10
5.1088
 20
-13.0883
 30
0
 70
     0
  0
VERTEX
  8
VOLVO_FM10__WB_3
 10
5.3496
 20
-13.216
 30
0
 70
     0
  0
VERTEX
  8
VOLVO_FM10__WB_3
 10
5.5869
 20
-13.3493
 30
0
 70
     0
  0
VERTEX
  8
VOLVO_FM10__WB_3
 10
5.8206
 20
-13.4882
 30
0
 70
     0
  0
VERTEX
  8
VOLVO_FM10__WB_3
 10
6.0508
 20
-13.6325
 30
0
 70
     0
  0
VERTEX
  8
VOLVO_FM10__WB_3
 10
6.2773
 20
-13.7821
 30
0
 70
     0
  0
VERTEX
  8
VOLVO_FM10__WB_3
 10
6.5
 20
-13.937
 30
0
 70
     0
  0
VERTEX
  8
VOLVO_FM10__WB_3
 10
6.7188
 20
-14.097
 30
0
 70
     0
  0
VERTEX
  8
VOLVO_FM10__WB_3
 10
6.9336
 20
-14.2621
 30
0
 70
     0
  0
VERTEX
  8
VOLVO_FM10__WB_3
 10
7.1443
 20
-14.4322
 30
0
 70
     0
  0
VERTEX
  8
VOLVO_FM10__WB_3
 10
7.5533
 20
-14.7869
 30
0
 70
     0
  0
VERTEX
  8
VOLVO_FM10__WB_3
 10
7.9449
 20
-15.1604
 30
0
 70
     0
  0
VERTEX
  8
VOLVO_FM10__WB_3
 10
8.3185
 20
-15.5521
 30
0
 70
     0
  0
VERTEX
  8
VOLVO_FM10__WB_3
 10
8.6732
 20
-15.961
 30
0
 70
     0
  0
VERTEX
  8
VOLVO_FM10__WB_3
 10
8.8433
 20
-16.1718
 30
0
 70
     0
  0
VERTEX
  8
VOLVO_FM10__WB_3
 10
9.0084
 20
-16.3866
 30
0
 70
     0
  0
VERTEX
  8
VOLVO_FM10__WB_3
 10
9.1684
 20
-16.6054
 30
0
 70
     0
  0
VERTEX
  8
VOLVO_FM10__WB_3
 10
9.3233
 20
-16.8281
 30
0
 70
     0
  0
VERTEX
  8
VOLVO_FM10__WB_3
 10
9.4729
 20
-17.0546
 30
0
 70
     0
  0
VERTEX
  8
VOLVO_FM10__WB_3
 10
9.6172
 20
-17.2847
 30
0
 70
     0
  0
VERTEX
  8
VOLVO_FM10__WB_3
 10
9.7561
 20
-17.5185
 30
0
 70
     0
  0
VERTEX
  8
VOLVO_FM10__WB_3
 10
9.8894
 20
-17.7558
 30
0
 70
     0
  0
VERTEX
  8
VOLVO_FM10__WB_3
 10
10.0171
 20
-17.9965
 30
0
 70
     0
  0
VERTEX
  8
VOLVO_FM10__WB_3
 10
10.1391
 20
-18.2406
 30
0
 70
     0
  0
VERTEX
  8
VOLVO_FM10__WB_3
 10
10.2553
 20
-18.4879
 30
0
 70
     0
  0
VERTEX
  8
VOLVO_FM10__WB_3
 10
10.3657
 20
-18.7383
 30
0
 70
     0
  0
VERTEX
  8
VOLVO_FM10__WB_3
 10
10.47
 20
-18.9919
 30
0
 70
     0
  0
VERTEX
  8
VOLVO_FM10__WB_3
 10
10.5683
 20
-19.2483
 30
0
 70
     0
  0
VERTEX
  8
VOLVO_FM10__WB_3
 10
10.6604
 20
-19.5077
 30
0
 70
     0
  0
VERTEX
  8
VOLVO_FM10__WB_3
 10
10.7462
 20
-19.7698
 30
0
 70
     0
  0
VERTEX
  8
VOLVO_FM10__WB_3
 10
10.8258
 20
-20.0347
 30
0
 70
     0
  0
VERTEX
  8
VOLVO_FM10__WB_3
 10
10.8988
 20
-20.3021
 30
0
 70
     0
  0
VERTEX
  8
VOLVO_FM10__WB_3
 10
10.9654
 20
-20.5721
 30
0
 70
     0
  0
VERTEX
  8
VOLVO_FM10__WB_3
 10
11.0253
 20
-20.8445
 30
0
 70
     0
  0
VERTEX
  8
VOLVO_FM10__WB_3
 10
11.0785
 20
-21.1192
 30
0
 70
     0
  0
VERTEX
  8
VOLVO_FM10__WB_3
 10
11.125
 20
-21.3961
 30
0
 70
     0
  0
VERTEX
  8
VOLVO_FM10__WB_3
 10
11.1645
 20
-21.6752
 30
0
 70
     0
  0
VERTEX
  8
VOLVO_FM10__WB_3
 10
11.197
 20
-21.9564
 30
0
 70
     0
  0
VERTEX
  8
VOLVO_FM10__WB_3
 10
11.2225
 20
-22.2395
 30
0
 70
     0
  0
VERTEX
  8
VOLVO_FM10__WB_3
 10
11.2408
 20
-22.5245
 30
0
 70
     0
  0
VERTEX
  8
VOLVO_FM10__WB_3
 10
11.2519
 20
-22.8113
 30
0
 70
     0
  0
VERTEX
  8
VOLVO_FM10__WB_3
 10
11.2556
 20
-23.0998
 30
0
 70
     0
  0
VERTEX
  8
VOLVO_FM10__WB_3
 10
11.2556
 20
-23.0998
 30
0
 70
     0
  0
VERTEX
  8
VOLVO_FM10__WB_3
 10
11.2519
 20
-23.3883
 30
0
 70
     0
  0
VERTEX
  8
VOLVO_FM10__WB_3
 10
11.2408
 20
-23.675
 30
0
 70
     0
  0
VERTEX
  8
VOLVO_FM10__WB_3
 10
11.2225
 20
-23.96
 30
0
 70
     0
  0
VERTEX
  8
VOLVO_FM10__WB_3
 10
11.197
 20
-24.2432
 30
0
 70
     0
  0
VERTEX
  8
VOLVO_FM10__WB_3
 10
11.1645
 20
-24.5243
 30
0
 70
     0
  0
VERTEX
  8
VOLVO_FM10__WB_3
 10
11.125
 20
-24.8034
 30
0
 70
     0
  0
VERTEX
  8
VOLVO_FM10__WB_3
 10
11.0785
 20
-25.0804
 30
0
 70
     0
  0
VERTEX
  8
VOLVO_FM10__WB_3
 10
11.0253
 20
-25.3551
 30
0
 70
     0
  0
VERTEX
  8
VOLVO_FM10__WB_3
 10
10.9654
 20
-25.6275
 30
0
 70
     0
  0
VERTEX
  8
VOLVO_FM10__WB_3
 10
10.8988
 20
-25.8974
 30
0
 70
     0
  0
VERTEX
  8
VOLVO_FM10__WB_3
 10
10.8258
 20
-26.1649
 30
0
 70
     0
  0
VERTEX
  8
VOLVO_FM10__WB_3
 10
10.7462
 20
-26.4297
 30
0
 70
     0
  0
VERTEX
  8
VOLVO_FM10__WB_3
 10
10.6604
 20
-26.6919
 30
0
 70
     0
  0
VERTEX
  8
VOLVO_FM10__WB_3
 10
10.5683
 20
-26.9512
 30
0
 70
     0
  0
VERTEX
  8
VOLVO_FM10__WB_3
 10
10.47
 20
-27.2077
 30
0
 70
     0
  0
VERTEX
  8
VOLVO_FM10__WB_3
 10
10.3657
 20
-27.4612
 30
0
 70
     0
  0
VERTEX
  8
VOLVO_FM10__WB_3
 10
10.2553
 20
-27.7117
 30
0
 70
     0
  0
VERTEX
  8
VOLVO_FM10__WB_3
 10
10.1391
 20
-27.959
 30
0
 70
     0
  0
VERTEX
  8
VOLVO_FM10__WB_3
 10
10.0171
 20
-28.203
 30
0
 70
     0
  0
VERTEX
  8
VOLVO_FM10__WB_3
 10
9.8894
 20
-28.4438
 30
0
 70
     0
  0
VERTEX
  8
VOLVO_FM10__WB_3
 10
9.7561
 20
-28.681
 30
0
 70
     0
  0
VERTEX
  8
VOLVO_FM10__WB_3
 10
9.6172
 20
-28.9148
 30
0
 70
     0
  0
VERTEX
  8
VOLVO_FM10__WB_3
 10
9.4729
 20
-29.145
 30
0
 70
     0
  0
VERTEX
  8
VOLVO_FM10__WB_3
 10
9.3233
 20
-29.3715
 30
0
 70
     0
  0
VERTEX
  8
VOLVO_FM10__WB_3
 10
9.1684
 20
-29.5941
 30
0
 70
     0
  0
VERTEX
  8
VOLVO_FM10__WB_3
 10
9.0084
 20
-29.8129
 30
0
 70
     0
  0
VERTEX
  8
VOLVO_FM10__WB_3
 10
8.8433
 20
-30.0278
 30
0
 70
     0
  0
VERTEX
  8
VOLVO_FM10__WB_3
 10
8.6732
 20
-30.2385
 30
0
 70
     0
  0
VERTEX
  8
VOLVO_FM10__WB_3
 10
8.3185
 20
-30.6475
 30
0
 70
     0
  0
VERTEX
  8
VOLVO_FM10__WB_3
 10
7.9449
 20
-31.0391
 30
0
 70
     0
  0
VERTEX
  8
VOLVO_FM10__WB_3
 10
7.5533
 20
-31.4127
 30
0
 70
     0
  0
VERTEX
  8
VOLVO_FM10__WB_3
 10
7.1443
 20
-31.7674
 30
0
 70
     0
  0
VERTEX
  8
VOLVO_FM10__WB_3
 10
6.9336
 20
-31.9375
 30
0
 70
     0
  0
VERTEX
  8
VOLVO_FM10__WB_3
 10
6.7188
 20
-32.1026
 30
0
 70
     0
  0
VERTEX
  8
VOLVO_FM10__WB_3
 10
6.5
 20
-32.2626
 30
0
 70
     0
  0
VERTEX
  8
VOLVO_FM10__WB_3
 10
6.2773
 20
-32.4175
 30
0
 70
     0
  0
VERTEX
  8
VOLVO_FM10__WB_3
 10
6.0508
 20
-32.5671
 30
0
 70
     0
  0
VERTEX
  8
VOLVO_FM10__WB_3
 10
5.8206
 20
-32.7114
 30
0
 70
     0
  0
VERTEX
  8
VOLVO_FM10__WB_3
 10
5.5869
 20
-32.8503
 30
0
 70
     0
  0
VERTEX
  8
VOLVO_FM10__WB_3
 10
5.3496
 20
-32.9836
 30
0
 70
     0
  0
VERTEX
  8
VOLVO_FM10__WB_3
 10
5.1088
 20
-33.1113
 30
0
 70
     0
  0
VERTEX
  8
VOLVO_FM10__WB_3
 10
4.8648
 20
-33.2333
 30
0
 70
     0
  0
VERTEX
  8
VOLVO_FM10__WB_3
 10
4.6175
 20
-33.3495
 30
0
 70
     0
  0
VERTEX
  8
VOLVO_FM10__WB_3
 10
4.367
 20
-33.4598
 30
0
 70
     0
  0
VERTEX
  8
VOLVO_FM10__WB_3
 10
4.1135
 20
-33.5642
 30
0
 70
     0
  0
VERTEX
  8
VOLVO_FM10__WB_3
 10
3.857
 20
-33.6625
 30
0
 70
     0
  0
VERTEX
  8
VOLVO_FM10__WB_3
 10
3.5977
 20
-33.7546
 30
0
 70
     0
  0
VERTEX
  8
VOLVO_FM10__WB_3
 10
3.3355
 20
-33.8404
 30
0
 70
     0
  0
VERTEX
  8
VOLVO_FM10__WB_3
 10
3.0707
 20
-33.92
 30
0
 70
     0
  0
VERTEX
  8
VOLVO_FM10__WB_3
 10
2.8032
 20
-33.993
 30
0
 70
     0
  0
VERTEX
  8
VOLVO_FM10__WB_3
 10
2.5333
 20
-34.0596
 30
0
 70
     0
  0
VERTEX
  8
VOLVO_FM10__WB_3
 10
2.2609
 20
-34.1195
 30
0
 70
     0
  0
VERTEX
  8
VOLVO_FM10__WB_3
 10
1.9862
 20
-34.1727
 30
0
 70
     0
  0
VERTEX
  8
VOLVO_FM10__WB_3
 10
1.7092
 20
-34.2192
 30
0
 70
     0
  0
VERTEX
  8
VOLVO_FM10__WB_3
 10
1.4301
 20
-34.2587
 30
0
 70
     0
  0
VERTEX
  8
VOLVO_FM10__WB_3
 10
1.149
 20
-34.2912
 30
0
 70
     0
  0
VERTEX
  8
VOLVO_FM10__WB_3
 10
0.8659
 20
-34.3167
 30
0
 70
     0
  0
VERTEX
  8
VOLVO_FM10__WB_3
 10
0.5808
 20
-34.335
 30
0
 70
     0
  0
VERTEX
  8
VOLVO_FM10__WB_3
 10
0.2941
 20
-34.3461
 30
0
 70
     0
  0
VERTEX
  8
VOLVO_FM10__WB_3
 10
0.0056
 20
-34.3498
 30
0
 70
     0
  0
VERTEX
  8
VOLVO_FM10__WB_3
 10
0.0056
 20
-34.3498
 30
0
 70
     0
  0
VERTEX
  8
VOLVO_FM10__WB_3
 10
-0.2829
 20
-34.3461
 30
0
 70
     0
  0
VERTEX
  8
VOLVO_FM10__WB_3
 10
-0.5697
 20
-34.335
 30
0
 70
     0
  0
VERTEX
  8
VOLVO_FM10__WB_3
 10
-0.8547
 20
-34.3167
 30
0
 70
     0
  0
VERTEX
  8
VOLVO_FM10__WB_3
 10
-1.1378
 20
-34.2912
 30
0
 70
     0
  0
VERTEX
  8
VOLVO_FM10__WB_3
 10
-1.419
 20
-34.2587
 30
0
 70
     0
  0
VERTEX
  8
VOLVO_FM10__WB_3
 10
-1.6981
 20
-34.2192
 30
0
 70
     0
  0
VERTEX
  8
VOLVO_FM10__WB_3
 10
-1.975
 20
-34.1727
 30
0
 70
     0
  0
VERTEX
  8
VOLVO_FM10__WB_3
 10
-2.2497
 20
-34.1195
 30
0
 70
     0
  0
VERTEX
  8
VOLVO_FM10__WB_3
 10
-2.5221
 20
-34.0596
 30
0
 70
     0
  0
VERTEX
  8
VOLVO_FM10__WB_3
 10
-2.7921
 20
-33.993
 30
0
 70
     0
  0
VERTEX
  8
VOLVO_FM10__WB_3
 10
-3.0595
 20
-33.92
 30
0
 70
     0
  0
VERTEX
  8
VOLVO_FM10__WB_3
 10
-3.3244
 20
-33.8404
 30
0
 70
     0
  0
VERTEX
  8
VOLVO_FM10__WB_3
 10
-3.5865
 20
-33.7546
 30
0
 70
     0
  0
VERTEX
  8
VOLVO_FM10__WB_3
 10
-3.8459
 20
-33.6625
 30
0
 70
     0
  0
VERTEX
  8
VOLVO_FM10__WB_3
 10
-4.1023
 20
-33.5642
 30
0
 70
     0
  0
VERTEX
  8
VOLVO_FM10__WB_3
 10
-4.3559
 20
-33.4598
 30
0
 70
     0
  0
VERTEX
  8
VOLVO_FM10__WB_3
 10
-4.6063
 20
-33.3495
 30
0
 70
     0
  0
VERTEX
  8
VOLVO_FM10__WB_3
 10
-4.8536
 20
-33.2333
 30
0
 70
     0
  0
VERTEX
  8
VOLVO_FM10__WB_3
 10
-5.0977
 20
-33.1113
 30
0
 70
     0
  0
VERTEX
  8
VOLVO_FM10__WB_3
 10
-5.3384
 20
-32.9836
 30
0
 70
     0
  0
VERTEX
  8
VOLVO_FM10__WB_3
 10
-5.5757
 20
-32.8503
 30
0
 70
     0
  0
VERTEX
  8
VOLVO_FM10__WB_3
 10
-5.8095
 20
-32.7114
 30
0
 70
     0
  0
VERTEX
  8
VOLVO_FM10__WB_3
 10
-6.0396
 20
-32.5671
 30
0
 70
     0
  0
VERTEX
  8
VOLVO_FM10__WB_3
 10
-6.2661
 20
-32.4175
 30
0
 70
     0
  0
VERTEX
  8
VOLVO_FM10__WB_3
 10
-6.4888
 20
-32.2626
 30
0
 70
     0
  0
VERTEX
  8
VOLVO_FM10__WB_3
 10
-6.7076
 20
-32.1026
 30
0
 70
     0
  0
VERTEX
  8
VOLVO_FM10__WB_3
 10
-6.9224
 20
-31.9375
 30
0
 70
     0
  0
VERTEX
  8
VOLVO_FM10__WB_3
 10
-7.1332
 20
-31.7674
 30
0
 70
     0
  0
VERTEX
  8
VOLVO_FM10__WB_3
 10
-7.5421
 20
-31.4127
 30
0
 70
     0
  0
VERTEX
  8
VOLVO_FM10__WB_3
 10
-7.9337
 20
-31.0391
 30
0
 70
     0
  0
VERTEX
  8
VOLVO_FM10__WB_3
 10
-8.3073
 20
-30.6475
 30
0
 70
     0
  0
VERTEX
  8
VOLVO_FM10__WB_3
 10
-8.662
 20
-30.2385
 30
0
 70
     0
  0
VERTEX
  8
VOLVO_FM10__WB_3
 10
-8.8321
 20
-30.0278
 30
0
 70
     0
  0
VERTEX
  8
VOLVO_FM10__WB_3
 10
-8.9972
 20
-29.8129
 30
0
 70
     0
  0
VERTEX
  8
VOLVO_FM10__WB_3
 10
-9.1572
 20
-29.5941
 30
0
 70
     0
  0
VERTEX
  8
VOLVO_FM10__WB_3
 10
-9.3121
 20
-29.3715
 30
0
 70
     0
  0
VERTEX
  8
VOLVO_FM10__WB_3
 10
-9.4617
 20
-29.145
 30
0
 70
     0
  0
VERTEX
  8
VOLVO_FM10__WB_3
 10
-9.606
 20
-28.9148
 30
0
 70
     0
  0
VERTEX
  8
VOLVO_FM10__WB_3
 10
-9.7449
 20
-28.681
 30
0
 70
     0
  0
VERTEX
  8
VOLVO_FM10__WB_3
 10
-9.8782
 20
-28.4438
 30
0
 70
     0
  0
VERTEX
  8
VOLVO_FM10__WB_3
 10
-10.0059
 20
-28.203
 30
0
 70
     0
  0
VERTEX
  8
VOLVO_FM10__WB_3
 10
-10.1279
 20
-27.959
 30
0
 70
     0
  0
VERTEX
  8
VOLVO_FM10__WB_3
 10
-10.2441
 20
-27.7117
 30
0
 70
     0
  0
VERTEX
  8
VOLVO_FM10__WB_3
 10
-10.3545
 20
-27.4612
 30
0
 70
     0
  0
VERTEX
  8
VOLVO_FM10__WB_3
 10
-10.4588
 20
-27.2077
 30
0
 70
     0
  0
VERTEX
  8
VOLVO_FM10__WB_3
 10
-10.5571
 20
-26.9512
 30
0
 70
     0
  0
VERTEX
  8
VOLVO_FM10__WB_3
 10
-10.6492
 20
-26.6919
 30
0
 70
     0
  0
VERTEX
  8
VOLVO_FM10__WB_3
 10
-10.7351
 20
-26.4297
 30
0
 70
     0
  0
VERTEX
  8
VOLVO_FM10__WB_3
 10
-10.8146
 20
-26.1649
 30
0
 70
     0
  0
VERTEX
  8
VOLVO_FM10__WB_3
 10
-10.8877
 20
-25.8974
 30
0
 70
     0
  0
VERTEX
  8
VOLVO_FM10__WB_3
 10
-10.9542
 20
-25.6275
 30
0
 70
     0
  0
VERTEX
  8
VOLVO_FM10__WB_3
 10
-11.0141
 20
-25.3551
 30
0
 70
     0
  0
VERTEX
  8
VOLVO_FM10__WB_3
 10
-11.0674
 20
-25.0804
 30
0
 70
     0
  0
VERTEX
  8
VOLVO_FM10__WB_3
 10
-11.1138
 20
-24.8034
 30
0
 70
     0
  0
VERTEX
  8
VOLVO_FM10__WB_3
 10
-11.1533
 20
-24.5243
 30
0
 70
     0
  0
VERTEX
  8
VOLVO_FM10__WB_3
 10
-11.1859
 20
-24.2432
 30
0
 70
     0
  0
VERTEX
  8
VOLVO_FM10__WB_3
 10
-11.2113
 20
-23.96
 30
0
 70
     0
  0
VERTEX
  8
VOLVO_FM10__WB_3
 10
-11.2297
 20
-23.675
 30
0
 70
     0
  0
VERTEX
  8
VOLVO_FM10__WB_3
 10
-11.2407
 20
-23.3883
 30
0
 70
     0
  0
VERTEX
  8
VOLVO_FM10__WB_3
 10
-11.2444
 20
-23.0998
 30
0
 70
     0
  0
SEQEND
  0
POLYLINE
  8
VOLVO_FM10__WB_3
  6
CONTINUOUS
 62
     7
 66
     1
 40
0.0139
 41
0.0139
  0
VERTEX
  8
VOLVO_FM10__WB_3
 10
-20.9944
 20
-23.0998
 30
0
 70
     0
  0
VERTEX
  8
VOLVO_FM10__WB_3
 10
-20.9875
 20
-22.5613
 30
0
 70
     0
  0
VERTEX
  8
VOLVO_FM10__WB_3
 10
-20.9669
 20
-22.026
 30
0
 70
     0
  0
VERTEX
  8
VOLVO_FM10__WB_3
 10
-20.9327
 20
-21.494
 30
0
 70
     0
  0
VERTEX
  8
VOLVO_FM10__WB_3
 10
-20.8851
 20
-20.9655
 30
0
 70
     0
  0
VERTEX
  8
VOLVO_FM10__WB_3
 10
-20.8244
 20
-20.4406
 30
0
 70
     0
  0
VERTEX
  8
VOLVO_FM10__WB_3
 10
-20.7506
 20
-19.9196
 30
0
 70
     0
  0
VERTEX
  8
VOLVO_FM10__WB_3
 10
-20.6639
 20
-19.4027
 30
0
 70
     0
  0
VERTEX
  8
VOLVO_FM10__WB_3
 10
-20.5646
 20
-18.8899
 30
0
 70
     0
  0
VERTEX
  8
VOLVO_FM10__WB_3
 10
-20.4527
 20
-18.3814
 30
0
 70
     0
  0
VERTEX
  8
VOLVO_FM10__WB_3
 10
-20.3285
 20
-17.8775
 30
0
 70
     0
  0
VERTEX
  8
VOLVO_FM10__WB_3
 10
-20.1921
 20
-17.3783
 30
0
 70
     0
  0
VERTEX
  8
VOLVO_FM10__WB_3
 10
-20.0436
 20
-16.8839
 30
0
 70
     0
  0
VERTEX
  8
VOLVO_FM10__WB_3
 10
-19.8834
 20
-16.3945
 30
0
 70
     0
  0
VERTEX
  8
VOLVO_FM10__WB_3
 10
-19.7114
 20
-15.9104
 30
0
 70
     0
  0
VERTEX
  8
VOLVO_FM10__WB_3
 10
-19.528
 20
-15.4316
 30
0
 70
     0
  0
VERTEX
  8
VOLVO_FM10__WB_3
 10
-19.3332
 20
-14.9584
 30
0
 70
     0
  0
VERTEX
  8
VOLVO_FM10__WB_3
 10
-19.1273
 20
-14.4909
 30
0
 70
     0
  0
VERTEX
  8
VOLVO_FM10__WB_3
 10
-18.9103
 20
-14.0293
 30
0
 70
     0
  0
VERTEX
  8
VOLVO_FM10__WB_3
 10
-18.6826
 20
-13.5737
 30
0
 70
     0
  0
VERTEX
  8
VOLVO_FM10__WB_3
 10
-18.4442
 20
-13.1244
 30
0
 70
     0
  0
VERTEX
  8
VOLVO_FM10__WB_3
 10
-18.1953
 20
-12.6814
 30
0
 70
     0
  0
VERTEX
  8
VOLVO_FM10__WB_3
 10
-17.9361
 20
-12.245
 30
0
 70
     0
  0
VERTEX
  8
VOLVO_FM10__WB_3
 10
-17.6668
 20
-11.8154
 30
0
 70
     0
  0
VERTEX
  8
VOLVO_FM10__WB_3
 10
-17.3874
 20
-11.3926
 30
0
 70
     0
  0
VERTEX
  8
VOLVO_FM10__WB_3
 10
-17.0983
 20
-10.977
 30
0
 70
     0
  0
VERTEX
  8
VOLVO_FM10__WB_3
 10
-16.7996
 20
-10.5685
 30
0
 70
     0
  0
VERTEX
  8
VOLVO_FM10__WB_3
 10
-16.4914
 20
-10.1675
 30
0
 70
     0
  0
VERTEX
  8
VOLVO_FM10__WB_3
 10
-16.1739
 20
-9.7741
 30
0
 70
     0
  0
VERTEX
  8
VOLVO_FM10__WB_3
 10
-15.8473
 20
-9.3884
 30
0
 70
     0
  0
VERTEX
  8
VOLVO_FM10__WB_3
 10
-15.5118
 20
-9.0107
 30
0
 70
     0
  0
VERTEX
  8
VOLVO_FM10__WB_3
 10
-15.1674
 20
-8.6411
 30
0
 70
     0
  0
VERTEX
  8
VOLVO_FM10__WB_3
 10
-14.8145
 20
-8.2797
 30
0
 70
     0
  0
VERTEX
  8
VOLVO_FM10__WB_3
 10
-14.4531
 20
-7.9267
 30
0
 70
     0
  0
VERTEX
  8
VOLVO_FM10__WB_3
 10
-14.0835
 20
-7.5824
 30
0
 70
     0
  0
VERTEX
  8
VOLVO_FM10__WB_3
 10
-13.7058
 20
-7.2469
 30
0
 70
     0
  0
VERTEX
  8
VOLVO_FM10__WB_3
 10
-13.3201
 20
-6.9203
 30
0
 70
     0
  0
VERTEX
  8
VOLVO_FM10__WB_3
 10
-12.9267
 20
-6.6028
 30
0
 70
     0
  0
VERTEX
  8
VOLVO_FM10__WB_3
 10
-12.5257
 20
-6.2946
 30
0
 70
     0
  0
VERTEX
  8
VOLVO_FM10__WB_3
 10
-12.1172
 20
-5.9959
 30
0
 70
     0
  0
VERTEX
  8
VOLVO_FM10__WB_3
 10
-11.7016
 20
-5.7067
 30
0
 70
     0
  0
VERTEX
  8
VOLVO_FM10__WB_3
 10
-11.2788
 20
-5.4274
 30
0
 70
     0
  0
VERTEX
  8
VOLVO_FM10__WB_3
 10
-10.8492
 20
-5.1581
 30
0
 70
     0
  0
VERTEX
  8
VOLVO_FM10__WB_3
 10
-10.4128
 20
-4.8989
 30
0
 70
     0
  0
VERTEX
  8
VOLVO_FM10__WB_3
 10
-9.9698
 20
-4.65
 30
0
 70
     0
  0
VERTEX
  8
VOLVO_FM10__WB_3
 10
-9.5205
 20
-4.4116
 30
0
 70
     0
  0
VERTEX
  8
VOLVO_FM10__WB_3
 10
-9.0649
 20
-4.1839
 30
0
 70
     0
  0
VERTEX
  8
VOLVO_FM10__WB_3
 10
-8.6033
 20
-3.9669
 30
0
 70
     0
  0
VERTEX
  8
VOLVO_FM10__WB_3
 10
-8.1358
 20
-3.761
 30
0
 70
     0
  0
VERTEX
  8
VOLVO_FM10__WB_3
 10
-7.6625
 20
-3.5662
 30
0
 70
     0
  0
VERTEX
  8
VOLVO_FM10__WB_3
 10
-7.1838
 20
-3.3828
 30
0
 70
     0
  0
VERTEX
  8
VOLVO_FM10__WB_3
 10
-6.6996
 20
-3.2108
 30
0
 70
     0
  0
VERTEX
  8
VOLVO_FM10__WB_3
 10
-6.2103
 20
-3.0506
 30
0
 70
     0
  0
VERTEX
  8
VOLVO_FM10__WB_3
 10
-5.7159
 20
-2.9021
 30
0
 70
     0
  0
VERTEX
  8
VOLVO_FM10__WB_3
 10
-5.2167
 20
-2.7657
 30
0
 70
     0
  0
VERTEX
  8
VOLVO_FM10__WB_3
 10
-4.7128
 20
-2.6415
 30
0
 70
     0
  0
VERTEX
  8
VOLVO_FM10__WB_3
 10
-4.2043
 20
-2.5296
 30
0
 70
     0
  0
VERTEX
  8
VOLVO_FM10__WB_3
 10
-3.6915
 20
-2.4303
 30
0
 70
     0
  0
VERTEX
  8
VOLVO_FM10__WB_3
 10
-3.1746
 20
-2.3436
 30
0
 70
     0
  0
VERTEX
  8
VOLVO_FM10__WB_3
 10
-2.6536
 20
-2.2698
 30
0
 70
     0
  0
VERTEX
  8
VOLVO_FM10__WB_3
 10
-2.1287
 20
-2.2091
 30
0
 70
     0
  0
VERTEX
  8
VOLVO_FM10__WB_3
 10
-1.6002
 20
-2.1615
 30
0
 70
     0
  0
VERTEX
  8
VOLVO_FM10__WB_3
 10
-1.0682
 20
-2.1273
 30
0
 70
     0
  0
VERTEX
  8
VOLVO_FM10__WB_3
 10
-0.5329
 20
-2.1067
 30
0
 70
     0
  0
VERTEX
  8
VOLVO_FM10__WB_3
 10
0.0056
 20
-2.0998
 30
0
 70
     0
  0
VERTEX
  8
VOLVO_FM10__WB_3
 10
0.0056
 20
-2.0998
 30
0
 70
     0
  0
VERTEX
  8
VOLVO_FM10__WB_3
 10
0.5441
 20
-2.1067
 30
0
 70
     0
  0
VERTEX
  8
VOLVO_FM10__WB_3
 10
1.0794
 20
-2.1273
 30
0
 70
     0
  0
VERTEX
  8
VOLVO_FM10__WB_3
 10
1.6114
 20
-2.1615
 30
0
 70
     0
  0
VERTEX
  8
VOLVO_FM10__WB_3
 10
2.1399
 20
-2.2091
 30
0
 70
     0
  0
VERTEX
  8
VOLVO_FM10__WB_3
 10
2.6647
 20
-2.2698
 30
0
 70
     0
  0
VERTEX
  8
VOLVO_FM10__WB_3
 10
3.1857
 20
-2.3436
 30
0
 70
     0
  0
VERTEX
  8
VOLVO_FM10__WB_3
 10
3.7027
 20
-2.4303
 30
0
 70
     0
  0
VERTEX
  8
VOLVO_FM10__WB_3
 10
4.2155
 20
-2.5296
 30
0
 70
     0
  0
VERTEX
  8
VOLVO_FM10__WB_3
 10
4.724
 20
-2.6415
 30
0
 70
     0
  0
VERTEX
  8
VOLVO_FM10__WB_3
 10
5.2279
 20
-2.7657
 30
0
 70
     0
  0
VERTEX
  8
VOLVO_FM10__WB_3
 10
5.7271
 20
-2.9021
 30
0
 70
     0
  0
VERTEX
  8
VOLVO_FM10__WB_3
 10
6.2215
 20
-3.0506
 30
0
 70
     0
  0
VERTEX
  8
VOLVO_FM10__WB_3
 10
6.7108
 20
-3.2108
 30
0
 70
     0
  0
VERTEX
  8
VOLVO_FM10__WB_3
 10
7.195
 20
-3.3828
 30
0
 70
     0
  0
VERTEX
  8
VOLVO_FM10__WB_3
 10
7.6737
 20
-3.5662
 30
0
 70
     0
  0
VERTEX
  8
VOLVO_FM10__WB_3
 10
8.1469
 20
-3.761
 30
0
 70
     0
  0
VERTEX
  8
VOLVO_FM10__WB_3
 10
8.6145
 20
-3.9669
 30
0
 70
     0
  0
VERTEX
  8
VOLVO_FM10__WB_3
 10
9.0761
 20
-4.1839
 30
0
 70
     0
  0
VERTEX
  8
VOLVO_FM10__WB_3
 10
9.5317
 20
-4.4116
 30
0
 70
     0
  0
VERTEX
  8
VOLVO_FM10__WB_3
 10
9.981
 20
-4.65
 30
0
 70
     0
  0
VERTEX
  8
VOLVO_FM10__WB_3
 10
10.4239
 20
-4.8989
 30
0
 70
     0
  0
VERTEX
  8
VOLVO_FM10__WB_3
 10
10.8603
 20
-5.1581
 30
0
 70
     0
  0
VERTEX
  8
VOLVO_FM10__WB_3
 10
11.29
 20
-5.4274
 30
0
 70
     0
  0
VERTEX
  8
VOLVO_FM10__WB_3
 10
11.7127
 20
-5.7067
 30
0
 70
     0
  0
VERTEX
  8
VOLVO_FM10__WB_3
 10
12.1284
 20
-5.9959
 30
0
 70
     0
  0
VERTEX
  8
VOLVO_FM10__WB_3
 10
12.5368
 20
-6.2946
 30
0
 70
     0
  0
VERTEX
  8
VOLVO_FM10__WB_3
 10
12.9378
 20
-6.6028
 30
0
 70
     0
  0
VERTEX
  8
VOLVO_FM10__WB_3
 10
13.3313
 20
-6.9203
 30
0
 70
     0
  0
VERTEX
  8
VOLVO_FM10__WB_3
 10
13.7169
 20
-7.2469
 30
0
 70
     0
  0
VERTEX
  8
VOLVO_FM10__WB_3
 10
14.0947
 20
-7.5824
 30
0
 70
     0
  0
VERTEX
  8
VOLVO_FM10__WB_3
 10
14.4643
 20
-7.9267
 30
0
 70
     0
  0
VERTEX
  8
VOLVO_FM10__WB_3
 10
14.8257
 20
-8.2797
 30
0
 70
     0
  0
VERTEX
  8
VOLVO_FM10__WB_3
 10
15.1786
 20
-8.6411
 30
0
 70
     0
  0
VERTEX
  8
VOLVO_FM10__WB_3
 10
15.523
 20
-9.0107
 30
0
 70
     0
  0
VERTEX
  8
VOLVO_FM10__WB_3
 10
15.8585
 20
-9.3884
 30
0
 70
     0
  0
VERTEX
  8
VOLVO_FM10__WB_3
 10
16.1851
 20
-9.7741
 30
0
 70
     0
  0
VERTEX
  8
VOLVO_FM10__WB_3
 10
16.5026
 20
-10.1675
 30
0
 70
     0
  0
VERTEX
  8
VOLVO_FM10__WB_3
 10
16.8108
 20
-10.5685
 30
0
 70
     0
  0
VERTEX
  8
VOLVO_FM10__WB_3
 10
17.1095
 20
-10.977
 30
0
 70
     0
  0
VERTEX
  8
VOLVO_FM10__WB_3
 10
17.3986
 20
-11.3926
 30
0
 70
     0
  0
VERTEX
  8
VOLVO_FM10__WB_3
 10
17.6779
 20
-11.8154
 30
0
 70
     0
  0
VERTEX
  8
VOLVO_FM10__WB_3
 10
17.9473
 20
-12.245
 30
0
 70
     0
  0
VERTEX
  8
VOLVO_FM10__WB_3
 10
18.2065
 20
-12.6814
 30
0
 70
     0
  0
VERTEX
  8
VOLVO_FM10__WB_3
 10
18.4553
 20
-13.1244
 30
0
 70
     0
  0
VERTEX
  8
VOLVO_FM10__WB_3
 10
18.6938
 20
-13.5737
 30
0
 70
     0
  0
VERTEX
  8
VOLVO_FM10__WB_3
 10
18.9215
 20
-14.0293
 30
0
 70
     0
  0
VERTEX
  8
VOLVO_FM10__WB_3
 10
19.1384
 20
-14.4909
 30
0
 70
     0
  0
VERTEX
  8
VOLVO_FM10__WB_3
 10
19.3444
 20
-14.9584
 30
0
 70
     0
  0
VERTEX
  8
VOLVO_FM10__WB_3
 10
19.5392
 20
-15.4316
 30
0
 70
     0
  0
VERTEX
  8
VOLVO_FM10__WB_3
 10
19.7226
 20
-15.9104
 30
0
 70
     0
  0
VERTEX
  8
VOLVO_FM10__WB_3
 10
19.8945
 20
-16.3945
 30
0
 70
     0
  0
VERTEX
  8
VOLVO_FM10__WB_3
 10
20.0548
 20
-16.8839
 30
0
 70
     0
  0
VERTEX
  8
VOLVO_FM10__WB_3
 10
20.2032
 20
-17.3783
 30
0
 70
     0
  0
VERTEX
  8
VOLVO_FM10__WB_3
 10
20.3397
 20
-17.8775
 30
0
 70
     0
  0
VERTEX
  8
VOLVO_FM10__WB_3
 10
20.4639
 20
-18.3814
 30
0
 70
     0
  0
VERTEX
  8
VOLVO_FM10__WB_3
 10
20.5758
 20
-18.8899
 30
0
 70
     0
  0
VERTEX
  8
VOLVO_FM10__WB_3
 10
20.6751
 20
-19.4027
 30
0
 70
     0
  0
VERTEX
  8
VOLVO_FM10__WB_3
 10
20.7618
 20
-19.9196
 30
0
 70
     0
  0
VERTEX
  8
VOLVO_FM10__WB_3
 10
20.8356
 20
-20.4406
 30
0
 70
     0
  0
VERTEX
  8
VOLVO_FM10__WB_3
 10
20.8963
 20
-20.9655
 30
0
 70
     0
  0
VERTEX
  8
VOLVO_FM10__WB_3
 10
20.9439
 20
-21.494
 30
0
 70
     0
  0
VERTEX
  8
VOLVO_FM10__WB_3
 10
20.978
 20
-22.026
 30
0
 70
     0
  0
VERTEX
  8
VOLVO_FM10__WB_3
 10
20.9987
 20
-22.5613
 30
0
 70
     0
  0
VERTEX
  8
VOLVO_FM10__WB_3
 10
21.0056
 20
-23.0998
 30
0
 70
     0
  0
VERTEX
  8
VOLVO_FM10__WB_3
 10
21.0056
 20
-23.0998
 30
0
 70
     0
  0
VERTEX
  8
VOLVO_FM10__WB_3
 10
20.9987
 20
-23.6383
 30
0
 70
     0
  0
VERTEX
  8
VOLVO_FM10__WB_3
 10
20.978
 20
-24.1736
 30
0
 70
     0
  0
VERTEX
  8
VOLVO_FM10__WB_3
 10
20.9439
 20
-24.7056
 30
0
 70
     0
  0
VERTEX
  8
VOLVO_FM10__WB_3
 10
20.8963
 20
-25.2341
 30
0
 70
     0
  0
VERTEX
  8
VOLVO_FM10__WB_3
 10
20.8356
 20
-25.7589
 30
0
 70
     0
  0
VERTEX
  8
VOLVO_FM10__WB_3
 10
20.7618
 20
-26.2799
 30
0
 70
     0
  0
VERTEX
  8
VOLVO_FM10__WB_3
 10
20.6751
 20
-26.7969
 30
0
 70
     0
  0
VERTEX
  8
VOLVO_FM10__WB_3
 10
20.5758
 20
-27.3097
 30
0
 70
     0
  0
VERTEX
  8
VOLVO_FM10__WB_3
 10
20.4639
 20
-27.8181
 30
0
 70
     0
  0
VERTEX
  8
VOLVO_FM10__WB_3
 10
20.3397
 20
-28.3221
 30
0
 70
     0
  0
VERTEX
  8
VOLVO_FM10__WB_3
 10
20.2032
 20
-28.8213
 30
0
 70
     0
  0
VERTEX
  8
VOLVO_FM10__WB_3
 10
20.0548
 20
-29.3157
 30
0
 70
     0
  0
VERTEX
  8
VOLVO_FM10__WB_3
 10
19.8945
 20
-29.805
 30
0
 70
     0
  0
VERTEX
  8
VOLVO_FM10__WB_3
 10
19.7226
 20
-30.2892
 30
0
 70
     0
  0
VERTEX
  8
VOLVO_FM10__WB_3
 10
19.5392
 20
-30.7679
 30
0
 70
     0
  0
VERTEX
  8
VOLVO_FM10__WB_3
 10
19.3444
 20
-31.2411
 30
0
 70
     0
  0
VERTEX
  8
VOLVO_FM10__WB_3
 10
19.1384
 20
-31.7087
 30
0
 70
     0
  0
VERTEX
  8
VOLVO_FM10__WB_3
 10
18.9215
 20
-32.1703
 30
0
 70
     0
  0
VERTEX
  8
VOLVO_FM10__WB_3
 10
18.6938
 20
-32.6258
 30
0
 70
     0
  0
VERTEX
  8
VOLVO_FM10__WB_3
 10
18.4553
 20
-33.0752
 30
0
 70
     0
  0
VERTEX
  8
VOLVO_FM10__WB_3
 10
18.2065
 20
-33.5181
 30
0
 70
     0
  0
VERTEX
  8
VOLVO_FM10__WB_3
 10
17.9473
 20
-33.9545
 30
0
 70
     0
  0
VERTEX
  8
VOLVO_FM10__WB_3
 10
17.6779
 20
-34.3842
 30
0
 70
     0
  0
VERTEX
  8
VOLVO_FM10__WB_3
 10
17.3986
 20
-34.8069
 30
0
 70
     0
  0
VERTEX
  8
VOLVO_FM10__WB_3
 10
17.1095
 20
-35.2226
 30
0
 70
     0
  0
VERTEX
  8
VOLVO_FM10__WB_3
 10
16.8108
 20
-35.631
 30
0
 70
     0
  0
VERTEX
  8
VOLVO_FM10__WB_3
 10
16.5026
 20
-36.032
 30
0
 70
     0
  0
VERTEX
  8
VOLVO_FM10__WB_3
 10
16.1851
 20
-36.4255
 30
0
 70
     0
  0
VERTEX
  8
VOLVO_FM10__WB_3
 10
15.8585
 20
-36.8111
 30
0
 70
     0
  0
VERTEX
  8
VOLVO_FM10__WB_3
 10
15.523
 20
-37.1889
 30
0
 70
     0
  0
VERTEX
  8
VOLVO_FM10__WB_3
 10
15.1786
 20
-37.5585
 30
0
 70
     0
  0
VERTEX
  8
VOLVO_FM10__WB_3
 10
14.8257
 20
-37.9199
 30
0
 70
     0
  0
VERTEX
  8
VOLVO_FM10__WB_3
 10
14.4643
 20
-38.2728
 30
0
 70
     0
  0
VERTEX
  8
VOLVO_FM10__WB_3
 10
14.0947
 20
-38.6171
 30
0
 70
     0
  0
VERTEX
  8
VOLVO_FM10__WB_3
 10
13.7169
 20
-38.9527
 30
0
 70
     0
  0
VERTEX
  8
VOLVO_FM10__WB_3
 10
13.3313
 20
-39.2793
 30
0
 70
     0
  0
VERTEX
  8
VOLVO_FM10__WB_3
 10
12.9378
 20
-39.5968
 30
0
 70
     0
  0
VERTEX
  8
VOLVO_FM10__WB_3
 10
12.5368
 20
-39.905
 30
0
 70
     0
  0
VERTEX
  8
VOLVO_FM10__WB_3
 10
12.1284
 20
-40.2037
 30
0
 70
     0
  0
VERTEX
  8
VOLVO_FM10__WB_3
 10
11.7127
 20
-40.4928
 30
0
 70
     0
  0
VERTEX
  8
VOLVO_FM10__WB_3
 10
11.29
 20
-40.7721
 30
0
 70
     0
  0
VERTEX
  8
VOLVO_FM10__WB_3
 10
10.8603
 20
-41.0415
 30
0
 70
     0
  0
VERTEX
  8
VOLVO_FM10__WB_3
 10
10.4239
 20
-41.3007
 30
0
 70
     0
  0
VERTEX
  8
VOLVO_FM10__WB_3
 10
9.981
 20
-41.5495
 30
0
 70
     0
  0
VERTEX
  8
VOLVO_FM10__WB_3
 10
9.5317
 20
-41.7879
 30
0
 70
     0
  0
VERTEX
  8
VOLVO_FM10__WB_3
 10
9.0761
 20
-42.0157
 30
0
 70
     0
  0
VERTEX
  8
VOLVO_FM10__WB_3
 10
8.6145
 20
-42.2326
 30
0
 70
     0
  0
VERTEX
  8
VOLVO_FM10__WB_3
 10
8.1469
 20
-42.4386
 30
0
 70
     0
  0
VERTEX
  8
VOLVO_FM10__WB_3
 10
7.6737
 20
-42.6333
 30
0
 70
     0
  0
VERTEX
  8
VOLVO_FM10__WB_3
 10
7.195
 20
-42.8168
 30
0
 70
     0
  0
VERTEX
  8
VOLVO_FM10__WB_3
 10
6.7108
 20
-42.9887
 30
0
 70
     0
  0
VERTEX
  8
VOLVO_FM10__WB_3
 10
6.2215
 20
-43.149
 30
0
 70
     0
  0
VERTEX
  8
VOLVO_FM10__WB_3
 10
5.7271
 20
-43.2974
 30
0
 70
     0
  0
VERTEX
  8
VOLVO_FM10__WB_3
 10
5.2279
 20
-43.4338
 30
0
 70
     0
  0
VERTEX
  8
VOLVO_FM10__WB_3
 10
4.724
 20
-43.5581
 30
0
 70
     0
  0
VERTEX
  8
VOLVO_FM10__WB_3
 10
4.2155
 20
-43.67
 30
0
 70
     0
  0
VERTEX
  8
VOLVO_FM10__WB_3
 10
3.7027
 20
-43.7693
 30
0
 70
     0
  0
VERTEX
  8
VOLVO_FM10__WB_3
 10
3.1857
 20
-43.856
 30
0
 70
     0
  0
VERTEX
  8
VOLVO_FM10__WB_3
 10
2.6647
 20
-43.9298
 30
0
 70
     0
  0
VERTEX
  8
VOLVO_FM10__WB_3
 10
2.1399
 20
-43.9905
 30
0
 70
     0
  0
VERTEX
  8
VOLVO_FM10__WB_3
 10
1.6114
 20
-44.0381
 30
0
 70
     0
  0
VERTEX
  8
VOLVO_FM10__WB_3
 10
1.0794
 20
-44.0722
 30
0
 70
     0
  0
VERTEX
  8
VOLVO_FM10__WB_3
 10
0.5441
 20
-44.0929
 30
0
 70
     0
  0
VERTEX
  8
VOLVO_FM10__WB_3
 10
0.0056
 20
-44.0998
 30
0
 70
     0
  0
VERTEX
  8
VOLVO_FM10__WB_3
 10
0.0056
 20
-44.0998
 30
0
 70
     0
  0
VERTEX
  8
VOLVO_FM10__WB_3
 10
-0.5329
 20
-44.0929
 30
0
 70
     0
  0
VERTEX
  8
VOLVO_FM10__WB_3
 10
-1.0682
 20
-44.0722
 30
0
 70
     0
  0
VERTEX
  8
VOLVO_FM10__WB_3
 10
-1.6002
 20
-44.0381
 30
0
 70
     0
  0
VERTEX
  8
VOLVO_FM10__WB_3
 10
-2.1287
 20
-43.9905
 30
0
 70
     0
  0
VERTEX
  8
VOLVO_FM10__WB_3
 10
-2.6536
 20
-43.9298
 30
0
 70
     0
  0
VERTEX
  8
VOLVO_FM10__WB_3
 10
-3.1746
 20
-43.856
 30
0
 70
     0
  0
VERTEX
  8
VOLVO_FM10__WB_3
 10
-3.6915
 20
-43.7693
 30
0
 70
     0
  0
VERTEX
  8
VOLVO_FM10__WB_3
 10
-4.2043
 20
-43.67
 30
0
 70
     0
  0
VERTEX
  8
VOLVO_FM10__WB_3
 10
-4.7128
 20
-43.5581
 30
0
 70
     0
  0
VERTEX
  8
VOLVO_FM10__WB_3
 10
-5.2167
 20
-43.4338
 30
0
 70
     0
  0
VERTEX
  8
VOLVO_FM10__WB_3
 10
-5.7159
 20
-43.2974
 30
0
 70
     0
  0
VERTEX
  8
VOLVO_FM10__WB_3
 10
-6.2103
 20
-43.149
 30
0
 70
     0
  0
VERTEX
  8
VOLVO_FM10__WB_3
 10
-6.6996
 20
-42.9887
 30
0
 70
     0
  0
VERTEX
  8
VOLVO_FM10__WB_3
 10
-7.1838
 20
-42.8168
 30
0
 70
     0
  0
VERTEX
  8
VOLVO_FM10__WB_3
 10
-7.6625
 20
-42.6333
 30
0
 70
     0
  0
VERTEX
  8
VOLVO_FM10__WB_3
 10
-8.1358
 20
-42.4386
 30
0
 70
     0
  0
VERTEX
  8
VOLVO_FM10__WB_3
 10
-8.6033
 20
-42.2326
 30
0
 70
     0
  0
VERTEX
  8
VOLVO_FM10__WB_3
 10
-9.0649
 20
-42.0157
 30
0
 70
     0
  0
VERTEX
  8
VOLVO_FM10__WB_3
 10
-9.5205
 20
-41.7879
 30
0
 70
     0
  0
VERTEX
  8
VOLVO_FM10__WB_3
 10
-9.9698
 20
-41.5495
 30
0
 70
     0
  0
VERTEX
  8
VOLVO_FM10__WB_3
 10
-10.4128
 20
-41.3007
 30
0
 70
     0
  0
VERTEX
  8
VOLVO_FM10__WB_3
 10
-10.8492
 20
-41.0415
 30
0
 70
     0
  0
VERTEX
  8
VOLVO_FM10__WB_3
 10
-11.2788
 20
-40.7721
 30
0
 70
     0
  0
VERTEX
  8
VOLVO_FM10__WB_3
 10
-11.7016
 20
-40.4928
 30
0
 70
     0
  0
VERTEX
  8
VOLVO_FM10__WB_3
 10
-12.1172
 20
-40.2037
 30
0
 70
     0
  0
VERTEX
  8
VOLVO_FM10__WB_3
 10
-12.5257
 20
-39.905
 30
0
 70
     0
  0
VERTEX
  8
VOLVO_FM10__WB_3
 10
-12.9267
 20
-39.5968
 30
0
 70
     0
  0
VERTEX
  8
VOLVO_FM10__WB_3
 10
-13.3201
 20
-39.2793
 30
0
 70
     0
  0
VERTEX
  8
VOLVO_FM10__WB_3
 10
-13.7058
 20
-38.9527
 30
0
 70
     0
  0
VERTEX
  8
VOLVO_FM10__WB_3
 10
-14.0835
 20
-38.6171
 30
0
 70
     0
  0
VERTEX
  8
VOLVO_FM10__WB_3
 10
-14.4531
 20
-38.2728
 30
0
 70
     0
  0
VERTEX
  8
VOLVO_FM10__WB_3
 10
-14.8145
 20
-37.9199
 30
0
 70
     0
  0
VERTEX
  8
VOLVO_FM10__WB_3
 10
-15.1674
 20
-37.5585
 30
0
 70
     0
  0
VERTEX
  8
VOLVO_FM10__WB_3
 10
-15.5118
 20
-37.1889
 30
0
 70
     0
  0
VERTEX
  8
VOLVO_FM10__WB_3
 10
-15.8473
 20
-36.8111
 30
0
 70
     0
  0
VERTEX
  8
VOLVO_FM10__WB_3
 10
-16.1739
 20
-36.4255
 30
0
 70
     0
  0
VERTEX
  8
VOLVO_FM10__WB_3
 10
-16.4914
 20
-36.032
 30
0
 70
     0
  0
VERTEX
  8
VOLVO_FM10__WB_3
 10
-16.7996
 20
-35.631
 30
0
 70
     0
  0
VERTEX
  8
VOLVO_FM10__WB_3
 10
-17.0983
 20
-35.2226
 30
0
 70
     0
  0
VERTEX
  8
VOLVO_FM10__WB_3
 10
-17.3874
 20
-34.8069
 30
0
 70
     0
  0
VERTEX
  8
VOLVO_FM10__WB_3
 10
-17.6668
 20
-34.3842
 30
0
 70
     0
  0
VERTEX
  8
VOLVO_FM10__WB_3
 10
-17.9361
 20
-33.9545
 30
0
 70
     0
  0
VERTEX
  8
VOLVO_FM10__WB_3
 10
-18.1953
 20
-33.5181
 30
0
 70
     0
  0
VERTEX
  8
VOLVO_FM10__WB_3
 10
-18.4442
 20
-33.0752
 30
0
 70
     0
  0
VERTEX
  8
VOLVO_FM10__WB_3
 10
-18.6826
 20
-32.6258
 30
0
 70
     0
  0
VERTEX
  8
VOLVO_FM10__WB_3
 10
-18.9103
 20
-32.1703
 30
0
 70
     0
  0
VERTEX
  8
VOLVO_FM10__WB_3
 10
-19.1273
 20
-31.7087
 30
0
 70
     0
  0
VERTEX
  8
VOLVO_FM10__WB_3
 10
-19.3332
 20
-31.2411
 30
0
 70
     0
  0
VERTEX
  8
VOLVO_FM10__WB_3
 10
-19.528
 20
-30.7679
 30
0
 70
     0
  0
VERTEX
  8
VOLVO_FM10__WB_3
 10
-19.7114
 20
-30.2892
 30
0
 70
     0
  0
VERTEX
  8
VOLVO_FM10__WB_3
 10
-19.8834
 20
-29.805
 30
0
 70
     0
  0
VERTEX
  8
VOLVO_FM10__WB_3
 10
-20.0436
 20
-29.3157
 30
0
 70
     0
  0
VERTEX
  8
VOLVO_FM10__WB_3
 10
-20.1921
 20
-28.8213
 30
0
 70
     0
  0
VERTEX
  8
VOLVO_FM10__WB_3
 10
-20.3285
 20
-28.3221
 30
0
 70
     0
  0
VERTEX
  8
VOLVO_FM10__WB_3
 10
-20.4527
 20
-27.8181
 30
0
 70
     0
  0
VERTEX
  8
VOLVO_FM10__WB_3
 10
-20.5646
 20
-27.3097
 30
0
 70
     0
  0
VERTEX
  8
VOLVO_FM10__WB_3
 10
-20.6639
 20
-26.7969
 30
0
 70
     0
  0
VERTEX
  8
VOLVO_FM10__WB_3
 10
-20.7506
 20
-26.2799
 30
0
 70
     0
  0
VERTEX
  8
VOLVO_FM10__WB_3
 10
-20.8244
 20
-25.7589
 30
0
 70
     0
  0
VERTEX
  8
VOLVO_FM10__WB_3
 10
-20.8851
 20
-25.2341
 30
0
 70
     0
  0
VERTEX
  8
VOLVO_FM10__WB_3
 10
-20.9327
 20
-24.7056
 30
0
 70
     0
  0
VERTEX
  8
VOLVO_FM10__WB_3
 10
-20.9669
 20
-24.1736
 30
0
 70
     0
  0
VERTEX
  8
VOLVO_FM10__WB_3
 10
-20.9875
 20
-23.6383
 30
0
 70
     0
  0
VERTEX
  8
VOLVO_FM10__WB_3
 10
-20.9944
 20
-23.0998
 30
0
 70
     0
  0
SEQEND
  0
POLYLINE
  8
VOLVO_FM10__WB_3
  6
CONTINUOUS
 62
     7
 66
     1
 40
0.0139
 41
0.0139
  0
VERTEX
  8
VOLVO_FM10__WB_3
 10
-19.0259
 20
-23.0998
 30
0
 70
     0
  0
VERTEX
  8
VOLVO_FM10__WB_3
 10
-19.0196
 20
-22.6118
 30
0
 70
     0
  0
VERTEX
  8
VOLVO_FM10__WB_3
 10
-19.0009
 20
-22.1266
 30
0
 70
     0
  0
VERTEX
  8
VOLVO_FM10__WB_3
 10
-18.97
 20
-21.6445
 30
0
 70
     0
  0
VERTEX
  8
VOLVO_FM10__WB_3
 10
-18.9269
 20
-21.1655
 30
0
 70
     0
  0
VERTEX
  8
VOLVO_FM10__WB_3
 10
-18.8718
 20
-20.6899
 30
0
 70
     0
  0
VERTEX
  8
VOLVO_FM10__WB_3
 10
-18.8049
 20
-20.2177
 30
0
 70
     0
  0
VERTEX
  8
VOLVO_FM10__WB_3
 10
-18.7264
 20
-19.7492
 30
0
 70
     0
  0
VERTEX
  8
VOLVO_FM10__WB_3
 10
-18.6364
 20
-19.2845
 30
0
 70
     0
  0
VERTEX
  8
VOLVO_FM10__WB_3
 10
-18.535
 20
-18.8237
 30
0
 70
     0
  0
VERTEX
  8
VOLVO_FM10__WB_3
 10
-18.4224
 20
-18.367
 30
0
 70
     0
  0
VERTEX
  8
VOLVO_FM10__WB_3
 10
-18.2988
 20
-17.9146
 30
0
 70
     0
  0
VERTEX
  8
VOLVO_FM10__WB_3
 10
-18.1643
 20
-17.4666
 30
0
 70
     0
  0
VERTEX
  8
VOLVO_FM10__WB_3
 10
-18.019
 20
-17.0231
 30
0
 70
     0
  0
VERTEX
  8
VOLVO_FM10__WB_3
 10
-17.8632
 20
-16.5843
 30
0
 70
     0
  0
VERTEX
  8
VOLVO_FM10__WB_3
 10
-17.6969
 20
-16.1504
 30
0
 70
     0
  0
VERTEX
  8
VOLVO_FM10__WB_3
 10
-17.5204
 20
-15.7216
 30
0
 70
     0
  0
VERTEX
  8
VOLVO_FM10__WB_3
 10
-17.3338
 20
-15.2979
 30
0
 70
     0
  0
VERTEX
  8
VOLVO_FM10__WB_3
 10
-17.1372
 20
-14.8795
 30
0
 70
     0
  0
VERTEX
  8
VOLVO_FM10__WB_3
 10
-16.9308
 20
-14.4667
 30
0
 70
     0
  0
VERTEX
  8
VOLVO_FM10__WB_3
 10
-16.7147
 20
-14.0595
 30
0
 70
     0
  0
VERTEX
  8
VOLVO_FM10__WB_3
 10
-16.4892
 20
-13.658
 30
0
 70
     0
  0
VERTEX
  8
VOLVO_FM10__WB_3
 10
-16.2543
 20
-13.2625
 30
0
 70
     0
  0
VERTEX
  8
VOLVO_FM10__WB_3
 10
-16.0102
 20
-12.8732
 30
0
 70
     0
  0
VERTEX
  8
VOLVO_FM10__WB_3
 10
-15.7571
 20
-12.49
 30
0
 70
     0
  0
VERTEX
  8
VOLVO_FM10__WB_3
 10
-15.495
 20
-12.1133
 30
0
 70
     0
  0
VERTEX
  8
VOLVO_FM10__WB_3
 10
-15.2243
 20
-11.7432
 30
0
 70
     0
  0
VERTEX
  8
VOLVO_FM10__WB_3
 10
-14.945
 20
-11.3798
 30
0
 70
     0
  0
VERTEX
  8
VOLVO_FM10__WB_3
 10
-14.6573
 20
-11.0232
 30
0
 70
     0
  0
VERTEX
  8
VOLVO_FM10__WB_3
 10
-14.3613
 20
-10.6737
 30
0
 70
     0
  0
VERTEX
  8
VOLVO_FM10__WB_3
 10
-14.0572
 20
-10.3314
 30
0
 70
     0
  0
VERTEX
  8
VOLVO_FM10__WB_3
 10
-13.7452
 20
-9.9964
 30
0
 70
     0
  0
VERTEX
  8
VOLVO_FM10__WB_3
 10
-13.4253
 20
-9.6689
 30
0
 70
     0
  0
VERTEX
  8
VOLVO_FM10__WB_3
 10
-13.0978
 20
-9.349
 30
0
 70
     0
  0
VERTEX
  8
VOLVO_FM10__WB_3
 10
-12.7628
 20
-9.037
 30
0
 70
     0
  0
VERTEX
  8
VOLVO_FM10__WB_3
 10
-12.4205
 20
-8.7329
 30
0
 70
     0
  0
VERTEX
  8
VOLVO_FM10__WB_3
 10
-12.071
 20
-8.4369
 30
0
 70
     0
  0
VERTEX
  8
VOLVO_FM10__WB_3
 10
-11.7144
 20
-8.1492
 30
0
 70
     0
  0
VERTEX
  8
VOLVO_FM10__WB_3
 10
-11.351
 20
-7.8699
 30
0
 70
     0
  0
VERTEX
  8
VOLVO_FM10__WB_3
 10
-10.9809
 20
-7.5991
 30
0
 70
     0
  0
VERTEX
  8
VOLVO_FM10__WB_3
 10
-10.6041
 20
-7.3371
 30
0
 70
     0
  0
VERTEX
  8
VOLVO_FM10__WB_3
 10
-10.221
 20
-7.084
 30
0
 70
     0
  0
VERTEX
  8
VOLVO_FM10__WB_3
 10
-9.8317
 20
-6.8399
 30
0
 70
     0
  0
VERTEX
  8
VOLVO_FM10__WB_3
 10
-9.4362
 20
-6.605
 30
0
 70
     0
  0
VERTEX
  8
VOLVO_FM10__WB_3
 10
-9.0347
 20
-6.3795
 30
0
 70
     0
  0
VERTEX
  8
VOLVO_FM10__WB_3
 10
-8.6275
 20
-6.1634
 30
0
 70
     0
  0
VERTEX
  8
VOLVO_FM10__WB_3
 10
-8.2146
 20
-5.957
 30
0
 70
     0
  0
VERTEX
  8
VOLVO_FM10__WB_3
 10
-7.7963
 20
-5.7604
 30
0
 70
     0
  0
VERTEX
  8
VOLVO_FM10__WB_3
 10
-7.3726
 20
-5.5738
 30
0
 70
     0
  0
VERTEX
  8
VOLVO_FM10__WB_3
 10
-6.9438
 20
-5.3973
 30
0
 70
     0
  0
VERTEX
  8
VOLVO_FM10__WB_3
 10
-6.5099
 20
-5.231
 30
0
 70
     0
  0
VERTEX
  8
VOLVO_FM10__WB_3
 10
-6.0711
 20
-5.0752
 30
0
 70
     0
  0
VERTEX
  8
VOLVO_FM10__WB_3
 10
-5.6276
 20
-4.9299
 30
0
 70
     0
  0
VERTEX
  8
VOLVO_FM10__WB_3
 10
-5.1796
 20
-4.7954
 30
0
 70
     0
  0
VERTEX
  8
VOLVO_FM10__WB_3
 10
-4.7272
 20
-4.6718
 30
0
 70
     0
  0
VERTEX
  8
VOLVO_FM10__WB_3
 10
-4.2705
 20
-4.5592
 30
0
 70
     0
  0
VERTEX
  8
VOLVO_FM10__WB_3
 10
-3.8097
 20
-4.4578
 30
0
 70
     0
  0
VERTEX
  8
VOLVO_FM10__WB_3
 10
-3.345
 20
-4.3678
 30
0
 70
     0
  0
VERTEX
  8
VOLVO_FM10__WB_3
 10
-2.8764
 20
-4.2893
 30
0
 70
     0
  0
VERTEX
  8
VOLVO_FM10__WB_3
 10
-2.4043
 20
-4.2224
 30
0
 70
     0
  0
VERTEX
  8
VOLVO_FM10__WB_3
 10
-1.9287
 20
-4.1673
 30
0
 70
     0
  0
VERTEX
  8
VOLVO_FM10__WB_3
 10
-1.4497
 20
-4.1242
 30
0
 70
     0
  0
VERTEX
  8
VOLVO_FM10__WB_3
 10
-0.9676
 20
-4.0933
 30
0
 70
     0
  0
VERTEX
  8
VOLVO_FM10__WB_3
 10
-0.4824
 20
-4.0746
 30
0
 70
     0
  0
VERTEX
  8
VOLVO_FM10__WB_3
 10
0.0056
 20
-4.0683
 30
0
 70
     0
  0
VERTEX
  8
VOLVO_FM10__WB_3
 10
0.0056
 20
-4.0683
 30
0
 70
     0
  0
VERTEX
  8
VOLVO_FM10__WB_3
 10
0.4936
 20
-4.0746
 30
0
 70
     0
  0
VERTEX
  8
VOLVO_FM10__WB_3
 10
0.9788
 20
-4.0933
 30
0
 70
     0
  0
VERTEX
  8
VOLVO_FM10__WB_3
 10
1.4609
 20
-4.1242
 30
0
 70
     0
  0
VERTEX
  8
VOLVO_FM10__WB_3
 10
1.9398
 20
-4.1673
 30
0
 70
     0
  0
VERTEX
  8
VOLVO_FM10__WB_3
 10
2.4155
 20
-4.2224
 30
0
 70
     0
  0
VERTEX
  8
VOLVO_FM10__WB_3
 10
2.8876
 20
-4.2893
 30
0
 70
     0
  0
VERTEX
  8
VOLVO_FM10__WB_3
 10
3.3561
 20
-4.3678
 30
0
 70
     0
  0
VERTEX
  8
VOLVO_FM10__WB_3
 10
3.8209
 20
-4.4578
 30
0
 70
     0
  0
VERTEX
  8
VOLVO_FM10__WB_3
 10
4.2817
 20
-4.5592
 30
0
 70
     0
  0
VERTEX
  8
VOLVO_FM10__WB_3
 10
4.7384
 20
-4.6718
 30
0
 70
     0
  0
VERTEX
  8
VOLVO_FM10__WB_3
 10
5.1908
 20
-4.7954
 30
0
 70
     0
  0
VERTEX
  8
VOLVO_FM10__WB_3
 10
5.6388
 20
-4.9299
 30
0
 70
     0
  0
VERTEX
  8
VOLVO_FM10__WB_3
 10
6.0823
 20
-5.0752
 30
0
 70
     0
  0
VERTEX
  8
VOLVO_FM10__WB_3
 10
6.521
 20
-5.231
 30
0
 70
     0
  0
VERTEX
  8
VOLVO_FM10__WB_3
 10
6.9549
 20
-5.3973
 30
0
 70
     0
  0
VERTEX
  8
VOLVO_FM10__WB_3
 10
7.3838
 20
-5.5738
 30
0
 70
     0
  0
VERTEX
  8
VOLVO_FM10__WB_3
 10
7.8075
 20
-5.7604
 30
0
 70
     0
  0
VERTEX
  8
VOLVO_FM10__WB_3
 10
8.2258
 20
-5.957
 30
0
 70
     0
  0
VERTEX
  8
VOLVO_FM10__WB_3
 10
8.6387
 20
-6.1634
 30
0
 70
     0
  0
VERTEX
  8
VOLVO_FM10__WB_3
 10
9.0459
 20
-6.3795
 30
0
 70
     0
  0
VERTEX
  8
VOLVO_FM10__WB_3
 10
9.4473
 20
-6.605
 30
0
 70
     0
  0
VERTEX
  8
VOLVO_FM10__WB_3
 10
9.8428
 20
-6.8399
 30
0
 70
     0
  0
VERTEX
  8
VOLVO_FM10__WB_3
 10
10.2322
 20
-7.084
 30
0
 70
     0
  0
VERTEX
  8
VOLVO_FM10__WB_3
 10
10.6153
 20
-7.3371
 30
0
 70
     0
  0
VERTEX
  8
VOLVO_FM10__WB_3
 10
10.992
 20
-7.5991
 30
0
 70
     0
  0
VERTEX
  8
VOLVO_FM10__WB_3
 10
11.3622
 20
-7.8699
 30
0
 70
     0
  0
VERTEX
  8
VOLVO_FM10__WB_3
 10
11.7256
 20
-8.1492
 30
0
 70
     0
  0
VERTEX
  8
VOLVO_FM10__WB_3
 10
12.0821
 20
-8.4369
 30
0
 70
     0
  0
VERTEX
  8
VOLVO_FM10__WB_3
 10
12.4317
 20
-8.7329
 30
0
 70
     0
  0
VERTEX
  8
VOLVO_FM10__WB_3
 10
12.774
 20
-9.037
 30
0
 70
     0
  0
VERTEX
  8
VOLVO_FM10__WB_3
 10
13.109
 20
-9.349
 30
0
 70
     0
  0
VERTEX
  8
VOLVO_FM10__WB_3
 10
13.4365
 20
-9.6689
 30
0
 70
     0
  0
VERTEX
  8
VOLVO_FM10__WB_3
 10
13.7563
 20
-9.9964
 30
0
 70
     0
  0
VERTEX
  8
VOLVO_FM10__WB_3
 10
14.0684
 20
-10.3314
 30
0
 70
     0
  0
VERTEX
  8
VOLVO_FM10__WB_3
 10
14.3725
 20
-10.6737
 30
0
 70
     0
  0
VERTEX
  8
VOLVO_FM10__WB_3
 10
14.6685
 20
-11.0232
 30
0
 70
     0
  0
VERTEX
  8
VOLVO_FM10__WB_3
 10
14.9562
 20
-11.3798
 30
0
 70
     0
  0
VERTEX
  8
VOLVO_FM10__WB_3
 10
15.2355
 20
-11.7432
 30
0
 70
     0
  0
VERTEX
  8
VOLVO_FM10__WB_3
 10
15.5062
 20
-12.1133
 30
0
 70
     0
  0
VERTEX
  8
VOLVO_FM10__WB_3
 10
15.7682
 20
-12.49
 30
0
 70
     0
  0
VERTEX
  8
VOLVO_FM10__WB_3
 10
16.0214
 20
-12.8732
 30
0
 70
     0
  0
VERTEX
  8
VOLVO_FM10__WB_3
 10
16.2654
 20
-13.2625
 30
0
 70
     0
  0
VERTEX
  8
VOLVO_FM10__WB_3
 10
16.5003
 20
-13.658
 30
0
 70
     0
  0
VERTEX
  8
VOLVO_FM10__WB_3
 10
16.7259
 20
-14.0595
 30
0
 70
     0
  0
VERTEX
  8
VOLVO_FM10__WB_3
 10
16.942
 20
-14.4667
 30
0
 70
     0
  0
VERTEX
  8
VOLVO_FM10__WB_3
 10
17.1484
 20
-14.8795
 30
0
 70
     0
  0
VERTEX
  8
VOLVO_FM10__WB_3
 10
17.345
 20
-15.2979
 30
0
 70
     0
  0
VERTEX
  8
VOLVO_FM10__WB_3
 10
17.5316
 20
-15.7216
 30
0
 70
     0
  0
VERTEX
  8
VOLVO_FM10__WB_3
 10
17.7081
 20
-16.1504
 30
0
 70
     0
  0
VERTEX
  8
VOLVO_FM10__WB_3
 10
17.8744
 20
-16.5843
 30
0
 70
     0
  0
VERTEX
  8
VOLVO_FM10__WB_3
 10
18.0302
 20
-17.0231
 30
0
 70
     0
  0
VERTEX
  8
VOLVO_FM10__WB_3
 10
18.1754
 20
-17.4666
 30
0
 70
     0
  0
VERTEX
  8
VOLVO_FM10__WB_3
 10
18.3099
 20
-17.9146
 30
0
 70
     0
  0
VERTEX
  8
VOLVO_FM10__WB_3
 10
18.4336
 20
-18.367
 30
0
 70
     0
  0
VERTEX
  8
VOLVO_FM10__WB_3
 10
18.5462
 20
-18.8237
 30
0
 70
     0
  0
VERTEX
  8
VOLVO_FM10__WB_3
 10
18.6475
 20
-19.2845
 30
0
 70
     0
  0
VERTEX
  8
VOLVO_FM10__WB_3
 10
18.7376
 20
-19.7492
 30
0
 70
     0
  0
VERTEX
  8
VOLVO_FM10__WB_3
 10
18.8161
 20
-20.2177
 30
0
 70
     0
  0
VERTEX
  8
VOLVO_FM10__WB_3
 10
18.883
 20
-20.6899
 30
0
 70
     0
  0
VERTEX
  8
VOLVO_FM10__WB_3
 10
18.9381
 20
-21.1655
 30
0
 70
     0
  0
VERTEX
  8
VOLVO_FM10__WB_3
 10
18.9811
 20
-21.6445
 30
0
 70
     0
  0
VERTEX
  8
VOLVO_FM10__WB_3
 10
19.0121
 20
-22.1266
 30
0
 70
     0
  0
VERTEX
  8
VOLVO_FM10__WB_3
 10
19.0308
 20
-22.6118
 30
0
 70
     0
  0
VERTEX
  8
VOLVO_FM10__WB_3
 10
19.0371
 20
-23.0998
 30
0
 70
     0
  0
VERTEX
  8
VOLVO_FM10__WB_3
 10
19.0371
 20
-23.0998
 30
0
 70
     0
  0
VERTEX
  8
VOLVO_FM10__WB_3
 10
19.0308
 20
-23.5878
 30
0
 70
     0
  0
VERTEX
  8
VOLVO_FM10__WB_3
 10
19.0121
 20
-24.0729
 30
0
 70
     0
  0
VERTEX
  8
VOLVO_FM10__WB_3
 10
18.9811
 20
-24.5551
 30
0
 70
     0
  0
VERTEX
  8
VOLVO_FM10__WB_3
 10
18.9381
 20
-25.034
 30
0
 70
     0
  0
VERTEX
  8
VOLVO_FM10__WB_3
 10
18.883
 20
-25.5097
 30
0
 70
     0
  0
VERTEX
  8
VOLVO_FM10__WB_3
 10
18.8161
 20
-25.9818
 30
0
 70
     0
  0
VERTEX
  8
VOLVO_FM10__WB_3
 10
18.7376
 20
-26.4503
 30
0
 70
     0
  0
VERTEX
  8
VOLVO_FM10__WB_3
 10
18.6475
 20
-26.9151
 30
0
 70
     0
  0
VERTEX
  8
VOLVO_FM10__WB_3
 10
18.5462
 20
-27.3759
 30
0
 70
     0
  0
VERTEX
  8
VOLVO_FM10__WB_3
 10
18.4336
 20
-27.8325
 30
0
 70
     0
  0
VERTEX
  8
VOLVO_FM10__WB_3
 10
18.3099
 20
-28.285
 30
0
 70
     0
  0
VERTEX
  8
VOLVO_FM10__WB_3
 10
18.1754
 20
-28.733
 30
0
 70
     0
  0
VERTEX
  8
VOLVO_FM10__WB_3
 10
18.0302
 20
-29.1765
 30
0
 70
     0
  0
VERTEX
  8
VOLVO_FM10__WB_3
 10
17.8744
 20
-29.6152
 30
0
 70
     0
  0
VERTEX
  8
VOLVO_FM10__WB_3
 10
17.7081
 20
-30.0491
 30
0
 70
     0
  0
VERTEX
  8
VOLVO_FM10__WB_3
 10
17.5316
 20
-30.478
 30
0
 70
     0
  0
VERTEX
  8
VOLVO_FM10__WB_3
 10
17.345
 20
-30.9017
 30
0
 70
     0
  0
VERTEX
  8
VOLVO_FM10__WB_3
 10
17.1484
 20
-31.32
 30
0
 70
     0
  0
VERTEX
  8
VOLVO_FM10__WB_3
 10
16.942
 20
-31.7329
 30
0
 70
     0
  0
VERTEX
  8
VOLVO_FM10__WB_3
 10
16.7259
 20
-32.1401
 30
0
 70
     0
  0
VERTEX
  8
VOLVO_FM10__WB_3
 10
16.5003
 20
-32.5415
 30
0
 70
     0
  0
VERTEX
  8
VOLVO_FM10__WB_3
 10
16.2654
 20
-32.937
 30
0
 70
     0
  0
VERTEX
  8
VOLVO_FM10__WB_3
 10
16.0214
 20
-33.3264
 30
0
 70
     0
  0
VERTEX
  8
VOLVO_FM10__WB_3
 10
15.7682
 20
-33.7095
 30
0
 70
     0
  0
VERTEX
  8
VOLVO_FM10__WB_3
 10
15.5062
 20
-34.0862
 30
0
 70
     0
  0
VERTEX
  8
VOLVO_FM10__WB_3
 10
15.2355
 20
-34.4564
 30
0
 70
     0
  0
VERTEX
  8
VOLVO_FM10__WB_3
 10
14.9562
 20
-34.8198
 30
0
 70
     0
  0
VERTEX
  8
VOLVO_FM10__WB_3
 10
14.6685
 20
-35.1763
 30
0
 70
     0
  0
VERTEX
  8
VOLVO_FM10__WB_3
 10
14.3725
 20
-35.5258
 30
0
 70
     0
  0
VERTEX
  8
VOLVO_FM10__WB_3
 10
14.0684
 20
-35.8682
 30
0
 70
     0
  0
VERTEX
  8
VOLVO_FM10__WB_3
 10
13.7563
 20
-36.2032
 30
0
 70
     0
  0
VERTEX
  8
VOLVO_FM10__WB_3
 10
13.4365
 20
-36.5307
 30
0
 70
     0
  0
VERTEX
  8
VOLVO_FM10__WB_3
 10
13.109
 20
-36.8505
 30
0
 70
     0
  0
VERTEX
  8
VOLVO_FM10__WB_3
 10
12.774
 20
-37.1626
 30
0
 70
     0
  0
VERTEX
  8
VOLVO_FM10__WB_3
 10
12.4317
 20
-37.4667
 30
0
 70
     0
  0
VERTEX
  8
VOLVO_FM10__WB_3
 10
12.0821
 20
-37.7627
 30
0
 70
     0
  0
VERTEX
  8
VOLVO_FM10__WB_3
 10
11.7256
 20
-38.0504
 30
0
 70
     0
  0
VERTEX
  8
VOLVO_FM10__WB_3
 10
11.3622
 20
-38.3297
 30
0
 70
     0
  0
VERTEX
  8
VOLVO_FM10__WB_3
 10
10.992
 20
-38.6004
 30
0
 70
     0
  0
VERTEX
  8
VOLVO_FM10__WB_3
 10
10.6153
 20
-38.8624
 30
0
 70
     0
  0
VERTEX
  8
VOLVO_FM10__WB_3
 10
10.2322
 20
-39.1156
 30
0
 70
     0
  0
VERTEX
  8
VOLVO_FM10__WB_3
 10
9.8428
 20
-39.3596
 30
0
 70
     0
  0
VERTEX
  8
VOLVO_FM10__WB_3
 10
9.4473
 20
-39.5945
 30
0
 70
     0
  0
VERTEX
  8
VOLVO_FM10__WB_3
 10
9.0459
 20
-39.8201
 30
0
 70
     0
  0
VERTEX
  8
VOLVO_FM10__WB_3
 10
8.6387
 20
-40.0362
 30
0
 70
     0
  0
VERTEX
  8
VOLVO_FM10__WB_3
 10
8.2258
 20
-40.2426
 30
0
 70
     0
  0
VERTEX
  8
VOLVO_FM10__WB_3
 10
7.8075
 20
-40.4392
 30
0
 70
     0
  0
VERTEX
  8
VOLVO_FM10__WB_3
 10
7.3838
 20
-40.6258
 30
0
 70
     0
  0
VERTEX
  8
VOLVO_FM10__WB_3
 10
6.9549
 20
-40.8023
 30
0
 70
     0
  0
VERTEX
  8
VOLVO_FM10__WB_3
 10
6.521
 20
-40.9686
 30
0
 70
     0
  0
VERTEX
  8
VOLVO_FM10__WB_3
 10
6.0823
 20
-41.1244
 30
0
 70
     0
  0
VERTEX
  8
VOLVO_FM10__WB_3
 10
5.6388
 20
-41.2696
 30
0
 70
     0
  0
VERTEX
  8
VOLVO_FM10__WB_3
 10
5.1908
 20
-41.4041
 30
0
 70
     0
  0
VERTEX
  8
VOLVO_FM10__WB_3
 10
4.7384
 20
-41.5278
 30
0
 70
     0
  0
VERTEX
  8
VOLVO_FM10__WB_3
 10
4.2817
 20
-41.6403
 30
0
 70
     0
  0
VERTEX
  8
VOLVO_FM10__WB_3
 10
3.8209
 20
-41.7417
 30
0
 70
     0
  0
VERTEX
  8
VOLVO_FM10__WB_3
 10
3.3561
 20
-41.8318
 30
0
 70
     0
  0
VERTEX
  8
VOLVO_FM10__WB_3
 10
2.8876
 20
-41.9103
 30
0
 70
     0
  0
VERTEX
  8
VOLVO_FM10__WB_3
 10
2.4155
 20
-41.9772
 30
0
 70
     0
  0
VERTEX
  8
VOLVO_FM10__WB_3
 10
1.9398
 20
-42.0322
 30
0
 70
     0
  0
VERTEX
  8
VOLVO_FM10__WB_3
 10
1.4609
 20
-42.0753
 30
0
 70
     0
  0
VERTEX
  8
VOLVO_FM10__WB_3
 10
0.9788
 20
-42.1063
 30
0
 70
     0
  0
VERTEX
  8
VOLVO_FM10__WB_3
 10
0.4936
 20
-42.125
 30
0
 70
     0
  0
VERTEX
  8
VOLVO_FM10__WB_3
 10
0.0056
 20
-42.1313
 30
0
 70
     0
  0
VERTEX
  8
VOLVO_FM10__WB_3
 10
0.0056
 20
-42.1313
 30
0
 70
     0
  0
VERTEX
  8
VOLVO_FM10__WB_3
 10
-0.4824
 20
-42.125
 30
0
 70
     0
  0
VERTEX
  8
VOLVO_FM10__WB_3
 10
-0.9676
 20
-42.1063
 30
0
 70
     0
  0
VERTEX
  8
VOLVO_FM10__WB_3
 10
-1.4497
 20
-42.0753
 30
0
 70
     0
  0
VERTEX
  8
VOLVO_FM10__WB_3
 10
-1.9287
 20
-42.0322
 30
0
 70
     0
  0
VERTEX
  8
VOLVO_FM10__WB_3
 10
-2.4043
 20
-41.9772
 30
0
 70
     0
  0
VERTEX
  8
VOLVO_FM10__WB_3
 10
-2.8764
 20
-41.9103
 30
0
 70
     0
  0
VERTEX
  8
VOLVO_FM10__WB_3
 10
-3.345
 20
-41.8318
 30
0
 70
     0
  0
VERTEX
  8
VOLVO_FM10__WB_3
 10
-3.8097
 20
-41.7417
 30
0
 70
     0
  0
VERTEX
  8
VOLVO_FM10__WB_3
 10
-4.2705
 20
-41.6403
 30
0
 70
     0
  0
VERTEX
  8
VOLVO_FM10__WB_3
 10
-4.7272
 20
-41.5278
 30
0
 70
     0
  0
VERTEX
  8
VOLVO_FM10__WB_3
 10
-5.1796
 20
-41.4041
 30
0
 70
     0
  0
VERTEX
  8
VOLVO_FM10__WB_3
 10
-5.6276
 20
-41.2696
 30
0
 70
     0
  0
VERTEX
  8
VOLVO_FM10__WB_3
 10
-6.0711
 20
-41.1244
 30
0
 70
     0
  0
VERTEX
  8
VOLVO_FM10__WB_3
 10
-6.5099
 20
-40.9686
 30
0
 70
     0
  0
VERTEX
  8
VOLVO_FM10__WB_3
 10
-6.9438
 20
-40.8023
 30
0
 70
     0
  0
VERTEX
  8
VOLVO_FM10__WB_3
 10
-7.3726
 20
-40.6258
 30
0
 70
     0
  0
VERTEX
  8
VOLVO_FM10__WB_3
 10
-7.7963
 20
-40.4392
 30
0
 70
     0
  0
VERTEX
  8
VOLVO_FM10__WB_3
 10
-8.2146
 20
-40.2426
 30
0
 70
     0
  0
VERTEX
  8
VOLVO_FM10__WB_3
 10
-8.6275
 20
-40.0362
 30
0
 70
     0
  0
VERTEX
  8
VOLVO_FM10__WB_3
 10
-9.0347
 20
-39.8201
 30
0
 70
     0
  0
VERTEX
  8
VOLVO_FM10__WB_3
 10
-9.4362
 20
-39.5945
 30
0
 70
     0
  0
VERTEX
  8
VOLVO_FM10__WB_3
 10
-9.8317
 20
-39.3596
 30
0
 70
     0
  0
VERTEX
  8
VOLVO_FM10__WB_3
 10
-10.221
 20
-39.1156
 30
0
 70
     0
  0
VERTEX
  8
VOLVO_FM10__WB_3
 10
-10.6041
 20
-38.8624
 30
0
 70
     0
  0
VERTEX
  8
VOLVO_FM10__WB_3
 10
-10.9809
 20
-38.6004
 30
0
 70
     0
  0
VERTEX
  8
VOLVO_FM10__WB_3
 10
-11.351
 20
-38.3297
 30
0
 70
     0
  0
VERTEX
  8
VOLVO_FM10__WB_3
 10
-11.7144
 20
-38.0504
 30
0
 70
     0
  0
VERTEX
  8
VOLVO_FM10__WB_3
 10
-12.071
 20
-37.7627
 30
0
 70
     0
  0
VERTEX
  8
VOLVO_FM10__WB_3
 10
-12.4205
 20
-37.4667
 30
0
 70
     0
  0
VERTEX
  8
VOLVO_FM10__WB_3
 10
-12.7628
 20
-37.1626
 30
0
 70
     0
  0
VERTEX
  8
VOLVO_FM10__WB_3
 10
-13.0978
 20
-36.8505
 30
0
 70
     0
  0
VERTEX
  8
VOLVO_FM10__WB_3
 10
-13.4253
 20
-36.5307
 30
0
 70
     0
  0
VERTEX
  8
VOLVO_FM10__WB_3
 10
-13.7452
 20
-36.2032
 30
0
 70
     0
  0
VERTEX
  8
VOLVO_FM10__WB_3
 10
-14.0572
 20
-35.8682
 30
0
 70
     0
  0
VERTEX
  8
VOLVO_FM10__WB_3
 10
-14.3613
 20
-35.5258
 30
0
 70
     0
  0
VERTEX
  8
VOLVO_FM10__WB_3
 10
-14.6573
 20
-35.1763
 30
0
 70
     0
  0
VERTEX
  8
VOLVO_FM10__WB_3
 10
-14.945
 20
-34.8198
 30
0
 70
     0
  0
VERTEX
  8
VOLVO_FM10__WB_3
 10
-15.2243
 20
-34.4564
 30
0
 70
     0
  0
VERTEX
  8
VOLVO_FM10__WB_3
 10
-15.495
 20
-34.0862
 30
0
 70
     0
  0
VERTEX
  8
VOLVO_FM10__WB_3
 10
-15.7571
 20
-33.7095
 30
0
 70
     0
  0
VERTEX
  8
VOLVO_FM10__WB_3
 10
-16.0102
 20
-33.3264
 30
0
 70
     0
  0
VERTEX
  8
VOLVO_FM10__WB_3
 10
-16.2543
 20
-32.937
 30
0
 70
     0
  0
VERTEX
  8
VOLVO_FM10__WB_3
 10
-16.4892
 20
-32.5415
 30
0
 70
     0
  0
VERTEX
  8
VOLVO_FM10__WB_3
 10
-16.7147
 20
-32.1401
 30
0
 70
     0
  0
VERTEX
  8
VOLVO_FM10__WB_3
 10
-16.9308
 20
-31.7329
 30
0
 70
     0
  0
VERTEX
  8
VOLVO_FM10__WB_3
 10
-17.1372
 20
-31.32
 30
0
 70
     0
  0
VERTEX
  8
VOLVO_FM10__WB_3
 10
-17.3338
 20
-30.9017
 30
0
 70
     0
  0
VERTEX
  8
VOLVO_FM10__WB_3
 10
-17.5204
 20
-30.478
 30
0
 70
     0
  0
VERTEX
  8
VOLVO_FM10__WB_3
 10
-17.6969
 20
-30.0491
 30
0
 70
     0
  0
VERTEX
  8
VOLVO_FM10__WB_3
 10
-17.8632
 20
-29.6152
 30
0
 70
     0
  0
VERTEX
  8
VOLVO_FM10__WB_3
 10
-18.019
 20
-29.1765
 30
0
 70
     0
  0
VERTEX
  8
VOLVO_FM10__WB_3
 10
-18.1643
 20
-28.733
 30
0
 70
     0
  0
VERTEX
  8
VOLVO_FM10__WB_3
 10
-18.2988
 20
-28.285
 30
0
 70
     0
  0
VERTEX
  8
VOLVO_FM10__WB_3
 10
-18.4224
 20
-27.8325
 30
0
 70
     0
  0
VERTEX
  8
VOLVO_FM10__WB_3
 10
-18.535
 20
-27.3759
 30
0
 70
     0
  0
VERTEX
  8
VOLVO_FM10__WB_3
 10
-18.6364
 20
-26.9151
 30
0
 70
     0
  0
VERTEX
  8
VOLVO_FM10__WB_3
 10
-18.7264
 20
-26.4503
 30
0
 70
     0
  0
VERTEX
  8
VOLVO_FM10__WB_3
 10
-18.8049
 20
-25.9818
 30
0
 70
     0
  0
VERTEX
  8
VOLVO_FM10__WB_3
 10
-18.8718
 20
-25.5097
 30
0
 70
     0
  0
VERTEX
  8
VOLVO_FM10__WB_3
 10
-18.9269
 20
-25.034
 30
0
 70
     0
  0
VERTEX
  8
VOLVO_FM10__WB_3
 10
-18.97
 20
-24.5551
 30
0
 70
     0
  0
VERTEX
  8
VOLVO_FM10__WB_3
 10
-19.0009
 20
-24.0729
 30
0
 70
     0
  0
VERTEX
  8
VOLVO_FM10__WB_3
 10
-19.0196
 20
-23.5878
 30
0
 70
     0
  0
VERTEX
  8
VOLVO_FM10__WB_3
 10
-19.0259
 20
-23.0998
 30
0
 70
     0
  0
SEQEND
  0
POLYLINE
  8
VOLVO_FM10__WB_3
  6
CONTINUOUS
 62
     7
 66
     1
 40
0.0139
 41
0.0139
  0
VERTEX
  8
VOLVO_FM10__WB_3
 10
-45.8606
 20
-31.5014
 30
0
 70
     0
  0
VERTEX
  8
VOLVO_FM10__WB_3
 10
-53.7346
 20
-31.5014
 30
0
 70
     0
  0
SEQEND
  0
POLYLINE
  8
VOLVO_FM10__WB_3
  6
CONTINUOUS
 62
     7
 66
     1
 40
0.0139
 41
0.0139
  0
VERTEX
  8
VOLVO_FM10__WB_3
 10
-53.7346
 20
-31.5014
 30
0
 70
     0
  0
VERTEX
  8
VOLVO_FM10__WB_3
 10
-53.7346
 20
-29.7297
 30
0
 70
     0
  0
SEQEND
  0
POLYLINE
  8
VOLVO_FM10__WB_3
  6
CONTINUOUS
 62
     7
 66
     1
 40
0.0139
 41
0.0139
  0
VERTEX
  8
VOLVO_FM10__WB_3
 10
-29.1272
 20
59.9947
 30
0
 70
     0
  0
VERTEX
  8
VOLVO_FM10__WB_3
 10
-16.0292
 20
59.9947
 30
0
 70
     0
  0
SEQEND
  0
POLYLINE
  8
VOLVO_FM10__WB_3
  6
CONTINUOUS
 62
     7
 66
     1
 40
0.0139
 41
0.0139
  0
VERTEX
  8
VOLVO_FM10__WB_3
 10
-53.0793
 20
16.8531
 30
0
 70
     0
  0
VERTEX
  8
VOLVO_FM10__WB_3
 10
-36.346
 20
55.2654
 30
0
 70
     0
  0
SEQEND
  0
POLYLINE
  8
VOLVO_FM10__WB_3
  6
CONTINUOUS
 62
     7
 66
     1
 40
0.0139
 41
0.0139
  0
VERTEX
  8
VOLVO_FM10__WB_3
 10
-49.7976
 20
-6.2061
 30
0
 70
     0
  0
VERTEX
  8
VOLVO_FM10__WB_3
 10
-53.7346
 20
-6.2061
 30
0
 70
     0
  0
SEQEND
  0
POLYLINE
  8
VOLVO_FM10__WB_3
  6
CONTINUOUS
 62
     7
 66
     1
 40
0.0139
 41
0.0139
  0
VERTEX
  8
VOLVO_FM10__WB_3
 10
-49.7976
 20
-16.0486
 30
0
 70
     0
  0
VERTEX
  8
VOLVO_FM10__WB_3
 10
-49.7976
 20
-6.2061
 30
0
 70
     0
  0
SEQEND
  0
POLYLINE
  8
VOLVO_FM10__WB_3
  6
CONTINUOUS
 62
     7
 66
     1
 40
0.0139
 41
0.0139
  0
VERTEX
  8
VOLVO_FM10__WB_3
 10
-53.7346
 20
-29.7297
 30
0
 70
     0
  0
VERTEX
  8
VOLVO_FM10__WB_3
 10
-53.7346
 20
-27.7612
 30
0
 70
     0
  0
SEQEND
  0
POLYLINE
  8
VOLVO_FM10__WB_3
  6
CONTINUOUS
 62
     7
 66
     1
 40
0.0139
 41
0.0139
  0
VERTEX
  8
VOLVO_FM10__WB_3
 10
-53.7346
 20
-29.7297
 30
0
 70
     0
  0
VERTEX
  8
VOLVO_FM10__WB_3
 10
-50.7818
 20
-29.7297
 30
0
 70
     0
  0
SEQEND
  0
POLYLINE
  8
VOLVO_FM10__WB_3
  6
CONTINUOUS
 62
     7
 66
     1
 40
0.0139
 41
0.0139
  0
VERTEX
  8
VOLVO_FM10__WB_3
 10
-50.7818
 20
-21.8557
 30
0
 70
     0
  0
VERTEX
  8
VOLVO_FM10__WB_3
 10
-53.7346
 20
-21.8557
 30
0
 70
     0
  0
SEQEND
  0
POLYLINE
  8
VOLVO_FM10__WB_3
  6
CONTINUOUS
 62
     7
 66
     1
 40
0.0139
 41
0.0139
  0
VERTEX
  8
VOLVO_FM10__WB_3
 10
-50.7818
 20
-29.7297
 30
0
 70
     0
  0
VERTEX
  8
VOLVO_FM10__WB_3
 10
-50.7818
 20
-21.8557
 30
0
 70
     0
  0
SEQEND
  0
POLYLINE
  8
VOLVO_FM10__WB_3
  6
CONTINUOUS
 62
     7
 66
     1
 40
0.0139
 41
0.0139
  0
VERTEX
  8
VOLVO_FM10__WB_3
 10
-53.7346
 20
-16.0486
 30
0
 70
     0
  0
VERTEX
  8
VOLVO_FM10__WB_3
 10
-49.7976
 20
-16.0486
 30
0
 70
     0
  0
SEQEND
  0
POLYLINE
  8
VOLVO_FM10__WB_3
  6
CONTINUOUS
 62
     7
 66
     1
 40
0.0139
 41
0.0139
  0
VERTEX
  8
VOLVO_FM10__WB_3
 10
-53.7346
 20
-8.1746
 30
0
 70
     0
  0
VERTEX
  8
VOLVO_FM10__WB_3
 10
-53.7346
 20
-6.2061
 30
0
 70
     0
  0
SEQEND
  0
POLYLINE
  8
VOLVO_FM10__WB_3
  6
CONTINUOUS
 62
     7
 66
     1
 40
0.0139
 41
0.0139
  0
VERTEX
  8
VOLVO_FM10__WB_3
 10
-53.7346
 20
-16.0486
 30
0
 70
     0
  0
VERTEX
  8
VOLVO_FM10__WB_3
 10
-53.7346
 20
-14.0801
 30
0
 70
     0
  0
SEQEND
  0
POLYLINE
  8
VOLVO_FM10__WB_3
  6
CONTINUOUS
 62
     7
 66
     1
 40
0.0139
 41
0.0139
  0
VERTEX
  8
VOLVO_FM10__WB_3
 10
-53.7346
 20
-23.8242
 30
0
 70
     0
  0
VERTEX
  8
VOLVO_FM10__WB_3
 10
-53.7346
 20
-21.8557
 30
0
 70
     0
  0
SEQEND
  0
POLYLINE
  8
VOLVO_FM10__WB_3
  6
CONTINUOUS
 62
     7
 66
     1
 40
0.0139
 41
0.0139
  0
VERTEX
  8
VOLVO_FM10__WB_3
 10
-52.7503
 20
-14.0801
 30
0
 70
     0
  0
VERTEX
  8
VOLVO_FM10__WB_3
 10
-52.7503
 20
-8.1746
 30
0
 70
     0
  0
SEQEND
  0
POLYLINE
  8
VOLVO_FM10__WB_3
  6
CONTINUOUS
 62
     7
 66
     1
 40
0.0139
 41
0.0139
  0
VERTEX
  8
VOLVO_FM10__WB_3
 10
-52.7503
 20
-27.7612
 30
0
 70
     0
  0
VERTEX
  8
VOLVO_FM10__WB_3
 10
-52.7503
 20
-23.8242
 30
0
 70
     0
  0
SEQEND
  0
POLYLINE
  8
VOLVO_FM10__WB_3
  6
CONTINUOUS
 62
     7
 66
     1
 40
0.0139
 41
0.0139
  0
VERTEX
  8
VOLVO_FM10__WB_3
 10
-37.9554
 20
28.516
 30
0
 70
     0
  0
VERTEX
  8
VOLVO_FM10__WB_3
 10
-37.947
 20
28.602
 30
0
 70
     0
  0
VERTEX
  8
VOLVO_FM10__WB_3
 10
-37.9201
 20
28.6899
 30
0
 70
     0
  0
VERTEX
  8
VOLVO_FM10__WB_3
 10
-37.8734
 20
28.7745
 30
0
 70
     0
  0
VERTEX
  8
VOLVO_FM10__WB_3
 10
-37.8081
 20
28.8501
 30
0
 70
     0
  0
VERTEX
  8
VOLVO_FM10__WB_3
 10
-37.7277
 20
28.9114
 30
0
 70
     0
  0
VERTEX
  8
VOLVO_FM10__WB_3
 10
-37.6377
 20
28.9553
 30
0
 70
     0
  0
VERTEX
  8
VOLVO_FM10__WB_3
 10
-37.5441
 20
28.9805
 30
0
 70
     0
  0
VERTEX
  8
VOLVO_FM10__WB_3
 10
-37.4526
 20
28.9884
 30
0
 70
     0
  0
SEQEND
  0
POLYLINE
  8
VOLVO_FM10__WB_3
  6
CONTINUOUS
 62
     7
 66
     1
 40
0.0139
 41
0.0139
  0
VERTEX
  8
VOLVO_FM10__WB_3
 10
-37.4526
 20
28.0042
 30
0
 70
     0
  0
VERTEX
  8
VOLVO_FM10__WB_3
 10
-37.5441
 20
28.0121
 30
0
 70
     0
  0
VERTEX
  8
VOLVO_FM10__WB_3
 10
-37.6377
 20
28.0374
 30
0
 70
     0
  0
VERTEX
  8
VOLVO_FM10__WB_3
 10
-37.7277
 20
28.0812
 30
0
 70
     0
  0
VERTEX
  8
VOLVO_FM10__WB_3
 10
-37.8081
 20
28.1426
 30
0
 70
     0
  0
VERTEX
  8
VOLVO_FM10__WB_3
 10
-37.8734
 20
28.2181
 30
0
 70
     0
  0
VERTEX
  8
VOLVO_FM10__WB_3
 10
-37.9201
 20
28.3027
 30
0
 70
     0
  0
VERTEX
  8
VOLVO_FM10__WB_3
 10
-37.947
 20
28.3907
 30
0
 70
     0
  0
VERTEX
  8
VOLVO_FM10__WB_3
 10
-37.9554
 20
28.4766
 30
0
 70
     0
  0
SEQEND
  0
POLYLINE
  8
VOLVO_FM10__WB_3
  6
CONTINUOUS
 62
     7
 66
     1
 40
0.0139
 41
0.0139
  0
VERTEX
  8
VOLVO_FM10__WB_3
 10
-37.9554
 20
28.4766
 30
0
 70
     0
  0
VERTEX
  8
VOLVO_FM10__WB_3
 10
-37.9554
 20
28.516
 30
0
 70
     0
  0
SEQEND
  0
POLYLINE
  8
VOLVO_FM10__WB_3
  6
CONTINUOUS
 62
     7
 66
     1
 40
0.0139
 41
0.0139
  0
VERTEX
  8
VOLVO_FM10__WB_3
 10
-37.8918
 20
33.4778
 30
0
 70
     0
  0
VERTEX
  8
VOLVO_FM10__WB_3
 10
-37.8797
 20
33.389
 30
0
 70
     0
  0
VERTEX
  8
VOLVO_FM10__WB_3
 10
-37.8525
 20
33.3059
 30
0
 70
     0
  0
VERTEX
  8
VOLVO_FM10__WB_3
 10
-37.8117
 20
33.2299
 30
0
 70
     0
  0
VERTEX
  8
VOLVO_FM10__WB_3
 10
-37.7587
 20
33.1626
 30
0
 70
     0
  0
VERTEX
  8
VOLVO_FM10__WB_3
 10
-37.6948
 20
33.1054
 30
0
 70
     0
  0
VERTEX
  8
VOLVO_FM10__WB_3
 10
-37.6216
 20
33.0599
 30
0
 70
     0
  0
VERTEX
  8
VOLVO_FM10__WB_3
 10
-37.5403
 20
33.0276
 30
0
 70
     0
  0
VERTEX
  8
VOLVO_FM10__WB_3
 10
-37.4525
 20
33.0099
 30
0
 70
     0
  0
SEQEND
  0
POLYLINE
  8
VOLVO_FM10__WB_3
  6
CONTINUOUS
 62
     7
 66
     1
 40
0.0139
 41
0.0139
  0
VERTEX
  8
VOLVO_FM10__WB_3
 10
-15.1073
 20
64.294
 30
0
 70
     0
  0
VERTEX
  8
VOLVO_FM10__WB_3
 10
-15.3169
 20
64.2499
 30
0
 70
     0
  0
VERTEX
  8
VOLVO_FM10__WB_3
 10
-15.5187
 20
64.1881
 30
0
 70
     0
  0
VERTEX
  8
VOLVO_FM10__WB_3
 10
-15.7119
 20
64.1094
 30
0
 70
     0
  0
VERTEX
  8
VOLVO_FM10__WB_3
 10
-15.8957
 20
64.0149
 30
0
 70
     0
  0
VERTEX
  8
VOLVO_FM10__WB_3
 10
-16.0694
 20
63.9053
 30
0
 70
     0
  0
VERTEX
  8
VOLVO_FM10__WB_3
 10
-16.2321
 20
63.7817
 30
0
 70
     0
  0
VERTEX
  8
VOLVO_FM10__WB_3
 10
-16.383
 20
63.645
 30
0
 70
     0
  0
VERTEX
  8
VOLVO_FM10__WB_3
 10
-16.5215
 20
63.496
 30
0
 70
     0
  0
VERTEX
  8
VOLVO_FM10__WB_3
 10
-16.6467
 20
63.3357
 30
0
 70
     0
  0
VERTEX
  8
VOLVO_FM10__WB_3
 10
-16.7578
 20
63.165
 30
0
 70
     0
  0
VERTEX
  8
VOLVO_FM10__WB_3
 10
-16.8541
 20
62.9847
 30
0
 70
     0
  0
VERTEX
  8
VOLVO_FM10__WB_3
 10
-16.9348
 20
62.7959
 30
0
 70
     0
  0
VERTEX
  8
VOLVO_FM10__WB_3
 10
-16.9991
 20
62.5995
 30
0
 70
     0
  0
VERTEX
  8
VOLVO_FM10__WB_3
 10
-17.0461
 20
62.3963
 30
0
 70
     0
  0
VERTEX
  8
VOLVO_FM10__WB_3
 10
-17.0753
 20
62.1872
 30
0
 70
     0
  0
VERTEX
  8
VOLVO_FM10__WB_3
 10
-17.0856
 20
61.9732
 30
0
 70
     0
  0
SEQEND
  0
POLYLINE
  8
VOLVO_FM10__WB_3
  6
CONTINUOUS
 62
     7
 66
     1
 40
0.0139
 41
0.0139
  0
VERTEX
  8
VOLVO_FM10__WB_3
 10
14.5026
 20
67.8297
 30
0
 70
     0
  0
VERTEX
  8
VOLVO_FM10__WB_3
 10
14.3358
 20
67.9578
 30
0
 70
     0
  0
VERTEX
  8
VOLVO_FM10__WB_3
 10
14.1633
 20
68.0763
 30
0
 70
     0
  0
VERTEX
  8
VOLVO_FM10__WB_3
 10
13.9856
 20
68.185
 30
0
 70
     0
  0
VERTEX
  8
VOLVO_FM10__WB_3
 10
13.8029
 20
68.2838
 30
0
 70
     0
  0
VERTEX
  8
VOLVO_FM10__WB_3
 10
13.6157
 20
68.3726
 30
0
 70
     0
  0
VERTEX
  8
VOLVO_FM10__WB_3
 10
13.4246
 20
68.4512
 30
0
 70
     0
  0
VERTEX
  8
VOLVO_FM10__WB_3
 10
13.2298
 20
68.5196
 30
0
 70
     0
  0
VERTEX
  8
VOLVO_FM10__WB_3
 10
13.0318
 20
68.5777
 30
0
 70
     0
  0
VERTEX
  8
VOLVO_FM10__WB_3
 10
12.831
 20
68.6253
 30
0
 70
     0
  0
VERTEX
  8
VOLVO_FM10__WB_3
 10
12.6279
 20
68.6623
 30
0
 70
     0
  0
VERTEX
  8
VOLVO_FM10__WB_3
 10
12.4228
 20
68.6887
 30
0
 70
     0
  0
VERTEX
  8
VOLVO_FM10__WB_3
 10
12.2163
 20
68.7042
 30
0
 70
     0
  0
VERTEX
  8
VOLVO_FM10__WB_3
 10
12.0087
 20
68.7088
 30
0
 70
     0
  0
VERTEX
  8
VOLVO_FM10__WB_3
 10
11.8004
 20
68.7024
 30
0
 70
     0
  0
VERTEX
  8
VOLVO_FM10__WB_3
 10
11.5919
 20
68.6849
 30
0
 70
     0
  0
VERTEX
  8
VOLVO_FM10__WB_3
 10
11.3835
 20
68.6561
 30
0
 70
     0
  0
SEQEND
  0
POLYLINE
  8
VOLVO_FM10__WB_3
  6
CONTINUOUS
 62
     7
 66
     1
 40
0.0139
 41
0.0139
  0
VERTEX
  8
VOLVO_FM10__WB_3
 10
17.2891
 20
-0.0053
 30
0
 70
     0
  0
VERTEX
  8
VOLVO_FM10__WB_3
 10
15.3206
 20
-0.0053
 30
0
 70
     0
  0
SEQEND
  0
POLYLINE
  8
VOLVO_FM10__WB_3
  6
CONTINUOUS
 62
     7
 66
     1
 40
0.0139
 41
0.0139
  0
VERTEX
  8
VOLVO_FM10__WB_3
 10
17.2891
 20
35.4278
 30
0
 70
     0
  0
VERTEX
  8
VOLVO_FM10__WB_3
 10
17.2891
 20
-0.0053
 30
0
 70
     0
  0
SEQEND
  0
POLYLINE
  8
VOLVO_FM10__WB_3
  6
CONTINUOUS
 62
     7
 66
     1
 40
0.0139
 41
0.0139
  0
VERTEX
  8
VOLVO_FM10__WB_3
 10
15.9562
 20
64.949
 30
0
 70
     0
  0
VERTEX
  8
VOLVO_FM10__WB_3
 10
15.9413
 20
65.1588
 30
0
 70
     0
  0
VERTEX
  8
VOLVO_FM10__WB_3
 10
15.9153
 20
65.3664
 30
0
 70
     0
  0
VERTEX
  8
VOLVO_FM10__WB_3
 10
15.8785
 20
65.5715
 30
0
 70
     0
  0
VERTEX
  8
VOLVO_FM10__WB_3
 10
15.831
 20
65.7737
 30
0
 70
     0
  0
VERTEX
  8
VOLVO_FM10__WB_3
 10
15.7731
 20
65.9726
 30
0
 70
     0
  0
VERTEX
  8
VOLVO_FM10__WB_3
 10
15.7049
 20
66.1677
 30
0
 70
     0
  0
VERTEX
  8
VOLVO_FM10__WB_3
 10
15.6267
 20
66.3588
 30
0
 70
     0
  0
VERTEX
  8
VOLVO_FM10__WB_3
 10
15.5386
 20
66.5454
 30
0
 70
     0
  0
VERTEX
  8
VOLVO_FM10__WB_3
 10
15.4409
 20
66.7271
 30
0
 70
     0
  0
VERTEX
  8
VOLVO_FM10__WB_3
 10
15.3336
 20
66.9035
 30
0
 70
     0
  0
VERTEX
  8
VOLVO_FM10__WB_3
 10
15.2171
 20
67.0743
 30
0
 70
     0
  0
VERTEX
  8
VOLVO_FM10__WB_3
 10
15.0916
 20
67.239
 30
0
 70
     0
  0
VERTEX
  8
VOLVO_FM10__WB_3
 10
14.9572
 20
67.3973
 30
0
 70
     0
  0
VERTEX
  8
VOLVO_FM10__WB_3
 10
14.814
 20
67.5488
 30
0
 70
     0
  0
VERTEX
  8
VOLVO_FM10__WB_3
 10
14.6624
 20
67.693
 30
0
 70
     0
  0
VERTEX
  8
VOLVO_FM10__WB_3
 10
14.5026
 20
67.8297
 30
0
 70
     0
  0
SEQEND
  0
POLYLINE
  8
VOLVO_FM10__WB_3
  6
CONTINUOUS
 62
     7
 66
     1
 40
0.0139
 41
0.0139
  0
VERTEX
  8
VOLVO_FM10__WB_3
 10
15.9562
 20
64.949
 30
0
 70
     0
  0
VERTEX
  8
VOLVO_FM10__WB_3
 10
17.2891
 20
35.4278
 30
0
 70
     0
  0
SEQEND
  0
POLYLINE
  8
VOLVO_FM10__WB_3
  6
CONTINUOUS
 62
     7
 66
     1
 40
0.0139
 41
0.0139
  0
VERTEX
  8
VOLVO_FM10__WB_3
 10
14.5026
 20
67.8297
 30
0
 70
     0
  0
VERTEX
  8
VOLVO_FM10__WB_3
 10
13.8898
 20
67.0738
 30
0
 70
     0
  0
SEQEND
  0
POLYLINE
  8
VOLVO_FM10__WB_3
  6
CONTINUOUS
 62
     7
 66
     1
 40
0.0139
 41
0.0139
  0
VERTEX
  8
VOLVO_FM10__WB_3
 10
11.3835
 20
-0.0053
 30
0
 70
     0
  0
VERTEX
  8
VOLVO_FM10__WB_3
 10
11.3835
 20
-1.1413
 30
0
 70
     0
  0
SEQEND
  0
POLYLINE
  8
VOLVO_FM10__WB_3
  6
CONTINUOUS
 62
     7
 66
     1
 40
0.0139
 41
0.0139
  0
VERTEX
  8
VOLVO_FM10__WB_3
 10
23.7534
 20
-26.0525
 30
0
 70
     0
  0
VERTEX
  8
VOLVO_FM10__WB_3
 10
23.8307
 20
-26.0489
 30
0
 70
     0
  0
VERTEX
  8
VOLVO_FM10__WB_3
 10
23.9058
 20
-26.0379
 30
0
 70
     0
  0
VERTEX
  8
VOLVO_FM10__WB_3
 10
23.9786
 20
-26.02
 30
0
 70
     0
  0
VERTEX
  8
VOLVO_FM10__WB_3
 10
24.0486
 20
-25.9956
 30
0
 70
     0
  0
VERTEX
  8
VOLVO_FM10__WB_3
 10
24.1155
 20
-25.9648
 30
0
 70
     0
  0
VERTEX
  8
VOLVO_FM10__WB_3
 10
24.1789
 20
-25.9282
 30
0
 70
     0
  0
VERTEX
  8
VOLVO_FM10__WB_3
 10
24.2384
 20
-25.886
 30
0
 70
     0
  0
VERTEX
  8
VOLVO_FM10__WB_3
 10
24.2936
 20
-25.8385
 30
0
 70
     0
  0
VERTEX
  8
VOLVO_FM10__WB_3
 10
24.3443
 20
-25.7862
 30
0
 70
     0
  0
VERTEX
  8
VOLVO_FM10__WB_3
 10
24.39
 20
-25.7294
 30
0
 70
     0
  0
VERTEX
  8
VOLVO_FM10__WB_3
 10
24.4304
 20
-25.6683
 30
0
 70
     0
  0
VERTEX
  8
VOLVO_FM10__WB_3
 10
24.4651
 20
-25.6034
 30
0
 70
     0
  0
VERTEX
  8
VOLVO_FM10__WB_3
 10
24.4937
 20
-25.535
 30
0
 70
     0
  0
VERTEX
  8
VOLVO_FM10__WB_3
 10
24.516
 20
-25.4634
 30
0
 70
     0
  0
VERTEX
  8
VOLVO_FM10__WB_3
 10
24.5314
 20
-25.389
 30
0
 70
     0
  0
VERTEX
  8
VOLVO_FM10__WB_3
 10
24.5397
 20
-25.3121
 30
0
 70
     0
  0
SEQEND
  0
POLYLINE
  8
VOLVO_FM10__WB_3
  6
CONTINUOUS
 62
     7
 66
     1
 40
0.0139
 41
0.0139
  0
VERTEX
  8
VOLVO_FM10__WB_3
 10
23.5307
 20
-22.1155
 30
0
 70
     0
  0
VERTEX
  8
VOLVO_FM10__WB_3
 10
23.4907
 20
-21.5889
 30
0
 70
     0
  0
VERTEX
  8
VOLVO_FM10__WB_3
 10
23.4398
 20
-21.0651
 30
0
 70
     0
  0
VERTEX
  8
VOLVO_FM10__WB_3
 10
23.3781
 20
-20.5444
 30
0
 70
     0
  0
VERTEX
  8
VOLVO_FM10__WB_3
 10
23.3059
 20
-20.0268
 30
0
 70
     0
  0
VERTEX
  8
VOLVO_FM10__WB_3
 10
23.2231
 20
-19.5124
 30
0
 70
     0
  0
VERTEX
  8
VOLVO_FM10__WB_3
 10
23.1298
 20
-19.0014
 30
0
 70
     0
  0
VERTEX
  8
VOLVO_FM10__WB_3
 10
23.0263
 20
-18.494
 30
0
 70
     0
  0
VERTEX
  8
VOLVO_FM10__WB_3
 10
22.9126
 20
-17.9901
 30
0
 70
     0
  0
VERTEX
  8
VOLVO_FM10__WB_3
 10
22.7887
 20
-17.49
 30
0
 70
     0
  0
VERTEX
  8
VOLVO_FM10__WB_3
 10
22.6549
 20
-16.9937
 30
0
 70
     0
  0
VERTEX
  8
VOLVO_FM10__WB_3
 10
22.5111
 20
-16.5014
 30
0
 70
     0
  0
VERTEX
  8
VOLVO_FM10__WB_3
 10
22.3576
 20
-16.0132
 30
0
 70
     0
  0
VERTEX
  8
VOLVO_FM10__WB_3
 10
22.1944
 20
-15.5292
 30
0
 70
     0
  0
VERTEX
  8
VOLVO_FM10__WB_3
 10
22.0216
 20
-15.0495
 30
0
 70
     0
  0
VERTEX
  8
VOLVO_FM10__WB_3
 10
21.8394
 20
-14.5743
 30
0
 70
     0
  0
VERTEX
  8
VOLVO_FM10__WB_3
 10
21.6478
 20
-14.1037
 30
0
 70
     0
  0
VERTEX
  8
VOLVO_FM10__WB_3
 10
21.4469
 20
-13.6378
 30
0
 70
     0
  0
VERTEX
  8
VOLVO_FM10__WB_3
 10
21.2369
 20
-13.1767
 30
0
 70
     0
  0
VERTEX
  8
VOLVO_FM10__WB_3
 10
21.0178
 20
-12.7206
 30
0
 70
     0
  0
VERTEX
  8
VOLVO_FM10__WB_3
 10
20.7898
 20
-12.2695
 30
0
 70
     0
  0
VERTEX
  8
VOLVO_FM10__WB_3
 10
20.5529
 20
-11.8236
 30
0
 70
     0
  0
VERTEX
  8
VOLVO_FM10__WB_3
 10
20.3074
 20
-11.383
 30
0
 70
     0
  0
VERTEX
  8
VOLVO_FM10__WB_3
 10
20.0532
 20
-10.9479
 30
0
 70
     0
  0
VERTEX
  8
VOLVO_FM10__WB_3
 10
19.7904
 20
-10.5182
 30
0
 70
     0
  0
VERTEX
  8
VOLVO_FM10__WB_3
 10
19.5193
 20
-10.0943
 30
0
 70
     0
  0
VERTEX
  8
VOLVO_FM10__WB_3
 10
19.2399
 20
-9.6761
 30
0
 70
     0
  0
VERTEX
  8
VOLVO_FM10__WB_3
 10
18.9522
 20
-9.2638
 30
0
 70
     0
  0
VERTEX
  8
VOLVO_FM10__WB_3
 10
18.6565
 20
-8.8576
 30
0
 70
     0
  0
VERTEX
  8
VOLVO_FM10__WB_3
 10
18.3528
 20
-8.4575
 30
0
 70
     0
  0
VERTEX
  8
VOLVO_FM10__WB_3
 10
18.0411
 20
-8.0637
 30
0
 70
     0
  0
VERTEX
  8
VOLVO_FM10__WB_3
 10
17.7218
 20
-7.6762
 30
0
 70
     0
  0
VERTEX
  8
VOLVO_FM10__WB_3
 10
17.3947
 20
-7.2953
 30
0
 70
     0
  0
VERTEX
  8
VOLVO_FM10__WB_3
 10
17.0601
 20
-6.921
 30
0
 70
     0
  0
VERTEX
  8
VOLVO_FM10__WB_3
 10
16.718
 20
-6.5535
 30
0
 70
     0
  0
VERTEX
  8
VOLVO_FM10__WB_3
 10
16.3685
 20
-6.1928
 30
0
 70
     0
  0
VERTEX
  8
VOLVO_FM10__WB_3
 10
16.0118
 20
-5.8391
 30
0
 70
     0
  0
VERTEX
  8
VOLVO_FM10__WB_3
 10
15.648
 20
-5.4926
 30
0
 70
     0
  0
VERTEX
  8
VOLVO_FM10__WB_3
 10
15.2771
 20
-5.1532
 30
0
 70
     0
  0
VERTEX
  8
VOLVO_FM10__WB_3
 10
14.8993
 20
-4.8212
 30
0
 70
     0
  0
VERTEX
  8
VOLVO_FM10__WB_3
 10
14.5146
 20
-4.4967
 30
0
 70
     0
  0
VERTEX
  8
VOLVO_FM10__WB_3
 10
14.1233
 20
-4.1798
 30
0
 70
     0
  0
VERTEX
  8
VOLVO_FM10__WB_3
 10
13.7253
 20
-3.8706
 30
0
 70
     0
  0
VERTEX
  8
VOLVO_FM10__WB_3
 10
13.3208
 20
-3.5693
 30
0
 70
     0
  0
VERTEX
  8
VOLVO_FM10__WB_3
 10
12.9099
 20
-3.2759
 30
0
 70
     0
  0
VERTEX
  8
VOLVO_FM10__WB_3
 10
12.4927
 20
-2.9906
 30
0
 70
     0
  0
VERTEX
  8
VOLVO_FM10__WB_3
 10
12.0693
 20
-2.7134
 30
0
 70
     0
  0
VERTEX
  8
VOLVO_FM10__WB_3
 10
11.6398
 20
-2.4446
 30
0
 70
     0
  0
VERTEX
  8
VOLVO_FM10__WB_3
 10
11.2043
 20
-2.1843
 30
0
 70
     0
  0
VERTEX
  8
VOLVO_FM10__WB_3
 10
10.763
 20
-1.9325
 30
0
 70
     0
  0
VERTEX
  8
VOLVO_FM10__WB_3
 10
10.3159
 20
-1.6893
 30
0
 70
     0
  0
VERTEX
  8
VOLVO_FM10__WB_3
 10
9.8631
 20
-1.455
 30
0
 70
     0
  0
VERTEX
  8
VOLVO_FM10__WB_3
 10
9.4048
 20
-1.2296
 30
0
 70
     0
  0
VERTEX
  8
VOLVO_FM10__WB_3
 10
8.941
 20
-1.0132
 30
0
 70
     0
  0
VERTEX
  8
VOLVO_FM10__WB_3
 10
8.4718
 20
-0.8061
 30
0
 70
     0
  0
VERTEX
  8
VOLVO_FM10__WB_3
 10
7.9975
 20
-0.6081
 30
0
 70
     0
  0
VERTEX
  8
VOLVO_FM10__WB_3
 10
7.5179
 20
-0.4196
 30
0
 70
     0
  0
VERTEX
  8
VOLVO_FM10__WB_3
 10
7.0334
 20
-0.2407
 30
0
 70
     0
  0
VERTEX
  8
VOLVO_FM10__WB_3
 10
6.5439
 20
-0.0713
 30
0
 70
     0
  0
VERTEX
  8
VOLVO_FM10__WB_3
 10
6.0496
 20
0.0883
 30
0
 70
     0
  0
VERTEX
  8
VOLVO_FM10__WB_3
 10
5.5506
 20
0.2379
 30
0
 70
     0
  0
VERTEX
  8
VOLVO_FM10__WB_3
 10
5.047
 20
0.3776
 30
0
 70
     0
  0
VERTEX
  8
VOLVO_FM10__WB_3
 10
4.5389
 20
0.5072
 30
0
 70
     0
  0
VERTEX
  8
VOLVO_FM10__WB_3
 10
4.0263
 20
0.6265
 30
0
 70
     0
  0
VERTEX
  8
VOLVO_FM10__WB_3
 10
3.5095
 20
0.7354
 30
0
 70
     0
  0
SEQEND
  0
POLYLINE
  8
VOLVO_FM10__WB_3
  6
CONTINUOUS
 62
     7
 66
     1
 40
0.0139
 41
0.0139
  0
VERTEX
  8
VOLVO_FM10__WB_3
 10
-53.7346
 20
-21.8557
 30
0
 70
     0
  0
VERTEX
  8
VOLVO_FM10__WB_3
 10
-53.7346
 20
-20.084
 30
0
 70
     0
  0
SEQEND
  0
POLYLINE
  8
VOLVO_FM10__WB_3
  6
CONTINUOUS
 62
     7
 66
     1
 40
0.0139
 41
0.0139
  0
VERTEX
  8
VOLVO_FM10__WB_3
 10
-53.7346
 20
-3.5411
 30
0
 70
     0
  0
VERTEX
  8
VOLVO_FM10__WB_3
 10
-53.7346
 20
13.7084
 30
0
 70
     0
  0
SEQEND
  0
POLYLINE
  8
VOLVO_FM10__WB_3
  6
CONTINUOUS
 62
     7
 66
     1
 40
0.0139
 41
0.0139
  0
VERTEX
  8
VOLVO_FM10__WB_3
 10
-53.7346
 20
-16.7376
 30
0
 70
     0
  0
VERTEX
  8
VOLVO_FM10__WB_3
 10
-53.7346
 20
-16.0486
 30
0
 70
     0
  0
SEQEND
  0
POLYLINE
  8
VOLVO_FM10__WB_3
  6
CONTINUOUS
 62
     7
 66
     1
 40
0.0139
 41
0.0139
  0
VERTEX
  8
VOLVO_FM10__WB_3
 10
-53.7346
 20
-6.2061
 30
0
 70
     0
  0
VERTEX
  8
VOLVO_FM10__WB_3
 10
-53.7346
 20
-5.5171
 30
0
 70
     0
  0
SEQEND
  0
POLYLINE
  8
VOLVO_FM10__WB_3
  6
CONTINUOUS
 62
     7
 66
     1
 40
0.0139
 41
0.0139
  0
VERTEX
  8
VOLVO_FM10__WB_3
 10
-37.3835
 20
33.9894
 30
0
 70
     0
  0
VERTEX
  8
VOLVO_FM10__WB_3
 10
-37.4338
 20
33.9889
 30
0
 70
     0
  0
VERTEX
  8
VOLVO_FM10__WB_3
 10
-37.4829
 20
33.9835
 30
0
 70
     0
  0
VERTEX
  8
VOLVO_FM10__WB_3
 10
-37.5304
 20
33.9732
 30
0
 70
     0
  0
VERTEX
  8
VOLVO_FM10__WB_3
 10
-37.5762
 20
33.9585
 30
0
 70
     0
  0
VERTEX
  8
VOLVO_FM10__WB_3
 10
-37.6613
 20
33.9164
 30
0
 70
     0
  0
VERTEX
  8
VOLVO_FM10__WB_3
 10
-37.7363
 20
33.8592
 30
0
 70
     0
  0
VERTEX
  8
VOLVO_FM10__WB_3
 10
-37.7989
 20
33.7887
 30
0
 70
     0
  0
VERTEX
  8
VOLVO_FM10__WB_3
 10
-37.8472
 20
33.7068
 30
0
 70
     0
  0
VERTEX
  8
VOLVO_FM10__WB_3
 10
-37.879
 20
33.6156
 30
0
 70
     0
  0
VERTEX
  8
VOLVO_FM10__WB_3
 10
-37.8922
 20
33.5169
 30
0
 70
     0
  0
SEQEND
  0
POLYLINE
  8
VOLVO_FM10__WB_3
  6
CONTINUOUS
 62
     7
 66
     1
 40
0.0139
 41
0.0139
  0
VERTEX
  8
VOLVO_FM10__WB_3
 10
-37.8922
 20
33.5169
 30
0
 70
     0
  0
VERTEX
  8
VOLVO_FM10__WB_3
 10
-37.892
 20
33.4973
 30
0
 70
     0
  0
VERTEX
  8
VOLVO_FM10__WB_3
 10
-37.8918
 20
33.4776
 30
0
 70
     0
  0
SEQEND
  0
POLYLINE
  8
VOLVO_FM10__WB_3
  6
CONTINUOUS
 62
     7
 66
     1
 40
0.0139
 41
0.0139
  0
VERTEX
  8
VOLVO_FM10__WB_3
 10
-33.9741
 20
33.0051
 30
0
 70
     0
  0
VERTEX
  8
VOLVO_FM10__WB_3
 10
-33.9741
 20
28.9884
 30
0
 70
     0
  0
SEQEND
  0
POLYLINE
  8
VOLVO_FM10__WB_3
  6
CONTINUOUS
 62
     7
 66
     1
 40
0.0139
 41
0.0139
  0
VERTEX
  8
VOLVO_FM10__WB_3
 10
-33.9741
 20
28.0042
 30
0
 70
     0
  0
VERTEX
  8
VOLVO_FM10__WB_3
 10
-33.9741
 20
26.5301
 30
0
 70
     0
  0
SEQEND
  0
POLYLINE
  8
VOLVO_FM10__WB_3
  6
CONTINUOUS
 62
     7
 66
     1
 40
0.0139
 41
0.0139
  0
VERTEX
  8
VOLVO_FM10__WB_3
 10
-15.1073
 20
64.294
 30
0
 70
     0
  0
VERTEX
  8
VOLVO_FM10__WB_3
 10
11.3835
 20
68.6561
 30
0
 70
     0
  0
SEQEND
  0
POLYLINE
  8
VOLVO_FM10__WB_3
  6
CONTINUOUS
 62
     7
 66
     1
 40
0.0139
 41
0.0139
  0
VERTEX
  8
VOLVO_FM10__WB_3
 10
22.0135
 20
85.8215
 30
0
 70
     0
  0
VERTEX
  8
VOLVO_FM10__WB_3
 10
22.0135
 20
55.1128
 30
0
 70
     0
  0
SEQEND
  0
POLYLINE
  8
VOLVO_FM10__WB_3
  6
CONTINUOUS
 62
     7
 66
     1
 40
0.0139
 41
0.0139
  0
VERTEX
  8
VOLVO_FM10__WB_3
 10
28.5095
 20
-0.0053
 30
0
 70
     0
  0
VERTEX
  8
VOLVO_FM10__WB_3
 10
28.5095
 20
55.1128
 30
0
 70
     0
  0
SEQEND
  0
ENDSEC
  0
EOF
