  0
SECTION
  2
HEADER
  9
$ACADVER
  1
AC1006
  9
$AXISMODE
 70
     0
  9
$AXISUNIT
 10
0.125
 20
0.125
  9
$CECOLOR
 62
0
  9
$CELTYPE
  6
CONTINUOUS
  9
$CLAYER
  8
0
  9
$EXTMIN
 10
0
 20
0
  9
$EXTMAX
 10
122.3889
 20
61.1944
  9
$LIMMIN
 10
0
 20
0
  9
$LIMMAX
 10
122.3889
 20
61.1944
  9
$GRIDMODE
 70
     0
  9
$GRIDUNIT
 10
0.125
 20
0.125
  9
$MIRRTEXT
 70
     1
  9
$SNAPMODE
 70
     1
  9
$SNAPUNIT
 10
0.125
 20
0
  9
$SNAPSTYLE
 70
     0
  9
$SPLINESEGS
 70
     8
  9
$SPLINETYPE
 70
     6
  0
ENDSEC
  0
SECTION
  2
TABLES
  0
TABLE
  2
LTYPE
 70
     1
  0
LTYPE
  2
CONTINUOUS
 70
    64
  3
Descriptive Text
 72
    65
 73
     0
 40
0
  0
ENDTAB
  0
TABLE
  2
LAYER
 70
     2
  0
LAYER
  2
0
 70
     0
 62
     7
  6
CONTINUOUS
  0
LAYER
  2
MACK_MR
 70
     0
 62
     7
  6
CONTINUOUS
  0
ENDTAB
  0
TABLE
  2
STYLE
 70
     1
  0
STYLE
  2
STANDARD
 70
    64
 40
0.0
 41
1.0
 50
0.0
 71
     0
 42
0.2
  3
txt
  4

  0
STYLE
  2
ARIAL
 70
    64
 40
0.0
 41
1.0
 50
0.0
 71
     0
 42
0.2
  3
arial
  4

  0
ENDTAB
  0
TABLE
  2
VIEW
 70
     0
  0
ENDTAB
  0
TABLE
  2
USC
 70
     0
  0
ENDTAB
  0
TABLE
  2
DWGMGR
 70
     0
  0
ENDTAB
  0
ENDSEC
  0
SECTION
  2
BLOCKS
  0
ENDSEC
  0
SECTION
  2
ENTITIES
  0
POLYLINE
  8
MACK_MR
  6
CONTINUOUS
 62
     7
 66
     1
 40
0.0139
 41
0.0139
  0
VERTEX
  8
MACK_MR
 10
40.4167
 20
52.6642
 30
0
 70
     0
  0
VERTEX
  8
MACK_MR
 10
40.5076
 20
52.6475
 30
0
 70
     0
  0
VERTEX
  8
MACK_MR
 10
40.6007
 20
52.594
 30
0
 70
     0
  0
VERTEX
  8
MACK_MR
 10
40.6903
 20
52.5012
 30
0
 70
     0
  0
VERTEX
  8
MACK_MR
 10
40.7702
 20
52.3713
 30
0
 70
     0
  0
VERTEX
  8
MACK_MR
 10
40.8352
 20
52.2114
 30
0
 70
     0
  0
VERTEX
  8
MACK_MR
 10
40.8815
 20
52.0323
 30
0
 70
     0
  0
VERTEX
  8
MACK_MR
 10
40.9083
 20
51.8462
 30
0
 70
     0
  0
VERTEX
  8
MACK_MR
 10
40.9167
 20
51.6642
 30
0
 70
     0
  0
SEQEND
  0
POLYLINE
  8
MACK_MR
  6
CONTINUOUS
 62
     7
 66
     1
 40
0.0139
 41
0.0139
  0
VERTEX
  8
MACK_MR
 10
40.9167
 20
34.6642
 30
0
 70
     0
  0
VERTEX
  8
MACK_MR
 10
40.9167
 20
51.6642
 30
0
 70
     0
  0
SEQEND
  0
POLYLINE
  8
MACK_MR
  6
CONTINUOUS
 62
     7
 66
     1
 40
0.0139
 41
0.0139
  0
VERTEX
  8
MACK_MR
 10
40.9167
 20
34.6642
 30
0
 70
     0
  0
VERTEX
  8
MACK_MR
 10
40.9083
 20
34.4823
 30
0
 70
     0
  0
VERTEX
  8
MACK_MR
 10
40.8815
 20
34.2961
 30
0
 70
     0
  0
VERTEX
  8
MACK_MR
 10
40.8352
 20
34.117
 30
0
 70
     0
  0
VERTEX
  8
MACK_MR
 10
40.7702
 20
33.9571
 30
0
 70
     0
  0
VERTEX
  8
MACK_MR
 10
40.6903
 20
33.8272
 30
0
 70
     0
  0
VERTEX
  8
MACK_MR
 10
40.6007
 20
33.7344
 30
0
 70
     0
  0
VERTEX
  8
MACK_MR
 10
40.5076
 20
33.6809
 30
0
 70
     0
  0
VERTEX
  8
MACK_MR
 10
40.4167
 20
33.6642
 30
0
 70
     0
  0
SEQEND
  0
POLYLINE
  8
MACK_MR
  6
CONTINUOUS
 62
     7
 66
     1
 40
0.0139
 41
0.0139
  0
VERTEX
  8
MACK_MR
 10
37.4167
 20
33.6642
 30
0
 70
     0
  0
VERTEX
  8
MACK_MR
 10
40.4167
 20
33.6642
 30
0
 70
     0
  0
SEQEND
  0
POLYLINE
  8
MACK_MR
  6
CONTINUOUS
 62
     7
 66
     1
 40
0.0139
 41
0.0139
  0
VERTEX
  8
MACK_MR
 10
37.4167
 20
33.6642
 30
0
 70
     0
  0
VERTEX
  8
MACK_MR
 10
37.3025
 20
33.6906
 30
0
 70
     0
  0
VERTEX
  8
MACK_MR
 10
37.1915
 20
33.7713
 30
0
 70
     0
  0
VERTEX
  8
MACK_MR
 10
37.0931
 20
33.9018
 30
0
 70
     0
  0
VERTEX
  8
MACK_MR
 10
37.0146
 20
34.0697
 30
0
 70
     0
  0
SEQEND
  0
POLYLINE
  8
MACK_MR
  6
CONTINUOUS
 62
     7
 66
     1
 40
0.0139
 41
0.0139
  0
VERTEX
  8
MACK_MR
 10
37.0146
 20
52.2588
 30
0
 70
     0
  0
VERTEX
  8
MACK_MR
 10
37.0931
 20
52.4266
 30
0
 70
     0
  0
VERTEX
  8
MACK_MR
 10
37.1915
 20
52.5571
 30
0
 70
     0
  0
VERTEX
  8
MACK_MR
 10
37.3025
 20
52.6378
 30
0
 70
     0
  0
VERTEX
  8
MACK_MR
 10
37.4167
 20
52.6642
 30
0
 70
     0
  0
SEQEND
  0
POLYLINE
  8
MACK_MR
  6
CONTINUOUS
 62
     7
 66
     1
 40
0.0139
 41
0.0139
  0
VERTEX
  8
MACK_MR
 10
40.4167
 20
52.6642
 30
0
 70
     0
  0
VERTEX
  8
MACK_MR
 10
37.4167
 20
52.6642
 30
0
 70
     0
  0
SEQEND
  0
POLYLINE
  8
MACK_MR
  6
CONTINUOUS
 62
     7
 66
     1
 40
0.0139
 41
0.0139
  0
VERTEX
  8
MACK_MR
 10
37.0146
 20
52.6642
 30
0
 70
     0
  0
VERTEX
  8
MACK_MR
 10
37.4167
 20
52.6642
 30
0
 70
     0
  0
SEQEND
  0
POLYLINE
  8
MACK_MR
  6
CONTINUOUS
 62
     7
 66
     1
 40
0.0139
 41
0.0139
  0
VERTEX
  8
MACK_MR
 10
37.0146
 20
33.6642
 30
0
 70
     0
  0
VERTEX
  8
MACK_MR
 10
37.4167
 20
33.6642
 30
0
 70
     0
  0
SEQEND
  0
POLYLINE
  8
MACK_MR
  6
CONTINUOUS
 62
     7
 66
     1
 40
0.0139
 41
0.0139
  0
VERTEX
  8
MACK_MR
 10
-23.4854
 20
3.7241
 30
0
 70
     0
  0
VERTEX
  8
MACK_MR
 10
-23.4816
 20
3.8785
 30
0
 70
     0
  0
VERTEX
  8
MACK_MR
 10
-23.4702
 20
4.0309
 30
0
 70
     0
  0
VERTEX
  8
MACK_MR
 10
-23.4513
 20
4.1811
 30
0
 70
     0
  0
VERTEX
  8
MACK_MR
 10
-23.425
 20
4.3288
 30
0
 70
     0
  0
VERTEX
  8
MACK_MR
 10
-23.3916
 20
4.474
 30
0
 70
     0
  0
VERTEX
  8
MACK_MR
 10
-23.3513
 20
4.6165
 30
0
 70
     0
  0
VERTEX
  8
MACK_MR
 10
-23.3042
 20
4.7559
 30
0
 70
     0
  0
VERTEX
  8
MACK_MR
 10
-23.2505
 20
4.8922
 30
0
 70
     0
  0
VERTEX
  8
MACK_MR
 10
-23.1905
 20
5.0252
 30
0
 70
     0
  0
VERTEX
  8
MACK_MR
 10
-23.1243
 20
5.1546
 30
0
 70
     0
  0
VERTEX
  8
MACK_MR
 10
-23.0521
 20
5.2803
 30
0
 70
     0
  0
VERTEX
  8
MACK_MR
 10
-22.9741
 20
5.4021
 30
0
 70
     0
  0
VERTEX
  8
MACK_MR
 10
-22.8905
 20
5.5198
 30
0
 70
     0
  0
VERTEX
  8
MACK_MR
 10
-22.8014
 20
5.6332
 30
0
 70
     0
  0
VERTEX
  8
MACK_MR
 10
-22.7071
 20
5.7422
 30
0
 70
     0
  0
VERTEX
  8
MACK_MR
 10
-22.6078
 20
5.8464
 30
0
 70
     0
  0
VERTEX
  8
MACK_MR
 10
-22.5036
 20
5.9458
 30
0
 70
     0
  0
VERTEX
  8
MACK_MR
 10
-22.3947
 20
6.0402
 30
0
 70
     0
  0
VERTEX
  8
MACK_MR
 10
-22.2813
 20
6.1293
 30
0
 70
     0
  0
VERTEX
  8
MACK_MR
 10
-22.1637
 20
6.213
 30
0
 70
     0
  0
VERTEX
  8
MACK_MR
 10
-22.0419
 20
6.2911
 30
0
 70
     0
  0
VERTEX
  8
MACK_MR
 10
-21.9163
 20
6.3633
 30
0
 70
     0
  0
VERTEX
  8
MACK_MR
 10
-21.7869
 20
6.4296
 30
0
 70
     0
  0
VERTEX
  8
MACK_MR
 10
-21.6539
 20
6.4897
 30
0
 70
     0
  0
VERTEX
  8
MACK_MR
 10
-21.5177
 20
6.5434
 30
0
 70
     0
  0
VERTEX
  8
MACK_MR
 10
-21.3782
 20
6.5906
 30
0
 70
     0
  0
VERTEX
  8
MACK_MR
 10
-21.2358
 20
6.631
 30
0
 70
     0
  0
VERTEX
  8
MACK_MR
 10
-21.0906
 20
6.6645
 30
0
 70
     0
  0
VERTEX
  8
MACK_MR
 10
-20.9429
 20
6.6908
 30
0
 70
     0
  0
VERTEX
  8
MACK_MR
 10
-20.7927
 20
6.7099
 30
0
 70
     0
  0
VERTEX
  8
MACK_MR
 10
-20.6403
 20
6.7214
 30
0
 70
     0
  0
VERTEX
  8
MACK_MR
 10
-20.4859
 20
6.7252
 30
0
 70
     0
  0
SEQEND
  0
POLYLINE
  8
MACK_MR
  6
CONTINUOUS
 62
     7
 66
     1
 40
0.0139
 41
0.0139
  0
VERTEX
  8
MACK_MR
 10
-3.4854
 20
-0.0248
 30
0
 70
     0
  0
VERTEX
  8
MACK_MR
 10
-3.4854
 20
0.7252
 30
0
 70
     0
  0
SEQEND
  0
POLYLINE
  8
MACK_MR
  6
CONTINUOUS
 62
     7
 66
     1
 40
0.0139
 41
0.0139
  0
VERTEX
  8
MACK_MR
 10
-3.4854
 20
0.7252
 30
0
 70
     0
  0
VERTEX
  8
MACK_MR
 10
-3.4854
 20
3.529
 30
0
 70
     0
  0
SEQEND
  0
POLYLINE
  8
MACK_MR
  6
CONTINUOUS
 62
     7
 66
     1
 40
0.0139
 41
0.0139
  0
VERTEX
  8
MACK_MR
 10
-3.4854
 20
3.679
 30
0
 70
     0
  0
VERTEX
  8
MACK_MR
 10
-3.4854
 20
5.6717
 30
0
 70
     0
  0
SEQEND
  0
POLYLINE
  8
MACK_MR
  6
CONTINUOUS
 62
     7
 66
     1
 40
0.0139
 41
0.0139
  0
VERTEX
  8
MACK_MR
 10
-20.4854
 20
6.7252
 30
0
 70
     0
  0
VERTEX
  8
MACK_MR
 10
-18.8673
 20
6.7252
 30
0
 70
     0
  0
SEQEND
  0
POLYLINE
  8
MACK_MR
  6
CONTINUOUS
 62
     7
 66
     1
 40
0.0139
 41
0.0139
  0
VERTEX
  8
MACK_MR
 10
-12.1034
 20
6.7252
 30
0
 70
     0
  0
VERTEX
  8
MACK_MR
 10
-3.4854
 20
6.7252
 30
0
 70
     0
  0
SEQEND
  0
POLYLINE
  8
MACK_MR
  6
CONTINUOUS
 62
     7
 66
     1
 40
0.0139
 41
0.0139
  0
VERTEX
  8
MACK_MR
 10
-11.9854
 20
75.5752
 30
0
 70
     0
  0
VERTEX
  8
MACK_MR
 10
-18.9854
 20
75.5752
 30
0
 70
     0
  0
SEQEND
  0
POLYLINE
  8
MACK_MR
  6
CONTINUOUS
 62
     7
 66
     1
 40
0.0139
 41
0.0139
  0
VERTEX
  8
MACK_MR
 10
-7.4854
 20
72.0752
 30
0
 70
     0
  0
VERTEX
  8
MACK_MR
 10
-23.4854
 20
72.0752
 30
0
 70
     0
  0
SEQEND
  0
POLYLINE
  8
MACK_MR
  6
CONTINUOUS
 62
     7
 66
     1
 40
0.0139
 41
0.0139
  0
VERTEX
  8
MACK_MR
 10
-7.4854
 20
73.4768
 30
0
 70
     0
  0
VERTEX
  8
MACK_MR
 10
-23.4854
 20
73.4768
 30
0
 70
     0
  0
SEQEND
  0
POLYLINE
  8
MACK_MR
  6
CONTINUOUS
 62
     7
 66
     1
 40
0.0139
 41
0.0139
  0
VERTEX
  8
MACK_MR
 10
51.9855
 20
10.5398
 30
0
 70
     0
  0
VERTEX
  8
MACK_MR
 10
51.9116
 20
10.7078
 30
0
 70
     0
  0
VERTEX
  8
MACK_MR
 10
51.8456
 20
10.8788
 30
0
 70
     0
  0
VERTEX
  8
MACK_MR
 10
51.7875
 20
11.0525
 30
0
 70
     0
  0
VERTEX
  8
MACK_MR
 10
51.7376
 20
11.2286
 30
0
 70
     0
  0
VERTEX
  8
MACK_MR
 10
51.6958
 20
11.4068
 30
0
 70
     0
  0
VERTEX
  8
MACK_MR
 10
51.6622
 20
11.5868
 30
0
 70
     0
  0
VERTEX
  8
MACK_MR
 10
51.6369
 20
11.7683
 30
0
 70
     0
  0
VERTEX
  8
MACK_MR
 10
51.6199
 20
11.9511
 30
0
 70
     0
  0
SEQEND
  0
POLYLINE
  8
MACK_MR
  6
CONTINUOUS
 62
     7
 66
     1
 40
0.0139
 41
0.0139
  0
VERTEX
  8
MACK_MR
 10
-3.4854
 20
53.5653
 30
0
 70
     0
  0
VERTEX
  8
MACK_MR
 10
-3.4789
 20
53.8511
 30
0
 70
     0
  0
VERTEX
  8
MACK_MR
 10
-3.4591
 20
54.1337
 30
0
 70
     0
  0
VERTEX
  8
MACK_MR
 10
-3.4263
 20
54.4128
 30
0
 70
     0
  0
VERTEX
  8
MACK_MR
 10
-3.3809
 20
54.688
 30
0
 70
     0
  0
VERTEX
  8
MACK_MR
 10
-3.3231
 20
54.9591
 30
0
 70
     0
  0
VERTEX
  8
MACK_MR
 10
-3.2531
 20
55.2257
 30
0
 70
     0
  0
VERTEX
  8
MACK_MR
 10
-3.1713
 20
55.4875
 30
0
 70
     0
  0
VERTEX
  8
MACK_MR
 10
-3.078
 20
55.7442
 30
0
 70
     0
  0
VERTEX
  8
MACK_MR
 10
-2.9735
 20
55.9955
 30
0
 70
     0
  0
VERTEX
  8
MACK_MR
 10
-2.8579
 20
56.2409
 30
0
 70
     0
  0
VERTEX
  8
MACK_MR
 10
-2.7318
 20
56.4803
 30
0
 70
     0
  0
VERTEX
  8
MACK_MR
 10
-2.5952
 20
56.7133
 30
0
 70
     0
  0
VERTEX
  8
MACK_MR
 10
-2.4485
 20
56.9395
 30
0
 70
     0
  0
VERTEX
  8
MACK_MR
 10
-2.2921
 20
57.1587
 30
0
 70
     0
  0
VERTEX
  8
MACK_MR
 10
-2.1261
 20
57.3705
 30
0
 70
     0
  0
VERTEX
  8
MACK_MR
 10
-1.9509
 20
57.5746
 30
0
 70
     0
  0
VERTEX
  8
MACK_MR
 10
-1.7668
 20
57.7707
 30
0
 70
     0
  0
VERTEX
  8
MACK_MR
 10
-1.574
 20
57.9585
 30
0
 70
     0
  0
VERTEX
  8
MACK_MR
 10
-1.3729
 20
58.1375
 30
0
 70
     0
  0
VERTEX
  8
MACK_MR
 10
-1.1637
 20
58.3076
 30
0
 70
     0
  0
VERTEX
  8
MACK_MR
 10
-0.9468
 20
58.4684
 30
0
 70
     0
  0
VERTEX
  8
MACK_MR
 10
-0.7223
 20
58.6196
 30
0
 70
     0
  0
VERTEX
  8
MACK_MR
 10
-0.4907
 20
58.7608
 30
0
 70
     0
  0
VERTEX
  8
MACK_MR
 10
-0.2521
 20
58.8917
 30
0
 70
     0
  0
VERTEX
  8
MACK_MR
 10
-0.0069
 20
59.012
 30
0
 70
     0
  0
VERTEX
  8
MACK_MR
 10
0.2446
 20
59.1214
 30
0
 70
     0
  0
VERTEX
  8
MACK_MR
 10
0.5022
 20
59.2196
 30
0
 70
     0
  0
VERTEX
  8
MACK_MR
 10
0.7655
 20
59.3062
 30
0
 70
     0
  0
VERTEX
  8
MACK_MR
 10
1.0343
 20
59.3809
 30
0
 70
     0
  0
VERTEX
  8
MACK_MR
 10
1.3083
 20
59.4435
 30
0
 70
     0
  0
VERTEX
  8
MACK_MR
 10
1.5871
 20
59.4935
 30
0
 70
     0
  0
VERTEX
  8
MACK_MR
 10
1.8706
 20
59.5306
 30
0
 70
     0
  0
SEQEND
  0
POLYLINE
  8
MACK_MR
  6
CONTINUOUS
 62
     7
 66
     1
 40
0.0139
 41
0.0139
  0
VERTEX
  8
MACK_MR
 10
51.6198
 20
11.9526
 30
0
 70
     0
  0
VERTEX
  8
MACK_MR
 10
48.6096
 20
55.0004
 30
0
 70
     0
  0
SEQEND
  0
POLYLINE
  8
MACK_MR
  6
CONTINUOUS
 62
     7
 66
     1
 40
0.0139
 41
0.0139
  0
VERTEX
  8
MACK_MR
 10
54.2073
 20
-14.2248
 30
0
 70
     0
  0
VERTEX
  8
MACK_MR
 10
54.2073
 20
4.8884
 30
0
 70
     0
  0
SEQEND
  0
POLYLINE
  8
MACK_MR
  6
CONTINUOUS
 62
     7
 66
     1
 40
0.0139
 41
0.0139
  0
VERTEX
  8
MACK_MR
 10
53.8325
 20
6.5789
 30
0
 70
     0
  0
VERTEX
  8
MACK_MR
 10
51.9849
 20
10.5411
 30
0
 70
     0
  0
SEQEND
  0
POLYLINE
  8
MACK_MR
  6
CONTINUOUS
 62
     7
 66
     1
 40
0.0139
 41
0.0139
  0
VERTEX
  8
MACK_MR
 10
1.8706
 20
59.5306
 30
0
 70
     0
  0
VERTEX
  8
MACK_MR
 10
3.1433
 20
59.6657
 30
0
 70
     0
  0
VERTEX
  8
MACK_MR
 10
4.4167
 20
59.7942
 30
0
 70
     0
  0
VERTEX
  8
MACK_MR
 10
5.6906
 20
59.9162
 30
0
 70
     0
  0
VERTEX
  8
MACK_MR
 10
6.9649
 20
60.0315
 30
0
 70
     0
  0
VERTEX
  8
MACK_MR
 10
8.2398
 20
60.1403
 30
0
 70
     0
  0
VERTEX
  8
MACK_MR
 10
9.5151
 20
60.2424
 30
0
 70
     0
  0
VERTEX
  8
MACK_MR
 10
10.7909
 20
60.3379
 30
0
 70
     0
  0
VERTEX
  8
MACK_MR
 10
12.0671
 20
60.4269
 30
0
 70
     0
  0
VERTEX
  8
MACK_MR
 10
13.3436
 20
60.5092
 30
0
 70
     0
  0
VERTEX
  8
MACK_MR
 10
14.6205
 20
60.585
 30
0
 70
     0
  0
VERTEX
  8
MACK_MR
 10
15.8977
 20
60.6542
 30
0
 70
     0
  0
VERTEX
  8
MACK_MR
 10
17.1752
 20
60.7167
 30
0
 70
     0
  0
VERTEX
  8
MACK_MR
 10
18.453
 20
60.7727
 30
0
 70
     0
  0
VERTEX
  8
MACK_MR
 10
19.7311
 20
60.822
 30
0
 70
     0
  0
VERTEX
  8
MACK_MR
 10
21.0093
 20
60.8647
 30
0
 70
     0
  0
VERTEX
  8
MACK_MR
 10
22.2878
 20
60.9009
 30
0
 70
     0
  0
VERTEX
  8
MACK_MR
 10
23.5664
 20
60.9304
 30
0
 70
     0
  0
VERTEX
  8
MACK_MR
 10
24.8452
 20
60.9534
 30
0
 70
     0
  0
VERTEX
  8
MACK_MR
 10
26.1241
 20
60.9697
 30
0
 70
     0
  0
VERTEX
  8
MACK_MR
 10
27.4031
 20
60.9794
 30
0
 70
     0
  0
VERTEX
  8
MACK_MR
 10
28.6821
 20
60.9825
 30
0
 70
     0
  0
VERTEX
  8
MACK_MR
 10
29.9612
 20
60.979
 30
0
 70
     0
  0
VERTEX
  8
MACK_MR
 10
31.2403
 20
60.9689
 30
0
 70
     0
  0
VERTEX
  8
MACK_MR
 10
32.5194
 20
60.9522
 30
0
 70
     0
  0
VERTEX
  8
MACK_MR
 10
33.7984
 20
60.9289
 30
0
 70
     0
  0
VERTEX
  8
MACK_MR
 10
35.0774
 20
60.899
 30
0
 70
     0
  0
VERTEX
  8
MACK_MR
 10
36.3563
 20
60.8624
 30
0
 70
     0
  0
VERTEX
  8
MACK_MR
 10
37.6351
 20
60.8193
 30
0
 70
     0
  0
VERTEX
  8
MACK_MR
 10
38.9137
 20
60.7695
 30
0
 70
     0
  0
VERTEX
  8
MACK_MR
 10
40.1922
 20
60.7132
 30
0
 70
     0
  0
VERTEX
  8
MACK_MR
 10
41.4704
 20
60.6502
 30
0
 70
     0
  0
VERTEX
  8
MACK_MR
 10
42.7485
 20
60.5806
 30
0
 70
     0
  0
SEQEND
  0
POLYLINE
  8
MACK_MR
  6
CONTINUOUS
 62
     7
 66
     1
 40
0.0139
 41
0.0139
  0
VERTEX
  8
MACK_MR
 10
42.7485
 20
60.5806
 30
0
 70
     0
  0
VERTEX
  8
MACK_MR
 10
43.0377
 20
60.5679
 30
0
 70
     0
  0
VERTEX
  8
MACK_MR
 10
43.3233
 20
60.5417
 30
0
 70
     0
  0
VERTEX
  8
MACK_MR
 10
43.605
 20
60.5023
 30
0
 70
     0
  0
VERTEX
  8
MACK_MR
 10
43.8824
 20
60.45
 30
0
 70
     0
  0
VERTEX
  8
MACK_MR
 10
44.1553
 20
60.3852
 30
0
 70
     0
  0
VERTEX
  8
MACK_MR
 10
44.4233
 20
60.308
 30
0
 70
     0
  0
VERTEX
  8
MACK_MR
 10
44.686
 20
60.2188
 30
0
 70
     0
  0
VERTEX
  8
MACK_MR
 10
44.9432
 20
60.118
 30
0
 70
     0
  0
VERTEX
  8
MACK_MR
 10
45.1946
 20
60.0058
 30
0
 70
     0
  0
VERTEX
  8
MACK_MR
 10
45.4397
 20
59.8826
 30
0
 70
     0
  0
VERTEX
  8
MACK_MR
 10
45.6784
 20
59.7486
 30
0
 70
     0
  0
VERTEX
  8
MACK_MR
 10
45.9101
 20
59.6042
 30
0
 70
     0
  0
VERTEX
  8
MACK_MR
 10
46.1348
 20
59.4496
 30
0
 70
     0
  0
VERTEX
  8
MACK_MR
 10
46.3519
 20
59.2853
 30
0
 70
     0
  0
VERTEX
  8
MACK_MR
 10
46.5612
 20
59.1114
 30
0
 70
     0
  0
VERTEX
  8
MACK_MR
 10
46.7624
 20
58.9284
 30
0
 70
     0
  0
VERTEX
  8
MACK_MR
 10
46.9551
 20
58.7364
 30
0
 70
     0
  0
VERTEX
  8
MACK_MR
 10
47.139
 20
58.5359
 30
0
 70
     0
  0
VERTEX
  8
MACK_MR
 10
47.3139
 20
58.3271
 30
0
 70
     0
  0
VERTEX
  8
MACK_MR
 10
47.4792
 20
58.1103
 30
0
 70
     0
  0
VERTEX
  8
MACK_MR
 10
47.6348
 20
57.8859
 30
0
 70
     0
  0
VERTEX
  8
MACK_MR
 10
47.7804
 20
57.6541
 30
0
 70
     0
  0
VERTEX
  8
MACK_MR
 10
47.9155
 20
57.4153
 30
0
 70
     0
  0
VERTEX
  8
MACK_MR
 10
48.0399
 20
57.1698
 30
0
 70
     0
  0
VERTEX
  8
MACK_MR
 10
48.1532
 20
56.9178
 30
0
 70
     0
  0
VERTEX
  8
MACK_MR
 10
48.2552
 20
56.6598
 30
0
 70
     0
  0
VERTEX
  8
MACK_MR
 10
48.3454
 20
56.3959
 30
0
 70
     0
  0
VERTEX
  8
MACK_MR
 10
48.4236
 20
56.1266
 30
0
 70
     0
  0
VERTEX
  8
MACK_MR
 10
48.4895
 20
55.852
 30
0
 70
     0
  0
VERTEX
  8
MACK_MR
 10
48.5426
 20
55.5726
 30
0
 70
     0
  0
VERTEX
  8
MACK_MR
 10
48.5828
 20
55.2886
 30
0
 70
     0
  0
VERTEX
  8
MACK_MR
 10
48.6096
 20
55.0004
 30
0
 70
     0
  0
SEQEND
  0
POLYLINE
  8
MACK_MR
  6
CONTINUOUS
 62
     7
 66
     1
 40
0.0139
 41
0.0139
  0
VERTEX
  8
MACK_MR
 10
10.1099
 20
-21.2248
 30
0
 70
     0
  0
VERTEX
  8
MACK_MR
 10
10.1066
 20
-20.9659
 30
0
 70
     0
  0
VERTEX
  8
MACK_MR
 10
10.0967
 20
-20.7086
 30
0
 70
     0
  0
VERTEX
  8
MACK_MR
 10
10.0803
 20
-20.4528
 30
0
 70
     0
  0
VERTEX
  8
MACK_MR
 10
10.0574
 20
-20.1988
 30
0
 70
     0
  0
VERTEX
  8
MACK_MR
 10
10.0282
 20
-19.9465
 30
0
 70
     0
  0
VERTEX
  8
MACK_MR
 10
9.9927
 20
-19.696
 30
0
 70
     0
  0
VERTEX
  8
MACK_MR
 10
9.9511
 20
-19.4475
 30
0
 70
     0
  0
VERTEX
  8
MACK_MR
 10
9.9033
 20
-19.201
 30
0
 70
     0
  0
VERTEX
  8
MACK_MR
 10
9.8495
 20
-18.9566
 30
0
 70
     0
  0
VERTEX
  8
MACK_MR
 10
9.7898
 20
-18.7143
 30
0
 70
     0
  0
VERTEX
  8
MACK_MR
 10
9.7242
 20
-18.4743
 30
0
 70
     0
  0
VERTEX
  8
MACK_MR
 10
9.6529
 20
-18.2367
 30
0
 70
     0
  0
VERTEX
  8
MACK_MR
 10
9.5758
 20
-18.0014
 30
0
 70
     0
  0
VERTEX
  8
MACK_MR
 10
9.4932
 20
-17.7687
 30
0
 70
     0
  0
VERTEX
  8
MACK_MR
 10
9.405
 20
-17.5385
 30
0
 70
     0
  0
VERTEX
  8
MACK_MR
 10
9.3113
 20
-17.311
 30
0
 70
     0
  0
VERTEX
  8
MACK_MR
 10
9.2123
 20
-17.0863
 30
0
 70
     0
  0
VERTEX
  8
MACK_MR
 10
9.1081
 20
-16.8644
 30
0
 70
     0
  0
VERTEX
  8
MACK_MR
 10
8.9986
 20
-16.6454
 30
0
 70
     0
  0
VERTEX
  8
MACK_MR
 10
8.884
 20
-16.4293
 30
0
 70
     0
  0
VERTEX
  8
MACK_MR
 10
8.6397
 20
-16.0066
 30
0
 70
     0
  0
VERTEX
  8
MACK_MR
 10
8.376
 20
-15.5969
 30
0
 70
     0
  0
VERTEX
  8
MACK_MR
 10
8.0934
 20
-15.2007
 30
0
 70
     0
  0
VERTEX
  8
MACK_MR
 10
7.7926
 20
-14.8188
 30
0
 70
     0
  0
VERTEX
  8
MACK_MR
 10
7.4743
 20
-14.4518
 30
0
 70
     0
  0
VERTEX
  8
MACK_MR
 10
7.1391
 20
-14.1004
 30
0
 70
     0
  0
VERTEX
  8
MACK_MR
 10
6.7877
 20
-13.7652
 30
0
 70
     0
  0
VERTEX
  8
MACK_MR
 10
6.4207
 20
-13.4469
 30
0
 70
     0
  0
VERTEX
  8
MACK_MR
 10
6.0388
 20
-13.1461
 30
0
 70
     0
  0
VERTEX
  8
MACK_MR
 10
5.6426
 20
-12.8635
 30
0
 70
     0
  0
VERTEX
  8
MACK_MR
 10
5.2328
 20
-12.5997
 30
0
 70
     0
  0
VERTEX
  8
MACK_MR
 10
4.8101
 20
-12.3555
 30
0
 70
     0
  0
VERTEX
  8
MACK_MR
 10
4.5941
 20
-12.2409
 30
0
 70
     0
  0
VERTEX
  8
MACK_MR
 10
4.3751
 20
-12.1314
 30
0
 70
     0
  0
VERTEX
  8
MACK_MR
 10
4.1532
 20
-12.0271
 30
0
 70
     0
  0
VERTEX
  8
MACK_MR
 10
3.9284
 20
-11.9281
 30
0
 70
     0
  0
VERTEX
  8
MACK_MR
 10
3.7009
 20
-11.8345
 30
0
 70
     0
  0
VERTEX
  8
MACK_MR
 10
3.4708
 20
-11.7463
 30
0
 70
     0
  0
VERTEX
  8
MACK_MR
 10
3.238
 20
-11.6636
 30
0
 70
     0
  0
VERTEX
  8
MACK_MR
 10
3.0028
 20
-11.5866
 30
0
 70
     0
  0
VERTEX
  8
MACK_MR
 10
2.7651
 20
-11.5152
 30
0
 70
     0
  0
VERTEX
  8
MACK_MR
 10
2.5251
 20
-11.4496
 30
0
 70
     0
  0
VERTEX
  8
MACK_MR
 10
2.2829
 20
-11.3899
 30
0
 70
     0
  0
VERTEX
  8
MACK_MR
 10
2.0385
 20
-11.3361
 30
0
 70
     0
  0
VERTEX
  8
MACK_MR
 10
1.7919
 20
-11.2884
 30
0
 70
     0
  0
VERTEX
  8
MACK_MR
 10
1.5434
 20
-11.2467
 30
0
 70
     0
  0
VERTEX
  8
MACK_MR
 10
1.293
 20
-11.2112
 30
0
 70
     0
  0
VERTEX
  8
MACK_MR
 10
1.0407
 20
-11.182
 30
0
 70
     0
  0
VERTEX
  8
MACK_MR
 10
0.7866
 20
-11.1592
 30
0
 70
     0
  0
VERTEX
  8
MACK_MR
 10
0.5309
 20
-11.1428
 30
0
 70
     0
  0
VERTEX
  8
MACK_MR
 10
0.2735
 20
-11.1328
 30
0
 70
     0
  0
VERTEX
  8
MACK_MR
 10
0.0146
 20
-11.1295
 30
0
 70
     0
  0
VERTEX
  8
MACK_MR
 10
0.0146
 20
-11.1295
 30
0
 70
     0
  0
VERTEX
  8
MACK_MR
 10
-0.2442
 20
-11.1328
 30
0
 70
     0
  0
VERTEX
  8
MACK_MR
 10
-0.5016
 20
-11.1428
 30
0
 70
     0
  0
VERTEX
  8
MACK_MR
 10
-0.7573
 20
-11.1592
 30
0
 70
     0
  0
VERTEX
  8
MACK_MR
 10
-1.0114
 20
-11.182
 30
0
 70
     0
  0
VERTEX
  8
MACK_MR
 10
-1.2637
 20
-11.2112
 30
0
 70
     0
  0
VERTEX
  8
MACK_MR
 10
-1.5141
 20
-11.2467
 30
0
 70
     0
  0
VERTEX
  8
MACK_MR
 10
-1.7627
 20
-11.2884
 30
0
 70
     0
  0
VERTEX
  8
MACK_MR
 10
-2.0092
 20
-11.3361
 30
0
 70
     0
  0
VERTEX
  8
MACK_MR
 10
-2.2536
 20
-11.3899
 30
0
 70
     0
  0
VERTEX
  8
MACK_MR
 10
-2.4959
 20
-11.4496
 30
0
 70
     0
  0
VERTEX
  8
MACK_MR
 10
-2.7359
 20
-11.5152
 30
0
 70
     0
  0
VERTEX
  8
MACK_MR
 10
-2.9735
 20
-11.5866
 30
0
 70
     0
  0
VERTEX
  8
MACK_MR
 10
-3.2088
 20
-11.6636
 30
0
 70
     0
  0
VERTEX
  8
MACK_MR
 10
-3.4415
 20
-11.7463
 30
0
 70
     0
  0
VERTEX
  8
MACK_MR
 10
-3.6717
 20
-11.8345
 30
0
 70
     0
  0
VERTEX
  8
MACK_MR
 10
-3.8991
 20
-11.9281
 30
0
 70
     0
  0
VERTEX
  8
MACK_MR
 10
-4.1239
 20
-12.0271
 30
0
 70
     0
  0
VERTEX
  8
MACK_MR
 10
-4.3458
 20
-12.1314
 30
0
 70
     0
  0
VERTEX
  8
MACK_MR
 10
-4.5648
 20
-12.2409
 30
0
 70
     0
  0
VERTEX
  8
MACK_MR
 10
-4.7808
 20
-12.3555
 30
0
 70
     0
  0
VERTEX
  8
MACK_MR
 10
-5.2036
 20
-12.5997
 30
0
 70
     0
  0
VERTEX
  8
MACK_MR
 10
-5.6133
 20
-12.8635
 30
0
 70
     0
  0
VERTEX
  8
MACK_MR
 10
-6.0095
 20
-13.1461
 30
0
 70
     0
  0
VERTEX
  8
MACK_MR
 10
-6.3914
 20
-13.4469
 30
0
 70
     0
  0
VERTEX
  8
MACK_MR
 10
-6.7584
 20
-13.7652
 30
0
 70
     0
  0
VERTEX
  8
MACK_MR
 10
-7.1098
 20
-14.1004
 30
0
 70
     0
  0
VERTEX
  8
MACK_MR
 10
-7.445
 20
-14.4518
 30
0
 70
     0
  0
VERTEX
  8
MACK_MR
 10
-7.7633
 20
-14.8188
 30
0
 70
     0
  0
VERTEX
  8
MACK_MR
 10
-8.0641
 20
-15.2007
 30
0
 70
     0
  0
VERTEX
  8
MACK_MR
 10
-8.3467
 20
-15.5969
 30
0
 70
     0
  0
VERTEX
  8
MACK_MR
 10
-8.6104
 20
-16.0066
 30
0
 70
     0
  0
VERTEX
  8
MACK_MR
 10
-8.8547
 20
-16.4293
 30
0
 70
     0
  0
VERTEX
  8
MACK_MR
 10
-8.9693
 20
-16.6454
 30
0
 70
     0
  0
VERTEX
  8
MACK_MR
 10
-9.0788
 20
-16.8644
 30
0
 70
     0
  0
VERTEX
  8
MACK_MR
 10
-9.1831
 20
-17.0863
 30
0
 70
     0
  0
VERTEX
  8
MACK_MR
 10
-9.2821
 20
-17.311
 30
0
 70
     0
  0
VERTEX
  8
MACK_MR
 10
-9.3757
 20
-17.5385
 30
0
 70
     0
  0
VERTEX
  8
MACK_MR
 10
-9.4639
 20
-17.7687
 30
0
 70
     0
  0
VERTEX
  8
MACK_MR
 10
-9.5466
 20
-18.0014
 30
0
 70
     0
  0
VERTEX
  8
MACK_MR
 10
-9.6236
 20
-18.2367
 30
0
 70
     0
  0
VERTEX
  8
MACK_MR
 10
-9.695
 20
-18.4743
 30
0
 70
     0
  0
VERTEX
  8
MACK_MR
 10
-9.7605
 20
-18.7143
 30
0
 70
     0
  0
VERTEX
  8
MACK_MR
 10
-9.8202
 20
-18.9566
 30
0
 70
     0
  0
VERTEX
  8
MACK_MR
 10
-9.874
 20
-19.201
 30
0
 70
     0
  0
VERTEX
  8
MACK_MR
 10
-9.9218
 20
-19.4475
 30
0
 70
     0
  0
VERTEX
  8
MACK_MR
 10
-9.9635
 20
-19.696
 30
0
 70
     0
  0
VERTEX
  8
MACK_MR
 10
-9.9989
 20
-19.9465
 30
0
 70
     0
  0
VERTEX
  8
MACK_MR
 10
-10.0281
 20
-20.1988
 30
0
 70
     0
  0
VERTEX
  8
MACK_MR
 10
-10.051
 20
-20.4528
 30
0
 70
     0
  0
VERTEX
  8
MACK_MR
 10
-10.0674
 20
-20.7086
 30
0
 70
     0
  0
VERTEX
  8
MACK_MR
 10
-10.0773
 20
-20.9659
 30
0
 70
     0
  0
VERTEX
  8
MACK_MR
 10
-10.0807
 20
-21.2248
 30
0
 70
     0
  0
VERTEX
  8
MACK_MR
 10
-10.0807
 20
-21.2248
 30
0
 70
     0
  0
VERTEX
  8
MACK_MR
 10
-10.0773
 20
-21.4837
 30
0
 70
     0
  0
VERTEX
  8
MACK_MR
 10
-10.0674
 20
-21.741
 30
0
 70
     0
  0
VERTEX
  8
MACK_MR
 10
-10.051
 20
-21.9968
 30
0
 70
     0
  0
VERTEX
  8
MACK_MR
 10
-10.0281
 20
-22.2508
 30
0
 70
     0
  0
VERTEX
  8
MACK_MR
 10
-9.9989
 20
-22.5031
 30
0
 70
     0
  0
VERTEX
  8
MACK_MR
 10
-9.9635
 20
-22.7536
 30
0
 70
     0
  0
VERTEX
  8
MACK_MR
 10
-9.9218
 20
-23.0021
 30
0
 70
     0
  0
VERTEX
  8
MACK_MR
 10
-9.874
 20
-23.2486
 30
0
 70
     0
  0
VERTEX
  8
MACK_MR
 10
-9.8202
 20
-23.4931
 30
0
 70
     0
  0
VERTEX
  8
MACK_MR
 10
-9.7605
 20
-23.7353
 30
0
 70
     0
  0
VERTEX
  8
MACK_MR
 10
-9.695
 20
-23.9753
 30
0
 70
     0
  0
VERTEX
  8
MACK_MR
 10
-9.6236
 20
-24.213
 30
0
 70
     0
  0
VERTEX
  8
MACK_MR
 10
-9.5466
 20
-24.4482
 30
0
 70
     0
  0
VERTEX
  8
MACK_MR
 10
-9.4639
 20
-24.6809
 30
0
 70
     0
  0
VERTEX
  8
MACK_MR
 10
-9.3757
 20
-24.9111
 30
0
 70
     0
  0
VERTEX
  8
MACK_MR
 10
-9.2821
 20
-25.1386
 30
0
 70
     0
  0
VERTEX
  8
MACK_MR
 10
-9.1831
 20
-25.3633
 30
0
 70
     0
  0
VERTEX
  8
MACK_MR
 10
-9.0788
 20
-25.5853
 30
0
 70
     0
  0
VERTEX
  8
MACK_MR
 10
-8.9693
 20
-25.8043
 30
0
 70
     0
  0
VERTEX
  8
MACK_MR
 10
-8.8547
 20
-26.0203
 30
0
 70
     0
  0
VERTEX
  8
MACK_MR
 10
-8.6104
 20
-26.443
 30
0
 70
     0
  0
VERTEX
  8
MACK_MR
 10
-8.3467
 20
-26.8528
 30
0
 70
     0
  0
VERTEX
  8
MACK_MR
 10
-8.0641
 20
-27.2489
 30
0
 70
     0
  0
VERTEX
  8
MACK_MR
 10
-7.7633
 20
-27.6308
 30
0
 70
     0
  0
VERTEX
  8
MACK_MR
 10
-7.445
 20
-27.9978
 30
0
 70
     0
  0
VERTEX
  8
MACK_MR
 10
-7.1098
 20
-28.3493
 30
0
 70
     0
  0
VERTEX
  8
MACK_MR
 10
-6.7584
 20
-28.6844
 30
0
 70
     0
  0
VERTEX
  8
MACK_MR
 10
-6.3914
 20
-29.0028
 30
0
 70
     0
  0
VERTEX
  8
MACK_MR
 10
-6.0095
 20
-29.3035
 30
0
 70
     0
  0
VERTEX
  8
MACK_MR
 10
-5.6133
 20
-29.5861
 30
0
 70
     0
  0
VERTEX
  8
MACK_MR
 10
-5.2036
 20
-29.8499
 30
0
 70
     0
  0
VERTEX
  8
MACK_MR
 10
-4.7808
 20
-30.0941
 30
0
 70
     0
  0
VERTEX
  8
MACK_MR
 10
-4.5648
 20
-30.2087
 30
0
 70
     0
  0
VERTEX
  8
MACK_MR
 10
-4.3458
 20
-30.3182
 30
0
 70
     0
  0
VERTEX
  8
MACK_MR
 10
-4.1239
 20
-30.4225
 30
0
 70
     0
  0
VERTEX
  8
MACK_MR
 10
-3.8991
 20
-30.5215
 30
0
 70
     0
  0
VERTEX
  8
MACK_MR
 10
-3.6717
 20
-30.6152
 30
0
 70
     0
  0
VERTEX
  8
MACK_MR
 10
-3.4415
 20
-30.7033
 30
0
 70
     0
  0
VERTEX
  8
MACK_MR
 10
-3.2088
 20
-30.786
 30
0
 70
     0
  0
VERTEX
  8
MACK_MR
 10
-2.9735
 20
-30.863
 30
0
 70
     0
  0
VERTEX
  8
MACK_MR
 10
-2.7359
 20
-30.9344
 30
0
 70
     0
  0
VERTEX
  8
MACK_MR
 10
-2.4959
 20
-31
 30
0
 70
     0
  0
VERTEX
  8
MACK_MR
 10
-2.2536
 20
-31.0597
 30
0
 70
     0
  0
VERTEX
  8
MACK_MR
 10
-2.0092
 20
-31.1135
 30
0
 70
     0
  0
VERTEX
  8
MACK_MR
 10
-1.7627
 20
-31.1612
 30
0
 70
     0
  0
VERTEX
  8
MACK_MR
 10
-1.5141
 20
-31.2029
 30
0
 70
     0
  0
VERTEX
  8
MACK_MR
 10
-1.2637
 20
-31.2384
 30
0
 70
     0
  0
VERTEX
  8
MACK_MR
 10
-1.0114
 20
-31.2676
 30
0
 70
     0
  0
VERTEX
  8
MACK_MR
 10
-0.7573
 20
-31.2904
 30
0
 70
     0
  0
VERTEX
  8
MACK_MR
 10
-0.5016
 20
-31.3069
 30
0
 70
     0
  0
VERTEX
  8
MACK_MR
 10
-0.2442
 20
-31.3168
 30
0
 70
     0
  0
VERTEX
  8
MACK_MR
 10
0.0146
 20
-31.3201
 30
0
 70
     0
  0
VERTEX
  8
MACK_MR
 10
0.0146
 20
-31.3201
 30
0
 70
     0
  0
VERTEX
  8
MACK_MR
 10
0.2735
 20
-31.3168
 30
0
 70
     0
  0
VERTEX
  8
MACK_MR
 10
0.5309
 20
-31.3069
 30
0
 70
     0
  0
VERTEX
  8
MACK_MR
 10
0.7866
 20
-31.2904
 30
0
 70
     0
  0
VERTEX
  8
MACK_MR
 10
1.0407
 20
-31.2676
 30
0
 70
     0
  0
VERTEX
  8
MACK_MR
 10
1.293
 20
-31.2384
 30
0
 70
     0
  0
VERTEX
  8
MACK_MR
 10
1.5434
 20
-31.2029
 30
0
 70
     0
  0
VERTEX
  8
MACK_MR
 10
1.7919
 20
-31.1612
 30
0
 70
     0
  0
VERTEX
  8
MACK_MR
 10
2.0385
 20
-31.1135
 30
0
 70
     0
  0
VERTEX
  8
MACK_MR
 10
2.2829
 20
-31.0597
 30
0
 70
     0
  0
VERTEX
  8
MACK_MR
 10
2.5251
 20
-31
 30
0
 70
     0
  0
VERTEX
  8
MACK_MR
 10
2.7651
 20
-30.9344
 30
0
 70
     0
  0
VERTEX
  8
MACK_MR
 10
3.0028
 20
-30.863
 30
0
 70
     0
  0
VERTEX
  8
MACK_MR
 10
3.238
 20
-30.786
 30
0
 70
     0
  0
VERTEX
  8
MACK_MR
 10
3.4708
 20
-30.7033
 30
0
 70
     0
  0
VERTEX
  8
MACK_MR
 10
3.7009
 20
-30.6152
 30
0
 70
     0
  0
VERTEX
  8
MACK_MR
 10
3.9284
 20
-30.5215
 30
0
 70
     0
  0
VERTEX
  8
MACK_MR
 10
4.1532
 20
-30.4225
 30
0
 70
     0
  0
VERTEX
  8
MACK_MR
 10
4.3751
 20
-30.3182
 30
0
 70
     0
  0
VERTEX
  8
MACK_MR
 10
4.5941
 20
-30.2087
 30
0
 70
     0
  0
VERTEX
  8
MACK_MR
 10
4.8101
 20
-30.0941
 30
0
 70
     0
  0
VERTEX
  8
MACK_MR
 10
5.2328
 20
-29.8499
 30
0
 70
     0
  0
VERTEX
  8
MACK_MR
 10
5.6426
 20
-29.5861
 30
0
 70
     0
  0
VERTEX
  8
MACK_MR
 10
6.0388
 20
-29.3035
 30
0
 70
     0
  0
VERTEX
  8
MACK_MR
 10
6.4207
 20
-29.0028
 30
0
 70
     0
  0
VERTEX
  8
MACK_MR
 10
6.7877
 20
-28.6844
 30
0
 70
     0
  0
VERTEX
  8
MACK_MR
 10
7.1391
 20
-28.3493
 30
0
 70
     0
  0
VERTEX
  8
MACK_MR
 10
7.4743
 20
-27.9978
 30
0
 70
     0
  0
VERTEX
  8
MACK_MR
 10
7.7926
 20
-27.6308
 30
0
 70
     0
  0
VERTEX
  8
MACK_MR
 10
8.0934
 20
-27.2489
 30
0
 70
     0
  0
VERTEX
  8
MACK_MR
 10
8.376
 20
-26.8528
 30
0
 70
     0
  0
VERTEX
  8
MACK_MR
 10
8.6397
 20
-26.443
 30
0
 70
     0
  0
VERTEX
  8
MACK_MR
 10
8.884
 20
-26.0203
 30
0
 70
     0
  0
VERTEX
  8
MACK_MR
 10
8.9986
 20
-25.8043
 30
0
 70
     0
  0
VERTEX
  8
MACK_MR
 10
9.1081
 20
-25.5853
 30
0
 70
     0
  0
VERTEX
  8
MACK_MR
 10
9.2123
 20
-25.3633
 30
0
 70
     0
  0
VERTEX
  8
MACK_MR
 10
9.3113
 20
-25.1386
 30
0
 70
     0
  0
VERTEX
  8
MACK_MR
 10
9.405
 20
-24.9111
 30
0
 70
     0
  0
VERTEX
  8
MACK_MR
 10
9.4932
 20
-24.6809
 30
0
 70
     0
  0
VERTEX
  8
MACK_MR
 10
9.5758
 20
-24.4482
 30
0
 70
     0
  0
VERTEX
  8
MACK_MR
 10
9.6529
 20
-24.213
 30
0
 70
     0
  0
VERTEX
  8
MACK_MR
 10
9.7242
 20
-23.9753
 30
0
 70
     0
  0
VERTEX
  8
MACK_MR
 10
9.7898
 20
-23.7353
 30
0
 70
     0
  0
VERTEX
  8
MACK_MR
 10
9.8495
 20
-23.4931
 30
0
 70
     0
  0
VERTEX
  8
MACK_MR
 10
9.9033
 20
-23.2486
 30
0
 70
     0
  0
VERTEX
  8
MACK_MR
 10
9.9511
 20
-23.0021
 30
0
 70
     0
  0
VERTEX
  8
MACK_MR
 10
9.9927
 20
-22.7536
 30
0
 70
     0
  0
VERTEX
  8
MACK_MR
 10
10.0282
 20
-22.5031
 30
0
 70
     0
  0
VERTEX
  8
MACK_MR
 10
10.0574
 20
-22.2508
 30
0
 70
     0
  0
VERTEX
  8
MACK_MR
 10
10.0803
 20
-21.9968
 30
0
 70
     0
  0
VERTEX
  8
MACK_MR
 10
10.0967
 20
-21.741
 30
0
 70
     0
  0
VERTEX
  8
MACK_MR
 10
10.1066
 20
-21.4837
 30
0
 70
     0
  0
VERTEX
  8
MACK_MR
 10
10.1099
 20
-21.2248
 30
0
 70
     0
  0
SEQEND
  0
POLYLINE
  8
MACK_MR
  6
CONTINUOUS
 62
     7
 66
     1
 40
0.0139
 41
0.0139
  0
VERTEX
  8
MACK_MR
 10
2.5146
 20
-21.2248
 30
0
 70
     0
  0
VERTEX
  8
MACK_MR
 10
2.5114
 20
-21.097
 30
0
 70
     0
  0
VERTEX
  8
MACK_MR
 10
2.5016
 20
-20.9707
 30
0
 70
     0
  0
VERTEX
  8
MACK_MR
 10
2.4856
 20
-20.8462
 30
0
 70
     0
  0
VERTEX
  8
MACK_MR
 10
2.4635
 20
-20.7236
 30
0
 70
     0
  0
VERTEX
  8
MACK_MR
 10
2.4354
 20
-20.6031
 30
0
 70
     0
  0
VERTEX
  8
MACK_MR
 10
2.4014
 20
-20.4848
 30
0
 70
     0
  0
VERTEX
  8
MACK_MR
 10
2.3619
 20
-20.3689
 30
0
 70
     0
  0
VERTEX
  8
MACK_MR
 10
2.3169
 20
-20.2556
 30
0
 70
     0
  0
VERTEX
  8
MACK_MR
 10
2.2665
 20
-20.145
 30
0
 70
     0
  0
VERTEX
  8
MACK_MR
 10
2.211
 20
-20.0373
 30
0
 70
     0
  0
VERTEX
  8
MACK_MR
 10
2.1505
 20
-19.9326
 30
0
 70
     0
  0
VERTEX
  8
MACK_MR
 10
2.0852
 20
-19.8311
 30
0
 70
     0
  0
VERTEX
  8
MACK_MR
 10
1.9408
 20
-19.6384
 30
0
 70
     0
  0
VERTEX
  8
MACK_MR
 10
1.7789
 20
-19.4605
 30
0
 70
     0
  0
VERTEX
  8
MACK_MR
 10
1.601
 20
-19.2987
 30
0
 70
     0
  0
VERTEX
  8
MACK_MR
 10
1.4083
 20
-19.1542
 30
0
 70
     0
  0
VERTEX
  8
MACK_MR
 10
1.3069
 20
-19.0889
 30
0
 70
     0
  0
VERTEX
  8
MACK_MR
 10
1.2022
 20
-19.0284
 30
0
 70
     0
  0
VERTEX
  8
MACK_MR
 10
1.0945
 20
-18.9729
 30
0
 70
     0
  0
VERTEX
  8
MACK_MR
 10
0.9838
 20
-18.9226
 30
0
 70
     0
  0
VERTEX
  8
MACK_MR
 10
0.8705
 20
-18.8775
 30
0
 70
     0
  0
VERTEX
  8
MACK_MR
 10
0.7546
 20
-18.838
 30
0
 70
     0
  0
VERTEX
  8
MACK_MR
 10
0.6363
 20
-18.8041
 30
0
 70
     0
  0
VERTEX
  8
MACK_MR
 10
0.5158
 20
-18.776
 30
0
 70
     0
  0
VERTEX
  8
MACK_MR
 10
0.3932
 20
-18.7538
 30
0
 70
     0
  0
VERTEX
  8
MACK_MR
 10
0.2687
 20
-18.7378
 30
0
 70
     0
  0
VERTEX
  8
MACK_MR
 10
0.1425
 20
-18.7281
 30
0
 70
     0
  0
VERTEX
  8
MACK_MR
 10
0.0146
 20
-18.7248
 30
0
 70
     0
  0
VERTEX
  8
MACK_MR
 10
0.0146
 20
-18.7248
 30
0
 70
     0
  0
VERTEX
  8
MACK_MR
 10
-0.1132
 20
-18.7281
 30
0
 70
     0
  0
VERTEX
  8
MACK_MR
 10
-0.2395
 20
-18.7378
 30
0
 70
     0
  0
VERTEX
  8
MACK_MR
 10
-0.364
 20
-18.7538
 30
0
 70
     0
  0
VERTEX
  8
MACK_MR
 10
-0.4865
 20
-18.776
 30
0
 70
     0
  0
VERTEX
  8
MACK_MR
 10
-0.6071
 20
-18.8041
 30
0
 70
     0
  0
VERTEX
  8
MACK_MR
 10
-0.7254
 20
-18.838
 30
0
 70
     0
  0
VERTEX
  8
MACK_MR
 10
-0.8412
 20
-18.8775
 30
0
 70
     0
  0
VERTEX
  8
MACK_MR
 10
-0.9546
 20
-18.9226
 30
0
 70
     0
  0
VERTEX
  8
MACK_MR
 10
-1.0652
 20
-18.9729
 30
0
 70
     0
  0
VERTEX
  8
MACK_MR
 10
-1.1729
 20
-19.0284
 30
0
 70
     0
  0
VERTEX
  8
MACK_MR
 10
-1.2776
 20
-19.0889
 30
0
 70
     0
  0
VERTEX
  8
MACK_MR
 10
-1.3791
 20
-19.1542
 30
0
 70
     0
  0
VERTEX
  8
MACK_MR
 10
-1.5718
 20
-19.2987
 30
0
 70
     0
  0
VERTEX
  8
MACK_MR
 10
-1.7497
 20
-19.4605
 30
0
 70
     0
  0
VERTEX
  8
MACK_MR
 10
-1.9115
 20
-19.6384
 30
0
 70
     0
  0
VERTEX
  8
MACK_MR
 10
-2.056
 20
-19.8311
 30
0
 70
     0
  0
VERTEX
  8
MACK_MR
 10
-2.1213
 20
-19.9326
 30
0
 70
     0
  0
VERTEX
  8
MACK_MR
 10
-2.1818
 20
-20.0373
 30
0
 70
     0
  0
VERTEX
  8
MACK_MR
 10
-2.2373
 20
-20.145
 30
0
 70
     0
  0
VERTEX
  8
MACK_MR
 10
-2.2876
 20
-20.2556
 30
0
 70
     0
  0
VERTEX
  8
MACK_MR
 10
-2.3326
 20
-20.3689
 30
0
 70
     0
  0
VERTEX
  8
MACK_MR
 10
-2.3722
 20
-20.4848
 30
0
 70
     0
  0
VERTEX
  8
MACK_MR
 10
-2.4061
 20
-20.6031
 30
0
 70
     0
  0
VERTEX
  8
MACK_MR
 10
-2.4342
 20
-20.7236
 30
0
 70
     0
  0
VERTEX
  8
MACK_MR
 10
-2.4563
 20
-20.8462
 30
0
 70
     0
  0
VERTEX
  8
MACK_MR
 10
-2.4724
 20
-20.9707
 30
0
 70
     0
  0
VERTEX
  8
MACK_MR
 10
-2.4821
 20
-21.097
 30
0
 70
     0
  0
VERTEX
  8
MACK_MR
 10
-2.4854
 20
-21.2248
 30
0
 70
     0
  0
VERTEX
  8
MACK_MR
 10
-2.4854
 20
-21.2248
 30
0
 70
     0
  0
VERTEX
  8
MACK_MR
 10
-2.4821
 20
-21.3526
 30
0
 70
     0
  0
VERTEX
  8
MACK_MR
 10
-2.4724
 20
-21.4789
 30
0
 70
     0
  0
VERTEX
  8
MACK_MR
 10
-2.4563
 20
-21.6034
 30
0
 70
     0
  0
VERTEX
  8
MACK_MR
 10
-2.4342
 20
-21.726
 30
0
 70
     0
  0
VERTEX
  8
MACK_MR
 10
-2.4061
 20
-21.8465
 30
0
 70
     0
  0
VERTEX
  8
MACK_MR
 10
-2.3722
 20
-21.9648
 30
0
 70
     0
  0
VERTEX
  8
MACK_MR
 10
-2.3326
 20
-22.0807
 30
0
 70
     0
  0
VERTEX
  8
MACK_MR
 10
-2.2876
 20
-22.194
 30
0
 70
     0
  0
VERTEX
  8
MACK_MR
 10
-2.2373
 20
-22.3046
 30
0
 70
     0
  0
VERTEX
  8
MACK_MR
 10
-2.1818
 20
-22.4124
 30
0
 70
     0
  0
VERTEX
  8
MACK_MR
 10
-2.1213
 20
-22.517
 30
0
 70
     0
  0
VERTEX
  8
MACK_MR
 10
-2.056
 20
-22.6185
 30
0
 70
     0
  0
VERTEX
  8
MACK_MR
 10
-1.9115
 20
-22.8112
 30
0
 70
     0
  0
VERTEX
  8
MACK_MR
 10
-1.7497
 20
-22.9891
 30
0
 70
     0
  0
VERTEX
  8
MACK_MR
 10
-1.5718
 20
-23.1509
 30
0
 70
     0
  0
VERTEX
  8
MACK_MR
 10
-1.3791
 20
-23.2954
 30
0
 70
     0
  0
VERTEX
  8
MACK_MR
 10
-1.2776
 20
-23.3607
 30
0
 70
     0
  0
VERTEX
  8
MACK_MR
 10
-1.1729
 20
-23.4212
 30
0
 70
     0
  0
VERTEX
  8
MACK_MR
 10
-1.0652
 20
-23.4767
 30
0
 70
     0
  0
VERTEX
  8
MACK_MR
 10
-0.9546
 20
-23.527
 30
0
 70
     0
  0
VERTEX
  8
MACK_MR
 10
-0.8412
 20
-23.5721
 30
0
 70
     0
  0
VERTEX
  8
MACK_MR
 10
-0.7254
 20
-23.6116
 30
0
 70
     0
  0
VERTEX
  8
MACK_MR
 10
-0.6071
 20
-23.6455
 30
0
 70
     0
  0
VERTEX
  8
MACK_MR
 10
-0.4865
 20
-23.6736
 30
0
 70
     0
  0
VERTEX
  8
MACK_MR
 10
-0.364
 20
-23.6958
 30
0
 70
     0
  0
VERTEX
  8
MACK_MR
 10
-0.2395
 20
-23.7118
 30
0
 70
     0
  0
VERTEX
  8
MACK_MR
 10
-0.1132
 20
-23.7215
 30
0
 70
     0
  0
VERTEX
  8
MACK_MR
 10
0.0146
 20
-23.7248
 30
0
 70
     0
  0
VERTEX
  8
MACK_MR
 10
0.0146
 20
-23.7248
 30
0
 70
     0
  0
VERTEX
  8
MACK_MR
 10
0.1425
 20
-23.7215
 30
0
 70
     0
  0
VERTEX
  8
MACK_MR
 10
0.2687
 20
-23.7118
 30
0
 70
     0
  0
VERTEX
  8
MACK_MR
 10
0.3932
 20
-23.6958
 30
0
 70
     0
  0
VERTEX
  8
MACK_MR
 10
0.5158
 20
-23.6736
 30
0
 70
     0
  0
VERTEX
  8
MACK_MR
 10
0.6363
 20
-23.6455
 30
0
 70
     0
  0
VERTEX
  8
MACK_MR
 10
0.7546
 20
-23.6116
 30
0
 70
     0
  0
VERTEX
  8
MACK_MR
 10
0.8705
 20
-23.5721
 30
0
 70
     0
  0
VERTEX
  8
MACK_MR
 10
0.9838
 20
-23.527
 30
0
 70
     0
  0
VERTEX
  8
MACK_MR
 10
1.0945
 20
-23.4767
 30
0
 70
     0
  0
VERTEX
  8
MACK_MR
 10
1.2022
 20
-23.4212
 30
0
 70
     0
  0
VERTEX
  8
MACK_MR
 10
1.3069
 20
-23.3607
 30
0
 70
     0
  0
VERTEX
  8
MACK_MR
 10
1.4083
 20
-23.2954
 30
0
 70
     0
  0
VERTEX
  8
MACK_MR
 10
1.601
 20
-23.1509
 30
0
 70
     0
  0
VERTEX
  8
MACK_MR
 10
1.7789
 20
-22.9891
 30
0
 70
     0
  0
VERTEX
  8
MACK_MR
 10
1.9408
 20
-22.8112
 30
0
 70
     0
  0
VERTEX
  8
MACK_MR
 10
2.0852
 20
-22.6185
 30
0
 70
     0
  0
VERTEX
  8
MACK_MR
 10
2.1505
 20
-22.517
 30
0
 70
     0
  0
VERTEX
  8
MACK_MR
 10
2.211
 20
-22.4124
 30
0
 70
     0
  0
VERTEX
  8
MACK_MR
 10
2.2665
 20
-22.3046
 30
0
 70
     0
  0
VERTEX
  8
MACK_MR
 10
2.3169
 20
-22.194
 30
0
 70
     0
  0
VERTEX
  8
MACK_MR
 10
2.3619
 20
-22.0807
 30
0
 70
     0
  0
VERTEX
  8
MACK_MR
 10
2.4014
 20
-21.9648
 30
0
 70
     0
  0
VERTEX
  8
MACK_MR
 10
2.4354
 20
-21.8465
 30
0
 70
     0
  0
VERTEX
  8
MACK_MR
 10
2.4635
 20
-21.726
 30
0
 70
     0
  0
VERTEX
  8
MACK_MR
 10
2.4856
 20
-21.6034
 30
0
 70
     0
  0
VERTEX
  8
MACK_MR
 10
2.5016
 20
-21.4789
 30
0
 70
     0
  0
VERTEX
  8
MACK_MR
 10
2.5114
 20
-21.3526
 30
0
 70
     0
  0
VERTEX
  8
MACK_MR
 10
2.5146
 20
-21.2248
 30
0
 70
     0
  0
SEQEND
  0
POLYLINE
  8
MACK_MR
  6
CONTINUOUS
 62
     7
 66
     1
 40
0.0139
 41
0.0139
  0
VERTEX
  8
MACK_MR
 10
-3.4854
 20
-0.5185
 30
0
 70
     0
  0
VERTEX
  8
MACK_MR
 10
-3.4854
 20
-0.0248
 30
0
 70
     0
  0
SEQEND
  0
POLYLINE
  8
MACK_MR
  6
CONTINUOUS
 62
     7
 66
     1
 40
0.0139
 41
0.0139
  0
VERTEX
  8
MACK_MR
 10
11.2646
 20
-21.2248
 30
0
 70
     0
  0
VERTEX
  8
MACK_MR
 10
11.2609
 20
-20.9363
 30
0
 70
     0
  0
VERTEX
  8
MACK_MR
 10
11.2499
 20
-20.6495
 30
0
 70
     0
  0
VERTEX
  8
MACK_MR
 10
11.2316
 20
-20.3645
 30
0
 70
     0
  0
VERTEX
  8
MACK_MR
 10
11.2061
 20
-20.0814
 30
0
 70
     0
  0
VERTEX
  8
MACK_MR
 10
11.1735
 20
-19.8003
 30
0
 70
     0
  0
VERTEX
  8
MACK_MR
 10
11.134
 20
-19.5212
 30
0
 70
     0
  0
VERTEX
  8
MACK_MR
 10
11.0876
 20
-19.2442
 30
0
 70
     0
  0
VERTEX
  8
MACK_MR
 10
11.0344
 20
-18.9695
 30
0
 70
     0
  0
VERTEX
  8
MACK_MR
 10
10.9744
 20
-18.6971
 30
0
 70
     0
  0
VERTEX
  8
MACK_MR
 10
10.9079
 20
-18.4272
 30
0
 70
     0
  0
VERTEX
  8
MACK_MR
 10
10.8348
 20
-18.1597
 30
0
 70
     0
  0
VERTEX
  8
MACK_MR
 10
10.7553
 20
-17.8949
 30
0
 70
     0
  0
VERTEX
  8
MACK_MR
 10
10.6694
 20
-17.6327
 30
0
 70
     0
  0
VERTEX
  8
MACK_MR
 10
10.5773
 20
-17.3734
 30
0
 70
     0
  0
VERTEX
  8
MACK_MR
 10
10.479
 20
-17.1169
 30
0
 70
     0
  0
VERTEX
  8
MACK_MR
 10
10.3747
 20
-16.8634
 30
0
 70
     0
  0
VERTEX
  8
MACK_MR
 10
10.2644
 20
-16.6129
 30
0
 70
     0
  0
VERTEX
  8
MACK_MR
 10
10.1482
 20
-16.3656
 30
0
 70
     0
  0
VERTEX
  8
MACK_MR
 10
10.0262
 20
-16.1216
 30
0
 70
     0
  0
VERTEX
  8
MACK_MR
 10
9.8984
 20
-15.8808
 30
0
 70
     0
  0
VERTEX
  8
MACK_MR
 10
9.7651
 20
-15.6435
 30
0
 70
     0
  0
VERTEX
  8
MACK_MR
 10
9.6262
 20
-15.4098
 30
0
 70
     0
  0
VERTEX
  8
MACK_MR
 10
9.482
 20
-15.1796
 30
0
 70
     0
  0
VERTEX
  8
MACK_MR
 10
9.3323
 20
-14.9531
 30
0
 70
     0
  0
VERTEX
  8
MACK_MR
 10
9.1775
 20
-14.7304
 30
0
 70
     0
  0
VERTEX
  8
MACK_MR
 10
9.0174
 20
-14.5116
 30
0
 70
     0
  0
VERTEX
  8
MACK_MR
 10
8.8523
 20
-14.2968
 30
0
 70
     0
  0
VERTEX
  8
MACK_MR
 10
8.6822
 20
-14.0861
 30
0
 70
     0
  0
VERTEX
  8
MACK_MR
 10
8.3275
 20
-13.6771
 30
0
 70
     0
  0
VERTEX
  8
MACK_MR
 10
7.954
 20
-13.2855
 30
0
 70
     0
  0
VERTEX
  8
MACK_MR
 10
7.5624
 20
-12.9119
 30
0
 70
     0
  0
VERTEX
  8
MACK_MR
 10
7.1534
 20
-12.5572
 30
0
 70
     0
  0
VERTEX
  8
MACK_MR
 10
6.9426
 20
-12.3871
 30
0
 70
     0
  0
VERTEX
  8
MACK_MR
 10
6.7278
 20
-12.222
 30
0
 70
     0
  0
VERTEX
  8
MACK_MR
 10
6.509
 20
-12.062
 30
0
 70
     0
  0
VERTEX
  8
MACK_MR
 10
6.2863
 20
-11.9071
 30
0
 70
     0
  0
VERTEX
  8
MACK_MR
 10
6.0598
 20
-11.7575
 30
0
 70
     0
  0
VERTEX
  8
MACK_MR
 10
5.8297
 20
-11.6132
 30
0
 70
     0
  0
VERTEX
  8
MACK_MR
 10
5.5959
 20
-11.4743
 30
0
 70
     0
  0
VERTEX
  8
MACK_MR
 10
5.3586
 20
-11.341
 30
0
 70
     0
  0
VERTEX
  8
MACK_MR
 10
5.1179
 20
-11.2133
 30
0
 70
     0
  0
VERTEX
  8
MACK_MR
 10
4.8738
 20
-11.0913
 30
0
 70
     0
  0
VERTEX
  8
MACK_MR
 10
4.6265
 20
-10.9751
 30
0
 70
     0
  0
VERTEX
  8
MACK_MR
 10
4.3761
 20
-10.8647
 30
0
 70
     0
  0
VERTEX
  8
MACK_MR
 10
4.1226
 20
-10.7604
 30
0
 70
     0
  0
VERTEX
  8
MACK_MR
 10
3.8661
 20
-10.6621
 30
0
 70
     0
  0
VERTEX
  8
MACK_MR
 10
3.6067
 20
-10.57
 30
0
 70
     0
  0
VERTEX
  8
MACK_MR
 10
3.3446
 20
-10.4842
 30
0
 70
     0
  0
VERTEX
  8
MACK_MR
 10
3.0797
 20
-10.4046
 30
0
 70
     0
  0
VERTEX
  8
MACK_MR
 10
2.8123
 20
-10.3316
 30
0
 70
     0
  0
VERTEX
  8
MACK_MR
 10
2.5423
 20
-10.265
 30
0
 70
     0
  0
VERTEX
  8
MACK_MR
 10
2.2699
 20
-10.2051
 30
0
 70
     0
  0
VERTEX
  8
MACK_MR
 10
1.9952
 20
-10.1519
 30
0
 70
     0
  0
VERTEX
  8
MACK_MR
 10
1.7183
 20
-10.1054
 30
0
 70
     0
  0
VERTEX
  8
MACK_MR
 10
1.4392
 20
-10.0659
 30
0
 70
     0
  0
VERTEX
  8
MACK_MR
 10
1.158
 20
-10.0333
 30
0
 70
     0
  0
VERTEX
  8
MACK_MR
 10
0.8749
 20
-10.0079
 30
0
 70
     0
  0
VERTEX
  8
MACK_MR
 10
0.5899
 20
-9.9896
 30
0
 70
     0
  0
VERTEX
  8
MACK_MR
 10
0.3031
 20
-9.9785
 30
0
 70
     0
  0
VERTEX
  8
MACK_MR
 10
0.0146
 20
-9.9748
 30
0
 70
     0
  0
VERTEX
  8
MACK_MR
 10
0.0146
 20
-9.9748
 30
0
 70
     0
  0
VERTEX
  8
MACK_MR
 10
-0.2738
 20
-9.9785
 30
0
 70
     0
  0
VERTEX
  8
MACK_MR
 10
-0.5606
 20
-9.9896
 30
0
 70
     0
  0
VERTEX
  8
MACK_MR
 10
-0.8456
 20
-10.0079
 30
0
 70
     0
  0
VERTEX
  8
MACK_MR
 10
-1.1288
 20
-10.0333
 30
0
 70
     0
  0
VERTEX
  8
MACK_MR
 10
-1.4099
 20
-10.0659
 30
0
 70
     0
  0
VERTEX
  8
MACK_MR
 10
-1.689
 20
-10.1054
 30
0
 70
     0
  0
VERTEX
  8
MACK_MR
 10
-1.966
 20
-10.1519
 30
0
 70
     0
  0
VERTEX
  8
MACK_MR
 10
-2.2407
 20
-10.2051
 30
0
 70
     0
  0
VERTEX
  8
MACK_MR
 10
-2.5131
 20
-10.265
 30
0
 70
     0
  0
VERTEX
  8
MACK_MR
 10
-2.783
 20
-10.3316
 30
0
 70
     0
  0
VERTEX
  8
MACK_MR
 10
-3.0505
 20
-10.4046
 30
0
 70
     0
  0
VERTEX
  8
MACK_MR
 10
-3.3153
 20
-10.4842
 30
0
 70
     0
  0
VERTEX
  8
MACK_MR
 10
-3.5775
 20
-10.57
 30
0
 70
     0
  0
VERTEX
  8
MACK_MR
 10
-3.8368
 20
-10.6621
 30
0
 70
     0
  0
VERTEX
  8
MACK_MR
 10
-4.0933
 20
-10.7604
 30
0
 70
     0
  0
VERTEX
  8
MACK_MR
 10
-4.3468
 20
-10.8647
 30
0
 70
     0
  0
VERTEX
  8
MACK_MR
 10
-4.5973
 20
-10.9751
 30
0
 70
     0
  0
VERTEX
  8
MACK_MR
 10
-4.8446
 20
-11.0913
 30
0
 70
     0
  0
VERTEX
  8
MACK_MR
 10
-5.0886
 20
-11.2133
 30
0
 70
     0
  0
VERTEX
  8
MACK_MR
 10
-5.3293
 20
-11.341
 30
0
 70
     0
  0
VERTEX
  8
MACK_MR
 10
-5.5666
 20
-11.4743
 30
0
 70
     0
  0
VERTEX
  8
MACK_MR
 10
-5.8004
 20
-11.6132
 30
0
 70
     0
  0
VERTEX
  8
MACK_MR
 10
-6.0306
 20
-11.7575
 30
0
 70
     0
  0
VERTEX
  8
MACK_MR
 10
-6.257
 20
-11.9071
 30
0
 70
     0
  0
VERTEX
  8
MACK_MR
 10
-6.4797
 20
-12.062
 30
0
 70
     0
  0
VERTEX
  8
MACK_MR
 10
-6.6985
 20
-12.222
 30
0
 70
     0
  0
VERTEX
  8
MACK_MR
 10
-6.9134
 20
-12.3871
 30
0
 70
     0
  0
VERTEX
  8
MACK_MR
 10
-7.1241
 20
-12.5572
 30
0
 70
     0
  0
VERTEX
  8
MACK_MR
 10
-7.5331
 20
-12.9119
 30
0
 70
     0
  0
VERTEX
  8
MACK_MR
 10
-7.9247
 20
-13.2855
 30
0
 70
     0
  0
VERTEX
  8
MACK_MR
 10
-8.2982
 20
-13.6771
 30
0
 70
     0
  0
VERTEX
  8
MACK_MR
 10
-8.653
 20
-14.0861
 30
0
 70
     0
  0
VERTEX
  8
MACK_MR
 10
-8.823
 20
-14.2968
 30
0
 70
     0
  0
VERTEX
  8
MACK_MR
 10
-8.9881
 20
-14.5116
 30
0
 70
     0
  0
VERTEX
  8
MACK_MR
 10
-9.1482
 20
-14.7304
 30
0
 70
     0
  0
VERTEX
  8
MACK_MR
 10
-9.3031
 20
-14.9531
 30
0
 70
     0
  0
VERTEX
  8
MACK_MR
 10
-9.4527
 20
-15.1796
 30
0
 70
     0
  0
VERTEX
  8
MACK_MR
 10
-9.597
 20
-15.4098
 30
0
 70
     0
  0
VERTEX
  8
MACK_MR
 10
-9.7358
 20
-15.6435
 30
0
 70
     0
  0
VERTEX
  8
MACK_MR
 10
-9.8692
 20
-15.8808
 30
0
 70
     0
  0
VERTEX
  8
MACK_MR
 10
-9.9969
 20
-16.1216
 30
0
 70
     0
  0
VERTEX
  8
MACK_MR
 10
-10.1189
 20
-16.3656
 30
0
 70
     0
  0
VERTEX
  8
MACK_MR
 10
-10.2351
 20
-16.6129
 30
0
 70
     0
  0
VERTEX
  8
MACK_MR
 10
-10.3454
 20
-16.8634
 30
0
 70
     0
  0
VERTEX
  8
MACK_MR
 10
-10.4498
 20
-17.1169
 30
0
 70
     0
  0
VERTEX
  8
MACK_MR
 10
-10.548
 20
-17.3734
 30
0
 70
     0
  0
VERTEX
  8
MACK_MR
 10
-10.6402
 20
-17.6327
 30
0
 70
     0
  0
VERTEX
  8
MACK_MR
 10
-10.726
 20
-17.8949
 30
0
 70
     0
  0
VERTEX
  8
MACK_MR
 10
-10.8055
 20
-18.1597
 30
0
 70
     0
  0
VERTEX
  8
MACK_MR
 10
-10.8786
 20
-18.4272
 30
0
 70
     0
  0
VERTEX
  8
MACK_MR
 10
-10.9452
 20
-18.6971
 30
0
 70
     0
  0
VERTEX
  8
MACK_MR
 10
-11.0051
 20
-18.9695
 30
0
 70
     0
  0
VERTEX
  8
MACK_MR
 10
-11.0583
 20
-19.2442
 30
0
 70
     0
  0
VERTEX
  8
MACK_MR
 10
-11.1047
 20
-19.5212
 30
0
 70
     0
  0
VERTEX
  8
MACK_MR
 10
-11.1443
 20
-19.8003
 30
0
 70
     0
  0
VERTEX
  8
MACK_MR
 10
-11.1768
 20
-20.0814
 30
0
 70
     0
  0
VERTEX
  8
MACK_MR
 10
-11.2023
 20
-20.3645
 30
0
 70
     0
  0
VERTEX
  8
MACK_MR
 10
-11.2206
 20
-20.6495
 30
0
 70
     0
  0
VERTEX
  8
MACK_MR
 10
-11.2317
 20
-20.9363
 30
0
 70
     0
  0
VERTEX
  8
MACK_MR
 10
-11.2354
 20
-21.2248
 30
0
 70
     0
  0
VERTEX
  8
MACK_MR
 10
-11.2354
 20
-21.2248
 30
0
 70
     0
  0
VERTEX
  8
MACK_MR
 10
-11.2317
 20
-21.5133
 30
0
 70
     0
  0
VERTEX
  8
MACK_MR
 10
-11.2206
 20
-21.8001
 30
0
 70
     0
  0
VERTEX
  8
MACK_MR
 10
-11.2023
 20
-22.0851
 30
0
 70
     0
  0
VERTEX
  8
MACK_MR
 10
-11.1768
 20
-22.3682
 30
0
 70
     0
  0
VERTEX
  8
MACK_MR
 10
-11.1443
 20
-22.6494
 30
0
 70
     0
  0
VERTEX
  8
MACK_MR
 10
-11.1047
 20
-22.9285
 30
0
 70
     0
  0
VERTEX
  8
MACK_MR
 10
-11.0583
 20
-23.2054
 30
0
 70
     0
  0
VERTEX
  8
MACK_MR
 10
-11.0051
 20
-23.4801
 30
0
 70
     0
  0
VERTEX
  8
MACK_MR
 10
-10.9452
 20
-23.7525
 30
0
 70
     0
  0
VERTEX
  8
MACK_MR
 10
-10.8786
 20
-24.0225
 30
0
 70
     0
  0
VERTEX
  8
MACK_MR
 10
-10.8055
 20
-24.2899
 30
0
 70
     0
  0
VERTEX
  8
MACK_MR
 10
-10.726
 20
-24.5548
 30
0
 70
     0
  0
VERTEX
  8
MACK_MR
 10
-10.6402
 20
-24.8169
 30
0
 70
     0
  0
VERTEX
  8
MACK_MR
 10
-10.548
 20
-25.0763
 30
0
 70
     0
  0
VERTEX
  8
MACK_MR
 10
-10.4498
 20
-25.3327
 30
0
 70
     0
  0
VERTEX
  8
MACK_MR
 10
-10.3454
 20
-25.5863
 30
0
 70
     0
  0
VERTEX
  8
MACK_MR
 10
-10.2351
 20
-25.8367
 30
0
 70
     0
  0
VERTEX
  8
MACK_MR
 10
-10.1189
 20
-26.084
 30
0
 70
     0
  0
VERTEX
  8
MACK_MR
 10
-9.9969
 20
-26.3281
 30
0
 70
     0
  0
VERTEX
  8
MACK_MR
 10
-9.8692
 20
-26.5688
 30
0
 70
     0
  0
VERTEX
  8
MACK_MR
 10
-9.7358
 20
-26.8061
 30
0
 70
     0
  0
VERTEX
  8
MACK_MR
 10
-9.597
 20
-27.0399
 30
0
 70
     0
  0
VERTEX
  8
MACK_MR
 10
-9.4527
 20
-27.27
 30
0
 70
     0
  0
VERTEX
  8
MACK_MR
 10
-9.3031
 20
-27.4965
 30
0
 70
     0
  0
VERTEX
  8
MACK_MR
 10
-9.1482
 20
-27.7192
 30
0
 70
     0
  0
VERTEX
  8
MACK_MR
 10
-8.9881
 20
-27.938
 30
0
 70
     0
  0
VERTEX
  8
MACK_MR
 10
-8.823
 20
-28.1528
 30
0
 70
     0
  0
VERTEX
  8
MACK_MR
 10
-8.653
 20
-28.3636
 30
0
 70
     0
  0
VERTEX
  8
MACK_MR
 10
-8.2982
 20
-28.7725
 30
0
 70
     0
  0
VERTEX
  8
MACK_MR
 10
-7.9247
 20
-29.1641
 30
0
 70
     0
  0
VERTEX
  8
MACK_MR
 10
-7.5331
 20
-29.5377
 30
0
 70
     0
  0
VERTEX
  8
MACK_MR
 10
-7.1241
 20
-29.8924
 30
0
 70
     0
  0
VERTEX
  8
MACK_MR
 10
-6.9134
 20
-30.0625
 30
0
 70
     0
  0
VERTEX
  8
MACK_MR
 10
-6.6985
 20
-30.2276
 30
0
 70
     0
  0
VERTEX
  8
MACK_MR
 10
-6.4797
 20
-30.3876
 30
0
 70
     0
  0
VERTEX
  8
MACK_MR
 10
-6.257
 20
-30.5425
 30
0
 70
     0
  0
VERTEX
  8
MACK_MR
 10
-6.0306
 20
-30.6921
 30
0
 70
     0
  0
VERTEX
  8
MACK_MR
 10
-5.8004
 20
-30.8364
 30
0
 70
     0
  0
VERTEX
  8
MACK_MR
 10
-5.5666
 20
-30.9753
 30
0
 70
     0
  0
VERTEX
  8
MACK_MR
 10
-5.3293
 20
-31.1086
 30
0
 70
     0
  0
VERTEX
  8
MACK_MR
 10
-5.0886
 20
-31.2363
 30
0
 70
     0
  0
VERTEX
  8
MACK_MR
 10
-4.8446
 20
-31.3583
 30
0
 70
     0
  0
VERTEX
  8
MACK_MR
 10
-4.5973
 20
-31.4745
 30
0
 70
     0
  0
VERTEX
  8
MACK_MR
 10
-4.3468
 20
-31.5849
 30
0
 70
     0
  0
VERTEX
  8
MACK_MR
 10
-4.0933
 20
-31.6892
 30
0
 70
     0
  0
VERTEX
  8
MACK_MR
 10
-3.8368
 20
-31.7875
 30
0
 70
     0
  0
VERTEX
  8
MACK_MR
 10
-3.5775
 20
-31.8796
 30
0
 70
     0
  0
VERTEX
  8
MACK_MR
 10
-3.3153
 20
-31.9655
 30
0
 70
     0
  0
VERTEX
  8
MACK_MR
 10
-3.0505
 20
-32.045
 30
0
 70
     0
  0
VERTEX
  8
MACK_MR
 10
-2.783
 20
-32.1181
 30
0
 70
     0
  0
VERTEX
  8
MACK_MR
 10
-2.5131
 20
-32.1846
 30
0
 70
     0
  0
VERTEX
  8
MACK_MR
 10
-2.2407
 20
-32.2445
 30
0
 70
     0
  0
VERTEX
  8
MACK_MR
 10
-1.966
 20
-32.2978
 30
0
 70
     0
  0
VERTEX
  8
MACK_MR
 10
-1.689
 20
-32.3442
 30
0
 70
     0
  0
VERTEX
  8
MACK_MR
 10
-1.4099
 20
-32.3837
 30
0
 70
     0
  0
VERTEX
  8
MACK_MR
 10
-1.1288
 20
-32.4163
 30
0
 70
     0
  0
VERTEX
  8
MACK_MR
 10
-0.8456
 20
-32.4417
 30
0
 70
     0
  0
VERTEX
  8
MACK_MR
 10
-0.5606
 20
-32.4601
 30
0
 70
     0
  0
VERTEX
  8
MACK_MR
 10
-0.2738
 20
-32.4711
 30
0
 70
     0
  0
VERTEX
  8
MACK_MR
 10
0.0146
 20
-32.4748
 30
0
 70
     0
  0
VERTEX
  8
MACK_MR
 10
0.0146
 20
-32.4748
 30
0
 70
     0
  0
VERTEX
  8
MACK_MR
 10
0.3031
 20
-32.4711
 30
0
 70
     0
  0
VERTEX
  8
MACK_MR
 10
0.5899
 20
-32.4601
 30
0
 70
     0
  0
VERTEX
  8
MACK_MR
 10
0.8749
 20
-32.4417
 30
0
 70
     0
  0
VERTEX
  8
MACK_MR
 10
1.158
 20
-32.4163
 30
0
 70
     0
  0
VERTEX
  8
MACK_MR
 10
1.4392
 20
-32.3837
 30
0
 70
     0
  0
VERTEX
  8
MACK_MR
 10
1.7183
 20
-32.3442
 30
0
 70
     0
  0
VERTEX
  8
MACK_MR
 10
1.9952
 20
-32.2978
 30
0
 70
     0
  0
VERTEX
  8
MACK_MR
 10
2.2699
 20
-32.2445
 30
0
 70
     0
  0
VERTEX
  8
MACK_MR
 10
2.5423
 20
-32.1846
 30
0
 70
     0
  0
VERTEX
  8
MACK_MR
 10
2.8123
 20
-32.1181
 30
0
 70
     0
  0
VERTEX
  8
MACK_MR
 10
3.0797
 20
-32.045
 30
0
 70
     0
  0
VERTEX
  8
MACK_MR
 10
3.3446
 20
-31.9655
 30
0
 70
     0
  0
VERTEX
  8
MACK_MR
 10
3.6067
 20
-31.8796
 30
0
 70
     0
  0
VERTEX
  8
MACK_MR
 10
3.8661
 20
-31.7875
 30
0
 70
     0
  0
VERTEX
  8
MACK_MR
 10
4.1226
 20
-31.6892
 30
0
 70
     0
  0
VERTEX
  8
MACK_MR
 10
4.3761
 20
-31.5849
 30
0
 70
     0
  0
VERTEX
  8
MACK_MR
 10
4.6265
 20
-31.4745
 30
0
 70
     0
  0
VERTEX
  8
MACK_MR
 10
4.8738
 20
-31.3583
 30
0
 70
     0
  0
VERTEX
  8
MACK_MR
 10
5.1179
 20
-31.2363
 30
0
 70
     0
  0
VERTEX
  8
MACK_MR
 10
5.3586
 20
-31.1086
 30
0
 70
     0
  0
VERTEX
  8
MACK_MR
 10
5.5959
 20
-30.9753
 30
0
 70
     0
  0
VERTEX
  8
MACK_MR
 10
5.8297
 20
-30.8364
 30
0
 70
     0
  0
VERTEX
  8
MACK_MR
 10
6.0598
 20
-30.6921
 30
0
 70
     0
  0
VERTEX
  8
MACK_MR
 10
6.2863
 20
-30.5425
 30
0
 70
     0
  0
VERTEX
  8
MACK_MR
 10
6.509
 20
-30.3876
 30
0
 70
     0
  0
VERTEX
  8
MACK_MR
 10
6.7278
 20
-30.2276
 30
0
 70
     0
  0
VERTEX
  8
MACK_MR
 10
6.9426
 20
-30.0625
 30
0
 70
     0
  0
VERTEX
  8
MACK_MR
 10
7.1534
 20
-29.8924
 30
0
 70
     0
  0
VERTEX
  8
MACK_MR
 10
7.5624
 20
-29.5377
 30
0
 70
     0
  0
VERTEX
  8
MACK_MR
 10
7.954
 20
-29.1641
 30
0
 70
     0
  0
VERTEX
  8
MACK_MR
 10
8.3275
 20
-28.7725
 30
0
 70
     0
  0
VERTEX
  8
MACK_MR
 10
8.6822
 20
-28.3636
 30
0
 70
     0
  0
VERTEX
  8
MACK_MR
 10
8.8523
 20
-28.1528
 30
0
 70
     0
  0
VERTEX
  8
MACK_MR
 10
9.0174
 20
-27.938
 30
0
 70
     0
  0
VERTEX
  8
MACK_MR
 10
9.1775
 20
-27.7192
 30
0
 70
     0
  0
VERTEX
  8
MACK_MR
 10
9.3323
 20
-27.4965
 30
0
 70
     0
  0
VERTEX
  8
MACK_MR
 10
9.482
 20
-27.27
 30
0
 70
     0
  0
VERTEX
  8
MACK_MR
 10
9.6262
 20
-27.0399
 30
0
 70
     0
  0
VERTEX
  8
MACK_MR
 10
9.7651
 20
-26.8061
 30
0
 70
     0
  0
VERTEX
  8
MACK_MR
 10
9.8984
 20
-26.5688
 30
0
 70
     0
  0
VERTEX
  8
MACK_MR
 10
10.0262
 20
-26.3281
 30
0
 70
     0
  0
VERTEX
  8
MACK_MR
 10
10.1482
 20
-26.084
 30
0
 70
     0
  0
VERTEX
  8
MACK_MR
 10
10.2644
 20
-25.8367
 30
0
 70
     0
  0
VERTEX
  8
MACK_MR
 10
10.3747
 20
-25.5863
 30
0
 70
     0
  0
VERTEX
  8
MACK_MR
 10
10.479
 20
-25.3327
 30
0
 70
     0
  0
VERTEX
  8
MACK_MR
 10
10.5773
 20
-25.0763
 30
0
 70
     0
  0
VERTEX
  8
MACK_MR
 10
10.6694
 20
-24.8169
 30
0
 70
     0
  0
VERTEX
  8
MACK_MR
 10
10.7553
 20
-24.5548
 30
0
 70
     0
  0
VERTEX
  8
MACK_MR
 10
10.8348
 20
-24.2899
 30
0
 70
     0
  0
VERTEX
  8
MACK_MR
 10
10.9079
 20
-24.0225
 30
0
 70
     0
  0
VERTEX
  8
MACK_MR
 10
10.9744
 20
-23.7525
 30
0
 70
     0
  0
VERTEX
  8
MACK_MR
 10
11.0344
 20
-23.4801
 30
0
 70
     0
  0
VERTEX
  8
MACK_MR
 10
11.0876
 20
-23.2054
 30
0
 70
     0
  0
VERTEX
  8
MACK_MR
 10
11.134
 20
-22.9285
 30
0
 70
     0
  0
VERTEX
  8
MACK_MR
 10
11.1735
 20
-22.6494
 30
0
 70
     0
  0
VERTEX
  8
MACK_MR
 10
11.2061
 20
-22.3682
 30
0
 70
     0
  0
VERTEX
  8
MACK_MR
 10
11.2316
 20
-22.0851
 30
0
 70
     0
  0
VERTEX
  8
MACK_MR
 10
11.2499
 20
-21.8001
 30
0
 70
     0
  0
VERTEX
  8
MACK_MR
 10
11.2609
 20
-21.5133
 30
0
 70
     0
  0
VERTEX
  8
MACK_MR
 10
11.2646
 20
-21.2248
 30
0
 70
     0
  0
SEQEND
  0
POLYLINE
  8
MACK_MR
  6
CONTINUOUS
 62
     7
 66
     1
 40
0.0139
 41
0.0139
  0
VERTEX
  8
MACK_MR
 10
-182.4026
 20
-0.0248
 30
0
 70
     0
  0
VERTEX
  8
MACK_MR
 10
-16.7054
 20
-0.0248
 30
0
 70
     0
  0
SEQEND
  0
POLYLINE
  8
MACK_MR
  6
CONTINUOUS
 62
     7
 66
     1
 40
0.0139
 41
0.0139
  0
VERTEX
  8
MACK_MR
 10
-13.2353
 20
-0.0248
 30
0
 70
     0
  0
VERTEX
  8
MACK_MR
 10
-3.4854
 20
-0.0248
 30
0
 70
     0
  0
SEQEND
  0
POLYLINE
  8
MACK_MR
  6
CONTINUOUS
 62
     7
 66
     1
 40
0.0139
 41
0.0139
  0
VERTEX
  8
MACK_MR
 10
-128.0995
 20
-13.2748
 30
0
 70
     0
  0
VERTEX
  8
MACK_MR
 10
-25.7884
 20
-13.2748
 30
0
 70
     0
  0
SEQEND
  0
POLYLINE
  8
MACK_MR
  6
CONTINUOUS
 62
     7
 66
     1
 40
0.0139
 41
0.0139
  0
VERTEX
  8
MACK_MR
 10
-23.6876
 20
-13.2748
 30
0
 70
     0
  0
VERTEX
  8
MACK_MR
 10
-19.4224
 20
-13.2748
 30
0
 70
     0
  0
SEQEND
  0
POLYLINE
  8
MACK_MR
  6
CONTINUOUS
 62
     7
 66
     1
 40
0.0139
 41
0.0139
  0
VERTEX
  8
MACK_MR
 10
21.0146
 20
-21.2248
 30
0
 70
     0
  0
VERTEX
  8
MACK_MR
 10
21.0077
 20
-20.6863
 30
0
 70
     0
  0
VERTEX
  8
MACK_MR
 10
20.9871
 20
-20.151
 30
0
 70
     0
  0
VERTEX
  8
MACK_MR
 10
20.9529
 20
-19.619
 30
0
 70
     0
  0
VERTEX
  8
MACK_MR
 10
20.9054
 20
-19.0905
 30
0
 70
     0
  0
VERTEX
  8
MACK_MR
 10
20.8446
 20
-18.5657
 30
0
 70
     0
  0
VERTEX
  8
MACK_MR
 10
20.7708
 20
-18.0447
 30
0
 70
     0
  0
VERTEX
  8
MACK_MR
 10
20.6842
 20
-17.5277
 30
0
 70
     0
  0
VERTEX
  8
MACK_MR
 10
20.5848
 20
-17.0149
 30
0
 70
     0
  0
VERTEX
  8
MACK_MR
 10
20.4729
 20
-16.5064
 30
0
 70
     0
  0
VERTEX
  8
MACK_MR
 10
20.3487
 20
-16.0025
 30
0
 70
     0
  0
VERTEX
  8
MACK_MR
 10
20.2123
 20
-15.5033
 30
0
 70
     0
  0
VERTEX
  8
MACK_MR
 10
20.0639
 20
-15.0089
 30
0
 70
     0
  0
VERTEX
  8
MACK_MR
 10
19.9036
 20
-14.5196
 30
0
 70
     0
  0
VERTEX
  8
MACK_MR
 10
19.7316
 20
-14.0354
 30
0
 70
     0
  0
VERTEX
  8
MACK_MR
 10
19.5482
 20
-13.5567
 30
0
 70
     0
  0
VERTEX
  8
MACK_MR
 10
19.3534
 20
-13.0835
 30
0
 70
     0
  0
VERTEX
  8
MACK_MR
 10
19.1475
 20
-12.6159
 30
0
 70
     0
  0
VERTEX
  8
MACK_MR
 10
18.9306
 20
-12.1543
 30
0
 70
     0
  0
VERTEX
  8
MACK_MR
 10
18.7028
 20
-11.6987
 30
0
 70
     0
  0
VERTEX
  8
MACK_MR
 10
18.4644
 20
-11.2494
 30
0
 70
     0
  0
VERTEX
  8
MACK_MR
 10
18.2155
 20
-10.8065
 30
0
 70
     0
  0
VERTEX
  8
MACK_MR
 10
17.9563
 20
-10.3701
 30
0
 70
     0
  0
VERTEX
  8
MACK_MR
 10
17.687
 20
-9.9404
 30
0
 70
     0
  0
VERTEX
  8
MACK_MR
 10
17.4077
 20
-9.5177
 30
0
 70
     0
  0
VERTEX
  8
MACK_MR
 10
17.1186
 20
-9.102
 30
0
 70
     0
  0
VERTEX
  8
MACK_MR
 10
16.8198
 20
-8.6936
 30
0
 70
     0
  0
VERTEX
  8
MACK_MR
 10
16.5116
 20
-8.2926
 30
0
 70
     0
  0
VERTEX
  8
MACK_MR
 10
16.1942
 20
-7.8991
 30
0
 70
     0
  0
VERTEX
  8
MACK_MR
 10
15.8675
 20
-7.5135
 30
0
 70
     0
  0
VERTEX
  8
MACK_MR
 10
15.532
 20
-7.1357
 30
0
 70
     0
  0
VERTEX
  8
MACK_MR
 10
15.1877
 20
-6.7661
 30
0
 70
     0
  0
VERTEX
  8
MACK_MR
 10
14.8347
 20
-6.4047
 30
0
 70
     0
  0
VERTEX
  8
MACK_MR
 10
14.4734
 20
-6.0518
 30
0
 70
     0
  0
VERTEX
  8
MACK_MR
 10
14.1037
 20
-5.7074
 30
0
 70
     0
  0
VERTEX
  8
MACK_MR
 10
13.726
 20
-5.3719
 30
0
 70
     0
  0
VERTEX
  8
MACK_MR
 10
13.3403
 20
-5.0453
 30
0
 70
     0
  0
VERTEX
  8
MACK_MR
 10
12.9469
 20
-4.7278
 30
0
 70
     0
  0
VERTEX
  8
MACK_MR
 10
12.5459
 20
-4.4196
 30
0
 70
     0
  0
VERTEX
  8
MACK_MR
 10
12.1375
 20
-4.1209
 30
0
 70
     0
  0
VERTEX
  8
MACK_MR
 10
11.7218
 20
-3.8318
 30
0
 70
     0
  0
VERTEX
  8
MACK_MR
 10
11.299
 20
-3.5525
 30
0
 70
     0
  0
VERTEX
  8
MACK_MR
 10
10.8694
 20
-3.2831
 30
0
 70
     0
  0
VERTEX
  8
MACK_MR
 10
10.433
 20
-3.0239
 30
0
 70
     0
  0
VERTEX
  8
MACK_MR
 10
9.99
 20
-2.7751
 30
0
 70
     0
  0
VERTEX
  8
MACK_MR
 10
9.5407
 20
-2.5366
 30
0
 70
     0
  0
VERTEX
  8
MACK_MR
 10
9.0851
 20
-2.3089
 30
0
 70
     0
  0
VERTEX
  8
MACK_MR
 10
8.6235
 20
-2.092
 30
0
 70
     0
  0
VERTEX
  8
MACK_MR
 10
8.156
 20
-1.886
 30
0
 70
     0
  0
VERTEX
  8
MACK_MR
 10
7.6828
 20
-1.6912
 30
0
 70
     0
  0
VERTEX
  8
MACK_MR
 10
7.204
 20
-1.5078
 30
0
 70
     0
  0
VERTEX
  8
MACK_MR
 10
6.7199
 20
-1.3359
 30
0
 70
     0
  0
VERTEX
  8
MACK_MR
 10
6.2305
 20
-1.1756
 30
0
 70
     0
  0
VERTEX
  8
MACK_MR
 10
5.7362
 20
-1.0272
 30
0
 70
     0
  0
VERTEX
  8
MACK_MR
 10
5.2369
 20
-0.8907
 30
0
 70
     0
  0
VERTEX
  8
MACK_MR
 10
4.733
 20
-0.7665
 30
0
 70
     0
  0
VERTEX
  8
MACK_MR
 10
4.2246
 20
-0.6546
 30
0
 70
     0
  0
VERTEX
  8
MACK_MR
 10
3.7118
 20
-0.5553
 30
0
 70
     0
  0
VERTEX
  8
MACK_MR
 10
3.1948
 20
-0.4686
 30
0
 70
     0
  0
VERTEX
  8
MACK_MR
 10
2.6738
 20
-0.3948
 30
0
 70
     0
  0
VERTEX
  8
MACK_MR
 10
2.149
 20
-0.3341
 30
0
 70
     0
  0
VERTEX
  8
MACK_MR
 10
1.6205
 20
-0.2865
 30
0
 70
     0
  0
VERTEX
  8
MACK_MR
 10
1.0885
 20
-0.2524
 30
0
 70
     0
  0
VERTEX
  8
MACK_MR
 10
0.5531
 20
-0.2317
 30
0
 70
     0
  0
VERTEX
  8
MACK_MR
 10
0.0146
 20
-0.2248
 30
0
 70
     0
  0
VERTEX
  8
MACK_MR
 10
0.0146
 20
-0.2248
 30
0
 70
     0
  0
VERTEX
  8
MACK_MR
 10
-0.5239
 20
-0.2317
 30
0
 70
     0
  0
VERTEX
  8
MACK_MR
 10
-1.0592
 20
-0.2524
 30
0
 70
     0
  0
VERTEX
  8
MACK_MR
 10
-1.5912
 20
-0.2865
 30
0
 70
     0
  0
VERTEX
  8
MACK_MR
 10
-2.1197
 20
-0.3341
 30
0
 70
     0
  0
VERTEX
  8
MACK_MR
 10
-2.6445
 20
-0.3948
 30
0
 70
     0
  0
VERTEX
  8
MACK_MR
 10
-3.1655
 20
-0.4686
 30
0
 70
     0
  0
VERTEX
  8
MACK_MR
 10
-3.6825
 20
-0.5553
 30
0
 70
     0
  0
VERTEX
  8
MACK_MR
 10
-4.1953
 20
-0.6546
 30
0
 70
     0
  0
VERTEX
  8
MACK_MR
 10
-4.7037
 20
-0.7665
 30
0
 70
     0
  0
VERTEX
  8
MACK_MR
 10
-5.2077
 20
-0.8907
 30
0
 70
     0
  0
VERTEX
  8
MACK_MR
 10
-5.7069
 20
-1.0272
 30
0
 70
     0
  0
VERTEX
  8
MACK_MR
 10
-6.2013
 20
-1.1756
 30
0
 70
     0
  0
VERTEX
  8
MACK_MR
 10
-6.6906
 20
-1.3359
 30
0
 70
     0
  0
VERTEX
  8
MACK_MR
 10
-7.1747
 20
-1.5078
 30
0
 70
     0
  0
VERTEX
  8
MACK_MR
 10
-7.6535
 20
-1.6912
 30
0
 70
     0
  0
VERTEX
  8
MACK_MR
 10
-8.1267
 20
-1.886
 30
0
 70
     0
  0
VERTEX
  8
MACK_MR
 10
-8.5942
 20
-2.092
 30
0
 70
     0
  0
VERTEX
  8
MACK_MR
 10
-9.0559
 20
-2.3089
 30
0
 70
     0
  0
VERTEX
  8
MACK_MR
 10
-9.5114
 20
-2.5366
 30
0
 70
     0
  0
VERTEX
  8
MACK_MR
 10
-9.9608
 20
-2.7751
 30
0
 70
     0
  0
VERTEX
  8
MACK_MR
 10
-10.4037
 20
-3.0239
 30
0
 70
     0
  0
VERTEX
  8
MACK_MR
 10
-10.8401
 20
-3.2831
 30
0
 70
     0
  0
VERTEX
  8
MACK_MR
 10
-11.2698
 20
-3.5525
 30
0
 70
     0
  0
VERTEX
  8
MACK_MR
 10
-11.6925
 20
-3.8318
 30
0
 70
     0
  0
VERTEX
  8
MACK_MR
 10
-12.1082
 20
-4.1209
 30
0
 70
     0
  0
VERTEX
  8
MACK_MR
 10
-12.5166
 20
-4.4196
 30
0
 70
     0
  0
VERTEX
  8
MACK_MR
 10
-12.9176
 20
-4.7278
 30
0
 70
     0
  0
VERTEX
  8
MACK_MR
 10
-13.311
 20
-5.0453
 30
0
 70
     0
  0
VERTEX
  8
MACK_MR
 10
-13.6967
 20
-5.3719
 30
0
 70
     0
  0
VERTEX
  8
MACK_MR
 10
-14.0744
 20
-5.7074
 30
0
 70
     0
  0
VERTEX
  8
MACK_MR
 10
-14.4441
 20
-6.0518
 30
0
 70
     0
  0
VERTEX
  8
MACK_MR
 10
-14.8055
 20
-6.4047
 30
0
 70
     0
  0
VERTEX
  8
MACK_MR
 10
-15.1584
 20
-6.7661
 30
0
 70
     0
  0
VERTEX
  8
MACK_MR
 10
-15.5027
 20
-7.1357
 30
0
 70
     0
  0
VERTEX
  8
MACK_MR
 10
-15.8383
 20
-7.5135
 30
0
 70
     0
  0
VERTEX
  8
MACK_MR
 10
-16.1649
 20
-7.8991
 30
0
 70
     0
  0
VERTEX
  8
MACK_MR
 10
-16.4824
 20
-8.2926
 30
0
 70
     0
  0
VERTEX
  8
MACK_MR
 10
-16.7906
 20
-8.6936
 30
0
 70
     0
  0
VERTEX
  8
MACK_MR
 10
-17.0893
 20
-9.102
 30
0
 70
     0
  0
VERTEX
  8
MACK_MR
 10
-17.3784
 20
-9.5177
 30
0
 70
     0
  0
VERTEX
  8
MACK_MR
 10
-17.6577
 20
-9.9404
 30
0
 70
     0
  0
VERTEX
  8
MACK_MR
 10
-17.927
 20
-10.3701
 30
0
 70
     0
  0
VERTEX
  8
MACK_MR
 10
-18.1862
 20
-10.8065
 30
0
 70
     0
  0
VERTEX
  8
MACK_MR
 10
-18.4351
 20
-11.2494
 30
0
 70
     0
  0
VERTEX
  8
MACK_MR
 10
-18.6735
 20
-11.6987
 30
0
 70
     0
  0
VERTEX
  8
MACK_MR
 10
-18.9013
 20
-12.1543
 30
0
 70
     0
  0
VERTEX
  8
MACK_MR
 10
-19.1182
 20
-12.6159
 30
0
 70
     0
  0
VERTEX
  8
MACK_MR
 10
-19.3242
 20
-13.0835
 30
0
 70
     0
  0
VERTEX
  8
MACK_MR
 10
-19.5189
 20
-13.5567
 30
0
 70
     0
  0
VERTEX
  8
MACK_MR
 10
-19.7024
 20
-14.0354
 30
0
 70
     0
  0
VERTEX
  8
MACK_MR
 10
-19.8743
 20
-14.5196
 30
0
 70
     0
  0
VERTEX
  8
MACK_MR
 10
-20.0346
 20
-15.0089
 30
0
 70
     0
  0
VERTEX
  8
MACK_MR
 10
-20.183
 20
-15.5033
 30
0
 70
     0
  0
VERTEX
  8
MACK_MR
 10
-20.3194
 20
-16.0025
 30
0
 70
     0
  0
VERTEX
  8
MACK_MR
 10
-20.4437
 20
-16.5064
 30
0
 70
     0
  0
VERTEX
  8
MACK_MR
 10
-20.5555
 20
-17.0149
 30
0
 70
     0
  0
VERTEX
  8
MACK_MR
 10
-20.6549
 20
-17.5277
 30
0
 70
     0
  0
VERTEX
  8
MACK_MR
 10
-20.7415
 20
-18.0447
 30
0
 70
     0
  0
VERTEX
  8
MACK_MR
 10
-20.8153
 20
-18.5657
 30
0
 70
     0
  0
VERTEX
  8
MACK_MR
 10
-20.8761
 20
-19.0905
 30
0
 70
     0
  0
VERTEX
  8
MACK_MR
 10
-20.9236
 20
-19.619
 30
0
 70
     0
  0
VERTEX
  8
MACK_MR
 10
-20.9578
 20
-20.151
 30
0
 70
     0
  0
VERTEX
  8
MACK_MR
 10
-20.9785
 20
-20.6863
 30
0
 70
     0
  0
VERTEX
  8
MACK_MR
 10
-20.9854
 20
-21.2248
 30
0
 70
     0
  0
VERTEX
  8
MACK_MR
 10
-20.9854
 20
-21.2248
 30
0
 70
     0
  0
VERTEX
  8
MACK_MR
 10
-20.9785
 20
-21.7633
 30
0
 70
     0
  0
VERTEX
  8
MACK_MR
 10
-20.9578
 20
-22.2986
 30
0
 70
     0
  0
VERTEX
  8
MACK_MR
 10
-20.9236
 20
-22.8306
 30
0
 70
     0
  0
VERTEX
  8
MACK_MR
 10
-20.8761
 20
-23.3591
 30
0
 70
     0
  0
VERTEX
  8
MACK_MR
 10
-20.8153
 20
-23.884
 30
0
 70
     0
  0
VERTEX
  8
MACK_MR
 10
-20.7415
 20
-24.4049
 30
0
 70
     0
  0
VERTEX
  8
MACK_MR
 10
-20.6549
 20
-24.9219
 30
0
 70
     0
  0
VERTEX
  8
MACK_MR
 10
-20.5555
 20
-25.4347
 30
0
 70
     0
  0
VERTEX
  8
MACK_MR
 10
-20.4437
 20
-25.9432
 30
0
 70
     0
  0
VERTEX
  8
MACK_MR
 10
-20.3194
 20
-26.4471
 30
0
 70
     0
  0
VERTEX
  8
MACK_MR
 10
-20.183
 20
-26.9463
 30
0
 70
     0
  0
VERTEX
  8
MACK_MR
 10
-20.0346
 20
-27.4407
 30
0
 70
     0
  0
VERTEX
  8
MACK_MR
 10
-19.8743
 20
-27.93
 30
0
 70
     0
  0
VERTEX
  8
MACK_MR
 10
-19.7024
 20
-28.4142
 30
0
 70
     0
  0
VERTEX
  8
MACK_MR
 10
-19.5189
 20
-28.8929
 30
0
 70
     0
  0
VERTEX
  8
MACK_MR
 10
-19.3242
 20
-29.3662
 30
0
 70
     0
  0
VERTEX
  8
MACK_MR
 10
-19.1182
 20
-29.8337
 30
0
 70
     0
  0
VERTEX
  8
MACK_MR
 10
-18.9013
 20
-30.2953
 30
0
 70
     0
  0
VERTEX
  8
MACK_MR
 10
-18.6735
 20
-30.7509
 30
0
 70
     0
  0
VERTEX
  8
MACK_MR
 10
-18.4351
 20
-31.2002
 30
0
 70
     0
  0
VERTEX
  8
MACK_MR
 10
-18.1862
 20
-31.6432
 30
0
 70
     0
  0
VERTEX
  8
MACK_MR
 10
-17.927
 20
-32.0796
 30
0
 70
     0
  0
VERTEX
  8
MACK_MR
 10
-17.6577
 20
-32.5092
 30
0
 70
     0
  0
VERTEX
  8
MACK_MR
 10
-17.3784
 20
-32.932
 30
0
 70
     0
  0
VERTEX
  8
MACK_MR
 10
-17.0893
 20
-33.3476
 30
0
 70
     0
  0
VERTEX
  8
MACK_MR
 10
-16.7906
 20
-33.7561
 30
0
 70
     0
  0
VERTEX
  8
MACK_MR
 10
-16.4824
 20
-34.1571
 30
0
 70
     0
  0
VERTEX
  8
MACK_MR
 10
-16.1649
 20
-34.5505
 30
0
 70
     0
  0
VERTEX
  8
MACK_MR
 10
-15.8383
 20
-34.9361
 30
0
 70
     0
  0
VERTEX
  8
MACK_MR
 10
-15.5027
 20
-35.3139
 30
0
 70
     0
  0
VERTEX
  8
MACK_MR
 10
-15.1584
 20
-35.6835
 30
0
 70
     0
  0
VERTEX
  8
MACK_MR
 10
-14.8055
 20
-36.0449
 30
0
 70
     0
  0
VERTEX
  8
MACK_MR
 10
-14.4441
 20
-36.3978
 30
0
 70
     0
  0
VERTEX
  8
MACK_MR
 10
-14.0744
 20
-36.7422
 30
0
 70
     0
  0
VERTEX
  8
MACK_MR
 10
-13.6967
 20
-37.0777
 30
0
 70
     0
  0
VERTEX
  8
MACK_MR
 10
-13.311
 20
-37.4043
 30
0
 70
     0
  0
VERTEX
  8
MACK_MR
 10
-12.9176
 20
-37.7218
 30
0
 70
     0
  0
VERTEX
  8
MACK_MR
 10
-12.5166
 20
-38.03
 30
0
 70
     0
  0
VERTEX
  8
MACK_MR
 10
-12.1082
 20
-38.3287
 30
0
 70
     0
  0
VERTEX
  8
MACK_MR
 10
-11.6925
 20
-38.6178
 30
0
 70
     0
  0
VERTEX
  8
MACK_MR
 10
-11.2698
 20
-38.8972
 30
0
 70
     0
  0
VERTEX
  8
MACK_MR
 10
-10.8401
 20
-39.1665
 30
0
 70
     0
  0
VERTEX
  8
MACK_MR
 10
-10.4037
 20
-39.4257
 30
0
 70
     0
  0
VERTEX
  8
MACK_MR
 10
-9.9608
 20
-39.6746
 30
0
 70
     0
  0
VERTEX
  8
MACK_MR
 10
-9.5114
 20
-39.913
 30
0
 70
     0
  0
VERTEX
  8
MACK_MR
 10
-9.0559
 20
-40.1407
 30
0
 70
     0
  0
VERTEX
  8
MACK_MR
 10
-8.5942
 20
-40.3577
 30
0
 70
     0
  0
VERTEX
  8
MACK_MR
 10
-8.1267
 20
-40.5636
 30
0
 70
     0
  0
VERTEX
  8
MACK_MR
 10
-7.6535
 20
-40.7584
 30
0
 70
     0
  0
VERTEX
  8
MACK_MR
 10
-7.1747
 20
-40.9418
 30
0
 70
     0
  0
VERTEX
  8
MACK_MR
 10
-6.6906
 20
-41.1138
 30
0
 70
     0
  0
VERTEX
  8
MACK_MR
 10
-6.2013
 20
-41.274
 30
0
 70
     0
  0
VERTEX
  8
MACK_MR
 10
-5.7069
 20
-41.4225
 30
0
 70
     0
  0
VERTEX
  8
MACK_MR
 10
-5.2077
 20
-41.5589
 30
0
 70
     0
  0
VERTEX
  8
MACK_MR
 10
-4.7037
 20
-41.6831
 30
0
 70
     0
  0
VERTEX
  8
MACK_MR
 10
-4.1953
 20
-41.795
 30
0
 70
     0
  0
VERTEX
  8
MACK_MR
 10
-3.6825
 20
-41.8943
 30
0
 70
     0
  0
VERTEX
  8
MACK_MR
 10
-3.1655
 20
-41.981
 30
0
 70
     0
  0
VERTEX
  8
MACK_MR
 10
-2.6445
 20
-42.0548
 30
0
 70
     0
  0
VERTEX
  8
MACK_MR
 10
-2.1197
 20
-42.1155
 30
0
 70
     0
  0
VERTEX
  8
MACK_MR
 10
-1.5912
 20
-42.1631
 30
0
 70
     0
  0
VERTEX
  8
MACK_MR
 10
-1.0592
 20
-42.1973
 30
0
 70
     0
  0
VERTEX
  8
MACK_MR
 10
-0.5239
 20
-42.2179
 30
0
 70
     0
  0
VERTEX
  8
MACK_MR
 10
0.0146
 20
-42.2248
 30
0
 70
     0
  0
VERTEX
  8
MACK_MR
 10
0.0146
 20
-42.2248
 30
0
 70
     0
  0
VERTEX
  8
MACK_MR
 10
0.5531
 20
-42.2179
 30
0
 70
     0
  0
VERTEX
  8
MACK_MR
 10
1.0885
 20
-42.1973
 30
0
 70
     0
  0
VERTEX
  8
MACK_MR
 10
1.6205
 20
-42.1631
 30
0
 70
     0
  0
VERTEX
  8
MACK_MR
 10
2.149
 20
-42.1155
 30
0
 70
     0
  0
VERTEX
  8
MACK_MR
 10
2.6738
 20
-42.0548
 30
0
 70
     0
  0
VERTEX
  8
MACK_MR
 10
3.1948
 20
-41.981
 30
0
 70
     0
  0
VERTEX
  8
MACK_MR
 10
3.7118
 20
-41.8943
 30
0
 70
     0
  0
VERTEX
  8
MACK_MR
 10
4.2246
 20
-41.795
 30
0
 70
     0
  0
VERTEX
  8
MACK_MR
 10
4.733
 20
-41.6831
 30
0
 70
     0
  0
VERTEX
  8
MACK_MR
 10
5.2369
 20
-41.5589
 30
0
 70
     0
  0
VERTEX
  8
MACK_MR
 10
5.7362
 20
-41.4225
 30
0
 70
     0
  0
VERTEX
  8
MACK_MR
 10
6.2305
 20
-41.274
 30
0
 70
     0
  0
VERTEX
  8
MACK_MR
 10
6.7199
 20
-41.1138
 30
0
 70
     0
  0
VERTEX
  8
MACK_MR
 10
7.204
 20
-40.9418
 30
0
 70
     0
  0
VERTEX
  8
MACK_MR
 10
7.6828
 20
-40.7584
 30
0
 70
     0
  0
VERTEX
  8
MACK_MR
 10
8.156
 20
-40.5636
 30
0
 70
     0
  0
VERTEX
  8
MACK_MR
 10
8.6235
 20
-40.3577
 30
0
 70
     0
  0
VERTEX
  8
MACK_MR
 10
9.0851
 20
-40.1407
 30
0
 70
     0
  0
VERTEX
  8
MACK_MR
 10
9.5407
 20
-39.913
 30
0
 70
     0
  0
VERTEX
  8
MACK_MR
 10
9.99
 20
-39.6746
 30
0
 70
     0
  0
VERTEX
  8
MACK_MR
 10
10.433
 20
-39.4257
 30
0
 70
     0
  0
VERTEX
  8
MACK_MR
 10
10.8694
 20
-39.1665
 30
0
 70
     0
  0
VERTEX
  8
MACK_MR
 10
11.299
 20
-38.8972
 30
0
 70
     0
  0
VERTEX
  8
MACK_MR
 10
11.7218
 20
-38.6178
 30
0
 70
     0
  0
VERTEX
  8
MACK_MR
 10
12.1375
 20
-38.3287
 30
0
 70
     0
  0
VERTEX
  8
MACK_MR
 10
12.5459
 20
-38.03
 30
0
 70
     0
  0
VERTEX
  8
MACK_MR
 10
12.9469
 20
-37.7218
 30
0
 70
     0
  0
VERTEX
  8
MACK_MR
 10
13.3403
 20
-37.4043
 30
0
 70
     0
  0
VERTEX
  8
MACK_MR
 10
13.726
 20
-37.0777
 30
0
 70
     0
  0
VERTEX
  8
MACK_MR
 10
14.1037
 20
-36.7422
 30
0
 70
     0
  0
VERTEX
  8
MACK_MR
 10
14.4734
 20
-36.3978
 30
0
 70
     0
  0
VERTEX
  8
MACK_MR
 10
14.8347
 20
-36.0449
 30
0
 70
     0
  0
VERTEX
  8
MACK_MR
 10
15.1877
 20
-35.6835
 30
0
 70
     0
  0
VERTEX
  8
MACK_MR
 10
15.532
 20
-35.3139
 30
0
 70
     0
  0
VERTEX
  8
MACK_MR
 10
15.8675
 20
-34.9361
 30
0
 70
     0
  0
VERTEX
  8
MACK_MR
 10
16.1942
 20
-34.5505
 30
0
 70
     0
  0
VERTEX
  8
MACK_MR
 10
16.5116
 20
-34.1571
 30
0
 70
     0
  0
VERTEX
  8
MACK_MR
 10
16.8198
 20
-33.7561
 30
0
 70
     0
  0
VERTEX
  8
MACK_MR
 10
17.1186
 20
-33.3476
 30
0
 70
     0
  0
VERTEX
  8
MACK_MR
 10
17.4077
 20
-32.932
 30
0
 70
     0
  0
VERTEX
  8
MACK_MR
 10
17.687
 20
-32.5092
 30
0
 70
     0
  0
VERTEX
  8
MACK_MR
 10
17.9563
 20
-32.0796
 30
0
 70
     0
  0
VERTEX
  8
MACK_MR
 10
18.2155
 20
-31.6432
 30
0
 70
     0
  0
VERTEX
  8
MACK_MR
 10
18.4644
 20
-31.2002
 30
0
 70
     0
  0
VERTEX
  8
MACK_MR
 10
18.7028
 20
-30.7509
 30
0
 70
     0
  0
VERTEX
  8
MACK_MR
 10
18.9306
 20
-30.2953
 30
0
 70
     0
  0
VERTEX
  8
MACK_MR
 10
19.1475
 20
-29.8337
 30
0
 70
     0
  0
VERTEX
  8
MACK_MR
 10
19.3534
 20
-29.3662
 30
0
 70
     0
  0
VERTEX
  8
MACK_MR
 10
19.5482
 20
-28.8929
 30
0
 70
     0
  0
VERTEX
  8
MACK_MR
 10
19.7316
 20
-28.4142
 30
0
 70
     0
  0
VERTEX
  8
MACK_MR
 10
19.9036
 20
-27.93
 30
0
 70
     0
  0
VERTEX
  8
MACK_MR
 10
20.0639
 20
-27.4407
 30
0
 70
     0
  0
VERTEX
  8
MACK_MR
 10
20.2123
 20
-26.9463
 30
0
 70
     0
  0
VERTEX
  8
MACK_MR
 10
20.3487
 20
-26.4471
 30
0
 70
     0
  0
VERTEX
  8
MACK_MR
 10
20.4729
 20
-25.9432
 30
0
 70
     0
  0
VERTEX
  8
MACK_MR
 10
20.5848
 20
-25.4347
 30
0
 70
     0
  0
VERTEX
  8
MACK_MR
 10
20.6842
 20
-24.9219
 30
0
 70
     0
  0
VERTEX
  8
MACK_MR
 10
20.7708
 20
-24.4049
 30
0
 70
     0
  0
VERTEX
  8
MACK_MR
 10
20.8446
 20
-23.884
 30
0
 70
     0
  0
VERTEX
  8
MACK_MR
 10
20.9054
 20
-23.3591
 30
0
 70
     0
  0
VERTEX
  8
MACK_MR
 10
20.9529
 20
-22.8306
 30
0
 70
     0
  0
VERTEX
  8
MACK_MR
 10
20.9871
 20
-22.2986
 30
0
 70
     0
  0
VERTEX
  8
MACK_MR
 10
21.0077
 20
-21.7633
 30
0
 70
     0
  0
VERTEX
  8
MACK_MR
 10
21.0146
 20
-21.2248
 30
0
 70
     0
  0
SEQEND
  0
POLYLINE
  8
MACK_MR
  6
CONTINUOUS
 62
     7
 66
     1
 40
0.0139
 41
0.0139
  0
VERTEX
  8
MACK_MR
 10
20.0146
 20
-21.2248
 30
0
 70
     0
  0
VERTEX
  8
MACK_MR
 10
20.008
 20
-20.712
 30
0
 70
     0
  0
VERTEX
  8
MACK_MR
 10
19.9884
 20
-20.2021
 30
0
 70
     0
  0
VERTEX
  8
MACK_MR
 10
19.9559
 20
-19.6955
 30
0
 70
     0
  0
VERTEX
  8
MACK_MR
 10
19.9106
 20
-19.1921
 30
0
 70
     0
  0
VERTEX
  8
MACK_MR
 10
19.8527
 20
-18.6923
 30
0
 70
     0
  0
VERTEX
  8
MACK_MR
 10
19.7824
 20
-18.1961
 30
0
 70
     0
  0
VERTEX
  8
MACK_MR
 10
19.6999
 20
-17.7037
 30
0
 70
     0
  0
VERTEX
  8
MACK_MR
 10
19.6053
 20
-17.2154
 30
0
 70
     0
  0
VERTEX
  8
MACK_MR
 10
19.4987
 20
-16.7311
 30
0
 70
     0
  0
VERTEX
  8
MACK_MR
 10
19.3804
 20
-16.2512
 30
0
 70
     0
  0
VERTEX
  8
MACK_MR
 10
19.2505
 20
-15.7757
 30
0
 70
     0
  0
VERTEX
  8
MACK_MR
 10
19.1091
 20
-15.3049
 30
0
 70
     0
  0
VERTEX
  8
MACK_MR
 10
18.9565
 20
-14.8389
 30
0
 70
     0
  0
VERTEX
  8
MACK_MR
 10
18.7927
 20
-14.3778
 30
0
 70
     0
  0
VERTEX
  8
MACK_MR
 10
18.618
 20
-13.9218
 30
0
 70
     0
  0
VERTEX
  8
MACK_MR
 10
18.4325
 20
-13.4711
 30
0
 70
     0
  0
VERTEX
  8
MACK_MR
 10
18.2364
 20
-13.0259
 30
0
 70
     0
  0
VERTEX
  8
MACK_MR
 10
18.0298
 20
-12.5862
 30
0
 70
     0
  0
VERTEX
  8
MACK_MR
 10
17.8129
 20
-12.1524
 30
0
 70
     0
  0
VERTEX
  8
MACK_MR
 10
17.5858
 20
-11.7244
 30
0
 70
     0
  0
VERTEX
  8
MACK_MR
 10
17.3488
 20
-11.3026
 30
0
 70
     0
  0
VERTEX
  8
MACK_MR
 10
17.1019
 20
-10.887
 30
0
 70
     0
  0
VERTEX
  8
MACK_MR
 10
16.8454
 20
-10.4778
 30
0
 70
     0
  0
VERTEX
  8
MACK_MR
 10
16.5794
 20
-10.0751
 30
0
 70
     0
  0
VERTEX
  8
MACK_MR
 10
16.3041
 20
-9.6793
 30
0
 70
     0
  0
VERTEX
  8
MACK_MR
 10
16.0196
 20
-9.2903
 30
0
 70
     0
  0
VERTEX
  8
MACK_MR
 10
15.7261
 20
-8.9084
 30
0
 70
     0
  0
VERTEX
  8
MACK_MR
 10
15.4237
 20
-8.5337
 30
0
 70
     0
  0
VERTEX
  8
MACK_MR
 10
15.1126
 20
-8.1664
 30
0
 70
     0
  0
VERTEX
  8
MACK_MR
 10
14.7931
 20
-7.8066
 30
0
 70
     0
  0
VERTEX
  8
MACK_MR
 10
14.4651
 20
-7.4546
 30
0
 70
     0
  0
VERTEX
  8
MACK_MR
 10
14.129
 20
-7.1104
 30
0
 70
     0
  0
VERTEX
  8
MACK_MR
 10
13.7848
 20
-6.7743
 30
0
 70
     0
  0
VERTEX
  8
MACK_MR
 10
13.4328
 20
-6.4464
 30
0
 70
     0
  0
VERTEX
  8
MACK_MR
 10
13.0731
 20
-6.1268
 30
0
 70
     0
  0
VERTEX
  8
MACK_MR
 10
12.7058
 20
-5.8157
 30
0
 70
     0
  0
VERTEX
  8
MACK_MR
 10
12.3311
 20
-5.5134
 30
0
 70
     0
  0
VERTEX
  8
MACK_MR
 10
11.9492
 20
-5.2199
 30
0
 70
     0
  0
VERTEX
  8
MACK_MR
 10
11.5602
 20
-4.9354
 30
0
 70
     0
  0
VERTEX
  8
MACK_MR
 10
11.1643
 20
-4.66
 30
0
 70
     0
  0
VERTEX
  8
MACK_MR
 10
10.7617
 20
-4.394
 30
0
 70
     0
  0
VERTEX
  8
MACK_MR
 10
10.3525
 20
-4.1375
 30
0
 70
     0
  0
VERTEX
  8
MACK_MR
 10
9.9369
 20
-3.8906
 30
0
 70
     0
  0
VERTEX
  8
MACK_MR
 10
9.515
 20
-3.6536
 30
0
 70
     0
  0
VERTEX
  8
MACK_MR
 10
9.0871
 20
-3.4266
 30
0
 70
     0
  0
VERTEX
  8
MACK_MR
 10
8.6532
 20
-3.2097
 30
0
 70
     0
  0
VERTEX
  8
MACK_MR
 10
8.2136
 20
-3.0031
 30
0
 70
     0
  0
VERTEX
  8
MACK_MR
 10
7.7683
 20
-2.8069
 30
0
 70
     0
  0
VERTEX
  8
MACK_MR
 10
7.3176
 20
-2.6214
 30
0
 70
     0
  0
VERTEX
  8
MACK_MR
 10
6.8617
 20
-2.4467
 30
0
 70
     0
  0
VERTEX
  8
MACK_MR
 10
6.4006
 20
-2.283
 30
0
 70
     0
  0
VERTEX
  8
MACK_MR
 10
5.9345
 20
-2.1303
 30
0
 70
     0
  0
VERTEX
  8
MACK_MR
 10
5.4637
 20
-1.989
 30
0
 70
     0
  0
VERTEX
  8
MACK_MR
 10
4.9882
 20
-1.859
 30
0
 70
     0
  0
VERTEX
  8
MACK_MR
 10
4.5083
 20
-1.7407
 30
0
 70
     0
  0
VERTEX
  8
MACK_MR
 10
4.0241
 20
-1.6342
 30
0
 70
     0
  0
VERTEX
  8
MACK_MR
 10
3.5357
 20
-1.5396
 30
0
 70
     0
  0
VERTEX
  8
MACK_MR
 10
3.0433
 20
-1.457
 30
0
 70
     0
  0
VERTEX
  8
MACK_MR
 10
2.5472
 20
-1.3867
 30
0
 70
     0
  0
VERTEX
  8
MACK_MR
 10
2.0473
 20
-1.3289
 30
0
 70
     0
  0
VERTEX
  8
MACK_MR
 10
1.544
 20
-1.2836
 30
0
 70
     0
  0
VERTEX
  8
MACK_MR
 10
1.0373
 20
-1.251
 30
0
 70
     0
  0
VERTEX
  8
MACK_MR
 10
0.5275
 20
-1.2314
 30
0
 70
     0
  0
VERTEX
  8
MACK_MR
 10
0.0146
 20
-1.2248
 30
0
 70
     0
  0
VERTEX
  8
MACK_MR
 10
0.0146
 20
-1.2248
 30
0
 70
     0
  0
VERTEX
  8
MACK_MR
 10
-0.4982
 20
-1.2314
 30
0
 70
     0
  0
VERTEX
  8
MACK_MR
 10
-1.008
 20
-1.251
 30
0
 70
     0
  0
VERTEX
  8
MACK_MR
 10
-1.5147
 20
-1.2836
 30
0
 70
     0
  0
VERTEX
  8
MACK_MR
 10
-2.0181
 20
-1.3289
 30
0
 70
     0
  0
VERTEX
  8
MACK_MR
 10
-2.5179
 20
-1.3867
 30
0
 70
     0
  0
VERTEX
  8
MACK_MR
 10
-3.0141
 20
-1.457
 30
0
 70
     0
  0
VERTEX
  8
MACK_MR
 10
-3.5064
 20
-1.5396
 30
0
 70
     0
  0
VERTEX
  8
MACK_MR
 10
-3.9948
 20
-1.6342
 30
0
 70
     0
  0
VERTEX
  8
MACK_MR
 10
-4.479
 20
-1.7407
 30
0
 70
     0
  0
VERTEX
  8
MACK_MR
 10
-4.959
 20
-1.859
 30
0
 70
     0
  0
VERTEX
  8
MACK_MR
 10
-5.4344
 20
-1.989
 30
0
 70
     0
  0
VERTEX
  8
MACK_MR
 10
-5.9053
 20
-2.1303
 30
0
 70
     0
  0
VERTEX
  8
MACK_MR
 10
-6.3713
 20
-2.283
 30
0
 70
     0
  0
VERTEX
  8
MACK_MR
 10
-6.8324
 20
-2.4467
 30
0
 70
     0
  0
VERTEX
  8
MACK_MR
 10
-7.2884
 20
-2.6214
 30
0
 70
     0
  0
VERTEX
  8
MACK_MR
 10
-7.739
 20
-2.8069
 30
0
 70
     0
  0
VERTEX
  8
MACK_MR
 10
-8.1843
 20
-3.0031
 30
0
 70
     0
  0
VERTEX
  8
MACK_MR
 10
-8.6239
 20
-3.2097
 30
0
 70
     0
  0
VERTEX
  8
MACK_MR
 10
-9.0578
 20
-3.4266
 30
0
 70
     0
  0
VERTEX
  8
MACK_MR
 10
-9.4858
 20
-3.6536
 30
0
 70
     0
  0
VERTEX
  8
MACK_MR
 10
-9.9076
 20
-3.8906
 30
0
 70
     0
  0
VERTEX
  8
MACK_MR
 10
-10.3232
 20
-4.1375
 30
0
 70
     0
  0
VERTEX
  8
MACK_MR
 10
-10.7324
 20
-4.394
 30
0
 70
     0
  0
VERTEX
  8
MACK_MR
 10
-11.135
 20
-4.66
 30
0
 70
     0
  0
VERTEX
  8
MACK_MR
 10
-11.5309
 20
-4.9354
 30
0
 70
     0
  0
VERTEX
  8
MACK_MR
 10
-11.9199
 20
-5.2199
 30
0
 70
     0
  0
VERTEX
  8
MACK_MR
 10
-12.3018
 20
-5.5134
 30
0
 70
     0
  0
VERTEX
  8
MACK_MR
 10
-12.6765
 20
-5.8157
 30
0
 70
     0
  0
VERTEX
  8
MACK_MR
 10
-13.0438
 20
-6.1268
 30
0
 70
     0
  0
VERTEX
  8
MACK_MR
 10
-13.4035
 20
-6.4464
 30
0
 70
     0
  0
VERTEX
  8
MACK_MR
 10
-13.7556
 20
-6.7743
 30
0
 70
     0
  0
VERTEX
  8
MACK_MR
 10
-14.0997
 20
-7.1104
 30
0
 70
     0
  0
VERTEX
  8
MACK_MR
 10
-14.4359
 20
-7.4546
 30
0
 70
     0
  0
VERTEX
  8
MACK_MR
 10
-14.7638
 20
-7.8066
 30
0
 70
     0
  0
VERTEX
  8
MACK_MR
 10
-15.0834
 20
-8.1664
 30
0
 70
     0
  0
VERTEX
  8
MACK_MR
 10
-15.3944
 20
-8.5337
 30
0
 70
     0
  0
VERTEX
  8
MACK_MR
 10
-15.6968
 20
-8.9084
 30
0
 70
     0
  0
VERTEX
  8
MACK_MR
 10
-15.9903
 20
-9.2903
 30
0
 70
     0
  0
VERTEX
  8
MACK_MR
 10
-16.2748
 20
-9.6793
 30
0
 70
     0
  0
VERTEX
  8
MACK_MR
 10
-16.5502
 20
-10.0751
 30
0
 70
     0
  0
VERTEX
  8
MACK_MR
 10
-16.8162
 20
-10.4778
 30
0
 70
     0
  0
VERTEX
  8
MACK_MR
 10
-17.0727
 20
-10.887
 30
0
 70
     0
  0
VERTEX
  8
MACK_MR
 10
-17.3195
 20
-11.3026
 30
0
 70
     0
  0
VERTEX
  8
MACK_MR
 10
-17.5566
 20
-11.7244
 30
0
 70
     0
  0
VERTEX
  8
MACK_MR
 10
-17.7836
 20
-12.1524
 30
0
 70
     0
  0
VERTEX
  8
MACK_MR
 10
-18.0005
 20
-12.5862
 30
0
 70
     0
  0
VERTEX
  8
MACK_MR
 10
-18.2071
 20
-13.0259
 30
0
 70
     0
  0
VERTEX
  8
MACK_MR
 10
-18.4033
 20
-13.4711
 30
0
 70
     0
  0
VERTEX
  8
MACK_MR
 10
-18.5888
 20
-13.9218
 30
0
 70
     0
  0
VERTEX
  8
MACK_MR
 10
-18.7635
 20
-14.3778
 30
0
 70
     0
  0
VERTEX
  8
MACK_MR
 10
-18.9272
 20
-14.8389
 30
0
 70
     0
  0
VERTEX
  8
MACK_MR
 10
-19.0799
 20
-15.3049
 30
0
 70
     0
  0
VERTEX
  8
MACK_MR
 10
-19.2212
 20
-15.7757
 30
0
 70
     0
  0
VERTEX
  8
MACK_MR
 10
-19.3511
 20
-16.2512
 30
0
 70
     0
  0
VERTEX
  8
MACK_MR
 10
-19.4695
 20
-16.7311
 30
0
 70
     0
  0
VERTEX
  8
MACK_MR
 10
-19.576
 20
-17.2154
 30
0
 70
     0
  0
VERTEX
  8
MACK_MR
 10
-19.6706
 20
-17.7037
 30
0
 70
     0
  0
VERTEX
  8
MACK_MR
 10
-19.7532
 20
-18.1961
 30
0
 70
     0
  0
VERTEX
  8
MACK_MR
 10
-19.8234
 20
-18.6923
 30
0
 70
     0
  0
VERTEX
  8
MACK_MR
 10
-19.8813
 20
-19.1921
 30
0
 70
     0
  0
VERTEX
  8
MACK_MR
 10
-19.9266
 20
-19.6955
 30
0
 70
     0
  0
VERTEX
  8
MACK_MR
 10
-19.9591
 20
-20.2021
 30
0
 70
     0
  0
VERTEX
  8
MACK_MR
 10
-19.9788
 20
-20.712
 30
0
 70
     0
  0
VERTEX
  8
MACK_MR
 10
-19.9854
 20
-21.2248
 30
0
 70
     0
  0
VERTEX
  8
MACK_MR
 10
-19.9854
 20
-21.2248
 30
0
 70
     0
  0
VERTEX
  8
MACK_MR
 10
-19.9788
 20
-21.7377
 30
0
 70
     0
  0
VERTEX
  8
MACK_MR
 10
-19.9591
 20
-22.2475
 30
0
 70
     0
  0
VERTEX
  8
MACK_MR
 10
-19.9266
 20
-22.7542
 30
0
 70
     0
  0
VERTEX
  8
MACK_MR
 10
-19.8813
 20
-23.2575
 30
0
 70
     0
  0
VERTEX
  8
MACK_MR
 10
-19.8234
 20
-23.7573
 30
0
 70
     0
  0
VERTEX
  8
MACK_MR
 10
-19.7532
 20
-24.2535
 30
0
 70
     0
  0
VERTEX
  8
MACK_MR
 10
-19.6706
 20
-24.7459
 30
0
 70
     0
  0
VERTEX
  8
MACK_MR
 10
-19.576
 20
-25.2343
 30
0
 70
     0
  0
VERTEX
  8
MACK_MR
 10
-19.4695
 20
-25.7185
 30
0
 70
     0
  0
VERTEX
  8
MACK_MR
 10
-19.3511
 20
-26.1984
 30
0
 70
     0
  0
VERTEX
  8
MACK_MR
 10
-19.2212
 20
-26.6739
 30
0
 70
     0
  0
VERTEX
  8
MACK_MR
 10
-19.0799
 20
-27.1447
 30
0
 70
     0
  0
VERTEX
  8
MACK_MR
 10
-18.9272
 20
-27.6107
 30
0
 70
     0
  0
VERTEX
  8
MACK_MR
 10
-18.7635
 20
-28.0718
 30
0
 70
     0
  0
VERTEX
  8
MACK_MR
 10
-18.5888
 20
-28.5278
 30
0
 70
     0
  0
VERTEX
  8
MACK_MR
 10
-18.4033
 20
-28.9785
 30
0
 70
     0
  0
VERTEX
  8
MACK_MR
 10
-18.2071
 20
-29.4237
 30
0
 70
     0
  0
VERTEX
  8
MACK_MR
 10
-18.0005
 20
-29.8634
 30
0
 70
     0
  0
VERTEX
  8
MACK_MR
 10
-17.7836
 20
-30.2972
 30
0
 70
     0
  0
VERTEX
  8
MACK_MR
 10
-17.5566
 20
-30.7252
 30
0
 70
     0
  0
VERTEX
  8
MACK_MR
 10
-17.3195
 20
-31.1471
 30
0
 70
     0
  0
VERTEX
  8
MACK_MR
 10
-17.0727
 20
-31.5627
 30
0
 70
     0
  0
VERTEX
  8
MACK_MR
 10
-16.8162
 20
-31.9719
 30
0
 70
     0
  0
VERTEX
  8
MACK_MR
 10
-16.5502
 20
-32.3745
 30
0
 70
     0
  0
VERTEX
  8
MACK_MR
 10
-16.2748
 20
-32.7703
 30
0
 70
     0
  0
VERTEX
  8
MACK_MR
 10
-15.9903
 20
-33.1593
 30
0
 70
     0
  0
VERTEX
  8
MACK_MR
 10
-15.6968
 20
-33.5412
 30
0
 70
     0
  0
VERTEX
  8
MACK_MR
 10
-15.3944
 20
-33.9159
 30
0
 70
     0
  0
VERTEX
  8
MACK_MR
 10
-15.0834
 20
-34.2832
 30
0
 70
     0
  0
VERTEX
  8
MACK_MR
 10
-14.7638
 20
-34.643
 30
0
 70
     0
  0
VERTEX
  8
MACK_MR
 10
-14.4359
 20
-34.995
 30
0
 70
     0
  0
VERTEX
  8
MACK_MR
 10
-14.0997
 20
-35.3392
 30
0
 70
     0
  0
VERTEX
  8
MACK_MR
 10
-13.7556
 20
-35.6753
 30
0
 70
     0
  0
VERTEX
  8
MACK_MR
 10
-13.4035
 20
-36.0033
 30
0
 70
     0
  0
VERTEX
  8
MACK_MR
 10
-13.0438
 20
-36.3228
 30
0
 70
     0
  0
VERTEX
  8
MACK_MR
 10
-12.6765
 20
-36.6339
 30
0
 70
     0
  0
VERTEX
  8
MACK_MR
 10
-12.3018
 20
-36.9362
 30
0
 70
     0
  0
VERTEX
  8
MACK_MR
 10
-11.9199
 20
-37.2298
 30
0
 70
     0
  0
VERTEX
  8
MACK_MR
 10
-11.5309
 20
-37.5143
 30
0
 70
     0
  0
VERTEX
  8
MACK_MR
 10
-11.135
 20
-37.7896
 30
0
 70
     0
  0
VERTEX
  8
MACK_MR
 10
-10.7324
 20
-38.0556
 30
0
 70
     0
  0
VERTEX
  8
MACK_MR
 10
-10.3232
 20
-38.3121
 30
0
 70
     0
  0
VERTEX
  8
MACK_MR
 10
-9.9076
 20
-38.559
 30
0
 70
     0
  0
VERTEX
  8
MACK_MR
 10
-9.4858
 20
-38.796
 30
0
 70
     0
  0
VERTEX
  8
MACK_MR
 10
-9.0578
 20
-39.0231
 30
0
 70
     0
  0
VERTEX
  8
MACK_MR
 10
-8.6239
 20
-39.24
 30
0
 70
     0
  0
VERTEX
  8
MACK_MR
 10
-8.1843
 20
-39.4466
 30
0
 70
     0
  0
VERTEX
  8
MACK_MR
 10
-7.739
 20
-39.6427
 30
0
 70
     0
  0
VERTEX
  8
MACK_MR
 10
-7.2884
 20
-39.8282
 30
0
 70
     0
  0
VERTEX
  8
MACK_MR
 10
-6.8324
 20
-40.0029
 30
0
 70
     0
  0
VERTEX
  8
MACK_MR
 10
-6.3713
 20
-40.1667
 30
0
 70
     0
  0
VERTEX
  8
MACK_MR
 10
-5.9053
 20
-40.3193
 30
0
 70
     0
  0
VERTEX
  8
MACK_MR
 10
-5.4344
 20
-40.4607
 30
0
 70
     0
  0
VERTEX
  8
MACK_MR
 10
-4.959
 20
-40.5906
 30
0
 70
     0
  0
VERTEX
  8
MACK_MR
 10
-4.479
 20
-40.7089
 30
0
 70
     0
  0
VERTEX
  8
MACK_MR
 10
-3.9948
 20
-40.8154
 30
0
 70
     0
  0
VERTEX
  8
MACK_MR
 10
-3.5064
 20
-40.9101
 30
0
 70
     0
  0
VERTEX
  8
MACK_MR
 10
-3.0141
 20
-40.9926
 30
0
 70
     0
  0
VERTEX
  8
MACK_MR
 10
-2.5179
 20
-41.0629
 30
0
 70
     0
  0
VERTEX
  8
MACK_MR
 10
-2.0181
 20
-41.1207
 30
0
 70
     0
  0
VERTEX
  8
MACK_MR
 10
-1.5147
 20
-41.166
 30
0
 70
     0
  0
VERTEX
  8
MACK_MR
 10
-1.008
 20
-41.1986
 30
0
 70
     0
  0
VERTEX
  8
MACK_MR
 10
-0.4982
 20
-41.2182
 30
0
 70
     0
  0
VERTEX
  8
MACK_MR
 10
0.0146
 20
-41.2248
 30
0
 70
     0
  0
VERTEX
  8
MACK_MR
 10
0.0146
 20
-41.2248
 30
0
 70
     0
  0
VERTEX
  8
MACK_MR
 10
0.5275
 20
-41.2182
 30
0
 70
     0
  0
VERTEX
  8
MACK_MR
 10
1.0373
 20
-41.1986
 30
0
 70
     0
  0
VERTEX
  8
MACK_MR
 10
1.544
 20
-41.166
 30
0
 70
     0
  0
VERTEX
  8
MACK_MR
 10
2.0473
 20
-41.1207
 30
0
 70
     0
  0
VERTEX
  8
MACK_MR
 10
2.5472
 20
-41.0629
 30
0
 70
     0
  0
VERTEX
  8
MACK_MR
 10
3.0433
 20
-40.9926
 30
0
 70
     0
  0
VERTEX
  8
MACK_MR
 10
3.5357
 20
-40.9101
 30
0
 70
     0
  0
VERTEX
  8
MACK_MR
 10
4.0241
 20
-40.8154
 30
0
 70
     0
  0
VERTEX
  8
MACK_MR
 10
4.5083
 20
-40.7089
 30
0
 70
     0
  0
VERTEX
  8
MACK_MR
 10
4.9882
 20
-40.5906
 30
0
 70
     0
  0
VERTEX
  8
MACK_MR
 10
5.4637
 20
-40.4607
 30
0
 70
     0
  0
VERTEX
  8
MACK_MR
 10
5.9345
 20
-40.3193
 30
0
 70
     0
  0
VERTEX
  8
MACK_MR
 10
6.4006
 20
-40.1667
 30
0
 70
     0
  0
VERTEX
  8
MACK_MR
 10
6.8617
 20
-40.0029
 30
0
 70
     0
  0
VERTEX
  8
MACK_MR
 10
7.3176
 20
-39.8282
 30
0
 70
     0
  0
VERTEX
  8
MACK_MR
 10
7.7683
 20
-39.6427
 30
0
 70
     0
  0
VERTEX
  8
MACK_MR
 10
8.2136
 20
-39.4466
 30
0
 70
     0
  0
VERTEX
  8
MACK_MR
 10
8.6532
 20
-39.24
 30
0
 70
     0
  0
VERTEX
  8
MACK_MR
 10
9.0871
 20
-39.0231
 30
0
 70
     0
  0
VERTEX
  8
MACK_MR
 10
9.515
 20
-38.796
 30
0
 70
     0
  0
VERTEX
  8
MACK_MR
 10
9.9369
 20
-38.559
 30
0
 70
     0
  0
VERTEX
  8
MACK_MR
 10
10.3525
 20
-38.3121
 30
0
 70
     0
  0
VERTEX
  8
MACK_MR
 10
10.7617
 20
-38.0556
 30
0
 70
     0
  0
VERTEX
  8
MACK_MR
 10
11.1643
 20
-37.7896
 30
0
 70
     0
  0
VERTEX
  8
MACK_MR
 10
11.5602
 20
-37.5143
 30
0
 70
     0
  0
VERTEX
  8
MACK_MR
 10
11.9492
 20
-37.2298
 30
0
 70
     0
  0
VERTEX
  8
MACK_MR
 10
12.3311
 20
-36.9362
 30
0
 70
     0
  0
VERTEX
  8
MACK_MR
 10
12.7058
 20
-36.6339
 30
0
 70
     0
  0
VERTEX
  8
MACK_MR
 10
13.0731
 20
-36.3228
 30
0
 70
     0
  0
VERTEX
  8
MACK_MR
 10
13.4328
 20
-36.0033
 30
0
 70
     0
  0
VERTEX
  8
MACK_MR
 10
13.7848
 20
-35.6753
 30
0
 70
     0
  0
VERTEX
  8
MACK_MR
 10
14.129
 20
-35.3392
 30
0
 70
     0
  0
VERTEX
  8
MACK_MR
 10
14.4651
 20
-34.995
 30
0
 70
     0
  0
VERTEX
  8
MACK_MR
 10
14.7931
 20
-34.643
 30
0
 70
     0
  0
VERTEX
  8
MACK_MR
 10
15.1126
 20
-34.2832
 30
0
 70
     0
  0
VERTEX
  8
MACK_MR
 10
15.4237
 20
-33.9159
 30
0
 70
     0
  0
VERTEX
  8
MACK_MR
 10
15.7261
 20
-33.5412
 30
0
 70
     0
  0
VERTEX
  8
MACK_MR
 10
16.0196
 20
-33.1593
 30
0
 70
     0
  0
VERTEX
  8
MACK_MR
 10
16.3041
 20
-32.7703
 30
0
 70
     0
  0
VERTEX
  8
MACK_MR
 10
16.5794
 20
-32.3745
 30
0
 70
     0
  0
VERTEX
  8
MACK_MR
 10
16.8454
 20
-31.9719
 30
0
 70
     0
  0
VERTEX
  8
MACK_MR
 10
17.1019
 20
-31.5627
 30
0
 70
     0
  0
VERTEX
  8
MACK_MR
 10
17.3488
 20
-31.1471
 30
0
 70
     0
  0
VERTEX
  8
MACK_MR
 10
17.5858
 20
-30.7252
 30
0
 70
     0
  0
VERTEX
  8
MACK_MR
 10
17.8129
 20
-30.2972
 30
0
 70
     0
  0
VERTEX
  8
MACK_MR
 10
18.0298
 20
-29.8634
 30
0
 70
     0
  0
VERTEX
  8
MACK_MR
 10
18.2364
 20
-29.4237
 30
0
 70
     0
  0
VERTEX
  8
MACK_MR
 10
18.4325
 20
-28.9785
 30
0
 70
     0
  0
VERTEX
  8
MACK_MR
 10
18.618
 20
-28.5278
 30
0
 70
     0
  0
VERTEX
  8
MACK_MR
 10
18.7927
 20
-28.0718
 30
0
 70
     0
  0
VERTEX
  8
MACK_MR
 10
18.9565
 20
-27.6107
 30
0
 70
     0
  0
VERTEX
  8
MACK_MR
 10
19.1091
 20
-27.1447
 30
0
 70
     0
  0
VERTEX
  8
MACK_MR
 10
19.2505
 20
-26.6739
 30
0
 70
     0
  0
VERTEX
  8
MACK_MR
 10
19.3804
 20
-26.1984
 30
0
 70
     0
  0
VERTEX
  8
MACK_MR
 10
19.4987
 20
-25.7185
 30
0
 70
     0
  0
VERTEX
  8
MACK_MR
 10
19.6053
 20
-25.2343
 30
0
 70
     0
  0
VERTEX
  8
MACK_MR
 10
19.6999
 20
-24.7459
 30
0
 70
     0
  0
VERTEX
  8
MACK_MR
 10
19.7824
 20
-24.2535
 30
0
 70
     0
  0
VERTEX
  8
MACK_MR
 10
19.8527
 20
-23.7573
 30
0
 70
     0
  0
VERTEX
  8
MACK_MR
 10
19.9106
 20
-23.2575
 30
0
 70
     0
  0
VERTEX
  8
MACK_MR
 10
19.9559
 20
-22.7542
 30
0
 70
     0
  0
VERTEX
  8
MACK_MR
 10
19.9884
 20
-22.2475
 30
0
 70
     0
  0
VERTEX
  8
MACK_MR
 10
20.008
 20
-21.7377
 30
0
 70
     0
  0
VERTEX
  8
MACK_MR
 10
20.0146
 20
-21.2248
 30
0
 70
     0
  0
SEQEND
  0
POLYLINE
  8
MACK_MR
  6
CONTINUOUS
 62
     7
 66
     1
 40
0.0139
 41
0.0139
  0
VERTEX
  8
MACK_MR
 10
-3.4854
 20
53.5653
 30
0
 70
     0
  0
VERTEX
  8
MACK_MR
 10
-3.4854
 20
5.6717
 30
0
 70
     0
  0
SEQEND
  0
POLYLINE
  8
MACK_MR
  6
CONTINUOUS
 62
     7
 66
     1
 40
0.0139
 41
0.0139
  0
VERTEX
  8
MACK_MR
 10
42.5931
 20
55.5814
 30
0
 70
     0
  0
VERTEX
  8
MACK_MR
 10
42.6209
 20
56.8315
 30
0
 70
     0
  0
VERTEX
  8
MACK_MR
 10
42.6561
 20
58.0814
 30
0
 70
     0
  0
VERTEX
  8
MACK_MR
 10
42.6986
 20
59.3311
 30
0
 70
     0
  0
VERTEX
  8
MACK_MR
 10
42.7485
 20
60.5806
 30
0
 70
     0
  0
SEQEND
  0
POLYLINE
  8
MACK_MR
  6
CONTINUOUS
 62
     7
 66
     1
 40
0.0139
 41
0.0139
  0
VERTEX
  8
MACK_MR
 10
-3.4854
 20
5.6717
 30
0
 70
     0
  0
VERTEX
  8
MACK_MR
 10
-3.3979
 20
4.6755
 30
0
 70
     0
  0
SEQEND
  0
POLYLINE
  8
MACK_MR
  6
CONTINUOUS
 62
     7
 66
     1
 40
0.0139
 41
0.0139
  0
VERTEX
  8
MACK_MR
 10
-3.4854
 20
5.6717
 30
0
 70
     0
  0
VERTEX
  8
MACK_MR
 10
-2.861
 20
5.7196
 30
0
 70
     0
  0
VERTEX
  8
MACK_MR
 10
-2.236
 20
5.753
 30
0
 70
     0
  0
VERTEX
  8
MACK_MR
 10
-1.6105
 20
5.7717
 30
0
 70
     0
  0
VERTEX
  8
MACK_MR
 10
-0.9848
 20
5.7758
 30
0
 70
     0
  0
VERTEX
  8
MACK_MR
 10
-0.3592
 20
5.7653
 30
0
 70
     0
  0
VERTEX
  8
MACK_MR
 10
0.2661
 20
5.7402
 30
0
 70
     0
  0
VERTEX
  8
MACK_MR
 10
0.8908
 20
5.7004
 30
0
 70
     0
  0
VERTEX
  8
MACK_MR
 10
1.5146
 20
5.646
 30
0
 70
     0
  0
SEQEND
  0
POLYLINE
  8
MACK_MR
  6
CONTINUOUS
 62
     7
 66
     1
 40
0.0139
 41
0.0139
  0
VERTEX
  8
MACK_MR
 10
-26.9854
 20
-21.2248
 30
0
 70
     0
  0
VERTEX
  8
MACK_MR
 10
-25.9854
 20
-21.2248
 30
0
 70
     0
  0
SEQEND
  0
POLYLINE
  8
MACK_MR
  6
CONTINUOUS
 62
     7
 66
     1
 40
0.0139
 41
0.0139
  0
VERTEX
  8
MACK_MR
 10
-26.9854
 20
-21.2248
 30
0
 70
     0
  0
VERTEX
  8
MACK_MR
 10
-26.9786
 20
-20.5954
 30
0
 70
     0
  0
VERTEX
  8
MACK_MR
 10
-26.9575
 20
-19.9692
 30
0
 70
     0
  0
VERTEX
  8
MACK_MR
 10
-26.9221
 20
-19.3463
 30
0
 70
     0
  0
VERTEX
  8
MACK_MR
 10
-26.8726
 20
-18.7269
 30
0
 70
     0
  0
VERTEX
  8
MACK_MR
 10
-26.8091
 20
-18.1112
 30
0
 70
     0
  0
VERTEX
  8
MACK_MR
 10
-26.7318
 20
-17.4993
 30
0
 70
     0
  0
VERTEX
  8
MACK_MR
 10
-26.6409
 20
-16.8915
 30
0
 70
     0
  0
VERTEX
  8
MACK_MR
 10
-26.5365
 20
-16.2879
 30
0
 70
     0
  0
VERTEX
  8
MACK_MR
 10
-26.4187
 20
-15.6886
 30
0
 70
     0
  0
VERTEX
  8
MACK_MR
 10
-26.2877
 20
-15.0939
 30
0
 70
     0
  0
VERTEX
  8
MACK_MR
 10
-26.1437
 20
-14.5039
 30
0
 70
     0
  0
VERTEX
  8
MACK_MR
 10
-25.9867
 20
-13.9188
 30
0
 70
     0
  0
VERTEX
  8
MACK_MR
 10
-25.817
 20
-13.3388
 30
0
 70
     0
  0
VERTEX
  8
MACK_MR
 10
-25.6347
 20
-12.7639
 30
0
 70
     0
  0
VERTEX
  8
MACK_MR
 10
-25.4399
 20
-12.1945
 30
0
 70
     0
  0
VERTEX
  8
MACK_MR
 10
-25.2329
 20
-11.6307
 30
0
 70
     0
  0
VERTEX
  8
MACK_MR
 10
-25.0136
 20
-11.0726
 30
0
 70
     0
  0
VERTEX
  8
MACK_MR
 10
-24.7823
 20
-10.5204
 30
0
 70
     0
  0
VERTEX
  8
MACK_MR
 10
-24.5392
 20
-9.9743
 30
0
 70
     0
  0
VERTEX
  8
MACK_MR
 10
-24.2844
 20
-9.4344
 30
0
 70
     0
  0
VERTEX
  8
MACK_MR
 10
-24.018
 20
-8.901
 30
0
 70
     0
  0
VERTEX
  8
MACK_MR
 10
-23.7402
 20
-8.3742
 30
0
 70
     0
  0
VERTEX
  8
MACK_MR
 10
-23.4511
 20
-7.8542
 30
0
 70
     0
  0
VERTEX
  8
MACK_MR
 10
-23.1509
 20
-7.3411
 30
0
 70
     0
  0
VERTEX
  8
MACK_MR
 10
-22.8397
 20
-6.8352
 30
0
 70
     0
  0
VERTEX
  8
MACK_MR
 10
-22.5178
 20
-6.3365
 30
0
 70
     0
  0
VERTEX
  8
MACK_MR
 10
-22.1851
 20
-5.8453
 30
0
 70
     0
  0
VERTEX
  8
MACK_MR
 10
-21.8419
 20
-5.3617
 30
0
 70
     0
  0
VERTEX
  8
MACK_MR
 10
-21.4884
 20
-4.886
 30
0
 70
     0
  0
VERTEX
  8
MACK_MR
 10
-21.1247
 20
-4.4182
 30
0
 70
     0
  0
VERTEX
  8
MACK_MR
 10
-20.7508
 20
-3.9585
 30
0
 70
     0
  0
VERTEX
  8
MACK_MR
 10
-20.3671
 20
-3.5072
 30
0
 70
     0
  0
VERTEX
  8
MACK_MR
 10
-19.9736
 20
-3.0644
 30
0
 70
     0
  0
VERTEX
  8
MACK_MR
 10
-19.5705
 20
-2.6303
 30
0
 70
     0
  0
VERTEX
  8
MACK_MR
 10
-19.1578
 20
-2.205
 30
0
 70
     0
  0
VERTEX
  8
MACK_MR
 10
-18.7359
 20
-1.7886
 30
0
 70
     0
  0
VERTEX
  8
MACK_MR
 10
-18.3048
 20
-1.3815
 30
0
 70
     0
  0
VERTEX
  8
MACK_MR
 10
-17.8647
 20
-0.9838
 30
0
 70
     0
  0
VERTEX
  8
MACK_MR
 10
-17.4157
 20
-0.5955
 30
0
 70
     0
  0
VERTEX
  8
MACK_MR
 10
-16.9579
 20
-0.217
 30
0
 70
     0
  0
VERTEX
  8
MACK_MR
 10
-16.4916
 20
0.1517
 30
0
 70
     0
  0
VERTEX
  8
MACK_MR
 10
-16.0169
 20
0.5104
 30
0
 70
     0
  0
VERTEX
  8
MACK_MR
 10
-15.5339
 20
0.8588
 30
0
 70
     0
  0
VERTEX
  8
MACK_MR
 10
-15.0428
 20
1.1968
 30
0
 70
     0
  0
VERTEX
  8
MACK_MR
 10
-14.5436
 20
1.5243
 30
0
 70
     0
  0
VERTEX
  8
MACK_MR
 10
-14.0367
 20
1.8411
 30
0
 70
     0
  0
VERTEX
  8
MACK_MR
 10
-13.5221
 20
2.1469
 30
0
 70
     0
  0
VERTEX
  8
MACK_MR
 10
-12.9999
 20
2.4417
 30
0
 70
     0
  0
VERTEX
  8
MACK_MR
 10
-12.4704
 20
2.7253
 30
0
 70
     0
  0
VERTEX
  8
MACK_MR
 10
-11.9336
 20
2.9974
 30
0
 70
     0
  0
VERTEX
  8
MACK_MR
 10
-11.3897
 20
3.2579
 30
0
 70
     0
  0
VERTEX
  8
MACK_MR
 10
-10.8389
 20
3.5067
 30
0
 70
     0
  0
VERTEX
  8
MACK_MR
 10
-10.2814
 20
3.7436
 30
0
 70
     0
  0
VERTEX
  8
MACK_MR
 10
-9.7172
 20
3.9683
 30
0
 70
     0
  0
VERTEX
  8
MACK_MR
 10
-9.1465
 20
4.1808
 30
0
 70
     0
  0
VERTEX
  8
MACK_MR
 10
-8.5694
 20
4.3808
 30
0
 70
     0
  0
VERTEX
  8
MACK_MR
 10
-7.9862
 20
4.5683
 30
0
 70
     0
  0
VERTEX
  8
MACK_MR
 10
-7.397
 20
4.7429
 30
0
 70
     0
  0
VERTEX
  8
MACK_MR
 10
-6.8018
 20
4.9045
 30
0
 70
     0
  0
VERTEX
  8
MACK_MR
 10
-6.201
 20
5.0531
 30
0
 70
     0
  0
VERTEX
  8
MACK_MR
 10
-5.5945
 20
5.1883
 30
0
 70
     0
  0
VERTEX
  8
MACK_MR
 10
-4.9826
 20
5.3101
 30
0
 70
     0
  0
VERTEX
  8
MACK_MR
 10
-4.3654
 20
5.4181
 30
0
 70
     0
  0
VERTEX
  8
MACK_MR
 10
-3.743
 20
5.5124
 30
0
 70
     0
  0
SEQEND
  0
POLYLINE
  8
MACK_MR
  6
CONTINUOUS
 62
     7
 66
     1
 40
0.0139
 41
0.0139
  0
VERTEX
  8
MACK_MR
 10
1.5146
 20
5.646
 30
0
 70
     0
  0
VERTEX
  8
MACK_MR
 10
1.9555
 20
5.5995
 30
0
 70
     0
  0
VERTEX
  8
MACK_MR
 10
2.3946
 20
5.5458
 30
0
 70
     0
  0
VERTEX
  8
MACK_MR
 10
2.8318
 20
5.4851
 30
0
 70
     0
  0
VERTEX
  8
MACK_MR
 10
3.2671
 20
5.4173
 30
0
 70
     0
  0
VERTEX
  8
MACK_MR
 10
3.7004
 20
5.3427
 30
0
 70
     0
  0
VERTEX
  8
MACK_MR
 10
4.1317
 20
5.2611
 30
0
 70
     0
  0
VERTEX
  8
MACK_MR
 10
4.5608
 20
5.1726
 30
0
 70
     0
  0
VERTEX
  8
MACK_MR
 10
4.9878
 20
5.0774
 30
0
 70
     0
  0
VERTEX
  8
MACK_MR
 10
5.4124
 20
4.9754
 30
0
 70
     0
  0
VERTEX
  8
MACK_MR
 10
5.8348
 20
4.8667
 30
0
 70
     0
  0
VERTEX
  8
MACK_MR
 10
6.2547
 20
4.7513
 30
0
 70
     0
  0
VERTEX
  8
MACK_MR
 10
6.6722
 20
4.6293
 30
0
 70
     0
  0
VERTEX
  8
MACK_MR
 10
7.0871
 20
4.5007
 30
0
 70
     0
  0
VERTEX
  8
MACK_MR
 10
7.4994
 20
4.3657
 30
0
 70
     0
  0
VERTEX
  8
MACK_MR
 10
7.9091
 20
4.2241
 30
0
 70
     0
  0
VERTEX
  8
MACK_MR
 10
8.316
 20
4.0762
 30
0
 70
     0
  0
VERTEX
  8
MACK_MR
 10
8.72
 20
3.9218
 30
0
 70
     0
  0
VERTEX
  8
MACK_MR
 10
9.1212
 20
3.7612
 30
0
 70
     0
  0
VERTEX
  8
MACK_MR
 10
9.5194
 20
3.5943
 30
0
 70
     0
  0
VERTEX
  8
MACK_MR
 10
9.9146
 20
3.4211
 30
0
 70
     0
  0
VERTEX
  8
MACK_MR
 10
10.3067
 20
3.2418
 30
0
 70
     0
  0
VERTEX
  8
MACK_MR
 10
10.6957
 20
3.0564
 30
0
 70
     0
  0
VERTEX
  8
MACK_MR
 10
11.0814
 20
2.8648
 30
0
 70
     0
  0
VERTEX
  8
MACK_MR
 10
11.4638
 20
2.6673
 30
0
 70
     0
  0
VERTEX
  8
MACK_MR
 10
11.8428
 20
2.4637
 30
0
 70
     0
  0
VERTEX
  8
MACK_MR
 10
12.2184
 20
2.2543
 30
0
 70
     0
  0
VERTEX
  8
MACK_MR
 10
12.5905
 20
2.0389
 30
0
 70
     0
  0
VERTEX
  8
MACK_MR
 10
12.959
 20
1.8177
 30
0
 70
     0
  0
VERTEX
  8
MACK_MR
 10
13.3238
 20
1.5908
 30
0
 70
     0
  0
VERTEX
  8
MACK_MR
 10
13.6849
 20
1.3581
 30
0
 70
     0
  0
VERTEX
  8
MACK_MR
 10
14.0423
 20
1.1197
 30
0
 70
     0
  0
VERTEX
  8
MACK_MR
 10
14.3958
 20
0.8756
 30
0
 70
     0
  0
VERTEX
  8
MACK_MR
 10
14.7453
 20
0.626
 30
0
 70
     0
  0
VERTEX
  8
MACK_MR
 10
15.0909
 20
0.3708
 30
0
 70
     0
  0
VERTEX
  8
MACK_MR
 10
15.4324
 20
0.1101
 30
0
 70
     0
  0
VERTEX
  8
MACK_MR
 10
15.7697
 20
-0.156
 30
0
 70
     0
  0
VERTEX
  8
MACK_MR
 10
16.1029
 20
-0.4275
 30
0
 70
     0
  0
VERTEX
  8
MACK_MR
 10
16.4318
 20
-0.7044
 30
0
 70
     0
  0
VERTEX
  8
MACK_MR
 10
16.7563
 20
-0.9865
 30
0
 70
     0
  0
VERTEX
  8
MACK_MR
 10
17.0764
 20
-1.2739
 30
0
 70
     0
  0
VERTEX
  8
MACK_MR
 10
17.7032
 20
-1.8643
 30
0
 70
     0
  0
VERTEX
  8
MACK_MR
 10
18.3115
 20
-2.4751
 30
0
 70
     0
  0
VERTEX
  8
MACK_MR
 10
18.9007
 20
-3.106
 30
0
 70
     0
  0
VERTEX
  8
MACK_MR
 10
19.4704
 20
-3.7564
 30
0
 70
     0
  0
VERTEX
  8
MACK_MR
 10
19.7477
 20
-4.0889
 30
0
 70
     0
  0
VERTEX
  8
MACK_MR
 10
20.0199
 20
-4.4262
 30
0
 70
     0
  0
VERTEX
  8
MACK_MR
 10
20.2869
 20
-4.7682
 30
0
 70
     0
  0
VERTEX
  8
MACK_MR
 10
20.5487
 20
-5.1148
 30
0
 70
     0
  0
VERTEX
  8
MACK_MR
 10
20.8052
 20
-5.4661
 30
0
 70
     0
  0
VERTEX
  8
MACK_MR
 10
21.0563
 20
-5.8219
 30
0
 70
     0
  0
VERTEX
  8
MACK_MR
 10
21.3019
 20
-6.1822
 30
0
 70
     0
  0
VERTEX
  8
MACK_MR
 10
21.5421
 20
-6.547
 30
0
 70
     0
  0
VERTEX
  8
MACK_MR
 10
21.7766
 20
-6.9163
 30
0
 70
     0
  0
VERTEX
  8
MACK_MR
 10
22.0055
 20
-7.2899
 30
0
 70
     0
  0
VERTEX
  8
MACK_MR
 10
22.2286
 20
-7.6679
 30
0
 70
     0
  0
VERTEX
  8
MACK_MR
 10
22.446
 20
-8.0501
 30
0
 70
     0
  0
VERTEX
  8
MACK_MR
 10
22.6575
 20
-8.4366
 30
0
 70
     0
  0
VERTEX
  8
MACK_MR
 10
22.863
 20
-8.8272
 30
0
 70
     0
  0
VERTEX
  8
MACK_MR
 10
23.0626
 20
-9.222
 30
0
 70
     0
  0
VERTEX
  8
MACK_MR
 10
23.2561
 20
-9.6208
 30
0
 70
     0
  0
SEQEND
  0
POLYLINE
  8
MACK_MR
  6
CONTINUOUS
 62
     7
 66
     1
 40
0.0139
 41
0.0139
  0
VERTEX
  8
MACK_MR
 10
29.1589
 20
-24.349
 30
0
 70
     0
  0
VERTEX
  8
MACK_MR
 10
30.0793
 20
-23.956
 30
0
 70
     0
  0
SEQEND
  0
POLYLINE
  8
MACK_MR
  6
CONTINUOUS
 62
     7
 66
     1
 40
0.0139
 41
0.0139
  0
VERTEX
  8
MACK_MR
 10
30.0793
 20
-23.956
 30
0
 70
     0
  0
VERTEX
  8
MACK_MR
 10
23.2561
 20
-9.6208
 30
0
 70
     0
  0
SEQEND
  0
POLYLINE
  8
MACK_MR
  6
CONTINUOUS
 62
     7
 66
     1
 40
0.0139
 41
0.0139
  0
VERTEX
  8
MACK_MR
 10
-3.6039
 20
4.5222
 30
0
 70
     0
  0
VERTEX
  8
MACK_MR
 10
-3.743
 20
5.5124
 30
0
 70
     0
  0
SEQEND
  0
POLYLINE
  8
MACK_MR
  6
CONTINUOUS
 62
     7
 66
     1
 40
0.0139
 41
0.0139
  0
VERTEX
  8
MACK_MR
 10
1.5146
 20
49.8232
 30
0
 70
     0
  0
VERTEX
  8
MACK_MR
 10
1.5146
 20
47.7626
 30
0
 70
     0
  0
SEQEND
  0
POLYLINE
  8
MACK_MR
  6
CONTINUOUS
 62
     7
 66
     1
 40
0.0139
 41
0.0139
  0
VERTEX
  8
MACK_MR
 10
1.5146
 20
18.3588
 30
0
 70
     0
  0
VERTEX
  8
MACK_MR
 10
1.5146
 20
17.2981
 30
0
 70
     0
  0
SEQEND
  0
POLYLINE
  8
MACK_MR
  6
CONTINUOUS
 62
     7
 66
     1
 40
0.0139
 41
0.0139
  0
VERTEX
  8
MACK_MR
 10
1.5146
 20
47.7626
 30
0
 70
     0
  0
VERTEX
  8
MACK_MR
 10
1.5146
 20
46.7019
 30
0
 70
     0
  0
SEQEND
  0
POLYLINE
  8
MACK_MR
  6
CONTINUOUS
 62
     7
 66
     1
 40
0.0139
 41
0.0139
  0
VERTEX
  8
MACK_MR
 10
1.5146
 20
46.7019
 30
0
 70
     0
  0
VERTEX
  8
MACK_MR
 10
1.5146
 20
18.3588
 30
0
 70
     0
  0
SEQEND
  0
POLYLINE
  8
MACK_MR
  6
CONTINUOUS
 62
     7
 66
     1
 40
0.0139
 41
0.0139
  0
VERTEX
  8
MACK_MR
 10
1.5146
 20
49.8232
 30
0
 70
     0
  0
VERTEX
  8
MACK_MR
 10
1.523
 20
49.9519
 30
0
 70
     0
  0
VERTEX
  8
MACK_MR
 10
1.5497
 20
50.0835
 30
0
 70
     0
  0
VERTEX
  8
MACK_MR
 10
1.5961
 20
50.2102
 30
0
 70
     0
  0
VERTEX
  8
MACK_MR
 10
1.6611
 20
50.3232
 30
0
 70
     0
  0
VERTEX
  8
MACK_MR
 10
1.741
 20
50.4151
 30
0
 70
     0
  0
VERTEX
  8
MACK_MR
 10
1.8306
 20
50.4807
 30
0
 70
     0
  0
VERTEX
  8
MACK_MR
 10
1.9237
 20
50.5185
 30
0
 70
     0
  0
VERTEX
  8
MACK_MR
 10
2.0146
 20
50.5303
 30
0
 70
     0
  0
SEQEND
  0
POLYLINE
  8
MACK_MR
  6
CONTINUOUS
 62
     7
 66
     1
 40
0.0139
 41
0.0139
  0
VERTEX
  8
MACK_MR
 10
2.0146
 20
48.1161
 30
0
 70
     0
  0
VERTEX
  8
MACK_MR
 10
2.0146
 20
50.5303
 30
0
 70
     0
  0
SEQEND
  0
POLYLINE
  8
MACK_MR
  6
CONTINUOUS
 62
     7
 66
     1
 40
0.0139
 41
0.0139
  0
VERTEX
  8
MACK_MR
 10
1.5146
 20
17.2981
 30
0
 70
     0
  0
VERTEX
  8
MACK_MR
 10
1.5146
 20
15.2374
 30
0
 70
     0
  0
SEQEND
  0
POLYLINE
  8
MACK_MR
  6
CONTINUOUS
 62
     7
 66
     1
 40
0.0139
 41
0.0139
  0
VERTEX
  8
MACK_MR
 10
2.0146
 20
14.5303
 30
0
 70
     0
  0
VERTEX
  8
MACK_MR
 10
1.9237
 20
14.5421
 30
0
 70
     0
  0
VERTEX
  8
MACK_MR
 10
1.8306
 20
14.58
 30
0
 70
     0
  0
VERTEX
  8
MACK_MR
 10
1.741
 20
14.6456
 30
0
 70
     0
  0
VERTEX
  8
MACK_MR
 10
1.6611
 20
14.7374
 30
0
 70
     0
  0
VERTEX
  8
MACK_MR
 10
1.5961
 20
14.8505
 30
0
 70
     0
  0
VERTEX
  8
MACK_MR
 10
1.5497
 20
14.9772
 30
0
 70
     0
  0
VERTEX
  8
MACK_MR
 10
1.523
 20
15.1088
 30
0
 70
     0
  0
VERTEX
  8
MACK_MR
 10
1.5146
 20
15.2374
 30
0
 70
     0
  0
SEQEND
  0
POLYLINE
  8
MACK_MR
  6
CONTINUOUS
 62
     7
 66
     1
 40
0.0139
 41
0.0139
  0
VERTEX
  8
MACK_MR
 10
2.0146
 20
14.5303
 30
0
 70
     0
  0
VERTEX
  8
MACK_MR
 10
2.0146
 20
16.9445
 30
0
 70
     0
  0
SEQEND
  0
POLYLINE
  8
MACK_MR
  6
CONTINUOUS
 62
     7
 66
     1
 40
0.0139
 41
0.0139
  0
VERTEX
  8
MACK_MR
 10
2.0146
 20
16.9445
 30
0
 70
     0
  0
VERTEX
  8
MACK_MR
 10
2.0146
 20
18.3588
 30
0
 70
     0
  0
SEQEND
  0
POLYLINE
  8
MACK_MR
  6
CONTINUOUS
 62
     7
 66
     1
 40
0.0139
 41
0.0139
  0
VERTEX
  8
MACK_MR
 10
2.0146
 20
46.7019
 30
0
 70
     0
  0
VERTEX
  8
MACK_MR
 10
2.0146
 20
48.1161
 30
0
 70
     0
  0
SEQEND
  0
POLYLINE
  8
MACK_MR
  6
CONTINUOUS
 62
     7
 66
     1
 40
0.0139
 41
0.0139
  0
VERTEX
  8
MACK_MR
 10
2.0146
 20
18.3588
 30
0
 70
     0
  0
VERTEX
  8
MACK_MR
 10
2.0146
 20
46.7019
 30
0
 70
     0
  0
SEQEND
  0
POLYLINE
  8
MACK_MR
  6
CONTINUOUS
 62
     7
 66
     1
 40
0.0139
 41
0.0139
  0
VERTEX
  8
MACK_MR
 10
2.2646
 20
47.8099
 30
0
 70
     0
  0
VERTEX
  8
MACK_MR
 10
2.2646
 20
49.918
 30
0
 70
     0
  0
SEQEND
  0
POLYLINE
  8
MACK_MR
  6
CONTINUOUS
 62
     7
 66
     1
 40
0.0139
 41
0.0139
  0
VERTEX
  8
MACK_MR
 10
2.2646
 20
15.1427
 30
0
 70
     0
  0
VERTEX
  8
MACK_MR
 10
2.2646
 20
17.2507
 30
0
 70
     0
  0
SEQEND
  0
POLYLINE
  8
MACK_MR
  6
CONTINUOUS
 62
     7
 66
     1
 40
0.0139
 41
0.0139
  0
VERTEX
  8
MACK_MR
 10
2.2646
 20
17.2507
 30
0
 70
     0
  0
VERTEX
  8
MACK_MR
 10
2.2646
 20
18.3588
 30
0
 70
     0
  0
SEQEND
  0
POLYLINE
  8
MACK_MR
  6
CONTINUOUS
 62
     7
 66
     1
 40
0.0139
 41
0.0139
  0
VERTEX
  8
MACK_MR
 10
2.2646
 20
46.7019
 30
0
 70
     0
  0
VERTEX
  8
MACK_MR
 10
2.2646
 20
47.8099
 30
0
 70
     0
  0
SEQEND
  0
POLYLINE
  8
MACK_MR
  6
CONTINUOUS
 62
     7
 66
     1
 40
0.0139
 41
0.0139
  0
VERTEX
  8
MACK_MR
 10
2.2646
 20
18.3588
 30
0
 70
     0
  0
VERTEX
  8
MACK_MR
 10
2.2646
 20
46.7019
 30
0
 70
     0
  0
SEQEND
  0
POLYLINE
  8
MACK_MR
  6
CONTINUOUS
 62
     7
 66
     1
 40
0.0139
 41
0.0139
  0
VERTEX
  8
MACK_MR
 10
49.2073
 20
-14.2248
 30
0
 70
     0
  0
VERTEX
  8
MACK_MR
 10
54.2073
 20
-14.2248
 30
0
 70
     0
  0
SEQEND
  0
POLYLINE
  8
MACK_MR
  6
CONTINUOUS
 62
     7
 66
     1
 40
0.0139
 41
0.0139
  0
VERTEX
  8
MACK_MR
 10
2.0146
 20
50.5303
 30
0
 70
     0
  0
VERTEX
  8
MACK_MR
 10
2.1166
 20
50.4202
 30
0
 70
     0
  0
VERTEX
  8
MACK_MR
 10
2.1976
 20
50.2715
 30
0
 70
     0
  0
VERTEX
  8
MACK_MR
 10
2.2482
 20
50.0979
 30
0
 70
     0
  0
VERTEX
  8
MACK_MR
 10
2.2646
 20
49.918
 30
0
 70
     0
  0
SEQEND
  0
POLYLINE
  8
MACK_MR
  6
CONTINUOUS
 62
     7
 66
     1
 40
0.0139
 41
0.0139
  0
VERTEX
  8
MACK_MR
 10
2.2646
 20
15.1427
 30
0
 70
     0
  0
VERTEX
  8
MACK_MR
 10
2.2482
 20
14.9628
 30
0
 70
     0
  0
VERTEX
  8
MACK_MR
 10
2.1976
 20
14.7892
 30
0
 70
     0
  0
VERTEX
  8
MACK_MR
 10
2.1166
 20
14.6404
 30
0
 70
     0
  0
VERTEX
  8
MACK_MR
 10
2.0146
 20
14.5303
 30
0
 70
     0
  0
SEQEND
  0
POLYLINE
  8
MACK_MR
  6
CONTINUOUS
 62
     7
 66
     1
 40
0.0139
 41
0.0139
  0
VERTEX
  8
MACK_MR
 10
-7.4854
 20
13.9752
 30
0
 70
     0
  0
VERTEX
  8
MACK_MR
 10
-7.488
 20
14.1803
 30
0
 70
     0
  0
VERTEX
  8
MACK_MR
 10
-7.4959
 20
14.3843
 30
0
 70
     0
  0
VERTEX
  8
MACK_MR
 10
-7.5089
 20
14.5869
 30
0
 70
     0
  0
VERTEX
  8
MACK_MR
 10
-7.527
 20
14.7883
 30
0
 70
     0
  0
VERTEX
  8
MACK_MR
 10
-7.5783
 20
15.1867
 30
0
 70
     0
  0
VERTEX
  8
MACK_MR
 10
-7.6491
 20
15.579
 30
0
 70
     0
  0
VERTEX
  8
MACK_MR
 10
-7.7391
 20
15.9646
 30
0
 70
     0
  0
VERTEX
  8
MACK_MR
 10
-7.8476
 20
16.3432
 30
0
 70
     0
  0
VERTEX
  8
MACK_MR
 10
-7.9741
 20
16.714
 30
0
 70
     0
  0
VERTEX
  8
MACK_MR
 10
-8.1182
 20
17.0767
 30
0
 70
     0
  0
VERTEX
  8
MACK_MR
 10
-8.2793
 20
17.4306
 30
0
 70
     0
  0
VERTEX
  8
MACK_MR
 10
-8.4569
 20
17.7753
 30
0
 70
     0
  0
VERTEX
  8
MACK_MR
 10
-8.6504
 20
18.1103
 30
0
 70
     0
  0
VERTEX
  8
MACK_MR
 10
-8.8594
 20
18.4351
 30
0
 70
     0
  0
VERTEX
  8
MACK_MR
 10
-9.0834
 20
18.749
 30
0
 70
     0
  0
VERTEX
  8
MACK_MR
 10
-9.3217
 20
19.0516
 30
0
 70
     0
  0
VERTEX
  8
MACK_MR
 10
-9.574
 20
19.3425
 30
0
 70
     0
  0
VERTEX
  8
MACK_MR
 10
-9.8396
 20
19.6209
 30
0
 70
     0
  0
VERTEX
  8
MACK_MR
 10
-10.1181
 20
19.8866
 30
0
 70
     0
  0
VERTEX
  8
MACK_MR
 10
-10.4089
 20
20.1388
 30
0
 70
     0
  0
VERTEX
  8
MACK_MR
 10
-10.7116
 20
20.3772
 30
0
 70
     0
  0
VERTEX
  8
MACK_MR
 10
-11.0255
 20
20.6011
 30
0
 70
     0
  0
VERTEX
  8
MACK_MR
 10
-11.3502
 20
20.8101
 30
0
 70
     0
  0
VERTEX
  8
MACK_MR
 10
-11.6852
 20
21.0037
 30
0
 70
     0
  0
VERTEX
  8
MACK_MR
 10
-12.0299
 20
21.1813
 30
0
 70
     0
  0
VERTEX
  8
MACK_MR
 10
-12.3839
 20
21.3423
 30
0
 70
     0
  0
VERTEX
  8
MACK_MR
 10
-12.7466
 20
21.4864
 30
0
 70
     0
  0
VERTEX
  8
MACK_MR
 10
-13.1174
 20
21.613
 30
0
 70
     0
  0
VERTEX
  8
MACK_MR
 10
-13.4959
 20
21.7215
 30
0
 70
     0
  0
VERTEX
  8
MACK_MR
 10
-13.8816
 20
21.8114
 30
0
 70
     0
  0
VERTEX
  8
MACK_MR
 10
-14.2739
 20
21.8823
 30
0
 70
     0
  0
VERTEX
  8
MACK_MR
 10
-14.6723
 20
21.9336
 30
0
 70
     0
  0
VERTEX
  8
MACK_MR
 10
-14.8736
 20
21.9517
 30
0
 70
     0
  0
VERTEX
  8
MACK_MR
 10
-15.0763
 20
21.9647
 30
0
 70
     0
  0
VERTEX
  8
MACK_MR
 10
-15.2802
 20
21.9726
 30
0
 70
     0
  0
VERTEX
  8
MACK_MR
 10
-15.4854
 20
21.9752
 30
0
 70
     0
  0
VERTEX
  8
MACK_MR
 10
-15.4854
 20
21.9752
 30
0
 70
     0
  0
VERTEX
  8
MACK_MR
 10
-15.6905
 20
21.9726
 30
0
 70
     0
  0
VERTEX
  8
MACK_MR
 10
-15.8944
 20
21.9647
 30
0
 70
     0
  0
VERTEX
  8
MACK_MR
 10
-16.0971
 20
21.9517
 30
0
 70
     0
  0
VERTEX
  8
MACK_MR
 10
-16.2984
 20
21.9336
 30
0
 70
     0
  0
VERTEX
  8
MACK_MR
 10
-16.6968
 20
21.8823
 30
0
 70
     0
  0
VERTEX
  8
MACK_MR
 10
-17.0891
 20
21.8114
 30
0
 70
     0
  0
VERTEX
  8
MACK_MR
 10
-17.4748
 20
21.7215
 30
0
 70
     0
  0
VERTEX
  8
MACK_MR
 10
-17.8533
 20
21.613
 30
0
 70
     0
  0
VERTEX
  8
MACK_MR
 10
-18.2242
 20
21.4864
 30
0
 70
     0
  0
VERTEX
  8
MACK_MR
 10
-18.5868
 20
21.3423
 30
0
 70
     0
  0
VERTEX
  8
MACK_MR
 10
-18.9408
 20
21.1813
 30
0
 70
     0
  0
VERTEX
  8
MACK_MR
 10
-19.2855
 20
21.0037
 30
0
 70
     0
  0
VERTEX
  8
MACK_MR
 10
-19.6205
 20
20.8101
 30
0
 70
     0
  0
VERTEX
  8
MACK_MR
 10
-19.9452
 20
20.6011
 30
0
 70
     0
  0
VERTEX
  8
MACK_MR
 10
-20.2592
 20
20.3772
 30
0
 70
     0
  0
VERTEX
  8
MACK_MR
 10
-20.5618
 20
20.1388
 30
0
 70
     0
  0
VERTEX
  8
MACK_MR
 10
-20.8526
 20
19.8866
 30
0
 70
     0
  0
VERTEX
  8
MACK_MR
 10
-21.1311
 20
19.6209
 30
0
 70
     0
  0
VERTEX
  8
MACK_MR
 10
-21.3967
 20
19.3425
 30
0
 70
     0
  0
VERTEX
  8
MACK_MR
 10
-21.649
 20
19.0516
 30
0
 70
     0
  0
VERTEX
  8
MACK_MR
 10
-21.8873
 20
18.749
 30
0
 70
     0
  0
VERTEX
  8
MACK_MR
 10
-22.1113
 20
18.4351
 30
0
 70
     0
  0
VERTEX
  8
MACK_MR
 10
-22.3203
 20
18.1103
 30
0
 70
     0
  0
VERTEX
  8
MACK_MR
 10
-22.5138
 20
17.7753
 30
0
 70
     0
  0
VERTEX
  8
MACK_MR
 10
-22.6914
 20
17.4306
 30
0
 70
     0
  0
VERTEX
  8
MACK_MR
 10
-22.8525
 20
17.0767
 30
0
 70
     0
  0
VERTEX
  8
MACK_MR
 10
-22.9966
 20
16.714
 30
0
 70
     0
  0
VERTEX
  8
MACK_MR
 10
-23.1232
 20
16.3432
 30
0
 70
     0
  0
VERTEX
  8
MACK_MR
 10
-23.2317
 20
15.9646
 30
0
 70
     0
  0
VERTEX
  8
MACK_MR
 10
-23.3216
 20
15.579
 30
0
 70
     0
  0
VERTEX
  8
MACK_MR
 10
-23.3925
 20
15.1867
 30
0
 70
     0
  0
VERTEX
  8
MACK_MR
 10
-23.4437
 20
14.7883
 30
0
 70
     0
  0
VERTEX
  8
MACK_MR
 10
-23.4619
 20
14.5869
 30
0
 70
     0
  0
VERTEX
  8
MACK_MR
 10
-23.4749
 20
14.3843
 30
0
 70
     0
  0
VERTEX
  8
MACK_MR
 10
-23.4827
 20
14.1803
 30
0
 70
     0
  0
VERTEX
  8
MACK_MR
 10
-23.4854
 20
13.9752
 30
0
 70
     0
  0
VERTEX
  8
MACK_MR
 10
-23.4854
 20
13.9752
 30
0
 70
     0
  0
VERTEX
  8
MACK_MR
 10
-23.4827
 20
13.7701
 30
0
 70
     0
  0
VERTEX
  8
MACK_MR
 10
-23.4749
 20
13.5661
 30
0
 70
     0
  0
VERTEX
  8
MACK_MR
 10
-23.4619
 20
13.3634
 30
0
 70
     0
  0
VERTEX
  8
MACK_MR
 10
-23.4437
 20
13.1621
 30
0
 70
     0
  0
VERTEX
  8
MACK_MR
 10
-23.3925
 20
12.7637
 30
0
 70
     0
  0
VERTEX
  8
MACK_MR
 10
-23.3216
 20
12.3714
 30
0
 70
     0
  0
VERTEX
  8
MACK_MR
 10
-23.2317
 20
11.9857
 30
0
 70
     0
  0
VERTEX
  8
MACK_MR
 10
-23.1232
 20
11.6072
 30
0
 70
     0
  0
VERTEX
  8
MACK_MR
 10
-22.9966
 20
11.2364
 30
0
 70
     0
  0
VERTEX
  8
MACK_MR
 10
-22.8525
 20
10.8737
 30
0
 70
     0
  0
VERTEX
  8
MACK_MR
 10
-22.6914
 20
10.5198
 30
0
 70
     0
  0
VERTEX
  8
MACK_MR
 10
-22.5138
 20
10.175
 30
0
 70
     0
  0
VERTEX
  8
MACK_MR
 10
-22.3203
 20
9.84
 30
0
 70
     0
  0
VERTEX
  8
MACK_MR
 10
-22.1113
 20
9.5153
 30
0
 70
     0
  0
VERTEX
  8
MACK_MR
 10
-21.8873
 20
9.2014
 30
0
 70
     0
  0
VERTEX
  8
MACK_MR
 10
-21.649
 20
8.8987
 30
0
 70
     0
  0
VERTEX
  8
MACK_MR
 10
-21.3967
 20
8.6079
 30
0
 70
     0
  0
VERTEX
  8
MACK_MR
 10
-21.1311
 20
8.3294
 30
0
 70
     0
  0
VERTEX
  8
MACK_MR
 10
-20.8526
 20
8.0638
 30
0
 70
     0
  0
VERTEX
  8
MACK_MR
 10
-20.5618
 20
7.8116
 30
0
 70
     0
  0
VERTEX
  8
MACK_MR
 10
-20.2592
 20
7.5732
 30
0
 70
     0
  0
VERTEX
  8
MACK_MR
 10
-19.9452
 20
7.3493
 30
0
 70
     0
  0
VERTEX
  8
MACK_MR
 10
-19.6205
 20
7.1403
 30
0
 70
     0
  0
VERTEX
  8
MACK_MR
 10
-19.2855
 20
6.9467
 30
0
 70
     0
  0
VERTEX
  8
MACK_MR
 10
-18.9408
 20
6.7691
 30
0
 70
     0
  0
VERTEX
  8
MACK_MR
 10
-18.5868
 20
6.608
 30
0
 70
     0
  0
VERTEX
  8
MACK_MR
 10
-18.2242
 20
6.4639
 30
0
 70
     0
  0
VERTEX
  8
MACK_MR
 10
-17.8533
 20
6.3374
 30
0
 70
     0
  0
VERTEX
  8
MACK_MR
 10
-17.4748
 20
6.2289
 30
0
 70
     0
  0
VERTEX
  8
MACK_MR
 10
-17.0891
 20
6.1389
 30
0
 70
     0
  0
VERTEX
  8
MACK_MR
 10
-16.6968
 20
6.0681
 30
0
 70
     0
  0
VERTEX
  8
MACK_MR
 10
-16.2984
 20
6.0168
 30
0
 70
     0
  0
VERTEX
  8
MACK_MR
 10
-16.0971
 20
5.9987
 30
0
 70
     0
  0
VERTEX
  8
MACK_MR
 10
-15.8944
 20
5.9857
 30
0
 70
     0
  0
VERTEX
  8
MACK_MR
 10
-15.6905
 20
5.9778
 30
0
 70
     0
  0
VERTEX
  8
MACK_MR
 10
-15.4854
 20
5.9752
 30
0
 70
     0
  0
VERTEX
  8
MACK_MR
 10
-15.4854
 20
5.9752
 30
0
 70
     0
  0
VERTEX
  8
MACK_MR
 10
-15.2802
 20
5.9778
 30
0
 70
     0
  0
VERTEX
  8
MACK_MR
 10
-15.0763
 20
5.9857
 30
0
 70
     0
  0
VERTEX
  8
MACK_MR
 10
-14.8736
 20
5.9987
 30
0
 70
     0
  0
VERTEX
  8
MACK_MR
 10
-14.6723
 20
6.0168
 30
0
 70
     0
  0
VERTEX
  8
MACK_MR
 10
-14.2739
 20
6.0681
 30
0
 70
     0
  0
VERTEX
  8
MACK_MR
 10
-13.8816
 20
6.1389
 30
0
 70
     0
  0
VERTEX
  8
MACK_MR
 10
-13.4959
 20
6.2289
 30
0
 70
     0
  0
VERTEX
  8
MACK_MR
 10
-13.1174
 20
6.3374
 30
0
 70
     0
  0
VERTEX
  8
MACK_MR
 10
-12.7466
 20
6.4639
 30
0
 70
     0
  0
VERTEX
  8
MACK_MR
 10
-12.3839
 20
6.608
 30
0
 70
     0
  0
VERTEX
  8
MACK_MR
 10
-12.0299
 20
6.7691
 30
0
 70
     0
  0
VERTEX
  8
MACK_MR
 10
-11.6852
 20
6.9467
 30
0
 70
     0
  0
VERTEX
  8
MACK_MR
 10
-11.3502
 20
7.1403
 30
0
 70
     0
  0
VERTEX
  8
MACK_MR
 10
-11.0255
 20
7.3493
 30
0
 70
     0
  0
VERTEX
  8
MACK_MR
 10
-10.7116
 20
7.5732
 30
0
 70
     0
  0
VERTEX
  8
MACK_MR
 10
-10.4089
 20
7.8116
 30
0
 70
     0
  0
VERTEX
  8
MACK_MR
 10
-10.1181
 20
8.0638
 30
0
 70
     0
  0
VERTEX
  8
MACK_MR
 10
-9.8396
 20
8.3294
 30
0
 70
     0
  0
VERTEX
  8
MACK_MR
 10
-9.574
 20
8.6079
 30
0
 70
     0
  0
VERTEX
  8
MACK_MR
 10
-9.3217
 20
8.8987
 30
0
 70
     0
  0
VERTEX
  8
MACK_MR
 10
-9.0834
 20
9.2014
 30
0
 70
     0
  0
VERTEX
  8
MACK_MR
 10
-8.8594
 20
9.5153
 30
0
 70
     0
  0
VERTEX
  8
MACK_MR
 10
-8.6504
 20
9.84
 30
0
 70
     0
  0
VERTEX
  8
MACK_MR
 10
-8.4569
 20
10.175
 30
0
 70
     0
  0
VERTEX
  8
MACK_MR
 10
-8.2793
 20
10.5198
 30
0
 70
     0
  0
VERTEX
  8
MACK_MR
 10
-8.1182
 20
10.8737
 30
0
 70
     0
  0
VERTEX
  8
MACK_MR
 10
-7.9741
 20
11.2364
 30
0
 70
     0
  0
VERTEX
  8
MACK_MR
 10
-7.8476
 20
11.6072
 30
0
 70
     0
  0
VERTEX
  8
MACK_MR
 10
-7.7391
 20
11.9857
 30
0
 70
     0
  0
VERTEX
  8
MACK_MR
 10
-7.6491
 20
12.3714
 30
0
 70
     0
  0
VERTEX
  8
MACK_MR
 10
-7.5783
 20
12.7637
 30
0
 70
     0
  0
VERTEX
  8
MACK_MR
 10
-7.527
 20
13.1621
 30
0
 70
     0
  0
VERTEX
  8
MACK_MR
 10
-7.5089
 20
13.3634
 30
0
 70
     0
  0
VERTEX
  8
MACK_MR
 10
-7.4959
 20
13.5661
 30
0
 70
     0
  0
VERTEX
  8
MACK_MR
 10
-7.488
 20
13.7701
 30
0
 70
     0
  0
VERTEX
  8
MACK_MR
 10
-7.4854
 20
13.9752
 30
0
 70
     0
  0
SEQEND
  0
POLYLINE
  8
MACK_MR
  6
CONTINUOUS
 62
     7
 66
     1
 40
0.0139
 41
0.0139
  0
VERTEX
  8
MACK_MR
 10
-23.4854
 20
0.7252
 30
0
 70
     0
  0
VERTEX
  8
MACK_MR
 10
-23.4854
 20
-0.0248
 30
0
 70
     0
  0
SEQEND
  0
POLYLINE
  8
MACK_MR
  6
CONTINUOUS
 62
     7
 66
     1
 40
0.0139
 41
0.0139
  0
VERTEX
  8
MACK_MR
 10
-23.4854
 20
3.7252
 30
0
 70
     0
  0
VERTEX
  8
MACK_MR
 10
-23.4854
 20
0.7252
 30
0
 70
     0
  0
SEQEND
  0
POLYLINE
  8
MACK_MR
  6
CONTINUOUS
 62
     7
 66
     1
 40
0.0139
 41
0.0139
  0
VERTEX
  8
MACK_MR
 10
36.0146
 20
53.7023
 30
0
 70
     0
  0
VERTEX
  8
MACK_MR
 10
36.0146
 20
53.6224
 30
0
 70
     0
  0
SEQEND
  0
POLYLINE
  8
MACK_MR
  6
CONTINUOUS
 62
     7
 66
     1
 40
0.0139
 41
0.0139
  0
VERTEX
  8
MACK_MR
 10
37.0146
 20
53.6224
 30
0
 70
     0
  0
VERTEX
  8
MACK_MR
 10
37.0146
 20
53.7023
 30
0
 70
     0
  0
SEQEND
  0
POLYLINE
  8
MACK_MR
  6
CONTINUOUS
 62
     7
 66
     1
 40
0.0139
 41
0.0139
  0
VERTEX
  8
MACK_MR
 10
36.0146
 20
33.3692
 30
0
 70
     0
  0
VERTEX
  8
MACK_MR
 10
36.0146
 20
33.0806
 30
0
 70
     0
  0
SEQEND
  0
POLYLINE
  8
MACK_MR
  6
CONTINUOUS
 62
     7
 66
     1
 40
0.0139
 41
0.0139
  0
VERTEX
  8
MACK_MR
 10
36.0146
 20
53.6224
 30
0
 70
     0
  0
VERTEX
  8
MACK_MR
 10
36.0146
 20
52.7061
 30
0
 70
     0
  0
SEQEND
  0
POLYLINE
  8
MACK_MR
  6
CONTINUOUS
 62
     7
 66
     1
 40
0.0139
 41
0.0139
  0
VERTEX
  8
MACK_MR
 10
36.0146
 20
54.6285
 30
0
 70
     0
  0
VERTEX
  8
MACK_MR
 10
36.023
 20
54.7199
 30
0
 70
     0
  0
VERTEX
  8
MACK_MR
 10
36.0497
 20
54.8133
 30
0
 70
     0
  0
VERTEX
  8
MACK_MR
 10
36.0961
 20
54.9032
 30
0
 70
     0
  0
VERTEX
  8
MACK_MR
 10
36.1611
 20
54.9834
 30
0
 70
     0
  0
VERTEX
  8
MACK_MR
 10
36.241
 20
55.0486
 30
0
 70
     0
  0
VERTEX
  8
MACK_MR
 10
36.3306
 20
55.0952
 30
0
 70
     0
  0
VERTEX
  8
MACK_MR
 10
36.4237
 20
55.1221
 30
0
 70
     0
  0
VERTEX
  8
MACK_MR
 10
36.5146
 20
55.1304
 30
0
 70
     0
  0
VERTEX
  8
MACK_MR
 10
36.6056
 20
55.1221
 30
0
 70
     0
  0
VERTEX
  8
MACK_MR
 10
36.6987
 20
55.0952
 30
0
 70
     0
  0
VERTEX
  8
MACK_MR
 10
36.7882
 20
55.0486
 30
0
 70
     0
  0
VERTEX
  8
MACK_MR
 10
36.8682
 20
54.9834
 30
0
 70
     0
  0
VERTEX
  8
MACK_MR
 10
36.9331
 20
54.9032
 30
0
 70
     0
  0
VERTEX
  8
MACK_MR
 10
36.9795
 20
54.8133
 30
0
 70
     0
  0
VERTEX
  8
MACK_MR
 10
37.0063
 20
54.7199
 30
0
 70
     0
  0
VERTEX
  8
MACK_MR
 10
37.0146
 20
54.6285
 30
0
 70
     0
  0
SEQEND
  0
POLYLINE
  8
MACK_MR
  6
CONTINUOUS
 62
     7
 66
     1
 40
0.0139
 41
0.0139
  0
VERTEX
  8
MACK_MR
 10
37.0146
 20
26.7297
 30
0
 70
     0
  0
VERTEX
  8
MACK_MR
 10
37.0146
 20
33.0806
 30
0
 70
     0
  0
SEQEND
  0
POLYLINE
  8
MACK_MR
  6
CONTINUOUS
 62
     7
 66
     1
 40
0.0139
 41
0.0139
  0
VERTEX
  8
MACK_MR
 10
36.5146
 20
26.1524
 30
0
 70
     0
  0
VERTEX
  8
MACK_MR
 10
36.4237
 20
26.162
 30
0
 70
     0
  0
VERTEX
  8
MACK_MR
 10
36.3306
 20
26.1929
 30
0
 70
     0
  0
VERTEX
  8
MACK_MR
 10
36.241
 20
26.2465
 30
0
 70
     0
  0
VERTEX
  8
MACK_MR
 10
36.1611
 20
26.3215
 30
0
 70
     0
  0
VERTEX
  8
MACK_MR
 10
36.0961
 20
26.4138
 30
0
 70
     0
  0
VERTEX
  8
MACK_MR
 10
36.0497
 20
26.5172
 30
0
 70
     0
  0
VERTEX
  8
MACK_MR
 10
36.023
 20
26.6247
 30
0
 70
     0
  0
VERTEX
  8
MACK_MR
 10
36.0146
 20
26.7297
 30
0
 70
     0
  0
SEQEND
  0
POLYLINE
  8
MACK_MR
  6
CONTINUOUS
 62
     7
 66
     1
 40
0.0139
 41
0.0139
  0
VERTEX
  8
MACK_MR
 10
37.0146
 20
26.7297
 30
0
 70
     0
  0
VERTEX
  8
MACK_MR
 10
37.0063
 20
26.6247
 30
0
 70
     0
  0
VERTEX
  8
MACK_MR
 10
36.9795
 20
26.5172
 30
0
 70
     0
  0
VERTEX
  8
MACK_MR
 10
36.9331
 20
26.4138
 30
0
 70
     0
  0
VERTEX
  8
MACK_MR
 10
36.8682
 20
26.3215
 30
0
 70
     0
  0
VERTEX
  8
MACK_MR
 10
36.7882
 20
26.2465
 30
0
 70
     0
  0
VERTEX
  8
MACK_MR
 10
36.6987
 20
26.1929
 30
0
 70
     0
  0
VERTEX
  8
MACK_MR
 10
36.6056
 20
26.162
 30
0
 70
     0
  0
VERTEX
  8
MACK_MR
 10
36.5146
 20
26.1524
 30
0
 70
     0
  0
SEQEND
  0
POLYLINE
  8
MACK_MR
  6
CONTINUOUS
 62
     7
 66
     1
 40
0.0139
 41
0.0139
  0
VERTEX
  8
MACK_MR
 10
37.0146
 20
33.3692
 30
0
 70
     0
  0
VERTEX
  8
MACK_MR
 10
37.0146
 20
33.9466
 30
0
 70
     0
  0
SEQEND
  0
POLYLINE
  8
MACK_MR
  6
CONTINUOUS
 62
     7
 66
     1
 40
0.0139
 41
0.0139
  0
VERTEX
  8
MACK_MR
 10
30.9573
 20
-20.2248
 30
0
 70
     0
  0
VERTEX
  8
MACK_MR
 10
52.4573
 20
-20.2248
 30
0
 70
     0
  0
SEQEND
  0
POLYLINE
  8
MACK_MR
  6
CONTINUOUS
 62
     7
 66
     1
 40
0.0139
 41
0.0139
  0
VERTEX
  8
MACK_MR
 10
30.9573
 20
-24.1826
 30
0
 70
     0
  0
VERTEX
  8
MACK_MR
 10
30.9573
 20
-20.2248
 30
0
 70
     0
  0
SEQEND
  0
POLYLINE
  8
MACK_MR
  6
CONTINUOUS
 62
     7
 66
     1
 40
0.0139
 41
0.0139
  0
VERTEX
  8
MACK_MR
 10
34.5414
 20
-28.2248
 30
0
 70
     0
  0
VERTEX
  8
MACK_MR
 10
30.9573
 20
-24.1826
 30
0
 70
     0
  0
SEQEND
  0
POLYLINE
  8
MACK_MR
  6
CONTINUOUS
 62
     7
 66
     1
 40
0.0139
 41
0.0139
  0
VERTEX
  8
MACK_MR
 10
48.8731
 20
-28.2248
 30
0
 70
     0
  0
VERTEX
  8
MACK_MR
 10
34.5414
 20
-28.2248
 30
0
 70
     0
  0
SEQEND
  0
POLYLINE
  8
MACK_MR
  6
CONTINUOUS
 62
     7
 66
     1
 40
0.0139
 41
0.0139
  0
VERTEX
  8
MACK_MR
 10
52.4573
 20
-24.1826
 30
0
 70
     0
  0
VERTEX
  8
MACK_MR
 10
48.8731
 20
-28.2248
 30
0
 70
     0
  0
SEQEND
  0
POLYLINE
  8
MACK_MR
  6
CONTINUOUS
 62
     7
 66
     1
 40
0.0139
 41
0.0139
  0
VERTEX
  8
MACK_MR
 10
52.4573
 20
-20.2248
 30
0
 70
     0
  0
VERTEX
  8
MACK_MR
 10
52.4573
 20
-24.1826
 30
0
 70
     0
  0
SEQEND
  0
POLYLINE
  8
MACK_MR
  6
CONTINUOUS
 62
     7
 66
     1
 40
0.0139
 41
0.0139
  0
VERTEX
  8
MACK_MR
 10
49.2073
 20
-29.2248
 30
0
 70
     0
  0
VERTEX
  8
MACK_MR
 10
34.2073
 20
-29.2248
 30
0
 70
     0
  0
SEQEND
  0
POLYLINE
  8
MACK_MR
  6
CONTINUOUS
 62
     7
 66
     1
 40
0.0139
 41
0.0139
  0
VERTEX
  8
MACK_MR
 10
34.2073
 20
-29.2248
 30
0
 70
     0
  0
VERTEX
  8
MACK_MR
 10
34.2073
 20
-28.2248
 30
0
 70
     0
  0
SEQEND
  0
POLYLINE
  8
MACK_MR
  6
CONTINUOUS
 62
     7
 66
     1
 40
0.0139
 41
0.0139
  0
VERTEX
  8
MACK_MR
 10
34.2073
 20
-28.2248
 30
0
 70
     0
  0
VERTEX
  8
MACK_MR
 10
30.7073
 20
-24.2775
 30
0
 70
     0
  0
SEQEND
  0
POLYLINE
  8
MACK_MR
  6
CONTINUOUS
 62
     7
 66
     1
 40
0.0139
 41
0.0139
  0
VERTEX
  8
MACK_MR
 10
30.7073
 20
-24.2775
 30
0
 70
     0
  0
VERTEX
  8
MACK_MR
 10
30.7073
 20
-19.2248
 30
0
 70
     0
  0
SEQEND
  0
POLYLINE
  8
MACK_MR
  6
CONTINUOUS
 62
     7
 66
     1
 40
0.0139
 41
0.0139
  0
VERTEX
  8
MACK_MR
 10
52.7073
 20
-24.2775
 30
0
 70
     0
  0
VERTEX
  8
MACK_MR
 10
49.2073
 20
-28.2248
 30
0
 70
     0
  0
SEQEND
  0
POLYLINE
  8
MACK_MR
  6
CONTINUOUS
 62
     7
 66
     1
 40
0.0139
 41
0.0139
  0
VERTEX
  8
MACK_MR
 10
49.2073
 20
-28.2248
 30
0
 70
     0
  0
VERTEX
  8
MACK_MR
 10
49.2073
 20
-29.2248
 30
0
 70
     0
  0
SEQEND
  0
POLYLINE
  8
MACK_MR
  6
CONTINUOUS
 62
     7
 66
     1
 40
0.0139
 41
0.0139
  0
VERTEX
  8
MACK_MR
 10
30.7073
 20
-19.2248
 30
0
 70
     0
  0
VERTEX
  8
MACK_MR
 10
52.7073
 20
-19.2248
 30
0
 70
     0
  0
SEQEND
  0
POLYLINE
  8
MACK_MR
  6
CONTINUOUS
 62
     7
 66
     1
 40
0.0139
 41
0.0139
  0
VERTEX
  8
MACK_MR
 10
52.7073
 20
-19.2248
 30
0
 70
     0
  0
VERTEX
  8
MACK_MR
 10
52.7073
 20
-24.2775
 30
0
 70
     0
  0
SEQEND
  0
POLYLINE
  8
MACK_MR
  6
CONTINUOUS
 62
     7
 66
     1
 40
0.0139
 41
0.0139
  0
VERTEX
  8
MACK_MR
 10
30.2073
 20
-24.2248
 30
0
 70
     0
  0
VERTEX
  8
MACK_MR
 10
30.0793
 20
-23.956
 30
0
 70
     0
  0
SEQEND
  0
POLYLINE
  8
MACK_MR
  6
CONTINUOUS
 62
     7
 66
     1
 40
0.0139
 41
0.0139
  0
VERTEX
  8
MACK_MR
 10
54.2073
 20
-24.2248
 30
0
 70
     0
  0
VERTEX
  8
MACK_MR
 10
52.7073
 20
-24.2248
 30
0
 70
     0
  0
SEQEND
  0
POLYLINE
  8
MACK_MR
  6
CONTINUOUS
 62
     7
 66
     1
 40
0.0139
 41
0.0139
  0
VERTEX
  8
MACK_MR
 10
25.4475
 20
-14.2248
 30
0
 70
     0
  0
VERTEX
  8
MACK_MR
 10
49.2073
 20
-14.2248
 30
0
 70
     0
  0
SEQEND
  0
POLYLINE
  8
MACK_MR
  6
CONTINUOUS
 62
     7
 66
     1
 40
0.0139
 41
0.0139
  0
VERTEX
  8
MACK_MR
 10
54.2073
 20
-14.2248
 30
0
 70
     0
  0
VERTEX
  8
MACK_MR
 10
54.2073
 20
-24.2248
 30
0
 70
     0
  0
SEQEND
  0
POLYLINE
  8
MACK_MR
  6
CONTINUOUS
 62
     7
 66
     1
 40
0.0139
 41
0.0139
  0
VERTEX
  8
MACK_MR
 10
43.5705
 20
-8.2085
 30
0
 70
     0
  0
VERTEX
  8
MACK_MR
 10
39.5705
 20
-8.2085
 30
0
 70
     0
  0
SEQEND
  0
POLYLINE
  8
MACK_MR
  6
CONTINUOUS
 62
     7
 66
     1
 40
0.0139
 41
0.0139
  0
VERTEX
  8
MACK_MR
 10
38.5705
 20
2.7912
 30
0
 70
     0
  0
VERTEX
  8
MACK_MR
 10
38.5756
 20
2.8934
 30
0
 70
     0
  0
VERTEX
  8
MACK_MR
 10
38.5907
 20
2.9927
 30
0
 70
     0
  0
VERTEX
  8
MACK_MR
 10
38.6152
 20
3.0886
 30
0
 70
     0
  0
VERTEX
  8
MACK_MR
 10
38.6488
 20
3.1805
 30
0
 70
     0
  0
VERTEX
  8
MACK_MR
 10
38.6909
 20
3.268
 30
0
 70
     0
  0
VERTEX
  8
MACK_MR
 10
38.741
 20
3.3505
 30
0
 70
     0
  0
VERTEX
  8
MACK_MR
 10
38.7985
 20
3.4275
 30
0
 70
     0
  0
VERTEX
  8
MACK_MR
 10
38.8631
 20
3.4986
 30
0
 70
     0
  0
VERTEX
  8
MACK_MR
 10
38.9341
 20
3.5632
 30
0
 70
     0
  0
VERTEX
  8
MACK_MR
 10
39.0111
 20
3.6208
 30
0
 70
     0
  0
VERTEX
  8
MACK_MR
 10
39.0936
 20
3.6709
 30
0
 70
     0
  0
VERTEX
  8
MACK_MR
 10
39.181
 20
3.713
 30
0
 70
     0
  0
VERTEX
  8
MACK_MR
 10
39.2729
 20
3.7467
 30
0
 70
     0
  0
VERTEX
  8
MACK_MR
 10
39.3688
 20
3.7713
 30
0
 70
     0
  0
VERTEX
  8
MACK_MR
 10
39.4681
 20
3.7864
 30
0
 70
     0
  0
VERTEX
  8
MACK_MR
 10
39.5703
 20
3.7915
 30
0
 70
     0
  0
SEQEND
  0
POLYLINE
  8
MACK_MR
  6
CONTINUOUS
 62
     7
 66
     1
 40
0.0139
 41
0.0139
  0
VERTEX
  8
MACK_MR
 10
39.5705
 20
3.7915
 30
0
 70
     0
  0
VERTEX
  8
MACK_MR
 10
43.5705
 20
3.7915
 30
0
 70
     0
  0
SEQEND
  0
POLYLINE
  8
MACK_MR
  6
CONTINUOUS
 62
     7
 66
     1
 40
0.0139
 41
0.0139
  0
VERTEX
  8
MACK_MR
 10
43.5705
 20
3.7915
 30
0
 70
     0
  0
VERTEX
  8
MACK_MR
 10
43.6728
 20
3.7864
 30
0
 70
     0
  0
VERTEX
  8
MACK_MR
 10
43.7721
 20
3.7713
 30
0
 70
     0
  0
VERTEX
  8
MACK_MR
 10
43.8679
 20
3.7467
 30
0
 70
     0
  0
VERTEX
  8
MACK_MR
 10
43.9598
 20
3.7132
 30
0
 70
     0
  0
VERTEX
  8
MACK_MR
 10
44.0472
 20
3.6711
 30
0
 70
     0
  0
VERTEX
  8
MACK_MR
 10
44.1297
 20
3.621
 30
0
 70
     0
  0
VERTEX
  8
MACK_MR
 10
44.2067
 20
3.5634
 30
0
 70
     0
  0
VERTEX
  8
MACK_MR
 10
44.2777
 20
3.4989
 30
0
 70
     0
  0
VERTEX
  8
MACK_MR
 10
44.3423
 20
3.4278
 30
0
 70
     0
  0
VERTEX
  8
MACK_MR
 10
44.3999
 20
3.3509
 30
0
 70
     0
  0
VERTEX
  8
MACK_MR
 10
44.45
 20
3.2684
 30
0
 70
     0
  0
VERTEX
  8
MACK_MR
 10
44.4921
 20
3.181
 30
0
 70
     0
  0
VERTEX
  8
MACK_MR
 10
44.5257
 20
3.0891
 30
0
 70
     0
  0
VERTEX
  8
MACK_MR
 10
44.5503
 20
2.9932
 30
0
 70
     0
  0
VERTEX
  8
MACK_MR
 10
44.5654
 20
2.894
 30
0
 70
     0
  0
VERTEX
  8
MACK_MR
 10
44.5705
 20
2.7917
 30
0
 70
     0
  0
SEQEND
  0
POLYLINE
  8
MACK_MR
  6
CONTINUOUS
 62
     7
 66
     1
 40
0.0139
 41
0.0139
  0
VERTEX
  8
MACK_MR
 10
44.5705
 20
2.7915
 30
0
 70
     0
  0
VERTEX
  8
MACK_MR
 10
44.5705
 20
-7.2085
 30
0
 70
     0
  0
SEQEND
  0
POLYLINE
  8
MACK_MR
  6
CONTINUOUS
 62
     7
 66
     1
 40
0.0139
 41
0.0139
  0
VERTEX
  8
MACK_MR
 10
44.5705
 20
-7.2085
 30
0
 70
     0
  0
VERTEX
  8
MACK_MR
 10
44.5654
 20
-7.3107
 30
0
 70
     0
  0
VERTEX
  8
MACK_MR
 10
44.5504
 20
-7.41
 30
0
 70
     0
  0
VERTEX
  8
MACK_MR
 10
44.5258
 20
-7.5058
 30
0
 70
     0
  0
VERTEX
  8
MACK_MR
 10
44.4922
 20
-7.5977
 30
0
 70
     0
  0
VERTEX
  8
MACK_MR
 10
44.4501
 20
-7.6851
 30
0
 70
     0
  0
VERTEX
  8
MACK_MR
 10
44.4
 20
-7.7676
 30
0
 70
     0
  0
VERTEX
  8
MACK_MR
 10
44.3425
 20
-7.8446
 30
0
 70
     0
  0
VERTEX
  8
MACK_MR
 10
44.2779
 20
-7.9156
 30
0
 70
     0
  0
VERTEX
  8
MACK_MR
 10
44.2069
 20
-7.9802
 30
0
 70
     0
  0
VERTEX
  8
MACK_MR
 10
44.1299
 20
-8.0377
 30
0
 70
     0
  0
VERTEX
  8
MACK_MR
 10
44.0475
 20
-8.0878
 30
0
 70
     0
  0
VERTEX
  8
MACK_MR
 10
43.9601
 20
-8.13
 30
0
 70
     0
  0
VERTEX
  8
MACK_MR
 10
43.8682
 20
-8.1636
 30
0
 70
     0
  0
VERTEX
  8
MACK_MR
 10
43.7724
 20
-8.1882
 30
0
 70
     0
  0
VERTEX
  8
MACK_MR
 10
43.6731
 20
-8.2033
 30
0
 70
     0
  0
VERTEX
  8
MACK_MR
 10
43.5709
 20
-8.2085
 30
0
 70
     0
  0
SEQEND
  0
POLYLINE
  8
MACK_MR
  6
CONTINUOUS
 62
     7
 66
     1
 40
0.0139
 41
0.0139
  0
VERTEX
  8
MACK_MR
 10
39.5709
 20
-8.2085
 30
0
 70
     0
  0
VERTEX
  8
MACK_MR
 10
39.4686
 20
-8.2034
 30
0
 70
     0
  0
VERTEX
  8
MACK_MR
 10
39.3693
 20
-8.1883
 30
0
 70
     0
  0
VERTEX
  8
MACK_MR
 10
39.2734
 20
-8.1638
 30
0
 70
     0
  0
VERTEX
  8
MACK_MR
 10
39.1815
 20
-8.1302
 30
0
 70
     0
  0
VERTEX
  8
MACK_MR
 10
39.0941
 20
-8.0881
 30
0
 70
     0
  0
VERTEX
  8
MACK_MR
 10
39.0116
 20
-8.038
 30
0
 70
     0
  0
VERTEX
  8
MACK_MR
 10
38.9345
 20
-7.9805
 30
0
 70
     0
  0
VERTEX
  8
MACK_MR
 10
38.8635
 20
-7.9159
 30
0
 70
     0
  0
VERTEX
  8
MACK_MR
 10
38.7989
 20
-7.8449
 30
0
 70
     0
  0
VERTEX
  8
MACK_MR
 10
38.7413
 20
-7.7679
 30
0
 70
     0
  0
VERTEX
  8
MACK_MR
 10
38.6911
 20
-7.6854
 30
0
 70
     0
  0
VERTEX
  8
MACK_MR
 10
38.649
 20
-7.598
 30
0
 70
     0
  0
VERTEX
  8
MACK_MR
 10
38.6154
 20
-7.5061
 30
0
 70
     0
  0
VERTEX
  8
MACK_MR
 10
38.5908
 20
-7.4102
 30
0
 70
     0
  0
VERTEX
  8
MACK_MR
 10
38.5756
 20
-7.3109
 30
0
 70
     0
  0
VERTEX
  8
MACK_MR
 10
38.5705
 20
-7.2087
 30
0
 70
     0
  0
SEQEND
  0
POLYLINE
  8
MACK_MR
  6
CONTINUOUS
 62
     7
 66
     1
 40
0.0139
 41
0.0139
  0
VERTEX
  8
MACK_MR
 10
38.5705
 20
-7.2085
 30
0
 70
     0
  0
VERTEX
  8
MACK_MR
 10
38.5705
 20
2.7915
 30
0
 70
     0
  0
SEQEND
  0
POLYLINE
  8
MACK_MR
  6
CONTINUOUS
 62
     7
 66
     1
 40
0.0139
 41
0.0139
  0
VERTEX
  8
MACK_MR
 10
10.0146
 20
9.396
 30
0
 70
     0
  0
VERTEX
  8
MACK_MR
 10
7.0146
 20
9.396
 30
0
 70
     0
  0
SEQEND
  0
POLYLINE
  8
MACK_MR
  6
CONTINUOUS
 62
     7
 66
     1
 40
0.0139
 41
0.0139
  0
VERTEX
  8
MACK_MR
 10
7.0146
 20
12.896
 30
0
 70
     0
  0
VERTEX
  8
MACK_MR
 10
10.0146
 20
12.896
 30
0
 70
     0
  0
SEQEND
  0
POLYLINE
  8
MACK_MR
  6
CONTINUOUS
 62
     7
 66
     1
 40
0.0139
 41
0.0139
  0
VERTEX
  8
MACK_MR
 10
10.0146
 20
12.896
 30
0
 70
     0
  0
VERTEX
  8
MACK_MR
 10
10.0913
 20
12.8922
 30
0
 70
     0
  0
VERTEX
  8
MACK_MR
 10
10.1658
 20
12.8809
 30
0
 70
     0
  0
VERTEX
  8
MACK_MR
 10
10.2377
 20
12.8624
 30
0
 70
     0
  0
VERTEX
  8
MACK_MR
 10
10.3066
 20
12.8372
 30
0
 70
     0
  0
VERTEX
  8
MACK_MR
 10
10.3722
 20
12.8057
 30
0
 70
     0
  0
VERTEX
  8
MACK_MR
 10
10.434
 20
12.7681
 30
0
 70
     0
  0
VERTEX
  8
MACK_MR
 10
10.4918
 20
12.7249
 30
0
 70
     0
  0
VERTEX
  8
MACK_MR
 10
10.545
 20
12.6765
 30
0
 70
     0
  0
VERTEX
  8
MACK_MR
 10
10.5935
 20
12.6233
 30
0
 70
     0
  0
VERTEX
  8
MACK_MR
 10
10.6366
 20
12.5655
 30
0
 70
     0
  0
VERTEX
  8
MACK_MR
 10
10.6742
 20
12.5037
 30
0
 70
     0
  0
VERTEX
  8
MACK_MR
 10
10.7058
 20
12.4381
 30
0
 70
     0
  0
VERTEX
  8
MACK_MR
 10
10.731
 20
12.3692
 30
0
 70
     0
  0
VERTEX
  8
MACK_MR
 10
10.7495
 20
12.2973
 30
0
 70
     0
  0
VERTEX
  8
MACK_MR
 10
10.7608
 20
12.2228
 30
0
 70
     0
  0
VERTEX
  8
MACK_MR
 10
10.7646
 20
12.1462
 30
0
 70
     0
  0
SEQEND
  0
POLYLINE
  8
MACK_MR
  6
CONTINUOUS
 62
     7
 66
     1
 40
0.0139
 41
0.0139
  0
VERTEX
  8
MACK_MR
 10
10.7646
 20
12.146
 30
0
 70
     0
  0
VERTEX
  8
MACK_MR
 10
10.7646
 20
10.146
 30
0
 70
     0
  0
SEQEND
  0
POLYLINE
  8
MACK_MR
  6
CONTINUOUS
 62
     7
 66
     1
 40
0.0139
 41
0.0139
  0
VERTEX
  8
MACK_MR
 10
10.7646
 20
10.146
 30
0
 70
     0
  0
VERTEX
  8
MACK_MR
 10
10.7608
 20
10.0694
 30
0
 70
     0
  0
VERTEX
  8
MACK_MR
 10
10.7495
 20
9.9949
 30
0
 70
     0
  0
VERTEX
  8
MACK_MR
 10
10.7311
 20
9.923
 30
0
 70
     0
  0
VERTEX
  8
MACK_MR
 10
10.7059
 20
9.8541
 30
0
 70
     0
  0
VERTEX
  8
MACK_MR
 10
10.6743
 20
9.7885
 30
0
 70
     0
  0
VERTEX
  8
MACK_MR
 10
10.6368
 20
9.7267
 30
0
 70
     0
  0
VERTEX
  8
MACK_MR
 10
10.5936
 20
9.6689
 30
0
 70
     0
  0
VERTEX
  8
MACK_MR
 10
10.5452
 20
9.6157
 30
0
 70
     0
  0
VERTEX
  8
MACK_MR
 10
10.4919
 20
9.5673
 30
0
 70
     0
  0
VERTEX
  8
MACK_MR
 10
10.4342
 20
9.5241
 30
0
 70
     0
  0
VERTEX
  8
MACK_MR
 10
10.3724
 20
9.4865
 30
0
 70
     0
  0
VERTEX
  8
MACK_MR
 10
10.3068
 20
9.4549
 30
0
 70
     0
  0
VERTEX
  8
MACK_MR
 10
10.2379
 20
9.4297
 30
0
 70
     0
  0
VERTEX
  8
MACK_MR
 10
10.166
 20
9.4112
 30
0
 70
     0
  0
VERTEX
  8
MACK_MR
 10
10.0916
 20
9.3999
 30
0
 70
     0
  0
VERTEX
  8
MACK_MR
 10
10.0149
 20
9.396
 30
0
 70
     0
  0
SEQEND
  0
POLYLINE
  8
MACK_MR
  6
CONTINUOUS
 62
     7
 66
     1
 40
0.0139
 41
0.0139
  0
VERTEX
  8
MACK_MR
 10
14.0146
 20
9.146
 30
0
 70
     0
  0
VERTEX
  8
MACK_MR
 10
7.0146
 20
9.146
 30
0
 70
     0
  0
SEQEND
  0
POLYLINE
  8
MACK_MR
  6
CONTINUOUS
 62
     7
 66
     1
 40
0.0139
 41
0.0139
  0
VERTEX
  8
MACK_MR
 10
14.0146
 20
13.146
 30
0
 70
     0
  0
VERTEX
  8
MACK_MR
 10
14.0146
 20
9.146
 30
0
 70
     0
  0
SEQEND
  0
POLYLINE
  8
MACK_MR
  6
CONTINUOUS
 62
     7
 66
     1
 40
0.0139
 41
0.0139
  0
VERTEX
  8
MACK_MR
 10
7.0146
 20
13.146
 30
0
 70
     0
  0
VERTEX
  8
MACK_MR
 10
14.0146
 20
13.146
 30
0
 70
     0
  0
SEQEND
  0
POLYLINE
  8
MACK_MR
  6
CONTINUOUS
 62
     7
 66
     1
 40
0.0139
 41
0.0139
  0
VERTEX
  8
MACK_MR
 10
7.0146
 20
9.146
 30
0
 70
     0
  0
VERTEX
  8
MACK_MR
 10
7.0146
 20
9.396
 30
0
 70
     0
  0
SEQEND
  0
POLYLINE
  8
MACK_MR
  6
CONTINUOUS
 62
     7
 66
     1
 40
0.0139
 41
0.0139
  0
VERTEX
  8
MACK_MR
 10
42.2486
 20
50.7898
 30
0
 70
     0
  0
VERTEX
  8
MACK_MR
 10
43.5073
 20
32.7898
 30
0
 70
     0
  0
SEQEND
  0
POLYLINE
  8
MACK_MR
  6
CONTINUOUS
 62
     7
 66
     1
 40
0.0139
 41
0.0139
  0
VERTEX
  8
MACK_MR
 10
10.5157
 20
29.5806
 30
0
 70
     0
  0
VERTEX
  8
MACK_MR
 10
10.3614
 20
29.5843
 30
0
 70
     0
  0
VERTEX
  8
MACK_MR
 10
10.209
 20
29.5957
 30
0
 70
     0
  0
VERTEX
  8
MACK_MR
 10
10.0588
 20
29.6147
 30
0
 70
     0
  0
VERTEX
  8
MACK_MR
 10
9.9111
 20
29.6409
 30
0
 70
     0
  0
VERTEX
  8
MACK_MR
 10
9.7659
 20
29.6743
 30
0
 70
     0
  0
VERTEX
  8
MACK_MR
 10
9.6235
 20
29.7146
 30
0
 70
     0
  0
VERTEX
  8
MACK_MR
 10
9.484
 20
29.7617
 30
0
 70
     0
  0
VERTEX
  8
MACK_MR
 10
9.3477
 20
29.8153
 30
0
 70
     0
  0
VERTEX
  8
MACK_MR
 10
9.2148
 20
29.8753
 30
0
 70
     0
  0
VERTEX
  8
MACK_MR
 10
9.0854
 20
29.9415
 30
0
 70
     0
  0
VERTEX
  8
MACK_MR
 10
8.9597
 20
30.0137
 30
0
 70
     0
  0
VERTEX
  8
MACK_MR
 10
8.8379
 20
30.0917
 30
0
 70
     0
  0
VERTEX
  8
MACK_MR
 10
8.7202
 20
30.1753
 30
0
 70
     0
  0
VERTEX
  8
MACK_MR
 10
8.6068
 20
30.2644
 30
0
 70
     0
  0
VERTEX
  8
MACK_MR
 10
8.4979
 20
30.3586
 30
0
 70
     0
  0
VERTEX
  8
MACK_MR
 10
8.3936
 20
30.458
 30
0
 70
     0
  0
VERTEX
  8
MACK_MR
 10
8.2942
 20
30.5622
 30
0
 70
     0
  0
VERTEX
  8
MACK_MR
 10
8.1998
 20
30.671
 30
0
 70
     0
  0
VERTEX
  8
MACK_MR
 10
8.1107
 20
30.7843
 30
0
 70
     0
  0
VERTEX
  8
MACK_MR
 10
8.027
 20
30.902
 30
0
 70
     0
  0
VERTEX
  8
MACK_MR
 10
7.9489
 20
31.0237
 30
0
 70
     0
  0
VERTEX
  8
MACK_MR
 10
7.8767
 20
31.1493
 30
0
 70
     0
  0
VERTEX
  8
MACK_MR
 10
7.8104
 20
31.2787
 30
0
 70
     0
  0
VERTEX
  8
MACK_MR
 10
7.7503
 20
31.4116
 30
0
 70
     0
  0
VERTEX
  8
MACK_MR
 10
7.6965
 20
31.5479
 30
0
 70
     0
  0
VERTEX
  8
MACK_MR
 10
7.6494
 20
31.6873
 30
0
 70
     0
  0
VERTEX
  8
MACK_MR
 10
7.6089
 20
31.8297
 30
0
 70
     0
  0
VERTEX
  8
MACK_MR
 10
7.5754
 20
31.9748
 30
0
 70
     0
  0
VERTEX
  8
MACK_MR
 10
7.5491
 20
32.1226
 30
0
 70
     0
  0
VERTEX
  8
MACK_MR
 10
7.53
 20
32.2727
 30
0
 70
     0
  0
VERTEX
  8
MACK_MR
 10
7.5185
 20
32.4251
 30
0
 70
     0
  0
VERTEX
  8
MACK_MR
 10
7.5146
 20
32.5795
 30
0
 70
     0
  0
SEQEND
  0
POLYLINE
  8
MACK_MR
  6
CONTINUOUS
 62
     7
 66
     1
 40
0.0139
 41
0.0139
  0
VERTEX
  8
MACK_MR
 10
40.5146
 20
29.5806
 30
0
 70
     0
  0
VERTEX
  8
MACK_MR
 10
37.0146
 20
29.5806
 30
0
 70
     0
  0
SEQEND
  0
POLYLINE
  8
MACK_MR
  6
CONTINUOUS
 62
     7
 66
     1
 40
0.0139
 41
0.0139
  0
VERTEX
  8
MACK_MR
 10
36.0146
 20
29.5806
 30
0
 70
     0
  0
VERTEX
  8
MACK_MR
 10
10.5146
 20
29.5806
 30
0
 70
     0
  0
SEQEND
  0
POLYLINE
  8
MACK_MR
  6
CONTINUOUS
 62
     7
 66
     1
 40
0.0139
 41
0.0139
  0
VERTEX
  8
MACK_MR
 10
43.5073
 20
32.7898
 30
0
 70
     0
  0
VERTEX
  8
MACK_MR
 10
43.5145
 20
32.628
 30
0
 70
     0
  0
VERTEX
  8
MACK_MR
 10
43.513
 20
32.468
 30
0
 70
     0
  0
VERTEX
  8
MACK_MR
 10
43.5033
 20
32.3098
 30
0
 70
     0
  0
VERTEX
  8
MACK_MR
 10
43.4853
 20
32.1539
 30
0
 70
     0
  0
VERTEX
  8
MACK_MR
 10
43.4594
 20
32.0004
 30
0
 70
     0
  0
VERTEX
  8
MACK_MR
 10
43.4258
 20
31.8495
 30
0
 70
     0
  0
VERTEX
  8
MACK_MR
 10
43.3846
 20
31.7015
 30
0
 70
     0
  0
VERTEX
  8
MACK_MR
 10
43.3362
 20
31.5566
 30
0
 70
     0
  0
VERTEX
  8
MACK_MR
 10
43.2806
 20
31.4149
 30
0
 70
     0
  0
VERTEX
  8
MACK_MR
 10
43.2181
 20
31.2768
 30
0
 70
     0
  0
VERTEX
  8
MACK_MR
 10
43.1489
 20
31.1424
 30
0
 70
     0
  0
VERTEX
  8
MACK_MR
 10
43.0732
 20
31.012
 30
0
 70
     0
  0
VERTEX
  8
MACK_MR
 10
42.9912
 20
30.8858
 30
0
 70
     0
  0
VERTEX
  8
MACK_MR
 10
42.9031
 20
30.764
 30
0
 70
     0
  0
VERTEX
  8
MACK_MR
 10
42.8092
 20
30.6468
 30
0
 70
     0
  0
VERTEX
  8
MACK_MR
 10
42.7096
 20
30.5345
 30
0
 70
     0
  0
VERTEX
  8
MACK_MR
 10
42.6045
 20
30.4273
 30
0
 70
     0
  0
VERTEX
  8
MACK_MR
 10
42.4943
 20
30.3254
 30
0
 70
     0
  0
VERTEX
  8
MACK_MR
 10
42.3789
 20
30.229
 30
0
 70
     0
  0
VERTEX
  8
MACK_MR
 10
42.2588
 20
30.1383
 30
0
 70
     0
  0
VERTEX
  8
MACK_MR
 10
42.134
 20
30.0537
 30
0
 70
     0
  0
VERTEX
  8
MACK_MR
 10
42.0048
 20
29.9752
 30
0
 70
     0
  0
VERTEX
  8
MACK_MR
 10
41.8714
 20
29.9032
 30
0
 70
     0
  0
VERTEX
  8
MACK_MR
 10
41.734
 20
29.8378
 30
0
 70
     0
  0
VERTEX
  8
MACK_MR
 10
41.5928
 20
29.7793
 30
0
 70
     0
  0
VERTEX
  8
MACK_MR
 10
41.448
 20
29.7278
 30
0
 70
     0
  0
VERTEX
  8
MACK_MR
 10
41.2999
 20
29.6837
 30
0
 70
     0
  0
VERTEX
  8
MACK_MR
 10
41.1486
 20
29.6471
 30
0
 70
     0
  0
VERTEX
  8
MACK_MR
 10
40.9943
 20
29.6183
 30
0
 70
     0
  0
VERTEX
  8
MACK_MR
 10
40.8372
 20
29.5974
 30
0
 70
     0
  0
VERTEX
  8
MACK_MR
 10
40.6777
 20
29.5848
 30
0
 70
     0
  0
VERTEX
  8
MACK_MR
 10
40.5157
 20
29.5806
 30
0
 70
     0
  0
SEQEND
  0
POLYLINE
  8
MACK_MR
  6
CONTINUOUS
 62
     7
 66
     1
 40
0.0139
 41
0.0139
  0
VERTEX
  8
MACK_MR
 10
39.256
 20
53.5806
 30
0
 70
     0
  0
VERTEX
  8
MACK_MR
 10
39.4029
 20
53.5771
 30
0
 70
     0
  0
VERTEX
  8
MACK_MR
 10
39.548
 20
53.5667
 30
0
 70
     0
  0
VERTEX
  8
MACK_MR
 10
39.6913
 20
53.5494
 30
0
 70
     0
  0
VERTEX
  8
MACK_MR
 10
39.8325
 20
53.5255
 30
0
 70
     0
  0
VERTEX
  8
MACK_MR
 10
39.9714
 20
53.495
 30
0
 70
     0
  0
VERTEX
  8
MACK_MR
 10
40.1079
 20
53.4582
 30
0
 70
     0
  0
VERTEX
  8
MACK_MR
 10
40.2418
 20
53.4152
 30
0
 70
     0
  0
VERTEX
  8
MACK_MR
 10
40.373
 20
53.3661
 30
0
 70
     0
  0
VERTEX
  8
MACK_MR
 10
40.5012
 20
53.3111
 30
0
 70
     0
  0
VERTEX
  8
MACK_MR
 10
40.6264
 20
53.2505
 30
0
 70
     0
  0
VERTEX
  8
MACK_MR
 10
40.7482
 20
53.1842
 30
0
 70
     0
  0
VERTEX
  8
MACK_MR
 10
40.8666
 20
53.1126
 30
0
 70
     0
  0
VERTEX
  8
MACK_MR
 10
40.9814
 20
53.0357
 30
0
 70
     0
  0
VERTEX
  8
MACK_MR
 10
41.0924
 20
52.9537
 30
0
 70
     0
  0
VERTEX
  8
MACK_MR
 10
41.1995
 20
52.8668
 30
0
 70
     0
  0
VERTEX
  8
MACK_MR
 10
41.3024
 20
52.7751
 30
0
 70
     0
  0
VERTEX
  8
MACK_MR
 10
41.4952
 20
52.5781
 30
0
 70
     0
  0
VERTEX
  8
MACK_MR
 10
41.6694
 20
52.3639
 30
0
 70
     0
  0
VERTEX
  8
MACK_MR
 10
41.7492
 20
52.2508
 30
0
 70
     0
  0
VERTEX
  8
MACK_MR
 10
41.8237
 20
52.1339
 30
0
 70
     0
  0
VERTEX
  8
MACK_MR
 10
41.893
 20
52.0133
 30
0
 70
     0
  0
VERTEX
  8
MACK_MR
 10
41.9568
 20
51.8892
 30
0
 70
     0
  0
VERTEX
  8
MACK_MR
 10
42.0149
 20
51.7618
 30
0
 70
     0
  0
VERTEX
  8
MACK_MR
 10
42.0671
 20
51.6312
 30
0
 70
     0
  0
VERTEX
  8
MACK_MR
 10
42.1134
 20
51.4976
 30
0
 70
     0
  0
VERTEX
  8
MACK_MR
 10
42.1535
 20
51.3611
 30
0
 70
     0
  0
VERTEX
  8
MACK_MR
 10
42.1872
 20
51.2219
 30
0
 70
     0
  0
VERTEX
  8
MACK_MR
 10
42.2144
 20
51.0802
 30
0
 70
     0
  0
VERTEX
  8
MACK_MR
 10
42.235
 20
50.9361
 30
0
 70
     0
  0
VERTEX
  8
MACK_MR
 10
42.2486
 20
50.7898
 30
0
 70
     0
  0
SEQEND
  0
POLYLINE
  8
MACK_MR
  6
CONTINUOUS
 62
     7
 66
     1
 40
0.0139
 41
0.0139
  0
VERTEX
  8
MACK_MR
 10
10.5146
 20
53.5806
 30
0
 70
     0
  0
VERTEX
  8
MACK_MR
 10
36.0146
 20
53.5806
 30
0
 70
     0
  0
SEQEND
  0
POLYLINE
  8
MACK_MR
  6
CONTINUOUS
 62
     7
 66
     1
 40
0.0139
 41
0.0139
  0
VERTEX
  8
MACK_MR
 10
37.0146
 20
53.5806
 30
0
 70
     0
  0
VERTEX
  8
MACK_MR
 10
39.256
 20
53.5806
 30
0
 70
     0
  0
SEQEND
  0
POLYLINE
  8
MACK_MR
  6
CONTINUOUS
 62
     7
 66
     1
 40
0.0139
 41
0.0139
  0
VERTEX
  8
MACK_MR
 10
7.5146
 20
50.5806
 30
0
 70
     0
  0
VERTEX
  8
MACK_MR
 10
7.5184
 20
50.735
 30
0
 70
     0
  0
VERTEX
  8
MACK_MR
 10
7.5299
 20
50.8873
 30
0
 70
     0
  0
VERTEX
  8
MACK_MR
 10
7.5489
 20
51.0375
 30
0
 70
     0
  0
VERTEX
  8
MACK_MR
 10
7.5752
 20
51.1852
 30
0
 70
     0
  0
VERTEX
  8
MACK_MR
 10
7.6086
 20
51.3304
 30
0
 70
     0
  0
VERTEX
  8
MACK_MR
 10
7.649
 20
51.4728
 30
0
 70
     0
  0
VERTEX
  8
MACK_MR
 10
7.6961
 20
51.6122
 30
0
 70
     0
  0
VERTEX
  8
MACK_MR
 10
7.7498
 20
51.7485
 30
0
 70
     0
  0
VERTEX
  8
MACK_MR
 10
7.8099
 20
51.8814
 30
0
 70
     0
  0
VERTEX
  8
MACK_MR
 10
7.8761
 20
52.0108
 30
0
 70
     0
  0
VERTEX
  8
MACK_MR
 10
7.9484
 20
52.1365
 30
0
 70
     0
  0
VERTEX
  8
MACK_MR
 10
8.0264
 20
52.2582
 30
0
 70
     0
  0
VERTEX
  8
MACK_MR
 10
8.1101
 20
52.3759
 30
0
 70
     0
  0
VERTEX
  8
MACK_MR
 10
8.1991
 20
52.4893
 30
0
 70
     0
  0
VERTEX
  8
MACK_MR
 10
8.2935
 20
52.5982
 30
0
 70
     0
  0
VERTEX
  8
MACK_MR
 10
8.3928
 20
52.7024
 30
0
 70
     0
  0
VERTEX
  8
MACK_MR
 10
8.497
 20
52.8017
 30
0
 70
     0
  0
VERTEX
  8
MACK_MR
 10
8.6059
 20
52.8961
 30
0
 70
     0
  0
VERTEX
  8
MACK_MR
 10
8.7193
 20
52.9851
 30
0
 70
     0
  0
VERTEX
  8
MACK_MR
 10
8.837
 20
53.0688
 30
0
 70
     0
  0
VERTEX
  8
MACK_MR
 10
8.9587
 20
53.1468
 30
0
 70
     0
  0
VERTEX
  8
MACK_MR
 10
9.0844
 20
53.2191
 30
0
 70
     0
  0
VERTEX
  8
MACK_MR
 10
9.2138
 20
53.2853
 30
0
 70
     0
  0
VERTEX
  8
MACK_MR
 10
9.3467
 20
53.3454
 30
0
 70
     0
  0
VERTEX
  8
MACK_MR
 10
9.483
 20
53.3991
 30
0
 70
     0
  0
VERTEX
  8
MACK_MR
 10
9.6224
 20
53.4462
 30
0
 70
     0
  0
VERTEX
  8
MACK_MR
 10
9.7648
 20
53.4866
 30
0
 70
     0
  0
VERTEX
  8
MACK_MR
 10
9.91
 20
53.52
 30
0
 70
     0
  0
VERTEX
  8
MACK_MR
 10
10.0577
 20
53.5463
 30
0
 70
     0
  0
VERTEX
  8
MACK_MR
 10
10.2079
 20
53.5653
 30
0
 70
     0
  0
VERTEX
  8
MACK_MR
 10
10.3603
 20
53.5768
 30
0
 70
     0
  0
VERTEX
  8
MACK_MR
 10
10.5146
 20
53.5806
 30
0
 70
     0
  0
SEQEND
  0
POLYLINE
  8
MACK_MR
  6
CONTINUOUS
 62
     7
 66
     1
 40
0.0139
 41
0.0139
  0
VERTEX
  8
MACK_MR
 10
7.5146
 20
32.5806
 30
0
 70
     0
  0
VERTEX
  8
MACK_MR
 10
7.5146
 20
50.5806
 30
0
 70
     0
  0
SEQEND
  0
POLYLINE
  8
MACK_MR
  6
CONTINUOUS
 62
     7
 66
     1
 40
0.0139
 41
0.0139
  0
VERTEX
  8
MACK_MR
 10
-24.9854
 20
-21.2248
 30
0
 70
     0
  0
VERTEX
  8
MACK_MR
 10
-25.9854
 20
-21.2248
 30
0
 70
     0
  0
SEQEND
  0
POLYLINE
  8
MACK_MR
  6
CONTINUOUS
 62
     7
 66
     1
 40
0.0139
 41
0.0139
  0
VERTEX
  8
MACK_MR
 10
-3.4647
 20
3.5319
 30
0
 70
     0
  0
VERTEX
  8
MACK_MR
 10
-3.6039
 20
4.5222
 30
0
 70
     0
  0
SEQEND
  0
POLYLINE
  8
MACK_MR
  6
CONTINUOUS
 62
     7
 66
     1
 40
0.0139
 41
0.0139
  0
VERTEX
  8
MACK_MR
 10
-24.9854
 20
-21.2248
 30
0
 70
     0
  0
VERTEX
  8
MACK_MR
 10
-24.9791
 20
-20.642
 30
0
 70
     0
  0
VERTEX
  8
MACK_MR
 10
-24.9595
 20
-20.0622
 30
0
 70
     0
  0
VERTEX
  8
MACK_MR
 10
-24.9268
 20
-19.4854
 30
0
 70
     0
  0
VERTEX
  8
MACK_MR
 10
-24.8809
 20
-18.9119
 30
0
 70
     0
  0
VERTEX
  8
MACK_MR
 10
-24.8222
 20
-18.3418
 30
0
 70
     0
  0
VERTEX
  8
MACK_MR
 10
-24.7506
 20
-17.7753
 30
0
 70
     0
  0
VERTEX
  8
MACK_MR
 10
-24.6664
 20
-17.2125
 30
0
 70
     0
  0
VERTEX
  8
MACK_MR
 10
-24.5698
 20
-16.6536
 30
0
 70
     0
  0
VERTEX
  8
MACK_MR
 10
-24.4607
 20
-16.0987
 30
0
 70
     0
  0
VERTEX
  8
MACK_MR
 10
-24.3394
 20
-15.5481
 30
0
 70
     0
  0
VERTEX
  8
MACK_MR
 10
-24.206
 20
-15.0018
 30
0
 70
     0
  0
VERTEX
  8
MACK_MR
 10
-24.0607
 20
-14.46
 30
0
 70
     0
  0
VERTEX
  8
MACK_MR
 10
-23.9036
 20
-13.9229
 30
0
 70
     0
  0
VERTEX
  8
MACK_MR
 10
-23.7348
 20
-13.3907
 30
0
 70
     0
  0
VERTEX
  8
MACK_MR
 10
-23.5544
 20
-12.8634
 30
0
 70
     0
  0
VERTEX
  8
MACK_MR
 10
-23.3627
 20
-12.3414
 30
0
 70
     0
  0
VERTEX
  8
MACK_MR
 10
-23.1597
 20
-11.8246
 30
0
 70
     0
  0
VERTEX
  8
MACK_MR
 10
-22.9455
 20
-11.3133
 30
0
 70
     0
  0
VERTEX
  8
MACK_MR
 10
-22.7204
 20
-10.8077
 30
0
 70
     0
  0
VERTEX
  8
MACK_MR
 10
-22.4845
 20
-10.3078
 30
0
 70
     0
  0
VERTEX
  8
MACK_MR
 10
-22.2378
 20
-9.8139
 30
0
 70
     0
  0
VERTEX
  8
MACK_MR
 10
-21.9806
 20
-9.3261
 30
0
 70
     0
  0
VERTEX
  8
MACK_MR
 10
-21.7129
 20
-8.8446
 30
0
 70
     0
  0
VERTEX
  8
MACK_MR
 10
-21.4349
 20
-8.3696
 30
0
 70
     0
  0
VERTEX
  8
MACK_MR
 10
-21.1468
 20
-7.9011
 30
0
 70
     0
  0
VERTEX
  8
MACK_MR
 10
-20.8487
 20
-7.4393
 30
0
 70
     0
  0
VERTEX
  8
MACK_MR
 10
-20.5407
 20
-6.9845
 30
0
 70
     0
  0
VERTEX
  8
MACK_MR
 10
-20.2229
 20
-6.5368
 30
0
 70
     0
  0
VERTEX
  8
MACK_MR
 10
-19.8956
 20
-6.0963
 30
0
 70
     0
  0
VERTEX
  8
MACK_MR
 10
-19.5588
 20
-5.6631
 30
0
 70
     0
  0
VERTEX
  8
MACK_MR
 10
-19.2127
 20
-5.2375
 30
0
 70
     0
  0
VERTEX
  8
MACK_MR
 10
-18.8573
 20
-4.8196
 30
0
 70
     0
  0
VERTEX
  8
MACK_MR
 10
-18.493
 20
-4.4096
 30
0
 70
     0
  0
VERTEX
  8
MACK_MR
 10
-18.1197
 20
-4.0076
 30
0
 70
     0
  0
VERTEX
  8
MACK_MR
 10
-17.7377
 20
-3.6138
 30
0
 70
     0
  0
VERTEX
  8
MACK_MR
 10
-17.347
 20
-3.2284
 30
0
 70
     0
  0
VERTEX
  8
MACK_MR
 10
-16.9478
 20
-2.8514
 30
0
 70
     0
  0
VERTEX
  8
MACK_MR
 10
-16.5403
 20
-2.4831
 30
0
 70
     0
  0
VERTEX
  8
MACK_MR
 10
-16.1245
 20
-2.1236
 30
0
 70
     0
  0
VERTEX
  8
MACK_MR
 10
-15.7007
 20
-1.7731
 30
0
 70
     0
  0
VERTEX
  8
MACK_MR
 10
-15.269
 20
-1.4317
 30
0
 70
     0
  0
VERTEX
  8
MACK_MR
 10
-14.8294
 20
-1.0997
 30
0
 70
     0
  0
VERTEX
  8
MACK_MR
 10
-14.3821
 20
-0.777
 30
0
 70
     0
  0
VERTEX
  8
MACK_MR
 10
-13.9274
 20
-0.464
 30
0
 70
     0
  0
VERTEX
  8
MACK_MR
 10
-13.4652
 20
-0.1608
 30
0
 70
     0
  0
VERTEX
  8
MACK_MR
 10
-12.9958
 20
0.1325
 30
0
 70
     0
  0
VERTEX
  8
MACK_MR
 10
-12.5193
 20
0.4157
 30
0
 70
     0
  0
VERTEX
  8
MACK_MR
 10
-12.0359
 20
0.6886
 30
0
 70
     0
  0
VERTEX
  8
MACK_MR
 10
-11.5455
 20
0.9512
 30
0
 70
     0
  0
VERTEX
  8
MACK_MR
 10
-11.0485
 20
1.2032
 30
0
 70
     0
  0
VERTEX
  8
MACK_MR
 10
-10.545
 20
1.4444
 30
0
 70
     0
  0
VERTEX
  8
MACK_MR
 10
-10.035
 20
1.6748
 30
0
 70
     0
  0
VERTEX
  8
MACK_MR
 10
-9.5187
 20
1.8941
 30
0
 70
     0
  0
VERTEX
  8
MACK_MR
 10
-8.9963
 20
2.1022
 30
0
 70
     0
  0
VERTEX
  8
MACK_MR
 10
-8.4679
 20
2.2989
 30
0
 70
     0
  0
VERTEX
  8
MACK_MR
 10
-7.9336
 20
2.4841
 30
0
 70
     0
  0
VERTEX
  8
MACK_MR
 10
-7.3936
 20
2.6577
 30
0
 70
     0
  0
VERTEX
  8
MACK_MR
 10
-6.848
 20
2.8194
 30
0
 70
     0
  0
VERTEX
  8
MACK_MR
 10
-6.2969
 20
2.969
 30
0
 70
     0
  0
VERTEX
  8
MACK_MR
 10
-5.7405
 20
3.1066
 30
0
 70
     0
  0
VERTEX
  8
MACK_MR
 10
-5.179
 20
3.2318
 30
0
 70
     0
  0
VERTEX
  8
MACK_MR
 10
-4.6124
 20
3.3445
 30
0
 70
     0
  0
VERTEX
  8
MACK_MR
 10
-4.0409
 20
3.4446
 30
0
 70
     0
  0
VERTEX
  8
MACK_MR
 10
-3.4647
 20
3.5319
 30
0
 70
     0
  0
SEQEND
  0
POLYLINE
  8
MACK_MR
  6
CONTINUOUS
 62
     7
 66
     1
 40
0.0139
 41
0.0139
  0
VERTEX
  8
MACK_MR
 10
1.3192
 20
3.6556
 30
0
 70
     0
  0
VERTEX
  8
MACK_MR
 10
1.7274
 20
3.6125
 30
0
 70
     0
  0
VERTEX
  8
MACK_MR
 10
2.134
 20
3.5628
 30
0
 70
     0
  0
VERTEX
  8
MACK_MR
 10
2.5388
 20
3.5066
 30
0
 70
     0
  0
VERTEX
  8
MACK_MR
 10
2.9419
 20
3.4438
 30
0
 70
     0
  0
VERTEX
  8
MACK_MR
 10
3.3431
 20
3.3747
 30
0
 70
     0
  0
VERTEX
  8
MACK_MR
 10
3.7424
 20
3.2992
 30
0
 70
     0
  0
VERTEX
  8
MACK_MR
 10
4.1398
 20
3.2173
 30
0
 70
     0
  0
VERTEX
  8
MACK_MR
 10
4.5351
 20
3.1291
 30
0
 70
     0
  0
VERTEX
  8
MACK_MR
 10
4.9283
 20
3.0346
 30
0
 70
     0
  0
VERTEX
  8
MACK_MR
 10
5.3194
 20
2.934
 30
0
 70
     0
  0
VERTEX
  8
MACK_MR
 10
5.7082
 20
2.8271
 30
0
 70
     0
  0
VERTEX
  8
MACK_MR
 10
6.0948
 20
2.7142
 30
0
 70
     0
  0
VERTEX
  8
MACK_MR
 10
6.479
 20
2.5951
 30
0
 70
     0
  0
VERTEX
  8
MACK_MR
 10
6.8607
 20
2.4701
 30
0
 70
     0
  0
VERTEX
  8
MACK_MR
 10
7.24
 20
2.339
 30
0
 70
     0
  0
VERTEX
  8
MACK_MR
 10
7.6168
 20
2.202
 30
0
 70
     0
  0
VERTEX
  8
MACK_MR
 10
7.9909
 20
2.0591
 30
0
 70
     0
  0
VERTEX
  8
MACK_MR
 10
8.3624
 20
1.9104
 30
0
 70
     0
  0
VERTEX
  8
MACK_MR
 10
8.7311
 20
1.7558
 30
0
 70
     0
  0
VERTEX
  8
MACK_MR
 10
9.097
 20
1.5955
 30
0
 70
     0
  0
VERTEX
  8
MACK_MR
 10
9.4601
 20
1.4295
 30
0
 70
     0
  0
VERTEX
  8
MACK_MR
 10
9.8202
 20
1.2578
 30
0
 70
     0
  0
VERTEX
  8
MACK_MR
 10
10.1773
 20
1.0804
 30
0
 70
     0
  0
VERTEX
  8
MACK_MR
 10
10.5314
 20
0.8975
 30
0
 70
     0
  0
VERTEX
  8
MACK_MR
 10
10.8824
 20
0.709
 30
0
 70
     0
  0
VERTEX
  8
MACK_MR
 10
11.2301
 20
0.5151
 30
0
 70
     0
  0
VERTEX
  8
MACK_MR
 10
11.5747
 20
0.3157
 30
0
 70
     0
  0
VERTEX
  8
MACK_MR
 10
11.9159
 20
0.1109
 30
0
 70
     0
  0
VERTEX
  8
MACK_MR
 10
12.2537
 20
-0.0993
 30
0
 70
     0
  0
VERTEX
  8
MACK_MR
 10
12.588
 20
-0.3147
 30
0
 70
     0
  0
VERTEX
  8
MACK_MR
 10
12.9189
 20
-0.5355
 30
0
 70
     0
  0
VERTEX
  8
MACK_MR
 10
13.2462
 20
-0.7615
 30
0
 70
     0
  0
VERTEX
  8
MACK_MR
 10
13.8898
 20
-1.2289
 30
0
 70
     0
  0
VERTEX
  8
MACK_MR
 10
14.5184
 20
-1.7166
 30
0
 70
     0
  0
VERTEX
  8
MACK_MR
 10
15.1314
 20
-2.2244
 30
0
 70
     0
  0
VERTEX
  8
MACK_MR
 10
15.7283
 20
-2.7518
 30
0
 70
     0
  0
VERTEX
  8
MACK_MR
 10
16.3086
 20
-3.2984
 30
0
 70
     0
  0
VERTEX
  8
MACK_MR
 10
16.8719
 20
-3.864
 30
0
 70
     0
  0
VERTEX
  8
MACK_MR
 10
17.4175
 20
-4.4481
 30
0
 70
     0
  0
VERTEX
  8
MACK_MR
 10
17.9449
 20
-5.0504
 30
0
 70
     0
  0
VERTEX
  8
MACK_MR
 10
18.4537
 20
-5.6705
 30
0
 70
     0
  0
VERTEX
  8
MACK_MR
 10
18.9434
 20
-6.3081
 30
0
 70
     0
  0
VERTEX
  8
MACK_MR
 10
19.4134
 20
-6.9628
 30
0
 70
     0
  0
VERTEX
  8
MACK_MR
 10
19.8632
 20
-7.6343
 30
0
 70
     0
  0
VERTEX
  8
MACK_MR
 10
20.0803
 20
-7.9762
 30
0
 70
     0
  0
VERTEX
  8
MACK_MR
 10
20.2923
 20
-8.3221
 30
0
 70
     0
  0
VERTEX
  8
MACK_MR
 10
20.4989
 20
-8.6721
 30
0
 70
     0
  0
VERTEX
  8
MACK_MR
 10
20.7001
 20
-9.026
 30
0
 70
     0
  0
VERTEX
  8
MACK_MR
 10
20.896
 20
-9.3838
 30
0
 70
     0
  0
VERTEX
  8
MACK_MR
 10
21.0863
 20
-9.7455
 30
0
 70
     0
  0
VERTEX
  8
MACK_MR
 10
21.2711
 20
-10.1111
 30
0
 70
     0
  0
VERTEX
  8
MACK_MR
 10
21.4502
 20
-10.4804
 30
0
 70
     0
  0
SEQEND
  0
POLYLINE
  8
MACK_MR
  6
CONTINUOUS
 62
     7
 66
     1
 40
0.0139
 41
0.0139
  0
VERTEX
  8
MACK_MR
 10
28.2437
 20
-24.753
 30
0
 70
     0
  0
VERTEX
  8
MACK_MR
 10
21.4502
 20
-10.4804
 30
0
 70
     0
  0
SEQEND
  0
POLYLINE
  8
MACK_MR
  6
CONTINUOUS
 62
     7
 66
     1
 40
0.0139
 41
0.0139
  0
VERTEX
  8
MACK_MR
 10
-3.3104
 20
3.6793
 30
0
 70
     0
  0
VERTEX
  8
MACK_MR
 10
-2.7323
 20
3.7238
 30
0
 70
     0
  0
VERTEX
  8
MACK_MR
 10
-2.1535
 20
3.7546
 30
0
 70
     0
  0
VERTEX
  8
MACK_MR
 10
-1.5744
 20
3.772
 30
0
 70
     0
  0
VERTEX
  8
MACK_MR
 10
-0.995
 20
3.7758
 30
0
 70
     0
  0
VERTEX
  8
MACK_MR
 10
-0.4157
 20
3.766
 30
0
 70
     0
  0
VERTEX
  8
MACK_MR
 10
0.1632
 20
3.7428
 30
0
 70
     0
  0
VERTEX
  8
MACK_MR
 10
0.7416
 20
3.7059
 30
0
 70
     0
  0
VERTEX
  8
MACK_MR
 10
1.3192
 20
3.6556
 30
0
 70
     0
  0
SEQEND
  0
POLYLINE
  8
MACK_MR
  6
CONTINUOUS
 62
     7
 66
     1
 40
0.0139
 41
0.0139
  0
VERTEX
  8
MACK_MR
 10
29.1589
 20
-24.349
 30
0
 70
     0
  0
VERTEX
  8
MACK_MR
 10
29.1642
 20
-24.3601
 30
0
 70
     0
  0
SEQEND
  0
POLYLINE
  8
MACK_MR
  6
CONTINUOUS
 62
     7
 66
     1
 40
0.0139
 41
0.0139
  0
VERTEX
  8
MACK_MR
 10
29.1642
 20
-24.3601
 30
0
 70
     0
  0
VERTEX
  8
MACK_MR
 10
28.2437
 20
-24.753
 30
0
 70
     0
  0
SEQEND
  0
POLYLINE
  8
MACK_MR
  6
CONTINUOUS
 62
     7
 66
     1
 40
0.0139
 41
0.0139
  0
VERTEX
  8
MACK_MR
 10
-3.3979
 20
4.6755
 30
0
 70
     0
  0
VERTEX
  8
MACK_MR
 10
-3.3104
 20
3.6793
 30
0
 70
     0
  0
SEQEND
  0
POLYLINE
  8
MACK_MR
  6
CONTINUOUS
 62
     7
 66
     1
 40
0.0139
 41
0.0139
  0
VERTEX
  8
MACK_MR
 10
54.7073
 20
-11.6116
 30
0
 70
     0
  0
VERTEX
  8
MACK_MR
 10
54.7073
 20
-11.1116
 30
0
 70
     0
  0
SEQEND
  0
POLYLINE
  8
MACK_MR
  6
CONTINUOUS
 62
     7
 66
     1
 40
0.0139
 41
0.0139
  0
VERTEX
  8
MACK_MR
 10
54.7073
 20
-11.1116
 30
0
 70
     0
  0
VERTEX
  8
MACK_MR
 10
54.2073
 20
-11.1116
 30
0
 70
     0
  0
SEQEND
  0
POLYLINE
  8
MACK_MR
  6
CONTINUOUS
 62
     7
 66
     1
 40
0.0139
 41
0.0139
  0
VERTEX
  8
MACK_MR
 10
54.7073
 20
-10.4577
 30
0
 70
     0
  0
VERTEX
  8
MACK_MR
 10
54.7073
 20
-9.9577
 30
0
 70
     0
  0
SEQEND
  0
POLYLINE
  8
MACK_MR
  6
CONTINUOUS
 62
     7
 66
     1
 40
0.0139
 41
0.0139
  0
VERTEX
  8
MACK_MR
 10
54.7073
 20
-11.6116
 30
0
 70
     0
  0
VERTEX
  8
MACK_MR
 10
54.2073
 20
-11.6116
 30
0
 70
     0
  0
SEQEND
  0
POLYLINE
  8
MACK_MR
  6
CONTINUOUS
 62
     7
 66
     1
 40
0.0139
 41
0.0139
  0
VERTEX
  8
MACK_MR
 10
54.7073
 20
-9.9577
 30
0
 70
     0
  0
VERTEX
  8
MACK_MR
 10
54.2073
 20
-9.9577
 30
0
 70
     0
  0
SEQEND
  0
POLYLINE
  8
MACK_MR
  6
CONTINUOUS
 62
     7
 66
     1
 40
0.0139
 41
0.0139
  0
VERTEX
  8
MACK_MR
 10
54.7073
 20
-10.4577
 30
0
 70
     0
  0
VERTEX
  8
MACK_MR
 10
54.2073
 20
-10.4577
 30
0
 70
     0
  0
SEQEND
  0
POLYLINE
  8
MACK_MR
  6
CONTINUOUS
 62
     7
 66
     1
 40
0.0139
 41
0.0139
  0
VERTEX
  8
MACK_MR
 10
54.7073
 20
-8.8039
 30
0
 70
     0
  0
VERTEX
  8
MACK_MR
 10
54.2073
 20
-8.8039
 30
0
 70
     0
  0
SEQEND
  0
POLYLINE
  8
MACK_MR
  6
CONTINUOUS
 62
     7
 66
     1
 40
0.0139
 41
0.0139
  0
VERTEX
  8
MACK_MR
 10
54.7073
 20
-9.3039
 30
0
 70
     0
  0
VERTEX
  8
MACK_MR
 10
54.7073
 20
-8.8039
 30
0
 70
     0
  0
SEQEND
  0
POLYLINE
  8
MACK_MR
  6
CONTINUOUS
 62
     7
 66
     1
 40
0.0139
 41
0.0139
  0
VERTEX
  8
MACK_MR
 10
54.7073
 20
-9.3039
 30
0
 70
     0
  0
VERTEX
  8
MACK_MR
 10
54.2073
 20
-9.3039
 30
0
 70
     0
  0
SEQEND
  0
POLYLINE
  8
MACK_MR
  6
CONTINUOUS
 62
     7
 66
     1
 40
0.0139
 41
0.0139
  0
VERTEX
  8
MACK_MR
 10
54.7073
 20
-8.15
 30
0
 70
     0
  0
VERTEX
  8
MACK_MR
 10
54.7073
 20
-7.65
 30
0
 70
     0
  0
SEQEND
  0
POLYLINE
  8
MACK_MR
  6
CONTINUOUS
 62
     7
 66
     1
 40
0.0139
 41
0.0139
  0
VERTEX
  8
MACK_MR
 10
54.7073
 20
-7.65
 30
0
 70
     0
  0
VERTEX
  8
MACK_MR
 10
54.2073
 20
-7.65
 30
0
 70
     0
  0
SEQEND
  0
POLYLINE
  8
MACK_MR
  6
CONTINUOUS
 62
     7
 66
     1
 40
0.0139
 41
0.0139
  0
VERTEX
  8
MACK_MR
 10
54.7073
 20
-8.15
 30
0
 70
     0
  0
VERTEX
  8
MACK_MR
 10
54.2073
 20
-8.15
 30
0
 70
     0
  0
SEQEND
  0
POLYLINE
  8
MACK_MR
  6
CONTINUOUS
 62
     7
 66
     1
 40
0.0139
 41
0.0139
  0
VERTEX
  8
MACK_MR
 10
54.7073
 20
-6.9962
 30
0
 70
     0
  0
VERTEX
  8
MACK_MR
 10
54.7073
 20
-6.4962
 30
0
 70
     0
  0
SEQEND
  0
POLYLINE
  8
MACK_MR
  6
CONTINUOUS
 62
     7
 66
     1
 40
0.0139
 41
0.0139
  0
VERTEX
  8
MACK_MR
 10
54.7073
 20
-6.4962
 30
0
 70
     0
  0
VERTEX
  8
MACK_MR
 10
54.2073
 20
-6.4962
 30
0
 70
     0
  0
SEQEND
  0
POLYLINE
  8
MACK_MR
  6
CONTINUOUS
 62
     7
 66
     1
 40
0.0139
 41
0.0139
  0
VERTEX
  8
MACK_MR
 10
54.7073
 20
-6.9962
 30
0
 70
     0
  0
VERTEX
  8
MACK_MR
 10
54.2073
 20
-6.9962
 30
0
 70
     0
  0
SEQEND
  0
POLYLINE
  8
MACK_MR
  6
CONTINUOUS
 62
     7
 66
     1
 40
0.0139
 41
0.0139
  0
VERTEX
  8
MACK_MR
 10
54.7073
 20
-5.8424
 30
0
 70
     0
  0
VERTEX
  8
MACK_MR
 10
54.7073
 20
-5.3424
 30
0
 70
     0
  0
SEQEND
  0
POLYLINE
  8
MACK_MR
  6
CONTINUOUS
 62
     7
 66
     1
 40
0.0139
 41
0.0139
  0
VERTEX
  8
MACK_MR
 10
54.7073
 20
-5.3424
 30
0
 70
     0
  0
VERTEX
  8
MACK_MR
 10
54.2073
 20
-5.3424
 30
0
 70
     0
  0
SEQEND
  0
POLYLINE
  8
MACK_MR
  6
CONTINUOUS
 62
     7
 66
     1
 40
0.0139
 41
0.0139
  0
VERTEX
  8
MACK_MR
 10
54.7073
 20
-5.8424
 30
0
 70
     0
  0
VERTEX
  8
MACK_MR
 10
54.2073
 20
-5.8424
 30
0
 70
     0
  0
SEQEND
  0
POLYLINE
  8
MACK_MR
  6
CONTINUOUS
 62
     7
 66
     1
 40
0.0139
 41
0.0139
  0
VERTEX
  8
MACK_MR
 10
54.7073
 20
-4.6885
 30
0
 70
     0
  0
VERTEX
  8
MACK_MR
 10
54.7073
 20
-4.1885
 30
0
 70
     0
  0
SEQEND
  0
POLYLINE
  8
MACK_MR
  6
CONTINUOUS
 62
     7
 66
     1
 40
0.0139
 41
0.0139
  0
VERTEX
  8
MACK_MR
 10
54.7073
 20
-4.1885
 30
0
 70
     0
  0
VERTEX
  8
MACK_MR
 10
54.2073
 20
-4.1885
 30
0
 70
     0
  0
SEQEND
  0
POLYLINE
  8
MACK_MR
  6
CONTINUOUS
 62
     7
 66
     1
 40
0.0139
 41
0.0139
  0
VERTEX
  8
MACK_MR
 10
54.7073
 20
-4.6885
 30
0
 70
     0
  0
VERTEX
  8
MACK_MR
 10
54.2073
 20
-4.6885
 30
0
 70
     0
  0
SEQEND
  0
POLYLINE
  8
MACK_MR
  6
CONTINUOUS
 62
     7
 66
     1
 40
0.0139
 41
0.0139
  0
VERTEX
  8
MACK_MR
 10
54.7073
 20
-3.5347
 30
0
 70
     0
  0
VERTEX
  8
MACK_MR
 10
54.7073
 20
-3.0347
 30
0
 70
     0
  0
SEQEND
  0
POLYLINE
  8
MACK_MR
  6
CONTINUOUS
 62
     7
 66
     1
 40
0.0139
 41
0.0139
  0
VERTEX
  8
MACK_MR
 10
54.7073
 20
-3.0347
 30
0
 70
     0
  0
VERTEX
  8
MACK_MR
 10
54.2073
 20
-3.0347
 30
0
 70
     0
  0
SEQEND
  0
POLYLINE
  8
MACK_MR
  6
CONTINUOUS
 62
     7
 66
     1
 40
0.0139
 41
0.0139
  0
VERTEX
  8
MACK_MR
 10
54.7073
 20
-3.5347
 30
0
 70
     0
  0
VERTEX
  8
MACK_MR
 10
54.2073
 20
-3.5347
 30
0
 70
     0
  0
SEQEND
  0
POLYLINE
  8
MACK_MR
  6
CONTINUOUS
 62
     7
 66
     1
 40
0.0139
 41
0.0139
  0
VERTEX
  8
MACK_MR
 10
54.7073
 20
-1.8808
 30
0
 70
     0
  0
VERTEX
  8
MACK_MR
 10
54.2073
 20
-1.8808
 30
0
 70
     0
  0
SEQEND
  0
POLYLINE
  8
MACK_MR
  6
CONTINUOUS
 62
     7
 66
     1
 40
0.0139
 41
0.0139
  0
VERTEX
  8
MACK_MR
 10
54.7073
 20
-2.3808
 30
0
 70
     0
  0
VERTEX
  8
MACK_MR
 10
54.7073
 20
-1.8808
 30
0
 70
     0
  0
SEQEND
  0
POLYLINE
  8
MACK_MR
  6
CONTINUOUS
 62
     7
 66
     1
 40
0.0139
 41
0.0139
  0
VERTEX
  8
MACK_MR
 10
54.7073
 20
-1.227
 30
0
 70
     0
  0
VERTEX
  8
MACK_MR
 10
54.7073
 20
-0.727
 30
0
 70
     0
  0
SEQEND
  0
POLYLINE
  8
MACK_MR
  6
CONTINUOUS
 62
     7
 66
     1
 40
0.0139
 41
0.0139
  0
VERTEX
  8
MACK_MR
 10
54.7073
 20
-2.3808
 30
0
 70
     0
  0
VERTEX
  8
MACK_MR
 10
54.2073
 20
-2.3808
 30
0
 70
     0
  0
SEQEND
  0
POLYLINE
  8
MACK_MR
  6
CONTINUOUS
 62
     7
 66
     1
 40
0.0139
 41
0.0139
  0
VERTEX
  8
MACK_MR
 10
54.7073
 20
-0.727
 30
0
 70
     0
  0
VERTEX
  8
MACK_MR
 10
54.2073
 20
-0.727
 30
0
 70
     0
  0
SEQEND
  0
POLYLINE
  8
MACK_MR
  6
CONTINUOUS
 62
     7
 66
     1
 40
0.0139
 41
0.0139
  0
VERTEX
  8
MACK_MR
 10
54.7073
 20
-1.227
 30
0
 70
     0
  0
VERTEX
  8
MACK_MR
 10
54.2073
 20
-1.227
 30
0
 70
     0
  0
SEQEND
  0
POLYLINE
  8
MACK_MR
  6
CONTINUOUS
 62
     7
 66
     1
 40
0.0139
 41
0.0139
  0
VERTEX
  8
MACK_MR
 10
54.7073
 20
0.4269
 30
0
 70
     0
  0
VERTEX
  8
MACK_MR
 10
54.2073
 20
0.4269
 30
0
 70
     0
  0
SEQEND
  0
POLYLINE
  8
MACK_MR
  6
CONTINUOUS
 62
     7
 66
     1
 40
0.0139
 41
0.0139
  0
VERTEX
  8
MACK_MR
 10
54.7073
 20
-0.0731
 30
0
 70
     0
  0
VERTEX
  8
MACK_MR
 10
54.7073
 20
0.4269
 30
0
 70
     0
  0
SEQEND
  0
POLYLINE
  8
MACK_MR
  6
CONTINUOUS
 62
     7
 66
     1
 40
0.0139
 41
0.0139
  0
VERTEX
  8
MACK_MR
 10
54.7073
 20
1.0807
 30
0
 70
     0
  0
VERTEX
  8
MACK_MR
 10
54.7073
 20
1.5807
 30
0
 70
     0
  0
SEQEND
  0
POLYLINE
  8
MACK_MR
  6
CONTINUOUS
 62
     7
 66
     1
 40
0.0139
 41
0.0139
  0
VERTEX
  8
MACK_MR
 10
54.7073
 20
-0.0731
 30
0
 70
     0
  0
VERTEX
  8
MACK_MR
 10
54.2073
 20
-0.0731
 30
0
 70
     0
  0
SEQEND
  0
POLYLINE
  8
MACK_MR
  6
CONTINUOUS
 62
     7
 66
     1
 40
0.0139
 41
0.0139
  0
VERTEX
  8
MACK_MR
 10
54.7073
 20
1.5807
 30
0
 70
     0
  0
VERTEX
  8
MACK_MR
 10
54.2073
 20
1.5807
 30
0
 70
     0
  0
SEQEND
  0
POLYLINE
  8
MACK_MR
  6
CONTINUOUS
 62
     7
 66
     1
 40
0.0139
 41
0.0139
  0
VERTEX
  8
MACK_MR
 10
54.7073
 20
1.0807
 30
0
 70
     0
  0
VERTEX
  8
MACK_MR
 10
54.2073
 20
1.0807
 30
0
 70
     0
  0
SEQEND
  0
POLYLINE
  8
MACK_MR
  6
CONTINUOUS
 62
     7
 66
     1
 40
0.0139
 41
0.0139
  0
VERTEX
  8
MACK_MR
 10
54.7073
 20
2.7346
 30
0
 70
     0
  0
VERTEX
  8
MACK_MR
 10
54.2073
 20
2.7346
 30
0
 70
     0
  0
SEQEND
  0
POLYLINE
  8
MACK_MR
  6
CONTINUOUS
 62
     7
 66
     1
 40
0.0139
 41
0.0139
  0
VERTEX
  8
MACK_MR
 10
54.7073
 20
2.2346
 30
0
 70
     0
  0
VERTEX
  8
MACK_MR
 10
54.7073
 20
2.7346
 30
0
 70
     0
  0
SEQEND
  0
POLYLINE
  8
MACK_MR
  6
CONTINUOUS
 62
     7
 66
     1
 40
0.0139
 41
0.0139
  0
VERTEX
  8
MACK_MR
 10
54.7073
 20
2.2346
 30
0
 70
     0
  0
VERTEX
  8
MACK_MR
 10
54.2073
 20
2.2346
 30
0
 70
     0
  0
SEQEND
  0
POLYLINE
  8
MACK_MR
  6
CONTINUOUS
 62
     7
 66
     1
 40
0.0139
 41
0.0139
  0
VERTEX
  8
MACK_MR
 10
54.7073
 20
3.3884
 30
0
 70
     0
  0
VERTEX
  8
MACK_MR
 10
54.7073
 20
3.8884
 30
0
 70
     0
  0
SEQEND
  0
POLYLINE
  8
MACK_MR
  6
CONTINUOUS
 62
     7
 66
     1
 40
0.0139
 41
0.0139
  0
VERTEX
  8
MACK_MR
 10
54.7073
 20
3.8884
 30
0
 70
     0
  0
VERTEX
  8
MACK_MR
 10
54.2073
 20
3.8884
 30
0
 70
     0
  0
SEQEND
  0
POLYLINE
  8
MACK_MR
  6
CONTINUOUS
 62
     7
 66
     1
 40
0.0139
 41
0.0139
  0
VERTEX
  8
MACK_MR
 10
54.7073
 20
3.3884
 30
0
 70
     0
  0
VERTEX
  8
MACK_MR
 10
54.2073
 20
3.3884
 30
0
 70
     0
  0
SEQEND
  0
POLYLINE
  8
MACK_MR
  6
CONTINUOUS
 62
     7
 66
     1
 40
0.0139
 41
0.0139
  0
VERTEX
  8
MACK_MR
 10
53.8325
 20
6.5789
 30
0
 70
     0
  0
VERTEX
  8
MACK_MR
 10
53.9196
 20
6.3784
 30
0
 70
     0
  0
VERTEX
  8
MACK_MR
 10
53.9954
 20
6.1738
 30
0
 70
     0
  0
VERTEX
  8
MACK_MR
 10
54.0598
 20
5.9657
 30
0
 70
     0
  0
VERTEX
  8
MACK_MR
 10
54.1127
 20
5.7546
 30
0
 70
     0
  0
VERTEX
  8
MACK_MR
 10
54.154
 20
5.5409
 30
0
 70
     0
  0
VERTEX
  8
MACK_MR
 10
54.1836
 20
5.3251
 30
0
 70
     0
  0
VERTEX
  8
MACK_MR
 10
54.2014
 20
5.1077
 30
0
 70
     0
  0
VERTEX
  8
MACK_MR
 10
54.2073
 20
4.8892
 30
0
 70
     0
  0
SEQEND
  0
POLYLINE
  8
MACK_MR
  6
CONTINUOUS
 62
     7
 66
     1
 40
0.0139
 41
0.0139
  0
VERTEX
  8
MACK_MR
 10
30.7073
 20
-24.2248
 30
0
 70
     0
  0
VERTEX
  8
MACK_MR
 10
30.2073
 20
-24.2248
 30
0
 70
     0
  0
SEQEND
  0
POLYLINE
  8
MACK_MR
  6
CONTINUOUS
 62
     7
 66
     1
 40
0.0139
 41
0.0139
  0
VERTEX
  8
MACK_MR
 10
52.4198
 20
-24.2248
 30
0
 70
     0
  0
VERTEX
  8
MACK_MR
 10
30.9947
 20
-24.2248
 30
0
 70
     0
  0
SEQEND
  0
POLYLINE
  8
MACK_MR
  6
CONTINUOUS
 62
     7
 66
     1
 40
0.0139
 41
0.0139
  0
VERTEX
  8
MACK_MR
 10
55.8345
 20
-11.9748
 30
0
 70
     0
  0
VERTEX
  8
MACK_MR
 10
55.8345
 20
-23.9748
 30
0
 70
     0
  0
SEQEND
  0
POLYLINE
  8
MACK_MR
  6
CONTINUOUS
 62
     7
 66
     1
 40
0.0139
 41
0.0139
  0
VERTEX
  8
MACK_MR
 10
60.2073
 20
-11.9748
 30
0
 70
     0
  0
VERTEX
  8
MACK_MR
 10
60.2073
 20
-23.9748
 30
0
 70
     0
  0
SEQEND
  0
POLYLINE
  8
MACK_MR
  6
CONTINUOUS
 62
     7
 66
     1
 40
0.0139
 41
0.0139
  0
VERTEX
  8
MACK_MR
 10
55.8345
 20
-11.9748
 30
0
 70
     0
  0
VERTEX
  8
MACK_MR
 10
60.2073
 20
-11.9748
 30
0
 70
     0
  0
SEQEND
  0
POLYLINE
  8
MACK_MR
  6
CONTINUOUS
 62
     7
 66
     1
 40
0.0139
 41
0.0139
  0
VERTEX
  8
MACK_MR
 10
55.8345
 20
-23.9748
 30
0
 70
     0
  0
VERTEX
  8
MACK_MR
 10
60.2073
 20
-23.9748
 30
0
 70
     0
  0
SEQEND
  0
POLYLINE
  8
MACK_MR
  6
CONTINUOUS
 62
     7
 66
     1
 40
0.0139
 41
0.0139
  0
VERTEX
  8
MACK_MR
 10
-11.9854
 20
72.0752
 30
0
 70
     0
  0
VERTEX
  8
MACK_MR
 10
-11.9854
 20
21.175
 30
0
 70
     0
  0
SEQEND
  0
POLYLINE
  8
MACK_MR
  6
CONTINUOUS
 62
     7
 66
     1
 40
0.0139
 41
0.0139
  0
VERTEX
  8
MACK_MR
 10
-23.4854
 20
73.4768
 30
0
 70
     0
  0
VERTEX
  8
MACK_MR
 10
-18.9854
 20
75.5752
 30
0
 70
     0
  0
SEQEND
  0
POLYLINE
  8
MACK_MR
  6
CONTINUOUS
 62
     7
 66
     1
 40
0.0139
 41
0.0139
  0
VERTEX
  8
MACK_MR
 10
-23.4854
 20
72.0752
 30
0
 70
     0
  0
VERTEX
  8
MACK_MR
 10
-23.4854
 20
73.4768
 30
0
 70
     0
  0
SEQEND
  0
POLYLINE
  8
MACK_MR
  6
CONTINUOUS
 62
     7
 66
     1
 40
0.0139
 41
0.0139
  0
VERTEX
  8
MACK_MR
 10
36.0146
 20
53.7023
 30
0
 70
     0
  0
VERTEX
  8
MACK_MR
 10
36.0146
 20
54.6285
 30
0
 70
     0
  0
SEQEND
  0
POLYLINE
  8
MACK_MR
  6
CONTINUOUS
 62
     7
 66
     1
 40
0.0139
 41
0.0139
  0
VERTEX
  8
MACK_MR
 10
36.0146
 20
26.7297
 30
0
 70
     0
  0
VERTEX
  8
MACK_MR
 10
36.0146
 20
33.0806
 30
0
 70
     0
  0
SEQEND
  0
POLYLINE
  8
MACK_MR
  6
CONTINUOUS
 62
     7
 66
     1
 40
0.0139
 41
0.0139
  0
VERTEX
  8
MACK_MR
 10
36.0146
 20
33.9466
 30
0
 70
     0
  0
VERTEX
  8
MACK_MR
 10
36.0146
 20
52.7061
 30
0
 70
     0
  0
SEQEND
  0
POLYLINE
  8
MACK_MR
  6
CONTINUOUS
 62
     7
 66
     1
 40
0.0139
 41
0.0139
  0
VERTEX
  8
MACK_MR
 10
37.0146
 20
53.7023
 30
0
 70
     0
  0
VERTEX
  8
MACK_MR
 10
37.0146
 20
54.6285
 30
0
 70
     0
  0
SEQEND
  0
POLYLINE
  8
MACK_MR
  6
CONTINUOUS
 62
     7
 66
     1
 40
0.0139
 41
0.0139
  0
VERTEX
  8
MACK_MR
 10
37.0146
 20
52.7061
 30
0
 70
     0
  0
VERTEX
  8
MACK_MR
 10
37.0146
 20
53.6224
 30
0
 70
     0
  0
SEQEND
  0
POLYLINE
  8
MACK_MR
  6
CONTINUOUS
 62
     7
 66
     1
 40
0.0139
 41
0.0139
  0
VERTEX
  8
MACK_MR
 10
37.0146
 20
33.9466
 30
0
 70
     0
  0
VERTEX
  8
MACK_MR
 10
37.0146
 20
52.7061
 30
0
 70
     0
  0
SEQEND
  0
POLYLINE
  8
MACK_MR
  6
CONTINUOUS
 62
     7
 66
     1
 40
0.0139
 41
0.0139
  0
VERTEX
  8
MACK_MR
 10
37.0146
 20
33.0806
 30
0
 70
     0
  0
VERTEX
  8
MACK_MR
 10
37.0146
 20
33.3692
 30
0
 70
     0
  0
SEQEND
  0
POLYLINE
  8
MACK_MR
  6
CONTINUOUS
 62
     7
 66
     1
 40
0.0139
 41
0.0139
  0
VERTEX
  8
MACK_MR
 10
36.0146
 20
33.9466
 30
0
 70
     0
  0
VERTEX
  8
MACK_MR
 10
36.0146
 20
33.3692
 30
0
 70
     0
  0
SEQEND
  0
POLYLINE
  8
MACK_MR
  6
CONTINUOUS
 62
     7
 66
     1
 40
0.0139
 41
0.0139
  0
VERTEX
  8
MACK_MR
 10
7.0146
 20
12.896
 30
0
 70
     0
  0
VERTEX
  8
MACK_MR
 10
7.0146
 20
13.146
 30
0
 70
     0
  0
SEQEND
  0
POLYLINE
  8
MACK_MR
  6
CONTINUOUS
 62
     7
 66
     1
 40
0.0139
 41
0.0139
  0
VERTEX
  8
MACK_MR
 10
-18.9854
 20
21.1724
 30
0
 70
     0
  0
VERTEX
  8
MACK_MR
 10
-18.9854
 20
72.0752
 30
0
 70
     0
  0
SEQEND
  0
POLYLINE
  8
MACK_MR
  6
CONTINUOUS
 62
     7
 66
     1
 40
0.0139
 41
0.0139
  0
VERTEX
  8
MACK_MR
 10
-11.9854
 20
75.5752
 30
0
 70
     0
  0
VERTEX
  8
MACK_MR
 10
-7.4854
 20
73.4768
 30
0
 70
     0
  0
SEQEND
  0
POLYLINE
  8
MACK_MR
  6
CONTINUOUS
 62
     7
 66
     1
 40
0.0139
 41
0.0139
  0
VERTEX
  8
MACK_MR
 10
-7.4854
 20
73.4768
 30
0
 70
     0
  0
VERTEX
  8
MACK_MR
 10
-7.4854
 20
72.0752
 30
0
 70
     0
  0
SEQEND
  0
ENDSEC
  0
EOF
