  0
SECTION
  2
HEADER
  9
$ACADVER
  1
AC1006
  9
$AXISMODE
 70
     0
  9
$AXISUNIT
 10
0.125
 20
0.125
  9
$CECOLOR
 62
0
  9
$CELTYPE
  6
CONTINUOUS
  9
$CLAYER
  8
0
  9
$EXTMIN
 10
0
 20
0
  9
$EXTMAX
 10
34.6667
 20
22.4306
  9
$LIMMIN
 10
0
 20
0
  9
$LIMMAX
 10
34.6667
 20
22.4306
  9
$GRIDMODE
 70
     0
  9
$GRIDUNIT
 10
0.125
 20
0.125
  9
$MIRRTEXT
 70
     1
  9
$SNAPMODE
 70
     1
  9
$SNAPUNIT
 10
0.125
 20
0
  9
$SNAPSTYLE
 70
     0
  9
$SPLINESEGS
 70
     8
  9
$SPLINETYPE
 70
     6
  0
ENDSEC
  0
SECTION
  2
TABLES
  0
TABLE
  2
LTYPE
 70
     1
  0
LTYPE
  2
CONTINUOUS
 70
    64
  3
Descriptive Text
 72
    65
 73
     0
 40
0
  0
ENDTAB
  0
TABLE
  2
LAYER
 70
     2
  0
LAYER
  2
0
 70
     0
 62
     7
  6
CONTINUOUS
  0
LAYER
  2
SCANIA_P114_CB_6
 70
     0
 62
     7
  6
CONTINUOUS
  0
ENDTAB
  0
TABLE
  2
STYLE
 70
     1
  0
STYLE
  2
STANDARD
 70
    64
 40
0.0
 41
1.0
 50
0.0
 71
     0
 42
0.2
  3
txt
  4

  0
STYLE
  2
ARIAL
 70
    64
 40
0.0
 41
1.0
 50
0.0
 71
     0
 42
0.2
  3
arial
  4

  0
ENDTAB
  0
TABLE
  2
VIEW
 70
     0
  0
ENDTAB
  0
TABLE
  2
USC
 70
     0
  0
ENDTAB
  0
TABLE
  2
DWGMGR
 70
     0
  0
ENDTAB
  0
ENDSEC
  0
SECTION
  2
BLOCKS
  0
ENDSEC
  0
SECTION
  2
ENTITIES
  0
POLYLINE
  8
SCANIA_P114_CB_6
  6
CONTINUOUS
 62
     7
 66
     1
 40
0.0139
 41
0.0139
  0
VERTEX
  8
SCANIA_P114_CB_6
 10
0.0209
 20
-0.0127
 30
0
 70
     0
  0
VERTEX
  8
SCANIA_P114_CB_6
 10
0.0209
 20
-2.0285
 30
0
 70
     0
  0
SEQEND
  0
POLYLINE
  8
SCANIA_P114_CB_6
  6
CONTINUOUS
 62
     7
 66
     1
 40
0.0139
 41
0.0139
  0
VERTEX
  8
SCANIA_P114_CB_6
 10
111.2072
 20
-10.6426
 30
0
 70
     0
  0
VERTEX
  8
SCANIA_P114_CB_6
 10
24.4879
 20
-10.6426
 30
0
 70
     0
  0
SEQEND
  0
POLYLINE
  8
SCANIA_P114_CB_6
  6
CONTINUOUS
 62
     7
 66
     1
 40
0.0139
 41
0.0139
  0
VERTEX
  8
SCANIA_P114_CB_6
 10
34.765
 20
5.8928
 30
0
 70
     0
  0
VERTEX
  8
SCANIA_P114_CB_6
 10
34.7681
 20
5.7662
 30
0
 70
     0
  0
VERTEX
  8
SCANIA_P114_CB_6
 10
34.7775
 20
5.6412
 30
0
 70
     0
  0
VERTEX
  8
SCANIA_P114_CB_6
 10
34.7931
 20
5.5181
 30
0
 70
     0
  0
VERTEX
  8
SCANIA_P114_CB_6
 10
34.8147
 20
5.3969
 30
0
 70
     0
  0
VERTEX
  8
SCANIA_P114_CB_6
 10
34.8421
 20
5.2778
 30
0
 70
     0
  0
VERTEX
  8
SCANIA_P114_CB_6
 10
34.8752
 20
5.161
 30
0
 70
     0
  0
VERTEX
  8
SCANIA_P114_CB_6
 10
34.9138
 20
5.0467
 30
0
 70
     0
  0
VERTEX
  8
SCANIA_P114_CB_6
 10
34.9579
 20
4.9349
 30
0
 70
     0
  0
VERTEX
  8
SCANIA_P114_CB_6
 10
35.0071
 20
4.8259
 30
0
 70
     0
  0
VERTEX
  8
SCANIA_P114_CB_6
 10
35.0615
 20
4.7198
 30
0
 70
     0
  0
VERTEX
  8
SCANIA_P114_CB_6
 10
35.1207
 20
4.6167
 30
0
 70
     0
  0
VERTEX
  8
SCANIA_P114_CB_6
 10
35.1847
 20
4.5168
 30
0
 70
     0
  0
VERTEX
  8
SCANIA_P114_CB_6
 10
35.3264
 20
4.3274
 30
0
 70
     0
  0
VERTEX
  8
SCANIA_P114_CB_6
 10
35.4852
 20
4.1526
 30
0
 70
     0
  0
VERTEX
  8
SCANIA_P114_CB_6
 10
35.66
 20
3.9937
 30
0
 70
     0
  0
VERTEX
  8
SCANIA_P114_CB_6
 10
35.8494
 20
3.852
 30
0
 70
     0
  0
VERTEX
  8
SCANIA_P114_CB_6
 10
35.9493
 20
3.788
 30
0
 70
     0
  0
VERTEX
  8
SCANIA_P114_CB_6
 10
36.0524
 20
3.7288
 30
0
 70
     0
  0
VERTEX
  8
SCANIA_P114_CB_6
 10
36.1585
 20
3.6744
 30
0
 70
     0
  0
VERTEX
  8
SCANIA_P114_CB_6
 10
36.2675
 20
3.6252
 30
0
 70
     0
  0
VERTEX
  8
SCANIA_P114_CB_6
 10
36.3793
 20
3.5811
 30
0
 70
     0
  0
VERTEX
  8
SCANIA_P114_CB_6
 10
36.4936
 20
3.5425
 30
0
 70
     0
  0
VERTEX
  8
SCANIA_P114_CB_6
 10
36.6104
 20
3.5093
 30
0
 70
     0
  0
VERTEX
  8
SCANIA_P114_CB_6
 10
36.7295
 20
3.4819
 30
0
 70
     0
  0
VERTEX
  8
SCANIA_P114_CB_6
 10
36.8507
 20
3.4603
 30
0
 70
     0
  0
VERTEX
  8
SCANIA_P114_CB_6
 10
36.9738
 20
3.4447
 30
0
 70
     0
  0
VERTEX
  8
SCANIA_P114_CB_6
 10
37.0988
 20
3.4353
 30
0
 70
     0
  0
VERTEX
  8
SCANIA_P114_CB_6
 10
37.2254
 20
3.4322
 30
0
 70
     0
  0
VERTEX
  8
SCANIA_P114_CB_6
 10
37.2254
 20
3.4322
 30
0
 70
     0
  0
VERTEX
  8
SCANIA_P114_CB_6
 10
37.352
 20
3.4353
 30
0
 70
     0
  0
VERTEX
  8
SCANIA_P114_CB_6
 10
37.477
 20
3.4447
 30
0
 70
     0
  0
VERTEX
  8
SCANIA_P114_CB_6
 10
37.6001
 20
3.4602
 30
0
 70
     0
  0
VERTEX
  8
SCANIA_P114_CB_6
 10
37.7213
 20
3.4818
 30
0
 70
     0
  0
VERTEX
  8
SCANIA_P114_CB_6
 10
37.8404
 20
3.5092
 30
0
 70
     0
  0
VERTEX
  8
SCANIA_P114_CB_6
 10
37.9572
 20
3.5423
 30
0
 70
     0
  0
VERTEX
  8
SCANIA_P114_CB_6
 10
38.0715
 20
3.581
 30
0
 70
     0
  0
VERTEX
  8
SCANIA_P114_CB_6
 10
38.1833
 20
3.625
 30
0
 70
     0
  0
VERTEX
  8
SCANIA_P114_CB_6
 10
38.2923
 20
3.6742
 30
0
 70
     0
  0
VERTEX
  8
SCANIA_P114_CB_6
 10
38.3984
 20
3.7285
 30
0
 70
     0
  0
VERTEX
  8
SCANIA_P114_CB_6
 10
38.5015
 20
3.7878
 30
0
 70
     0
  0
VERTEX
  8
SCANIA_P114_CB_6
 10
38.6014
 20
3.8518
 30
0
 70
     0
  0
VERTEX
  8
SCANIA_P114_CB_6
 10
38.7909
 20
3.9934
 30
0
 70
     0
  0
VERTEX
  8
SCANIA_P114_CB_6
 10
38.9657
 20
4.1522
 30
0
 70
     0
  0
VERTEX
  8
SCANIA_P114_CB_6
 10
39.1246
 20
4.327
 30
0
 70
     0
  0
VERTEX
  8
SCANIA_P114_CB_6
 10
39.2663
 20
4.5165
 30
0
 70
     0
  0
VERTEX
  8
SCANIA_P114_CB_6
 10
39.3303
 20
4.6163
 30
0
 70
     0
  0
VERTEX
  8
SCANIA_P114_CB_6
 10
39.3896
 20
4.7194
 30
0
 70
     0
  0
VERTEX
  8
SCANIA_P114_CB_6
 10
39.4439
 20
4.8255
 30
0
 70
     0
  0
VERTEX
  8
SCANIA_P114_CB_6
 10
39.4932
 20
4.9345
 30
0
 70
     0
  0
VERTEX
  8
SCANIA_P114_CB_6
 10
39.5372
 20
5.0463
 30
0
 70
     0
  0
VERTEX
  8
SCANIA_P114_CB_6
 10
39.5759
 20
5.1606
 30
0
 70
     0
  0
VERTEX
  8
SCANIA_P114_CB_6
 10
39.609
 20
5.2774
 30
0
 70
     0
  0
VERTEX
  8
SCANIA_P114_CB_6
 10
39.6365
 20
5.3964
 30
0
 70
     0
  0
VERTEX
  8
SCANIA_P114_CB_6
 10
39.6581
 20
5.5176
 30
0
 70
     0
  0
VERTEX
  8
SCANIA_P114_CB_6
 10
39.6737
 20
5.6408
 30
0
 70
     0
  0
VERTEX
  8
SCANIA_P114_CB_6
 10
39.6831
 20
5.7657
 30
0
 70
     0
  0
VERTEX
  8
SCANIA_P114_CB_6
 10
39.6862
 20
5.8924
 30
0
 70
     0
  0
SEQEND
  0
POLYLINE
  8
SCANIA_P114_CB_6
  6
CONTINUOUS
 62
     7
 66
     1
 40
0.0139
 41
0.0139
  0
VERTEX
  8
SCANIA_P114_CB_6
 10
39.6862
 20
9.8298
 30
0
 70
     0
  0
VERTEX
  8
SCANIA_P114_CB_6
 10
39.6862
 20
14.7373
 30
0
 70
     0
  0
SEQEND
  0
POLYLINE
  8
SCANIA_P114_CB_6
  6
CONTINUOUS
 62
     7
 66
     1
 40
0.0139
 41
0.0139
  0
VERTEX
  8
SCANIA_P114_CB_6
 10
39.6862
 20
63.7373
 30
0
 70
     0
  0
VERTEX
  8
SCANIA_P114_CB_6
 10
39.6862
 20
84.633
 30
0
 70
     0
  0
SEQEND
  0
POLYLINE
  8
SCANIA_P114_CB_6
  6
CONTINUOUS
 62
     7
 66
     1
 40
0.0139
 41
0.0139
  0
VERTEX
  8
SCANIA_P114_CB_6
 10
39.6862
 20
-0.0127
 30
0
 70
     0
  0
VERTEX
  8
SCANIA_P114_CB_6
 10
39.6862
 20
1.9558
 30
0
 70
     0
  0
SEQEND
  0
POLYLINE
  8
SCANIA_P114_CB_6
  6
CONTINUOUS
 62
     7
 66
     1
 40
0.0139
 41
0.0139
  0
VERTEX
  8
SCANIA_P114_CB_6
 10
21.508
 20
-10.6426
 30
0
 70
     0
  0
VERTEX
  8
SCANIA_P114_CB_6
 10
16.94
 20
-10.6426
 30
0
 70
     0
  0
SEQEND
  0
POLYLINE
  8
SCANIA_P114_CB_6
  6
CONTINUOUS
 62
     7
 66
     1
 40
0.0139
 41
0.0139
  0
VERTEX
  8
SCANIA_P114_CB_6
 10
34.765
 20
84.633
 30
0
 70
     0
  0
VERTEX
  8
SCANIA_P114_CB_6
 10
34.765
 20
63.7373
 30
0
 70
     0
  0
SEQEND
  0
POLYLINE
  8
SCANIA_P114_CB_6
  6
CONTINUOUS
 62
     7
 66
     1
 40
0.0139
 41
0.0139
  0
VERTEX
  8
SCANIA_P114_CB_6
 10
34.765
 20
14.7373
 30
0
 70
     0
  0
VERTEX
  8
SCANIA_P114_CB_6
 10
34.765
 20
9.8298
 30
0
 70
     0
  0
SEQEND
  0
POLYLINE
  8
SCANIA_P114_CB_6
  6
CONTINUOUS
 62
     7
 66
     1
 40
0.0139
 41
0.0139
  0
VERTEX
  8
SCANIA_P114_CB_6
 10
34.765
 20
1.9558
 30
0
 70
     0
  0
VERTEX
  8
SCANIA_P114_CB_6
 10
34.765
 20
-0.0127
 30
0
 70
     0
  0
SEQEND
  0
POLYLINE
  8
SCANIA_P114_CB_6
  6
CONTINUOUS
 62
     7
 66
     1
 40
0.0139
 41
0.0139
  0
VERTEX
  8
SCANIA_P114_CB_6
 10
-48.0106
 20
28.8794
 30
0
 70
     0
  0
VERTEX
  8
SCANIA_P114_CB_6
 10
-47.8046
 20
28.8062
 30
0
 70
     0
  0
SEQEND
  0
POLYLINE
  8
SCANIA_P114_CB_6
  6
CONTINUOUS
 62
     7
 66
     1
 40
0.0139
 41
0.0139
  0
VERTEX
  8
SCANIA_P114_CB_6
 10
-49.9791
 20
59.7117
 30
0
 70
     0
  0
VERTEX
  8
SCANIA_P114_CB_6
 10
-40.1366
 20
59.7117
 30
0
 70
     0
  0
SEQEND
  0
POLYLINE
  8
SCANIA_P114_CB_6
  6
CONTINUOUS
 62
     7
 66
     1
 40
0.0139
 41
0.0139
  0
VERTEX
  8
SCANIA_P114_CB_6
 10
-53.9161
 20
59.7117
 30
0
 70
     0
  0
VERTEX
  8
SCANIA_P114_CB_6
 10
-49.9791
 20
59.7117
 30
0
 70
     0
  0
SEQEND
  0
POLYLINE
  8
SCANIA_P114_CB_6
  6
CONTINUOUS
 62
     7
 66
     1
 40
0.0139
 41
0.0139
  0
VERTEX
  8
SCANIA_P114_CB_6
 10
-40.1366
 20
59.7117
 30
0
 70
     0
  0
VERTEX
  8
SCANIA_P114_CB_6
 10
-40.1366
 20
58.9243
 30
0
 70
     0
  0
SEQEND
  0
POLYLINE
  8
SCANIA_P114_CB_6
  6
CONTINUOUS
 62
     7
 66
     1
 40
0.0139
 41
0.0139
  0
VERTEX
  8
SCANIA_P114_CB_6
 10
-55.5101
 20
10.8942
 30
0
 70
     0
  0
VERTEX
  8
SCANIA_P114_CB_6
 10
-56.0938
 20
10.9044
 30
0
 70
     0
  0
SEQEND
  0
POLYLINE
  8
SCANIA_P114_CB_6
  6
CONTINUOUS
 62
     7
 66
     1
 40
0.0139
 41
0.0139
  0
VERTEX
  8
SCANIA_P114_CB_6
 10
-56.032
 20
14.4477
 30
0
 70
     0
  0
VERTEX
  8
SCANIA_P114_CB_6
 10
-56.0869
 20
11.298
 30
0
 70
     0
  0
SEQEND
  0
POLYLINE
  8
SCANIA_P114_CB_6
  6
CONTINUOUS
 62
     7
 66
     1
 40
0.0139
 41
0.0139
  0
VERTEX
  8
SCANIA_P114_CB_6
 10
-56.0869
 20
11.298
 30
0
 70
     0
  0
VERTEX
  8
SCANIA_P114_CB_6
 10
-55.5032
 20
11.2878
 30
0
 70
     0
  0
SEQEND
  0
POLYLINE
  8
SCANIA_P114_CB_6
  6
CONTINUOUS
 62
     7
 66
     1
 40
0.0139
 41
0.0139
  0
VERTEX
  8
SCANIA_P114_CB_6
 10
-56.0251
 20
14.8414
 30
0
 70
     0
  0
VERTEX
  8
SCANIA_P114_CB_6
 10
-56.1046
 20
14.8348
 30
0
 70
     0
  0
VERTEX
  8
SCANIA_P114_CB_6
 10
-56.1789
 20
14.8132
 30
0
 70
     0
  0
VERTEX
  8
SCANIA_P114_CB_6
 10
-56.2464
 20
14.7781
 30
0
 70
     0
  0
VERTEX
  8
SCANIA_P114_CB_6
 10
-56.3055
 20
14.731
 30
0
 70
     0
  0
VERTEX
  8
SCANIA_P114_CB_6
 10
-56.3546
 20
14.6736
 30
0
 70
     0
  0
VERTEX
  8
SCANIA_P114_CB_6
 10
-56.3921
 20
14.6073
 30
0
 70
     0
  0
VERTEX
  8
SCANIA_P114_CB_6
 10
-56.4163
 20
14.5338
 30
0
 70
     0
  0
VERTEX
  8
SCANIA_P114_CB_6
 10
-56.4256
 20
14.4546
 30
0
 70
     0
  0
SEQEND
  0
POLYLINE
  8
SCANIA_P114_CB_6
  6
CONTINUOUS
 62
     7
 66
     1
 40
0.0139
 41
0.0139
  0
VERTEX
  8
SCANIA_P114_CB_6
 10
-55.4482
 20
14.4375
 30
0
 70
     0
  0
VERTEX
  8
SCANIA_P114_CB_6
 10
-56.032
 20
14.4477
 30
0
 70
     0
  0
SEQEND
  0
POLYLINE
  8
SCANIA_P114_CB_6
  6
CONTINUOUS
 62
     7
 66
     1
 40
0.0139
 41
0.0139
  0
VERTEX
  8
SCANIA_P114_CB_6
 10
-56.0251
 20
14.8414
 30
0
 70
     0
  0
VERTEX
  8
SCANIA_P114_CB_6
 10
-55.4414
 20
14.8312
 30
0
 70
     0
  0
SEQEND
  0
POLYLINE
  8
SCANIA_P114_CB_6
  6
CONTINUOUS
 62
     7
 66
     1
 40
0.0139
 41
0.0139
  0
VERTEX
  8
SCANIA_P114_CB_6
 10
-56.4806
 20
11.3049
 30
0
 70
     0
  0
VERTEX
  8
SCANIA_P114_CB_6
 10
-56.4256
 20
14.4546
 30
0
 70
     0
  0
SEQEND
  0
POLYLINE
  8
SCANIA_P114_CB_6
  6
CONTINUOUS
 62
     7
 66
     1
 40
0.0139
 41
0.0139
  0
VERTEX
  8
SCANIA_P114_CB_6
 10
-56.4806
 20
11.3049
 30
0
 70
     0
  0
VERTEX
  8
SCANIA_P114_CB_6
 10
-56.474
 20
11.2254
 30
0
 70
     0
  0
VERTEX
  8
SCANIA_P114_CB_6
 10
-56.4524
 20
11.1511
 30
0
 70
     0
  0
VERTEX
  8
SCANIA_P114_CB_6
 10
-56.4173
 20
11.0836
 30
0
 70
     0
  0
VERTEX
  8
SCANIA_P114_CB_6
 10
-56.3703
 20
11.0245
 30
0
 70
     0
  0
VERTEX
  8
SCANIA_P114_CB_6
 10
-56.3128
 20
10.9754
 30
0
 70
     0
  0
VERTEX
  8
SCANIA_P114_CB_6
 10
-56.2466
 20
10.9379
 30
0
 70
     0
  0
VERTEX
  8
SCANIA_P114_CB_6
 10
-56.1731
 20
10.9137
 30
0
 70
     0
  0
VERTEX
  8
SCANIA_P114_CB_6
 10
-56.094
 20
10.9044
 30
0
 70
     0
  0
SEQEND
  0
POLYLINE
  8
SCANIA_P114_CB_6
  6
CONTINUOUS
 62
     7
 66
     1
 40
0.0139
 41
0.0139
  0
VERTEX
  8
SCANIA_P114_CB_6
 10
-56.3925
 20
-6.2057
 30
0
 70
     0
  0
VERTEX
  8
SCANIA_P114_CB_6
 10
-55.8087
 20
-6.2159
 30
0
 70
     0
  0
SEQEND
  0
POLYLINE
  8
SCANIA_P114_CB_6
  6
CONTINUOUS
 62
     7
 66
     1
 40
0.0139
 41
0.0139
  0
VERTEX
  8
SCANIA_P114_CB_6
 10
-56.3375
 20
-3.056
 30
0
 70
     0
  0
VERTEX
  8
SCANIA_P114_CB_6
 10
-56.3925
 20
-6.2057
 30
0
 70
     0
  0
SEQEND
  0
POLYLINE
  8
SCANIA_P114_CB_6
  6
CONTINUOUS
 62
     7
 66
     1
 40
0.0139
 41
0.0139
  0
VERTEX
  8
SCANIA_P114_CB_6
 10
-55.7538
 20
-3.0662
 30
0
 70
     0
  0
VERTEX
  8
SCANIA_P114_CB_6
 10
-56.3375
 20
-3.056
 30
0
 70
     0
  0
SEQEND
  0
POLYLINE
  8
SCANIA_P114_CB_6
  6
CONTINUOUS
 62
     7
 66
     1
 40
0.0139
 41
0.0139
  0
VERTEX
  8
SCANIA_P114_CB_6
 10
-56.3306
 20
-2.6624
 30
0
 70
     0
  0
VERTEX
  8
SCANIA_P114_CB_6
 10
-55.7469
 20
-2.6726
 30
0
 70
     0
  0
SEQEND
  0
POLYLINE
  8
SCANIA_P114_CB_6
  6
CONTINUOUS
 62
     7
 66
     1
 40
0.0139
 41
0.0139
  0
VERTEX
  8
SCANIA_P114_CB_6
 10
-56.2311
 20
3.0411
 30
0
 70
     0
  0
VERTEX
  8
SCANIA_P114_CB_6
 10
-55.6473
 20
3.031
 30
0
 70
     0
  0
SEQEND
  0
POLYLINE
  8
SCANIA_P114_CB_6
  6
CONTINUOUS
 62
     7
 66
     1
 40
0.0139
 41
0.0139
  0
VERTEX
  8
SCANIA_P114_CB_6
 10
-55.8156
 20
-6.6096
 30
0
 70
     0
  0
VERTEX
  8
SCANIA_P114_CB_6
 10
-56.3993
 20
-6.5994
 30
0
 70
     0
  0
SEQEND
  0
POLYLINE
  8
SCANIA_P114_CB_6
  6
CONTINUOUS
 62
     7
 66
     1
 40
0.0139
 41
0.0139
  0
VERTEX
  8
SCANIA_P114_CB_6
 10
-56.7861
 20
-6.1989
 30
0
 70
     0
  0
VERTEX
  8
SCANIA_P114_CB_6
 10
-56.7796
 20
-6.2783
 30
0
 70
     0
  0
VERTEX
  8
SCANIA_P114_CB_6
 10
-56.7579
 20
-6.3526
 30
0
 70
     0
  0
VERTEX
  8
SCANIA_P114_CB_6
 10
-56.7228
 20
-6.4201
 30
0
 70
     0
  0
VERTEX
  8
SCANIA_P114_CB_6
 10
-56.6758
 20
-6.4792
 30
0
 70
     0
  0
VERTEX
  8
SCANIA_P114_CB_6
 10
-56.6184
 20
-6.5283
 30
0
 70
     0
  0
VERTEX
  8
SCANIA_P114_CB_6
 10
-56.5521
 20
-6.5658
 30
0
 70
     0
  0
VERTEX
  8
SCANIA_P114_CB_6
 10
-56.4787
 20
-6.59
 30
0
 70
     0
  0
VERTEX
  8
SCANIA_P114_CB_6
 10
-56.3995
 20
-6.5994
 30
0
 70
     0
  0
SEQEND
  0
POLYLINE
  8
SCANIA_P114_CB_6
  6
CONTINUOUS
 62
     7
 66
     1
 40
0.0139
 41
0.0139
  0
VERTEX
  8
SCANIA_P114_CB_6
 10
-56.3306
 20
-2.6624
 30
0
 70
     0
  0
VERTEX
  8
SCANIA_P114_CB_6
 10
-56.4101
 20
-2.6689
 30
0
 70
     0
  0
VERTEX
  8
SCANIA_P114_CB_6
 10
-56.4844
 20
-2.6906
 30
0
 70
     0
  0
VERTEX
  8
SCANIA_P114_CB_6
 10
-56.5519
 20
-2.7257
 30
0
 70
     0
  0
VERTEX
  8
SCANIA_P114_CB_6
 10
-56.611
 20
-2.7728
 30
0
 70
     0
  0
VERTEX
  8
SCANIA_P114_CB_6
 10
-56.6601
 20
-2.8302
 30
0
 70
     0
  0
VERTEX
  8
SCANIA_P114_CB_6
 10
-56.6976
 20
-2.8964
 30
0
 70
     0
  0
VERTEX
  8
SCANIA_P114_CB_6
 10
-56.7218
 20
-2.9699
 30
0
 70
     0
  0
VERTEX
  8
SCANIA_P114_CB_6
 10
-56.7311
 20
-3.0492
 30
0
 70
     0
  0
SEQEND
  0
POLYLINE
  8
SCANIA_P114_CB_6
  6
CONTINUOUS
 62
     7
 66
     1
 40
0.0139
 41
0.0139
  0
VERTEX
  8
SCANIA_P114_CB_6
 10
-56.7861
 20
-6.1989
 30
0
 70
     0
  0
VERTEX
  8
SCANIA_P114_CB_6
 10
-56.7311
 20
-3.0492
 30
0
 70
     0
  0
SEQEND
  0
POLYLINE
  8
SCANIA_P114_CB_6
  6
CONTINUOUS
 62
     7
 66
     1
 40
0.0139
 41
0.0139
  0
VERTEX
  8
SCANIA_P114_CB_6
 10
-56.2929
 20
-0.5022
 30
0
 70
     0
  0
VERTEX
  8
SCANIA_P114_CB_6
 10
-55.7092
 20
-0.5124
 30
0
 70
     0
  0
SEQEND
  0
POLYLINE
  8
SCANIA_P114_CB_6
  6
CONTINUOUS
 62
     7
 66
     1
 40
0.0139
 41
0.0139
  0
VERTEX
  8
SCANIA_P114_CB_6
 10
-55.6542
 20
2.6373
 30
0
 70
     0
  0
VERTEX
  8
SCANIA_P114_CB_6
 10
-56.2379
 20
2.6475
 30
0
 70
     0
  0
SEQEND
  0
POLYLINE
  8
SCANIA_P114_CB_6
  6
CONTINUOUS
 62
     7
 66
     1
 40
0.0139
 41
0.0139
  0
VERTEX
  8
SCANIA_P114_CB_6
 10
-56.2311
 20
3.0411
 30
0
 70
     0
  0
VERTEX
  8
SCANIA_P114_CB_6
 10
-56.3105
 20
3.0346
 30
0
 70
     0
  0
VERTEX
  8
SCANIA_P114_CB_6
 10
-56.3849
 20
3.013
 30
0
 70
     0
  0
VERTEX
  8
SCANIA_P114_CB_6
 10
-56.4524
 20
2.9778
 30
0
 70
     0
  0
VERTEX
  8
SCANIA_P114_CB_6
 10
-56.5115
 20
2.9308
 30
0
 70
     0
  0
VERTEX
  8
SCANIA_P114_CB_6
 10
-56.5606
 20
2.8733
 30
0
 70
     0
  0
VERTEX
  8
SCANIA_P114_CB_6
 10
-56.598
 20
2.8071
 30
0
 70
     0
  0
VERTEX
  8
SCANIA_P114_CB_6
 10
-56.6222
 20
2.7336
 30
0
 70
     0
  0
VERTEX
  8
SCANIA_P114_CB_6
 10
-56.6316
 20
2.6544
 30
0
 70
     0
  0
SEQEND
  0
POLYLINE
  8
SCANIA_P114_CB_6
  6
CONTINUOUS
 62
     7
 66
     1
 40
0.0139
 41
0.0139
  0
VERTEX
  8
SCANIA_P114_CB_6
 10
-56.6866
 20
-0.4954
 30
0
 70
     0
  0
VERTEX
  8
SCANIA_P114_CB_6
 10
-56.6316
 20
2.6544
 30
0
 70
     0
  0
SEQEND
  0
POLYLINE
  8
SCANIA_P114_CB_6
  6
CONTINUOUS
 62
     7
 66
     1
 40
0.0139
 41
0.0139
  0
VERTEX
  8
SCANIA_P114_CB_6
 10
-56.2379
 20
2.6475
 30
0
 70
     0
  0
VERTEX
  8
SCANIA_P114_CB_6
 10
-56.2929
 20
-0.5022
 30
0
 70
     0
  0
SEQEND
  0
POLYLINE
  8
SCANIA_P114_CB_6
  6
CONTINUOUS
 62
     7
 66
     1
 40
0.0139
 41
0.0139
  0
VERTEX
  8
SCANIA_P114_CB_6
 10
-55.716
 20
-0.9061
 30
0
 70
     0
  0
VERTEX
  8
SCANIA_P114_CB_6
 10
-56.2998
 20
-0.8959
 30
0
 70
     0
  0
SEQEND
  0
POLYLINE
  8
SCANIA_P114_CB_6
  6
CONTINUOUS
 62
     7
 66
     1
 40
0.0139
 41
0.0139
  0
VERTEX
  8
SCANIA_P114_CB_6
 10
-56.6866
 20
-0.4954
 30
0
 70
     0
  0
VERTEX
  8
SCANIA_P114_CB_6
 10
-56.68
 20
-0.5748
 30
0
 70
     0
  0
VERTEX
  8
SCANIA_P114_CB_6
 10
-56.6584
 20
-0.6491
 30
0
 70
     0
  0
VERTEX
  8
SCANIA_P114_CB_6
 10
-56.6233
 20
-0.7166
 30
0
 70
     0
  0
VERTEX
  8
SCANIA_P114_CB_6
 10
-56.5762
 20
-0.7757
 30
0
 70
     0
  0
VERTEX
  8
SCANIA_P114_CB_6
 10
-56.5188
 20
-0.8248
 30
0
 70
     0
  0
VERTEX
  8
SCANIA_P114_CB_6
 10
-56.4526
 20
-0.8623
 30
0
 70
     0
  0
VERTEX
  8
SCANIA_P114_CB_6
 10
-56.3791
 20
-0.8865
 30
0
 70
     0
  0
VERTEX
  8
SCANIA_P114_CB_6
 10
-56.2999
 20
-0.8959
 30
0
 70
     0
  0
SEQEND
  0
POLYLINE
  8
SCANIA_P114_CB_6
  6
CONTINUOUS
 62
     7
 66
     1
 40
0.0139
 41
0.0139
  0
VERTEX
  8
SCANIA_P114_CB_6
 10
-56.5823
 20
5.479
 30
0
 70
     0
  0
VERTEX
  8
SCANIA_P114_CB_6
 10
-56.5273
 20
8.6287
 30
0
 70
     0
  0
SEQEND
  0
POLYLINE
  8
SCANIA_P114_CB_6
  6
CONTINUOUS
 62
     7
 66
     1
 40
0.0139
 41
0.0139
  0
VERTEX
  8
SCANIA_P114_CB_6
 10
-55.6118
 20
5.0683
 30
0
 70
     0
  0
VERTEX
  8
SCANIA_P114_CB_6
 10
-56.1955
 20
5.0785
 30
0
 70
     0
  0
SEQEND
  0
POLYLINE
  8
SCANIA_P114_CB_6
  6
CONTINUOUS
 62
     7
 66
     1
 40
0.0139
 41
0.0139
  0
VERTEX
  8
SCANIA_P114_CB_6
 10
-56.1268
 20
9.0155
 30
0
 70
     0
  0
VERTEX
  8
SCANIA_P114_CB_6
 10
-56.2063
 20
9.0089
 30
0
 70
     0
  0
VERTEX
  8
SCANIA_P114_CB_6
 10
-56.2806
 20
8.9873
 30
0
 70
     0
  0
VERTEX
  8
SCANIA_P114_CB_6
 10
-56.3481
 20
8.9522
 30
0
 70
     0
  0
VERTEX
  8
SCANIA_P114_CB_6
 10
-56.4072
 20
8.9051
 30
0
 70
     0
  0
VERTEX
  8
SCANIA_P114_CB_6
 10
-56.4563
 20
8.8477
 30
0
 70
     0
  0
VERTEX
  8
SCANIA_P114_CB_6
 10
-56.4938
 20
8.7814
 30
0
 70
     0
  0
VERTEX
  8
SCANIA_P114_CB_6
 10
-56.518
 20
8.7079
 30
0
 70
     0
  0
VERTEX
  8
SCANIA_P114_CB_6
 10
-56.5273
 20
8.6287
 30
0
 70
     0
  0
SEQEND
  0
POLYLINE
  8
SCANIA_P114_CB_6
  6
CONTINUOUS
 62
     7
 66
     1
 40
0.0139
 41
0.0139
  0
VERTEX
  8
SCANIA_P114_CB_6
 10
-56.1268
 20
9.0155
 30
0
 70
     0
  0
VERTEX
  8
SCANIA_P114_CB_6
 10
-55.543
 20
9.0053
 30
0
 70
     0
  0
SEQEND
  0
POLYLINE
  8
SCANIA_P114_CB_6
  6
CONTINUOUS
 62
     7
 66
     1
 40
0.0139
 41
0.0139
  0
VERTEX
  8
SCANIA_P114_CB_6
 10
-56.5823
 20
5.479
 30
0
 70
     0
  0
VERTEX
  8
SCANIA_P114_CB_6
 10
-56.5757
 20
5.3995
 30
0
 70
     0
  0
VERTEX
  8
SCANIA_P114_CB_6
 10
-56.5541
 20
5.3252
 30
0
 70
     0
  0
VERTEX
  8
SCANIA_P114_CB_6
 10
-56.519
 20
5.2577
 30
0
 70
     0
  0
VERTEX
  8
SCANIA_P114_CB_6
 10
-56.472
 20
5.1986
 30
0
 70
     0
  0
VERTEX
  8
SCANIA_P114_CB_6
 10
-56.4145
 20
5.1495
 30
0
 70
     0
  0
VERTEX
  8
SCANIA_P114_CB_6
 10
-56.3483
 20
5.1121
 30
0
 70
     0
  0
VERTEX
  8
SCANIA_P114_CB_6
 10
-56.2748
 20
5.0878
 30
0
 70
     0
  0
VERTEX
  8
SCANIA_P114_CB_6
 10
-56.1956
 20
5.0785
 30
0
 70
     0
  0
SEQEND
  0
POLYLINE
  8
SCANIA_P114_CB_6
  6
CONTINUOUS
 62
     7
 66
     1
 40
0.0139
 41
0.0139
  0
VERTEX
  8
SCANIA_P114_CB_6
 10
-55.5499
 20
8.6117
 30
0
 70
     0
  0
VERTEX
  8
SCANIA_P114_CB_6
 10
-56.1337
 20
8.6219
 30
0
 70
     0
  0
SEQEND
  0
POLYLINE
  8
SCANIA_P114_CB_6
  6
CONTINUOUS
 62
     7
 66
     1
 40
0.0139
 41
0.0139
  0
VERTEX
  8
SCANIA_P114_CB_6
 10
-56.1337
 20
8.6219
 30
0
 70
     0
  0
VERTEX
  8
SCANIA_P114_CB_6
 10
-56.1886
 20
5.4721
 30
0
 70
     0
  0
SEQEND
  0
POLYLINE
  8
SCANIA_P114_CB_6
  6
CONTINUOUS
 62
     7
 66
     1
 40
0.0139
 41
0.0139
  0
VERTEX
  8
SCANIA_P114_CB_6
 10
-56.1886
 20
5.4721
 30
0
 70
     0
  0
VERTEX
  8
SCANIA_P114_CB_6
 10
-55.6049
 20
5.4619
 30
0
 70
     0
  0
SEQEND
  0
POLYLINE
  8
SCANIA_P114_CB_6
  6
CONTINUOUS
 62
     7
 66
     1
 40
0.0139
 41
0.0139
  0
VERTEX
  8
SCANIA_P114_CB_6
 10
-56.2311
 20
3.0411
 30
0
 70
     0
  0
VERTEX
  8
SCANIA_P114_CB_6
 10
-56.2379
 20
2.6475
 30
0
 70
     0
  0
SEQEND
  0
POLYLINE
  8
SCANIA_P114_CB_6
  6
CONTINUOUS
 62
     7
 66
     1
 40
0.0139
 41
0.0139
  0
VERTEX
  8
SCANIA_P114_CB_6
 10
-56.5273
 20
8.6287
 30
0
 70
     0
  0
VERTEX
  8
SCANIA_P114_CB_6
 10
-56.1337
 20
8.6219
 30
0
 70
     0
  0
SEQEND
  0
POLYLINE
  8
SCANIA_P114_CB_6
  6
CONTINUOUS
 62
     7
 66
     1
 40
0.0139
 41
0.0139
  0
VERTEX
  8
SCANIA_P114_CB_6
 10
-56.1268
 20
9.0155
 30
0
 70
     0
  0
VERTEX
  8
SCANIA_P114_CB_6
 10
-56.1337
 20
8.6219
 30
0
 70
     0
  0
SEQEND
  0
POLYLINE
  8
SCANIA_P114_CB_6
  6
CONTINUOUS
 62
     7
 66
     1
 40
0.0139
 41
0.0139
  0
VERTEX
  8
SCANIA_P114_CB_6
 10
-56.1955
 20
5.0785
 30
0
 70
     0
  0
VERTEX
  8
SCANIA_P114_CB_6
 10
-56.1886
 20
5.4721
 30
0
 70
     0
  0
SEQEND
  0
POLYLINE
  8
SCANIA_P114_CB_6
  6
CONTINUOUS
 62
     7
 66
     1
 40
0.0139
 41
0.0139
  0
VERTEX
  8
SCANIA_P114_CB_6
 10
-56.5823
 20
5.479
 30
0
 70
     0
  0
VERTEX
  8
SCANIA_P114_CB_6
 10
-56.1886
 20
5.4721
 30
0
 70
     0
  0
SEQEND
  0
POLYLINE
  8
SCANIA_P114_CB_6
  6
CONTINUOUS
 62
     7
 66
     1
 40
0.0139
 41
0.0139
  0
VERTEX
  8
SCANIA_P114_CB_6
 10
-56.6316
 20
2.6544
 30
0
 70
     0
  0
VERTEX
  8
SCANIA_P114_CB_6
 10
-56.2379
 20
2.6475
 30
0
 70
     0
  0
SEQEND
  0
POLYLINE
  8
SCANIA_P114_CB_6
  6
CONTINUOUS
 62
     7
 66
     1
 40
0.0139
 41
0.0139
  0
VERTEX
  8
SCANIA_P114_CB_6
 10
-56.2998
 20
-0.8959
 30
0
 70
     0
  0
VERTEX
  8
SCANIA_P114_CB_6
 10
-56.2929
 20
-0.5022
 30
0
 70
     0
  0
SEQEND
  0
POLYLINE
  8
SCANIA_P114_CB_6
  6
CONTINUOUS
 62
     7
 66
     1
 40
0.0139
 41
0.0139
  0
VERTEX
  8
SCANIA_P114_CB_6
 10
-56.6866
 20
-0.4954
 30
0
 70
     0
  0
VERTEX
  8
SCANIA_P114_CB_6
 10
-56.2929
 20
-0.5022
 30
0
 70
     0
  0
SEQEND
  0
POLYLINE
  8
SCANIA_P114_CB_6
  6
CONTINUOUS
 62
     7
 66
     1
 40
0.0139
 41
0.0139
  0
VERTEX
  8
SCANIA_P114_CB_6
 10
-56.3993
 20
-6.5994
 30
0
 70
     0
  0
VERTEX
  8
SCANIA_P114_CB_6
 10
-56.3925
 20
-6.2057
 30
0
 70
     0
  0
SEQEND
  0
POLYLINE
  8
SCANIA_P114_CB_6
  6
CONTINUOUS
 62
     7
 66
     1
 40
0.0139
 41
0.0139
  0
VERTEX
  8
SCANIA_P114_CB_6
 10
-56.7311
 20
-3.0492
 30
0
 70
     0
  0
VERTEX
  8
SCANIA_P114_CB_6
 10
-56.3375
 20
-3.056
 30
0
 70
     0
  0
SEQEND
  0
POLYLINE
  8
SCANIA_P114_CB_6
  6
CONTINUOUS
 62
     7
 66
     1
 40
0.0139
 41
0.0139
  0
VERTEX
  8
SCANIA_P114_CB_6
 10
-56.7861
 20
-6.1989
 30
0
 70
     0
  0
VERTEX
  8
SCANIA_P114_CB_6
 10
-56.3925
 20
-6.2057
 30
0
 70
     0
  0
SEQEND
  0
POLYLINE
  8
SCANIA_P114_CB_6
  6
CONTINUOUS
 62
     7
 66
     1
 40
0.0139
 41
0.0139
  0
VERTEX
  8
SCANIA_P114_CB_6
 10
-56.3306
 20
-2.6624
 30
0
 70
     0
  0
VERTEX
  8
SCANIA_P114_CB_6
 10
-56.3375
 20
-3.056
 30
0
 70
     0
  0
SEQEND
  0
POLYLINE
  8
SCANIA_P114_CB_6
  6
CONTINUOUS
 62
     7
 66
     1
 40
0.0139
 41
0.0139
  0
VERTEX
  8
SCANIA_P114_CB_6
 10
-56.0938
 20
10.9044
 30
0
 70
     0
  0
VERTEX
  8
SCANIA_P114_CB_6
 10
-56.0869
 20
11.298
 30
0
 70
     0
  0
SEQEND
  0
POLYLINE
  8
SCANIA_P114_CB_6
  6
CONTINUOUS
 62
     7
 66
     1
 40
0.0139
 41
0.0139
  0
VERTEX
  8
SCANIA_P114_CB_6
 10
-56.4806
 20
11.3049
 30
0
 70
     0
  0
VERTEX
  8
SCANIA_P114_CB_6
 10
-56.0869
 20
11.298
 30
0
 70
     0
  0
SEQEND
  0
POLYLINE
  8
SCANIA_P114_CB_6
  6
CONTINUOUS
 62
     7
 66
     1
 40
0.0139
 41
0.0139
  0
VERTEX
  8
SCANIA_P114_CB_6
 10
-56.4256
 20
14.4546
 30
0
 70
     0
  0
VERTEX
  8
SCANIA_P114_CB_6
 10
-56.032
 20
14.4477
 30
0
 70
     0
  0
SEQEND
  0
POLYLINE
  8
SCANIA_P114_CB_6
  6
CONTINUOUS
 62
     7
 66
     1
 40
0.0139
 41
0.0139
  0
VERTEX
  8
SCANIA_P114_CB_6
 10
-56.0251
 20
14.8414
 30
0
 70
     0
  0
VERTEX
  8
SCANIA_P114_CB_6
 10
-56.032
 20
14.4477
 30
0
 70
     0
  0
SEQEND
  0
POLYLINE
  8
SCANIA_P114_CB_6
  6
CONTINUOUS
 62
     7
 66
     1
 40
0.0139
 41
0.0139
  0
VERTEX
  8
SCANIA_P114_CB_6
 10
-48.0106
 20
26.6058
 30
0
 70
     0
  0
VERTEX
  8
SCANIA_P114_CB_6
 10
-48.0106
 20
-12.5324
 30
0
 70
     0
  0
SEQEND
  0
POLYLINE
  8
SCANIA_P114_CB_6
  6
CONTINUOUS
 62
     7
 66
     1
 40
0.0139
 41
0.0139
  0
VERTEX
  8
SCANIA_P114_CB_6
 10
16.0251
 20
63.8436
 30
0
 70
     0
  0
VERTEX
  8
SCANIA_P114_CB_6
 10
16.006
 20
65.8127
 30
0
 70
     0
  0
VERTEX
  8
SCANIA_P114_CB_6
 10
15.9787
 20
67.7818
 30
0
 70
     0
  0
VERTEX
  8
SCANIA_P114_CB_6
 10
15.9431
 20
69.7508
 30
0
 70
     0
  0
VERTEX
  8
SCANIA_P114_CB_6
 10
15.8994
 20
71.7196
 30
0
 70
     0
  0
SEQEND
  0
POLYLINE
  8
SCANIA_P114_CB_6
  6
CONTINUOUS
 62
     7
 66
     1
 40
0.0139
 41
0.0139
  0
VERTEX
  8
SCANIA_P114_CB_6
 10
-44.6558
 20
69.0757
 30
0
 70
     0
  0
VERTEX
  8
SCANIA_P114_CB_6
 10
-44.9308
 20
69.0544
 30
0
 70
     0
  0
VERTEX
  8
SCANIA_P114_CB_6
 10
-45.2015
 20
69.0145
 30
0
 70
     0
  0
VERTEX
  8
SCANIA_P114_CB_6
 10
-45.4668
 20
68.9566
 30
0
 70
     0
  0
VERTEX
  8
SCANIA_P114_CB_6
 10
-45.7262
 20
68.8811
 30
0
 70
     0
  0
VERTEX
  8
SCANIA_P114_CB_6
 10
-45.9788
 20
68.7887
 30
0
 70
     0
  0
VERTEX
  8
SCANIA_P114_CB_6
 10
-46.2239
 20
68.6798
 30
0
 70
     0
  0
VERTEX
  8
SCANIA_P114_CB_6
 10
-46.4606
 20
68.5549
 30
0
 70
     0
  0
VERTEX
  8
SCANIA_P114_CB_6
 10
-46.6882
 20
68.4146
 30
0
 70
     0
  0
VERTEX
  8
SCANIA_P114_CB_6
 10
-46.9058
 20
68.2593
 30
0
 70
     0
  0
VERTEX
  8
SCANIA_P114_CB_6
 10
-47.1128
 20
68.0897
 30
0
 70
     0
  0
VERTEX
  8
SCANIA_P114_CB_6
 10
-47.3083
 20
67.9062
 30
0
 70
     0
  0
VERTEX
  8
SCANIA_P114_CB_6
 10
-47.4916
 20
67.7092
 30
0
 70
     0
  0
VERTEX
  8
SCANIA_P114_CB_6
 10
-47.6618
 20
67.4995
 30
0
 70
     0
  0
VERTEX
  8
SCANIA_P114_CB_6
 10
-47.8182
 20
67.2774
 30
0
 70
     0
  0
VERTEX
  8
SCANIA_P114_CB_6
 10
-47.96
 20
67.0435
 30
0
 70
     0
  0
VERTEX
  8
SCANIA_P114_CB_6
 10
-48.0865
 20
66.7983
 30
0
 70
     0
  0
SEQEND
  0
POLYLINE
  8
SCANIA_P114_CB_6
  6
CONTINUOUS
 62
     7
 66
     1
 40
0.0139
 41
0.0139
  0
VERTEX
  8
SCANIA_P114_CB_6
 10
-49.5695
 20
58.9243
 30
0
 70
     0
  0
VERTEX
  8
SCANIA_P114_CB_6
 10
-49.8476
 20
57.0781
 30
0
 70
     0
  0
VERTEX
  8
SCANIA_P114_CB_6
 10
-50.111
 20
55.23
 30
0
 70
     0
  0
VERTEX
  8
SCANIA_P114_CB_6
 10
-50.3595
 20
53.38
 30
0
 70
     0
  0
VERTEX
  8
SCANIA_P114_CB_6
 10
-50.5931
 20
51.5282
 30
0
 70
     0
  0
VERTEX
  8
SCANIA_P114_CB_6
 10
-50.812
 20
49.6747
 30
0
 70
     0
  0
VERTEX
  8
SCANIA_P114_CB_6
 10
-51.016
 20
47.8195
 30
0
 70
     0
  0
VERTEX
  8
SCANIA_P114_CB_6
 10
-51.2051
 20
45.9629
 30
0
 70
     0
  0
VERTEX
  8
SCANIA_P114_CB_6
 10
-51.3794
 20
44.1048
 30
0
 70
     0
  0
VERTEX
  8
SCANIA_P114_CB_6
 10
-51.5389
 20
42.2454
 30
0
 70
     0
  0
VERTEX
  8
SCANIA_P114_CB_6
 10
-51.6834
 20
40.3848
 30
0
 70
     0
  0
VERTEX
  8
SCANIA_P114_CB_6
 10
-51.8131
 20
38.523
 30
0
 70
     0
  0
VERTEX
  8
SCANIA_P114_CB_6
 10
-51.9278
 20
36.6601
 30
0
 70
     0
  0
VERTEX
  8
SCANIA_P114_CB_6
 10
-52.0277
 20
34.7963
 30
0
 70
     0
  0
VERTEX
  8
SCANIA_P114_CB_6
 10
-52.1126
 20
32.9316
 30
0
 70
     0
  0
VERTEX
  8
SCANIA_P114_CB_6
 10
-52.1827
 20
31.0661
 30
0
 70
     0
  0
VERTEX
  8
SCANIA_P114_CB_6
 10
-52.2378
 20
29.1999
 30
0
 70
     0
  0
SEQEND
  0
POLYLINE
  8
SCANIA_P114_CB_6
  6
CONTINUOUS
 62
     7
 66
     1
 40
0.0139
 41
0.0139
  0
VERTEX
  8
SCANIA_P114_CB_6
 10
27.6654
 20
60.938
 30
0
 70
     0
  0
VERTEX
  8
SCANIA_P114_CB_6
 10
31.7138
 20
14.665
 30
0
 70
     0
  0
SEQEND
  0
POLYLINE
  8
SCANIA_P114_CB_6
  6
CONTINUOUS
 62
     7
 66
     1
 40
0.0139
 41
0.0139
  0
VERTEX
  8
SCANIA_P114_CB_6
 10
-44.6558
 20
69.0757
 30
0
 70
     0
  0
VERTEX
  8
SCANIA_P114_CB_6
 10
15.8994
 20
71.7196
 30
0
 70
     0
  0
SEQEND
  0
POLYLINE
  8
SCANIA_P114_CB_6
  6
CONTINUOUS
 62
     7
 66
     1
 40
0.0139
 41
0.0139
  0
VERTEX
  8
SCANIA_P114_CB_6
 10
31.7138
 20
14.665
 30
0
 70
     0
  0
VERTEX
  8
SCANIA_P114_CB_6
 10
24.4456
 20
7.3968
 30
0
 70
     0
  0
SEQEND
  0
POLYLINE
  8
SCANIA_P114_CB_6
  6
CONTINUOUS
 62
     7
 66
     1
 40
0.0139
 41
0.0139
  0
VERTEX
  8
SCANIA_P114_CB_6
 10
27.6654
 20
60.938
 30
0
 70
     0
  0
VERTEX
  8
SCANIA_P114_CB_6
 10
27.6373
 20
61.2229
 30
0
 70
     0
  0
VERTEX
  8
SCANIA_P114_CB_6
 10
27.6025
 20
61.5057
 30
0
 70
     0
  0
VERTEX
  8
SCANIA_P114_CB_6
 10
27.5612
 20
61.7863
 30
0
 70
     0
  0
VERTEX
  8
SCANIA_P114_CB_6
 10
27.5134
 20
62.0645
 30
0
 70
     0
  0
VERTEX
  8
SCANIA_P114_CB_6
 10
27.4592
 20
62.3404
 30
0
 70
     0
  0
VERTEX
  8
SCANIA_P114_CB_6
 10
27.3988
 20
62.6139
 30
0
 70
     0
  0
VERTEX
  8
SCANIA_P114_CB_6
 10
27.3321
 20
62.8848
 30
0
 70
     0
  0
VERTEX
  8
SCANIA_P114_CB_6
 10
27.2592
 20
63.1531
 30
0
 70
     0
  0
VERTEX
  8
SCANIA_P114_CB_6
 10
27.1803
 20
63.4188
 30
0
 70
     0
  0
VERTEX
  8
SCANIA_P114_CB_6
 10
27.0954
 20
63.6817
 30
0
 70
     0
  0
VERTEX
  8
SCANIA_P114_CB_6
 10
27.0046
 20
63.9418
 30
0
 70
     0
  0
VERTEX
  8
SCANIA_P114_CB_6
 10
26.908
 20
64.199
 30
0
 70
     0
  0
VERTEX
  8
SCANIA_P114_CB_6
 10
26.8057
 20
64.4532
 30
0
 70
     0
  0
VERTEX
  8
SCANIA_P114_CB_6
 10
26.6977
 20
64.7043
 30
0
 70
     0
  0
VERTEX
  8
SCANIA_P114_CB_6
 10
26.5841
 20
64.9524
 30
0
 70
     0
  0
VERTEX
  8
SCANIA_P114_CB_6
 10
26.4651
 20
65.1972
 30
0
 70
     0
  0
VERTEX
  8
SCANIA_P114_CB_6
 10
26.3406
 20
65.4388
 30
0
 70
     0
  0
VERTEX
  8
SCANIA_P114_CB_6
 10
26.2108
 20
65.677
 30
0
 70
     0
  0
VERTEX
  8
SCANIA_P114_CB_6
 10
26.0758
 20
65.9118
 30
0
 70
     0
  0
VERTEX
  8
SCANIA_P114_CB_6
 10
25.9356
 20
66.1431
 30
0
 70
     0
  0
VERTEX
  8
SCANIA_P114_CB_6
 10
25.6401
 20
66.5949
 30
0
 70
     0
  0
VERTEX
  8
SCANIA_P114_CB_6
 10
25.3249
 20
67.0318
 30
0
 70
     0
  0
VERTEX
  8
SCANIA_P114_CB_6
 10
24.9907
 20
67.4532
 30
0
 70
     0
  0
VERTEX
  8
SCANIA_P114_CB_6
 10
24.6381
 20
67.8586
 30
0
 70
     0
  0
VERTEX
  8
SCANIA_P114_CB_6
 10
24.2679
 20
68.2472
 30
0
 70
     0
  0
VERTEX
  8
SCANIA_P114_CB_6
 10
23.8806
 20
68.6185
 30
0
 70
     0
  0
VERTEX
  8
SCANIA_P114_CB_6
 10
23.4769
 20
68.972
 30
0
 70
     0
  0
VERTEX
  8
SCANIA_P114_CB_6
 10
23.0575
 20
69.307
 30
0
 70
     0
  0
VERTEX
  8
SCANIA_P114_CB_6
 10
22.623
 20
69.6229
 30
0
 70
     0
  0
VERTEX
  8
SCANIA_P114_CB_6
 10
22.174
 20
69.9191
 30
0
 70
     0
  0
VERTEX
  8
SCANIA_P114_CB_6
 10
21.9443
 20
70.0596
 30
0
 70
     0
  0
VERTEX
  8
SCANIA_P114_CB_6
 10
21.7113
 20
70.195
 30
0
 70
     0
  0
VERTEX
  8
SCANIA_P114_CB_6
 10
21.475
 20
70.3251
 30
0
 70
     0
  0
VERTEX
  8
SCANIA_P114_CB_6
 10
21.2355
 20
70.45
 30
0
 70
     0
  0
VERTEX
  8
SCANIA_P114_CB_6
 10
20.9928
 20
70.5695
 30
0
 70
     0
  0
VERTEX
  8
SCANIA_P114_CB_6
 10
20.7471
 20
70.6835
 30
0
 70
     0
  0
VERTEX
  8
SCANIA_P114_CB_6
 10
20.4985
 20
70.7921
 30
0
 70
     0
  0
VERTEX
  8
SCANIA_P114_CB_6
 10
20.247
 20
70.895
 30
0
 70
     0
  0
VERTEX
  8
SCANIA_P114_CB_6
 10
19.9927
 20
70.9922
 30
0
 70
     0
  0
VERTEX
  8
SCANIA_P114_CB_6
 10
19.7358
 20
71.0838
 30
0
 70
     0
  0
VERTEX
  8
SCANIA_P114_CB_6
 10
19.4761
 20
71.1694
 30
0
 70
     0
  0
VERTEX
  8
SCANIA_P114_CB_6
 10
19.214
 20
71.2492
 30
0
 70
     0
  0
VERTEX
  8
SCANIA_P114_CB_6
 10
18.9493
 20
71.3231
 30
0
 70
     0
  0
VERTEX
  8
SCANIA_P114_CB_6
 10
18.6823
 20
71.3908
 30
0
 70
     0
  0
VERTEX
  8
SCANIA_P114_CB_6
 10
18.413
 20
71.4525
 30
0
 70
     0
  0
VERTEX
  8
SCANIA_P114_CB_6
 10
18.1415
 20
71.508
 30
0
 70
     0
  0
VERTEX
  8
SCANIA_P114_CB_6
 10
17.8679
 20
71.5571
 30
0
 70
     0
  0
VERTEX
  8
SCANIA_P114_CB_6
 10
17.5922
 20
71.6
 30
0
 70
     0
  0
VERTEX
  8
SCANIA_P114_CB_6
 10
17.3145
 20
71.6364
 30
0
 70
     0
  0
VERTEX
  8
SCANIA_P114_CB_6
 10
17.0349
 20
71.6663
 30
0
 70
     0
  0
VERTEX
  8
SCANIA_P114_CB_6
 10
16.7535
 20
71.6897
 30
0
 70
     0
  0
VERTEX
  8
SCANIA_P114_CB_6
 10
16.4704
 20
71.7064
 30
0
 70
     0
  0
VERTEX
  8
SCANIA_P114_CB_6
 10
16.1857
 20
71.7164
 30
0
 70
     0
  0
VERTEX
  8
SCANIA_P114_CB_6
 10
15.8994
 20
71.7196
 30
0
 70
     0
  0
SEQEND
  0
POLYLINE
  8
SCANIA_P114_CB_6
  6
CONTINUOUS
 62
     7
 66
     1
 40
0.0139
 41
0.0139
  0
VERTEX
  8
SCANIA_P114_CB_6
 10
-40.1366
 20
62.8613
 30
0
 70
     0
  0
VERTEX
  8
SCANIA_P114_CB_6
 10
-40.1366
 20
59.7117
 30
0
 70
     0
  0
SEQEND
  0
POLYLINE
  8
SCANIA_P114_CB_6
  6
CONTINUOUS
 62
     7
 66
     1
 40
0.0139
 41
0.0139
  0
VERTEX
  8
SCANIA_P114_CB_6
 10
-24.4254
 20
-10.4851
 30
0
 70
     0
  0
VERTEX
  8
SCANIA_P114_CB_6
 10
-26.6061
 20
-27.0491
 30
0
 70
     0
  0
SEQEND
  0
POLYLINE
  8
SCANIA_P114_CB_6
  6
CONTINUOUS
 62
     7
 66
     1
 40
0.0139
 41
0.0139
  0
VERTEX
  8
SCANIA_P114_CB_6
 10
-5.8846
 20
2.8219
 30
0
 70
     0
  0
VERTEX
  8
SCANIA_P114_CB_6
 10
-6.2542
 20
2.818
 30
0
 70
     0
  0
VERTEX
  8
SCANIA_P114_CB_6
 10
-6.6218
 20
2.8055
 30
0
 70
     0
  0
VERTEX
  8
SCANIA_P114_CB_6
 10
-6.9875
 20
2.7845
 30
0
 70
     0
  0
VERTEX
  8
SCANIA_P114_CB_6
 10
-7.3511
 20
2.7553
 30
0
 70
     0
  0
VERTEX
  8
SCANIA_P114_CB_6
 10
-7.7124
 20
2.7178
 30
0
 70
     0
  0
VERTEX
  8
SCANIA_P114_CB_6
 10
-8.0715
 20
2.6722
 30
0
 70
     0
  0
VERTEX
  8
SCANIA_P114_CB_6
 10
-8.4282
 20
2.6185
 30
0
 70
     0
  0
VERTEX
  8
SCANIA_P114_CB_6
 10
-8.7824
 20
2.5568
 30
0
 70
     0
  0
VERTEX
  8
SCANIA_P114_CB_6
 10
-9.134
 20
2.4872
 30
0
 70
     0
  0
VERTEX
  8
SCANIA_P114_CB_6
 10
-9.483
 20
2.4099
 30
0
 70
     0
  0
VERTEX
  8
SCANIA_P114_CB_6
 10
-9.8291
 20
2.3248
 30
0
 70
     0
  0
VERTEX
  8
SCANIA_P114_CB_6
 10
-10.1723
 20
2.2322
 30
0
 70
     0
  0
VERTEX
  8
SCANIA_P114_CB_6
 10
-10.5125
 20
2.132
 30
0
 70
     0
  0
VERTEX
  8
SCANIA_P114_CB_6
 10
-10.8496
 20
2.0243
 30
0
 70
     0
  0
VERTEX
  8
SCANIA_P114_CB_6
 10
-11.1835
 20
1.9093
 30
0
 70
     0
  0
VERTEX
  8
SCANIA_P114_CB_6
 10
-11.514
 20
1.7871
 30
0
 70
     0
  0
VERTEX
  8
SCANIA_P114_CB_6
 10
-11.8412
 20
1.6577
 30
0
 70
     0
  0
VERTEX
  8
SCANIA_P114_CB_6
 10
-12.1649
 20
1.5212
 30
0
 70
     0
  0
VERTEX
  8
SCANIA_P114_CB_6
 10
-12.4849
 20
1.3777
 30
0
 70
     0
  0
VERTEX
  8
SCANIA_P114_CB_6
 10
-12.8012
 20
1.2273
 30
0
 70
     0
  0
VERTEX
  8
SCANIA_P114_CB_6
 10
-13.1137
 20
1.0701
 30
0
 70
     0
  0
VERTEX
  8
SCANIA_P114_CB_6
 10
-13.4223
 20
0.9062
 30
0
 70
     0
  0
VERTEX
  8
SCANIA_P114_CB_6
 10
-13.7269
 20
0.7356
 30
0
 70
     0
  0
VERTEX
  8
SCANIA_P114_CB_6
 10
-14.0274
 20
0.5585
 30
0
 70
     0
  0
VERTEX
  8
SCANIA_P114_CB_6
 10
-14.3236
 20
0.3749
 30
0
 70
     0
  0
VERTEX
  8
SCANIA_P114_CB_6
 10
-14.6155
 20
0.185
 30
0
 70
     0
  0
VERTEX
  8
SCANIA_P114_CB_6
 10
-14.903
 20
-0.0113
 30
0
 70
     0
  0
VERTEX
  8
SCANIA_P114_CB_6
 10
-15.1859
 20
-0.2137
 30
0
 70
     0
  0
VERTEX
  8
SCANIA_P114_CB_6
 10
-15.4642
 20
-0.4222
 30
0
 70
     0
  0
VERTEX
  8
SCANIA_P114_CB_6
 10
-15.7378
 20
-0.6367
 30
0
 70
     0
  0
VERTEX
  8
SCANIA_P114_CB_6
 10
-16.0065
 20
-0.8571
 30
0
 70
     0
  0
VERTEX
  8
SCANIA_P114_CB_6
 10
-16.2704
 20
-1.0834
 30
0
 70
     0
  0
VERTEX
  8
SCANIA_P114_CB_6
 10
-16.5291
 20
-1.3154
 30
0
 70
     0
  0
VERTEX
  8
SCANIA_P114_CB_6
 10
-16.7828
 20
-1.5531
 30
0
 70
     0
  0
VERTEX
  8
SCANIA_P114_CB_6
 10
-17.0312
 20
-1.7964
 30
0
 70
     0
  0
VERTEX
  8
SCANIA_P114_CB_6
 10
-17.2742
 20
-2.0451
 30
0
 70
     0
  0
VERTEX
  8
SCANIA_P114_CB_6
 10
-17.5118
 20
-2.2992
 30
0
 70
     0
  0
VERTEX
  8
SCANIA_P114_CB_6
 10
-17.7439
 20
-2.5586
 30
0
 70
     0
  0
VERTEX
  8
SCANIA_P114_CB_6
 10
-17.9703
 20
-2.8232
 30
0
 70
     0
  0
VERTEX
  8
SCANIA_P114_CB_6
 10
-18.191
 20
-3.0929
 30
0
 70
     0
  0
VERTEX
  8
SCANIA_P114_CB_6
 10
-18.4058
 20
-3.3677
 30
0
 70
     0
  0
VERTEX
  8
SCANIA_P114_CB_6
 10
-18.6147
 20
-3.6474
 30
0
 70
     0
  0
VERTEX
  8
SCANIA_P114_CB_6
 10
-18.8175
 20
-3.9319
 30
0
 70
     0
  0
VERTEX
  8
SCANIA_P114_CB_6
 10
-19.0141
 20
-4.2213
 30
0
 70
     0
  0
VERTEX
  8
SCANIA_P114_CB_6
 10
-19.2045
 20
-4.5152
 30
0
 70
     0
  0
VERTEX
  8
SCANIA_P114_CB_6
 10
-19.3886
 20
-4.8138
 30
0
 70
     0
  0
VERTEX
  8
SCANIA_P114_CB_6
 10
-19.5661
 20
-5.1169
 30
0
 70
     0
  0
VERTEX
  8
SCANIA_P114_CB_6
 10
-19.7371
 20
-5.4244
 30
0
 70
     0
  0
VERTEX
  8
SCANIA_P114_CB_6
 10
-19.9015
 20
-5.7362
 30
0
 70
     0
  0
VERTEX
  8
SCANIA_P114_CB_6
 10
-20.0591
 20
-6.0522
 30
0
 70
     0
  0
VERTEX
  8
SCANIA_P114_CB_6
 10
-20.2098
 20
-6.3724
 30
0
 70
     0
  0
VERTEX
  8
SCANIA_P114_CB_6
 10
-20.3535
 20
-6.6966
 30
0
 70
     0
  0
VERTEX
  8
SCANIA_P114_CB_6
 10
-20.4902
 20
-7.0247
 30
0
 70
     0
  0
VERTEX
  8
SCANIA_P114_CB_6
 10
-20.6197
 20
-7.3568
 30
0
 70
     0
  0
VERTEX
  8
SCANIA_P114_CB_6
 10
-20.742
 20
-7.6926
 30
0
 70
     0
  0
VERTEX
  8
SCANIA_P114_CB_6
 10
-20.8568
 20
-8.0321
 30
0
 70
     0
  0
VERTEX
  8
SCANIA_P114_CB_6
 10
-20.9642
 20
-8.3753
 30
0
 70
     0
  0
VERTEX
  8
SCANIA_P114_CB_6
 10
-21.064
 20
-8.7219
 30
0
 70
     0
  0
VERTEX
  8
SCANIA_P114_CB_6
 10
-21.1561
 20
-9.072
 30
0
 70
     0
  0
VERTEX
  8
SCANIA_P114_CB_6
 10
-21.2404
 20
-9.4254
 30
0
 70
     0
  0
VERTEX
  8
SCANIA_P114_CB_6
 10
-21.3169
 20
-9.782
 30
0
 70
     0
  0
VERTEX
  8
SCANIA_P114_CB_6
 10
-21.3854
 20
-10.1418
 30
0
 70
     0
  0
VERTEX
  8
SCANIA_P114_CB_6
 10
-21.4457
 20
-10.5047
 30
0
 70
     0
  0
VERTEX
  8
SCANIA_P114_CB_6
 10
-21.4979
 20
-10.8706
 30
0
 70
     0
  0
SEQEND
  0
POLYLINE
  8
SCANIA_P114_CB_6
  6
CONTINUOUS
 62
     7
 66
     1
 40
0.0139
 41
0.0139
  0
VERTEX
  8
SCANIA_P114_CB_6
 10
23.7372
 20
-27.5624
 30
0
 70
     0
  0
VERTEX
  8
SCANIA_P114_CB_6
 10
26.6479
 20
-27.0491
 30
0
 70
     0
  0
SEQEND
  0
POLYLINE
  8
SCANIA_P114_CB_6
  6
CONTINUOUS
 62
     7
 66
     1
 40
0.0139
 41
0.0139
  0
VERTEX
  8
SCANIA_P114_CB_6
 10
26.6479
 20
-27.0491
 30
0
 70
     0
  0
VERTEX
  8
SCANIA_P114_CB_6
 10
24.4672
 20
-10.4851
 30
0
 70
     0
  0
SEQEND
  0
POLYLINE
  8
SCANIA_P114_CB_6
  6
CONTINUOUS
 62
     7
 66
     1
 40
0.0139
 41
0.0139
  0
VERTEX
  8
SCANIA_P114_CB_6
 10
-5.8846
 20
2.8219
 30
0
 70
     0
  0
VERTEX
  8
SCANIA_P114_CB_6
 10
5.9264
 20
2.8219
 30
0
 70
     0
  0
SEQEND
  0
POLYLINE
  8
SCANIA_P114_CB_6
  6
CONTINUOUS
 62
     7
 66
     1
 40
0.0139
 41
0.0139
  0
VERTEX
  8
SCANIA_P114_CB_6
 10
21.5397
 20
-10.8706
 30
0
 70
     0
  0
VERTEX
  8
SCANIA_P114_CB_6
 10
21.4875
 20
-10.5047
 30
0
 70
     0
  0
VERTEX
  8
SCANIA_P114_CB_6
 10
21.4271
 20
-10.1418
 30
0
 70
     0
  0
VERTEX
  8
SCANIA_P114_CB_6
 10
21.3587
 20
-9.782
 30
0
 70
     0
  0
VERTEX
  8
SCANIA_P114_CB_6
 10
21.2822
 20
-9.4254
 30
0
 70
     0
  0
VERTEX
  8
SCANIA_P114_CB_6
 10
21.1979
 20
-9.072
 30
0
 70
     0
  0
VERTEX
  8
SCANIA_P114_CB_6
 10
21.1058
 20
-8.7219
 30
0
 70
     0
  0
VERTEX
  8
SCANIA_P114_CB_6
 10
21.006
 20
-8.3753
 30
0
 70
     0
  0
VERTEX
  8
SCANIA_P114_CB_6
 10
20.8986
 20
-8.0321
 30
0
 70
     0
  0
VERTEX
  8
SCANIA_P114_CB_6
 10
20.7837
 20
-7.6926
 30
0
 70
     0
  0
VERTEX
  8
SCANIA_P114_CB_6
 10
20.6615
 20
-7.3568
 30
0
 70
     0
  0
VERTEX
  8
SCANIA_P114_CB_6
 10
20.532
 20
-7.0247
 30
0
 70
     0
  0
VERTEX
  8
SCANIA_P114_CB_6
 10
20.3953
 20
-6.6966
 30
0
 70
     0
  0
VERTEX
  8
SCANIA_P114_CB_6
 10
20.2516
 20
-6.3724
 30
0
 70
     0
  0
VERTEX
  8
SCANIA_P114_CB_6
 10
20.1009
 20
-6.0522
 30
0
 70
     0
  0
VERTEX
  8
SCANIA_P114_CB_6
 10
19.9433
 20
-5.7362
 30
0
 70
     0
  0
VERTEX
  8
SCANIA_P114_CB_6
 10
19.7789
 20
-5.4244
 30
0
 70
     0
  0
VERTEX
  8
SCANIA_P114_CB_6
 10
19.6079
 20
-5.1169
 30
0
 70
     0
  0
VERTEX
  8
SCANIA_P114_CB_6
 10
19.4303
 20
-4.8138
 30
0
 70
     0
  0
VERTEX
  8
SCANIA_P114_CB_6
 10
19.2463
 20
-4.5152
 30
0
 70
     0
  0
VERTEX
  8
SCANIA_P114_CB_6
 10
19.0559
 20
-4.2213
 30
0
 70
     0
  0
VERTEX
  8
SCANIA_P114_CB_6
 10
18.8592
 20
-3.9319
 30
0
 70
     0
  0
VERTEX
  8
SCANIA_P114_CB_6
 10
18.6564
 20
-3.6474
 30
0
 70
     0
  0
VERTEX
  8
SCANIA_P114_CB_6
 10
18.4476
 20
-3.3677
 30
0
 70
     0
  0
VERTEX
  8
SCANIA_P114_CB_6
 10
18.2328
 20
-3.0929
 30
0
 70
     0
  0
VERTEX
  8
SCANIA_P114_CB_6
 10
18.0121
 20
-2.8232
 30
0
 70
     0
  0
VERTEX
  8
SCANIA_P114_CB_6
 10
17.7857
 20
-2.5586
 30
0
 70
     0
  0
VERTEX
  8
SCANIA_P114_CB_6
 10
17.5536
 20
-2.2992
 30
0
 70
     0
  0
VERTEX
  8
SCANIA_P114_CB_6
 10
17.316
 20
-2.0451
 30
0
 70
     0
  0
VERTEX
  8
SCANIA_P114_CB_6
 10
17.0729
 20
-1.7964
 30
0
 70
     0
  0
VERTEX
  8
SCANIA_P114_CB_6
 10
16.8245
 20
-1.5531
 30
0
 70
     0
  0
VERTEX
  8
SCANIA_P114_CB_6
 10
16.5709
 20
-1.3154
 30
0
 70
     0
  0
VERTEX
  8
SCANIA_P114_CB_6
 10
16.3121
 20
-1.0834
 30
0
 70
     0
  0
VERTEX
  8
SCANIA_P114_CB_6
 10
16.0483
 20
-0.8571
 30
0
 70
     0
  0
VERTEX
  8
SCANIA_P114_CB_6
 10
15.7796
 20
-0.6367
 30
0
 70
     0
  0
VERTEX
  8
SCANIA_P114_CB_6
 10
15.506
 20
-0.4222
 30
0
 70
     0
  0
VERTEX
  8
SCANIA_P114_CB_6
 10
15.2277
 20
-0.2137
 30
0
 70
     0
  0
VERTEX
  8
SCANIA_P114_CB_6
 10
14.9447
 20
-0.0113
 30
0
 70
     0
  0
VERTEX
  8
SCANIA_P114_CB_6
 10
14.6573
 20
0.185
 30
0
 70
     0
  0
VERTEX
  8
SCANIA_P114_CB_6
 10
14.3654
 20
0.3749
 30
0
 70
     0
  0
VERTEX
  8
SCANIA_P114_CB_6
 10
14.0691
 20
0.5585
 30
0
 70
     0
  0
VERTEX
  8
SCANIA_P114_CB_6
 10
13.7687
 20
0.7356
 30
0
 70
     0
  0
VERTEX
  8
SCANIA_P114_CB_6
 10
13.4641
 20
0.9062
 30
0
 70
     0
  0
VERTEX
  8
SCANIA_P114_CB_6
 10
13.1555
 20
1.0701
 30
0
 70
     0
  0
VERTEX
  8
SCANIA_P114_CB_6
 10
12.843
 20
1.2273
 30
0
 70
     0
  0
VERTEX
  8
SCANIA_P114_CB_6
 10
12.5267
 20
1.3777
 30
0
 70
     0
  0
VERTEX
  8
SCANIA_P114_CB_6
 10
12.2066
 20
1.5212
 30
0
 70
     0
  0
VERTEX
  8
SCANIA_P114_CB_6
 10
11.883
 20
1.6577
 30
0
 70
     0
  0
VERTEX
  8
SCANIA_P114_CB_6
 10
11.5558
 20
1.7871
 30
0
 70
     0
  0
VERTEX
  8
SCANIA_P114_CB_6
 10
11.2252
 20
1.9093
 30
0
 70
     0
  0
VERTEX
  8
SCANIA_P114_CB_6
 10
10.8913
 20
2.0243
 30
0
 70
     0
  0
VERTEX
  8
SCANIA_P114_CB_6
 10
10.5542
 20
2.132
 30
0
 70
     0
  0
VERTEX
  8
SCANIA_P114_CB_6
 10
10.214
 20
2.2322
 30
0
 70
     0
  0
VERTEX
  8
SCANIA_P114_CB_6
 10
9.8708
 20
2.3248
 30
0
 70
     0
  0
VERTEX
  8
SCANIA_P114_CB_6
 10
9.5247
 20
2.4099
 30
0
 70
     0
  0
VERTEX
  8
SCANIA_P114_CB_6
 10
9.1758
 20
2.4872
 30
0
 70
     0
  0
VERTEX
  8
SCANIA_P114_CB_6
 10
8.8242
 20
2.5568
 30
0
 70
     0
  0
VERTEX
  8
SCANIA_P114_CB_6
 10
8.47
 20
2.6185
 30
0
 70
     0
  0
VERTEX
  8
SCANIA_P114_CB_6
 10
8.1133
 20
2.6722
 30
0
 70
     0
  0
VERTEX
  8
SCANIA_P114_CB_6
 10
7.7542
 20
2.7178
 30
0
 70
     0
  0
VERTEX
  8
SCANIA_P114_CB_6
 10
7.3928
 20
2.7553
 30
0
 70
     0
  0
VERTEX
  8
SCANIA_P114_CB_6
 10
7.0293
 20
2.7845
 30
0
 70
     0
  0
VERTEX
  8
SCANIA_P114_CB_6
 10
6.6636
 20
2.8055
 30
0
 70
     0
  0
VERTEX
  8
SCANIA_P114_CB_6
 10
6.2959
 20
2.818
 30
0
 70
     0
  0
VERTEX
  8
SCANIA_P114_CB_6
 10
5.9264
 20
2.8219
 30
0
 70
     0
  0
SEQEND
  0
POLYLINE
  8
SCANIA_P114_CB_6
  6
CONTINUOUS
 62
     7
 66
     1
 40
0.0139
 41
0.0139
  0
VERTEX
  8
SCANIA_P114_CB_6
 10
-26.6061
 20
-27.0491
 30
0
 70
     0
  0
VERTEX
  8
SCANIA_P114_CB_6
 10
-23.6954
 20
-27.5624
 30
0
 70
     0
  0
SEQEND
  0
POLYLINE
  8
SCANIA_P114_CB_6
  6
CONTINUOUS
 62
     7
 66
     1
 40
0.0139
 41
0.0139
  0
VERTEX
  8
SCANIA_P114_CB_6
 10
-23.6954
 20
-27.5624
 30
0
 70
     0
  0
VERTEX
  8
SCANIA_P114_CB_6
 10
-21.4979
 20
-10.8706
 30
0
 70
     0
  0
SEQEND
  0
POLYLINE
  8
SCANIA_P114_CB_6
  6
CONTINUOUS
 62
     7
 66
     1
 40
0.0139
 41
0.0139
  0
VERTEX
  8
SCANIA_P114_CB_6
 10
21.5397
 20
-10.8706
 30
0
 70
     0
  0
VERTEX
  8
SCANIA_P114_CB_6
 10
23.7372
 20
-27.5624
 30
0
 70
     0
  0
SEQEND
  0
POLYLINE
  8
SCANIA_P114_CB_6
  6
CONTINUOUS
 62
     7
 66
     1
 40
0.0139
 41
0.0139
  0
VERTEX
  8
SCANIA_P114_CB_6
 10
-5.8846
 20
5.7747
 30
0
 70
     0
  0
VERTEX
  8
SCANIA_P114_CB_6
 10
-6.3234
 20
5.77
 30
0
 70
     0
  0
VERTEX
  8
SCANIA_P114_CB_6
 10
-6.76
 20
5.7551
 30
0
 70
     0
  0
VERTEX
  8
SCANIA_P114_CB_6
 10
-7.1943
 20
5.7303
 30
0
 70
     0
  0
VERTEX
  8
SCANIA_P114_CB_6
 10
-7.626
 20
5.6956
 30
0
 70
     0
  0
VERTEX
  8
SCANIA_P114_CB_6
 10
-8.0552
 20
5.651
 30
0
 70
     0
  0
VERTEX
  8
SCANIA_P114_CB_6
 10
-8.4816
 20
5.5969
 30
0
 70
     0
  0
VERTEX
  8
SCANIA_P114_CB_6
 10
-8.9052
 20
5.5331
 30
0
 70
     0
  0
VERTEX
  8
SCANIA_P114_CB_6
 10
-9.3258
 20
5.4598
 30
0
 70
     0
  0
VERTEX
  8
SCANIA_P114_CB_6
 10
-9.7433
 20
5.3772
 30
0
 70
     0
  0
VERTEX
  8
SCANIA_P114_CB_6
 10
-10.1576
 20
5.2854
 30
0
 70
     0
  0
VERTEX
  8
SCANIA_P114_CB_6
 10
-10.5686
 20
5.1844
 30
0
 70
     0
  0
VERTEX
  8
SCANIA_P114_CB_6
 10
-10.9762
 20
5.0743
 30
0
 70
     0
  0
VERTEX
  8
SCANIA_P114_CB_6
 10
-11.3802
 20
4.9554
 30
0
 70
     0
  0
VERTEX
  8
SCANIA_P114_CB_6
 10
-11.7805
 20
4.8275
 30
0
 70
     0
  0
VERTEX
  8
SCANIA_P114_CB_6
 10
-12.177
 20
4.691
 30
0
 70
     0
  0
VERTEX
  8
SCANIA_P114_CB_6
 10
-12.5696
 20
4.5458
 30
0
 70
     0
  0
VERTEX
  8
SCANIA_P114_CB_6
 10
-12.9581
 20
4.3921
 30
0
 70
     0
  0
VERTEX
  8
SCANIA_P114_CB_6
 10
-13.3424
 20
4.23
 30
0
 70
     0
  0
VERTEX
  8
SCANIA_P114_CB_6
 10
-13.7225
 20
4.0596
 30
0
 70
     0
  0
VERTEX
  8
SCANIA_P114_CB_6
 10
-14.0981
 20
3.8811
 30
0
 70
     0
  0
VERTEX
  8
SCANIA_P114_CB_6
 10
-14.4692
 20
3.6944
 30
0
 70
     0
  0
VERTEX
  8
SCANIA_P114_CB_6
 10
-14.8357
 20
3.4997
 30
0
 70
     0
  0
VERTEX
  8
SCANIA_P114_CB_6
 10
-15.1973
 20
3.2971
 30
0
 70
     0
  0
VERTEX
  8
SCANIA_P114_CB_6
 10
-15.5541
 20
3.0868
 30
0
 70
     0
  0
VERTEX
  8
SCANIA_P114_CB_6
 10
-15.9059
 20
2.8688
 30
0
 70
     0
  0
VERTEX
  8
SCANIA_P114_CB_6
 10
-16.2525
 20
2.6433
 30
0
 70
     0
  0
VERTEX
  8
SCANIA_P114_CB_6
 10
-16.5939
 20
2.4103
 30
0
 70
     0
  0
VERTEX
  8
SCANIA_P114_CB_6
 10
-16.9299
 20
2.1699
 30
0
 70
     0
  0
VERTEX
  8
SCANIA_P114_CB_6
 10
-17.2604
 20
1.9223
 30
0
 70
     0
  0
VERTEX
  8
SCANIA_P114_CB_6
 10
-17.5853
 20
1.6676
 30
0
 70
     0
  0
VERTEX
  8
SCANIA_P114_CB_6
 10
-17.9044
 20
1.4058
 30
0
 70
     0
  0
VERTEX
  8
SCANIA_P114_CB_6
 10
-18.2177
 20
1.1371
 30
0
 70
     0
  0
VERTEX
  8
SCANIA_P114_CB_6
 10
-18.525
 20
0.8616
 30
0
 70
     0
  0
VERTEX
  8
SCANIA_P114_CB_6
 10
-18.8262
 20
0.5793
 30
0
 70
     0
  0
VERTEX
  8
SCANIA_P114_CB_6
 10
-19.1211
 20
0.2905
 30
0
 70
     0
  0
VERTEX
  8
SCANIA_P114_CB_6
 10
-19.4098
 20
-0.0049
 30
0
 70
     0
  0
VERTEX
  8
SCANIA_P114_CB_6
 10
-19.6919
 20
-0.3066
 30
0
 70
     0
  0
VERTEX
  8
SCANIA_P114_CB_6
 10
-19.9675
 20
-0.6147
 30
0
 70
     0
  0
VERTEX
  8
SCANIA_P114_CB_6
 10
-20.2364
 20
-0.9289
 30
0
 70
     0
  0
VERTEX
  8
SCANIA_P114_CB_6
 10
-20.4984
 20
-1.2492
 30
0
 70
     0
  0
VERTEX
  8
SCANIA_P114_CB_6
 10
-20.7535
 20
-1.5755
 30
0
 70
     0
  0
VERTEX
  8
SCANIA_P114_CB_6
 10
-21.0015
 20
-1.9076
 30
0
 70
     0
  0
VERTEX
  8
SCANIA_P114_CB_6
 10
-21.2424
 20
-2.2455
 30
0
 70
     0
  0
VERTEX
  8
SCANIA_P114_CB_6
 10
-21.4759
 20
-2.5891
 30
0
 70
     0
  0
VERTEX
  8
SCANIA_P114_CB_6
 10
-21.702
 20
-2.9382
 30
0
 70
     0
  0
VERTEX
  8
SCANIA_P114_CB_6
 10
-21.9205
 20
-3.2928
 30
0
 70
     0
  0
VERTEX
  8
SCANIA_P114_CB_6
 10
-22.1314
 20
-3.6527
 30
0
 70
     0
  0
VERTEX
  8
SCANIA_P114_CB_6
 10
-22.3345
 20
-4.0178
 30
0
 70
     0
  0
VERTEX
  8
SCANIA_P114_CB_6
 10
-22.5297
 20
-4.3881
 30
0
 70
     0
  0
VERTEX
  8
SCANIA_P114_CB_6
 10
-22.7168
 20
-4.7633
 30
0
 70
     0
  0
VERTEX
  8
SCANIA_P114_CB_6
 10
-22.8958
 20
-5.1435
 30
0
 70
     0
  0
VERTEX
  8
SCANIA_P114_CB_6
 10
-23.0665
 20
-5.5285
 30
0
 70
     0
  0
VERTEX
  8
SCANIA_P114_CB_6
 10
-23.2288
 20
-5.9182
 30
0
 70
     0
  0
VERTEX
  8
SCANIA_P114_CB_6
 10
-23.3826
 20
-6.3126
 30
0
 70
     0
  0
VERTEX
  8
SCANIA_P114_CB_6
 10
-23.5277
 20
-6.7113
 30
0
 70
     0
  0
VERTEX
  8
SCANIA_P114_CB_6
 10
-23.6641
 20
-7.1145
 30
0
 70
     0
  0
VERTEX
  8
SCANIA_P114_CB_6
 10
-23.7916
 20
-7.522
 30
0
 70
     0
  0
VERTEX
  8
SCANIA_P114_CB_6
 10
-23.9101
 20
-7.9336
 30
0
 70
     0
  0
VERTEX
  8
SCANIA_P114_CB_6
 10
-24.0195
 20
-8.3493
 30
0
 70
     0
  0
VERTEX
  8
SCANIA_P114_CB_6
 10
-24.1197
 20
-8.769
 30
0
 70
     0
  0
VERTEX
  8
SCANIA_P114_CB_6
 10
-24.2104
 20
-9.1925
 30
0
 70
     0
  0
VERTEX
  8
SCANIA_P114_CB_6
 10
-24.2917
 20
-9.6198
 30
0
 70
     0
  0
VERTEX
  8
SCANIA_P114_CB_6
 10
-24.3634
 20
-10.0507
 30
0
 70
     0
  0
VERTEX
  8
SCANIA_P114_CB_6
 10
-24.4254
 20
-10.4851
 30
0
 70
     0
  0
SEQEND
  0
POLYLINE
  8
SCANIA_P114_CB_6
  6
CONTINUOUS
 62
     7
 66
     1
 40
0.0139
 41
0.0139
  0
VERTEX
  8
SCANIA_P114_CB_6
 10
24.4672
 20
-10.4851
 30
0
 70
     0
  0
VERTEX
  8
SCANIA_P114_CB_6
 10
24.4052
 20
-10.0507
 30
0
 70
     0
  0
VERTEX
  8
SCANIA_P114_CB_6
 10
24.3335
 20
-9.6198
 30
0
 70
     0
  0
VERTEX
  8
SCANIA_P114_CB_6
 10
24.2522
 20
-9.1925
 30
0
 70
     0
  0
VERTEX
  8
SCANIA_P114_CB_6
 10
24.1614
 20
-8.769
 30
0
 70
     0
  0
VERTEX
  8
SCANIA_P114_CB_6
 10
24.0613
 20
-8.3493
 30
0
 70
     0
  0
VERTEX
  8
SCANIA_P114_CB_6
 10
23.9519
 20
-7.9336
 30
0
 70
     0
  0
VERTEX
  8
SCANIA_P114_CB_6
 10
23.8334
 20
-7.522
 30
0
 70
     0
  0
VERTEX
  8
SCANIA_P114_CB_6
 10
23.7059
 20
-7.1145
 30
0
 70
     0
  0
VERTEX
  8
SCANIA_P114_CB_6
 10
23.5695
 20
-6.7113
 30
0
 70
     0
  0
VERTEX
  8
SCANIA_P114_CB_6
 10
23.4243
 20
-6.3126
 30
0
 70
     0
  0
VERTEX
  8
SCANIA_P114_CB_6
 10
23.2705
 20
-5.9182
 30
0
 70
     0
  0
VERTEX
  8
SCANIA_P114_CB_6
 10
23.1082
 20
-5.5285
 30
0
 70
     0
  0
VERTEX
  8
SCANIA_P114_CB_6
 10
22.9375
 20
-5.1435
 30
0
 70
     0
  0
VERTEX
  8
SCANIA_P114_CB_6
 10
22.7586
 20
-4.7633
 30
0
 70
     0
  0
VERTEX
  8
SCANIA_P114_CB_6
 10
22.5714
 20
-4.3881
 30
0
 70
     0
  0
VERTEX
  8
SCANIA_P114_CB_6
 10
22.3763
 20
-4.0178
 30
0
 70
     0
  0
VERTEX
  8
SCANIA_P114_CB_6
 10
22.1732
 20
-3.6527
 30
0
 70
     0
  0
VERTEX
  8
SCANIA_P114_CB_6
 10
21.9623
 20
-3.2928
 30
0
 70
     0
  0
VERTEX
  8
SCANIA_P114_CB_6
 10
21.7438
 20
-2.9382
 30
0
 70
     0
  0
VERTEX
  8
SCANIA_P114_CB_6
 10
21.5177
 20
-2.5891
 30
0
 70
     0
  0
VERTEX
  8
SCANIA_P114_CB_6
 10
21.2841
 20
-2.2455
 30
0
 70
     0
  0
VERTEX
  8
SCANIA_P114_CB_6
 10
21.0433
 20
-1.9076
 30
0
 70
     0
  0
VERTEX
  8
SCANIA_P114_CB_6
 10
20.7953
 20
-1.5755
 30
0
 70
     0
  0
VERTEX
  8
SCANIA_P114_CB_6
 10
20.5402
 20
-1.2492
 30
0
 70
     0
  0
VERTEX
  8
SCANIA_P114_CB_6
 10
20.2781
 20
-0.9289
 30
0
 70
     0
  0
VERTEX
  8
SCANIA_P114_CB_6
 10
20.0093
 20
-0.6147
 30
0
 70
     0
  0
VERTEX
  8
SCANIA_P114_CB_6
 10
19.7337
 20
-0.3066
 30
0
 70
     0
  0
VERTEX
  8
SCANIA_P114_CB_6
 10
19.4515
 20
-0.0049
 30
0
 70
     0
  0
VERTEX
  8
SCANIA_P114_CB_6
 10
19.1629
 20
0.2905
 30
0
 70
     0
  0
VERTEX
  8
SCANIA_P114_CB_6
 10
18.868
 20
0.5793
 30
0
 70
     0
  0
VERTEX
  8
SCANIA_P114_CB_6
 10
18.5668
 20
0.8616
 30
0
 70
     0
  0
VERTEX
  8
SCANIA_P114_CB_6
 10
18.2595
 20
1.1371
 30
0
 70
     0
  0
VERTEX
  8
SCANIA_P114_CB_6
 10
17.9462
 20
1.4058
 30
0
 70
     0
  0
VERTEX
  8
SCANIA_P114_CB_6
 10
17.627
 20
1.6676
 30
0
 70
     0
  0
VERTEX
  8
SCANIA_P114_CB_6
 10
17.3022
 20
1.9223
 30
0
 70
     0
  0
VERTEX
  8
SCANIA_P114_CB_6
 10
16.9717
 20
2.1699
 30
0
 70
     0
  0
VERTEX
  8
SCANIA_P114_CB_6
 10
16.6357
 20
2.4103
 30
0
 70
     0
  0
VERTEX
  8
SCANIA_P114_CB_6
 10
16.2943
 20
2.6433
 30
0
 70
     0
  0
VERTEX
  8
SCANIA_P114_CB_6
 10
15.9477
 20
2.8688
 30
0
 70
     0
  0
VERTEX
  8
SCANIA_P114_CB_6
 10
15.5959
 20
3.0868
 30
0
 70
     0
  0
VERTEX
  8
SCANIA_P114_CB_6
 10
15.2391
 20
3.2971
 30
0
 70
     0
  0
VERTEX
  8
SCANIA_P114_CB_6
 10
14.8774
 20
3.4997
 30
0
 70
     0
  0
VERTEX
  8
SCANIA_P114_CB_6
 10
14.511
 20
3.6944
 30
0
 70
     0
  0
VERTEX
  8
SCANIA_P114_CB_6
 10
14.1399
 20
3.8811
 30
0
 70
     0
  0
VERTEX
  8
SCANIA_P114_CB_6
 10
13.7642
 20
4.0596
 30
0
 70
     0
  0
VERTEX
  8
SCANIA_P114_CB_6
 10
13.3842
 20
4.23
 30
0
 70
     0
  0
VERTEX
  8
SCANIA_P114_CB_6
 10
12.9998
 20
4.3921
 30
0
 70
     0
  0
VERTEX
  8
SCANIA_P114_CB_6
 10
12.6113
 20
4.5458
 30
0
 70
     0
  0
VERTEX
  8
SCANIA_P114_CB_6
 10
12.2188
 20
4.691
 30
0
 70
     0
  0
VERTEX
  8
SCANIA_P114_CB_6
 10
11.8223
 20
4.8275
 30
0
 70
     0
  0
VERTEX
  8
SCANIA_P114_CB_6
 10
11.422
 20
4.9554
 30
0
 70
     0
  0
VERTEX
  8
SCANIA_P114_CB_6
 10
11.018
 20
5.0743
 30
0
 70
     0
  0
VERTEX
  8
SCANIA_P114_CB_6
 10
10.6104
 20
5.1844
 30
0
 70
     0
  0
VERTEX
  8
SCANIA_P114_CB_6
 10
10.1994
 20
5.2854
 30
0
 70
     0
  0
VERTEX
  8
SCANIA_P114_CB_6
 10
9.7851
 20
5.3772
 30
0
 70
     0
  0
VERTEX
  8
SCANIA_P114_CB_6
 10
9.3676
 20
5.4598
 30
0
 70
     0
  0
VERTEX
  8
SCANIA_P114_CB_6
 10
8.9469
 20
5.5331
 30
0
 70
     0
  0
VERTEX
  8
SCANIA_P114_CB_6
 10
8.5234
 20
5.5969
 30
0
 70
     0
  0
VERTEX
  8
SCANIA_P114_CB_6
 10
8.0969
 20
5.651
 30
0
 70
     0
  0
VERTEX
  8
SCANIA_P114_CB_6
 10
7.6678
 20
5.6956
 30
0
 70
     0
  0
VERTEX
  8
SCANIA_P114_CB_6
 10
7.236
 20
5.7303
 30
0
 70
     0
  0
VERTEX
  8
SCANIA_P114_CB_6
 10
6.8018
 20
5.7551
 30
0
 70
     0
  0
VERTEX
  8
SCANIA_P114_CB_6
 10
6.3652
 20
5.77
 30
0
 70
     0
  0
VERTEX
  8
SCANIA_P114_CB_6
 10
5.9264
 20
5.7747
 30
0
 70
     0
  0
SEQEND
  0
POLYLINE
  8
SCANIA_P114_CB_6
  6
CONTINUOUS
 62
     7
 66
     1
 40
0.0139
 41
0.0139
  0
VERTEX
  8
SCANIA_P114_CB_6
 10
5.9264
 20
5.7747
 30
0
 70
     0
  0
VERTEX
  8
SCANIA_P114_CB_6
 10
-5.8846
 20
5.7747
 30
0
 70
     0
  0
SEQEND
  0
POLYLINE
  8
SCANIA_P114_CB_6
  6
CONTINUOUS
 62
     7
 66
     1
 40
0.0139
 41
0.0139
  0
VERTEX
  8
SCANIA_P114_CB_6
 10
-2.9712
 20
-23.0284
 30
0
 70
     0
  0
VERTEX
  8
SCANIA_P114_CB_6
 10
-2.9674
 20
-22.8775
 30
0
 70
     0
  0
VERTEX
  8
SCANIA_P114_CB_6
 10
-2.9559
 20
-22.7283
 30
0
 70
     0
  0
VERTEX
  8
SCANIA_P114_CB_6
 10
-2.937
 20
-22.5813
 30
0
 70
     0
  0
VERTEX
  8
SCANIA_P114_CB_6
 10
-2.9108
 20
-22.4365
 30
0
 70
     0
  0
VERTEX
  8
SCANIA_P114_CB_6
 10
-2.8776
 20
-22.2942
 30
0
 70
     0
  0
VERTEX
  8
SCANIA_P114_CB_6
 10
-2.8376
 20
-22.1544
 30
0
 70
     0
  0
VERTEX
  8
SCANIA_P114_CB_6
 10
-2.7908
 20
-22.0176
 30
0
 70
     0
  0
VERTEX
  8
SCANIA_P114_CB_6
 10
-2.7377
 20
-21.8837
 30
0
 70
     0
  0
VERTEX
  8
SCANIA_P114_CB_6
 10
-2.6782
 20
-21.7531
 30
0
 70
     0
  0
VERTEX
  8
SCANIA_P114_CB_6
 10
-2.6127
 20
-21.6258
 30
0
 70
     0
  0
VERTEX
  8
SCANIA_P114_CB_6
 10
-2.5412
 20
-21.5022
 30
0
 70
     0
  0
VERTEX
  8
SCANIA_P114_CB_6
 10
-2.4641
 20
-21.3823
 30
0
 70
     0
  0
VERTEX
  8
SCANIA_P114_CB_6
 10
-2.3814
 20
-21.2665
 30
0
 70
     0
  0
VERTEX
  8
SCANIA_P114_CB_6
 10
-2.2934
 20
-21.1548
 30
0
 70
     0
  0
VERTEX
  8
SCANIA_P114_CB_6
 10
-2.2003
 20
-21.0474
 30
0
 70
     0
  0
VERTEX
  8
SCANIA_P114_CB_6
 10
-2.1023
 20
-20.9446
 30
0
 70
     0
  0
VERTEX
  8
SCANIA_P114_CB_6
 10
-1.9995
 20
-20.8466
 30
0
 70
     0
  0
VERTEX
  8
SCANIA_P114_CB_6
 10
-1.8922
 20
-20.7535
 30
0
 70
     0
  0
VERTEX
  8
SCANIA_P114_CB_6
 10
-1.7805
 20
-20.6655
 30
0
 70
     0
  0
VERTEX
  8
SCANIA_P114_CB_6
 10
-1.6646
 20
-20.5829
 30
0
 70
     0
  0
VERTEX
  8
SCANIA_P114_CB_6
 10
-1.5447
 20
-20.5057
 30
0
 70
     0
  0
VERTEX
  8
SCANIA_P114_CB_6
 10
-1.4211
 20
-20.4343
 30
0
 70
     0
  0
VERTEX
  8
SCANIA_P114_CB_6
 10
-1.2939
 20
-20.3687
 30
0
 70
     0
  0
VERTEX
  8
SCANIA_P114_CB_6
 10
-1.1632
 20
-20.3093
 30
0
 70
     0
  0
VERTEX
  8
SCANIA_P114_CB_6
 10
-1.0294
 20
-20.2561
 30
0
 70
     0
  0
VERTEX
  8
SCANIA_P114_CB_6
 10
-0.8925
 20
-20.2094
 30
0
 70
     0
  0
VERTEX
  8
SCANIA_P114_CB_6
 10
-0.7528
 20
-20.1693
 30
0
 70
     0
  0
VERTEX
  8
SCANIA_P114_CB_6
 10
-0.6104
 20
-20.1361
 30
0
 70
     0
  0
VERTEX
  8
SCANIA_P114_CB_6
 10
-0.4656
 20
-20.11
 30
0
 70
     0
  0
VERTEX
  8
SCANIA_P114_CB_6
 10
-0.3186
 20
-20.0911
 30
0
 70
     0
  0
VERTEX
  8
SCANIA_P114_CB_6
 10
-0.1695
 20
-20.0796
 30
0
 70
     0
  0
VERTEX
  8
SCANIA_P114_CB_6
 10
-0.0185
 20
-20.0757
 30
0
 70
     0
  0
VERTEX
  8
SCANIA_P114_CB_6
 10
-0.0185
 20
-20.0757
 30
0
 70
     0
  0
VERTEX
  8
SCANIA_P114_CB_6
 10
0.1325
 20
-20.0796
 30
0
 70
     0
  0
VERTEX
  8
SCANIA_P114_CB_6
 10
0.2816
 20
-20.0911
 30
0
 70
     0
  0
VERTEX
  8
SCANIA_P114_CB_6
 10
0.4287
 20
-20.11
 30
0
 70
     0
  0
VERTEX
  8
SCANIA_P114_CB_6
 10
0.5735
 20
-20.1361
 30
0
 70
     0
  0
VERTEX
  8
SCANIA_P114_CB_6
 10
0.7158
 20
-20.1693
 30
0
 70
     0
  0
VERTEX
  8
SCANIA_P114_CB_6
 10
0.8555
 20
-20.2094
 30
0
 70
     0
  0
VERTEX
  8
SCANIA_P114_CB_6
 10
0.9924
 20
-20.2561
 30
0
 70
     0
  0
VERTEX
  8
SCANIA_P114_CB_6
 10
1.1263
 20
-20.3093
 30
0
 70
     0
  0
VERTEX
  8
SCANIA_P114_CB_6
 10
1.2569
 20
-20.3687
 30
0
 70
     0
  0
VERTEX
  8
SCANIA_P114_CB_6
 10
1.3841
 20
-20.4343
 30
0
 70
     0
  0
VERTEX
  8
SCANIA_P114_CB_6
 10
1.5078
 20
-20.5057
 30
0
 70
     0
  0
VERTEX
  8
SCANIA_P114_CB_6
 10
1.6276
 20
-20.5829
 30
0
 70
     0
  0
VERTEX
  8
SCANIA_P114_CB_6
 10
1.7435
 20
-20.6655
 30
0
 70
     0
  0
VERTEX
  8
SCANIA_P114_CB_6
 10
1.8552
 20
-20.7535
 30
0
 70
     0
  0
VERTEX
  8
SCANIA_P114_CB_6
 10
1.9625
 20
-20.8466
 30
0
 70
     0
  0
VERTEX
  8
SCANIA_P114_CB_6
 10
2.0653
 20
-20.9446
 30
0
 70
     0
  0
VERTEX
  8
SCANIA_P114_CB_6
 10
2.1634
 20
-21.0474
 30
0
 70
     0
  0
VERTEX
  8
SCANIA_P114_CB_6
 10
2.2565
 20
-21.1548
 30
0
 70
     0
  0
VERTEX
  8
SCANIA_P114_CB_6
 10
2.3445
 20
-21.2665
 30
0
 70
     0
  0
VERTEX
  8
SCANIA_P114_CB_6
 10
2.4271
 20
-21.3823
 30
0
 70
     0
  0
VERTEX
  8
SCANIA_P114_CB_6
 10
2.5043
 20
-21.5022
 30
0
 70
     0
  0
VERTEX
  8
SCANIA_P114_CB_6
 10
2.5757
 20
-21.6258
 30
0
 70
     0
  0
VERTEX
  8
SCANIA_P114_CB_6
 10
2.6412
 20
-21.7531
 30
0
 70
     0
  0
VERTEX
  8
SCANIA_P114_CB_6
 10
2.7007
 20
-21.8837
 30
0
 70
     0
  0
VERTEX
  8
SCANIA_P114_CB_6
 10
2.7539
 20
-22.0176
 30
0
 70
     0
  0
VERTEX
  8
SCANIA_P114_CB_6
 10
2.8006
 20
-22.1544
 30
0
 70
     0
  0
VERTEX
  8
SCANIA_P114_CB_6
 10
2.8406
 20
-22.2942
 30
0
 70
     0
  0
VERTEX
  8
SCANIA_P114_CB_6
 10
2.8738
 20
-22.4365
 30
0
 70
     0
  0
VERTEX
  8
SCANIA_P114_CB_6
 10
2.9
 20
-22.5813
 30
0
 70
     0
  0
VERTEX
  8
SCANIA_P114_CB_6
 10
2.9189
 20
-22.7283
 30
0
 70
     0
  0
VERTEX
  8
SCANIA_P114_CB_6
 10
2.9304
 20
-22.8775
 30
0
 70
     0
  0
VERTEX
  8
SCANIA_P114_CB_6
 10
2.9343
 20
-23.0284
 30
0
 70
     0
  0
VERTEX
  8
SCANIA_P114_CB_6
 10
2.9343
 20
-23.0284
 30
0
 70
     0
  0
VERTEX
  8
SCANIA_P114_CB_6
 10
2.9304
 20
-23.1794
 30
0
 70
     0
  0
VERTEX
  8
SCANIA_P114_CB_6
 10
2.9189
 20
-23.3285
 30
0
 70
     0
  0
VERTEX
  8
SCANIA_P114_CB_6
 10
2.9
 20
-23.4756
 30
0
 70
     0
  0
VERTEX
  8
SCANIA_P114_CB_6
 10
2.8738
 20
-23.6204
 30
0
 70
     0
  0
VERTEX
  8
SCANIA_P114_CB_6
 10
2.8406
 20
-23.7627
 30
0
 70
     0
  0
VERTEX
  8
SCANIA_P114_CB_6
 10
2.8006
 20
-23.9024
 30
0
 70
     0
  0
VERTEX
  8
SCANIA_P114_CB_6
 10
2.7539
 20
-24.0393
 30
0
 70
     0
  0
VERTEX
  8
SCANIA_P114_CB_6
 10
2.7007
 20
-24.1732
 30
0
 70
     0
  0
VERTEX
  8
SCANIA_P114_CB_6
 10
2.6412
 20
-24.3038
 30
0
 70
     0
  0
VERTEX
  8
SCANIA_P114_CB_6
 10
2.5757
 20
-24.4311
 30
0
 70
     0
  0
VERTEX
  8
SCANIA_P114_CB_6
 10
2.5043
 20
-24.5547
 30
0
 70
     0
  0
VERTEX
  8
SCANIA_P114_CB_6
 10
2.4271
 20
-24.6746
 30
0
 70
     0
  0
VERTEX
  8
SCANIA_P114_CB_6
 10
2.3445
 20
-24.7904
 30
0
 70
     0
  0
VERTEX
  8
SCANIA_P114_CB_6
 10
2.2565
 20
-24.9021
 30
0
 70
     0
  0
VERTEX
  8
SCANIA_P114_CB_6
 10
2.1634
 20
-25.0095
 30
0
 70
     0
  0
VERTEX
  8
SCANIA_P114_CB_6
 10
2.0653
 20
-25.1123
 30
0
 70
     0
  0
VERTEX
  8
SCANIA_P114_CB_6
 10
1.9625
 20
-25.2103
 30
0
 70
     0
  0
VERTEX
  8
SCANIA_P114_CB_6
 10
1.8552
 20
-25.3034
 30
0
 70
     0
  0
VERTEX
  8
SCANIA_P114_CB_6
 10
1.7435
 20
-25.3914
 30
0
 70
     0
  0
VERTEX
  8
SCANIA_P114_CB_6
 10
1.6276
 20
-25.474
 30
0
 70
     0
  0
VERTEX
  8
SCANIA_P114_CB_6
 10
1.5078
 20
-25.5512
 30
0
 70
     0
  0
VERTEX
  8
SCANIA_P114_CB_6
 10
1.3841
 20
-25.6226
 30
0
 70
     0
  0
VERTEX
  8
SCANIA_P114_CB_6
 10
1.2569
 20
-25.6882
 30
0
 70
     0
  0
VERTEX
  8
SCANIA_P114_CB_6
 10
1.1263
 20
-25.7476
 30
0
 70
     0
  0
VERTEX
  8
SCANIA_P114_CB_6
 10
0.9924
 20
-25.8008
 30
0
 70
     0
  0
VERTEX
  8
SCANIA_P114_CB_6
 10
0.8555
 20
-25.8475
 30
0
 70
     0
  0
VERTEX
  8
SCANIA_P114_CB_6
 10
0.7158
 20
-25.8876
 30
0
 70
     0
  0
VERTEX
  8
SCANIA_P114_CB_6
 10
0.5735
 20
-25.9208
 30
0
 70
     0
  0
VERTEX
  8
SCANIA_P114_CB_6
 10
0.4287
 20
-25.9469
 30
0
 70
     0
  0
VERTEX
  8
SCANIA_P114_CB_6
 10
0.2816
 20
-25.9658
 30
0
 70
     0
  0
VERTEX
  8
SCANIA_P114_CB_6
 10
0.1325
 20
-25.9773
 30
0
 70
     0
  0
VERTEX
  8
SCANIA_P114_CB_6
 10
-0.0185
 20
-25.9812
 30
0
 70
     0
  0
VERTEX
  8
SCANIA_P114_CB_6
 10
-0.0185
 20
-25.9812
 30
0
 70
     0
  0
VERTEX
  8
SCANIA_P114_CB_6
 10
-0.1695
 20
-25.9773
 30
0
 70
     0
  0
VERTEX
  8
SCANIA_P114_CB_6
 10
-0.3186
 20
-25.9658
 30
0
 70
     0
  0
VERTEX
  8
SCANIA_P114_CB_6
 10
-0.4656
 20
-25.9469
 30
0
 70
     0
  0
VERTEX
  8
SCANIA_P114_CB_6
 10
-0.6104
 20
-25.9208
 30
0
 70
     0
  0
VERTEX
  8
SCANIA_P114_CB_6
 10
-0.7528
 20
-25.8876
 30
0
 70
     0
  0
VERTEX
  8
SCANIA_P114_CB_6
 10
-0.8925
 20
-25.8475
 30
0
 70
     0
  0
VERTEX
  8
SCANIA_P114_CB_6
 10
-1.0294
 20
-25.8008
 30
0
 70
     0
  0
VERTEX
  8
SCANIA_P114_CB_6
 10
-1.1632
 20
-25.7476
 30
0
 70
     0
  0
VERTEX
  8
SCANIA_P114_CB_6
 10
-1.2939
 20
-25.6882
 30
0
 70
     0
  0
VERTEX
  8
SCANIA_P114_CB_6
 10
-1.4211
 20
-25.6226
 30
0
 70
     0
  0
VERTEX
  8
SCANIA_P114_CB_6
 10
-1.5447
 20
-25.5512
 30
0
 70
     0
  0
VERTEX
  8
SCANIA_P114_CB_6
 10
-1.6646
 20
-25.474
 30
0
 70
     0
  0
VERTEX
  8
SCANIA_P114_CB_6
 10
-1.7805
 20
-25.3914
 30
0
 70
     0
  0
VERTEX
  8
SCANIA_P114_CB_6
 10
-1.8922
 20
-25.3034
 30
0
 70
     0
  0
VERTEX
  8
SCANIA_P114_CB_6
 10
-1.9995
 20
-25.2103
 30
0
 70
     0
  0
VERTEX
  8
SCANIA_P114_CB_6
 10
-2.1023
 20
-25.1123
 30
0
 70
     0
  0
VERTEX
  8
SCANIA_P114_CB_6
 10
-2.2003
 20
-25.0095
 30
0
 70
     0
  0
VERTEX
  8
SCANIA_P114_CB_6
 10
-2.2934
 20
-24.9021
 30
0
 70
     0
  0
VERTEX
  8
SCANIA_P114_CB_6
 10
-2.3814
 20
-24.7904
 30
0
 70
     0
  0
VERTEX
  8
SCANIA_P114_CB_6
 10
-2.4641
 20
-24.6746
 30
0
 70
     0
  0
VERTEX
  8
SCANIA_P114_CB_6
 10
-2.5412
 20
-24.5547
 30
0
 70
     0
  0
VERTEX
  8
SCANIA_P114_CB_6
 10
-2.6127
 20
-24.4311
 30
0
 70
     0
  0
VERTEX
  8
SCANIA_P114_CB_6
 10
-2.6782
 20
-24.3038
 30
0
 70
     0
  0
VERTEX
  8
SCANIA_P114_CB_6
 10
-2.7377
 20
-24.1732
 30
0
 70
     0
  0
VERTEX
  8
SCANIA_P114_CB_6
 10
-2.7908
 20
-24.0393
 30
0
 70
     0
  0
VERTEX
  8
SCANIA_P114_CB_6
 10
-2.8376
 20
-23.9024
 30
0
 70
     0
  0
VERTEX
  8
SCANIA_P114_CB_6
 10
-2.8776
 20
-23.7627
 30
0
 70
     0
  0
VERTEX
  8
SCANIA_P114_CB_6
 10
-2.9108
 20
-23.6204
 30
0
 70
     0
  0
VERTEX
  8
SCANIA_P114_CB_6
 10
-2.937
 20
-23.4756
 30
0
 70
     0
  0
VERTEX
  8
SCANIA_P114_CB_6
 10
-2.9559
 20
-23.3285
 30
0
 70
     0
  0
VERTEX
  8
SCANIA_P114_CB_6
 10
-2.9674
 20
-23.1794
 30
0
 70
     0
  0
VERTEX
  8
SCANIA_P114_CB_6
 10
-2.9712
 20
-23.0284
 30
0
 70
     0
  0
SEQEND
  0
POLYLINE
  8
SCANIA_P114_CB_6
  6
CONTINUOUS
 62
     7
 66
     1
 40
0.0139
 41
0.0139
  0
VERTEX
  8
SCANIA_P114_CB_6
 10
-9.3689
 20
-23.0284
 30
0
 70
     0
  0
VERTEX
  8
SCANIA_P114_CB_6
 10
-9.3658
 20
-22.7887
 30
0
 70
     0
  0
VERTEX
  8
SCANIA_P114_CB_6
 10
-9.3566
 20
-22.5503
 30
0
 70
     0
  0
VERTEX
  8
SCANIA_P114_CB_6
 10
-9.3414
 20
-22.3134
 30
0
 70
     0
  0
VERTEX
  8
SCANIA_P114_CB_6
 10
-9.3202
 20
-22.0781
 30
0
 70
     0
  0
VERTEX
  8
SCANIA_P114_CB_6
 10
-9.2932
 20
-21.8444
 30
0
 70
     0
  0
VERTEX
  8
SCANIA_P114_CB_6
 10
-9.2603
 20
-21.6125
 30
0
 70
     0
  0
VERTEX
  8
SCANIA_P114_CB_6
 10
-9.2217
 20
-21.3823
 30
0
 70
     0
  0
VERTEX
  8
SCANIA_P114_CB_6
 10
-9.1775
 20
-21.154
 30
0
 70
     0
  0
VERTEX
  8
SCANIA_P114_CB_6
 10
-9.1277
 20
-20.9276
 30
0
 70
     0
  0
VERTEX
  8
SCANIA_P114_CB_6
 10
-9.0724
 20
-20.7032
 30
0
 70
     0
  0
VERTEX
  8
SCANIA_P114_CB_6
 10
-9.0116
 20
-20.4809
 30
0
 70
     0
  0
VERTEX
  8
SCANIA_P114_CB_6
 10
-8.9455
 20
-20.2608
 30
0
 70
     0
  0
VERTEX
  8
SCANIA_P114_CB_6
 10
-8.8742
 20
-20.0429
 30
0
 70
     0
  0
VERTEX
  8
SCANIA_P114_CB_6
 10
-8.7976
 20
-19.8273
 30
0
 70
     0
  0
VERTEX
  8
SCANIA_P114_CB_6
 10
-8.7159
 20
-19.6142
 30
0
 70
     0
  0
VERTEX
  8
SCANIA_P114_CB_6
 10
-8.6292
 20
-19.4035
 30
0
 70
     0
  0
VERTEX
  8
SCANIA_P114_CB_6
 10
-8.4409
 20
-18.9897
 30
0
 70
     0
  0
VERTEX
  8
SCANIA_P114_CB_6
 10
-8.2334
 20
-18.5868
 30
0
 70
     0
  0
VERTEX
  8
SCANIA_P114_CB_6
 10
-8.0071
 20
-18.1953
 30
0
 70
     0
  0
VERTEX
  8
SCANIA_P114_CB_6
 10
-7.7629
 20
-17.8158
 30
0
 70
     0
  0
VERTEX
  8
SCANIA_P114_CB_6
 10
-7.5011
 20
-17.4488
 30
0
 70
     0
  0
VERTEX
  8
SCANIA_P114_CB_6
 10
-7.2225
 20
-17.0951
 30
0
 70
     0
  0
VERTEX
  8
SCANIA_P114_CB_6
 10
-6.9277
 20
-16.7552
 30
0
 70
     0
  0
VERTEX
  8
SCANIA_P114_CB_6
 10
-6.6172
 20
-16.4297
 30
0
 70
     0
  0
VERTEX
  8
SCANIA_P114_CB_6
 10
-6.2917
 20
-16.1192
 30
0
 70
     0
  0
VERTEX
  8
SCANIA_P114_CB_6
 10
-5.9518
 20
-15.8244
 30
0
 70
     0
  0
VERTEX
  8
SCANIA_P114_CB_6
 10
-5.5981
 20
-15.5458
 30
0
 70
     0
  0
VERTEX
  8
SCANIA_P114_CB_6
 10
-5.2312
 20
-15.2841
 30
0
 70
     0
  0
VERTEX
  8
SCANIA_P114_CB_6
 10
-4.8516
 20
-15.0398
 30
0
 70
     0
  0
VERTEX
  8
SCANIA_P114_CB_6
 10
-4.4601
 20
-14.8136
 30
0
 70
     0
  0
VERTEX
  8
SCANIA_P114_CB_6
 10
-4.0572
 20
-14.606
 30
0
 70
     0
  0
VERTEX
  8
SCANIA_P114_CB_6
 10
-3.6435
 20
-14.4177
 30
0
 70
     0
  0
VERTEX
  8
SCANIA_P114_CB_6
 10
-3.4328
 20
-14.331
 30
0
 70
     0
  0
VERTEX
  8
SCANIA_P114_CB_6
 10
-3.2196
 20
-14.2493
 30
0
 70
     0
  0
VERTEX
  8
SCANIA_P114_CB_6
 10
-3.004
 20
-14.1728
 30
0
 70
     0
  0
VERTEX
  8
SCANIA_P114_CB_6
 10
-2.7862
 20
-14.1014
 30
0
 70
     0
  0
VERTEX
  8
SCANIA_P114_CB_6
 10
-2.566
 20
-14.0353
 30
0
 70
     0
  0
VERTEX
  8
SCANIA_P114_CB_6
 10
-2.3437
 20
-13.9746
 30
0
 70
     0
  0
VERTEX
  8
SCANIA_P114_CB_6
 10
-2.1194
 20
-13.9193
 30
0
 70
     0
  0
VERTEX
  8
SCANIA_P114_CB_6
 10
-1.893
 20
-13.8694
 30
0
 70
     0
  0
VERTEX
  8
SCANIA_P114_CB_6
 10
-1.6646
 20
-13.8252
 30
0
 70
     0
  0
VERTEX
  8
SCANIA_P114_CB_6
 10
-1.4345
 20
-13.7866
 30
0
 70
     0
  0
VERTEX
  8
SCANIA_P114_CB_6
 10
-1.2025
 20
-13.7538
 30
0
 70
     0
  0
VERTEX
  8
SCANIA_P114_CB_6
 10
-0.9688
 20
-13.7267
 30
0
 70
     0
  0
VERTEX
  8
SCANIA_P114_CB_6
 10
-0.7335
 20
-13.7055
 30
0
 70
     0
  0
VERTEX
  8
SCANIA_P114_CB_6
 10
-0.4966
 20
-13.6903
 30
0
 70
     0
  0
VERTEX
  8
SCANIA_P114_CB_6
 10
-0.2582
 20
-13.6811
 30
0
 70
     0
  0
VERTEX
  8
SCANIA_P114_CB_6
 10
-0.0185
 20
-13.6781
 30
0
 70
     0
  0
VERTEX
  8
SCANIA_P114_CB_6
 10
-0.0185
 20
-13.6781
 30
0
 70
     0
  0
VERTEX
  8
SCANIA_P114_CB_6
 10
0.2213
 20
-13.6811
 30
0
 70
     0
  0
VERTEX
  8
SCANIA_P114_CB_6
 10
0.4596
 20
-13.6903
 30
0
 70
     0
  0
VERTEX
  8
SCANIA_P114_CB_6
 10
0.6965
 20
-13.7055
 30
0
 70
     0
  0
VERTEX
  8
SCANIA_P114_CB_6
 10
0.9318
 20
-13.7267
 30
0
 70
     0
  0
VERTEX
  8
SCANIA_P114_CB_6
 10
1.1655
 20
-13.7538
 30
0
 70
     0
  0
VERTEX
  8
SCANIA_P114_CB_6
 10
1.3975
 20
-13.7866
 30
0
 70
     0
  0
VERTEX
  8
SCANIA_P114_CB_6
 10
1.6277
 20
-13.8252
 30
0
 70
     0
  0
VERTEX
  8
SCANIA_P114_CB_6
 10
1.856
 20
-13.8694
 30
0
 70
     0
  0
VERTEX
  8
SCANIA_P114_CB_6
 10
2.0824
 20
-13.9193
 30
0
 70
     0
  0
VERTEX
  8
SCANIA_P114_CB_6
 10
2.3068
 20
-13.9746
 30
0
 70
     0
  0
VERTEX
  8
SCANIA_P114_CB_6
 10
2.5291
 20
-14.0353
 30
0
 70
     0
  0
VERTEX
  8
SCANIA_P114_CB_6
 10
2.7492
 20
-14.1014
 30
0
 70
     0
  0
VERTEX
  8
SCANIA_P114_CB_6
 10
2.9671
 20
-14.1728
 30
0
 70
     0
  0
VERTEX
  8
SCANIA_P114_CB_6
 10
3.1826
 20
-14.2493
 30
0
 70
     0
  0
VERTEX
  8
SCANIA_P114_CB_6
 10
3.3958
 20
-14.331
 30
0
 70
     0
  0
VERTEX
  8
SCANIA_P114_CB_6
 10
3.6065
 20
-14.4177
 30
0
 70
     0
  0
VERTEX
  8
SCANIA_P114_CB_6
 10
4.0202
 20
-14.606
 30
0
 70
     0
  0
VERTEX
  8
SCANIA_P114_CB_6
 10
4.4231
 20
-14.8136
 30
0
 70
     0
  0
VERTEX
  8
SCANIA_P114_CB_6
 10
4.8147
 20
-15.0398
 30
0
 70
     0
  0
VERTEX
  8
SCANIA_P114_CB_6
 10
5.1942
 20
-15.2841
 30
0
 70
     0
  0
VERTEX
  8
SCANIA_P114_CB_6
 10
5.5611
 20
-15.5458
 30
0
 70
     0
  0
VERTEX
  8
SCANIA_P114_CB_6
 10
5.9149
 20
-15.8244
 30
0
 70
     0
  0
VERTEX
  8
SCANIA_P114_CB_6
 10
6.2548
 20
-16.1192
 30
0
 70
     0
  0
VERTEX
  8
SCANIA_P114_CB_6
 10
6.5803
 20
-16.4297
 30
0
 70
     0
  0
VERTEX
  8
SCANIA_P114_CB_6
 10
6.8907
 20
-16.7552
 30
0
 70
     0
  0
VERTEX
  8
SCANIA_P114_CB_6
 10
7.1856
 20
-17.0951
 30
0
 70
     0
  0
VERTEX
  8
SCANIA_P114_CB_6
 10
7.4641
 20
-17.4488
 30
0
 70
     0
  0
VERTEX
  8
SCANIA_P114_CB_6
 10
7.7259
 20
-17.8158
 30
0
 70
     0
  0
VERTEX
  8
SCANIA_P114_CB_6
 10
7.9702
 20
-18.1953
 30
0
 70
     0
  0
VERTEX
  8
SCANIA_P114_CB_6
 10
8.1964
 20
-18.5868
 30
0
 70
     0
  0
VERTEX
  8
SCANIA_P114_CB_6
 10
8.404
 20
-18.9897
 30
0
 70
     0
  0
VERTEX
  8
SCANIA_P114_CB_6
 10
8.5922
 20
-19.4035
 30
0
 70
     0
  0
VERTEX
  8
SCANIA_P114_CB_6
 10
8.679
 20
-19.6142
 30
0
 70
     0
  0
VERTEX
  8
SCANIA_P114_CB_6
 10
8.7607
 20
-19.8273
 30
0
 70
     0
  0
VERTEX
  8
SCANIA_P114_CB_6
 10
8.8372
 20
-20.0429
 30
0
 70
     0
  0
VERTEX
  8
SCANIA_P114_CB_6
 10
8.9086
 20
-20.2608
 30
0
 70
     0
  0
VERTEX
  8
SCANIA_P114_CB_6
 10
8.9747
 20
-20.4809
 30
0
 70
     0
  0
VERTEX
  8
SCANIA_P114_CB_6
 10
9.0354
 20
-20.7032
 30
0
 70
     0
  0
VERTEX
  8
SCANIA_P114_CB_6
 10
9.0907
 20
-20.9276
 30
0
 70
     0
  0
VERTEX
  8
SCANIA_P114_CB_6
 10
9.1405
 20
-21.154
 30
0
 70
     0
  0
VERTEX
  8
SCANIA_P114_CB_6
 10
9.1848
 20
-21.3823
 30
0
 70
     0
  0
VERTEX
  8
SCANIA_P114_CB_6
 10
9.2233
 20
-21.6125
 30
0
 70
     0
  0
VERTEX
  8
SCANIA_P114_CB_6
 10
9.2562
 20
-21.8444
 30
0
 70
     0
  0
VERTEX
  8
SCANIA_P114_CB_6
 10
9.2833
 20
-22.0781
 30
0
 70
     0
  0
VERTEX
  8
SCANIA_P114_CB_6
 10
9.3044
 20
-22.3134
 30
0
 70
     0
  0
VERTEX
  8
SCANIA_P114_CB_6
 10
9.3196
 20
-22.5503
 30
0
 70
     0
  0
VERTEX
  8
SCANIA_P114_CB_6
 10
9.3288
 20
-22.7887
 30
0
 70
     0
  0
VERTEX
  8
SCANIA_P114_CB_6
 10
9.3319
 20
-23.0284
 30
0
 70
     0
  0
VERTEX
  8
SCANIA_P114_CB_6
 10
9.3319
 20
-23.0284
 30
0
 70
     0
  0
VERTEX
  8
SCANIA_P114_CB_6
 10
9.3288
 20
-23.2682
 30
0
 70
     0
  0
VERTEX
  8
SCANIA_P114_CB_6
 10
9.3196
 20
-23.5066
 30
0
 70
     0
  0
VERTEX
  8
SCANIA_P114_CB_6
 10
9.3044
 20
-23.7434
 30
0
 70
     0
  0
VERTEX
  8
SCANIA_P114_CB_6
 10
9.2833
 20
-23.9788
 30
0
 70
     0
  0
VERTEX
  8
SCANIA_P114_CB_6
 10
9.2562
 20
-24.2125
 30
0
 70
     0
  0
VERTEX
  8
SCANIA_P114_CB_6
 10
9.2233
 20
-24.4444
 30
0
 70
     0
  0
VERTEX
  8
SCANIA_P114_CB_6
 10
9.1848
 20
-24.6746
 30
0
 70
     0
  0
VERTEX
  8
SCANIA_P114_CB_6
 10
9.1405
 20
-24.9029
 30
0
 70
     0
  0
VERTEX
  8
SCANIA_P114_CB_6
 10
9.0907
 20
-25.1293
 30
0
 70
     0
  0
VERTEX
  8
SCANIA_P114_CB_6
 10
9.0354
 20
-25.3537
 30
0
 70
     0
  0
VERTEX
  8
SCANIA_P114_CB_6
 10
8.9747
 20
-25.576
 30
0
 70
     0
  0
VERTEX
  8
SCANIA_P114_CB_6
 10
8.9086
 20
-25.7961
 30
0
 70
     0
  0
VERTEX
  8
SCANIA_P114_CB_6
 10
8.8372
 20
-26.014
 30
0
 70
     0
  0
VERTEX
  8
SCANIA_P114_CB_6
 10
8.7607
 20
-26.2296
 30
0
 70
     0
  0
VERTEX
  8
SCANIA_P114_CB_6
 10
8.679
 20
-26.4427
 30
0
 70
     0
  0
VERTEX
  8
SCANIA_P114_CB_6
 10
8.5922
 20
-26.6534
 30
0
 70
     0
  0
VERTEX
  8
SCANIA_P114_CB_6
 10
8.404
 20
-27.0671
 30
0
 70
     0
  0
VERTEX
  8
SCANIA_P114_CB_6
 10
8.1964
 20
-27.4701
 30
0
 70
     0
  0
VERTEX
  8
SCANIA_P114_CB_6
 10
7.9702
 20
-27.8616
 30
0
 70
     0
  0
VERTEX
  8
SCANIA_P114_CB_6
 10
7.7259
 20
-28.2411
 30
0
 70
     0
  0
VERTEX
  8
SCANIA_P114_CB_6
 10
7.4641
 20
-28.6081
 30
0
 70
     0
  0
VERTEX
  8
SCANIA_P114_CB_6
 10
7.1856
 20
-28.9618
 30
0
 70
     0
  0
VERTEX
  8
SCANIA_P114_CB_6
 10
6.8907
 20
-29.3017
 30
0
 70
     0
  0
VERTEX
  8
SCANIA_P114_CB_6
 10
6.5803
 20
-29.6272
 30
0
 70
     0
  0
VERTEX
  8
SCANIA_P114_CB_6
 10
6.2548
 20
-29.9377
 30
0
 70
     0
  0
VERTEX
  8
SCANIA_P114_CB_6
 10
5.9149
 20
-30.2325
 30
0
 70
     0
  0
VERTEX
  8
SCANIA_P114_CB_6
 10
5.5611
 20
-30.5111
 30
0
 70
     0
  0
VERTEX
  8
SCANIA_P114_CB_6
 10
5.1942
 20
-30.7728
 30
0
 70
     0
  0
VERTEX
  8
SCANIA_P114_CB_6
 10
4.8147
 20
-31.0171
 30
0
 70
     0
  0
VERTEX
  8
SCANIA_P114_CB_6
 10
4.4231
 20
-31.2433
 30
0
 70
     0
  0
VERTEX
  8
SCANIA_P114_CB_6
 10
4.0202
 20
-31.4509
 30
0
 70
     0
  0
VERTEX
  8
SCANIA_P114_CB_6
 10
3.6065
 20
-31.6392
 30
0
 70
     0
  0
VERTEX
  8
SCANIA_P114_CB_6
 10
3.3958
 20
-31.7259
 30
0
 70
     0
  0
VERTEX
  8
SCANIA_P114_CB_6
 10
3.1826
 20
-31.8076
 30
0
 70
     0
  0
VERTEX
  8
SCANIA_P114_CB_6
 10
2.9671
 20
-31.8841
 30
0
 70
     0
  0
VERTEX
  8
SCANIA_P114_CB_6
 10
2.7492
 20
-31.9555
 30
0
 70
     0
  0
VERTEX
  8
SCANIA_P114_CB_6
 10
2.5291
 20
-32.0216
 30
0
 70
     0
  0
VERTEX
  8
SCANIA_P114_CB_6
 10
2.3068
 20
-32.0823
 30
0
 70
     0
  0
VERTEX
  8
SCANIA_P114_CB_6
 10
2.0824
 20
-32.1376
 30
0
 70
     0
  0
VERTEX
  8
SCANIA_P114_CB_6
 10
1.856
 20
-32.1875
 30
0
 70
     0
  0
VERTEX
  8
SCANIA_P114_CB_6
 10
1.6277
 20
-32.2317
 30
0
 70
     0
  0
VERTEX
  8
SCANIA_P114_CB_6
 10
1.3975
 20
-32.2703
 30
0
 70
     0
  0
VERTEX
  8
SCANIA_P114_CB_6
 10
1.1655
 20
-32.3031
 30
0
 70
     0
  0
VERTEX
  8
SCANIA_P114_CB_6
 10
0.9318
 20
-32.3302
 30
0
 70
     0
  0
VERTEX
  8
SCANIA_P114_CB_6
 10
0.6965
 20
-32.3514
 30
0
 70
     0
  0
VERTEX
  8
SCANIA_P114_CB_6
 10
0.4596
 20
-32.3666
 30
0
 70
     0
  0
VERTEX
  8
SCANIA_P114_CB_6
 10
0.2213
 20
-32.3758
 30
0
 70
     0
  0
VERTEX
  8
SCANIA_P114_CB_6
 10
-0.0185
 20
-32.3788
 30
0
 70
     0
  0
VERTEX
  8
SCANIA_P114_CB_6
 10
-0.0185
 20
-32.3788
 30
0
 70
     0
  0
VERTEX
  8
SCANIA_P114_CB_6
 10
-0.2582
 20
-32.3758
 30
0
 70
     0
  0
VERTEX
  8
SCANIA_P114_CB_6
 10
-0.4966
 20
-32.3666
 30
0
 70
     0
  0
VERTEX
  8
SCANIA_P114_CB_6
 10
-0.7335
 20
-32.3514
 30
0
 70
     0
  0
VERTEX
  8
SCANIA_P114_CB_6
 10
-0.9688
 20
-32.3302
 30
0
 70
     0
  0
VERTEX
  8
SCANIA_P114_CB_6
 10
-1.2025
 20
-32.3031
 30
0
 70
     0
  0
VERTEX
  8
SCANIA_P114_CB_6
 10
-1.4345
 20
-32.2703
 30
0
 70
     0
  0
VERTEX
  8
SCANIA_P114_CB_6
 10
-1.6646
 20
-32.2317
 30
0
 70
     0
  0
VERTEX
  8
SCANIA_P114_CB_6
 10
-1.893
 20
-32.1875
 30
0
 70
     0
  0
VERTEX
  8
SCANIA_P114_CB_6
 10
-2.1194
 20
-32.1376
 30
0
 70
     0
  0
VERTEX
  8
SCANIA_P114_CB_6
 10
-2.3437
 20
-32.0823
 30
0
 70
     0
  0
VERTEX
  8
SCANIA_P114_CB_6
 10
-2.566
 20
-32.0216
 30
0
 70
     0
  0
VERTEX
  8
SCANIA_P114_CB_6
 10
-2.7862
 20
-31.9555
 30
0
 70
     0
  0
VERTEX
  8
SCANIA_P114_CB_6
 10
-3.004
 20
-31.8841
 30
0
 70
     0
  0
VERTEX
  8
SCANIA_P114_CB_6
 10
-3.2196
 20
-31.8076
 30
0
 70
     0
  0
VERTEX
  8
SCANIA_P114_CB_6
 10
-3.4328
 20
-31.7259
 30
0
 70
     0
  0
VERTEX
  8
SCANIA_P114_CB_6
 10
-3.6435
 20
-31.6392
 30
0
 70
     0
  0
VERTEX
  8
SCANIA_P114_CB_6
 10
-4.0572
 20
-31.4509
 30
0
 70
     0
  0
VERTEX
  8
SCANIA_P114_CB_6
 10
-4.4601
 20
-31.2433
 30
0
 70
     0
  0
VERTEX
  8
SCANIA_P114_CB_6
 10
-4.8516
 20
-31.0171
 30
0
 70
     0
  0
VERTEX
  8
SCANIA_P114_CB_6
 10
-5.2312
 20
-30.7728
 30
0
 70
     0
  0
VERTEX
  8
SCANIA_P114_CB_6
 10
-5.5981
 20
-30.5111
 30
0
 70
     0
  0
VERTEX
  8
SCANIA_P114_CB_6
 10
-5.9518
 20
-30.2325
 30
0
 70
     0
  0
VERTEX
  8
SCANIA_P114_CB_6
 10
-6.2917
 20
-29.9377
 30
0
 70
     0
  0
VERTEX
  8
SCANIA_P114_CB_6
 10
-6.6172
 20
-29.6272
 30
0
 70
     0
  0
VERTEX
  8
SCANIA_P114_CB_6
 10
-6.9277
 20
-29.3017
 30
0
 70
     0
  0
VERTEX
  8
SCANIA_P114_CB_6
 10
-7.2225
 20
-28.9618
 30
0
 70
     0
  0
VERTEX
  8
SCANIA_P114_CB_6
 10
-7.5011
 20
-28.6081
 30
0
 70
     0
  0
VERTEX
  8
SCANIA_P114_CB_6
 10
-7.7629
 20
-28.2411
 30
0
 70
     0
  0
VERTEX
  8
SCANIA_P114_CB_6
 10
-8.0071
 20
-27.8616
 30
0
 70
     0
  0
VERTEX
  8
SCANIA_P114_CB_6
 10
-8.2334
 20
-27.4701
 30
0
 70
     0
  0
VERTEX
  8
SCANIA_P114_CB_6
 10
-8.4409
 20
-27.0671
 30
0
 70
     0
  0
VERTEX
  8
SCANIA_P114_CB_6
 10
-8.6292
 20
-26.6534
 30
0
 70
     0
  0
VERTEX
  8
SCANIA_P114_CB_6
 10
-8.7159
 20
-26.4427
 30
0
 70
     0
  0
VERTEX
  8
SCANIA_P114_CB_6
 10
-8.7976
 20
-26.2296
 30
0
 70
     0
  0
VERTEX
  8
SCANIA_P114_CB_6
 10
-8.8742
 20
-26.014
 30
0
 70
     0
  0
VERTEX
  8
SCANIA_P114_CB_6
 10
-8.9455
 20
-25.7961
 30
0
 70
     0
  0
VERTEX
  8
SCANIA_P114_CB_6
 10
-9.0116
 20
-25.576
 30
0
 70
     0
  0
VERTEX
  8
SCANIA_P114_CB_6
 10
-9.0724
 20
-25.3537
 30
0
 70
     0
  0
VERTEX
  8
SCANIA_P114_CB_6
 10
-9.1277
 20
-25.1293
 30
0
 70
     0
  0
VERTEX
  8
SCANIA_P114_CB_6
 10
-9.1775
 20
-24.9029
 30
0
 70
     0
  0
VERTEX
  8
SCANIA_P114_CB_6
 10
-9.2217
 20
-24.6746
 30
0
 70
     0
  0
VERTEX
  8
SCANIA_P114_CB_6
 10
-9.2603
 20
-24.4444
 30
0
 70
     0
  0
VERTEX
  8
SCANIA_P114_CB_6
 10
-9.2932
 20
-24.2125
 30
0
 70
     0
  0
VERTEX
  8
SCANIA_P114_CB_6
 10
-9.3202
 20
-23.9788
 30
0
 70
     0
  0
VERTEX
  8
SCANIA_P114_CB_6
 10
-9.3414
 20
-23.7434
 30
0
 70
     0
  0
VERTEX
  8
SCANIA_P114_CB_6
 10
-9.3566
 20
-23.5066
 30
0
 70
     0
  0
VERTEX
  8
SCANIA_P114_CB_6
 10
-9.3658
 20
-23.2682
 30
0
 70
     0
  0
VERTEX
  8
SCANIA_P114_CB_6
 10
-9.3689
 20
-23.0284
 30
0
 70
     0
  0
SEQEND
  0
POLYLINE
  8
SCANIA_P114_CB_6
  6
CONTINUOUS
 62
     7
 66
     1
 40
0.0139
 41
0.0139
  0
VERTEX
  8
SCANIA_P114_CB_6
 10
-11.2685
 20
-23.0284
 30
0
 70
     0
  0
VERTEX
  8
SCANIA_P114_CB_6
 10
-11.2648
 20
-22.74
 30
0
 70
     0
  0
VERTEX
  8
SCANIA_P114_CB_6
 10
-11.2537
 20
-22.4532
 30
0
 70
     0
  0
VERTEX
  8
SCANIA_P114_CB_6
 10
-11.2354
 20
-22.1682
 30
0
 70
     0
  0
VERTEX
  8
SCANIA_P114_CB_6
 10
-11.2099
 20
-21.8851
 30
0
 70
     0
  0
VERTEX
  8
SCANIA_P114_CB_6
 10
-11.1774
 20
-21.6039
 30
0
 70
     0
  0
VERTEX
  8
SCANIA_P114_CB_6
 10
-11.1379
 20
-21.3248
 30
0
 70
     0
  0
VERTEX
  8
SCANIA_P114_CB_6
 10
-11.0914
 20
-21.0478
 30
0
 70
     0
  0
VERTEX
  8
SCANIA_P114_CB_6
 10
-11.0382
 20
-20.7731
 30
0
 70
     0
  0
VERTEX
  8
SCANIA_P114_CB_6
 10
-10.9783
 20
-20.5008
 30
0
 70
     0
  0
VERTEX
  8
SCANIA_P114_CB_6
 10
-10.9117
 20
-20.2308
 30
0
 70
     0
  0
VERTEX
  8
SCANIA_P114_CB_6
 10
-10.8387
 20
-19.9633
 30
0
 70
     0
  0
VERTEX
  8
SCANIA_P114_CB_6
 10
-10.7591
 20
-19.6985
 30
0
 70
     0
  0
VERTEX
  8
SCANIA_P114_CB_6
 10
-10.6733
 20
-19.4364
 30
0
 70
     0
  0
VERTEX
  8
SCANIA_P114_CB_6
 10
-10.5812
 20
-19.177
 30
0
 70
     0
  0
VERTEX
  8
SCANIA_P114_CB_6
 10
-10.4829
 20
-18.9205
 30
0
 70
     0
  0
VERTEX
  8
SCANIA_P114_CB_6
 10
-10.3785
 20
-18.667
 30
0
 70
     0
  0
VERTEX
  8
SCANIA_P114_CB_6
 10
-10.2682
 20
-18.4166
 30
0
 70
     0
  0
VERTEX
  8
SCANIA_P114_CB_6
 10
-10.152
 20
-18.1693
 30
0
 70
     0
  0
VERTEX
  8
SCANIA_P114_CB_6
 10
-10.03
 20
-17.9252
 30
0
 70
     0
  0
VERTEX
  8
SCANIA_P114_CB_6
 10
-9.9023
 20
-17.6845
 30
0
 70
     0
  0
VERTEX
  8
SCANIA_P114_CB_6
 10
-9.7689
 20
-17.4472
 30
0
 70
     0
  0
VERTEX
  8
SCANIA_P114_CB_6
 10
-9.6301
 20
-17.2134
 30
0
 70
     0
  0
VERTEX
  8
SCANIA_P114_CB_6
 10
-9.4858
 20
-16.9832
 30
0
 70
     0
  0
VERTEX
  8
SCANIA_P114_CB_6
 10
-9.3362
 20
-16.7568
 30
0
 70
     0
  0
VERTEX
  8
SCANIA_P114_CB_6
 10
-9.1813
 20
-16.5341
 30
0
 70
     0
  0
VERTEX
  8
SCANIA_P114_CB_6
 10
-9.0213
 20
-16.3153
 30
0
 70
     0
  0
VERTEX
  8
SCANIA_P114_CB_6
 10
-8.8562
 20
-16.1005
 30
0
 70
     0
  0
VERTEX
  8
SCANIA_P114_CB_6
 10
-8.6861
 20
-15.8897
 30
0
 70
     0
  0
VERTEX
  8
SCANIA_P114_CB_6
 10
-8.3314
 20
-15.4807
 30
0
 70
     0
  0
VERTEX
  8
SCANIA_P114_CB_6
 10
-7.9578
 20
-15.0891
 30
0
 70
     0
  0
VERTEX
  8
SCANIA_P114_CB_6
 10
-7.5662
 20
-14.7156
 30
0
 70
     0
  0
VERTEX
  8
SCANIA_P114_CB_6
 10
-7.1572
 20
-14.3608
 30
0
 70
     0
  0
VERTEX
  8
SCANIA_P114_CB_6
 10
-6.9465
 20
-14.1908
 30
0
 70
     0
  0
VERTEX
  8
SCANIA_P114_CB_6
 10
-6.7316
 20
-14.0257
 30
0
 70
     0
  0
VERTEX
  8
SCANIA_P114_CB_6
 10
-6.5128
 20
-13.8656
 30
0
 70
     0
  0
VERTEX
  8
SCANIA_P114_CB_6
 10
-6.2902
 20
-13.7107
 30
0
 70
     0
  0
VERTEX
  8
SCANIA_P114_CB_6
 10
-6.0637
 20
-13.5611
 30
0
 70
     0
  0
VERTEX
  8
SCANIA_P114_CB_6
 10
-5.8335
 20
-13.4168
 30
0
 70
     0
  0
VERTEX
  8
SCANIA_P114_CB_6
 10
-5.5997
 20
-13.278
 30
0
 70
     0
  0
VERTEX
  8
SCANIA_P114_CB_6
 10
-5.3624
 20
-13.1446
 30
0
 70
     0
  0
VERTEX
  8
SCANIA_P114_CB_6
 10
-5.1217
 20
-13.0169
 30
0
 70
     0
  0
VERTEX
  8
SCANIA_P114_CB_6
 10
-4.8777
 20
-12.8949
 30
0
 70
     0
  0
VERTEX
  8
SCANIA_P114_CB_6
 10
-4.6304
 20
-12.7787
 30
0
 70
     0
  0
VERTEX
  8
SCANIA_P114_CB_6
 10
-4.3799
 20
-12.6684
 30
0
 70
     0
  0
VERTEX
  8
SCANIA_P114_CB_6
 10
-4.1264
 20
-12.564
 30
0
 70
     0
  0
VERTEX
  8
SCANIA_P114_CB_6
 10
-3.8699
 20
-12.4658
 30
0
 70
     0
  0
VERTEX
  8
SCANIA_P114_CB_6
 10
-3.6106
 20
-12.3737
 30
0
 70
     0
  0
VERTEX
  8
SCANIA_P114_CB_6
 10
-3.3484
 20
-12.2878
 30
0
 70
     0
  0
VERTEX
  8
SCANIA_P114_CB_6
 10
-3.0836
 20
-12.2083
 30
0
 70
     0
  0
VERTEX
  8
SCANIA_P114_CB_6
 10
-2.8161
 20
-12.1352
 30
0
 70
     0
  0
VERTEX
  8
SCANIA_P114_CB_6
 10
-2.5462
 20
-12.0686
 30
0
 70
     0
  0
VERTEX
  8
SCANIA_P114_CB_6
 10
-2.2738
 20
-12.0087
 30
0
 70
     0
  0
VERTEX
  8
SCANIA_P114_CB_6
 10
-1.9991
 20
-11.9555
 30
0
 70
     0
  0
VERTEX
  8
SCANIA_P114_CB_6
 10
-1.7221
 20
-11.9091
 30
0
 70
     0
  0
VERTEX
  8
SCANIA_P114_CB_6
 10
-1.443
 20
-11.8695
 30
0
 70
     0
  0
VERTEX
  8
SCANIA_P114_CB_6
 10
-1.1619
 20
-11.837
 30
0
 70
     0
  0
VERTEX
  8
SCANIA_P114_CB_6
 10
-0.8787
 20
-11.8115
 30
0
 70
     0
  0
VERTEX
  8
SCANIA_P114_CB_6
 10
-0.5937
 20
-11.7932
 30
0
 70
     0
  0
VERTEX
  8
SCANIA_P114_CB_6
 10
-0.307
 20
-11.7822
 30
0
 70
     0
  0
VERTEX
  8
SCANIA_P114_CB_6
 10
-0.0185
 20
-11.7784
 30
0
 70
     0
  0
VERTEX
  8
SCANIA_P114_CB_6
 10
-0.0185
 20
-11.7784
 30
0
 70
     0
  0
VERTEX
  8
SCANIA_P114_CB_6
 10
0.27
 20
-11.7822
 30
0
 70
     0
  0
VERTEX
  8
SCANIA_P114_CB_6
 10
0.5568
 20
-11.7932
 30
0
 70
     0
  0
VERTEX
  8
SCANIA_P114_CB_6
 10
0.8418
 20
-11.8115
 30
0
 70
     0
  0
VERTEX
  8
SCANIA_P114_CB_6
 10
1.1249
 20
-11.837
 30
0
 70
     0
  0
VERTEX
  8
SCANIA_P114_CB_6
 10
1.4061
 20
-11.8695
 30
0
 70
     0
  0
VERTEX
  8
SCANIA_P114_CB_6
 10
1.6852
 20
-11.9091
 30
0
 70
     0
  0
VERTEX
  8
SCANIA_P114_CB_6
 10
1.9621
 20
-11.9555
 30
0
 70
     0
  0
VERTEX
  8
SCANIA_P114_CB_6
 10
2.2368
 20
-12.0087
 30
0
 70
     0
  0
VERTEX
  8
SCANIA_P114_CB_6
 10
2.5092
 20
-12.0686
 30
0
 70
     0
  0
VERTEX
  8
SCANIA_P114_CB_6
 10
2.7792
 20
-12.1352
 30
0
 70
     0
  0
VERTEX
  8
SCANIA_P114_CB_6
 10
3.0466
 20
-12.2083
 30
0
 70
     0
  0
VERTEX
  8
SCANIA_P114_CB_6
 10
3.3115
 20
-12.2878
 30
0
 70
     0
  0
VERTEX
  8
SCANIA_P114_CB_6
 10
3.5736
 20
-12.3737
 30
0
 70
     0
  0
VERTEX
  8
SCANIA_P114_CB_6
 10
3.833
 20
-12.4658
 30
0
 70
     0
  0
VERTEX
  8
SCANIA_P114_CB_6
 10
4.0894
 20
-12.564
 30
0
 70
     0
  0
VERTEX
  8
SCANIA_P114_CB_6
 10
4.343
 20
-12.6684
 30
0
 70
     0
  0
VERTEX
  8
SCANIA_P114_CB_6
 10
4.5934
 20
-12.7787
 30
0
 70
     0
  0
VERTEX
  8
SCANIA_P114_CB_6
 10
4.8407
 20
-12.8949
 30
0
 70
     0
  0
VERTEX
  8
SCANIA_P114_CB_6
 10
5.0848
 20
-13.0169
 30
0
 70
     0
  0
VERTEX
  8
SCANIA_P114_CB_6
 10
5.3255
 20
-13.1446
 30
0
 70
     0
  0
VERTEX
  8
SCANIA_P114_CB_6
 10
5.5628
 20
-13.278
 30
0
 70
     0
  0
VERTEX
  8
SCANIA_P114_CB_6
 10
5.7966
 20
-13.4168
 30
0
 70
     0
  0
VERTEX
  8
SCANIA_P114_CB_6
 10
6.0267
 20
-13.5611
 30
0
 70
     0
  0
VERTEX
  8
SCANIA_P114_CB_6
 10
6.2532
 20
-13.7107
 30
0
 70
     0
  0
VERTEX
  8
SCANIA_P114_CB_6
 10
6.4759
 20
-13.8656
 30
0
 70
     0
  0
VERTEX
  8
SCANIA_P114_CB_6
 10
6.6947
 20
-14.0257
 30
0
 70
     0
  0
VERTEX
  8
SCANIA_P114_CB_6
 10
6.9095
 20
-14.1908
 30
0
 70
     0
  0
VERTEX
  8
SCANIA_P114_CB_6
 10
7.1203
 20
-14.3608
 30
0
 70
     0
  0
VERTEX
  8
SCANIA_P114_CB_6
 10
7.5292
 20
-14.7156
 30
0
 70
     0
  0
VERTEX
  8
SCANIA_P114_CB_6
 10
7.9209
 20
-15.0891
 30
0
 70
     0
  0
VERTEX
  8
SCANIA_P114_CB_6
 10
8.2944
 20
-15.4807
 30
0
 70
     0
  0
VERTEX
  8
SCANIA_P114_CB_6
 10
8.6491
 20
-15.8897
 30
0
 70
     0
  0
VERTEX
  8
SCANIA_P114_CB_6
 10
8.8192
 20
-16.1005
 30
0
 70
     0
  0
VERTEX
  8
SCANIA_P114_CB_6
 10
8.9843
 20
-16.3153
 30
0
 70
     0
  0
VERTEX
  8
SCANIA_P114_CB_6
 10
9.1443
 20
-16.5341
 30
0
 70
     0
  0
VERTEX
  8
SCANIA_P114_CB_6
 10
9.2992
 20
-16.7568
 30
0
 70
     0
  0
VERTEX
  8
SCANIA_P114_CB_6
 10
9.4488
 20
-16.9832
 30
0
 70
     0
  0
VERTEX
  8
SCANIA_P114_CB_6
 10
9.5931
 20
-17.2134
 30
0
 70
     0
  0
VERTEX
  8
SCANIA_P114_CB_6
 10
9.732
 20
-17.4472
 30
0
 70
     0
  0
VERTEX
  8
SCANIA_P114_CB_6
 10
9.8653
 20
-17.6845
 30
0
 70
     0
  0
VERTEX
  8
SCANIA_P114_CB_6
 10
9.993
 20
-17.9252
 30
0
 70
     0
  0
VERTEX
  8
SCANIA_P114_CB_6
 10
10.115
 20
-18.1693
 30
0
 70
     0
  0
VERTEX
  8
SCANIA_P114_CB_6
 10
10.2313
 20
-18.4166
 30
0
 70
     0
  0
VERTEX
  8
SCANIA_P114_CB_6
 10
10.3416
 20
-18.667
 30
0
 70
     0
  0
VERTEX
  8
SCANIA_P114_CB_6
 10
10.4459
 20
-18.9205
 30
0
 70
     0
  0
VERTEX
  8
SCANIA_P114_CB_6
 10
10.5442
 20
-19.177
 30
0
 70
     0
  0
VERTEX
  8
SCANIA_P114_CB_6
 10
10.6363
 20
-19.4364
 30
0
 70
     0
  0
VERTEX
  8
SCANIA_P114_CB_6
 10
10.7222
 20
-19.6985
 30
0
 70
     0
  0
VERTEX
  8
SCANIA_P114_CB_6
 10
10.8017
 20
-19.9633
 30
0
 70
     0
  0
VERTEX
  8
SCANIA_P114_CB_6
 10
10.8748
 20
-20.2308
 30
0
 70
     0
  0
VERTEX
  8
SCANIA_P114_CB_6
 10
10.9413
 20
-20.5008
 30
0
 70
     0
  0
VERTEX
  8
SCANIA_P114_CB_6
 10
11.0013
 20
-20.7731
 30
0
 70
     0
  0
VERTEX
  8
SCANIA_P114_CB_6
 10
11.0545
 20
-21.0478
 30
0
 70
     0
  0
VERTEX
  8
SCANIA_P114_CB_6
 10
11.1009
 20
-21.3248
 30
0
 70
     0
  0
VERTEX
  8
SCANIA_P114_CB_6
 10
11.1404
 20
-21.6039
 30
0
 70
     0
  0
VERTEX
  8
SCANIA_P114_CB_6
 10
11.173
 20
-21.8851
 30
0
 70
     0
  0
VERTEX
  8
SCANIA_P114_CB_6
 10
11.1985
 20
-22.1682
 30
0
 70
     0
  0
VERTEX
  8
SCANIA_P114_CB_6
 10
11.2168
 20
-22.4532
 30
0
 70
     0
  0
VERTEX
  8
SCANIA_P114_CB_6
 10
11.2278
 20
-22.74
 30
0
 70
     0
  0
VERTEX
  8
SCANIA_P114_CB_6
 10
11.2315
 20
-23.0284
 30
0
 70
     0
  0
VERTEX
  8
SCANIA_P114_CB_6
 10
11.2315
 20
-23.0284
 30
0
 70
     0
  0
VERTEX
  8
SCANIA_P114_CB_6
 10
11.2278
 20
-23.3169
 30
0
 70
     0
  0
VERTEX
  8
SCANIA_P114_CB_6
 10
11.2168
 20
-23.6037
 30
0
 70
     0
  0
VERTEX
  8
SCANIA_P114_CB_6
 10
11.1985
 20
-23.8887
 30
0
 70
     0
  0
VERTEX
  8
SCANIA_P114_CB_6
 10
11.173
 20
-24.1718
 30
0
 70
     0
  0
VERTEX
  8
SCANIA_P114_CB_6
 10
11.1404
 20
-24.453
 30
0
 70
     0
  0
VERTEX
  8
SCANIA_P114_CB_6
 10
11.1009
 20
-24.7321
 30
0
 70
     0
  0
VERTEX
  8
SCANIA_P114_CB_6
 10
11.0545
 20
-25.009
 30
0
 70
     0
  0
VERTEX
  8
SCANIA_P114_CB_6
 10
11.0013
 20
-25.2838
 30
0
 70
     0
  0
VERTEX
  8
SCANIA_P114_CB_6
 10
10.9413
 20
-25.5561
 30
0
 70
     0
  0
VERTEX
  8
SCANIA_P114_CB_6
 10
10.8748
 20
-25.8261
 30
0
 70
     0
  0
VERTEX
  8
SCANIA_P114_CB_6
 10
10.8017
 20
-26.0936
 30
0
 70
     0
  0
VERTEX
  8
SCANIA_P114_CB_6
 10
10.7222
 20
-26.3584
 30
0
 70
     0
  0
VERTEX
  8
SCANIA_P114_CB_6
 10
10.6363
 20
-26.6205
 30
0
 70
     0
  0
VERTEX
  8
SCANIA_P114_CB_6
 10
10.5442
 20
-26.8799
 30
0
 70
     0
  0
VERTEX
  8
SCANIA_P114_CB_6
 10
10.4459
 20
-27.1364
 30
0
 70
     0
  0
VERTEX
  8
SCANIA_P114_CB_6
 10
10.3416
 20
-27.3899
 30
0
 70
     0
  0
VERTEX
  8
SCANIA_P114_CB_6
 10
10.2313
 20
-27.6403
 30
0
 70
     0
  0
VERTEX
  8
SCANIA_P114_CB_6
 10
10.115
 20
-27.8876
 30
0
 70
     0
  0
VERTEX
  8
SCANIA_P114_CB_6
 10
9.993
 20
-28.1317
 30
0
 70
     0
  0
VERTEX
  8
SCANIA_P114_CB_6
 10
9.8653
 20
-28.3724
 30
0
 70
     0
  0
VERTEX
  8
SCANIA_P114_CB_6
 10
9.732
 20
-28.6097
 30
0
 70
     0
  0
VERTEX
  8
SCANIA_P114_CB_6
 10
9.5931
 20
-28.8435
 30
0
 70
     0
  0
VERTEX
  8
SCANIA_P114_CB_6
 10
9.4488
 20
-29.0737
 30
0
 70
     0
  0
VERTEX
  8
SCANIA_P114_CB_6
 10
9.2992
 20
-29.3001
 30
0
 70
     0
  0
VERTEX
  8
SCANIA_P114_CB_6
 10
9.1443
 20
-29.5228
 30
0
 70
     0
  0
VERTEX
  8
SCANIA_P114_CB_6
 10
8.9843
 20
-29.7416
 30
0
 70
     0
  0
VERTEX
  8
SCANIA_P114_CB_6
 10
8.8192
 20
-29.9564
 30
0
 70
     0
  0
VERTEX
  8
SCANIA_P114_CB_6
 10
8.6491
 20
-30.1672
 30
0
 70
     0
  0
VERTEX
  8
SCANIA_P114_CB_6
 10
8.2944
 20
-30.5762
 30
0
 70
     0
  0
VERTEX
  8
SCANIA_P114_CB_6
 10
7.9209
 20
-30.9678
 30
0
 70
     0
  0
VERTEX
  8
SCANIA_P114_CB_6
 10
7.5292
 20
-31.3413
 30
0
 70
     0
  0
VERTEX
  8
SCANIA_P114_CB_6
 10
7.1203
 20
-31.696
 30
0
 70
     0
  0
VERTEX
  8
SCANIA_P114_CB_6
 10
6.9095
 20
-31.8661
 30
0
 70
     0
  0
VERTEX
  8
SCANIA_P114_CB_6
 10
6.6947
 20
-32.0312
 30
0
 70
     0
  0
VERTEX
  8
SCANIA_P114_CB_6
 10
6.4759
 20
-32.1913
 30
0
 70
     0
  0
VERTEX
  8
SCANIA_P114_CB_6
 10
6.2532
 20
-32.3461
 30
0
 70
     0
  0
VERTEX
  8
SCANIA_P114_CB_6
 10
6.0267
 20
-32.4958
 30
0
 70
     0
  0
VERTEX
  8
SCANIA_P114_CB_6
 10
5.7966
 20
-32.6401
 30
0
 70
     0
  0
VERTEX
  8
SCANIA_P114_CB_6
 10
5.5628
 20
-32.7789
 30
0
 70
     0
  0
VERTEX
  8
SCANIA_P114_CB_6
 10
5.3255
 20
-32.9122
 30
0
 70
     0
  0
VERTEX
  8
SCANIA_P114_CB_6
 10
5.0848
 20
-33.04
 30
0
 70
     0
  0
VERTEX
  8
SCANIA_P114_CB_6
 10
4.8407
 20
-33.162
 30
0
 70
     0
  0
VERTEX
  8
SCANIA_P114_CB_6
 10
4.5934
 20
-33.2782
 30
0
 70
     0
  0
VERTEX
  8
SCANIA_P114_CB_6
 10
4.343
 20
-33.3885
 30
0
 70
     0
  0
VERTEX
  8
SCANIA_P114_CB_6
 10
4.0894
 20
-33.4929
 30
0
 70
     0
  0
VERTEX
  8
SCANIA_P114_CB_6
 10
3.833
 20
-33.5911
 30
0
 70
     0
  0
VERTEX
  8
SCANIA_P114_CB_6
 10
3.5736
 20
-33.6832
 30
0
 70
     0
  0
VERTEX
  8
SCANIA_P114_CB_6
 10
3.3115
 20
-33.7691
 30
0
 70
     0
  0
VERTEX
  8
SCANIA_P114_CB_6
 10
3.0466
 20
-33.8486
 30
0
 70
     0
  0
VERTEX
  8
SCANIA_P114_CB_6
 10
2.7792
 20
-33.9217
 30
0
 70
     0
  0
VERTEX
  8
SCANIA_P114_CB_6
 10
2.5092
 20
-33.9882
 30
0
 70
     0
  0
VERTEX
  8
SCANIA_P114_CB_6
 10
2.2368
 20
-34.0482
 30
0
 70
     0
  0
VERTEX
  8
SCANIA_P114_CB_6
 10
1.9621
 20
-34.1014
 30
0
 70
     0
  0
VERTEX
  8
SCANIA_P114_CB_6
 10
1.6852
 20
-34.1478
 30
0
 70
     0
  0
VERTEX
  8
SCANIA_P114_CB_6
 10
1.4061
 20
-34.1874
 30
0
 70
     0
  0
VERTEX
  8
SCANIA_P114_CB_6
 10
1.1249
 20
-34.2199
 30
0
 70
     0
  0
VERTEX
  8
SCANIA_P114_CB_6
 10
0.8418
 20
-34.2454
 30
0
 70
     0
  0
VERTEX
  8
SCANIA_P114_CB_6
 10
0.5568
 20
-34.2637
 30
0
 70
     0
  0
VERTEX
  8
SCANIA_P114_CB_6
 10
0.27
 20
-34.2747
 30
0
 70
     0
  0
VERTEX
  8
SCANIA_P114_CB_6
 10
-0.0185
 20
-34.2784
 30
0
 70
     0
  0
VERTEX
  8
SCANIA_P114_CB_6
 10
-0.0185
 20
-34.2784
 30
0
 70
     0
  0
VERTEX
  8
SCANIA_P114_CB_6
 10
-0.307
 20
-34.2747
 30
0
 70
     0
  0
VERTEX
  8
SCANIA_P114_CB_6
 10
-0.5937
 20
-34.2637
 30
0
 70
     0
  0
VERTEX
  8
SCANIA_P114_CB_6
 10
-0.8787
 20
-34.2454
 30
0
 70
     0
  0
VERTEX
  8
SCANIA_P114_CB_6
 10
-1.1619
 20
-34.2199
 30
0
 70
     0
  0
VERTEX
  8
SCANIA_P114_CB_6
 10
-1.443
 20
-34.1874
 30
0
 70
     0
  0
VERTEX
  8
SCANIA_P114_CB_6
 10
-1.7221
 20
-34.1478
 30
0
 70
     0
  0
VERTEX
  8
SCANIA_P114_CB_6
 10
-1.9991
 20
-34.1014
 30
0
 70
     0
  0
VERTEX
  8
SCANIA_P114_CB_6
 10
-2.2738
 20
-34.0482
 30
0
 70
     0
  0
VERTEX
  8
SCANIA_P114_CB_6
 10
-2.5462
 20
-33.9882
 30
0
 70
     0
  0
VERTEX
  8
SCANIA_P114_CB_6
 10
-2.8161
 20
-33.9217
 30
0
 70
     0
  0
VERTEX
  8
SCANIA_P114_CB_6
 10
-3.0836
 20
-33.8486
 30
0
 70
     0
  0
VERTEX
  8
SCANIA_P114_CB_6
 10
-3.3484
 20
-33.7691
 30
0
 70
     0
  0
VERTEX
  8
SCANIA_P114_CB_6
 10
-3.6106
 20
-33.6832
 30
0
 70
     0
  0
VERTEX
  8
SCANIA_P114_CB_6
 10
-3.8699
 20
-33.5911
 30
0
 70
     0
  0
VERTEX
  8
SCANIA_P114_CB_6
 10
-4.1264
 20
-33.4929
 30
0
 70
     0
  0
VERTEX
  8
SCANIA_P114_CB_6
 10
-4.3799
 20
-33.3885
 30
0
 70
     0
  0
VERTEX
  8
SCANIA_P114_CB_6
 10
-4.6304
 20
-33.2782
 30
0
 70
     0
  0
VERTEX
  8
SCANIA_P114_CB_6
 10
-4.8777
 20
-33.162
 30
0
 70
     0
  0
VERTEX
  8
SCANIA_P114_CB_6
 10
-5.1217
 20
-33.04
 30
0
 70
     0
  0
VERTEX
  8
SCANIA_P114_CB_6
 10
-5.3624
 20
-32.9122
 30
0
 70
     0
  0
VERTEX
  8
SCANIA_P114_CB_6
 10
-5.5997
 20
-32.7789
 30
0
 70
     0
  0
VERTEX
  8
SCANIA_P114_CB_6
 10
-5.8335
 20
-32.6401
 30
0
 70
     0
  0
VERTEX
  8
SCANIA_P114_CB_6
 10
-6.0637
 20
-32.4958
 30
0
 70
     0
  0
VERTEX
  8
SCANIA_P114_CB_6
 10
-6.2902
 20
-32.3461
 30
0
 70
     0
  0
VERTEX
  8
SCANIA_P114_CB_6
 10
-6.5128
 20
-32.1913
 30
0
 70
     0
  0
VERTEX
  8
SCANIA_P114_CB_6
 10
-6.7316
 20
-32.0312
 30
0
 70
     0
  0
VERTEX
  8
SCANIA_P114_CB_6
 10
-6.9465
 20
-31.8661
 30
0
 70
     0
  0
VERTEX
  8
SCANIA_P114_CB_6
 10
-7.1572
 20
-31.696
 30
0
 70
     0
  0
VERTEX
  8
SCANIA_P114_CB_6
 10
-7.5662
 20
-31.3413
 30
0
 70
     0
  0
VERTEX
  8
SCANIA_P114_CB_6
 10
-7.9578
 20
-30.9678
 30
0
 70
     0
  0
VERTEX
  8
SCANIA_P114_CB_6
 10
-8.3314
 20
-30.5762
 30
0
 70
     0
  0
VERTEX
  8
SCANIA_P114_CB_6
 10
-8.6861
 20
-30.1672
 30
0
 70
     0
  0
VERTEX
  8
SCANIA_P114_CB_6
 10
-8.8562
 20
-29.9564
 30
0
 70
     0
  0
VERTEX
  8
SCANIA_P114_CB_6
 10
-9.0213
 20
-29.7416
 30
0
 70
     0
  0
VERTEX
  8
SCANIA_P114_CB_6
 10
-9.1813
 20
-29.5228
 30
0
 70
     0
  0
VERTEX
  8
SCANIA_P114_CB_6
 10
-9.3362
 20
-29.3001
 30
0
 70
     0
  0
VERTEX
  8
SCANIA_P114_CB_6
 10
-9.4858
 20
-29.0737
 30
0
 70
     0
  0
VERTEX
  8
SCANIA_P114_CB_6
 10
-9.6301
 20
-28.8435
 30
0
 70
     0
  0
VERTEX
  8
SCANIA_P114_CB_6
 10
-9.7689
 20
-28.6097
 30
0
 70
     0
  0
VERTEX
  8
SCANIA_P114_CB_6
 10
-9.9023
 20
-28.3724
 30
0
 70
     0
  0
VERTEX
  8
SCANIA_P114_CB_6
 10
-10.03
 20
-28.1317
 30
0
 70
     0
  0
VERTEX
  8
SCANIA_P114_CB_6
 10
-10.152
 20
-27.8876
 30
0
 70
     0
  0
VERTEX
  8
SCANIA_P114_CB_6
 10
-10.2682
 20
-27.6403
 30
0
 70
     0
  0
VERTEX
  8
SCANIA_P114_CB_6
 10
-10.3785
 20
-27.3899
 30
0
 70
     0
  0
VERTEX
  8
SCANIA_P114_CB_6
 10
-10.4829
 20
-27.1364
 30
0
 70
     0
  0
VERTEX
  8
SCANIA_P114_CB_6
 10
-10.5812
 20
-26.8799
 30
0
 70
     0
  0
VERTEX
  8
SCANIA_P114_CB_6
 10
-10.6733
 20
-26.6205
 30
0
 70
     0
  0
VERTEX
  8
SCANIA_P114_CB_6
 10
-10.7591
 20
-26.3584
 30
0
 70
     0
  0
VERTEX
  8
SCANIA_P114_CB_6
 10
-10.8387
 20
-26.0936
 30
0
 70
     0
  0
VERTEX
  8
SCANIA_P114_CB_6
 10
-10.9117
 20
-25.8261
 30
0
 70
     0
  0
VERTEX
  8
SCANIA_P114_CB_6
 10
-10.9783
 20
-25.5561
 30
0
 70
     0
  0
VERTEX
  8
SCANIA_P114_CB_6
 10
-11.0382
 20
-25.2838
 30
0
 70
     0
  0
VERTEX
  8
SCANIA_P114_CB_6
 10
-11.0914
 20
-25.009
 30
0
 70
     0
  0
VERTEX
  8
SCANIA_P114_CB_6
 10
-11.1379
 20
-24.7321
 30
0
 70
     0
  0
VERTEX
  8
SCANIA_P114_CB_6
 10
-11.1774
 20
-24.453
 30
0
 70
     0
  0
VERTEX
  8
SCANIA_P114_CB_6
 10
-11.2099
 20
-24.1718
 30
0
 70
     0
  0
VERTEX
  8
SCANIA_P114_CB_6
 10
-11.2354
 20
-23.8887
 30
0
 70
     0
  0
VERTEX
  8
SCANIA_P114_CB_6
 10
-11.2537
 20
-23.6037
 30
0
 70
     0
  0
VERTEX
  8
SCANIA_P114_CB_6
 10
-11.2648
 20
-23.3169
 30
0
 70
     0
  0
VERTEX
  8
SCANIA_P114_CB_6
 10
-11.2685
 20
-23.0284
 30
0
 70
     0
  0
SEQEND
  0
POLYLINE
  8
SCANIA_P114_CB_6
  6
CONTINUOUS
 62
     7
 66
     1
 40
0.0139
 41
0.0139
  0
VERTEX
  8
SCANIA_P114_CB_6
 10
153.4936
 20
-0.0127
 30
0
 70
     0
  0
VERTEX
  8
SCANIA_P114_CB_6
 10
19.4528
 20
-0.0127
 30
0
 70
     0
  0
SEQEND
  0
POLYLINE
  8
SCANIA_P114_CB_6
  6
CONTINUOUS
 62
     7
 66
     1
 40
0.0139
 41
0.0139
  0
VERTEX
  8
SCANIA_P114_CB_6
 10
-19.05
 20
-23.0284
 30
0
 70
     0
  0
VERTEX
  8
SCANIA_P114_CB_6
 10
-19.0437
 20
-22.5404
 30
0
 70
     0
  0
VERTEX
  8
SCANIA_P114_CB_6
 10
-19.025
 20
-22.0553
 30
0
 70
     0
  0
VERTEX
  8
SCANIA_P114_CB_6
 10
-18.994
 20
-21.5732
 30
0
 70
     0
  0
VERTEX
  8
SCANIA_P114_CB_6
 10
-18.9509
 20
-21.0942
 30
0
 70
     0
  0
VERTEX
  8
SCANIA_P114_CB_6
 10
-18.8959
 20
-20.6186
 30
0
 70
     0
  0
VERTEX
  8
SCANIA_P114_CB_6
 10
-18.829
 20
-20.1464
 30
0
 70
     0
  0
VERTEX
  8
SCANIA_P114_CB_6
 10
-18.7505
 20
-19.6779
 30
0
 70
     0
  0
VERTEX
  8
SCANIA_P114_CB_6
 10
-18.6604
 20
-19.2132
 30
0
 70
     0
  0
VERTEX
  8
SCANIA_P114_CB_6
 10
-18.559
 20
-18.7524
 30
0
 70
     0
  0
VERTEX
  8
SCANIA_P114_CB_6
 10
-18.4465
 20
-18.2957
 30
0
 70
     0
  0
VERTEX
  8
SCANIA_P114_CB_6
 10
-18.3228
 20
-17.8432
 30
0
 70
     0
  0
VERTEX
  8
SCANIA_P114_CB_6
 10
-18.1883
 20
-17.3952
 30
0
 70
     0
  0
VERTEX
  8
SCANIA_P114_CB_6
 10
-18.0431
 20
-16.9517
 30
0
 70
     0
  0
VERTEX
  8
SCANIA_P114_CB_6
 10
-17.8873
 20
-16.513
 30
0
 70
     0
  0
VERTEX
  8
SCANIA_P114_CB_6
 10
-17.721
 20
-16.0791
 30
0
 70
     0
  0
VERTEX
  8
SCANIA_P114_CB_6
 10
-17.5445
 20
-15.6502
 30
0
 70
     0
  0
VERTEX
  8
SCANIA_P114_CB_6
 10
-17.3578
 20
-15.2266
 30
0
 70
     0
  0
VERTEX
  8
SCANIA_P114_CB_6
 10
-17.1613
 20
-14.8082
 30
0
 70
     0
  0
VERTEX
  8
SCANIA_P114_CB_6
 10
-16.9548
 20
-14.3953
 30
0
 70
     0
  0
VERTEX
  8
SCANIA_P114_CB_6
 10
-16.7388
 20
-13.9881
 30
0
 70
     0
  0
VERTEX
  8
SCANIA_P114_CB_6
 10
-16.5132
 20
-13.5867
 30
0
 70
     0
  0
VERTEX
  8
SCANIA_P114_CB_6
 10
-16.2783
 20
-13.1912
 30
0
 70
     0
  0
VERTEX
  8
SCANIA_P114_CB_6
 10
-16.0342
 20
-12.8018
 30
0
 70
     0
  0
VERTEX
  8
SCANIA_P114_CB_6
 10
-15.7811
 20
-12.4187
 30
0
 70
     0
  0
VERTEX
  8
SCANIA_P114_CB_6
 10
-15.5191
 20
-12.042
 30
0
 70
     0
  0
VERTEX
  8
SCANIA_P114_CB_6
 10
-15.2484
 20
-11.6719
 30
0
 70
     0
  0
VERTEX
  8
SCANIA_P114_CB_6
 10
-14.9691
 20
-11.3084
 30
0
 70
     0
  0
VERTEX
  8
SCANIA_P114_CB_6
 10
-14.6814
 20
-10.9519
 30
0
 70
     0
  0
VERTEX
  8
SCANIA_P114_CB_6
 10
-14.3854
 20
-10.6024
 30
0
 70
     0
  0
VERTEX
  8
SCANIA_P114_CB_6
 10
-14.0813
 20
-10.2601
 30
0
 70
     0
  0
VERTEX
  8
SCANIA_P114_CB_6
 10
-13.7692
 20
-9.9251
 30
0
 70
     0
  0
VERTEX
  8
SCANIA_P114_CB_6
 10
-13.4494
 20
-9.5976
 30
0
 70
     0
  0
VERTEX
  8
SCANIA_P114_CB_6
 10
-13.1219
 20
-9.2777
 30
0
 70
     0
  0
VERTEX
  8
SCANIA_P114_CB_6
 10
-12.7869
 20
-8.9657
 30
0
 70
     0
  0
VERTEX
  8
SCANIA_P114_CB_6
 10
-12.4445
 20
-8.6616
 30
0
 70
     0
  0
VERTEX
  8
SCANIA_P114_CB_6
 10
-12.095
 20
-8.3656
 30
0
 70
     0
  0
VERTEX
  8
SCANIA_P114_CB_6
 10
-11.7385
 20
-8.0778
 30
0
 70
     0
  0
VERTEX
  8
SCANIA_P114_CB_6
 10
-11.3751
 20
-7.7985
 30
0
 70
     0
  0
VERTEX
  8
SCANIA_P114_CB_6
 10
-11.0049
 20
-7.5278
 30
0
 70
     0
  0
VERTEX
  8
SCANIA_P114_CB_6
 10
-10.6282
 20
-7.2658
 30
0
 70
     0
  0
VERTEX
  8
SCANIA_P114_CB_6
 10
-10.2451
 20
-7.0127
 30
0
 70
     0
  0
VERTEX
  8
SCANIA_P114_CB_6
 10
-9.8557
 20
-6.7686
 30
0
 70
     0
  0
VERTEX
  8
SCANIA_P114_CB_6
 10
-9.4602
 20
-6.5337
 30
0
 70
     0
  0
VERTEX
  8
SCANIA_P114_CB_6
 10
-9.0588
 20
-6.3081
 30
0
 70
     0
  0
VERTEX
  8
SCANIA_P114_CB_6
 10
-8.6516
 20
-6.0921
 30
0
 70
     0
  0
VERTEX
  8
SCANIA_P114_CB_6
 10
-8.2387
 20
-5.8857
 30
0
 70
     0
  0
VERTEX
  8
SCANIA_P114_CB_6
 10
-7.8204
 20
-5.6891
 30
0
 70
     0
  0
VERTEX
  8
SCANIA_P114_CB_6
 10
-7.3967
 20
-5.5024
 30
0
 70
     0
  0
VERTEX
  8
SCANIA_P114_CB_6
 10
-6.9678
 20
-5.3259
 30
0
 70
     0
  0
VERTEX
  8
SCANIA_P114_CB_6
 10
-6.5339
 20
-5.1597
 30
0
 70
     0
  0
VERTEX
  8
SCANIA_P114_CB_6
 10
-6.0952
 20
-5.0039
 30
0
 70
     0
  0
VERTEX
  8
SCANIA_P114_CB_6
 10
-5.6517
 20
-4.8586
 30
0
 70
     0
  0
VERTEX
  8
SCANIA_P114_CB_6
 10
-5.2037
 20
-4.7241
 30
0
 70
     0
  0
VERTEX
  8
SCANIA_P114_CB_6
 10
-4.7512
 20
-4.6005
 30
0
 70
     0
  0
VERTEX
  8
SCANIA_P114_CB_6
 10
-4.2946
 20
-4.4879
 30
0
 70
     0
  0
VERTEX
  8
SCANIA_P114_CB_6
 10
-3.8338
 20
-4.3865
 30
0
 70
     0
  0
VERTEX
  8
SCANIA_P114_CB_6
 10
-3.369
 20
-4.2965
 30
0
 70
     0
  0
VERTEX
  8
SCANIA_P114_CB_6
 10
-2.9005
 20
-4.2179
 30
0
 70
     0
  0
VERTEX
  8
SCANIA_P114_CB_6
 10
-2.4284
 20
-4.151
 30
0
 70
     0
  0
VERTEX
  8
SCANIA_P114_CB_6
 10
-1.9527
 20
-4.096
 30
0
 70
     0
  0
VERTEX
  8
SCANIA_P114_CB_6
 10
-1.4738
 20
-4.0529
 30
0
 70
     0
  0
VERTEX
  8
SCANIA_P114_CB_6
 10
-0.9916
 20
-4.0219
 30
0
 70
     0
  0
VERTEX
  8
SCANIA_P114_CB_6
 10
-0.5065
 20
-4.0032
 30
0
 70
     0
  0
VERTEX
  8
SCANIA_P114_CB_6
 10
-0.0185
 20
-3.997
 30
0
 70
     0
  0
VERTEX
  8
SCANIA_P114_CB_6
 10
-0.0185
 20
-3.997
 30
0
 70
     0
  0
VERTEX
  8
SCANIA_P114_CB_6
 10
0.4695
 20
-4.0032
 30
0
 70
     0
  0
VERTEX
  8
SCANIA_P114_CB_6
 10
0.9547
 20
-4.0219
 30
0
 70
     0
  0
VERTEX
  8
SCANIA_P114_CB_6
 10
1.4368
 20
-4.0529
 30
0
 70
     0
  0
VERTEX
  8
SCANIA_P114_CB_6
 10
1.9158
 20
-4.096
 30
0
 70
     0
  0
VERTEX
  8
SCANIA_P114_CB_6
 10
2.3914
 20
-4.151
 30
0
 70
     0
  0
VERTEX
  8
SCANIA_P114_CB_6
 10
2.8636
 20
-4.2179
 30
0
 70
     0
  0
VERTEX
  8
SCANIA_P114_CB_6
 10
3.3321
 20
-4.2965
 30
0
 70
     0
  0
VERTEX
  8
SCANIA_P114_CB_6
 10
3.7968
 20
-4.3865
 30
0
 70
     0
  0
VERTEX
  8
SCANIA_P114_CB_6
 10
4.2576
 20
-4.4879
 30
0
 70
     0
  0
VERTEX
  8
SCANIA_P114_CB_6
 10
4.7143
 20
-4.6005
 30
0
 70
     0
  0
VERTEX
  8
SCANIA_P114_CB_6
 10
5.1667
 20
-4.7241
 30
0
 70
     0
  0
VERTEX
  8
SCANIA_P114_CB_6
 10
5.6147
 20
-4.8586
 30
0
 70
     0
  0
VERTEX
  8
SCANIA_P114_CB_6
 10
6.0582
 20
-5.0039
 30
0
 70
     0
  0
VERTEX
  8
SCANIA_P114_CB_6
 10
6.497
 20
-5.1597
 30
0
 70
     0
  0
VERTEX
  8
SCANIA_P114_CB_6
 10
6.9309
 20
-5.3259
 30
0
 70
     0
  0
VERTEX
  8
SCANIA_P114_CB_6
 10
7.3597
 20
-5.5024
 30
0
 70
     0
  0
VERTEX
  8
SCANIA_P114_CB_6
 10
7.7834
 20
-5.6891
 30
0
 70
     0
  0
VERTEX
  8
SCANIA_P114_CB_6
 10
8.2018
 20
-5.8857
 30
0
 70
     0
  0
VERTEX
  8
SCANIA_P114_CB_6
 10
8.6146
 20
-6.0921
 30
0
 70
     0
  0
VERTEX
  8
SCANIA_P114_CB_6
 10
9.0218
 20
-6.3081
 30
0
 70
     0
  0
VERTEX
  8
SCANIA_P114_CB_6
 10
9.4233
 20
-6.5337
 30
0
 70
     0
  0
VERTEX
  8
SCANIA_P114_CB_6
 10
9.8188
 20
-6.7686
 30
0
 70
     0
  0
VERTEX
  8
SCANIA_P114_CB_6
 10
10.2081
 20
-7.0127
 30
0
 70
     0
  0
VERTEX
  8
SCANIA_P114_CB_6
 10
10.5913
 20
-7.2658
 30
0
 70
     0
  0
VERTEX
  8
SCANIA_P114_CB_6
 10
10.968
 20
-7.5278
 30
0
 70
     0
  0
VERTEX
  8
SCANIA_P114_CB_6
 10
11.3381
 20
-7.7985
 30
0
 70
     0
  0
VERTEX
  8
SCANIA_P114_CB_6
 10
11.7015
 20
-8.0778
 30
0
 70
     0
  0
VERTEX
  8
SCANIA_P114_CB_6
 10
12.0581
 20
-8.3656
 30
0
 70
     0
  0
VERTEX
  8
SCANIA_P114_CB_6
 10
12.4076
 20
-8.6616
 30
0
 70
     0
  0
VERTEX
  8
SCANIA_P114_CB_6
 10
12.7499
 20
-8.9657
 30
0
 70
     0
  0
VERTEX
  8
SCANIA_P114_CB_6
 10
13.0849
 20
-9.2777
 30
0
 70
     0
  0
VERTEX
  8
SCANIA_P114_CB_6
 10
13.4124
 20
-9.5976
 30
0
 70
     0
  0
VERTEX
  8
SCANIA_P114_CB_6
 10
13.7323
 20
-9.9251
 30
0
 70
     0
  0
VERTEX
  8
SCANIA_P114_CB_6
 10
14.0443
 20
-10.2601
 30
0
 70
     0
  0
VERTEX
  8
SCANIA_P114_CB_6
 10
14.3484
 20
-10.6024
 30
0
 70
     0
  0
VERTEX
  8
SCANIA_P114_CB_6
 10
14.6444
 20
-10.9519
 30
0
 70
     0
  0
VERTEX
  8
SCANIA_P114_CB_6
 10
14.9321
 20
-11.3084
 30
0
 70
     0
  0
VERTEX
  8
SCANIA_P114_CB_6
 10
15.2114
 20
-11.6719
 30
0
 70
     0
  0
VERTEX
  8
SCANIA_P114_CB_6
 10
15.4822
 20
-12.042
 30
0
 70
     0
  0
VERTEX
  8
SCANIA_P114_CB_6
 10
15.7442
 20
-12.4187
 30
0
 70
     0
  0
VERTEX
  8
SCANIA_P114_CB_6
 10
15.9973
 20
-12.8018
 30
0
 70
     0
  0
VERTEX
  8
SCANIA_P114_CB_6
 10
16.2414
 20
-13.1912
 30
0
 70
     0
  0
VERTEX
  8
SCANIA_P114_CB_6
 10
16.4763
 20
-13.5867
 30
0
 70
     0
  0
VERTEX
  8
SCANIA_P114_CB_6
 10
16.7018
 20
-13.9881
 30
0
 70
     0
  0
VERTEX
  8
SCANIA_P114_CB_6
 10
16.9179
 20
-14.3953
 30
0
 70
     0
  0
VERTEX
  8
SCANIA_P114_CB_6
 10
17.1243
 20
-14.8082
 30
0
 70
     0
  0
VERTEX
  8
SCANIA_P114_CB_6
 10
17.3209
 20
-15.2266
 30
0
 70
     0
  0
VERTEX
  8
SCANIA_P114_CB_6
 10
17.5075
 20
-15.6502
 30
0
 70
     0
  0
VERTEX
  8
SCANIA_P114_CB_6
 10
17.684
 20
-16.0791
 30
0
 70
     0
  0
VERTEX
  8
SCANIA_P114_CB_6
 10
17.8503
 20
-16.513
 30
0
 70
     0
  0
VERTEX
  8
SCANIA_P114_CB_6
 10
18.0061
 20
-16.9517
 30
0
 70
     0
  0
VERTEX
  8
SCANIA_P114_CB_6
 10
18.1514
 20
-17.3952
 30
0
 70
     0
  0
VERTEX
  8
SCANIA_P114_CB_6
 10
18.2859
 20
-17.8432
 30
0
 70
     0
  0
VERTEX
  8
SCANIA_P114_CB_6
 10
18.4095
 20
-18.2957
 30
0
 70
     0
  0
VERTEX
  8
SCANIA_P114_CB_6
 10
18.5221
 20
-18.7524
 30
0
 70
     0
  0
VERTEX
  8
SCANIA_P114_CB_6
 10
18.6235
 20
-19.2132
 30
0
 70
     0
  0
VERTEX
  8
SCANIA_P114_CB_6
 10
18.7135
 20
-19.6779
 30
0
 70
     0
  0
VERTEX
  8
SCANIA_P114_CB_6
 10
18.792
 20
-20.1464
 30
0
 70
     0
  0
VERTEX
  8
SCANIA_P114_CB_6
 10
18.8589
 20
-20.6186
 30
0
 70
     0
  0
VERTEX
  8
SCANIA_P114_CB_6
 10
18.914
 20
-21.0942
 30
0
 70
     0
  0
VERTEX
  8
SCANIA_P114_CB_6
 10
18.9571
 20
-21.5732
 30
0
 70
     0
  0
VERTEX
  8
SCANIA_P114_CB_6
 10
18.9881
 20
-22.0553
 30
0
 70
     0
  0
VERTEX
  8
SCANIA_P114_CB_6
 10
19.0067
 20
-22.5404
 30
0
 70
     0
  0
VERTEX
  8
SCANIA_P114_CB_6
 10
19.013
 20
-23.0284
 30
0
 70
     0
  0
VERTEX
  8
SCANIA_P114_CB_6
 10
19.013
 20
-23.0284
 30
0
 70
     0
  0
VERTEX
  8
SCANIA_P114_CB_6
 10
19.0067
 20
-23.5165
 30
0
 70
     0
  0
VERTEX
  8
SCANIA_P114_CB_6
 10
18.9881
 20
-24.0016
 30
0
 70
     0
  0
VERTEX
  8
SCANIA_P114_CB_6
 10
18.9571
 20
-24.4837
 30
0
 70
     0
  0
VERTEX
  8
SCANIA_P114_CB_6
 10
18.914
 20
-24.9627
 30
0
 70
     0
  0
VERTEX
  8
SCANIA_P114_CB_6
 10
18.8589
 20
-25.4383
 30
0
 70
     0
  0
VERTEX
  8
SCANIA_P114_CB_6
 10
18.792
 20
-25.9105
 30
0
 70
     0
  0
VERTEX
  8
SCANIA_P114_CB_6
 10
18.7135
 20
-26.379
 30
0
 70
     0
  0
VERTEX
  8
SCANIA_P114_CB_6
 10
18.6235
 20
-26.8437
 30
0
 70
     0
  0
VERTEX
  8
SCANIA_P114_CB_6
 10
18.5221
 20
-27.3045
 30
0
 70
     0
  0
VERTEX
  8
SCANIA_P114_CB_6
 10
18.4095
 20
-27.7612
 30
0
 70
     0
  0
VERTEX
  8
SCANIA_P114_CB_6
 10
18.2859
 20
-28.2136
 30
0
 70
     0
  0
VERTEX
  8
SCANIA_P114_CB_6
 10
18.1514
 20
-28.6617
 30
0
 70
     0
  0
VERTEX
  8
SCANIA_P114_CB_6
 10
18.0061
 20
-29.1051
 30
0
 70
     0
  0
VERTEX
  8
SCANIA_P114_CB_6
 10
17.8503
 20
-29.5439
 30
0
 70
     0
  0
VERTEX
  8
SCANIA_P114_CB_6
 10
17.684
 20
-29.9778
 30
0
 70
     0
  0
VERTEX
  8
SCANIA_P114_CB_6
 10
17.5075
 20
-30.4066
 30
0
 70
     0
  0
VERTEX
  8
SCANIA_P114_CB_6
 10
17.3209
 20
-30.8303
 30
0
 70
     0
  0
VERTEX
  8
SCANIA_P114_CB_6
 10
17.1243
 20
-31.2487
 30
0
 70
     0
  0
VERTEX
  8
SCANIA_P114_CB_6
 10
16.9179
 20
-31.6616
 30
0
 70
     0
  0
VERTEX
  8
SCANIA_P114_CB_6
 10
16.7018
 20
-32.0688
 30
0
 70
     0
  0
VERTEX
  8
SCANIA_P114_CB_6
 10
16.4763
 20
-32.4702
 30
0
 70
     0
  0
VERTEX
  8
SCANIA_P114_CB_6
 10
16.2414
 20
-32.8657
 30
0
 70
     0
  0
VERTEX
  8
SCANIA_P114_CB_6
 10
15.9973
 20
-33.2551
 30
0
 70
     0
  0
VERTEX
  8
SCANIA_P114_CB_6
 10
15.7442
 20
-33.6382
 30
0
 70
     0
  0
VERTEX
  8
SCANIA_P114_CB_6
 10
15.4822
 20
-34.0149
 30
0
 70
     0
  0
VERTEX
  8
SCANIA_P114_CB_6
 10
15.2114
 20
-34.385
 30
0
 70
     0
  0
VERTEX
  8
SCANIA_P114_CB_6
 10
14.9321
 20
-34.7485
 30
0
 70
     0
  0
VERTEX
  8
SCANIA_P114_CB_6
 10
14.6444
 20
-35.105
 30
0
 70
     0
  0
VERTEX
  8
SCANIA_P114_CB_6
 10
14.3484
 20
-35.4545
 30
0
 70
     0
  0
VERTEX
  8
SCANIA_P114_CB_6
 10
14.0443
 20
-35.7968
 30
0
 70
     0
  0
VERTEX
  8
SCANIA_P114_CB_6
 10
13.7323
 20
-36.1318
 30
0
 70
     0
  0
VERTEX
  8
SCANIA_P114_CB_6
 10
13.4124
 20
-36.4593
 30
0
 70
     0
  0
VERTEX
  8
SCANIA_P114_CB_6
 10
13.0849
 20
-36.7792
 30
0
 70
     0
  0
VERTEX
  8
SCANIA_P114_CB_6
 10
12.7499
 20
-37.0912
 30
0
 70
     0
  0
VERTEX
  8
SCANIA_P114_CB_6
 10
12.4076
 20
-37.3953
 30
0
 70
     0
  0
VERTEX
  8
SCANIA_P114_CB_6
 10
12.0581
 20
-37.6913
 30
0
 70
     0
  0
VERTEX
  8
SCANIA_P114_CB_6
 10
11.7015
 20
-37.979
 30
0
 70
     0
  0
VERTEX
  8
SCANIA_P114_CB_6
 10
11.3381
 20
-38.2584
 30
0
 70
     0
  0
VERTEX
  8
SCANIA_P114_CB_6
 10
10.968
 20
-38.5291
 30
0
 70
     0
  0
VERTEX
  8
SCANIA_P114_CB_6
 10
10.5913
 20
-38.7911
 30
0
 70
     0
  0
VERTEX
  8
SCANIA_P114_CB_6
 10
10.2081
 20
-39.0442
 30
0
 70
     0
  0
VERTEX
  8
SCANIA_P114_CB_6
 10
9.8188
 20
-39.2883
 30
0
 70
     0
  0
VERTEX
  8
SCANIA_P114_CB_6
 10
9.4233
 20
-39.5232
 30
0
 70
     0
  0
VERTEX
  8
SCANIA_P114_CB_6
 10
9.0218
 20
-39.7488
 30
0
 70
     0
  0
VERTEX
  8
SCANIA_P114_CB_6
 10
8.6146
 20
-39.9648
 30
0
 70
     0
  0
VERTEX
  8
SCANIA_P114_CB_6
 10
8.2018
 20
-40.1712
 30
0
 70
     0
  0
VERTEX
  8
SCANIA_P114_CB_6
 10
7.7834
 20
-40.3678
 30
0
 70
     0
  0
VERTEX
  8
SCANIA_P114_CB_6
 10
7.3597
 20
-40.5544
 30
0
 70
     0
  0
VERTEX
  8
SCANIA_P114_CB_6
 10
6.9309
 20
-40.731
 30
0
 70
     0
  0
VERTEX
  8
SCANIA_P114_CB_6
 10
6.497
 20
-40.8972
 30
0
 70
     0
  0
VERTEX
  8
SCANIA_P114_CB_6
 10
6.0582
 20
-41.053
 30
0
 70
     0
  0
VERTEX
  8
SCANIA_P114_CB_6
 10
5.6147
 20
-41.1983
 30
0
 70
     0
  0
VERTEX
  8
SCANIA_P114_CB_6
 10
5.1667
 20
-41.3328
 30
0
 70
     0
  0
VERTEX
  8
SCANIA_P114_CB_6
 10
4.7143
 20
-41.4564
 30
0
 70
     0
  0
VERTEX
  8
SCANIA_P114_CB_6
 10
4.2576
 20
-41.569
 30
0
 70
     0
  0
VERTEX
  8
SCANIA_P114_CB_6
 10
3.7968
 20
-41.6704
 30
0
 70
     0
  0
VERTEX
  8
SCANIA_P114_CB_6
 10
3.3321
 20
-41.7604
 30
0
 70
     0
  0
VERTEX
  8
SCANIA_P114_CB_6
 10
2.8636
 20
-41.839
 30
0
 70
     0
  0
VERTEX
  8
SCANIA_P114_CB_6
 10
2.3914
 20
-41.9059
 30
0
 70
     0
  0
VERTEX
  8
SCANIA_P114_CB_6
 10
1.9158
 20
-41.9609
 30
0
 70
     0
  0
VERTEX
  8
SCANIA_P114_CB_6
 10
1.4368
 20
-42.004
 30
0
 70
     0
  0
VERTEX
  8
SCANIA_P114_CB_6
 10
0.9547
 20
-42.035
 30
0
 70
     0
  0
VERTEX
  8
SCANIA_P114_CB_6
 10
0.4695
 20
-42.0537
 30
0
 70
     0
  0
VERTEX
  8
SCANIA_P114_CB_6
 10
-0.0185
 20
-42.0599
 30
0
 70
     0
  0
VERTEX
  8
SCANIA_P114_CB_6
 10
-0.0185
 20
-42.0599
 30
0
 70
     0
  0
VERTEX
  8
SCANIA_P114_CB_6
 10
-0.5065
 20
-42.0537
 30
0
 70
     0
  0
VERTEX
  8
SCANIA_P114_CB_6
 10
-0.9916
 20
-42.035
 30
0
 70
     0
  0
VERTEX
  8
SCANIA_P114_CB_6
 10
-1.4738
 20
-42.004
 30
0
 70
     0
  0
VERTEX
  8
SCANIA_P114_CB_6
 10
-1.9527
 20
-41.9609
 30
0
 70
     0
  0
VERTEX
  8
SCANIA_P114_CB_6
 10
-2.4284
 20
-41.9059
 30
0
 70
     0
  0
VERTEX
  8
SCANIA_P114_CB_6
 10
-2.9005
 20
-41.839
 30
0
 70
     0
  0
VERTEX
  8
SCANIA_P114_CB_6
 10
-3.369
 20
-41.7604
 30
0
 70
     0
  0
VERTEX
  8
SCANIA_P114_CB_6
 10
-3.8338
 20
-41.6704
 30
0
 70
     0
  0
VERTEX
  8
SCANIA_P114_CB_6
 10
-4.2946
 20
-41.569
 30
0
 70
     0
  0
VERTEX
  8
SCANIA_P114_CB_6
 10
-4.7512
 20
-41.4564
 30
0
 70
     0
  0
VERTEX
  8
SCANIA_P114_CB_6
 10
-5.2037
 20
-41.3328
 30
0
 70
     0
  0
VERTEX
  8
SCANIA_P114_CB_6
 10
-5.6517
 20
-41.1983
 30
0
 70
     0
  0
VERTEX
  8
SCANIA_P114_CB_6
 10
-6.0952
 20
-41.053
 30
0
 70
     0
  0
VERTEX
  8
SCANIA_P114_CB_6
 10
-6.5339
 20
-40.8972
 30
0
 70
     0
  0
VERTEX
  8
SCANIA_P114_CB_6
 10
-6.9678
 20
-40.731
 30
0
 70
     0
  0
VERTEX
  8
SCANIA_P114_CB_6
 10
-7.3967
 20
-40.5544
 30
0
 70
     0
  0
VERTEX
  8
SCANIA_P114_CB_6
 10
-7.8204
 20
-40.3678
 30
0
 70
     0
  0
VERTEX
  8
SCANIA_P114_CB_6
 10
-8.2387
 20
-40.1712
 30
0
 70
     0
  0
VERTEX
  8
SCANIA_P114_CB_6
 10
-8.6516
 20
-39.9648
 30
0
 70
     0
  0
VERTEX
  8
SCANIA_P114_CB_6
 10
-9.0588
 20
-39.7488
 30
0
 70
     0
  0
VERTEX
  8
SCANIA_P114_CB_6
 10
-9.4602
 20
-39.5232
 30
0
 70
     0
  0
VERTEX
  8
SCANIA_P114_CB_6
 10
-9.8557
 20
-39.2883
 30
0
 70
     0
  0
VERTEX
  8
SCANIA_P114_CB_6
 10
-10.2451
 20
-39.0442
 30
0
 70
     0
  0
VERTEX
  8
SCANIA_P114_CB_6
 10
-10.6282
 20
-38.7911
 30
0
 70
     0
  0
VERTEX
  8
SCANIA_P114_CB_6
 10
-11.0049
 20
-38.5291
 30
0
 70
     0
  0
VERTEX
  8
SCANIA_P114_CB_6
 10
-11.3751
 20
-38.2584
 30
0
 70
     0
  0
VERTEX
  8
SCANIA_P114_CB_6
 10
-11.7385
 20
-37.979
 30
0
 70
     0
  0
VERTEX
  8
SCANIA_P114_CB_6
 10
-12.095
 20
-37.6913
 30
0
 70
     0
  0
VERTEX
  8
SCANIA_P114_CB_6
 10
-12.4445
 20
-37.3953
 30
0
 70
     0
  0
VERTEX
  8
SCANIA_P114_CB_6
 10
-12.7869
 20
-37.0912
 30
0
 70
     0
  0
VERTEX
  8
SCANIA_P114_CB_6
 10
-13.1219
 20
-36.7792
 30
0
 70
     0
  0
VERTEX
  8
SCANIA_P114_CB_6
 10
-13.4494
 20
-36.4593
 30
0
 70
     0
  0
VERTEX
  8
SCANIA_P114_CB_6
 10
-13.7692
 20
-36.1318
 30
0
 70
     0
  0
VERTEX
  8
SCANIA_P114_CB_6
 10
-14.0813
 20
-35.7968
 30
0
 70
     0
  0
VERTEX
  8
SCANIA_P114_CB_6
 10
-14.3854
 20
-35.4545
 30
0
 70
     0
  0
VERTEX
  8
SCANIA_P114_CB_6
 10
-14.6814
 20
-35.105
 30
0
 70
     0
  0
VERTEX
  8
SCANIA_P114_CB_6
 10
-14.9691
 20
-34.7485
 30
0
 70
     0
  0
VERTEX
  8
SCANIA_P114_CB_6
 10
-15.2484
 20
-34.385
 30
0
 70
     0
  0
VERTEX
  8
SCANIA_P114_CB_6
 10
-15.5191
 20
-34.0149
 30
0
 70
     0
  0
VERTEX
  8
SCANIA_P114_CB_6
 10
-15.7811
 20
-33.6382
 30
0
 70
     0
  0
VERTEX
  8
SCANIA_P114_CB_6
 10
-16.0342
 20
-33.2551
 30
0
 70
     0
  0
VERTEX
  8
SCANIA_P114_CB_6
 10
-16.2783
 20
-32.8657
 30
0
 70
     0
  0
VERTEX
  8
SCANIA_P114_CB_6
 10
-16.5132
 20
-32.4702
 30
0
 70
     0
  0
VERTEX
  8
SCANIA_P114_CB_6
 10
-16.7388
 20
-32.0688
 30
0
 70
     0
  0
VERTEX
  8
SCANIA_P114_CB_6
 10
-16.9548
 20
-31.6616
 30
0
 70
     0
  0
VERTEX
  8
SCANIA_P114_CB_6
 10
-17.1613
 20
-31.2487
 30
0
 70
     0
  0
VERTEX
  8
SCANIA_P114_CB_6
 10
-17.3578
 20
-30.8303
 30
0
 70
     0
  0
VERTEX
  8
SCANIA_P114_CB_6
 10
-17.5445
 20
-30.4066
 30
0
 70
     0
  0
VERTEX
  8
SCANIA_P114_CB_6
 10
-17.721
 20
-29.9778
 30
0
 70
     0
  0
VERTEX
  8
SCANIA_P114_CB_6
 10
-17.8873
 20
-29.5439
 30
0
 70
     0
  0
VERTEX
  8
SCANIA_P114_CB_6
 10
-18.0431
 20
-29.1051
 30
0
 70
     0
  0
VERTEX
  8
SCANIA_P114_CB_6
 10
-18.1883
 20
-28.6617
 30
0
 70
     0
  0
VERTEX
  8
SCANIA_P114_CB_6
 10
-18.3228
 20
-28.2136
 30
0
 70
     0
  0
VERTEX
  8
SCANIA_P114_CB_6
 10
-18.4465
 20
-27.7612
 30
0
 70
     0
  0
VERTEX
  8
SCANIA_P114_CB_6
 10
-18.559
 20
-27.3045
 30
0
 70
     0
  0
VERTEX
  8
SCANIA_P114_CB_6
 10
-18.6604
 20
-26.8437
 30
0
 70
     0
  0
VERTEX
  8
SCANIA_P114_CB_6
 10
-18.7505
 20
-26.379
 30
0
 70
     0
  0
VERTEX
  8
SCANIA_P114_CB_6
 10
-18.829
 20
-25.9105
 30
0
 70
     0
  0
VERTEX
  8
SCANIA_P114_CB_6
 10
-18.8959
 20
-25.4383
 30
0
 70
     0
  0
VERTEX
  8
SCANIA_P114_CB_6
 10
-18.9509
 20
-24.9627
 30
0
 70
     0
  0
VERTEX
  8
SCANIA_P114_CB_6
 10
-18.994
 20
-24.4837
 30
0
 70
     0
  0
VERTEX
  8
SCANIA_P114_CB_6
 10
-19.025
 20
-24.0016
 30
0
 70
     0
  0
VERTEX
  8
SCANIA_P114_CB_6
 10
-19.0437
 20
-23.5165
 30
0
 70
     0
  0
VERTEX
  8
SCANIA_P114_CB_6
 10
-19.05
 20
-23.0284
 30
0
 70
     0
  0
SEQEND
  0
POLYLINE
  8
SCANIA_P114_CB_6
  6
CONTINUOUS
 62
     7
 66
     1
 40
0.0139
 41
0.0139
  0
VERTEX
  8
SCANIA_P114_CB_6
 10
-21.0185
 20
-23.0284
 30
0
 70
     0
  0
VERTEX
  8
SCANIA_P114_CB_6
 10
-21.0116
 20
-22.49
 30
0
 70
     0
  0
VERTEX
  8
SCANIA_P114_CB_6
 10
-20.9909
 20
-21.9546
 30
0
 70
     0
  0
VERTEX
  8
SCANIA_P114_CB_6
 10
-20.9568
 20
-21.4226
 30
0
 70
     0
  0
VERTEX
  8
SCANIA_P114_CB_6
 10
-20.9092
 20
-20.8941
 30
0
 70
     0
  0
VERTEX
  8
SCANIA_P114_CB_6
 10
-20.8484
 20
-20.3693
 30
0
 70
     0
  0
VERTEX
  8
SCANIA_P114_CB_6
 10
-20.7747
 20
-19.8483
 30
0
 70
     0
  0
VERTEX
  8
SCANIA_P114_CB_6
 10
-20.688
 20
-19.3313
 30
0
 70
     0
  0
VERTEX
  8
SCANIA_P114_CB_6
 10
-20.5886
 20
-18.8185
 30
0
 70
     0
  0
VERTEX
  8
SCANIA_P114_CB_6
 10
-20.4768
 20
-18.3101
 30
0
 70
     0
  0
VERTEX
  8
SCANIA_P114_CB_6
 10
-20.3525
 20
-17.8062
 30
0
 70
     0
  0
VERTEX
  8
SCANIA_P114_CB_6
 10
-20.2161
 20
-17.3069
 30
0
 70
     0
  0
VERTEX
  8
SCANIA_P114_CB_6
 10
-20.0677
 20
-16.8126
 30
0
 70
     0
  0
VERTEX
  8
SCANIA_P114_CB_6
 10
-19.9074
 20
-16.3232
 30
0
 70
     0
  0
VERTEX
  8
SCANIA_P114_CB_6
 10
-19.7355
 20
-15.8391
 30
0
 70
     0
  0
VERTEX
  8
SCANIA_P114_CB_6
 10
-19.552
 20
-15.3603
 30
0
 70
     0
  0
VERTEX
  8
SCANIA_P114_CB_6
 10
-19.3573
 20
-14.8871
 30
0
 70
     0
  0
VERTEX
  8
SCANIA_P114_CB_6
 10
-19.1513
 20
-14.4196
 30
0
 70
     0
  0
VERTEX
  8
SCANIA_P114_CB_6
 10
-18.9344
 20
-13.958
 30
0
 70
     0
  0
VERTEX
  8
SCANIA_P114_CB_6
 10
-18.7066
 20
-13.5024
 30
0
 70
     0
  0
VERTEX
  8
SCANIA_P114_CB_6
 10
-18.4682
 20
-13.053
 30
0
 70
     0
  0
VERTEX
  8
SCANIA_P114_CB_6
 10
-18.2194
 20
-12.6101
 30
0
 70
     0
  0
VERTEX
  8
SCANIA_P114_CB_6
 10
-17.9602
 20
-12.1737
 30
0
 70
     0
  0
VERTEX
  8
SCANIA_P114_CB_6
 10
-17.6908
 20
-11.744
 30
0
 70
     0
  0
VERTEX
  8
SCANIA_P114_CB_6
 10
-17.4115
 20
-11.3213
 30
0
 70
     0
  0
VERTEX
  8
SCANIA_P114_CB_6
 10
-17.1224
 20
-10.9056
 30
0
 70
     0
  0
VERTEX
  8
SCANIA_P114_CB_6
 10
-16.8237
 20
-10.4972
 30
0
 70
     0
  0
VERTEX
  8
SCANIA_P114_CB_6
 10
-16.5155
 20
-10.0962
 30
0
 70
     0
  0
VERTEX
  8
SCANIA_P114_CB_6
 10
-16.198
 20
-9.7028
 30
0
 70
     0
  0
VERTEX
  8
SCANIA_P114_CB_6
 10
-15.8714
 20
-9.3171
 30
0
 70
     0
  0
VERTEX
  8
SCANIA_P114_CB_6
 10
-15.5358
 20
-8.9394
 30
0
 70
     0
  0
VERTEX
  8
SCANIA_P114_CB_6
 10
-15.1915
 20
-8.5697
 30
0
 70
     0
  0
VERTEX
  8
SCANIA_P114_CB_6
 10
-14.8386
 20
-8.2084
 30
0
 70
     0
  0
VERTEX
  8
SCANIA_P114_CB_6
 10
-14.4772
 20
-7.8554
 30
0
 70
     0
  0
VERTEX
  8
SCANIA_P114_CB_6
 10
-14.1076
 20
-7.5111
 30
0
 70
     0
  0
VERTEX
  8
SCANIA_P114_CB_6
 10
-13.7298
 20
-7.1755
 30
0
 70
     0
  0
VERTEX
  8
SCANIA_P114_CB_6
 10
-13.3442
 20
-6.8489
 30
0
 70
     0
  0
VERTEX
  8
SCANIA_P114_CB_6
 10
-12.9507
 20
-6.5314
 30
0
 70
     0
  0
VERTEX
  8
SCANIA_P114_CB_6
 10
-12.5497
 20
-6.2233
 30
0
 70
     0
  0
VERTEX
  8
SCANIA_P114_CB_6
 10
-12.1413
 20
-5.9245
 30
0
 70
     0
  0
VERTEX
  8
SCANIA_P114_CB_6
 10
-11.7256
 20
-5.6354
 30
0
 70
     0
  0
VERTEX
  8
SCANIA_P114_CB_6
 10
-11.3029
 20
-5.3561
 30
0
 70
     0
  0
VERTEX
  8
SCANIA_P114_CB_6
 10
-10.8732
 20
-5.0868
 30
0
 70
     0
  0
VERTEX
  8
SCANIA_P114_CB_6
 10
-10.4368
 20
-4.8276
 30
0
 70
     0
  0
VERTEX
  8
SCANIA_P114_CB_6
 10
-9.9939
 20
-4.5787
 30
0
 70
     0
  0
VERTEX
  8
SCANIA_P114_CB_6
 10
-9.5445
 20
-4.3403
 30
0
 70
     0
  0
VERTEX
  8
SCANIA_P114_CB_6
 10
-9.089
 20
-4.1125
 30
0
 70
     0
  0
VERTEX
  8
SCANIA_P114_CB_6
 10
-8.6273
 20
-3.8956
 30
0
 70
     0
  0
VERTEX
  8
SCANIA_P114_CB_6
 10
-8.1598
 20
-3.6897
 30
0
 70
     0
  0
VERTEX
  8
SCANIA_P114_CB_6
 10
-7.6866
 20
-3.4949
 30
0
 70
     0
  0
VERTEX
  8
SCANIA_P114_CB_6
 10
-7.2079
 20
-3.3114
 30
0
 70
     0
  0
VERTEX
  8
SCANIA_P114_CB_6
 10
-6.7237
 20
-3.1395
 30
0
 70
     0
  0
VERTEX
  8
SCANIA_P114_CB_6
 10
-6.2344
 20
-2.9792
 30
0
 70
     0
  0
VERTEX
  8
SCANIA_P114_CB_6
 10
-5.74
 20
-2.8308
 30
0
 70
     0
  0
VERTEX
  8
SCANIA_P114_CB_6
 10
-5.2408
 20
-2.6944
 30
0
 70
     0
  0
VERTEX
  8
SCANIA_P114_CB_6
 10
-4.7368
 20
-2.5702
 30
0
 70
     0
  0
VERTEX
  8
SCANIA_P114_CB_6
 10
-4.2284
 20
-2.4583
 30
0
 70
     0
  0
VERTEX
  8
SCANIA_P114_CB_6
 10
-3.7156
 20
-2.3589
 30
0
 70
     0
  0
VERTEX
  8
SCANIA_P114_CB_6
 10
-3.1986
 20
-2.2723
 30
0
 70
     0
  0
VERTEX
  8
SCANIA_P114_CB_6
 10
-2.6776
 20
-2.1985
 30
0
 70
     0
  0
VERTEX
  8
SCANIA_P114_CB_6
 10
-2.1528
 20
-2.1377
 30
0
 70
     0
  0
VERTEX
  8
SCANIA_P114_CB_6
 10
-1.6243
 20
-2.0902
 30
0
 70
     0
  0
VERTEX
  8
SCANIA_P114_CB_6
 10
-1.0923
 20
-2.056
 30
0
 70
     0
  0
VERTEX
  8
SCANIA_P114_CB_6
 10
-0.557
 20
-2.0354
 30
0
 70
     0
  0
VERTEX
  8
SCANIA_P114_CB_6
 10
-0.0185
 20
-2.0284
 30
0
 70
     0
  0
VERTEX
  8
SCANIA_P114_CB_6
 10
-0.0185
 20
-2.0284
 30
0
 70
     0
  0
VERTEX
  8
SCANIA_P114_CB_6
 10
0.52
 20
-2.0354
 30
0
 70
     0
  0
VERTEX
  8
SCANIA_P114_CB_6
 10
1.0553
 20
-2.056
 30
0
 70
     0
  0
VERTEX
  8
SCANIA_P114_CB_6
 10
1.5873
 20
-2.0902
 30
0
 70
     0
  0
VERTEX
  8
SCANIA_P114_CB_6
 10
2.1158
 20
-2.1377
 30
0
 70
     0
  0
VERTEX
  8
SCANIA_P114_CB_6
 10
2.6407
 20
-2.1985
 30
0
 70
     0
  0
VERTEX
  8
SCANIA_P114_CB_6
 10
3.1617
 20
-2.2723
 30
0
 70
     0
  0
VERTEX
  8
SCANIA_P114_CB_6
 10
3.6786
 20
-2.3589
 30
0
 70
     0
  0
VERTEX
  8
SCANIA_P114_CB_6
 10
4.1914
 20
-2.4583
 30
0
 70
     0
  0
VERTEX
  8
SCANIA_P114_CB_6
 10
4.6999
 20
-2.5702
 30
0
 70
     0
  0
VERTEX
  8
SCANIA_P114_CB_6
 10
5.2038
 20
-2.6944
 30
0
 70
     0
  0
VERTEX
  8
SCANIA_P114_CB_6
 10
5.703
 20
-2.8308
 30
0
 70
     0
  0
VERTEX
  8
SCANIA_P114_CB_6
 10
6.1974
 20
-2.9792
 30
0
 70
     0
  0
VERTEX
  8
SCANIA_P114_CB_6
 10
6.6868
 20
-3.1395
 30
0
 70
     0
  0
VERTEX
  8
SCANIA_P114_CB_6
 10
7.1709
 20
-3.3114
 30
0
 70
     0
  0
VERTEX
  8
SCANIA_P114_CB_6
 10
7.6497
 20
-3.4949
 30
0
 70
     0
  0
VERTEX
  8
SCANIA_P114_CB_6
 10
8.1229
 20
-3.6897
 30
0
 70
     0
  0
VERTEX
  8
SCANIA_P114_CB_6
 10
8.5904
 20
-3.8956
 30
0
 70
     0
  0
VERTEX
  8
SCANIA_P114_CB_6
 10
9.052
 20
-4.1125
 30
0
 70
     0
  0
VERTEX
  8
SCANIA_P114_CB_6
 10
9.5076
 20
-4.3403
 30
0
 70
     0
  0
VERTEX
  8
SCANIA_P114_CB_6
 10
9.9569
 20
-4.5787
 30
0
 70
     0
  0
VERTEX
  8
SCANIA_P114_CB_6
 10
10.3999
 20
-4.8276
 30
0
 70
     0
  0
VERTEX
  8
SCANIA_P114_CB_6
 10
10.8363
 20
-5.0868
 30
0
 70
     0
  0
VERTEX
  8
SCANIA_P114_CB_6
 10
11.2659
 20
-5.3561
 30
0
 70
     0
  0
VERTEX
  8
SCANIA_P114_CB_6
 10
11.6887
 20
-5.6354
 30
0
 70
     0
  0
VERTEX
  8
SCANIA_P114_CB_6
 10
12.1043
 20
-5.9245
 30
0
 70
     0
  0
VERTEX
  8
SCANIA_P114_CB_6
 10
12.5128
 20
-6.2233
 30
0
 70
     0
  0
VERTEX
  8
SCANIA_P114_CB_6
 10
12.9138
 20
-6.5314
 30
0
 70
     0
  0
VERTEX
  8
SCANIA_P114_CB_6
 10
13.3072
 20
-6.8489
 30
0
 70
     0
  0
VERTEX
  8
SCANIA_P114_CB_6
 10
13.6929
 20
-7.1755
 30
0
 70
     0
  0
VERTEX
  8
SCANIA_P114_CB_6
 10
14.0706
 20
-7.5111
 30
0
 70
     0
  0
VERTEX
  8
SCANIA_P114_CB_6
 10
14.4402
 20
-7.8554
 30
0
 70
     0
  0
VERTEX
  8
SCANIA_P114_CB_6
 10
14.8016
 20
-8.2084
 30
0
 70
     0
  0
VERTEX
  8
SCANIA_P114_CB_6
 10
15.1546
 20
-8.5697
 30
0
 70
     0
  0
VERTEX
  8
SCANIA_P114_CB_6
 10
15.4989
 20
-8.9394
 30
0
 70
     0
  0
VERTEX
  8
SCANIA_P114_CB_6
 10
15.8344
 20
-9.3171
 30
0
 70
     0
  0
VERTEX
  8
SCANIA_P114_CB_6
 10
16.161
 20
-9.7028
 30
0
 70
     0
  0
VERTEX
  8
SCANIA_P114_CB_6
 10
16.4785
 20
-10.0962
 30
0
 70
     0
  0
VERTEX
  8
SCANIA_P114_CB_6
 10
16.7867
 20
-10.4972
 30
0
 70
     0
  0
VERTEX
  8
SCANIA_P114_CB_6
 10
17.0854
 20
-10.9056
 30
0
 70
     0
  0
VERTEX
  8
SCANIA_P114_CB_6
 10
17.3746
 20
-11.3213
 30
0
 70
     0
  0
VERTEX
  8
SCANIA_P114_CB_6
 10
17.6539
 20
-11.744
 30
0
 70
     0
  0
VERTEX
  8
SCANIA_P114_CB_6
 10
17.9232
 20
-12.1737
 30
0
 70
     0
  0
VERTEX
  8
SCANIA_P114_CB_6
 10
18.1824
 20
-12.6101
 30
0
 70
     0
  0
VERTEX
  8
SCANIA_P114_CB_6
 10
18.4313
 20
-13.053
 30
0
 70
     0
  0
VERTEX
  8
SCANIA_P114_CB_6
 10
18.6697
 20
-13.5024
 30
0
 70
     0
  0
VERTEX
  8
SCANIA_P114_CB_6
 10
18.8974
 20
-13.958
 30
0
 70
     0
  0
VERTEX
  8
SCANIA_P114_CB_6
 10
19.1144
 20
-14.4196
 30
0
 70
     0
  0
VERTEX
  8
SCANIA_P114_CB_6
 10
19.3203
 20
-14.8871
 30
0
 70
     0
  0
VERTEX
  8
SCANIA_P114_CB_6
 10
19.5151
 20
-15.3603
 30
0
 70
     0
  0
VERTEX
  8
SCANIA_P114_CB_6
 10
19.6985
 20
-15.8391
 30
0
 70
     0
  0
VERTEX
  8
SCANIA_P114_CB_6
 10
19.8705
 20
-16.3232
 30
0
 70
     0
  0
VERTEX
  8
SCANIA_P114_CB_6
 10
20.0307
 20
-16.8126
 30
0
 70
     0
  0
VERTEX
  8
SCANIA_P114_CB_6
 10
20.1792
 20
-17.3069
 30
0
 70
     0
  0
VERTEX
  8
SCANIA_P114_CB_6
 10
20.3156
 20
-17.8062
 30
0
 70
     0
  0
VERTEX
  8
SCANIA_P114_CB_6
 10
20.4398
 20
-18.3101
 30
0
 70
     0
  0
VERTEX
  8
SCANIA_P114_CB_6
 10
20.5517
 20
-18.8185
 30
0
 70
     0
  0
VERTEX
  8
SCANIA_P114_CB_6
 10
20.651
 20
-19.3313
 30
0
 70
     0
  0
VERTEX
  8
SCANIA_P114_CB_6
 10
20.7377
 20
-19.8483
 30
0
 70
     0
  0
VERTEX
  8
SCANIA_P114_CB_6
 10
20.8115
 20
-20.3693
 30
0
 70
     0
  0
VERTEX
  8
SCANIA_P114_CB_6
 10
20.8722
 20
-20.8941
 30
0
 70
     0
  0
VERTEX
  8
SCANIA_P114_CB_6
 10
20.9198
 20
-21.4226
 30
0
 70
     0
  0
VERTEX
  8
SCANIA_P114_CB_6
 10
20.954
 20
-21.9546
 30
0
 70
     0
  0
VERTEX
  8
SCANIA_P114_CB_6
 10
20.9746
 20
-22.49
 30
0
 70
     0
  0
VERTEX
  8
SCANIA_P114_CB_6
 10
20.9815
 20
-23.0284
 30
0
 70
     0
  0
VERTEX
  8
SCANIA_P114_CB_6
 10
20.9815
 20
-23.0284
 30
0
 70
     0
  0
VERTEX
  8
SCANIA_P114_CB_6
 10
20.9746
 20
-23.5669
 30
0
 70
     0
  0
VERTEX
  8
SCANIA_P114_CB_6
 10
20.954
 20
-24.1023
 30
0
 70
     0
  0
VERTEX
  8
SCANIA_P114_CB_6
 10
20.9198
 20
-24.6343
 30
0
 70
     0
  0
VERTEX
  8
SCANIA_P114_CB_6
 10
20.8722
 20
-25.1628
 30
0
 70
     0
  0
VERTEX
  8
SCANIA_P114_CB_6
 10
20.8115
 20
-25.6876
 30
0
 70
     0
  0
VERTEX
  8
SCANIA_P114_CB_6
 10
20.7377
 20
-26.2086
 30
0
 70
     0
  0
VERTEX
  8
SCANIA_P114_CB_6
 10
20.651
 20
-26.7256
 30
0
 70
     0
  0
VERTEX
  8
SCANIA_P114_CB_6
 10
20.5517
 20
-27.2384
 30
0
 70
     0
  0
VERTEX
  8
SCANIA_P114_CB_6
 10
20.4398
 20
-27.7468
 30
0
 70
     0
  0
VERTEX
  8
SCANIA_P114_CB_6
 10
20.3156
 20
-28.2507
 30
0
 70
     0
  0
VERTEX
  8
SCANIA_P114_CB_6
 10
20.1792
 20
-28.75
 30
0
 70
     0
  0
VERTEX
  8
SCANIA_P114_CB_6
 10
20.0307
 20
-29.2443
 30
0
 70
     0
  0
VERTEX
  8
SCANIA_P114_CB_6
 10
19.8705
 20
-29.7337
 30
0
 70
     0
  0
VERTEX
  8
SCANIA_P114_CB_6
 10
19.6985
 20
-30.2178
 30
0
 70
     0
  0
VERTEX
  8
SCANIA_P114_CB_6
 10
19.5151
 20
-30.6966
 30
0
 70
     0
  0
VERTEX
  8
SCANIA_P114_CB_6
 10
19.3203
 20
-31.1698
 30
0
 70
     0
  0
VERTEX
  8
SCANIA_P114_CB_6
 10
19.1144
 20
-31.6373
 30
0
 70
     0
  0
VERTEX
  8
SCANIA_P114_CB_6
 10
18.8974
 20
-32.0989
 30
0
 70
     0
  0
VERTEX
  8
SCANIA_P114_CB_6
 10
18.6697
 20
-32.5545
 30
0
 70
     0
  0
VERTEX
  8
SCANIA_P114_CB_6
 10
18.4313
 20
-33.0039
 30
0
 70
     0
  0
VERTEX
  8
SCANIA_P114_CB_6
 10
18.1824
 20
-33.4468
 30
0
 70
     0
  0
VERTEX
  8
SCANIA_P114_CB_6
 10
17.9232
 20
-33.8832
 30
0
 70
     0
  0
VERTEX
  8
SCANIA_P114_CB_6
 10
17.6539
 20
-34.3128
 30
0
 70
     0
  0
VERTEX
  8
SCANIA_P114_CB_6
 10
17.3746
 20
-34.7356
 30
0
 70
     0
  0
VERTEX
  8
SCANIA_P114_CB_6
 10
17.0854
 20
-35.1513
 30
0
 70
     0
  0
VERTEX
  8
SCANIA_P114_CB_6
 10
16.7867
 20
-35.5597
 30
0
 70
     0
  0
VERTEX
  8
SCANIA_P114_CB_6
 10
16.4785
 20
-35.9607
 30
0
 70
     0
  0
VERTEX
  8
SCANIA_P114_CB_6
 10
16.161
 20
-36.3541
 30
0
 70
     0
  0
VERTEX
  8
SCANIA_P114_CB_6
 10
15.8344
 20
-36.7398
 30
0
 70
     0
  0
VERTEX
  8
SCANIA_P114_CB_6
 10
15.4989
 20
-37.1175
 30
0
 70
     0
  0
VERTEX
  8
SCANIA_P114_CB_6
 10
15.1546
 20
-37.4872
 30
0
 70
     0
  0
VERTEX
  8
SCANIA_P114_CB_6
 10
14.8016
 20
-37.8485
 30
0
 70
     0
  0
VERTEX
  8
SCANIA_P114_CB_6
 10
14.4402
 20
-38.2015
 30
0
 70
     0
  0
VERTEX
  8
SCANIA_P114_CB_6
 10
14.0706
 20
-38.5458
 30
0
 70
     0
  0
VERTEX
  8
SCANIA_P114_CB_6
 10
13.6929
 20
-38.8814
 30
0
 70
     0
  0
VERTEX
  8
SCANIA_P114_CB_6
 10
13.3072
 20
-39.208
 30
0
 70
     0
  0
VERTEX
  8
SCANIA_P114_CB_6
 10
12.9138
 20
-39.5254
 30
0
 70
     0
  0
VERTEX
  8
SCANIA_P114_CB_6
 10
12.5128
 20
-39.8336
 30
0
 70
     0
  0
VERTEX
  8
SCANIA_P114_CB_6
 10
12.1043
 20
-40.1324
 30
0
 70
     0
  0
VERTEX
  8
SCANIA_P114_CB_6
 10
11.6887
 20
-40.4215
 30
0
 70
     0
  0
VERTEX
  8
SCANIA_P114_CB_6
 10
11.2659
 20
-40.7008
 30
0
 70
     0
  0
VERTEX
  8
SCANIA_P114_CB_6
 10
10.8363
 20
-40.9701
 30
0
 70
     0
  0
VERTEX
  8
SCANIA_P114_CB_6
 10
10.3999
 20
-41.2293
 30
0
 70
     0
  0
VERTEX
  8
SCANIA_P114_CB_6
 10
9.9569
 20
-41.4782
 30
0
 70
     0
  0
VERTEX
  8
SCANIA_P114_CB_6
 10
9.5076
 20
-41.7166
 30
0
 70
     0
  0
VERTEX
  8
SCANIA_P114_CB_6
 10
9.052
 20
-41.9444
 30
0
 70
     0
  0
VERTEX
  8
SCANIA_P114_CB_6
 10
8.5904
 20
-42.1613
 30
0
 70
     0
  0
VERTEX
  8
SCANIA_P114_CB_6
 10
8.1229
 20
-42.3672
 30
0
 70
     0
  0
VERTEX
  8
SCANIA_P114_CB_6
 10
7.6497
 20
-42.562
 30
0
 70
     0
  0
VERTEX
  8
SCANIA_P114_CB_6
 10
7.1709
 20
-42.7455
 30
0
 70
     0
  0
VERTEX
  8
SCANIA_P114_CB_6
 10
6.6868
 20
-42.9174
 30
0
 70
     0
  0
VERTEX
  8
SCANIA_P114_CB_6
 10
6.1974
 20
-43.0777
 30
0
 70
     0
  0
VERTEX
  8
SCANIA_P114_CB_6
 10
5.703
 20
-43.2261
 30
0
 70
     0
  0
VERTEX
  8
SCANIA_P114_CB_6
 10
5.2038
 20
-43.3625
 30
0
 70
     0
  0
VERTEX
  8
SCANIA_P114_CB_6
 10
4.6999
 20
-43.4867
 30
0
 70
     0
  0
VERTEX
  8
SCANIA_P114_CB_6
 10
4.1914
 20
-43.5986
 30
0
 70
     0
  0
VERTEX
  8
SCANIA_P114_CB_6
 10
3.6786
 20
-43.698
 30
0
 70
     0
  0
VERTEX
  8
SCANIA_P114_CB_6
 10
3.1617
 20
-43.7846
 30
0
 70
     0
  0
VERTEX
  8
SCANIA_P114_CB_6
 10
2.6407
 20
-43.8584
 30
0
 70
     0
  0
VERTEX
  8
SCANIA_P114_CB_6
 10
2.1158
 20
-43.9192
 30
0
 70
     0
  0
VERTEX
  8
SCANIA_P114_CB_6
 10
1.5873
 20
-43.9667
 30
0
 70
     0
  0
VERTEX
  8
SCANIA_P114_CB_6
 10
1.0553
 20
-44.0009
 30
0
 70
     0
  0
VERTEX
  8
SCANIA_P114_CB_6
 10
0.52
 20
-44.0215
 30
0
 70
     0
  0
VERTEX
  8
SCANIA_P114_CB_6
 10
-0.0185
 20
-44.0284
 30
0
 70
     0
  0
VERTEX
  8
SCANIA_P114_CB_6
 10
-0.0185
 20
-44.0284
 30
0
 70
     0
  0
VERTEX
  8
SCANIA_P114_CB_6
 10
-0.557
 20
-44.0215
 30
0
 70
     0
  0
VERTEX
  8
SCANIA_P114_CB_6
 10
-1.0923
 20
-44.0009
 30
0
 70
     0
  0
VERTEX
  8
SCANIA_P114_CB_6
 10
-1.6243
 20
-43.9667
 30
0
 70
     0
  0
VERTEX
  8
SCANIA_P114_CB_6
 10
-2.1528
 20
-43.9192
 30
0
 70
     0
  0
VERTEX
  8
SCANIA_P114_CB_6
 10
-2.6776
 20
-43.8584
 30
0
 70
     0
  0
VERTEX
  8
SCANIA_P114_CB_6
 10
-3.1986
 20
-43.7846
 30
0
 70
     0
  0
VERTEX
  8
SCANIA_P114_CB_6
 10
-3.7156
 20
-43.698
 30
0
 70
     0
  0
VERTEX
  8
SCANIA_P114_CB_6
 10
-4.2284
 20
-43.5986
 30
0
 70
     0
  0
VERTEX
  8
SCANIA_P114_CB_6
 10
-4.7368
 20
-43.4867
 30
0
 70
     0
  0
VERTEX
  8
SCANIA_P114_CB_6
 10
-5.2408
 20
-43.3625
 30
0
 70
     0
  0
VERTEX
  8
SCANIA_P114_CB_6
 10
-5.74
 20
-43.2261
 30
0
 70
     0
  0
VERTEX
  8
SCANIA_P114_CB_6
 10
-6.2344
 20
-43.0777
 30
0
 70
     0
  0
VERTEX
  8
SCANIA_P114_CB_6
 10
-6.7237
 20
-42.9174
 30
0
 70
     0
  0
VERTEX
  8
SCANIA_P114_CB_6
 10
-7.2079
 20
-42.7455
 30
0
 70
     0
  0
VERTEX
  8
SCANIA_P114_CB_6
 10
-7.6866
 20
-42.562
 30
0
 70
     0
  0
VERTEX
  8
SCANIA_P114_CB_6
 10
-8.1598
 20
-42.3672
 30
0
 70
     0
  0
VERTEX
  8
SCANIA_P114_CB_6
 10
-8.6273
 20
-42.1613
 30
0
 70
     0
  0
VERTEX
  8
SCANIA_P114_CB_6
 10
-9.089
 20
-41.9444
 30
0
 70
     0
  0
VERTEX
  8
SCANIA_P114_CB_6
 10
-9.5445
 20
-41.7166
 30
0
 70
     0
  0
VERTEX
  8
SCANIA_P114_CB_6
 10
-9.9939
 20
-41.4782
 30
0
 70
     0
  0
VERTEX
  8
SCANIA_P114_CB_6
 10
-10.4368
 20
-41.2293
 30
0
 70
     0
  0
VERTEX
  8
SCANIA_P114_CB_6
 10
-10.8732
 20
-40.9701
 30
0
 70
     0
  0
VERTEX
  8
SCANIA_P114_CB_6
 10
-11.3029
 20
-40.7008
 30
0
 70
     0
  0
VERTEX
  8
SCANIA_P114_CB_6
 10
-11.7256
 20
-40.4215
 30
0
 70
     0
  0
VERTEX
  8
SCANIA_P114_CB_6
 10
-12.1413
 20
-40.1324
 30
0
 70
     0
  0
VERTEX
  8
SCANIA_P114_CB_6
 10
-12.5497
 20
-39.8336
 30
0
 70
     0
  0
VERTEX
  8
SCANIA_P114_CB_6
 10
-12.9507
 20
-39.5254
 30
0
 70
     0
  0
VERTEX
  8
SCANIA_P114_CB_6
 10
-13.3442
 20
-39.208
 30
0
 70
     0
  0
VERTEX
  8
SCANIA_P114_CB_6
 10
-13.7298
 20
-38.8814
 30
0
 70
     0
  0
VERTEX
  8
SCANIA_P114_CB_6
 10
-14.1076
 20
-38.5458
 30
0
 70
     0
  0
VERTEX
  8
SCANIA_P114_CB_6
 10
-14.4772
 20
-38.2015
 30
0
 70
     0
  0
VERTEX
  8
SCANIA_P114_CB_6
 10
-14.8386
 20
-37.8485
 30
0
 70
     0
  0
VERTEX
  8
SCANIA_P114_CB_6
 10
-15.1915
 20
-37.4872
 30
0
 70
     0
  0
VERTEX
  8
SCANIA_P114_CB_6
 10
-15.5358
 20
-37.1175
 30
0
 70
     0
  0
VERTEX
  8
SCANIA_P114_CB_6
 10
-15.8714
 20
-36.7398
 30
0
 70
     0
  0
VERTEX
  8
SCANIA_P114_CB_6
 10
-16.198
 20
-36.3541
 30
0
 70
     0
  0
VERTEX
  8
SCANIA_P114_CB_6
 10
-16.5155
 20
-35.9607
 30
0
 70
     0
  0
VERTEX
  8
SCANIA_P114_CB_6
 10
-16.8237
 20
-35.5597
 30
0
 70
     0
  0
VERTEX
  8
SCANIA_P114_CB_6
 10
-17.1224
 20
-35.1513
 30
0
 70
     0
  0
VERTEX
  8
SCANIA_P114_CB_6
 10
-17.4115
 20
-34.7356
 30
0
 70
     0
  0
VERTEX
  8
SCANIA_P114_CB_6
 10
-17.6908
 20
-34.3128
 30
0
 70
     0
  0
VERTEX
  8
SCANIA_P114_CB_6
 10
-17.9602
 20
-33.8832
 30
0
 70
     0
  0
VERTEX
  8
SCANIA_P114_CB_6
 10
-18.2194
 20
-33.4468
 30
0
 70
     0
  0
VERTEX
  8
SCANIA_P114_CB_6
 10
-18.4682
 20
-33.0039
 30
0
 70
     0
  0
VERTEX
  8
SCANIA_P114_CB_6
 10
-18.7066
 20
-32.5545
 30
0
 70
     0
  0
VERTEX
  8
SCANIA_P114_CB_6
 10
-18.9344
 20
-32.0989
 30
0
 70
     0
  0
VERTEX
  8
SCANIA_P114_CB_6
 10
-19.1513
 20
-31.6373
 30
0
 70
     0
  0
VERTEX
  8
SCANIA_P114_CB_6
 10
-19.3573
 20
-31.1698
 30
0
 70
     0
  0
VERTEX
  8
SCANIA_P114_CB_6
 10
-19.552
 20
-30.6966
 30
0
 70
     0
  0
VERTEX
  8
SCANIA_P114_CB_6
 10
-19.7355
 20
-30.2178
 30
0
 70
     0
  0
VERTEX
  8
SCANIA_P114_CB_6
 10
-19.9074
 20
-29.7337
 30
0
 70
     0
  0
VERTEX
  8
SCANIA_P114_CB_6
 10
-20.0677
 20
-29.2443
 30
0
 70
     0
  0
VERTEX
  8
SCANIA_P114_CB_6
 10
-20.2161
 20
-28.75
 30
0
 70
     0
  0
VERTEX
  8
SCANIA_P114_CB_6
 10
-20.3525
 20
-28.2507
 30
0
 70
     0
  0
VERTEX
  8
SCANIA_P114_CB_6
 10
-20.4768
 20
-27.7468
 30
0
 70
     0
  0
VERTEX
  8
SCANIA_P114_CB_6
 10
-20.5886
 20
-27.2384
 30
0
 70
     0
  0
VERTEX
  8
SCANIA_P114_CB_6
 10
-20.688
 20
-26.7256
 30
0
 70
     0
  0
VERTEX
  8
SCANIA_P114_CB_6
 10
-20.7747
 20
-26.2086
 30
0
 70
     0
  0
VERTEX
  8
SCANIA_P114_CB_6
 10
-20.8484
 20
-25.6876
 30
0
 70
     0
  0
VERTEX
  8
SCANIA_P114_CB_6
 10
-20.9092
 20
-25.1628
 30
0
 70
     0
  0
VERTEX
  8
SCANIA_P114_CB_6
 10
-20.9568
 20
-24.6343
 30
0
 70
     0
  0
VERTEX
  8
SCANIA_P114_CB_6
 10
-20.9909
 20
-24.1023
 30
0
 70
     0
  0
VERTEX
  8
SCANIA_P114_CB_6
 10
-21.0116
 20
-23.5669
 30
0
 70
     0
  0
VERTEX
  8
SCANIA_P114_CB_6
 10
-21.0185
 20
-23.0284
 30
0
 70
     0
  0
SEQEND
  0
POLYLINE
  8
SCANIA_P114_CB_6
  6
CONTINUOUS
 62
     7
 66
     1
 40
0.0139
 41
0.0139
  0
VERTEX
  8
SCANIA_P114_CB_6
 10
-55.884
 20
-10.5295
 30
0
 70
     0
  0
VERTEX
  8
SCANIA_P114_CB_6
 10
-55.8842
 20
-10.5467
 30
0
 70
     0
  0
VERTEX
  8
SCANIA_P114_CB_6
 10
-55.8842
 20
-10.5639
 30
0
 70
     0
  0
SEQEND
  0
POLYLINE
  8
SCANIA_P114_CB_6
  6
CONTINUOUS
 62
     7
 66
     1
 40
0.0139
 41
0.0139
  0
VERTEX
  8
SCANIA_P114_CB_6
 10
24.4456
 20
7.3968
 30
0
 70
     0
  0
VERTEX
  8
SCANIA_P114_CB_6
 10
19.8214
 20
60.2517
 30
0
 70
     0
  0
SEQEND
  0
POLYLINE
  8
SCANIA_P114_CB_6
  6
CONTINUOUS
 62
     7
 66
     1
 40
0.0139
 41
0.0139
  0
VERTEX
  8
SCANIA_P114_CB_6
 10
16.0251
 20
63.8436
 30
0
 70
     0
  0
VERTEX
  8
SCANIA_P114_CB_6
 10
-40.1366
 20
61.3915
 30
0
 70
     0
  0
SEQEND
  0
POLYLINE
  8
SCANIA_P114_CB_6
  6
CONTINUOUS
 62
     7
 66
     1
 40
0.0139
 41
0.0139
  0
VERTEX
  8
SCANIA_P114_CB_6
 10
19.8214
 20
60.2517
 30
0
 70
     0
  0
VERTEX
  8
SCANIA_P114_CB_6
 10
19.801
 20
60.4365
 30
0
 70
     0
  0
VERTEX
  8
SCANIA_P114_CB_6
 10
19.7723
 20
60.6186
 30
0
 70
     0
  0
VERTEX
  8
SCANIA_P114_CB_6
 10
19.7354
 20
60.7977
 30
0
 70
     0
  0
VERTEX
  8
SCANIA_P114_CB_6
 10
19.6906
 20
60.9736
 30
0
 70
     0
  0
VERTEX
  8
SCANIA_P114_CB_6
 10
19.638
 20
61.1462
 30
0
 70
     0
  0
VERTEX
  8
SCANIA_P114_CB_6
 10
19.5779
 20
61.3152
 30
0
 70
     0
  0
VERTEX
  8
SCANIA_P114_CB_6
 10
19.5104
 20
61.4806
 30
0
 70
     0
  0
VERTEX
  8
SCANIA_P114_CB_6
 10
19.4358
 20
61.6419
 30
0
 70
     0
  0
VERTEX
  8
SCANIA_P114_CB_6
 10
19.3542
 20
61.7992
 30
0
 70
     0
  0
VERTEX
  8
SCANIA_P114_CB_6
 10
19.2659
 20
61.9522
 30
0
 70
     0
  0
VERTEX
  8
SCANIA_P114_CB_6
 10
19.1711
 20
62.1007
 30
0
 70
     0
  0
VERTEX
  8
SCANIA_P114_CB_6
 10
19.0699
 20
62.2445
 30
0
 70
     0
  0
VERTEX
  8
SCANIA_P114_CB_6
 10
18.9626
 20
62.3834
 30
0
 70
     0
  0
VERTEX
  8
SCANIA_P114_CB_6
 10
18.8493
 20
62.5172
 30
0
 70
     0
  0
VERTEX
  8
SCANIA_P114_CB_6
 10
18.7303
 20
62.6459
 30
0
 70
     0
  0
VERTEX
  8
SCANIA_P114_CB_6
 10
18.6058
 20
62.769
 30
0
 70
     0
  0
VERTEX
  8
SCANIA_P114_CB_6
 10
18.476
 20
62.8865
 30
0
 70
     0
  0
VERTEX
  8
SCANIA_P114_CB_6
 10
18.341
 20
62.9982
 30
0
 70
     0
  0
VERTEX
  8
SCANIA_P114_CB_6
 10
18.2011
 20
63.1039
 30
0
 70
     0
  0
VERTEX
  8
SCANIA_P114_CB_6
 10
18.0564
 20
63.2034
 30
0
 70
     0
  0
VERTEX
  8
SCANIA_P114_CB_6
 10
17.9072
 20
63.2965
 30
0
 70
     0
  0
VERTEX
  8
SCANIA_P114_CB_6
 10
17.7537
 20
63.3829
 30
0
 70
     0
  0
VERTEX
  8
SCANIA_P114_CB_6
 10
17.5961
 20
63.4626
 30
0
 70
     0
  0
VERTEX
  8
SCANIA_P114_CB_6
 10
17.4346
 20
63.5354
 30
0
 70
     0
  0
VERTEX
  8
SCANIA_P114_CB_6
 10
17.2693
 20
63.601
 30
0
 70
     0
  0
VERTEX
  8
SCANIA_P114_CB_6
 10
17.1005
 20
63.6592
 30
0
 70
     0
  0
VERTEX
  8
SCANIA_P114_CB_6
 10
16.9284
 20
63.7099
 30
0
 70
     0
  0
VERTEX
  8
SCANIA_P114_CB_6
 10
16.7532
 20
63.7528
 30
0
 70
     0
  0
VERTEX
  8
SCANIA_P114_CB_6
 10
16.5751
 20
63.7879
 30
0
 70
     0
  0
VERTEX
  8
SCANIA_P114_CB_6
 10
16.3942
 20
63.8148
 30
0
 70
     0
  0
VERTEX
  8
SCANIA_P114_CB_6
 10
16.2108
 20
63.8334
 30
0
 70
     0
  0
VERTEX
  8
SCANIA_P114_CB_6
 10
16.0251
 20
63.8436
 30
0
 70
     0
  0
SEQEND
  0
POLYLINE
  8
SCANIA_P114_CB_6
  6
CONTINUOUS
 62
     7
 66
     1
 40
0.0139
 41
0.0139
  0
VERTEX
  8
SCANIA_P114_CB_6
 10
-55.0271
 20
26.2643
 30
0
 70
     0
  0
VERTEX
  8
SCANIA_P114_CB_6
 10
-55.1871
 20
26.282
 30
0
 70
     0
  0
VERTEX
  8
SCANIA_P114_CB_6
 10
-55.2412
 20
26.2987
 30
0
 70
     0
  0
SEQEND
  0
POLYLINE
  8
SCANIA_P114_CB_6
  6
CONTINUOUS
 62
     7
 66
     1
 40
0.0139
 41
0.0139
  0
VERTEX
  8
SCANIA_P114_CB_6
 10
-48.0106
 20
28.8062
 30
0
 70
     0
  0
VERTEX
  8
SCANIA_P114_CB_6
 10
-48.0106
 20
28.8794
 30
0
 70
     0
  0
SEQEND
  0
POLYLINE
  8
SCANIA_P114_CB_6
  6
CONTINUOUS
 62
     7
 66
     1
 40
0.0139
 41
0.0139
  0
VERTEX
  8
SCANIA_P114_CB_6
 10
-53.715
 20
27.2314
 30
0
 70
     0
  0
VERTEX
  8
SCANIA_P114_CB_6
 10
-53.6912
 20
27.5896
 30
0
 70
     0
  0
VERTEX
  8
SCANIA_P114_CB_6
 10
-53.6599
 20
27.773
 30
0
 70
     0
  0
VERTEX
  8
SCANIA_P114_CB_6
 10
-53.6148
 20
27.956
 30
0
 70
     0
  0
VERTEX
  8
SCANIA_P114_CB_6
 10
-53.5557
 20
28.1355
 30
0
 70
     0
  0
VERTEX
  8
SCANIA_P114_CB_6
 10
-53.4825
 20
28.3086
 30
0
 70
     0
  0
VERTEX
  8
SCANIA_P114_CB_6
 10
-53.396
 20
28.4721
 30
0
 70
     0
  0
VERTEX
  8
SCANIA_P114_CB_6
 10
-53.2973
 20
28.6233
 30
0
 70
     0
  0
VERTEX
  8
SCANIA_P114_CB_6
 10
-53.1877
 20
28.7596
 30
0
 70
     0
  0
VERTEX
  8
SCANIA_P114_CB_6
 10
-53.0692
 20
28.879
 30
0
 70
     0
  0
VERTEX
  8
SCANIA_P114_CB_6
 10
-52.9439
 20
28.98
 30
0
 70
     0
  0
VERTEX
  8
SCANIA_P114_CB_6
 10
-52.8138
 20
29.0617
 30
0
 70
     0
  0
VERTEX
  8
SCANIA_P114_CB_6
 10
-52.6813
 20
29.1239
 30
0
 70
     0
  0
VERTEX
  8
SCANIA_P114_CB_6
 10
-52.5484
 20
29.167
 30
0
 70
     0
  0
VERTEX
  8
SCANIA_P114_CB_6
 10
-52.417
 20
29.1919
 30
0
 70
     0
  0
VERTEX
  8
SCANIA_P114_CB_6
 10
-52.2889
 20
29.1999
 30
0
 70
     0
  0
SEQEND
  0
POLYLINE
  8
SCANIA_P114_CB_6
  6
CONTINUOUS
 62
     7
 66
     1
 40
0.0139
 41
0.0139
  0
VERTEX
  8
SCANIA_P114_CB_6
 10
-53.2188
 20
-10.5639
 30
0
 70
     0
  0
VERTEX
  8
SCANIA_P114_CB_6
 10
-53.0738
 20
-10.5678
 30
0
 70
     0
  0
VERTEX
  8
SCANIA_P114_CB_6
 10
-52.9268
 20
-10.5792
 30
0
 70
     0
  0
VERTEX
  8
SCANIA_P114_CB_6
 10
-52.778
 20
-10.5973
 30
0
 70
     0
  0
VERTEX
  8
SCANIA_P114_CB_6
 10
-52.6271
 20
-10.6216
 30
0
 70
     0
  0
VERTEX
  8
SCANIA_P114_CB_6
 10
-52.3195
 20
-10.6868
 30
0
 70
     0
  0
VERTEX
  8
SCANIA_P114_CB_6
 10
-52.0039
 20
-10.7719
 30
0
 70
     0
  0
VERTEX
  8
SCANIA_P114_CB_6
 10
-51.8437
 20
-10.8209
 30
0
 70
     0
  0
VERTEX
  8
SCANIA_P114_CB_6
 10
-51.6831
 20
-10.8734
 30
0
 70
     0
  0
VERTEX
  8
SCANIA_P114_CB_6
 10
-51.5219
 20
-10.9292
 30
0
 70
     0
  0
VERTEX
  8
SCANIA_P114_CB_6
 10
-51.3601
 20
-10.988
 30
0
 70
     0
  0
VERTEX
  8
SCANIA_P114_CB_6
 10
-51.0347
 20
-11.1136
 30
0
 70
     0
  0
VERTEX
  8
SCANIA_P114_CB_6
 10
-50.7065
 20
-11.249
 30
0
 70
     0
  0
VERTEX
  8
SCANIA_P114_CB_6
 10
-50.3752
 20
-11.3927
 30
0
 70
     0
  0
VERTEX
  8
SCANIA_P114_CB_6
 10
-50.0407
 20
-11.5439
 30
0
 70
     0
  0
VERTEX
  8
SCANIA_P114_CB_6
 10
-49.9565
 20
-11.5827
 30
0
 70
     0
  0
VERTEX
  8
SCANIA_P114_CB_6
 10
-49.8722
 20
-11.6219
 30
0
 70
     0
  0
VERTEX
  8
SCANIA_P114_CB_6
 10
-49.7879
 20
-11.6614
 30
0
 70
     0
  0
VERTEX
  8
SCANIA_P114_CB_6
 10
-49.7035
 20
-11.7011
 30
0
 70
     0
  0
VERTEX
  8
SCANIA_P114_CB_6
 10
-49.5349
 20
-11.7812
 30
0
 70
     0
  0
VERTEX
  8
SCANIA_P114_CB_6
 10
-49.3662
 20
-11.8623
 30
0
 70
     0
  0
VERTEX
  8
SCANIA_P114_CB_6
 10
-49.0285
 20
-12.0267
 30
0
 70
     0
  0
VERTEX
  8
SCANIA_P114_CB_6
 10
-48.6902
 20
-12.1935
 30
0
 70
     0
  0
VERTEX
  8
SCANIA_P114_CB_6
 10
-48.5207
 20
-12.2777
 30
0
 70
     0
  0
VERTEX
  8
SCANIA_P114_CB_6
 10
-48.351
 20
-12.3623
 30
0
 70
     0
  0
VERTEX
  8
SCANIA_P114_CB_6
 10
-48.266
 20
-12.4047
 30
0
 70
     0
  0
VERTEX
  8
SCANIA_P114_CB_6
 10
-48.181
 20
-12.4472
 30
0
 70
     0
  0
VERTEX
  8
SCANIA_P114_CB_6
 10
-48.1384
 20
-12.4685
 30
0
 70
     0
  0
VERTEX
  8
SCANIA_P114_CB_6
 10
-48.0958
 20
-12.4898
 30
0
 70
     0
  0
VERTEX
  8
SCANIA_P114_CB_6
 10
-48.0745
 20
-12.5004
 30
0
 70
     0
  0
VERTEX
  8
SCANIA_P114_CB_6
 10
-48.0532
 20
-12.5111
 30
0
 70
     0
  0
VERTEX
  8
SCANIA_P114_CB_6
 10
-48.0319
 20
-12.5218
 30
0
 70
     0
  0
VERTEX
  8
SCANIA_P114_CB_6
 10
-48.0106
 20
-12.5324
 30
0
 70
     0
  0
SEQEND
  0
POLYLINE
  8
SCANIA_P114_CB_6
  6
CONTINUOUS
 62
     7
 66
     1
 40
0.0139
 41
0.0139
  0
VERTEX
  8
SCANIA_P114_CB_6
 10
-58.8374
 20
-16.8631
 30
0
 70
     0
  0
VERTEX
  8
SCANIA_P114_CB_6
 10
-58.8374
 20
-13.4655
 30
0
 70
     0
  0
SEQEND
  0
POLYLINE
  8
SCANIA_P114_CB_6
  6
CONTINUOUS
 62
     7
 66
     1
 40
0.0139
 41
0.0139
  0
VERTEX
  8
SCANIA_P114_CB_6
 10
-25.7834
 20
-20.8001
 30
0
 70
     0
  0
VERTEX
  8
SCANIA_P114_CB_6
 10
-54.9004
 20
-20.8001
 30
0
 70
     0
  0
SEQEND
  0
POLYLINE
  8
SCANIA_P114_CB_6
  6
CONTINUOUS
 62
     7
 66
     1
 40
0.0139
 41
0.0139
  0
VERTEX
  8
SCANIA_P114_CB_6
 10
-58.8374
 20
-16.8631
 30
0
 70
     0
  0
VERTEX
  8
SCANIA_P114_CB_6
 10
-58.8324
 20
-17.0656
 30
0
 70
     0
  0
VERTEX
  8
SCANIA_P114_CB_6
 10
-58.8173
 20
-17.2655
 30
0
 70
     0
  0
VERTEX
  8
SCANIA_P114_CB_6
 10
-58.7924
 20
-17.4626
 30
0
 70
     0
  0
VERTEX
  8
SCANIA_P114_CB_6
 10
-58.7579
 20
-17.6564
 30
0
 70
     0
  0
VERTEX
  8
SCANIA_P114_CB_6
 10
-58.7141
 20
-17.8469
 30
0
 70
     0
  0
VERTEX
  8
SCANIA_P114_CB_6
 10
-58.6611
 20
-18.0337
 30
0
 70
     0
  0
VERTEX
  8
SCANIA_P114_CB_6
 10
-58.5993
 20
-18.2166
 30
0
 70
     0
  0
VERTEX
  8
SCANIA_P114_CB_6
 10
-58.5289
 20
-18.3954
 30
0
 70
     0
  0
VERTEX
  8
SCANIA_P114_CB_6
 10
-58.4501
 20
-18.5699
 30
0
 70
     0
  0
VERTEX
  8
SCANIA_P114_CB_6
 10
-58.3632
 20
-18.7396
 30
0
 70
     0
  0
VERTEX
  8
SCANIA_P114_CB_6
 10
-58.2684
 20
-18.9045
 30
0
 70
     0
  0
VERTEX
  8
SCANIA_P114_CB_6
 10
-58.1661
 20
-19.0643
 30
0
 70
     0
  0
VERTEX
  8
SCANIA_P114_CB_6
 10
-58.0563
 20
-19.2187
 30
0
 70
     0
  0
VERTEX
  8
SCANIA_P114_CB_6
 10
-57.9395
 20
-19.3675
 30
0
 70
     0
  0
VERTEX
  8
SCANIA_P114_CB_6
 10
-57.8158
 20
-19.5103
 30
0
 70
     0
  0
VERTEX
  8
SCANIA_P114_CB_6
 10
-57.6854
 20
-19.6471
 30
0
 70
     0
  0
VERTEX
  8
SCANIA_P114_CB_6
 10
-57.5487
 20
-19.7775
 30
0
 70
     0
  0
VERTEX
  8
SCANIA_P114_CB_6
 10
-57.4059
 20
-19.9013
 30
0
 70
     0
  0
VERTEX
  8
SCANIA_P114_CB_6
 10
-57.2571
 20
-20.0182
 30
0
 70
     0
  0
VERTEX
  8
SCANIA_P114_CB_6
 10
-57.1028
 20
-20.128
 30
0
 70
     0
  0
VERTEX
  8
SCANIA_P114_CB_6
 10
-56.9431
 20
-20.2304
 30
0
 70
     0
  0
VERTEX
  8
SCANIA_P114_CB_6
 10
-56.7782
 20
-20.3252
 30
0
 70
     0
  0
VERTEX
  8
SCANIA_P114_CB_6
 10
-56.6085
 20
-20.4122
 30
0
 70
     0
  0
VERTEX
  8
SCANIA_P114_CB_6
 10
-56.4341
 20
-20.491
 30
0
 70
     0
  0
VERTEX
  8
SCANIA_P114_CB_6
 10
-56.2553
 20
-20.5615
 30
0
 70
     0
  0
VERTEX
  8
SCANIA_P114_CB_6
 10
-56.0724
 20
-20.6234
 30
0
 70
     0
  0
VERTEX
  8
SCANIA_P114_CB_6
 10
-55.8856
 20
-20.6764
 30
0
 70
     0
  0
VERTEX
  8
SCANIA_P114_CB_6
 10
-55.6951
 20
-20.7204
 30
0
 70
     0
  0
VERTEX
  8
SCANIA_P114_CB_6
 10
-55.5013
 20
-20.7549
 30
0
 70
     0
  0
VERTEX
  8
SCANIA_P114_CB_6
 10
-55.3043
 20
-20.7799
 30
0
 70
     0
  0
VERTEX
  8
SCANIA_P114_CB_6
 10
-55.1044
 20
-20.7951
 30
0
 70
     0
  0
VERTEX
  8
SCANIA_P114_CB_6
 10
-54.9018
 20
-20.8001
 30
0
 70
     0
  0
SEQEND
  0
POLYLINE
  8
SCANIA_P114_CB_6
  6
CONTINUOUS
 62
     7
 66
     1
 40
0.0139
 41
0.0139
  0
VERTEX
  8
SCANIA_P114_CB_6
 10
-55.9859
 20
-10.5639
 30
0
 70
     0
  0
VERTEX
  8
SCANIA_P114_CB_6
 10
-53.2188
 20
-10.5639
 30
0
 70
     0
  0
SEQEND
  0
POLYLINE
  8
SCANIA_P114_CB_6
  6
CONTINUOUS
 62
     7
 66
     1
 40
0.0139
 41
0.0139
  0
VERTEX
  8
SCANIA_P114_CB_6
 10
-55.9859
 20
-10.5639
 30
0
 70
     0
  0
VERTEX
  8
SCANIA_P114_CB_6
 10
-56.1334
 20
-10.57
 30
0
 70
     0
  0
VERTEX
  8
SCANIA_P114_CB_6
 10
-56.2788
 20
-10.5834
 30
0
 70
     0
  0
VERTEX
  8
SCANIA_P114_CB_6
 10
-56.422
 20
-10.6039
 30
0
 70
     0
  0
VERTEX
  8
SCANIA_P114_CB_6
 10
-56.5629
 20
-10.6312
 30
0
 70
     0
  0
VERTEX
  8
SCANIA_P114_CB_6
 10
-56.7013
 20
-10.6652
 30
0
 70
     0
  0
VERTEX
  8
SCANIA_P114_CB_6
 10
-56.8369
 20
-10.7058
 30
0
 70
     0
  0
VERTEX
  8
SCANIA_P114_CB_6
 10
-56.9697
 20
-10.7527
 30
0
 70
     0
  0
VERTEX
  8
SCANIA_P114_CB_6
 10
-57.0994
 20
-10.8058
 30
0
 70
     0
  0
VERTEX
  8
SCANIA_P114_CB_6
 10
-57.2259
 20
-10.8648
 30
0
 70
     0
  0
VERTEX
  8
SCANIA_P114_CB_6
 10
-57.3489
 20
-10.9297
 30
0
 70
     0
  0
VERTEX
  8
SCANIA_P114_CB_6
 10
-57.4684
 20
-11.0002
 30
0
 70
     0
  0
VERTEX
  8
SCANIA_P114_CB_6
 10
-57.584
 20
-11.0762
 30
0
 70
     0
  0
VERTEX
  8
SCANIA_P114_CB_6
 10
-57.6958
 20
-11.1574
 30
0
 70
     0
  0
VERTEX
  8
SCANIA_P114_CB_6
 10
-57.8034
 20
-11.2437
 30
0
 70
     0
  0
VERTEX
  8
SCANIA_P114_CB_6
 10
-57.9068
 20
-11.335
 30
0
 70
     0
  0
VERTEX
  8
SCANIA_P114_CB_6
 10
-58.0057
 20
-11.431
 30
0
 70
     0
  0
VERTEX
  8
SCANIA_P114_CB_6
 10
-58.0999
 20
-11.5315
 30
0
 70
     0
  0
VERTEX
  8
SCANIA_P114_CB_6
 10
-58.1894
 20
-11.6364
 30
0
 70
     0
  0
VERTEX
  8
SCANIA_P114_CB_6
 10
-58.2738
 20
-11.7456
 30
0
 70
     0
  0
VERTEX
  8
SCANIA_P114_CB_6
 10
-58.3531
 20
-11.8587
 30
0
 70
     0
  0
VERTEX
  8
SCANIA_P114_CB_6
 10
-58.427
 20
-11.9757
 30
0
 70
     0
  0
VERTEX
  8
SCANIA_P114_CB_6
 10
-58.4954
 20
-12.0964
 30
0
 70
     0
  0
VERTEX
  8
SCANIA_P114_CB_6
 10
-58.5581
 20
-12.2206
 30
0
 70
     0
  0
VERTEX
  8
SCANIA_P114_CB_6
 10
-58.615
 20
-12.348
 30
0
 70
     0
  0
VERTEX
  8
SCANIA_P114_CB_6
 10
-58.6658
 20
-12.4786
 30
0
 70
     0
  0
VERTEX
  8
SCANIA_P114_CB_6
 10
-58.7103
 20
-12.6122
 30
0
 70
     0
  0
VERTEX
  8
SCANIA_P114_CB_6
 10
-58.7485
 20
-12.7485
 30
0
 70
     0
  0
VERTEX
  8
SCANIA_P114_CB_6
 10
-58.7801
 20
-12.8874
 30
0
 70
     0
  0
VERTEX
  8
SCANIA_P114_CB_6
 10
-58.805
 20
-13.0288
 30
0
 70
     0
  0
VERTEX
  8
SCANIA_P114_CB_6
 10
-58.823
 20
-13.1724
 30
0
 70
     0
  0
VERTEX
  8
SCANIA_P114_CB_6
 10
-58.8338
 20
-13.318
 30
0
 70
     0
  0
VERTEX
  8
SCANIA_P114_CB_6
 10
-58.8374
 20
-13.4655
 30
0
 70
     0
  0
SEQEND
  0
POLYLINE
  8
SCANIA_P114_CB_6
  6
CONTINUOUS
 62
     7
 66
     1
 40
0.0139
 41
0.0139
  0
VERTEX
  8
SCANIA_P114_CB_6
 10
-56.8689
 20
-13.4655
 30
0
 70
     0
  0
VERTEX
  8
SCANIA_P114_CB_6
 10
-56.8689
 20
-16.8631
 30
0
 70
     0
  0
SEQEND
  0
POLYLINE
  8
SCANIA_P114_CB_6
  6
CONTINUOUS
 62
     7
 66
     1
 40
0.0139
 41
0.0139
  0
VERTEX
  8
SCANIA_P114_CB_6
 10
-54.9004
 20
-18.8316
 30
0
 70
     0
  0
VERTEX
  8
SCANIA_P114_CB_6
 10
-25.5243
 20
-18.8316
 30
0
 70
     0
  0
SEQEND
  0
POLYLINE
  8
SCANIA_P114_CB_6
  6
CONTINUOUS
 62
     7
 66
     1
 40
0.0139
 41
0.0139
  0
VERTEX
  8
SCANIA_P114_CB_6
 10
-56.8689
 20
-16.8631
 30
0
 70
     0
  0
VERTEX
  8
SCANIA_P114_CB_6
 10
-56.8589
 20
-17.0643
 30
0
 70
     0
  0
VERTEX
  8
SCANIA_P114_CB_6
 10
-56.8292
 20
-17.2598
 30
0
 70
     0
  0
VERTEX
  8
SCANIA_P114_CB_6
 10
-56.7807
 20
-17.4484
 30
0
 70
     0
  0
VERTEX
  8
SCANIA_P114_CB_6
 10
-56.7146
 20
-17.6293
 30
0
 70
     0
  0
VERTEX
  8
SCANIA_P114_CB_6
 10
-56.6318
 20
-17.8014
 30
0
 70
     0
  0
VERTEX
  8
SCANIA_P114_CB_6
 10
-56.5332
 20
-17.9637
 30
0
 70
     0
  0
VERTEX
  8
SCANIA_P114_CB_6
 10
-56.4199
 20
-18.1153
 30
0
 70
     0
  0
VERTEX
  8
SCANIA_P114_CB_6
 10
-56.2929
 20
-18.2551
 30
0
 70
     0
  0
VERTEX
  8
SCANIA_P114_CB_6
 10
-56.1531
 20
-18.3822
 30
0
 70
     0
  0
VERTEX
  8
SCANIA_P114_CB_6
 10
-56.0016
 20
-18.4955
 30
0
 70
     0
  0
VERTEX
  8
SCANIA_P114_CB_6
 10
-55.8393
 20
-18.5942
 30
0
 70
     0
  0
VERTEX
  8
SCANIA_P114_CB_6
 10
-55.6672
 20
-18.6771
 30
0
 70
     0
  0
VERTEX
  8
SCANIA_P114_CB_6
 10
-55.4864
 20
-18.7432
 30
0
 70
     0
  0
VERTEX
  8
SCANIA_P114_CB_6
 10
-55.2977
 20
-18.7917
 30
0
 70
     0
  0
VERTEX
  8
SCANIA_P114_CB_6
 10
-55.1023
 20
-18.8215
 30
0
 70
     0
  0
VERTEX
  8
SCANIA_P114_CB_6
 10
-54.9011
 20
-18.8316
 30
0
 70
     0
  0
SEQEND
  0
POLYLINE
  8
SCANIA_P114_CB_6
  6
CONTINUOUS
 62
     7
 66
     1
 40
0.0139
 41
0.0139
  0
VERTEX
  8
SCANIA_P114_CB_6
 10
-48.0106
 20
-12.5324
 30
0
 70
     0
  0
VERTEX
  8
SCANIA_P114_CB_6
 10
-55.964
 20
-12.5324
 30
0
 70
     0
  0
SEQEND
  0
POLYLINE
  8
SCANIA_P114_CB_6
  6
CONTINUOUS
 62
     7
 66
     1
 40
0.0139
 41
0.0139
  0
VERTEX
  8
SCANIA_P114_CB_6
 10
-55.964
 20
-12.5324
 30
0
 70
     0
  0
VERTEX
  8
SCANIA_P114_CB_6
 10
-56.0572
 20
-12.5398
 30
0
 70
     0
  0
VERTEX
  8
SCANIA_P114_CB_6
 10
-56.1476
 20
-12.5561
 30
0
 70
     0
  0
VERTEX
  8
SCANIA_P114_CB_6
 10
-56.2347
 20
-12.5809
 30
0
 70
     0
  0
VERTEX
  8
SCANIA_P114_CB_6
 10
-56.3181
 20
-12.6136
 30
0
 70
     0
  0
VERTEX
  8
SCANIA_P114_CB_6
 10
-56.3973
 20
-12.6539
 30
0
 70
     0
  0
VERTEX
  8
SCANIA_P114_CB_6
 10
-56.4719
 20
-12.7012
 30
0
 70
     0
  0
VERTEX
  8
SCANIA_P114_CB_6
 10
-56.5415
 20
-12.7552
 30
0
 70
     0
  0
VERTEX
  8
SCANIA_P114_CB_6
 10
-56.6056
 20
-12.8154
 30
0
 70
     0
  0
VERTEX
  8
SCANIA_P114_CB_6
 10
-56.6638
 20
-12.8813
 30
0
 70
     0
  0
VERTEX
  8
SCANIA_P114_CB_6
 10
-56.7156
 20
-12.9525
 30
0
 70
     0
  0
VERTEX
  8
SCANIA_P114_CB_6
 10
-56.7607
 20
-13.0285
 30
0
 70
     0
  0
VERTEX
  8
SCANIA_P114_CB_6
 10
-56.7985
 20
-13.1089
 30
0
 70
     0
  0
VERTEX
  8
SCANIA_P114_CB_6
 10
-56.8287
 20
-13.1933
 30
0
 70
     0
  0
VERTEX
  8
SCANIA_P114_CB_6
 10
-56.8508
 20
-13.2811
 30
0
 70
     0
  0
VERTEX
  8
SCANIA_P114_CB_6
 10
-56.8643
 20
-13.3719
 30
0
 70
     0
  0
VERTEX
  8
SCANIA_P114_CB_6
 10
-56.8689
 20
-13.4654
 30
0
 70
     0
  0
SEQEND
  0
POLYLINE
  8
SCANIA_P114_CB_6
  6
CONTINUOUS
 62
     7
 66
     1
 40
0.0139
 41
0.0139
  0
VERTEX
  8
SCANIA_P114_CB_6
 10
-40.1366
 20
58.9243
 30
0
 70
     0
  0
VERTEX
  8
SCANIA_P114_CB_6
 10
5.887
 20
58.9243
 30
0
 70
     0
  0
SEQEND
  0
POLYLINE
  8
SCANIA_P114_CB_6
  6
CONTINUOUS
 62
     7
 66
     1
 40
0.0139
 41
0.0139
  0
VERTEX
  8
SCANIA_P114_CB_6
 10
7.2334
 20
36.1935
 30
0
 70
     0
  0
VERTEX
  8
SCANIA_P114_CB_6
 10
-48.0106
 20
26.6058
 30
0
 70
     0
  0
SEQEND
  0
POLYLINE
  8
SCANIA_P114_CB_6
  6
CONTINUOUS
 62
     7
 66
     1
 40
0.0139
 41
0.0139
  0
VERTEX
  8
SCANIA_P114_CB_6
 10
13.761
 20
51.0474
 30
0
 70
     0
  0
VERTEX
  8
SCANIA_P114_CB_6
 10
13.7513
 20
51.4526
 30
0
 70
     0
  0
VERTEX
  8
SCANIA_P114_CB_6
 10
13.7213
 20
51.8526
 30
0
 70
     0
  0
VERTEX
  8
SCANIA_P114_CB_6
 10
13.6715
 20
52.2468
 30
0
 70
     0
  0
VERTEX
  8
SCANIA_P114_CB_6
 10
13.6026
 20
52.6347
 30
0
 70
     0
  0
VERTEX
  8
SCANIA_P114_CB_6
 10
13.515
 20
53.0158
 30
0
 70
     0
  0
VERTEX
  8
SCANIA_P114_CB_6
 10
13.4091
 20
53.3896
 30
0
 70
     0
  0
VERTEX
  8
SCANIA_P114_CB_6
 10
13.2855
 20
53.7556
 30
0
 70
     0
  0
VERTEX
  8
SCANIA_P114_CB_6
 10
13.1447
 20
54.1134
 30
0
 70
     0
  0
VERTEX
  8
SCANIA_P114_CB_6
 10
12.9872
 20
54.4623
 30
0
 70
     0
  0
VERTEX
  8
SCANIA_P114_CB_6
 10
12.8134
 20
54.8021
 30
0
 70
     0
  0
VERTEX
  8
SCANIA_P114_CB_6
 10
12.6239
 20
55.132
 30
0
 70
     0
  0
VERTEX
  8
SCANIA_P114_CB_6
 10
12.4191
 20
55.4517
 30
0
 70
     0
  0
VERTEX
  8
SCANIA_P114_CB_6
 10
12.1996
 20
55.7606
 30
0
 70
     0
  0
VERTEX
  8
SCANIA_P114_CB_6
 10
11.9659
 20
56.0583
 30
0
 70
     0
  0
VERTEX
  8
SCANIA_P114_CB_6
 10
11.7184
 20
56.3442
 30
0
 70
     0
  0
VERTEX
  8
SCANIA_P114_CB_6
 10
11.4576
 20
56.6178
 30
0
 70
     0
  0
VERTEX
  8
SCANIA_P114_CB_6
 10
11.1841
 20
56.8787
 30
0
 70
     0
  0
VERTEX
  8
SCANIA_P114_CB_6
 10
10.8984
 20
57.1264
 30
0
 70
     0
  0
VERTEX
  8
SCANIA_P114_CB_6
 10
10.6008
 20
57.3603
 30
0
 70
     0
  0
VERTEX
  8
SCANIA_P114_CB_6
 10
10.2921
 20
57.5799
 30
0
 70
     0
  0
VERTEX
  8
SCANIA_P114_CB_6
 10
9.9725
 20
57.7849
 30
0
 70
     0
  0
VERTEX
  8
SCANIA_P114_CB_6
 10
9.6426
 20
57.9746
 30
0
 70
     0
  0
VERTEX
  8
SCANIA_P114_CB_6
 10
9.303
 20
58.1485
 30
0
 70
     0
  0
VERTEX
  8
SCANIA_P114_CB_6
 10
8.9541
 20
58.3063
 30
0
 70
     0
  0
VERTEX
  8
SCANIA_P114_CB_6
 10
8.5965
 20
58.4473
 30
0
 70
     0
  0
VERTEX
  8
SCANIA_P114_CB_6
 10
8.2305
 20
58.5711
 30
0
 70
     0
  0
VERTEX
  8
SCANIA_P114_CB_6
 10
7.8567
 20
58.6771
 30
0
 70
     0
  0
VERTEX
  8
SCANIA_P114_CB_6
 10
7.4757
 20
58.765
 30
0
 70
     0
  0
VERTEX
  8
SCANIA_P114_CB_6
 10
7.0878
 20
58.8341
 30
0
 70
     0
  0
VERTEX
  8
SCANIA_P114_CB_6
 10
6.6937
 20
58.8841
 30
0
 70
     0
  0
VERTEX
  8
SCANIA_P114_CB_6
 10
6.2937
 20
58.9143
 30
0
 70
     0
  0
VERTEX
  8
SCANIA_P114_CB_6
 10
5.8885
 20
58.9243
 30
0
 70
     0
  0
SEQEND
  0
POLYLINE
  8
SCANIA_P114_CB_6
  6
CONTINUOUS
 62
     7
 66
     1
 40
0.0139
 41
0.0139
  0
VERTEX
  8
SCANIA_P114_CB_6
 10
13.761
 20
51.0503
 30
0
 70
     0
  0
VERTEX
  8
SCANIA_P114_CB_6
 10
13.761
 20
43.9515
 30
0
 70
     0
  0
SEQEND
  0
POLYLINE
  8
SCANIA_P114_CB_6
  6
CONTINUOUS
 62
     7
 66
     1
 40
0.0139
 41
0.0139
  0
VERTEX
  8
SCANIA_P114_CB_6
 10
7.2306
 20
36.193
 30
0
 70
     0
  0
VERTEX
  8
SCANIA_P114_CB_6
 10
7.5814
 20
36.2616
 30
0
 70
     0
  0
VERTEX
  8
SCANIA_P114_CB_6
 10
7.9259
 20
36.3452
 30
0
 70
     0
  0
VERTEX
  8
SCANIA_P114_CB_6
 10
8.2638
 20
36.4435
 30
0
 70
     0
  0
VERTEX
  8
SCANIA_P114_CB_6
 10
8.5949
 20
36.556
 30
0
 70
     0
  0
VERTEX
  8
SCANIA_P114_CB_6
 10
8.9187
 20
36.6823
 30
0
 70
     0
  0
VERTEX
  8
SCANIA_P114_CB_6
 10
9.2349
 20
36.8222
 30
0
 70
     0
  0
VERTEX
  8
SCANIA_P114_CB_6
 10
9.5433
 20
36.9752
 30
0
 70
     0
  0
VERTEX
  8
SCANIA_P114_CB_6
 10
9.8435
 20
37.1409
 30
0
 70
     0
  0
VERTEX
  8
SCANIA_P114_CB_6
 10
10.1352
 20
37.3189
 30
0
 70
     0
  0
VERTEX
  8
SCANIA_P114_CB_6
 10
10.4181
 20
37.509
 30
0
 70
     0
  0
VERTEX
  8
SCANIA_P114_CB_6
 10
10.6918
 20
37.7106
 30
0
 70
     0
  0
VERTEX
  8
SCANIA_P114_CB_6
 10
10.956
 20
37.9234
 30
0
 70
     0
  0
VERTEX
  8
SCANIA_P114_CB_6
 10
11.2105
 20
38.1471
 30
0
 70
     0
  0
VERTEX
  8
SCANIA_P114_CB_6
 10
11.4549
 20
38.3812
 30
0
 70
     0
  0
VERTEX
  8
SCANIA_P114_CB_6
 10
11.6888
 20
38.6254
 30
0
 70
     0
  0
VERTEX
  8
SCANIA_P114_CB_6
 10
11.912
 20
38.8793
 30
0
 70
     0
  0
VERTEX
  8
SCANIA_P114_CB_6
 10
12.1241
 20
39.1425
 30
0
 70
     0
  0
VERTEX
  8
SCANIA_P114_CB_6
 10
12.3249
 20
39.4146
 30
0
 70
     0
  0
VERTEX
  8
SCANIA_P114_CB_6
 10
12.5139
 20
39.6953
 30
0
 70
     0
  0
VERTEX
  8
SCANIA_P114_CB_6
 10
12.6909
 20
39.9842
 30
0
 70
     0
  0
VERTEX
  8
SCANIA_P114_CB_6
 10
12.8556
 20
40.2808
 30
0
 70
     0
  0
VERTEX
  8
SCANIA_P114_CB_6
 10
13.0076
 20
40.5849
 30
0
 70
     0
  0
VERTEX
  8
SCANIA_P114_CB_6
 10
13.1466
 20
40.896
 30
0
 70
     0
  0
VERTEX
  8
SCANIA_P114_CB_6
 10
13.2724
 20
41.2138
 30
0
 70
     0
  0
VERTEX
  8
SCANIA_P114_CB_6
 10
13.3845
 20
41.5379
 30
0
 70
     0
  0
VERTEX
  8
SCANIA_P114_CB_6
 10
13.4827
 20
41.8678
 30
0
 70
     0
  0
VERTEX
  8
SCANIA_P114_CB_6
 10
13.5666
 20
42.2033
 30
0
 70
     0
  0
VERTEX
  8
SCANIA_P114_CB_6
 10
13.6359
 20
42.5439
 30
0
 70
     0
  0
VERTEX
  8
SCANIA_P114_CB_6
 10
13.6903
 20
42.8892
 30
0
 70
     0
  0
VERTEX
  8
SCANIA_P114_CB_6
 10
13.7296
 20
43.239
 30
0
 70
     0
  0
VERTEX
  8
SCANIA_P114_CB_6
 10
13.7532
 20
43.5927
 30
0
 70
     0
  0
VERTEX
  8
SCANIA_P114_CB_6
 10
13.761
 20
43.9501
 30
0
 70
     0
  0
SEQEND
  0
POLYLINE
  8
SCANIA_P114_CB_6
  6
CONTINUOUS
 62
     7
 66
     1
 40
0.0139
 41
0.0139
  0
VERTEX
  8
SCANIA_P114_CB_6
 10
-51.4428
 20
27.2314
 30
0
 70
     0
  0
VERTEX
  8
SCANIA_P114_CB_6
 10
-51.4404
 20
27.2958
 30
0
 70
     0
  0
VERTEX
  8
SCANIA_P114_CB_6
 10
-51.4332
 20
27.3599
 30
0
 70
     0
  0
VERTEX
  8
SCANIA_P114_CB_6
 10
-51.4278
 20
27.3918
 30
0
 70
     0
  0
VERTEX
  8
SCANIA_P114_CB_6
 10
-51.4212
 20
27.4236
 30
0
 70
     0
  0
VERTEX
  8
SCANIA_P114_CB_6
 10
-51.4134
 20
27.4553
 30
0
 70
     0
  0
VERTEX
  8
SCANIA_P114_CB_6
 10
-51.4045
 20
27.4867
 30
0
 70
     0
  0
VERTEX
  8
SCANIA_P114_CB_6
 10
-51.3587
 20
27.6078
 30
0
 70
     0
  0
VERTEX
  8
SCANIA_P114_CB_6
 10
-51.2976
 20
27.7223
 30
0
 70
     0
  0
VERTEX
  8
SCANIA_P114_CB_6
 10
-51.224
 20
27.829
 30
0
 70
     0
  0
VERTEX
  8
SCANIA_P114_CB_6
 10
-51.1405
 20
27.927
 30
0
 70
     0
  0
VERTEX
  8
SCANIA_P114_CB_6
 10
-51.0955
 20
27.9731
 30
0
 70
     0
  0
VERTEX
  8
SCANIA_P114_CB_6
 10
-51.0484
 20
28.0174
 30
0
 70
     0
  0
VERTEX
  8
SCANIA_P114_CB_6
 10
-50.9994
 20
28.06
 30
0
 70
     0
  0
VERTEX
  8
SCANIA_P114_CB_6
 10
-50.9489
 20
28.1009
 30
0
 70
     0
  0
VERTEX
  8
SCANIA_P114_CB_6
 10
-50.897
 20
28.1398
 30
0
 70
     0
  0
VERTEX
  8
SCANIA_P114_CB_6
 10
-50.8438
 20
28.1771
 30
0
 70
     0
  0
VERTEX
  8
SCANIA_P114_CB_6
 10
-50.7895
 20
28.2127
 30
0
 70
     0
  0
VERTEX
  8
SCANIA_P114_CB_6
 10
-50.7343
 20
28.2467
 30
0
 70
     0
  0
VERTEX
  8
SCANIA_P114_CB_6
 10
-50.622
 20
28.3097
 30
0
 70
     0
  0
VERTEX
  8
SCANIA_P114_CB_6
 10
-50.5073
 20
28.3668
 30
0
 70
     0
  0
VERTEX
  8
SCANIA_P114_CB_6
 10
-50.3906
 20
28.4188
 30
0
 70
     0
  0
VERTEX
  8
SCANIA_P114_CB_6
 10
-50.2719
 20
28.4661
 30
0
 70
     0
  0
VERTEX
  8
SCANIA_P114_CB_6
 10
-50.1515
 20
28.5092
 30
0
 70
     0
  0
VERTEX
  8
SCANIA_P114_CB_6
 10
-50.0296
 20
28.5484
 30
0
 70
     0
  0
VERTEX
  8
SCANIA_P114_CB_6
 10
-49.968
 20
28.5666
 30
0
 70
     0
  0
VERTEX
  8
SCANIA_P114_CB_6
 10
-49.9062
 20
28.584
 30
0
 70
     0
  0
VERTEX
  8
SCANIA_P114_CB_6
 10
-49.8439
 20
28.6005
 30
0
 70
     0
  0
VERTEX
  8
SCANIA_P114_CB_6
 10
-49.7815
 20
28.6162
 30
0
 70
     0
  0
VERTEX
  8
SCANIA_P114_CB_6
 10
-49.6565
 20
28.6452
 30
0
 70
     0
  0
VERTEX
  8
SCANIA_P114_CB_6
 10
-49.5311
 20
28.6712
 30
0
 70
     0
  0
VERTEX
  8
SCANIA_P114_CB_6
 10
-49.2797
 20
28.715
 30
0
 70
     0
  0
VERTEX
  8
SCANIA_P114_CB_6
 10
-49.0273
 20
28.7491
 30
0
 70
     0
  0
VERTEX
  8
SCANIA_P114_CB_6
 10
-48.7742
 20
28.7746
 30
0
 70
     0
  0
VERTEX
  8
SCANIA_P114_CB_6
 10
-48.5203
 20
28.7923
 30
0
 70
     0
  0
VERTEX
  8
SCANIA_P114_CB_6
 10
-48.2658
 20
28.8028
 30
0
 70
     0
  0
VERTEX
  8
SCANIA_P114_CB_6
 10
-48.0106
 20
28.8062
 30
0
 70
     0
  0
SEQEND
  0
POLYLINE
  8
SCANIA_P114_CB_6
  6
CONTINUOUS
 62
     7
 66
     1
 40
0.0139
 41
0.0139
  0
VERTEX
  8
SCANIA_P114_CB_6
 10
-50.9703
 20
66.8216
 30
0
 70
     0
  0
VERTEX
  8
SCANIA_P114_CB_6
 10
-50.6643
 20
65.8292
 30
0
 70
     0
  0
VERTEX
  8
SCANIA_P114_CB_6
 10
-50.3421
 20
64.8421
 30
0
 70
     0
  0
VERTEX
  8
SCANIA_P114_CB_6
 10
-50.0039
 20
63.8603
 30
0
 70
     0
  0
VERTEX
  8
SCANIA_P114_CB_6
 10
-49.6498
 20
62.8841
 30
0
 70
     0
  0
SEQEND
  0
POLYLINE
  8
SCANIA_P114_CB_6
  6
CONTINUOUS
 62
     7
 66
     1
 40
0.0139
 41
0.0139
  0
VERTEX
  8
SCANIA_P114_CB_6
 10
-52.5585
 20
65.8963
 30
0
 70
     0
  0
VERTEX
  8
SCANIA_P114_CB_6
 10
-52.2264
 20
65.4882
 30
0
 70
     0
  0
VERTEX
  8
SCANIA_P114_CB_6
 10
-51.885
 20
65.0881
 30
0
 70
     0
  0
VERTEX
  8
SCANIA_P114_CB_6
 10
-51.5343
 20
64.6963
 30
0
 70
     0
  0
VERTEX
  8
SCANIA_P114_CB_6
 10
-51.1745
 20
64.3129
 30
0
 70
     0
  0
VERTEX
  8
SCANIA_P114_CB_6
 10
-50.8058
 20
63.9381
 30
0
 70
     0
  0
VERTEX
  8
SCANIA_P114_CB_6
 10
-50.4283
 20
63.5721
 30
0
 70
     0
  0
VERTEX
  8
SCANIA_P114_CB_6
 10
-50.0422
 20
63.2149
 30
0
 70
     0
  0
VERTEX
  8
SCANIA_P114_CB_6
 10
-49.6477
 20
62.8668
 30
0
 70
     0
  0
SEQEND
  0
POLYLINE
  8
SCANIA_P114_CB_6
  6
CONTINUOUS
 62
     7
 66
     1
 40
0.0139
 41
0.0139
  0
VERTEX
  8
SCANIA_P114_CB_6
 10
-53.9161
 20
59.7117
 30
0
 70
     0
  0
VERTEX
  8
SCANIA_P114_CB_6
 10
-53.9161
 20
60.8928
 30
0
 70
     0
  0
SEQEND
  0
POLYLINE
  8
SCANIA_P114_CB_6
  6
CONTINUOUS
 62
     7
 66
     1
 40
0.0139
 41
0.0139
  0
VERTEX
  8
SCANIA_P114_CB_6
 10
-49.9791
 20
60.8928
 30
0
 70
     0
  0
VERTEX
  8
SCANIA_P114_CB_6
 10
-49.9791
 20
59.7117
 30
0
 70
     0
  0
SEQEND
  0
POLYLINE
  8
SCANIA_P114_CB_6
  6
CONTINUOUS
 62
     7
 66
     1
 40
0.0139
 41
0.0139
  0
VERTEX
  8
SCANIA_P114_CB_6
 10
-40.1366
 20
62.8613
 30
0
 70
     0
  0
VERTEX
  8
SCANIA_P114_CB_6
 10
-49.6414
 20
62.8613
 30
0
 70
     0
  0
SEQEND
  0
POLYLINE
  8
SCANIA_P114_CB_6
  6
CONTINUOUS
 62
     7
 66
     1
 40
0.0139
 41
0.0139
  0
VERTEX
  8
SCANIA_P114_CB_6
 10
-52.5533
 20
65.8898
 30
0
 70
     0
  0
VERTEX
  8
SCANIA_P114_CB_6
 10
-52.7158
 20
65.6037
 30
0
 70
     0
  0
VERTEX
  8
SCANIA_P114_CB_6
 10
-52.8683
 20
65.3128
 30
0
 70
     0
  0
VERTEX
  8
SCANIA_P114_CB_6
 10
-53.0108
 20
65.0176
 30
0
 70
     0
  0
VERTEX
  8
SCANIA_P114_CB_6
 10
-53.1432
 20
64.7181
 30
0
 70
     0
  0
VERTEX
  8
SCANIA_P114_CB_6
 10
-53.2654
 20
64.4147
 30
0
 70
     0
  0
VERTEX
  8
SCANIA_P114_CB_6
 10
-53.3773
 20
64.1077
 30
0
 70
     0
  0
VERTEX
  8
SCANIA_P114_CB_6
 10
-53.4789
 20
63.7973
 30
0
 70
     0
  0
VERTEX
  8
SCANIA_P114_CB_6
 10
-53.57
 20
63.4837
 30
0
 70
     0
  0
VERTEX
  8
SCANIA_P114_CB_6
 10
-53.6507
 20
63.1673
 30
0
 70
     0
  0
VERTEX
  8
SCANIA_P114_CB_6
 10
-53.7209
 20
62.8483
 30
0
 70
     0
  0
VERTEX
  8
SCANIA_P114_CB_6
 10
-53.7804
 20
62.5269
 30
0
 70
     0
  0
VERTEX
  8
SCANIA_P114_CB_6
 10
-53.8292
 20
62.2035
 30
0
 70
     0
  0
VERTEX
  8
SCANIA_P114_CB_6
 10
-53.8673
 20
61.8784
 30
0
 70
     0
  0
VERTEX
  8
SCANIA_P114_CB_6
 10
-53.8945
 20
61.5516
 30
0
 70
     0
  0
VERTEX
  8
SCANIA_P114_CB_6
 10
-53.9108
 20
61.2236
 30
0
 70
     0
  0
VERTEX
  8
SCANIA_P114_CB_6
 10
-53.9161
 20
60.8946
 30
0
 70
     0
  0
SEQEND
  0
POLYLINE
  8
SCANIA_P114_CB_6
  6
CONTINUOUS
 62
     7
 66
     1
 40
0.0139
 41
0.0139
  0
VERTEX
  8
SCANIA_P114_CB_6
 10
-49.6414
 20
62.8613
 30
0
 70
     0
  0
VERTEX
  8
SCANIA_P114_CB_6
 10
-49.7202
 20
62.6228
 30
0
 70
     0
  0
VERTEX
  8
SCANIA_P114_CB_6
 10
-49.7887
 20
62.3814
 30
0
 70
     0
  0
VERTEX
  8
SCANIA_P114_CB_6
 10
-49.8468
 20
62.1375
 30
0
 70
     0
  0
VERTEX
  8
SCANIA_P114_CB_6
 10
-49.8945
 20
61.8915
 30
0
 70
     0
  0
VERTEX
  8
SCANIA_P114_CB_6
 10
-49.9316
 20
61.6437
 30
0
 70
     0
  0
VERTEX
  8
SCANIA_P114_CB_6
 10
-49.9581
 20
61.3944
 30
0
 70
     0
  0
VERTEX
  8
SCANIA_P114_CB_6
 10
-49.9739
 20
61.144
 30
0
 70
     0
  0
VERTEX
  8
SCANIA_P114_CB_6
 10
-49.9791
 20
60.8928
 30
0
 70
     0
  0
SEQEND
  0
POLYLINE
  8
SCANIA_P114_CB_6
  6
CONTINUOUS
 62
     7
 66
     1
 40
0.0139
 41
0.0139
  0
VERTEX
  8
SCANIA_P114_CB_6
 10
-49.9791
 20
58.9243
 30
0
 70
     0
  0
VERTEX
  8
SCANIA_P114_CB_6
 10
-53.1287
 20
58.9243
 30
0
 70
     0
  0
SEQEND
  0
POLYLINE
  8
SCANIA_P114_CB_6
  6
CONTINUOUS
 62
     7
 66
     1
 40
0.0139
 41
0.0139
  0
VERTEX
  8
SCANIA_P114_CB_6
 10
-40.1366
 20
65.2723
 30
0
 70
     0
  0
VERTEX
  8
SCANIA_P114_CB_6
 10
-40.1366
 20
62.8613
 30
0
 70
     0
  0
SEQEND
  0
POLYLINE
  8
SCANIA_P114_CB_6
  6
CONTINUOUS
 62
     7
 66
     1
 40
0.0139
 41
0.0139
  0
VERTEX
  8
SCANIA_P114_CB_6
 10
-40.1366
 20
65.2717
 30
0
 70
     0
  0
VERTEX
  8
SCANIA_P114_CB_6
 10
-40.1443
 20
65.4278
 30
0
 70
     0
  0
VERTEX
  8
SCANIA_P114_CB_6
 10
-40.1673
 20
65.5794
 30
0
 70
     0
  0
VERTEX
  8
SCANIA_P114_CB_6
 10
-40.2048
 20
65.7257
 30
0
 70
     0
  0
VERTEX
  8
SCANIA_P114_CB_6
 10
-40.256
 20
65.8659
 30
0
 70
     0
  0
VERTEX
  8
SCANIA_P114_CB_6
 10
-40.3202
 20
65.9994
 30
0
 70
     0
  0
VERTEX
  8
SCANIA_P114_CB_6
 10
-40.3967
 20
66.1253
 30
0
 70
     0
  0
VERTEX
  8
SCANIA_P114_CB_6
 10
-40.4845
 20
66.2429
 30
0
 70
     0
  0
VERTEX
  8
SCANIA_P114_CB_6
 10
-40.583
 20
66.3513
 30
0
 70
     0
  0
VERTEX
  8
SCANIA_P114_CB_6
 10
-40.6914
 20
66.4499
 30
0
 70
     0
  0
VERTEX
  8
SCANIA_P114_CB_6
 10
-40.8089
 20
66.5378
 30
0
 70
     0
  0
VERTEX
  8
SCANIA_P114_CB_6
 10
-40.9347
 20
66.6143
 30
0
 70
     0
  0
VERTEX
  8
SCANIA_P114_CB_6
 10
-41.0682
 20
66.6785
 30
0
 70
     0
  0
VERTEX
  8
SCANIA_P114_CB_6
 10
-41.2084
 20
66.7299
 30
0
 70
     0
  0
VERTEX
  8
SCANIA_P114_CB_6
 10
-41.3547
 20
66.7674
 30
0
 70
     0
  0
VERTEX
  8
SCANIA_P114_CB_6
 10
-41.5063
 20
66.7905
 30
0
 70
     0
  0
VERTEX
  8
SCANIA_P114_CB_6
 10
-41.6623
 20
66.7983
 30
0
 70
     0
  0
SEQEND
  0
POLYLINE
  8
SCANIA_P114_CB_6
  6
CONTINUOUS
 62
     7
 66
     1
 40
0.0139
 41
0.0139
  0
VERTEX
  8
SCANIA_P114_CB_6
 10
-50.9634
 20
66.7983
 30
0
 70
     0
  0
VERTEX
  8
SCANIA_P114_CB_6
 10
-41.6626
 20
66.7983
 30
0
 70
     0
  0
SEQEND
  0
POLYLINE
  8
SCANIA_P114_CB_6
  6
CONTINUOUS
 62
     7
 66
     1
 40
0.0139
 41
0.0139
  0
VERTEX
  8
SCANIA_P114_CB_6
 10
-50.9634
 20
66.7983
 30
0
 70
     0
  0
VERTEX
  8
SCANIA_P114_CB_6
 10
-51.0853
 20
66.7944
 30
0
 70
     0
  0
VERTEX
  8
SCANIA_P114_CB_6
 10
-51.2057
 20
66.7825
 30
0
 70
     0
  0
VERTEX
  8
SCANIA_P114_CB_6
 10
-51.3244
 20
66.7629
 30
0
 70
     0
  0
VERTEX
  8
SCANIA_P114_CB_6
 10
-51.4409
 20
66.7358
 30
0
 70
     0
  0
VERTEX
  8
SCANIA_P114_CB_6
 10
-51.555
 20
66.7013
 30
0
 70
     0
  0
VERTEX
  8
SCANIA_P114_CB_6
 10
-51.6662
 20
66.6596
 30
0
 70
     0
  0
VERTEX
  8
SCANIA_P114_CB_6
 10
-51.7744
 20
66.6109
 30
0
 70
     0
  0
VERTEX
  8
SCANIA_P114_CB_6
 10
-51.8791
 20
66.5555
 30
0
 70
     0
  0
VERTEX
  8
SCANIA_P114_CB_6
 10
-51.9801
 20
66.4934
 30
0
 70
     0
  0
VERTEX
  8
SCANIA_P114_CB_6
 10
-52.0769
 20
66.4249
 30
0
 70
     0
  0
VERTEX
  8
SCANIA_P114_CB_6
 10
-52.1694
 20
66.3502
 30
0
 70
     0
  0
VERTEX
  8
SCANIA_P114_CB_6
 10
-52.257
 20
66.2694
 30
0
 70
     0
  0
VERTEX
  8
SCANIA_P114_CB_6
 10
-52.3396
 20
66.1828
 30
0
 70
     0
  0
VERTEX
  8
SCANIA_P114_CB_6
 10
-52.4167
 20
66.0906
 30
0
 70
     0
  0
VERTEX
  8
SCANIA_P114_CB_6
 10
-52.488
 20
65.9928
 30
0
 70
     0
  0
VERTEX
  8
SCANIA_P114_CB_6
 10
-52.5533
 20
65.8898
 30
0
 70
     0
  0
SEQEND
  0
POLYLINE
  8
SCANIA_P114_CB_6
  6
CONTINUOUS
 62
     7
 66
     1
 40
0.0139
 41
0.0139
  0
VERTEX
  8
SCANIA_P114_CB_6
 10
-53.9161
 20
59.7119
 30
0
 70
     0
  0
VERTEX
  8
SCANIA_P114_CB_6
 10
-53.9121
 20
59.6314
 30
0
 70
     0
  0
VERTEX
  8
SCANIA_P114_CB_6
 10
-53.9003
 20
59.5532
 30
0
 70
     0
  0
VERTEX
  8
SCANIA_P114_CB_6
 10
-53.8809
 20
59.4777
 30
0
 70
     0
  0
VERTEX
  8
SCANIA_P114_CB_6
 10
-53.8545
 20
59.4053
 30
0
 70
     0
  0
VERTEX
  8
SCANIA_P114_CB_6
 10
-53.8213
 20
59.3365
 30
0
 70
     0
  0
VERTEX
  8
SCANIA_P114_CB_6
 10
-53.7819
 20
59.2715
 30
0
 70
     0
  0
VERTEX
  8
SCANIA_P114_CB_6
 10
-53.7366
 20
59.2109
 30
0
 70
     0
  0
VERTEX
  8
SCANIA_P114_CB_6
 10
-53.6858
 20
59.155
 30
0
 70
     0
  0
VERTEX
  8
SCANIA_P114_CB_6
 10
-53.6299
 20
59.1041
 30
0
 70
     0
  0
VERTEX
  8
SCANIA_P114_CB_6
 10
-53.5692
 20
59.0588
 30
0
 70
     0
  0
VERTEX
  8
SCANIA_P114_CB_6
 10
-53.5043
 20
59.0193
 30
0
 70
     0
  0
VERTEX
  8
SCANIA_P114_CB_6
 10
-53.4355
 20
58.9861
 30
0
 70
     0
  0
VERTEX
  8
SCANIA_P114_CB_6
 10
-53.3631
 20
58.9597
 30
0
 70
     0
  0
VERTEX
  8
SCANIA_P114_CB_6
 10
-53.2877
 20
58.9403
 30
0
 70
     0
  0
VERTEX
  8
SCANIA_P114_CB_6
 10
-53.2095
 20
58.9283
 30
0
 70
     0
  0
VERTEX
  8
SCANIA_P114_CB_6
 10
-53.129
 20
58.9243
 30
0
 70
     0
  0
SEQEND
  0
POLYLINE
  8
SCANIA_P114_CB_6
  6
CONTINUOUS
 62
     7
 66
     1
 40
0.0139
 41
0.0139
  0
VERTEX
  8
SCANIA_P114_CB_6
 10
-49.9791
 20
58.9243
 30
0
 70
     0
  0
VERTEX
  8
SCANIA_P114_CB_6
 10
-49.9791
 20
59.7117
 30
0
 70
     0
  0
SEQEND
  0
POLYLINE
  8
SCANIA_P114_CB_6
  6
CONTINUOUS
 62
     7
 66
     1
 40
0.0139
 41
0.0139
  0
VERTEX
  8
SCANIA_P114_CB_6
 10
-40.1366
 20
58.9243
 30
0
 70
     0
  0
VERTEX
  8
SCANIA_P114_CB_6
 10
-49.9791
 20
58.9243
 30
0
 70
     0
  0
SEQEND
  0
POLYLINE
  8
SCANIA_P114_CB_6
  6
CONTINUOUS
 62
     7
 66
     1
 40
0.0139
 41
0.0139
  0
VERTEX
  8
SCANIA_P114_CB_6
 10
34.765
 20
84.633
 30
0
 70
     0
  0
VERTEX
  8
SCANIA_P114_CB_6
 10
39.6862
 20
84.633
 30
0
 70
     0
  0
SEQEND
  0
POLYLINE
  8
SCANIA_P114_CB_6
  6
CONTINUOUS
 62
     7
 66
     1
 40
0.0139
 41
0.0139
  0
VERTEX
  8
SCANIA_P114_CB_6
 10
34.765
 20
9.8298
 30
0
 70
     0
  0
VERTEX
  8
SCANIA_P114_CB_6
 10
39.6862
 20
9.8298
 30
0
 70
     0
  0
SEQEND
  0
POLYLINE
  8
SCANIA_P114_CB_6
  6
CONTINUOUS
 62
     7
 66
     1
 40
0.0139
 41
0.0139
  0
VERTEX
  8
SCANIA_P114_CB_6
 10
32.3044
 20
63.7373
 30
0
 70
     0
  0
VERTEX
  8
SCANIA_P114_CB_6
 10
42.1469
 20
63.7373
 30
0
 70
     0
  0
SEQEND
  0
POLYLINE
  8
SCANIA_P114_CB_6
  6
CONTINUOUS
 62
     7
 66
     1
 40
0.0139
 41
0.0139
  0
VERTEX
  8
SCANIA_P114_CB_6
 10
32.3044
 20
14.7373
 30
0
 70
     0
  0
VERTEX
  8
SCANIA_P114_CB_6
 10
42.1469
 20
14.7373
 30
0
 70
     0
  0
SEQEND
  0
POLYLINE
  8
SCANIA_P114_CB_6
  6
CONTINUOUS
 62
     7
 66
     1
 40
0.0139
 41
0.0139
  0
VERTEX
  8
SCANIA_P114_CB_6
 10
39.6862
 20
1.9558
 30
0
 70
     0
  0
VERTEX
  8
SCANIA_P114_CB_6
 10
34.765
 20
1.9558
 30
0
 70
     0
  0
SEQEND
  0
POLYLINE
  8
SCANIA_P114_CB_6
  6
CONTINUOUS
 62
     7
 66
     1
 40
0.0139
 41
0.0139
  0
VERTEX
  8
SCANIA_P114_CB_6
 10
-48.0106
 20
26.6058
 30
0
 70
     0
  0
VERTEX
  8
SCANIA_P114_CB_6
 10
-51.4428
 20
26.0102
 30
0
 70
     0
  0
SEQEND
  0
POLYLINE
  8
SCANIA_P114_CB_6
  6
CONTINUOUS
 62
     7
 66
     1
 40
0.0139
 41
0.0139
  0
VERTEX
  8
SCANIA_P114_CB_6
 10
39.6862
 20
1.9558
 30
0
 70
     0
  0
VERTEX
  8
SCANIA_P114_CB_6
 10
39.6862
 20
5.8928
 30
0
 70
     0
  0
SEQEND
  0
POLYLINE
  8
SCANIA_P114_CB_6
  6
CONTINUOUS
 62
     7
 66
     1
 40
0.0139
 41
0.0139
  0
VERTEX
  8
SCANIA_P114_CB_6
 10
-48.0106
 20
28.8062
 30
0
 70
     0
  0
VERTEX
  8
SCANIA_P114_CB_6
 10
-47.8046
 20
28.8062
 30
0
 70
     0
  0
SEQEND
  0
POLYLINE
  8
SCANIA_P114_CB_6
  6
CONTINUOUS
 62
     7
 66
     1
 40
0.0139
 41
0.0139
  0
VERTEX
  8
SCANIA_P114_CB_6
 10
-45.0743
 20
58.9243
 30
0
 70
     0
  0
VERTEX
  8
SCANIA_P114_CB_6
 10
-45.3615
 20
57.0542
 30
0
 70
     0
  0
VERTEX
  8
SCANIA_P114_CB_6
 10
-45.6331
 20
55.182
 30
0
 70
     0
  0
VERTEX
  8
SCANIA_P114_CB_6
 10
-45.8893
 20
53.3079
 30
0
 70
     0
  0
VERTEX
  8
SCANIA_P114_CB_6
 10
-46.1299
 20
51.4318
 30
0
 70
     0
  0
VERTEX
  8
SCANIA_P114_CB_6
 10
-46.355
 20
49.5539
 30
0
 70
     0
  0
VERTEX
  8
SCANIA_P114_CB_6
 10
-46.5646
 20
47.6743
 30
0
 70
     0
  0
VERTEX
  8
SCANIA_P114_CB_6
 10
-46.7587
 20
45.7931
 30
0
 70
     0
  0
VERTEX
  8
SCANIA_P114_CB_6
 10
-46.9372
 20
43.9104
 30
0
 70
     0
  0
VERTEX
  8
SCANIA_P114_CB_6
 10
-47.1002
 20
42.0263
 30
0
 70
     0
  0
VERTEX
  8
SCANIA_P114_CB_6
 10
-47.2476
 20
40.1408
 30
0
 70
     0
  0
VERTEX
  8
SCANIA_P114_CB_6
 10
-47.3794
 20
38.2542
 30
0
 70
     0
  0
VERTEX
  8
SCANIA_P114_CB_6
 10
-47.4956
 20
36.3664
 30
0
 70
     0
  0
VERTEX
  8
SCANIA_P114_CB_6
 10
-47.5963
 20
34.4776
 30
0
 70
     0
  0
VERTEX
  8
SCANIA_P114_CB_6
 10
-47.6814
 20
32.5879
 30
0
 70
     0
  0
VERTEX
  8
SCANIA_P114_CB_6
 10
-47.7508
 20
30.6974
 30
0
 70
     0
  0
VERTEX
  8
SCANIA_P114_CB_6
 10
-47.8046
 20
28.8062
 30
0
 70
     0
  0
SEQEND
  0
POLYLINE
  8
SCANIA_P114_CB_6
  6
CONTINUOUS
 62
     7
 66
     1
 40
0.0139
 41
0.0139
  0
VERTEX
  8
SCANIA_P114_CB_6
 10
-51.4428
 20
26.0102
 30
0
 70
     0
  0
VERTEX
  8
SCANIA_P114_CB_6
 10
-51.4428
 20
27.2314
 30
0
 70
     0
  0
SEQEND
  0
POLYLINE
  8
SCANIA_P114_CB_6
  6
CONTINUOUS
 62
     7
 66
     1
 40
0.0139
 41
0.0139
  0
VERTEX
  8
SCANIA_P114_CB_6
 10
34.765
 20
9.8298
 30
0
 70
     0
  0
VERTEX
  8
SCANIA_P114_CB_6
 10
34.765
 20
5.8928
 30
0
 70
     0
  0
SEQEND
  0
POLYLINE
  8
SCANIA_P114_CB_6
  6
CONTINUOUS
 62
     7
 66
     1
 40
0.0139
 41
0.0139
  0
VERTEX
  8
SCANIA_P114_CB_6
 10
-55.8846
 20
-10.5639
 30
0
 70
     0
  0
VERTEX
  8
SCANIA_P114_CB_6
 10
-55.884
 20
-10.5295
 30
0
 70
     0
  0
SEQEND
  0
POLYLINE
  8
SCANIA_P114_CB_6
  6
CONTINUOUS
 62
     7
 66
     1
 40
0.0139
 41
0.0139
  0
VERTEX
  8
SCANIA_P114_CB_6
 10
-55.884
 20
-10.5295
 30
0
 70
     0
  0
VERTEX
  8
SCANIA_P114_CB_6
 10
-55.2412
 20
26.2987
 30
0
 70
     0
  0
SEQEND
  0
POLYLINE
  8
SCANIA_P114_CB_6
  6
CONTINUOUS
 62
     7
 66
     1
 40
0.0139
 41
0.0139
  0
VERTEX
  8
SCANIA_P114_CB_6
 10
-52.2889
 20
29.1999
 30
0
 70
     0
  0
VERTEX
  8
SCANIA_P114_CB_6
 10
-52.439
 20
29.1963
 30
0
 70
     0
  0
VERTEX
  8
SCANIA_P114_CB_6
 10
-52.5872
 20
29.1852
 30
0
 70
     0
  0
VERTEX
  8
SCANIA_P114_CB_6
 10
-52.7333
 20
29.167
 30
0
 70
     0
  0
VERTEX
  8
SCANIA_P114_CB_6
 10
-52.8771
 20
29.1417
 30
0
 70
     0
  0
VERTEX
  8
SCANIA_P114_CB_6
 10
-53.0184
 20
29.1095
 30
0
 70
     0
  0
VERTEX
  8
SCANIA_P114_CB_6
 10
-53.1571
 20
29.0706
 30
0
 70
     0
  0
VERTEX
  8
SCANIA_P114_CB_6
 10
-53.293
 20
29.0253
 30
0
 70
     0
  0
VERTEX
  8
SCANIA_P114_CB_6
 10
-53.4259
 20
28.9736
 30
0
 70
     0
  0
VERTEX
  8
SCANIA_P114_CB_6
 10
-53.5556
 20
28.9158
 30
0
 70
     0
  0
VERTEX
  8
SCANIA_P114_CB_6
 10
-53.6819
 20
28.8519
 30
0
 70
     0
  0
VERTEX
  8
SCANIA_P114_CB_6
 10
-53.8047
 20
28.7823
 30
0
 70
     0
  0
VERTEX
  8
SCANIA_P114_CB_6
 10
-53.9237
 20
28.7071
 30
0
 70
     0
  0
VERTEX
  8
SCANIA_P114_CB_6
 10
-54.0389
 20
28.6265
 30
0
 70
     0
  0
VERTEX
  8
SCANIA_P114_CB_6
 10
-54.1499
 20
28.5406
 30
0
 70
     0
  0
VERTEX
  8
SCANIA_P114_CB_6
 10
-54.2567
 20
28.4496
 30
0
 70
     0
  0
VERTEX
  8
SCANIA_P114_CB_6
 10
-54.359
 20
28.3537
 30
0
 70
     0
  0
VERTEX
  8
SCANIA_P114_CB_6
 10
-54.4566
 20
28.2531
 30
0
 70
     0
  0
VERTEX
  8
SCANIA_P114_CB_6
 10
-54.5495
 20
28.1479
 30
0
 70
     0
  0
VERTEX
  8
SCANIA_P114_CB_6
 10
-54.6373
 20
28.0384
 30
0
 70
     0
  0
VERTEX
  8
SCANIA_P114_CB_6
 10
-54.72
 20
27.9247
 30
0
 70
     0
  0
VERTEX
  8
SCANIA_P114_CB_6
 10
-54.7972
 20
27.807
 30
0
 70
     0
  0
VERTEX
  8
SCANIA_P114_CB_6
 10
-54.869
 20
27.6854
 30
0
 70
     0
  0
VERTEX
  8
SCANIA_P114_CB_6
 10
-54.935
 20
27.5602
 30
0
 70
     0
  0
VERTEX
  8
SCANIA_P114_CB_6
 10
-54.9951
 20
27.4316
 30
0
 70
     0
  0
VERTEX
  8
SCANIA_P114_CB_6
 10
-55.0491
 20
27.2996
 30
0
 70
     0
  0
VERTEX
  8
SCANIA_P114_CB_6
 10
-55.0968
 20
27.1645
 30
0
 70
     0
  0
VERTEX
  8
SCANIA_P114_CB_6
 10
-55.1381
 20
27.0265
 30
0
 70
     0
  0
VERTEX
  8
SCANIA_P114_CB_6
 10
-55.1727
 20
26.8858
 30
0
 70
     0
  0
VERTEX
  8
SCANIA_P114_CB_6
 10
-55.2005
 20
26.7424
 30
0
 70
     0
  0
VERTEX
  8
SCANIA_P114_CB_6
 10
-55.2213
 20
26.5967
 30
0
 70
     0
  0
VERTEX
  8
SCANIA_P114_CB_6
 10
-55.2349
 20
26.4487
 30
0
 70
     0
  0
VERTEX
  8
SCANIA_P114_CB_6
 10
-55.2412
 20
26.2987
 30
0
 70
     0
  0
SEQEND
  0
POLYLINE
  8
SCANIA_P114_CB_6
  6
CONTINUOUS
 62
     7
 66
     1
 40
0.0139
 41
0.0139
  0
VERTEX
  8
SCANIA_P114_CB_6
 10
-52.2889
 20
29.1999
 30
0
 70
     0
  0
VERTEX
  8
SCANIA_P114_CB_6
 10
-49.9049
 20
29.1999
 30
0
 70
     0
  0
SEQEND
  0
POLYLINE
  8
SCANIA_P114_CB_6
  6
CONTINUOUS
 62
     7
 66
     1
 40
0.0139
 41
0.0139
  0
VERTEX
  8
SCANIA_P114_CB_6
 10
-48.0106
 20
28.8794
 30
0
 70
     0
  0
VERTEX
  8
SCANIA_P114_CB_6
 10
-48.2406
 20
28.9531
 30
0
 70
     0
  0
VERTEX
  8
SCANIA_P114_CB_6
 10
-48.4732
 20
29.0173
 30
0
 70
     0
  0
VERTEX
  8
SCANIA_P114_CB_6
 10
-48.708
 20
29.0719
 30
0
 70
     0
  0
VERTEX
  8
SCANIA_P114_CB_6
 10
-48.9447
 20
29.1169
 30
0
 70
     0
  0
VERTEX
  8
SCANIA_P114_CB_6
 10
-49.183
 20
29.1523
 30
0
 70
     0
  0
VERTEX
  8
SCANIA_P114_CB_6
 10
-49.4227
 20
29.1779
 30
0
 70
     0
  0
VERTEX
  8
SCANIA_P114_CB_6
 10
-49.6635
 20
29.1938
 30
0
 70
     0
  0
VERTEX
  8
SCANIA_P114_CB_6
 10
-49.9049
 20
29.1999
 30
0
 70
     0
  0
SEQEND
  0
POLYLINE
  8
SCANIA_P114_CB_6
  6
CONTINUOUS
 62
     7
 66
     1
 40
0.0139
 41
0.0139
  0
VERTEX
  8
SCANIA_P114_CB_6
 10
-53.715
 20
27.2314
 30
0
 70
     0
  0
VERTEX
  8
SCANIA_P114_CB_6
 10
-53.8267
 20
27.2278
 30
0
 70
     0
  0
VERTEX
  8
SCANIA_P114_CB_6
 10
-53.9351
 20
27.2174
 30
0
 70
     0
  0
VERTEX
  8
SCANIA_P114_CB_6
 10
-54.0404
 20
27.2007
 30
0
 70
     0
  0
VERTEX
  8
SCANIA_P114_CB_6
 10
-54.1424
 20
27.1777
 30
0
 70
     0
  0
VERTEX
  8
SCANIA_P114_CB_6
 10
-54.2414
 20
27.1488
 30
0
 70
     0
  0
VERTEX
  8
SCANIA_P114_CB_6
 10
-54.3373
 20
27.1137
 30
0
 70
     0
  0
VERTEX
  8
SCANIA_P114_CB_6
 10
-54.3841
 20
27.0939
 30
0
 70
     0
  0
VERTEX
  8
SCANIA_P114_CB_6
 10
-54.4301
 20
27.0724
 30
0
 70
     0
  0
VERTEX
  8
SCANIA_P114_CB_6
 10
-54.4754
 20
27.0493
 30
0
 70
     0
  0
VERTEX
  8
SCANIA_P114_CB_6
 10
-54.5198
 20
27.0246
 30
0
 70
     0
  0
VERTEX
  8
SCANIA_P114_CB_6
 10
-54.6057
 20
26.97
 30
0
 70
     0
  0
VERTEX
  8
SCANIA_P114_CB_6
 10
-54.6875
 20
26.908
 30
0
 70
     0
  0
VERTEX
  8
SCANIA_P114_CB_6
 10
-54.7268
 20
26.8739
 30
0
 70
     0
  0
VERTEX
  8
SCANIA_P114_CB_6
 10
-54.7649
 20
26.8377
 30
0
 70
     0
  0
VERTEX
  8
SCANIA_P114_CB_6
 10
-54.8016
 20
26.799
 30
0
 70
     0
  0
VERTEX
  8
SCANIA_P114_CB_6
 10
-54.837
 20
26.7576
 30
0
 70
     0
  0
VERTEX
  8
SCANIA_P114_CB_6
 10
-54.871
 20
26.7131
 30
0
 70
     0
  0
VERTEX
  8
SCANIA_P114_CB_6
 10
-54.9033
 20
26.6648
 30
0
 70
     0
  0
VERTEX
  8
SCANIA_P114_CB_6
 10
-54.9188
 20
26.639
 30
0
 70
     0
  0
VERTEX
  8
SCANIA_P114_CB_6
 10
-54.9338
 20
26.6121
 30
0
 70
     0
  0
VERTEX
  8
SCANIA_P114_CB_6
 10
-54.948
 20
26.584
 30
0
 70
     0
  0
VERTEX
  8
SCANIA_P114_CB_6
 10
-54.9616
 20
26.5546
 30
0
 70
     0
  0
VERTEX
  8
SCANIA_P114_CB_6
 10
-54.9681
 20
26.5394
 30
0
 70
     0
  0
VERTEX
  8
SCANIA_P114_CB_6
 10
-54.9744
 20
26.5238
 30
0
 70
     0
  0
VERTEX
  8
SCANIA_P114_CB_6
 10
-54.9805
 20
26.5077
 30
0
 70
     0
  0
VERTEX
  8
SCANIA_P114_CB_6
 10
-54.9863
 20
26.4913
 30
0
 70
     0
  0
VERTEX
  8
SCANIA_P114_CB_6
 10
-54.997
 20
26.4573
 30
0
 70
     0
  0
VERTEX
  8
SCANIA_P114_CB_6
 10
-55.0065
 20
26.4219
 30
0
 70
     0
  0
VERTEX
  8
SCANIA_P114_CB_6
 10
-55.0106
 20
26.4035
 30
0
 70
     0
  0
VERTEX
  8
SCANIA_P114_CB_6
 10
-55.0144
 20
26.3846
 30
0
 70
     0
  0
VERTEX
  8
SCANIA_P114_CB_6
 10
-55.0178
 20
26.3652
 30
0
 70
     0
  0
VERTEX
  8
SCANIA_P114_CB_6
 10
-55.0207
 20
26.3455
 30
0
 70
     0
  0
VERTEX
  8
SCANIA_P114_CB_6
 10
-55.025
 20
26.3054
 30
0
 70
     0
  0
VERTEX
  8
SCANIA_P114_CB_6
 10
-55.0271
 20
26.2643
 30
0
 70
     0
  0
SEQEND
  0
POLYLINE
  8
SCANIA_P114_CB_6
  6
CONTINUOUS
 62
     7
 66
     1
 40
0.0139
 41
0.0139
  0
VERTEX
  8
SCANIA_P114_CB_6
 10
-55.0271
 20
26.2643
 30
0
 70
     0
  0
VERTEX
  8
SCANIA_P114_CB_6
 10
-55.8842
 20
-10.5639
 30
0
 70
     0
  0
SEQEND
  0
POLYLINE
  8
SCANIA_P114_CB_6
  6
CONTINUOUS
 62
     7
 66
     1
 40
0.0139
 41
0.0139
  0
VERTEX
  8
SCANIA_P114_CB_6
 10
-51.4428
 20
27.2314
 30
0
 70
     0
  0
VERTEX
  8
SCANIA_P114_CB_6
 10
-53.715
 20
27.2314
 30
0
 70
     0
  0
SEQEND
  0
POLYLINE
  8
SCANIA_P114_CB_6
  6
CONTINUOUS
 62
     7
 66
     1
 40
0.0139
 41
0.0139
  0
VERTEX
  8
SCANIA_P114_CB_6
 10
-55.964
 20
-12.5324
 30
0
 70
     0
  0
VERTEX
  8
SCANIA_P114_CB_6
 10
-55.9644
 20
-12.5082
 30
0
 70
     0
  0
VERTEX
  8
SCANIA_P114_CB_6
 10
-55.9647
 20
-12.4838
 30
0
 70
     0
  0
VERTEX
  8
SCANIA_P114_CB_6
 10
-55.9651
 20
-12.4595
 30
0
 70
     0
  0
VERTEX
  8
SCANIA_P114_CB_6
 10
-55.9655
 20
-12.4353
 30
0
 70
     0
  0
VERTEX
  8
SCANIA_P114_CB_6
 10
-55.9662
 20
-12.3869
 30
0
 70
     0
  0
VERTEX
  8
SCANIA_P114_CB_6
 10
-55.9668
 20
-12.3386
 30
0
 70
     0
  0
VERTEX
  8
SCANIA_P114_CB_6
 10
-55.9682
 20
-12.2424
 30
0
 70
     0
  0
VERTEX
  8
SCANIA_P114_CB_6
 10
-55.9694
 20
-12.1467
 30
0
 70
     0
  0
VERTEX
  8
SCANIA_P114_CB_6
 10
-55.97
 20
-12.0991
 30
0
 70
     0
  0
VERTEX
  8
SCANIA_P114_CB_6
 10
-55.9706
 20
-12.0518
 30
0
 70
     0
  0
VERTEX
  8
SCANIA_P114_CB_6
 10
-55.9712
 20
-12.005
 30
0
 70
     0
  0
VERTEX
  8
SCANIA_P114_CB_6
 10
-55.9718
 20
-11.9586
 30
0
 70
     0
  0
VERTEX
  8
SCANIA_P114_CB_6
 10
-55.9729
 20
-11.8672
 30
0
 70
     0
  0
VERTEX
  8
SCANIA_P114_CB_6
 10
-55.9739
 20
-11.7775
 30
0
 70
     0
  0
VERTEX
  8
SCANIA_P114_CB_6
 10
-55.9749
 20
-11.6897
 30
0
 70
     0
  0
VERTEX
  8
SCANIA_P114_CB_6
 10
-55.9758
 20
-11.6036
 30
0
 70
     0
  0
VERTEX
  8
SCANIA_P114_CB_6
 10
-55.9763
 20
-11.5612
 30
0
 70
     0
  0
VERTEX
  8
SCANIA_P114_CB_6
 10
-55.9768
 20
-11.5193
 30
0
 70
     0
  0
VERTEX
  8
SCANIA_P114_CB_6
 10
-55.9772
 20
-11.4779
 30
0
 70
     0
  0
VERTEX
  8
SCANIA_P114_CB_6
 10
-55.9776
 20
-11.4372
 30
0
 70
     0
  0
VERTEX
  8
SCANIA_P114_CB_6
 10
-55.9792
 20
-11.2823
 30
0
 70
     0
  0
VERTEX
  8
SCANIA_P114_CB_6
 10
-55.9806
 20
-11.14
 30
0
 70
     0
  0
VERTEX
  8
SCANIA_P114_CB_6
 10
-55.9813
 20
-11.0735
 30
0
 70
     0
  0
VERTEX
  8
SCANIA_P114_CB_6
 10
-55.9819
 20
-11.0102
 30
0
 70
     0
  0
VERTEX
  8
SCANIA_P114_CB_6
 10
-55.9822
 20
-10.9798
 30
0
 70
     0
  0
VERTEX
  8
SCANIA_P114_CB_6
 10
-55.9824
 20
-10.9504
 30
0
 70
     0
  0
VERTEX
  8
SCANIA_P114_CB_6
 10
-55.9827
 20
-10.9221
 30
0
 70
     0
  0
VERTEX
  8
SCANIA_P114_CB_6
 10
-55.9829
 20
-10.8948
 30
0
 70
     0
  0
VERTEX
  8
SCANIA_P114_CB_6
 10
-55.9839
 20
-10.796
 30
0
 70
     0
  0
VERTEX
  8
SCANIA_P114_CB_6
 10
-55.9846
 20
-10.7137
 30
0
 70
     0
  0
VERTEX
  8
SCANIA_P114_CB_6
 10
-55.9848
 20
-10.6957
 30
0
 70
     0
  0
VERTEX
  8
SCANIA_P114_CB_6
 10
-55.9849
 20
-10.6788
 30
0
 70
     0
  0
VERTEX
  8
SCANIA_P114_CB_6
 10
-55.985
 20
-10.663
 30
0
 70
     0
  0
VERTEX
  8
SCANIA_P114_CB_6
 10
-55.9852
 20
-10.6484
 30
0
 70
     0
  0
VERTEX
  8
SCANIA_P114_CB_6
 10
-55.9854
 20
-10.6226
 30
0
 70
     0
  0
VERTEX
  8
SCANIA_P114_CB_6
 10
-55.9856
 20
-10.6016
 30
0
 70
     0
  0
VERTEX
  8
SCANIA_P114_CB_6
 10
-55.9858
 20
-10.5734
 30
0
 70
     0
  0
VERTEX
  8
SCANIA_P114_CB_6
 10
-55.9859
 20
-10.5639
 30
0
 70
     0
  0
SEQEND
  0
POLYLINE
  8
SCANIA_P114_CB_6
  6
CONTINUOUS
 62
     7
 66
     1
 40
0.0139
 41
0.0139
  0
VERTEX
  8
SCANIA_P114_CB_6
 10
-56.8689
 20
-16.8631
 30
0
 70
     0
  0
VERTEX
  8
SCANIA_P114_CB_6
 10
-58.8374
 20
-16.8631
 30
0
 70
     0
  0
SEQEND
  0
POLYLINE
  8
SCANIA_P114_CB_6
  6
CONTINUOUS
 62
     7
 66
     1
 40
0.0139
 41
0.0139
  0
VERTEX
  8
SCANIA_P114_CB_6
 10
-54.9004
 20
-18.8316
 30
0
 70
     0
  0
VERTEX
  8
SCANIA_P114_CB_6
 10
-54.9004
 20
-20.8001
 30
0
 70
     0
  0
SEQEND
  0
POLYLINE
  8
SCANIA_P114_CB_6
  6
CONTINUOUS
 62
     7
 66
     1
 40
0.0139
 41
0.0139
  0
VERTEX
  8
SCANIA_P114_CB_6
 10
-56.8689
 20
-13.4655
 30
0
 70
     0
  0
VERTEX
  8
SCANIA_P114_CB_6
 10
-58.8374
 20
-13.4655
 30
0
 70
     0
  0
SEQEND
  0
POLYLINE
  8
SCANIA_P114_CB_6
  6
CONTINUOUS
 62
     7
 66
     1
 40
0.0139
 41
0.0139
  0
VERTEX
  8
SCANIA_P114_CB_6
 10
18.2172
 20
1.1684
 30
0
 70
     0
  0
VERTEX
  8
SCANIA_P114_CB_6
 10
24.4456
 20
7.3968
 30
0
 70
     0
  0
SEQEND
  0
POLYLINE
  8
SCANIA_P114_CB_6
  6
CONTINUOUS
 62
     7
 66
     1
 40
0.0139
 41
0.0139
  0
VERTEX
  8
SCANIA_P114_CB_6
 10
42.1469
 20
14.7373
 30
0
 70
     0
  0
VERTEX
  8
SCANIA_P114_CB_6
 10
42.1469
 20
63.7373
 30
0
 70
     0
  0
SEQEND
  0
POLYLINE
  8
SCANIA_P114_CB_6
  6
CONTINUOUS
 62
     7
 66
     1
 40
0.0139
 41
0.0139
  0
VERTEX
  8
SCANIA_P114_CB_6
 10
14.94
 20
-0.0127
 30
0
 70
     0
  0
VERTEX
  8
SCANIA_P114_CB_6
 10
0.0209
 20
-0.0127
 30
0
 70
     0
  0
SEQEND
  0
POLYLINE
  8
SCANIA_P114_CB_6
  6
CONTINUOUS
 62
     7
 66
     1
 40
0.0139
 41
0.0139
  0
VERTEX
  8
SCANIA_P114_CB_6
 10
-43.6424
 20
66.7983
 30
0
 70
     0
  0
VERTEX
  8
SCANIA_P114_CB_6
 10
-43.7568
 20
67.055
 30
0
 70
     0
  0
VERTEX
  8
SCANIA_P114_CB_6
 10
-43.8659
 20
67.2999
 30
0
 70
     0
  0
VERTEX
  8
SCANIA_P114_CB_6
 10
-43.9185
 20
67.4178
 30
0
 70
     0
  0
VERTEX
  8
SCANIA_P114_CB_6
 10
-43.9696
 20
67.5328
 30
0
 70
     0
  0
VERTEX
  8
SCANIA_P114_CB_6
 10
-43.9947
 20
67.5891
 30
0
 70
     0
  0
VERTEX
  8
SCANIA_P114_CB_6
 10
-44.0194
 20
67.6445
 30
0
 70
     0
  0
VERTEX
  8
SCANIA_P114_CB_6
 10
-44.0436
 20
67.6989
 30
0
 70
     0
  0
VERTEX
  8
SCANIA_P114_CB_6
 10
-44.0673
 20
67.7522
 30
0
 70
     0
  0
VERTEX
  8
SCANIA_P114_CB_6
 10
-44.158
 20
67.9559
 30
0
 70
     0
  0
VERTEX
  8
SCANIA_P114_CB_6
 10
-44.2415
 20
68.1436
 30
0
 70
     0
  0
VERTEX
  8
SCANIA_P114_CB_6
 10
-44.3179
 20
68.3155
 30
0
 70
     0
  0
VERTEX
  8
SCANIA_P114_CB_6
 10
-44.3872
 20
68.4713
 30
0
 70
     0
  0
VERTEX
  8
SCANIA_P114_CB_6
 10
-44.4192
 20
68.5432
 30
0
 70
     0
  0
VERTEX
  8
SCANIA_P114_CB_6
 10
-44.4493
 20
68.6109
 30
0
 70
     0
  0
VERTEX
  8
SCANIA_P114_CB_6
 10
-44.4636
 20
68.6432
 30
0
 70
     0
  0
VERTEX
  8
SCANIA_P114_CB_6
 10
-44.4775
 20
68.6744
 30
0
 70
     0
  0
VERTEX
  8
SCANIA_P114_CB_6
 10
-44.4909
 20
68.7046
 30
0
 70
     0
  0
VERTEX
  8
SCANIA_P114_CB_6
 10
-44.5038
 20
68.7335
 30
0
 70
     0
  0
VERTEX
  8
SCANIA_P114_CB_6
 10
-44.55
 20
68.8375
 30
0
 70
     0
  0
VERTEX
  8
SCANIA_P114_CB_6
 10
-44.5878
 20
68.9227
 30
0
 70
     0
  0
VERTEX
  8
SCANIA_P114_CB_6
 10
-44.6174
 20
68.9892
 30
0
 70
     0
  0
VERTEX
  8
SCANIA_P114_CB_6
 10
-44.6386
 20
69.037
 30
0
 70
     0
  0
VERTEX
  8
SCANIA_P114_CB_6
 10
-44.6515
 20
69.066
 30
0
 70
     0
  0
VERTEX
  8
SCANIA_P114_CB_6
 10
-44.6558
 20
69.0757
 30
0
 70
     0
  0
SEQEND
  0
POLYLINE
  8
SCANIA_P114_CB_6
  6
CONTINUOUS
 62
     7
 66
     1
 40
0.0139
 41
0.0139
  0
VERTEX
  8
SCANIA_P114_CB_6
 10
19.8214
 20
60.2517
 30
0
 70
     0
  0
VERTEX
  8
SCANIA_P114_CB_6
 10
27.6654
 20
60.938
 30
0
 70
     0
  0
SEQEND
  0
POLYLINE
  8
SCANIA_P114_CB_6
  6
CONTINUOUS
 62
     7
 66
     1
 40
0.0139
 41
0.0139
  0
VERTEX
  8
SCANIA_P114_CB_6
 10
-49.9791
 20
60.8928
 30
0
 70
     0
  0
VERTEX
  8
SCANIA_P114_CB_6
 10
-53.9161
 20
60.8928
 30
0
 70
     0
  0
SEQEND
  0
POLYLINE
  8
SCANIA_P114_CB_6
  6
CONTINUOUS
 62
     7
 66
     1
 40
0.0139
 41
0.0139
  0
VERTEX
  8
SCANIA_P114_CB_6
 10
34.765
 20
5.8928
 30
0
 70
     0
  0
VERTEX
  8
SCANIA_P114_CB_6
 10
34.765
 20
1.9558
 30
0
 70
     0
  0
SEQEND
  0
POLYLINE
  8
SCANIA_P114_CB_6
  6
CONTINUOUS
 62
     7
 66
     1
 40
0.0139
 41
0.0139
  0
VERTEX
  8
SCANIA_P114_CB_6
 10
39.6862
 20
5.8928
 30
0
 70
     0
  0
VERTEX
  8
SCANIA_P114_CB_6
 10
39.6862
 20
9.8298
 30
0
 70
     0
  0
SEQEND
  0
POLYLINE
  8
SCANIA_P114_CB_6
  6
CONTINUOUS
 62
     7
 66
     1
 40
0.0139
 41
0.0139
  0
VERTEX
  8
SCANIA_P114_CB_6
 10
32.3044
 20
63.7373
 30
0
 70
     0
  0
VERTEX
  8
SCANIA_P114_CB_6
 10
32.3044
 20
14.7373
 30
0
 70
     0
  0
SEQEND
  0
ENDSEC
  0
EOF
