  0
SECTION
  2
HEADER
  9
$ACADVER
  1
AC1006
  9
$AXISMODE
 70
     0
  9
$AXISUNIT
 10
0.125
 20
0.125
  9
$CECOLOR
 62
0
  9
$CELTYPE
  6
CONTINUOUS
  9
$CLAYER
  8
0
  9
$EXTMIN
 10
0
 20
0
  9
$EXTMAX
 10
34.6667
 20
22.4306
  9
$LIMMIN
 10
0
 20
0
  9
$LIMMAX
 10
34.6667
 20
22.4306
  9
$GRIDMODE
 70
     0
  9
$GRIDUNIT
 10
0.125
 20
0.125
  9
$MIRRTEXT
 70
     1
  9
$SNAPMODE
 70
     1
  9
$SNAPUNIT
 10
0.125
 20
0
  9
$SNAPSTYLE
 70
     0
  9
$SPLINESEGS
 70
     8
  9
$SPLINETYPE
 70
     6
  0
ENDSEC
  0
SECTION
  2
TABLES
  0
TABLE
  2
LTYPE
 70
     1
  0
LTYPE
  2
CONTINUOUS
 70
    64
  3
Descriptive Text
 72
    65
 73
     0
 40
0
  0
ENDTAB
  0
TABLE
  2
LAYER
 70
     2
  0
LAYER
  2
0
 70
     0
 62
     7
  6
CONTINUOUS
  0
LAYER
  2
VOLVO_FM10__WB_3
 70
     0
 62
     7
  6
CONTINUOUS
  0
ENDTAB
  0
TABLE
  2
STYLE
 70
     1
  0
STYLE
  2
STANDARD
 70
    64
 40
0.0
 41
1.0
 50
0.0
 71
     0
 42
0.2
  3
txt
  4

  0
STYLE
  2
ARIAL
 70
    64
 40
0.0
 41
1.0
 50
0.0
 71
     0
 42
0.2
  3
arial
  4

  0
ENDTAB
  0
TABLE
  2
VIEW
 70
     0
  0
ENDTAB
  0
TABLE
  2
USC
 70
     0
  0
ENDTAB
  0
TABLE
  2
DWGMGR
 70
     0
  0
ENDTAB
  0
ENDSEC
  0
SECTION
  2
BLOCKS
  0
ENDSEC
  0
SECTION
  2
ENTITIES
  0
POLYLINE
  8
VOLVO_FM10__WB_3
  6
CONTINUOUS
 62
     7
 66
     1
 40
0.0139
 41
0.0139
  0
VERTEX
  8
VOLVO_FM10__WB_3
 10
29.7749
 20
25.6184
 30
0
 70
     0
  0
VERTEX
  8
VOLVO_FM10__WB_3
 10
4.1015
 20
29.286
 30
0
 70
     0
  0
SEQEND
  0
POLYLINE
  8
VOLVO_FM10__WB_3
  6
CONTINUOUS
 62
     7
 66
     1
 40
0.0139
 41
0.0139
  0
VERTEX
  8
VOLVO_FM10__WB_3
 10
24.343
 20
49.3726
 30
0
 70
     0
  0
VERTEX
  8
VOLVO_FM10__WB_3
 10
29.6983
 20
37.2449
 30
0
 70
     0
  0
SEQEND
  0
POLYLINE
  8
VOLVO_FM10__WB_3
  6
CONTINUOUS
 62
     7
 66
     1
 40
0.0139
 41
0.0139
  0
VERTEX
  8
VOLVO_FM10__WB_3
 10
-115.4856
 20
-11.8163
 30
0
 70
     0
  0
VERTEX
  8
VOLVO_FM10__WB_3
 10
-21.6586
 20
-11.8163
 30
0
 70
     0
  0
SEQEND
  0
POLYLINE
  8
VOLVO_FM10__WB_3
  6
CONTINUOUS
 62
     7
 66
     1
 40
0.0139
 41
0.0139
  0
VERTEX
  8
VOLVO_FM10__WB_3
 10
-20.5264
 20
-11.8163
 30
0
 70
     0
  0
VERTEX
  8
VOLVO_FM10__WB_3
 10
-17.7013
 20
-11.8163
 30
0
 70
     0
  0
SEQEND
  0
POLYLINE
  8
VOLVO_FM10__WB_3
  6
CONTINUOUS
 62
     7
 66
     1
 40
0.0139
 41
0.0139
  0
VERTEX
  8
VOLVO_FM10__WB_3
 10
-165.3055
 20
-0.0053
 30
0
 70
     0
  0
VERTEX
  8
VOLVO_FM10__WB_3
 10
-17.2736
 20
-0.0053
 30
0
 70
     0
  0
SEQEND
  0
POLYLINE
  8
VOLVO_FM10__WB_3
  6
CONTINUOUS
 62
     7
 66
     1
 40
0.0139
 41
0.0139
  0
VERTEX
  8
VOLVO_FM10__WB_3
 10
36.6116
 20
33.9894
 30
0
 70
     0
  0
VERTEX
  8
VOLVO_FM10__WB_3
 10
33.9896
 20
40.0084
 30
0
 70
     0
  0
SEQEND
  0
POLYLINE
  8
VOLVO_FM10__WB_3
  6
CONTINUOUS
 62
     7
 66
     1
 40
0.0139
 41
0.0139
  0
VERTEX
  8
VOLVO_FM10__WB_3
 10
31.2858
 20
46.2152
 30
0
 70
     0
  0
VERTEX
  8
VOLVO_FM10__WB_3
 10
29.4683
 20
50.3872
 30
0
 70
     0
  0
SEQEND
  0
POLYLINE
  8
VOLVO_FM10__WB_3
  6
CONTINUOUS
 62
     7
 66
     1
 40
0.0139
 41
0.0139
  0
VERTEX
  8
VOLVO_FM10__WB_3
 10
-11.3681
 20
-2.2975
 30
0
 70
     0
  0
VERTEX
  8
VOLVO_FM10__WB_3
 10
-11.3681
 20
-5.4492
 30
0
 70
     0
  0
SEQEND
  0
POLYLINE
  8
VOLVO_FM10__WB_3
  6
CONTINUOUS
 62
     7
 66
     1
 40
0.0139
 41
0.0139
  0
VERTEX
  8
VOLVO_FM10__WB_3
 10
-3.4941
 20
0.9522
 30
0
 70
     0
  0
VERTEX
  8
VOLVO_FM10__WB_3
 10
-3.508
 20
0.9539
 30
0
 70
     0
  0
VERTEX
  8
VOLVO_FM10__WB_3
 10
-3.522
 20
0.9556
 30
0
 70
     0
  0
VERTEX
  8
VOLVO_FM10__WB_3
 10
-3.5359
 20
0.9573
 30
0
 70
     0
  0
VERTEX
  8
VOLVO_FM10__WB_3
 10
-3.5499
 20
0.959
 30
0
 70
     0
  0
VERTEX
  8
VOLVO_FM10__WB_3
 10
-3.5777
 20
0.9624
 30
0
 70
     0
  0
VERTEX
  8
VOLVO_FM10__WB_3
 10
-3.6056
 20
0.9657
 30
0
 70
     0
  0
VERTEX
  8
VOLVO_FM10__WB_3
 10
-3.6613
 20
0.9723
 30
0
 70
     0
  0
VERTEX
  8
VOLVO_FM10__WB_3
 10
-3.717
 20
0.9787
 30
0
 70
     0
  0
VERTEX
  8
VOLVO_FM10__WB_3
 10
-3.8281
 20
0.9912
 30
0
 70
     0
  0
VERTEX
  8
VOLVO_FM10__WB_3
 10
-3.9391
 20
1.003
 30
0
 70
     0
  0
VERTEX
  8
VOLVO_FM10__WB_3
 10
-4.1606
 20
1.0246
 30
0
 70
     0
  0
VERTEX
  8
VOLVO_FM10__WB_3
 10
-4.3814
 20
1.0431
 30
0
 70
     0
  0
VERTEX
  8
VOLVO_FM10__WB_3
 10
-4.8211
 20
1.0695
 30
0
 70
     0
  0
VERTEX
  8
VOLVO_FM10__WB_3
 10
-5.2583
 20
1.0784
 30
0
 70
     0
  0
VERTEX
  8
VOLVO_FM10__WB_3
 10
-5.3672
 20
1.0775
 30
0
 70
     0
  0
VERTEX
  8
VOLVO_FM10__WB_3
 10
-5.476
 20
1.0751
 30
0
 70
     0
  0
VERTEX
  8
VOLVO_FM10__WB_3
 10
-5.5847
 20
1.0712
 30
0
 70
     0
  0
VERTEX
  8
VOLVO_FM10__WB_3
 10
-5.6929
 20
1.0657
 30
0
 70
     0
  0
VERTEX
  8
VOLVO_FM10__WB_3
 10
-5.9071
 20
1.0497
 30
0
 70
     0
  0
VERTEX
  8
VOLVO_FM10__WB_3
 10
-6.1178
 20
1.0266
 30
0
 70
     0
  0
VERTEX
  8
VOLVO_FM10__WB_3
 10
-6.3253
 20
0.9956
 30
0
 70
     0
  0
VERTEX
  8
VOLVO_FM10__WB_3
 10
-6.5292
 20
0.9559
 30
0
 70
     0
  0
VERTEX
  8
VOLVO_FM10__WB_3
 10
-6.7296
 20
0.9065
 30
0
 70
     0
  0
VERTEX
  8
VOLVO_FM10__WB_3
 10
-6.9263
 20
0.8464
 30
0
 70
     0
  0
SEQEND
  0
POLYLINE
  8
VOLVO_FM10__WB_3
  6
CONTINUOUS
 62
     7
 66
     1
 40
0.0139
 41
0.0139
  0
VERTEX
  8
VOLVO_FM10__WB_3
 10
-23.7383
 20
-26.0525
 30
0
 70
     0
  0
VERTEX
  8
VOLVO_FM10__WB_3
 10
-23.4656
 20
-26.0525
 30
0
 70
     0
  0
SEQEND
  0
POLYLINE
  8
VOLVO_FM10__WB_3
  6
CONTINUOUS
 62
     7
 66
     1
 40
0.0139
 41
0.0139
  0
VERTEX
  8
VOLVO_FM10__WB_3
 10
-24.5141
 20
-22.0639
 30
0
 70
     0
  0
VERTEX
  8
VOLVO_FM10__WB_3
 10
-24.4775
 20
-21.5731
 30
0
 70
     0
  0
VERTEX
  8
VOLVO_FM10__WB_3
 10
-24.4319
 20
-21.0846
 30
0
 70
     0
  0
VERTEX
  8
VOLVO_FM10__WB_3
 10
-24.3772
 20
-20.5985
 30
0
 70
     0
  0
VERTEX
  8
VOLVO_FM10__WB_3
 10
-24.3136
 20
-20.1147
 30
0
 70
     0
  0
VERTEX
  8
VOLVO_FM10__WB_3
 10
-24.2411
 20
-19.6334
 30
0
 70
     0
  0
VERTEX
  8
VOLVO_FM10__WB_3
 10
-24.1598
 20
-19.1547
 30
0
 70
     0
  0
VERTEX
  8
VOLVO_FM10__WB_3
 10
-24.0698
 20
-18.6787
 30
0
 70
     0
  0
VERTEX
  8
VOLVO_FM10__WB_3
 10
-23.9711
 20
-18.2055
 30
0
 70
     0
  0
VERTEX
  8
VOLVO_FM10__WB_3
 10
-23.8639
 20
-17.7351
 30
0
 70
     0
  0
VERTEX
  8
VOLVO_FM10__WB_3
 10
-23.7481
 20
-17.2678
 30
0
 70
     0
  0
VERTEX
  8
VOLVO_FM10__WB_3
 10
-23.6239
 20
-16.8035
 30
0
 70
     0
  0
VERTEX
  8
VOLVO_FM10__WB_3
 10
-23.4913
 20
-16.3425
 30
0
 70
     0
  0
VERTEX
  8
VOLVO_FM10__WB_3
 10
-23.3504
 20
-15.8847
 30
0
 70
     0
  0
VERTEX
  8
VOLVO_FM10__WB_3
 10
-23.2014
 20
-15.4302
 30
0
 70
     0
  0
VERTEX
  8
VOLVO_FM10__WB_3
 10
-23.0442
 20
-14.9793
 30
0
 70
     0
  0
VERTEX
  8
VOLVO_FM10__WB_3
 10
-22.8789
 20
-14.5319
 30
0
 70
     0
  0
VERTEX
  8
VOLVO_FM10__WB_3
 10
-22.7057
 20
-14.0882
 30
0
 70
     0
  0
VERTEX
  8
VOLVO_FM10__WB_3
 10
-22.5245
 20
-13.6482
 30
0
 70
     0
  0
VERTEX
  8
VOLVO_FM10__WB_3
 10
-22.3355
 20
-13.2121
 30
0
 70
     0
  0
VERTEX
  8
VOLVO_FM10__WB_3
 10
-22.1388
 20
-12.7799
 30
0
 70
     0
  0
VERTEX
  8
VOLVO_FM10__WB_3
 10
-21.9343
 20
-12.3518
 30
0
 70
     0
  0
VERTEX
  8
VOLVO_FM10__WB_3
 10
-21.7222
 20
-11.9279
 30
0
 70
     0
  0
VERTEX
  8
VOLVO_FM10__WB_3
 10
-21.5026
 20
-11.5082
 30
0
 70
     0
  0
VERTEX
  8
VOLVO_FM10__WB_3
 10
-21.2756
 20
-11.0928
 30
0
 70
     0
  0
VERTEX
  8
VOLVO_FM10__WB_3
 10
-21.0411
 20
-10.6819
 30
0
 70
     0
  0
VERTEX
  8
VOLVO_FM10__WB_3
 10
-20.7993
 20
-10.2755
 30
0
 70
     0
  0
VERTEX
  8
VOLVO_FM10__WB_3
 10
-20.5503
 20
-9.8738
 30
0
 70
     0
  0
VERTEX
  8
VOLVO_FM10__WB_3
 10
-20.2941
 20
-9.4768
 30
0
 70
     0
  0
VERTEX
  8
VOLVO_FM10__WB_3
 10
-20.0309
 20
-9.0846
 30
0
 70
     0
  0
VERTEX
  8
VOLVO_FM10__WB_3
 10
-19.7606
 20
-8.6973
 30
0
 70
     0
  0
VERTEX
  8
VOLVO_FM10__WB_3
 10
-19.4833
 20
-8.3151
 30
0
 70
     0
  0
VERTEX
  8
VOLVO_FM10__WB_3
 10
-19.1992
 20
-7.938
 30
0
 70
     0
  0
VERTEX
  8
VOLVO_FM10__WB_3
 10
-18.9083
 20
-7.5661
 30
0
 70
     0
  0
VERTEX
  8
VOLVO_FM10__WB_3
 10
-18.6107
 20
-7.1995
 30
0
 70
     0
  0
VERTEX
  8
VOLVO_FM10__WB_3
 10
-18.3064
 20
-6.8383
 30
0
 70
     0
  0
VERTEX
  8
VOLVO_FM10__WB_3
 10
-17.9956
 20
-6.4826
 30
0
 70
     0
  0
VERTEX
  8
VOLVO_FM10__WB_3
 10
-17.6782
 20
-6.1325
 30
0
 70
     0
  0
VERTEX
  8
VOLVO_FM10__WB_3
 10
-17.3545
 20
-5.7882
 30
0
 70
     0
  0
VERTEX
  8
VOLVO_FM10__WB_3
 10
-17.0244
 20
-5.4496
 30
0
 70
     0
  0
VERTEX
  8
VOLVO_FM10__WB_3
 10
-16.688
 20
-5.1169
 30
0
 70
     0
  0
VERTEX
  8
VOLVO_FM10__WB_3
 10
-16.3454
 20
-4.7902
 30
0
 70
     0
  0
VERTEX
  8
VOLVO_FM10__WB_3
 10
-15.9967
 20
-4.4697
 30
0
 70
     0
  0
VERTEX
  8
VOLVO_FM10__WB_3
 10
-15.6419
 20
-4.1553
 30
0
 70
     0
  0
VERTEX
  8
VOLVO_FM10__WB_3
 10
-15.2812
 20
-3.8471
 30
0
 70
     0
  0
VERTEX
  8
VOLVO_FM10__WB_3
 10
-14.9146
 20
-3.5454
 30
0
 70
     0
  0
VERTEX
  8
VOLVO_FM10__WB_3
 10
-14.5421
 20
-3.2501
 30
0
 70
     0
  0
VERTEX
  8
VOLVO_FM10__WB_3
 10
-14.1639
 20
-2.9614
 30
0
 70
     0
  0
VERTEX
  8
VOLVO_FM10__WB_3
 10
-13.78
 20
-2.6794
 30
0
 70
     0
  0
VERTEX
  8
VOLVO_FM10__WB_3
 10
-13.3905
 20
-2.4042
 30
0
 70
     0
  0
VERTEX
  8
VOLVO_FM10__WB_3
 10
-12.9955
 20
-2.1358
 30
0
 70
     0
  0
VERTEX
  8
VOLVO_FM10__WB_3
 10
-12.595
 20
-1.8744
 30
0
 70
     0
  0
VERTEX
  8
VOLVO_FM10__WB_3
 10
-12.1891
 20
-1.62
 30
0
 70
     0
  0
VERTEX
  8
VOLVO_FM10__WB_3
 10
-11.778
 20
-1.3728
 30
0
 70
     0
  0
VERTEX
  8
VOLVO_FM10__WB_3
 10
-11.3616
 20
-1.1329
 30
0
 70
     0
  0
VERTEX
  8
VOLVO_FM10__WB_3
 10
-10.94
 20
-0.9003
 30
0
 70
     0
  0
VERTEX
  8
VOLVO_FM10__WB_3
 10
-10.5134
 20
-0.6751
 30
0
 70
     0
  0
VERTEX
  8
VOLVO_FM10__WB_3
 10
-10.0817
 20
-0.4575
 30
0
 70
     0
  0
VERTEX
  8
VOLVO_FM10__WB_3
 10
-9.6452
 20
-0.2475
 30
0
 70
     0
  0
VERTEX
  8
VOLVO_FM10__WB_3
 10
-9.2037
 20
-0.0453
 30
0
 70
     0
  0
VERTEX
  8
VOLVO_FM10__WB_3
 10
-8.7575
 20
0.1491
 30
0
 70
     0
  0
VERTEX
  8
VOLVO_FM10__WB_3
 10
-8.3066
 20
0.3356
 30
0
 70
     0
  0
VERTEX
  8
VOLVO_FM10__WB_3
 10
-7.851
 20
0.514
 30
0
 70
     0
  0
VERTEX
  8
VOLVO_FM10__WB_3
 10
-7.3909
 20
0.6843
 30
0
 70
     0
  0
VERTEX
  8
VOLVO_FM10__WB_3
 10
-6.9263
 20
0.8464
 30
0
 70
     0
  0
SEQEND
  0
POLYLINE
  8
VOLVO_FM10__WB_3
  6
CONTINUOUS
 62
     7
 66
     1
 40
0.0139
 41
0.0139
  0
VERTEX
  8
VOLVO_FM10__WB_3
 10
-23.4648
 20
-26.0618
 30
0
 70
     0
  0
VERTEX
  8
VOLVO_FM10__WB_3
 10
-23.5055
 20
-25.57
 30
0
 70
     0
  0
VERTEX
  8
VOLVO_FM10__WB_3
 10
-23.5364
 20
-25.0778
 30
0
 70
     0
  0
VERTEX
  8
VOLVO_FM10__WB_3
 10
-23.5575
 20
-24.585
 30
0
 70
     0
  0
VERTEX
  8
VOLVO_FM10__WB_3
 10
-23.5688
 20
-24.092
 30
0
 70
     0
  0
VERTEX
  8
VOLVO_FM10__WB_3
 10
-23.5702
 20
-23.5989
 30
0
 70
     0
  0
VERTEX
  8
VOLVO_FM10__WB_3
 10
-23.5619
 20
-23.1058
 30
0
 70
     0
  0
VERTEX
  8
VOLVO_FM10__WB_3
 10
-23.5436
 20
-22.6129
 30
0
 70
     0
  0
VERTEX
  8
VOLVO_FM10__WB_3
 10
-23.5156
 20
-22.1203
 30
0
 70
     0
  0
SEQEND
  0
POLYLINE
  8
VOLVO_FM10__WB_3
  6
CONTINUOUS
 62
     7
 66
     1
 40
0.0139
 41
0.0139
  0
VERTEX
  8
VOLVO_FM10__WB_3
 10
-24.5237
 20
-25.3215
 30
0
 70
     0
  0
VERTEX
  8
VOLVO_FM10__WB_3
 10
-24.5451
 20
-24.9151
 30
0
 70
     0
  0
VERTEX
  8
VOLVO_FM10__WB_3
 10
-24.5601
 20
-24.5085
 30
0
 70
     0
  0
VERTEX
  8
VOLVO_FM10__WB_3
 10
-24.5686
 20
-24.1018
 30
0
 70
     0
  0
VERTEX
  8
VOLVO_FM10__WB_3
 10
-24.5706
 20
-23.695
 30
0
 70
     0
  0
VERTEX
  8
VOLVO_FM10__WB_3
 10
-24.5662
 20
-23.2882
 30
0
 70
     0
  0
VERTEX
  8
VOLVO_FM10__WB_3
 10
-24.5554
 20
-22.8815
 30
0
 70
     0
  0
VERTEX
  8
VOLVO_FM10__WB_3
 10
-24.5381
 20
-22.475
 30
0
 70
     0
  0
VERTEX
  8
VOLVO_FM10__WB_3
 10
-24.5144
 20
-22.0688
 30
0
 70
     0
  0
SEQEND
  0
POLYLINE
  8
VOLVO_FM10__WB_3
  6
CONTINUOUS
 62
     7
 66
     1
 40
0.0139
 41
0.0139
  0
VERTEX
  8
VOLVO_FM10__WB_3
 10
-25.935
 20
55.1128
 30
0
 70
     0
  0
VERTEX
  8
VOLVO_FM10__WB_3
 10
-25.935
 20
85.8215
 30
0
 70
     0
  0
SEQEND
  0
POLYLINE
  8
VOLVO_FM10__WB_3
  6
CONTINUOUS
 62
     7
 66
     1
 40
0.0139
 41
0.0139
  0
VERTEX
  8
VOLVO_FM10__WB_3
 10
-19.439
 20
55.1128
 30
0
 70
     0
  0
VERTEX
  8
VOLVO_FM10__WB_3
 10
-19.439
 20
-0.0053
 30
0
 70
     0
  0
SEQEND
  0
POLYLINE
  8
VOLVO_FM10__WB_3
  6
CONTINUOUS
 62
     7
 66
     1
 40
0.0139
 41
0.0139
  0
VERTEX
  8
VOLVO_FM10__WB_3
 10
17.1011
 20
61.9732
 30
0
 70
     0
  0
VERTEX
  8
VOLVO_FM10__WB_3
 10
17.0986
 20
61.8513
 30
0
 70
     0
  0
VERTEX
  8
VOLVO_FM10__WB_3
 10
17.09
 20
61.731
 30
0
 70
     0
  0
VERTEX
  8
VOLVO_FM10__WB_3
 10
17.0755
 20
61.6124
 30
0
 70
     0
  0
VERTEX
  8
VOLVO_FM10__WB_3
 10
17.0552
 20
61.4957
 30
0
 70
     0
  0
VERTEX
  8
VOLVO_FM10__WB_3
 10
17.0292
 20
61.381
 30
0
 70
     0
  0
VERTEX
  8
VOLVO_FM10__WB_3
 10
16.9977
 20
61.2685
 30
0
 70
     0
  0
VERTEX
  8
VOLVO_FM10__WB_3
 10
16.9609
 20
61.1583
 30
0
 70
     0
  0
VERTEX
  8
VOLVO_FM10__WB_3
 10
16.9189
 20
61.0506
 30
0
 70
     0
  0
VERTEX
  8
VOLVO_FM10__WB_3
 10
16.8198
 20
60.8433
 30
0
 70
     0
  0
VERTEX
  8
VOLVO_FM10__WB_3
 10
16.7018
 20
60.6476
 30
0
 70
     0
  0
VERTEX
  8
VOLVO_FM10__WB_3
 10
16.5659
 20
60.4649
 30
0
 70
     0
  0
VERTEX
  8
VOLVO_FM10__WB_3
 10
16.4135
 20
60.2964
 30
0
 70
     0
  0
VERTEX
  8
VOLVO_FM10__WB_3
 10
16.2456
 20
60.1431
 30
0
 70
     0
  0
VERTEX
  8
VOLVO_FM10__WB_3
 10
16.0635
 20
60.0064
 30
0
 70
     0
  0
VERTEX
  8
VOLVO_FM10__WB_3
 10
15.8684
 20
59.8875
 30
0
 70
     0
  0
VERTEX
  8
VOLVO_FM10__WB_3
 10
15.6615
 20
59.7875
 30
0
 70
     0
  0
VERTEX
  8
VOLVO_FM10__WB_3
 10
15.554
 20
59.745
 30
0
 70
     0
  0
VERTEX
  8
VOLVO_FM10__WB_3
 10
15.444
 20
59.7076
 30
0
 70
     0
  0
VERTEX
  8
VOLVO_FM10__WB_3
 10
15.3317
 20
59.6756
 30
0
 70
     0
  0
VERTEX
  8
VOLVO_FM10__WB_3
 10
15.2171
 20
59.6491
 30
0
 70
     0
  0
VERTEX
  8
VOLVO_FM10__WB_3
 10
15.1005
 20
59.6283
 30
0
 70
     0
  0
VERTEX
  8
VOLVO_FM10__WB_3
 10
14.9819
 20
59.6132
 30
0
 70
     0
  0
VERTEX
  8
VOLVO_FM10__WB_3
 10
14.8617
 20
59.604
 30
0
 70
     0
  0
VERTEX
  8
VOLVO_FM10__WB_3
 10
14.7398
 20
59.601
 30
0
 70
     0
  0
SEQEND
  0
POLYLINE
  8
VOLVO_FM10__WB_3
  6
CONTINUOUS
 62
     7
 66
     1
 40
0.0139
 41
0.0139
  0
VERTEX
  8
VOLVO_FM10__WB_3
 10
14.7389
 20
59.601
 30
0
 70
     0
  0
VERTEX
  8
VOLVO_FM10__WB_3
 10
-5.9528
 20
59.601
 30
0
 70
     0
  0
SEQEND
  0
POLYLINE
  8
VOLVO_FM10__WB_3
  6
CONTINUOUS
 62
     7
 66
     1
 40
0.0139
 41
0.0139
  0
VERTEX
  8
VOLVO_FM10__WB_3
 10
-11.3681
 20
52.1207
 30
0
 70
     0
  0
VERTEX
  8
VOLVO_FM10__WB_3
 10
-11.362
 20
52.4384
 30
0
 70
     0
  0
VERTEX
  8
VOLVO_FM10__WB_3
 10
-11.3432
 20
52.7536
 30
0
 70
     0
  0
VERTEX
  8
VOLVO_FM10__WB_3
 10
-11.3121
 20
53.066
 30
0
 70
     0
  0
VERTEX
  8
VOLVO_FM10__WB_3
 10
-11.2688
 20
53.3752
 30
0
 70
     0
  0
VERTEX
  8
VOLVO_FM10__WB_3
 10
-11.2134
 20
53.6811
 30
0
 70
     0
  0
VERTEX
  8
VOLVO_FM10__WB_3
 10
-11.1463
 20
53.9833
 30
0
 70
     0
  0
VERTEX
  8
VOLVO_FM10__WB_3
 10
-11.0677
 20
54.2815
 30
0
 70
     0
  0
VERTEX
  8
VOLVO_FM10__WB_3
 10
-10.9776
 20
54.5754
 30
0
 70
     0
  0
VERTEX
  8
VOLVO_FM10__WB_3
 10
-10.8764
 20
54.8649
 30
0
 70
     0
  0
VERTEX
  8
VOLVO_FM10__WB_3
 10
-10.7643
 20
55.1494
 30
0
 70
     0
  0
VERTEX
  8
VOLVO_FM10__WB_3
 10
-10.6414
 20
55.4289
 30
0
 70
     0
  0
VERTEX
  8
VOLVO_FM10__WB_3
 10
-10.5081
 20
55.7029
 30
0
 70
     0
  0
VERTEX
  8
VOLVO_FM10__WB_3
 10
-10.3644
 20
55.9712
 30
0
 70
     0
  0
VERTEX
  8
VOLVO_FM10__WB_3
 10
-10.2106
 20
56.2335
 30
0
 70
     0
  0
VERTEX
  8
VOLVO_FM10__WB_3
 10
-10.0469
 20
56.4896
 30
0
 70
     0
  0
VERTEX
  8
VOLVO_FM10__WB_3
 10
-9.8735
 20
56.739
 30
0
 70
     0
  0
VERTEX
  8
VOLVO_FM10__WB_3
 10
-9.6906
 20
56.9817
 30
0
 70
     0
  0
VERTEX
  8
VOLVO_FM10__WB_3
 10
-9.4985
 20
57.2171
 30
0
 70
     0
  0
VERTEX
  8
VOLVO_FM10__WB_3
 10
-9.2973
 20
57.4451
 30
0
 70
     0
  0
VERTEX
  8
VOLVO_FM10__WB_3
 10
-9.0873
 20
57.6654
 30
0
 70
     0
  0
VERTEX
  8
VOLVO_FM10__WB_3
 10
-8.8686
 20
57.8777
 30
0
 70
     0
  0
VERTEX
  8
VOLVO_FM10__WB_3
 10
-8.6415
 20
58.0817
 30
0
 70
     0
  0
VERTEX
  8
VOLVO_FM10__WB_3
 10
-8.4062
 20
58.2771
 30
0
 70
     0
  0
VERTEX
  8
VOLVO_FM10__WB_3
 10
-8.1628
 20
58.4635
 30
0
 70
     0
  0
VERTEX
  8
VOLVO_FM10__WB_3
 10
-7.9117
 20
58.6409
 30
0
 70
     0
  0
VERTEX
  8
VOLVO_FM10__WB_3
 10
-7.653
 20
58.8087
 30
0
 70
     0
  0
VERTEX
  8
VOLVO_FM10__WB_3
 10
-7.3868
 20
58.9668
 30
0
 70
     0
  0
VERTEX
  8
VOLVO_FM10__WB_3
 10
-7.1135
 20
59.1149
 30
0
 70
     0
  0
VERTEX
  8
VOLVO_FM10__WB_3
 10
-6.8333
 20
59.2526
 30
0
 70
     0
  0
VERTEX
  8
VOLVO_FM10__WB_3
 10
-6.5462
 20
59.3798
 30
0
 70
     0
  0
VERTEX
  8
VOLVO_FM10__WB_3
 10
-6.2527
 20
59.496
 30
0
 70
     0
  0
VERTEX
  8
VOLVO_FM10__WB_3
 10
-5.9528
 20
59.601
 30
0
 70
     0
  0
SEQEND
  0
POLYLINE
  8
VOLVO_FM10__WB_3
  6
CONTINUOUS
 62
     7
 66
     1
 40
0.0139
 41
0.0139
  0
VERTEX
  8
VOLVO_FM10__WB_3
 10
-11.3681
 20
52.1207
 30
0
 70
     0
  0
VERTEX
  8
VOLVO_FM10__WB_3
 10
-11.3681
 20
-0.0053
 30
0
 70
     0
  0
SEQEND
  0
POLYLINE
  8
VOLVO_FM10__WB_3
  6
CONTINUOUS
 62
     7
 66
     1
 40
0.0139
 41
0.0139
  0
VERTEX
  8
VOLVO_FM10__WB_3
 10
-15.3051
 20
35.3834
 30
0
 70
     0
  0
VERTEX
  8
VOLVO_FM10__WB_3
 10
-17.2736
 20
35.4278
 30
0
 70
     0
  0
SEQEND
  0
POLYLINE
  8
VOLVO_FM10__WB_3
  6
CONTINUOUS
 62
     7
 66
     1
 40
0.0139
 41
0.0139
  0
VERTEX
  8
VOLVO_FM10__WB_3
 10
-11.3681
 20
-0.0053
 30
0
 70
     0
  0
VERTEX
  8
VOLVO_FM10__WB_3
 10
-15.3051
 20
-0.0053
 30
0
 70
     0
  0
SEQEND
  0
POLYLINE
  8
VOLVO_FM10__WB_3
  6
CONTINUOUS
 62
     7
 66
     1
 40
0.0139
 41
0.0139
  0
VERTEX
  8
VOLVO_FM10__WB_3
 10
-25.935
 20
85.8215
 30
0
 70
     0
  0
VERTEX
  8
VOLVO_FM10__WB_3
 10
-21.998
 20
85.8215
 30
0
 70
     0
  0
SEQEND
  0
POLYLINE
  8
VOLVO_FM10__WB_3
  6
CONTINUOUS
 62
     7
 66
     1
 40
0.0139
 41
0.0139
  0
VERTEX
  8
VOLVO_FM10__WB_3
 10
-28.4941
 20
55.1128
 30
0
 70
     0
  0
VERTEX
  8
VOLVO_FM10__WB_3
 10
-19.439
 20
55.1128
 30
0
 70
     0
  0
SEQEND
  0
POLYLINE
  8
VOLVO_FM10__WB_3
  6
CONTINUOUS
 62
     7
 66
     1
 40
0.0139
 41
0.0139
  0
VERTEX
  8
VOLVO_FM10__WB_3
 10
33.124
 20
33.0051
 30
0
 70
     0
  0
VERTEX
  8
VOLVO_FM10__WB_3
 10
32.643
 20
33.0051
 30
0
 70
     0
  0
SEQEND
  0
POLYLINE
  8
VOLVO_FM10__WB_3
  6
CONTINUOUS
 62
     7
 66
     1
 40
0.0139
 41
0.0139
  0
VERTEX
  8
VOLVO_FM10__WB_3
 10
32.643
 20
33.9894
 30
0
 70
     0
  0
VERTEX
  8
VOLVO_FM10__WB_3
 10
33.124
 20
33.9894
 30
0
 70
     0
  0
SEQEND
  0
POLYLINE
  8
VOLVO_FM10__WB_3
  6
CONTINUOUS
 62
     7
 66
     1
 40
0.0139
 41
0.0139
  0
VERTEX
  8
VOLVO_FM10__WB_3
 10
37.3989
 20
33.9894
 30
0
 70
     0
  0
VERTEX
  8
VOLVO_FM10__WB_3
 10
33.124
 20
33.9894
 30
0
 70
     0
  0
SEQEND
  0
POLYLINE
  8
VOLVO_FM10__WB_3
  6
CONTINUOUS
 62
     7
 66
     1
 40
0.0139
 41
0.0139
  0
VERTEX
  8
VOLVO_FM10__WB_3
 10
33.124
 20
33.9894
 30
0
 70
     0
  0
VERTEX
  8
VOLVO_FM10__WB_3
 10
33.2048
 20
33.9815
 30
0
 70
     0
  0
VERTEX
  8
VOLVO_FM10__WB_3
 10
33.2874
 20
33.9562
 30
0
 70
     0
  0
VERTEX
  8
VOLVO_FM10__WB_3
 10
33.3669
 20
33.9124
 30
0
 70
     0
  0
VERTEX
  8
VOLVO_FM10__WB_3
 10
33.4379
 20
33.851
 30
0
 70
     0
  0
VERTEX
  8
VOLVO_FM10__WB_3
 10
33.4956
 20
33.7755
 30
0
 70
     0
  0
VERTEX
  8
VOLVO_FM10__WB_3
 10
33.5368
 20
33.6909
 30
0
 70
     0
  0
VERTEX
  8
VOLVO_FM10__WB_3
 10
33.5605
 20
33.6029
 30
0
 70
     0
  0
VERTEX
  8
VOLVO_FM10__WB_3
 10
33.5679
 20
33.5169
 30
0
 70
     0
  0
SEQEND
  0
POLYLINE
  8
VOLVO_FM10__WB_3
  6
CONTINUOUS
 62
     7
 66
     1
 40
0.0139
 41
0.0139
  0
VERTEX
  8
VOLVO_FM10__WB_3
 10
33.5679
 20
33.4776
 30
0
 70
     0
  0
VERTEX
  8
VOLVO_FM10__WB_3
 10
33.5605
 20
33.3916
 30
0
 70
     0
  0
VERTEX
  8
VOLVO_FM10__WB_3
 10
33.5368
 20
33.3037
 30
0
 70
     0
  0
VERTEX
  8
VOLVO_FM10__WB_3
 10
33.4956
 20
33.2191
 30
0
 70
     0
  0
VERTEX
  8
VOLVO_FM10__WB_3
 10
33.4379
 20
33.1435
 30
0
 70
     0
  0
VERTEX
  8
VOLVO_FM10__WB_3
 10
33.3669
 20
33.0821
 30
0
 70
     0
  0
VERTEX
  8
VOLVO_FM10__WB_3
 10
33.2874
 20
33.0383
 30
0
 70
     0
  0
VERTEX
  8
VOLVO_FM10__WB_3
 10
33.2048
 20
33.013
 30
0
 70
     0
  0
VERTEX
  8
VOLVO_FM10__WB_3
 10
33.124
 20
33.0051
 30
0
 70
     0
  0
SEQEND
  0
POLYLINE
  8
VOLVO_FM10__WB_3
  6
CONTINUOUS
 62
     7
 66
     1
 40
0.0139
 41
0.0139
  0
VERTEX
  8
VOLVO_FM10__WB_3
 10
33.5679
 20
33.5169
 30
0
 70
     0
  0
VERTEX
  8
VOLVO_FM10__WB_3
 10
33.5679
 20
33.4776
 30
0
 70
     0
  0
SEQEND
  0
POLYLINE
  8
VOLVO_FM10__WB_3
  6
CONTINUOUS
 62
     7
 66
     1
 40
0.0139
 41
0.0139
  0
VERTEX
  8
VOLVO_FM10__WB_3
 10
32.643
 20
33.0051
 30
0
 70
     0
  0
VERTEX
  8
VOLVO_FM10__WB_3
 10
32.643
 20
33.9894
 30
0
 70
     0
  0
SEQEND
  0
POLYLINE
  8
VOLVO_FM10__WB_3
  6
CONTINUOUS
 62
     7
 66
     1
 40
0.0139
 41
0.0139
  0
VERTEX
  8
VOLVO_FM10__WB_3
 10
37.3964
 20
33.0051
 30
0
 70
     0
  0
VERTEX
  8
VOLVO_FM10__WB_3
 10
33.124
 20
33.0051
 30
0
 70
     0
  0
SEQEND
  0
POLYLINE
  8
VOLVO_FM10__WB_3
  6
CONTINUOUS
 62
     7
 66
     1
 40
0.0139
 41
0.0139
  0
VERTEX
  8
VOLVO_FM10__WB_3
 10
37.3964
 20
33.0051
 30
0
 70
     0
  0
VERTEX
  8
VOLVO_FM10__WB_3
 10
37.4322
 20
33.0063
 30
0
 70
     0
  0
VERTEX
  8
VOLVO_FM10__WB_3
 10
37.4678
 20
33.0099
 30
0
 70
     0
  0
SEQEND
  0
POLYLINE
  8
VOLVO_FM10__WB_3
  6
CONTINUOUS
 62
     7
 66
     1
 40
0.0139
 41
0.0139
  0
VERTEX
  8
VOLVO_FM10__WB_3
 10
33.124
 20
28.0042
 30
0
 70
     0
  0
VERTEX
  8
VOLVO_FM10__WB_3
 10
32.643
 20
28.0042
 30
0
 70
     0
  0
SEQEND
  0
POLYLINE
  8
VOLVO_FM10__WB_3
  6
CONTINUOUS
 62
     7
 66
     1
 40
0.0139
 41
0.0139
  0
VERTEX
  8
VOLVO_FM10__WB_3
 10
32.643
 20
28.9884
 30
0
 70
     0
  0
VERTEX
  8
VOLVO_FM10__WB_3
 10
33.124
 20
28.9884
 30
0
 70
     0
  0
SEQEND
  0
POLYLINE
  8
VOLVO_FM10__WB_3
  6
CONTINUOUS
 62
     7
 66
     1
 40
0.0139
 41
0.0139
  0
VERTEX
  8
VOLVO_FM10__WB_3
 10
33.124
 20
28.9884
 30
0
 70
     0
  0
VERTEX
  8
VOLVO_FM10__WB_3
 10
33.2048
 20
28.9805
 30
0
 70
     0
  0
VERTEX
  8
VOLVO_FM10__WB_3
 10
33.2874
 20
28.9553
 30
0
 70
     0
  0
VERTEX
  8
VOLVO_FM10__WB_3
 10
33.3669
 20
28.9114
 30
0
 70
     0
  0
VERTEX
  8
VOLVO_FM10__WB_3
 10
33.4379
 20
28.8501
 30
0
 70
     0
  0
VERTEX
  8
VOLVO_FM10__WB_3
 10
33.4956
 20
28.7745
 30
0
 70
     0
  0
VERTEX
  8
VOLVO_FM10__WB_3
 10
33.5368
 20
28.6899
 30
0
 70
     0
  0
VERTEX
  8
VOLVO_FM10__WB_3
 10
33.5605
 20
28.602
 30
0
 70
     0
  0
VERTEX
  8
VOLVO_FM10__WB_3
 10
33.5679
 20
28.516
 30
0
 70
     0
  0
SEQEND
  0
POLYLINE
  8
VOLVO_FM10__WB_3
  6
CONTINUOUS
 62
     7
 66
     1
 40
0.0139
 41
0.0139
  0
VERTEX
  8
VOLVO_FM10__WB_3
 10
32.643
 20
28.0042
 30
0
 70
     0
  0
VERTEX
  8
VOLVO_FM10__WB_3
 10
32.643
 20
28.9884
 30
0
 70
     0
  0
SEQEND
  0
POLYLINE
  8
VOLVO_FM10__WB_3
  6
CONTINUOUS
 62
     7
 66
     1
 40
0.0139
 41
0.0139
  0
VERTEX
  8
VOLVO_FM10__WB_3
 10
37.4681
 20
28.9884
 30
0
 70
     0
  0
VERTEX
  8
VOLVO_FM10__WB_3
 10
33.124
 20
28.9884
 30
0
 70
     0
  0
SEQEND
  0
POLYLINE
  8
VOLVO_FM10__WB_3
  6
CONTINUOUS
 62
     7
 66
     1
 40
0.0139
 41
0.0139
  0
VERTEX
  8
VOLVO_FM10__WB_3
 10
37.4681
 20
28.0042
 30
0
 70
     0
  0
VERTEX
  8
VOLVO_FM10__WB_3
 10
33.124
 20
28.0042
 30
0
 70
     0
  0
SEQEND
  0
POLYLINE
  8
VOLVO_FM10__WB_3
  6
CONTINUOUS
 62
     7
 66
     1
 40
0.0139
 41
0.0139
  0
VERTEX
  8
VOLVO_FM10__WB_3
 10
33.5679
 20
28.4766
 30
0
 70
     0
  0
VERTEX
  8
VOLVO_FM10__WB_3
 10
33.5605
 20
28.3907
 30
0
 70
     0
  0
VERTEX
  8
VOLVO_FM10__WB_3
 10
33.5368
 20
28.3027
 30
0
 70
     0
  0
VERTEX
  8
VOLVO_FM10__WB_3
 10
33.4956
 20
28.2181
 30
0
 70
     0
  0
VERTEX
  8
VOLVO_FM10__WB_3
 10
33.4379
 20
28.1426
 30
0
 70
     0
  0
VERTEX
  8
VOLVO_FM10__WB_3
 10
33.3669
 20
28.0812
 30
0
 70
     0
  0
VERTEX
  8
VOLVO_FM10__WB_3
 10
33.2874
 20
28.0374
 30
0
 70
     0
  0
VERTEX
  8
VOLVO_FM10__WB_3
 10
33.2048
 20
28.0121
 30
0
 70
     0
  0
VERTEX
  8
VOLVO_FM10__WB_3
 10
33.124
 20
28.0042
 30
0
 70
     0
  0
SEQEND
  0
POLYLINE
  8
VOLVO_FM10__WB_3
  6
CONTINUOUS
 62
     7
 66
     1
 40
0.0139
 41
0.0139
  0
VERTEX
  8
VOLVO_FM10__WB_3
 10
33.5679
 20
28.516
 30
0
 70
     0
  0
VERTEX
  8
VOLVO_FM10__WB_3
 10
33.5679
 20
28.4766
 30
0
 70
     0
  0
SEQEND
  0
POLYLINE
  8
VOLVO_FM10__WB_3
  6
CONTINUOUS
 62
     7
 66
     1
 40
0.0139
 41
0.0139
  0
VERTEX
  8
VOLVO_FM10__WB_3
 10
30.3716
 20
24.5616
 30
0
 70
     0
  0
VERTEX
  8
VOLVO_FM10__WB_3
 10
30.3111
 20
24.5696
 30
0
 70
     0
  0
VERTEX
  8
VOLVO_FM10__WB_3
 10
30.2491
 20
24.5945
 30
0
 70
     0
  0
VERTEX
  8
VOLVO_FM10__WB_3
 10
30.1864
 20
24.6376
 30
0
 70
     0
  0
VERTEX
  8
VOLVO_FM10__WB_3
 10
30.1238
 20
24.6998
 30
0
 70
     0
  0
VERTEX
  8
VOLVO_FM10__WB_3
 10
30.0032
 20
24.8825
 30
0
 70
     0
  0
VERTEX
  8
VOLVO_FM10__WB_3
 10
29.8955
 20
25.1382
 30
0
 70
     0
  0
VERTEX
  8
VOLVO_FM10__WB_3
 10
29.8081
 20
25.453
 30
0
 70
     0
  0
VERTEX
  8
VOLVO_FM10__WB_3
 10
29.7456
 20
25.8055
 30
0
 70
     0
  0
VERTEX
  8
VOLVO_FM10__WB_3
 10
29.7096
 20
26.1719
 30
0
 70
     0
  0
VERTEX
  8
VOLVO_FM10__WB_3
 10
29.6983
 20
26.5301
 30
0
 70
     0
  0
SEQEND
  0
POLYLINE
  8
VOLVO_FM10__WB_3
  6
CONTINUOUS
 62
     7
 66
     1
 40
0.0139
 41
0.0139
  0
VERTEX
  8
VOLVO_FM10__WB_3
 10
29.6983
 20
26.5301
 30
0
 70
     0
  0
VERTEX
  8
VOLVO_FM10__WB_3
 10
29.6983
 20
44.2467
 30
0
 70
     0
  0
SEQEND
  0
POLYLINE
  8
VOLVO_FM10__WB_3
  6
CONTINUOUS
 62
     7
 66
     1
 40
0.0139
 41
0.0139
  0
VERTEX
  8
VOLVO_FM10__WB_3
 10
33.9896
 20
26.5301
 30
0
 70
     0
  0
VERTEX
  8
VOLVO_FM10__WB_3
 10
33.9783
 20
26.1719
 30
0
 70
     0
  0
VERTEX
  8
VOLVO_FM10__WB_3
 10
33.9423
 20
25.8055
 30
0
 70
     0
  0
VERTEX
  8
VOLVO_FM10__WB_3
 10
33.8798
 20
25.453
 30
0
 70
     0
  0
VERTEX
  8
VOLVO_FM10__WB_3
 10
33.7924
 20
25.1382
 30
0
 70
     0
  0
VERTEX
  8
VOLVO_FM10__WB_3
 10
33.6847
 20
24.8825
 30
0
 70
     0
  0
VERTEX
  8
VOLVO_FM10__WB_3
 10
33.5641
 20
24.6998
 30
0
 70
     0
  0
VERTEX
  8
VOLVO_FM10__WB_3
 10
33.5016
 20
24.6376
 30
0
 70
     0
  0
VERTEX
  8
VOLVO_FM10__WB_3
 10
33.4388
 20
24.5945
 30
0
 70
     0
  0
VERTEX
  8
VOLVO_FM10__WB_3
 10
33.3768
 20
24.5696
 30
0
 70
     0
  0
VERTEX
  8
VOLVO_FM10__WB_3
 10
33.3163
 20
24.5616
 30
0
 70
     0
  0
SEQEND
  0
POLYLINE
  8
VOLVO_FM10__WB_3
  6
CONTINUOUS
 62
     7
 66
     1
 40
0.0139
 41
0.0139
  0
VERTEX
  8
VOLVO_FM10__WB_3
 10
33.3163
 20
24.5616
 30
0
 70
     0
  0
VERTEX
  8
VOLVO_FM10__WB_3
 10
31.2965
 20
24.5616
 30
0
 70
     0
  0
SEQEND
  0
POLYLINE
  8
VOLVO_FM10__WB_3
  6
CONTINUOUS
 62
     7
 66
     1
 40
0.0139
 41
0.0139
  0
VERTEX
  8
VOLVO_FM10__WB_3
 10
31.2965
 20
24.5616
 30
0
 70
     0
  0
VERTEX
  8
VOLVO_FM10__WB_3
 10
31.236
 20
24.5696
 30
0
 70
     0
  0
VERTEX
  8
VOLVO_FM10__WB_3
 10
31.174
 20
24.5945
 30
0
 70
     0
  0
VERTEX
  8
VOLVO_FM10__WB_3
 10
31.1113
 20
24.6376
 30
0
 70
     0
  0
VERTEX
  8
VOLVO_FM10__WB_3
 10
31.0487
 20
24.6998
 30
0
 70
     0
  0
VERTEX
  8
VOLVO_FM10__WB_3
 10
30.9281
 20
24.8825
 30
0
 70
     0
  0
VERTEX
  8
VOLVO_FM10__WB_3
 10
30.8204
 20
25.1382
 30
0
 70
     0
  0
VERTEX
  8
VOLVO_FM10__WB_3
 10
30.733
 20
25.453
 30
0
 70
     0
  0
VERTEX
  8
VOLVO_FM10__WB_3
 10
30.6705
 20
25.8055
 30
0
 70
     0
  0
VERTEX
  8
VOLVO_FM10__WB_3
 10
30.6345
 20
26.1719
 30
0
 70
     0
  0
VERTEX
  8
VOLVO_FM10__WB_3
 10
30.6232
 20
26.5301
 30
0
 70
     0
  0
SEQEND
  0
POLYLINE
  8
VOLVO_FM10__WB_3
  6
CONTINUOUS
 62
     7
 66
     1
 40
0.0139
 41
0.0139
  0
VERTEX
  8
VOLVO_FM10__WB_3
 10
33.9896
 20
44.2467
 30
0
 70
     0
  0
VERTEX
  8
VOLVO_FM10__WB_3
 10
33.9896
 20
33.9894
 30
0
 70
     0
  0
SEQEND
  0
POLYLINE
  8
VOLVO_FM10__WB_3
  6
CONTINUOUS
 62
     7
 66
     1
 40
0.0139
 41
0.0139
  0
VERTEX
  8
VOLVO_FM10__WB_3
 10
30.6232
 20
26.5301
 30
0
 70
     0
  0
VERTEX
  8
VOLVO_FM10__WB_3
 10
30.6232
 20
44.2467
 30
0
 70
     0
  0
SEQEND
  0
POLYLINE
  8
VOLVO_FM10__WB_3
  6
CONTINUOUS
 62
     7
 66
     1
 40
0.0139
 41
0.0139
  0
VERTEX
  8
VOLVO_FM10__WB_3
 10
29.6983
 20
44.2467
 30
0
 70
     0
  0
VERTEX
  8
VOLVO_FM10__WB_3
 10
29.7096
 20
44.6049
 30
0
 70
     0
  0
VERTEX
  8
VOLVO_FM10__WB_3
 10
29.7456
 20
44.9713
 30
0
 70
     0
  0
VERTEX
  8
VOLVO_FM10__WB_3
 10
29.8081
 20
45.3239
 30
0
 70
     0
  0
VERTEX
  8
VOLVO_FM10__WB_3
 10
29.8955
 20
45.6386
 30
0
 70
     0
  0
VERTEX
  8
VOLVO_FM10__WB_3
 10
30.0032
 20
45.8943
 30
0
 70
     0
  0
VERTEX
  8
VOLVO_FM10__WB_3
 10
30.1238
 20
46.077
 30
0
 70
     0
  0
VERTEX
  8
VOLVO_FM10__WB_3
 10
30.1864
 20
46.1392
 30
0
 70
     0
  0
VERTEX
  8
VOLVO_FM10__WB_3
 10
30.2491
 20
46.1823
 30
0
 70
     0
  0
VERTEX
  8
VOLVO_FM10__WB_3
 10
30.3111
 20
46.2072
 30
0
 70
     0
  0
VERTEX
  8
VOLVO_FM10__WB_3
 10
30.3716
 20
46.2152
 30
0
 70
     0
  0
SEQEND
  0
POLYLINE
  8
VOLVO_FM10__WB_3
  6
CONTINUOUS
 62
     7
 66
     1
 40
0.0139
 41
0.0139
  0
VERTEX
  8
VOLVO_FM10__WB_3
 10
31.2965
 20
24.5616
 30
0
 70
     0
  0
VERTEX
  8
VOLVO_FM10__WB_3
 10
30.3716
 20
24.5616
 30
0
 70
     0
  0
SEQEND
  0
POLYLINE
  8
VOLVO_FM10__WB_3
  6
CONTINUOUS
 62
     7
 66
     1
 40
0.0139
 41
0.0139
  0
VERTEX
  8
VOLVO_FM10__WB_3
 10
31.2965
 20
46.2152
 30
0
 70
     0
  0
VERTEX
  8
VOLVO_FM10__WB_3
 10
33.3163
 20
46.2152
 30
0
 70
     0
  0
SEQEND
  0
POLYLINE
  8
VOLVO_FM10__WB_3
  6
CONTINUOUS
 62
     7
 66
     1
 40
0.0139
 41
0.0139
  0
VERTEX
  8
VOLVO_FM10__WB_3
 10
33.3163
 20
46.2152
 30
0
 70
     0
  0
VERTEX
  8
VOLVO_FM10__WB_3
 10
33.3768
 20
46.2072
 30
0
 70
     0
  0
VERTEX
  8
VOLVO_FM10__WB_3
 10
33.4388
 20
46.1823
 30
0
 70
     0
  0
VERTEX
  8
VOLVO_FM10__WB_3
 10
33.5016
 20
46.1392
 30
0
 70
     0
  0
VERTEX
  8
VOLVO_FM10__WB_3
 10
33.5641
 20
46.077
 30
0
 70
     0
  0
VERTEX
  8
VOLVO_FM10__WB_3
 10
33.6847
 20
45.8943
 30
0
 70
     0
  0
VERTEX
  8
VOLVO_FM10__WB_3
 10
33.7924
 20
45.6386
 30
0
 70
     0
  0
VERTEX
  8
VOLVO_FM10__WB_3
 10
33.8798
 20
45.3239
 30
0
 70
     0
  0
VERTEX
  8
VOLVO_FM10__WB_3
 10
33.9423
 20
44.9713
 30
0
 70
     0
  0
VERTEX
  8
VOLVO_FM10__WB_3
 10
33.9783
 20
44.6049
 30
0
 70
     0
  0
VERTEX
  8
VOLVO_FM10__WB_3
 10
33.9896
 20
44.2467
 30
0
 70
     0
  0
SEQEND
  0
POLYLINE
  8
VOLVO_FM10__WB_3
  6
CONTINUOUS
 62
     7
 66
     1
 40
0.0139
 41
0.0139
  0
VERTEX
  8
VOLVO_FM10__WB_3
 10
31.2965
 20
46.2152
 30
0
 70
     0
  0
VERTEX
  8
VOLVO_FM10__WB_3
 10
30.3716
 20
46.2152
 30
0
 70
     0
  0
SEQEND
  0
POLYLINE
  8
VOLVO_FM10__WB_3
  6
CONTINUOUS
 62
     7
 66
     1
 40
0.0139
 41
0.0139
  0
VERTEX
  8
VOLVO_FM10__WB_3
 10
30.6232
 20
44.2467
 30
0
 70
     0
  0
VERTEX
  8
VOLVO_FM10__WB_3
 10
30.6345
 20
44.6049
 30
0
 70
     0
  0
VERTEX
  8
VOLVO_FM10__WB_3
 10
30.6705
 20
44.9713
 30
0
 70
     0
  0
VERTEX
  8
VOLVO_FM10__WB_3
 10
30.733
 20
45.3239
 30
0
 70
     0
  0
VERTEX
  8
VOLVO_FM10__WB_3
 10
30.8204
 20
45.6386
 30
0
 70
     0
  0
VERTEX
  8
VOLVO_FM10__WB_3
 10
30.9281
 20
45.8943
 30
0
 70
     0
  0
VERTEX
  8
VOLVO_FM10__WB_3
 10
31.0487
 20
46.077
 30
0
 70
     0
  0
VERTEX
  8
VOLVO_FM10__WB_3
 10
31.1113
 20
46.1392
 30
0
 70
     0
  0
VERTEX
  8
VOLVO_FM10__WB_3
 10
31.174
 20
46.1823
 30
0
 70
     0
  0
VERTEX
  8
VOLVO_FM10__WB_3
 10
31.236
 20
46.2072
 30
0
 70
     0
  0
VERTEX
  8
VOLVO_FM10__WB_3
 10
31.2965
 20
46.2152
 30
0
 70
     0
  0
SEQEND
  0
POLYLINE
  8
VOLVO_FM10__WB_3
  6
CONTINUOUS
 62
     7
 66
     1
 40
0.0139
 41
0.0139
  0
VERTEX
  8
VOLVO_FM10__WB_3
 10
2.8051
 20
10.8215
 30
0
 70
     0
  0
VERTEX
  8
VOLVO_FM10__WB_3
 10
8.7106
 20
10.8215
 30
0
 70
     0
  0
SEQEND
  0
POLYLINE
  8
VOLVO_FM10__WB_3
  6
CONTINUOUS
 62
     7
 66
     1
 40
0.0139
 41
0.0139
  0
VERTEX
  8
VOLVO_FM10__WB_3
 10
2.8051
 20
12.3963
 30
0
 70
     0
  0
VERTEX
  8
VOLVO_FM10__WB_3
 10
2.8051
 20
10.8215
 30
0
 70
     0
  0
SEQEND
  0
POLYLINE
  8
VOLVO_FM10__WB_3
  6
CONTINUOUS
 62
     7
 66
     1
 40
0.0139
 41
0.0139
  0
VERTEX
  8
VOLVO_FM10__WB_3
 10
8.7106
 20
9.2467
 30
0
 70
     0
  0
VERTEX
  8
VOLVO_FM10__WB_3
 10
0.8366
 20
9.2467
 30
0
 70
     0
  0
SEQEND
  0
POLYLINE
  8
VOLVO_FM10__WB_3
  6
CONTINUOUS
 62
     7
 66
     1
 40
0.0139
 41
0.0139
  0
VERTEX
  8
VOLVO_FM10__WB_3
 10
8.7106
 20
12.3963
 30
0
 70
     0
  0
VERTEX
  8
VOLVO_FM10__WB_3
 10
8.7106
 20
9.2467
 30
0
 70
     0
  0
SEQEND
  0
POLYLINE
  8
VOLVO_FM10__WB_3
  6
CONTINUOUS
 62
     7
 66
     1
 40
0.0139
 41
0.0139
  0
VERTEX
  8
VOLVO_FM10__WB_3
 10
0.8366
 20
12.3963
 30
0
 70
     0
  0
VERTEX
  8
VOLVO_FM10__WB_3
 10
8.7106
 20
12.3963
 30
0
 70
     0
  0
SEQEND
  0
POLYLINE
  8
VOLVO_FM10__WB_3
  6
CONTINUOUS
 62
     7
 66
     1
 40
0.0139
 41
0.0139
  0
VERTEX
  8
VOLVO_FM10__WB_3
 10
0.8366
 20
9.2467
 30
0
 70
     0
  0
VERTEX
  8
VOLVO_FM10__WB_3
 10
0.8366
 20
12.3963
 30
0
 70
     0
  0
SEQEND
  0
POLYLINE
  8
VOLVO_FM10__WB_3
  6
CONTINUOUS
 62
     7
 66
     1
 40
0.0139
 41
0.0139
  0
VERTEX
  8
VOLVO_FM10__WB_3
 10
4.3799
 20
50.5459
 30
0
 70
     0
  0
VERTEX
  8
VOLVO_FM10__WB_3
 10
22.5422
 20
50.5459
 30
0
 70
     0
  0
SEQEND
  0
POLYLINE
  8
VOLVO_FM10__WB_3
  6
CONTINUOUS
 62
     7
 66
     1
 40
0.0139
 41
0.0139
  0
VERTEX
  8
VOLVO_FM10__WB_3
 10
2.4114
 20
48.5774
 30
0
 70
     0
  0
VERTEX
  8
VOLVO_FM10__WB_3
 10
2.4214
 20
48.7787
 30
0
 70
     0
  0
VERTEX
  8
VOLVO_FM10__WB_3
 10
2.4512
 20
48.9741
 30
0
 70
     0
  0
VERTEX
  8
VOLVO_FM10__WB_3
 10
2.4996
 20
49.1628
 30
0
 70
     0
  0
VERTEX
  8
VOLVO_FM10__WB_3
 10
2.5658
 20
49.3437
 30
0
 70
     0
  0
VERTEX
  8
VOLVO_FM10__WB_3
 10
2.6486
 20
49.5159
 30
0
 70
     0
  0
VERTEX
  8
VOLVO_FM10__WB_3
 10
2.7472
 20
49.6782
 30
0
 70
     0
  0
VERTEX
  8
VOLVO_FM10__WB_3
 10
2.8606
 20
49.8298
 30
0
 70
     0
  0
VERTEX
  8
VOLVO_FM10__WB_3
 10
2.9877
 20
49.9696
 30
0
 70
     0
  0
VERTEX
  8
VOLVO_FM10__WB_3
 10
3.1275
 20
50.0967
 30
0
 70
     0
  0
VERTEX
  8
VOLVO_FM10__WB_3
 10
3.2791
 20
50.2101
 30
0
 70
     0
  0
VERTEX
  8
VOLVO_FM10__WB_3
 10
3.4414
 20
50.3087
 30
0
 70
     0
  0
VERTEX
  8
VOLVO_FM10__WB_3
 10
3.6136
 20
50.3916
 30
0
 70
     0
  0
VERTEX
  8
VOLVO_FM10__WB_3
 10
3.7945
 20
50.4577
 30
0
 70
     0
  0
VERTEX
  8
VOLVO_FM10__WB_3
 10
3.9832
 20
50.5061
 30
0
 70
     0
  0
VERTEX
  8
VOLVO_FM10__WB_3
 10
4.1786
 20
50.5359
 30
0
 70
     0
  0
VERTEX
  8
VOLVO_FM10__WB_3
 10
4.3799
 20
50.5459
 30
0
 70
     0
  0
SEQEND
  0
POLYLINE
  8
VOLVO_FM10__WB_3
  6
CONTINUOUS
 62
     7
 66
     1
 40
0.0139
 41
0.0139
  0
VERTEX
  8
VOLVO_FM10__WB_3
 10
2.4114
 20
31.2348
 30
0
 70
     0
  0
VERTEX
  8
VOLVO_FM10__WB_3
 10
2.4114
 20
48.5774
 30
0
 70
     0
  0
SEQEND
  0
POLYLINE
  8
VOLVO_FM10__WB_3
  6
CONTINUOUS
 62
     7
 66
     1
 40
0.0139
 41
0.0139
  0
VERTEX
  8
VOLVO_FM10__WB_3
 10
4.1023
 20
29.2859
 30
0
 70
     0
  0
VERTEX
  8
VOLVO_FM10__WB_3
 10
3.9234
 20
29.3197
 30
0
 70
     0
  0
VERTEX
  8
VOLVO_FM10__WB_3
 10
3.7511
 20
29.3689
 30
0
 70
     0
  0
VERTEX
  8
VOLVO_FM10__WB_3
 10
3.5859
 20
29.4328
 30
0
 70
     0
  0
VERTEX
  8
VOLVO_FM10__WB_3
 10
3.4287
 20
29.5106
 30
0
 70
     0
  0
VERTEX
  8
VOLVO_FM10__WB_3
 10
3.2801
 20
29.6014
 30
0
 70
     0
  0
VERTEX
  8
VOLVO_FM10__WB_3
 10
3.1408
 20
29.7045
 30
0
 70
     0
  0
VERTEX
  8
VOLVO_FM10__WB_3
 10
3.0115
 20
29.8191
 30
0
 70
     0
  0
VERTEX
  8
VOLVO_FM10__WB_3
 10
2.8928
 20
29.9443
 30
0
 70
     0
  0
VERTEX
  8
VOLVO_FM10__WB_3
 10
2.7856
 20
30.0794
 30
0
 70
     0
  0
VERTEX
  8
VOLVO_FM10__WB_3
 10
2.6904
 20
30.2236
 30
0
 70
     0
  0
VERTEX
  8
VOLVO_FM10__WB_3
 10
2.6079
 20
30.376
 30
0
 70
     0
  0
VERTEX
  8
VOLVO_FM10__WB_3
 10
2.5389
 20
30.5359
 30
0
 70
     0
  0
VERTEX
  8
VOLVO_FM10__WB_3
 10
2.4841
 20
30.7025
 30
0
 70
     0
  0
VERTEX
  8
VOLVO_FM10__WB_3
 10
2.4441
 20
30.875
 30
0
 70
     0
  0
VERTEX
  8
VOLVO_FM10__WB_3
 10
2.4197
 20
31.0526
 30
0
 70
     0
  0
VERTEX
  8
VOLVO_FM10__WB_3
 10
2.4114
 20
31.2344
 30
0
 70
     0
  0
SEQEND
  0
POLYLINE
  8
VOLVO_FM10__WB_3
  6
CONTINUOUS
 62
     7
 66
     1
 40
0.0139
 41
0.0139
  0
VERTEX
  8
VOLVO_FM10__WB_3
 10
22.5422
 20
50.5459
 30
0
 70
     0
  0
VERTEX
  8
VOLVO_FM10__WB_3
 10
22.6875
 20
50.5406
 30
0
 70
     0
  0
VERTEX
  8
VOLVO_FM10__WB_3
 10
22.8306
 20
50.5249
 30
0
 70
     0
  0
VERTEX
  8
VOLVO_FM10__WB_3
 10
22.971
 20
50.499
 30
0
 70
     0
  0
VERTEX
  8
VOLVO_FM10__WB_3
 10
23.1083
 20
50.4631
 30
0
 70
     0
  0
VERTEX
  8
VOLVO_FM10__WB_3
 10
23.242
 20
50.4177
 30
0
 70
     0
  0
VERTEX
  8
VOLVO_FM10__WB_3
 10
23.3717
 20
50.363
 30
0
 70
     0
  0
VERTEX
  8
VOLVO_FM10__WB_3
 10
23.4969
 20
50.2994
 30
0
 70
     0
  0
VERTEX
  8
VOLVO_FM10__WB_3
 10
23.6171
 20
50.227
 30
0
 70
     0
  0
VERTEX
  8
VOLVO_FM10__WB_3
 10
23.7318
 20
50.1463
 30
0
 70
     0
  0
VERTEX
  8
VOLVO_FM10__WB_3
 10
23.8406
 20
50.0575
 30
0
 70
     0
  0
VERTEX
  8
VOLVO_FM10__WB_3
 10
23.9431
 20
49.961
 30
0
 70
     0
  0
VERTEX
  8
VOLVO_FM10__WB_3
 10
24.0386
 20
49.857
 30
0
 70
     0
  0
VERTEX
  8
VOLVO_FM10__WB_3
 10
24.1269
 20
49.7458
 30
0
 70
     0
  0
VERTEX
  8
VOLVO_FM10__WB_3
 10
24.2073
 20
49.6278
 30
0
 70
     0
  0
VERTEX
  8
VOLVO_FM10__WB_3
 10
24.2795
 20
49.5033
 30
0
 70
     0
  0
VERTEX
  8
VOLVO_FM10__WB_3
 10
24.343
 20
49.3726
 30
0
 70
     0
  0
SEQEND
  0
POLYLINE
  8
VOLVO_FM10__WB_3
  6
CONTINUOUS
 62
     7
 66
     1
 40
0.0139
 41
0.0139
  0
VERTEX
  8
VOLVO_FM10__WB_3
 10
27.6636
 20
51.5695
 30
0
 70
     0
  0
VERTEX
  8
VOLVO_FM10__WB_3
 10
27.8095
 20
51.5642
 30
0
 70
     0
  0
VERTEX
  8
VOLVO_FM10__WB_3
 10
27.9532
 20
51.5483
 30
0
 70
     0
  0
VERTEX
  8
VOLVO_FM10__WB_3
 10
28.0943
 20
51.5222
 30
0
 70
     0
  0
VERTEX
  8
VOLVO_FM10__WB_3
 10
28.2321
 20
51.486
 30
0
 70
     0
  0
VERTEX
  8
VOLVO_FM10__WB_3
 10
28.3664
 20
51.4402
 30
0
 70
     0
  0
VERTEX
  8
VOLVO_FM10__WB_3
 10
28.4965
 20
51.3851
 30
0
 70
     0
  0
VERTEX
  8
VOLVO_FM10__WB_3
 10
28.6221
 20
51.3209
 30
0
 70
     0
  0
VERTEX
  8
VOLVO_FM10__WB_3
 10
28.7426
 20
51.2479
 30
0
 70
     0
  0
VERTEX
  8
VOLVO_FM10__WB_3
 10
28.8576
 20
51.1666
 30
0
 70
     0
  0
VERTEX
  8
VOLVO_FM10__WB_3
 10
28.9666
 20
51.0771
 30
0
 70
     0
  0
VERTEX
  8
VOLVO_FM10__WB_3
 10
29.0692
 20
50.9798
 30
0
 70
     0
  0
VERTEX
  8
VOLVO_FM10__WB_3
 10
29.1648
 20
50.875
 30
0
 70
     0
  0
VERTEX
  8
VOLVO_FM10__WB_3
 10
29.253
 20
50.7631
 30
0
 70
     0
  0
VERTEX
  8
VOLVO_FM10__WB_3
 10
29.3333
 20
50.6442
 30
0
 70
     0
  0
VERTEX
  8
VOLVO_FM10__WB_3
 10
29.4052
 20
50.5188
 30
0
 70
     0
  0
VERTEX
  8
VOLVO_FM10__WB_3
 10
29.4683
 20
50.3872
 30
0
 70
     0
  0
SEQEND
  0
POLYLINE
  8
VOLVO_FM10__WB_3
  6
CONTINUOUS
 62
     7
 66
     1
 40
0.0139
 41
0.0139
  0
VERTEX
  8
VOLVO_FM10__WB_3
 10
27.6636
 20
51.5695
 30
0
 70
     0
  0
VERTEX
  8
VOLVO_FM10__WB_3
 10
0.8366
 20
51.5695
 30
0
 70
     0
  0
SEQEND
  0
POLYLINE
  8
VOLVO_FM10__WB_3
  6
CONTINUOUS
 62
     7
 66
     1
 40
0.0139
 41
0.0139
  0
VERTEX
  8
VOLVO_FM10__WB_3
 10
-1.1319
 20
49.601
 30
0
 70
     0
  0
VERTEX
  8
VOLVO_FM10__WB_3
 10
-1.1319
 20
4.3254
 30
0
 70
     0
  0
SEQEND
  0
POLYLINE
  8
VOLVO_FM10__WB_3
  6
CONTINUOUS
 62
     7
 66
     1
 40
0.0139
 41
0.0139
  0
VERTEX
  8
VOLVO_FM10__WB_3
 10
-1.1319
 20
4.3254
 30
0
 70
     0
  0
VERTEX
  8
VOLVO_FM10__WB_3
 10
-0.4722
 20
4.3802
 30
0
 70
     0
  0
VERTEX
  8
VOLVO_FM10__WB_3
 10
0.1847
 20
4.4173
 30
0
 70
     0
  0
VERTEX
  8
VOLVO_FM10__WB_3
 10
0.8385
 20
4.4369
 30
0
 70
     0
  0
VERTEX
  8
VOLVO_FM10__WB_3
 10
1.489
 20
4.4394
 30
0
 70
     0
  0
VERTEX
  8
VOLVO_FM10__WB_3
 10
2.1361
 20
4.4248
 30
0
 70
     0
  0
VERTEX
  8
VOLVO_FM10__WB_3
 10
2.7794
 20
4.3934
 30
0
 70
     0
  0
VERTEX
  8
VOLVO_FM10__WB_3
 10
3.4187
 20
4.3453
 30
0
 70
     0
  0
VERTEX
  8
VOLVO_FM10__WB_3
 10
4.0538
 20
4.2809
 30
0
 70
     0
  0
VERTEX
  8
VOLVO_FM10__WB_3
 10
4.6845
 20
4.2002
 30
0
 70
     0
  0
VERTEX
  8
VOLVO_FM10__WB_3
 10
5.3105
 20
4.1035
 30
0
 70
     0
  0
VERTEX
  8
VOLVO_FM10__WB_3
 10
5.9317
 20
3.991
 30
0
 70
     0
  0
VERTEX
  8
VOLVO_FM10__WB_3
 10
6.5477
 20
3.8628
 30
0
 70
     0
  0
VERTEX
  8
VOLVO_FM10__WB_3
 10
7.1583
 20
3.7193
 30
0
 70
     0
  0
VERTEX
  8
VOLVO_FM10__WB_3
 10
7.7634
 20
3.5605
 30
0
 70
     0
  0
VERTEX
  8
VOLVO_FM10__WB_3
 10
8.3627
 20
3.3868
 30
0
 70
     0
  0
VERTEX
  8
VOLVO_FM10__WB_3
 10
8.9559
 20
3.1982
 30
0
 70
     0
  0
VERTEX
  8
VOLVO_FM10__WB_3
 10
9.5428
 20
2.995
 30
0
 70
     0
  0
VERTEX
  8
VOLVO_FM10__WB_3
 10
10.1232
 20
2.7774
 30
0
 70
     0
  0
VERTEX
  8
VOLVO_FM10__WB_3
 10
10.6969
 20
2.5457
 30
0
 70
     0
  0
VERTEX
  8
VOLVO_FM10__WB_3
 10
11.2636
 20
2.2999
 30
0
 70
     0
  0
VERTEX
  8
VOLVO_FM10__WB_3
 10
11.8231
 20
2.0404
 30
0
 70
     0
  0
VERTEX
  8
VOLVO_FM10__WB_3
 10
12.3752
 20
1.7672
 30
0
 70
     0
  0
VERTEX
  8
VOLVO_FM10__WB_3
 10
12.9196
 20
1.4807
 30
0
 70
     0
  0
VERTEX
  8
VOLVO_FM10__WB_3
 10
13.4562
 20
1.181
 30
0
 70
     0
  0
VERTEX
  8
VOLVO_FM10__WB_3
 10
13.9846
 20
0.8683
 30
0
 70
     0
  0
VERTEX
  8
VOLVO_FM10__WB_3
 10
14.5046
 20
0.5428
 30
0
 70
     0
  0
VERTEX
  8
VOLVO_FM10__WB_3
 10
15.0161
 20
0.2047
 30
0
 70
     0
  0
VERTEX
  8
VOLVO_FM10__WB_3
 10
15.5187
 20
-0.1457
 30
0
 70
     0
  0
VERTEX
  8
VOLVO_FM10__WB_3
 10
16.0123
 20
-0.5083
 30
0
 70
     0
  0
VERTEX
  8
VOLVO_FM10__WB_3
 10
16.4967
 20
-0.8829
 30
0
 70
     0
  0
VERTEX
  8
VOLVO_FM10__WB_3
 10
16.9715
 20
-1.2692
 30
0
 70
     0
  0
VERTEX
  8
VOLVO_FM10__WB_3
 10
17.4366
 20
-1.6672
 30
0
 70
     0
  0
VERTEX
  8
VOLVO_FM10__WB_3
 10
17.8917
 20
-2.0764
 30
0
 70
     0
  0
VERTEX
  8
VOLVO_FM10__WB_3
 10
18.3366
 20
-2.4969
 30
0
 70
     0
  0
VERTEX
  8
VOLVO_FM10__WB_3
 10
18.7711
 20
-2.9283
 30
0
 70
     0
  0
VERTEX
  8
VOLVO_FM10__WB_3
 10
19.1949
 20
-3.3704
 30
0
 70
     0
  0
VERTEX
  8
VOLVO_FM10__WB_3
 10
19.6079
 20
-3.8232
 30
0
 70
     0
  0
VERTEX
  8
VOLVO_FM10__WB_3
 10
20.0097
 20
-4.2862
 30
0
 70
     0
  0
VERTEX
  8
VOLVO_FM10__WB_3
 10
20.4001
 20
-4.7594
 30
0
 70
     0
  0
VERTEX
  8
VOLVO_FM10__WB_3
 10
20.779
 20
-5.2426
 30
0
 70
     0
  0
VERTEX
  8
VOLVO_FM10__WB_3
 10
21.1461
 20
-5.7355
 30
0
 70
     0
  0
VERTEX
  8
VOLVO_FM10__WB_3
 10
21.5011
 20
-6.238
 30
0
 70
     0
  0
VERTEX
  8
VOLVO_FM10__WB_3
 10
21.8439
 20
-6.7497
 30
0
 70
     0
  0
VERTEX
  8
VOLVO_FM10__WB_3
 10
22.1741
 20
-7.2707
 30
0
 70
     0
  0
VERTEX
  8
VOLVO_FM10__WB_3
 10
22.4916
 20
-7.8005
 30
0
 70
     0
  0
VERTEX
  8
VOLVO_FM10__WB_3
 10
22.7961
 20
-8.3391
 30
0
 70
     0
  0
VERTEX
  8
VOLVO_FM10__WB_3
 10
23.0875
 20
-8.8863
 30
0
 70
     0
  0
VERTEX
  8
VOLVO_FM10__WB_3
 10
23.3654
 20
-9.4417
 30
0
 70
     0
  0
VERTEX
  8
VOLVO_FM10__WB_3
 10
23.6296
 20
-10.0053
 30
0
 70
     0
  0
VERTEX
  8
VOLVO_FM10__WB_3
 10
23.88
 20
-10.5768
 30
0
 70
     0
  0
VERTEX
  8
VOLVO_FM10__WB_3
 10
24.1162
 20
-11.1561
 30
0
 70
     0
  0
VERTEX
  8
VOLVO_FM10__WB_3
 10
24.3381
 20
-11.7428
 30
0
 70
     0
  0
VERTEX
  8
VOLVO_FM10__WB_3
 10
24.5454
 20
-12.3369
 30
0
 70
     0
  0
VERTEX
  8
VOLVO_FM10__WB_3
 10
24.7379
 20
-12.938
 30
0
 70
     0
  0
VERTEX
  8
VOLVO_FM10__WB_3
 10
24.9153
 20
-13.5461
 30
0
 70
     0
  0
VERTEX
  8
VOLVO_FM10__WB_3
 10
25.0775
 20
-14.1609
 30
0
 70
     0
  0
VERTEX
  8
VOLVO_FM10__WB_3
 10
25.2241
 20
-14.7823
 30
0
 70
     0
  0
VERTEX
  8
VOLVO_FM10__WB_3
 10
25.3551
 20
-15.4099
 30
0
 70
     0
  0
VERTEX
  8
VOLVO_FM10__WB_3
 10
25.47
 20
-16.0436
 30
0
 70
     0
  0
VERTEX
  8
VOLVO_FM10__WB_3
 10
25.5688
 20
-16.6832
 30
0
 70
     0
  0
VERTEX
  8
VOLVO_FM10__WB_3
 10
25.6511
 20
-17.3285
 30
0
 70
     0
  0
VERTEX
  8
VOLVO_FM10__WB_3
 10
25.7168
 20
-17.9793
 30
0
 70
     0
  0
VERTEX
  8
VOLVO_FM10__WB_3
 10
25.7656
 20
-18.6354
 30
0
 70
     0
  0
VERTEX
  8
VOLVO_FM10__WB_3
 10
25.7972
 20
-19.2966
 30
0
 70
     0
  0
SEQEND
  0
POLYLINE
  8
VOLVO_FM10__WB_3
  6
CONTINUOUS
 62
     7
 66
     1
 40
0.0139
 41
0.0139
  0
VERTEX
  8
VOLVO_FM10__WB_3
 10
41.5453
 20
-19.2966
 30
0
 70
     0
  0
VERTEX
  8
VOLVO_FM10__WB_3
 10
42.1752
 20
-19.2966
 30
0
 70
     0
  0
SEQEND
  0
POLYLINE
  8
VOLVO_FM10__WB_3
  6
CONTINUOUS
 62
     7
 66
     1
 40
0.0139
 41
0.0139
  0
VERTEX
  8
VOLVO_FM10__WB_3
 10
42.1752
 20
-19.2966
 30
0
 70
     0
  0
VERTEX
  8
VOLVO_FM10__WB_3
 10
42.1752
 20
20.8078
 30
0
 70
     0
  0
SEQEND
  0
POLYLINE
  8
VOLVO_FM10__WB_3
  6
CONTINUOUS
 62
     7
 66
     1
 40
0.0139
 41
0.0139
  0
VERTEX
  8
VOLVO_FM10__WB_3
 10
42.0114
 20
21.594
 30
0
 70
     0
  0
VERTEX
  8
VOLVO_FM10__WB_3
 10
42.0827
 20
21.4046
 30
0
 70
     0
  0
VERTEX
  8
VOLVO_FM10__WB_3
 10
42.134
 20
21.2094
 30
0
 70
     0
  0
VERTEX
  8
VOLVO_FM10__WB_3
 10
42.152
 20
21.1101
 30
0
 70
     0
  0
VERTEX
  8
VOLVO_FM10__WB_3
 10
42.1649
 20
21.0099
 30
0
 70
     0
  0
VERTEX
  8
VOLVO_FM10__WB_3
 10
42.1727
 20
20.9091
 30
0
 70
     0
  0
VERTEX
  8
VOLVO_FM10__WB_3
 10
42.1752
 20
20.8078
 30
0
 70
     0
  0
SEQEND
  0
POLYLINE
  8
VOLVO_FM10__WB_3
  6
CONTINUOUS
 62
     7
 66
     1
 40
0.0139
 41
0.0139
  0
VERTEX
  8
VOLVO_FM10__WB_3
 10
42.0114
 20
21.594
 30
0
 70
     0
  0
VERTEX
  8
VOLVO_FM10__WB_3
 10
37.0404
 20
33.0051
 30
0
 70
     0
  0
SEQEND
  0
POLYLINE
  8
VOLVO_FM10__WB_3
  6
CONTINUOUS
 62
     7
 66
     1
 40
0.0139
 41
0.0139
  0
VERTEX
  8
VOLVO_FM10__WB_3
 10
25.7972
 20
-19.2966
 30
0
 70
     0
  0
VERTEX
  8
VOLVO_FM10__WB_3
 10
41.5453
 20
-19.2966
 30
0
 70
     0
  0
SEQEND
  0
POLYLINE
  8
VOLVO_FM10__WB_3
  6
CONTINUOUS
 62
     7
 66
     1
 40
0.0139
 41
0.0139
  0
VERTEX
  8
VOLVO_FM10__WB_3
 10
-1.1319
 20
49.601
 30
0
 70
     0
  0
VERTEX
  8
VOLVO_FM10__WB_3
 10
-1.1219
 20
49.8023
 30
0
 70
     0
  0
VERTEX
  8
VOLVO_FM10__WB_3
 10
-1.0921
 20
49.9978
 30
0
 70
     0
  0
VERTEX
  8
VOLVO_FM10__WB_3
 10
-1.0437
 20
50.1865
 30
0
 70
     0
  0
VERTEX
  8
VOLVO_FM10__WB_3
 10
-0.9776
 20
50.3674
 30
0
 70
     0
  0
VERTEX
  8
VOLVO_FM10__WB_3
 10
-0.8947
 20
50.5395
 30
0
 70
     0
  0
VERTEX
  8
VOLVO_FM10__WB_3
 10
-0.7961
 20
50.7018
 30
0
 70
     0
  0
VERTEX
  8
VOLVO_FM10__WB_3
 10
-0.6827
 20
50.8534
 30
0
 70
     0
  0
VERTEX
  8
VOLVO_FM10__WB_3
 10
-0.5556
 20
50.9933
 30
0
 70
     0
  0
VERTEX
  8
VOLVO_FM10__WB_3
 10
-0.4158
 20
51.1204
 30
0
 70
     0
  0
VERTEX
  8
VOLVO_FM10__WB_3
 10
-0.2642
 20
51.2337
 30
0
 70
     0
  0
VERTEX
  8
VOLVO_FM10__WB_3
 10
-0.1019
 20
51.3323
 30
0
 70
     0
  0
VERTEX
  8
VOLVO_FM10__WB_3
 10
0.0703
 20
51.4152
 30
0
 70
     0
  0
VERTEX
  8
VOLVO_FM10__WB_3
 10
0.2512
 20
51.4813
 30
0
 70
     0
  0
VERTEX
  8
VOLVO_FM10__WB_3
 10
0.4399
 20
51.5298
 30
0
 70
     0
  0
VERTEX
  8
VOLVO_FM10__WB_3
 10
0.6353
 20
51.5595
 30
0
 70
     0
  0
VERTEX
  8
VOLVO_FM10__WB_3
 10
0.8366
 20
51.5695
 30
0
 70
     0
  0
SEQEND
  0
POLYLINE
  8
VOLVO_FM10__WB_3
  6
CONTINUOUS
 62
     7
 66
     1
 40
0.0139
 41
0.0139
  0
VERTEX
  8
VOLVO_FM10__WB_3
 10
25.7972
 20
-30.3203
 30
0
 70
     0
  0
VERTEX
  8
VOLVO_FM10__WB_3
 10
25.7972
 20
-19.2966
 30
0
 70
     0
  0
SEQEND
  0
POLYLINE
  8
VOLVO_FM10__WB_3
  6
CONTINUOUS
 62
     7
 66
     1
 40
0.0139
 41
0.0139
  0
VERTEX
  8
VOLVO_FM10__WB_3
 10
41.5453
 20
-30.3203
 30
0
 70
     0
  0
VERTEX
  8
VOLVO_FM10__WB_3
 10
25.7972
 20
-30.3203
 30
0
 70
     0
  0
SEQEND
  0
POLYLINE
  8
VOLVO_FM10__WB_3
  6
CONTINUOUS
 62
     7
 66
     1
 40
0.0139
 41
0.0139
  0
VERTEX
  8
VOLVO_FM10__WB_3
 10
41.5453
 20
-19.2966
 30
0
 70
     0
  0
VERTEX
  8
VOLVO_FM10__WB_3
 10
41.5453
 20
-30.3203
 30
0
 70
     0
  0
SEQEND
  0
POLYLINE
  8
VOLVO_FM10__WB_3
  6
CONTINUOUS
 62
     7
 66
     1
 40
0.0139
 41
0.0139
  0
VERTEX
  8
VOLVO_FM10__WB_3
 10
51.7815
 20
-22.8399
 30
0
 70
     0
  0
VERTEX
  8
VOLVO_FM10__WB_3
 10
51.8821
 20
-22.845
 30
0
 70
     0
  0
VERTEX
  8
VOLVO_FM10__WB_3
 10
51.9799
 20
-22.8598
 30
0
 70
     0
  0
VERTEX
  8
VOLVO_FM10__WB_3
 10
52.0742
 20
-22.884
 30
0
 70
     0
  0
VERTEX
  8
VOLVO_FM10__WB_3
 10
52.1647
 20
-22.9171
 30
0
 70
     0
  0
VERTEX
  8
VOLVO_FM10__WB_3
 10
52.2507
 20
-22.9585
 30
0
 70
     0
  0
VERTEX
  8
VOLVO_FM10__WB_3
 10
52.3319
 20
-23.0078
 30
0
 70
     0
  0
VERTEX
  8
VOLVO_FM10__WB_3
 10
52.4077
 20
-23.0645
 30
0
 70
     0
  0
VERTEX
  8
VOLVO_FM10__WB_3
 10
52.4776
 20
-23.1281
 30
0
 70
     0
  0
VERTEX
  8
VOLVO_FM10__WB_3
 10
52.5412
 20
-23.198
 30
0
 70
     0
  0
VERTEX
  8
VOLVO_FM10__WB_3
 10
52.5978
 20
-23.2738
 30
0
 70
     0
  0
VERTEX
  8
VOLVO_FM10__WB_3
 10
52.6472
 20
-23.355
 30
0
 70
     0
  0
VERTEX
  8
VOLVO_FM10__WB_3
 10
52.6886
 20
-23.441
 30
0
 70
     0
  0
VERTEX
  8
VOLVO_FM10__WB_3
 10
52.7217
 20
-23.5315
 30
0
 70
     0
  0
VERTEX
  8
VOLVO_FM10__WB_3
 10
52.7459
 20
-23.6258
 30
0
 70
     0
  0
VERTEX
  8
VOLVO_FM10__WB_3
 10
52.7607
 20
-23.7236
 30
0
 70
     0
  0
VERTEX
  8
VOLVO_FM10__WB_3
 10
52.7658
 20
-23.8242
 30
0
 70
     0
  0
SEQEND
  0
POLYLINE
  8
VOLVO_FM10__WB_3
  6
CONTINUOUS
 62
     7
 66
     1
 40
0.0139
 41
0.0139
  0
VERTEX
  8
VOLVO_FM10__WB_3
 10
52.7658
 20
-27.761
 30
0
 70
     0
  0
VERTEX
  8
VOLVO_FM10__WB_3
 10
52.7608
 20
-27.8616
 30
0
 70
     0
  0
VERTEX
  8
VOLVO_FM10__WB_3
 10
52.7459
 20
-27.9594
 30
0
 70
     0
  0
VERTEX
  8
VOLVO_FM10__WB_3
 10
52.7217
 20
-28.0537
 30
0
 70
     0
  0
VERTEX
  8
VOLVO_FM10__WB_3
 10
52.6887
 20
-28.1442
 30
0
 70
     0
  0
VERTEX
  8
VOLVO_FM10__WB_3
 10
52.6473
 20
-28.2302
 30
0
 70
     0
  0
VERTEX
  8
VOLVO_FM10__WB_3
 10
52.598
 20
-28.3114
 30
0
 70
     0
  0
VERTEX
  8
VOLVO_FM10__WB_3
 10
52.5413
 20
-28.3872
 30
0
 70
     0
  0
VERTEX
  8
VOLVO_FM10__WB_3
 10
52.4778
 20
-28.4571
 30
0
 70
     0
  0
VERTEX
  8
VOLVO_FM10__WB_3
 10
52.4079
 20
-28.5207
 30
0
 70
     0
  0
VERTEX
  8
VOLVO_FM10__WB_3
 10
52.3322
 20
-28.5774
 30
0
 70
     0
  0
VERTEX
  8
VOLVO_FM10__WB_3
 10
52.251
 20
-28.6267
 30
0
 70
     0
  0
VERTEX
  8
VOLVO_FM10__WB_3
 10
52.165
 20
-28.6682
 30
0
 70
     0
  0
VERTEX
  8
VOLVO_FM10__WB_3
 10
52.0745
 20
-28.7013
 30
0
 70
     0
  0
VERTEX
  8
VOLVO_FM10__WB_3
 10
51.9802
 20
-28.7255
 30
0
 70
     0
  0
VERTEX
  8
VOLVO_FM10__WB_3
 10
51.8825
 20
-28.7404
 30
0
 70
     0
  0
VERTEX
  8
VOLVO_FM10__WB_3
 10
51.7819
 20
-28.7455
 30
0
 70
     0
  0
SEQEND
  0
POLYLINE
  8
VOLVO_FM10__WB_3
  6
CONTINUOUS
 62
     7
 66
     1
 40
0.0139
 41
0.0139
  0
VERTEX
  8
VOLVO_FM10__WB_3
 10
51.7815
 20
-22.8399
 30
0
 70
     0
  0
VERTEX
  8
VOLVO_FM10__WB_3
 10
50.7972
 20
-22.8399
 30
0
 70
     0
  0
SEQEND
  0
POLYLINE
  8
VOLVO_FM10__WB_3
  6
CONTINUOUS
 62
     7
 66
     1
 40
0.0139
 41
0.0139
  0
VERTEX
  8
VOLVO_FM10__WB_3
 10
52.7658
 20
-14.0799
 30
0
 70
     0
  0
VERTEX
  8
VOLVO_FM10__WB_3
 10
52.7608
 20
-14.1805
 30
0
 70
     0
  0
VERTEX
  8
VOLVO_FM10__WB_3
 10
52.7459
 20
-14.2783
 30
0
 70
     0
  0
VERTEX
  8
VOLVO_FM10__WB_3
 10
52.7217
 20
-14.3726
 30
0
 70
     0
  0
VERTEX
  8
VOLVO_FM10__WB_3
 10
52.6887
 20
-14.4631
 30
0
 70
     0
  0
VERTEX
  8
VOLVO_FM10__WB_3
 10
52.6473
 20
-14.5491
 30
0
 70
     0
  0
VERTEX
  8
VOLVO_FM10__WB_3
 10
52.598
 20
-14.6303
 30
0
 70
     0
  0
VERTEX
  8
VOLVO_FM10__WB_3
 10
52.5413
 20
-14.7061
 30
0
 70
     0
  0
VERTEX
  8
VOLVO_FM10__WB_3
 10
52.4778
 20
-14.776
 30
0
 70
     0
  0
VERTEX
  8
VOLVO_FM10__WB_3
 10
52.4079
 20
-14.8396
 30
0
 70
     0
  0
VERTEX
  8
VOLVO_FM10__WB_3
 10
52.3322
 20
-14.8963
 30
0
 70
     0
  0
VERTEX
  8
VOLVO_FM10__WB_3
 10
52.251
 20
-14.9456
 30
0
 70
     0
  0
VERTEX
  8
VOLVO_FM10__WB_3
 10
52.165
 20
-14.9871
 30
0
 70
     0
  0
VERTEX
  8
VOLVO_FM10__WB_3
 10
52.0745
 20
-15.0202
 30
0
 70
     0
  0
VERTEX
  8
VOLVO_FM10__WB_3
 10
51.9802
 20
-15.0444
 30
0
 70
     0
  0
VERTEX
  8
VOLVO_FM10__WB_3
 10
51.8825
 20
-15.0593
 30
0
 70
     0
  0
VERTEX
  8
VOLVO_FM10__WB_3
 10
51.7819
 20
-15.0644
 30
0
 70
     0
  0
SEQEND
  0
POLYLINE
  8
VOLVO_FM10__WB_3
  6
CONTINUOUS
 62
     7
 66
     1
 40
0.0139
 41
0.0139
  0
VERTEX
  8
VOLVO_FM10__WB_3
 10
51.7815
 20
-7.1903
 30
0
 70
     0
  0
VERTEX
  8
VOLVO_FM10__WB_3
 10
51.8821
 20
-7.1953
 30
0
 70
     0
  0
VERTEX
  8
VOLVO_FM10__WB_3
 10
51.9799
 20
-7.2102
 30
0
 70
     0
  0
VERTEX
  8
VOLVO_FM10__WB_3
 10
52.0742
 20
-7.2344
 30
0
 70
     0
  0
VERTEX
  8
VOLVO_FM10__WB_3
 10
52.1647
 20
-7.2675
 30
0
 70
     0
  0
VERTEX
  8
VOLVO_FM10__WB_3
 10
52.2507
 20
-7.3089
 30
0
 70
     0
  0
VERTEX
  8
VOLVO_FM10__WB_3
 10
52.3319
 20
-7.3582
 30
0
 70
     0
  0
VERTEX
  8
VOLVO_FM10__WB_3
 10
52.4077
 20
-7.4149
 30
0
 70
     0
  0
VERTEX
  8
VOLVO_FM10__WB_3
 10
52.4776
 20
-7.4785
 30
0
 70
     0
  0
VERTEX
  8
VOLVO_FM10__WB_3
 10
52.5412
 20
-7.5484
 30
0
 70
     0
  0
VERTEX
  8
VOLVO_FM10__WB_3
 10
52.5978
 20
-7.6242
 30
0
 70
     0
  0
VERTEX
  8
VOLVO_FM10__WB_3
 10
52.6472
 20
-7.7053
 30
0
 70
     0
  0
VERTEX
  8
VOLVO_FM10__WB_3
 10
52.6886
 20
-7.7914
 30
0
 70
     0
  0
VERTEX
  8
VOLVO_FM10__WB_3
 10
52.7217
 20
-7.8819
 30
0
 70
     0
  0
VERTEX
  8
VOLVO_FM10__WB_3
 10
52.7459
 20
-7.9762
 30
0
 70
     0
  0
VERTEX
  8
VOLVO_FM10__WB_3
 10
52.7607
 20
-8.0739
 30
0
 70
     0
  0
VERTEX
  8
VOLVO_FM10__WB_3
 10
52.7658
 20
-8.1746
 30
0
 70
     0
  0
SEQEND
  0
POLYLINE
  8
VOLVO_FM10__WB_3
  6
CONTINUOUS
 62
     7
 66
     1
 40
0.0139
 41
0.0139
  0
VERTEX
  8
VOLVO_FM10__WB_3
 10
51.7815
 20
-28.7455
 30
0
 70
     0
  0
VERTEX
  8
VOLVO_FM10__WB_3
 10
50.7972
 20
-28.7455
 30
0
 70
     0
  0
SEQEND
  0
POLYLINE
  8
VOLVO_FM10__WB_3
  6
CONTINUOUS
 62
     7
 66
     1
 40
0.0139
 41
0.0139
  0
VERTEX
  8
VOLVO_FM10__WB_3
 10
51.7815
 20
-7.1903
 30
0
 70
     0
  0
VERTEX
  8
VOLVO_FM10__WB_3
 10
49.813
 20
-7.1903
 30
0
 70
     0
  0
SEQEND
  0
POLYLINE
  8
VOLVO_FM10__WB_3
  6
CONTINUOUS
 62
     7
 66
     1
 40
0.0139
 41
0.0139
  0
VERTEX
  8
VOLVO_FM10__WB_3
 10
53.75
 20
-23.8242
 30
0
 70
     0
  0
VERTEX
  8
VOLVO_FM10__WB_3
 10
53.75
 20
-27.7612
 30
0
 70
     0
  0
SEQEND
  0
POLYLINE
  8
VOLVO_FM10__WB_3
  6
CONTINUOUS
 62
     7
 66
     1
 40
0.0139
 41
0.0139
  0
VERTEX
  8
VOLVO_FM10__WB_3
 10
51.7815
 20
-15.0644
 30
0
 70
     0
  0
VERTEX
  8
VOLVO_FM10__WB_3
 10
49.813
 20
-15.0644
 30
0
 70
     0
  0
SEQEND
  0
POLYLINE
  8
VOLVO_FM10__WB_3
  6
CONTINUOUS
 62
     7
 66
     1
 40
0.0139
 41
0.0139
  0
VERTEX
  8
VOLVO_FM10__WB_3
 10
53.9469
 20
-7.1903
 30
0
 70
     0
  0
VERTEX
  8
VOLVO_FM10__WB_3
 10
53.9469
 20
-6.2061
 30
0
 70
     0
  0
SEQEND
  0
POLYLINE
  8
VOLVO_FM10__WB_3
  6
CONTINUOUS
 62
     7
 66
     1
 40
0.0139
 41
0.0139
  0
VERTEX
  8
VOLVO_FM10__WB_3
 10
53.75
 20
-8.1746
 30
0
 70
     0
  0
VERTEX
  8
VOLVO_FM10__WB_3
 10
53.75
 20
-14.0801
 30
0
 70
     0
  0
SEQEND
  0
POLYLINE
  8
VOLVO_FM10__WB_3
  6
CONTINUOUS
 62
     7
 66
     1
 40
0.0139
 41
0.0139
  0
VERTEX
  8
VOLVO_FM10__WB_3
 10
53.75
 20
-7.1903
 30
0
 70
     0
  0
VERTEX
  8
VOLVO_FM10__WB_3
 10
53.9469
 20
-7.1903
 30
0
 70
     0
  0
SEQEND
  0
POLYLINE
  8
VOLVO_FM10__WB_3
  6
CONTINUOUS
 62
     7
 66
     1
 40
0.0139
 41
0.0139
  0
VERTEX
  8
VOLVO_FM10__WB_3
 10
53.75
 20
-6.2061
 30
0
 70
     0
  0
VERTEX
  8
VOLVO_FM10__WB_3
 10
53.9469
 20
-6.2061
 30
0
 70
     0
  0
SEQEND
  0
POLYLINE
  8
VOLVO_FM10__WB_3
  6
CONTINUOUS
 62
     7
 66
     1
 40
0.0139
 41
0.0139
  0
VERTEX
  8
VOLVO_FM10__WB_3
 10
53.9469
 20
-16.0486
 30
0
 70
     0
  0
VERTEX
  8
VOLVO_FM10__WB_3
 10
53.9469
 20
-15.0644
 30
0
 70
     0
  0
SEQEND
  0
POLYLINE
  8
VOLVO_FM10__WB_3
  6
CONTINUOUS
 62
     7
 66
     1
 40
0.0139
 41
0.0139
  0
VERTEX
  8
VOLVO_FM10__WB_3
 10
53.75
 20
-15.0644
 30
0
 70
     0
  0
VERTEX
  8
VOLVO_FM10__WB_3
 10
53.9469
 20
-15.0644
 30
0
 70
     0
  0
SEQEND
  0
POLYLINE
  8
VOLVO_FM10__WB_3
  6
CONTINUOUS
 62
     7
 66
     1
 40
0.0139
 41
0.0139
  0
VERTEX
  8
VOLVO_FM10__WB_3
 10
53.75
 20
-16.0486
 30
0
 70
     0
  0
VERTEX
  8
VOLVO_FM10__WB_3
 10
53.9469
 20
-16.0486
 30
0
 70
     0
  0
SEQEND
  0
POLYLINE
  8
VOLVO_FM10__WB_3
  6
CONTINUOUS
 62
     7
 66
     1
 40
0.0139
 41
0.0139
  0
VERTEX
  8
VOLVO_FM10__WB_3
 10
53.75
 20
-12.1116
 30
0
 70
     0
  0
VERTEX
  8
VOLVO_FM10__WB_3
 10
53.9469
 20
-12.1116
 30
0
 70
     0
  0
SEQEND
  0
POLYLINE
  8
VOLVO_FM10__WB_3
  6
CONTINUOUS
 62
     7
 66
     1
 40
0.0139
 41
0.0139
  0
VERTEX
  8
VOLVO_FM10__WB_3
 10
53.9469
 20
-13.0958
 30
0
 70
     0
  0
VERTEX
  8
VOLVO_FM10__WB_3
 10
53.9469
 20
-12.1116
 30
0
 70
     0
  0
SEQEND
  0
POLYLINE
  8
VOLVO_FM10__WB_3
  6
CONTINUOUS
 62
     7
 66
     1
 40
0.0139
 41
0.0139
  0
VERTEX
  8
VOLVO_FM10__WB_3
 10
53.75
 20
-13.0958
 30
0
 70
     0
  0
VERTEX
  8
VOLVO_FM10__WB_3
 10
53.9469
 20
-13.0958
 30
0
 70
     0
  0
SEQEND
  0
POLYLINE
  8
VOLVO_FM10__WB_3
  6
CONTINUOUS
 62
     7
 66
     1
 40
0.0139
 41
0.0139
  0
VERTEX
  8
VOLVO_FM10__WB_3
 10
53.9469
 20
-10.1431
 30
0
 70
     0
  0
VERTEX
  8
VOLVO_FM10__WB_3
 10
53.9469
 20
-9.1588
 30
0
 70
     0
  0
SEQEND
  0
POLYLINE
  8
VOLVO_FM10__WB_3
  6
CONTINUOUS
 62
     7
 66
     1
 40
0.0139
 41
0.0139
  0
VERTEX
  8
VOLVO_FM10__WB_3
 10
53.75
 20
-9.1588
 30
0
 70
     0
  0
VERTEX
  8
VOLVO_FM10__WB_3
 10
53.9469
 20
-9.1588
 30
0
 70
     0
  0
SEQEND
  0
POLYLINE
  8
VOLVO_FM10__WB_3
  6
CONTINUOUS
 62
     7
 66
     1
 40
0.0139
 41
0.0139
  0
VERTEX
  8
VOLVO_FM10__WB_3
 10
53.75
 20
-10.1431
 30
0
 70
     0
  0
VERTEX
  8
VOLVO_FM10__WB_3
 10
53.9469
 20
-10.1431
 30
0
 70
     0
  0
SEQEND
  0
POLYLINE
  8
VOLVO_FM10__WB_3
  6
CONTINUOUS
 62
     7
 66
     1
 40
0.0139
 41
0.0139
  0
VERTEX
  8
VOLVO_FM10__WB_3
 10
52.2523
 20
-3.4101
 30
0
 70
     0
  0
VERTEX
  8
VOLVO_FM10__WB_3
 10
52.0808
 20
-5.3711
 30
0
 70
     0
  0
SEQEND
  0
POLYLINE
  8
VOLVO_FM10__WB_3
  6
CONTINUOUS
 62
     7
 66
     1
 40
0.0139
 41
0.0139
  0
VERTEX
  8
VOLVO_FM10__WB_3
 10
48.2212
 20
-3.0574
 30
0
 70
     0
  0
VERTEX
  8
VOLVO_FM10__WB_3
 10
48.0496
 20
-5.0184
 30
0
 70
     0
  0
SEQEND
  0
POLYLINE
  8
VOLVO_FM10__WB_3
  6
CONTINUOUS
 62
     7
 66
     1
 40
0.0139
 41
0.0139
  0
VERTEX
  8
VOLVO_FM10__WB_3
 10
43.8557
 20
-2.6754
 30
0
 70
     0
  0
VERTEX
  8
VOLVO_FM10__WB_3
 10
43.6842
 20
-4.6365
 30
0
 70
     0
  0
SEQEND
  0
POLYLINE
  8
VOLVO_FM10__WB_3
  6
CONTINUOUS
 62
     7
 66
     1
 40
0.0139
 41
0.0139
  0
VERTEX
  8
VOLVO_FM10__WB_3
 10
45.876
 20
-2.8522
 30
0
 70
     0
  0
VERTEX
  8
VOLVO_FM10__WB_3
 10
53.75
 20
-3.5411
 30
0
 70
     0
  0
SEQEND
  0
POLYLINE
  8
VOLVO_FM10__WB_3
  6
CONTINUOUS
 62
     7
 66
     1
 40
0.0139
 41
0.0139
  0
VERTEX
  8
VOLVO_FM10__WB_3
 10
45.876
 20
-4.8282
 30
0
 70
     0
  0
VERTEX
  8
VOLVO_FM10__WB_3
 10
53.75
 20
-5.5171
 30
0
 70
     0
  0
SEQEND
  0
POLYLINE
  8
VOLVO_FM10__WB_3
  6
CONTINUOUS
 62
     7
 66
     1
 40
0.0139
 41
0.0139
  0
VERTEX
  8
VOLVO_FM10__WB_3
 10
45.876
 20
-4.8282
 30
0
 70
     0
  0
VERTEX
  8
VOLVO_FM10__WB_3
 10
43.6842
 20
-4.6365
 30
0
 70
     0
  0
SEQEND
  0
POLYLINE
  8
VOLVO_FM10__WB_3
  6
CONTINUOUS
 62
     7
 66
     1
 40
0.0139
 41
0.0139
  0
VERTEX
  8
VOLVO_FM10__WB_3
 10
45.876
 20
-2.8522
 30
0
 70
     0
  0
VERTEX
  8
VOLVO_FM10__WB_3
 10
43.8557
 20
-2.6754
 30
0
 70
     0
  0
SEQEND
  0
POLYLINE
  8
VOLVO_FM10__WB_3
  6
CONTINUOUS
 62
     7
 66
     1
 40
0.0139
 41
0.0139
  0
VERTEX
  8
VOLVO_FM10__WB_3
 10
52.7658
 20
-16.7376
 30
0
 70
     0
  0
VERTEX
  8
VOLVO_FM10__WB_3
 10
52.7658
 20
-20.084
 30
0
 70
     0
  0
SEQEND
  0
POLYLINE
  8
VOLVO_FM10__WB_3
  6
CONTINUOUS
 62
     7
 66
     1
 40
0.0139
 41
0.0139
  0
VERTEX
  8
VOLVO_FM10__WB_3
 10
42.3327
 20
-16.7376
 30
0
 70
     0
  0
VERTEX
  8
VOLVO_FM10__WB_3
 10
42.3327
 20
-20.084
 30
0
 70
     0
  0
SEQEND
  0
POLYLINE
  8
VOLVO_FM10__WB_3
  6
CONTINUOUS
 62
     7
 66
     1
 40
0.0139
 41
0.0139
  0
VERTEX
  8
VOLVO_FM10__WB_3
 10
53.75
 20
-20.084
 30
0
 70
     0
  0
VERTEX
  8
VOLVO_FM10__WB_3
 10
45.876
 20
-20.084
 30
0
 70
     0
  0
SEQEND
  0
POLYLINE
  8
VOLVO_FM10__WB_3
  6
CONTINUOUS
 62
     7
 66
     1
 40
0.0139
 41
0.0139
  0
VERTEX
  8
VOLVO_FM10__WB_3
 10
53.75
 20
-16.7376
 30
0
 70
     0
  0
VERTEX
  8
VOLVO_FM10__WB_3
 10
45.876
 20
-16.7376
 30
0
 70
     0
  0
SEQEND
  0
POLYLINE
  8
VOLVO_FM10__WB_3
  6
CONTINUOUS
 62
     7
 66
     1
 40
0.0139
 41
0.0139
  0
VERTEX
  8
VOLVO_FM10__WB_3
 10
42.3327
 20
-16.7376
 30
0
 70
     0
  0
VERTEX
  8
VOLVO_FM10__WB_3
 10
45.876
 20
-16.7376
 30
0
 70
     0
  0
SEQEND
  0
POLYLINE
  8
VOLVO_FM10__WB_3
  6
CONTINUOUS
 62
     7
 66
     1
 40
0.0139
 41
0.0139
  0
VERTEX
  8
VOLVO_FM10__WB_3
 10
42.3327
 20
-20.084
 30
0
 70
     0
  0
VERTEX
  8
VOLVO_FM10__WB_3
 10
45.876
 20
-20.084
 30
0
 70
     0
  0
SEQEND
  0
POLYLINE
  8
VOLVO_FM10__WB_3
  6
CONTINUOUS
 62
     7
 66
     1
 40
0.0139
 41
0.0139
  0
VERTEX
  8
VOLVO_FM10__WB_3
 10
53.0948
 20
16.8531
 30
0
 70
     0
  0
VERTEX
  8
VOLVO_FM10__WB_3
 10
53.2473
 20
16.4776
 30
0
 70
     0
  0
VERTEX
  8
VOLVO_FM10__WB_3
 10
53.3799
 20
16.0956
 30
0
 70
     0
  0
VERTEX
  8
VOLVO_FM10__WB_3
 10
53.4926
 20
15.7076
 30
0
 70
     0
  0
VERTEX
  8
VOLVO_FM10__WB_3
 10
53.5851
 20
15.3147
 30
0
 70
     0
  0
VERTEX
  8
VOLVO_FM10__WB_3
 10
53.6572
 20
14.9175
 30
0
 70
     0
  0
VERTEX
  8
VOLVO_FM10__WB_3
 10
53.7089
 20
14.5168
 30
0
 70
     0
  0
VERTEX
  8
VOLVO_FM10__WB_3
 10
53.727
 20
14.3155
 30
0
 70
     0
  0
VERTEX
  8
VOLVO_FM10__WB_3
 10
53.7399
 20
14.1136
 30
0
 70
     0
  0
VERTEX
  8
VOLVO_FM10__WB_3
 10
53.7475
 20
13.9112
 30
0
 70
     0
  0
VERTEX
  8
VOLVO_FM10__WB_3
 10
53.75
 20
13.7084
 30
0
 70
     0
  0
SEQEND
  0
POLYLINE
  8
VOLVO_FM10__WB_3
  6
CONTINUOUS
 62
     7
 66
     1
 40
0.0139
 41
0.0139
  0
VERTEX
  8
VOLVO_FM10__WB_3
 10
29.1426
 20
59.9947
 30
0
 70
     0
  0
VERTEX
  8
VOLVO_FM10__WB_3
 10
29.4354
 20
59.9895
 30
0
 70
     0
  0
VERTEX
  8
VOLVO_FM10__WB_3
 10
29.7262
 20
59.9736
 30
0
 70
     0
  0
VERTEX
  8
VOLVO_FM10__WB_3
 10
30.0148
 20
59.947
 30
0
 70
     0
  0
VERTEX
  8
VOLVO_FM10__WB_3
 10
30.301
 20
59.9101
 30
0
 70
     0
  0
VERTEX
  8
VOLVO_FM10__WB_3
 10
30.5845
 20
59.8628
 30
0
 70
     0
  0
VERTEX
  8
VOLVO_FM10__WB_3
 10
30.8651
 20
59.8054
 30
0
 70
     0
  0
VERTEX
  8
VOLVO_FM10__WB_3
 10
31.1425
 20
59.738
 30
0
 70
     0
  0
VERTEX
  8
VOLVO_FM10__WB_3
 10
31.4166
 20
59.6608
 30
0
 70
     0
  0
VERTEX
  8
VOLVO_FM10__WB_3
 10
31.687
 20
59.574
 30
0
 70
     0
  0
VERTEX
  8
VOLVO_FM10__WB_3
 10
31.9535
 20
59.4776
 30
0
 70
     0
  0
VERTEX
  8
VOLVO_FM10__WB_3
 10
32.216
 20
59.3719
 30
0
 70
     0
  0
VERTEX
  8
VOLVO_FM10__WB_3
 10
32.4741
 20
59.257
 30
0
 70
     0
  0
VERTEX
  8
VOLVO_FM10__WB_3
 10
32.7277
 20
59.133
 30
0
 70
     0
  0
VERTEX
  8
VOLVO_FM10__WB_3
 10
32.9764
 20
59.0002
 30
0
 70
     0
  0
VERTEX
  8
VOLVO_FM10__WB_3
 10
33.2201
 20
58.8586
 30
0
 70
     0
  0
VERTEX
  8
VOLVO_FM10__WB_3
 10
33.4585
 20
58.7084
 30
0
 70
     0
  0
VERTEX
  8
VOLVO_FM10__WB_3
 10
33.6914
 20
58.5498
 30
0
 70
     0
  0
VERTEX
  8
VOLVO_FM10__WB_3
 10
33.9185
 20
58.3829
 30
0
 70
     0
  0
VERTEX
  8
VOLVO_FM10__WB_3
 10
34.1396
 20
58.208
 30
0
 70
     0
  0
VERTEX
  8
VOLVO_FM10__WB_3
 10
34.3545
 20
58.025
 30
0
 70
     0
  0
VERTEX
  8
VOLVO_FM10__WB_3
 10
34.563
 20
57.8343
 30
0
 70
     0
  0
VERTEX
  8
VOLVO_FM10__WB_3
 10
34.7647
 20
57.6359
 30
0
 70
     0
  0
VERTEX
  8
VOLVO_FM10__WB_3
 10
34.9595
 20
57.43
 30
0
 70
     0
  0
VERTEX
  8
VOLVO_FM10__WB_3
 10
35.1471
 20
57.2168
 30
0
 70
     0
  0
VERTEX
  8
VOLVO_FM10__WB_3
 10
35.3274
 20
56.9964
 30
0
 70
     0
  0
VERTEX
  8
VOLVO_FM10__WB_3
 10
35.4999
 20
56.7689
 30
0
 70
     0
  0
VERTEX
  8
VOLVO_FM10__WB_3
 10
35.6646
 20
56.5346
 30
0
 70
     0
  0
VERTEX
  8
VOLVO_FM10__WB_3
 10
35.8211
 20
56.2936
 30
0
 70
     0
  0
VERTEX
  8
VOLVO_FM10__WB_3
 10
35.9693
 20
56.046
 30
0
 70
     0
  0
VERTEX
  8
VOLVO_FM10__WB_3
 10
36.1089
 20
55.792
 30
0
 70
     0
  0
VERTEX
  8
VOLVO_FM10__WB_3
 10
36.2397
 20
55.5317
 30
0
 70
     0
  0
VERTEX
  8
VOLVO_FM10__WB_3
 10
36.3614
 20
55.2654
 30
0
 70
     0
  0
SEQEND
  0
POLYLINE
  8
VOLVO_FM10__WB_3
  6
CONTINUOUS
 62
     7
 66
     1
 40
0.0139
 41
0.0139
  0
VERTEX
  8
VOLVO_FM10__WB_3
 10
45.876
 20
-31.5014
 30
0
 70
     0
  0
VERTEX
  8
VOLVO_FM10__WB_3
 10
23.8287
 20
-31.5014
 30
0
 70
     0
  0
SEQEND
  0
POLYLINE
  8
VOLVO_FM10__WB_3
  6
CONTINUOUS
 62
     7
 66
     1
 40
0.0139
 41
0.0139
  0
VERTEX
  8
VOLVO_FM10__WB_3
 10
23.8287
 20
-31.5014
 30
0
 70
     0
  0
VERTEX
  8
VOLVO_FM10__WB_3
 10
23.8287
 20
-17.7218
 30
0
 70
     0
  0
SEQEND
  0
POLYLINE
  8
VOLVO_FM10__WB_3
  6
CONTINUOUS
 62
     7
 66
     1
 40
0.0139
 41
0.0139
  0
VERTEX
  8
VOLVO_FM10__WB_3
 10
-3.4941
 20
0.7354
 30
0
 70
     0
  0
VERTEX
  8
VOLVO_FM10__WB_3
 10
-2.9091
 20
0.8113
 30
0
 70
     0
  0
VERTEX
  8
VOLVO_FM10__WB_3
 10
-2.3253
 20
0.8731
 30
0
 70
     0
  0
VERTEX
  8
VOLVO_FM10__WB_3
 10
-1.7428
 20
0.9208
 30
0
 70
     0
  0
VERTEX
  8
VOLVO_FM10__WB_3
 10
-1.1619
 20
0.9547
 30
0
 70
     0
  0
VERTEX
  8
VOLVO_FM10__WB_3
 10
-0.5828
 20
0.9747
 30
0
 70
     0
  0
VERTEX
  8
VOLVO_FM10__WB_3
 10
-0.0055
 20
0.9811
 30
0
 70
     0
  0
VERTEX
  8
VOLVO_FM10__WB_3
 10
0.5696
 20
0.974
 30
0
 70
     0
  0
VERTEX
  8
VOLVO_FM10__WB_3
 10
1.1424
 20
0.9534
 30
0
 70
     0
  0
VERTEX
  8
VOLVO_FM10__WB_3
 10
1.7128
 20
0.9196
 30
0
 70
     0
  0
VERTEX
  8
VOLVO_FM10__WB_3
 10
2.2805
 20
0.8726
 30
0
 70
     0
  0
VERTEX
  8
VOLVO_FM10__WB_3
 10
2.8453
 20
0.8126
 30
0
 70
     0
  0
VERTEX
  8
VOLVO_FM10__WB_3
 10
3.4071
 20
0.7397
 30
0
 70
     0
  0
VERTEX
  8
VOLVO_FM10__WB_3
 10
3.9657
 20
0.654
 30
0
 70
     0
  0
VERTEX
  8
VOLVO_FM10__WB_3
 10
4.5208
 20
0.5557
 30
0
 70
     0
  0
VERTEX
  8
VOLVO_FM10__WB_3
 10
5.0724
 20
0.4448
 30
0
 70
     0
  0
VERTEX
  8
VOLVO_FM10__WB_3
 10
5.6202
 20
0.3215
 30
0
 70
     0
  0
VERTEX
  8
VOLVO_FM10__WB_3
 10
6.164
 20
0.186
 30
0
 70
     0
  0
VERTEX
  8
VOLVO_FM10__WB_3
 10
6.7037
 20
0.0383
 30
0
 70
     0
  0
VERTEX
  8
VOLVO_FM10__WB_3
 10
7.239
 20
-0.1215
 30
0
 70
     0
  0
VERTEX
  8
VOLVO_FM10__WB_3
 10
7.7699
 20
-0.2931
 30
0
 70
     0
  0
VERTEX
  8
VOLVO_FM10__WB_3
 10
8.296
 20
-0.4765
 30
0
 70
     0
  0
VERTEX
  8
VOLVO_FM10__WB_3
 10
8.8172
 20
-0.6715
 30
0
 70
     0
  0
VERTEX
  8
VOLVO_FM10__WB_3
 10
9.3333
 20
-0.8781
 30
0
 70
     0
  0
VERTEX
  8
VOLVO_FM10__WB_3
 10
9.8442
 20
-1.0961
 30
0
 70
     0
  0
VERTEX
  8
VOLVO_FM10__WB_3
 10
10.3496
 20
-1.3253
 30
0
 70
     0
  0
VERTEX
  8
VOLVO_FM10__WB_3
 10
10.8494
 20
-1.5657
 30
0
 70
     0
  0
VERTEX
  8
VOLVO_FM10__WB_3
 10
11.3433
 20
-1.8172
 30
0
 70
     0
  0
VERTEX
  8
VOLVO_FM10__WB_3
 10
11.8313
 20
-2.0795
 30
0
 70
     0
  0
VERTEX
  8
VOLVO_FM10__WB_3
 10
12.313
 20
-2.3526
 30
0
 70
     0
  0
VERTEX
  8
VOLVO_FM10__WB_3
 10
12.7884
 20
-2.6363
 30
0
 70
     0
  0
VERTEX
  8
VOLVO_FM10__WB_3
 10
13.2572
 20
-2.9306
 30
0
 70
     0
  0
VERTEX
  8
VOLVO_FM10__WB_3
 10
13.7192
 20
-3.2352
 30
0
 70
     0
  0
VERTEX
  8
VOLVO_FM10__WB_3
 10
14.1744
 20
-3.5501
 30
0
 70
     0
  0
VERTEX
  8
VOLVO_FM10__WB_3
 10
14.6223
 20
-3.8752
 30
0
 70
     0
  0
VERTEX
  8
VOLVO_FM10__WB_3
 10
15.063
 20
-4.2103
 30
0
 70
     0
  0
VERTEX
  8
VOLVO_FM10__WB_3
 10
15.4962
 20
-4.5552
 30
0
 70
     0
  0
VERTEX
  8
VOLVO_FM10__WB_3
 10
15.9217
 20
-4.91
 30
0
 70
     0
  0
VERTEX
  8
VOLVO_FM10__WB_3
 10
16.3394
 20
-5.2744
 30
0
 70
     0
  0
VERTEX
  8
VOLVO_FM10__WB_3
 10
16.749
 20
-5.6483
 30
0
 70
     0
  0
VERTEX
  8
VOLVO_FM10__WB_3
 10
17.1503
 20
-6.0316
 30
0
 70
     0
  0
VERTEX
  8
VOLVO_FM10__WB_3
 10
17.5432
 20
-6.4241
 30
0
 70
     0
  0
VERTEX
  8
VOLVO_FM10__WB_3
 10
17.9276
 20
-6.8258
 30
0
 70
     0
  0
VERTEX
  8
VOLVO_FM10__WB_3
 10
18.3031
 20
-7.2365
 30
0
 70
     0
  0
VERTEX
  8
VOLVO_FM10__WB_3
 10
18.6696
 20
-7.6561
 30
0
 70
     0
  0
VERTEX
  8
VOLVO_FM10__WB_3
 10
19.027
 20
-8.0845
 30
0
 70
     0
  0
VERTEX
  8
VOLVO_FM10__WB_3
 10
19.3751
 20
-8.5215
 30
0
 70
     0
  0
VERTEX
  8
VOLVO_FM10__WB_3
 10
19.7135
 20
-8.967
 30
0
 70
     0
  0
VERTEX
  8
VOLVO_FM10__WB_3
 10
20.0423
 20
-9.4209
 30
0
 70
     0
  0
VERTEX
  8
VOLVO_FM10__WB_3
 10
20.3612
 20
-9.8831
 30
0
 70
     0
  0
VERTEX
  8
VOLVO_FM10__WB_3
 10
20.6699
 20
-10.3534
 30
0
 70
     0
  0
VERTEX
  8
VOLVO_FM10__WB_3
 10
20.9684
 20
-10.8317
 30
0
 70
     0
  0
VERTEX
  8
VOLVO_FM10__WB_3
 10
21.2564
 20
-11.3179
 30
0
 70
     0
  0
VERTEX
  8
VOLVO_FM10__WB_3
 10
21.5338
 20
-11.8119
 30
0
 70
     0
  0
VERTEX
  8
VOLVO_FM10__WB_3
 10
21.8003
 20
-12.3135
 30
0
 70
     0
  0
VERTEX
  8
VOLVO_FM10__WB_3
 10
22.0559
 20
-12.8226
 30
0
 70
     0
  0
VERTEX
  8
VOLVO_FM10__WB_3
 10
22.3002
 20
-13.3391
 30
0
 70
     0
  0
VERTEX
  8
VOLVO_FM10__WB_3
 10
22.5331
 20
-13.8629
 30
0
 70
     0
  0
VERTEX
  8
VOLVO_FM10__WB_3
 10
22.7544
 20
-14.3937
 30
0
 70
     0
  0
VERTEX
  8
VOLVO_FM10__WB_3
 10
22.9639
 20
-14.9316
 30
0
 70
     0
  0
VERTEX
  8
VOLVO_FM10__WB_3
 10
23.1615
 20
-15.4764
 30
0
 70
     0
  0
VERTEX
  8
VOLVO_FM10__WB_3
 10
23.347
 20
-16.0279
 30
0
 70
     0
  0
VERTEX
  8
VOLVO_FM10__WB_3
 10
23.5202
 20
-16.5861
 30
0
 70
     0
  0
VERTEX
  8
VOLVO_FM10__WB_3
 10
23.6808
 20
-17.1508
 30
0
 70
     0
  0
VERTEX
  8
VOLVO_FM10__WB_3
 10
23.8287
 20
-17.7218
 30
0
 70
     0
  0
SEQEND
  0
POLYLINE
  8
VOLVO_FM10__WB_3
  6
CONTINUOUS
 62
     7
 66
     1
 40
0.0139
 41
0.0139
  0
VERTEX
  8
VOLVO_FM10__WB_3
 10
2.9626
 20
-23.0998
 30
0
 70
     0
  0
VERTEX
  8
VOLVO_FM10__WB_3
 10
2.9587
 20
-22.9488
 30
0
 70
     0
  0
VERTEX
  8
VOLVO_FM10__WB_3
 10
2.9472
 20
-22.7997
 30
0
 70
     0
  0
VERTEX
  8
VOLVO_FM10__WB_3
 10
2.9283
 20
-22.6526
 30
0
 70
     0
  0
VERTEX
  8
VOLVO_FM10__WB_3
 10
2.9022
 20
-22.5078
 30
0
 70
     0
  0
VERTEX
  8
VOLVO_FM10__WB_3
 10
2.869
 20
-22.3655
 30
0
 70
     0
  0
VERTEX
  8
VOLVO_FM10__WB_3
 10
2.8289
 20
-22.2258
 30
0
 70
     0
  0
VERTEX
  8
VOLVO_FM10__WB_3
 10
2.7822
 20
-22.0889
 30
0
 70
     0
  0
VERTEX
  8
VOLVO_FM10__WB_3
 10
2.729
 20
-21.955
 30
0
 70
     0
  0
VERTEX
  8
VOLVO_FM10__WB_3
 10
2.6696
 20
-21.8244
 30
0
 70
     0
  0
VERTEX
  8
VOLVO_FM10__WB_3
 10
2.604
 20
-21.6972
 30
0
 70
     0
  0
VERTEX
  8
VOLVO_FM10__WB_3
 10
2.5326
 20
-21.5735
 30
0
 70
     0
  0
VERTEX
  8
VOLVO_FM10__WB_3
 10
2.4554
 20
-21.4537
 30
0
 70
     0
  0
VERTEX
  8
VOLVO_FM10__WB_3
 10
2.3728
 20
-21.3378
 30
0
 70
     0
  0
VERTEX
  8
VOLVO_FM10__WB_3
 10
2.2848
 20
-21.2261
 30
0
 70
     0
  0
VERTEX
  8
VOLVO_FM10__WB_3
 10
2.1917
 20
-21.1188
 30
0
 70
     0
  0
VERTEX
  8
VOLVO_FM10__WB_3
 10
2.0937
 20
-21.016
 30
0
 70
     0
  0
VERTEX
  8
VOLVO_FM10__WB_3
 10
1.9909
 20
-20.9179
 30
0
 70
     0
  0
VERTEX
  8
VOLVO_FM10__WB_3
 10
1.8835
 20
-20.8248
 30
0
 70
     0
  0
VERTEX
  8
VOLVO_FM10__WB_3
 10
1.7718
 20
-20.7368
 30
0
 70
     0
  0
VERTEX
  8
VOLVO_FM10__WB_3
 10
1.656
 20
-20.6542
 30
0
 70
     0
  0
VERTEX
  8
VOLVO_FM10__WB_3
 10
1.5361
 20
-20.577
 30
0
 70
     0
  0
VERTEX
  8
VOLVO_FM10__WB_3
 10
1.4125
 20
-20.5056
 30
0
 70
     0
  0
VERTEX
  8
VOLVO_FM10__WB_3
 10
1.2852
 20
-20.4401
 30
0
 70
     0
  0
VERTEX
  8
VOLVO_FM10__WB_3
 10
1.1546
 20
-20.3806
 30
0
 70
     0
  0
VERTEX
  8
VOLVO_FM10__WB_3
 10
1.0207
 20
-20.3274
 30
0
 70
     0
  0
VERTEX
  8
VOLVO_FM10__WB_3
 10
0.8838
 20
-20.2807
 30
0
 70
     0
  0
VERTEX
  8
VOLVO_FM10__WB_3
 10
0.7441
 20
-20.2407
 30
0
 70
     0
  0
VERTEX
  8
VOLVO_FM10__WB_3
 10
0.6018
 20
-20.2075
 30
0
 70
     0
  0
VERTEX
  8
VOLVO_FM10__WB_3
 10
0.457
 20
-20.1813
 30
0
 70
     0
  0
VERTEX
  8
VOLVO_FM10__WB_3
 10
0.3099
 20
-20.1624
 30
0
 70
     0
  0
VERTEX
  8
VOLVO_FM10__WB_3
 10
0.1608
 20
-20.1509
 30
0
 70
     0
  0
VERTEX
  8
VOLVO_FM10__WB_3
 10
0.0098
 20
-20.147
 30
0
 70
     0
  0
VERTEX
  8
VOLVO_FM10__WB_3
 10
0.0098
 20
-20.147
 30
0
 70
     0
  0
VERTEX
  8
VOLVO_FM10__WB_3
 10
-0.1411
 20
-20.1509
 30
0
 70
     0
  0
VERTEX
  8
VOLVO_FM10__WB_3
 10
-0.2903
 20
-20.1624
 30
0
 70
     0
  0
VERTEX
  8
VOLVO_FM10__WB_3
 10
-0.4373
 20
-20.1813
 30
0
 70
     0
  0
VERTEX
  8
VOLVO_FM10__WB_3
 10
-0.5821
 20
-20.2075
 30
0
 70
     0
  0
VERTEX
  8
VOLVO_FM10__WB_3
 10
-0.7244
 20
-20.2407
 30
0
 70
     0
  0
VERTEX
  8
VOLVO_FM10__WB_3
 10
-0.8642
 20
-20.2807
 30
0
 70
     0
  0
VERTEX
  8
VOLVO_FM10__WB_3
 10
-1.001
 20
-20.3274
 30
0
 70
     0
  0
VERTEX
  8
VOLVO_FM10__WB_3
 10
-1.1349
 20
-20.3806
 30
0
 70
     0
  0
VERTEX
  8
VOLVO_FM10__WB_3
 10
-1.2655
 20
-20.4401
 30
0
 70
     0
  0
VERTEX
  8
VOLVO_FM10__WB_3
 10
-1.3928
 20
-20.5056
 30
0
 70
     0
  0
VERTEX
  8
VOLVO_FM10__WB_3
 10
-1.5164
 20
-20.577
 30
0
 70
     0
  0
VERTEX
  8
VOLVO_FM10__WB_3
 10
-1.6363
 20
-20.6542
 30
0
 70
     0
  0
VERTEX
  8
VOLVO_FM10__WB_3
 10
-1.7521
 20
-20.7368
 30
0
 70
     0
  0
VERTEX
  8
VOLVO_FM10__WB_3
 10
-1.8638
 20
-20.8248
 30
0
 70
     0
  0
VERTEX
  8
VOLVO_FM10__WB_3
 10
-1.9712
 20
-20.9179
 30
0
 70
     0
  0
VERTEX
  8
VOLVO_FM10__WB_3
 10
-2.074
 20
-21.016
 30
0
 70
     0
  0
VERTEX
  8
VOLVO_FM10__WB_3
 10
-2.172
 20
-21.1188
 30
0
 70
     0
  0
VERTEX
  8
VOLVO_FM10__WB_3
 10
-2.2651
 20
-21.2261
 30
0
 70
     0
  0
VERTEX
  8
VOLVO_FM10__WB_3
 10
-2.3531
 20
-21.3378
 30
0
 70
     0
  0
VERTEX
  8
VOLVO_FM10__WB_3
 10
-2.4357
 20
-21.4537
 30
0
 70
     0
  0
VERTEX
  8
VOLVO_FM10__WB_3
 10
-2.5129
 20
-21.5735
 30
0
 70
     0
  0
VERTEX
  8
VOLVO_FM10__WB_3
 10
-2.5843
 20
-21.6972
 30
0
 70
     0
  0
VERTEX
  8
VOLVO_FM10__WB_3
 10
-2.6499
 20
-21.8244
 30
0
 70
     0
  0
VERTEX
  8
VOLVO_FM10__WB_3
 10
-2.7093
 20
-21.955
 30
0
 70
     0
  0
VERTEX
  8
VOLVO_FM10__WB_3
 10
-2.7625
 20
-22.0889
 30
0
 70
     0
  0
VERTEX
  8
VOLVO_FM10__WB_3
 10
-2.8092
 20
-22.2258
 30
0
 70
     0
  0
VERTEX
  8
VOLVO_FM10__WB_3
 10
-2.8493
 20
-22.3655
 30
0
 70
     0
  0
VERTEX
  8
VOLVO_FM10__WB_3
 10
-2.8825
 20
-22.5078
 30
0
 70
     0
  0
VERTEX
  8
VOLVO_FM10__WB_3
 10
-2.9086
 20
-22.6526
 30
0
 70
     0
  0
VERTEX
  8
VOLVO_FM10__WB_3
 10
-2.9275
 20
-22.7997
 30
0
 70
     0
  0
VERTEX
  8
VOLVO_FM10__WB_3
 10
-2.939
 20
-22.9488
 30
0
 70
     0
  0
VERTEX
  8
VOLVO_FM10__WB_3
 10
-2.9429
 20
-23.0998
 30
0
 70
     0
  0
VERTEX
  8
VOLVO_FM10__WB_3
 10
-2.9429
 20
-23.0998
 30
0
 70
     0
  0
VERTEX
  8
VOLVO_FM10__WB_3
 10
-2.939
 20
-23.2508
 30
0
 70
     0
  0
VERTEX
  8
VOLVO_FM10__WB_3
 10
-2.9275
 20
-23.3999
 30
0
 70
     0
  0
VERTEX
  8
VOLVO_FM10__WB_3
 10
-2.9086
 20
-23.5469
 30
0
 70
     0
  0
VERTEX
  8
VOLVO_FM10__WB_3
 10
-2.8825
 20
-23.6917
 30
0
 70
     0
  0
VERTEX
  8
VOLVO_FM10__WB_3
 10
-2.8493
 20
-23.8341
 30
0
 70
     0
  0
VERTEX
  8
VOLVO_FM10__WB_3
 10
-2.8092
 20
-23.9738
 30
0
 70
     0
  0
VERTEX
  8
VOLVO_FM10__WB_3
 10
-2.7625
 20
-24.1107
 30
0
 70
     0
  0
VERTEX
  8
VOLVO_FM10__WB_3
 10
-2.7093
 20
-24.2445
 30
0
 70
     0
  0
VERTEX
  8
VOLVO_FM10__WB_3
 10
-2.6499
 20
-24.3752
 30
0
 70
     0
  0
VERTEX
  8
VOLVO_FM10__WB_3
 10
-2.5843
 20
-24.5024
 30
0
 70
     0
  0
VERTEX
  8
VOLVO_FM10__WB_3
 10
-2.5129
 20
-24.626
 30
0
 70
     0
  0
VERTEX
  8
VOLVO_FM10__WB_3
 10
-2.4357
 20
-24.7459
 30
0
 70
     0
  0
VERTEX
  8
VOLVO_FM10__WB_3
 10
-2.3531
 20
-24.8618
 30
0
 70
     0
  0
VERTEX
  8
VOLVO_FM10__WB_3
 10
-2.2651
 20
-24.9735
 30
0
 70
     0
  0
VERTEX
  8
VOLVO_FM10__WB_3
 10
-2.172
 20
-25.0808
 30
0
 70
     0
  0
VERTEX
  8
VOLVO_FM10__WB_3
 10
-2.074
 20
-25.1836
 30
0
 70
     0
  0
VERTEX
  8
VOLVO_FM10__WB_3
 10
-1.9712
 20
-25.2816
 30
0
 70
     0
  0
VERTEX
  8
VOLVO_FM10__WB_3
 10
-1.8638
 20
-25.3747
 30
0
 70
     0
  0
VERTEX
  8
VOLVO_FM10__WB_3
 10
-1.7521
 20
-25.4627
 30
0
 70
     0
  0
VERTEX
  8
VOLVO_FM10__WB_3
 10
-1.6363
 20
-25.5454
 30
0
 70
     0
  0
VERTEX
  8
VOLVO_FM10__WB_3
 10
-1.5164
 20
-25.6225
 30
0
 70
     0
  0
VERTEX
  8
VOLVO_FM10__WB_3
 10
-1.3928
 20
-25.694
 30
0
 70
     0
  0
VERTEX
  8
VOLVO_FM10__WB_3
 10
-1.2655
 20
-25.7595
 30
0
 70
     0
  0
VERTEX
  8
VOLVO_FM10__WB_3
 10
-1.1349
 20
-25.819
 30
0
 70
     0
  0
VERTEX
  8
VOLVO_FM10__WB_3
 10
-1.001
 20
-25.8721
 30
0
 70
     0
  0
VERTEX
  8
VOLVO_FM10__WB_3
 10
-0.8642
 20
-25.9189
 30
0
 70
     0
  0
VERTEX
  8
VOLVO_FM10__WB_3
 10
-0.7244
 20
-25.9589
 30
0
 70
     0
  0
VERTEX
  8
VOLVO_FM10__WB_3
 10
-0.5821
 20
-25.9921
 30
0
 70
     0
  0
VERTEX
  8
VOLVO_FM10__WB_3
 10
-0.4373
 20
-26.0183
 30
0
 70
     0
  0
VERTEX
  8
VOLVO_FM10__WB_3
 10
-0.2903
 20
-26.0372
 30
0
 70
     0
  0
VERTEX
  8
VOLVO_FM10__WB_3
 10
-0.1411
 20
-26.0487
 30
0
 70
     0
  0
VERTEX
  8
VOLVO_FM10__WB_3
 10
0.0098
 20
-26.0525
 30
0
 70
     0
  0
VERTEX
  8
VOLVO_FM10__WB_3
 10
0.0098
 20
-26.0525
 30
0
 70
     0
  0
VERTEX
  8
VOLVO_FM10__WB_3
 10
0.1608
 20
-26.0487
 30
0
 70
     0
  0
VERTEX
  8
VOLVO_FM10__WB_3
 10
0.3099
 20
-26.0372
 30
0
 70
     0
  0
VERTEX
  8
VOLVO_FM10__WB_3
 10
0.457
 20
-26.0183
 30
0
 70
     0
  0
VERTEX
  8
VOLVO_FM10__WB_3
 10
0.6018
 20
-25.9921
 30
0
 70
     0
  0
VERTEX
  8
VOLVO_FM10__WB_3
 10
0.7441
 20
-25.9589
 30
0
 70
     0
  0
VERTEX
  8
VOLVO_FM10__WB_3
 10
0.8838
 20
-25.9189
 30
0
 70
     0
  0
VERTEX
  8
VOLVO_FM10__WB_3
 10
1.0207
 20
-25.8721
 30
0
 70
     0
  0
VERTEX
  8
VOLVO_FM10__WB_3
 10
1.1546
 20
-25.819
 30
0
 70
     0
  0
VERTEX
  8
VOLVO_FM10__WB_3
 10
1.2852
 20
-25.7595
 30
0
 70
     0
  0
VERTEX
  8
VOLVO_FM10__WB_3
 10
1.4125
 20
-25.694
 30
0
 70
     0
  0
VERTEX
  8
VOLVO_FM10__WB_3
 10
1.5361
 20
-25.6225
 30
0
 70
     0
  0
VERTEX
  8
VOLVO_FM10__WB_3
 10
1.656
 20
-25.5454
 30
0
 70
     0
  0
VERTEX
  8
VOLVO_FM10__WB_3
 10
1.7718
 20
-25.4627
 30
0
 70
     0
  0
VERTEX
  8
VOLVO_FM10__WB_3
 10
1.8835
 20
-25.3747
 30
0
 70
     0
  0
VERTEX
  8
VOLVO_FM10__WB_3
 10
1.9909
 20
-25.2816
 30
0
 70
     0
  0
VERTEX
  8
VOLVO_FM10__WB_3
 10
2.0937
 20
-25.1836
 30
0
 70
     0
  0
VERTEX
  8
VOLVO_FM10__WB_3
 10
2.1917
 20
-25.0808
 30
0
 70
     0
  0
VERTEX
  8
VOLVO_FM10__WB_3
 10
2.2848
 20
-24.9735
 30
0
 70
     0
  0
VERTEX
  8
VOLVO_FM10__WB_3
 10
2.3728
 20
-24.8618
 30
0
 70
     0
  0
VERTEX
  8
VOLVO_FM10__WB_3
 10
2.4554
 20
-24.7459
 30
0
 70
     0
  0
VERTEX
  8
VOLVO_FM10__WB_3
 10
2.5326
 20
-24.626
 30
0
 70
     0
  0
VERTEX
  8
VOLVO_FM10__WB_3
 10
2.604
 20
-24.5024
 30
0
 70
     0
  0
VERTEX
  8
VOLVO_FM10__WB_3
 10
2.6696
 20
-24.3752
 30
0
 70
     0
  0
VERTEX
  8
VOLVO_FM10__WB_3
 10
2.729
 20
-24.2445
 30
0
 70
     0
  0
VERTEX
  8
VOLVO_FM10__WB_3
 10
2.7822
 20
-24.1107
 30
0
 70
     0
  0
VERTEX
  8
VOLVO_FM10__WB_3
 10
2.8289
 20
-23.9738
 30
0
 70
     0
  0
VERTEX
  8
VOLVO_FM10__WB_3
 10
2.869
 20
-23.8341
 30
0
 70
     0
  0
VERTEX
  8
VOLVO_FM10__WB_3
 10
2.9022
 20
-23.6917
 30
0
 70
     0
  0
VERTEX
  8
VOLVO_FM10__WB_3
 10
2.9283
 20
-23.5469
 30
0
 70
     0
  0
VERTEX
  8
VOLVO_FM10__WB_3
 10
2.9472
 20
-23.3999
 30
0
 70
     0
  0
VERTEX
  8
VOLVO_FM10__WB_3
 10
2.9587
 20
-23.2508
 30
0
 70
     0
  0
VERTEX
  8
VOLVO_FM10__WB_3
 10
2.9626
 20
-23.0998
 30
0
 70
     0
  0
SEQEND
  0
POLYLINE
  8
VOLVO_FM10__WB_3
  6
CONTINUOUS
 62
     7
 66
     1
 40
0.0139
 41
0.0139
  0
VERTEX
  8
VOLVO_FM10__WB_3
 10
9.3602
 20
-23.0998
 30
0
 70
     0
  0
VERTEX
  8
VOLVO_FM10__WB_3
 10
9.3572
 20
-22.86
 30
0
 70
     0
  0
VERTEX
  8
VOLVO_FM10__WB_3
 10
9.348
 20
-22.6217
 30
0
 70
     0
  0
VERTEX
  8
VOLVO_FM10__WB_3
 10
9.3328
 20
-22.3848
 30
0
 70
     0
  0
VERTEX
  8
VOLVO_FM10__WB_3
 10
9.3116
 20
-22.1495
 30
0
 70
     0
  0
VERTEX
  8
VOLVO_FM10__WB_3
 10
9.2845
 20
-21.9158
 30
0
 70
     0
  0
VERTEX
  8
VOLVO_FM10__WB_3
 10
9.2517
 20
-21.6838
 30
0
 70
     0
  0
VERTEX
  8
VOLVO_FM10__WB_3
 10
9.2131
 20
-21.4536
 30
0
 70
     0
  0
VERTEX
  8
VOLVO_FM10__WB_3
 10
9.1689
 20
-21.2253
 30
0
 70
     0
  0
VERTEX
  8
VOLVO_FM10__WB_3
 10
9.119
 20
-20.9989
 30
0
 70
     0
  0
VERTEX
  8
VOLVO_FM10__WB_3
 10
9.0637
 20
-20.7745
 30
0
 70
     0
  0
VERTEX
  8
VOLVO_FM10__WB_3
 10
9.003
 20
-20.5522
 30
0
 70
     0
  0
VERTEX
  8
VOLVO_FM10__WB_3
 10
8.9369
 20
-20.3321
 30
0
 70
     0
  0
VERTEX
  8
VOLVO_FM10__WB_3
 10
8.8655
 20
-20.1142
 30
0
 70
     0
  0
VERTEX
  8
VOLVO_FM10__WB_3
 10
8.789
 20
-19.8987
 30
0
 70
     0
  0
VERTEX
  8
VOLVO_FM10__WB_3
 10
8.7073
 20
-19.6855
 30
0
 70
     0
  0
VERTEX
  8
VOLVO_FM10__WB_3
 10
8.6206
 20
-19.4748
 30
0
 70
     0
  0
VERTEX
  8
VOLVO_FM10__WB_3
 10
8.4323
 20
-19.0611
 30
0
 70
     0
  0
VERTEX
  8
VOLVO_FM10__WB_3
 10
8.2247
 20
-18.6582
 30
0
 70
     0
  0
VERTEX
  8
VOLVO_FM10__WB_3
 10
7.9985
 20
-18.2666
 30
0
 70
     0
  0
VERTEX
  8
VOLVO_FM10__WB_3
 10
7.7542
 20
-17.8871
 30
0
 70
     0
  0
VERTEX
  8
VOLVO_FM10__WB_3
 10
7.4925
 20
-17.5202
 30
0
 70
     0
  0
VERTEX
  8
VOLVO_FM10__WB_3
 10
7.2139
 20
-17.1664
 30
0
 70
     0
  0
VERTEX
  8
VOLVO_FM10__WB_3
 10
6.9191
 20
-16.8265
 30
0
 70
     0
  0
VERTEX
  8
VOLVO_FM10__WB_3
 10
6.6086
 20
-16.501
 30
0
 70
     0
  0
VERTEX
  8
VOLVO_FM10__WB_3
 10
6.2831
 20
-16.1906
 30
0
 70
     0
  0
VERTEX
  8
VOLVO_FM10__WB_3
 10
5.9432
 20
-15.8957
 30
0
 70
     0
  0
VERTEX
  8
VOLVO_FM10__WB_3
 10
5.5895
 20
-15.6172
 30
0
 70
     0
  0
VERTEX
  8
VOLVO_FM10__WB_3
 10
5.2225
 20
-15.3554
 30
0
 70
     0
  0
VERTEX
  8
VOLVO_FM10__WB_3
 10
4.843
 20
-15.1111
 30
0
 70
     0
  0
VERTEX
  8
VOLVO_FM10__WB_3
 10
4.4515
 20
-14.8849
 30
0
 70
     0
  0
VERTEX
  8
VOLVO_FM10__WB_3
 10
4.0485
 20
-14.6773
 30
0
 70
     0
  0
VERTEX
  8
VOLVO_FM10__WB_3
 10
3.6348
 20
-14.4891
 30
0
 70
     0
  0
VERTEX
  8
VOLVO_FM10__WB_3
 10
3.4241
 20
-14.4023
 30
0
 70
     0
  0
VERTEX
  8
VOLVO_FM10__WB_3
 10
3.211
 20
-14.3207
 30
0
 70
     0
  0
VERTEX
  8
VOLVO_FM10__WB_3
 10
2.9954
 20
-14.2441
 30
0
 70
     0
  0
VERTEX
  8
VOLVO_FM10__WB_3
 10
2.7775
 20
-14.1727
 30
0
 70
     0
  0
VERTEX
  8
VOLVO_FM10__WB_3
 10
2.5574
 20
-14.1066
 30
0
 70
     0
  0
VERTEX
  8
VOLVO_FM10__WB_3
 10
2.3351
 20
-14.0459
 30
0
 70
     0
  0
VERTEX
  8
VOLVO_FM10__WB_3
 10
2.1107
 20
-13.9906
 30
0
 70
     0
  0
VERTEX
  8
VOLVO_FM10__WB_3
 10
1.8843
 20
-13.9408
 30
0
 70
     0
  0
VERTEX
  8
VOLVO_FM10__WB_3
 10
1.656
 20
-13.8965
 30
0
 70
     0
  0
VERTEX
  8
VOLVO_FM10__WB_3
 10
1.4258
 20
-13.858
 30
0
 70
     0
  0
VERTEX
  8
VOLVO_FM10__WB_3
 10
1.1939
 20
-13.8251
 30
0
 70
     0
  0
VERTEX
  8
VOLVO_FM10__WB_3
 10
0.9602
 20
-13.798
 30
0
 70
     0
  0
VERTEX
  8
VOLVO_FM10__WB_3
 10
0.7248
 20
-13.7769
 30
0
 70
     0
  0
VERTEX
  8
VOLVO_FM10__WB_3
 10
0.488
 20
-13.7617
 30
0
 70
     0
  0
VERTEX
  8
VOLVO_FM10__WB_3
 10
0.2496
 20
-13.7525
 30
0
 70
     0
  0
VERTEX
  8
VOLVO_FM10__WB_3
 10
0.0098
 20
-13.7494
 30
0
 70
     0
  0
VERTEX
  8
VOLVO_FM10__WB_3
 10
0.0098
 20
-13.7494
 30
0
 70
     0
  0
VERTEX
  8
VOLVO_FM10__WB_3
 10
-0.2299
 20
-13.7525
 30
0
 70
     0
  0
VERTEX
  8
VOLVO_FM10__WB_3
 10
-0.4683
 20
-13.7617
 30
0
 70
     0
  0
VERTEX
  8
VOLVO_FM10__WB_3
 10
-0.7052
 20
-13.7769
 30
0
 70
     0
  0
VERTEX
  8
VOLVO_FM10__WB_3
 10
-0.9405
 20
-13.798
 30
0
 70
     0
  0
VERTEX
  8
VOLVO_FM10__WB_3
 10
-1.1742
 20
-13.8251
 30
0
 70
     0
  0
VERTEX
  8
VOLVO_FM10__WB_3
 10
-1.4061
 20
-13.858
 30
0
 70
     0
  0
VERTEX
  8
VOLVO_FM10__WB_3
 10
-1.6363
 20
-13.8965
 30
0
 70
     0
  0
VERTEX
  8
VOLVO_FM10__WB_3
 10
-1.8646
 20
-13.9408
 30
0
 70
     0
  0
VERTEX
  8
VOLVO_FM10__WB_3
 10
-2.091
 20
-13.9906
 30
0
 70
     0
  0
VERTEX
  8
VOLVO_FM10__WB_3
 10
-2.3154
 20
-14.0459
 30
0
 70
     0
  0
VERTEX
  8
VOLVO_FM10__WB_3
 10
-2.5377
 20
-14.1066
 30
0
 70
     0
  0
VERTEX
  8
VOLVO_FM10__WB_3
 10
-2.7578
 20
-14.1727
 30
0
 70
     0
  0
VERTEX
  8
VOLVO_FM10__WB_3
 10
-2.9757
 20
-14.2441
 30
0
 70
     0
  0
VERTEX
  8
VOLVO_FM10__WB_3
 10
-3.1913
 20
-14.3207
 30
0
 70
     0
  0
VERTEX
  8
VOLVO_FM10__WB_3
 10
-3.4044
 20
-14.4023
 30
0
 70
     0
  0
VERTEX
  8
VOLVO_FM10__WB_3
 10
-3.6151
 20
-14.4891
 30
0
 70
     0
  0
VERTEX
  8
VOLVO_FM10__WB_3
 10
-4.0289
 20
-14.6773
 30
0
 70
     0
  0
VERTEX
  8
VOLVO_FM10__WB_3
 10
-4.4318
 20
-14.8849
 30
0
 70
     0
  0
VERTEX
  8
VOLVO_FM10__WB_3
 10
-4.8233
 20
-15.1111
 30
0
 70
     0
  0
VERTEX
  8
VOLVO_FM10__WB_3
 10
-5.2028
 20
-15.3554
 30
0
 70
     0
  0
VERTEX
  8
VOLVO_FM10__WB_3
 10
-5.5698
 20
-15.6172
 30
0
 70
     0
  0
VERTEX
  8
VOLVO_FM10__WB_3
 10
-5.9235
 20
-15.8957
 30
0
 70
     0
  0
VERTEX
  8
VOLVO_FM10__WB_3
 10
-6.2634
 20
-16.1906
 30
0
 70
     0
  0
VERTEX
  8
VOLVO_FM10__WB_3
 10
-6.5889
 20
-16.501
 30
0
 70
     0
  0
VERTEX
  8
VOLVO_FM10__WB_3
 10
-6.8994
 20
-16.8265
 30
0
 70
     0
  0
VERTEX
  8
VOLVO_FM10__WB_3
 10
-7.1942
 20
-17.1664
 30
0
 70
     0
  0
VERTEX
  8
VOLVO_FM10__WB_3
 10
-7.4728
 20
-17.5202
 30
0
 70
     0
  0
VERTEX
  8
VOLVO_FM10__WB_3
 10
-7.7345
 20
-17.8871
 30
0
 70
     0
  0
VERTEX
  8
VOLVO_FM10__WB_3
 10
-7.9788
 20
-18.2666
 30
0
 70
     0
  0
VERTEX
  8
VOLVO_FM10__WB_3
 10
-8.205
 20
-18.6582
 30
0
 70
     0
  0
VERTEX
  8
VOLVO_FM10__WB_3
 10
-8.4126
 20
-19.0611
 30
0
 70
     0
  0
VERTEX
  8
VOLVO_FM10__WB_3
 10
-8.6009
 20
-19.4748
 30
0
 70
     0
  0
VERTEX
  8
VOLVO_FM10__WB_3
 10
-8.6876
 20
-19.6855
 30
0
 70
     0
  0
VERTEX
  8
VOLVO_FM10__WB_3
 10
-8.7693
 20
-19.8987
 30
0
 70
     0
  0
VERTEX
  8
VOLVO_FM10__WB_3
 10
-8.8458
 20
-20.1142
 30
0
 70
     0
  0
VERTEX
  8
VOLVO_FM10__WB_3
 10
-8.9172
 20
-20.3321
 30
0
 70
     0
  0
VERTEX
  8
VOLVO_FM10__WB_3
 10
-8.9833
 20
-20.5522
 30
0
 70
     0
  0
VERTEX
  8
VOLVO_FM10__WB_3
 10
-9.044
 20
-20.7745
 30
0
 70
     0
  0
VERTEX
  8
VOLVO_FM10__WB_3
 10
-9.0993
 20
-20.9989
 30
0
 70
     0
  0
VERTEX
  8
VOLVO_FM10__WB_3
 10
-9.1492
 20
-21.2253
 30
0
 70
     0
  0
VERTEX
  8
VOLVO_FM10__WB_3
 10
-9.1934
 20
-21.4536
 30
0
 70
     0
  0
VERTEX
  8
VOLVO_FM10__WB_3
 10
-9.232
 20
-21.6838
 30
0
 70
     0
  0
VERTEX
  8
VOLVO_FM10__WB_3
 10
-9.2648
 20
-21.9158
 30
0
 70
     0
  0
VERTEX
  8
VOLVO_FM10__WB_3
 10
-9.2919
 20
-22.1495
 30
0
 70
     0
  0
VERTEX
  8
VOLVO_FM10__WB_3
 10
-9.3131
 20
-22.3848
 30
0
 70
     0
  0
VERTEX
  8
VOLVO_FM10__WB_3
 10
-9.3283
 20
-22.6217
 30
0
 70
     0
  0
VERTEX
  8
VOLVO_FM10__WB_3
 10
-9.3375
 20
-22.86
 30
0
 70
     0
  0
VERTEX
  8
VOLVO_FM10__WB_3
 10
-9.3405
 20
-23.0998
 30
0
 70
     0
  0
VERTEX
  8
VOLVO_FM10__WB_3
 10
-9.3405
 20
-23.0998
 30
0
 70
     0
  0
VERTEX
  8
VOLVO_FM10__WB_3
 10
-9.3375
 20
-23.3395
 30
0
 70
     0
  0
VERTEX
  8
VOLVO_FM10__WB_3
 10
-9.3283
 20
-23.5779
 30
0
 70
     0
  0
VERTEX
  8
VOLVO_FM10__WB_3
 10
-9.3131
 20
-23.8148
 30
0
 70
     0
  0
VERTEX
  8
VOLVO_FM10__WB_3
 10
-9.2919
 20
-24.0501
 30
0
 70
     0
  0
VERTEX
  8
VOLVO_FM10__WB_3
 10
-9.2648
 20
-24.2838
 30
0
 70
     0
  0
VERTEX
  8
VOLVO_FM10__WB_3
 10
-9.232
 20
-24.5158
 30
0
 70
     0
  0
VERTEX
  8
VOLVO_FM10__WB_3
 10
-9.1934
 20
-24.746
 30
0
 70
     0
  0
VERTEX
  8
VOLVO_FM10__WB_3
 10
-9.1492
 20
-24.9743
 30
0
 70
     0
  0
VERTEX
  8
VOLVO_FM10__WB_3
 10
-9.0993
 20
-25.2007
 30
0
 70
     0
  0
VERTEX
  8
VOLVO_FM10__WB_3
 10
-9.044
 20
-25.425
 30
0
 70
     0
  0
VERTEX
  8
VOLVO_FM10__WB_3
 10
-8.9833
 20
-25.6473
 30
0
 70
     0
  0
VERTEX
  8
VOLVO_FM10__WB_3
 10
-8.9172
 20
-25.8675
 30
0
 70
     0
  0
VERTEX
  8
VOLVO_FM10__WB_3
 10
-8.8458
 20
-26.0853
 30
0
 70
     0
  0
VERTEX
  8
VOLVO_FM10__WB_3
 10
-8.7693
 20
-26.3009
 30
0
 70
     0
  0
VERTEX
  8
VOLVO_FM10__WB_3
 10
-8.6876
 20
-26.5141
 30
0
 70
     0
  0
VERTEX
  8
VOLVO_FM10__WB_3
 10
-8.6009
 20
-26.7248
 30
0
 70
     0
  0
VERTEX
  8
VOLVO_FM10__WB_3
 10
-8.4126
 20
-27.1385
 30
0
 70
     0
  0
VERTEX
  8
VOLVO_FM10__WB_3
 10
-8.205
 20
-27.5414
 30
0
 70
     0
  0
VERTEX
  8
VOLVO_FM10__WB_3
 10
-7.9788
 20
-27.9329
 30
0
 70
     0
  0
VERTEX
  8
VOLVO_FM10__WB_3
 10
-7.7345
 20
-28.3125
 30
0
 70
     0
  0
VERTEX
  8
VOLVO_FM10__WB_3
 10
-7.4728
 20
-28.6794
 30
0
 70
     0
  0
VERTEX
  8
VOLVO_FM10__WB_3
 10
-7.1942
 20
-29.0331
 30
0
 70
     0
  0
VERTEX
  8
VOLVO_FM10__WB_3
 10
-6.8994
 20
-29.373
 30
0
 70
     0
  0
VERTEX
  8
VOLVO_FM10__WB_3
 10
-6.5889
 20
-29.6985
 30
0
 70
     0
  0
VERTEX
  8
VOLVO_FM10__WB_3
 10
-6.2634
 20
-30.009
 30
0
 70
     0
  0
VERTEX
  8
VOLVO_FM10__WB_3
 10
-5.9235
 20
-30.3038
 30
0
 70
     0
  0
VERTEX
  8
VOLVO_FM10__WB_3
 10
-5.5698
 20
-30.5824
 30
0
 70
     0
  0
VERTEX
  8
VOLVO_FM10__WB_3
 10
-5.2028
 20
-30.8442
 30
0
 70
     0
  0
VERTEX
  8
VOLVO_FM10__WB_3
 10
-4.8233
 20
-31.0884
 30
0
 70
     0
  0
VERTEX
  8
VOLVO_FM10__WB_3
 10
-4.4318
 20
-31.3147
 30
0
 70
     0
  0
VERTEX
  8
VOLVO_FM10__WB_3
 10
-4.0289
 20
-31.5222
 30
0
 70
     0
  0
VERTEX
  8
VOLVO_FM10__WB_3
 10
-3.6151
 20
-31.7105
 30
0
 70
     0
  0
VERTEX
  8
VOLVO_FM10__WB_3
 10
-3.4044
 20
-31.7972
 30
0
 70
     0
  0
VERTEX
  8
VOLVO_FM10__WB_3
 10
-3.1913
 20
-31.8789
 30
0
 70
     0
  0
VERTEX
  8
VOLVO_FM10__WB_3
 10
-2.9757
 20
-31.9555
 30
0
 70
     0
  0
VERTEX
  8
VOLVO_FM10__WB_3
 10
-2.7578
 20
-32.0268
 30
0
 70
     0
  0
VERTEX
  8
VOLVO_FM10__WB_3
 10
-2.5377
 20
-32.0929
 30
0
 70
     0
  0
VERTEX
  8
VOLVO_FM10__WB_3
 10
-2.3154
 20
-32.1537
 30
0
 70
     0
  0
VERTEX
  8
VOLVO_FM10__WB_3
 10
-2.091
 20
-32.209
 30
0
 70
     0
  0
VERTEX
  8
VOLVO_FM10__WB_3
 10
-1.8646
 20
-32.2588
 30
0
 70
     0
  0
VERTEX
  8
VOLVO_FM10__WB_3
 10
-1.6363
 20
-32.303
 30
0
 70
     0
  0
VERTEX
  8
VOLVO_FM10__WB_3
 10
-1.4061
 20
-32.3416
 30
0
 70
     0
  0
VERTEX
  8
VOLVO_FM10__WB_3
 10
-1.1742
 20
-32.3745
 30
0
 70
     0
  0
VERTEX
  8
VOLVO_FM10__WB_3
 10
-0.9405
 20
-32.4015
 30
0
 70
     0
  0
VERTEX
  8
VOLVO_FM10__WB_3
 10
-0.7052
 20
-32.4227
 30
0
 70
     0
  0
VERTEX
  8
VOLVO_FM10__WB_3
 10
-0.4683
 20
-32.4379
 30
0
 70
     0
  0
VERTEX
  8
VOLVO_FM10__WB_3
 10
-0.2299
 20
-32.4471
 30
0
 70
     0
  0
VERTEX
  8
VOLVO_FM10__WB_3
 10
0.0098
 20
-32.4502
 30
0
 70
     0
  0
VERTEX
  8
VOLVO_FM10__WB_3
 10
0.0098
 20
-32.4502
 30
0
 70
     0
  0
VERTEX
  8
VOLVO_FM10__WB_3
 10
0.2496
 20
-32.4471
 30
0
 70
     0
  0
VERTEX
  8
VOLVO_FM10__WB_3
 10
0.488
 20
-32.4379
 30
0
 70
     0
  0
VERTEX
  8
VOLVO_FM10__WB_3
 10
0.7248
 20
-32.4227
 30
0
 70
     0
  0
VERTEX
  8
VOLVO_FM10__WB_3
 10
0.9602
 20
-32.4015
 30
0
 70
     0
  0
VERTEX
  8
VOLVO_FM10__WB_3
 10
1.1939
 20
-32.3745
 30
0
 70
     0
  0
VERTEX
  8
VOLVO_FM10__WB_3
 10
1.4258
 20
-32.3416
 30
0
 70
     0
  0
VERTEX
  8
VOLVO_FM10__WB_3
 10
1.656
 20
-32.303
 30
0
 70
     0
  0
VERTEX
  8
VOLVO_FM10__WB_3
 10
1.8843
 20
-32.2588
 30
0
 70
     0
  0
VERTEX
  8
VOLVO_FM10__WB_3
 10
2.1107
 20
-32.209
 30
0
 70
     0
  0
VERTEX
  8
VOLVO_FM10__WB_3
 10
2.3351
 20
-32.1537
 30
0
 70
     0
  0
VERTEX
  8
VOLVO_FM10__WB_3
 10
2.5574
 20
-32.0929
 30
0
 70
     0
  0
VERTEX
  8
VOLVO_FM10__WB_3
 10
2.7775
 20
-32.0268
 30
0
 70
     0
  0
VERTEX
  8
VOLVO_FM10__WB_3
 10
2.9954
 20
-31.9555
 30
0
 70
     0
  0
VERTEX
  8
VOLVO_FM10__WB_3
 10
3.211
 20
-31.8789
 30
0
 70
     0
  0
VERTEX
  8
VOLVO_FM10__WB_3
 10
3.4241
 20
-31.7972
 30
0
 70
     0
  0
VERTEX
  8
VOLVO_FM10__WB_3
 10
3.6348
 20
-31.7105
 30
0
 70
     0
  0
VERTEX
  8
VOLVO_FM10__WB_3
 10
4.0485
 20
-31.5222
 30
0
 70
     0
  0
VERTEX
  8
VOLVO_FM10__WB_3
 10
4.4515
 20
-31.3147
 30
0
 70
     0
  0
VERTEX
  8
VOLVO_FM10__WB_3
 10
4.843
 20
-31.0884
 30
0
 70
     0
  0
VERTEX
  8
VOLVO_FM10__WB_3
 10
5.2225
 20
-30.8442
 30
0
 70
     0
  0
VERTEX
  8
VOLVO_FM10__WB_3
 10
5.5895
 20
-30.5824
 30
0
 70
     0
  0
VERTEX
  8
VOLVO_FM10__WB_3
 10
5.9432
 20
-30.3038
 30
0
 70
     0
  0
VERTEX
  8
VOLVO_FM10__WB_3
 10
6.2831
 20
-30.009
 30
0
 70
     0
  0
VERTEX
  8
VOLVO_FM10__WB_3
 10
6.6086
 20
-29.6985
 30
0
 70
     0
  0
VERTEX
  8
VOLVO_FM10__WB_3
 10
6.9191
 20
-29.373
 30
0
 70
     0
  0
VERTEX
  8
VOLVO_FM10__WB_3
 10
7.2139
 20
-29.0331
 30
0
 70
     0
  0
VERTEX
  8
VOLVO_FM10__WB_3
 10
7.4925
 20
-28.6794
 30
0
 70
     0
  0
VERTEX
  8
VOLVO_FM10__WB_3
 10
7.7542
 20
-28.3125
 30
0
 70
     0
  0
VERTEX
  8
VOLVO_FM10__WB_3
 10
7.9985
 20
-27.9329
 30
0
 70
     0
  0
VERTEX
  8
VOLVO_FM10__WB_3
 10
8.2247
 20
-27.5414
 30
0
 70
     0
  0
VERTEX
  8
VOLVO_FM10__WB_3
 10
8.4323
 20
-27.1385
 30
0
 70
     0
  0
VERTEX
  8
VOLVO_FM10__WB_3
 10
8.6206
 20
-26.7248
 30
0
 70
     0
  0
VERTEX
  8
VOLVO_FM10__WB_3
 10
8.7073
 20
-26.5141
 30
0
 70
     0
  0
VERTEX
  8
VOLVO_FM10__WB_3
 10
8.789
 20
-26.3009
 30
0
 70
     0
  0
VERTEX
  8
VOLVO_FM10__WB_3
 10
8.8655
 20
-26.0853
 30
0
 70
     0
  0
VERTEX
  8
VOLVO_FM10__WB_3
 10
8.9369
 20
-25.8675
 30
0
 70
     0
  0
VERTEX
  8
VOLVO_FM10__WB_3
 10
9.003
 20
-25.6473
 30
0
 70
     0
  0
VERTEX
  8
VOLVO_FM10__WB_3
 10
9.0637
 20
-25.425
 30
0
 70
     0
  0
VERTEX
  8
VOLVO_FM10__WB_3
 10
9.119
 20
-25.2007
 30
0
 70
     0
  0
VERTEX
  8
VOLVO_FM10__WB_3
 10
9.1689
 20
-24.9743
 30
0
 70
     0
  0
VERTEX
  8
VOLVO_FM10__WB_3
 10
9.2131
 20
-24.746
 30
0
 70
     0
  0
VERTEX
  8
VOLVO_FM10__WB_3
 10
9.2517
 20
-24.5158
 30
0
 70
     0
  0
VERTEX
  8
VOLVO_FM10__WB_3
 10
9.2845
 20
-24.2838
 30
0
 70
     0
  0
VERTEX
  8
VOLVO_FM10__WB_3
 10
9.3116
 20
-24.0501
 30
0
 70
     0
  0
VERTEX
  8
VOLVO_FM10__WB_3
 10
9.3328
 20
-23.8148
 30
0
 70
     0
  0
VERTEX
  8
VOLVO_FM10__WB_3
 10
9.348
 20
-23.5779
 30
0
 70
     0
  0
VERTEX
  8
VOLVO_FM10__WB_3
 10
9.3572
 20
-23.3395
 30
0
 70
     0
  0
VERTEX
  8
VOLVO_FM10__WB_3
 10
9.3602
 20
-23.0998
 30
0
 70
     0
  0
SEQEND
  0
POLYLINE
  8
VOLVO_FM10__WB_3
  6
CONTINUOUS
 62
     7
 66
     1
 40
0.0139
 41
0.0139
  0
VERTEX
  8
VOLVO_FM10__WB_3
 10
11.2598
 20
-23.0998
 30
0
 70
     0
  0
VERTEX
  8
VOLVO_FM10__WB_3
 10
11.2561
 20
-22.8113
 30
0
 70
     0
  0
VERTEX
  8
VOLVO_FM10__WB_3
 10
11.2451
 20
-22.5245
 30
0
 70
     0
  0
VERTEX
  8
VOLVO_FM10__WB_3
 10
11.2268
 20
-22.2395
 30
0
 70
     0
  0
VERTEX
  8
VOLVO_FM10__WB_3
 10
11.2013
 20
-21.9564
 30
0
 70
     0
  0
VERTEX
  8
VOLVO_FM10__WB_3
 10
11.1688
 20
-21.6752
 30
0
 70
     0
  0
VERTEX
  8
VOLVO_FM10__WB_3
 10
11.1292
 20
-21.3961
 30
0
 70
     0
  0
VERTEX
  8
VOLVO_FM10__WB_3
 10
11.0828
 20
-21.1192
 30
0
 70
     0
  0
VERTEX
  8
VOLVO_FM10__WB_3
 10
11.0296
 20
-20.8445
 30
0
 70
     0
  0
VERTEX
  8
VOLVO_FM10__WB_3
 10
10.9696
 20
-20.5721
 30
0
 70
     0
  0
VERTEX
  8
VOLVO_FM10__WB_3
 10
10.9031
 20
-20.3021
 30
0
 70
     0
  0
VERTEX
  8
VOLVO_FM10__WB_3
 10
10.83
 20
-20.0347
 30
0
 70
     0
  0
VERTEX
  8
VOLVO_FM10__WB_3
 10
10.7505
 20
-19.7698
 30
0
 70
     0
  0
VERTEX
  8
VOLVO_FM10__WB_3
 10
10.6646
 20
-19.5077
 30
0
 70
     0
  0
VERTEX
  8
VOLVO_FM10__WB_3
 10
10.5725
 20
-19.2483
 30
0
 70
     0
  0
VERTEX
  8
VOLVO_FM10__WB_3
 10
10.4743
 20
-18.9919
 30
0
 70
     0
  0
VERTEX
  8
VOLVO_FM10__WB_3
 10
10.3699
 20
-18.7383
 30
0
 70
     0
  0
VERTEX
  8
VOLVO_FM10__WB_3
 10
10.2596
 20
-18.4879
 30
0
 70
     0
  0
VERTEX
  8
VOLVO_FM10__WB_3
 10
10.1434
 20
-18.2406
 30
0
 70
     0
  0
VERTEX
  8
VOLVO_FM10__WB_3
 10
10.0214
 20
-17.9965
 30
0
 70
     0
  0
VERTEX
  8
VOLVO_FM10__WB_3
 10
9.8936
 20
-17.7558
 30
0
 70
     0
  0
VERTEX
  8
VOLVO_FM10__WB_3
 10
9.7603
 20
-17.5185
 30
0
 70
     0
  0
VERTEX
  8
VOLVO_FM10__WB_3
 10
9.6215
 20
-17.2847
 30
0
 70
     0
  0
VERTEX
  8
VOLVO_FM10__WB_3
 10
9.4772
 20
-17.0546
 30
0
 70
     0
  0
VERTEX
  8
VOLVO_FM10__WB_3
 10
9.3275
 20
-16.8281
 30
0
 70
     0
  0
VERTEX
  8
VOLVO_FM10__WB_3
 10
9.1727
 20
-16.6054
 30
0
 70
     0
  0
VERTEX
  8
VOLVO_FM10__WB_3
 10
9.0126
 20
-16.3866
 30
0
 70
     0
  0
VERTEX
  8
VOLVO_FM10__WB_3
 10
8.8475
 20
-16.1718
 30
0
 70
     0
  0
VERTEX
  8
VOLVO_FM10__WB_3
 10
8.6774
 20
-15.961
 30
0
 70
     0
  0
VERTEX
  8
VOLVO_FM10__WB_3
 10
8.3227
 20
-15.5521
 30
0
 70
     0
  0
VERTEX
  8
VOLVO_FM10__WB_3
 10
7.9492
 20
-15.1604
 30
0
 70
     0
  0
VERTEX
  8
VOLVO_FM10__WB_3
 10
7.5576
 20
-14.7869
 30
0
 70
     0
  0
VERTEX
  8
VOLVO_FM10__WB_3
 10
7.1486
 20
-14.4322
 30
0
 70
     0
  0
VERTEX
  8
VOLVO_FM10__WB_3
 10
6.9378
 20
-14.2621
 30
0
 70
     0
  0
VERTEX
  8
VOLVO_FM10__WB_3
 10
6.723
 20
-14.097
 30
0
 70
     0
  0
VERTEX
  8
VOLVO_FM10__WB_3
 10
6.5042
 20
-13.937
 30
0
 70
     0
  0
VERTEX
  8
VOLVO_FM10__WB_3
 10
6.2815
 20
-13.7821
 30
0
 70
     0
  0
VERTEX
  8
VOLVO_FM10__WB_3
 10
6.0551
 20
-13.6325
 30
0
 70
     0
  0
VERTEX
  8
VOLVO_FM10__WB_3
 10
5.8249
 20
-13.4882
 30
0
 70
     0
  0
VERTEX
  8
VOLVO_FM10__WB_3
 10
5.5911
 20
-13.3493
 30
0
 70
     0
  0
VERTEX
  8
VOLVO_FM10__WB_3
 10
5.3538
 20
-13.216
 30
0
 70
     0
  0
VERTEX
  8
VOLVO_FM10__WB_3
 10
5.1131
 20
-13.0883
 30
0
 70
     0
  0
VERTEX
  8
VOLVO_FM10__WB_3
 10
4.869
 20
-12.9663
 30
0
 70
     0
  0
VERTEX
  8
VOLVO_FM10__WB_3
 10
4.6217
 20
-12.85
 30
0
 70
     0
  0
VERTEX
  8
VOLVO_FM10__WB_3
 10
4.3713
 20
-12.7397
 30
0
 70
     0
  0
VERTEX
  8
VOLVO_FM10__WB_3
 10
4.1178
 20
-12.6354
 30
0
 70
     0
  0
VERTEX
  8
VOLVO_FM10__WB_3
 10
3.8613
 20
-12.5371
 30
0
 70
     0
  0
VERTEX
  8
VOLVO_FM10__WB_3
 10
3.6019
 20
-12.445
 30
0
 70
     0
  0
VERTEX
  8
VOLVO_FM10__WB_3
 10
3.3398
 20
-12.3591
 30
0
 70
     0
  0
VERTEX
  8
VOLVO_FM10__WB_3
 10
3.0749
 20
-12.2796
 30
0
 70
     0
  0
VERTEX
  8
VOLVO_FM10__WB_3
 10
2.8075
 20
-12.2065
 30
0
 70
     0
  0
VERTEX
  8
VOLVO_FM10__WB_3
 10
2.5375
 20
-12.14
 30
0
 70
     0
  0
VERTEX
  8
VOLVO_FM10__WB_3
 10
2.2652
 20
-12.0801
 30
0
 70
     0
  0
VERTEX
  8
VOLVO_FM10__WB_3
 10
1.9904
 20
-12.0268
 30
0
 70
     0
  0
VERTEX
  8
VOLVO_FM10__WB_3
 10
1.7135
 20
-11.9804
 30
0
 70
     0
  0
VERTEX
  8
VOLVO_FM10__WB_3
 10
1.4344
 20
-11.9409
 30
0
 70
     0
  0
VERTEX
  8
VOLVO_FM10__WB_3
 10
1.1532
 20
-11.9083
 30
0
 70
     0
  0
VERTEX
  8
VOLVO_FM10__WB_3
 10
0.8701
 20
-11.8828
 30
0
 70
     0
  0
VERTEX
  8
VOLVO_FM10__WB_3
 10
0.5851
 20
-11.8645
 30
0
 70
     0
  0
VERTEX
  8
VOLVO_FM10__WB_3
 10
0.2983
 20
-11.8535
 30
0
 70
     0
  0
VERTEX
  8
VOLVO_FM10__WB_3
 10
0.0098
 20
-11.8498
 30
0
 70
     0
  0
VERTEX
  8
VOLVO_FM10__WB_3
 10
0.0098
 20
-11.8498
 30
0
 70
     0
  0
VERTEX
  8
VOLVO_FM10__WB_3
 10
-0.2786
 20
-11.8535
 30
0
 70
     0
  0
VERTEX
  8
VOLVO_FM10__WB_3
 10
-0.5654
 20
-11.8645
 30
0
 70
     0
  0
VERTEX
  8
VOLVO_FM10__WB_3
 10
-0.8504
 20
-11.8828
 30
0
 70
     0
  0
VERTEX
  8
VOLVO_FM10__WB_3
 10
-1.1335
 20
-11.9083
 30
0
 70
     0
  0
VERTEX
  8
VOLVO_FM10__WB_3
 10
-1.4147
 20
-11.9409
 30
0
 70
     0
  0
VERTEX
  8
VOLVO_FM10__WB_3
 10
-1.6938
 20
-11.9804
 30
0
 70
     0
  0
VERTEX
  8
VOLVO_FM10__WB_3
 10
-1.9708
 20
-12.0268
 30
0
 70
     0
  0
VERTEX
  8
VOLVO_FM10__WB_3
 10
-2.2455
 20
-12.0801
 30
0
 70
     0
  0
VERTEX
  8
VOLVO_FM10__WB_3
 10
-2.5178
 20
-12.14
 30
0
 70
     0
  0
VERTEX
  8
VOLVO_FM10__WB_3
 10
-2.7878
 20
-12.2065
 30
0
 70
     0
  0
VERTEX
  8
VOLVO_FM10__WB_3
 10
-3.0553
 20
-12.2796
 30
0
 70
     0
  0
VERTEX
  8
VOLVO_FM10__WB_3
 10
-3.3201
 20
-12.3591
 30
0
 70
     0
  0
VERTEX
  8
VOLVO_FM10__WB_3
 10
-3.5822
 20
-12.445
 30
0
 70
     0
  0
VERTEX
  8
VOLVO_FM10__WB_3
 10
-3.8416
 20
-12.5371
 30
0
 70
     0
  0
VERTEX
  8
VOLVO_FM10__WB_3
 10
-4.0981
 20
-12.6354
 30
0
 70
     0
  0
VERTEX
  8
VOLVO_FM10__WB_3
 10
-4.3516
 20
-12.7397
 30
0
 70
     0
  0
VERTEX
  8
VOLVO_FM10__WB_3
 10
-4.602
 20
-12.85
 30
0
 70
     0
  0
VERTEX
  8
VOLVO_FM10__WB_3
 10
-4.8493
 20
-12.9663
 30
0
 70
     0
  0
VERTEX
  8
VOLVO_FM10__WB_3
 10
-5.0934
 20
-13.0883
 30
0
 70
     0
  0
VERTEX
  8
VOLVO_FM10__WB_3
 10
-5.3341
 20
-13.216
 30
0
 70
     0
  0
VERTEX
  8
VOLVO_FM10__WB_3
 10
-5.5714
 20
-13.3493
 30
0
 70
     0
  0
VERTEX
  8
VOLVO_FM10__WB_3
 10
-5.8052
 20
-13.4882
 30
0
 70
     0
  0
VERTEX
  8
VOLVO_FM10__WB_3
 10
-6.0354
 20
-13.6325
 30
0
 70
     0
  0
VERTEX
  8
VOLVO_FM10__WB_3
 10
-6.2618
 20
-13.7821
 30
0
 70
     0
  0
VERTEX
  8
VOLVO_FM10__WB_3
 10
-6.4845
 20
-13.937
 30
0
 70
     0
  0
VERTEX
  8
VOLVO_FM10__WB_3
 10
-6.7033
 20
-14.097
 30
0
 70
     0
  0
VERTEX
  8
VOLVO_FM10__WB_3
 10
-6.9181
 20
-14.2621
 30
0
 70
     0
  0
VERTEX
  8
VOLVO_FM10__WB_3
 10
-7.1289
 20
-14.4322
 30
0
 70
     0
  0
VERTEX
  8
VOLVO_FM10__WB_3
 10
-7.5379
 20
-14.7869
 30
0
 70
     0
  0
VERTEX
  8
VOLVO_FM10__WB_3
 10
-7.9295
 20
-15.1604
 30
0
 70
     0
  0
VERTEX
  8
VOLVO_FM10__WB_3
 10
-8.303
 20
-15.5521
 30
0
 70
     0
  0
VERTEX
  8
VOLVO_FM10__WB_3
 10
-8.6578
 20
-15.961
 30
0
 70
     0
  0
VERTEX
  8
VOLVO_FM10__WB_3
 10
-8.8278
 20
-16.1718
 30
0
 70
     0
  0
VERTEX
  8
VOLVO_FM10__WB_3
 10
-8.9929
 20
-16.3866
 30
0
 70
     0
  0
VERTEX
  8
VOLVO_FM10__WB_3
 10
-9.153
 20
-16.6054
 30
0
 70
     0
  0
VERTEX
  8
VOLVO_FM10__WB_3
 10
-9.3079
 20
-16.8281
 30
0
 70
     0
  0
VERTEX
  8
VOLVO_FM10__WB_3
 10
-9.4575
 20
-17.0546
 30
0
 70
     0
  0
VERTEX
  8
VOLVO_FM10__WB_3
 10
-9.6018
 20
-17.2847
 30
0
 70
     0
  0
VERTEX
  8
VOLVO_FM10__WB_3
 10
-9.7406
 20
-17.5185
 30
0
 70
     0
  0
VERTEX
  8
VOLVO_FM10__WB_3
 10
-9.874
 20
-17.7558
 30
0
 70
     0
  0
VERTEX
  8
VOLVO_FM10__WB_3
 10
-10.0017
 20
-17.9965
 30
0
 70
     0
  0
VERTEX
  8
VOLVO_FM10__WB_3
 10
-10.1237
 20
-18.2406
 30
0
 70
     0
  0
VERTEX
  8
VOLVO_FM10__WB_3
 10
-10.2399
 20
-18.4879
 30
0
 70
     0
  0
VERTEX
  8
VOLVO_FM10__WB_3
 10
-10.3502
 20
-18.7383
 30
0
 70
     0
  0
VERTEX
  8
VOLVO_FM10__WB_3
 10
-10.4546
 20
-18.9919
 30
0
 70
     0
  0
VERTEX
  8
VOLVO_FM10__WB_3
 10
-10.5528
 20
-19.2483
 30
0
 70
     0
  0
VERTEX
  8
VOLVO_FM10__WB_3
 10
-10.6449
 20
-19.5077
 30
0
 70
     0
  0
VERTEX
  8
VOLVO_FM10__WB_3
 10
-10.7308
 20
-19.7698
 30
0
 70
     0
  0
VERTEX
  8
VOLVO_FM10__WB_3
 10
-10.8103
 20
-20.0347
 30
0
 70
     0
  0
VERTEX
  8
VOLVO_FM10__WB_3
 10
-10.8834
 20
-20.3021
 30
0
 70
     0
  0
VERTEX
  8
VOLVO_FM10__WB_3
 10
-10.95
 20
-20.5721
 30
0
 70
     0
  0
VERTEX
  8
VOLVO_FM10__WB_3
 10
-11.0099
 20
-20.8445
 30
0
 70
     0
  0
VERTEX
  8
VOLVO_FM10__WB_3
 10
-11.0631
 20
-21.1192
 30
0
 70
     0
  0
VERTEX
  8
VOLVO_FM10__WB_3
 10
-11.1095
 20
-21.3961
 30
0
 70
     0
  0
VERTEX
  8
VOLVO_FM10__WB_3
 10
-11.1491
 20
-21.6752
 30
0
 70
     0
  0
VERTEX
  8
VOLVO_FM10__WB_3
 10
-11.1816
 20
-21.9564
 30
0
 70
     0
  0
VERTEX
  8
VOLVO_FM10__WB_3
 10
-11.2071
 20
-22.2395
 30
0
 70
     0
  0
VERTEX
  8
VOLVO_FM10__WB_3
 10
-11.2254
 20
-22.5245
 30
0
 70
     0
  0
VERTEX
  8
VOLVO_FM10__WB_3
 10
-11.2364
 20
-22.8113
 30
0
 70
     0
  0
VERTEX
  8
VOLVO_FM10__WB_3
 10
-11.2402
 20
-23.0998
 30
0
 70
     0
  0
VERTEX
  8
VOLVO_FM10__WB_3
 10
-11.2402
 20
-23.0998
 30
0
 70
     0
  0
VERTEX
  8
VOLVO_FM10__WB_3
 10
-11.2364
 20
-23.3883
 30
0
 70
     0
  0
VERTEX
  8
VOLVO_FM10__WB_3
 10
-11.2254
 20
-23.675
 30
0
 70
     0
  0
VERTEX
  8
VOLVO_FM10__WB_3
 10
-11.2071
 20
-23.96
 30
0
 70
     0
  0
VERTEX
  8
VOLVO_FM10__WB_3
 10
-11.1816
 20
-24.2432
 30
0
 70
     0
  0
VERTEX
  8
VOLVO_FM10__WB_3
 10
-11.1491
 20
-24.5243
 30
0
 70
     0
  0
VERTEX
  8
VOLVO_FM10__WB_3
 10
-11.1095
 20
-24.8034
 30
0
 70
     0
  0
VERTEX
  8
VOLVO_FM10__WB_3
 10
-11.0631
 20
-25.0804
 30
0
 70
     0
  0
VERTEX
  8
VOLVO_FM10__WB_3
 10
-11.0099
 20
-25.3551
 30
0
 70
     0
  0
VERTEX
  8
VOLVO_FM10__WB_3
 10
-10.95
 20
-25.6275
 30
0
 70
     0
  0
VERTEX
  8
VOLVO_FM10__WB_3
 10
-10.8834
 20
-25.8974
 30
0
 70
     0
  0
VERTEX
  8
VOLVO_FM10__WB_3
 10
-10.8103
 20
-26.1649
 30
0
 70
     0
  0
VERTEX
  8
VOLVO_FM10__WB_3
 10
-10.7308
 20
-26.4297
 30
0
 70
     0
  0
VERTEX
  8
VOLVO_FM10__WB_3
 10
-10.6449
 20
-26.6919
 30
0
 70
     0
  0
VERTEX
  8
VOLVO_FM10__WB_3
 10
-10.5528
 20
-26.9512
 30
0
 70
     0
  0
VERTEX
  8
VOLVO_FM10__WB_3
 10
-10.4546
 20
-27.2077
 30
0
 70
     0
  0
VERTEX
  8
VOLVO_FM10__WB_3
 10
-10.3502
 20
-27.4612
 30
0
 70
     0
  0
VERTEX
  8
VOLVO_FM10__WB_3
 10
-10.2399
 20
-27.7117
 30
0
 70
     0
  0
VERTEX
  8
VOLVO_FM10__WB_3
 10
-10.1237
 20
-27.959
 30
0
 70
     0
  0
VERTEX
  8
VOLVO_FM10__WB_3
 10
-10.0017
 20
-28.203
 30
0
 70
     0
  0
VERTEX
  8
VOLVO_FM10__WB_3
 10
-9.874
 20
-28.4438
 30
0
 70
     0
  0
VERTEX
  8
VOLVO_FM10__WB_3
 10
-9.7406
 20
-28.681
 30
0
 70
     0
  0
VERTEX
  8
VOLVO_FM10__WB_3
 10
-9.6018
 20
-28.9148
 30
0
 70
     0
  0
VERTEX
  8
VOLVO_FM10__WB_3
 10
-9.4575
 20
-29.145
 30
0
 70
     0
  0
VERTEX
  8
VOLVO_FM10__WB_3
 10
-9.3079
 20
-29.3715
 30
0
 70
     0
  0
VERTEX
  8
VOLVO_FM10__WB_3
 10
-9.153
 20
-29.5941
 30
0
 70
     0
  0
VERTEX
  8
VOLVO_FM10__WB_3
 10
-8.9929
 20
-29.8129
 30
0
 70
     0
  0
VERTEX
  8
VOLVO_FM10__WB_3
 10
-8.8278
 20
-30.0278
 30
0
 70
     0
  0
VERTEX
  8
VOLVO_FM10__WB_3
 10
-8.6578
 20
-30.2385
 30
0
 70
     0
  0
VERTEX
  8
VOLVO_FM10__WB_3
 10
-8.303
 20
-30.6475
 30
0
 70
     0
  0
VERTEX
  8
VOLVO_FM10__WB_3
 10
-7.9295
 20
-31.0391
 30
0
 70
     0
  0
VERTEX
  8
VOLVO_FM10__WB_3
 10
-7.5379
 20
-31.4127
 30
0
 70
     0
  0
VERTEX
  8
VOLVO_FM10__WB_3
 10
-7.1289
 20
-31.7674
 30
0
 70
     0
  0
VERTEX
  8
VOLVO_FM10__WB_3
 10
-6.9181
 20
-31.9375
 30
0
 70
     0
  0
VERTEX
  8
VOLVO_FM10__WB_3
 10
-6.7033
 20
-32.1026
 30
0
 70
     0
  0
VERTEX
  8
VOLVO_FM10__WB_3
 10
-6.4845
 20
-32.2626
 30
0
 70
     0
  0
VERTEX
  8
VOLVO_FM10__WB_3
 10
-6.2618
 20
-32.4175
 30
0
 70
     0
  0
VERTEX
  8
VOLVO_FM10__WB_3
 10
-6.0354
 20
-32.5671
 30
0
 70
     0
  0
VERTEX
  8
VOLVO_FM10__WB_3
 10
-5.8052
 20
-32.7114
 30
0
 70
     0
  0
VERTEX
  8
VOLVO_FM10__WB_3
 10
-5.5714
 20
-32.8503
 30
0
 70
     0
  0
VERTEX
  8
VOLVO_FM10__WB_3
 10
-5.3341
 20
-32.9836
 30
0
 70
     0
  0
VERTEX
  8
VOLVO_FM10__WB_3
 10
-5.0934
 20
-33.1113
 30
0
 70
     0
  0
VERTEX
  8
VOLVO_FM10__WB_3
 10
-4.8493
 20
-33.2333
 30
0
 70
     0
  0
VERTEX
  8
VOLVO_FM10__WB_3
 10
-4.602
 20
-33.3495
 30
0
 70
     0
  0
VERTEX
  8
VOLVO_FM10__WB_3
 10
-4.3516
 20
-33.4598
 30
0
 70
     0
  0
VERTEX
  8
VOLVO_FM10__WB_3
 10
-4.0981
 20
-33.5642
 30
0
 70
     0
  0
VERTEX
  8
VOLVO_FM10__WB_3
 10
-3.8416
 20
-33.6625
 30
0
 70
     0
  0
VERTEX
  8
VOLVO_FM10__WB_3
 10
-3.5822
 20
-33.7546
 30
0
 70
     0
  0
VERTEX
  8
VOLVO_FM10__WB_3
 10
-3.3201
 20
-33.8404
 30
0
 70
     0
  0
VERTEX
  8
VOLVO_FM10__WB_3
 10
-3.0553
 20
-33.92
 30
0
 70
     0
  0
VERTEX
  8
VOLVO_FM10__WB_3
 10
-2.7878
 20
-33.993
 30
0
 70
     0
  0
VERTEX
  8
VOLVO_FM10__WB_3
 10
-2.5178
 20
-34.0596
 30
0
 70
     0
  0
VERTEX
  8
VOLVO_FM10__WB_3
 10
-2.2455
 20
-34.1195
 30
0
 70
     0
  0
VERTEX
  8
VOLVO_FM10__WB_3
 10
-1.9708
 20
-34.1727
 30
0
 70
     0
  0
VERTEX
  8
VOLVO_FM10__WB_3
 10
-1.6938
 20
-34.2192
 30
0
 70
     0
  0
VERTEX
  8
VOLVO_FM10__WB_3
 10
-1.4147
 20
-34.2587
 30
0
 70
     0
  0
VERTEX
  8
VOLVO_FM10__WB_3
 10
-1.1335
 20
-34.2912
 30
0
 70
     0
  0
VERTEX
  8
VOLVO_FM10__WB_3
 10
-0.8504
 20
-34.3167
 30
0
 70
     0
  0
VERTEX
  8
VOLVO_FM10__WB_3
 10
-0.5654
 20
-34.335
 30
0
 70
     0
  0
VERTEX
  8
VOLVO_FM10__WB_3
 10
-0.2786
 20
-34.3461
 30
0
 70
     0
  0
VERTEX
  8
VOLVO_FM10__WB_3
 10
0.0098
 20
-34.3498
 30
0
 70
     0
  0
VERTEX
  8
VOLVO_FM10__WB_3
 10
0.0098
 20
-34.3498
 30
0
 70
     0
  0
VERTEX
  8
VOLVO_FM10__WB_3
 10
0.2983
 20
-34.3461
 30
0
 70
     0
  0
VERTEX
  8
VOLVO_FM10__WB_3
 10
0.5851
 20
-34.335
 30
0
 70
     0
  0
VERTEX
  8
VOLVO_FM10__WB_3
 10
0.8701
 20
-34.3167
 30
0
 70
     0
  0
VERTEX
  8
VOLVO_FM10__WB_3
 10
1.1532
 20
-34.2912
 30
0
 70
     0
  0
VERTEX
  8
VOLVO_FM10__WB_3
 10
1.4344
 20
-34.2587
 30
0
 70
     0
  0
VERTEX
  8
VOLVO_FM10__WB_3
 10
1.7135
 20
-34.2192
 30
0
 70
     0
  0
VERTEX
  8
VOLVO_FM10__WB_3
 10
1.9904
 20
-34.1727
 30
0
 70
     0
  0
VERTEX
  8
VOLVO_FM10__WB_3
 10
2.2652
 20
-34.1195
 30
0
 70
     0
  0
VERTEX
  8
VOLVO_FM10__WB_3
 10
2.5375
 20
-34.0596
 30
0
 70
     0
  0
VERTEX
  8
VOLVO_FM10__WB_3
 10
2.8075
 20
-33.993
 30
0
 70
     0
  0
VERTEX
  8
VOLVO_FM10__WB_3
 10
3.0749
 20
-33.92
 30
0
 70
     0
  0
VERTEX
  8
VOLVO_FM10__WB_3
 10
3.3398
 20
-33.8404
 30
0
 70
     0
  0
VERTEX
  8
VOLVO_FM10__WB_3
 10
3.6019
 20
-33.7546
 30
0
 70
     0
  0
VERTEX
  8
VOLVO_FM10__WB_3
 10
3.8613
 20
-33.6625
 30
0
 70
     0
  0
VERTEX
  8
VOLVO_FM10__WB_3
 10
4.1178
 20
-33.5642
 30
0
 70
     0
  0
VERTEX
  8
VOLVO_FM10__WB_3
 10
4.3713
 20
-33.4598
 30
0
 70
     0
  0
VERTEX
  8
VOLVO_FM10__WB_3
 10
4.6217
 20
-33.3495
 30
0
 70
     0
  0
VERTEX
  8
VOLVO_FM10__WB_3
 10
4.869
 20
-33.2333
 30
0
 70
     0
  0
VERTEX
  8
VOLVO_FM10__WB_3
 10
5.1131
 20
-33.1113
 30
0
 70
     0
  0
VERTEX
  8
VOLVO_FM10__WB_3
 10
5.3538
 20
-32.9836
 30
0
 70
     0
  0
VERTEX
  8
VOLVO_FM10__WB_3
 10
5.5911
 20
-32.8503
 30
0
 70
     0
  0
VERTEX
  8
VOLVO_FM10__WB_3
 10
5.8249
 20
-32.7114
 30
0
 70
     0
  0
VERTEX
  8
VOLVO_FM10__WB_3
 10
6.0551
 20
-32.5671
 30
0
 70
     0
  0
VERTEX
  8
VOLVO_FM10__WB_3
 10
6.2815
 20
-32.4175
 30
0
 70
     0
  0
VERTEX
  8
VOLVO_FM10__WB_3
 10
6.5042
 20
-32.2626
 30
0
 70
     0
  0
VERTEX
  8
VOLVO_FM10__WB_3
 10
6.723
 20
-32.1026
 30
0
 70
     0
  0
VERTEX
  8
VOLVO_FM10__WB_3
 10
6.9378
 20
-31.9375
 30
0
 70
     0
  0
VERTEX
  8
VOLVO_FM10__WB_3
 10
7.1486
 20
-31.7674
 30
0
 70
     0
  0
VERTEX
  8
VOLVO_FM10__WB_3
 10
7.5576
 20
-31.4127
 30
0
 70
     0
  0
VERTEX
  8
VOLVO_FM10__WB_3
 10
7.9492
 20
-31.0391
 30
0
 70
     0
  0
VERTEX
  8
VOLVO_FM10__WB_3
 10
8.3227
 20
-30.6475
 30
0
 70
     0
  0
VERTEX
  8
VOLVO_FM10__WB_3
 10
8.6774
 20
-30.2385
 30
0
 70
     0
  0
VERTEX
  8
VOLVO_FM10__WB_3
 10
8.8475
 20
-30.0278
 30
0
 70
     0
  0
VERTEX
  8
VOLVO_FM10__WB_3
 10
9.0126
 20
-29.8129
 30
0
 70
     0
  0
VERTEX
  8
VOLVO_FM10__WB_3
 10
9.1727
 20
-29.5941
 30
0
 70
     0
  0
VERTEX
  8
VOLVO_FM10__WB_3
 10
9.3275
 20
-29.3715
 30
0
 70
     0
  0
VERTEX
  8
VOLVO_FM10__WB_3
 10
9.4772
 20
-29.145
 30
0
 70
     0
  0
VERTEX
  8
VOLVO_FM10__WB_3
 10
9.6215
 20
-28.9148
 30
0
 70
     0
  0
VERTEX
  8
VOLVO_FM10__WB_3
 10
9.7603
 20
-28.681
 30
0
 70
     0
  0
VERTEX
  8
VOLVO_FM10__WB_3
 10
9.8936
 20
-28.4438
 30
0
 70
     0
  0
VERTEX
  8
VOLVO_FM10__WB_3
 10
10.0214
 20
-28.203
 30
0
 70
     0
  0
VERTEX
  8
VOLVO_FM10__WB_3
 10
10.1434
 20
-27.959
 30
0
 70
     0
  0
VERTEX
  8
VOLVO_FM10__WB_3
 10
10.2596
 20
-27.7117
 30
0
 70
     0
  0
VERTEX
  8
VOLVO_FM10__WB_3
 10
10.3699
 20
-27.4612
 30
0
 70
     0
  0
VERTEX
  8
VOLVO_FM10__WB_3
 10
10.4743
 20
-27.2077
 30
0
 70
     0
  0
VERTEX
  8
VOLVO_FM10__WB_3
 10
10.5725
 20
-26.9512
 30
0
 70
     0
  0
VERTEX
  8
VOLVO_FM10__WB_3
 10
10.6646
 20
-26.6919
 30
0
 70
     0
  0
VERTEX
  8
VOLVO_FM10__WB_3
 10
10.7505
 20
-26.4297
 30
0
 70
     0
  0
VERTEX
  8
VOLVO_FM10__WB_3
 10
10.83
 20
-26.1649
 30
0
 70
     0
  0
VERTEX
  8
VOLVO_FM10__WB_3
 10
10.9031
 20
-25.8974
 30
0
 70
     0
  0
VERTEX
  8
VOLVO_FM10__WB_3
 10
10.9696
 20
-25.6275
 30
0
 70
     0
  0
VERTEX
  8
VOLVO_FM10__WB_3
 10
11.0296
 20
-25.3551
 30
0
 70
     0
  0
VERTEX
  8
VOLVO_FM10__WB_3
 10
11.0828
 20
-25.0804
 30
0
 70
     0
  0
VERTEX
  8
VOLVO_FM10__WB_3
 10
11.1292
 20
-24.8034
 30
0
 70
     0
  0
VERTEX
  8
VOLVO_FM10__WB_3
 10
11.1688
 20
-24.5243
 30
0
 70
     0
  0
VERTEX
  8
VOLVO_FM10__WB_3
 10
11.2013
 20
-24.2432
 30
0
 70
     0
  0
VERTEX
  8
VOLVO_FM10__WB_3
 10
11.2268
 20
-23.96
 30
0
 70
     0
  0
VERTEX
  8
VOLVO_FM10__WB_3
 10
11.2451
 20
-23.675
 30
0
 70
     0
  0
VERTEX
  8
VOLVO_FM10__WB_3
 10
11.2561
 20
-23.3883
 30
0
 70
     0
  0
VERTEX
  8
VOLVO_FM10__WB_3
 10
11.2598
 20
-23.0998
 30
0
 70
     0
  0
SEQEND
  0
POLYLINE
  8
VOLVO_FM10__WB_3
  6
CONTINUOUS
 62
     7
 66
     1
 40
0.0139
 41
0.0139
  0
VERTEX
  8
VOLVO_FM10__WB_3
 10
21.0098
 20
-23.0998
 30
0
 70
     0
  0
VERTEX
  8
VOLVO_FM10__WB_3
 10
21.0029
 20
-22.5613
 30
0
 70
     0
  0
VERTEX
  8
VOLVO_FM10__WB_3
 10
20.9823
 20
-22.026
 30
0
 70
     0
  0
VERTEX
  8
VOLVO_FM10__WB_3
 10
20.9481
 20
-21.494
 30
0
 70
     0
  0
VERTEX
  8
VOLVO_FM10__WB_3
 10
20.9006
 20
-20.9655
 30
0
 70
     0
  0
VERTEX
  8
VOLVO_FM10__WB_3
 10
20.8398
 20
-20.4406
 30
0
 70
     0
  0
VERTEX
  8
VOLVO_FM10__WB_3
 10
20.766
 20
-19.9196
 30
0
 70
     0
  0
VERTEX
  8
VOLVO_FM10__WB_3
 10
20.6794
 20
-19.4027
 30
0
 70
     0
  0
VERTEX
  8
VOLVO_FM10__WB_3
 10
20.58
 20
-18.8899
 30
0
 70
     0
  0
VERTEX
  8
VOLVO_FM10__WB_3
 10
20.4681
 20
-18.3814
 30
0
 70
     0
  0
VERTEX
  8
VOLVO_FM10__WB_3
 10
20.3439
 20
-17.8775
 30
0
 70
     0
  0
VERTEX
  8
VOLVO_FM10__WB_3
 10
20.2075
 20
-17.3783
 30
0
 70
     0
  0
VERTEX
  8
VOLVO_FM10__WB_3
 10
20.0591
 20
-16.8839
 30
0
 70
     0
  0
VERTEX
  8
VOLVO_FM10__WB_3
 10
19.8988
 20
-16.3945
 30
0
 70
     0
  0
VERTEX
  8
VOLVO_FM10__WB_3
 10
19.7269
 20
-15.9104
 30
0
 70
     0
  0
VERTEX
  8
VOLVO_FM10__WB_3
 10
19.5434
 20
-15.4316
 30
0
 70
     0
  0
VERTEX
  8
VOLVO_FM10__WB_3
 10
19.3486
 20
-14.9584
 30
0
 70
     0
  0
VERTEX
  8
VOLVO_FM10__WB_3
 10
19.1427
 20
-14.4909
 30
0
 70
     0
  0
VERTEX
  8
VOLVO_FM10__WB_3
 10
18.9258
 20
-14.0293
 30
0
 70
     0
  0
VERTEX
  8
VOLVO_FM10__WB_3
 10
18.698
 20
-13.5737
 30
0
 70
     0
  0
VERTEX
  8
VOLVO_FM10__WB_3
 10
18.4596
 20
-13.1244
 30
0
 70
     0
  0
VERTEX
  8
VOLVO_FM10__WB_3
 10
18.2107
 20
-12.6814
 30
0
 70
     0
  0
VERTEX
  8
VOLVO_FM10__WB_3
 10
17.9515
 20
-12.245
 30
0
 70
     0
  0
VERTEX
  8
VOLVO_FM10__WB_3
 10
17.6822
 20
-11.8154
 30
0
 70
     0
  0
VERTEX
  8
VOLVO_FM10__WB_3
 10
17.4029
 20
-11.3926
 30
0
 70
     0
  0
VERTEX
  8
VOLVO_FM10__WB_3
 10
17.1138
 20
-10.977
 30
0
 70
     0
  0
VERTEX
  8
VOLVO_FM10__WB_3
 10
16.815
 20
-10.5685
 30
0
 70
     0
  0
VERTEX
  8
VOLVO_FM10__WB_3
 10
16.5068
 20
-10.1675
 30
0
 70
     0
  0
VERTEX
  8
VOLVO_FM10__WB_3
 10
16.1894
 20
-9.7741
 30
0
 70
     0
  0
VERTEX
  8
VOLVO_FM10__WB_3
 10
15.8628
 20
-9.3884
 30
0
 70
     0
  0
VERTEX
  8
VOLVO_FM10__WB_3
 10
15.5272
 20
-9.0107
 30
0
 70
     0
  0
VERTEX
  8
VOLVO_FM10__WB_3
 10
15.1829
 20
-8.6411
 30
0
 70
     0
  0
VERTEX
  8
VOLVO_FM10__WB_3
 10
14.8299
 20
-8.2797
 30
0
 70
     0
  0
VERTEX
  8
VOLVO_FM10__WB_3
 10
14.4686
 20
-7.9267
 30
0
 70
     0
  0
VERTEX
  8
VOLVO_FM10__WB_3
 10
14.0989
 20
-7.5824
 30
0
 70
     0
  0
VERTEX
  8
VOLVO_FM10__WB_3
 10
13.7212
 20
-7.2469
 30
0
 70
     0
  0
VERTEX
  8
VOLVO_FM10__WB_3
 10
13.3355
 20
-6.9203
 30
0
 70
     0
  0
VERTEX
  8
VOLVO_FM10__WB_3
 10
12.9421
 20
-6.6028
 30
0
 70
     0
  0
VERTEX
  8
VOLVO_FM10__WB_3
 10
12.5411
 20
-6.2946
 30
0
 70
     0
  0
VERTEX
  8
VOLVO_FM10__WB_3
 10
12.1327
 20
-5.9959
 30
0
 70
     0
  0
VERTEX
  8
VOLVO_FM10__WB_3
 10
11.717
 20
-5.7067
 30
0
 70
     0
  0
VERTEX
  8
VOLVO_FM10__WB_3
 10
11.2942
 20
-5.4274
 30
0
 70
     0
  0
VERTEX
  8
VOLVO_FM10__WB_3
 10
10.8646
 20
-5.1581
 30
0
 70
     0
  0
VERTEX
  8
VOLVO_FM10__WB_3
 10
10.4282
 20
-4.8989
 30
0
 70
     0
  0
VERTEX
  8
VOLVO_FM10__WB_3
 10
9.9853
 20
-4.65
 30
0
 70
     0
  0
VERTEX
  8
VOLVO_FM10__WB_3
 10
9.5359
 20
-4.4116
 30
0
 70
     0
  0
VERTEX
  8
VOLVO_FM10__WB_3
 10
9.0803
 20
-4.1839
 30
0
 70
     0
  0
VERTEX
  8
VOLVO_FM10__WB_3
 10
8.6187
 20
-3.9669
 30
0
 70
     0
  0
VERTEX
  8
VOLVO_FM10__WB_3
 10
8.1512
 20
-3.761
 30
0
 70
     0
  0
VERTEX
  8
VOLVO_FM10__WB_3
 10
7.678
 20
-3.5662
 30
0
 70
     0
  0
VERTEX
  8
VOLVO_FM10__WB_3
 10
7.1992
 20
-3.3828
 30
0
 70
     0
  0
VERTEX
  8
VOLVO_FM10__WB_3
 10
6.7151
 20
-3.2108
 30
0
 70
     0
  0
VERTEX
  8
VOLVO_FM10__WB_3
 10
6.2257
 20
-3.0506
 30
0
 70
     0
  0
VERTEX
  8
VOLVO_FM10__WB_3
 10
5.7314
 20
-2.9021
 30
0
 70
     0
  0
VERTEX
  8
VOLVO_FM10__WB_3
 10
5.2321
 20
-2.7657
 30
0
 70
     0
  0
VERTEX
  8
VOLVO_FM10__WB_3
 10
4.7282
 20
-2.6415
 30
0
 70
     0
  0
VERTEX
  8
VOLVO_FM10__WB_3
 10
4.2198
 20
-2.5296
 30
0
 70
     0
  0
VERTEX
  8
VOLVO_FM10__WB_3
 10
3.707
 20
-2.4303
 30
0
 70
     0
  0
VERTEX
  8
VOLVO_FM10__WB_3
 10
3.19
 20
-2.3436
 30
0
 70
     0
  0
VERTEX
  8
VOLVO_FM10__WB_3
 10
2.669
 20
-2.2698
 30
0
 70
     0
  0
VERTEX
  8
VOLVO_FM10__WB_3
 10
2.1442
 20
-2.2091
 30
0
 70
     0
  0
VERTEX
  8
VOLVO_FM10__WB_3
 10
1.6157
 20
-2.1615
 30
0
 70
     0
  0
VERTEX
  8
VOLVO_FM10__WB_3
 10
1.0837
 20
-2.1273
 30
0
 70
     0
  0
VERTEX
  8
VOLVO_FM10__WB_3
 10
0.5483
 20
-2.1067
 30
0
 70
     0
  0
VERTEX
  8
VOLVO_FM10__WB_3
 10
0.0098
 20
-2.0998
 30
0
 70
     0
  0
VERTEX
  8
VOLVO_FM10__WB_3
 10
0.0098
 20
-2.0998
 30
0
 70
     0
  0
VERTEX
  8
VOLVO_FM10__WB_3
 10
-0.5286
 20
-2.1067
 30
0
 70
     0
  0
VERTEX
  8
VOLVO_FM10__WB_3
 10
-1.064
 20
-2.1273
 30
0
 70
     0
  0
VERTEX
  8
VOLVO_FM10__WB_3
 10
-1.596
 20
-2.1615
 30
0
 70
     0
  0
VERTEX
  8
VOLVO_FM10__WB_3
 10
-2.1245
 20
-2.2091
 30
0
 70
     0
  0
VERTEX
  8
VOLVO_FM10__WB_3
 10
-2.6493
 20
-2.2698
 30
0
 70
     0
  0
VERTEX
  8
VOLVO_FM10__WB_3
 10
-3.1703
 20
-2.3436
 30
0
 70
     0
  0
VERTEX
  8
VOLVO_FM10__WB_3
 10
-3.6873
 20
-2.4303
 30
0
 70
     0
  0
VERTEX
  8
VOLVO_FM10__WB_3
 10
-4.2001
 20
-2.5296
 30
0
 70
     0
  0
VERTEX
  8
VOLVO_FM10__WB_3
 10
-4.7085
 20
-2.6415
 30
0
 70
     0
  0
VERTEX
  8
VOLVO_FM10__WB_3
 10
-5.2124
 20
-2.7657
 30
0
 70
     0
  0
VERTEX
  8
VOLVO_FM10__WB_3
 10
-5.7117
 20
-2.9021
 30
0
 70
     0
  0
VERTEX
  8
VOLVO_FM10__WB_3
 10
-6.2061
 20
-3.0506
 30
0
 70
     0
  0
VERTEX
  8
VOLVO_FM10__WB_3
 10
-6.6954
 20
-3.2108
 30
0
 70
     0
  0
VERTEX
  8
VOLVO_FM10__WB_3
 10
-7.1795
 20
-3.3828
 30
0
 70
     0
  0
VERTEX
  8
VOLVO_FM10__WB_3
 10
-7.6583
 20
-3.5662
 30
0
 70
     0
  0
VERTEX
  8
VOLVO_FM10__WB_3
 10
-8.1315
 20
-3.761
 30
0
 70
     0
  0
VERTEX
  8
VOLVO_FM10__WB_3
 10
-8.599
 20
-3.9669
 30
0
 70
     0
  0
VERTEX
  8
VOLVO_FM10__WB_3
 10
-9.0606
 20
-4.1839
 30
0
 70
     0
  0
VERTEX
  8
VOLVO_FM10__WB_3
 10
-9.5162
 20
-4.4116
 30
0
 70
     0
  0
VERTEX
  8
VOLVO_FM10__WB_3
 10
-9.9656
 20
-4.65
 30
0
 70
     0
  0
VERTEX
  8
VOLVO_FM10__WB_3
 10
-10.4085
 20
-4.8989
 30
0
 70
     0
  0
VERTEX
  8
VOLVO_FM10__WB_3
 10
-10.8449
 20
-5.1581
 30
0
 70
     0
  0
VERTEX
  8
VOLVO_FM10__WB_3
 10
-11.2746
 20
-5.4274
 30
0
 70
     0
  0
VERTEX
  8
VOLVO_FM10__WB_3
 10
-11.6973
 20
-5.7067
 30
0
 70
     0
  0
VERTEX
  8
VOLVO_FM10__WB_3
 10
-12.113
 20
-5.9959
 30
0
 70
     0
  0
VERTEX
  8
VOLVO_FM10__WB_3
 10
-12.5214
 20
-6.2946
 30
0
 70
     0
  0
VERTEX
  8
VOLVO_FM10__WB_3
 10
-12.9224
 20
-6.6028
 30
0
 70
     0
  0
VERTEX
  8
VOLVO_FM10__WB_3
 10
-13.3158
 20
-6.9203
 30
0
 70
     0
  0
VERTEX
  8
VOLVO_FM10__WB_3
 10
-13.7015
 20
-7.2469
 30
0
 70
     0
  0
VERTEX
  8
VOLVO_FM10__WB_3
 10
-14.0792
 20
-7.5824
 30
0
 70
     0
  0
VERTEX
  8
VOLVO_FM10__WB_3
 10
-14.4489
 20
-7.9267
 30
0
 70
     0
  0
VERTEX
  8
VOLVO_FM10__WB_3
 10
-14.8103
 20
-8.2797
 30
0
 70
     0
  0
VERTEX
  8
VOLVO_FM10__WB_3
 10
-15.1632
 20
-8.6411
 30
0
 70
     0
  0
VERTEX
  8
VOLVO_FM10__WB_3
 10
-15.5075
 20
-9.0107
 30
0
 70
     0
  0
VERTEX
  8
VOLVO_FM10__WB_3
 10
-15.8431
 20
-9.3884
 30
0
 70
     0
  0
VERTEX
  8
VOLVO_FM10__WB_3
 10
-16.1697
 20
-9.7741
 30
0
 70
     0
  0
VERTEX
  8
VOLVO_FM10__WB_3
 10
-16.4872
 20
-10.1675
 30
0
 70
     0
  0
VERTEX
  8
VOLVO_FM10__WB_3
 10
-16.7953
 20
-10.5685
 30
0
 70
     0
  0
VERTEX
  8
VOLVO_FM10__WB_3
 10
-17.0941
 20
-10.977
 30
0
 70
     0
  0
VERTEX
  8
VOLVO_FM10__WB_3
 10
-17.3832
 20
-11.3926
 30
0
 70
     0
  0
VERTEX
  8
VOLVO_FM10__WB_3
 10
-17.6625
 20
-11.8154
 30
0
 70
     0
  0
VERTEX
  8
VOLVO_FM10__WB_3
 10
-17.9318
 20
-12.245
 30
0
 70
     0
  0
VERTEX
  8
VOLVO_FM10__WB_3
 10
-18.191
 20
-12.6814
 30
0
 70
     0
  0
VERTEX
  8
VOLVO_FM10__WB_3
 10
-18.4399
 20
-13.1244
 30
0
 70
     0
  0
VERTEX
  8
VOLVO_FM10__WB_3
 10
-18.6783
 20
-13.5737
 30
0
 70
     0
  0
VERTEX
  8
VOLVO_FM10__WB_3
 10
-18.9061
 20
-14.0293
 30
0
 70
     0
  0
VERTEX
  8
VOLVO_FM10__WB_3
 10
-19.123
 20
-14.4909
 30
0
 70
     0
  0
VERTEX
  8
VOLVO_FM10__WB_3
 10
-19.3289
 20
-14.9584
 30
0
 70
     0
  0
VERTEX
  8
VOLVO_FM10__WB_3
 10
-19.5237
 20
-15.4316
 30
0
 70
     0
  0
VERTEX
  8
VOLVO_FM10__WB_3
 10
-19.7072
 20
-15.9104
 30
0
 70
     0
  0
VERTEX
  8
VOLVO_FM10__WB_3
 10
-19.8791
 20
-16.3945
 30
0
 70
     0
  0
VERTEX
  8
VOLVO_FM10__WB_3
 10
-20.0394
 20
-16.8839
 30
0
 70
     0
  0
VERTEX
  8
VOLVO_FM10__WB_3
 10
-20.1878
 20
-17.3783
 30
0
 70
     0
  0
VERTEX
  8
VOLVO_FM10__WB_3
 10
-20.3242
 20
-17.8775
 30
0
 70
     0
  0
VERTEX
  8
VOLVO_FM10__WB_3
 10
-20.4484
 20
-18.3814
 30
0
 70
     0
  0
VERTEX
  8
VOLVO_FM10__WB_3
 10
-20.5603
 20
-18.8899
 30
0
 70
     0
  0
VERTEX
  8
VOLVO_FM10__WB_3
 10
-20.6597
 20
-19.4027
 30
0
 70
     0
  0
VERTEX
  8
VOLVO_FM10__WB_3
 10
-20.7463
 20
-19.9196
 30
0
 70
     0
  0
VERTEX
  8
VOLVO_FM10__WB_3
 10
-20.8201
 20
-20.4406
 30
0
 70
     0
  0
VERTEX
  8
VOLVO_FM10__WB_3
 10
-20.8809
 20
-20.9655
 30
0
 70
     0
  0
VERTEX
  8
VOLVO_FM10__WB_3
 10
-20.9284
 20
-21.494
 30
0
 70
     0
  0
VERTEX
  8
VOLVO_FM10__WB_3
 10
-20.9626
 20
-22.026
 30
0
 70
     0
  0
VERTEX
  8
VOLVO_FM10__WB_3
 10
-20.9832
 20
-22.5613
 30
0
 70
     0
  0
VERTEX
  8
VOLVO_FM10__WB_3
 10
-20.9902
 20
-23.0998
 30
0
 70
     0
  0
VERTEX
  8
VOLVO_FM10__WB_3
 10
-20.9902
 20
-23.0998
 30
0
 70
     0
  0
VERTEX
  8
VOLVO_FM10__WB_3
 10
-20.9832
 20
-23.6383
 30
0
 70
     0
  0
VERTEX
  8
VOLVO_FM10__WB_3
 10
-20.9626
 20
-24.1736
 30
0
 70
     0
  0
VERTEX
  8
VOLVO_FM10__WB_3
 10
-20.9284
 20
-24.7056
 30
0
 70
     0
  0
VERTEX
  8
VOLVO_FM10__WB_3
 10
-20.8809
 20
-25.2341
 30
0
 70
     0
  0
VERTEX
  8
VOLVO_FM10__WB_3
 10
-20.8201
 20
-25.7589
 30
0
 70
     0
  0
VERTEX
  8
VOLVO_FM10__WB_3
 10
-20.7463
 20
-26.2799
 30
0
 70
     0
  0
VERTEX
  8
VOLVO_FM10__WB_3
 10
-20.6597
 20
-26.7969
 30
0
 70
     0
  0
VERTEX
  8
VOLVO_FM10__WB_3
 10
-20.5603
 20
-27.3097
 30
0
 70
     0
  0
VERTEX
  8
VOLVO_FM10__WB_3
 10
-20.4484
 20
-27.8181
 30
0
 70
     0
  0
VERTEX
  8
VOLVO_FM10__WB_3
 10
-20.3242
 20
-28.3221
 30
0
 70
     0
  0
VERTEX
  8
VOLVO_FM10__WB_3
 10
-20.1878
 20
-28.8213
 30
0
 70
     0
  0
VERTEX
  8
VOLVO_FM10__WB_3
 10
-20.0394
 20
-29.3157
 30
0
 70
     0
  0
VERTEX
  8
VOLVO_FM10__WB_3
 10
-19.8791
 20
-29.805
 30
0
 70
     0
  0
VERTEX
  8
VOLVO_FM10__WB_3
 10
-19.7072
 20
-30.2892
 30
0
 70
     0
  0
VERTEX
  8
VOLVO_FM10__WB_3
 10
-19.5237
 20
-30.7679
 30
0
 70
     0
  0
VERTEX
  8
VOLVO_FM10__WB_3
 10
-19.3289
 20
-31.2411
 30
0
 70
     0
  0
VERTEX
  8
VOLVO_FM10__WB_3
 10
-19.123
 20
-31.7087
 30
0
 70
     0
  0
VERTEX
  8
VOLVO_FM10__WB_3
 10
-18.9061
 20
-32.1703
 30
0
 70
     0
  0
VERTEX
  8
VOLVO_FM10__WB_3
 10
-18.6783
 20
-32.6258
 30
0
 70
     0
  0
VERTEX
  8
VOLVO_FM10__WB_3
 10
-18.4399
 20
-33.0752
 30
0
 70
     0
  0
VERTEX
  8
VOLVO_FM10__WB_3
 10
-18.191
 20
-33.5181
 30
0
 70
     0
  0
VERTEX
  8
VOLVO_FM10__WB_3
 10
-17.9318
 20
-33.9545
 30
0
 70
     0
  0
VERTEX
  8
VOLVO_FM10__WB_3
 10
-17.6625
 20
-34.3842
 30
0
 70
     0
  0
VERTEX
  8
VOLVO_FM10__WB_3
 10
-17.3832
 20
-34.8069
 30
0
 70
     0
  0
VERTEX
  8
VOLVO_FM10__WB_3
 10
-17.0941
 20
-35.2226
 30
0
 70
     0
  0
VERTEX
  8
VOLVO_FM10__WB_3
 10
-16.7953
 20
-35.631
 30
0
 70
     0
  0
VERTEX
  8
VOLVO_FM10__WB_3
 10
-16.4872
 20
-36.032
 30
0
 70
     0
  0
VERTEX
  8
VOLVO_FM10__WB_3
 10
-16.1697
 20
-36.4255
 30
0
 70
     0
  0
VERTEX
  8
VOLVO_FM10__WB_3
 10
-15.8431
 20
-36.8111
 30
0
 70
     0
  0
VERTEX
  8
VOLVO_FM10__WB_3
 10
-15.5075
 20
-37.1889
 30
0
 70
     0
  0
VERTEX
  8
VOLVO_FM10__WB_3
 10
-15.1632
 20
-37.5585
 30
0
 70
     0
  0
VERTEX
  8
VOLVO_FM10__WB_3
 10
-14.8103
 20
-37.9199
 30
0
 70
     0
  0
VERTEX
  8
VOLVO_FM10__WB_3
 10
-14.4489
 20
-38.2728
 30
0
 70
     0
  0
VERTEX
  8
VOLVO_FM10__WB_3
 10
-14.0792
 20
-38.6171
 30
0
 70
     0
  0
VERTEX
  8
VOLVO_FM10__WB_3
 10
-13.7015
 20
-38.9527
 30
0
 70
     0
  0
VERTEX
  8
VOLVO_FM10__WB_3
 10
-13.3158
 20
-39.2793
 30
0
 70
     0
  0
VERTEX
  8
VOLVO_FM10__WB_3
 10
-12.9224
 20
-39.5968
 30
0
 70
     0
  0
VERTEX
  8
VOLVO_FM10__WB_3
 10
-12.5214
 20
-39.905
 30
0
 70
     0
  0
VERTEX
  8
VOLVO_FM10__WB_3
 10
-12.113
 20
-40.2037
 30
0
 70
     0
  0
VERTEX
  8
VOLVO_FM10__WB_3
 10
-11.6973
 20
-40.4928
 30
0
 70
     0
  0
VERTEX
  8
VOLVO_FM10__WB_3
 10
-11.2746
 20
-40.7721
 30
0
 70
     0
  0
VERTEX
  8
VOLVO_FM10__WB_3
 10
-10.8449
 20
-41.0415
 30
0
 70
     0
  0
VERTEX
  8
VOLVO_FM10__WB_3
 10
-10.4085
 20
-41.3007
 30
0
 70
     0
  0
VERTEX
  8
VOLVO_FM10__WB_3
 10
-9.9656
 20
-41.5495
 30
0
 70
     0
  0
VERTEX
  8
VOLVO_FM10__WB_3
 10
-9.5162
 20
-41.7879
 30
0
 70
     0
  0
VERTEX
  8
VOLVO_FM10__WB_3
 10
-9.0606
 20
-42.0157
 30
0
 70
     0
  0
VERTEX
  8
VOLVO_FM10__WB_3
 10
-8.599
 20
-42.2326
 30
0
 70
     0
  0
VERTEX
  8
VOLVO_FM10__WB_3
 10
-8.1315
 20
-42.4386
 30
0
 70
     0
  0
VERTEX
  8
VOLVO_FM10__WB_3
 10
-7.6583
 20
-42.6333
 30
0
 70
     0
  0
VERTEX
  8
VOLVO_FM10__WB_3
 10
-7.1795
 20
-42.8168
 30
0
 70
     0
  0
VERTEX
  8
VOLVO_FM10__WB_3
 10
-6.6954
 20
-42.9887
 30
0
 70
     0
  0
VERTEX
  8
VOLVO_FM10__WB_3
 10
-6.2061
 20
-43.149
 30
0
 70
     0
  0
VERTEX
  8
VOLVO_FM10__WB_3
 10
-5.7117
 20
-43.2974
 30
0
 70
     0
  0
VERTEX
  8
VOLVO_FM10__WB_3
 10
-5.2124
 20
-43.4338
 30
0
 70
     0
  0
VERTEX
  8
VOLVO_FM10__WB_3
 10
-4.7085
 20
-43.5581
 30
0
 70
     0
  0
VERTEX
  8
VOLVO_FM10__WB_3
 10
-4.2001
 20
-43.67
 30
0
 70
     0
  0
VERTEX
  8
VOLVO_FM10__WB_3
 10
-3.6873
 20
-43.7693
 30
0
 70
     0
  0
VERTEX
  8
VOLVO_FM10__WB_3
 10
-3.1703
 20
-43.856
 30
0
 70
     0
  0
VERTEX
  8
VOLVO_FM10__WB_3
 10
-2.6493
 20
-43.9298
 30
0
 70
     0
  0
VERTEX
  8
VOLVO_FM10__WB_3
 10
-2.1245
 20
-43.9905
 30
0
 70
     0
  0
VERTEX
  8
VOLVO_FM10__WB_3
 10
-1.596
 20
-44.0381
 30
0
 70
     0
  0
VERTEX
  8
VOLVO_FM10__WB_3
 10
-1.064
 20
-44.0722
 30
0
 70
     0
  0
VERTEX
  8
VOLVO_FM10__WB_3
 10
-0.5286
 20
-44.0929
 30
0
 70
     0
  0
VERTEX
  8
VOLVO_FM10__WB_3
 10
0.0098
 20
-44.0998
 30
0
 70
     0
  0
VERTEX
  8
VOLVO_FM10__WB_3
 10
0.0098
 20
-44.0998
 30
0
 70
     0
  0
VERTEX
  8
VOLVO_FM10__WB_3
 10
0.5483
 20
-44.0929
 30
0
 70
     0
  0
VERTEX
  8
VOLVO_FM10__WB_3
 10
1.0837
 20
-44.0722
 30
0
 70
     0
  0
VERTEX
  8
VOLVO_FM10__WB_3
 10
1.6157
 20
-44.0381
 30
0
 70
     0
  0
VERTEX
  8
VOLVO_FM10__WB_3
 10
2.1442
 20
-43.9905
 30
0
 70
     0
  0
VERTEX
  8
VOLVO_FM10__WB_3
 10
2.669
 20
-43.9298
 30
0
 70
     0
  0
VERTEX
  8
VOLVO_FM10__WB_3
 10
3.19
 20
-43.856
 30
0
 70
     0
  0
VERTEX
  8
VOLVO_FM10__WB_3
 10
3.707
 20
-43.7693
 30
0
 70
     0
  0
VERTEX
  8
VOLVO_FM10__WB_3
 10
4.2198
 20
-43.67
 30
0
 70
     0
  0
VERTEX
  8
VOLVO_FM10__WB_3
 10
4.7282
 20
-43.5581
 30
0
 70
     0
  0
VERTEX
  8
VOLVO_FM10__WB_3
 10
5.2321
 20
-43.4338
 30
0
 70
     0
  0
VERTEX
  8
VOLVO_FM10__WB_3
 10
5.7314
 20
-43.2974
 30
0
 70
     0
  0
VERTEX
  8
VOLVO_FM10__WB_3
 10
6.2257
 20
-43.149
 30
0
 70
     0
  0
VERTEX
  8
VOLVO_FM10__WB_3
 10
6.7151
 20
-42.9887
 30
0
 70
     0
  0
VERTEX
  8
VOLVO_FM10__WB_3
 10
7.1992
 20
-42.8168
 30
0
 70
     0
  0
VERTEX
  8
VOLVO_FM10__WB_3
 10
7.678
 20
-42.6333
 30
0
 70
     0
  0
VERTEX
  8
VOLVO_FM10__WB_3
 10
8.1512
 20
-42.4386
 30
0
 70
     0
  0
VERTEX
  8
VOLVO_FM10__WB_3
 10
8.6187
 20
-42.2326
 30
0
 70
     0
  0
VERTEX
  8
VOLVO_FM10__WB_3
 10
9.0803
 20
-42.0157
 30
0
 70
     0
  0
VERTEX
  8
VOLVO_FM10__WB_3
 10
9.5359
 20
-41.7879
 30
0
 70
     0
  0
VERTEX
  8
VOLVO_FM10__WB_3
 10
9.9853
 20
-41.5495
 30
0
 70
     0
  0
VERTEX
  8
VOLVO_FM10__WB_3
 10
10.4282
 20
-41.3007
 30
0
 70
     0
  0
VERTEX
  8
VOLVO_FM10__WB_3
 10
10.8646
 20
-41.0415
 30
0
 70
     0
  0
VERTEX
  8
VOLVO_FM10__WB_3
 10
11.2942
 20
-40.7721
 30
0
 70
     0
  0
VERTEX
  8
VOLVO_FM10__WB_3
 10
11.717
 20
-40.4928
 30
0
 70
     0
  0
VERTEX
  8
VOLVO_FM10__WB_3
 10
12.1327
 20
-40.2037
 30
0
 70
     0
  0
VERTEX
  8
VOLVO_FM10__WB_3
 10
12.5411
 20
-39.905
 30
0
 70
     0
  0
VERTEX
  8
VOLVO_FM10__WB_3
 10
12.9421
 20
-39.5968
 30
0
 70
     0
  0
VERTEX
  8
VOLVO_FM10__WB_3
 10
13.3355
 20
-39.2793
 30
0
 70
     0
  0
VERTEX
  8
VOLVO_FM10__WB_3
 10
13.7212
 20
-38.9527
 30
0
 70
     0
  0
VERTEX
  8
VOLVO_FM10__WB_3
 10
14.0989
 20
-38.6171
 30
0
 70
     0
  0
VERTEX
  8
VOLVO_FM10__WB_3
 10
14.4686
 20
-38.2728
 30
0
 70
     0
  0
VERTEX
  8
VOLVO_FM10__WB_3
 10
14.8299
 20
-37.9199
 30
0
 70
     0
  0
VERTEX
  8
VOLVO_FM10__WB_3
 10
15.1829
 20
-37.5585
 30
0
 70
     0
  0
VERTEX
  8
VOLVO_FM10__WB_3
 10
15.5272
 20
-37.1889
 30
0
 70
     0
  0
VERTEX
  8
VOLVO_FM10__WB_3
 10
15.8628
 20
-36.8111
 30
0
 70
     0
  0
VERTEX
  8
VOLVO_FM10__WB_3
 10
16.1894
 20
-36.4255
 30
0
 70
     0
  0
VERTEX
  8
VOLVO_FM10__WB_3
 10
16.5068
 20
-36.032
 30
0
 70
     0
  0
VERTEX
  8
VOLVO_FM10__WB_3
 10
16.815
 20
-35.631
 30
0
 70
     0
  0
VERTEX
  8
VOLVO_FM10__WB_3
 10
17.1138
 20
-35.2226
 30
0
 70
     0
  0
VERTEX
  8
VOLVO_FM10__WB_3
 10
17.4029
 20
-34.8069
 30
0
 70
     0
  0
VERTEX
  8
VOLVO_FM10__WB_3
 10
17.6822
 20
-34.3842
 30
0
 70
     0
  0
VERTEX
  8
VOLVO_FM10__WB_3
 10
17.9515
 20
-33.9545
 30
0
 70
     0
  0
VERTEX
  8
VOLVO_FM10__WB_3
 10
18.2107
 20
-33.5181
 30
0
 70
     0
  0
VERTEX
  8
VOLVO_FM10__WB_3
 10
18.4596
 20
-33.0752
 30
0
 70
     0
  0
VERTEX
  8
VOLVO_FM10__WB_3
 10
18.698
 20
-32.6258
 30
0
 70
     0
  0
VERTEX
  8
VOLVO_FM10__WB_3
 10
18.9258
 20
-32.1703
 30
0
 70
     0
  0
VERTEX
  8
VOLVO_FM10__WB_3
 10
19.1427
 20
-31.7087
 30
0
 70
     0
  0
VERTEX
  8
VOLVO_FM10__WB_3
 10
19.3486
 20
-31.2411
 30
0
 70
     0
  0
VERTEX
  8
VOLVO_FM10__WB_3
 10
19.5434
 20
-30.7679
 30
0
 70
     0
  0
VERTEX
  8
VOLVO_FM10__WB_3
 10
19.7269
 20
-30.2892
 30
0
 70
     0
  0
VERTEX
  8
VOLVO_FM10__WB_3
 10
19.8988
 20
-29.805
 30
0
 70
     0
  0
VERTEX
  8
VOLVO_FM10__WB_3
 10
20.0591
 20
-29.3157
 30
0
 70
     0
  0
VERTEX
  8
VOLVO_FM10__WB_3
 10
20.2075
 20
-28.8213
 30
0
 70
     0
  0
VERTEX
  8
VOLVO_FM10__WB_3
 10
20.3439
 20
-28.3221
 30
0
 70
     0
  0
VERTEX
  8
VOLVO_FM10__WB_3
 10
20.4681
 20
-27.8181
 30
0
 70
     0
  0
VERTEX
  8
VOLVO_FM10__WB_3
 10
20.58
 20
-27.3097
 30
0
 70
     0
  0
VERTEX
  8
VOLVO_FM10__WB_3
 10
20.6794
 20
-26.7969
 30
0
 70
     0
  0
VERTEX
  8
VOLVO_FM10__WB_3
 10
20.766
 20
-26.2799
 30
0
 70
     0
  0
VERTEX
  8
VOLVO_FM10__WB_3
 10
20.8398
 20
-25.7589
 30
0
 70
     0
  0
VERTEX
  8
VOLVO_FM10__WB_3
 10
20.9006
 20
-25.2341
 30
0
 70
     0
  0
VERTEX
  8
VOLVO_FM10__WB_3
 10
20.9481
 20
-24.7056
 30
0
 70
     0
  0
VERTEX
  8
VOLVO_FM10__WB_3
 10
20.9823
 20
-24.1736
 30
0
 70
     0
  0
VERTEX
  8
VOLVO_FM10__WB_3
 10
21.0029
 20
-23.6383
 30
0
 70
     0
  0
VERTEX
  8
VOLVO_FM10__WB_3
 10
21.0098
 20
-23.0998
 30
0
 70
     0
  0
SEQEND
  0
POLYLINE
  8
VOLVO_FM10__WB_3
  6
CONTINUOUS
 62
     7
 66
     1
 40
0.0139
 41
0.0139
  0
VERTEX
  8
VOLVO_FM10__WB_3
 10
19.0413
 20
-23.0998
 30
0
 70
     0
  0
VERTEX
  8
VOLVO_FM10__WB_3
 10
19.0351
 20
-22.6118
 30
0
 70
     0
  0
VERTEX
  8
VOLVO_FM10__WB_3
 10
19.0164
 20
-22.1266
 30
0
 70
     0
  0
VERTEX
  8
VOLVO_FM10__WB_3
 10
18.9854
 20
-21.6445
 30
0
 70
     0
  0
VERTEX
  8
VOLVO_FM10__WB_3
 10
18.9423
 20
-21.1655
 30
0
 70
     0
  0
VERTEX
  8
VOLVO_FM10__WB_3
 10
18.8872
 20
-20.6899
 30
0
 70
     0
  0
VERTEX
  8
VOLVO_FM10__WB_3
 10
18.8204
 20
-20.2177
 30
0
 70
     0
  0
VERTEX
  8
VOLVO_FM10__WB_3
 10
18.7418
 20
-19.7492
 30
0
 70
     0
  0
VERTEX
  8
VOLVO_FM10__WB_3
 10
18.6518
 20
-19.2845
 30
0
 70
     0
  0
VERTEX
  8
VOLVO_FM10__WB_3
 10
18.5504
 20
-18.8237
 30
0
 70
     0
  0
VERTEX
  8
VOLVO_FM10__WB_3
 10
18.4378
 20
-18.367
 30
0
 70
     0
  0
VERTEX
  8
VOLVO_FM10__WB_3
 10
18.3142
 20
-17.9146
 30
0
 70
     0
  0
VERTEX
  8
VOLVO_FM10__WB_3
 10
18.1797
 20
-17.4666
 30
0
 70
     0
  0
VERTEX
  8
VOLVO_FM10__WB_3
 10
18.0344
 20
-17.0231
 30
0
 70
     0
  0
VERTEX
  8
VOLVO_FM10__WB_3
 10
17.8786
 20
-16.5843
 30
0
 70
     0
  0
VERTEX
  8
VOLVO_FM10__WB_3
 10
17.7124
 20
-16.1504
 30
0
 70
     0
  0
VERTEX
  8
VOLVO_FM10__WB_3
 10
17.5358
 20
-15.7216
 30
0
 70
     0
  0
VERTEX
  8
VOLVO_FM10__WB_3
 10
17.3492
 20
-15.2979
 30
0
 70
     0
  0
VERTEX
  8
VOLVO_FM10__WB_3
 10
17.1526
 20
-14.8795
 30
0
 70
     0
  0
VERTEX
  8
VOLVO_FM10__WB_3
 10
16.9462
 20
-14.4667
 30
0
 70
     0
  0
VERTEX
  8
VOLVO_FM10__WB_3
 10
16.7302
 20
-14.0595
 30
0
 70
     0
  0
VERTEX
  8
VOLVO_FM10__WB_3
 10
16.5046
 20
-13.658
 30
0
 70
     0
  0
VERTEX
  8
VOLVO_FM10__WB_3
 10
16.2697
 20
-13.2625
 30
0
 70
     0
  0
VERTEX
  8
VOLVO_FM10__WB_3
 10
16.0256
 20
-12.8732
 30
0
 70
     0
  0
VERTEX
  8
VOLVO_FM10__WB_3
 10
15.7725
 20
-12.49
 30
0
 70
     0
  0
VERTEX
  8
VOLVO_FM10__WB_3
 10
15.5105
 20
-12.1133
 30
0
 70
     0
  0
VERTEX
  8
VOLVO_FM10__WB_3
 10
15.2398
 20
-11.7432
 30
0
 70
     0
  0
VERTEX
  8
VOLVO_FM10__WB_3
 10
14.9604
 20
-11.3798
 30
0
 70
     0
  0
VERTEX
  8
VOLVO_FM10__WB_3
 10
14.6727
 20
-11.0232
 30
0
 70
     0
  0
VERTEX
  8
VOLVO_FM10__WB_3
 10
14.3767
 20
-10.6737
 30
0
 70
     0
  0
VERTEX
  8
VOLVO_FM10__WB_3
 10
14.0726
 20
-10.3314
 30
0
 70
     0
  0
VERTEX
  8
VOLVO_FM10__WB_3
 10
13.7606
 20
-9.9964
 30
0
 70
     0
  0
VERTEX
  8
VOLVO_FM10__WB_3
 10
13.4407
 20
-9.6689
 30
0
 70
     0
  0
VERTEX
  8
VOLVO_FM10__WB_3
 10
13.1132
 20
-9.349
 30
0
 70
     0
  0
VERTEX
  8
VOLVO_FM10__WB_3
 10
12.7782
 20
-9.037
 30
0
 70
     0
  0
VERTEX
  8
VOLVO_FM10__WB_3
 10
12.4359
 20
-8.7329
 30
0
 70
     0
  0
VERTEX
  8
VOLVO_FM10__WB_3
 10
12.0864
 20
-8.4369
 30
0
 70
     0
  0
VERTEX
  8
VOLVO_FM10__WB_3
 10
11.7299
 20
-8.1492
 30
0
 70
     0
  0
VERTEX
  8
VOLVO_FM10__WB_3
 10
11.3664
 20
-7.8699
 30
0
 70
     0
  0
VERTEX
  8
VOLVO_FM10__WB_3
 10
10.9963
 20
-7.5991
 30
0
 70
     0
  0
VERTEX
  8
VOLVO_FM10__WB_3
 10
10.6196
 20
-7.3371
 30
0
 70
     0
  0
VERTEX
  8
VOLVO_FM10__WB_3
 10
10.2365
 20
-7.084
 30
0
 70
     0
  0
VERTEX
  8
VOLVO_FM10__WB_3
 10
9.8471
 20
-6.8399
 30
0
 70
     0
  0
VERTEX
  8
VOLVO_FM10__WB_3
 10
9.4516
 20
-6.605
 30
0
 70
     0
  0
VERTEX
  8
VOLVO_FM10__WB_3
 10
9.0502
 20
-6.3795
 30
0
 70
     0
  0
VERTEX
  8
VOLVO_FM10__WB_3
 10
8.643
 20
-6.1634
 30
0
 70
     0
  0
VERTEX
  8
VOLVO_FM10__WB_3
 10
8.2301
 20
-5.957
 30
0
 70
     0
  0
VERTEX
  8
VOLVO_FM10__WB_3
 10
7.8117
 20
-5.7604
 30
0
 70
     0
  0
VERTEX
  8
VOLVO_FM10__WB_3
 10
7.388
 20
-5.5738
 30
0
 70
     0
  0
VERTEX
  8
VOLVO_FM10__WB_3
 10
6.9592
 20
-5.3973
 30
0
 70
     0
  0
VERTEX
  8
VOLVO_FM10__WB_3
 10
6.5253
 20
-5.231
 30
0
 70
     0
  0
VERTEX
  8
VOLVO_FM10__WB_3
 10
6.0865
 20
-5.0752
 30
0
 70
     0
  0
VERTEX
  8
VOLVO_FM10__WB_3
 10
5.6431
 20
-4.9299
 30
0
 70
     0
  0
VERTEX
  8
VOLVO_FM10__WB_3
 10
5.195
 20
-4.7954
 30
0
 70
     0
  0
VERTEX
  8
VOLVO_FM10__WB_3
 10
4.7426
 20
-4.6718
 30
0
 70
     0
  0
VERTEX
  8
VOLVO_FM10__WB_3
 10
4.2859
 20
-4.5592
 30
0
 70
     0
  0
VERTEX
  8
VOLVO_FM10__WB_3
 10
3.8251
 20
-4.4578
 30
0
 70
     0
  0
VERTEX
  8
VOLVO_FM10__WB_3
 10
3.3604
 20
-4.3678
 30
0
 70
     0
  0
VERTEX
  8
VOLVO_FM10__WB_3
 10
2.8919
 20
-4.2893
 30
0
 70
     0
  0
VERTEX
  8
VOLVO_FM10__WB_3
 10
2.4197
 20
-4.2224
 30
0
 70
     0
  0
VERTEX
  8
VOLVO_FM10__WB_3
 10
1.9441
 20
-4.1673
 30
0
 70
     0
  0
VERTEX
  8
VOLVO_FM10__WB_3
 10
1.4651
 20
-4.1242
 30
0
 70
     0
  0
VERTEX
  8
VOLVO_FM10__WB_3
 10
0.983
 20
-4.0933
 30
0
 70
     0
  0
VERTEX
  8
VOLVO_FM10__WB_3
 10
0.4979
 20
-4.0746
 30
0
 70
     0
  0
VERTEX
  8
VOLVO_FM10__WB_3
 10
0.0098
 20
-4.0683
 30
0
 70
     0
  0
VERTEX
  8
VOLVO_FM10__WB_3
 10
0.0098
 20
-4.0683
 30
0
 70
     0
  0
VERTEX
  8
VOLVO_FM10__WB_3
 10
-0.4782
 20
-4.0746
 30
0
 70
     0
  0
VERTEX
  8
VOLVO_FM10__WB_3
 10
-0.9633
 20
-4.0933
 30
0
 70
     0
  0
VERTEX
  8
VOLVO_FM10__WB_3
 10
-1.4454
 20
-4.1242
 30
0
 70
     0
  0
VERTEX
  8
VOLVO_FM10__WB_3
 10
-1.9244
 20
-4.1673
 30
0
 70
     0
  0
VERTEX
  8
VOLVO_FM10__WB_3
 10
-2.4
 20
-4.2224
 30
0
 70
     0
  0
VERTEX
  8
VOLVO_FM10__WB_3
 10
-2.8722
 20
-4.2893
 30
0
 70
     0
  0
VERTEX
  8
VOLVO_FM10__WB_3
 10
-3.3407
 20
-4.3678
 30
0
 70
     0
  0
VERTEX
  8
VOLVO_FM10__WB_3
 10
-3.8054
 20
-4.4578
 30
0
 70
     0
  0
VERTEX
  8
VOLVO_FM10__WB_3
 10
-4.2662
 20
-4.5592
 30
0
 70
     0
  0
VERTEX
  8
VOLVO_FM10__WB_3
 10
-4.7229
 20
-4.6718
 30
0
 70
     0
  0
VERTEX
  8
VOLVO_FM10__WB_3
 10
-5.1754
 20
-4.7954
 30
0
 70
     0
  0
VERTEX
  8
VOLVO_FM10__WB_3
 10
-5.6234
 20
-4.9299
 30
0
 70
     0
  0
VERTEX
  8
VOLVO_FM10__WB_3
 10
-6.0669
 20
-5.0752
 30
0
 70
     0
  0
VERTEX
  8
VOLVO_FM10__WB_3
 10
-6.5056
 20
-5.231
 30
0
 70
     0
  0
VERTEX
  8
VOLVO_FM10__WB_3
 10
-6.9395
 20
-5.3973
 30
0
 70
     0
  0
VERTEX
  8
VOLVO_FM10__WB_3
 10
-7.3684
 20
-5.5738
 30
0
 70
     0
  0
VERTEX
  8
VOLVO_FM10__WB_3
 10
-7.792
 20
-5.7604
 30
0
 70
     0
  0
VERTEX
  8
VOLVO_FM10__WB_3
 10
-8.2104
 20
-5.957
 30
0
 70
     0
  0
VERTEX
  8
VOLVO_FM10__WB_3
 10
-8.6233
 20
-6.1634
 30
0
 70
     0
  0
VERTEX
  8
VOLVO_FM10__WB_3
 10
-9.0305
 20
-6.3795
 30
0
 70
     0
  0
VERTEX
  8
VOLVO_FM10__WB_3
 10
-9.4319
 20
-6.605
 30
0
 70
     0
  0
VERTEX
  8
VOLVO_FM10__WB_3
 10
-9.8274
 20
-6.8399
 30
0
 70
     0
  0
VERTEX
  8
VOLVO_FM10__WB_3
 10
-10.2168
 20
-7.084
 30
0
 70
     0
  0
VERTEX
  8
VOLVO_FM10__WB_3
 10
-10.5999
 20
-7.3371
 30
0
 70
     0
  0
VERTEX
  8
VOLVO_FM10__WB_3
 10
-10.9766
 20
-7.5991
 30
0
 70
     0
  0
VERTEX
  8
VOLVO_FM10__WB_3
 10
-11.3467
 20
-7.8699
 30
0
 70
     0
  0
VERTEX
  8
VOLVO_FM10__WB_3
 10
-11.7102
 20
-8.1492
 30
0
 70
     0
  0
VERTEX
  8
VOLVO_FM10__WB_3
 10
-12.0667
 20
-8.4369
 30
0
 70
     0
  0
VERTEX
  8
VOLVO_FM10__WB_3
 10
-12.4162
 20
-8.7329
 30
0
 70
     0
  0
VERTEX
  8
VOLVO_FM10__WB_3
 10
-12.7585
 20
-9.037
 30
0
 70
     0
  0
VERTEX
  8
VOLVO_FM10__WB_3
 10
-13.0935
 20
-9.349
 30
0
 70
     0
  0
VERTEX
  8
VOLVO_FM10__WB_3
 10
-13.421
 20
-9.6689
 30
0
 70
     0
  0
VERTEX
  8
VOLVO_FM10__WB_3
 10
-13.7409
 20
-9.9964
 30
0
 70
     0
  0
VERTEX
  8
VOLVO_FM10__WB_3
 10
-14.0529
 20
-10.3314
 30
0
 70
     0
  0
VERTEX
  8
VOLVO_FM10__WB_3
 10
-14.357
 20
-10.6737
 30
0
 70
     0
  0
VERTEX
  8
VOLVO_FM10__WB_3
 10
-14.653
 20
-11.0232
 30
0
 70
     0
  0
VERTEX
  8
VOLVO_FM10__WB_3
 10
-14.9408
 20
-11.3798
 30
0
 70
     0
  0
VERTEX
  8
VOLVO_FM10__WB_3
 10
-15.2201
 20
-11.7432
 30
0
 70
     0
  0
VERTEX
  8
VOLVO_FM10__WB_3
 10
-15.4908
 20
-12.1133
 30
0
 70
     0
  0
VERTEX
  8
VOLVO_FM10__WB_3
 10
-15.7528
 20
-12.49
 30
0
 70
     0
  0
VERTEX
  8
VOLVO_FM10__WB_3
 10
-16.0059
 20
-12.8732
 30
0
 70
     0
  0
VERTEX
  8
VOLVO_FM10__WB_3
 10
-16.25
 20
-13.2625
 30
0
 70
     0
  0
VERTEX
  8
VOLVO_FM10__WB_3
 10
-16.4849
 20
-13.658
 30
0
 70
     0
  0
VERTEX
  8
VOLVO_FM10__WB_3
 10
-16.7105
 20
-14.0595
 30
0
 70
     0
  0
VERTEX
  8
VOLVO_FM10__WB_3
 10
-16.9265
 20
-14.4667
 30
0
 70
     0
  0
VERTEX
  8
VOLVO_FM10__WB_3
 10
-17.1329
 20
-14.8795
 30
0
 70
     0
  0
VERTEX
  8
VOLVO_FM10__WB_3
 10
-17.3295
 20
-15.2979
 30
0
 70
     0
  0
VERTEX
  8
VOLVO_FM10__WB_3
 10
-17.5162
 20
-15.7216
 30
0
 70
     0
  0
VERTEX
  8
VOLVO_FM10__WB_3
 10
-17.6927
 20
-16.1504
 30
0
 70
     0
  0
VERTEX
  8
VOLVO_FM10__WB_3
 10
-17.8589
 20
-16.5843
 30
0
 70
     0
  0
VERTEX
  8
VOLVO_FM10__WB_3
 10
-18.0147
 20
-17.0231
 30
0
 70
     0
  0
VERTEX
  8
VOLVO_FM10__WB_3
 10
-18.16
 20
-17.4666
 30
0
 70
     0
  0
VERTEX
  8
VOLVO_FM10__WB_3
 10
-18.2945
 20
-17.9146
 30
0
 70
     0
  0
VERTEX
  8
VOLVO_FM10__WB_3
 10
-18.4181
 20
-18.367
 30
0
 70
     0
  0
VERTEX
  8
VOLVO_FM10__WB_3
 10
-18.5307
 20
-18.8237
 30
0
 70
     0
  0
VERTEX
  8
VOLVO_FM10__WB_3
 10
-18.6321
 20
-19.2845
 30
0
 70
     0
  0
VERTEX
  8
VOLVO_FM10__WB_3
 10
-18.7221
 20
-19.7492
 30
0
 70
     0
  0
VERTEX
  8
VOLVO_FM10__WB_3
 10
-18.8007
 20
-20.2177
 30
0
 70
     0
  0
VERTEX
  8
VOLVO_FM10__WB_3
 10
-18.8676
 20
-20.6899
 30
0
 70
     0
  0
VERTEX
  8
VOLVO_FM10__WB_3
 10
-18.9226
 20
-21.1655
 30
0
 70
     0
  0
VERTEX
  8
VOLVO_FM10__WB_3
 10
-18.9657
 20
-21.6445
 30
0
 70
     0
  0
VERTEX
  8
VOLVO_FM10__WB_3
 10
-18.9967
 20
-22.1266
 30
0
 70
     0
  0
VERTEX
  8
VOLVO_FM10__WB_3
 10
-19.0154
 20
-22.6118
 30
0
 70
     0
  0
VERTEX
  8
VOLVO_FM10__WB_3
 10
-19.0216
 20
-23.0998
 30
0
 70
     0
  0
VERTEX
  8
VOLVO_FM10__WB_3
 10
-19.0216
 20
-23.0998
 30
0
 70
     0
  0
VERTEX
  8
VOLVO_FM10__WB_3
 10
-19.0154
 20
-23.5878
 30
0
 70
     0
  0
VERTEX
  8
VOLVO_FM10__WB_3
 10
-18.9967
 20
-24.0729
 30
0
 70
     0
  0
VERTEX
  8
VOLVO_FM10__WB_3
 10
-18.9657
 20
-24.5551
 30
0
 70
     0
  0
VERTEX
  8
VOLVO_FM10__WB_3
 10
-18.9226
 20
-25.034
 30
0
 70
     0
  0
VERTEX
  8
VOLVO_FM10__WB_3
 10
-18.8676
 20
-25.5097
 30
0
 70
     0
  0
VERTEX
  8
VOLVO_FM10__WB_3
 10
-18.8007
 20
-25.9818
 30
0
 70
     0
  0
VERTEX
  8
VOLVO_FM10__WB_3
 10
-18.7221
 20
-26.4503
 30
0
 70
     0
  0
VERTEX
  8
VOLVO_FM10__WB_3
 10
-18.6321
 20
-26.9151
 30
0
 70
     0
  0
VERTEX
  8
VOLVO_FM10__WB_3
 10
-18.5307
 20
-27.3759
 30
0
 70
     0
  0
VERTEX
  8
VOLVO_FM10__WB_3
 10
-18.4181
 20
-27.8325
 30
0
 70
     0
  0
VERTEX
  8
VOLVO_FM10__WB_3
 10
-18.2945
 20
-28.285
 30
0
 70
     0
  0
VERTEX
  8
VOLVO_FM10__WB_3
 10
-18.16
 20
-28.733
 30
0
 70
     0
  0
VERTEX
  8
VOLVO_FM10__WB_3
 10
-18.0147
 20
-29.1765
 30
0
 70
     0
  0
VERTEX
  8
VOLVO_FM10__WB_3
 10
-17.8589
 20
-29.6152
 30
0
 70
     0
  0
VERTEX
  8
VOLVO_FM10__WB_3
 10
-17.6927
 20
-30.0491
 30
0
 70
     0
  0
VERTEX
  8
VOLVO_FM10__WB_3
 10
-17.5162
 20
-30.478
 30
0
 70
     0
  0
VERTEX
  8
VOLVO_FM10__WB_3
 10
-17.3295
 20
-30.9017
 30
0
 70
     0
  0
VERTEX
  8
VOLVO_FM10__WB_3
 10
-17.1329
 20
-31.32
 30
0
 70
     0
  0
VERTEX
  8
VOLVO_FM10__WB_3
 10
-16.9265
 20
-31.7329
 30
0
 70
     0
  0
VERTEX
  8
VOLVO_FM10__WB_3
 10
-16.7105
 20
-32.1401
 30
0
 70
     0
  0
VERTEX
  8
VOLVO_FM10__WB_3
 10
-16.4849
 20
-32.5415
 30
0
 70
     0
  0
VERTEX
  8
VOLVO_FM10__WB_3
 10
-16.25
 20
-32.937
 30
0
 70
     0
  0
VERTEX
  8
VOLVO_FM10__WB_3
 10
-16.0059
 20
-33.3264
 30
0
 70
     0
  0
VERTEX
  8
VOLVO_FM10__WB_3
 10
-15.7528
 20
-33.7095
 30
0
 70
     0
  0
VERTEX
  8
VOLVO_FM10__WB_3
 10
-15.4908
 20
-34.0862
 30
0
 70
     0
  0
VERTEX
  8
VOLVO_FM10__WB_3
 10
-15.2201
 20
-34.4564
 30
0
 70
     0
  0
VERTEX
  8
VOLVO_FM10__WB_3
 10
-14.9408
 20
-34.8198
 30
0
 70
     0
  0
VERTEX
  8
VOLVO_FM10__WB_3
 10
-14.653
 20
-35.1763
 30
0
 70
     0
  0
VERTEX
  8
VOLVO_FM10__WB_3
 10
-14.357
 20
-35.5258
 30
0
 70
     0
  0
VERTEX
  8
VOLVO_FM10__WB_3
 10
-14.0529
 20
-35.8682
 30
0
 70
     0
  0
VERTEX
  8
VOLVO_FM10__WB_3
 10
-13.7409
 20
-36.2032
 30
0
 70
     0
  0
VERTEX
  8
VOLVO_FM10__WB_3
 10
-13.421
 20
-36.5307
 30
0
 70
     0
  0
VERTEX
  8
VOLVO_FM10__WB_3
 10
-13.0935
 20
-36.8505
 30
0
 70
     0
  0
VERTEX
  8
VOLVO_FM10__WB_3
 10
-12.7585
 20
-37.1626
 30
0
 70
     0
  0
VERTEX
  8
VOLVO_FM10__WB_3
 10
-12.4162
 20
-37.4667
 30
0
 70
     0
  0
VERTEX
  8
VOLVO_FM10__WB_3
 10
-12.0667
 20
-37.7627
 30
0
 70
     0
  0
VERTEX
  8
VOLVO_FM10__WB_3
 10
-11.7102
 20
-38.0504
 30
0
 70
     0
  0
VERTEX
  8
VOLVO_FM10__WB_3
 10
-11.3467
 20
-38.3297
 30
0
 70
     0
  0
VERTEX
  8
VOLVO_FM10__WB_3
 10
-10.9766
 20
-38.6004
 30
0
 70
     0
  0
VERTEX
  8
VOLVO_FM10__WB_3
 10
-10.5999
 20
-38.8624
 30
0
 70
     0
  0
VERTEX
  8
VOLVO_FM10__WB_3
 10
-10.2168
 20
-39.1156
 30
0
 70
     0
  0
VERTEX
  8
VOLVO_FM10__WB_3
 10
-9.8274
 20
-39.3596
 30
0
 70
     0
  0
VERTEX
  8
VOLVO_FM10__WB_3
 10
-9.4319
 20
-39.5945
 30
0
 70
     0
  0
VERTEX
  8
VOLVO_FM10__WB_3
 10
-9.0305
 20
-39.8201
 30
0
 70
     0
  0
VERTEX
  8
VOLVO_FM10__WB_3
 10
-8.6233
 20
-40.0362
 30
0
 70
     0
  0
VERTEX
  8
VOLVO_FM10__WB_3
 10
-8.2104
 20
-40.2426
 30
0
 70
     0
  0
VERTEX
  8
VOLVO_FM10__WB_3
 10
-7.792
 20
-40.4392
 30
0
 70
     0
  0
VERTEX
  8
VOLVO_FM10__WB_3
 10
-7.3684
 20
-40.6258
 30
0
 70
     0
  0
VERTEX
  8
VOLVO_FM10__WB_3
 10
-6.9395
 20
-40.8023
 30
0
 70
     0
  0
VERTEX
  8
VOLVO_FM10__WB_3
 10
-6.5056
 20
-40.9686
 30
0
 70
     0
  0
VERTEX
  8
VOLVO_FM10__WB_3
 10
-6.0669
 20
-41.1244
 30
0
 70
     0
  0
VERTEX
  8
VOLVO_FM10__WB_3
 10
-5.6234
 20
-41.2696
 30
0
 70
     0
  0
VERTEX
  8
VOLVO_FM10__WB_3
 10
-5.1754
 20
-41.4041
 30
0
 70
     0
  0
VERTEX
  8
VOLVO_FM10__WB_3
 10
-4.7229
 20
-41.5278
 30
0
 70
     0
  0
VERTEX
  8
VOLVO_FM10__WB_3
 10
-4.2662
 20
-41.6403
 30
0
 70
     0
  0
VERTEX
  8
VOLVO_FM10__WB_3
 10
-3.8054
 20
-41.7417
 30
0
 70
     0
  0
VERTEX
  8
VOLVO_FM10__WB_3
 10
-3.3407
 20
-41.8318
 30
0
 70
     0
  0
VERTEX
  8
VOLVO_FM10__WB_3
 10
-2.8722
 20
-41.9103
 30
0
 70
     0
  0
VERTEX
  8
VOLVO_FM10__WB_3
 10
-2.4
 20
-41.9772
 30
0
 70
     0
  0
VERTEX
  8
VOLVO_FM10__WB_3
 10
-1.9244
 20
-42.0322
 30
0
 70
     0
  0
VERTEX
  8
VOLVO_FM10__WB_3
 10
-1.4454
 20
-42.0753
 30
0
 70
     0
  0
VERTEX
  8
VOLVO_FM10__WB_3
 10
-0.9633
 20
-42.1063
 30
0
 70
     0
  0
VERTEX
  8
VOLVO_FM10__WB_3
 10
-0.4782
 20
-42.125
 30
0
 70
     0
  0
VERTEX
  8
VOLVO_FM10__WB_3
 10
0.0098
 20
-42.1313
 30
0
 70
     0
  0
VERTEX
  8
VOLVO_FM10__WB_3
 10
0.0098
 20
-42.1313
 30
0
 70
     0
  0
VERTEX
  8
VOLVO_FM10__WB_3
 10
0.4979
 20
-42.125
 30
0
 70
     0
  0
VERTEX
  8
VOLVO_FM10__WB_3
 10
0.983
 20
-42.1063
 30
0
 70
     0
  0
VERTEX
  8
VOLVO_FM10__WB_3
 10
1.4651
 20
-42.0753
 30
0
 70
     0
  0
VERTEX
  8
VOLVO_FM10__WB_3
 10
1.9441
 20
-42.0322
 30
0
 70
     0
  0
VERTEX
  8
VOLVO_FM10__WB_3
 10
2.4197
 20
-41.9772
 30
0
 70
     0
  0
VERTEX
  8
VOLVO_FM10__WB_3
 10
2.8919
 20
-41.9103
 30
0
 70
     0
  0
VERTEX
  8
VOLVO_FM10__WB_3
 10
3.3604
 20
-41.8318
 30
0
 70
     0
  0
VERTEX
  8
VOLVO_FM10__WB_3
 10
3.8251
 20
-41.7417
 30
0
 70
     0
  0
VERTEX
  8
VOLVO_FM10__WB_3
 10
4.2859
 20
-41.6403
 30
0
 70
     0
  0
VERTEX
  8
VOLVO_FM10__WB_3
 10
4.7426
 20
-41.5278
 30
0
 70
     0
  0
VERTEX
  8
VOLVO_FM10__WB_3
 10
5.195
 20
-41.4041
 30
0
 70
     0
  0
VERTEX
  8
VOLVO_FM10__WB_3
 10
5.6431
 20
-41.2696
 30
0
 70
     0
  0
VERTEX
  8
VOLVO_FM10__WB_3
 10
6.0865
 20
-41.1244
 30
0
 70
     0
  0
VERTEX
  8
VOLVO_FM10__WB_3
 10
6.5253
 20
-40.9686
 30
0
 70
     0
  0
VERTEX
  8
VOLVO_FM10__WB_3
 10
6.9592
 20
-40.8023
 30
0
 70
     0
  0
VERTEX
  8
VOLVO_FM10__WB_3
 10
7.388
 20
-40.6258
 30
0
 70
     0
  0
VERTEX
  8
VOLVO_FM10__WB_3
 10
7.8117
 20
-40.4392
 30
0
 70
     0
  0
VERTEX
  8
VOLVO_FM10__WB_3
 10
8.2301
 20
-40.2426
 30
0
 70
     0
  0
VERTEX
  8
VOLVO_FM10__WB_3
 10
8.643
 20
-40.0362
 30
0
 70
     0
  0
VERTEX
  8
VOLVO_FM10__WB_3
 10
9.0502
 20
-39.8201
 30
0
 70
     0
  0
VERTEX
  8
VOLVO_FM10__WB_3
 10
9.4516
 20
-39.5945
 30
0
 70
     0
  0
VERTEX
  8
VOLVO_FM10__WB_3
 10
9.8471
 20
-39.3596
 30
0
 70
     0
  0
VERTEX
  8
VOLVO_FM10__WB_3
 10
10.2365
 20
-39.1156
 30
0
 70
     0
  0
VERTEX
  8
VOLVO_FM10__WB_3
 10
10.6196
 20
-38.8624
 30
0
 70
     0
  0
VERTEX
  8
VOLVO_FM10__WB_3
 10
10.9963
 20
-38.6004
 30
0
 70
     0
  0
VERTEX
  8
VOLVO_FM10__WB_3
 10
11.3664
 20
-38.3297
 30
0
 70
     0
  0
VERTEX
  8
VOLVO_FM10__WB_3
 10
11.7299
 20
-38.0504
 30
0
 70
     0
  0
VERTEX
  8
VOLVO_FM10__WB_3
 10
12.0864
 20
-37.7627
 30
0
 70
     0
  0
VERTEX
  8
VOLVO_FM10__WB_3
 10
12.4359
 20
-37.4667
 30
0
 70
     0
  0
VERTEX
  8
VOLVO_FM10__WB_3
 10
12.7782
 20
-37.1626
 30
0
 70
     0
  0
VERTEX
  8
VOLVO_FM10__WB_3
 10
13.1132
 20
-36.8505
 30
0
 70
     0
  0
VERTEX
  8
VOLVO_FM10__WB_3
 10
13.4407
 20
-36.5307
 30
0
 70
     0
  0
VERTEX
  8
VOLVO_FM10__WB_3
 10
13.7606
 20
-36.2032
 30
0
 70
     0
  0
VERTEX
  8
VOLVO_FM10__WB_3
 10
14.0726
 20
-35.8682
 30
0
 70
     0
  0
VERTEX
  8
VOLVO_FM10__WB_3
 10
14.3767
 20
-35.5258
 30
0
 70
     0
  0
VERTEX
  8
VOLVO_FM10__WB_3
 10
14.6727
 20
-35.1763
 30
0
 70
     0
  0
VERTEX
  8
VOLVO_FM10__WB_3
 10
14.9604
 20
-34.8198
 30
0
 70
     0
  0
VERTEX
  8
VOLVO_FM10__WB_3
 10
15.2398
 20
-34.4564
 30
0
 70
     0
  0
VERTEX
  8
VOLVO_FM10__WB_3
 10
15.5105
 20
-34.0862
 30
0
 70
     0
  0
VERTEX
  8
VOLVO_FM10__WB_3
 10
15.7725
 20
-33.7095
 30
0
 70
     0
  0
VERTEX
  8
VOLVO_FM10__WB_3
 10
16.0256
 20
-33.3264
 30
0
 70
     0
  0
VERTEX
  8
VOLVO_FM10__WB_3
 10
16.2697
 20
-32.937
 30
0
 70
     0
  0
VERTEX
  8
VOLVO_FM10__WB_3
 10
16.5046
 20
-32.5415
 30
0
 70
     0
  0
VERTEX
  8
VOLVO_FM10__WB_3
 10
16.7302
 20
-32.1401
 30
0
 70
     0
  0
VERTEX
  8
VOLVO_FM10__WB_3
 10
16.9462
 20
-31.7329
 30
0
 70
     0
  0
VERTEX
  8
VOLVO_FM10__WB_3
 10
17.1526
 20
-31.32
 30
0
 70
     0
  0
VERTEX
  8
VOLVO_FM10__WB_3
 10
17.3492
 20
-30.9017
 30
0
 70
     0
  0
VERTEX
  8
VOLVO_FM10__WB_3
 10
17.5358
 20
-30.478
 30
0
 70
     0
  0
VERTEX
  8
VOLVO_FM10__WB_3
 10
17.7124
 20
-30.0491
 30
0
 70
     0
  0
VERTEX
  8
VOLVO_FM10__WB_3
 10
17.8786
 20
-29.6152
 30
0
 70
     0
  0
VERTEX
  8
VOLVO_FM10__WB_3
 10
18.0344
 20
-29.1765
 30
0
 70
     0
  0
VERTEX
  8
VOLVO_FM10__WB_3
 10
18.1797
 20
-28.733
 30
0
 70
     0
  0
VERTEX
  8
VOLVO_FM10__WB_3
 10
18.3142
 20
-28.285
 30
0
 70
     0
  0
VERTEX
  8
VOLVO_FM10__WB_3
 10
18.4378
 20
-27.8325
 30
0
 70
     0
  0
VERTEX
  8
VOLVO_FM10__WB_3
 10
18.5504
 20
-27.3759
 30
0
 70
     0
  0
VERTEX
  8
VOLVO_FM10__WB_3
 10
18.6518
 20
-26.9151
 30
0
 70
     0
  0
VERTEX
  8
VOLVO_FM10__WB_3
 10
18.7418
 20
-26.4503
 30
0
 70
     0
  0
VERTEX
  8
VOLVO_FM10__WB_3
 10
18.8204
 20
-25.9818
 30
0
 70
     0
  0
VERTEX
  8
VOLVO_FM10__WB_3
 10
18.8872
 20
-25.5097
 30
0
 70
     0
  0
VERTEX
  8
VOLVO_FM10__WB_3
 10
18.9423
 20
-25.034
 30
0
 70
     0
  0
VERTEX
  8
VOLVO_FM10__WB_3
 10
18.9854
 20
-24.5551
 30
0
 70
     0
  0
VERTEX
  8
VOLVO_FM10__WB_3
 10
19.0164
 20
-24.0729
 30
0
 70
     0
  0
VERTEX
  8
VOLVO_FM10__WB_3
 10
19.0351
 20
-23.5878
 30
0
 70
     0
  0
VERTEX
  8
VOLVO_FM10__WB_3
 10
19.0413
 20
-23.0998
 30
0
 70
     0
  0
SEQEND
  0
POLYLINE
  8
VOLVO_FM10__WB_3
  6
CONTINUOUS
 62
     7
 66
     1
 40
0.0139
 41
0.0139
  0
VERTEX
  8
VOLVO_FM10__WB_3
 10
45.876
 20
-31.5014
 30
0
 70
     0
  0
VERTEX
  8
VOLVO_FM10__WB_3
 10
53.75
 20
-31.5014
 30
0
 70
     0
  0
SEQEND
  0
POLYLINE
  8
VOLVO_FM10__WB_3
  6
CONTINUOUS
 62
     7
 66
     1
 40
0.0139
 41
0.0139
  0
VERTEX
  8
VOLVO_FM10__WB_3
 10
53.75
 20
-31.5014
 30
0
 70
     0
  0
VERTEX
  8
VOLVO_FM10__WB_3
 10
53.75
 20
-29.7297
 30
0
 70
     0
  0
SEQEND
  0
POLYLINE
  8
VOLVO_FM10__WB_3
  6
CONTINUOUS
 62
     7
 66
     1
 40
0.0139
 41
0.0139
  0
VERTEX
  8
VOLVO_FM10__WB_3
 10
29.1426
 20
59.9947
 30
0
 70
     0
  0
VERTEX
  8
VOLVO_FM10__WB_3
 10
16.0446
 20
59.9947
 30
0
 70
     0
  0
SEQEND
  0
POLYLINE
  8
VOLVO_FM10__WB_3
  6
CONTINUOUS
 62
     7
 66
     1
 40
0.0139
 41
0.0139
  0
VERTEX
  8
VOLVO_FM10__WB_3
 10
53.0948
 20
16.8531
 30
0
 70
     0
  0
VERTEX
  8
VOLVO_FM10__WB_3
 10
36.3614
 20
55.2654
 30
0
 70
     0
  0
SEQEND
  0
POLYLINE
  8
VOLVO_FM10__WB_3
  6
CONTINUOUS
 62
     7
 66
     1
 40
0.0139
 41
0.0139
  0
VERTEX
  8
VOLVO_FM10__WB_3
 10
49.813
 20
-6.2061
 30
0
 70
     0
  0
VERTEX
  8
VOLVO_FM10__WB_3
 10
53.75
 20
-6.2061
 30
0
 70
     0
  0
SEQEND
  0
POLYLINE
  8
VOLVO_FM10__WB_3
  6
CONTINUOUS
 62
     7
 66
     1
 40
0.0139
 41
0.0139
  0
VERTEX
  8
VOLVO_FM10__WB_3
 10
49.813
 20
-16.0486
 30
0
 70
     0
  0
VERTEX
  8
VOLVO_FM10__WB_3
 10
49.813
 20
-6.2061
 30
0
 70
     0
  0
SEQEND
  0
POLYLINE
  8
VOLVO_FM10__WB_3
  6
CONTINUOUS
 62
     7
 66
     1
 40
0.0139
 41
0.0139
  0
VERTEX
  8
VOLVO_FM10__WB_3
 10
53.75
 20
-29.7297
 30
0
 70
     0
  0
VERTEX
  8
VOLVO_FM10__WB_3
 10
53.75
 20
-27.7612
 30
0
 70
     0
  0
SEQEND
  0
POLYLINE
  8
VOLVO_FM10__WB_3
  6
CONTINUOUS
 62
     7
 66
     1
 40
0.0139
 41
0.0139
  0
VERTEX
  8
VOLVO_FM10__WB_3
 10
53.75
 20
-29.7297
 30
0
 70
     0
  0
VERTEX
  8
VOLVO_FM10__WB_3
 10
50.7972
 20
-29.7297
 30
0
 70
     0
  0
SEQEND
  0
POLYLINE
  8
VOLVO_FM10__WB_3
  6
CONTINUOUS
 62
     7
 66
     1
 40
0.0139
 41
0.0139
  0
VERTEX
  8
VOLVO_FM10__WB_3
 10
50.7972
 20
-21.8557
 30
0
 70
     0
  0
VERTEX
  8
VOLVO_FM10__WB_3
 10
53.75
 20
-21.8557
 30
0
 70
     0
  0
SEQEND
  0
POLYLINE
  8
VOLVO_FM10__WB_3
  6
CONTINUOUS
 62
     7
 66
     1
 40
0.0139
 41
0.0139
  0
VERTEX
  8
VOLVO_FM10__WB_3
 10
50.7972
 20
-29.7297
 30
0
 70
     0
  0
VERTEX
  8
VOLVO_FM10__WB_3
 10
50.7972
 20
-21.8557
 30
0
 70
     0
  0
SEQEND
  0
POLYLINE
  8
VOLVO_FM10__WB_3
  6
CONTINUOUS
 62
     7
 66
     1
 40
0.0139
 41
0.0139
  0
VERTEX
  8
VOLVO_FM10__WB_3
 10
53.75
 20
-16.0486
 30
0
 70
     0
  0
VERTEX
  8
VOLVO_FM10__WB_3
 10
49.813
 20
-16.0486
 30
0
 70
     0
  0
SEQEND
  0
POLYLINE
  8
VOLVO_FM10__WB_3
  6
CONTINUOUS
 62
     7
 66
     1
 40
0.0139
 41
0.0139
  0
VERTEX
  8
VOLVO_FM10__WB_3
 10
53.75
 20
-8.1746
 30
0
 70
     0
  0
VERTEX
  8
VOLVO_FM10__WB_3
 10
53.75
 20
-6.2061
 30
0
 70
     0
  0
SEQEND
  0
POLYLINE
  8
VOLVO_FM10__WB_3
  6
CONTINUOUS
 62
     7
 66
     1
 40
0.0139
 41
0.0139
  0
VERTEX
  8
VOLVO_FM10__WB_3
 10
53.75
 20
-16.0486
 30
0
 70
     0
  0
VERTEX
  8
VOLVO_FM10__WB_3
 10
53.75
 20
-14.0801
 30
0
 70
     0
  0
SEQEND
  0
POLYLINE
  8
VOLVO_FM10__WB_3
  6
CONTINUOUS
 62
     7
 66
     1
 40
0.0139
 41
0.0139
  0
VERTEX
  8
VOLVO_FM10__WB_3
 10
53.75
 20
-23.8242
 30
0
 70
     0
  0
VERTEX
  8
VOLVO_FM10__WB_3
 10
53.75
 20
-21.8557
 30
0
 70
     0
  0
SEQEND
  0
POLYLINE
  8
VOLVO_FM10__WB_3
  6
CONTINUOUS
 62
     7
 66
     1
 40
0.0139
 41
0.0139
  0
VERTEX
  8
VOLVO_FM10__WB_3
 10
52.7658
 20
-14.0801
 30
0
 70
     0
  0
VERTEX
  8
VOLVO_FM10__WB_3
 10
52.7658
 20
-8.1746
 30
0
 70
     0
  0
SEQEND
  0
POLYLINE
  8
VOLVO_FM10__WB_3
  6
CONTINUOUS
 62
     7
 66
     1
 40
0.0139
 41
0.0139
  0
VERTEX
  8
VOLVO_FM10__WB_3
 10
52.7658
 20
-27.7612
 30
0
 70
     0
  0
VERTEX
  8
VOLVO_FM10__WB_3
 10
52.7658
 20
-23.8242
 30
0
 70
     0
  0
SEQEND
  0
POLYLINE
  8
VOLVO_FM10__WB_3
  6
CONTINUOUS
 62
     7
 66
     1
 40
0.0139
 41
0.0139
  0
VERTEX
  8
VOLVO_FM10__WB_3
 10
37.9708
 20
28.516
 30
0
 70
     0
  0
VERTEX
  8
VOLVO_FM10__WB_3
 10
37.9624
 20
28.602
 30
0
 70
     0
  0
VERTEX
  8
VOLVO_FM10__WB_3
 10
37.9355
 20
28.6899
 30
0
 70
     0
  0
VERTEX
  8
VOLVO_FM10__WB_3
 10
37.8889
 20
28.7745
 30
0
 70
     0
  0
VERTEX
  8
VOLVO_FM10__WB_3
 10
37.8236
 20
28.8501
 30
0
 70
     0
  0
VERTEX
  8
VOLVO_FM10__WB_3
 10
37.7432
 20
28.9114
 30
0
 70
     0
  0
VERTEX
  8
VOLVO_FM10__WB_3
 10
37.6531
 20
28.9553
 30
0
 70
     0
  0
VERTEX
  8
VOLVO_FM10__WB_3
 10
37.5595
 20
28.9805
 30
0
 70
     0
  0
VERTEX
  8
VOLVO_FM10__WB_3
 10
37.4681
 20
28.9884
 30
0
 70
     0
  0
SEQEND
  0
POLYLINE
  8
VOLVO_FM10__WB_3
  6
CONTINUOUS
 62
     7
 66
     1
 40
0.0139
 41
0.0139
  0
VERTEX
  8
VOLVO_FM10__WB_3
 10
37.4681
 20
28.0042
 30
0
 70
     0
  0
VERTEX
  8
VOLVO_FM10__WB_3
 10
37.5595
 20
28.0121
 30
0
 70
     0
  0
VERTEX
  8
VOLVO_FM10__WB_3
 10
37.6531
 20
28.0374
 30
0
 70
     0
  0
VERTEX
  8
VOLVO_FM10__WB_3
 10
37.7432
 20
28.0812
 30
0
 70
     0
  0
VERTEX
  8
VOLVO_FM10__WB_3
 10
37.8236
 20
28.1426
 30
0
 70
     0
  0
VERTEX
  8
VOLVO_FM10__WB_3
 10
37.8889
 20
28.2181
 30
0
 70
     0
  0
VERTEX
  8
VOLVO_FM10__WB_3
 10
37.9355
 20
28.3027
 30
0
 70
     0
  0
VERTEX
  8
VOLVO_FM10__WB_3
 10
37.9624
 20
28.3907
 30
0
 70
     0
  0
VERTEX
  8
VOLVO_FM10__WB_3
 10
37.9708
 20
28.4766
 30
0
 70
     0
  0
SEQEND
  0
POLYLINE
  8
VOLVO_FM10__WB_3
  6
CONTINUOUS
 62
     7
 66
     1
 40
0.0139
 41
0.0139
  0
VERTEX
  8
VOLVO_FM10__WB_3
 10
37.9708
 20
28.4766
 30
0
 70
     0
  0
VERTEX
  8
VOLVO_FM10__WB_3
 10
37.9708
 20
28.516
 30
0
 70
     0
  0
SEQEND
  0
POLYLINE
  8
VOLVO_FM10__WB_3
  6
CONTINUOUS
 62
     7
 66
     1
 40
0.0139
 41
0.0139
  0
VERTEX
  8
VOLVO_FM10__WB_3
 10
37.9072
 20
33.4778
 30
0
 70
     0
  0
VERTEX
  8
VOLVO_FM10__WB_3
 10
37.8951
 20
33.389
 30
0
 70
     0
  0
VERTEX
  8
VOLVO_FM10__WB_3
 10
37.868
 20
33.3059
 30
0
 70
     0
  0
VERTEX
  8
VOLVO_FM10__WB_3
 10
37.8272
 20
33.2299
 30
0
 70
     0
  0
VERTEX
  8
VOLVO_FM10__WB_3
 10
37.7741
 20
33.1626
 30
0
 70
     0
  0
VERTEX
  8
VOLVO_FM10__WB_3
 10
37.7103
 20
33.1054
 30
0
 70
     0
  0
VERTEX
  8
VOLVO_FM10__WB_3
 10
37.637
 20
33.0599
 30
0
 70
     0
  0
VERTEX
  8
VOLVO_FM10__WB_3
 10
37.5558
 20
33.0276
 30
0
 70
     0
  0
VERTEX
  8
VOLVO_FM10__WB_3
 10
37.4679
 20
33.0099
 30
0
 70
     0
  0
SEQEND
  0
POLYLINE
  8
VOLVO_FM10__WB_3
  6
CONTINUOUS
 62
     7
 66
     1
 40
0.0139
 41
0.0139
  0
VERTEX
  8
VOLVO_FM10__WB_3
 10
15.1227
 20
64.294
 30
0
 70
     0
  0
VERTEX
  8
VOLVO_FM10__WB_3
 10
15.3323
 20
64.2499
 30
0
 70
     0
  0
VERTEX
  8
VOLVO_FM10__WB_3
 10
15.5341
 20
64.1881
 30
0
 70
     0
  0
VERTEX
  8
VOLVO_FM10__WB_3
 10
15.7273
 20
64.1094
 30
0
 70
     0
  0
VERTEX
  8
VOLVO_FM10__WB_3
 10
15.9111
 20
64.0149
 30
0
 70
     0
  0
VERTEX
  8
VOLVO_FM10__WB_3
 10
16.0848
 20
63.9053
 30
0
 70
     0
  0
VERTEX
  8
VOLVO_FM10__WB_3
 10
16.2475
 20
63.7817
 30
0
 70
     0
  0
VERTEX
  8
VOLVO_FM10__WB_3
 10
16.3985
 20
63.645
 30
0
 70
     0
  0
VERTEX
  8
VOLVO_FM10__WB_3
 10
16.537
 20
63.496
 30
0
 70
     0
  0
VERTEX
  8
VOLVO_FM10__WB_3
 10
16.6622
 20
63.3357
 30
0
 70
     0
  0
VERTEX
  8
VOLVO_FM10__WB_3
 10
16.7733
 20
63.165
 30
0
 70
     0
  0
VERTEX
  8
VOLVO_FM10__WB_3
 10
16.8696
 20
62.9847
 30
0
 70
     0
  0
VERTEX
  8
VOLVO_FM10__WB_3
 10
16.9502
 20
62.7959
 30
0
 70
     0
  0
VERTEX
  8
VOLVO_FM10__WB_3
 10
17.0145
 20
62.5995
 30
0
 70
     0
  0
VERTEX
  8
VOLVO_FM10__WB_3
 10
17.0616
 20
62.3963
 30
0
 70
     0
  0
VERTEX
  8
VOLVO_FM10__WB_3
 10
17.0907
 20
62.1872
 30
0
 70
     0
  0
VERTEX
  8
VOLVO_FM10__WB_3
 10
17.1011
 20
61.9732
 30
0
 70
     0
  0
SEQEND
  0
POLYLINE
  8
VOLVO_FM10__WB_3
  6
CONTINUOUS
 62
     7
 66
     1
 40
0.0139
 41
0.0139
  0
VERTEX
  8
VOLVO_FM10__WB_3
 10
-14.4871
 20
67.8297
 30
0
 70
     0
  0
VERTEX
  8
VOLVO_FM10__WB_3
 10
-14.3204
 20
67.9578
 30
0
 70
     0
  0
VERTEX
  8
VOLVO_FM10__WB_3
 10
-14.1479
 20
68.0763
 30
0
 70
     0
  0
VERTEX
  8
VOLVO_FM10__WB_3
 10
-13.9701
 20
68.185
 30
0
 70
     0
  0
VERTEX
  8
VOLVO_FM10__WB_3
 10
-13.7874
 20
68.2838
 30
0
 70
     0
  0
VERTEX
  8
VOLVO_FM10__WB_3
 10
-13.6003
 20
68.3726
 30
0
 70
     0
  0
VERTEX
  8
VOLVO_FM10__WB_3
 10
-13.4091
 20
68.4512
 30
0
 70
     0
  0
VERTEX
  8
VOLVO_FM10__WB_3
 10
-13.2143
 20
68.5196
 30
0
 70
     0
  0
VERTEX
  8
VOLVO_FM10__WB_3
 10
-13.0163
 20
68.5777
 30
0
 70
     0
  0
VERTEX
  8
VOLVO_FM10__WB_3
 10
-12.8156
 20
68.6253
 30
0
 70
     0
  0
VERTEX
  8
VOLVO_FM10__WB_3
 10
-12.6125
 20
68.6623
 30
0
 70
     0
  0
VERTEX
  8
VOLVO_FM10__WB_3
 10
-12.4074
 20
68.6887
 30
0
 70
     0
  0
VERTEX
  8
VOLVO_FM10__WB_3
 10
-12.2009
 20
68.7042
 30
0
 70
     0
  0
VERTEX
  8
VOLVO_FM10__WB_3
 10
-11.9932
 20
68.7088
 30
0
 70
     0
  0
VERTEX
  8
VOLVO_FM10__WB_3
 10
-11.785
 20
68.7024
 30
0
 70
     0
  0
VERTEX
  8
VOLVO_FM10__WB_3
 10
-11.5764
 20
68.6849
 30
0
 70
     0
  0
VERTEX
  8
VOLVO_FM10__WB_3
 10
-11.3681
 20
68.6561
 30
0
 70
     0
  0
SEQEND
  0
POLYLINE
  8
VOLVO_FM10__WB_3
  6
CONTINUOUS
 62
     7
 66
     1
 40
0.0139
 41
0.0139
  0
VERTEX
  8
VOLVO_FM10__WB_3
 10
-17.2736
 20
-0.0053
 30
0
 70
     0
  0
VERTEX
  8
VOLVO_FM10__WB_3
 10
-15.3051
 20
-0.0053
 30
0
 70
     0
  0
SEQEND
  0
POLYLINE
  8
VOLVO_FM10__WB_3
  6
CONTINUOUS
 62
     7
 66
     1
 40
0.0139
 41
0.0139
  0
VERTEX
  8
VOLVO_FM10__WB_3
 10
-17.2736
 20
35.4278
 30
0
 70
     0
  0
VERTEX
  8
VOLVO_FM10__WB_3
 10
-17.2736
 20
-0.0053
 30
0
 70
     0
  0
SEQEND
  0
POLYLINE
  8
VOLVO_FM10__WB_3
  6
CONTINUOUS
 62
     7
 66
     1
 40
0.0139
 41
0.0139
  0
VERTEX
  8
VOLVO_FM10__WB_3
 10
-15.9408
 20
64.949
 30
0
 70
     0
  0
VERTEX
  8
VOLVO_FM10__WB_3
 10
-15.9258
 20
65.1588
 30
0
 70
     0
  0
VERTEX
  8
VOLVO_FM10__WB_3
 10
-15.8999
 20
65.3664
 30
0
 70
     0
  0
VERTEX
  8
VOLVO_FM10__WB_3
 10
-15.8631
 20
65.5715
 30
0
 70
     0
  0
VERTEX
  8
VOLVO_FM10__WB_3
 10
-15.8156
 20
65.7737
 30
0
 70
     0
  0
VERTEX
  8
VOLVO_FM10__WB_3
 10
-15.7577
 20
65.9726
 30
0
 70
     0
  0
VERTEX
  8
VOLVO_FM10__WB_3
 10
-15.6895
 20
66.1677
 30
0
 70
     0
  0
VERTEX
  8
VOLVO_FM10__WB_3
 10
-15.6113
 20
66.3588
 30
0
 70
     0
  0
VERTEX
  8
VOLVO_FM10__WB_3
 10
-15.5232
 20
66.5454
 30
0
 70
     0
  0
VERTEX
  8
VOLVO_FM10__WB_3
 10
-15.4254
 20
66.7271
 30
0
 70
     0
  0
VERTEX
  8
VOLVO_FM10__WB_3
 10
-15.3182
 20
66.9035
 30
0
 70
     0
  0
VERTEX
  8
VOLVO_FM10__WB_3
 10
-15.2017
 20
67.0743
 30
0
 70
     0
  0
VERTEX
  8
VOLVO_FM10__WB_3
 10
-15.0762
 20
67.239
 30
0
 70
     0
  0
VERTEX
  8
VOLVO_FM10__WB_3
 10
-14.9417
 20
67.3973
 30
0
 70
     0
  0
VERTEX
  8
VOLVO_FM10__WB_3
 10
-14.7986
 20
67.5488
 30
0
 70
     0
  0
VERTEX
  8
VOLVO_FM10__WB_3
 10
-14.647
 20
67.693
 30
0
 70
     0
  0
VERTEX
  8
VOLVO_FM10__WB_3
 10
-14.4871
 20
67.8297
 30
0
 70
     0
  0
SEQEND
  0
POLYLINE
  8
VOLVO_FM10__WB_3
  6
CONTINUOUS
 62
     7
 66
     1
 40
0.0139
 41
0.0139
  0
VERTEX
  8
VOLVO_FM10__WB_3
 10
-15.9408
 20
64.949
 30
0
 70
     0
  0
VERTEX
  8
VOLVO_FM10__WB_3
 10
-17.2736
 20
35.4278
 30
0
 70
     0
  0
SEQEND
  0
POLYLINE
  8
VOLVO_FM10__WB_3
  6
CONTINUOUS
 62
     7
 66
     1
 40
0.0139
 41
0.0139
  0
VERTEX
  8
VOLVO_FM10__WB_3
 10
-14.4871
 20
67.8297
 30
0
 70
     0
  0
VERTEX
  8
VOLVO_FM10__WB_3
 10
-13.8743
 20
67.0738
 30
0
 70
     0
  0
SEQEND
  0
POLYLINE
  8
VOLVO_FM10__WB_3
  6
CONTINUOUS
 62
     7
 66
     1
 40
0.0139
 41
0.0139
  0
VERTEX
  8
VOLVO_FM10__WB_3
 10
-11.3681
 20
-0.0053
 30
0
 70
     0
  0
VERTEX
  8
VOLVO_FM10__WB_3
 10
-11.3681
 20
-1.1413
 30
0
 70
     0
  0
SEQEND
  0
POLYLINE
  8
VOLVO_FM10__WB_3
  6
CONTINUOUS
 62
     7
 66
     1
 40
0.0139
 41
0.0139
  0
VERTEX
  8
VOLVO_FM10__WB_3
 10
-23.738
 20
-26.0525
 30
0
 70
     0
  0
VERTEX
  8
VOLVO_FM10__WB_3
 10
-23.8152
 20
-26.0489
 30
0
 70
     0
  0
VERTEX
  8
VOLVO_FM10__WB_3
 10
-23.8904
 20
-26.0379
 30
0
 70
     0
  0
VERTEX
  8
VOLVO_FM10__WB_3
 10
-23.9632
 20
-26.02
 30
0
 70
     0
  0
VERTEX
  8
VOLVO_FM10__WB_3
 10
-24.0332
 20
-25.9956
 30
0
 70
     0
  0
VERTEX
  8
VOLVO_FM10__WB_3
 10
-24.1001
 20
-25.9648
 30
0
 70
     0
  0
VERTEX
  8
VOLVO_FM10__WB_3
 10
-24.1634
 20
-25.9282
 30
0
 70
     0
  0
VERTEX
  8
VOLVO_FM10__WB_3
 10
-24.2229
 20
-25.886
 30
0
 70
     0
  0
VERTEX
  8
VOLVO_FM10__WB_3
 10
-24.2782
 20
-25.8385
 30
0
 70
     0
  0
VERTEX
  8
VOLVO_FM10__WB_3
 10
-24.3289
 20
-25.7862
 30
0
 70
     0
  0
VERTEX
  8
VOLVO_FM10__WB_3
 10
-24.3746
 20
-25.7294
 30
0
 70
     0
  0
VERTEX
  8
VOLVO_FM10__WB_3
 10
-24.415
 20
-25.6683
 30
0
 70
     0
  0
VERTEX
  8
VOLVO_FM10__WB_3
 10
-24.4497
 20
-25.6034
 30
0
 70
     0
  0
VERTEX
  8
VOLVO_FM10__WB_3
 10
-24.4783
 20
-25.535
 30
0
 70
     0
  0
VERTEX
  8
VOLVO_FM10__WB_3
 10
-24.5005
 20
-25.4634
 30
0
 70
     0
  0
VERTEX
  8
VOLVO_FM10__WB_3
 10
-24.516
 20
-25.389
 30
0
 70
     0
  0
VERTEX
  8
VOLVO_FM10__WB_3
 10
-24.5243
 20
-25.3121
 30
0
 70
     0
  0
SEQEND
  0
POLYLINE
  8
VOLVO_FM10__WB_3
  6
CONTINUOUS
 62
     7
 66
     1
 40
0.0139
 41
0.0139
  0
VERTEX
  8
VOLVO_FM10__WB_3
 10
-23.5153
 20
-22.1155
 30
0
 70
     0
  0
VERTEX
  8
VOLVO_FM10__WB_3
 10
-23.4752
 20
-21.5889
 30
0
 70
     0
  0
VERTEX
  8
VOLVO_FM10__WB_3
 10
-23.4243
 20
-21.0651
 30
0
 70
     0
  0
VERTEX
  8
VOLVO_FM10__WB_3
 10
-23.3627
 20
-20.5444
 30
0
 70
     0
  0
VERTEX
  8
VOLVO_FM10__WB_3
 10
-23.2904
 20
-20.0268
 30
0
 70
     0
  0
VERTEX
  8
VOLVO_FM10__WB_3
 10
-23.2076
 20
-19.5124
 30
0
 70
     0
  0
VERTEX
  8
VOLVO_FM10__WB_3
 10
-23.1144
 20
-19.0014
 30
0
 70
     0
  0
VERTEX
  8
VOLVO_FM10__WB_3
 10
-23.0109
 20
-18.494
 30
0
 70
     0
  0
VERTEX
  8
VOLVO_FM10__WB_3
 10
-22.8971
 20
-17.9901
 30
0
 70
     0
  0
VERTEX
  8
VOLVO_FM10__WB_3
 10
-22.7733
 20
-17.49
 30
0
 70
     0
  0
VERTEX
  8
VOLVO_FM10__WB_3
 10
-22.6394
 20
-16.9937
 30
0
 70
     0
  0
VERTEX
  8
VOLVO_FM10__WB_3
 10
-22.4957
 20
-16.5014
 30
0
 70
     0
  0
VERTEX
  8
VOLVO_FM10__WB_3
 10
-22.3422
 20
-16.0132
 30
0
 70
     0
  0
VERTEX
  8
VOLVO_FM10__WB_3
 10
-22.179
 20
-15.5292
 30
0
 70
     0
  0
VERTEX
  8
VOLVO_FM10__WB_3
 10
-22.0062
 20
-15.0495
 30
0
 70
     0
  0
VERTEX
  8
VOLVO_FM10__WB_3
 10
-21.8239
 20
-14.5743
 30
0
 70
     0
  0
VERTEX
  8
VOLVO_FM10__WB_3
 10
-21.6323
 20
-14.1037
 30
0
 70
     0
  0
VERTEX
  8
VOLVO_FM10__WB_3
 10
-21.4315
 20
-13.6378
 30
0
 70
     0
  0
VERTEX
  8
VOLVO_FM10__WB_3
 10
-21.2214
 20
-13.1767
 30
0
 70
     0
  0
VERTEX
  8
VOLVO_FM10__WB_3
 10
-21.0024
 20
-12.7206
 30
0
 70
     0
  0
VERTEX
  8
VOLVO_FM10__WB_3
 10
-20.7744
 20
-12.2695
 30
0
 70
     0
  0
VERTEX
  8
VOLVO_FM10__WB_3
 10
-20.5375
 20
-11.8236
 30
0
 70
     0
  0
VERTEX
  8
VOLVO_FM10__WB_3
 10
-20.2919
 20
-11.383
 30
0
 70
     0
  0
VERTEX
  8
VOLVO_FM10__WB_3
 10
-20.0377
 20
-10.9479
 30
0
 70
     0
  0
VERTEX
  8
VOLVO_FM10__WB_3
 10
-19.775
 20
-10.5182
 30
0
 70
     0
  0
VERTEX
  8
VOLVO_FM10__WB_3
 10
-19.5039
 20
-10.0943
 30
0
 70
     0
  0
VERTEX
  8
VOLVO_FM10__WB_3
 10
-19.2244
 20
-9.6761
 30
0
 70
     0
  0
VERTEX
  8
VOLVO_FM10__WB_3
 10
-18.9368
 20
-9.2638
 30
0
 70
     0
  0
VERTEX
  8
VOLVO_FM10__WB_3
 10
-18.6411
 20
-8.8576
 30
0
 70
     0
  0
VERTEX
  8
VOLVO_FM10__WB_3
 10
-18.3373
 20
-8.4575
 30
0
 70
     0
  0
VERTEX
  8
VOLVO_FM10__WB_3
 10
-18.0257
 20
-8.0637
 30
0
 70
     0
  0
VERTEX
  8
VOLVO_FM10__WB_3
 10
-17.7063
 20
-7.6762
 30
0
 70
     0
  0
VERTEX
  8
VOLVO_FM10__WB_3
 10
-17.3793
 20
-7.2953
 30
0
 70
     0
  0
VERTEX
  8
VOLVO_FM10__WB_3
 10
-17.0446
 20
-6.921
 30
0
 70
     0
  0
VERTEX
  8
VOLVO_FM10__WB_3
 10
-16.7025
 20
-6.5535
 30
0
 70
     0
  0
VERTEX
  8
VOLVO_FM10__WB_3
 10
-16.3531
 20
-6.1928
 30
0
 70
     0
  0
VERTEX
  8
VOLVO_FM10__WB_3
 10
-15.9964
 20
-5.8391
 30
0
 70
     0
  0
VERTEX
  8
VOLVO_FM10__WB_3
 10
-15.6325
 20
-5.4926
 30
0
 70
     0
  0
VERTEX
  8
VOLVO_FM10__WB_3
 10
-15.2616
 20
-5.1532
 30
0
 70
     0
  0
VERTEX
  8
VOLVO_FM10__WB_3
 10
-14.8838
 20
-4.8212
 30
0
 70
     0
  0
VERTEX
  8
VOLVO_FM10__WB_3
 10
-14.4992
 20
-4.4967
 30
0
 70
     0
  0
VERTEX
  8
VOLVO_FM10__WB_3
 10
-14.1078
 20
-4.1798
 30
0
 70
     0
  0
VERTEX
  8
VOLVO_FM10__WB_3
 10
-13.7098
 20
-3.8706
 30
0
 70
     0
  0
VERTEX
  8
VOLVO_FM10__WB_3
 10
-13.3053
 20
-3.5693
 30
0
 70
     0
  0
VERTEX
  8
VOLVO_FM10__WB_3
 10
-12.8944
 20
-3.2759
 30
0
 70
     0
  0
VERTEX
  8
VOLVO_FM10__WB_3
 10
-12.4772
 20
-2.9906
 30
0
 70
     0
  0
VERTEX
  8
VOLVO_FM10__WB_3
 10
-12.0538
 20
-2.7134
 30
0
 70
     0
  0
VERTEX
  8
VOLVO_FM10__WB_3
 10
-11.6244
 20
-2.4446
 30
0
 70
     0
  0
VERTEX
  8
VOLVO_FM10__WB_3
 10
-11.1889
 20
-2.1843
 30
0
 70
     0
  0
VERTEX
  8
VOLVO_FM10__WB_3
 10
-10.7476
 20
-1.9325
 30
0
 70
     0
  0
VERTEX
  8
VOLVO_FM10__WB_3
 10
-10.3004
 20
-1.6893
 30
0
 70
     0
  0
VERTEX
  8
VOLVO_FM10__WB_3
 10
-9.8477
 20
-1.455
 30
0
 70
     0
  0
VERTEX
  8
VOLVO_FM10__WB_3
 10
-9.3893
 20
-1.2296
 30
0
 70
     0
  0
VERTEX
  8
VOLVO_FM10__WB_3
 10
-8.9255
 20
-1.0132
 30
0
 70
     0
  0
VERTEX
  8
VOLVO_FM10__WB_3
 10
-8.4564
 20
-0.8061
 30
0
 70
     0
  0
VERTEX
  8
VOLVO_FM10__WB_3
 10
-7.982
 20
-0.6081
 30
0
 70
     0
  0
VERTEX
  8
VOLVO_FM10__WB_3
 10
-7.5025
 20
-0.4196
 30
0
 70
     0
  0
VERTEX
  8
VOLVO_FM10__WB_3
 10
-7.0179
 20
-0.2407
 30
0
 70
     0
  0
VERTEX
  8
VOLVO_FM10__WB_3
 10
-6.5285
 20
-0.0713
 30
0
 70
     0
  0
VERTEX
  8
VOLVO_FM10__WB_3
 10
-6.0342
 20
0.0883
 30
0
 70
     0
  0
VERTEX
  8
VOLVO_FM10__WB_3
 10
-5.5352
 20
0.2379
 30
0
 70
     0
  0
VERTEX
  8
VOLVO_FM10__WB_3
 10
-5.0315
 20
0.3776
 30
0
 70
     0
  0
VERTEX
  8
VOLVO_FM10__WB_3
 10
-4.5234
 20
0.5072
 30
0
 70
     0
  0
VERTEX
  8
VOLVO_FM10__WB_3
 10
-4.0109
 20
0.6265
 30
0
 70
     0
  0
VERTEX
  8
VOLVO_FM10__WB_3
 10
-3.4941
 20
0.7354
 30
0
 70
     0
  0
SEQEND
  0
POLYLINE
  8
VOLVO_FM10__WB_3
  6
CONTINUOUS
 62
     7
 66
     1
 40
0.0139
 41
0.0139
  0
VERTEX
  8
VOLVO_FM10__WB_3
 10
53.75
 20
-21.8557
 30
0
 70
     0
  0
VERTEX
  8
VOLVO_FM10__WB_3
 10
53.75
 20
-20.084
 30
0
 70
     0
  0
SEQEND
  0
POLYLINE
  8
VOLVO_FM10__WB_3
  6
CONTINUOUS
 62
     7
 66
     1
 40
0.0139
 41
0.0139
  0
VERTEX
  8
VOLVO_FM10__WB_3
 10
53.75
 20
-3.5411
 30
0
 70
     0
  0
VERTEX
  8
VOLVO_FM10__WB_3
 10
53.75
 20
13.7084
 30
0
 70
     0
  0
SEQEND
  0
POLYLINE
  8
VOLVO_FM10__WB_3
  6
CONTINUOUS
 62
     7
 66
     1
 40
0.0139
 41
0.0139
  0
VERTEX
  8
VOLVO_FM10__WB_3
 10
53.75
 20
-16.7376
 30
0
 70
     0
  0
VERTEX
  8
VOLVO_FM10__WB_3
 10
53.75
 20
-16.0486
 30
0
 70
     0
  0
SEQEND
  0
POLYLINE
  8
VOLVO_FM10__WB_3
  6
CONTINUOUS
 62
     7
 66
     1
 40
0.0139
 41
0.0139
  0
VERTEX
  8
VOLVO_FM10__WB_3
 10
53.75
 20
-6.2061
 30
0
 70
     0
  0
VERTEX
  8
VOLVO_FM10__WB_3
 10
53.75
 20
-5.5171
 30
0
 70
     0
  0
SEQEND
  0
POLYLINE
  8
VOLVO_FM10__WB_3
  6
CONTINUOUS
 62
     7
 66
     1
 40
0.0139
 41
0.0139
  0
VERTEX
  8
VOLVO_FM10__WB_3
 10
37.3989
 20
33.9894
 30
0
 70
     0
  0
VERTEX
  8
VOLVO_FM10__WB_3
 10
37.4492
 20
33.9889
 30
0
 70
     0
  0
VERTEX
  8
VOLVO_FM10__WB_3
 10
37.4983
 20
33.9835
 30
0
 70
     0
  0
VERTEX
  8
VOLVO_FM10__WB_3
 10
37.5459
 20
33.9732
 30
0
 70
     0
  0
VERTEX
  8
VOLVO_FM10__WB_3
 10
37.5916
 20
33.9585
 30
0
 70
     0
  0
VERTEX
  8
VOLVO_FM10__WB_3
 10
37.6768
 20
33.9164
 30
0
 70
     0
  0
VERTEX
  8
VOLVO_FM10__WB_3
 10
37.7517
 20
33.8592
 30
0
 70
     0
  0
VERTEX
  8
VOLVO_FM10__WB_3
 10
37.8143
 20
33.7887
 30
0
 70
     0
  0
VERTEX
  8
VOLVO_FM10__WB_3
 10
37.8626
 20
33.7068
 30
0
 70
     0
  0
VERTEX
  8
VOLVO_FM10__WB_3
 10
37.8944
 20
33.6156
 30
0
 70
     0
  0
VERTEX
  8
VOLVO_FM10__WB_3
 10
37.9077
 20
33.5169
 30
0
 70
     0
  0
SEQEND
  0
POLYLINE
  8
VOLVO_FM10__WB_3
  6
CONTINUOUS
 62
     7
 66
     1
 40
0.0139
 41
0.0139
  0
VERTEX
  8
VOLVO_FM10__WB_3
 10
37.9077
 20
33.5169
 30
0
 70
     0
  0
VERTEX
  8
VOLVO_FM10__WB_3
 10
37.9074
 20
33.4973
 30
0
 70
     0
  0
VERTEX
  8
VOLVO_FM10__WB_3
 10
37.9072
 20
33.4776
 30
0
 70
     0
  0
SEQEND
  0
POLYLINE
  8
VOLVO_FM10__WB_3
  6
CONTINUOUS
 62
     7
 66
     1
 40
0.0139
 41
0.0139
  0
VERTEX
  8
VOLVO_FM10__WB_3
 10
33.9896
 20
33.0051
 30
0
 70
     0
  0
VERTEX
  8
VOLVO_FM10__WB_3
 10
33.9896
 20
28.9884
 30
0
 70
     0
  0
SEQEND
  0
POLYLINE
  8
VOLVO_FM10__WB_3
  6
CONTINUOUS
 62
     7
 66
     1
 40
0.0139
 41
0.0139
  0
VERTEX
  8
VOLVO_FM10__WB_3
 10
33.9896
 20
28.0042
 30
0
 70
     0
  0
VERTEX
  8
VOLVO_FM10__WB_3
 10
33.9896
 20
26.5301
 30
0
 70
     0
  0
SEQEND
  0
POLYLINE
  8
VOLVO_FM10__WB_3
  6
CONTINUOUS
 62
     7
 66
     1
 40
0.0139
 41
0.0139
  0
VERTEX
  8
VOLVO_FM10__WB_3
 10
15.1227
 20
64.294
 30
0
 70
     0
  0
VERTEX
  8
VOLVO_FM10__WB_3
 10
-11.3681
 20
68.6561
 30
0
 70
     0
  0
SEQEND
  0
POLYLINE
  8
VOLVO_FM10__WB_3
  6
CONTINUOUS
 62
     7
 66
     1
 40
0.0139
 41
0.0139
  0
VERTEX
  8
VOLVO_FM10__WB_3
 10
-21.998
 20
85.8215
 30
0
 70
     0
  0
VERTEX
  8
VOLVO_FM10__WB_3
 10
-21.998
 20
55.1128
 30
0
 70
     0
  0
SEQEND
  0
POLYLINE
  8
VOLVO_FM10__WB_3
  6
CONTINUOUS
 62
     7
 66
     1
 40
0.0139
 41
0.0139
  0
VERTEX
  8
VOLVO_FM10__WB_3
 10
-28.4941
 20
-0.0053
 30
0
 70
     0
  0
VERTEX
  8
VOLVO_FM10__WB_3
 10
-28.4941
 20
55.1128
 30
0
 70
     0
  0
SEQEND
  0
ENDSEC
  0
EOF
