  0
SECTION
  2
HEADER
  9
$ACADVER
  1
AC1006
  9
$AXISMODE
 70
     0
  9
$AXISUNIT
 10
0.125
 20
0.125
  9
$CECOLOR
 62
0
  9
$CELTYPE
  6
CONTINUOUS
  9
$CLAYER
  8
US1004P08-1
  9
$EXTMIN
 10
0
 20
0
  9
$EXTMAX
 10
34.6667
 20
22.4306
  9
$LIMMIN
 10
0
 20
0
  9
$LIMMAX
 10
34.6667
 20
22.4306
  9
$GRIDMODE
 70
     0
  9
$GRIDUNIT
 10
0.125
 20
0.125
  9
$MIRRTEXT
 70
     1
  9
$SNAPMODE
 70
     1
  9
$SNAPUNIT
 10
0.125
 20
0
  9
$SNAPSTYLE
 70
     0
  9
$SPLINESEGS
 70
     8
  9
$SPLINETYPE
 70
     6
  0
ENDSEC
  0
SECTION
  2
TABLES
  0
TABLE
  2
LTYPE
 70
     1
  0
LTYPE
  2
CONTINUOUS
 70
    64
  3
Descriptive Text
 72
    65
 73
     0
 40
0
  0
ENDTAB
  0
TABLE
  2
LAYER
 70
     1
  0
LAYER
  2
US1004P08-1
 70
     0
 62
     7
  6
CONTINUOUS
  0
ENDTAB
  0
TABLE
  2
STYLE
 70
     1
  0
STYLE
  2
STANDARD
 70
    64
 40
0.0
 41
1.0
 50
0.0
 71
     0
 42
0.2
  3
txt
  4

  0
STYLE
  2
ARIAL
 70
    64
 40
0.0
 41
1.0
 50
0.0
 71
     0
 42
0.2
  3
arial
  4

  0
ENDTAB
  0
TABLE
  2
VIEW
 70
     0
  0
ENDTAB
  0
TABLE
  2
USC
 70
     0
  0
ENDTAB
  0
TABLE
  2
DWGMGR
 70
     0
  0
ENDTAB
  0
ENDSEC
  0
SECTION
  2
BLOCKS
  0
BLOCK
  8
US1004P08-1
  2
Group1
 70
     0
 10
0
 20
0
 30
0
  0
POLYLINE
  8
US1004P08-1
  6
CONTINUOUS
 62
     7
 66
     1
 40
0.0139
 41
0.0139
  0
VERTEX
  8
US1004P08-1
 10
5.2263
 20
-7.7057
 30
0
 70
     0
  0
VERTEX
  8
US1004P08-1
 10
5.2263
 20
-7.4459
 30
0
 70
     0
  0
SEQEND
  0
POLYLINE
  8
US1004P08-1
  6
CONTINUOUS
 62
     7
 66
     1
 40
0.0139
 41
0.0139
  0
VERTEX
  8
US1004P08-1
 10
-5.2237
 20
-7.4459
 30
0
 70
     0
  0
VERTEX
  8
US1004P08-1
 10
-5.2237
 20
-7.7491
 30
0
 70
     0
  0
SEQEND
  0
POLYLINE
  8
US1004P08-1
  6
CONTINUOUS
 62
     7
 66
     1
 40
0.0139
 41
0.0139
  0
VERTEX
  8
US1004P08-1
 10
6.9948
 20
-14.0134
 30
0
 70
     0
  0
VERTEX
  8
US1004P08-1
 10
6.9798
 20
-14.0134
 30
0
 70
     0
  0
SEQEND
  0
POLYLINE
  8
US1004P08-1
  6
CONTINUOUS
 62
     7
 66
     1
 40
0.0139
 41
0.0139
  0
VERTEX
  8
US1004P08-1
 10
6.9798
 20
-14.0134
 30
0
 70
     0
  0
VERTEX
  8
US1004P08-1
 10
6.9246
 20
-14.0134
 30
0
 70
     0
  0
SEQEND
  0
POLYLINE
  8
US1004P08-1
  6
CONTINUOUS
 62
     7
 66
     1
 40
0.0139
 41
0.0139
  0
VERTEX
  8
US1004P08-1
 10
6.9411
 20
-12.9538
 30
0
 70
     0
  0
VERTEX
  8
US1004P08-1
 10
6.8437
 20
-12.9538
 30
0
 70
     0
  0
SEQEND
  0
POLYLINE
  8
US1004P08-1
  6
CONTINUOUS
 62
     7
 66
     1
 40
0.0139
 41
0.0139
  0
VERTEX
  8
US1004P08-1
 10
6.9411
 20
-12.0743
 30
0
 70
     0
  0
VERTEX
  8
US1004P08-1
 10
6.9411
 20
-13.0319
 30
0
 70
     0
  0
SEQEND
  0
POLYLINE
  8
US1004P08-1
  6
CONTINUOUS
 62
     7
 66
     1
 40
0.0139
 41
0.0139
  0
VERTEX
  8
US1004P08-1
 10
6.9411
 20
-13.1847
 30
0
 70
     0
  0
VERTEX
  8
US1004P08-1
 10
6.9411
 20
-13.2908
 30
0
 70
     0
  0
SEQEND
  0
POLYLINE
  8
US1004P08-1
  6
CONTINUOUS
 62
     7
 66
     1
 40
0.0139
 41
0.0139
  0
VERTEX
  8
US1004P08-1
 10
7.6834
 20
-11.9991
 30
0
 70
     0
  0
VERTEX
  8
US1004P08-1
 10
7.6771
 20
-11.9603
 30
0
 70
     0
  0
VERTEX
  8
US1004P08-1
 10
7.6578
 20
-11.9294
 30
0
 70
     0
  0
VERTEX
  8
US1004P08-1
 10
7.6268
 20
-11.9101
 30
0
 70
     0
  0
VERTEX
  8
US1004P08-1
 10
7.588
 20
-11.9038
 30
0
 70
     0
  0
SEQEND
  0
POLYLINE
  8
US1004P08-1
  6
CONTINUOUS
 62
     7
 66
     1
 40
0.0139
 41
0.0139
  0
VERTEX
  8
US1004P08-1
 10
7.6834
 20
-14.9681
 30
0
 70
     0
  0
VERTEX
  8
US1004P08-1
 10
7.6771
 20
-15.0069
 30
0
 70
     0
  0
VERTEX
  8
US1004P08-1
 10
7.6578
 20
-15.0378
 30
0
 70
     0
  0
VERTEX
  8
US1004P08-1
 10
7.6268
 20
-15.0571
 30
0
 70
     0
  0
VERTEX
  8
US1004P08-1
 10
7.588
 20
-15.0634
 30
0
 70
     0
  0
SEQEND
  0
POLYLINE
  8
US1004P08-1
  6
CONTINUOUS
 62
     7
 66
     1
 40
0.0139
 41
0.0139
  0
VERTEX
  8
US1004P08-1
 10
6.9958
 20
-13.8634
 30
0
 70
     0
  0
VERTEX
  8
US1004P08-1
 10
6.9517
 20
-13.8634
 30
0
 70
     0
  0
SEQEND
  0
POLYLINE
  8
US1004P08-1
  6
CONTINUOUS
 62
     7
 66
     1
 40
0.0139
 41
0.0139
  0
VERTEX
  8
US1004P08-1
 10
6.7203
 20
-13.8634
 30
0
 70
     0
  0
VERTEX
  8
US1004P08-1
 10
6.4472
 20
-13.8634
 30
0
 70
     0
  0
SEQEND
  0
POLYLINE
  8
US1004P08-1
  6
CONTINUOUS
 62
     7
 66
     1
 40
0.0139
 41
0.0139
  0
VERTEX
  8
US1004P08-1
 10
6.9411
 20
-12.9076
 30
0
 70
     0
  0
VERTEX
  8
US1004P08-1
 10
6.8794
 20
-12.9027
 30
0
 70
     0
  0
VERTEX
  8
US1004P08-1
 10
6.8013
 20
-12.8989
 30
0
 70
     0
  0
SEQEND
  0
POLYLINE
  8
US1004P08-1
  6
CONTINUOUS
 62
     7
 66
     1
 40
0.0139
 41
0.0139
  0
VERTEX
  8
US1004P08-1
 10
6.8013
 20
-12.8989
 30
0
 70
     0
  0
VERTEX
  8
US1004P08-1
 10
6.7556
 20
-12.8989
 30
0
 70
     0
  0
SEQEND
  0
POLYLINE
  8
US1004P08-1
  6
CONTINUOUS
 62
     7
 66
     1
 40
0.0139
 41
0.0139
  0
VERTEX
  8
US1004P08-1
 10
6.9948
 20
-11.9662
 30
0
 70
     0
  0
VERTEX
  8
US1004P08-1
 10
6.9948
 20
-11.7895
 30
0
 70
     0
  0
SEQEND
  0
POLYLINE
  8
US1004P08-1
  6
CONTINUOUS
 62
     7
 66
     1
 40
0.0139
 41
0.0139
  0
VERTEX
  8
US1004P08-1
 10
6.9411
 20
-14.5918
 30
0
 70
     0
  0
VERTEX
  8
US1004P08-1
 10
6.9579
 20
-14.6495
 30
0
 70
     0
  0
VERTEX
  8
US1004P08-1
 10
6.9948
 20
-14.6996
 30
0
 70
     0
  0
SEQEND
  0
POLYLINE
  8
US1004P08-1
  6
CONTINUOUS
 62
     7
 66
     1
 40
0.0139
 41
0.0139
  0
VERTEX
  8
US1004P08-1
 10
6.9415
 20
-12.823
 30
0
 70
     0
  0
VERTEX
  8
US1004P08-1
 10
6.9324
 20
-12.8234
 30
0
 70
     0
  0
VERTEX
  8
US1004P08-1
 10
6.9232
 20
-12.8239
 30
0
 70
     0
  0
VERTEX
  8
US1004P08-1
 10
6.8896
 20
-12.8253
 30
0
 70
     0
  0
VERTEX
  8
US1004P08-1
 10
6.8549
 20
-12.8266
 30
0
 70
     0
  0
VERTEX
  8
US1004P08-1
 10
6.8154
 20
-12.8279
 30
0
 70
     0
  0
VERTEX
  8
US1004P08-1
 10
6.775
 20
-12.8292
 30
0
 70
     0
  0
VERTEX
  8
US1004P08-1
 10
6.7282
 20
-12.8305
 30
0
 70
     0
  0
VERTEX
  8
US1004P08-1
 10
6.6808
 20
-12.8317
 30
0
 70
     0
  0
VERTEX
  8
US1004P08-1
 10
6.6377
 20
-12.8327
 30
0
 70
     0
  0
VERTEX
  8
US1004P08-1
 10
6.5945
 20
-12.8338
 30
0
 70
     0
  0
SEQEND
  0
POLYLINE
  8
US1004P08-1
  6
CONTINUOUS
 62
     7
 66
     1
 40
0.0139
 41
0.0139
  0
VERTEX
  8
US1004P08-1
 10
6.8013
 20
-13.0859
 30
0
 70
     0
  0
VERTEX
  8
US1004P08-1
 10
6.7937
 20
-13.0333
 30
0
 70
     0
  0
VERTEX
  8
US1004P08-1
 10
6.7716
 20
-12.9849
 30
0
 70
     0
  0
SEQEND
  0
POLYLINE
  8
US1004P08-1
  6
CONTINUOUS
 62
     7
 66
     1
 40
0.0139
 41
0.0139
  0
VERTEX
  8
US1004P08-1
 10
7.3951
 20
-11.5789
 30
0
 70
     0
  0
VERTEX
  8
US1004P08-1
 10
7.4068
 20
-11.578
 30
0
 70
     0
  0
VERTEX
  8
US1004P08-1
 10
7.4182
 20
-11.5779
 30
0
 70
     0
  0
SEQEND
  0
POLYLINE
  8
US1004P08-1
  6
CONTINUOUS
 62
     7
 66
     1
 40
0.0139
 41
0.0139
  0
VERTEX
  8
US1004P08-1
 10
6.9411
 20
-14.5918
 30
0
 70
     0
  0
VERTEX
  8
US1004P08-1
 10
6.9411
 20
-14.0134
 30
0
 70
     0
  0
SEQEND
  0
POLYLINE
  8
US1004P08-1
  6
CONTINUOUS
 62
     7
 66
     1
 40
0.0139
 41
0.0139
  0
VERTEX
  8
US1004P08-1
 10
7.6834
 20
-11.9991
 30
0
 70
     0
  0
VERTEX
  8
US1004P08-1
 10
7.6834
 20
-11.6905
 30
0
 70
     0
  0
SEQEND
  0
POLYLINE
  8
US1004P08-1
  6
CONTINUOUS
 62
     7
 66
     1
 40
0.0139
 41
0.0139
  0
VERTEX
  8
US1004P08-1
 10
-5.4225
 20
-8.0904
 30
0
 70
     0
  0
VERTEX
  8
US1004P08-1
 10
-5.4551
 20
-8.1311
 30
0
 70
     0
  0
VERTEX
  8
US1004P08-1
 10
-5.479
 20
-8.1769
 30
0
 70
     0
  0
VERTEX
  8
US1004P08-1
 10
-5.4937
 20
-8.2265
 30
0
 70
     0
  0
VERTEX
  8
US1004P08-1
 10
-5.4987
 20
-8.2784
 30
0
 70
     0
  0
SEQEND
  0
POLYLINE
  8
US1004P08-1
  6
CONTINUOUS
 62
     7
 66
     1
 40
0.0139
 41
0.0139
  0
VERTEX
  8
US1004P08-1
 10
5.2313
 20
-8.1284
 30
0
 70
     0
  0
VERTEX
  8
US1004P08-1
 10
5.1971
 20
-8.1284
 30
0
 70
     0
  0
SEQEND
  0
POLYLINE
  8
US1004P08-1
  6
CONTINUOUS
 62
     7
 66
     1
 40
0.0139
 41
0.0139
  0
VERTEX
  8
US1004P08-1
 10
-5.0709
 20
-8.1284
 30
0
 70
     0
  0
VERTEX
  8
US1004P08-1
 10
-5.2287
 20
-8.1284
 30
0
 70
     0
  0
SEQEND
  0
POLYLINE
  8
US1004P08-1
  6
CONTINUOUS
 62
     7
 66
     1
 40
0.0139
 41
0.0139
  0
VERTEX
  8
US1004P08-1
 10
-1.6862
 20
-7.5995
 30
0
 70
     0
  0
VERTEX
  8
US1004P08-1
 10
-1.6862
 20
-7.4153
 30
0
 70
     0
  0
SEQEND
  0
POLYLINE
  8
US1004P08-1
  6
CONTINUOUS
 62
     7
 66
     1
 40
0.0139
 41
0.0139
  0
VERTEX
  8
US1004P08-1
 10
-1.6862
 20
-7.2507
 30
0
 70
     0
  0
VERTEX
  8
US1004P08-1
 10
-1.6862
 20
-7.0783
 30
0
 70
     0
  0
SEQEND
  0
POLYLINE
  8
US1004P08-1
  6
CONTINUOUS
 62
     7
 66
     1
 40
0.0139
 41
0.0139
  0
VERTEX
  8
US1004P08-1
 10
-1.6862
 20
-6.8506
 30
0
 70
     0
  0
VERTEX
  8
US1004P08-1
 10
-1.6862
 20
-6.6786
 30
0
 70
     0
  0
SEQEND
  0
POLYLINE
  8
US1004P08-1
  6
CONTINUOUS
 62
     7
 66
     1
 40
0.0139
 41
0.0139
  0
VERTEX
  8
US1004P08-1
 10
-1.6862
 20
-6.4499
 30
0
 70
     0
  0
VERTEX
  8
US1004P08-1
 10
-1.6862
 20
-6.2783
 30
0
 70
     0
  0
SEQEND
  0
POLYLINE
  8
US1004P08-1
  6
CONTINUOUS
 62
     7
 66
     1
 40
0.0139
 41
0.0139
  0
VERTEX
  8
US1004P08-1
 10
-1.6862
 20
-6.0498
 30
0
 70
     0
  0
VERTEX
  8
US1004P08-1
 10
-1.6862
 20
-5.8785
 30
0
 70
     0
  0
SEQEND
  0
POLYLINE
  8
US1004P08-1
  6
CONTINUOUS
 62
     7
 66
     1
 40
0.0139
 41
0.0139
  0
VERTEX
  8
US1004P08-1
 10
-2.3112
 20
-5.9808
 30
0
 70
     0
  0
VERTEX
  8
US1004P08-1
 10
-2.3112
 20
-6.1521
 30
0
 70
     0
  0
SEQEND
  0
POLYLINE
  8
US1004P08-1
  6
CONTINUOUS
 62
     7
 66
     1
 40
0.0139
 41
0.0139
  0
VERTEX
  8
US1004P08-1
 10
-2.3112
 20
-6.3805
 30
0
 70
     0
  0
VERTEX
  8
US1004P08-1
 10
-2.3112
 20
-6.5521
 30
0
 70
     0
  0
SEQEND
  0
POLYLINE
  8
US1004P08-1
  6
CONTINUOUS
 62
     7
 66
     1
 40
0.0139
 41
0.0139
  0
VERTEX
  8
US1004P08-1
 10
-2.3112
 20
-6.7799
 30
0
 70
     0
  0
VERTEX
  8
US1004P08-1
 10
-2.3112
 20
-6.9522
 30
0
 70
     0
  0
SEQEND
  0
POLYLINE
  8
US1004P08-1
  6
CONTINUOUS
 62
     7
 66
     1
 40
0.0139
 41
0.0139
  0
VERTEX
  8
US1004P08-1
 10
-2.3112
 20
-7.18
 30
0
 70
     0
  0
VERTEX
  8
US1004P08-1
 10
-2.3112
 20
-7.2581
 30
0
 70
     0
  0
SEQEND
  0
POLYLINE
  8
US1004P08-1
  6
CONTINUOUS
 62
     7
 66
     1
 40
0.0139
 41
0.0139
  0
VERTEX
  8
US1004P08-1
 10
-2.2874
 20
-5.7526
 30
0
 70
     0
  0
VERTEX
  8
US1004P08-1
 10
-2.3112
 20
-5.7526
 30
0
 70
     0
  0
SEQEND
  0
POLYLINE
  8
US1004P08-1
  6
CONTINUOUS
 62
     7
 66
     1
 40
0.0139
 41
0.0139
  0
VERTEX
  8
US1004P08-1
 10
-1.6862
 20
-5.6653
 30
0
 70
     0
  0
VERTEX
  8
US1004P08-1
 10
-1.6862
 20
-5.5269
 30
0
 70
     0
  0
SEQEND
  0
POLYLINE
  8
US1004P08-1
  6
CONTINUOUS
 62
     7
 66
     1
 40
0.0139
 41
0.0139
  0
VERTEX
  8
US1004P08-1
 10
-1.6862
 20
-4.8
 30
0
 70
     0
  0
VERTEX
  8
US1004P08-1
 10
-1.6862
 20
-4.3641
 30
0
 70
     0
  0
SEQEND
  0
POLYLINE
  8
US1004P08-1
  6
CONTINUOUS
 62
     7
 66
     1
 40
0.0139
 41
0.0139
  0
VERTEX
  8
US1004P08-1
 10
-2.3112
 20
-4.3641
 30
0
 70
     0
  0
VERTEX
  8
US1004P08-1
 10
-2.3112
 20
-4.8
 30
0
 70
     0
  0
SEQEND
  0
POLYLINE
  8
US1004P08-1
  6
CONTINUOUS
 62
     7
 66
     1
 40
0.0139
 41
0.0139
  0
VERTEX
  8
US1004P08-1
 10
-2.3112
 20
-5.5269
 30
0
 70
     0
  0
VERTEX
  8
US1004P08-1
 10
-2.3112
 20
-5.7526
 30
0
 70
     0
  0
SEQEND
  0
POLYLINE
  8
US1004P08-1
  6
CONTINUOUS
 62
     7
 66
     1
 40
0.0139
 41
0.0139
  0
VERTEX
  8
US1004P08-1
 10
2.3138
 20
-7.2507
 30
0
 70
     0
  0
VERTEX
  8
US1004P08-1
 10
2.3138
 20
-7.0783
 30
0
 70
     0
  0
SEQEND
  0
POLYLINE
  8
US1004P08-1
  6
CONTINUOUS
 62
     7
 66
     1
 40
0.0139
 41
0.0139
  0
VERTEX
  8
US1004P08-1
 10
2.3138
 20
-6.8506
 30
0
 70
     0
  0
VERTEX
  8
US1004P08-1
 10
2.3138
 20
-6.6786
 30
0
 70
     0
  0
SEQEND
  0
POLYLINE
  8
US1004P08-1
  6
CONTINUOUS
 62
     7
 66
     1
 40
0.0139
 41
0.0139
  0
VERTEX
  8
US1004P08-1
 10
2.3138
 20
-6.4499
 30
0
 70
     0
  0
VERTEX
  8
US1004P08-1
 10
2.3138
 20
-6.2783
 30
0
 70
     0
  0
SEQEND
  0
POLYLINE
  8
US1004P08-1
  6
CONTINUOUS
 62
     7
 66
     1
 40
0.0139
 41
0.0139
  0
VERTEX
  8
US1004P08-1
 10
2.3138
 20
-6.0498
 30
0
 70
     0
  0
VERTEX
  8
US1004P08-1
 10
2.3138
 20
-5.8785
 30
0
 70
     0
  0
SEQEND
  0
POLYLINE
  8
US1004P08-1
  6
CONTINUOUS
 62
     7
 66
     1
 40
0.0139
 41
0.0139
  0
VERTEX
  8
US1004P08-1
 10
1.6888
 20
-5.9808
 30
0
 70
     0
  0
VERTEX
  8
US1004P08-1
 10
1.6888
 20
-6.1521
 30
0
 70
     0
  0
SEQEND
  0
POLYLINE
  8
US1004P08-1
  6
CONTINUOUS
 62
     7
 66
     1
 40
0.0139
 41
0.0139
  0
VERTEX
  8
US1004P08-1
 10
1.6888
 20
-6.3805
 30
0
 70
     0
  0
VERTEX
  8
US1004P08-1
 10
1.6888
 20
-6.5521
 30
0
 70
     0
  0
SEQEND
  0
POLYLINE
  8
US1004P08-1
  6
CONTINUOUS
 62
     7
 66
     1
 40
0.0139
 41
0.0139
  0
VERTEX
  8
US1004P08-1
 10
1.6888
 20
-6.7799
 30
0
 70
     0
  0
VERTEX
  8
US1004P08-1
 10
1.6888
 20
-6.9522
 30
0
 70
     0
  0
SEQEND
  0
POLYLINE
  8
US1004P08-1
  6
CONTINUOUS
 62
     7
 66
     1
 40
0.0139
 41
0.0139
  0
VERTEX
  8
US1004P08-1
 10
1.6888
 20
-7.18
 30
0
 70
     0
  0
VERTEX
  8
US1004P08-1
 10
1.6888
 20
-7.352
 30
0
 70
     0
  0
SEQEND
  0
POLYLINE
  8
US1004P08-1
  6
CONTINUOUS
 62
     7
 66
     1
 40
0.0139
 41
0.0139
  0
VERTEX
  8
US1004P08-1
 10
1.6888
 20
-7.4153
 30
0
 70
     0
  0
VERTEX
  8
US1004P08-1
 10
1.6888
 20
-7.5995
 30
0
 70
     0
  0
SEQEND
  0
POLYLINE
  8
US1004P08-1
  6
CONTINUOUS
 62
     7
 66
     1
 40
0.0139
 41
0.0139
  0
VERTEX
  8
US1004P08-1
 10
1.7126
 20
-5.7526
 30
0
 70
     0
  0
VERTEX
  8
US1004P08-1
 10
1.6888
 20
-5.7526
 30
0
 70
     0
  0
SEQEND
  0
POLYLINE
  8
US1004P08-1
  6
CONTINUOUS
 62
     7
 66
     1
 40
0.0139
 41
0.0139
  0
VERTEX
  8
US1004P08-1
 10
2.3138
 20
-5.6653
 30
0
 70
     0
  0
VERTEX
  8
US1004P08-1
 10
2.3138
 20
-5.5269
 30
0
 70
     0
  0
SEQEND
  0
POLYLINE
  8
US1004P08-1
  6
CONTINUOUS
 62
     7
 66
     1
 40
0.0139
 41
0.0139
  0
VERTEX
  8
US1004P08-1
 10
2.3138
 20
-4.8
 30
0
 70
     0
  0
VERTEX
  8
US1004P08-1
 10
2.3138
 20
-4.3641
 30
0
 70
     0
  0
SEQEND
  0
POLYLINE
  8
US1004P08-1
  6
CONTINUOUS
 62
     7
 66
     1
 40
0.0139
 41
0.0139
  0
VERTEX
  8
US1004P08-1
 10
1.6888
 20
-4.3641
 30
0
 70
     0
  0
VERTEX
  8
US1004P08-1
 10
1.6888
 20
-4.8
 30
0
 70
     0
  0
SEQEND
  0
POLYLINE
  8
US1004P08-1
  6
CONTINUOUS
 62
     7
 66
     1
 40
0.0139
 41
0.0139
  0
VERTEX
  8
US1004P08-1
 10
1.6888
 20
-5.5269
 30
0
 70
     0
  0
VERTEX
  8
US1004P08-1
 10
1.6888
 20
-5.7526
 30
0
 70
     0
  0
SEQEND
  0
POLYLINE
  8
US1004P08-1
  6
CONTINUOUS
 62
     7
 66
     1
 40
0.0139
 41
0.0139
  0
VERTEX
  8
US1004P08-1
 10
-3.5369
 20
-7.6297
 30
0
 70
     0
  0
VERTEX
  8
US1004P08-1
 10
-4.7793
 20
-7.6239
 30
0
 70
     0
  0
SEQEND
  0
POLYLINE
  8
US1004P08-1
  6
CONTINUOUS
 62
     7
 66
     1
 40
0.0139
 41
0.0139
  0
VERTEX
  8
US1004P08-1
 10
-4.7793
 20
-7.6239
 30
0
 70
     0
  0
VERTEX
  8
US1004P08-1
 10
-4.7794
 20
-7.6595
 30
0
 70
     0
  0
SEQEND
  0
POLYLINE
  8
US1004P08-1
  6
CONTINUOUS
 62
     7
 66
     1
 40
0.0139
 41
0.0139
  0
VERTEX
  8
US1004P08-1
 10
-3.519
 20
-7.5697
 30
0
 70
     0
  0
VERTEX
  8
US1004P08-1
 10
-3.5191
 20
-7.5995
 30
0
 70
     0
  0
SEQEND
  0
POLYLINE
  8
US1004P08-1
  6
CONTINUOUS
 62
     7
 66
     1
 40
0.0139
 41
0.0139
  0
VERTEX
  8
US1004P08-1
 10
-3.5183
 20
-7.4121
 30
0
 70
     0
  0
VERTEX
  8
US1004P08-1
 10
-3.518
 20
-7.3452
 30
0
 70
     0
  0
SEQEND
  0
POLYLINE
  8
US1004P08-1
  6
CONTINUOUS
 62
     7
 66
     1
 40
0.0139
 41
0.0139
  0
VERTEX
  8
US1004P08-1
 10
-4.7779
 20
-7.3394
 30
0
 70
     0
  0
VERTEX
  8
US1004P08-1
 10
-4.8411
 20
-7.3468
 30
0
 70
     0
  0
VERTEX
  8
US1004P08-1
 10
-4.8979
 20
-7.3685
 30
0
 70
     0
  0
VERTEX
  8
US1004P08-1
 10
-4.9468
 20
-7.4022
 30
0
 70
     0
  0
VERTEX
  8
US1004P08-1
 10
-4.9862
 20
-7.4459
 30
0
 70
     0
  0
VERTEX
  8
US1004P08-1
 10
-5.0148
 20
-7.4974
 30
0
 70
     0
  0
VERTEX
  8
US1004P08-1
 10
-5.0308
 20
-7.5545
 30
0
 70
     0
  0
VERTEX
  8
US1004P08-1
 10
-5.0329
 20
-7.6153
 30
0
 70
     0
  0
VERTEX
  8
US1004P08-1
 10
-5.0195
 20
-7.6774
 30
0
 70
     0
  0
SEQEND
  0
POLYLINE
  8
US1004P08-1
  6
CONTINUOUS
 62
     7
 66
     1
 40
0.0139
 41
0.0139
  0
VERTEX
  8
US1004P08-1
 10
3.5416
 20
-7.5995
 30
0
 70
     0
  0
VERTEX
  8
US1004P08-1
 10
3.5426
 20
-7.3781
 30
0
 70
     0
  0
SEQEND
  0
POLYLINE
  8
US1004P08-1
  6
CONTINUOUS
 62
     7
 66
     1
 40
0.0139
 41
0.0139
  0
VERTEX
  8
US1004P08-1
 10
2.2826
 20
-7.3723
 30
0
 70
     0
  0
VERTEX
  8
US1004P08-1
 10
2.2348
 20
-7.3765
 30
0
 70
     0
  0
VERTEX
  8
US1004P08-1
 10
2.1898
 20
-7.3892
 30
0
 70
     0
  0
VERTEX
  8
US1004P08-1
 10
2.1485
 20
-7.4096
 30
0
 70
     0
  0
VERTEX
  8
US1004P08-1
 10
2.1118
 20
-7.437
 30
0
 70
     0
  0
VERTEX
  8
US1004P08-1
 10
2.0805
 20
-7.4704
 30
0
 70
     0
  0
VERTEX
  8
US1004P08-1
 10
2.0556
 20
-7.5092
 30
0
 70
     0
  0
VERTEX
  8
US1004P08-1
 10
2.0379
 20
-7.5525
 30
0
 70
     0
  0
VERTEX
  8
US1004P08-1
 10
2.0284
 20
-7.5995
 30
0
 70
     0
  0
SEQEND
  0
POLYLINE
  8
US1004P08-1
  6
CONTINUOUS
 62
     7
 66
     1
 40
0.0139
 41
0.0139
  0
VERTEX
  8
US1004P08-1
 10
5.1709
 20
-7.6864
 30
0
 70
     0
  0
VERTEX
  8
US1004P08-1
 10
5.1753
 20
-7.6287
 30
0
 70
     0
  0
VERTEX
  8
US1004P08-1
 10
5.167
 20
-7.5736
 30
0
 70
     0
  0
VERTEX
  8
US1004P08-1
 10
5.1473
 20
-7.5227
 30
0
 70
     0
  0
VERTEX
  8
US1004P08-1
 10
5.1175
 20
-7.4775
 30
0
 70
     0
  0
VERTEX
  8
US1004P08-1
 10
5.0788
 20
-7.4396
 30
0
 70
     0
  0
VERTEX
  8
US1004P08-1
 10
5.0326
 20
-7.4105
 30
0
 70
     0
  0
VERTEX
  8
US1004P08-1
 10
4.9801
 20
-7.3918
 30
0
 70
     0
  0
VERTEX
  8
US1004P08-1
 10
4.9226
 20
-7.3851
 30
0
 70
     0
  0
SEQEND
  0
POLYLINE
  8
US1004P08-1
  6
CONTINUOUS
 62
     7
 66
     1
 40
0.0139
 41
0.0139
  0
VERTEX
  8
US1004P08-1
 10
-1.9988
 20
-5.9153
 30
0
 70
     0
  0
VERTEX
  8
US1004P08-1
 10
-2.0514
 20
-5.9244
 30
0
 70
     0
  0
VERTEX
  8
US1004P08-1
 10
-2.1029
 20
-5.9335
 30
0
 70
     0
  0
VERTEX
  8
US1004P08-1
 10
-2.2202
 20
-5.9562
 30
0
 70
     0
  0
VERTEX
  8
US1004P08-1
 10
-2.3098
 20
-5.9789
 30
0
 70
     0
  0
VERTEX
  8
US1004P08-1
 10
-2.3598
 20
-6.0017
 30
0
 70
     0
  0
VERTEX
  8
US1004P08-1
 10
-2.3648
 20
-6.0244
 30
0
 70
     0
  0
VERTEX
  8
US1004P08-1
 10
-2.3461
 20
-6.0375
 30
0
 70
     0
  0
VERTEX
  8
US1004P08-1
 10
-2.3128
 20
-6.0506
 30
0
 70
     0
  0
SEQEND
  0
POLYLINE
  8
US1004P08-1
  6
CONTINUOUS
 62
     7
 66
     1
 40
0.0139
 41
0.0139
  0
VERTEX
  8
US1004P08-1
 10
-1.9988
 20
-6.3153
 30
0
 70
     0
  0
VERTEX
  8
US1004P08-1
 10
-2.0774
 20
-6.3289
 30
0
 70
     0
  0
VERTEX
  8
US1004P08-1
 10
-2.1524
 20
-6.3426
 30
0
 70
     0
  0
VERTEX
  8
US1004P08-1
 10
-2.26
 20
-6.3653
 30
0
 70
     0
  0
VERTEX
  8
US1004P08-1
 10
-2.3351
 20
-6.388
 30
0
 70
     0
  0
VERTEX
  8
US1004P08-1
 10
-2.3673
 20
-6.4107
 30
0
 70
     0
  0
VERTEX
  8
US1004P08-1
 10
-2.3535
 20
-6.4335
 30
0
 70
     0
  0
VERTEX
  8
US1004P08-1
 10
-2.3362
 20
-6.4421
 30
0
 70
     0
  0
VERTEX
  8
US1004P08-1
 10
-2.3127
 20
-6.4507
 30
0
 70
     0
  0
SEQEND
  0
POLYLINE
  8
US1004P08-1
  6
CONTINUOUS
 62
     7
 66
     1
 40
0.0139
 41
0.0139
  0
VERTEX
  8
US1004P08-1
 10
-1.9991
 20
-6.7153
 30
0
 70
     0
  0
VERTEX
  8
US1004P08-1
 10
-2.103
 20
-6.7335
 30
0
 70
     0
  0
VERTEX
  8
US1004P08-1
 10
-2.1987
 20
-6.7517
 30
0
 70
     0
  0
VERTEX
  8
US1004P08-1
 10
-2.2946
 20
-6.7744
 30
0
 70
     0
  0
VERTEX
  8
US1004P08-1
 10
-2.3535
 20
-6.7971
 30
0
 70
     0
  0
VERTEX
  8
US1004P08-1
 10
-2.3673
 20
-6.8198
 30
0
 70
     0
  0
VERTEX
  8
US1004P08-1
 10
-2.3351
 20
-6.8426
 30
0
 70
     0
  0
VERTEX
  8
US1004P08-1
 10
-2.3254
 20
-6.8463
 30
0
 70
     0
  0
VERTEX
  8
US1004P08-1
 10
-2.3146
 20
-6.8501
 30
0
 70
     0
  0
SEQEND
  0
POLYLINE
  8
US1004P08-1
  6
CONTINUOUS
 62
     7
 66
     1
 40
0.0139
 41
0.0139
  0
VERTEX
  8
US1004P08-1
 10
-1.9988
 20
-7.1153
 30
0
 70
     0
  0
VERTEX
  8
US1004P08-1
 10
-2.1279
 20
-7.138
 30
0
 70
     0
  0
VERTEX
  8
US1004P08-1
 10
-2.2409
 20
-7.1607
 30
0
 70
     0
  0
VERTEX
  8
US1004P08-1
 10
-2.3231
 20
-7.1835
 30
0
 70
     0
  0
VERTEX
  8
US1004P08-1
 10
-2.3648
 20
-7.2062
 30
0
 70
     0
  0
VERTEX
  8
US1004P08-1
 10
-2.3609
 20
-7.228
 30
0
 70
     0
  0
VERTEX
  8
US1004P08-1
 10
-2.3155
 20
-7.2498
 30
0
 70
     0
  0
SEQEND
  0
POLYLINE
  8
US1004P08-1
  6
CONTINUOUS
 62
     7
 66
     1
 40
0.0139
 41
0.0139
  0
VERTEX
  8
US1004P08-1
 10
-2.1389
 20
-7.331
 30
0
 70
     0
  0
VERTEX
  8
US1004P08-1
 10
-2.1098
 20
-7.3277
 30
0
 70
     0
  0
VERTEX
  8
US1004P08-1
 10
-2.0805
 20
-7.3244
 30
0
 70
     0
  0
VERTEX
  8
US1004P08-1
 10
-1.8768
 20
-7.3017
 30
0
 70
     0
  0
VERTEX
  8
US1004P08-1
 10
-1.6883
 20
-7.2789
 30
0
 70
     0
  0
VERTEX
  8
US1004P08-1
 10
-1.5394
 20
-7.2562
 30
0
 70
     0
  0
VERTEX
  8
US1004P08-1
 10
-1.4478
 20
-7.2335
 30
0
 70
     0
  0
VERTEX
  8
US1004P08-1
 10
-1.4264
 20
-7.2107
 30
0
 70
     0
  0
VERTEX
  8
US1004P08-1
 10
-1.4764
 20
-7.188
 30
0
 70
     0
  0
VERTEX
  8
US1004P08-1
 10
-1.5637
 20
-7.1701
 30
0
 70
     0
  0
VERTEX
  8
US1004P08-1
 10
-1.685
 20
-7.1521
 30
0
 70
     0
  0
SEQEND
  0
POLYLINE
  8
US1004P08-1
  6
CONTINUOUS
 62
     7
 66
     1
 40
0.0139
 41
0.0139
  0
VERTEX
  8
US1004P08-1
 10
-2.5698
 20
-7.0086
 30
0
 70
     0
  0
VERTEX
  8
US1004P08-1
 10
-2.5685
 20
-7.0074
 30
0
 70
     0
  0
VERTEX
  8
US1004P08-1
 10
-2.5671
 20
-7.0062
 30
0
 70
     0
  0
VERTEX
  8
US1004P08-1
 10
-2.5024
 20
-6.9835
 30
0
 70
     0
  0
VERTEX
  8
US1004P08-1
 10
-2.3748
 20
-6.9607
 30
0
 70
     0
  0
VERTEX
  8
US1004P08-1
 10
-2.1993
 20
-6.938
 30
0
 70
     0
  0
VERTEX
  8
US1004P08-1
 10
-1.9987
 20
-6.9153
 30
0
 70
     0
  0
VERTEX
  8
US1004P08-1
 10
-1.7982
 20
-6.8926
 30
0
 70
     0
  0
VERTEX
  8
US1004P08-1
 10
-1.6227
 20
-6.8698
 30
0
 70
     0
  0
VERTEX
  8
US1004P08-1
 10
-1.4951
 20
-6.8471
 30
0
 70
     0
  0
VERTEX
  8
US1004P08-1
 10
-1.4304
 20
-6.8244
 30
0
 70
     0
  0
VERTEX
  8
US1004P08-1
 10
-1.438
 20
-6.8017
 30
0
 70
     0
  0
VERTEX
  8
US1004P08-1
 10
-1.5157
 20
-6.7789
 30
0
 70
     0
  0
VERTEX
  8
US1004P08-1
 10
-1.591
 20
-6.7656
 30
0
 70
     0
  0
VERTEX
  8
US1004P08-1
 10
-1.6839
 20
-6.7523
 30
0
 70
     0
  0
SEQEND
  0
POLYLINE
  8
US1004P08-1
  6
CONTINUOUS
 62
     7
 66
     1
 40
0.0139
 41
0.0139
  0
VERTEX
  8
US1004P08-1
 10
-2.5696
 20
-6.6086
 30
0
 70
     0
  0
VERTEX
  8
US1004P08-1
 10
-2.562
 20
-6.6029
 30
0
 70
     0
  0
VERTEX
  8
US1004P08-1
 10
-2.5497
 20
-6.5971
 30
0
 70
     0
  0
VERTEX
  8
US1004P08-1
 10
-2.4581
 20
-6.5744
 30
0
 70
     0
  0
VERTEX
  8
US1004P08-1
 10
-2.3092
 20
-6.5517
 30
0
 70
     0
  0
VERTEX
  8
US1004P08-1
 10
-2.1207
 20
-6.5289
 30
0
 70
     0
  0
VERTEX
  8
US1004P08-1
 10
-1.917
 20
-6.5062
 30
0
 70
     0
  0
VERTEX
  8
US1004P08-1
 10
-1.7237
 20
-6.4835
 30
0
 70
     0
  0
VERTEX
  8
US1004P08-1
 10
-1.5648
 20
-6.4607
 30
0
 70
     0
  0
VERTEX
  8
US1004P08-1
 10
-1.4611
 20
-6.438
 30
0
 70
     0
  0
VERTEX
  8
US1004P08-1
 10
-1.4245
 20
-6.4153
 30
0
 70
     0
  0
VERTEX
  8
US1004P08-1
 10
-1.4611
 20
-6.3926
 30
0
 70
     0
  0
VERTEX
  8
US1004P08-1
 10
-1.5648
 20
-6.3698
 30
0
 70
     0
  0
VERTEX
  8
US1004P08-1
 10
-1.6216
 20
-6.3609
 30
0
 70
     0
  0
VERTEX
  8
US1004P08-1
 10
-1.6858
 20
-6.352
 30
0
 70
     0
  0
SEQEND
  0
POLYLINE
  8
US1004P08-1
  6
CONTINUOUS
 62
     7
 66
     1
 40
0.0139
 41
0.0139
  0
VERTEX
  8
US1004P08-1
 10
-2.5696
 20
-6.2088
 30
0
 70
     0
  0
VERTEX
  8
US1004P08-1
 10
-2.5527
 20
-6.1984
 30
0
 70
     0
  0
VERTEX
  8
US1004P08-1
 10
-2.5211
 20
-6.188
 30
0
 70
     0
  0
VERTEX
  8
US1004P08-1
 10
-2.4045
 20
-6.1653
 30
0
 70
     0
  0
VERTEX
  8
US1004P08-1
 10
-2.2373
 20
-6.1426
 30
0
 70
     0
  0
VERTEX
  8
US1004P08-1
 10
-2.0397
 20
-6.1198
 30
0
 70
     0
  0
VERTEX
  8
US1004P08-1
 10
-1.837
 20
-6.0971
 30
0
 70
     0
  0
VERTEX
  8
US1004P08-1
 10
-1.6549
 20
-6.0744
 30
0
 70
     0
  0
VERTEX
  8
US1004P08-1
 10
-1.5157
 20
-6.0517
 30
0
 70
     0
  0
VERTEX
  8
US1004P08-1
 10
-1.438
 20
-6.0289
 30
0
 70
     0
  0
VERTEX
  8
US1004P08-1
 10
-1.4304
 20
-6.0062
 30
0
 70
     0
  0
VERTEX
  8
US1004P08-1
 10
-1.4951
 20
-5.9835
 30
0
 70
     0
  0
VERTEX
  8
US1004P08-1
 10
-1.6227
 20
-5.9607
 30
0
 70
     0
  0
VERTEX
  8
US1004P08-1
 10
-1.6526
 20
-5.9565
 30
0
 70
     0
  0
VERTEX
  8
US1004P08-1
 10
-1.684
 20
-5.9522
 30
0
 70
     0
  0
SEQEND
  0
POLYLINE
  8
US1004P08-1
  6
CONTINUOUS
 62
     7
 66
     1
 40
0.0139
 41
0.0139
  0
VERTEX
  8
US1004P08-1
 10
-2.5695
 20
-5.8086
 30
0
 70
     0
  0
VERTEX
  8
US1004P08-1
 10
-2.5402
 20
-5.7938
 30
0
 70
     0
  0
VERTEX
  8
US1004P08-1
 10
-2.4818
 20
-5.7789
 30
0
 70
     0
  0
VERTEX
  8
US1004P08-1
 10
-2.3426
 20
-5.7562
 30
0
 70
     0
  0
VERTEX
  8
US1004P08-1
 10
-2.1605
 20
-5.7335
 30
0
 70
     0
  0
VERTEX
  8
US1004P08-1
 10
-1.9578
 20
-5.7107
 30
0
 70
     0
  0
VERTEX
  8
US1004P08-1
 10
-1.7602
 20
-5.688
 30
0
 70
     0
  0
VERTEX
  8
US1004P08-1
 10
-1.6714
 20
-5.6767
 30
0
 70
     0
  0
VERTEX
  8
US1004P08-1
 10
-1.593
 20
-5.6653
 30
0
 70
     0
  0
SEQEND
  0
POLYLINE
  8
US1004P08-1
  6
CONTINUOUS
 62
     7
 66
     1
 40
0.0139
 41
0.0139
  0
VERTEX
  8
US1004P08-1
 10
-1.7374
 20
-5.6653
 30
0
 70
     0
  0
VERTEX
  8
US1004P08-1
 10
-1.7879
 20
-5.6767
 30
0
 70
     0
  0
VERTEX
  8
US1004P08-1
 10
-1.8451
 20
-5.688
 30
0
 70
     0
  0
VERTEX
  8
US1004P08-1
 10
-1.92
 20
-5.7016
 30
0
 70
     0
  0
VERTEX
  8
US1004P08-1
 10
-1.9984
 20
-5.7152
 30
0
 70
     0
  0
SEQEND
  0
POLYLINE
  8
US1004P08-1
  6
CONTINUOUS
 62
     7
 66
     1
 40
0.0139
 41
0.0139
  0
VERTEX
  8
US1004P08-1
 10
-1.6847
 20
-5.98
 30
0
 70
     0
  0
VERTEX
  8
US1004P08-1
 10
-1.6514
 20
-5.9931
 30
0
 70
     0
  0
VERTEX
  8
US1004P08-1
 10
-1.6327
 20
-6.0062
 30
0
 70
     0
  0
VERTEX
  8
US1004P08-1
 10
-1.6377
 20
-6.0289
 30
0
 70
     0
  0
VERTEX
  8
US1004P08-1
 10
-1.6877
 20
-6.0517
 30
0
 70
     0
  0
VERTEX
  8
US1004P08-1
 10
-1.7773
 20
-6.0744
 30
0
 70
     0
  0
VERTEX
  8
US1004P08-1
 10
-1.8946
 20
-6.0971
 30
0
 70
     0
  0
VERTEX
  8
US1004P08-1
 10
-1.9462
 20
-6.1062
 30
0
 70
     0
  0
VERTEX
  8
US1004P08-1
 10
-1.9989
 20
-6.1153
 30
0
 70
     0
  0
SEQEND
  0
POLYLINE
  8
US1004P08-1
  6
CONTINUOUS
 62
     7
 66
     1
 40
0.0139
 41
0.0139
  0
VERTEX
  8
US1004P08-1
 10
-1.6825
 20
-6.3807
 30
0
 70
     0
  0
VERTEX
  8
US1004P08-1
 10
-1.6428
 20
-6.398
 30
0
 70
     0
  0
VERTEX
  8
US1004P08-1
 10
-1.629
 20
-6.4153
 30
0
 70
     0
  0
VERTEX
  8
US1004P08-1
 10
-1.6525
 20
-6.438
 30
0
 70
     0
  0
VERTEX
  8
US1004P08-1
 10
-1.7193
 20
-6.4607
 30
0
 70
     0
  0
VERTEX
  8
US1004P08-1
 10
-1.8216
 20
-6.4835
 30
0
 70
     0
  0
VERTEX
  8
US1004P08-1
 10
-1.9461
 20
-6.5062
 30
0
 70
     0
  0
VERTEX
  8
US1004P08-1
 10
-1.9727
 20
-6.5108
 30
0
 70
     0
  0
VERTEX
  8
US1004P08-1
 10
-1.9993
 20
-6.5154
 30
0
 70
     0
  0
SEQEND
  0
POLYLINE
  8
US1004P08-1
  6
CONTINUOUS
 62
     7
 66
     1
 40
0.0139
 41
0.0139
  0
VERTEX
  8
US1004P08-1
 10
-1.6819
 20
-6.7808
 30
0
 70
     0
  0
VERTEX
  8
US1004P08-1
 10
-1.6365
 20
-6.8026
 30
0
 70
     0
  0
VERTEX
  8
US1004P08-1
 10
-1.6327
 20
-6.8244
 30
0
 70
     0
  0
VERTEX
  8
US1004P08-1
 10
-1.6744
 20
-6.8471
 30
0
 70
     0
  0
VERTEX
  8
US1004P08-1
 10
-1.7566
 20
-6.8698
 30
0
 70
     0
  0
VERTEX
  8
US1004P08-1
 10
-1.8696
 20
-6.8926
 30
0
 70
     0
  0
VERTEX
  8
US1004P08-1
 10
-1.9987
 20
-6.9153
 30
0
 70
     0
  0
VERTEX
  8
US1004P08-1
 10
-1.9988
 20
-6.9153
 30
0
 70
     0
  0
VERTEX
  8
US1004P08-1
 10
-1.9988
 20
-6.9153
 30
0
 70
     0
  0
SEQEND
  0
POLYLINE
  8
US1004P08-1
  6
CONTINUOUS
 62
     7
 66
     1
 40
0.0139
 41
0.0139
  0
VERTEX
  8
US1004P08-1
 10
-1.6829
 20
-7.1805
 30
0
 70
     0
  0
VERTEX
  8
US1004P08-1
 10
-1.6721
 20
-7.1843
 30
0
 70
     0
  0
VERTEX
  8
US1004P08-1
 10
-1.6624
 20
-7.188
 30
0
 70
     0
  0
VERTEX
  8
US1004P08-1
 10
-1.6302
 20
-7.2107
 30
0
 70
     0
  0
VERTEX
  8
US1004P08-1
 10
-1.6439
 20
-7.2335
 30
0
 70
     0
  0
VERTEX
  8
US1004P08-1
 10
-1.7029
 20
-7.2562
 30
0
 70
     0
  0
VERTEX
  8
US1004P08-1
 10
-1.7988
 20
-7.2789
 30
0
 70
     0
  0
VERTEX
  8
US1004P08-1
 10
-1.8944
 20
-7.2971
 30
0
 70
     0
  0
VERTEX
  8
US1004P08-1
 10
-1.9982
 20
-7.3152
 30
0
 70
     0
  0
SEQEND
  0
POLYLINE
  8
US1004P08-1
  6
CONTINUOUS
 62
     7
 66
     1
 40
0.0139
 41
0.0139
  0
VERTEX
  8
US1004P08-1
 10
-2.3112
 20
-5.6653
 30
0
 70
     0
  0
VERTEX
  8
US1004P08-1
 10
-2.4048
 20
-5.6653
 30
0
 70
     0
  0
SEQEND
  0
POLYLINE
  8
US1004P08-1
  6
CONTINUOUS
 62
     7
 66
     1
 40
0.0139
 41
0.0139
  0
VERTEX
  8
US1004P08-1
 10
-1.593
 20
-5.6653
 30
0
 70
     0
  0
VERTEX
  8
US1004P08-1
 10
-1.3927
 20
-5.6653
 30
0
 70
     0
  0
SEQEND
  0
POLYLINE
  8
US1004P08-1
  6
CONTINUOUS
 62
     7
 66
     1
 40
0.0139
 41
0.0139
  0
VERTEX
  8
US1004P08-1
 10
-2.4517
 20
-7.2574
 30
0
 70
     0
  0
VERTEX
  8
US1004P08-1
 10
-2.4673
 20
-7.2545
 30
0
 70
     0
  0
VERTEX
  8
US1004P08-1
 10
-2.4818
 20
-7.2517
 30
0
 70
     0
  0
VERTEX
  8
US1004P08-1
 10
-2.5595
 20
-7.2289
 30
0
 70
     0
  0
VERTEX
  8
US1004P08-1
 10
-2.5671
 20
-7.2062
 30
0
 70
     0
  0
VERTEX
  8
US1004P08-1
 10
-2.5024
 20
-7.1835
 30
0
 70
     0
  0
VERTEX
  8
US1004P08-1
 10
-2.3748
 20
-7.1607
 30
0
 70
     0
  0
VERTEX
  8
US1004P08-1
 10
-2.1993
 20
-7.138
 30
0
 70
     0
  0
VERTEX
  8
US1004P08-1
 10
-1.9987
 20
-7.1153
 30
0
 70
     0
  0
VERTEX
  8
US1004P08-1
 10
-1.7982
 20
-7.0926
 30
0
 70
     0
  0
VERTEX
  8
US1004P08-1
 10
-1.6227
 20
-7.0698
 30
0
 70
     0
  0
VERTEX
  8
US1004P08-1
 10
-1.4951
 20
-7.0471
 30
0
 70
     0
  0
VERTEX
  8
US1004P08-1
 10
-1.4304
 20
-7.0244
 30
0
 70
     0
  0
VERTEX
  8
US1004P08-1
 10
-1.4288
 20
-7.0231
 30
0
 70
     0
  0
VERTEX
  8
US1004P08-1
 10
-1.4275
 20
-7.0217
 30
0
 70
     0
  0
SEQEND
  0
POLYLINE
  8
US1004P08-1
  6
CONTINUOUS
 62
     7
 66
     1
 40
0.0139
 41
0.0139
  0
VERTEX
  8
US1004P08-1
 10
-2.3125
 20
-6.8785
 30
0
 70
     0
  0
VERTEX
  8
US1004P08-1
 10
-2.4338
 20
-6.8605
 30
0
 70
     0
  0
VERTEX
  8
US1004P08-1
 10
-2.5211
 20
-6.8426
 30
0
 70
     0
  0
VERTEX
  8
US1004P08-1
 10
-2.5711
 20
-6.8198
 30
0
 70
     0
  0
VERTEX
  8
US1004P08-1
 10
-2.5497
 20
-6.7971
 30
0
 70
     0
  0
VERTEX
  8
US1004P08-1
 10
-2.4581
 20
-6.7744
 30
0
 70
     0
  0
VERTEX
  8
US1004P08-1
 10
-2.3092
 20
-6.7517
 30
0
 70
     0
  0
VERTEX
  8
US1004P08-1
 10
-2.1207
 20
-6.7289
 30
0
 70
     0
  0
VERTEX
  8
US1004P08-1
 10
-1.917
 20
-6.7062
 30
0
 70
     0
  0
VERTEX
  8
US1004P08-1
 10
-1.7237
 20
-6.6835
 30
0
 70
     0
  0
VERTEX
  8
US1004P08-1
 10
-1.5648
 20
-6.6607
 30
0
 70
     0
  0
VERTEX
  8
US1004P08-1
 10
-1.472
 20
-6.6413
 30
0
 70
     0
  0
VERTEX
  8
US1004P08-1
 10
-1.4276
 20
-6.6218
 30
0
 70
     0
  0
SEQEND
  0
POLYLINE
  8
US1004P08-1
  6
CONTINUOUS
 62
     7
 66
     1
 40
0.0139
 41
0.0139
  0
VERTEX
  8
US1004P08-1
 10
-2.313
 20
-6.4784
 30
0
 70
     0
  0
VERTEX
  8
US1004P08-1
 10
-2.4595
 20
-6.4559
 30
0
 70
     0
  0
VERTEX
  8
US1004P08-1
 10
-2.5497
 20
-6.4335
 30
0
 70
     0
  0
VERTEX
  8
US1004P08-1
 10
-2.5711
 20
-6.4107
 30
0
 70
     0
  0
VERTEX
  8
US1004P08-1
 10
-2.5211
 20
-6.388
 30
0
 70
     0
  0
VERTEX
  8
US1004P08-1
 10
-2.4045
 20
-6.3653
 30
0
 70
     0
  0
VERTEX
  8
US1004P08-1
 10
-2.2373
 20
-6.3426
 30
0
 70
     0
  0
VERTEX
  8
US1004P08-1
 10
-2.0397
 20
-6.3198
 30
0
 70
     0
  0
VERTEX
  8
US1004P08-1
 10
-1.837
 20
-6.2971
 30
0
 70
     0
  0
VERTEX
  8
US1004P08-1
 10
-1.6549
 20
-6.2744
 30
0
 70
     0
  0
VERTEX
  8
US1004P08-1
 10
-1.5157
 20
-6.2517
 30
0
 70
     0
  0
VERTEX
  8
US1004P08-1
 10
-1.4572
 20
-6.2368
 30
0
 70
     0
  0
VERTEX
  8
US1004P08-1
 10
-1.4279
 20
-6.2219
 30
0
 70
     0
  0
SEQEND
  0
POLYLINE
  8
US1004P08-1
  6
CONTINUOUS
 62
     7
 66
     1
 40
0.0139
 41
0.0139
  0
VERTEX
  8
US1004P08-1
 10
-2.3134
 20
-6.0784
 30
0
 70
     0
  0
VERTEX
  8
US1004P08-1
 10
-2.3449
 20
-6.0741
 30
0
 70
     0
  0
VERTEX
  8
US1004P08-1
 10
-2.3748
 20
-6.0698
 30
0
 70
     0
  0
VERTEX
  8
US1004P08-1
 10
-2.5024
 20
-6.0471
 30
0
 70
     0
  0
VERTEX
  8
US1004P08-1
 10
-2.5671
 20
-6.0244
 30
0
 70
     0
  0
VERTEX
  8
US1004P08-1
 10
-2.5595
 20
-6.0017
 30
0
 70
     0
  0
VERTEX
  8
US1004P08-1
 10
-2.4818
 20
-5.9789
 30
0
 70
     0
  0
VERTEX
  8
US1004P08-1
 10
-2.3426
 20
-5.9562
 30
0
 70
     0
  0
VERTEX
  8
US1004P08-1
 10
-2.1605
 20
-5.9335
 30
0
 70
     0
  0
VERTEX
  8
US1004P08-1
 10
-1.9578
 20
-5.9107
 30
0
 70
     0
  0
VERTEX
  8
US1004P08-1
 10
-1.7602
 20
-5.888
 30
0
 70
     0
  0
VERTEX
  8
US1004P08-1
 10
-1.593
 20
-5.8653
 30
0
 70
     0
  0
VERTEX
  8
US1004P08-1
 10
-1.4764
 20
-5.8426
 30
0
 70
     0
  0
VERTEX
  8
US1004P08-1
 10
-1.4447
 20
-5.8322
 30
0
 70
     0
  0
VERTEX
  8
US1004P08-1
 10
-1.4279
 20
-5.8218
 30
0
 70
     0
  0
SEQEND
  0
POLYLINE
  8
US1004P08-1
  6
CONTINUOUS
 62
     7
 66
     1
 40
0.0139
 41
0.0139
  0
VERTEX
  8
US1004P08-1
 10
-2.3117
 20
-5.6786
 30
0
 70
     0
  0
VERTEX
  8
US1004P08-1
 10
-2.3602
 20
-5.6719
 30
0
 70
     0
  0
VERTEX
  8
US1004P08-1
 10
-2.4048
 20
-5.6653
 30
0
 70
     0
  0
SEQEND
  0
POLYLINE
  8
US1004P08-1
  6
CONTINUOUS
 62
     7
 66
     1
 40
0.0139
 41
0.0139
  0
VERTEX
  8
US1004P08-1
 10
-1.974
 20
-7.4153
 30
0
 70
     0
  0
VERTEX
  8
US1004P08-1
 10
-1.4218
 20
-7.4153
 30
0
 70
     0
  0
SEQEND
  0
POLYLINE
  8
US1004P08-1
  6
CONTINUOUS
 62
     7
 66
     1
 40
0.0139
 41
0.0139
  0
VERTEX
  8
US1004P08-1
 10
2.0012
 20
-5.9153
 30
0
 70
     0
  0
VERTEX
  8
US1004P08-1
 10
1.9486
 20
-5.9244
 30
0
 70
     0
  0
VERTEX
  8
US1004P08-1
 10
1.8971
 20
-5.9335
 30
0
 70
     0
  0
VERTEX
  8
US1004P08-1
 10
1.7798
 20
-5.9562
 30
0
 70
     0
  0
VERTEX
  8
US1004P08-1
 10
1.6902
 20
-5.9789
 30
0
 70
     0
  0
VERTEX
  8
US1004P08-1
 10
1.6402
 20
-6.0017
 30
0
 70
     0
  0
VERTEX
  8
US1004P08-1
 10
1.6352
 20
-6.0244
 30
0
 70
     0
  0
VERTEX
  8
US1004P08-1
 10
1.6539
 20
-6.0375
 30
0
 70
     0
  0
VERTEX
  8
US1004P08-1
 10
1.6872
 20
-6.0506
 30
0
 70
     0
  0
SEQEND
  0
POLYLINE
  8
US1004P08-1
  6
CONTINUOUS
 62
     7
 66
     1
 40
0.0139
 41
0.0139
  0
VERTEX
  8
US1004P08-1
 10
2.0012
 20
-6.3153
 30
0
 70
     0
  0
VERTEX
  8
US1004P08-1
 10
1.9226
 20
-6.3289
 30
0
 70
     0
  0
VERTEX
  8
US1004P08-1
 10
1.8476
 20
-6.3426
 30
0
 70
     0
  0
VERTEX
  8
US1004P08-1
 10
1.74
 20
-6.3653
 30
0
 70
     0
  0
VERTEX
  8
US1004P08-1
 10
1.6649
 20
-6.388
 30
0
 70
     0
  0
VERTEX
  8
US1004P08-1
 10
1.6327
 20
-6.4107
 30
0
 70
     0
  0
VERTEX
  8
US1004P08-1
 10
1.6465
 20
-6.4335
 30
0
 70
     0
  0
VERTEX
  8
US1004P08-1
 10
1.6638
 20
-6.4421
 30
0
 70
     0
  0
VERTEX
  8
US1004P08-1
 10
1.6873
 20
-6.4507
 30
0
 70
     0
  0
SEQEND
  0
POLYLINE
  8
US1004P08-1
  6
CONTINUOUS
 62
     7
 66
     1
 40
0.0139
 41
0.0139
  0
VERTEX
  8
US1004P08-1
 10
2.0009
 20
-6.7153
 30
0
 70
     0
  0
VERTEX
  8
US1004P08-1
 10
1.897
 20
-6.7335
 30
0
 70
     0
  0
VERTEX
  8
US1004P08-1
 10
1.8013
 20
-6.7517
 30
0
 70
     0
  0
VERTEX
  8
US1004P08-1
 10
1.7054
 20
-6.7744
 30
0
 70
     0
  0
VERTEX
  8
US1004P08-1
 10
1.6465
 20
-6.7971
 30
0
 70
     0
  0
VERTEX
  8
US1004P08-1
 10
1.6327
 20
-6.8198
 30
0
 70
     0
  0
VERTEX
  8
US1004P08-1
 10
1.6649
 20
-6.8426
 30
0
 70
     0
  0
VERTEX
  8
US1004P08-1
 10
1.6746
 20
-6.8463
 30
0
 70
     0
  0
VERTEX
  8
US1004P08-1
 10
1.6854
 20
-6.8501
 30
0
 70
     0
  0
SEQEND
  0
POLYLINE
  8
US1004P08-1
  6
CONTINUOUS
 62
     7
 66
     1
 40
0.0139
 41
0.0139
  0
VERTEX
  8
US1004P08-1
 10
2.0012
 20
-7.1153
 30
0
 70
     0
  0
VERTEX
  8
US1004P08-1
 10
1.8721
 20
-7.138
 30
0
 70
     0
  0
VERTEX
  8
US1004P08-1
 10
1.7591
 20
-7.1607
 30
0
 70
     0
  0
VERTEX
  8
US1004P08-1
 10
1.6769
 20
-7.1835
 30
0
 70
     0
  0
VERTEX
  8
US1004P08-1
 10
1.6352
 20
-7.2062
 30
0
 70
     0
  0
VERTEX
  8
US1004P08-1
 10
1.6391
 20
-7.228
 30
0
 70
     0
  0
VERTEX
  8
US1004P08-1
 10
1.6845
 20
-7.2498
 30
0
 70
     0
  0
SEQEND
  0
POLYLINE
  8
US1004P08-1
  6
CONTINUOUS
 62
     7
 66
     1
 40
0.0139
 41
0.0139
  0
VERTEX
  8
US1004P08-1
 10
1.4479
 20
-7.3982
 30
0
 70
     0
  0
VERTEX
  8
US1004P08-1
 10
1.4952
 20
-7.384
 30
0
 70
     0
  0
VERTEX
  8
US1004P08-1
 10
1.5673
 20
-7.3698
 30
0
 70
     0
  0
VERTEX
  8
US1004P08-1
 10
1.7262
 20
-7.3471
 30
0
 70
     0
  0
VERTEX
  8
US1004P08-1
 10
1.9195
 20
-7.3244
 30
0
 70
     0
  0
VERTEX
  8
US1004P08-1
 10
2.1232
 20
-7.3017
 30
0
 70
     0
  0
VERTEX
  8
US1004P08-1
 10
2.3117
 20
-7.2789
 30
0
 70
     0
  0
VERTEX
  8
US1004P08-1
 10
2.4606
 20
-7.2562
 30
0
 70
     0
  0
VERTEX
  8
US1004P08-1
 10
2.5522
 20
-7.2335
 30
0
 70
     0
  0
VERTEX
  8
US1004P08-1
 10
2.5736
 20
-7.2107
 30
0
 70
     0
  0
VERTEX
  8
US1004P08-1
 10
2.5236
 20
-7.188
 30
0
 70
     0
  0
VERTEX
  8
US1004P08-1
 10
2.4363
 20
-7.1701
 30
0
 70
     0
  0
VERTEX
  8
US1004P08-1
 10
2.315
 20
-7.1521
 30
0
 70
     0
  0
SEQEND
  0
POLYLINE
  8
US1004P08-1
  6
CONTINUOUS
 62
     7
 66
     1
 40
0.0139
 41
0.0139
  0
VERTEX
  8
US1004P08-1
 10
1.4302
 20
-7.0086
 30
0
 70
     0
  0
VERTEX
  8
US1004P08-1
 10
1.4315
 20
-7.0074
 30
0
 70
     0
  0
VERTEX
  8
US1004P08-1
 10
1.4329
 20
-7.0062
 30
0
 70
     0
  0
VERTEX
  8
US1004P08-1
 10
1.4976
 20
-6.9835
 30
0
 70
     0
  0
VERTEX
  8
US1004P08-1
 10
1.6252
 20
-6.9607
 30
0
 70
     0
  0
VERTEX
  8
US1004P08-1
 10
1.8007
 20
-6.938
 30
0
 70
     0
  0
VERTEX
  8
US1004P08-1
 10
2.0013
 20
-6.9153
 30
0
 70
     0
  0
VERTEX
  8
US1004P08-1
 10
2.2018
 20
-6.8926
 30
0
 70
     0
  0
VERTEX
  8
US1004P08-1
 10
2.3773
 20
-6.8698
 30
0
 70
     0
  0
VERTEX
  8
US1004P08-1
 10
2.5049
 20
-6.8471
 30
0
 70
     0
  0
VERTEX
  8
US1004P08-1
 10
2.5696
 20
-6.8244
 30
0
 70
     0
  0
VERTEX
  8
US1004P08-1
 10
2.562
 20
-6.8017
 30
0
 70
     0
  0
VERTEX
  8
US1004P08-1
 10
2.4843
 20
-6.7789
 30
0
 70
     0
  0
VERTEX
  8
US1004P08-1
 10
2.409
 20
-6.7656
 30
0
 70
     0
  0
VERTEX
  8
US1004P08-1
 10
2.3161
 20
-6.7523
 30
0
 70
     0
  0
SEQEND
  0
POLYLINE
  8
US1004P08-1
  6
CONTINUOUS
 62
     7
 66
     1
 40
0.0139
 41
0.0139
  0
VERTEX
  8
US1004P08-1
 10
1.4304
 20
-6.6086
 30
0
 70
     0
  0
VERTEX
  8
US1004P08-1
 10
1.438
 20
-6.6029
 30
0
 70
     0
  0
VERTEX
  8
US1004P08-1
 10
1.4503
 20
-6.5971
 30
0
 70
     0
  0
VERTEX
  8
US1004P08-1
 10
1.5419
 20
-6.5744
 30
0
 70
     0
  0
VERTEX
  8
US1004P08-1
 10
1.6908
 20
-6.5517
 30
0
 70
     0
  0
VERTEX
  8
US1004P08-1
 10
1.8793
 20
-6.5289
 30
0
 70
     0
  0
VERTEX
  8
US1004P08-1
 10
2.083
 20
-6.5062
 30
0
 70
     0
  0
VERTEX
  8
US1004P08-1
 10
2.2763
 20
-6.4835
 30
0
 70
     0
  0
VERTEX
  8
US1004P08-1
 10
2.4352
 20
-6.4607
 30
0
 70
     0
  0
VERTEX
  8
US1004P08-1
 10
2.5389
 20
-6.438
 30
0
 70
     0
  0
VERTEX
  8
US1004P08-1
 10
2.5755
 20
-6.4153
 30
0
 70
     0
  0
VERTEX
  8
US1004P08-1
 10
2.5389
 20
-6.3926
 30
0
 70
     0
  0
VERTEX
  8
US1004P08-1
 10
2.4352
 20
-6.3698
 30
0
 70
     0
  0
VERTEX
  8
US1004P08-1
 10
2.3784
 20
-6.3609
 30
0
 70
     0
  0
VERTEX
  8
US1004P08-1
 10
2.3142
 20
-6.352
 30
0
 70
     0
  0
SEQEND
  0
POLYLINE
  8
US1004P08-1
  6
CONTINUOUS
 62
     7
 66
     1
 40
0.0139
 41
0.0139
  0
VERTEX
  8
US1004P08-1
 10
1.4304
 20
-6.2088
 30
0
 70
     0
  0
VERTEX
  8
US1004P08-1
 10
1.4473
 20
-6.1984
 30
0
 70
     0
  0
VERTEX
  8
US1004P08-1
 10
1.4789
 20
-6.188
 30
0
 70
     0
  0
VERTEX
  8
US1004P08-1
 10
1.5955
 20
-6.1653
 30
0
 70
     0
  0
VERTEX
  8
US1004P08-1
 10
1.7627
 20
-6.1426
 30
0
 70
     0
  0
VERTEX
  8
US1004P08-1
 10
1.9603
 20
-6.1198
 30
0
 70
     0
  0
VERTEX
  8
US1004P08-1
 10
2.163
 20
-6.0971
 30
0
 70
     0
  0
VERTEX
  8
US1004P08-1
 10
2.3451
 20
-6.0744
 30
0
 70
     0
  0
VERTEX
  8
US1004P08-1
 10
2.4843
 20
-6.0517
 30
0
 70
     0
  0
VERTEX
  8
US1004P08-1
 10
2.562
 20
-6.0289
 30
0
 70
     0
  0
VERTEX
  8
US1004P08-1
 10
2.5696
 20
-6.0062
 30
0
 70
     0
  0
VERTEX
  8
US1004P08-1
 10
2.5049
 20
-5.9835
 30
0
 70
     0
  0
VERTEX
  8
US1004P08-1
 10
2.3773
 20
-5.9607
 30
0
 70
     0
  0
VERTEX
  8
US1004P08-1
 10
2.3474
 20
-5.9565
 30
0
 70
     0
  0
VERTEX
  8
US1004P08-1
 10
2.316
 20
-5.9522
 30
0
 70
     0
  0
SEQEND
  0
POLYLINE
  8
US1004P08-1
  6
CONTINUOUS
 62
     7
 66
     1
 40
0.0139
 41
0.0139
  0
VERTEX
  8
US1004P08-1
 10
1.4305
 20
-5.8086
 30
0
 70
     0
  0
VERTEX
  8
US1004P08-1
 10
1.4598
 20
-5.7938
 30
0
 70
     0
  0
VERTEX
  8
US1004P08-1
 10
1.5182
 20
-5.7789
 30
0
 70
     0
  0
VERTEX
  8
US1004P08-1
 10
1.6574
 20
-5.7562
 30
0
 70
     0
  0
VERTEX
  8
US1004P08-1
 10
1.8395
 20
-5.7335
 30
0
 70
     0
  0
VERTEX
  8
US1004P08-1
 10
2.0422
 20
-5.7107
 30
0
 70
     0
  0
VERTEX
  8
US1004P08-1
 10
2.2398
 20
-5.688
 30
0
 70
     0
  0
VERTEX
  8
US1004P08-1
 10
2.3286
 20
-5.6767
 30
0
 70
     0
  0
VERTEX
  8
US1004P08-1
 10
2.407
 20
-5.6653
 30
0
 70
     0
  0
SEQEND
  0
POLYLINE
  8
US1004P08-1
  6
CONTINUOUS
 62
     7
 66
     1
 40
0.0139
 41
0.0139
  0
VERTEX
  8
US1004P08-1
 10
2.2626
 20
-5.6653
 30
0
 70
     0
  0
VERTEX
  8
US1004P08-1
 10
2.2121
 20
-5.6767
 30
0
 70
     0
  0
VERTEX
  8
US1004P08-1
 10
2.1549
 20
-5.688
 30
0
 70
     0
  0
VERTEX
  8
US1004P08-1
 10
2.08
 20
-5.7016
 30
0
 70
     0
  0
VERTEX
  8
US1004P08-1
 10
2.0016
 20
-5.7152
 30
0
 70
     0
  0
SEQEND
  0
POLYLINE
  8
US1004P08-1
  6
CONTINUOUS
 62
     7
 66
     1
 40
0.0139
 41
0.0139
  0
VERTEX
  8
US1004P08-1
 10
2.3153
 20
-5.98
 30
0
 70
     0
  0
VERTEX
  8
US1004P08-1
 10
2.3486
 20
-5.9931
 30
0
 70
     0
  0
VERTEX
  8
US1004P08-1
 10
2.3673
 20
-6.0062
 30
0
 70
     0
  0
VERTEX
  8
US1004P08-1
 10
2.3623
 20
-6.0289
 30
0
 70
     0
  0
VERTEX
  8
US1004P08-1
 10
2.3123
 20
-6.0517
 30
0
 70
     0
  0
VERTEX
  8
US1004P08-1
 10
2.2227
 20
-6.0744
 30
0
 70
     0
  0
VERTEX
  8
US1004P08-1
 10
2.1054
 20
-6.0971
 30
0
 70
     0
  0
VERTEX
  8
US1004P08-1
 10
2.0538
 20
-6.1062
 30
0
 70
     0
  0
VERTEX
  8
US1004P08-1
 10
2.0011
 20
-6.1153
 30
0
 70
     0
  0
SEQEND
  0
POLYLINE
  8
US1004P08-1
  6
CONTINUOUS
 62
     7
 66
     1
 40
0.0139
 41
0.0139
  0
VERTEX
  8
US1004P08-1
 10
2.3175
 20
-6.3807
 30
0
 70
     0
  0
VERTEX
  8
US1004P08-1
 10
2.3572
 20
-6.398
 30
0
 70
     0
  0
VERTEX
  8
US1004P08-1
 10
2.371
 20
-6.4153
 30
0
 70
     0
  0
VERTEX
  8
US1004P08-1
 10
2.3475
 20
-6.438
 30
0
 70
     0
  0
VERTEX
  8
US1004P08-1
 10
2.2807
 20
-6.4607
 30
0
 70
     0
  0
VERTEX
  8
US1004P08-1
 10
2.1784
 20
-6.4835
 30
0
 70
     0
  0
VERTEX
  8
US1004P08-1
 10
2.0539
 20
-6.5062
 30
0
 70
     0
  0
VERTEX
  8
US1004P08-1
 10
2.0273
 20
-6.5108
 30
0
 70
     0
  0
VERTEX
  8
US1004P08-1
 10
2.0007
 20
-6.5154
 30
0
 70
     0
  0
SEQEND
  0
POLYLINE
  8
US1004P08-1
  6
CONTINUOUS
 62
     7
 66
     1
 40
0.0139
 41
0.0139
  0
VERTEX
  8
US1004P08-1
 10
2.3181
 20
-6.7808
 30
0
 70
     0
  0
VERTEX
  8
US1004P08-1
 10
2.3635
 20
-6.8026
 30
0
 70
     0
  0
VERTEX
  8
US1004P08-1
 10
2.3673
 20
-6.8244
 30
0
 70
     0
  0
VERTEX
  8
US1004P08-1
 10
2.3256
 20
-6.8471
 30
0
 70
     0
  0
VERTEX
  8
US1004P08-1
 10
2.2434
 20
-6.8698
 30
0
 70
     0
  0
VERTEX
  8
US1004P08-1
 10
2.1304
 20
-6.8926
 30
0
 70
     0
  0
VERTEX
  8
US1004P08-1
 10
2.0013
 20
-6.9153
 30
0
 70
     0
  0
VERTEX
  8
US1004P08-1
 10
2.0012
 20
-6.9153
 30
0
 70
     0
  0
VERTEX
  8
US1004P08-1
 10
2.0012
 20
-6.9153
 30
0
 70
     0
  0
SEQEND
  0
POLYLINE
  8
US1004P08-1
  6
CONTINUOUS
 62
     7
 66
     1
 40
0.0139
 41
0.0139
  0
VERTEX
  8
US1004P08-1
 10
2.3171
 20
-7.1805
 30
0
 70
     0
  0
VERTEX
  8
US1004P08-1
 10
2.3279
 20
-7.1843
 30
0
 70
     0
  0
VERTEX
  8
US1004P08-1
 10
2.3376
 20
-7.188
 30
0
 70
     0
  0
VERTEX
  8
US1004P08-1
 10
2.3698
 20
-7.2107
 30
0
 70
     0
  0
VERTEX
  8
US1004P08-1
 10
2.3561
 20
-7.2335
 30
0
 70
     0
  0
VERTEX
  8
US1004P08-1
 10
2.2971
 20
-7.2562
 30
0
 70
     0
  0
VERTEX
  8
US1004P08-1
 10
2.2012
 20
-7.2789
 30
0
 70
     0
  0
VERTEX
  8
US1004P08-1
 10
2.1056
 20
-7.2971
 30
0
 70
     0
  0
VERTEX
  8
US1004P08-1
 10
2.0018
 20
-7.3152
 30
0
 70
     0
  0
SEQEND
  0
POLYLINE
  8
US1004P08-1
  6
CONTINUOUS
 62
     7
 66
     1
 40
0.0139
 41
0.0139
  0
VERTEX
  8
US1004P08-1
 10
2.6039
 20
-7.3743
 30
0
 70
     0
  0
VERTEX
  8
US1004P08-1
 10
2.6151
 20
-7.3306
 30
0
 70
     0
  0
VERTEX
  8
US1004P08-1
 10
2.6131
 20
-7.2865
 30
0
 70
     0
  0
VERTEX
  8
US1004P08-1
 10
2.5984
 20
-7.2448
 30
0
 70
     0
  0
VERTEX
  8
US1004P08-1
 10
2.5718
 20
-7.2084
 30
0
 70
     0
  0
SEQEND
  0
POLYLINE
  8
US1004P08-1
  6
CONTINUOUS
 62
     7
 66
     1
 40
0.0139
 41
0.0139
  0
VERTEX
  8
US1004P08-1
 10
1.6888
 20
-5.6653
 30
0
 70
     0
  0
VERTEX
  8
US1004P08-1
 10
1.5952
 20
-5.6653
 30
0
 70
     0
  0
SEQEND
  0
POLYLINE
  8
US1004P08-1
  6
CONTINUOUS
 62
     7
 66
     1
 40
0.0139
 41
0.0139
  0
VERTEX
  8
US1004P08-1
 10
2.407
 20
-5.6653
 30
0
 70
     0
  0
VERTEX
  8
US1004P08-1
 10
2.6073
 20
-5.6653
 30
0
 70
     0
  0
SEQEND
  0
POLYLINE
  8
US1004P08-1
  6
CONTINUOUS
 62
     7
 66
     1
 40
0.0139
 41
0.0139
  0
VERTEX
  8
US1004P08-1
 10
1.6865
 20
-7.2783
 30
0
 70
     0
  0
VERTEX
  8
US1004P08-1
 10
1.5935
 20
-7.265
 30
0
 70
     0
  0
VERTEX
  8
US1004P08-1
 10
1.5182
 20
-7.2517
 30
0
 70
     0
  0
VERTEX
  8
US1004P08-1
 10
1.4405
 20
-7.2289
 30
0
 70
     0
  0
VERTEX
  8
US1004P08-1
 10
1.4329
 20
-7.2062
 30
0
 70
     0
  0
VERTEX
  8
US1004P08-1
 10
1.4976
 20
-7.1835
 30
0
 70
     0
  0
VERTEX
  8
US1004P08-1
 10
1.6252
 20
-7.1607
 30
0
 70
     0
  0
VERTEX
  8
US1004P08-1
 10
1.8007
 20
-7.138
 30
0
 70
     0
  0
VERTEX
  8
US1004P08-1
 10
2.0013
 20
-7.1153
 30
0
 70
     0
  0
VERTEX
  8
US1004P08-1
 10
2.2018
 20
-7.0926
 30
0
 70
     0
  0
VERTEX
  8
US1004P08-1
 10
2.3773
 20
-7.0698
 30
0
 70
     0
  0
VERTEX
  8
US1004P08-1
 10
2.5049
 20
-7.0471
 30
0
 70
     0
  0
VERTEX
  8
US1004P08-1
 10
2.5696
 20
-7.0244
 30
0
 70
     0
  0
VERTEX
  8
US1004P08-1
 10
2.5712
 20
-7.0231
 30
0
 70
     0
  0
VERTEX
  8
US1004P08-1
 10
2.5725
 20
-7.0217
 30
0
 70
     0
  0
SEQEND
  0
POLYLINE
  8
US1004P08-1
  6
CONTINUOUS
 62
     7
 66
     1
 40
0.0139
 41
0.0139
  0
VERTEX
  8
US1004P08-1
 10
1.6875
 20
-6.8785
 30
0
 70
     0
  0
VERTEX
  8
US1004P08-1
 10
1.5662
 20
-6.8605
 30
0
 70
     0
  0
VERTEX
  8
US1004P08-1
 10
1.4789
 20
-6.8426
 30
0
 70
     0
  0
VERTEX
  8
US1004P08-1
 10
1.4289
 20
-6.8198
 30
0
 70
     0
  0
VERTEX
  8
US1004P08-1
 10
1.4503
 20
-6.7971
 30
0
 70
     0
  0
VERTEX
  8
US1004P08-1
 10
1.5419
 20
-6.7744
 30
0
 70
     0
  0
VERTEX
  8
US1004P08-1
 10
1.6908
 20
-6.7517
 30
0
 70
     0
  0
VERTEX
  8
US1004P08-1
 10
1.8793
 20
-6.7289
 30
0
 70
     0
  0
VERTEX
  8
US1004P08-1
 10
2.083
 20
-6.7062
 30
0
 70
     0
  0
VERTEX
  8
US1004P08-1
 10
2.2763
 20
-6.6835
 30
0
 70
     0
  0
VERTEX
  8
US1004P08-1
 10
2.4352
 20
-6.6607
 30
0
 70
     0
  0
VERTEX
  8
US1004P08-1
 10
2.528
 20
-6.6413
 30
0
 70
     0
  0
VERTEX
  8
US1004P08-1
 10
2.5724
 20
-6.6218
 30
0
 70
     0
  0
SEQEND
  0
POLYLINE
  8
US1004P08-1
  6
CONTINUOUS
 62
     7
 66
     1
 40
0.0139
 41
0.0139
  0
VERTEX
  8
US1004P08-1
 10
1.687
 20
-6.4784
 30
0
 70
     0
  0
VERTEX
  8
US1004P08-1
 10
1.5405
 20
-6.4559
 30
0
 70
     0
  0
VERTEX
  8
US1004P08-1
 10
1.4503
 20
-6.4335
 30
0
 70
     0
  0
VERTEX
  8
US1004P08-1
 10
1.4289
 20
-6.4107
 30
0
 70
     0
  0
VERTEX
  8
US1004P08-1
 10
1.4789
 20
-6.388
 30
0
 70
     0
  0
VERTEX
  8
US1004P08-1
 10
1.5955
 20
-6.3653
 30
0
 70
     0
  0
VERTEX
  8
US1004P08-1
 10
1.7627
 20
-6.3426
 30
0
 70
     0
  0
VERTEX
  8
US1004P08-1
 10
1.9603
 20
-6.3198
 30
0
 70
     0
  0
VERTEX
  8
US1004P08-1
 10
2.163
 20
-6.2971
 30
0
 70
     0
  0
VERTEX
  8
US1004P08-1
 10
2.3451
 20
-6.2744
 30
0
 70
     0
  0
VERTEX
  8
US1004P08-1
 10
2.4843
 20
-6.2517
 30
0
 70
     0
  0
VERTEX
  8
US1004P08-1
 10
2.5428
 20
-6.2368
 30
0
 70
     0
  0
VERTEX
  8
US1004P08-1
 10
2.5721
 20
-6.2219
 30
0
 70
     0
  0
SEQEND
  0
POLYLINE
  8
US1004P08-1
  6
CONTINUOUS
 62
     7
 66
     1
 40
0.0139
 41
0.0139
  0
VERTEX
  8
US1004P08-1
 10
1.6866
 20
-6.0784
 30
0
 70
     0
  0
VERTEX
  8
US1004P08-1
 10
1.6551
 20
-6.0741
 30
0
 70
     0
  0
VERTEX
  8
US1004P08-1
 10
1.6252
 20
-6.0698
 30
0
 70
     0
  0
VERTEX
  8
US1004P08-1
 10
1.4976
 20
-6.0471
 30
0
 70
     0
  0
VERTEX
  8
US1004P08-1
 10
1.4329
 20
-6.0244
 30
0
 70
     0
  0
VERTEX
  8
US1004P08-1
 10
1.4405
 20
-6.0017
 30
0
 70
     0
  0
VERTEX
  8
US1004P08-1
 10
1.5182
 20
-5.9789
 30
0
 70
     0
  0
VERTEX
  8
US1004P08-1
 10
1.6574
 20
-5.9562
 30
0
 70
     0
  0
VERTEX
  8
US1004P08-1
 10
1.8395
 20
-5.9335
 30
0
 70
     0
  0
VERTEX
  8
US1004P08-1
 10
2.0422
 20
-5.9107
 30
0
 70
     0
  0
VERTEX
  8
US1004P08-1
 10
2.2398
 20
-5.888
 30
0
 70
     0
  0
VERTEX
  8
US1004P08-1
 10
2.407
 20
-5.8653
 30
0
 70
     0
  0
VERTEX
  8
US1004P08-1
 10
2.5236
 20
-5.8426
 30
0
 70
     0
  0
VERTEX
  8
US1004P08-1
 10
2.5553
 20
-5.8322
 30
0
 70
     0
  0
VERTEX
  8
US1004P08-1
 10
2.5721
 20
-5.8218
 30
0
 70
     0
  0
SEQEND
  0
POLYLINE
  8
US1004P08-1
  6
CONTINUOUS
 62
     7
 66
     1
 40
0.0139
 41
0.0139
  0
VERTEX
  8
US1004P08-1
 10
1.6883
 20
-5.6786
 30
0
 70
     0
  0
VERTEX
  8
US1004P08-1
 10
1.6398
 20
-5.6719
 30
0
 70
     0
  0
VERTEX
  8
US1004P08-1
 10
1.5952
 20
-5.6653
 30
0
 70
     0
  0
SEQEND
  0
POLYLINE
  8
US1004P08-1
  6
CONTINUOUS
 62
     7
 66
     1
 40
0.0139
 41
0.0139
  0
VERTEX
  8
US1004P08-1
 10
1.4304
 20
-7.4153
 30
0
 70
     0
  0
VERTEX
  8
US1004P08-1
 10
2.1475
 20
-7.4153
 30
0
 70
     0
  0
SEQEND
  0
POLYLINE
  8
US1004P08-1
  6
CONTINUOUS
 62
     7
 66
     1
 40
0.0139
 41
0.0139
  0
VERTEX
  8
US1004P08-1
 10
5.2263
 20
-7.4459
 30
0
 70
     0
  0
VERTEX
  8
US1004P08-1
 10
5.2263
 20
-4.0084
 30
0
 70
     0
  0
SEQEND
  0
POLYLINE
  8
US1004P08-1
  6
CONTINUOUS
 62
     7
 66
     1
 40
0.0139
 41
0.0139
  0
VERTEX
  8
US1004P08-1
 10
-5.2237
 20
-4.0084
 30
0
 70
     0
  0
VERTEX
  8
US1004P08-1
 10
-5.2237
 20
-7.4459
 30
0
 70
     0
  0
SEQEND
  0
POLYLINE
  8
US1004P08-1
  6
CONTINUOUS
 62
     7
 66
     1
 40
0.0139
 41
0.0139
  0
VERTEX
  8
US1004P08-1
 10
4.2263
 20
-3.0084
 30
0
 70
     0
  0
VERTEX
  8
US1004P08-1
 10
-4.2237
 20
-3.0084
 30
0
 70
     0
  0
SEQEND
  0
POLYLINE
  8
US1004P08-1
  6
CONTINUOUS
 62
     7
 66
     1
 40
0.0139
 41
0.0139
  0
VERTEX
  8
US1004P08-1
 10
-4.2237
 20
-3.0084
 30
0
 70
     0
  0
VERTEX
  8
US1004P08-1
 10
-4.326
 20
-3.0135
 30
0
 70
     0
  0
VERTEX
  8
US1004P08-1
 10
-4.4253
 20
-3.0286
 30
0
 70
     0
  0
VERTEX
  8
US1004P08-1
 10
-4.5211
 20
-3.0532
 30
0
 70
     0
  0
VERTEX
  8
US1004P08-1
 10
-4.613
 20
-3.0868
 30
0
 70
     0
  0
VERTEX
  8
US1004P08-1
 10
-4.7005
 20
-3.1289
 30
0
 70
     0
  0
VERTEX
  8
US1004P08-1
 10
-4.783
 20
-3.179
 30
0
 70
     0
  0
VERTEX
  8
US1004P08-1
 10
-4.86
 20
-3.2366
 30
0
 70
     0
  0
VERTEX
  8
US1004P08-1
 10
-4.931
 20
-3.3011
 30
0
 70
     0
  0
VERTEX
  8
US1004P08-1
 10
-4.9956
 20
-3.3722
 30
0
 70
     0
  0
VERTEX
  8
US1004P08-1
 10
-5.0532
 20
-3.4492
 30
0
 70
     0
  0
VERTEX
  8
US1004P08-1
 10
-5.1032
 20
-3.5316
 30
0
 70
     0
  0
VERTEX
  8
US1004P08-1
 10
-5.1453
 20
-3.6191
 30
0
 70
     0
  0
VERTEX
  8
US1004P08-1
 10
-5.1789
 20
-3.711
 30
0
 70
     0
  0
VERTEX
  8
US1004P08-1
 10
-5.2036
 20
-3.8068
 30
0
 70
     0
  0
VERTEX
  8
US1004P08-1
 10
-5.2187
 20
-3.9061
 30
0
 70
     0
  0
VERTEX
  8
US1004P08-1
 10
-5.2237
 20
-4.0084
 30
0
 70
     0
  0
SEQEND
  0
POLYLINE
  8
US1004P08-1
  6
CONTINUOUS
 62
     7
 66
     1
 40
0.0139
 41
0.0139
  0
VERTEX
  8
US1004P08-1
 10
5.2263
 20
-4.0084
 30
0
 70
     0
  0
VERTEX
  8
US1004P08-1
 10
5.2212
 20
-3.9061
 30
0
 70
     0
  0
VERTEX
  8
US1004P08-1
 10
5.2061
 20
-3.8068
 30
0
 70
     0
  0
VERTEX
  8
US1004P08-1
 10
5.1815
 20
-3.711
 30
0
 70
     0
  0
VERTEX
  8
US1004P08-1
 10
5.1479
 20
-3.6191
 30
0
 70
     0
  0
VERTEX
  8
US1004P08-1
 10
5.1058
 20
-3.5316
 30
0
 70
     0
  0
VERTEX
  8
US1004P08-1
 10
5.0557
 20
-3.4492
 30
0
 70
     0
  0
VERTEX
  8
US1004P08-1
 10
4.9981
 20
-3.3722
 30
0
 70
     0
  0
VERTEX
  8
US1004P08-1
 10
4.9335
 20
-3.3011
 30
0
 70
     0
  0
VERTEX
  8
US1004P08-1
 10
4.8625
 20
-3.2366
 30
0
 70
     0
  0
VERTEX
  8
US1004P08-1
 10
4.7855
 20
-3.179
 30
0
 70
     0
  0
VERTEX
  8
US1004P08-1
 10
4.703
 20
-3.1289
 30
0
 70
     0
  0
VERTEX
  8
US1004P08-1
 10
4.6156
 20
-3.0868
 30
0
 70
     0
  0
VERTEX
  8
US1004P08-1
 10
4.5237
 20
-3.0532
 30
0
 70
     0
  0
VERTEX
  8
US1004P08-1
 10
4.4278
 20
-3.0286
 30
0
 70
     0
  0
VERTEX
  8
US1004P08-1
 10
4.3285
 20
-3.0135
 30
0
 70
     0
  0
VERTEX
  8
US1004P08-1
 10
4.2263
 20
-3.0084
 30
0
 70
     0
  0
SEQEND
  0
POLYLINE
  8
US1004P08-1
  6
CONTINUOUS
 62
     7
 66
     1
 40
0.0139
 41
0.0139
  0
VERTEX
  8
US1004P08-1
 10
-0.3112
 20
-5.0084
 30
0
 70
     0
  0
VERTEX
  8
US1004P08-1
 10
-0.3048
 20
-4.9457
 30
0
 70
     0
  0
VERTEX
  8
US1004P08-1
 10
-0.2865
 20
-4.8872
 30
0
 70
     0
  0
VERTEX
  8
US1004P08-1
 10
-0.2576
 20
-4.8342
 30
0
 70
     0
  0
VERTEX
  8
US1004P08-1
 10
-0.2193
 20
-4.7879
 30
0
 70
     0
  0
VERTEX
  8
US1004P08-1
 10
-0.173
 20
-4.7496
 30
0
 70
     0
  0
VERTEX
  8
US1004P08-1
 10
-0.1199
 20
-4.7206
 30
0
 70
     0
  0
VERTEX
  8
US1004P08-1
 10
-0.0614
 20
-4.7023
 30
0
 70
     0
  0
VERTEX
  8
US1004P08-1
 10
0.0013
 20
-4.6959
 30
0
 70
     0
  0
VERTEX
  8
US1004P08-1
 10
0.0013
 20
-4.6959
 30
0
 70
     0
  0
VERTEX
  8
US1004P08-1
 10
0.0639
 20
-4.7023
 30
0
 70
     0
  0
VERTEX
  8
US1004P08-1
 10
0.1224
 20
-4.7206
 30
0
 70
     0
  0
VERTEX
  8
US1004P08-1
 10
0.1755
 20
-4.7496
 30
0
 70
     0
  0
VERTEX
  8
US1004P08-1
 10
0.2218
 20
-4.7879
 30
0
 70
     0
  0
VERTEX
  8
US1004P08-1
 10
0.2601
 20
-4.8342
 30
0
 70
     0
  0
VERTEX
  8
US1004P08-1
 10
0.289
 20
-4.8872
 30
0
 70
     0
  0
VERTEX
  8
US1004P08-1
 10
0.3074
 20
-4.9457
 30
0
 70
     0
  0
VERTEX
  8
US1004P08-1
 10
0.3138
 20
-5.0084
 30
0
 70
     0
  0
VERTEX
  8
US1004P08-1
 10
0.3138
 20
-5.0084
 30
0
 70
     0
  0
VERTEX
  8
US1004P08-1
 10
0.3074
 20
-5.071
 30
0
 70
     0
  0
VERTEX
  8
US1004P08-1
 10
0.289
 20
-5.1295
 30
0
 70
     0
  0
VERTEX
  8
US1004P08-1
 10
0.2601
 20
-5.1826
 30
0
 70
     0
  0
VERTEX
  8
US1004P08-1
 10
0.2218
 20
-5.2289
 30
0
 70
     0
  0
VERTEX
  8
US1004P08-1
 10
0.1755
 20
-5.2672
 30
0
 70
     0
  0
VERTEX
  8
US1004P08-1
 10
0.1224
 20
-5.2962
 30
0
 70
     0
  0
VERTEX
  8
US1004P08-1
 10
0.0639
 20
-5.3145
 30
0
 70
     0
  0
VERTEX
  8
US1004P08-1
 10
0.0013
 20
-5.3209
 30
0
 70
     0
  0
VERTEX
  8
US1004P08-1
 10
0.0013
 20
-5.3209
 30
0
 70
     0
  0
VERTEX
  8
US1004P08-1
 10
-0.0614
 20
-5.3145
 30
0
 70
     0
  0
VERTEX
  8
US1004P08-1
 10
-0.1199
 20
-5.2962
 30
0
 70
     0
  0
VERTEX
  8
US1004P08-1
 10
-0.173
 20
-5.2672
 30
0
 70
     0
  0
VERTEX
  8
US1004P08-1
 10
-0.2193
 20
-5.2289
 30
0
 70
     0
  0
VERTEX
  8
US1004P08-1
 10
-0.2576
 20
-5.1826
 30
0
 70
     0
  0
VERTEX
  8
US1004P08-1
 10
-0.2865
 20
-5.1295
 30
0
 70
     0
  0
VERTEX
  8
US1004P08-1
 10
-0.3048
 20
-5.071
 30
0
 70
     0
  0
VERTEX
  8
US1004P08-1
 10
-0.3112
 20
-5.0084
 30
0
 70
     0
  0
SEQEND
  0
POLYLINE
  8
US1004P08-1
  6
CONTINUOUS
 62
     7
 66
     1
 40
0.0139
 41
0.0139
  0
VERTEX
  8
US1004P08-1
 10
1.5256
 20
-4.8195
 30
0
 70
     0
  0
VERTEX
  8
US1004P08-1
 10
1.5273
 20
-4.8113
 30
0
 70
     0
  0
VERTEX
  8
US1004P08-1
 10
1.529
 20
-4.8052
 30
0
 70
     0
  0
VERTEX
  8
US1004P08-1
 10
1.5307
 20
-4.8013
 30
0
 70
     0
  0
VERTEX
  8
US1004P08-1
 10
1.5324
 20
-4.8
 30
0
 70
     0
  0
SEQEND
  0
POLYLINE
  8
US1004P08-1
  6
CONTINUOUS
 62
     7
 66
     1
 40
0.0139
 41
0.0139
  0
VERTEX
  8
US1004P08-1
 10
1.5256
 20
-5.3275
 30
0
 70
     0
  0
VERTEX
  8
US1004P08-1
 10
1.5256
 20
-4.8195
 30
0
 70
     0
  0
SEQEND
  0
POLYLINE
  8
US1004P08-1
  6
CONTINUOUS
 62
     7
 66
     1
 40
0.0139
 41
0.0139
  0
VERTEX
  8
US1004P08-1
 10
1.5324
 20
-4.8
 30
0
 70
     0
  0
VERTEX
  8
US1004P08-1
 10
1.5341
 20
-4.8013
 30
0
 70
     0
  0
VERTEX
  8
US1004P08-1
 10
1.5358
 20
-4.8052
 30
0
 70
     0
  0
VERTEX
  8
US1004P08-1
 10
1.5374
 20
-4.8113
 30
0
 70
     0
  0
VERTEX
  8
US1004P08-1
 10
1.5391
 20
-4.8195
 30
0
 70
     0
  0
SEQEND
  0
POLYLINE
  8
US1004P08-1
  6
CONTINUOUS
 62
     7
 66
     1
 40
0.0139
 41
0.0139
  0
VERTEX
  8
US1004P08-1
 10
1.7768
 20
-4.8
 30
0
 70
     0
  0
VERTEX
  8
US1004P08-1
 10
1.6576
 20
-4.8051
 30
0
 70
     0
  0
VERTEX
  8
US1004P08-1
 10
1.5391
 20
-4.8195
 30
0
 70
     0
  0
SEQEND
  0
POLYLINE
  8
US1004P08-1
  6
CONTINUOUS
 62
     7
 66
     1
 40
0.0139
 41
0.0139
  0
VERTEX
  8
US1004P08-1
 10
1.5391
 20
-5.3275
 30
0
 70
     0
  0
VERTEX
  8
US1004P08-1
 10
1.5391
 20
-4.8195
 30
0
 70
     0
  0
SEQEND
  0
POLYLINE
  8
US1004P08-1
  6
CONTINUOUS
 62
     7
 66
     1
 40
0.0139
 41
0.0139
  0
VERTEX
  8
US1004P08-1
 10
2.0145
 20
-5.3275
 30
0
 70
     0
  0
VERTEX
  8
US1004P08-1
 10
2.0145
 20
-4.8195
 30
0
 70
     0
  0
SEQEND
  0
POLYLINE
  8
US1004P08-1
  6
CONTINUOUS
 62
     7
 66
     1
 40
0.0139
 41
0.0139
  0
VERTEX
  8
US1004P08-1
 10
1.7768
 20
-4.8
 30
0
 70
     0
  0
VERTEX
  8
US1004P08-1
 10
1.5324
 20
-4.8
 30
0
 70
     0
  0
SEQEND
  0
POLYLINE
  8
US1004P08-1
  6
CONTINUOUS
 62
     7
 66
     1
 40
0.0139
 41
0.0139
  0
VERTEX
  8
US1004P08-1
 10
2.4763
 20
-5.3275
 30
0
 70
     0
  0
VERTEX
  8
US1004P08-1
 10
2.4747
 20
-5.3356
 30
0
 70
     0
  0
VERTEX
  8
US1004P08-1
 10
2.473
 20
-5.3418
 30
0
 70
     0
  0
VERTEX
  8
US1004P08-1
 10
2.4713
 20
-5.3456
 30
0
 70
     0
  0
VERTEX
  8
US1004P08-1
 10
2.4696
 20
-5.3469
 30
0
 70
     0
  0
SEQEND
  0
POLYLINE
  8
US1004P08-1
  6
CONTINUOUS
 62
     7
 66
     1
 40
0.0139
 41
0.0139
  0
VERTEX
  8
US1004P08-1
 10
2.2449
 20
-5.3469
 30
0
 70
     0
  0
VERTEX
  8
US1004P08-1
 10
2.3607
 20
-5.3418
 30
0
 70
     0
  0
VERTEX
  8
US1004P08-1
 10
2.4758
 20
-5.3276
 30
0
 70
     0
  0
SEQEND
  0
POLYLINE
  8
US1004P08-1
  6
CONTINUOUS
 62
     7
 66
     1
 40
0.0139
 41
0.0139
  0
VERTEX
  8
US1004P08-1
 10
2.4763
 20
-5.3275
 30
0
 70
     0
  0
VERTEX
  8
US1004P08-1
 10
2.4763
 20
-4.8195
 30
0
 70
     0
  0
SEQEND
  0
POLYLINE
  8
US1004P08-1
  6
CONTINUOUS
 62
     7
 66
     1
 40
0.0139
 41
0.0139
  0
VERTEX
  8
US1004P08-1
 10
1.5324
 20
-5.3469
 30
0
 70
     0
  0
VERTEX
  8
US1004P08-1
 10
1.5341
 20
-5.3456
 30
0
 70
     0
  0
VERTEX
  8
US1004P08-1
 10
1.5358
 20
-5.3418
 30
0
 70
     0
  0
VERTEX
  8
US1004P08-1
 10
1.5374
 20
-5.3356
 30
0
 70
     0
  0
VERTEX
  8
US1004P08-1
 10
1.5391
 20
-5.3275
 30
0
 70
     0
  0
SEQEND
  0
POLYLINE
  8
US1004P08-1
  6
CONTINUOUS
 62
     7
 66
     1
 40
0.0139
 41
0.0139
  0
VERTEX
  8
US1004P08-1
 10
1.5386
 20
-5.3274
 30
0
 70
     0
  0
VERTEX
  8
US1004P08-1
 10
1.657
 20
-5.3417
 30
0
 70
     0
  0
VERTEX
  8
US1004P08-1
 10
1.7762
 20
-5.3469
 30
0
 70
     0
  0
SEQEND
  0
POLYLINE
  8
US1004P08-1
  6
CONTINUOUS
 62
     7
 66
     1
 40
0.0139
 41
0.0139
  0
VERTEX
  8
US1004P08-1
 10
1.7762
 20
-5.3469
 30
0
 70
     0
  0
VERTEX
  8
US1004P08-1
 10
1.8954
 20
-5.3418
 30
0
 70
     0
  0
VERTEX
  8
US1004P08-1
 10
2.0139
 20
-5.3276
 30
0
 70
     0
  0
SEQEND
  0
POLYLINE
  8
US1004P08-1
  6
CONTINUOUS
 62
     7
 66
     1
 40
0.0139
 41
0.0139
  0
VERTEX
  8
US1004P08-1
 10
1.5256
 20
-5.3275
 30
0
 70
     0
  0
VERTEX
  8
US1004P08-1
 10
1.5273
 20
-5.3356
 30
0
 70
     0
  0
VERTEX
  8
US1004P08-1
 10
1.529
 20
-5.3418
 30
0
 70
     0
  0
VERTEX
  8
US1004P08-1
 10
1.5307
 20
-5.3456
 30
0
 70
     0
  0
VERTEX
  8
US1004P08-1
 10
1.5324
 20
-5.3469
 30
0
 70
     0
  0
SEQEND
  0
POLYLINE
  8
US1004P08-1
  6
CONTINUOUS
 62
     7
 66
     1
 40
0.0139
 41
0.0139
  0
VERTEX
  8
US1004P08-1
 10
2.4763
 20
-4.8195
 30
0
 70
     0
  0
VERTEX
  8
US1004P08-1
 10
2.3613
 20
-4.8051
 30
0
 70
     0
  0
VERTEX
  8
US1004P08-1
 10
2.2454
 20
-4.8
 30
0
 70
     0
  0
SEQEND
  0
POLYLINE
  8
US1004P08-1
  6
CONTINUOUS
 62
     7
 66
     1
 40
0.0139
 41
0.0139
  0
VERTEX
  8
US1004P08-1
 10
2.4763
 20
-4.8195
 30
0
 70
     0
  0
VERTEX
  8
US1004P08-1
 10
2.4747
 20
-4.8113
 30
0
 70
     0
  0
VERTEX
  8
US1004P08-1
 10
2.473
 20
-4.8052
 30
0
 70
     0
  0
VERTEX
  8
US1004P08-1
 10
2.4713
 20
-4.8013
 30
0
 70
     0
  0
VERTEX
  8
US1004P08-1
 10
2.4696
 20
-4.8
 30
0
 70
     0
  0
SEQEND
  0
POLYLINE
  8
US1004P08-1
  6
CONTINUOUS
 62
     7
 66
     1
 40
0.0139
 41
0.0139
  0
VERTEX
  8
US1004P08-1
 10
2.0145
 20
-4.8195
 30
0
 70
     0
  0
VERTEX
  8
US1004P08-1
 10
1.896
 20
-4.8051
 30
0
 70
     0
  0
VERTEX
  8
US1004P08-1
 10
1.7768
 20
-4.8
 30
0
 70
     0
  0
SEQEND
  0
POLYLINE
  8
US1004P08-1
  6
CONTINUOUS
 62
     7
 66
     1
 40
0.0139
 41
0.0139
  0
VERTEX
  8
US1004P08-1
 10
2.2454
 20
-4.8
 30
0
 70
     0
  0
VERTEX
  8
US1004P08-1
 10
2.1296
 20
-4.8051
 30
0
 70
     0
  0
VERTEX
  8
US1004P08-1
 10
2.0145
 20
-4.8195
 30
0
 70
     0
  0
SEQEND
  0
POLYLINE
  8
US1004P08-1
  6
CONTINUOUS
 62
     7
 66
     1
 40
0.0139
 41
0.0139
  0
VERTEX
  8
US1004P08-1
 10
2.4697
 20
-4.8
 30
0
 70
     0
  0
VERTEX
  8
US1004P08-1
 10
2.2454
 20
-4.8
 30
0
 70
     0
  0
SEQEND
  0
POLYLINE
  8
US1004P08-1
  6
CONTINUOUS
 62
     7
 66
     1
 40
0.0139
 41
0.0139
  0
VERTEX
  8
US1004P08-1
 10
2.2454
 20
-4.8
 30
0
 70
     0
  0
VERTEX
  8
US1004P08-1
 10
1.7768
 20
-4.8
 30
0
 70
     0
  0
SEQEND
  0
POLYLINE
  8
US1004P08-1
  6
CONTINUOUS
 62
     7
 66
     1
 40
0.0139
 41
0.0139
  0
VERTEX
  8
US1004P08-1
 10
2.0139
 20
-5.3274
 30
0
 70
     0
  0
VERTEX
  8
US1004P08-1
 10
2.129
 20
-5.3417
 30
0
 70
     0
  0
VERTEX
  8
US1004P08-1
 10
2.2449
 20
-5.3469
 30
0
 70
     0
  0
SEQEND
  0
POLYLINE
  8
US1004P08-1
  6
CONTINUOUS
 62
     7
 66
     1
 40
0.0139
 41
0.0139
  0
VERTEX
  8
US1004P08-1
 10
-1.5337
 20
-4.8
 30
0
 70
     0
  0
VERTEX
  8
US1004P08-1
 10
-1.8189
 20
-4.8
 30
0
 70
     0
  0
SEQEND
  0
POLYLINE
  8
US1004P08-1
  6
CONTINUOUS
 62
     7
 66
     1
 40
0.0139
 41
0.0139
  0
VERTEX
  8
US1004P08-1
 10
-1.8189
 20
-4.8
 30
0
 70
     0
  0
VERTEX
  8
US1004P08-1
 10
-2.2837
 20
-4.8
 30
0
 70
     0
  0
SEQEND
  0
POLYLINE
  8
US1004P08-1
  6
CONTINUOUS
 62
     7
 66
     1
 40
0.0139
 41
0.0139
  0
VERTEX
  8
US1004P08-1
 10
-1.5337
 20
-4.8
 30
0
 70
     0
  0
VERTEX
  8
US1004P08-1
 10
-1.5249
 20
-4.8013
 30
0
 70
     0
  0
VERTEX
  8
US1004P08-1
 10
-1.5161
 20
-4.8052
 30
0
 70
     0
  0
VERTEX
  8
US1004P08-1
 10
-1.5073
 20
-4.8113
 30
0
 70
     0
  0
VERTEX
  8
US1004P08-1
 10
-1.4985
 20
-4.8195
 30
0
 70
     0
  0
SEQEND
  0
POLYLINE
  8
US1004P08-1
  6
CONTINUOUS
 62
     7
 66
     1
 40
0.0139
 41
0.0139
  0
VERTEX
  8
US1004P08-1
 10
-1.4985
 20
-5.3275
 30
0
 70
     0
  0
VERTEX
  8
US1004P08-1
 10
-1.4985
 20
-4.8195
 30
0
 70
     0
  0
SEQEND
  0
POLYLINE
  8
US1004P08-1
  6
CONTINUOUS
 62
     7
 66
     1
 40
0.0139
 41
0.0139
  0
VERTEX
  8
US1004P08-1
 10
-1.5689
 20
-4.8195
 30
0
 70
     0
  0
VERTEX
  8
US1004P08-1
 10
-1.5601
 20
-4.8113
 30
0
 70
     0
  0
VERTEX
  8
US1004P08-1
 10
-1.5513
 20
-4.8052
 30
0
 70
     0
  0
VERTEX
  8
US1004P08-1
 10
-1.5425
 20
-4.8013
 30
0
 70
     0
  0
VERTEX
  8
US1004P08-1
 10
-1.5337
 20
-4.8
 30
0
 70
     0
  0
SEQEND
  0
POLYLINE
  8
US1004P08-1
  6
CONTINUOUS
 62
     7
 66
     1
 40
0.0139
 41
0.0139
  0
VERTEX
  8
US1004P08-1
 10
-2.2841
 20
-5.3469
 30
0
 70
     0
  0
VERTEX
  8
US1004P08-1
 10
-2.1763
 20
-5.3418
 30
0
 70
     0
  0
VERTEX
  8
US1004P08-1
 10
-2.0694
 20
-5.3275
 30
0
 70
     0
  0
SEQEND
  0
POLYLINE
  8
US1004P08-1
  6
CONTINUOUS
 62
     7
 66
     1
 40
0.0139
 41
0.0139
  0
VERTEX
  8
US1004P08-1
 10
-1.5337
 20
-5.3469
 30
0
 70
     0
  0
VERTEX
  8
US1004P08-1
 10
-1.5249
 20
-5.3456
 30
0
 70
     0
  0
VERTEX
  8
US1004P08-1
 10
-1.5161
 20
-5.3418
 30
0
 70
     0
  0
VERTEX
  8
US1004P08-1
 10
-1.5073
 20
-5.3356
 30
0
 70
     0
  0
VERTEX
  8
US1004P08-1
 10
-1.4985
 20
-5.3275
 30
0
 70
     0
  0
SEQEND
  0
POLYLINE
  8
US1004P08-1
  6
CONTINUOUS
 62
     7
 66
     1
 40
0.0139
 41
0.0139
  0
VERTEX
  8
US1004P08-1
 10
-1.5689
 20
-5.3275
 30
0
 70
     0
  0
VERTEX
  8
US1004P08-1
 10
-1.5689
 20
-4.8195
 30
0
 70
     0
  0
SEQEND
  0
POLYLINE
  8
US1004P08-1
  6
CONTINUOUS
 62
     7
 66
     1
 40
0.0139
 41
0.0139
  0
VERTEX
  8
US1004P08-1
 10
-2.0689
 20
-5.3275
 30
0
 70
     0
  0
VERTEX
  8
US1004P08-1
 10
-2.0689
 20
-4.8195
 30
0
 70
     0
  0
SEQEND
  0
POLYLINE
  8
US1004P08-1
  6
CONTINUOUS
 62
     7
 66
     1
 40
0.0139
 41
0.0139
  0
VERTEX
  8
US1004P08-1
 10
-2.4632
 20
-5.3469
 30
0
 70
     0
  0
VERTEX
  8
US1004P08-1
 10
-2.472
 20
-5.3456
 30
0
 70
     0
  0
VERTEX
  8
US1004P08-1
 10
-2.4808
 20
-5.3418
 30
0
 70
     0
  0
VERTEX
  8
US1004P08-1
 10
-2.4896
 20
-5.3356
 30
0
 70
     0
  0
VERTEX
  8
US1004P08-1
 10
-2.4984
 20
-5.3275
 30
0
 70
     0
  0
SEQEND
  0
POLYLINE
  8
US1004P08-1
  6
CONTINUOUS
 62
     7
 66
     1
 40
0.0139
 41
0.0139
  0
VERTEX
  8
US1004P08-1
 10
-2.0695
 20
-5.3274
 30
0
 70
     0
  0
VERTEX
  8
US1004P08-1
 10
-1.9449
 20
-5.3417
 30
0
 70
     0
  0
VERTEX
  8
US1004P08-1
 10
-1.8195
 20
-5.3469
 30
0
 70
     0
  0
SEQEND
  0
POLYLINE
  8
US1004P08-1
  6
CONTINUOUS
 62
     7
 66
     1
 40
0.0139
 41
0.0139
  0
VERTEX
  8
US1004P08-1
 10
-2.4989
 20
-5.3274
 30
0
 70
     0
  0
VERTEX
  8
US1004P08-1
 10
-2.3919
 20
-5.3417
 30
0
 70
     0
  0
VERTEX
  8
US1004P08-1
 10
-2.2841
 20
-5.3469
 30
0
 70
     0
  0
SEQEND
  0
POLYLINE
  8
US1004P08-1
  6
CONTINUOUS
 62
     7
 66
     1
 40
0.0139
 41
0.0139
  0
VERTEX
  8
US1004P08-1
 10
-1.8195
 20
-5.3469
 30
0
 70
     0
  0
VERTEX
  8
US1004P08-1
 10
-1.6942
 20
-5.3418
 30
0
 70
     0
  0
VERTEX
  8
US1004P08-1
 10
-1.5695
 20
-5.3276
 30
0
 70
     0
  0
SEQEND
  0
POLYLINE
  8
US1004P08-1
  6
CONTINUOUS
 62
     7
 66
     1
 40
0.0139
 41
0.0139
  0
VERTEX
  8
US1004P08-1
 10
-2.4984
 20
-5.3275
 30
0
 70
     0
  0
VERTEX
  8
US1004P08-1
 10
-2.4984
 20
-4.8195
 30
0
 70
     0
  0
SEQEND
  0
POLYLINE
  8
US1004P08-1
  6
CONTINUOUS
 62
     7
 66
     1
 40
0.0139
 41
0.0139
  0
VERTEX
  8
US1004P08-1
 10
-1.5689
 20
-5.3275
 30
0
 70
     0
  0
VERTEX
  8
US1004P08-1
 10
-1.5601
 20
-5.3356
 30
0
 70
     0
  0
VERTEX
  8
US1004P08-1
 10
-1.5513
 20
-5.3418
 30
0
 70
     0
  0
VERTEX
  8
US1004P08-1
 10
-1.5425
 20
-5.3456
 30
0
 70
     0
  0
VERTEX
  8
US1004P08-1
 10
-1.5337
 20
-5.3469
 30
0
 70
     0
  0
SEQEND
  0
POLYLINE
  8
US1004P08-1
  6
CONTINUOUS
 62
     7
 66
     1
 40
0.0139
 41
0.0139
  0
VERTEX
  8
US1004P08-1
 10
-2.4632
 20
-4.8
 30
0
 70
     0
  0
VERTEX
  8
US1004P08-1
 10
-2.472
 20
-4.8013
 30
0
 70
     0
  0
VERTEX
  8
US1004P08-1
 10
-2.4808
 20
-4.8052
 30
0
 70
     0
  0
VERTEX
  8
US1004P08-1
 10
-2.4896
 20
-4.8113
 30
0
 70
     0
  0
VERTEX
  8
US1004P08-1
 10
-2.4984
 20
-4.8195
 30
0
 70
     0
  0
SEQEND
  0
POLYLINE
  8
US1004P08-1
  6
CONTINUOUS
 62
     7
 66
     1
 40
0.0139
 41
0.0139
  0
VERTEX
  8
US1004P08-1
 10
-1.5689
 20
-4.8195
 30
0
 70
     0
  0
VERTEX
  8
US1004P08-1
 10
-1.6935
 20
-4.8051
 30
0
 70
     0
  0
VERTEX
  8
US1004P08-1
 10
-1.8189
 20
-4.8
 30
0
 70
     0
  0
SEQEND
  0
POLYLINE
  8
US1004P08-1
  6
CONTINUOUS
 62
     7
 66
     1
 40
0.0139
 41
0.0139
  0
VERTEX
  8
US1004P08-1
 10
-1.8189
 20
-4.8
 30
0
 70
     0
  0
VERTEX
  8
US1004P08-1
 10
-1.9443
 20
-4.8051
 30
0
 70
     0
  0
VERTEX
  8
US1004P08-1
 10
-2.0689
 20
-4.8195
 30
0
 70
     0
  0
SEQEND
  0
POLYLINE
  8
US1004P08-1
  6
CONTINUOUS
 62
     7
 66
     1
 40
0.0139
 41
0.0139
  0
VERTEX
  8
US1004P08-1
 10
-2.0689
 20
-4.8195
 30
0
 70
     0
  0
VERTEX
  8
US1004P08-1
 10
-2.1759
 20
-4.8051
 30
0
 70
     0
  0
VERTEX
  8
US1004P08-1
 10
-2.2837
 20
-4.8
 30
0
 70
     0
  0
SEQEND
  0
POLYLINE
  8
US1004P08-1
  6
CONTINUOUS
 62
     7
 66
     1
 40
0.0139
 41
0.0139
  0
VERTEX
  8
US1004P08-1
 10
-2.2837
 20
-4.8
 30
0
 70
     0
  0
VERTEX
  8
US1004P08-1
 10
-2.3915
 20
-4.8051
 30
0
 70
     0
  0
VERTEX
  8
US1004P08-1
 10
-2.4984
 20
-4.8195
 30
0
 70
     0
  0
SEQEND
  0
POLYLINE
  8
US1004P08-1
  6
CONTINUOUS
 62
     7
 66
     1
 40
0.0139
 41
0.0139
  0
VERTEX
  8
US1004P08-1
 10
-2.2837
 20
-4.8
 30
0
 70
     0
  0
VERTEX
  8
US1004P08-1
 10
-2.4672
 20
-4.8
 30
0
 70
     0
  0
SEQEND
  0
POLYLINE
  8
US1004P08-1
  6
CONTINUOUS
 62
     7
 66
     1
 40
0.0139
 41
0.0139
  0
VERTEX
  8
US1004P08-1
 10
7.588
 20
-15.0634
 30
0
 70
     0
  0
VERTEX
  8
US1004P08-1
 10
7.4182
 20
-15.0634
 30
0
 70
     0
  0
SEQEND
  0
POLYLINE
  8
US1004P08-1
  6
CONTINUOUS
 62
     7
 66
     1
 40
0.0139
 41
0.0139
  0
VERTEX
  8
US1004P08-1
 10
6.9948
 20
-13.6764
 30
0
 70
     0
  0
VERTEX
  8
US1004P08-1
 10
6.9948
 20
-14.8764
 30
0
 70
     0
  0
SEQEND
  0
POLYLINE
  8
US1004P08-1
  6
CONTINUOUS
 62
     7
 66
     1
 40
0.0139
 41
0.0139
  0
VERTEX
  8
US1004P08-1
 10
6.9411
 20
-12.0743
 30
0
 70
     0
  0
VERTEX
  8
US1004P08-1
 10
6.9612
 20
-12.0102
 30
0
 70
     0
  0
VERTEX
  8
US1004P08-1
 10
7.0099
 20
-11.9529
 30
0
 70
     0
  0
VERTEX
  8
US1004P08-1
 10
7.0797
 20
-11.9156
 30
0
 70
     0
  0
VERTEX
  8
US1004P08-1
 10
7.1548
 20
-11.9038
 30
0
 70
     0
  0
SEQEND
  0
POLYLINE
  8
US1004P08-1
  6
CONTINUOUS
 62
     7
 66
     1
 40
0.0139
 41
0.0139
  0
VERTEX
  8
US1004P08-1
 10
6.9948
 20
-12.0908
 30
0
 70
     0
  0
VERTEX
  8
US1004P08-1
 10
6.9947
 20
-12.0864
 30
0
 70
     0
  0
VERTEX
  8
US1004P08-1
 10
6.9943
 20
-12.0822
 30
0
 70
     0
  0
VERTEX
  8
US1004P08-1
 10
6.9938
 20
-12.0781
 30
0
 70
     0
  0
VERTEX
  8
US1004P08-1
 10
6.993
 20
-12.0743
 30
0
 70
     0
  0
VERTEX
  8
US1004P08-1
 10
6.9921
 20
-12.0707
 30
0
 70
     0
  0
VERTEX
  8
US1004P08-1
 10
6.991
 20
-12.0674
 30
0
 70
     0
  0
VERTEX
  8
US1004P08-1
 10
6.9898
 20
-12.0645
 30
0
 70
     0
  0
VERTEX
  8
US1004P08-1
 10
6.9885
 20
-12.0618
 30
0
 70
     0
  0
VERTEX
  8
US1004P08-1
 10
6.9822
 20
-12.0539
 30
0
 70
     0
  0
VERTEX
  8
US1004P08-1
 10
6.9745
 20
-12.0502
 30
0
 70
     0
  0
VERTEX
  8
US1004P08-1
 10
6.9704
 20
-12.0497
 30
0
 70
     0
  0
VERTEX
  8
US1004P08-1
 10
6.966
 20
-12.0502
 30
0
 70
     0
  0
VERTEX
  8
US1004P08-1
 10
6.9616
 20
-12.0516
 30
0
 70
     0
  0
VERTEX
  8
US1004P08-1
 10
6.9571
 20
-12.0539
 30
0
 70
     0
  0
VERTEX
  8
US1004P08-1
 10
6.9526
 20
-12.0573
 30
0
 70
     0
  0
VERTEX
  8
US1004P08-1
 10
6.9483
 20
-12.0618
 30
0
 70
     0
  0
VERTEX
  8
US1004P08-1
 10
6.9443
 20
-12.0674
 30
0
 70
     0
  0
VERTEX
  8
US1004P08-1
 10
6.9411
 20
-12.0743
 30
0
 70
     0
  0
SEQEND
  0
POLYLINE
  8
US1004P08-1
  6
CONTINUOUS
 62
     7
 66
     1
 40
0.0139
 41
0.0139
  0
VERTEX
  8
US1004P08-1
 10
7.1636
 20
-12.0908
 30
0
 70
     0
  0
VERTEX
  8
US1004P08-1
 10
7.2087
 20
-12.022
 30
0
 70
     0
  0
VERTEX
  8
US1004P08-1
 10
7.2761
 20
-11.9586
 30
0
 70
     0
  0
VERTEX
  8
US1004P08-1
 10
7.3518
 20
-11.9169
 30
0
 70
     0
  0
VERTEX
  8
US1004P08-1
 10
7.4182
 20
-11.9038
 30
0
 70
     0
  0
SEQEND
  0
POLYLINE
  8
US1004P08-1
  6
CONTINUOUS
 62
     7
 66
     1
 40
0.0139
 41
0.0139
  0
VERTEX
  8
US1004P08-1
 10
7.1548
 20
-15.0634
 30
0
 70
     0
  0
VERTEX
  8
US1004P08-1
 10
7.1361
 20
-15.0626
 30
0
 70
     0
  0
VERTEX
  8
US1004P08-1
 10
7.1179
 20
-15.0602
 30
0
 70
     0
  0
VERTEX
  8
US1004P08-1
 10
7.109
 20
-15.0583
 30
0
 70
     0
  0
VERTEX
  8
US1004P08-1
 10
7.1003
 20
-15.056
 30
0
 70
     0
  0
VERTEX
  8
US1004P08-1
 10
7.0919
 20
-15.0532
 30
0
 70
     0
  0
VERTEX
  8
US1004P08-1
 10
7.0838
 20
-15.05
 30
0
 70
     0
  0
VERTEX
  8
US1004P08-1
 10
7.0685
 20
-15.0421
 30
0
 70
     0
  0
VERTEX
  8
US1004P08-1
 10
7.0547
 20
-15.0326
 30
0
 70
     0
  0
VERTEX
  8
US1004P08-1
 10
7.0424
 20
-15.0216
 30
0
 70
     0
  0
VERTEX
  8
US1004P08-1
 10
7.0317
 20
-15.0092
 30
0
 70
     0
  0
VERTEX
  8
US1004P08-1
 10
7.0226
 20
-14.9957
 30
0
 70
     0
  0
VERTEX
  8
US1004P08-1
 10
7.0149
 20
-14.981
 30
0
 70
     0
  0
VERTEX
  8
US1004P08-1
 10
7.0085
 20
-14.9653
 30
0
 70
     0
  0
VERTEX
  8
US1004P08-1
 10
7.0035
 20
-14.9488
 30
0
 70
     0
  0
VERTEX
  8
US1004P08-1
 10
6.9997
 20
-14.9316
 30
0
 70
     0
  0
VERTEX
  8
US1004P08-1
 10
6.9969
 20
-14.9136
 30
0
 70
     0
  0
VERTEX
  8
US1004P08-1
 10
6.9953
 20
-14.8951
 30
0
 70
     0
  0
VERTEX
  8
US1004P08-1
 10
6.9948
 20
-14.8764
 30
0
 70
     0
  0
SEQEND
  0
POLYLINE
  8
US1004P08-1
  6
CONTINUOUS
 62
     7
 66
     1
 40
0.0139
 41
0.0139
  0
VERTEX
  8
US1004P08-1
 10
7.4182
 20
-15.0634
 30
0
 70
     0
  0
VERTEX
  8
US1004P08-1
 10
7.1548
 20
-15.0634
 30
0
 70
     0
  0
SEQEND
  0
POLYLINE
  8
US1004P08-1
  6
CONTINUOUS
 62
     7
 66
     1
 40
0.0139
 41
0.0139
  0
VERTEX
  8
US1004P08-1
 10
7.1548
 20
-11.9038
 30
0
 70
     0
  0
VERTEX
  8
US1004P08-1
 10
7.4182
 20
-11.9038
 30
0
 70
     0
  0
SEQEND
  0
POLYLINE
  8
US1004P08-1
  6
CONTINUOUS
 62
     7
 66
     1
 40
0.0139
 41
0.0139
  0
VERTEX
  8
US1004P08-1
 10
7.1636
 20
-14.8764
 30
0
 70
     0
  0
VERTEX
  8
US1004P08-1
 10
7.2087
 20
-14.9452
 30
0
 70
     0
  0
VERTEX
  8
US1004P08-1
 10
7.2761
 20
-15.0086
 30
0
 70
     0
  0
VERTEX
  8
US1004P08-1
 10
7.3518
 20
-15.0503
 30
0
 70
     0
  0
VERTEX
  8
US1004P08-1
 10
7.4182
 20
-15.0634
 30
0
 70
     0
  0
SEQEND
  0
POLYLINE
  8
US1004P08-1
  6
CONTINUOUS
 62
     7
 66
     1
 40
0.0139
 41
0.0139
  0
VERTEX
  8
US1004P08-1
 10
7.588
 20
-11.9038
 30
0
 70
     0
  0
VERTEX
  8
US1004P08-1
 10
7.4182
 20
-11.9038
 30
0
 70
     0
  0
SEQEND
  0
POLYLINE
  8
US1004P08-1
  6
CONTINUOUS
 62
     7
 66
     1
 40
0.0139
 41
0.0139
  0
VERTEX
  8
US1004P08-1
 10
6.9948
 20
-12.0908
 30
0
 70
     0
  0
VERTEX
  8
US1004P08-1
 10
6.9948
 20
-13.6764
 30
0
 70
     0
  0
SEQEND
  0
POLYLINE
  8
US1004P08-1
  6
CONTINUOUS
 62
     7
 66
     1
 40
0.0139
 41
0.0139
  0
VERTEX
  8
US1004P08-1
 10
7.6834
 20
-14.9681
 30
0
 70
     0
  0
VERTEX
  8
US1004P08-1
 10
7.6834
 20
-11.9991
 30
0
 70
     0
  0
SEQEND
  0
POLYLINE
  8
US1004P08-1
  6
CONTINUOUS
 62
     7
 66
     1
 40
0.0139
 41
0.0139
  0
VERTEX
  8
US1004P08-1
 10
7.3783
 20
-11.6095
 30
0
 70
     0
  0
VERTEX
  8
US1004P08-1
 10
7.1587
 20
-11.6095
 30
0
 70
     0
  0
SEQEND
  0
POLYLINE
  8
US1004P08-1
  6
CONTINUOUS
 62
     7
 66
     1
 40
0.0139
 41
0.0139
  0
VERTEX
  8
US1004P08-1
 10
7.588
 20
-11.5844
 30
0
 70
     0
  0
VERTEX
  8
US1004P08-1
 10
7.4182
 20
-11.5779
 30
0
 70
     0
  0
SEQEND
  0
POLYLINE
  8
US1004P08-1
  6
CONTINUOUS
 62
     7
 66
     1
 40
0.0139
 41
0.0139
  0
VERTEX
  8
US1004P08-1
 10
7.1548
 20
-11.6095
 30
0
 70
     0
  0
VERTEX
  8
US1004P08-1
 10
7.1361
 20
-11.6102
 30
0
 70
     0
  0
VERTEX
  8
US1004P08-1
 10
7.1179
 20
-11.6124
 30
0
 70
     0
  0
VERTEX
  8
US1004P08-1
 10
7.109
 20
-11.6141
 30
0
 70
     0
  0
VERTEX
  8
US1004P08-1
 10
7.1003
 20
-11.6163
 30
0
 70
     0
  0
VERTEX
  8
US1004P08-1
 10
7.0919
 20
-11.6188
 30
0
 70
     0
  0
VERTEX
  8
US1004P08-1
 10
7.0838
 20
-11.6218
 30
0
 70
     0
  0
VERTEX
  8
US1004P08-1
 10
7.0685
 20
-11.6291
 30
0
 70
     0
  0
VERTEX
  8
US1004P08-1
 10
7.0547
 20
-11.6381
 30
0
 70
     0
  0
VERTEX
  8
US1004P08-1
 10
7.0424
 20
-11.6484
 30
0
 70
     0
  0
VERTEX
  8
US1004P08-1
 10
7.0317
 20
-11.6602
 30
0
 70
     0
  0
VERTEX
  8
US1004P08-1
 10
7.0226
 20
-11.6731
 30
0
 70
     0
  0
VERTEX
  8
US1004P08-1
 10
7.0149
 20
-11.6871
 30
0
 70
     0
  0
VERTEX
  8
US1004P08-1
 10
7.0085
 20
-11.7022
 30
0
 70
     0
  0
VERTEX
  8
US1004P08-1
 10
7.0035
 20
-11.7182
 30
0
 70
     0
  0
VERTEX
  8
US1004P08-1
 10
6.9997
 20
-11.735
 30
0
 70
     0
  0
VERTEX
  8
US1004P08-1
 10
6.9969
 20
-11.7526
 30
0
 70
     0
  0
VERTEX
  8
US1004P08-1
 10
6.9953
 20
-11.7709
 30
0
 70
     0
  0
VERTEX
  8
US1004P08-1
 10
6.9948
 20
-11.7895
 30
0
 70
     0
  0
SEQEND
  0
POLYLINE
  8
US1004P08-1
  6
CONTINUOUS
 62
     7
 66
     1
 40
0.0139
 41
0.0139
  0
VERTEX
  8
US1004P08-1
 10
7.3951
 20
-11.5789
 30
0
 70
     0
  0
VERTEX
  8
US1004P08-1
 10
7.1255
 20
-11.6113
 30
0
 70
     0
  0
SEQEND
  0
POLYLINE
  8
US1004P08-1
  6
CONTINUOUS
 62
     7
 66
     1
 40
0.0139
 41
0.0139
  0
VERTEX
  8
US1004P08-1
 10
7.6465
 20
-11.7897
 30
0
 70
     0
  0
VERTEX
  8
US1004P08-1
 10
7.5779
 20
-11.7002
 30
0
 70
     0
  0
VERTEX
  8
US1004P08-1
 10
7.4835
 20
-11.6335
 30
0
 70
     0
  0
SEQEND
  0
POLYLINE
  8
US1004P08-1
  6
CONTINUOUS
 62
     7
 66
     1
 40
0.0139
 41
0.0139
  0
VERTEX
  8
US1004P08-1
 10
7.6593
 20
-11.7881
 30
0
 70
     0
  0
VERTEX
  8
US1004P08-1
 10
7.6816
 20
-11.715
 30
0
 70
     0
  0
VERTEX
  8
US1004P08-1
 10
7.6764
 20
-11.6466
 30
0
 70
     0
  0
VERTEX
  8
US1004P08-1
 10
7.6416
 20
-11.6005
 30
0
 70
     0
  0
VERTEX
  8
US1004P08-1
 10
7.588
 20
-11.5844
 30
0
 70
     0
  0
SEQEND
  0
POLYLINE
  8
US1004P08-1
  6
CONTINUOUS
 62
     7
 66
     1
 40
0.0139
 41
0.0139
  0
VERTEX
  8
US1004P08-1
 10
7.4835
 20
-11.6335
 30
0
 70
     0
  0
VERTEX
  8
US1004P08-1
 10
7.4327
 20
-11.6156
 30
0
 70
     0
  0
VERTEX
  8
US1004P08-1
 10
7.3783
 20
-11.6095
 30
0
 70
     0
  0
SEQEND
  0
POLYLINE
  8
US1004P08-1
  6
CONTINUOUS
 62
     7
 66
     1
 40
0.0139
 41
0.0139
  0
VERTEX
  8
US1004P08-1
 10
7.1548
 20
-11.6095
 30
0
 70
     0
  0
VERTEX
  8
US1004P08-1
 10
7.1567
 20
-11.6095
 30
0
 70
     0
  0
VERTEX
  8
US1004P08-1
 10
7.1587
 20
-11.6095
 30
0
 70
     0
  0
SEQEND
  0
POLYLINE
  8
US1004P08-1
  6
CONTINUOUS
 62
     7
 66
     1
 40
0.0139
 41
0.0139
  0
VERTEX
  8
US1004P08-1
 10
5.9331
 20
-12.931
 30
0
 70
     0
  0
VERTEX
  8
US1004P08-1
 10
5.9094
 20
-12.9473
 30
0
 70
     0
  0
VERTEX
  8
US1004P08-1
 10
5.8869
 20
-12.9643
 30
0
 70
     0
  0
VERTEX
  8
US1004P08-1
 10
5.8763
 20
-12.9729
 30
0
 70
     0
  0
VERTEX
  8
US1004P08-1
 10
5.8661
 20
-12.9815
 30
0
 70
     0
  0
VERTEX
  8
US1004P08-1
 10
5.8566
 20
-12.99
 30
0
 70
     0
  0
VERTEX
  8
US1004P08-1
 10
5.8477
 20
-12.9985
 30
0
 70
     0
  0
VERTEX
  8
US1004P08-1
 10
5.8393
 20
-13.0068
 30
0
 70
     0
  0
VERTEX
  8
US1004P08-1
 10
5.8318
 20
-13.0149
 30
0
 70
     0
  0
VERTEX
  8
US1004P08-1
 10
5.8252
 20
-13.0226
 30
0
 70
     0
  0
VERTEX
  8
US1004P08-1
 10
5.8194
 20
-13.03
 30
0
 70
     0
  0
VERTEX
  8
US1004P08-1
 10
5.8147
 20
-13.0369
 30
0
 70
     0
  0
VERTEX
  8
US1004P08-1
 10
5.8112
 20
-13.0431
 30
0
 70
     0
  0
VERTEX
  8
US1004P08-1
 10
5.8089
 20
-13.0485
 30
0
 70
     0
  0
VERTEX
  8
US1004P08-1
 10
5.8081
 20
-13.0529
 30
0
 70
     0
  0
SEQEND
  0
POLYLINE
  8
US1004P08-1
  6
CONTINUOUS
 62
     7
 66
     1
 40
0.0139
 41
0.0139
  0
VERTEX
  8
US1004P08-1
 10
5.9301
 20
-12.8515
 30
0
 70
     0
  0
VERTEX
  8
US1004P08-1
 10
5.9331
 20
-12.8502
 30
0
 70
     0
  0
SEQEND
  0
POLYLINE
  8
US1004P08-1
  6
CONTINUOUS
 62
     7
 66
     1
 40
0.0139
 41
0.0139
  0
VERTEX
  8
US1004P08-1
 10
6.9376
 20
-13.1885
 30
0
 70
     0
  0
VERTEX
  8
US1004P08-1
 10
6.8984
 20
-13.1228
 30
0
 70
     0
  0
VERTEX
  8
US1004P08-1
 10
6.8533
 20
-13.0631
 30
0
 70
     0
  0
VERTEX
  8
US1004P08-1
 10
6.8029
 20
-13.0094
 30
0
 70
     0
  0
VERTEX
  8
US1004P08-1
 10
6.7479
 20
-12.9619
 30
0
 70
     0
  0
VERTEX
  8
US1004P08-1
 10
6.6887
 20
-12.9208
 30
0
 70
     0
  0
VERTEX
  8
US1004P08-1
 10
6.6261
 20
-12.8861
 30
0
 70
     0
  0
VERTEX
  8
US1004P08-1
 10
6.5604
 20
-12.8582
 30
0
 70
     0
  0
VERTEX
  8
US1004P08-1
 10
6.4925
 20
-12.8371
 30
0
 70
     0
  0
VERTEX
  8
US1004P08-1
 10
6.4227
 20
-12.8229
 30
0
 70
     0
  0
VERTEX
  8
US1004P08-1
 10
6.3518
 20
-12.8158
 30
0
 70
     0
  0
VERTEX
  8
US1004P08-1
 10
6.2802
 20
-12.816
 30
0
 70
     0
  0
VERTEX
  8
US1004P08-1
 10
6.2085
 20
-12.8236
 30
0
 70
     0
  0
VERTEX
  8
US1004P08-1
 10
6.1374
 20
-12.8387
 30
0
 70
     0
  0
VERTEX
  8
US1004P08-1
 10
6.0674
 20
-12.8616
 30
0
 70
     0
  0
VERTEX
  8
US1004P08-1
 10
5.9992
 20
-12.8923
 30
0
 70
     0
  0
VERTEX
  8
US1004P08-1
 10
5.9331
 20
-12.931
 30
0
 70
     0
  0
SEQEND
  0
POLYLINE
  8
US1004P08-1
  6
CONTINUOUS
 62
     7
 66
     1
 40
0.0139
 41
0.0139
  0
VERTEX
  8
US1004P08-1
 10
6.9376
 20
-13.1885
 30
0
 70
     0
  0
VERTEX
  8
US1004P08-1
 10
6.9582
 20
-13.1596
 30
0
 70
     0
  0
VERTEX
  8
US1004P08-1
 10
6.9697
 20
-13.1267
 30
0
 70
     0
  0
VERTEX
  8
US1004P08-1
 10
6.9718
 20
-13.0919
 30
0
 70
     0
  0
VERTEX
  8
US1004P08-1
 10
6.964
 20
-13.0572
 30
0
 70
     0
  0
SEQEND
  0
POLYLINE
  8
US1004P08-1
  6
CONTINUOUS
 62
     7
 66
     1
 40
0.0139
 41
0.0139
  0
VERTEX
  8
US1004P08-1
 10
6.8207
 20
-13.2252
 30
0
 70
     0
  0
VERTEX
  8
US1004P08-1
 10
6.8528
 20
-13.2276
 30
0
 70
     0
  0
VERTEX
  8
US1004P08-1
 10
6.8839
 20
-13.222
 30
0
 70
     0
  0
VERTEX
  8
US1004P08-1
 10
6.9127
 20
-13.2089
 30
0
 70
     0
  0
VERTEX
  8
US1004P08-1
 10
6.9376
 20
-13.1885
 30
0
 70
     0
  0
SEQEND
  0
POLYLINE
  8
US1004P08-1
  6
CONTINUOUS
 62
     7
 66
     1
 40
0.0139
 41
0.0139
  0
VERTEX
  8
US1004P08-1
 10
5.9328
 20
-14.1802
 30
0
 70
     0
  0
VERTEX
  8
US1004P08-1
 10
6.0659
 20
-14.2233
 30
0
 70
     0
  0
VERTEX
  8
US1004P08-1
 10
6.2017
 20
-14.2462
 30
0
 70
     0
  0
VERTEX
  8
US1004P08-1
 10
6.3381
 20
-14.2495
 30
0
 70
     0
  0
VERTEX
  8
US1004P08-1
 10
6.473
 20
-14.2336
 30
0
 70
     0
  0
VERTEX
  8
US1004P08-1
 10
6.6043
 20
-14.1988
 30
0
 70
     0
  0
VERTEX
  8
US1004P08-1
 10
6.7299
 20
-14.1455
 30
0
 70
     0
  0
VERTEX
  8
US1004P08-1
 10
6.8477
 20
-14.0741
 30
0
 70
     0
  0
VERTEX
  8
US1004P08-1
 10
6.9556
 20
-13.985
 30
0
 70
     0
  0
SEQEND
  0
POLYLINE
  8
US1004P08-1
  6
CONTINUOUS
 62
     7
 66
     1
 40
0.0139
 41
0.0139
  0
VERTEX
  8
US1004P08-1
 10
6.9559
 20
-13.0458
 30
0
 70
     0
  0
VERTEX
  8
US1004P08-1
 10
6.848
 20
-12.9567
 30
0
 70
     0
  0
VERTEX
  8
US1004P08-1
 10
6.7302
 20
-12.8853
 30
0
 70
     0
  0
VERTEX
  8
US1004P08-1
 10
6.6047
 20
-12.8319
 30
0
 70
     0
  0
VERTEX
  8
US1004P08-1
 10
6.4734
 20
-12.7971
 30
0
 70
     0
  0
VERTEX
  8
US1004P08-1
 10
6.3385
 20
-12.7811
 30
0
 70
     0
  0
VERTEX
  8
US1004P08-1
 10
6.2021
 20
-12.7843
 30
0
 70
     0
  0
VERTEX
  8
US1004P08-1
 10
6.0663
 20
-12.8072
 30
0
 70
     0
  0
VERTEX
  8
US1004P08-1
 10
5.9331
 20
-12.8502
 30
0
 70
     0
  0
SEQEND
  0
POLYLINE
  8
US1004P08-1
  6
CONTINUOUS
 62
     7
 66
     1
 40
0.0139
 41
0.0139
  0
VERTEX
  8
US1004P08-1
 10
6.9376
 20
-13.8421
 30
0
 70
     0
  0
VERTEX
  8
US1004P08-1
 10
6.9127
 20
-13.8217
 30
0
 70
     0
  0
VERTEX
  8
US1004P08-1
 10
6.884
 20
-13.8086
 30
0
 70
     0
  0
VERTEX
  8
US1004P08-1
 10
6.8528
 20
-13.8029
 30
0
 70
     0
  0
VERTEX
  8
US1004P08-1
 10
6.8208
 20
-13.8054
 30
0
 70
     0
  0
SEQEND
  0
POLYLINE
  8
US1004P08-1
  6
CONTINUOUS
 62
     7
 66
     1
 40
0.0139
 41
0.0139
  0
VERTEX
  8
US1004P08-1
 10
6.964
 20
-13.9735
 30
0
 70
     0
  0
VERTEX
  8
US1004P08-1
 10
6.9718
 20
-13.9388
 30
0
 70
     0
  0
VERTEX
  8
US1004P08-1
 10
6.9697
 20
-13.904
 30
0
 70
     0
  0
VERTEX
  8
US1004P08-1
 10
6.9582
 20
-13.8711
 30
0
 70
     0
  0
VERTEX
  8
US1004P08-1
 10
6.9376
 20
-13.8421
 30
0
 70
     0
  0
SEQEND
  0
POLYLINE
  8
US1004P08-1
  6
CONTINUOUS
 62
     7
 66
     1
 40
0.0139
 41
0.0139
  0
VERTEX
  8
US1004P08-1
 10
5.8081
 20
-12.9034
 30
0
 70
     0
  0
VERTEX
  8
US1004P08-1
 10
5.8089
 20
-12.9002
 30
0
 70
     0
  0
VERTEX
  8
US1004P08-1
 10
5.8111
 20
-12.8961
 30
0
 70
     0
  0
VERTEX
  8
US1004P08-1
 10
5.8147
 20
-12.8914
 30
0
 70
     0
  0
VERTEX
  8
US1004P08-1
 10
5.8195
 20
-12.8861
 30
0
 70
     0
  0
VERTEX
  8
US1004P08-1
 10
5.8325
 20
-12.8741
 30
0
 70
     0
  0
VERTEX
  8
US1004P08-1
 10
5.8493
 20
-12.8608
 30
0
 70
     0
  0
SEQEND
  0
POLYLINE
  8
US1004P08-1
  6
CONTINUOUS
 62
     7
 66
     1
 40
0.0139
 41
0.0139
  0
VERTEX
  8
US1004P08-1
 10
5.9301
 20
-14.1791
 30
0
 70
     0
  0
VERTEX
  8
US1004P08-1
 10
5.9069
 20
-14.1722
 30
0
 70
     0
  0
VERTEX
  8
US1004P08-1
 10
5.8828
 20
-14.1698
 30
0
 70
     0
  0
SEQEND
  0
POLYLINE
  8
US1004P08-1
  6
CONTINUOUS
 62
     7
 66
     1
 40
0.0139
 41
0.0139
  0
VERTEX
  8
US1004P08-1
 10
5.8081
 20
-13.0529
 30
0
 70
     0
  0
VERTEX
  8
US1004P08-1
 10
5.8081
 20
-13.9777
 30
0
 70
     0
  0
SEQEND
  0
POLYLINE
  8
US1004P08-1
  6
CONTINUOUS
 62
     7
 66
     1
 40
0.0139
 41
0.0139
  0
VERTEX
  8
US1004P08-1
 10
5.8493
 20
-12.8608
 30
0
 70
     0
  0
VERTEX
  8
US1004P08-1
 10
5.8828
 20
-12.8608
 30
0
 70
     0
  0
SEQEND
  0
POLYLINE
  8
US1004P08-1
  6
CONTINUOUS
 62
     7
 66
     1
 40
0.0139
 41
0.0139
  0
VERTEX
  8
US1004P08-1
 10
5.8081
 20
-13.0529
 30
0
 70
     0
  0
VERTEX
  8
US1004P08-1
 10
5.8081
 20
-12.9034
 30
0
 70
     0
  0
SEQEND
  0
POLYLINE
  8
US1004P08-1
  6
CONTINUOUS
 62
     7
 66
     1
 40
0.0139
 41
0.0139
  0
VERTEX
  8
US1004P08-1
 10
5.8828
 20
-12.8608
 30
0
 70
     0
  0
VERTEX
  8
US1004P08-1
 10
5.9069
 20
-12.8584
 30
0
 70
     0
  0
VERTEX
  8
US1004P08-1
 10
5.93
 20
-12.8515
 30
0
 70
     0
  0
SEQEND
  0
POLYLINE
  8
US1004P08-1
  6
CONTINUOUS
 62
     7
 66
     1
 40
0.0139
 41
0.0139
  0
VERTEX
  8
US1004P08-1
 10
5.9331
 20
-14.1803
 30
0
 70
     0
  0
VERTEX
  8
US1004P08-1
 10
5.9301
 20
-14.1791
 30
0
 70
     0
  0
SEQEND
  0
POLYLINE
  8
US1004P08-1
  6
CONTINUOUS
 62
     7
 66
     1
 40
0.0139
 41
0.0139
  0
VERTEX
  8
US1004P08-1
 10
5.8081
 20
-14.1272
 30
0
 70
     0
  0
VERTEX
  8
US1004P08-1
 10
5.8081
 20
-13.9777
 30
0
 70
     0
  0
SEQEND
  0
POLYLINE
  8
US1004P08-1
  6
CONTINUOUS
 62
     7
 66
     1
 40
0.0139
 41
0.0139
  0
VERTEX
  8
US1004P08-1
 10
5.8828
 20
-14.1698
 30
0
 70
     0
  0
VERTEX
  8
US1004P08-1
 10
5.8493
 20
-14.1698
 30
0
 70
     0
  0
SEQEND
  0
POLYLINE
  8
US1004P08-1
  6
CONTINUOUS
 62
     7
 66
     1
 40
0.0139
 41
0.0139
  0
VERTEX
  8
US1004P08-1
 10
5.8081
 20
-13.9777
 30
0
 70
     0
  0
VERTEX
  8
US1004P08-1
 10
5.8089
 20
-13.9821
 30
0
 70
     0
  0
VERTEX
  8
US1004P08-1
 10
5.8111
 20
-13.9874
 30
0
 70
     0
  0
VERTEX
  8
US1004P08-1
 10
5.8146
 20
-13.9936
 30
0
 70
     0
  0
VERTEX
  8
US1004P08-1
 10
5.8193
 20
-14.0004
 30
0
 70
     0
  0
VERTEX
  8
US1004P08-1
 10
5.8317
 20
-14.0156
 30
0
 70
     0
  0
VERTEX
  8
US1004P08-1
 10
5.8475
 20
-14.032
 30
0
 70
     0
  0
VERTEX
  8
US1004P08-1
 10
5.8565
 20
-14.0404
 30
0
 70
     0
  0
VERTEX
  8
US1004P08-1
 10
5.8661
 20
-14.049
 30
0
 70
     0
  0
VERTEX
  8
US1004P08-1
 10
5.8762
 20
-14.0576
 30
0
 70
     0
  0
VERTEX
  8
US1004P08-1
 10
5.8867
 20
-14.0661
 30
0
 70
     0
  0
VERTEX
  8
US1004P08-1
 10
5.9092
 20
-14.0831
 30
0
 70
     0
  0
VERTEX
  8
US1004P08-1
 10
5.9331
 20
-14.0996
 30
0
 70
     0
  0
SEQEND
  0
POLYLINE
  8
US1004P08-1
  6
CONTINUOUS
 62
     7
 66
     1
 40
0.0139
 41
0.0139
  0
VERTEX
  8
US1004P08-1
 10
5.8493
 20
-14.1698
 30
0
 70
     0
  0
VERTEX
  8
US1004P08-1
 10
5.8405
 20
-14.163
 30
0
 70
     0
  0
VERTEX
  8
US1004P08-1
 10
5.8325
 20
-14.1566
 30
0
 70
     0
  0
VERTEX
  8
US1004P08-1
 10
5.8255
 20
-14.1504
 30
0
 70
     0
  0
VERTEX
  8
US1004P08-1
 10
5.8195
 20
-14.1445
 30
0
 70
     0
  0
VERTEX
  8
US1004P08-1
 10
5.8147
 20
-14.1392
 30
0
 70
     0
  0
VERTEX
  8
US1004P08-1
 10
5.8112
 20
-14.1345
 30
0
 70
     0
  0
VERTEX
  8
US1004P08-1
 10
5.8089
 20
-14.1305
 30
0
 70
     0
  0
VERTEX
  8
US1004P08-1
 10
5.8081
 20
-14.1272
 30
0
 70
     0
  0
SEQEND
  0
POLYLINE
  8
US1004P08-1
  6
CONTINUOUS
 62
     7
 66
     1
 40
0.0139
 41
0.0139
  0
VERTEX
  8
US1004P08-1
 10
5.9329
 20
-14.0995
 30
0
 70
     0
  0
VERTEX
  8
US1004P08-1
 10
5.9989
 20
-14.1382
 30
0
 70
     0
  0
VERTEX
  8
US1004P08-1
 10
6.0672
 20
-14.1689
 30
0
 70
     0
  0
VERTEX
  8
US1004P08-1
 10
6.1372
 20
-14.1918
 30
0
 70
     0
  0
VERTEX
  8
US1004P08-1
 10
6.2083
 20
-14.207
 30
0
 70
     0
  0
VERTEX
  8
US1004P08-1
 10
6.2799
 20
-14.2146
 30
0
 70
     0
  0
VERTEX
  8
US1004P08-1
 10
6.3515
 20
-14.2148
 30
0
 70
     0
  0
VERTEX
  8
US1004P08-1
 10
6.4225
 20
-14.2077
 30
0
 70
     0
  0
VERTEX
  8
US1004P08-1
 10
6.4922
 20
-14.1936
 30
0
 70
     0
  0
VERTEX
  8
US1004P08-1
 10
6.5602
 20
-14.1725
 30
0
 70
     0
  0
VERTEX
  8
US1004P08-1
 10
6.6258
 20
-14.1445
 30
0
 70
     0
  0
VERTEX
  8
US1004P08-1
 10
6.6885
 20
-14.11
 30
0
 70
     0
  0
VERTEX
  8
US1004P08-1
 10
6.7477
 20
-14.0689
 30
0
 70
     0
  0
VERTEX
  8
US1004P08-1
 10
6.8027
 20
-14.0214
 30
0
 70
     0
  0
VERTEX
  8
US1004P08-1
 10
6.8531
 20
-13.9677
 30
0
 70
     0
  0
VERTEX
  8
US1004P08-1
 10
6.8982
 20
-13.908
 30
0
 70
     0
  0
VERTEX
  8
US1004P08-1
 10
6.9375
 20
-13.8423
 30
0
 70
     0
  0
SEQEND
  0
POLYLINE
  8
US1004P08-1
  6
CONTINUOUS
 62
     7
 66
     1
 40
0.0139
 41
0.0139
  0
VERTEX
  8
US1004P08-1
 10
5.5013
 20
-8.2784
 30
0
 70
     0
  0
VERTEX
  8
US1004P08-1
 10
5.4963
 20
-8.2265
 30
0
 70
     0
  0
VERTEX
  8
US1004P08-1
 10
5.4815
 20
-8.1769
 30
0
 70
     0
  0
VERTEX
  8
US1004P08-1
 10
5.4576
 20
-8.1311
 30
0
 70
     0
  0
VERTEX
  8
US1004P08-1
 10
5.4251
 20
-8.0904
 30
0
 70
     0
  0
SEQEND
  0
POLYLINE
  8
US1004P08-1
  6
CONTINUOUS
 62
     7
 66
     1
 40
0.0139
 41
0.0139
  0
VERTEX
  8
US1004P08-1
 10
5.3813
 20
-8.2784
 30
0
 70
     0
  0
VERTEX
  8
US1004P08-1
 10
5.3782
 20
-8.2482
 30
0
 70
     0
  0
VERTEX
  8
US1004P08-1
 10
5.3695
 20
-8.22
 30
0
 70
     0
  0
VERTEX
  8
US1004P08-1
 10
5.3557
 20
-8.1945
 30
0
 70
     0
  0
VERTEX
  8
US1004P08-1
 10
5.3373
 20
-8.1723
 30
0
 70
     0
  0
VERTEX
  8
US1004P08-1
 10
5.3151
 20
-8.154
 30
0
 70
     0
  0
VERTEX
  8
US1004P08-1
 10
5.2897
 20
-8.1401
 30
0
 70
     0
  0
VERTEX
  8
US1004P08-1
 10
5.2615
 20
-8.1314
 30
0
 70
     0
  0
VERTEX
  8
US1004P08-1
 10
5.2313
 20
-8.1284
 30
0
 70
     0
  0
SEQEND
  0
POLYLINE
  8
US1004P08-1
  6
CONTINUOUS
 62
     7
 66
     1
 40
0.0139
 41
0.0139
  0
VERTEX
  8
US1004P08-1
 10
-5.2287
 20
-8.1284
 30
0
 70
     0
  0
VERTEX
  8
US1004P08-1
 10
-5.259
 20
-8.1314
 30
0
 70
     0
  0
VERTEX
  8
US1004P08-1
 10
-5.2871
 20
-8.1401
 30
0
 70
     0
  0
VERTEX
  8
US1004P08-1
 10
-5.3126
 20
-8.154
 30
0
 70
     0
  0
VERTEX
  8
US1004P08-1
 10
-5.3348
 20
-8.1723
 30
0
 70
     0
  0
VERTEX
  8
US1004P08-1
 10
-5.3532
 20
-8.1945
 30
0
 70
     0
  0
VERTEX
  8
US1004P08-1
 10
-5.367
 20
-8.22
 30
0
 70
     0
  0
VERTEX
  8
US1004P08-1
 10
-5.3757
 20
-8.2482
 30
0
 70
     0
  0
VERTEX
  8
US1004P08-1
 10
-5.3787
 20
-8.2784
 30
0
 70
     0
  0
SEQEND
  0
POLYLINE
  8
US1004P08-1
  6
CONTINUOUS
 62
     7
 66
     1
 40
0.0139
 41
0.0139
  0
VERTEX
  8
US1004P08-1
 10
-2.3112
 20
-4.3641
 30
0
 70
     0
  0
VERTEX
  8
US1004P08-1
 10
-1.6862
 20
-4.3641
 30
0
 70
     0
  0
SEQEND
  0
POLYLINE
  8
US1004P08-1
  6
CONTINUOUS
 62
     7
 66
     1
 40
0.0139
 41
0.0139
  0
VERTEX
  8
US1004P08-1
 10
-1.742
 20
-4.3084
 30
0
 70
     0
  0
VERTEX
  8
US1004P08-1
 10
-2.2555
 20
-4.3084
 30
0
 70
     0
  0
SEQEND
  0
POLYLINE
  8
US1004P08-1
  6
CONTINUOUS
 62
     7
 66
     1
 40
0.0139
 41
0.0139
  0
VERTEX
  8
US1004P08-1
 10
-1.6862
 20
-4.3641
 30
0
 70
     0
  0
VERTEX
  8
US1004P08-1
 10
-1.742
 20
-4.3084
 30
0
 70
     0
  0
SEQEND
  0
POLYLINE
  8
US1004P08-1
  6
CONTINUOUS
 62
     7
 66
     1
 40
0.0139
 41
0.0139
  0
VERTEX
  8
US1004P08-1
 10
-2.2555
 20
-4.3084
 30
0
 70
     0
  0
VERTEX
  8
US1004P08-1
 10
-2.3112
 20
-4.3641
 30
0
 70
     0
  0
SEQEND
  0
POLYLINE
  8
US1004P08-1
  6
CONTINUOUS
 62
     7
 66
     1
 40
0.0139
 41
0.0139
  0
VERTEX
  8
US1004P08-1
 10
1.6888
 20
-4.3641
 30
0
 70
     0
  0
VERTEX
  8
US1004P08-1
 10
2.3138
 20
-4.3641
 30
0
 70
     0
  0
SEQEND
  0
POLYLINE
  8
US1004P08-1
  6
CONTINUOUS
 62
     7
 66
     1
 40
0.0139
 41
0.0139
  0
VERTEX
  8
US1004P08-1
 10
2.258
 20
-4.3084
 30
0
 70
     0
  0
VERTEX
  8
US1004P08-1
 10
1.7445
 20
-4.3084
 30
0
 70
     0
  0
SEQEND
  0
POLYLINE
  8
US1004P08-1
  6
CONTINUOUS
 62
     7
 66
     1
 40
0.0139
 41
0.0139
  0
VERTEX
  8
US1004P08-1
 10
2.3138
 20
-4.3641
 30
0
 70
     0
  0
VERTEX
  8
US1004P08-1
 10
2.258
 20
-4.3084
 30
0
 70
     0
  0
SEQEND
  0
POLYLINE
  8
US1004P08-1
  6
CONTINUOUS
 62
     7
 66
     1
 40
0.0139
 41
0.0139
  0
VERTEX
  8
US1004P08-1
 10
1.7445
 20
-4.3084
 30
0
 70
     0
  0
VERTEX
  8
US1004P08-1
 10
1.6888
 20
-4.3641
 30
0
 70
     0
  0
SEQEND
  0
POLYLINE
  8
US1004P08-1
  6
CONTINUOUS
 62
     7
 66
     1
 40
0.0139
 41
0.0139
  0
VERTEX
  8
US1004P08-1
 10
-5.6819
 20
-15.512
 30
0
 70
     0
  0
VERTEX
  8
US1004P08-1
 10
-5.6734
 20
-15.877
 30
0
 70
     0
  0
VERTEX
  8
US1004P08-1
 10
-5.65
 20
-16.2412
 30
0
 70
     0
  0
VERTEX
  8
US1004P08-1
 10
-5.6117
 20
-16.6041
 30
0
 70
     0
  0
VERTEX
  8
US1004P08-1
 10
-5.5585
 20
-16.9653
 30
0
 70
     0
  0
SEQEND
  0
POLYLINE
  8
US1004P08-1
  6
CONTINUOUS
 62
     7
 66
     1
 40
0.0139
 41
0.0139
  0
VERTEX
  8
US1004P08-1
 10
-5.6819
 20
-15.5153
 30
0
 70
     0
  0
VERTEX
  8
US1004P08-1
 10
-5.6819
 20
-8.2784
 30
0
 70
     0
  0
SEQEND
  0
POLYLINE
  8
US1004P08-1
  6
CONTINUOUS
 62
     7
 66
     1
 40
0.0139
 41
0.0139
  0
VERTEX
  8
US1004P08-1
 10
5.3851
 20
-8.2784
 30
0
 70
     0
  0
VERTEX
  8
US1004P08-1
 10
5.1971
 20
-8.2784
 30
0
 70
     0
  0
SEQEND
  0
POLYLINE
  8
US1004P08-1
  6
CONTINUOUS
 62
     7
 66
     1
 40
0.0139
 41
0.0139
  0
VERTEX
  8
US1004P08-1
 10
5.1971
 20
-8.2784
 30
0
 70
     0
  0
VERTEX
  8
US1004P08-1
 10
5.1971
 20
-8.0904
 30
0
 70
     0
  0
SEQEND
  0
POLYLINE
  8
US1004P08-1
  6
CONTINUOUS
 62
     7
 66
     1
 40
0.0139
 41
0.0139
  0
VERTEX
  8
US1004P08-1
 10
5.1971
 20
-8.0904
 30
0
 70
     0
  0
VERTEX
  8
US1004P08-1
 10
5.773
 20
-8.0904
 30
0
 70
     0
  0
SEQEND
  0
POLYLINE
  8
US1004P08-1
  6
CONTINUOUS
 62
     7
 66
     1
 40
0.0139
 41
0.0139
  0
VERTEX
  8
US1004P08-1
 10
-5.2597
 20
-17.677
 30
0
 70
     0
  0
VERTEX
  8
US1004P08-1
 10
-5.1654
 20
-17.8974
 30
0
 70
     0
  0
VERTEX
  8
US1004P08-1
 10
-5.0643
 20
-18.1109
 30
0
 70
     0
  0
VERTEX
  8
US1004P08-1
 10
-4.9566
 20
-18.3173
 30
0
 70
     0
  0
VERTEX
  8
US1004P08-1
 10
-4.8424
 20
-18.5168
 30
0
 70
     0
  0
VERTEX
  8
US1004P08-1
 10
-4.7221
 20
-18.7092
 30
0
 70
     0
  0
VERTEX
  8
US1004P08-1
 10
-4.5958
 20
-18.8947
 30
0
 70
     0
  0
VERTEX
  8
US1004P08-1
 10
-4.4637
 20
-19.0732
 30
0
 70
     0
  0
VERTEX
  8
US1004P08-1
 10
-4.3261
 20
-19.2447
 30
0
 70
     0
  0
VERTEX
  8
US1004P08-1
 10
-4.1832
 20
-19.4091
 30
0
 70
     0
  0
VERTEX
  8
US1004P08-1
 10
-4.0351
 20
-19.5666
 30
0
 70
     0
  0
VERTEX
  8
US1004P08-1
 10
-3.8823
 20
-19.7171
 30
0
 70
     0
  0
VERTEX
  8
US1004P08-1
 10
-3.7247
 20
-19.8606
 30
0
 70
     0
  0
VERTEX
  8
US1004P08-1
 10
-3.5628
 20
-19.9971
 30
0
 70
     0
  0
VERTEX
  8
US1004P08-1
 10
-3.3966
 20
-20.1266
 30
0
 70
     0
  0
VERTEX
  8
US1004P08-1
 10
-3.2265
 20
-20.2491
 30
0
 70
     0
  0
VERTEX
  8
US1004P08-1
 10
-3.0526
 20
-20.3647
 30
0
 70
     0
  0
VERTEX
  8
US1004P08-1
 10
-2.8752
 20
-20.4732
 30
0
 70
     0
  0
VERTEX
  8
US1004P08-1
 10
-2.6944
 20
-20.5747
 30
0
 70
     0
  0
VERTEX
  8
US1004P08-1
 10
-2.5105
 20
-20.6692
 30
0
 70
     0
  0
VERTEX
  8
US1004P08-1
 10
-2.3238
 20
-20.7568
 30
0
 70
     0
  0
VERTEX
  8
US1004P08-1
 10
-2.1344
 20
-20.8373
 30
0
 70
     0
  0
VERTEX
  8
US1004P08-1
 10
-1.9426
 20
-20.9109
 30
0
 70
     0
  0
VERTEX
  8
US1004P08-1
 10
-1.7485
 20
-20.9774
 30
0
 70
     0
  0
VERTEX
  8
US1004P08-1
 10
-1.5525
 20
-21.0369
 30
0
 70
     0
  0
VERTEX
  8
US1004P08-1
 10
-1.3547
 20
-21.0895
 30
0
 70
     0
  0
VERTEX
  8
US1004P08-1
 10
-1.1553
 20
-21.135
 30
0
 70
     0
  0
VERTEX
  8
US1004P08-1
 10
-0.9546
 20
-21.1736
 30
0
 70
     0
  0
VERTEX
  8
US1004P08-1
 10
-0.7528
 20
-21.2052
 30
0
 70
     0
  0
VERTEX
  8
US1004P08-1
 10
-0.5502
 20
-21.2297
 30
0
 70
     0
  0
VERTEX
  8
US1004P08-1
 10
-0.3468
 20
-21.2473
 30
0
 70
     0
  0
VERTEX
  8
US1004P08-1
 10
-0.143
 20
-21.2579
 30
0
 70
     0
  0
VERTEX
  8
US1004P08-1
 10
0.061
 20
-21.2614
 30
0
 70
     0
  0
VERTEX
  8
US1004P08-1
 10
0.265
 20
-21.258
 30
0
 70
     0
  0
VERTEX
  8
US1004P08-1
 10
0.4688
 20
-21.2476
 30
0
 70
     0
  0
VERTEX
  8
US1004P08-1
 10
0.6722
 20
-21.2302
 30
0
 70
     0
  0
VERTEX
  8
US1004P08-1
 10
0.8749
 20
-21.2058
 30
0
 70
     0
  0
VERTEX
  8
US1004P08-1
 10
1.0767
 20
-21.1744
 30
0
 70
     0
  0
VERTEX
  8
US1004P08-1
 10
1.2774
 20
-21.136
 30
0
 70
     0
  0
VERTEX
  8
US1004P08-1
 10
1.4768
 20
-21.0905
 30
0
 70
     0
  0
VERTEX
  8
US1004P08-1
 10
1.6747
 20
-21.0381
 30
0
 70
     0
  0
VERTEX
  8
US1004P08-1
 10
1.8708
 20
-20.9787
 30
0
 70
     0
  0
VERTEX
  8
US1004P08-1
 10
2.0649
 20
-20.9123
 30
0
 70
     0
  0
VERTEX
  8
US1004P08-1
 10
2.2567
 20
-20.8389
 30
0
 70
     0
  0
VERTEX
  8
US1004P08-1
 10
2.4462
 20
-20.7585
 30
0
 70
     0
  0
VERTEX
  8
US1004P08-1
 10
2.633
 20
-20.6711
 30
0
 70
     0
  0
VERTEX
  8
US1004P08-1
 10
2.8169
 20
-20.5768
 30
0
 70
     0
  0
VERTEX
  8
US1004P08-1
 10
2.9978
 20
-20.4754
 30
0
 70
     0
  0
VERTEX
  8
US1004P08-1
 10
3.1753
 20
-20.367
 30
0
 70
     0
  0
VERTEX
  8
US1004P08-1
 10
3.3493
 20
-20.2516
 30
0
 70
     0
  0
VERTEX
  8
US1004P08-1
 10
3.5195
 20
-20.1292
 30
0
 70
     0
  0
VERTEX
  8
US1004P08-1
 10
3.6858
 20
-19.9998
 30
0
 70
     0
  0
VERTEX
  8
US1004P08-1
 10
3.8478
 20
-19.8634
 30
0
 70
     0
  0
VERTEX
  8
US1004P08-1
 10
4.0054
 20
-19.72
 30
0
 70
     0
  0
VERTEX
  8
US1004P08-1
 10
4.1584
 20
-19.5697
 30
0
 70
     0
  0
VERTEX
  8
US1004P08-1
 10
4.3066
 20
-19.4123
 30
0
 70
     0
  0
VERTEX
  8
US1004P08-1
 10
4.4496
 20
-19.2479
 30
0
 70
     0
  0
VERTEX
  8
US1004P08-1
 10
4.5873
 20
-19.0765
 30
0
 70
     0
  0
VERTEX
  8
US1004P08-1
 10
4.7195
 20
-18.8982
 30
0
 70
     0
  0
VERTEX
  8
US1004P08-1
 10
4.846
 20
-18.7128
 30
0
 70
     0
  0
VERTEX
  8
US1004P08-1
 10
4.9665
 20
-18.5204
 30
0
 70
     0
  0
VERTEX
  8
US1004P08-1
 10
5.0808
 20
-18.321
 30
0
 70
     0
  0
VERTEX
  8
US1004P08-1
 10
5.1887
 20
-18.1147
 30
0
 70
     0
  0
VERTEX
  8
US1004P08-1
 10
5.2899
 20
-17.9013
 30
0
 70
     0
  0
VERTEX
  8
US1004P08-1
 10
5.3843
 20
-17.6809
 30
0
 70
     0
  0
SEQEND
  0
POLYLINE
  8
US1004P08-1
  6
CONTINUOUS
 62
     7
 66
     1
 40
0.0139
 41
0.0139
  0
VERTEX
  8
US1004P08-1
 10
-5.3338
 20
-7.7876
 30
0
 70
     0
  0
VERTEX
  8
US1004P08-1
 10
-5.3862
 20
-7.8092
 30
0
 70
     0
  0
VERTEX
  8
US1004P08-1
 10
-5.4355
 20
-7.8362
 30
0
 70
     0
  0
VERTEX
  8
US1004P08-1
 10
-5.4814
 20
-7.8681
 30
0
 70
     0
  0
VERTEX
  8
US1004P08-1
 10
-5.5235
 20
-7.9046
 30
0
 70
     0
  0
VERTEX
  8
US1004P08-1
 10
-5.5614
 20
-7.9455
 30
0
 70
     0
  0
VERTEX
  8
US1004P08-1
 10
-5.5948
 20
-7.9903
 30
0
 70
     0
  0
VERTEX
  8
US1004P08-1
 10
-5.6234
 20
-8.0387
 30
0
 70
     0
  0
VERTEX
  8
US1004P08-1
 10
-5.6467
 20
-8.0904
 30
0
 70
     0
  0
SEQEND
  0
POLYLINE
  8
US1004P08-1
  6
CONTINUOUS
 62
     7
 66
     1
 40
0.0139
 41
0.0139
  0
VERTEX
  8
US1004P08-1
 10
3.6631
 20
-7.5995
 30
0
 70
     0
  0
VERTEX
  8
US1004P08-1
 10
3.6631
 20
-7.6595
 30
0
 70
     0
  0
SEQEND
  0
POLYLINE
  8
US1004P08-1
  6
CONTINUOUS
 62
     7
 66
     1
 40
0.0139
 41
0.0139
  0
VERTEX
  8
US1004P08-1
 10
-3.5369
 20
-7.5995
 30
0
 70
     0
  0
VERTEX
  8
US1004P08-1
 10
3.6631
 20
-7.5995
 30
0
 70
     0
  0
SEQEND
  0
POLYLINE
  8
US1004P08-1
  6
CONTINUOUS
 62
     7
 66
     1
 40
0.0139
 41
0.0139
  0
VERTEX
  8
US1004P08-1
 10
-3.5369
 20
-7.6595
 30
0
 70
     0
  0
VERTEX
  8
US1004P08-1
 10
-3.5369
 20
-7.5995
 30
0
 70
     0
  0
SEQEND
  0
POLYLINE
  8
US1004P08-1
  6
CONTINUOUS
 62
     7
 66
     1
 40
0.0139
 41
0.0139
  0
VERTEX
  8
US1004P08-1
 10
-4.7969
 20
-7.6595
 30
0
 70
     0
  0
VERTEX
  8
US1004P08-1
 10
-3.5369
 20
-7.6595
 30
0
 70
     0
  0
SEQEND
  0
POLYLINE
  8
US1004P08-1
  6
CONTINUOUS
 62
     7
 66
     1
 40
0.0139
 41
0.0139
  0
VERTEX
  8
US1004P08-1
 10
-4.7969
 20
-7.5995
 30
0
 70
     0
  0
VERTEX
  8
US1004P08-1
 10
-4.7969
 20
-7.6595
 30
0
 70
     0
  0
SEQEND
  0
POLYLINE
  8
US1004P08-1
  6
CONTINUOUS
 62
     7
 66
     1
 40
0.0139
 41
0.0139
  0
VERTEX
  8
US1004P08-1
 10
-5.3338
 20
-7.7876
 30
0
 70
     0
  0
VERTEX
  8
US1004P08-1
 10
-4.7969
 20
-7.5995
 30
0
 70
     0
  0
SEQEND
  0
POLYLINE
  8
US1004P08-1
  6
CONTINUOUS
 62
     7
 66
     1
 40
0.0139
 41
0.0139
  0
VERTEX
  8
US1004P08-1
 10
5.773
 20
-8.0904
 30
0
 70
     0
  0
VERTEX
  8
US1004P08-1
 10
5.7497
 20
-8.0387
 30
0
 70
     0
  0
VERTEX
  8
US1004P08-1
 10
5.7211
 20
-7.9903
 30
0
 70
     0
  0
VERTEX
  8
US1004P08-1
 10
5.6877
 20
-7.9455
 30
0
 70
     0
  0
VERTEX
  8
US1004P08-1
 10
5.6498
 20
-7.9046
 30
0
 70
     0
  0
VERTEX
  8
US1004P08-1
 10
5.6077
 20
-7.8681
 30
0
 70
     0
  0
VERTEX
  8
US1004P08-1
 10
5.5618
 20
-7.8362
 30
0
 70
     0
  0
VERTEX
  8
US1004P08-1
 10
5.5125
 20
-7.8092
 30
0
 70
     0
  0
VERTEX
  8
US1004P08-1
 10
5.4601
 20
-7.7876
 30
0
 70
     0
  0
SEQEND
  0
POLYLINE
  8
US1004P08-1
  6
CONTINUOUS
 62
     7
 66
     1
 40
0.0139
 41
0.0139
  0
VERTEX
  8
US1004P08-1
 10
4.9231
 20
-7.5995
 30
0
 70
     0
  0
VERTEX
  8
US1004P08-1
 10
5.4601
 20
-7.7876
 30
0
 70
     0
  0
SEQEND
  0
POLYLINE
  8
US1004P08-1
  6
CONTINUOUS
 62
     7
 66
     1
 40
0.0139
 41
0.0139
  0
VERTEX
  8
US1004P08-1
 10
4.9231
 20
-7.6595
 30
0
 70
     0
  0
VERTEX
  8
US1004P08-1
 10
4.9231
 20
-7.5995
 30
0
 70
     0
  0
SEQEND
  0
POLYLINE
  8
US1004P08-1
  6
CONTINUOUS
 62
     7
 66
     1
 40
0.0139
 41
0.0139
  0
VERTEX
  8
US1004P08-1
 10
3.6631
 20
-7.6595
 30
0
 70
     0
  0
VERTEX
  8
US1004P08-1
 10
4.9231
 20
-7.6595
 30
0
 70
     0
  0
SEQEND
  0
POLYLINE
  8
US1004P08-1
  6
CONTINUOUS
 62
     7
 66
     1
 40
0.0139
 41
0.0139
  0
VERTEX
  8
US1004P08-1
 10
-5.2589
 20
-8.2784
 30
0
 70
     0
  0
VERTEX
  8
US1004P08-1
 10
-5.0709
 20
-8.2784
 30
0
 70
     0
  0
SEQEND
  0
POLYLINE
  8
US1004P08-1
  6
CONTINUOUS
 62
     7
 66
     1
 40
0.0139
 41
0.0139
  0
VERTEX
  8
US1004P08-1
 10
-5.5582
 20
-16.9676
 30
0
 70
     0
  0
VERTEX
  8
US1004P08-1
 10
-5.5021
 20
-17.1526
 30
0
 70
     0
  0
VERTEX
  8
US1004P08-1
 10
-5.4334
 20
-17.3331
 30
0
 70
     0
  0
VERTEX
  8
US1004P08-1
 10
-5.3524
 20
-17.5085
 30
0
 70
     0
  0
VERTEX
  8
US1004P08-1
 10
-5.2594
 20
-17.678
 30
0
 70
     0
  0
SEQEND
  0
POLYLINE
  8
US1004P08-1
  6
CONTINUOUS
 62
     7
 66
     1
 40
0.0139
 41
0.0139
  0
VERTEX
  8
US1004P08-1
 10
-5.6819
 20
-8.2784
 30
0
 70
     0
  0
VERTEX
  8
US1004P08-1
 10
-5.2589
 20
-8.2784
 30
0
 70
     0
  0
SEQEND
  0
POLYLINE
  8
US1004P08-1
  6
CONTINUOUS
 62
     7
 66
     1
 40
0.0139
 41
0.0139
  0
VERTEX
  8
US1004P08-1
 10
-5.0709
 20
-8.2784
 30
0
 70
     0
  0
VERTEX
  8
US1004P08-1
 10
-5.0709
 20
-8.0904
 30
0
 70
     0
  0
SEQEND
  0
POLYLINE
  8
US1004P08-1
  6
CONTINUOUS
 62
     7
 66
     1
 40
0.0139
 41
0.0139
  0
VERTEX
  8
US1004P08-1
 10
-5.0709
 20
-8.0904
 30
0
 70
     0
  0
VERTEX
  8
US1004P08-1
 10
-5.6467
 20
-8.0904
 30
0
 70
     0
  0
SEQEND
  0
POLYLINE
  8
US1004P08-1
  6
CONTINUOUS
 62
     7
 66
     1
 40
0.0139
 41
0.0139
  0
VERTEX
  8
US1004P08-1
 10
5.6837
 20
-16.9719
 30
0
 70
     0
  0
VERTEX
  8
US1004P08-1
 10
5.7372
 20
-16.6107
 30
0
 70
     0
  0
VERTEX
  8
US1004P08-1
 10
5.7757
 20
-16.2478
 30
0
 70
     0
  0
VERTEX
  8
US1004P08-1
 10
5.7994
 20
-15.8836
 30
0
 70
     0
  0
VERTEX
  8
US1004P08-1
 10
5.8081
 20
-15.5186
 30
0
 70
     0
  0
SEQEND
  0
POLYLINE
  8
US1004P08-1
  6
CONTINUOUS
 62
     7
 66
     1
 40
0.0139
 41
0.0139
  0
VERTEX
  8
US1004P08-1
 10
5.3846
 20
-17.6798
 30
0
 70
     0
  0
VERTEX
  8
US1004P08-1
 10
5.4778
 20
-17.5104
 30
0
 70
     0
  0
VERTEX
  8
US1004P08-1
 10
5.5589
 20
-17.3351
 30
0
 70
     0
  0
VERTEX
  8
US1004P08-1
 10
5.6277
 20
-17.1546
 30
0
 70
     0
  0
VERTEX
  8
US1004P08-1
 10
5.684
 20
-16.9696
 30
0
 70
     0
  0
SEQEND
  0
POLYLINE
  8
US1004P08-1
  6
CONTINUOUS
 62
     7
 66
     1
 40
0.0139
 41
0.0139
  0
VERTEX
  8
US1004P08-1
 10
5.3851
 20
-8.2784
 30
0
 70
     0
  0
VERTEX
  8
US1004P08-1
 10
5.8081
 20
-8.2784
 30
0
 70
     0
  0
SEQEND
  0
POLYLINE
  8
US1004P08-1
  6
CONTINUOUS
 62
     7
 66
     1
 40
0.0139
 41
0.0139
  0
VERTEX
  8
US1004P08-1
 10
5.8081
 20
-8.2784
 30
0
 70
     0
  0
VERTEX
  8
US1004P08-1
 10
5.8081
 20
-12.9034
 30
0
 70
     0
  0
SEQEND
  0
POLYLINE
  8
US1004P08-1
  6
CONTINUOUS
 62
     7
 66
     1
 40
0.0139
 41
0.0139
  0
VERTEX
  8
US1004P08-1
 10
5.8081
 20
-13.1993
 30
0
 70
     0
  0
VERTEX
  8
US1004P08-1
 10
5.8081
 20
-13.8313
 30
0
 70
     0
  0
SEQEND
  0
POLYLINE
  8
US1004P08-1
  6
CONTINUOUS
 62
     7
 66
     1
 40
0.0139
 41
0.0139
  0
VERTEX
  8
US1004P08-1
 10
5.8081
 20
-14.1272
 30
0
 70
     0
  0
VERTEX
  8
US1004P08-1
 10
5.8081
 20
-15.5153
 30
0
 70
     0
  0
SEQEND
  0
POLYLINE
  8
US1004P08-1
  6
CONTINUOUS
 62
     7
 66
     1
 40
0.0139
 41
0.0139
  0
VERTEX
  8
US1004P08-1
 10
-3.418
 20
-7.3502
 30
0
 70
     0
  0
VERTEX
  8
US1004P08-1
 10
-3.518
 20
-7.3497
 30
0
 70
     0
  0
SEQEND
  0
POLYLINE
  8
US1004P08-1
  6
CONTINUOUS
 62
     7
 66
     1
 40
0.0139
 41
0.0139
  0
VERTEX
  8
US1004P08-1
 10
-4.779
 20
-7.5639
 30
0
 70
     0
  0
VERTEX
  8
US1004P08-1
 10
-4.7793
 20
-7.6239
 30
0
 70
     0
  0
SEQEND
  0
POLYLINE
  8
US1004P08-1
  6
CONTINUOUS
 62
     7
 66
     1
 40
0.0139
 41
0.0139
  0
VERTEX
  8
US1004P08-1
 10
-4.7783
 20
-7.4062
 30
0
 70
     0
  0
VERTEX
  8
US1004P08-1
 10
-4.779
 20
-7.5639
 30
0
 70
     0
  0
SEQEND
  0
POLYLINE
  8
US1004P08-1
  6
CONTINUOUS
 62
     7
 66
     1
 40
0.0139
 41
0.0139
  0
VERTEX
  8
US1004P08-1
 10
-3.5183
 20
-7.4121
 30
0
 70
     0
  0
VERTEX
  8
US1004P08-1
 10
-3.519
 20
-7.5697
 30
0
 70
     0
  0
SEQEND
  0
POLYLINE
  8
US1004P08-1
  6
CONTINUOUS
 62
     7
 66
     1
 40
0.0139
 41
0.0139
  0
VERTEX
  8
US1004P08-1
 10
-3.519
 20
-7.5697
 30
0
 70
     0
  0
VERTEX
  8
US1004P08-1
 10
-4.779
 20
-7.5639
 30
0
 70
     0
  0
SEQEND
  0
POLYLINE
  8
US1004P08-1
  6
CONTINUOUS
 62
     7
 66
     1
 40
0.0139
 41
0.0139
  0
VERTEX
  8
US1004P08-1
 10
-3.518
 20
-7.3452
 30
0
 70
     0
  0
VERTEX
  8
US1004P08-1
 10
-4.7779
 20
-7.3394
 30
0
 70
     0
  0
SEQEND
  0
POLYLINE
  8
US1004P08-1
  6
CONTINUOUS
 62
     7
 66
     1
 40
0.0139
 41
0.0139
  0
VERTEX
  8
US1004P08-1
 10
-2.1383
 20
-7.4189
 30
0
 70
     0
  0
VERTEX
  8
US1004P08-1
 10
-2.1375
 20
-7.2589
 30
0
 70
     0
  0
SEQEND
  0
POLYLINE
  8
US1004P08-1
  6
CONTINUOUS
 62
     7
 66
     1
 40
0.0139
 41
0.0139
  0
VERTEX
  8
US1004P08-1
 10
-3.4183
 20
-7.4129
 30
0
 70
     0
  0
VERTEX
  8
US1004P08-1
 10
-3.4175
 20
-7.2529
 30
0
 70
     0
  0
SEQEND
  0
POLYLINE
  8
US1004P08-1
  6
CONTINUOUS
 62
     7
 66
     1
 40
0.0139
 41
0.0139
  0
VERTEX
  8
US1004P08-1
 10
-3.4175
 20
-7.2529
 30
0
 70
     0
  0
VERTEX
  8
US1004P08-1
 10
-2.1375
 20
-7.2589
 30
0
 70
     0
  0
SEQEND
  0
POLYLINE
  8
US1004P08-1
  6
CONTINUOUS
 62
     7
 66
     1
 40
0.0139
 41
0.0139
  0
VERTEX
  8
US1004P08-1
 10
-3.4191
 20
-7.5995
 30
0
 70
     0
  0
VERTEX
  8
US1004P08-1
 10
-3.4183
 20
-7.4129
 30
0
 70
     0
  0
SEQEND
  0
POLYLINE
  8
US1004P08-1
  6
CONTINUOUS
 62
     7
 66
     1
 40
0.0139
 41
0.0139
  0
VERTEX
  8
US1004P08-1
 10
-1.8852
 20
-7.5995
 30
0
 70
     0
  0
VERTEX
  8
US1004P08-1
 10
-1.8915
 20
-7.5495
 30
0
 70
     0
  0
VERTEX
  8
US1004P08-1
 10
-1.9069
 20
-7.5031
 30
0
 70
     0
  0
VERTEX
  8
US1004P08-1
 10
-1.9306
 20
-7.4611
 30
0
 70
     0
  0
VERTEX
  8
US1004P08-1
 10
-1.9615
 20
-7.4246
 30
0
 70
     0
  0
VERTEX
  8
US1004P08-1
 10
-1.9986
 20
-7.3945
 30
0
 70
     0
  0
VERTEX
  8
US1004P08-1
 10
-2.0411
 20
-7.3717
 30
0
 70
     0
  0
VERTEX
  8
US1004P08-1
 10
-2.0879
 20
-7.3573
 30
0
 70
     0
  0
VERTEX
  8
US1004P08-1
 10
-2.138
 20
-7.3522
 30
0
 70
     0
  0
SEQEND
  0
POLYLINE
  8
US1004P08-1
  6
CONTINUOUS
 62
     7
 66
     1
 40
0.0139
 41
0.0139
  0
VERTEX
  8
US1004P08-1
 10
3.6426
 20
-7.3831
 30
0
 70
     0
  0
VERTEX
  8
US1004P08-1
 10
3.5426
 20
-7.3826
 30
0
 70
     0
  0
SEQEND
  0
POLYLINE
  8
US1004P08-1
  6
CONTINUOUS
 62
     7
 66
     1
 40
0.0139
 41
0.0139
  0
VERTEX
  8
US1004P08-1
 10
3.5426
 20
-7.3781
 30
0
 70
     0
  0
VERTEX
  8
US1004P08-1
 10
2.2826
 20
-7.3723
 30
0
 70
     0
  0
SEQEND
  0
POLYLINE
  8
US1004P08-1
  6
CONTINUOUS
 62
     7
 66
     1
 40
0.0139
 41
0.0139
  0
VERTEX
  8
US1004P08-1
 10
4.9226
 20
-7.385
 30
0
 70
     0
  0
VERTEX
  8
US1004P08-1
 10
3.6426
 20
-7.3791
 30
0
 70
     0
  0
SEQEND
  0
POLYLINE
  8
US1004P08-1
  6
CONTINUOUS
 62
     7
 66
     1
 40
0.0139
 41
0.0139
  0
VERTEX
  8
US1004P08-1
 10
4.9217
 20
-7.5747
 30
0
 70
     0
  0
VERTEX
  8
US1004P08-1
 10
4.9224
 20
-7.4344
 30
0
 70
     0
  0
SEQEND
  0
POLYLINE
  8
US1004P08-1
  6
CONTINUOUS
 62
     7
 66
     1
 40
0.0139
 41
0.0139
  0
VERTEX
  8
US1004P08-1
 10
4.9214
 20
-7.6344
 30
0
 70
     0
  0
VERTEX
  8
US1004P08-1
 10
4.9217
 20
-7.5747
 30
0
 70
     0
  0
SEQEND
  0
POLYLINE
  8
US1004P08-1
  6
CONTINUOUS
 62
     7
 66
     1
 40
0.0139
 41
0.0139
  0
VERTEX
  8
US1004P08-1
 10
3.6417
 20
-7.5687
 30
0
 70
     0
  0
VERTEX
  8
US1004P08-1
 10
4.9217
 20
-7.5747
 30
0
 70
     0
  0
SEQEND
  0
POLYLINE
  8
US1004P08-1
  6
CONTINUOUS
 62
     7
 66
     1
 40
0.0139
 41
0.0139
  0
VERTEX
  8
US1004P08-1
 10
4.9213
 20
-7.6595
 30
0
 70
     0
  0
VERTEX
  8
US1004P08-1
 10
4.9214
 20
-7.6344
 30
0
 70
     0
  0
SEQEND
  0
POLYLINE
  8
US1004P08-1
  6
CONTINUOUS
 62
     7
 66
     1
 40
0.0139
 41
0.0139
  0
VERTEX
  8
US1004P08-1
 10
3.6416
 20
-7.5995
 30
0
 70
     0
  0
VERTEX
  8
US1004P08-1
 10
3.6417
 20
-7.5687
 30
0
 70
     0
  0
SEQEND
  0
POLYLINE
  8
US1004P08-1
  6
CONTINUOUS
 62
     7
 66
     1
 40
0.0139
 41
0.0139
  0
VERTEX
  8
US1004P08-1
 10
3.6631
 20
-7.6285
 30
0
 70
     0
  0
VERTEX
  8
US1004P08-1
 10
4.9214
 20
-7.6344
 30
0
 70
     0
  0
SEQEND
  0
POLYLINE
  8
US1004P08-1
  6
CONTINUOUS
 62
     7
 66
     1
 40
0.0139
 41
0.0139
  0
VERTEX
  8
US1004P08-1
 10
3.6426
 20
-7.3791
 30
0
 70
     0
  0
VERTEX
  8
US1004P08-1
 10
3.6424
 20
-7.4284
 30
0
 70
     0
  0
SEQEND
  0
POLYLINE
  8
US1004P08-1
  6
CONTINUOUS
 62
     7
 66
     1
 40
0.0139
 41
0.0139
  0
VERTEX
  8
US1004P08-1
 10
3.6417
 20
-7.5687
 30
0
 70
     0
  0
VERTEX
  8
US1004P08-1
 10
3.6424
 20
-7.4284
 30
0
 70
     0
  0
SEQEND
  0
POLYLINE
  8
US1004P08-1
  6
CONTINUOUS
 62
     7
 66
     1
 40
0.0139
 41
0.0139
  0
VERTEX
  8
US1004P08-1
 10
-1.593
 20
-5.6653
 30
0
 70
     0
  0
VERTEX
  8
US1004P08-1
 10
-1.7374
 20
-5.6653
 30
0
 70
     0
  0
SEQEND
  0
POLYLINE
  8
US1004P08-1
  6
CONTINUOUS
 62
     7
 66
     1
 40
0.0139
 41
0.0139
  0
VERTEX
  8
US1004P08-1
 10
-1.4279
 20
-6.6221
 30
0
 70
     0
  0
VERTEX
  8
US1004P08-1
 10
-1.4086
 20
-6.5985
 30
0
 70
     0
  0
VERTEX
  8
US1004P08-1
 10
-1.3948
 20
-6.5722
 30
0
 70
     0
  0
VERTEX
  8
US1004P08-1
 10
-1.3866
 20
-6.5443
 30
0
 70
     0
  0
VERTEX
  8
US1004P08-1
 10
-1.3838
 20
-6.5155
 30
0
 70
     0
  0
VERTEX
  8
US1004P08-1
 10
-1.3865
 20
-6.4866
 30
0
 70
     0
  0
VERTEX
  8
US1004P08-1
 10
-1.3947
 20
-6.4587
 30
0
 70
     0
  0
VERTEX
  8
US1004P08-1
 10
-1.4085
 20
-6.4324
 30
0
 70
     0
  0
VERTEX
  8
US1004P08-1
 10
-1.4277
 20
-6.4087
 30
0
 70
     0
  0
SEQEND
  0
POLYLINE
  8
US1004P08-1
  6
CONTINUOUS
 62
     7
 66
     1
 40
0.0139
 41
0.0139
  0
VERTEX
  8
US1004P08-1
 10
-1.9987
 20
-6.3153
 30
0
 70
     0
  0
VERTEX
  8
US1004P08-1
 10
-1.9986
 20
-6.3153
 30
0
 70
     0
  0
SEQEND
  0
POLYLINE
  8
US1004P08-1
  6
CONTINUOUS
 62
     7
 66
     1
 40
0.0139
 41
0.0139
  0
VERTEX
  8
US1004P08-1
 10
-2.5692
 20
-6.2084
 30
0
 70
     0
  0
VERTEX
  8
US1004P08-1
 10
-2.5885
 20
-6.2321
 30
0
 70
     0
  0
VERTEX
  8
US1004P08-1
 10
-2.6023
 20
-6.2585
 30
0
 70
     0
  0
VERTEX
  8
US1004P08-1
 10
-2.6106
 20
-6.2865
 30
0
 70
     0
  0
VERTEX
  8
US1004P08-1
 10
-2.6133
 20
-6.3154
 30
0
 70
     0
  0
VERTEX
  8
US1004P08-1
 10
-2.6106
 20
-6.3442
 30
0
 70
     0
  0
VERTEX
  8
US1004P08-1
 10
-2.6023
 20
-6.3723
 30
0
 70
     0
  0
VERTEX
  8
US1004P08-1
 10
-2.5885
 20
-6.3986
 30
0
 70
     0
  0
VERTEX
  8
US1004P08-1
 10
-2.5692
 20
-6.4223
 30
0
 70
     0
  0
SEQEND
  0
POLYLINE
  8
US1004P08-1
  6
CONTINUOUS
 62
     7
 66
     1
 40
0.0139
 41
0.0139
  0
VERTEX
  8
US1004P08-1
 10
-1.4283
 20
-6.2222
 30
0
 70
     0
  0
VERTEX
  8
US1004P08-1
 10
-1.4089
 20
-6.1986
 30
0
 70
     0
  0
VERTEX
  8
US1004P08-1
 10
-1.3951
 20
-6.1723
 30
0
 70
     0
  0
VERTEX
  8
US1004P08-1
 10
-1.3868
 20
-6.1443
 30
0
 70
     0
  0
VERTEX
  8
US1004P08-1
 10
-1.3839
 20
-6.1155
 30
0
 70
     0
  0
VERTEX
  8
US1004P08-1
 10
-1.3866
 20
-6.0866
 30
0
 70
     0
  0
VERTEX
  8
US1004P08-1
 10
-1.3948
 20
-6.0586
 30
0
 70
     0
  0
VERTEX
  8
US1004P08-1
 10
-1.4085
 20
-6.0323
 30
0
 70
     0
  0
VERTEX
  8
US1004P08-1
 10
-1.4277
 20
-6.0086
 30
0
 70
     0
  0
SEQEND
  0
POLYLINE
  8
US1004P08-1
  6
CONTINUOUS
 62
     7
 66
     1
 40
0.0139
 41
0.0139
  0
VERTEX
  8
US1004P08-1
 10
-1.428
 20
-7.4221
 30
0
 70
     0
  0
VERTEX
  8
US1004P08-1
 10
-1.4088
 20
-7.3983
 30
0
 70
     0
  0
VERTEX
  8
US1004P08-1
 10
-1.3951
 20
-7.372
 30
0
 70
     0
  0
VERTEX
  8
US1004P08-1
 10
-1.3869
 20
-7.344
 30
0
 70
     0
  0
VERTEX
  8
US1004P08-1
 10
-1.3842
 20
-7.3152
 30
0
 70
     0
  0
VERTEX
  8
US1004P08-1
 10
-1.3869
 20
-7.2864
 30
0
 70
     0
  0
VERTEX
  8
US1004P08-1
 10
-1.3952
 20
-7.2584
 30
0
 70
     0
  0
VERTEX
  8
US1004P08-1
 10
-1.409
 20
-7.2321
 30
0
 70
     0
  0
VERTEX
  8
US1004P08-1
 10
-1.4282
 20
-7.2084
 30
0
 70
     0
  0
SEQEND
  0
POLYLINE
  8
US1004P08-1
  6
CONTINUOUS
 62
     7
 66
     1
 40
0.0139
 41
0.0139
  0
VERTEX
  8
US1004P08-1
 10
-2.5693
 20
-6.6083
 30
0
 70
     0
  0
VERTEX
  8
US1004P08-1
 10
-2.5886
 20
-6.6321
 30
0
 70
     0
  0
VERTEX
  8
US1004P08-1
 10
-2.6023
 20
-6.6584
 30
0
 70
     0
  0
VERTEX
  8
US1004P08-1
 10
-2.6106
 20
-6.6864
 30
0
 70
     0
  0
VERTEX
  8
US1004P08-1
 10
-2.6133
 20
-6.7152
 30
0
 70
     0
  0
VERTEX
  8
US1004P08-1
 10
-2.6106
 20
-6.7441
 30
0
 70
     0
  0
VERTEX
  8
US1004P08-1
 10
-2.6023
 20
-6.7721
 30
0
 70
     0
  0
VERTEX
  8
US1004P08-1
 10
-2.5885
 20
-6.7984
 30
0
 70
     0
  0
VERTEX
  8
US1004P08-1
 10
-2.5692
 20
-6.8222
 30
0
 70
     0
  0
SEQEND
  0
POLYLINE
  8
US1004P08-1
  6
CONTINUOUS
 62
     7
 66
     1
 40
0.0139
 41
0.0139
  0
VERTEX
  8
US1004P08-1
 10
-1.4283
 20
-5.8222
 30
0
 70
     0
  0
VERTEX
  8
US1004P08-1
 10
-1.4024
 20
-5.7881
 30
0
 70
     0
  0
VERTEX
  8
US1004P08-1
 10
-1.3878
 20
-5.7489
 30
0
 70
     0
  0
VERTEX
  8
US1004P08-1
 10
-1.3849
 20
-5.707
 30
0
 70
     0
  0
VERTEX
  8
US1004P08-1
 10
-1.3944
 20
-5.6653
 30
0
 70
     0
  0
SEQEND
  0
POLYLINE
  8
US1004P08-1
  6
CONTINUOUS
 62
     7
 66
     1
 40
0.0139
 41
0.0139
  0
VERTEX
  8
US1004P08-1
 10
-1.4277
 20
-7.0219
 30
0
 70
     0
  0
VERTEX
  8
US1004P08-1
 10
-1.4085
 20
-6.9982
 30
0
 70
     0
  0
VERTEX
  8
US1004P08-1
 10
-1.3948
 20
-6.9719
 30
0
 70
     0
  0
VERTEX
  8
US1004P08-1
 10
-1.3866
 20
-6.944
 30
0
 70
     0
  0
VERTEX
  8
US1004P08-1
 10
-1.384
 20
-6.9152
 30
0
 70
     0
  0
VERTEX
  8
US1004P08-1
 10
-1.3867
 20
-6.8864
 30
0
 70
     0
  0
VERTEX
  8
US1004P08-1
 10
-1.395
 20
-6.8584
 30
0
 70
     0
  0
VERTEX
  8
US1004P08-1
 10
-1.4088
 20
-6.8322
 30
0
 70
     0
  0
VERTEX
  8
US1004P08-1
 10
-1.4281
 20
-6.8085
 30
0
 70
     0
  0
SEQEND
  0
POLYLINE
  8
US1004P08-1
  6
CONTINUOUS
 62
     7
 66
     1
 40
0.0139
 41
0.0139
  0
VERTEX
  8
US1004P08-1
 10
-2.5693
 20
-7.0081
 30
0
 70
     0
  0
VERTEX
  8
US1004P08-1
 10
-2.5887
 20
-7.0319
 30
0
 70
     0
  0
VERTEX
  8
US1004P08-1
 10
-2.6025
 20
-7.0582
 30
0
 70
     0
  0
VERTEX
  8
US1004P08-1
 10
-2.6108
 20
-7.0862
 30
0
 70
     0
  0
VERTEX
  8
US1004P08-1
 10
-2.6135
 20
-7.1151
 30
0
 70
     0
  0
VERTEX
  8
US1004P08-1
 10
-2.6108
 20
-7.144
 30
0
 70
     0
  0
VERTEX
  8
US1004P08-1
 10
-2.6025
 20
-7.172
 30
0
 70
     0
  0
VERTEX
  8
US1004P08-1
 10
-2.5887
 20
-7.1983
 30
0
 70
     0
  0
VERTEX
  8
US1004P08-1
 10
-2.5694
 20
-7.2221
 30
0
 70
     0
  0
SEQEND
  0
POLYLINE
  8
US1004P08-1
  6
CONTINUOUS
 62
     7
 66
     1
 40
0.0139
 41
0.0139
  0
VERTEX
  8
US1004P08-1
 10
-2.5692
 20
-5.8083
 30
0
 70
     0
  0
VERTEX
  8
US1004P08-1
 10
-2.5886
 20
-5.832
 30
0
 70
     0
  0
VERTEX
  8
US1004P08-1
 10
-2.6024
 20
-5.8583
 30
0
 70
     0
  0
VERTEX
  8
US1004P08-1
 10
-2.6107
 20
-5.8863
 30
0
 70
     0
  0
VERTEX
  8
US1004P08-1
 10
-2.6135
 20
-5.9152
 30
0
 70
     0
  0
VERTEX
  8
US1004P08-1
 10
-2.6108
 20
-5.9441
 30
0
 70
     0
  0
VERTEX
  8
US1004P08-1
 10
-2.6026
 20
-5.9721
 30
0
 70
     0
  0
VERTEX
  8
US1004P08-1
 10
-2.5888
 20
-5.9985
 30
0
 70
     0
  0
VERTEX
  8
US1004P08-1
 10
-2.5695
 20
-6.0223
 30
0
 70
     0
  0
SEQEND
  0
POLYLINE
  8
US1004P08-1
  6
CONTINUOUS
 62
     7
 66
     1
 40
0.0139
 41
0.0139
  0
VERTEX
  8
US1004P08-1
 10
2.407
 20
-5.6653
 30
0
 70
     0
  0
VERTEX
  8
US1004P08-1
 10
2.2626
 20
-5.6653
 30
0
 70
     0
  0
SEQEND
  0
POLYLINE
  8
US1004P08-1
  6
CONTINUOUS
 62
     7
 66
     1
 40
0.0139
 41
0.0139
  0
VERTEX
  8
US1004P08-1
 10
2.5721
 20
-6.6221
 30
0
 70
     0
  0
VERTEX
  8
US1004P08-1
 10
2.5914
 20
-6.5985
 30
0
 70
     0
  0
VERTEX
  8
US1004P08-1
 10
2.6052
 20
-6.5722
 30
0
 70
     0
  0
VERTEX
  8
US1004P08-1
 10
2.6134
 20
-6.5443
 30
0
 70
     0
  0
VERTEX
  8
US1004P08-1
 10
2.6162
 20
-6.5155
 30
0
 70
     0
  0
VERTEX
  8
US1004P08-1
 10
2.6135
 20
-6.4866
 30
0
 70
     0
  0
VERTEX
  8
US1004P08-1
 10
2.6053
 20
-6.4587
 30
0
 70
     0
  0
VERTEX
  8
US1004P08-1
 10
2.5915
 20
-6.4324
 30
0
 70
     0
  0
VERTEX
  8
US1004P08-1
 10
2.5723
 20
-6.4087
 30
0
 70
     0
  0
SEQEND
  0
POLYLINE
  8
US1004P08-1
  6
CONTINUOUS
 62
     7
 66
     1
 40
0.0139
 41
0.0139
  0
VERTEX
  8
US1004P08-1
 10
2.0013
 20
-6.3153
 30
0
 70
     0
  0
VERTEX
  8
US1004P08-1
 10
2.0014
 20
-6.3153
 30
0
 70
     0
  0
SEQEND
  0
POLYLINE
  8
US1004P08-1
  6
CONTINUOUS
 62
     7
 66
     1
 40
0.0139
 41
0.0139
  0
VERTEX
  8
US1004P08-1
 10
1.4506
 20
-7.3971
 30
0
 70
     0
  0
VERTEX
  8
US1004P08-1
 10
1.4337
 20
-7.4163
 30
0
 70
     0
  0
SEQEND
  0
POLYLINE
  8
US1004P08-1
  6
CONTINUOUS
 62
     7
 66
     1
 40
0.0139
 41
0.0139
  0
VERTEX
  8
US1004P08-1
 10
1.4308
 20
-6.2084
 30
0
 70
     0
  0
VERTEX
  8
US1004P08-1
 10
1.4115
 20
-6.2321
 30
0
 70
     0
  0
VERTEX
  8
US1004P08-1
 10
1.3977
 20
-6.2585
 30
0
 70
     0
  0
VERTEX
  8
US1004P08-1
 10
1.3894
 20
-6.2865
 30
0
 70
     0
  0
VERTEX
  8
US1004P08-1
 10
1.3867
 20
-6.3154
 30
0
 70
     0
  0
VERTEX
  8
US1004P08-1
 10
1.3894
 20
-6.3442
 30
0
 70
     0
  0
VERTEX
  8
US1004P08-1
 10
1.3977
 20
-6.3723
 30
0
 70
     0
  0
VERTEX
  8
US1004P08-1
 10
1.4115
 20
-6.3986
 30
0
 70
     0
  0
VERTEX
  8
US1004P08-1
 10
1.4308
 20
-6.4223
 30
0
 70
     0
  0
SEQEND
  0
POLYLINE
  8
US1004P08-1
  6
CONTINUOUS
 62
     7
 66
     1
 40
0.0139
 41
0.0139
  0
VERTEX
  8
US1004P08-1
 10
2.5717
 20
-6.2222
 30
0
 70
     0
  0
VERTEX
  8
US1004P08-1
 10
2.5911
 20
-6.1986
 30
0
 70
     0
  0
VERTEX
  8
US1004P08-1
 10
2.6049
 20
-6.1723
 30
0
 70
     0
  0
VERTEX
  8
US1004P08-1
 10
2.6132
 20
-6.1443
 30
0
 70
     0
  0
VERTEX
  8
US1004P08-1
 10
2.6161
 20
-6.1155
 30
0
 70
     0
  0
VERTEX
  8
US1004P08-1
 10
2.6134
 20
-6.0866
 30
0
 70
     0
  0
VERTEX
  8
US1004P08-1
 10
2.6052
 20
-6.0586
 30
0
 70
     0
  0
VERTEX
  8
US1004P08-1
 10
2.5915
 20
-6.0323
 30
0
 70
     0
  0
VERTEX
  8
US1004P08-1
 10
2.5723
 20
-6.0086
 30
0
 70
     0
  0
SEQEND
  0
POLYLINE
  8
US1004P08-1
  6
CONTINUOUS
 62
     7
 66
     1
 40
0.0139
 41
0.0139
  0
VERTEX
  8
US1004P08-1
 10
1.4307
 20
-6.6083
 30
0
 70
     0
  0
VERTEX
  8
US1004P08-1
 10
1.4114
 20
-6.6321
 30
0
 70
     0
  0
VERTEX
  8
US1004P08-1
 10
1.3977
 20
-6.6584
 30
0
 70
     0
  0
VERTEX
  8
US1004P08-1
 10
1.3894
 20
-6.6864
 30
0
 70
     0
  0
VERTEX
  8
US1004P08-1
 10
1.3867
 20
-6.7152
 30
0
 70
     0
  0
VERTEX
  8
US1004P08-1
 10
1.3894
 20
-6.7441
 30
0
 70
     0
  0
VERTEX
  8
US1004P08-1
 10
1.3977
 20
-6.7721
 30
0
 70
     0
  0
VERTEX
  8
US1004P08-1
 10
1.4115
 20
-6.7984
 30
0
 70
     0
  0
VERTEX
  8
US1004P08-1
 10
1.4308
 20
-6.8222
 30
0
 70
     0
  0
SEQEND
  0
POLYLINE
  8
US1004P08-1
  6
CONTINUOUS
 62
     7
 66
     1
 40
0.0139
 41
0.0139
  0
VERTEX
  8
US1004P08-1
 10
2.0011
 20
-6.5153
 30
0
 70
     0
  0
VERTEX
  8
US1004P08-1
 10
2.001
 20
-6.5153
 30
0
 70
     0
  0
SEQEND
  0
POLYLINE
  8
US1004P08-1
  6
CONTINUOUS
 62
     7
 66
     1
 40
0.0139
 41
0.0139
  0
VERTEX
  8
US1004P08-1
 10
2.5717
 20
-5.8222
 30
0
 70
     0
  0
VERTEX
  8
US1004P08-1
 10
2.5976
 20
-5.7881
 30
0
 70
     0
  0
VERTEX
  8
US1004P08-1
 10
2.6122
 20
-5.7489
 30
0
 70
     0
  0
VERTEX
  8
US1004P08-1
 10
2.6151
 20
-5.707
 30
0
 70
     0
  0
VERTEX
  8
US1004P08-1
 10
2.6056
 20
-5.6653
 30
0
 70
     0
  0
SEQEND
  0
POLYLINE
  8
US1004P08-1
  6
CONTINUOUS
 62
     7
 66
     1
 40
0.0139
 41
0.0139
  0
VERTEX
  8
US1004P08-1
 10
2.5723
 20
-7.0219
 30
0
 70
     0
  0
VERTEX
  8
US1004P08-1
 10
2.5915
 20
-6.9982
 30
0
 70
     0
  0
VERTEX
  8
US1004P08-1
 10
2.6052
 20
-6.9719
 30
0
 70
     0
  0
VERTEX
  8
US1004P08-1
 10
2.6134
 20
-6.944
 30
0
 70
     0
  0
VERTEX
  8
US1004P08-1
 10
2.616
 20
-6.9152
 30
0
 70
     0
  0
VERTEX
  8
US1004P08-1
 10
2.6133
 20
-6.8864
 30
0
 70
     0
  0
VERTEX
  8
US1004P08-1
 10
2.605
 20
-6.8584
 30
0
 70
     0
  0
VERTEX
  8
US1004P08-1
 10
2.5912
 20
-6.8322
 30
0
 70
     0
  0
VERTEX
  8
US1004P08-1
 10
2.5719
 20
-6.8085
 30
0
 70
     0
  0
SEQEND
  0
POLYLINE
  8
US1004P08-1
  6
CONTINUOUS
 62
     7
 66
     1
 40
0.0139
 41
0.0139
  0
VERTEX
  8
US1004P08-1
 10
1.4307
 20
-7.0081
 30
0
 70
     0
  0
VERTEX
  8
US1004P08-1
 10
1.4113
 20
-7.0319
 30
0
 70
     0
  0
VERTEX
  8
US1004P08-1
 10
1.3975
 20
-7.0582
 30
0
 70
     0
  0
VERTEX
  8
US1004P08-1
 10
1.3892
 20
-7.0862
 30
0
 70
     0
  0
VERTEX
  8
US1004P08-1
 10
1.3865
 20
-7.1151
 30
0
 70
     0
  0
VERTEX
  8
US1004P08-1
 10
1.3892
 20
-7.144
 30
0
 70
     0
  0
VERTEX
  8
US1004P08-1
 10
1.3975
 20
-7.172
 30
0
 70
     0
  0
VERTEX
  8
US1004P08-1
 10
1.4113
 20
-7.1983
 30
0
 70
     0
  0
VERTEX
  8
US1004P08-1
 10
1.4306
 20
-7.2221
 30
0
 70
     0
  0
SEQEND
  0
POLYLINE
  8
US1004P08-1
  6
CONTINUOUS
 62
     7
 66
     1
 40
0.0139
 41
0.0139
  0
VERTEX
  8
US1004P08-1
 10
1.4308
 20
-5.8083
 30
0
 70
     0
  0
VERTEX
  8
US1004P08-1
 10
1.4114
 20
-5.832
 30
0
 70
     0
  0
VERTEX
  8
US1004P08-1
 10
1.3976
 20
-5.8583
 30
0
 70
     0
  0
VERTEX
  8
US1004P08-1
 10
1.3893
 20
-5.8863
 30
0
 70
     0
  0
VERTEX
  8
US1004P08-1
 10
1.3865
 20
-5.9152
 30
0
 70
     0
  0
VERTEX
  8
US1004P08-1
 10
1.3892
 20
-5.9441
 30
0
 70
     0
  0
VERTEX
  8
US1004P08-1
 10
1.3974
 20
-5.9721
 30
0
 70
     0
  0
VERTEX
  8
US1004P08-1
 10
1.4112
 20
-5.9985
 30
0
 70
     0
  0
VERTEX
  8
US1004P08-1
 10
1.4305
 20
-6.0223
 30
0
 70
     0
  0
SEQEND
  0
POLYLINE
  8
US1004P08-1
  6
CONTINUOUS
 62
     7
 66
     1
 40
0.0139
 41
0.0139
  0
VERTEX
  8
US1004P08-1
 10
-4.9787
 20
-5.3469
 30
0
 70
     0
  0
VERTEX
  8
US1004P08-1
 10
-4.9787
 20
-5.5269
 30
0
 70
     0
  0
SEQEND
  0
POLYLINE
  8
US1004P08-1
  6
CONTINUOUS
 62
     7
 66
     1
 40
0.0139
 41
0.0139
  0
VERTEX
  8
US1004P08-1
 10
-4.9787
 20
-5.5269
 30
0
 70
     0
  0
VERTEX
  8
US1004P08-1
 10
-4.7287
 20
-5.5269
 30
0
 70
     0
  0
SEQEND
  0
POLYLINE
  8
US1004P08-1
  6
CONTINUOUS
 62
     7
 66
     1
 40
0.0139
 41
0.0139
  0
VERTEX
  8
US1004P08-1
 10
-4.9787
 20
-5.3469
 30
0
 70
     0
  0
VERTEX
  8
US1004P08-1
 10
-4.7287
 20
-5.3469
 30
0
 70
     0
  0
SEQEND
  0
POLYLINE
  8
US1004P08-1
  6
CONTINUOUS
 62
     7
 66
     1
 40
0.0139
 41
0.0139
  0
VERTEX
  8
US1004P08-1
 10
4.7313
 20
-5.3469
 30
0
 70
     0
  0
VERTEX
  8
US1004P08-1
 10
4.9813
 20
-5.3469
 30
0
 70
     0
  0
SEQEND
  0
POLYLINE
  8
US1004P08-1
  6
CONTINUOUS
 62
     7
 66
     1
 40
0.0139
 41
0.0139
  0
VERTEX
  8
US1004P08-1
 10
-4.7287
 20
-5.3469
 30
0
 70
     0
  0
VERTEX
  8
US1004P08-1
 10
4.7313
 20
-5.3469
 30
0
 70
     0
  0
SEQEND
  0
POLYLINE
  8
US1004P08-1
  6
CONTINUOUS
 62
     7
 66
     1
 40
0.0139
 41
0.0139
  0
VERTEX
  8
US1004P08-1
 10
4.9813
 20
-5.3469
 30
0
 70
     0
  0
VERTEX
  8
US1004P08-1
 10
4.9813
 20
-5.5269
 30
0
 70
     0
  0
SEQEND
  0
POLYLINE
  8
US1004P08-1
  6
CONTINUOUS
 62
     7
 66
     1
 40
0.0139
 41
0.0139
  0
VERTEX
  8
US1004P08-1
 10
-4.7287
 20
-5.5269
 30
0
 70
     0
  0
VERTEX
  8
US1004P08-1
 10
4.7313
 20
-5.5269
 30
0
 70
     0
  0
SEQEND
  0
POLYLINE
  8
US1004P08-1
  6
CONTINUOUS
 62
     7
 66
     1
 40
0.0139
 41
0.0139
  0
VERTEX
  8
US1004P08-1
 10
4.7313
 20
-5.5269
 30
0
 70
     0
  0
VERTEX
  8
US1004P08-1
 10
4.9813
 20
-5.5269
 30
0
 70
     0
  0
SEQEND
  0
ENDBLK
  8
US1004P08-1
  0
ENDSEC
  0
SECTION
  2
ENTITIES
  0
INSERT
  8
US1004P08-1
  2
Group1
 10
0
 20
0
 30
0
  0
ENDSEC
  0
EOF
